<svg width="28" height="28" viewBox="0 0 28 28" fill="none" xmlns="http://www.w3.org/2000/svg">
<path d="M27.3307 14.0001C27.3307 6.64008 21.3574 0.666748 13.9974 0.666748C6.6374 0.666748 0.664062 6.64008 0.664062 14.0001C0.664062 21.3601 6.6374 27.3334 13.9974 27.3334C21.3574 27.3334 27.3307 21.3601 27.3307 14.0001ZM3.33073 14.0001C3.33073 8.10675 8.10406 3.33341 13.9974 3.33341C19.8907 3.33341 24.6641 8.10675 24.6641 14.0001C24.6641 19.8934 19.8907 24.6667 13.9974 24.6667C8.10406 24.6667 3.33073 19.8934 3.33073 14.0001ZM19.3307 14.0001L13.9974 19.3334L12.1174 17.4534L14.2241 15.3334H8.66406V12.6667H14.2241L12.1041 10.5467L13.9974 8.66675L19.3307 14.0001Z" fill="#209DB7"/>
</svg>
