<svg width="24" height="24" viewBox="0 0 24 24" fill="none" xmlns="http://www.w3.org/2000/svg">
<path d="M19.5333 12H18.8133C18.6663 11.526 18.4373 11.074 18.1243 10.665C17.3153 9.606 16.0883 9 14.7583 9H4.24425C2.91325 9 1.68625 9.606 0.878254 10.665C0.0652537 11.728 -0.199746 13.078 0.152254 14.37C0.678254 16.308 1.39925 18.202 2.29425 20.004C3.93625 23.307 6.44125 24 8.25525 24H10.7483C12.3613 24 14.5203 23.446 16.1333 21H19.1053C21.8053 21 24.0013 18.783 24.0013 16.058C24.0013 13.693 22.3663 12.177 19.5333 12ZM15.9553 13.583C15.4803 15.33 14.8293 17.041 14.0213 18.668C12.9823 20.758 11.6553 21 10.7473 21H8.25425C7.34625 21 6.01825 20.758 4.98025 18.669C4.17225 17.043 3.52225 15.332 3.04625 13.583C2.94225 13.201 3.02125 12.801 3.26125 12.487C3.49725 12.177 3.85625 12 4.24425 12H14.7583C15.1463 12 15.5053 12.178 15.7413 12.487C15.9813 12.8 16.0583 13.201 15.9553 13.583ZM19.1043 18H17.6053C18.0093 17.017 18.3623 16.015 18.6623 14.999L19.4383 14.997C21.0013 15.097 21.0013 15.698 21.0013 16.058C21.0013 17.129 20.1493 18 19.1043 18ZM5.50125 2.2C5.50125 0.985 6.39625 0 7.50125 0C8.60625 0 9.50125 0.985 9.50125 2.2C9.50125 0.985 10.3963 0 11.5013 0C12.6063 0 13.5013 0.985 13.5013 2.2C13.5013 3.93 11.2453 5.957 10.1213 6.859C9.75925 7.149 9.24225 7.149 8.88125 6.859C7.75825 5.957 5.50125 3.93 5.50125 2.2Z" fill="black"/>
<path d="M19.5333 12H18.8133C18.6663 11.526 18.4373 11.074 18.1243 10.665C17.3153 9.606 16.0883 9 14.7583 9H4.24425C2.91325 9 1.68625 9.606 0.878254 10.665C0.0652537 11.728 -0.199746 13.078 0.152254 14.37C0.678254 16.308 1.39925 18.202 2.29425 20.004C3.93625 23.307 6.44125 24 8.25525 24H10.7483C12.3613 24 14.5203 23.446 16.1333 21H19.1053C21.8053 21 24.0013 18.783 24.0013 16.058C24.0013 13.693 22.3663 12.177 19.5333 12ZM15.9553 13.583C15.4803 15.33 14.8293 17.041 14.0213 18.668C12.9823 20.758 11.6553 21 10.7473 21H8.25425C7.34625 21 6.01825 20.758 4.98025 18.669C4.17225 17.043 3.52225 15.332 3.04625 13.583C2.94225 13.201 3.02125 12.801 3.26125 12.487C3.49725 12.177 3.85625 12 4.24425 12H14.7583C15.1463 12 15.5053 12.178 15.7413 12.487C15.9813 12.8 16.0583 13.201 15.9553 13.583ZM19.1043 18H17.6053C18.0093 17.017 18.3623 16.015 18.6623 14.999L19.4383 14.997C21.0013 15.097 21.0013 15.698 21.0013 16.058C21.0013 17.129 20.1493 18 19.1043 18ZM5.50125 2.2C5.50125 0.985 6.39625 0 7.50125 0C8.60625 0 9.50125 0.985 9.50125 2.2C9.50125 0.985 10.3963 0 11.5013 0C12.6063 0 13.5013 0.985 13.5013 2.2C13.5013 3.93 11.2453 5.957 10.1213 6.859C9.75925 7.149 9.24225 7.149 8.88125 6.859C7.75825 5.957 5.50125 3.93 5.50125 2.2Z" fill="url(#paint0_radial_2085_36494)"/>
<defs>
<radialGradient id="paint0_radial_2085_36494" cx="0" cy="0" r="1" gradientUnits="userSpaceOnUse" gradientTransform="translate(12.0006 12) rotate(99.7281) scale(15.2188 15.2196)">
<stop offset="0.055" stop-color="#7A73FF"/>
<stop offset="0.65" stop-color="#67DDFA"/>
<stop offset="1" stop-color="#4AFCF1"/>
</radialGradient>
</defs>
</svg>
