<svg width="24" height="24" viewBox="0 0 24 24" fill="none" xmlns="http://www.w3.org/2000/svg">
<path d="M18.8114 12C18.2672 10.245 16.6058 9 14.7564 9H4.24242C1.48235 9 -0.574037 11.7109 0.150418 14.37C0.676418 16.308 1.39742 18.202 2.29242 20.004C3.93442 23.307 6.43942 24 8.25342 24H10.7464C12.3594 24 14.5184 23.446 16.1314 21H19.1034C21.8034 21 23.9994 18.783 23.9994 16.058C23.9994 13.1123 21.3677 12 18.8114 12ZM15.9534 13.583C15.2555 16.1498 14.0928 21 10.7454 21H8.25242C4.90369 21 3.74315 16.1504 3.04442 13.583C2.83214 12.8033 3.42985 12 4.24242 12H14.7564C15.5709 12 16.1637 12.8031 15.9534 13.583ZM17.6034 18C18.0074 17.017 18.3604 16.015 18.6604 14.999C19.518 14.9968 20.9994 14.8937 20.9994 16.058C20.9994 18.0457 19.0332 18 17.6034 18ZM5.49942 2.2C5.49942 0.985 6.39442 0 7.49942 0C8.60442 0 9.49942 0.985 9.49942 2.2C9.49942 0.985 10.3944 0 11.4994 0C12.6044 0 13.4994 0.985 13.4994 2.2C13.4994 3.93 11.2434 5.957 10.1194 6.859C9.75742 7.149 9.24042 7.149 8.87942 6.859C7.75642 5.957 5.49942 3.93 5.49942 2.2Z" fill="url(#paint0_radial_2085_36494)"/>
<defs>
<radialGradient id="paint0_radial_2085_36494" cx="0" cy="0" r="1" gradientUnits="userSpaceOnUse" gradientTransform="translate(12.0006 12) rotate(99.7281) scale(15.2188 15.2196)">
<stop offset="0.055" stop-color="#7A73FF"/>
<stop offset="0.65" stop-color="#67DDFA"/>
<stop offset="1" stop-color="#4AFCF1"/>
</radialGradient>
</defs>
</svg>
