<svg width="24" height="24" viewBox="0 0 24 24" fill="none" xmlns="http://www.w3.org/2000/svg">
<path d="M7.5 24C5.41111 24 3.63889 23.2722 2.18333 21.8167C0.727778 20.3611 0 18.5889 0 16.5C0 15.5 0.188889 14.5444 0.566667 13.6333C0.944444 12.7222 1.48889 11.9111 2.2 11.2L11.2 2.2C11.9111 1.48889 12.7222 0.944444 13.6333 0.566667C14.5444 0.188889 15.5 0 16.5 0C18.5889 0 20.3611 0.727778 21.8167 2.18333C23.2722 3.63889 24 5.41111 24 7.5C24 8.5 23.8111 9.45556 23.4333 10.3667C23.0556 11.2778 22.5111 12.0889 21.8 12.8L12.8 21.8C12.0889 22.5111 11.2778 23.0556 10.3667 23.4333C9.45556 23.8111 8.5 24 7.5 24ZM16.3667 14.4667L19.9333 10.9333C20.3778 10.4889 20.7222 9.96667 20.9667 9.36667C21.2111 8.76667 21.3333 8.14444 21.3333 7.5C21.3333 6.16667 20.8611 5.02778 19.9167 4.08333C18.9722 3.13889 17.8333 2.66667 16.5 2.66667C15.8556 2.66667 15.2333 2.78889 14.6333 3.03333C14.0333 3.27778 13.5111 3.62222 13.0667 4.06667L9.53333 7.63333L16.3667 14.4667ZM7.5 21.3333C8.14444 21.3333 8.76667 21.2111 9.36667 20.9667C9.96667 20.7222 10.4889 20.3778 10.9333 19.9333L14.4667 16.3667L7.63333 9.53333L4.06667 13.0667C3.62222 13.5111 3.27778 14.0333 3.03333 14.6333C2.78889 15.2333 2.66667 15.8556 2.66667 16.5C2.66667 17.8333 3.13889 18.9722 4.08333 19.9167C5.02778 20.8611 6.16667 21.3333 7.5 21.3333Z" fill="url(#paint0_radial_40_45480)"/>
<defs>
<radialGradient id="paint0_radial_40_45480" cx="0" cy="0" r="1" gradientUnits="userSpaceOnUse" gradientTransform="translate(12 12) rotate(99.7276) scale(15.2188)">
<stop offset="0.055" stop-color="#7A73FF"/>
<stop offset="0.65" stop-color="#67DDFA"/>
<stop offset="1" stop-color="#4AFCF1"/>
</radialGradient>
</defs>
</svg>
