<svg width="32" height="33" viewBox="0 0 32 33" fill="none" xmlns="http://www.w3.org/2000/svg">
<path d="M15.5293 4.50297C13.0241 4.45623 10.5155 4.96129 8.28125 6.05179C5.29025 7.47879 2.865 9.96103 1.5 12.917C3.015 10.032 5.53033 7.73301 8.48633 6.50101C11.4323 5.24401 14.7579 5.02909 17.8359 5.70609C20.9149 6.37309 23.7623 8.02198 25.6953 10.419C27.6543 12.801 28.594 15.878 28.5 18.917C28.5 18.932 28.499 18.9528 28.5 18.9678C28.51 19.5208 28.9675 19.9583 29.5195 19.9483C30.0715 19.9383 30.511 19.4807 30.5 18.9287V18.917C30.434 15.459 29.1601 11.9864 26.8301 9.44437C24.5271 6.87737 21.3254 5.27243 18.0234 4.73343C17.1989 4.59668 16.3644 4.51854 15.5293 4.50297ZM15.1699 7.30179C13.9222 7.29792 12.6805 7.47881 11.5 7.84281C13.905 7.27781 16.4541 7.46762 18.7051 8.35062C20.9541 9.23762 22.9042 10.8193 24.1582 12.8213C25.4292 14.8143 25.9759 17.2052 25.7109 19.4952C25.4709 21.7862 24.423 23.948 22.793 25.46C22.778 25.474 22.7601 25.4909 22.7461 25.5069C22.3661 25.9089 22.3851 26.5439 22.7871 26.9229C23.1891 27.3029 23.8222 27.2839 24.2012 26.8819L24.207 26.8741C26.082 24.8891 27.1226 22.2404 27.2246 19.6084C27.3536 16.9694 26.5311 14.326 24.9961 12.251C23.4751 10.16 21.277 8.63606 18.875 7.87406C17.6715 7.49456 16.4177 7.30567 15.1699 7.30179ZM18.5 10.917C20.233 11.666 21.6198 13.073 22.3438 14.751C23.0847 16.415 23.2571 18.318 22.8711 20.044C22.4821 21.769 21.5239 23.3415 20.1719 24.3955C18.8289 25.4585 17.143 25.992 15.5 25.917C15.472 25.916 15.4372 25.916 15.4082 25.917C14.8562 25.942 14.4281 26.4119 14.4531 26.9639C14.4781 27.5159 14.948 27.942 15.5 27.917C17.627 27.829 19.6692 26.9444 21.1602 25.5264C22.6662 24.1174 23.6003 22.1889 23.8633 20.2159C24.1233 18.2349 23.7369 16.2264 22.7949 14.5244C21.8669 12.8164 20.29 11.505 18.5 10.917ZM19.5 15.917C20.193 16.966 20.1536 18.3132 19.9316 19.4502C19.6576 20.5982 18.8938 21.5699 17.9258 22.1299C16.9588 22.7019 15.8026 22.8482 14.7656 22.6182C13.7276 22.3902 12.8271 21.7547 12.2891 20.9287C12.2641 20.8917 12.2331 20.8505 12.2031 20.8155C11.8391 20.3975 11.2051 20.3538 10.7871 20.7178C10.3691 21.0818 10.3274 21.7158 10.6914 22.1338L10.7109 22.1553C11.7049 23.2963 13.1169 23.9885 14.5469 24.1045C15.9709 24.2245 17.4102 23.8111 18.4922 22.9561C19.5792 22.1141 20.2987 20.8472 20.4297 19.5342C20.4957 18.8722 20.4316 18.2393 20.3066 17.6143C20.1786 16.9913 19.919 16.383 19.5 15.917Z" fill="url(#paint0_radial_1239_34011)" stroke="url(#paint1_radial_1239_34011)"/>
<defs>
<radialGradient id="paint0_radial_1239_34011" cx="0" cy="0" r="1" gradientUnits="userSpaceOnUse" gradientTransform="translate(16.0001 16.209) rotate(101.985) scale(14.9625 18.251)">
<stop stop-color="#FD9BE8"/>
<stop offset="0.338542" stop-color="#7A73FF"/>
<stop offset="0.734375" stop-color="#75CDFF"/>
<stop offset="1" stop-color="#4AFCF1"/>
</radialGradient>
<radialGradient id="paint1_radial_1239_34011" cx="0" cy="0" r="1" gradientUnits="userSpaceOnUse" gradientTransform="translate(16.0001 16.209) rotate(101.985) scale(14.9625 18.251)">
<stop stop-color="#FD9BE8"/>
<stop offset="0.338542" stop-color="#7A73FF"/>
<stop offset="0.734375" stop-color="#75CDFF"/>
<stop offset="1" stop-color="#4AFCF1"/>
</radialGradient>
</defs>
</svg>
