<svg width="24" height="22" viewBox="0 0 24 22" fill="none" xmlns="http://www.w3.org/2000/svg">
<path d="M4 19.3333V20.6666C4 21.0444 3.87244 21.3608 3.61733 21.616C3.36133 21.872 3.04444 22 2.66667 22H1.33333C0.955556 22 0.639111 21.872 0.384 21.616C0.128 21.3608 0 21.0444 0 20.6666V9.99996L2.8 1.99996C2.93333 1.59996 3.17244 1.27774 3.51733 1.03329C3.86133 0.788848 4.24444 0.666626 4.66667 0.666626H19.3333C19.7556 0.666626 20.1391 0.788848 20.484 1.03329C20.828 1.27774 21.0667 1.59996 21.2 1.99996L24 9.99996V20.6666C24 21.0444 23.872 21.3608 23.616 21.616C23.3609 21.872 23.0444 22 22.6667 22H21.3333C20.9556 22 20.6391 21.872 20.384 21.616C20.128 21.3608 20 21.0444 20 20.6666V19.3333H4ZM3.73333 7.33329H20.2667L18.8667 3.33329H5.13333L3.73333 7.33329ZM6 15.3333C6.55556 15.3333 7.02756 15.1386 7.416 14.7493C7.80533 14.3608 8 13.8888 8 13.3333C8 12.7777 7.80533 12.3057 7.416 11.9173C7.02756 11.528 6.55556 11.3333 6 11.3333C5.44444 11.3333 4.97245 11.528 4.584 11.9173C4.19467 12.3057 4 12.7777 4 13.3333C4 13.8888 4.19467 14.3608 4.584 14.7493C4.97245 15.1386 5.44444 15.3333 6 15.3333ZM18 15.3333C18.5556 15.3333 19.0276 15.1386 19.416 14.7493C19.8053 14.3608 20 13.8888 20 13.3333C20 12.7777 19.8053 12.3057 19.416 11.9173C19.0276 11.528 18.5556 11.3333 18 11.3333C17.4444 11.3333 16.9724 11.528 16.584 11.9173C16.1947 12.3057 16 12.7777 16 13.3333C16 13.8888 16.1947 14.3608 16.584 14.7493C16.9724 15.1386 17.4444 15.3333 18 15.3333ZM2.66667 16.6666H21.3333V9.99996H2.66667V16.6666Z" fill="url(#paint0_radial_40_45489)"/>
<defs>
<radialGradient id="paint0_radial_40_45489" cx="0" cy="0" r="1" gradientUnits="userSpaceOnUse" gradientTransform="translate(12 11.3333) rotate(100.916) scale(13.579 15.1614)">
<stop offset="0.055" stop-color="#7A73FF"/>
<stop offset="0.65" stop-color="#67DDFA"/>
<stop offset="1" stop-color="#4AFCF1"/>
</radialGradient>
</defs>
</svg>
