<svg width="29" height="29" viewBox="0 0 29 29" fill="none" xmlns="http://www.w3.org/2000/svg">
<path d="M26.8537 2.11704C25.0298 0.292687 21.9431 0.0120173 18.2952 1.27503C17.0325 1.69604 15.7698 2.39771 14.507 3.09938C9.45613 0.152352 4.68583 -0.408987 2.16037 2.11704C-0.505383 4.64307 0.196132 9.41445 3.14249 14.4665C0.0558285 19.6589 -0.36508 24.4303 2.16037 26.816C3.14249 27.9387 4.68583 28.5 6.50977 28.5C8.89492 28.5 11.701 27.5177 14.507 25.8336C17.3131 27.5177 20.1192 28.5 22.5043 28.5C24.3282 28.5 25.7313 27.9387 26.8537 26.9563C29.3792 24.4303 28.8179 19.6589 25.8716 14.6068C28.9582 9.27412 29.3792 4.50273 26.8537 2.11704ZM19.137 3.94139C21.8028 2.95905 23.767 3.09938 24.8895 4.08173C26.1522 5.34474 25.8716 8.43211 24.1879 11.8001C23.2058 10.5371 22.2237 9.27412 20.961 8.01111C19.6982 6.74809 18.4355 5.76575 17.1728 4.7834C17.8743 4.50273 18.5758 4.08173 19.137 3.94139ZM4.12462 24.8513C2.86189 23.5883 3.14249 20.5009 4.82613 17.1329C5.80825 18.3959 6.79037 19.6589 8.0531 20.9219C9.31583 22.1849 10.5786 23.3076 11.8413 24.1496C8.33371 25.974 5.38734 26.1143 4.12462 24.8513ZM24.8895 24.8513C23.6267 26.1143 20.6804 25.8336 17.0325 24.1496C18.2952 23.1673 19.5579 22.0446 20.8207 20.9219C21.3819 20.3606 21.9431 19.7992 22.364 19.2379C22.9252 18.6766 22.7849 17.8345 22.2237 17.2732C21.6625 16.7119 20.8207 16.8522 20.2595 17.4135C19.8386 17.9749 19.2773 18.3959 18.8564 18.9572C17.4534 20.3606 15.9101 21.6236 14.507 22.6059C13.104 21.6236 11.5607 20.3606 10.1576 18.9572C3.98431 12.7825 2.02007 6.18675 4.12462 4.08173C4.54552 3.52039 5.38734 3.23972 6.50977 3.23972C7.9128 3.23972 9.87704 3.80106 11.8413 4.7834C10.5786 5.76575 9.31583 6.88843 8.0531 8.01111C7.49189 8.71278 6.79037 9.41445 6.22916 10.1161C5.66795 10.6775 5.80825 11.5195 6.36946 12.0808C6.93068 12.6422 7.9128 12.5018 8.33371 11.9405C8.89492 11.2388 9.45613 10.6775 10.0173 10.1161C11.4204 8.71278 12.9637 7.44977 14.3667 6.46742C15.7698 7.44977 17.3131 8.71278 18.8564 10.1161C25.0298 16.1505 26.994 22.7463 24.8895 24.8513Z" fill="url(#paint0_radial_40_45382)"/>
<path d="M14.5 16.74C15.7371 16.74 16.74 15.7371 16.74 14.5C16.74 13.2629 15.7371 12.26 14.5 12.26C13.2629 12.26 12.26 13.2629 12.26 14.5C12.26 15.7371 13.2629 16.74 14.5 16.74Z" fill="url(#paint1_radial_40_45382)"/>
<defs>
<radialGradient id="paint0_radial_40_45382" cx="0" cy="0" r="1" gradientUnits="userSpaceOnUse" gradientTransform="translate(14.5 14.5) rotate(99.7276) scale(17.7553)">
<stop stop-color="#FD9BE8"/>
<stop offset="0.338542" stop-color="#7A73FF"/>
<stop offset="0.734375" stop-color="#75CDFF"/>
<stop offset="1" stop-color="#4AFCF1"/>
</radialGradient>
<radialGradient id="paint1_radial_40_45382" cx="0" cy="0" r="1" gradientUnits="userSpaceOnUse" gradientTransform="translate(14.5 14.5) rotate(99.7276) scale(17.7553)">
<stop stop-color="#FD9BE8"/>
<stop offset="0.338542" stop-color="#7A73FF"/>
<stop offset="0.734375" stop-color="#75CDFF"/>
<stop offset="1" stop-color="#4AFCF1"/>
</radialGradient>
</defs>
</svg>
