<svg width="31" height="29" viewBox="0 0 31 29" fill="none" xmlns="http://www.w3.org/2000/svg">
<path fill-rule="evenodd" clip-rule="evenodd" d="M23.0298 0.987114C24.2931 1.67838 25.2002 3.04944 25.2002 4.70026V18.9801C25.2002 22.3221 21.4994 24.3022 18.7782 22.3595C18.7475 22.3376 18.7177 22.3144 18.6889 22.2901L17.1955 21.0301C17.1742 21.0121 17.1533 20.9934 17.1331 20.9741C15.9851 19.8813 14.5541 19.2004 12.9819 18.9495V24.44C12.9819 26.6613 11.3578 28.5 9.13827 28.5C6.87299 28.5 5.29459 26.4715 5.29459 24.44V18.6827C2.2757 17.9944 0 15.1359 0 11.8402C0 9.98428 0.655037 8.19661 2.05604 6.9128C3.18826 5.75783 4.74068 4.84022 6.69461 4.84022H11.5407C13.6887 4.70977 15.6808 3.97461 17.1846 2.79784L18.6342 1.43891C18.6623 1.41257 18.6915 1.38739 18.7216 1.36346C20.0811 0.285092 21.7463 0.284786 23.0298 0.987114ZM20.5 3.52783L19.0559 4.88164C19.0278 4.90798 18.9986 4.93316 18.9684 4.95709C16.9565 6.55308 14.3657 7.48307 11.662 7.63796C11.6353 7.63949 11.6086 7.64025 11.5819 7.64025H6.69461C5.6803 7.64025 4.7999 8.10521 4.03418 8.89484C4.01252 8.91718 3.99011 8.93879 3.96701 8.95964C3.22009 9.6336 2.80003 10.6316 2.80003 11.8402C2.80003 14.2112 4.67963 16.0401 6.69461 16.0401C7.46781 16.0401 8.09462 16.6669 8.09462 17.4401V24.44C8.09462 25.2085 8.68836 25.7 9.13827 25.7C9.63388 25.7 10.1819 25.2987 10.1819 24.44V17.4401C10.1819 16.6669 10.8087 16.0401 11.5819 16.0401C14.3368 16.0401 16.9875 16.986 19.0321 18.9161L20.4434 20.1069C21.2506 20.6408 22.4002 20.1002 22.4002 18.9801V4.70026C22.4002 4.11109 22.0855 3.66219 21.6857 3.44346C21.3181 3.2423 20.8947 3.23571 20.5 3.52783Z" fill="url(#paint0_radial_40_45396)"/>
<path fill-rule="evenodd" clip-rule="evenodd" d="M29.4003 7.49981C30.1735 7.49981 30.8003 8.12661 30.8003 8.89982V14.4999C30.8003 15.2731 30.1735 15.8999 29.4003 15.8999C28.6271 15.8999 28.0003 15.2731 28.0003 14.4999V8.89982C28.0003 8.12661 28.6271 7.49981 29.4003 7.49981Z" fill="url(#paint1_radial_40_45396)"/>
<defs>
<radialGradient id="paint0_radial_40_45396" cx="0" cy="0" r="1" gradientUnits="userSpaceOnUse" gradientTransform="translate(15.4001 14.5) rotate(100.679) scale(17.8084 19.4727)">
<stop offset="0.055" stop-color="#7A73FF"/>
<stop offset="0.65" stop-color="#67DDFA"/>
<stop offset="1" stop-color="#4AFCF1"/>
</radialGradient>
<radialGradient id="paint1_radial_40_45396" cx="0" cy="0" r="1" gradientUnits="userSpaceOnUse" gradientTransform="translate(15.4001 14.5) rotate(100.679) scale(17.8084 19.4727)">
<stop offset="0.055" stop-color="#7A73FF"/>
<stop offset="0.65" stop-color="#67DDFA"/>
<stop offset="1" stop-color="#4AFCF1"/>
</radialGradient>
</defs>
</svg>
