<svg width="32" height="32" viewBox="0 0 32 32" fill="none" xmlns="http://www.w3.org/2000/svg">
<path d="M14.6602 9.0077C12.2375 9.10011 8.79766 9.45889 7.90625 9.71438C7.47969 9.83398 6.93828 10.1275 6.61016 10.4156C6.24922 10.7309 5.82266 11.3615 5.66953 11.8072C5.58203 12.0736 4.13281 19.8417 4.13281 20.0646C4.13281 20.0972 3.95781 20.1189 3.72266 20.1189C3.29609 20.1189 3.08828 20.1841 2.91875 20.3744C2.76562 20.5429 2 22.3803 2 22.5814C2 22.701 2.04375 22.8043 2.12578 22.8804L2.25156 23H16.0055H29.7648L29.8797 22.875C29.9508 22.7989 30 22.6793 30 22.576C30 22.4075 29.3219 20.7223 29.1469 20.4559C28.9883 20.2113 28.7477 20.1189 28.2937 20.1189C28.0531 20.1189 27.8672 20.0972 27.8672 20.0646C27.8672 20.0374 27.5336 18.2217 27.1234 16.031C26.3195 11.704 26.2977 11.6279 25.8219 10.9647C25.4117 10.3939 24.8375 9.98075 24.0937 9.72526C23.5523 9.54043 20.9711 9.21427 19.0352 9.08924C18.1328 9.02945 15.4367 8.98052 14.6602 9.0077ZM18.6797 9.959C20.5828 10.0623 23.3281 10.3993 23.9187 10.6059C24.3125 10.7418 24.7555 11.0462 24.9961 11.3398C25.4281 11.8562 25.4555 11.9649 26.2211 16.1561C26.6148 18.2924 26.9375 20.0646 26.9375 20.0809C26.9375 20.1026 22.0156 20.1189 16 20.1189C9.98437 20.1189 5.0625 20.1026 5.0625 20.0863C5.0625 20.07 5.38516 18.2978 5.77891 16.1561C6.58828 11.742 6.58828 11.7366 7.16797 11.1767C7.73125 10.6276 8.20156 10.4917 10.3672 10.2254C13.1453 9.89377 15.8523 9.80136 18.6797 9.959ZM28.6164 21.516L28.8406 22.0487L22.4203 22.065C18.8875 22.0704 13.1125 22.0704 9.57969 22.065L3.15937 22.0487L3.38359 21.516L3.60781 20.9887H16H28.3922L28.6164 21.516Z" fill="url(#paint0_radial_2114_36496)"/>
<path d="M8.43114 13.3294C8.23974 13.4816 8.2288 13.8458 8.41474 14.0198C8.52958 14.1285 8.60067 14.1394 9.23505 14.1394H9.92411L9.94052 15.7973C9.95692 17.651 9.94599 17.6021 10.3561 17.6565C10.5421 17.6836 10.5968 17.6619 10.7171 17.5477L10.8593 17.4064V15.7702V14.1394H11.5593C12.1882 14.1394 12.2702 14.1285 12.3796 14.0306C12.56 13.8621 12.5491 13.4762 12.3577 13.3294C12.2155 13.2207 12.1499 13.2152 10.3944 13.2152C8.63896 13.2152 8.57333 13.2207 8.43114 13.3294Z" fill="url(#paint1_radial_2114_36496)"/>
<path d="M23.0232 13.2801C22.9576 13.3073 22.8756 13.3943 22.8428 13.4649C22.7607 13.6498 22.7607 17.2375 22.8428 17.4169C22.9631 17.6779 23.3295 17.7485 23.5701 17.5583L23.7123 17.4495V15.498C23.7123 14.4271 23.6959 13.5084 23.6795 13.4595C23.6357 13.3562 23.3787 13.2149 23.2365 13.2203C23.1818 13.2203 23.0834 13.2475 23.0232 13.2801Z" fill="url(#paint2_radial_2114_36496)"/>
<path d="M14.1789 13.3893C14.0969 13.4654 13.9109 13.8568 13.6977 14.3841C13.5117 14.8624 13.1781 15.6778 12.9539 16.1943C12.7352 16.7107 12.5547 17.1836 12.5547 17.2434C12.5547 17.3847 12.8391 17.6729 12.9867 17.6729C13.1562 17.6729 13.3586 17.5641 13.4242 17.4337C13.457 17.3739 13.5445 17.1727 13.6156 16.9933L13.7469 16.6672H14.4688H15.1906L15.3547 17.0749C15.4422 17.2978 15.5625 17.5261 15.6281 17.575C15.8852 17.7979 16.3773 17.5859 16.3828 17.2543C16.3828 17.0368 14.9062 13.4382 14.7805 13.3512C14.6055 13.2316 14.332 13.2479 14.1789 13.3893ZM14.7039 15.3789C14.7859 15.5691 14.8516 15.7322 14.8516 15.7485C14.8516 15.7594 14.693 15.7702 14.5016 15.7702H14.1516L14.3211 15.368C14.4195 15.1451 14.5125 14.9766 14.5289 14.9983C14.5453 15.0201 14.6273 15.1886 14.7039 15.3789Z" fill="url(#paint3_radial_2114_36496)"/>
<path d="M17.811 13.411C17.5704 13.7154 17.6142 13.8024 18.8228 15.194L19.0579 15.4604L18.8173 15.7268C18.6915 15.8681 18.3689 16.2214 18.1064 16.5041C17.7071 16.9336 17.6306 17.0477 17.6251 17.2054C17.6196 17.4935 17.8165 17.6837 18.1064 17.662C18.3142 17.6457 18.3579 17.6076 18.9103 16.9662C19.2329 16.5911 19.5228 16.2867 19.5501 16.2867C19.5829 16.2867 19.829 16.553 20.1025 16.8846C20.7204 17.6294 20.7751 17.6729 21.0321 17.6729C21.1962 17.6729 21.2673 17.6402 21.3548 17.5315C21.5735 17.2597 21.5189 17.1075 20.9446 16.3954C20.6548 16.0366 20.3704 15.6778 20.3157 15.5963L20.2118 15.455L20.879 14.6776C21.4806 13.9872 21.5517 13.884 21.5517 13.6991C21.5517 13.3947 21.3985 13.2588 21.0923 13.2806C20.8462 13.2969 20.8353 13.3077 20.261 13.9764C19.9384 14.346 19.654 14.6559 19.6267 14.6613C19.6048 14.6722 19.3259 14.3623 19.0087 13.9872C18.4345 13.3023 18.429 13.2969 18.1775 13.2806C17.9587 13.2642 17.9095 13.286 17.811 13.411Z" fill="url(#paint4_radial_2114_36496)"/>
<defs>
<radialGradient id="paint0_radial_2114_36496" cx="0" cy="0" r="1" gradientUnits="userSpaceOnUse" gradientTransform="translate(15.5172 15.9998) rotate(-108.316) scale(9.21718 16.5119)">
<stop offset="0.055" stop-color="#7A73FF"/>
<stop offset="0.65" stop-color="#67DDFA"/>
<stop offset="1" stop-color="#4AFCF1"/>
</radialGradient>
<radialGradient id="paint1_radial_2114_36496" cx="0" cy="0" r="1" gradientUnits="userSpaceOnUse" gradientTransform="translate(10.3219 15.4411) rotate(-98.9316) scale(2.81657 2.59397)">
<stop offset="0.055" stop-color="#7A73FF"/>
<stop offset="0.65" stop-color="#67DDFA"/>
<stop offset="1" stop-color="#4AFCF1"/>
</radialGradient>
<radialGradient id="paint2_radial_2114_36496" cx="0" cy="0" r="1" gradientUnits="userSpaceOnUse" gradientTransform="translate(23.2307 15.443) rotate(-91.9852) scale(2.78039 0.578008)">
<stop offset="0.055" stop-color="#7A73FF"/>
<stop offset="0.65" stop-color="#67DDFA"/>
<stop offset="1" stop-color="#4AFCF1"/>
</radialGradient>
<radialGradient id="paint3_radial_2114_36496" cx="0" cy="0" r="1" gradientUnits="userSpaceOnUse" gradientTransform="translate(14.4027 15.472) rotate(-98.1915) scale(2.77937 2.3537)">
<stop offset="0.055" stop-color="#7A73FF"/>
<stop offset="0.65" stop-color="#67DDFA"/>
<stop offset="1" stop-color="#4AFCF1"/>
</radialGradient>
<radialGradient id="paint4_radial_2114_36496" cx="0" cy="0" r="1" gradientUnits="userSpaceOnUse" gradientTransform="translate(19.5206 15.4743) rotate(-98.4079) scale(2.77807 2.41296)">
<stop offset="0.055" stop-color="#7A73FF"/>
<stop offset="0.65" stop-color="#67DDFA"/>
<stop offset="1" stop-color="#4AFCF1"/>
</radialGradient>
</defs>
</svg>
