<svg width="28" height="14" viewBox="0 0 28 14" fill="none" xmlns="http://www.w3.org/2000/svg">
<path fill-rule="evenodd" clip-rule="evenodd" d="M25.1034 0H2.89655C1.20266 0 0.251702 6.92542 0.0436833 12.0011C-0.00154799 13.1047 0.895428 14 2 14L26 14C27.1046 14 28.0015 13.1047 27.9563 12.0011C27.7483 6.92542 26.7973 0 25.1034 0ZM15.2701 2.78404H19.7833L20.011 3.05465L20.0552 6.53012L23.6168 6.53012L23.9104 6.83256C23.9104 6.83256 23.9529 9.90071 23.943 11.157L23.6385 11.4117H19.283L18.9676 11.1039V7.59133H16.1455L16.1129 11.157L15.8084 11.4117H11.4529L11.1375 11.1039V7.59133H8.31538L8.28276 11.157L7.97826 11.4117H3.62275L3.30737 11.1039L3.30193 6.75744L3.55206 6.53012H7.22243L7.49975 2.78404H11.9477L12.1541 3.00159L12.225 6.53012H15.0526V3.00159L15.2701 2.78404ZM12.225 10.3505V7.64439H15.0526V10.3505H12.225ZM22.8827 7.64439V10.3505H20.0552V7.64439H22.8827ZM16.1401 6.53012V3.82403H18.9676V6.53012H16.1401ZM11.1375 3.82403V6.53012H8.30995V3.82403H11.1375ZM4.39489 7.64439H7.22243V10.3505H4.39489V7.64439Z" fill="url(#paint0_radial_2136_54661)"/>
<defs>
<radialGradient id="paint0_radial_2136_54661" cx="0" cy="0" r="1" gradientUnits="userSpaceOnUse" gradientTransform="translate(13.5191 6.99983) rotate(108.316) scale(9.21718 16.5119)">
<stop offset="0.055" stop-color="#7A73FF"/>
<stop offset="0.65" stop-color="#67DDFA"/>
<stop offset="1" stop-color="#4AFCF1"/>
</radialGradient>
</defs>
</svg>
