<svg width="31" height="30" viewBox="0 0 31 30" fill="none" xmlns="http://www.w3.org/2000/svg">
<path d="M20.4094 20.0454C19.864 20.0454 19.4549 19.7727 19.1822 19.3636L17.5459 16.5C16.8641 15 15.5005 13.6363 14.0006 12.8182L11.1371 11.1818C10.728 11.0454 10.4553 10.5 10.4553 10.0909C10.4553 9.54543 10.728 9.13634 11.1371 8.86362L14.0006 7.22726C15.5005 6.40908 16.8641 5.18181 17.6823 3.54545L19.3186 0.681817C19.4549 0.272727 20.0004 0 20.4094 0C20.9549 0 21.364 0.272727 21.6367 0.681817L23.273 3.54545C24.0911 5.04544 25.4547 6.40908 26.9547 7.22726L29.8182 8.86362C30.2273 9.13634 30.5 9.54543 30.5 10.0909C30.5 10.6363 30.2273 11.0454 29.8182 11.3182L26.9547 12.9545C25.4547 13.7727 24.0911 15.1363 23.273 16.6363L21.6367 19.5C21.364 19.7727 20.9549 20.0454 20.4094 20.0454ZM14.6824 10.0909L15.3642 10.5C17.4096 11.5909 19.0459 13.2272 20.1367 15.2727L20.5458 15.9545L20.9549 15.2727C22.0458 13.2272 23.6821 11.5909 25.7274 10.5L26.4092 10.0909L25.7274 9.6818C23.6821 8.59089 22.0458 6.95453 20.9549 4.90908L20.5458 4.22726L20.1367 4.90908C19.0459 6.95453 17.4096 8.59089 15.3642 9.6818L14.6824 10.0909Z" fill="url(#paint0_radial_40_45452)"/>
<path d="M7.99973 30C7.4543 30 7.04522 29.7273 6.7725 29.3182L5.95435 27.6818C5.27256 26.3182 4.18169 25.2273 2.8181 24.5455L1.18179 23.7273C0.772718 23.4546 0.5 22.9091 0.5 22.5C0.5 21.9546 0.772718 21.5455 1.18179 21.2727L2.8181 20.4546C4.18169 19.7727 5.27256 18.6818 5.95435 17.3182L6.7725 15.6818C7.31794 14.8637 8.68153 14.8637 9.22696 15.6818L10.0451 17.3182C10.7269 18.6818 11.8178 19.7727 13.1814 20.4546L14.8177 21.2727C15.2267 21.5455 15.4995 21.9546 15.4995 22.5C15.4995 23.0455 15.2267 23.4546 14.8177 23.7273L13.3177 24.5455C11.9541 25.2273 10.8633 26.3182 10.1815 27.6818L9.36332 29.3182C8.95424 29.7273 8.54517 30 7.99973 30ZM4.72712 22.5C6.09071 23.3182 7.31794 24.5455 8.13609 25.9091C8.95424 24.5455 10.1815 23.3182 11.5451 22.5C10.0451 21.5455 8.95424 20.4546 7.99973 19.0909C7.18158 20.4546 6.09071 21.5455 4.72712 22.5Z" fill="url(#paint1_radial_40_45452)"/>
<defs>
<radialGradient id="paint0_radial_40_45452" cx="0" cy="0" r="1" gradientUnits="userSpaceOnUse" gradientTransform="translate(15.5 15) rotate(99.7276) scale(19.0235)">
<stop offset="0.055" stop-color="#7A73FF"/>
<stop offset="0.65" stop-color="#67DDFA"/>
<stop offset="1" stop-color="#4AFCF1"/>
</radialGradient>
<radialGradient id="paint1_radial_40_45452" cx="0" cy="0" r="1" gradientUnits="userSpaceOnUse" gradientTransform="translate(15.5 15) rotate(99.7276) scale(19.0235)">
<stop offset="0.055" stop-color="#7A73FF"/>
<stop offset="0.65" stop-color="#67DDFA"/>
<stop offset="1" stop-color="#4AFCF1"/>
</radialGradient>
</defs>
</svg>
