<svg width="88" height="114" viewBox="0 0 88 114" fill="none" xmlns="http://www.w3.org/2000/svg">
<g filter="url(#filter0_d_621_47480)">
<rect x="9" y="8" width="68" height="94" rx="12" fill="white"/>
<path d="M53.9647 54.6H51C50.5059 52.8 48.9 51.6 46.9235 51.6C44.5765 51.6 42.6 53.52 42.6 55.8C42.6 58.08 44.5765 60 46.9235 60C48.9 60 50.5059 58.8 51 57H53.9647C54.7059 57 55.2 56.4 55.2 55.8C55.2 55.08 54.7059 54.6 53.9647 54.6ZM46.9235 57.6C45.9353 57.6 45.0706 56.76 45.0706 55.8C45.0706 54.84 45.9353 54 46.9235 54C47.9118 54 48.7765 54.84 48.7765 55.8C48.7765 56.76 47.9118 57.6 46.9235 57.6Z" fill="url(#paint0_radial_621_47480)"/>
<path d="M40.0085 54.4H31.1915C30.4766 54.4 30 55.1 30 55.8C30 56.64 30.5957 57.2 31.1915 57.2H40.0085C40.7234 57.2 41.2 56.5 41.2 55.8C41.2 54.96 40.6043 54.4 40.0085 54.4Z" fill="url(#paint1_radial_621_47480)"/>
<path d="M31.1915 37.6H40.0085C40.7234 37.6 41.2 36.9 41.2 36.2C41.2 35.5 40.6043 34.8 40.0085 34.8H31.1915C30.4766 34.8 30 35.5 30 36.2C30 36.9 30.5957 37.6 31.1915 37.6Z" fill="url(#paint2_radial_621_47480)"/>
<path d="M46.9235 40.4C48.9 40.4 50.5059 39.2 51 37.4H53.9647C54.7059 37.4 55.2 36.8 55.2 36.2C55.2 35.6 54.5824 35 53.9647 35H51C50.5059 33.2 48.9 32 46.9235 32C44.5765 32 42.6 33.92 42.6 36.2C42.6 38.48 44.5765 40.4 46.9235 40.4ZM46.9235 34.4C47.9118 34.4 48.7765 35.24 48.7765 36.2C48.7765 37.16 47.9118 38 46.9235 38C45.9353 38 45.0706 37.16 45.0706 36.2C45.0706 35.24 45.9353 34.4 46.9235 34.4Z" fill="url(#paint3_radial_621_47480)"/>
<path d="M31.2353 47.2H34.2C34.6941 48.88 36.3 50.2 38.2765 50.2C40.6235 50.2 42.6 48.28 42.6 46C42.6 43.72 40.6235 41.8 38.2765 41.8C36.3 41.8 34.6941 43 34.2 44.8H31.2353C30.4941 44.8 30 45.4 30 46C30 46.6 30.6176 47.2 31.2353 47.2ZM38.2765 44.2C39.2647 44.2 40.1294 45.04 40.1294 46C40.1294 46.96 39.2647 47.8 38.2765 47.8C37.2882 47.8 36.4235 46.96 36.4235 46C36.4235 45.04 37.2882 44.2 38.2765 44.2Z" fill="url(#paint4_radial_621_47480)"/>
<path d="M53.9957 44.6H45.2043C44.4817 44.6 44 45.3 44 46C44 46.7 44.6022 47.4 45.2043 47.4H53.9957C54.7183 47.4 55.2 46.7 55.2 46C55.2 45.3 54.7183 44.6 53.9957 44.6Z" fill="url(#paint5_radial_621_47480)"/>
<path d="M29.2717 77.9512V77.5176C29.2717 76.1816 29.6389 75.1445 30.3733 74.4062C31.1077 73.6641 32.0491 73.293 33.1975 73.293C34.3498 73.293 35.2932 73.6641 36.0276 74.4062C36.762 75.1445 37.1291 76.1816 37.1291 77.5176V77.9512C37.1291 79.2871 36.762 80.3262 36.0276 81.0684C35.2932 81.8066 34.3498 82.1758 33.1975 82.1758C32.0491 82.1758 31.1077 81.8066 30.3733 81.0684C29.6389 80.3262 29.2717 79.2871 29.2717 77.9512ZM30.4495 77.9512C30.4495 78.9668 30.6995 79.7598 31.1995 80.3301C31.7034 80.8965 32.3713 81.1797 33.2034 81.1797C34.0315 81.1797 34.6975 80.8965 35.2014 80.3301C35.7053 79.7598 35.9573 78.9668 35.9573 77.9512V77.5176C35.9573 76.502 35.7053 75.7109 35.2014 75.1445C34.6975 74.5742 34.0315 74.2891 33.2034 74.2891C32.3713 74.2891 31.7034 74.5742 31.1995 75.1445C30.6995 75.7109 30.4495 76.502 30.4495 77.5176V77.9512ZM39.0742 82V73.4688H42.1035C43.0957 73.4688 43.8633 73.6973 44.4062 74.1543C44.9492 74.6113 45.2207 75.2246 45.2207 75.9941C45.2207 76.7637 44.9492 77.3828 44.4062 77.8516C43.8633 78.3203 43.0957 78.5547 42.1035 78.5547H40.2402V82H39.0742ZM40.2402 77.6055H42.1035C42.834 77.6055 43.3418 77.4512 43.627 77.1426C43.9121 76.8301 44.0547 76.4473 44.0547 75.9941C44.0547 75.541 43.9121 75.166 43.627 74.8691C43.3418 74.5684 42.834 74.418 42.1035 74.418H40.2402V77.6055ZM44.3652 82L42.127 78.0684L43.3223 77.9219L45.6953 82H44.3652ZM47.2009 82V73.4688H48.7244L51.4959 79.8848C51.5466 80.002 51.5955 80.125 51.6423 80.2539C51.6931 80.3789 51.738 80.4961 51.7771 80.6055H51.824C51.8591 80.4961 51.9002 80.3789 51.947 80.2539C51.9939 80.125 52.0427 80.002 52.0935 79.8848L54.8474 73.4688H56.4002V82H55.2752V75.7305C55.2752 75.6133 55.2771 75.4824 55.281 75.3379C55.2888 75.1895 55.3005 75.0566 55.3162 74.9395H55.2634C55.2322 75.0566 55.1892 75.1895 55.1345 75.3379C55.0837 75.4824 55.033 75.6133 54.9822 75.7305L52.2986 82H51.2615L48.5603 75.7305C48.5095 75.6133 48.4587 75.4824 48.408 75.3379C48.3611 75.1895 48.324 75.0566 48.2966 74.9395H48.2439C48.2556 75.0566 48.2654 75.1895 48.2732 75.3379C48.2849 75.4824 48.2908 75.6133 48.2908 75.7305V82H47.2009Z" fill="#04101C"/>
</g>
<defs>
<filter id="filter0_d_621_47480" x="0" y="0" width="88" height="114" filterUnits="userSpaceOnUse" color-interpolation-filters="sRGB">
<feFlood flood-opacity="0" result="BackgroundImageFix"/>
<feColorMatrix in="SourceAlpha" type="matrix" values="0 0 0 0 0 0 0 0 0 0 0 0 0 0 0 0 0 0 127 0" result="hardAlpha"/>
<feOffset dx="1" dy="2"/>
<feGaussianBlur stdDeviation="5"/>
<feComposite in2="hardAlpha" operator="out"/>
<feColorMatrix type="matrix" values="0 0 0 0 0.00780001 0 0 0 0 0.045344 0 0 0 0 0.0800001 0 0 0 0.04 0"/>
<feBlend mode="normal" in2="BackgroundImageFix" result="effect1_dropShadow_621_47480"/>
<feBlend mode="normal" in="SourceGraphic" in2="effect1_dropShadow_621_47480" result="shape"/>
</filter>
<radialGradient id="paint0_radial_621_47480" cx="0" cy="0" r="1" gradientUnits="userSpaceOnUse" gradientTransform="translate(42.6 46) rotate(98.7708) scale(17.7071 16.0233)">
<stop stop-color="#FD9BE8"/>
<stop offset="0.338542" stop-color="#7A73FF"/>
<stop offset="0.734375" stop-color="#75CDFF"/>
<stop offset="1" stop-color="#4AFCF1"/>
</radialGradient>
<radialGradient id="paint1_radial_621_47480" cx="0" cy="0" r="1" gradientUnits="userSpaceOnUse" gradientTransform="translate(42.6 46) rotate(98.7708) scale(17.7071 16.0233)">
<stop stop-color="#FD9BE8"/>
<stop offset="0.338542" stop-color="#7A73FF"/>
<stop offset="0.734375" stop-color="#75CDFF"/>
<stop offset="1" stop-color="#4AFCF1"/>
</radialGradient>
<radialGradient id="paint2_radial_621_47480" cx="0" cy="0" r="1" gradientUnits="userSpaceOnUse" gradientTransform="translate(42.6 46) rotate(98.7708) scale(17.7071 16.0233)">
<stop stop-color="#FD9BE8"/>
<stop offset="0.338542" stop-color="#7A73FF"/>
<stop offset="0.734375" stop-color="#75CDFF"/>
<stop offset="1" stop-color="#4AFCF1"/>
</radialGradient>
<radialGradient id="paint3_radial_621_47480" cx="0" cy="0" r="1" gradientUnits="userSpaceOnUse" gradientTransform="translate(42.6 46) rotate(98.7708) scale(17.7071 16.0233)">
<stop stop-color="#FD9BE8"/>
<stop offset="0.338542" stop-color="#7A73FF"/>
<stop offset="0.734375" stop-color="#75CDFF"/>
<stop offset="1" stop-color="#4AFCF1"/>
</radialGradient>
<radialGradient id="paint4_radial_621_47480" cx="0" cy="0" r="1" gradientUnits="userSpaceOnUse" gradientTransform="translate(42.6 46) rotate(98.7708) scale(17.7071 16.0233)">
<stop stop-color="#FD9BE8"/>
<stop offset="0.338542" stop-color="#7A73FF"/>
<stop offset="0.734375" stop-color="#75CDFF"/>
<stop offset="1" stop-color="#4AFCF1"/>
</radialGradient>
<radialGradient id="paint5_radial_621_47480" cx="0" cy="0" r="1" gradientUnits="userSpaceOnUse" gradientTransform="translate(42.6 46) rotate(98.7708) scale(17.7071 16.0233)">
<stop stop-color="#FD9BE8"/>
<stop offset="0.338542" stop-color="#7A73FF"/>
<stop offset="0.734375" stop-color="#75CDFF"/>
<stop offset="1" stop-color="#4AFCF1"/>
</radialGradient>
</defs>
</svg>
