<svg width="110" height="114" viewBox="0 0 110 114" fill="none" xmlns="http://www.w3.org/2000/svg">
<g filter="url(#filter0_d_621_47479)">
<rect x="9" y="8" width="90" height="94" rx="12" fill="white"/>
<path d="M60.4094 52.0454C59.864 52.0454 59.4549 51.7727 59.1822 51.3636L57.5459 48.5C56.8641 47 55.5005 45.6363 54.0006 44.8182L51.1371 43.1818C50.728 43.0454 50.4553 42.5 50.4553 42.0909C50.4553 41.5454 50.728 41.1363 51.1371 40.8636L54.0006 39.2273C55.5005 38.4091 56.8641 37.1818 57.6823 35.5454L59.3186 32.6818C59.4549 32.2727 60.0004 32 60.4094 32C60.9549 32 61.364 32.2727 61.6367 32.6818L63.273 35.5454C64.0911 37.0454 65.4547 38.4091 66.9547 39.2273L69.8182 40.8636C70.2273 41.1363 70.5 41.5454 70.5 42.0909C70.5 42.6363 70.2273 43.0454 69.8182 43.3182L66.9547 44.9545C65.4547 45.7727 64.0911 47.1363 63.273 48.6363L61.6367 51.5C61.364 51.7727 60.9549 52.0454 60.4094 52.0454ZM54.6824 42.0909L55.3642 42.5C57.4096 43.5909 59.0459 45.2272 60.1367 47.2727L60.5458 47.9545L60.9549 47.2727C62.0458 45.2272 63.6821 43.5909 65.7274 42.5L66.4092 42.0909L65.7274 41.6818C63.6821 40.5909 62.0458 38.9545 60.9549 36.9091L60.5458 36.2273L60.1367 36.9091C59.0459 38.9545 57.4096 40.5909 55.3642 41.6818L54.6824 42.0909Z" fill="url(#paint0_radial_621_47479)"/>
<path d="M47.9997 62C47.4543 62 47.0452 61.7273 46.7725 61.3182L45.9544 59.6818C45.2726 58.3182 44.1817 57.2273 42.8181 56.5455L41.1818 55.7273C40.7727 55.4546 40.5 54.9091 40.5 54.5C40.5 53.9546 40.7727 53.5455 41.1818 53.2727L42.8181 52.4546C44.1817 51.7727 45.2726 50.6818 45.9544 49.3182L46.7725 47.6818C47.3179 46.8637 48.6815 46.8637 49.227 47.6818L50.0451 49.3182C50.7269 50.6818 51.8178 51.7727 53.1814 52.4546L54.8177 53.2727C55.2267 53.5455 55.4995 53.9546 55.4995 54.5C55.4995 55.0455 55.2267 55.4546 54.8177 55.7273L53.3177 56.5455C51.9541 57.2273 50.8633 58.3182 50.1815 59.6818L49.3633 61.3182C48.9542 61.7273 48.5452 62 47.9997 62ZM44.7271 54.5C46.0907 55.3182 47.3179 56.5455 48.1361 57.9091C48.9542 56.5455 50.1815 55.3182 51.5451 54.5C50.0451 53.5455 48.9542 52.4546 47.9997 51.0909C47.1816 52.4546 46.0907 53.5455 44.7271 54.5Z" fill="url(#paint1_radial_621_47479)"/>
<path d="M28.2956 82V73.4688H31.3718C32.3952 73.4688 33.1804 73.7051 33.7273 74.1777C34.278 74.6465 34.5534 75.2773 34.5534 76.0703C34.5534 76.8594 34.278 77.4941 33.7273 77.9746C33.1804 78.4512 32.3952 78.6895 31.3718 78.6895H29.4616V82H28.2956ZM29.4616 77.7344H31.3718C32.1179 77.7344 32.6394 77.5742 32.9363 77.2539C33.237 76.9336 33.3874 76.5391 33.3874 76.0703C33.3874 75.5977 33.237 75.207 32.9363 74.8984C32.6394 74.5859 32.1179 74.4297 31.3718 74.4297H29.4616V77.7344ZM35.4204 78.9766V78.7891C35.4204 77.8477 35.7055 77.0801 36.2759 76.4863C36.8501 75.8887 37.6079 75.5898 38.5493 75.5898C39.4946 75.5898 40.2212 75.8691 40.729 76.4277C41.2368 76.9824 41.4907 77.7344 41.4907 78.6836V79.1465H36.0884V78.25H40.3598V78.2207C40.3598 77.7207 40.2173 77.3105 39.9321 76.9902C39.647 76.6699 39.1899 76.5098 38.561 76.5098C37.9009 76.5098 37.4009 76.7285 37.061 77.166C36.7212 77.6035 36.5513 78.1445 36.5513 78.7891V78.9766C36.5513 79.6211 36.729 80.1621 37.0845 80.5996C37.4438 81.0371 37.9966 81.2559 38.7427 81.2559C39.1958 81.2559 39.5864 81.1699 39.9145 80.998C40.2427 80.8223 40.5063 80.6152 40.7055 80.377L41.4321 80.9746C41.2134 81.2676 40.8735 81.541 40.4126 81.7949C39.9555 82.0488 39.3989 82.1758 38.7427 82.1758C37.6684 82.1758 36.8462 81.8789 36.2759 81.2852C35.7055 80.6875 35.4204 79.918 35.4204 78.9766ZM47.4377 82L44.7366 79.1465L45.428 78.4141L48.8733 82H47.4377ZM43.5823 78.3848H44.8127L47.2268 75.7656H48.5569L45.2756 79.2695H43.5823V78.3848ZM44.1448 75.7656V82H43.0256V75.7656H44.1448ZM51.5742 76.6504L51.4688 79.1348C51.4219 80.1855 51.2773 80.9473 51.0352 81.4199C50.7969 81.8926 50.3848 82.1289 49.7988 82.1289C49.6543 82.1289 49.5273 82.1191 49.418 82.0996C49.3086 82.084 49.2168 82.0586 49.1426 82.0234V81.0566C49.209 81.084 49.2773 81.1035 49.3477 81.1152C49.4219 81.127 49.5059 81.1328 49.5996 81.1328C49.8965 81.1328 50.1016 80.9805 50.2148 80.6758C50.332 80.3672 50.4062 79.8027 50.4375 78.9824L50.5781 75.7656H55.3887V82H54.2637V76.6504H51.5742ZM57.0525 80.166C57.0525 79.5293 57.3259 79.0352 57.8728 78.6836C58.4236 78.332 59.1365 78.1562 60.0115 78.1562H61.6814V77.7109C61.6814 77.3359 61.5642 77.0371 61.3298 76.8145C61.0994 76.5918 60.7048 76.4805 60.1462 76.4805C59.5916 76.4805 59.1912 76.5762 58.9451 76.7676C58.699 76.9551 58.5759 77.1816 58.5759 77.4473V77.4766H57.4509V77.4473C57.4509 76.9355 57.6951 76.498 58.1834 76.1348C58.6716 75.7715 59.3357 75.5898 60.1755 75.5898C61.0115 75.5898 61.658 75.7695 62.115 76.1289C62.5759 76.4844 62.8064 77.0117 62.8064 77.7109V80.5938C62.8064 80.8477 62.8279 81.0879 62.8709 81.3145C62.9138 81.5371 62.9744 81.7344 63.0525 81.9062V82H61.9685C61.906 81.9023 61.8494 81.7734 61.7986 81.6133C61.7478 81.4531 61.7166 81.2949 61.7048 81.1387C61.5408 81.4004 61.2673 81.6289 60.8845 81.8242C60.5017 82.0195 60.0115 82.1172 59.4138 82.1172C58.742 82.1172 58.1795 81.9492 57.7263 81.6133C57.2771 81.2773 57.0525 80.7949 57.0525 80.166ZM58.1775 80.1074C58.1775 80.459 58.2986 80.7324 58.5408 80.9277C58.783 81.123 59.1619 81.2207 59.6775 81.2207C60.1931 81.2207 60.656 81.0723 61.0662 80.7754C61.4763 80.4785 61.6814 80.1641 61.6814 79.832V78.9531H60.1404C59.4998 78.9531 59.0115 79.0566 58.6755 79.2637C58.3435 79.4668 58.1775 79.748 58.1775 80.1074ZM64.8042 82V75.7656H66.357L68.3198 80.084C68.4253 80.3184 68.4917 80.4785 68.5191 80.5645C68.5503 80.6465 68.5757 80.7344 68.5952 80.8281H68.6597C68.6792 80.7344 68.7027 80.6465 68.73 80.5645C68.7573 80.4785 68.8238 80.3223 68.9292 80.0957L70.9038 75.7656H72.4273V82H71.3374V77.7344C71.3374 77.5039 71.3394 77.3379 71.3433 77.2363C71.3511 77.1348 71.3609 77.043 71.3726 76.9609H71.3257C71.3062 77.0391 71.2808 77.127 71.2495 77.2246C71.2183 77.3223 71.1538 77.4785 71.0562 77.6934L69.0874 82H68.0972L66.1226 77.6758C66.0406 77.4883 65.982 77.3418 65.9468 77.2363C65.9116 77.1309 65.8863 77.0391 65.8706 76.9609H65.812C65.8198 77.043 65.8277 77.1348 65.8355 77.2363C65.8433 77.334 65.8472 77.4883 65.8472 77.6992V82H64.8042ZM74.0911 80.166C74.0911 79.5293 74.3645 79.0352 74.9114 78.6836C75.4622 78.332 76.1751 78.1562 77.0501 78.1562H78.72V77.7109C78.72 77.3359 78.6028 77.0371 78.3684 76.8145C78.138 76.5918 77.7434 76.4805 77.1848 76.4805C76.6302 76.4805 76.2298 76.5762 75.9837 76.7676C75.7376 76.9551 75.6145 77.1816 75.6145 77.4473V77.4766H74.4895V77.4473C74.4895 76.9355 74.7337 76.498 75.222 76.1348C75.7102 75.7715 76.3743 75.5898 77.2141 75.5898C78.0501 75.5898 78.6966 75.7695 79.1536 76.1289C79.6145 76.4844 79.845 77.0117 79.845 77.7109V80.5938C79.845 80.8477 79.8665 81.0879 79.9095 81.3145C79.9524 81.5371 80.013 81.7344 80.0911 81.9062V82H79.0071C78.9446 81.9023 78.888 81.7734 78.8372 81.6133C78.7864 81.4531 78.7552 81.2949 78.7434 81.1387C78.5794 81.4004 78.3059 81.6289 77.9231 81.8242C77.5403 82.0195 77.0501 82.1172 76.4524 82.1172C75.7805 82.1172 75.218 81.9492 74.7649 81.6133C74.3157 81.2773 74.0911 80.7949 74.0911 80.166ZM75.2161 80.1074C75.2161 80.459 75.3372 80.7324 75.5794 80.9277C75.8216 81.123 76.2005 81.2207 76.7161 81.2207C77.2317 81.2207 77.6946 81.0723 78.1048 80.7754C78.5149 80.4785 78.72 80.1641 78.72 79.832V78.9531H77.179C76.5384 78.9531 76.0501 79.0566 75.7141 79.2637C75.3821 79.4668 75.2161 79.748 75.2161 80.1074Z" fill="#04101C"/>
</g>
<defs>
<filter id="filter0_d_621_47479" x="0" y="0" width="110" height="114" filterUnits="userSpaceOnUse" color-interpolation-filters="sRGB">
<feFlood flood-opacity="0" result="BackgroundImageFix"/>
<feColorMatrix in="SourceAlpha" type="matrix" values="0 0 0 0 0 0 0 0 0 0 0 0 0 0 0 0 0 0 127 0" result="hardAlpha"/>
<feOffset dx="1" dy="2"/>
<feGaussianBlur stdDeviation="5"/>
<feComposite in2="hardAlpha" operator="out"/>
<feColorMatrix type="matrix" values="0 0 0 0 0.00780001 0 0 0 0 0.045344 0 0 0 0 0.0800001 0 0 0 0.04 0"/>
<feBlend mode="normal" in2="BackgroundImageFix" result="effect1_dropShadow_621_47479"/>
<feBlend mode="normal" in="SourceGraphic" in2="effect1_dropShadow_621_47479" result="shape"/>
</filter>
<radialGradient id="paint0_radial_621_47479" cx="0" cy="0" r="1" gradientUnits="userSpaceOnUse" gradientTransform="translate(55.5 47) rotate(99.7276) scale(19.0235)">
<stop stop-color="#FD9BE8"/>
<stop offset="0.338542" stop-color="#7A73FF"/>
<stop offset="0.734375" stop-color="#75CDFF"/>
<stop offset="1" stop-color="#4AFCF1"/>
</radialGradient>
<radialGradient id="paint1_radial_621_47479" cx="0" cy="0" r="1" gradientUnits="userSpaceOnUse" gradientTransform="translate(55.5 47) rotate(99.7276) scale(19.0235)">
<stop stop-color="#FD9BE8"/>
<stop offset="0.338542" stop-color="#7A73FF"/>
<stop offset="0.734375" stop-color="#75CDFF"/>
<stop offset="1" stop-color="#4AFCF1"/>
</radialGradient>
</defs>
</svg>
