<svg width="162" height="82" viewBox="0 0 162 82" fill="none" xmlns="http://www.w3.org/2000/svg">
<path d="M149.743 56.8731C147.715 55.7847 147.4 52.7093 147.445 45.2291L147.49 33.7657L143.615 33.7611L144.516 31.6398H147.49V26.2114L154.61 23.4973V31.4591L157.899 31.4637L157.043 33.8167L154.61 33.812V53.6495C154.745 55.2474 155.286 56.1876 156.007 56.8731H149.743Z" fill="#AFB6B3"/>
<path d="M44.2965 75.0571C44.0712 74.4133 43.6206 74.0011 42.9446 74.0011C41.9983 74.0011 41.6378 74.5013 41.6378 75.1914C41.6378 76.8357 45.2428 76.5346 45.2428 79.3229C45.2428 80.8791 43.936 82 42.0885 82C41.4576 82 40.7366 81.8425 40.1958 81.4766C40.331 80.9625 40.4662 80.453 40.5563 79.9296H40.7816C40.9168 80.768 41.5928 81.2682 42.4039 81.2682C43.1249 81.2682 43.8008 80.8421 43.8008 80.0038C43.8008 78.0538 40.2409 78.7625 40.2409 75.826C40.2409 74.4272 41.1872 73.2693 42.9897 73.2693C43.8459 73.2693 44.6119 73.5981 44.8373 73.8529C44.7021 74.2419 44.6119 74.6449 44.4768 75.0571H44.2965Z" fill="#AFB6B3"/>
<path d="M79.5803 7.85609C80.1211 9.38917 81.3828 10.9732 80.4816 12.7518C80.076 14.5581 78.4087 16.0217 76.6513 16.3135C74.8037 16.4849 73.0913 16.1653 71.6944 15.0213C70.7481 9.80603 72.821 4.97982 76.8315 2.10356L79.5803 7.85609Z" fill="#AFB6B3"/>
<path d="M86.6549 23.7476C85.7536 26.9017 76.696 24.8314 73.857 19.6532C77.5972 20.0793 81.7881 16.6796 81.8782 12.8029L86.6549 23.7476Z" fill="#AFB6B3"/>
<path d="M90.3974 23.3399C90.803 23.15 91.6141 22.7239 91.8394 21.8115L82.1058 0.0518492C81.4299 -0.0315211 80.9793 -0.09174 80.1231 0.51501L90.3974 23.3399Z" fill="#AFB6B3"/>
<path d="M94.7666 18.6155C98.9123 12.1543 95.4425 1.55237 86.4751 0.0656103L94.7666 18.6155Z" fill="#AFB6B3"/>
<path d="M0 67.5631H156.547V66.331H0V67.5631Z" fill="#AFB6B3"/>
<path d="M50.6506 77.5026C50.6506 77.0302 50.2451 76.6504 49.7945 76.6504C49.3438 76.6504 48.9833 77.0302 48.9833 77.5026C48.9833 77.9751 49.3438 78.3549 49.7945 78.3549C50.2451 78.3549 50.6506 77.9751 50.6506 77.5026Z" fill="#AFB6B3"/>
<path d="M93.8657 32.5244C95.1725 31.3943 97.4707 31.3711 98.9578 32.0937C99.5886 32.4179 100.174 32.8486 100.58 33.4137L97.696 38.0083C97.3355 37.7119 97.0651 37.5776 96.6145 37.3367C95.1725 36.7022 93.6854 37.0727 92.8293 37.874V51.2827C92.7842 53.6032 93.1898 55.7198 94.3614 56.8176H87.8273C86.4304 55.743 86.1149 54.0247 85.9797 52.5194L85.9347 34.6874C85.9797 33.2423 85.6192 32.6078 85.0785 31.7972L91.8379 31.825C92.3786 32.228 92.4237 32.9274 92.6941 33.4647L93.8657 32.5244Z" fill="#AFB6B3"/>
<path d="M102.112 36.9338C102.067 35.2386 102.427 33.2099 101.346 31.7463H107.609C108.06 32.0705 108.285 32.6078 108.421 33.1173C108.781 33.5712 108.736 34.2196 108.871 34.7569L108.961 53.756C109.187 54.8862 109.637 56.0255 110.448 56.9148L103.734 56.9287C101.526 54.7426 102.247 51.1484 102.067 47.4384L102.112 36.9338Z" fill="#AFB6B3"/>
<path d="M112.071 37.119C112.747 35.1876 114.865 34.2196 116.397 33.1682C118.74 32.2836 121.354 30.0789 123.968 31.8806C126.176 33.3581 128.113 35.0255 129.51 37.3089C129.826 38.1936 130.006 39.1894 130.231 40.1296C130.231 41.3941 130.502 42.3343 130.457 43.5988C130.547 44.9697 130.547 46.2064 130.457 47.5496C130.366 49.833 129.33 51.8756 127.573 53.4596C124.959 55.8542 121.669 58.5683 118.109 56.711C114.91 55.1779 111.17 52.1442 111.395 47.9757C111.26 45.0207 111.125 42.4686 111.53 39.5923C111.665 38.7586 111.62 37.8462 112.071 37.119ZM118.605 50.5555C118.921 51.7413 119.506 53.191 120.903 53.3531C121.714 53.3809 122.3 52.6815 122.796 52.0886C124.238 49.1336 124.013 45.91 124.013 42.5474C123.562 40.0509 124.148 36.6373 121.534 35.1043C120.588 34.7569 119.912 35.4007 119.326 35.9935C118.29 37.5776 118.2 39.3932 118.109 41.408C117.794 44.6316 118.154 47.3041 118.605 50.5555Z" fill="#AFB6B3"/>
<path d="M135.098 56.8731C133.07 55.7847 132.754 52.7093 132.8 45.2291L132.845 33.7657L129.014 33.7611L129.87 31.6398H132.845V26.2114L140.01 23.4973V31.4591L143.254 31.4637L142.398 33.8167L140.01 33.812V53.6495C140.145 55.2474 140.686 56.1876 141.406 56.8731H135.098Z" fill="#AFB6B3"/>
<path d="M69.8469 34.6874C69.8019 33.2423 69.5315 32.6078 68.9908 31.7972L75.7501 31.825C76.2909 32.228 76.3359 32.9274 76.6063 33.4647L77.7779 32.5244C79.0848 31.3943 81.3829 31.3711 82.87 32.0937C83.5009 32.4179 84.0867 32.8486 84.4923 33.4137L81.6083 38.0083C81.2478 37.7119 80.9774 37.5776 80.5268 37.3367C79.0848 36.7022 77.5977 37.0727 76.7415 37.874V51.2827C76.6964 53.6032 77.102 55.7198 78.2736 56.8176H71.7396C70.3877 55.743 69.9821 54.1451 69.892 52.5194L69.8469 34.6874Z" fill="#AFB6B3"/>
<path d="M18.611 41.7415L16.1776 46.9475C14.4652 50.0183 12.1219 53.7838 8.51692 54.7194C7.12 55.2196 5.85824 54.7657 4.50636 54.6685L0.135285 62.0097C0.495785 62.371 0.946423 62.672 1.39704 62.848C9.05768 65.8586 12.167 62.6211 19.6925 45.0624L26.8574 60.7035H36.3656L31.8593 50.1479L34.4279 44.6918L41.4577 60.4627L50.5603 60.5229L34.6082 24.544L27.263 28.2911L33.031 41.7183L30.5075 46.9938L19.9628 23.6131L12.2571 27.6611L18.611 41.7415Z" fill="#AFB6B3"/>
<path d="M47.8566 48.0868C48.0369 45.4792 49.4338 43.0337 51.7771 41.7183C54.1203 40.2362 56.8241 39.6479 59.2575 38.3557C59.663 38.0083 60.1587 37.5776 60.2038 37.0125C60.2488 36.3131 59.8883 35.7758 59.3025 35.535C55.6074 34.7291 52.5882 37.0913 49.9295 39.4303C50.245 37.7119 50.5153 35.8314 51.3265 34.2196C51.687 33.7889 51.9573 33.196 52.453 32.8764C55.0666 31.5564 58.3112 31.1812 61.1952 31.3943C63.5835 31.5564 65.7916 33.3025 66.6027 35.535C67.0082 36.5818 66.9632 37.7675 67.0533 38.842L67.0984 53.4086C67.0984 54.6684 67.6842 55.8542 68.4052 56.8731H61.6458C60.8347 56.1228 60.4291 55.1779 60.2038 53.9969C58.3112 55.7198 54.3456 58.2719 52.0024 56.5767C49.569 55.4512 47.3159 51.6579 47.8566 48.0868ZM59.8433 43.0198C59.7982 42.0101 59.1223 41.9036 58.6266 41.9036C57.0044 42.1444 55.6074 43.5385 54.7963 44.9697C54.1203 46.2434 53.9401 47.318 53.895 48.4342C53.895 49.6385 53.8049 50.5324 54.3006 51.4448C54.571 52.0377 55.1117 52.3063 55.6975 52.4638C56.734 52.6815 57.6803 52.385 58.4914 51.82C60.4291 50.7177 60.0686 48.513 60.1137 46.5537L59.8433 43.0198Z" fill="#AFB6B3"/>
<path d="M112.296 77.5026C112.296 77.0302 111.89 76.6504 111.44 76.6504C110.989 76.6504 110.629 77.0302 110.629 77.5026C110.629 77.9751 110.989 78.3549 111.44 78.3549C111.89 78.3549 112.296 77.9751 112.296 77.5026Z" fill="#AFB6B3"/>
<path d="M55.5623 73.487H58.0858C58.6266 73.487 59.5278 73.4638 60.0235 73.7324C60.6994 74.0984 61.0149 74.6449 61.0149 75.474C61.0149 76.6689 60.2939 77.4239 59.1673 77.6647C59.8433 78.8319 60.5642 79.9528 61.2852 81.0876L61.7359 81.8425C61.3754 81.8148 61.0149 81.7823 60.6544 81.7823C60.2939 81.7823 59.9784 81.8148 59.6179 81.8425L58.1759 79.2858C57.9957 78.957 57.6802 78.3966 57.4099 77.9334H57.3197V81.8425C57.0494 81.8148 56.7339 81.7823 56.4635 81.7823C56.1481 81.7823 55.8777 81.8148 55.5623 81.8425V73.487ZM57.3197 77.41C58.5815 77.5304 59.2124 76.9237 59.2124 75.6685C59.2124 75.4971 59.1673 75.3165 59.1222 75.0571C58.942 74.0474 58.0407 74.1447 57.3197 74.1447V77.41Z" fill="#AFB6B3"/>
<path d="M68.0445 73.487C67.9995 73.6583 67.9544 73.8436 67.9544 74.0104C67.9544 74.1817 67.9995 74.367 68.0445 74.5337C67.2784 74.4365 66.5124 74.3392 65.2957 74.367V76.9839H66.5124C67.0531 76.9839 67.5488 76.933 67.9995 76.8727C67.9544 77.0441 67.9093 77.2247 67.9093 77.3961C67.9093 77.5675 67.9544 77.7528 67.9995 77.9195C67.5488 77.8593 67.0531 77.813 66.5124 77.813H65.2957V80.9023C66.5124 80.893 67.2784 80.8328 68.0445 80.7356C67.9995 80.9023 67.9544 81.0876 67.9544 81.2589C67.9544 81.4257 67.9995 81.6109 68.0445 81.7823H63.4932V73.487H68.0445Z" fill="#AFB6B3"/>
<path d="M73.8125 75.0571C73.5421 74.4133 73.0915 74.0011 72.4156 74.0011C71.5143 74.0011 71.1087 74.5013 71.1087 75.1914C71.1087 76.8357 74.7138 76.5346 74.7138 79.3229C74.7138 80.8791 73.452 82 71.6044 82C70.9285 82 70.2526 81.8425 69.7118 81.4766C69.847 80.9625 69.9822 80.453 70.0273 79.9296H70.2526C70.4328 80.768 71.0637 81.2682 71.8748 81.2682C72.6409 81.2682 73.2718 80.8421 73.2718 80.0038C73.2718 78.0538 69.7569 78.7625 69.7569 75.826C69.7569 74.4272 70.6581 73.2693 72.5057 73.2693C73.3168 73.2693 74.0829 73.5981 74.3533 73.8529C74.2181 74.2419 74.0829 74.6449 73.9928 75.0571H73.8125Z" fill="#AFB6B3"/>
<path d="M80.5721 82C77.9585 82 76.201 80.416 76.201 77.6508C76.201 75.2285 77.9134 73.2693 80.8875 73.2693C84.2672 73.2693 85.2586 75.7148 85.2586 77.6046C85.2586 79.9806 83.5012 82 80.5721 82ZM78.1838 78.0075C78.1838 79.5869 78.8597 81.2682 80.6622 81.2682C82.4647 81.2682 83.2759 79.3924 83.2759 77.373C83.2759 75.8028 82.5549 74.0011 80.7974 74.0011C79.1752 74.0011 78.1838 75.2794 78.1838 78.0075Z" fill="#AFB6B3"/>
<path d="M87.2412 73.487H89.7647C90.3055 73.487 91.1617 73.4638 91.6574 73.7324C92.3333 74.0984 92.6938 74.6449 92.6938 75.474C92.6938 76.6689 91.9278 77.4239 90.8463 77.6647C91.5222 78.8319 92.2432 79.9528 92.9642 81.0876L93.4148 81.8425C93.0543 81.8148 92.6938 81.7823 92.3333 81.7823C91.9728 81.7823 91.6123 81.8148 91.2518 81.8425L89.8549 79.2858C89.6746 78.957 89.3592 78.3966 89.0888 77.9334H88.9987V81.8425C88.6832 81.8148 88.4129 81.7823 88.0974 81.7823C87.8271 81.7823 87.5116 81.8148 87.2412 81.8425V73.487ZM88.9987 77.41C90.2604 77.5304 90.8463 76.9237 90.8463 75.6685C90.8463 75.4971 90.8463 75.3165 90.8012 75.0571C90.6209 74.0474 89.7197 74.1447 88.9987 74.1447V77.41Z" fill="#AFB6B3"/>
<path d="M98.4617 81.8425C98.1913 81.8147 97.8759 81.7823 97.5604 81.7823C97.29 81.7823 96.9746 81.8147 96.7042 81.8425V74.3531C95.8481 74.3531 95.1271 74.4365 94.4962 74.5245C94.4962 74.3531 94.5412 74.1817 94.5412 74.0011C94.5412 73.8297 94.4962 73.6583 94.4962 73.487H100.58C100.58 73.6583 100.535 73.8297 100.535 74.0011C100.535 74.1817 100.58 74.3531 100.58 74.5245C99.9037 74.4365 99.1827 74.3531 98.4617 74.3531V81.8425Z" fill="#AFB6B3"/>
<path d="M106.122 75.0571C105.897 74.4133 105.446 74.0011 104.77 74.0011C103.824 74.0011 103.464 74.5013 103.464 75.1914C103.464 76.8357 107.069 76.5346 107.069 79.3229C107.069 80.8791 105.762 82 103.914 82C103.283 82 102.562 81.8425 102.022 81.4766C102.157 80.9625 102.292 80.453 102.382 79.9296H102.607C102.743 80.768 103.419 81.2682 104.23 81.2682C104.951 81.2682 105.582 80.8421 105.582 80.0038C105.582 78.0538 102.067 78.7625 102.067 75.826C102.067 74.4272 103.013 73.2693 104.816 73.2693C105.672 73.2693 106.438 73.5981 106.663 73.8529C106.528 74.2419 106.438 74.6449 106.303 75.0571H106.122Z" fill="#AFB6B3"/>
<path d="M120.678 75.0571C120.407 74.4133 119.957 74.0011 119.281 74.0011C118.38 74.0011 117.974 74.5013 117.974 75.1914C117.974 76.8357 121.579 76.5346 121.579 79.3229C121.579 80.8791 120.317 82 118.47 82C117.794 82 117.118 81.8425 116.577 81.4766C116.712 80.9625 116.802 80.453 116.893 79.9296H117.118C117.298 80.768 117.929 81.2682 118.74 81.2682C119.506 81.2682 120.137 80.8421 120.137 80.0038C120.137 78.0538 116.622 78.7625 116.622 75.826C116.622 74.4272 117.568 73.2693 119.326 73.2693C120.182 73.2693 120.948 73.5981 121.219 73.8529C121.083 74.2419 120.948 74.6449 120.858 75.0571H120.678Z" fill="#AFB6B3"/>
<path d="M123.697 73.487C124.013 73.5148 124.283 73.5518 124.598 73.5518C124.914 73.5518 125.184 73.5148 125.5 73.487V76.9468C125.5 77.6184 125.455 78.6142 125.59 79.2488C125.68 79.8463 125.77 80.2214 126.176 80.6476C126.581 81.0135 127.032 81.1709 127.573 81.1709C128.654 81.1709 129.24 80.7587 129.645 79.6981C129.871 79.1608 129.871 77.7759 129.871 77.1784V73.487C130.006 73.5148 130.186 73.524 130.321 73.524C130.502 73.524 130.682 73.5148 130.817 73.487V77.8222C130.772 79.2117 130.817 80.4762 129.555 81.3562C128.924 81.8286 128.113 82 127.302 82C125.905 82 124.328 81.5368 123.922 79.9528C123.787 79.4804 123.697 78.9431 123.697 78.4568V73.487Z" fill="#AFB6B3"/>
<path d="M133.611 73.487C133.926 73.5148 134.242 73.5518 134.512 73.5518C134.828 73.5518 135.098 73.5148 135.413 73.487V81.8425C135.098 81.8147 134.828 81.7823 134.512 81.7823C134.242 81.7823 133.926 81.8147 133.611 81.8425V73.487Z" fill="#AFB6B3"/>
<path d="M141.407 81.8425C141.091 81.8147 140.776 81.7823 140.505 81.7823C140.19 81.7823 139.92 81.8147 139.604 81.8425V74.3531C138.793 74.3531 138.027 74.4365 137.396 74.5245C137.441 74.3531 137.486 74.1817 137.486 74.0011C137.486 73.8297 137.441 73.6584 137.396 73.487H143.525C143.48 73.6584 143.435 73.8297 143.435 74.0011C143.435 74.1817 143.48 74.3531 143.525 74.5245C142.804 74.4365 142.128 74.3531 141.407 74.3531V81.8425Z" fill="#AFB6B3"/>
<path d="M149.878 73.487C149.833 73.6584 149.833 73.8436 149.833 74.0104C149.833 74.1817 149.833 74.367 149.878 74.5337C149.157 74.4365 148.346 74.3392 147.13 74.367V76.9839H148.346C148.887 76.9839 149.383 76.933 149.833 76.8727C149.788 77.0441 149.788 77.2247 149.788 77.3961C149.788 77.5675 149.788 77.7528 149.833 77.9195C149.383 77.8593 148.887 77.813 148.346 77.813H147.13V80.9023C148.346 80.893 149.157 80.8328 149.878 80.7356C149.833 80.9023 149.833 81.0876 149.833 81.2589C149.833 81.4257 149.833 81.6109 149.878 81.7823H145.372V73.487H149.878Z" fill="#AFB6B3"/>
<path d="M155.646 75.0571C155.421 74.4133 154.97 74.0011 154.295 74.0011C153.348 74.0011 152.988 74.5013 152.988 75.1914C152.988 76.8357 156.593 76.5346 156.593 79.3229C156.593 80.8791 155.286 82 153.438 82C152.807 82 152.086 81.8425 151.546 81.4766C151.681 80.9625 151.816 80.453 151.861 79.9296H152.086C152.267 80.768 152.898 81.2682 153.754 81.2682C154.475 81.2682 155.106 80.8421 155.106 80.0038C155.106 78.0538 151.591 78.7625 151.591 75.826C151.591 74.4272 152.537 73.2693 154.34 73.2693C155.196 73.2693 155.962 73.5981 156.187 73.8529C156.052 74.2419 155.962 74.6449 155.827 75.0571H155.646Z" fill="#AFB6B3"/>
<path d="M0.225475 73.487C0.540904 73.5148 0.811283 73.5518 1.12671 73.5518C1.39709 73.5518 1.71254 73.5148 2.02797 73.487V76.7894C2.61378 76.8125 3.24466 76.8496 3.83046 76.8496C4.41629 76.8496 5.04717 76.8125 5.63298 76.7894V73.487C5.94841 73.5148 6.21879 73.5518 6.53422 73.5518C6.8046 73.5518 7.12005 73.5148 7.43547 73.487V81.8425C7.12005 81.8147 6.8046 81.7823 6.53422 81.7823C6.21879 81.7823 5.94841 81.8147 5.63298 81.8425V77.762C5.04717 77.7389 4.41629 77.7018 3.83046 77.7018C3.24466 77.7018 2.61378 77.7389 2.02797 77.762V81.8425C1.71254 81.8147 1.39709 81.7823 1.12671 81.7823C0.811283 81.7823 0.540904 81.8147 0.225475 81.8425V73.487Z" fill="#AFB6B3"/>
<path d="M13.9245 82C11.3108 82 9.50833 80.416 9.50833 77.6508C9.50833 75.2285 11.2658 73.2693 14.1948 73.2693C17.5745 73.2693 18.5659 75.7148 18.5659 77.6046C18.5659 79.9806 16.8085 82 13.9245 82ZM11.4911 78.0075C11.4911 79.5869 12.2121 81.2682 13.9695 81.2682C15.772 81.2682 16.6282 79.3924 16.6282 77.373C16.6282 75.8028 15.9072 74.0011 14.1047 74.0011C12.4825 74.0011 11.4911 75.2794 11.4911 78.0075Z" fill="#AFB6B3"/>
<path d="M22.9822 81.8425C22.7118 81.8147 22.3964 81.7823 22.126 81.7823C21.8106 81.7823 21.5402 81.8147 21.2247 81.8425V74.3531C20.3685 74.3531 19.6475 74.4365 19.0167 74.5245C19.0617 74.3531 19.0617 74.1817 19.0617 74.0011C19.0617 73.8297 19.0617 73.6584 19.0167 73.487H25.1001C25.1001 73.6584 25.055 73.8297 25.055 74.0011C25.055 74.1817 25.1001 74.3531 25.1001 74.5245C24.4242 74.4365 23.7032 74.3531 22.9822 74.3531V81.8425Z" fill="#AFB6B3"/>
<path d="M31.4087 73.487C31.4087 73.6584 31.3636 73.8436 31.3636 74.0104C31.3636 74.1817 31.4087 74.367 31.4087 74.5337C30.6877 74.4365 29.8766 74.3392 28.6599 74.367V76.9839H29.9216C30.4624 76.9839 30.913 76.933 31.3636 76.8727C31.3186 77.0441 31.3186 77.2247 31.3186 77.3961C31.3186 77.5675 31.3186 77.7528 31.3636 77.9195C30.913 77.8593 30.4624 77.813 29.9216 77.813H28.6599V80.9023C29.8766 80.893 30.6877 80.8328 31.4087 80.7356C31.4087 80.9023 31.3636 81.0876 31.3636 81.2589C31.3636 81.4257 31.4087 81.6109 31.4087 81.7823H26.9025V73.487H31.4087Z" fill="#AFB6B3"/>
<path d="M35.4643 80.9023C36.5007 80.9023 37.3569 80.8189 38.168 80.7356C38.123 80.9023 38.0779 81.0876 38.0779 81.2589C38.0779 81.4257 38.123 81.6109 38.168 81.7823H33.6618V73.487C33.9772 73.5148 34.2476 73.5518 34.563 73.5518C34.8785 73.5518 35.1489 73.5148 35.4643 73.487V80.9023Z" fill="#AFB6B3"/>
<path d="M156.863 54.6916C156.863 53.2002 158.035 52.1025 159.431 52.1025C160.828 52.1025 162 53.2002 162 54.6916C162 56.1923 160.828 57.29 159.431 57.29C158.035 57.29 156.863 56.1923 156.863 54.6916ZM159.431 56.8592C160.603 56.8592 161.504 55.9422 161.504 54.6916C161.504 53.4642 160.603 52.5333 159.431 52.5333C158.305 52.5333 157.359 53.4642 157.359 54.6916C157.359 55.9422 158.305 56.8592 159.431 56.8592ZM158.891 56.1923H158.485V53.2002H159.567C160.243 53.2002 160.603 53.4642 160.603 54.0524C160.603 54.5897 160.288 54.8213 159.837 54.8769L160.693 56.1923H160.198L159.431 54.8954H158.891V56.1923ZM159.431 54.511C159.792 54.511 160.152 54.4832 160.152 54.0247C160.152 53.6541 159.837 53.5847 159.522 53.5847H158.891V54.511H159.431Z" fill="#AFB6B3"/>
</svg>
