<svg width="145" height="66" viewBox="0 0 145 66" fill="none" xmlns="http://www.w3.org/2000/svg">
<path d="M29.809 44.6521V59.2412C29.809 60.5828 30.4645 61.1249 31.5701 61.1249H40.3637C41.4679 61.1249 42.1248 60.5828 42.1248 59.2412V44.6521H47.2846V60.1988C47.2846 63.4984 44.88 65.9984 42.1235 65.9984H29.8076C27.0632 65.9984 24.6451 63.4842 24.6451 60.1988V44.6521H29.809Z" fill="#AFB6B3"/>
<path d="M0.171944 59.4134H5.30892C5.39355 60.6287 6.00075 61.1264 7.02169 61.1264H16.4601C17.3346 61.1264 17.8195 60.2431 17.8195 59.2839C17.8195 57.9991 17.0189 57.3259 15.9859 57.3259H5.69715C2.30788 57.3259 0 55.3822 0 51.1818C0 48.9963 0.729436 46.6812 2.38176 45.5086C3.41345 44.7643 4.6762 44.6505 5.86775 44.6505H17.9888C20.6137 44.6505 22.7255 46.8361 22.7013 49.9792V51.1075H17.3951C17.3467 50.1357 16.8604 49.5083 15.9872 49.5083H7.03513C6.12433 49.5083 5.35863 50.0503 5.35863 51.2371C5.35863 52.4097 6.13642 52.8521 7.02303 52.8521H17.9915C21.5379 52.8521 23.373 55.6397 23.373 59.6979C23.373 63.5838 21.8415 65.9968 18.416 65.9968H5.31026C2.32131 65.9968 0.208217 64.5841 0.184037 60.8404L0.171944 59.4134Z" fill="#AFB6B3"/>
<path d="M122.35 44.6521H127.524V59.2412C127.524 60.5828 128.181 61.1249 129.285 61.1249H138.078C139.182 61.1249 139.839 60.5828 139.839 59.2412V44.6521H145V60.1988C145 63.4826 142.583 65.9984 139.839 65.9984H127.522C124.765 65.9984 122.347 63.4984 122.347 60.1988L122.35 44.6521Z" fill="#AFB6B3"/>
<path d="M78.805 61.7838L76.7766 65.9968H71.0445L80.8953 44.6521H87.6362L97.4883 65.9968H91.7536L89.7251 61.7838H78.805ZM84.259 50.0535L81.0041 57.1694H87.5274L84.259 50.0535Z" fill="#AFB6B3"/>
<path d="M49.2553 44.6521H65.1673C68.5794 44.6521 71.1063 46.0522 71.1063 50.5529C71.1063 52.4966 70.452 54.197 68.9945 55.1546C70.5958 56.1549 71.5079 58.0102 71.5079 60.153C71.5079 63.1682 69.8664 65.9968 67.1112 65.9968H49.2553V44.6521ZM54.5387 61.1249H64.3532C65.311 61.1249 66.199 60.5117 66.199 59.2823C66.199 58.067 65.3003 57.4397 64.3532 57.4397H54.5387V61.1249ZM54.5387 53.026H64.3532C65.2385 53.026 65.7987 52.2975 65.7987 51.2829C65.7987 50.2684 65.2519 49.513 64.3532 49.513H54.5387V53.026Z" fill="#AFB6B3"/>
<path d="M98.4703 44.6521H115.766C119.217 44.6521 120.881 47.9675 120.881 51.6685C120.881 54.0674 120.141 56.3114 118.27 57.4571C120.093 58.4985 120.93 60.1419 120.93 62.5439V66H115.766V62.5455C115.766 60.5165 114.808 59.788 113.142 59.788H103.793V66H98.4717L98.4703 44.6521ZM103.791 54.9255H113.472C114.721 54.9255 115.56 53.6107 115.56 52.2248C115.56 50.4533 114.443 49.5099 112.997 49.5099H103.791V54.9255Z" fill="#AFB6B3"/>
<path d="M71.5439 0C77.2653 0 83.399 1.37168 88.2807 5.01578C91.451 7.40199 94.4024 11.0176 94.4024 15.73C94.4024 21.2325 90.4073 25.2338 86.5801 27.5757C82.0261 30.3491 76.6446 31.4474 71.5426 31.4474C65.8226 31.4474 59.7009 30.0915 54.8179 26.4332C51.6476 24.047 48.6841 20.4313 48.6841 15.73C48.6841 10.2022 52.6685 6.2152 56.5065 3.87166C61.0739 1.09987 66.4432 0 71.5439 0ZM71.4956 1.67193C66.1759 1.67193 60.4425 2.84291 55.8267 6.11407C52.9237 8.15736 50.057 11.3732 50.057 15.6447C50.057 20.662 53.9433 24.1734 57.4172 26.1898C61.7173 28.6598 66.7455 29.6206 71.4956 29.6206C76.826 29.6206 82.5608 28.4464 87.1765 25.1753C90.0674 23.1178 92.9462 19.9177 92.9462 15.6463C92.9462 10.6178 89.0706 7.10174 85.586 5.10269C81.2846 2.62799 76.2564 1.67193 71.4956 1.67193ZM51.4178 12.1728L60.1752 10.4156L62.8108 3.68519L65.4357 10.4156L74.1917 12.1728L65.4357 13.9459L62.8108 20.6905L60.1752 13.9459L51.4178 12.1728ZM70.6694 17.3008L74.5315 16.5028L75.6855 13.4592L76.8394 16.5028L80.7029 17.3008L76.8394 18.0862L75.6855 21.1314L74.5315 18.0862L70.6694 17.3008ZM78.6623 9.18611L82.5245 8.40072L83.6784 5.34448L84.8324 8.40072L88.6945 9.18611L84.8324 9.98573L83.6784 13.0309L82.5231 9.98573L78.6623 9.18611ZM74.5315 23.5903L78.3816 22.8049L79.5355 19.7471L80.7016 22.8049L84.5637 23.5903L80.7016 24.3899L79.5355 27.4351L78.3816 24.3899L74.5315 23.5903ZM62.6657 24.6901L66.5279 23.9048L67.6939 20.8438L68.8465 23.9048L72.71 24.6901L68.8465 25.4898L67.6939 28.5349L66.5279 25.4898L62.6657 24.6901ZM82.0879 17.176L85.9379 16.3748L87.0919 13.3312L88.2579 16.3748L92.12 17.176L88.2579 17.9614L87.0905 21.0018L85.9366 17.9598L82.0879 17.176Z" fill="#AFB6B3"/>
</svg>
