<svg width="99" height="78" viewBox="0 0 99 78" fill="none" xmlns="http://www.w3.org/2000/svg">
<path d="M71.4204 35.9389C71.4204 35.9389 67.3077 37.336 59.3524 43.0828C52.2205 48.2436 49.4238 51.7108 49.4238 51.7108L27.4213 33.8355C27.4213 33.8355 36.6778 25.8336 44.4121 31.9624L54.7872 40.3288L56.0528 39.3504L27.4258 15.7736C27.4258 15.7736 31.54 14.3749 39.4908 8.63155C46.6272 3.46902 49.4238 0 49.4238 0L71.4248 17.8753C71.4248 17.8753 62.1698 25.8772 54.4341 19.7484L44.059 11.3803L42.7934 12.357L71.4204 35.9389Z" fill="#514F4F"/>
<path d="M54.3801 60.3239H37.6342V64.7016H45.723L37.3493 73.8913V77.5591H54.3489V73.164H45.8907L54.3801 63.997V60.3239Z" fill="#AFB6B3"/>
<path d="M27.7745 78C34.4716 78 36.1867 75.9891 36.1867 71.5555V60.3235H30.8812V70.8841C30.8812 72.6578 29.5904 73.7147 27.7745 73.7147C25.8858 73.7147 24.6707 72.6526 24.6707 70.8562V60.3235H19.3652V71.5555C19.3652 75.9891 21.0802 78 27.7745 78Z" fill="#AFB6B3"/>
<path d="M64.102 78C70.7991 78 72.5142 75.9891 72.5142 71.5555V60.3235H67.2072V70.8841C67.2072 72.6578 65.915 73.7147 64.102 73.7147C62.2133 73.7147 60.9937 72.6526 60.9937 70.8562V60.3235H55.6897V71.5555C55.6897 75.9891 57.4048 78 64.102 78Z" fill="#AFB6B3"/>
<path d="M99 60.3239H93.4675V77.5591H99V60.3239Z" fill="#AFB6B3"/>
<path d="M92.6246 60.3239H85.3459L79.4558 66.2713V60.3239H73.9218V77.5591H79.4558V71.446L84.926 77.5591H92.3591L84.2687 68.7165L92.6246 60.3239Z" fill="#AFB6B3"/>
<path d="M6.28769 65.0862C6.28769 63.7537 7.96718 63.7101 8.53393 63.7101C9.10217 63.7101 10.3826 63.9769 11.2535 65.6565H17.51C17.51 62.409 14.8914 59.8259 8.55322 59.8259C1.51332 59.8259 0.314533 63.4572 0.314533 65.5431C0.314533 69.3888 2.8486 70.5155 8.35886 71.2062C8.83066 71.2637 11.6971 71.105 11.6971 72.7253C11.6971 73.9252 10.0858 74.0055 9.49237 74.0055C8.90336 74.0055 7.80101 73.8921 6.89005 71.9858H0C0 75.7705 2.17057 77.9576 9.48198 77.9576C16.2163 77.9576 18.004 74.7258 18.004 72.2683C18.004 69.8824 16.6109 67.4546 10.8692 66.5913C8.47459 66.2268 6.28769 66.0733 6.28769 65.0862Z" fill="#AFB6B3"/>
</svg>
