<svg width="166" height="52" viewBox="0 0 166 52" fill="none" xmlns="http://www.w3.org/2000/svg">
<path d="M0 52H166V0H0V52Z" fill="#514F4F"/>
<path d="M147.248 35.0565H150.498V39.6977H136.895V35.3385H139.633L135.467 29.6517L131.422 35.3385H134.16V39.6977H122.613V35.0565H125.668L132.293 25.6159L125.751 16.9389H123.24V12.3H135.907V16.6592H133.325L137.332 21.7819L140.982 16.6592H138.522V12.3H150.498V16.9389H146.733L140.348 25.898L147.248 35.0565ZM110.735 12.3H120.93V16.9389H118.253V32.2727C118.253 38.6474 111.704 40.021 107.663 40.021C102.07 40.021 96.9022 37.9641 96.9022 31.2637V16.9389H93.7277V12.3H106.262V16.9389H103.925V30.8625C103.925 33.5637 105.259 35.3798 108.385 35.3798C111.008 35.3798 113.124 34.2103 113.124 31.1009V16.9389H110.735V12.3ZM30.8473 12.3H42.0252V16.9389H39.4339L31.6915 39.7045H25.3718L17.3489 16.9389H14.1743V12.3H27.5019V16.9389H24.408L28.8903 30.8143H28.9684L33.8242 16.9389H30.8473V12.3ZM88.7305 30.9748H94.0059V39.6977H71.0791V35.0565H74.9246V16.9389H71.0791V12.3H85.8756V16.9389H81.9471V35.0565H88.7305V30.9748ZM44.336 12.3H67.7655V20.9747H62.6486V16.9389H54.2792V23.2357H61.0235V27.8746H54.2792V35.0565H62.6486V30.984H67.7655V39.6977H44.0871V35.0565H47.2616V16.9389H44.336V12.3ZM150.152 25.9897C150.152 24.0222 151.738 22.5363 153.839 22.5363C155.94 22.5363 157.523 24.0222 157.523 25.9897C157.523 27.9686 155.947 29.4614 153.858 29.4614C151.745 29.4614 150.152 27.9686 150.152 25.9897ZM149.303 25.9989C149.303 28.4295 151.242 30.2617 153.819 30.2617C156.418 30.2617 158.377 28.4295 158.377 25.9989C158.377 23.5682 156.425 21.7337 153.836 21.7337C151.252 21.7337 149.303 23.5682 149.303 25.9989ZM153.897 24.3455C154.451 24.3455 154.756 24.5817 154.756 25.0105C154.756 25.5586 154.29 25.6732 153.897 25.6732C153.897 25.6732 153.282 25.6732 153.207 25.6732C153.207 25.6044 153.207 24.4143 153.207 24.3455C153.282 24.3455 153.897 24.3455 153.897 24.3455ZM152.267 23.6416V28.2484H153.248C153.248 28.2484 153.248 26.4506 153.248 26.3795C153.314 26.3795 153.668 26.3795 153.668 26.3795C153.668 26.4116 154.898 28.23 154.898 28.23L155.905 28.2484H155.979C155.979 28.2484 154.676 26.3405 154.624 26.2694C155.305 26.0837 155.698 25.632 155.698 25.0105C155.698 24.1392 155.061 23.6416 153.953 23.6416H152.267Z" fill="white"/>
</svg>
