<svg width="375" height="675" viewBox="0 0 375 675" fill="none" xmlns="http://www.w3.org/2000/svg">
<g filter="url(#filter0_dd_1206_2936)">
<rect width="1142" height="42" transform="translate(-423.59 8) rotate(7.40043)" fill="#4B4B4B"/>
<path d="M7.08166 92.1429L-1.70755 91.0013C-1.93243 90.9721 -2.17281 90.9155 -2.42869 90.8314C-2.6775 90.742 -2.92267 90.6244 -3.16418 90.4787C-3.39945 90.3338 -3.62128 90.1588 -3.8297 89.9539C-4.0373 89.7427 -4.21545 89.5004 -4.36415 89.227C-4.5058 88.9482 -4.60821 88.6364 -4.67141 88.2915C-4.73379 87.9404 -4.7378 87.5555 -4.68344 87.137L-3.82664 80.5404C-3.79743 80.3155 -3.74121 80.0783 -3.65797 79.8286C-3.56767 79.5736 -3.45007 79.3284 -3.30518 79.0932C-3.15947 78.8516 -2.98103 78.6271 -2.76985 78.4195C-2.55867 78.2119 -2.31679 78.0369 -2.0442 77.8944C-1.76455 77.7465 -1.45229 77.641 -1.10742 77.5778C-0.762548 77.5146 -0.380845 77.5102 0.0376888 77.5645L8.8269 78.7061L8.51047 81.1424L-0.278743 80.0008C-0.597328 79.9594 -0.851905 80.0121 -1.04247 80.1588C-1.23304 80.3056 -1.34983 80.5445 -1.39283 80.8756L-2.2472 87.4534C-2.28776 87.7658 -2.23508 88.0204 -2.08913 88.2172C-1.93613 88.4086 -1.70346 88.5245 -1.39112 88.5651L7.39809 89.7067L7.08166 92.1429Z" fill="#FDFAFF"/>
<path d="M11.4819 82.767L13.4965 83.0286L14.5915 80.0265L16.8684 80.3223L15.7828 83.3256L18.1253 83.6298L19.211 80.6265L21.4973 80.9235L20.4023 83.9256L22.5574 84.2055L21.7866 86.3255L19.6408 86.0468L18.8473 88.2686L20.9181 88.5376L20.1566 90.6587L18.0858 90.3898L16.9859 93.4293L14.6996 93.1324L15.7995 90.0928L13.4569 89.7885L12.3571 92.8281L10.0801 92.5324L11.1706 89.4916L9.0436 89.2153L9.84253 87.099L11.9321 87.3704L12.735 85.1498L10.683 84.8833L11.4819 82.767ZM14.2184 87.6674L16.5609 87.9716L17.3545 85.7498L15.012 85.4455L14.2184 87.6674Z" fill="#FDFAFF"/>
<path d="M61.0803 87.2325L57.1958 99.534C57.1134 99.7773 56.9729 99.9782 56.7745 100.137C56.5761 100.295 56.3487 100.383 56.0923 100.401C55.8305 100.411 55.5905 100.351 55.3724 100.221C55.1605 100.092 55.0027 99.9129 54.8991 99.6835L51.3907 91.7767L45.9694 98.5236C45.8396 98.691 45.6746 98.8125 45.4742 98.8881C45.2801 98.9645 45.0768 98.9889 44.8644 98.9613C44.5708 98.9232 44.3237 98.7958 44.1232 98.5792C43.9226 98.3626 43.8169 98.1011 43.8058 97.7948L43.174 84.9068L45.6477 85.2281L46.1068 94.311L50.7445 88.6819C50.8742 88.5145 51.0362 88.3926 51.2303 88.3162C51.4307 88.2406 51.6371 88.2166 51.8495 88.2442C52.0619 88.2717 52.2522 88.3473 52.4203 88.4707C52.5885 88.5942 52.7202 88.7542 52.8153 88.9508L55.8424 95.5755L58.6066 86.9112L61.0803 87.2325Z" fill="#FDFAFF"/>
<path d="M75.7359 94.853C75.6637 95.409 75.5305 95.8967 75.3363 96.3161C75.142 96.7355 74.9043 97.0985 74.6231 97.405C74.349 97.706 74.0435 97.9554 73.7066 98.153C73.3696 98.3506 73.0228 98.5025 72.666 98.6086C72.3154 98.7155 71.9639 98.781 71.6114 98.8051C71.2651 98.83 70.9421 98.823 70.6423 98.784L65.1326 98.0684L65.449 95.6322L70.9587 96.3478C71.2743 96.3634 71.5635 96.3374 71.8263 96.2699C72.0963 96.197 72.3331 96.0849 72.537 95.9335C72.7409 95.7821 72.9086 95.5911 73.0402 95.3604C73.1726 95.1236 73.2591 94.8489 73.2997 94.5366L73.4433 93.4309C73.4518 93.1208 73.4227 92.8311 73.356 92.562C73.2894 92.2929 73.1803 92.0565 73.029 91.8526C72.8838 91.6495 72.6959 91.4822 72.4653 91.3506C72.2355 91.2128 71.9612 91.1232 71.6427 91.0818L66.1517 90.3686C65.8269 90.3264 65.5692 90.3787 65.3786 90.5254C65.1881 90.6722 65.0721 90.9049 65.0307 91.2235L63.7297 101.24L61.2935 100.924L62.5945 90.907C62.6756 90.2823 62.857 89.766 63.1387 89.3579C63.4266 88.9507 63.7567 88.6346 64.1289 88.4098C64.5074 88.1858 64.9042 88.0405 65.3194 87.9737C65.7354 87.9007 66.1121 87.8861 66.4494 87.9299L71.9591 88.6455C72.5088 88.7169 72.993 88.8529 73.4116 89.0533C73.831 89.2476 74.1908 89.4849 74.4911 89.7652C74.7984 90.0402 75.0477 90.3457 75.2391 90.6818C75.4367 91.0188 75.5886 91.3656 75.6947 91.7224C75.8079 92.0738 75.8765 92.4257 75.9006 92.7782C75.9255 93.1245 75.9185 93.4475 75.8795 93.7473L75.7359 94.853Z" fill="#FDFAFF"/>
<path d="M110.282 101.975C110.243 102.275 110.148 102.59 109.997 102.919C109.853 103.25 109.643 103.547 109.367 103.809C109.098 104.073 108.763 104.28 108.362 104.432C107.962 104.576 107.491 104.614 106.947 104.543L97.6988 103.342C97.5239 103.319 97.3655 103.267 97.2237 103.185C97.0819 103.103 96.9616 103.002 96.863 102.881C96.7714 102.755 96.7041 102.612 96.6611 102.454C96.6181 102.296 96.608 102.13 96.6307 101.955L98.0571 90.9731C98.079 90.8044 98.1309 90.6492 98.2128 90.5074C98.2948 90.3656 98.3962 90.2454 98.517 90.1467C98.644 90.0489 98.7865 89.9785 98.9446 89.9355C99.1026 89.8925 99.2691 89.8823 99.444 89.9051L107.596 90.9639C107.896 91.0028 108.211 91.0977 108.54 91.2485C108.87 91.3993 109.167 91.6125 109.429 91.888C109.699 92.1581 109.907 92.4931 110.051 92.8931C110.203 93.2938 110.243 93.766 110.172 94.3094L110.113 94.7686C110.057 95.1996 109.925 95.6557 109.716 96.1367C109.508 96.6116 109.216 97.0501 108.84 97.4522C109.093 97.6566 109.323 97.8928 109.529 98.1611C109.742 98.4301 109.919 98.7325 110.059 99.0684C110.2 99.4043 110.298 99.7759 110.353 100.183C110.408 100.591 110.405 101.032 110.343 101.506L110.282 101.975ZM107.907 101.19C107.948 100.871 107.935 100.581 107.868 100.318C107.801 100.049 107.689 99.8118 107.531 99.6071C107.373 99.4024 107.173 99.2366 106.929 99.1096C106.686 98.9764 106.405 98.8891 106.086 98.8477L100.595 98.1345L100.914 95.6795L105.309 96.2503C105.627 96.2917 105.921 96.2822 106.189 96.2217C106.458 96.1551 106.695 96.0429 106.9 95.8853C107.104 95.7277 107.27 95.53 107.396 95.2923C107.529 95.0492 107.616 94.7683 107.658 94.4497L107.717 93.9906C107.763 93.6408 107.617 93.4439 107.28 93.4001L100.336 92.4983L99.2239 101.063L107.264 102.107C107.307 102.113 107.361 102.116 107.424 102.118C107.487 102.12 107.546 102.109 107.6 102.084C107.654 102.059 107.705 102.012 107.752 101.942C107.799 101.872 107.831 101.771 107.848 101.64L107.907 101.19Z" fill="#FDFAFF"/>
<path d="M115.814 93.2794L113.377 92.963L113.663 90.761L116.1 91.0774L115.814 93.2794ZM114.228 105.489L111.791 105.172L113.107 95.0432L115.543 95.3596L114.228 105.489Z" fill="#FDFAFF"/>
<path d="M126.78 99.2964L122.526 98.7439L121.527 106.437L119.063 106.117L120.062 98.4238L116.895 98.0125L117.211 95.5762L120.378 95.9876L120.808 92.6799L123.272 93L122.843 96.3077L127.097 96.8602L126.78 99.2964Z" fill="#FDFAFF"/>
<path d="M137.191 100.649L131.709 99.9366C131.378 99.8936 131.117 99.9455 130.927 100.092C130.737 100.233 130.621 100.462 130.58 100.781L129.707 107.499L127.271 107.183L128.144 100.464C128.198 100.046 128.3 99.678 128.449 99.3607C128.598 99.0434 128.776 98.7712 128.984 98.5441C129.198 98.3115 129.432 98.1227 129.686 97.9778C129.941 97.8267 130.2 97.7111 130.465 97.6312C130.736 97.552 131.002 97.504 131.265 97.4873C131.535 97.4652 131.782 97.4687 132.007 97.4979L137.507 98.2123L137.191 100.649Z" fill="#FDFAFF"/>
<path d="M141.863 96.6628L139.426 96.3464L139.712 94.1444L142.149 94.4608L141.863 96.6628ZM140.277 108.872L137.841 108.556L139.156 98.4265L141.592 98.743L140.277 108.872Z" fill="#FDFAFF"/>
<path d="M155.507 100.55L150.511 104.761L154.744 110.751L151.39 110.316L148.607 106.362L144.906 109.473L141.542 109.036L147.158 104.306L143.42 98.9803L146.755 99.4136L149.064 102.696L152.153 100.115L155.507 100.55Z" fill="#FDFAFF"/>
<path d="M189.039 110.68L181.336 109.679L181.655 107.224L189.358 108.225L189.039 110.68ZM190.841 105.311L181.078 104.043L179.649 115.044L177.213 114.727L178.798 102.518C178.82 102.349 178.872 102.194 178.954 102.052C179.036 101.91 179.137 101.79 179.258 101.691C179.385 101.594 179.528 101.523 179.686 101.48C179.844 101.437 180.01 101.427 180.185 101.45L191.158 102.875L190.841 105.311Z" fill="#FDFAFF"/>
<path d="M195.559 117.11L194.472 116.969C194.123 116.924 193.755 116.816 193.371 116.645C192.993 116.475 192.65 116.234 192.341 115.92C192.033 115.601 191.795 115.211 191.626 114.751C191.458 114.284 191.415 113.736 191.497 113.105L192.924 102.113L195.36 102.43L193.933 113.421C193.894 113.721 193.956 113.974 194.12 114.179C194.285 114.378 194.508 114.496 194.789 114.533L195.876 114.674L195.559 117.11Z" fill="#FDFAFF"/>
<path d="M208.209 117.505C208.186 117.68 208.134 117.838 208.052 117.98C207.97 118.122 207.866 118.242 207.739 118.34C207.619 118.432 207.48 118.5 207.322 118.543C207.17 118.586 207.01 118.597 206.841 118.575L201.331 117.86C201.032 117.821 200.714 117.745 200.38 117.631C200.051 117.519 199.731 117.366 199.42 117.173C199.109 116.974 198.812 116.739 198.53 116.467C198.255 116.19 198.023 115.871 197.835 115.51C197.648 115.142 197.51 114.731 197.424 114.275C197.343 113.82 197.338 113.317 197.41 112.767L198.14 107.145L200.576 107.462L199.846 113.084C199.805 113.402 199.82 113.697 199.893 113.967C199.973 114.231 200.095 114.466 200.259 114.672C200.423 114.877 200.623 115.046 200.86 115.178C201.104 115.305 201.373 115.388 201.667 115.426L205.93 115.98L206.929 108.287L209.365 108.603L208.209 117.505Z" fill="#FDFAFF"/>
<path d="M220.546 112.533L216.292 111.98L215.293 119.673L212.829 119.353L213.828 111.66L210.661 111.249L210.977 108.813L214.144 109.224L214.574 105.916L217.038 106.236L216.609 109.544L220.863 110.097L220.546 112.533Z" fill="#FDFAFF"/>
<path d="M231.359 113.937L227.105 113.385L226.106 121.078L223.642 120.758L224.641 113.065L221.474 112.653L221.79 110.217L224.957 110.628L225.387 107.321L227.851 107.641L227.422 110.949L231.676 111.501L231.359 113.937Z" fill="#FDFAFF"/>
<path d="M243.702 116.474C243.659 116.812 243.552 117.169 243.382 117.547C243.213 117.919 242.972 118.257 242.66 118.559C242.354 118.856 241.972 119.089 241.511 119.258C241.057 119.428 240.524 119.473 239.912 119.393L235.518 118.822L235.818 116.508L240.213 117.079C240.544 117.122 240.813 117.055 241.02 116.879C241.228 116.696 241.351 116.455 241.39 116.155C241.432 115.836 241.361 115.573 241.179 115.365C241.002 115.158 240.77 115.036 240.483 114.999L236.088 114.428C235.757 114.385 235.488 114.455 235.28 114.637C235.073 114.814 234.95 115.052 234.911 115.351L234.469 118.753C234.427 119.078 234.494 119.344 234.67 119.551C234.853 119.759 235.094 119.882 235.394 119.921L239.77 120.489L239.468 122.813L235.073 122.242C234.736 122.199 234.378 122.092 234 121.922C233.628 121.753 233.291 121.515 232.987 121.209C232.691 120.898 232.458 120.515 232.289 120.061C232.12 119.601 232.075 119.064 232.155 118.452L232.599 115.032C232.643 114.695 232.749 114.34 232.918 113.968C233.088 113.59 233.325 113.253 233.631 112.956C233.943 112.653 234.326 112.417 234.78 112.247C235.241 112.078 235.777 112.034 236.389 112.113L240.784 112.684C241.121 112.728 241.475 112.834 241.847 113.003C242.225 113.173 242.563 113.414 242.859 113.725C243.162 114.032 243.398 114.415 243.567 114.875C243.737 115.329 243.782 115.862 243.702 116.474Z" fill="#FDFAFF"/>
<path d="M254.326 116.92L248.844 116.208C248.513 116.165 248.252 116.217 248.062 116.364C247.872 116.505 247.756 116.734 247.715 117.053L246.842 123.771L244.406 123.455L245.279 116.736C245.333 116.318 245.435 115.95 245.584 115.632C245.733 115.315 245.911 115.043 246.119 114.816C246.333 114.583 246.567 114.394 246.821 114.25C247.076 114.098 247.335 113.983 247.6 113.903C247.871 113.824 248.137 113.776 248.4 113.759C248.67 113.737 248.917 113.74 249.142 113.77L254.642 114.484L254.326 116.92Z" fill="#FDFAFF"/>
<path d="M289.402 124.588C289.34 125.069 289.221 125.495 289.046 125.866C288.878 126.232 288.674 126.548 288.436 126.816C288.198 127.084 287.932 127.303 287.636 127.474C287.341 127.646 287.041 127.778 286.737 127.872C286.432 127.966 286.126 128.025 285.818 128.048C285.516 128.072 285.234 128.068 284.972 128.034L275.574 126.813L275.89 124.377L285.288 125.597C285.757 125.658 286.137 125.568 286.429 125.326C286.727 125.085 286.906 124.734 286.966 124.272C286.995 124.047 286.988 123.836 286.943 123.64C286.899 123.443 286.82 123.268 286.707 123.114C286.6 122.96 286.457 122.833 286.28 122.734C286.108 122.636 285.91 122.572 285.685 122.543L280.082 121.815C279.688 121.764 279.272 121.64 278.834 121.443C278.397 121.24 278.002 120.957 277.649 120.594C277.302 120.231 277.03 119.78 276.834 119.24C276.643 118.7 276.596 118.065 276.69 117.334C276.785 116.603 276.993 116.005 277.314 115.538C277.642 115.066 278.02 114.699 278.448 114.437C278.883 114.17 279.338 113.997 279.811 113.919C280.286 113.834 280.72 113.818 281.114 113.869L289.406 114.946L289.09 117.382L280.797 116.305C280.335 116.245 279.955 116.339 279.656 116.586C279.363 116.833 279.187 117.189 279.127 117.651C279.066 118.119 279.146 118.508 279.366 118.816C279.594 119.118 279.938 119.3 280.401 119.36L286.023 120.09C286.284 120.13 286.557 120.204 286.842 120.311C287.128 120.411 287.405 120.549 287.675 120.724C287.95 120.899 288.206 121.11 288.44 121.357C288.676 121.597 288.875 121.877 289.036 122.197C289.204 122.517 289.323 122.875 289.392 123.272C289.461 123.668 289.465 124.107 289.402 124.588Z" fill="#FDFAFF"/>
<path d="M308.635 120.807C308.135 121.625 307.606 122.426 307.046 123.211C306.488 123.99 305.913 124.722 305.322 125.408C304.738 126.094 304.148 126.722 303.553 127.293C302.959 127.857 302.379 128.338 301.813 128.734C301.254 129.126 300.717 129.421 300.201 129.621C299.693 129.815 299.227 129.885 298.802 129.83C298.627 129.807 298.469 129.755 298.327 129.673C298.185 129.591 298.065 129.49 297.967 129.369C297.869 129.242 297.798 129.099 297.755 128.941C297.712 128.783 297.702 128.617 297.725 128.442L298.315 123.897L292.778 128.676C292.637 128.785 292.487 128.86 292.329 128.903C292.178 128.941 292.025 128.95 291.868 128.929C291.7 128.907 291.544 128.855 291.403 128.773C291.267 128.692 291.15 128.591 291.051 128.471C290.954 128.344 290.88 128.201 290.831 128.042C290.788 127.884 290.778 127.717 290.8 127.542L291.957 118.641L294.393 118.957L293.643 124.729L299.201 119.934C299.399 119.782 299.619 119.7 299.862 119.687C300.113 119.668 300.347 119.724 300.565 119.854C300.784 119.978 300.946 120.151 301.05 120.374C301.161 120.592 301.201 120.823 301.17 121.066L300.418 126.857C301.008 126.419 301.552 125.947 302.05 125.44C302.548 124.933 303.016 124.406 303.456 123.86C303.902 123.308 304.324 122.747 304.723 122.176C305.128 121.6 305.523 121.025 305.909 120.453L308.635 120.807Z" fill="#FDFAFF"/>
<path d="M312.223 119.158L309.786 118.841L310.072 116.639L312.509 116.956L312.223 119.158ZM310.637 131.367L308.201 131.051L309.516 120.921L311.952 121.238L310.637 131.367Z" fill="#FDFAFF"/>
<path d="M322.946 125.143L317.436 124.427L317.753 121.991L323.262 122.707L322.946 125.143ZM323.517 120.748L318.026 120.035C317.695 119.992 317.434 120.044 317.243 120.191C317.053 120.331 316.938 120.561 316.896 120.88L315.453 131.993L313.017 131.676L314.46 120.563C314.515 120.145 314.616 119.777 314.766 119.459C314.915 119.142 315.093 118.87 315.3 118.643C315.515 118.41 315.749 118.221 316.003 118.077C316.257 117.925 316.517 117.81 316.782 117.73C317.052 117.651 317.319 117.603 317.582 117.586C317.845 117.563 318.092 117.567 318.323 117.597L323.833 118.312L323.517 120.748Z" fill="#FDFAFF"/>
<path d="M333.759 126.548L329.505 125.995L328.506 133.688L326.041 133.368L327.041 125.675L323.873 125.264L324.19 122.827L327.357 123.239L327.787 119.931L330.251 120.251L329.821 123.559L334.075 124.111L333.759 126.548Z" fill="#FDFAFF"/>
<path d="M368.985 133.03C368.879 133.849 368.64 134.583 368.27 135.234C367.9 135.884 367.432 136.427 366.867 136.862C366.303 137.297 365.659 137.61 364.935 137.802C364.218 137.988 363.457 138.029 362.651 137.925L359.353 137.496C358.547 137.392 357.819 137.157 357.167 136.793C356.517 136.423 355.974 135.955 355.539 135.391C355.104 134.826 354.788 134.181 354.59 133.457C354.398 132.733 354.355 131.962 354.461 131.144L354.795 128.576C354.9 127.764 355.138 127.033 355.508 126.382C355.886 125.726 356.356 125.184 356.92 124.755C357.485 124.321 358.129 124.007 358.853 123.815C359.576 123.624 360.341 123.58 361.147 123.685L364.445 124.113C365.251 124.218 365.976 124.455 366.621 124.824C367.271 125.195 367.814 125.662 368.249 126.227C368.684 126.785 368.998 127.429 369.189 128.159C369.381 128.883 369.424 129.651 369.318 130.463L368.985 133.03ZM366.882 130.146C366.945 129.665 366.923 129.221 366.817 128.814C366.718 128.401 366.546 128.038 366.301 127.727C366.062 127.41 365.756 127.151 365.382 126.95C365.015 126.744 364.597 126.61 364.129 126.549L360.831 126.121C360.356 126.059 359.912 126.081 359.498 126.186C359.091 126.286 358.729 126.458 358.411 126.702C358.094 126.941 357.832 127.246 357.625 127.62C357.425 127.987 357.293 128.412 357.231 128.893L356.897 131.46C356.835 131.941 356.853 132.388 356.952 132.801C357.058 133.209 357.233 133.572 357.478 133.889C357.723 134.201 358.029 134.459 358.396 134.666C358.77 134.867 359.195 134.998 359.67 135.06L362.949 135.486C363.424 135.548 363.865 135.529 364.271 135.429C364.685 135.324 365.051 135.152 365.367 134.914C365.685 134.669 365.944 134.363 366.144 133.995C366.351 133.622 366.486 133.195 366.549 132.714L366.882 130.146Z" fill="#FDFAFF"/>
<path d="M382.029 136.773C381.999 137.004 381.939 137.244 381.85 137.493C381.766 137.743 381.652 137.988 381.506 138.23C381.361 138.465 381.183 138.686 380.972 138.894C380.767 139.102 380.525 139.281 380.245 139.428C379.973 139.571 379.664 139.674 379.319 139.737C378.974 139.8 378.593 139.805 378.174 139.75L373.779 139.179C373.548 139.149 373.308 139.093 373.058 139.009C372.809 138.92 372.564 138.802 372.323 138.657C372.087 138.512 371.866 138.337 371.657 138.132C371.45 137.921 371.271 137.679 371.123 137.405C370.981 137.126 370.879 136.814 370.816 136.47C370.753 136.118 370.749 135.734 370.803 135.315L372.231 124.324L374.667 124.64L373.24 135.631C373.201 135.931 373.263 136.184 373.427 136.39C373.592 136.589 373.815 136.707 374.096 136.743L378.49 137.314C378.796 137.354 379.046 137.294 379.238 137.135C379.436 136.976 379.555 136.75 379.593 136.457L380.021 133.158C380.061 132.852 380.001 132.603 379.842 132.411C379.683 132.212 379.461 132.095 379.173 132.057L374.779 131.486L375.095 129.05L379.49 129.621C379.721 129.651 379.961 129.711 380.21 129.8C380.459 129.884 380.702 129.998 380.937 130.143C381.178 130.288 381.403 130.467 381.611 130.678C381.819 130.883 381.994 131.125 382.136 131.403C382.278 131.676 382.381 131.985 382.444 132.33C382.507 132.675 382.512 133.056 382.457 133.475L382.029 136.773Z" fill="#FDFAFF"/>
<path d="M387.724 128.575L385.288 128.259L385.574 126.057L388.01 126.373L387.724 128.575ZM386.012 141.759C385.958 142.178 385.856 142.546 385.707 142.863C385.557 143.186 385.378 143.462 385.171 143.689C384.962 143.922 384.731 144.111 384.478 144.256C384.223 144.407 383.96 144.523 383.69 144.602C383.425 144.682 383.162 144.73 382.899 144.747C382.635 144.77 382.388 144.766 382.157 144.736L377.762 144.165L378.079 141.729L382.474 142.3C382.798 142.342 383.053 142.29 383.237 142.142C383.422 141.994 383.534 141.761 383.576 141.443L385.018 130.339L387.454 130.656L386.012 141.759Z" fill="#FDFAFF"/>
<path d="M400.259 135.73C400.215 136.067 400.108 136.425 399.938 136.803C399.769 137.175 399.528 137.512 399.216 137.814C398.911 138.111 398.528 138.344 398.068 138.513C397.614 138.683 397.081 138.728 396.468 138.649L392.074 138.078L392.374 135.763L396.769 136.334C397.1 136.377 397.369 136.31 397.576 136.134C397.784 135.951 397.908 135.71 397.947 135.41C397.988 135.092 397.917 134.829 397.735 134.621C397.558 134.413 397.326 134.291 397.039 134.254L392.645 133.683C392.313 133.64 392.044 133.71 391.836 133.893C391.629 134.069 391.506 134.307 391.467 134.607L391.025 138.008C390.983 138.333 391.05 138.599 391.226 138.806C391.409 139.014 391.65 139.138 391.95 139.176L396.326 139.745L396.024 142.069L391.63 141.498C391.292 141.454 390.934 141.347 390.556 141.177C390.184 141.008 389.847 140.771 389.544 140.465C389.247 140.153 389.014 139.77 388.845 139.316C388.676 138.856 388.631 138.32 388.711 137.708L389.155 134.288C389.199 133.95 389.305 133.596 389.474 133.224C389.644 132.846 389.882 132.508 390.187 132.211C390.499 131.909 390.883 131.673 391.337 131.503C391.797 131.334 392.333 131.289 392.945 131.369L397.34 131.94C397.677 131.983 398.032 132.09 398.404 132.259C398.782 132.429 399.119 132.669 399.415 132.981C399.718 133.287 399.954 133.67 400.123 134.13C400.293 134.584 400.338 135.118 400.259 135.73Z" fill="#FDFAFF"/>
<path d="M410.829 143.992L404.223 143.134C403.886 143.09 403.525 142.983 403.14 142.812C402.756 142.641 402.41 142.399 402.101 142.086C401.799 141.767 401.561 141.378 401.386 140.917C401.218 140.45 401.175 139.901 401.256 139.27L401.685 135.972C401.715 135.741 401.772 135.501 401.855 135.251C401.944 135.002 402.061 134.76 402.206 134.525C402.352 134.283 402.527 134.058 402.732 133.85C402.943 133.642 403.185 133.467 403.458 133.325C403.737 133.183 404.049 133.081 404.394 133.018C404.738 132.954 405.12 132.95 405.539 133.004L412.145 133.862L411.828 136.299L405.222 135.441C404.904 135.399 404.649 135.449 404.46 135.589C404.276 135.731 404.163 135.97 404.119 136.307L403.693 139.587C403.651 139.905 403.704 140.16 403.851 140.351C403.998 140.541 404.233 140.658 404.558 140.7L411.145 141.555L410.829 143.992Z" fill="#FDFAFF"/>
<path d="M423.054 137.757L418.8 137.204L417.8 144.897L415.336 144.577L416.335 136.884L413.168 136.473L413.485 134.036L416.652 134.448L417.081 131.14L419.546 131.46L419.116 134.768L423.37 135.32L423.054 137.757Z" fill="#FDFAFF"/>
<path d="M427.716 133.77L425.28 133.453L425.566 131.251L428.002 131.568L427.716 133.77ZM426.13 145.979L423.694 145.663L425.01 135.533L427.446 135.85L426.13 145.979Z" fill="#FDFAFF"/>
<path d="M441.876 137.724C441.49 138.544 441.059 139.346 440.582 140.129C440.106 140.912 439.578 141.65 438.999 142.343C438.427 143.031 437.802 143.658 437.125 144.225C436.455 144.786 435.731 145.254 434.951 145.629C434.179 145.999 433.354 146.263 432.476 146.422C431.605 146.576 430.679 146.589 429.698 146.461C429.529 146.44 429.374 146.388 429.232 146.306C429.091 146.224 428.97 146.122 428.872 146.002C428.774 145.875 428.703 145.735 428.659 145.583C428.616 145.425 428.606 145.262 428.628 145.093L429.789 136.154L432.225 136.471L431.235 144.088C431.829 144.166 432.414 144.111 432.991 143.926C433.574 143.741 434.136 143.471 434.678 143.116C435.22 142.754 435.732 142.332 436.214 141.848C436.703 141.365 437.146 140.864 437.544 140.344C437.942 139.818 438.289 139.297 438.585 138.783C438.886 138.27 439.122 137.805 439.29 137.388L441.876 137.724Z" fill="#FDFAFF"/>
<path d="M450.905 143.48L442.115 142.338L442.4 140.146L451.189 141.287L450.905 143.48Z" fill="#FDFAFF"/>
<path d="M464.707 150.99L455.918 149.848C455.693 149.819 455.453 149.762 455.197 149.678C454.948 149.589 454.703 149.471 454.462 149.325C454.226 149.18 454.004 149.005 453.796 148.801C453.588 148.589 453.41 148.347 453.262 148.074C453.12 147.795 453.018 147.483 452.954 147.138C452.892 146.787 452.888 146.402 452.942 145.984L453.799 139.387C453.828 139.162 453.885 138.925 453.968 138.675C454.058 138.42 454.176 138.175 454.321 137.94C454.466 137.698 454.645 137.474 454.856 137.266C455.067 137.059 455.309 136.884 455.582 136.741C455.861 136.593 456.173 136.488 456.518 136.424C456.863 136.361 457.245 136.357 457.663 136.411L466.453 137.553L466.136 139.989L457.347 138.847C457.028 138.806 456.774 138.859 456.583 139.005C456.393 139.152 456.276 139.391 456.233 139.722L455.379 146.3C455.338 146.612 455.391 146.867 455.537 147.064C455.69 147.255 455.922 147.371 456.235 147.412L465.024 148.553L464.707 150.99Z" fill="#FDFAFF"/>
</g>
<g filter="url(#filter1_dd_1206_2936)">
<rect width="1142" height="42" transform="translate(-355 617.57) rotate(-15)" fill="#4B4B4B"/>
<path d="M29.6611 541.791C29.7068 541.961 29.7188 542.128 29.697 542.29C29.6753 542.452 29.6244 542.603 29.5442 542.742C29.4685 542.873 29.3658 542.988 29.236 543.088C29.1063 543.188 28.9563 543.261 28.7859 543.307L20.2249 545.601C20.0058 545.659 19.762 545.699 19.4934 545.718C19.2292 545.731 18.9578 545.715 18.679 545.673C18.4062 545.628 18.1345 545.551 17.8637 545.441C17.5913 545.325 17.3342 545.169 17.0926 544.973C16.8554 544.769 16.6418 544.52 16.452 544.225C16.2605 543.924 16.1101 543.57 16.0009 543.162L14.2792 536.737C14.2206 536.518 14.1821 536.277 14.164 536.014C14.1502 535.744 14.1655 535.473 14.2098 535.2C14.2525 534.921 14.3319 534.645 14.4481 534.373C14.5642 534.101 14.7211 533.847 14.9189 533.611C15.121 533.368 15.3695 533.151 15.6643 532.961C15.9591 532.772 16.3103 532.622 16.7179 532.513L26.3651 529.928L27.0009 532.301L17.3538 534.886C17.0435 534.969 16.8282 535.115 16.7079 535.323C16.5876 535.531 16.5707 535.797 16.6571 536.119L18.3739 542.526C18.4554 542.83 18.6011 543.046 18.8111 543.172C19.0255 543.291 19.2848 543.309 19.589 543.228L26.9727 541.249L26.1754 538.274L19.8596 539.966L19.2189 537.575L26.7121 535.567C26.8824 535.522 27.0496 535.513 27.2136 535.54C27.3759 535.562 27.5235 535.614 27.6562 535.696C27.7951 535.776 27.9145 535.881 28.0145 536.011C28.1129 536.134 28.184 536.278 28.2281 536.442L29.6611 541.791Z" fill="#FDFAFF"/>
<path d="M42.0308 536.187C42.1401 536.595 42.187 536.977 42.1716 537.333C42.1546 537.683 42.0943 538.006 41.9908 538.301C41.8856 538.59 41.7441 538.853 41.5663 539.09C41.3868 539.321 41.187 539.524 40.9669 539.701C40.7528 539.875 40.5254 540.024 40.2845 540.148C40.0481 540.263 39.8173 540.351 39.5921 540.411L35.3116 541.558C34.9831 541.646 34.6086 541.685 34.1882 541.673C33.7678 541.662 33.3552 541.571 32.9505 541.399C32.5502 541.219 32.1812 540.949 31.8436 540.59C31.5104 540.223 31.2615 539.732 31.0968 539.117L30.236 535.904C30.0729 535.296 30.0447 534.752 30.1512 534.274C30.2623 533.788 30.447 533.37 30.7054 533.02C30.9684 532.663 31.279 532.374 31.6375 532.154C31.9959 531.934 32.3394 531.78 32.668 531.692L36.9485 530.545C37.557 530.382 38.1035 530.353 38.5881 530.458C39.0727 530.563 39.4907 530.748 39.842 531.012C40.1917 531.271 40.4765 531.579 40.6965 531.937C40.9225 532.294 41.0803 532.64 41.17 532.975L42.0308 536.187ZM38.8019 533.629C38.7139 533.3 38.5665 533.079 38.3598 532.965C38.1532 532.85 37.8947 532.835 37.5844 532.918L33.3221 534.06C33.0057 534.145 32.7874 534.291 32.6671 534.5C32.5452 534.702 32.5258 534.958 32.609 535.269L33.4698 538.481C33.553 538.792 33.6987 539.007 33.907 539.127C34.1153 539.247 34.3776 539.265 34.694 539.18L38.9563 538.038C39.2788 537.952 39.4971 537.805 39.6113 537.599C39.7255 537.392 39.741 537.133 39.6578 536.823L38.8019 533.629Z" fill="#FDFAFF"/>
<path d="M75.2385 531.244L66.6775 533.538C66.4584 533.597 66.2146 533.636 65.946 533.656C65.6819 533.668 65.4104 533.653 65.1316 533.61C64.8589 533.566 64.5871 533.489 64.3163 533.379C64.0439 533.262 63.7869 533.106 63.5452 532.91C63.308 532.706 63.0945 532.457 62.9046 532.162C62.7131 531.861 62.5628 531.507 62.4535 531.1L60.7319 524.674C60.6732 524.455 60.6348 524.214 60.6166 523.952C60.6029 523.682 60.6182 523.41 60.6625 523.137C60.7052 522.859 60.7846 522.583 60.9007 522.311C61.0168 522.038 61.1738 521.784 61.3715 521.549C61.5737 521.305 61.8222 521.089 62.1169 520.899C62.4117 520.709 62.7629 520.559 63.1706 520.45L71.7316 518.156L72.3675 520.529L63.8064 522.823C63.4961 522.906 63.2808 523.052 63.1605 523.26C63.0403 523.469 63.0234 523.734 63.1098 524.057L64.8265 530.464C64.9081 530.768 65.0538 530.983 65.2637 531.11C65.4781 531.228 65.7374 531.247 66.0416 531.165L74.6027 528.871L75.2385 531.244Z" fill="#FDFAFF"/>
<path d="M75.7338 520.899L77.696 520.373L77.5644 517.18L79.7822 516.586L79.923 519.776L82.2047 519.165L82.064 515.975L84.2909 515.378L84.4226 518.571L86.5218 518.008L86.617 520.262L84.5269 520.822L84.6399 523.179L86.657 522.638L86.7613 524.89L84.7442 525.43L84.8857 528.659L82.6587 529.256L82.5173 526.027L80.2356 526.638L80.377 529.867L78.1591 530.462L78.0086 527.235L75.9368 527.79L75.8689 525.529L77.9042 524.984L77.8004 522.625L75.8016 523.16L75.7338 520.899ZM80.1312 524.387L82.4129 523.775L82.3 521.419L80.0182 522.03L80.1312 524.387Z" fill="#FDFAFF"/>
<path d="M123.292 506.126L124.388 518.979C124.405 519.235 124.351 519.475 124.228 519.697C124.105 519.919 123.929 520.087 123.698 520.201C123.46 520.31 123.215 520.346 122.964 520.309C122.719 520.271 122.505 520.165 122.322 519.992L116.065 514.019L113.624 522.323C113.568 522.527 113.461 522.702 113.305 522.849C113.155 522.993 112.976 523.093 112.769 523.149C112.483 523.225 112.206 523.202 111.938 523.078C111.67 522.954 111.473 522.753 111.346 522.474L105.85 510.799L108.26 510.153L112.146 518.376L114.288 511.404C114.344 511.2 114.448 511.026 114.598 510.881C114.754 510.735 114.936 510.634 115.143 510.578C115.35 510.523 115.555 510.52 115.757 510.57C115.96 510.62 116.142 510.718 116.305 510.864L121.628 515.835L120.882 506.771L123.292 506.126Z" fill="#FDFAFF"/>
<path d="M139.745 507.586C139.891 508.128 139.953 508.629 139.934 509.091C139.914 509.553 139.832 509.979 139.689 510.37C139.55 510.752 139.363 511.099 139.127 511.41C138.891 511.721 138.628 511.994 138.338 512.228C138.055 512.461 137.755 512.655 137.438 512.812C137.128 512.967 136.826 513.083 136.534 513.162L131.168 514.6L130.532 512.227L135.898 510.789C136.196 510.683 136.454 510.548 136.671 510.386C136.893 510.216 137.069 510.022 137.2 509.804C137.331 509.586 137.413 509.346 137.447 509.082C137.479 508.813 137.454 508.526 137.373 508.222L137.084 507.145C136.974 506.855 136.836 506.598 136.672 506.375C136.508 506.151 136.317 505.974 136.099 505.844C135.888 505.711 135.65 505.628 135.387 505.594C135.122 505.554 134.834 505.576 134.524 505.659L129.176 507.092C128.859 507.177 128.641 507.324 128.521 507.532C128.4 507.74 128.382 508 128.465 508.31L131.079 518.067L128.706 518.702L126.092 508.946C125.929 508.337 125.9 507.791 126.005 507.306C126.116 506.82 126.301 506.402 126.559 506.052C126.824 505.701 127.135 505.415 127.493 505.195C127.85 504.969 128.193 504.812 128.522 504.724L133.888 503.286C134.424 503.143 134.923 503.084 135.386 503.11C135.848 503.129 136.271 503.212 136.656 503.357C137.045 503.494 137.392 503.681 137.697 503.919C138.008 504.155 138.28 504.418 138.514 504.707C138.753 504.989 138.95 505.288 139.107 505.605C139.262 505.916 139.379 506.217 139.457 506.509L139.745 507.586Z" fill="#FDFAFF"/>
<path d="M174.4 501.007C174.478 501.299 174.51 501.626 174.496 501.989C174.489 502.349 174.408 502.704 174.253 503.052C174.104 503.398 173.874 503.717 173.561 504.01C173.246 504.296 172.824 504.51 172.295 504.652L163.287 507.066C163.116 507.112 162.95 507.124 162.788 507.102C162.625 507.08 162.476 507.032 162.338 506.958C162.206 506.876 162.089 506.771 161.989 506.641C161.889 506.511 161.816 506.361 161.771 506.191L158.905 495.494C158.861 495.33 158.849 495.166 158.871 495.004C158.893 494.842 158.941 494.692 159.015 494.555C159.095 494.416 159.2 494.297 159.33 494.197C159.459 494.097 159.609 494.024 159.78 493.978L167.72 491.85C168.012 491.772 168.34 491.74 168.702 491.754C169.064 491.768 169.419 491.852 169.767 492.006C170.12 492.153 170.439 492.384 170.726 492.698C171.018 493.011 171.235 493.432 171.377 493.962L171.497 494.409C171.609 494.829 171.661 495.301 171.651 495.825C171.64 496.343 171.537 496.86 171.343 497.375C171.655 497.468 171.957 497.599 172.25 497.768C172.55 497.936 172.828 498.148 173.086 498.405C173.344 498.662 173.576 498.968 173.782 499.324C173.988 499.679 174.153 500.088 174.277 500.551L174.4 501.007ZM171.904 501.186C171.821 500.876 171.698 500.612 171.536 500.395C171.372 500.172 171.178 499.995 170.954 499.866C170.73 499.737 170.481 499.66 170.207 499.636C169.932 499.605 169.639 499.632 169.329 499.715L163.98 501.148L163.34 498.757L167.62 497.61C167.93 497.527 168.198 497.406 168.423 497.248C168.646 497.084 168.823 496.89 168.952 496.666C169.081 496.442 169.159 496.196 169.185 495.929C169.215 495.653 169.189 495.36 169.106 495.05L168.986 494.603C168.895 494.262 168.685 494.135 168.356 494.223L161.593 496.036L163.828 504.378L171.659 502.279C171.702 502.268 171.753 502.251 171.812 502.229C171.871 502.206 171.921 502.173 171.961 502.13C172.002 502.086 172.031 502.023 172.048 501.94C172.065 501.858 172.056 501.752 172.022 501.625L171.904 501.186Z" fill="#FDFAFF"/>
<path d="M176.2 490.86L173.827 491.496L173.252 489.351L175.625 488.715L176.2 490.86ZM179.387 502.752L177.014 503.388L174.37 493.522L176.743 492.886L179.387 502.752Z" fill="#FDFAFF"/>
<path d="M188.632 492.244L184.489 493.354L186.496 500.847L184.096 501.49L182.088 493.997L179.003 494.824L178.368 492.451L181.452 491.624L180.589 488.402L182.99 487.759L183.853 490.981L187.996 489.871L188.632 492.244Z" fill="#FDFAFF"/>
<path d="M198.772 489.527L193.433 490.957C193.111 491.044 192.889 491.191 192.769 491.399C192.647 491.602 192.628 491.858 192.711 492.168L194.464 498.712L192.091 499.348L190.338 492.804C190.229 492.396 190.182 492.017 190.2 491.667C190.217 491.317 190.278 490.997 190.383 490.708C190.492 490.412 190.637 490.148 190.816 489.917C190.994 489.68 191.19 489.475 191.404 489.3C191.624 489.123 191.853 488.978 192.089 488.862C192.33 488.739 192.56 488.648 192.779 488.589L198.136 487.154L198.772 489.527Z" fill="#FDFAFF"/>
<path d="M201.573 484.061L199.2 484.697L198.625 482.552L200.998 481.916L201.573 484.061ZM204.759 495.954L202.386 496.589L199.743 486.723L202.116 486.087L204.759 495.954Z" fill="#FDFAFF"/>
<path d="M215.669 482.456L212.654 488.252L218.851 492.178L215.584 493.053L211.504 490.458L209.268 494.745L205.992 495.623L209.382 489.11L203.896 485.61L207.145 484.74L210.53 486.895L212.402 483.331L215.669 482.456Z" fill="#FDFAFF"/>
<path d="M250.531 479.044L243.028 481.054L242.388 478.663L249.89 476.652L250.531 479.044ZM250.151 473.393L240.641 475.942L243.512 486.657L241.139 487.293L237.953 475.4C237.909 475.236 237.897 475.073 237.919 474.91C237.941 474.748 237.989 474.598 238.063 474.461C238.143 474.322 238.248 474.203 238.378 474.103C238.507 474.003 238.657 473.93 238.828 473.884L249.515 471.02L250.151 473.393Z" fill="#FDFAFF"/>
<path d="M259.01 482.504L257.951 482.788C257.61 482.879 257.23 482.919 256.809 482.908C256.395 482.895 255.985 482.803 255.581 482.631C255.174 482.453 254.805 482.183 254.474 481.822C254.141 481.455 253.892 480.964 253.727 480.349L250.858 469.643L253.231 469.007L256.1 479.713C256.178 480.005 256.332 480.215 256.562 480.343C256.79 480.464 257.041 480.488 257.315 480.415L258.374 480.131L259.01 482.504Z" fill="#FDFAFF"/>
<path d="M270.855 478.049C270.901 478.219 270.913 478.385 270.891 478.548C270.87 478.71 270.819 478.861 270.738 478.999C270.663 479.131 270.56 479.246 270.43 479.346C270.307 479.444 270.163 479.516 269.998 479.56L264.632 480.998C264.34 481.076 264.017 481.126 263.665 481.149C263.318 481.17 262.964 481.151 262.603 481.091C262.239 481.026 261.876 480.921 261.511 480.777C261.151 480.626 260.815 480.419 260.503 480.157C260.19 479.889 259.907 479.561 259.653 479.172C259.405 478.782 259.209 478.319 259.065 477.784L257.598 472.308L259.971 471.672L261.438 477.148C261.522 477.458 261.648 477.724 261.819 477.946C261.993 478.16 262.196 478.331 262.425 478.459C262.655 478.586 262.905 478.666 263.174 478.698C263.448 478.723 263.728 478.696 264.014 478.62L268.167 477.507L266.159 470.014L268.532 469.378L270.855 478.049Z" fill="#FDFAFF"/>
<path d="M280.367 468.75L276.223 469.861L278.231 477.354L275.83 477.997L273.823 470.504L270.738 471.33L270.102 468.957L273.187 468.131L272.324 464.909L274.724 464.266L275.587 467.488L279.731 466.377L280.367 468.75Z" fill="#FDFAFF"/>
<path d="M290.899 465.928L286.756 467.038L288.763 474.532L286.363 475.175L284.355 467.682L281.27 468.508L280.634 466.135L283.719 465.309L282.856 462.087L285.256 461.444L286.12 464.665L290.263 463.555L290.899 465.928Z" fill="#FDFAFF"/>
<path d="M303.278 463.57C303.366 463.899 303.403 464.27 303.39 464.684C303.376 465.093 303.282 465.496 303.108 465.895C302.939 466.286 302.674 466.647 302.313 466.978C301.958 467.308 301.482 467.553 300.886 467.713L296.605 468.86L296.001 466.606L300.282 465.459C300.604 465.372 300.827 465.208 300.952 464.966C301.074 464.718 301.097 464.448 301.018 464.156C300.935 463.846 300.77 463.629 300.522 463.506C300.28 463.382 300.019 463.357 299.739 463.432L295.458 464.579C295.136 464.666 294.913 464.833 294.79 465.081C294.666 465.323 294.643 465.59 294.721 465.882L295.609 469.195C295.694 469.512 295.857 469.732 296.099 469.856C296.347 469.979 296.617 470.001 296.91 469.923L301.172 468.781L301.778 471.044L297.498 472.191C297.169 472.279 296.798 472.317 296.383 472.304C295.975 472.289 295.573 472.198 295.176 472.031C294.783 471.856 294.422 471.591 294.092 471.235C293.76 470.874 293.515 470.396 293.355 469.799L292.462 466.468C292.374 466.139 292.337 465.771 292.352 465.363C292.365 464.949 292.456 464.546 292.625 464.155C292.799 463.756 293.063 463.392 293.418 463.062C293.779 462.731 294.258 462.485 294.854 462.325L299.135 461.178C299.463 461.09 299.832 461.053 300.24 461.068C300.654 461.081 301.058 461.175 301.45 461.35C301.847 461.518 302.212 461.782 302.543 462.143C302.873 462.498 303.118 462.974 303.278 463.57Z" fill="#FDFAFF"/>
<path d="M313.269 459.934L307.93 461.365C307.607 461.451 307.386 461.599 307.266 461.807C307.144 462.009 307.125 462.265 307.208 462.576L308.961 469.12L306.588 469.756L304.835 463.212C304.725 462.804 304.679 462.425 304.696 462.075C304.713 461.725 304.775 461.405 304.88 461.116C304.989 460.819 305.134 460.555 305.313 460.325C305.491 460.088 305.687 459.882 305.901 459.707C306.121 459.531 306.35 459.385 306.586 459.27C306.827 459.146 307.057 459.055 307.276 458.997L312.633 457.561L313.269 459.934Z" fill="#FDFAFF"/>
<path d="M348.621 453.659C348.747 454.128 348.799 454.567 348.779 454.977C348.763 455.379 348.696 455.749 348.577 456.087C348.459 456.425 348.296 456.73 348.089 457.001C347.881 457.271 347.654 457.508 347.408 457.711C347.163 457.914 346.902 458.085 346.626 458.224C346.357 458.361 346.094 458.464 345.838 458.533L336.684 460.986L336.048 458.613L345.203 456.16C345.659 456.038 345.976 455.809 346.154 455.475C346.337 455.138 346.369 454.745 346.248 454.295C346.19 454.076 346.102 453.884 345.987 453.719C345.871 453.555 345.731 453.423 345.567 453.323C345.41 453.222 345.23 453.159 345.028 453.135C344.832 453.109 344.624 453.126 344.405 453.184L338.947 454.647C338.564 454.75 338.132 454.794 337.652 454.779C337.171 454.758 336.697 454.647 336.233 454.445C335.774 454.242 335.351 453.928 334.963 453.504C334.581 453.078 334.295 452.509 334.105 451.797C333.914 451.085 333.878 450.452 333.997 449.899C334.121 449.337 334.33 448.854 334.626 448.449C334.926 448.036 335.28 447.703 335.689 447.45C336.095 447.191 336.49 447.01 336.874 446.907L344.951 444.743L345.587 447.116L337.509 449.28C337.059 449.401 336.743 449.632 336.561 449.975C336.385 450.315 336.357 450.711 336.478 451.161C336.6 451.617 336.822 451.946 337.143 452.147C337.468 452.34 337.856 452.376 338.307 452.256L343.783 450.788C344.04 450.726 344.321 450.69 344.624 450.68C344.927 450.664 345.236 450.686 345.552 450.745C345.873 450.802 346.19 450.9 346.501 451.038C346.81 451.171 347.1 451.354 347.372 451.587C347.649 451.82 347.895 452.106 348.111 452.446C348.326 452.786 348.496 453.191 348.621 453.659Z" fill="#FDFAFF"/>
<path d="M364.962 442.834C364.812 443.781 364.627 444.724 364.41 445.662C364.19 446.595 363.938 447.491 363.653 448.35C363.374 449.207 363.068 450.013 362.735 450.767C362.401 451.516 362.048 452.181 361.675 452.763C361.308 453.338 360.924 453.816 360.524 454.197C360.128 454.57 359.723 454.812 359.31 454.923C359.139 454.969 358.973 454.981 358.811 454.959C358.648 454.937 358.499 454.889 358.361 454.815C358.222 454.735 358.103 454.63 358.003 454.501C357.903 454.371 357.83 454.221 357.785 454.05L356.599 449.624L353.3 456.152C353.211 456.306 353.102 456.433 352.972 456.533C352.847 456.626 352.708 456.692 352.556 456.733C352.392 456.777 352.228 456.788 352.066 456.766C351.91 456.743 351.763 456.694 351.626 456.62C351.487 456.54 351.364 456.436 351.258 456.308C351.158 456.178 351.085 456.028 351.04 455.858L348.717 447.187L351.09 446.551L352.596 452.173L355.908 445.622C356.032 445.406 356.205 445.246 356.425 445.141C356.649 445.029 356.887 444.991 357.138 445.028C357.387 445.059 357.603 445.158 357.784 445.325C357.971 445.484 358.095 445.682 358.159 445.919L359.67 451.559C360.049 450.93 360.372 450.285 360.639 449.627C360.906 448.968 361.139 448.303 361.337 447.63C361.539 446.95 361.716 446.27 361.866 445.591C362.021 444.903 362.168 444.222 362.307 443.546L364.962 442.834Z" fill="#FDFAFF"/>
<path d="M367.65 439.942L365.277 440.578L364.703 438.433L367.076 437.797L367.65 439.942ZM370.837 451.834L368.464 452.47L365.82 442.604L368.193 441.968L370.837 451.834Z" fill="#FDFAFF"/>
<path d="M379.845 441.389L374.479 442.827L373.843 440.454L379.21 439.016L379.845 441.389ZM378.698 437.109L373.35 438.542C373.028 438.628 372.806 438.776 372.686 438.984C372.564 439.186 372.545 439.443 372.628 439.753L375.528 450.577L373.155 451.213L370.255 440.389C370.146 439.981 370.099 439.602 370.116 439.252C370.134 438.902 370.195 438.582 370.3 438.293C370.409 437.996 370.554 437.733 370.733 437.502C370.911 437.265 371.107 437.059 371.321 436.885C371.541 436.708 371.77 436.562 372.006 436.447C372.241 436.325 372.471 436.234 372.696 436.174L378.063 434.736L378.698 437.109Z" fill="#FDFAFF"/>
<path d="M390.378 438.567L386.234 439.678L388.242 447.171L385.842 447.814L383.834 440.321L380.749 441.147L380.113 438.774L383.198 437.948L382.335 434.726L384.735 434.083L385.598 437.305L389.742 436.194L390.378 438.567Z" fill="#FDFAFF"/>
</g>
<defs>
<filter id="filter0_dd_1206_2936" x="-439" y="0" width="1161.9" height="212.742" filterUnits="userSpaceOnUse" color-interpolation-filters="sRGB">
<feFlood flood-opacity="0" result="BackgroundImageFix"/>
<feColorMatrix in="SourceAlpha" type="matrix" values="0 0 0 0 0 0 0 0 0 0 0 0 0 0 0 0 0 0 127 0" result="hardAlpha"/>
<feOffset dx="-0.5" dy="-0.2"/>
<feGaussianBlur stdDeviation="2"/>
<feComposite in2="hardAlpha" operator="out"/>
<feColorMatrix type="matrix" values="0 0 0 0 0 0 0 0 0 0 0 0 0 0 0 0 0 0 0.25 0"/>
<feBlend mode="normal" in2="BackgroundImageFix" result="effect1_dropShadow_1206_2936"/>
<feColorMatrix in="SourceAlpha" type="matrix" values="0 0 0 0 0 0 0 0 0 0 0 0 0 0 0 0 0 0 127 0" result="hardAlpha"/>
<feOffset dx="2" dy="4"/>
<feGaussianBlur stdDeviation="6"/>
<feComposite in2="hardAlpha" operator="out"/>
<feColorMatrix type="matrix" values="0 0 0 0 0 0 0 0 0 0 0 0 0 0 0 0 0 0 0.15 0"/>
<feBlend mode="normal" in2="effect1_dropShadow_1206_2936" result="effect2_dropShadow_1206_2936"/>
<feBlend mode="normal" in="SourceGraphic" in2="effect2_dropShadow_1206_2936" result="shape"/>
</filter>
<filter id="filter1_dd_1206_2936" x="-365" y="314" width="1137.96" height="360.141" filterUnits="userSpaceOnUse" color-interpolation-filters="sRGB">
<feFlood flood-opacity="0" result="BackgroundImageFix"/>
<feColorMatrix in="SourceAlpha" type="matrix" values="0 0 0 0 0 0 0 0 0 0 0 0 0 0 0 0 0 0 127 0" result="hardAlpha"/>
<feOffset dx="-0.5" dy="-0.2"/>
<feGaussianBlur stdDeviation="2"/>
<feComposite in2="hardAlpha" operator="out"/>
<feColorMatrix type="matrix" values="0 0 0 0 0 0 0 0 0 0 0 0 0 0 0 0 0 0 0.25 0"/>
<feBlend mode="normal" in2="BackgroundImageFix" result="effect1_dropShadow_1206_2936"/>
<feColorMatrix in="SourceAlpha" type="matrix" values="0 0 0 0 0 0 0 0 0 0 0 0 0 0 0 0 0 0 127 0" result="hardAlpha"/>
<feOffset dx="2" dy="4"/>
<feGaussianBlur stdDeviation="6"/>
<feComposite in2="hardAlpha" operator="out"/>
<feColorMatrix type="matrix" values="0 0 0 0 0 0 0 0 0 0 0 0 0 0 0 0 0 0 0.15 0"/>
<feBlend mode="normal" in2="effect1_dropShadow_1206_2936" result="effect2_dropShadow_1206_2936"/>
<feBlend mode="normal" in="SourceGraphic" in2="effect2_dropShadow_1206_2936" result="shape"/>
</filter>
</defs>
</svg>
