<svg width="37" height="74" viewBox="0 0 37 74" fill="none" xmlns="http://www.w3.org/2000/svg">
<path d="M18.8054 74.0003V19.1479L0 26.194V17.0073L25.1033 8.2666H28.9789V74.0003H18.8054Z" fill="url(#paint0_radial_1250_73299)"/>
<g filter="url(#filter0_b_1250_73299)">
<path d="M24.9773 66.7616V11.9091L6.17188 18.9552V9.76855L31.2752 1.02783H35.1508V66.7616H24.9773Z" fill="url(#paint1_linear_1250_73299)" fill-opacity="0.4"/>
<path d="M24.4773 66.7616V67.2616H24.9773H35.1508H35.6508V66.7616V1.02783V0.527832H35.1508H31.2752H31.1906L31.1108 0.555637L6.00746 9.29635L5.67188 9.4132V9.76855V18.9552V19.6765L6.34731 19.4234L24.4773 12.6304V66.7616Z" stroke="#FAFAFA" stroke-opacity="0.05"/>
</g>
<defs>
<filter id="filter0_b_1250_73299" x="-24.8281" y="-29.9722" width="90.9805" height="127.734" filterUnits="userSpaceOnUse" color-interpolation-filters="sRGB">
<feFlood flood-opacity="0" result="BackgroundImageFix"/>
<feGaussianBlur in="BackgroundImageFix" stdDeviation="15"/>
<feComposite in2="SourceAlpha" operator="in" result="effect1_backgroundBlur_1250_73299"/>
<feBlend mode="normal" in="SourceGraphic" in2="effect1_backgroundBlur_1250_73299" result="shape"/>
</filter>
<radialGradient id="paint0_radial_1250_73299" cx="0" cy="0" r="1" gradientUnits="userSpaceOnUse" gradientTransform="translate(14.4894 41.1335) rotate(94.3219) scale(41.2007 18.5911)">
<stop offset="0.338542" stop-color="#7A73FF"/>
<stop offset="0.734375" stop-color="#75CDFF"/>
<stop offset="1" stop-color="#4AFCF1"/>
</radialGradient>
<linearGradient id="paint1_linear_1250_73299" x1="20.6743" y1="66.7411" x2="20.6743" y2="1.01828" gradientUnits="userSpaceOnUse">
<stop stop-color="#209DB7"/>
<stop offset="1" stop-color="#F2F8FF"/>
</linearGradient>
</defs>
</svg>
