<svg width="58" height="75" viewBox="0 0 58 75" fill="none" xmlns="http://www.w3.org/2000/svg">
<path d="M0.544741 75.0001V68.2093L26.8526 42.4946C29.7161 39.6575 32.0874 36.9261 33.9665 34.3003C35.8456 31.6443 36.7852 28.9279 36.7852 26.1512C36.7852 23.1633 35.6965 20.7035 33.5191 18.7718C31.3715 16.81 28.2993 15.8291 24.3024 15.8291C20.1862 15.8291 16.8604 16.9308 14.3251 19.134C11.8195 21.3071 10.5668 24.4007 10.5668 28.4149V29.2298H0.5V28.2338C0.5 22.288 2.67741 17.3986 7.03223 13.5655C11.4169 9.73245 17.1885 7.81592 24.3471 7.81592C31.3864 7.81592 36.9045 9.53627 40.9014 12.977C44.9281 16.4177 46.9415 20.628 46.9415 25.608C46.9415 29.9541 45.7036 33.8324 43.2279 37.243C40.7523 40.6535 37.5905 44.23 33.7428 47.9725L14.2356 66.8964H48.7759V75.0001H0.544741Z" fill="url(#paint0_radial_1250_73306)"/>
<g filter="url(#filter0_b_1250_73306)">
<path d="M8.2674 68.1842V61.3934L34.5753 35.6786C37.4387 32.8416 39.81 30.1101 41.6891 27.4843C43.5683 24.8284 44.5079 22.112 44.5079 19.3353C44.5079 16.3473 43.4191 13.8875 41.2417 11.9559C39.0942 9.99411 36.0219 9.01321 32.025 9.01321C27.9088 9.01321 24.5831 10.1148 22.0477 12.3181C19.5422 14.4912 18.2894 17.5848 18.2894 21.5989V22.4138H8.22266V21.4178C8.22266 15.4721 10.4001 10.5827 14.7549 6.74959C19.1395 2.91653 24.9112 1 32.0698 1C39.1091 1 44.6272 2.72035 48.6241 6.16105C52.6508 9.60175 54.6641 13.8121 54.6641 18.792C54.6641 23.1382 53.4263 27.0165 50.9506 30.427C48.4749 33.8376 45.3132 37.4141 41.4654 41.1566L21.9582 60.0805H56.4985V68.1842H8.2674Z" fill="url(#paint1_linear_1250_73306)" fill-opacity="0.4"/>
<path d="M7.7674 68.1842V68.6842H8.2674H56.4985H56.9985V68.1842V60.0805V59.5805H56.4985H23.1917L41.8136 41.5155L41.8141 41.515C45.677 37.7577 48.8589 34.1597 51.3552 30.7208C53.8949 27.222 55.1641 23.2402 55.1641 18.792C55.1641 13.6558 53.0788 9.31004 48.9493 5.78128C44.8352 2.24015 39.1877 0.5 32.0698 0.5C24.819 0.5 18.9212 2.44328 14.4258 6.37315L14.4245 6.37427C9.95884 10.3049 7.72266 15.3325 7.72266 21.4178V22.4138V22.9138H8.22266H18.2894H18.7894V22.4138V21.5989C18.7894 17.6964 20.0022 14.7541 22.3753 12.6958L22.3757 12.6955C24.8008 10.5881 28.0011 9.51321 32.025 9.51321C35.9442 9.51321 38.8787 10.4746 40.9045 12.3251L40.9045 12.3251L40.9099 12.3299C42.9772 14.1638 44.0079 16.486 44.0079 19.3353C44.0079 21.9913 43.1112 24.6083 41.2818 27.1944C39.4229 29.7918 37.0718 32.5012 34.2246 35.3222C34.2242 35.3227 34.2238 35.3231 34.2234 35.3235L7.9179 61.0358L7.7674 61.1829V61.3934V68.1842Z" stroke="#FAFAFA" stroke-opacity="0.05"/>
</g>
<defs>
<filter id="filter0_b_1250_73306" x="-22.7773" y="-30" width="110.277" height="129.184" filterUnits="userSpaceOnUse" color-interpolation-filters="sRGB">
<feFlood flood-opacity="0" result="BackgroundImageFix"/>
<feGaussianBlur in="BackgroundImageFix" stdDeviation="15"/>
<feComposite in2="SourceAlpha" operator="in" result="effect1_backgroundBlur_1250_73306"/>
<feBlend mode="normal" in="SourceGraphic" in2="effect1_backgroundBlur_1250_73306" result="shape"/>
</filter>
<radialGradient id="paint0_radial_1250_73306" cx="0" cy="0" r="1" gradientUnits="userSpaceOnUse" gradientTransform="translate(24.6379 41.408) rotate(97.0224) scale(42.3075 30.8261)">
<stop offset="0.338542" stop-color="#7A73FF"/>
<stop offset="0.734375" stop-color="#75CDFF"/>
<stop offset="1" stop-color="#4AFCF1"/>
</radialGradient>
<linearGradient id="paint1_linear_1250_73306" x1="32.3822" y1="68.1633" x2="32.3822" y2="0.990235" gradientUnits="userSpaceOnUse">
<stop stop-color="#209DB7"/>
<stop offset="1" stop-color="#F2F8FF"/>
</linearGradient>
</defs>
</svg>
