<svg width="53" height="75" viewBox="0 0 53 75" fill="none" xmlns="http://www.w3.org/2000/svg">
<path d="M0 57.1164V56.2996H9.34375V57.0734C9.34375 60.4266 10.5699 63.006 13.0221 64.8115C15.4743 66.6171 18.758 67.5198 22.8732 67.5198C26.9884 67.5198 30.258 66.6171 32.682 64.8115C35.106 62.9773 36.318 60.1113 36.318 56.2136C36.318 52.4019 34.951 49.5503 32.2169 47.6587C29.4828 45.7672 25.7763 44.8214 21.0974 44.8214H15.0937V37.6422H20.6746C24.818 37.6422 28.0876 36.7537 30.4835 34.9769C32.8793 33.2 34.0772 30.6063 34.0772 27.1958C34.0772 23.9572 33.0625 21.5498 31.0331 19.9735C29.0319 18.3686 26.2837 17.5661 22.7886 17.5661C19.2089 17.5661 16.348 18.3829 14.2059 20.0165C12.0919 21.6215 11.0349 23.9572 11.0349 27.0238V27.6686H1.69118V26.9808C1.69118 22.1087 3.63603 18.0677 7.52573 14.8578C11.4436 11.6193 16.5594 10 22.8732 10C29.2433 10 34.3027 11.5333 38.0515 14.5999C41.8002 17.6378 43.6746 21.5498 43.6746 26.336C43.6746 29.6032 42.7868 32.5121 41.011 35.0628C39.2353 37.6135 36.5576 39.5337 32.9779 40.8234V40.9954C36.8676 41.8552 40.0104 43.6177 42.4062 46.2831C44.8021 48.9484 46 52.3302 46 56.4286C46 62.1605 43.8719 66.6887 39.6158 70.0132C35.3879 73.3377 29.7929 75 22.8309 75C15.8407 75 10.288 73.3521 6.17279 70.0562C2.0576 66.7317 0 62.4184 0 57.1164Z" fill="url(#paint0_radial_1250_73314)"/>
<g filter="url(#filter0_b_1250_73314)">
<path d="M4 52.4656V51.5734H13.5469V52.4186C13.5469 56.0813 14.7996 58.8988 17.3051 60.871C19.8107 62.8433 23.1657 63.8294 27.3704 63.8294C31.5751 63.8294 34.9158 62.8433 37.3925 60.871C39.8692 58.8675 41.1075 55.737 41.1075 51.4795C41.1075 47.3159 39.7108 44.2011 36.9173 42.1349C34.1238 40.0688 30.3367 39.0357 25.5561 39.0357H19.4219V31.1938H25.1241C29.3575 31.1938 32.6982 30.2233 35.1461 28.2824C37.5941 26.3415 38.818 23.5084 38.818 19.7831C38.818 16.2456 37.7813 13.616 35.7077 11.8942C33.663 10.1411 30.8551 9.26455 27.284 9.26455C23.6265 9.26455 20.7034 10.1567 18.5147 11.9411C16.3548 13.6942 15.2748 16.2456 15.2748 19.5952V20.2996H5.72794V19.5483C5.72794 14.2264 7.71507 9.81239 11.6893 6.30622C15.6924 2.76874 20.9194 1 27.3704 1C33.879 1 39.0484 2.67482 42.8787 6.02447C46.709 9.34281 48.6241 13.616 48.6241 18.8439C48.6241 22.4127 47.7169 25.5902 45.9026 28.3763C44.0882 31.1625 41.3523 33.2599 37.6949 34.6686V34.8565C41.6691 35.7956 44.8802 37.7209 47.3281 40.6323C49.776 43.5436 51 47.2377 51 51.7143C51 57.9753 48.8257 62.9215 44.477 66.5529C40.1572 70.1843 34.4406 72 27.3272 72C20.1851 72 14.5116 70.2 10.307 66.5999C6.10233 62.9685 4 58.2571 4 52.4656Z" fill="url(#paint1_linear_1250_73314)" fill-opacity="0.4"/>
<path d="M4 51.0734H3.5V51.5734V52.4656C3.5 58.3953 5.66032 63.2474 9.98017 66.9783L9.98179 66.9797C14.3007 70.6776 20.1012 72.5 27.3272 72.5C34.5268 72.5 40.3673 70.6609 44.7987 66.9357C49.2732 63.1987 51.5 58.1053 51.5 51.7143C51.5 47.1418 50.2475 43.3274 47.7108 40.3105C45.4336 37.6021 42.5159 35.726 38.9747 34.6791C42.1714 33.2543 44.6293 31.2478 46.3216 28.6492C48.1927 25.7758 49.1241 22.5021 49.1241 18.8439C49.1241 13.4766 47.1502 9.06401 43.2071 5.64743C39.2626 2.19831 33.9649 0.5 27.3704 0.5C20.824 0.5 15.4708 2.29731 11.3582 5.93155C7.27609 9.53304 5.22794 14.0838 5.22794 19.5483V20.2996V20.7996H5.72794H15.2748H15.7748V20.2996V19.5952C15.7748 16.3622 16.8109 13.9679 18.8298 12.3294L18.8306 12.3287C20.9067 10.6362 23.7072 9.76455 27.284 9.76455C30.7751 9.76455 33.4542 10.6207 35.3823 12.2738L35.3822 12.2738L35.3883 12.2789C37.314 13.8779 38.318 16.3445 38.318 19.7831C38.318 23.3885 37.1403 26.0632 34.8355 27.8906C32.5028 29.7402 29.2846 30.6938 25.1241 30.6938H19.4219H18.9219V31.1938V39.0357V39.5357H19.4219H25.5561C30.2691 39.5357 33.9396 40.5545 36.62 42.5369C39.2599 44.4895 40.6075 47.439 40.6075 51.4795C40.6075 55.6394 39.4013 58.602 37.0795 60.4811C34.7167 62.3619 31.4982 63.3294 27.3704 63.3294C23.2421 63.3294 20.0072 62.3617 17.6144 60.4781C15.2482 58.6156 14.0469 55.9538 14.0469 52.4186V51.5734V51.0734H13.5469H4Z" stroke="#FAFAFA" stroke-opacity="0.05"/>
</g>
<defs>
<filter id="filter0_b_1250_73314" x="-27" y="-30" width="109" height="133" filterUnits="userSpaceOnUse" color-interpolation-filters="sRGB">
<feFlood flood-opacity="0" result="BackgroundImageFix"/>
<feGaussianBlur in="BackgroundImageFix" stdDeviation="15"/>
<feComposite in2="SourceAlpha" operator="in" result="effect1_backgroundBlur_1250_73314"/>
<feBlend mode="normal" in="SourceGraphic" in2="effect1_backgroundBlur_1250_73314" result="shape"/>
</filter>
<radialGradient id="paint0_radial_1250_73314" cx="0" cy="0" r="1" gradientUnits="userSpaceOnUse" gradientTransform="translate(23 42.5) rotate(96.9172) scale(40.9229 29.3795)">
<stop offset="0.338542" stop-color="#7A73FF"/>
<stop offset="0.734375" stop-color="#75CDFF"/>
<stop offset="1" stop-color="#4AFCF1"/>
</radialGradient>
<linearGradient id="paint1_linear_1250_73314" x1="27.521" y1="71.9779" x2="27.521" y2="0.98968" gradientUnits="userSpaceOnUse">
<stop stop-color="#209DB7"/>
<stop offset="1" stop-color="#F2F8FF"/>
</linearGradient>
</defs>
</svg>
