<svg width="58" height="74" viewBox="0 0 58 74" fill="none" xmlns="http://www.w3.org/2000/svg">
<path d="M32.7464 74V57.2225L32.8299 55.3915V25.0728H32.3704L11.818 52.283H34.8768L37.8427 52.1552H50.5V59.8626H1.5V53.3475L33.1641 12H41.7694V74H32.7464Z" fill="url(#paint0_radial_1250_73321)"/>
<g filter="url(#filter0_b_1250_73321)">
<path d="M38.3841 67V49.9519L38.4693 48.0913V17.2837H38.0004L17.0286 44.9327H40.558L43.5844 44.8029H56.5V52.6346H6.5V46.0144L38.8103 4H47.5912V67H38.3841Z" fill="url(#paint1_linear_1250_73321)" fill-opacity="0.4"/>
<path d="M37.8841 67V67.5H38.3841H47.5912H48.0912V67V53.1346H56.5H57V52.6346V44.8029V44.3029H56.5H48.0912V4V3.5H47.5912H38.8103H38.5641L38.414 3.69519L6.10365 45.7096L6 45.8444V46.0144V52.6346V53.1346H6.5H37.8841V67ZM37.9693 44.4327H18.0354L37.9693 18.152V44.4327Z" stroke="#FAFAFA" stroke-opacity="0.05"/>
</g>
<defs>
<filter id="filter0_b_1250_73321" x="-24.5" y="-27" width="112" height="125" filterUnits="userSpaceOnUse" color-interpolation-filters="sRGB">
<feFlood flood-opacity="0" result="BackgroundImageFix"/>
<feGaussianBlur in="BackgroundImageFix" stdDeviation="15"/>
<feComposite in2="SourceAlpha" operator="in" result="effect1_backgroundBlur_1250_73321"/>
<feBlend mode="normal" in="SourceGraphic" in2="effect1_backgroundBlur_1250_73321" result="shape"/>
</filter>
<radialGradient id="paint0_radial_1250_73321" cx="0" cy="0" r="1" gradientUnits="userSpaceOnUse" gradientTransform="translate(26 43) rotate(97.7157) scale(39.104 31.2396)">
<stop offset="0.338542" stop-color="#7A73FF"/>
<stop offset="0.734375" stop-color="#75CDFF"/>
<stop offset="1" stop-color="#4AFCF1"/>
</radialGradient>
<linearGradient id="paint1_linear_1250_73321" x1="31.5223" y1="66.9804" x2="31.5223" y2="3.99084" gradientUnits="userSpaceOnUse">
<stop stop-color="#209DB7"/>
<stop offset="1" stop-color="#F2F8FF"/>
</linearGradient>
</defs>
</svg>
