<svg width="56" height="74" viewBox="0 0 56 74" fill="none" xmlns="http://www.w3.org/2000/svg">
<path d="M0 56.2608V55.4724H9.75069V56.2608C9.75069 59.4728 11.0212 61.9695 13.5623 63.7507C16.133 65.5027 19.5457 66.3787 23.8006 66.3787C28.1145 66.3787 31.5568 65.1669 34.1274 62.7433C36.7276 60.3196 38.0277 56.8302 38.0277 52.2749C38.0277 47.7197 36.7128 44.3178 34.0831 42.0694C31.4829 39.821 28.1145 38.6968 23.9778 38.6968C20.9935 38.6968 18.4229 39.2224 16.2659 40.2736C14.1385 41.2956 12.2179 42.668 10.5042 44.3908L2.48199 41.062L5.89474 9H44.3213V17.2345L13.8283 17.1907L11.8781 35.1051C13.385 34.0831 15.3352 33.1487 17.7285 32.3019C20.1514 31.4551 22.8698 31.0317 25.8837 31.0317C32.1182 31.0317 37.3629 32.8567 41.6177 36.5067C45.8726 40.1276 48 45.3106 48 52.0559C48 58.8596 45.7839 64.2179 41.3518 68.1307C36.9197 72.0436 31.0693 74 23.8006 74C16.4728 74 10.6667 72.3502 6.38227 69.0505C2.12742 65.7217 0 61.4584 0 56.2608Z" fill="url(#paint0_radial_1250_73334)"/>
<g filter="url(#filter0_b_1250_73334)">
<path d="M6 49.6253V48.8976H15.5476V49.6253C15.5476 52.5903 16.7916 54.8949 19.2798 56.5391C21.7969 58.1563 25.1385 58.965 29.3047 58.965C33.5288 58.965 36.8994 57.8464 39.4164 55.6092C41.9624 53.372 43.2355 50.1509 43.2355 45.9461C43.2355 41.7412 41.948 38.6011 39.373 36.5256C36.827 34.4501 33.5288 33.4124 29.4783 33.4124C26.5562 33.4124 24.0391 33.8976 21.9271 34.8679C19.844 35.8113 17.9634 37.0782 16.2853 38.6685L8.43029 35.5957L11.7719 6H49.398V13.6011L19.5402 13.5606L17.6307 30.097C19.1062 29.1536 21.0157 28.2911 23.3592 27.5094C25.7316 26.7278 28.3934 26.3369 31.3444 26.3369C37.4491 26.3369 42.5845 28.0216 46.7507 31.3908C50.9169 34.7332 53 39.5175 53 45.7439C53 52.0243 50.8301 56.9703 46.4903 60.5822C42.1505 64.1941 36.422 66 29.3047 66C22.1296 66 16.4444 64.4771 12.2493 61.4313C8.0831 58.3585 6 54.4232 6 49.6253Z" fill="url(#paint1_linear_1250_73334)" fill-opacity="0.4"/>
<path d="M6 48.3976H5.5V48.8976V49.6253C5.5 54.596 7.67028 58.6753 11.9525 61.8337L11.9555 61.8359C16.2633 64.9635 22.0636 66.5 29.3047 66.5C36.5076 66.5 42.3591 64.6709 46.8102 60.9665C51.2778 57.2482 53.5 52.1539 53.5 45.7439C53.5 39.3944 51.3687 34.455 47.0643 31.0014C42.797 27.5507 37.5463 25.8369 31.3444 25.8369C28.3496 25.8369 25.6338 26.2335 23.2027 27.0345L23.201 27.0351C21.2682 27.6798 19.6135 28.3834 18.2434 29.1491L19.9857 14.0613L49.3973 14.1011L49.898 14.1018V13.6011V6V5.5H49.398H11.7719H11.3252L11.2751 5.9439L7.93344 35.5396L7.89034 35.9214L8.24813 36.0613L16.1032 39.1341L16.3988 39.2498L16.6293 39.0314C18.2673 37.479 20.1015 36.2436 22.1333 35.3234L22.1358 35.3223C24.1678 34.3887 26.6103 33.9124 29.4783 33.9124C33.4413 33.9124 36.6196 34.9262 39.0571 36.9132L39.0593 36.9149C41.4856 38.8706 42.7355 41.8478 42.7355 45.9461C42.7355 50.0446 41.4991 53.1135 39.0864 55.2336L39.0843 55.2354C36.6803 57.3721 33.4386 58.465 29.3047 58.465C25.1997 58.465 21.9632 57.6679 19.5528 56.1202C17.2055 54.568 16.0476 52.4202 16.0476 49.6253V48.8976V48.3976H15.5476H6Z" stroke="#FAFAFA" stroke-opacity="0.05"/>
</g>
<defs>
<filter id="filter0_b_1250_73334" x="-25" y="-25" width="109" height="122" filterUnits="userSpaceOnUse" color-interpolation-filters="sRGB">
<feFlood flood-opacity="0" result="BackgroundImageFix"/>
<feGaussianBlur in="BackgroundImageFix" stdDeviation="15"/>
<feComposite in2="SourceAlpha" operator="in" result="effect1_backgroundBlur_1250_73334"/>
<feBlend mode="normal" in="SourceGraphic" in2="effect1_backgroundBlur_1250_73334" result="shape"/>
</filter>
<radialGradient id="paint0_radial_1250_73334" cx="0" cy="0" r="1" gradientUnits="userSpaceOnUse" gradientTransform="translate(24 41.5) rotate(97.2149) scale(40.9492 30.6371)">
<stop offset="0.338542" stop-color="#7A73FF"/>
<stop offset="0.734375" stop-color="#75CDFF"/>
<stop offset="1" stop-color="#4AFCF1"/>
</radialGradient>
<linearGradient id="paint1_linear_1250_73334" x1="29.521" y1="65.9813" x2="29.521" y2="5.99128" gradientUnits="userSpaceOnUse">
<stop stop-color="#209DB7"/>
<stop offset="1" stop-color="#F2F8FF"/>
</linearGradient>
</defs>
</svg>
