<svg width="57" height="74" viewBox="0 0 57 74" fill="none" xmlns="http://www.w3.org/2000/svg">
<path d="M0.5 46.4138V44.9914C0.5 34.0144 3.82915 25.2787 10.4874 18.7845C17.1744 12.2615 26.674 9 38.9861 9H40.1915V16.7586H39.0291C30.0175 16.7586 22.9143 19.0144 17.7197 23.5259C12.5538 28.0086 9.97085 35.1638 9.97085 44.9914L10.1 46.8448C10.1 54.0287 11.4776 59.1006 14.2327 62.0603C17.0166 64.9914 20.6184 66.4569 25.0381 66.4569C29.4004 66.4569 32.787 65.2931 35.1978 62.9655C37.6085 60.6092 38.8139 57.1753 38.8139 52.6638C38.8139 48.296 37.6085 44.9483 35.1978 42.6207C32.8157 40.2931 29.4435 39.1293 25.0812 39.1293C21.0058 39.1293 17.4614 40.3218 14.448 42.7069C11.4632 45.0632 9.9565 48.3534 9.9278 52.5776L6.39776 52.4914C6.39776 46.3994 8.33498 41.4425 12.2094 37.6207C16.0839 33.7989 21.1924 31.8879 27.535 31.8879C33.9637 31.8879 39.0578 33.7845 42.8175 37.5776C46.6058 41.3707 48.5 46.3851 48.5 52.6207C48.5 58.9713 46.3332 64.1293 41.9995 68.0948C37.6946 72.0316 32.0408 74 25.0381 74C18.0928 74 12.2668 71.8305 7.56009 67.4914C2.85336 63.1236 0.5 56.0977 0.5 46.4138Z" fill="url(#paint0_radial_1250_73346)"/>
<g filter="url(#filter0_b_1250_73346)">
<path d="M6.5 40.2626V38.884C6.5 28.2447 9.75979 19.7779 16.2794 13.4834C22.8271 7.16114 32.1287 4 44.1843 4H45.3646V11.5199H44.2265C35.4025 11.5199 28.4474 13.7062 23.361 18.0789C18.3027 22.4237 15.7735 29.3588 15.7735 38.884L15.9 40.6804C15.9 47.6432 17.2489 52.559 19.9466 55.4277C22.6725 58.2686 26.1993 59.689 30.5269 59.689C34.7984 59.689 38.1143 58.561 40.4749 56.305C42.8354 54.0212 44.0157 50.693 44.0157 46.3203C44.0157 42.0869 42.8354 38.8422 40.4749 36.5862C38.1425 34.3302 34.8405 33.2023 30.5691 33.2023C26.5786 33.2023 23.1081 34.3581 20.1574 36.6698C17.2348 38.9536 15.7595 42.1426 15.7314 46.2367L12.2749 46.1532C12.2749 40.2487 14.1717 35.4443 17.9655 31.7401C21.7592 28.0358 26.7613 26.1837 32.9717 26.1837C39.2665 26.1837 44.2546 28.0219 47.9359 31.6983C51.6453 35.3747 53.5 40.2347 53.5 46.2785C53.5 52.4337 51.3783 57.433 47.135 61.2765C42.9197 65.0922 37.3837 67 30.5269 67C23.7263 67 18.0217 64.8972 13.413 60.6916C8.80433 56.4582 6.5 49.6485 6.5 40.2626Z" fill="url(#paint1_linear_1250_73346)" fill-opacity="0.4"/>
<path d="M45.8646 4V3.5H45.3646H44.1843C32.0424 3.5 22.6001 6.68528 15.9321 13.1237C9.29791 19.5288 6 28.1346 6 38.884V40.2626C6 49.7184 8.32077 56.693 13.0748 61.0599L13.076 61.061C17.7854 65.3585 23.6138 67.5 30.5269 67.5C37.4808 67.5 43.1452 65.5625 47.4705 61.6472L47.4706 61.6471C51.8271 57.7011 54 52.563 54 46.2785C54 40.1245 52.1072 35.1289 48.2885 31.3438C44.4944 27.5552 39.3689 25.6837 32.9717 25.6837C26.6548 25.6837 21.5192 27.5714 17.6162 31.3823C17.3135 31.6778 17.0227 31.9801 16.7437 32.2892C17.6798 26.21 20.0091 21.6171 23.6868 18.4582L23.6869 18.4581C28.6573 14.1852 35.4838 12.0199 44.2265 12.0199H45.3646H45.8646V11.5199V4ZM20.3091 55.0833C18.1202 52.7544 16.819 48.9484 16.4857 43.5748C17.0092 40.8865 18.3387 38.7255 20.4653 37.0637L20.4658 37.0634C23.3225 34.8252 26.6827 33.7023 30.5691 33.7023C34.7532 33.7023 37.9146 34.8055 40.1273 36.9456L40.1294 36.9477C42.3642 39.0835 43.5157 42.1809 43.5157 46.3203C43.5157 50.6034 42.3617 53.7831 40.1284 55.9446C37.8869 58.0862 34.71 59.189 30.5269 59.189C26.3214 59.189 22.9306 57.8144 20.3091 55.0833Z" stroke="#FAFAFA" stroke-opacity="0.05"/>
</g>
<defs>
<filter id="filter0_b_1250_73346" x="-24.5" y="-27" width="109" height="125" filterUnits="userSpaceOnUse" color-interpolation-filters="sRGB">
<feFlood flood-opacity="0" result="BackgroundImageFix"/>
<feGaussianBlur in="BackgroundImageFix" stdDeviation="15"/>
<feComposite in2="SourceAlpha" operator="in" result="effect1_backgroundBlur_1250_73346"/>
<feBlend mode="normal" in="SourceGraphic" in2="effect1_backgroundBlur_1250_73346" result="shape"/>
</filter>
<radialGradient id="paint0_radial_1250_73346" cx="0" cy="0" r="1" gradientUnits="userSpaceOnUse" gradientTransform="translate(24.5 41.5) rotate(97.2149) scale(40.9492 30.6371)">
<stop offset="0.338542" stop-color="#7A73FF"/>
<stop offset="0.734375" stop-color="#75CDFF"/>
<stop offset="1" stop-color="#4AFCF1"/>
</radialGradient>
<linearGradient id="paint1_linear_1250_73346" x1="30.021" y1="66.9804" x2="30.021" y2="3.99084" gradientUnits="userSpaceOnUse">
<stop stop-color="#209DB7"/>
<stop offset="1" stop-color="#F2F8FF"/>
</linearGradient>
</defs>
</svg>
