<svg width="56" height="74" viewBox="0 0 56 74" fill="none" xmlns="http://www.w3.org/2000/svg">
<path d="M10.5083 74L37.4916 17.2143H0V9H48V15.2946L20.9722 74H10.5083Z" fill="url(#paint0_radial_1250_73359)"/>
<g filter="url(#filter0_b_1250_73359)">
<path d="M17.5083 67L44.4916 10.2143H7V2H55V8.29464L27.9722 67H17.5083Z" fill="url(#paint1_linear_1250_73359)" fill-opacity="0.4"/>
<path d="M17.0567 66.7854L16.7172 67.5H17.5083H27.9722H28.2924L28.4263 67.2091L55.4542 8.50375L55.5 8.40421V8.29464V2V1.5H55H7H6.5V2V10.2143V10.7143H7H43.7005L17.0567 66.7854Z" stroke="#FAFAFA" stroke-opacity="0.05"/>
</g>
<defs>
<filter id="filter0_b_1250_73359" x="-24" y="-29" width="110" height="127" filterUnits="userSpaceOnUse" color-interpolation-filters="sRGB">
<feFlood flood-opacity="0" result="BackgroundImageFix"/>
<feGaussianBlur in="BackgroundImageFix" stdDeviation="15"/>
<feComposite in2="SourceAlpha" operator="in" result="effect1_backgroundBlur_1250_73359"/>
<feBlend mode="normal" in="SourceGraphic" in2="effect1_backgroundBlur_1250_73359" result="shape"/>
</filter>
<radialGradient id="paint0_radial_1250_73359" cx="0" cy="0" r="1" gradientUnits="userSpaceOnUse" gradientTransform="translate(24 41.5) rotate(97.2149) scale(40.9492 30.6371)">
<stop offset="0.338542" stop-color="#7A73FF"/>
<stop offset="0.734375" stop-color="#75CDFF"/>
<stop offset="1" stop-color="#4AFCF1"/>
</radialGradient>
<linearGradient id="paint1_linear_1250_73359" x1="31.0215" y1="66.9797" x2="31.0215" y2="1.99055" gradientUnits="userSpaceOnUse">
<stop stop-color="#209DB7"/>
<stop offset="1" stop-color="#F2F8FF"/>
</linearGradient>
</defs>
</svg>
