<svg width="57" height="74" viewBox="0 0 57 74" fill="none" xmlns="http://www.w3.org/2000/svg">
<path d="M0.5 55.6105C0.5 51.5337 1.75926 48.1365 4.27778 45.4187C6.7963 42.6713 9.84815 40.7511 13.4333 39.6581V39.5251C10.4704 38.3435 7.93704 36.4676 5.83333 33.8975C3.75926 31.2978 2.72222 28.1221 2.72222 24.3704C2.72222 19.1415 4.73704 14.9466 8.76667 11.7857C12.7963 8.59524 18.0407 7 24.5 7C30.9593 7 36.2037 8.61001 40.2333 11.83C44.263 15.0205 46.2778 19.2006 46.2778 24.3704C46.2778 28.1517 45.2556 31.3422 43.2111 33.9418C41.1963 36.5119 38.7074 38.3582 35.7444 39.4808V39.6581C39.3296 40.7216 42.3519 42.627 44.8111 45.3743C47.2704 48.1217 48.5 51.519 48.5 55.5661C48.5 61.4153 46.263 65.95 41.7889 69.17C37.3148 72.39 31.5519 74 24.5 74C17.4481 74 11.6852 72.39 7.21111 69.17C2.73704 65.95 0.5 61.4301 0.5 55.6105ZM10.4556 54.9015C10.4556 58.3873 11.7 61.179 14.1889 63.2765C16.6778 65.3444 20.1148 66.3783 24.5 66.3783C28.8852 66.3783 32.3222 65.3444 34.8111 63.2765C37.3 61.2086 38.5444 58.4317 38.5444 54.9458C38.5444 51.4303 37.2852 48.6387 34.7667 46.5708C32.2481 44.4733 28.8259 43.4246 24.5 43.4246C20.1741 43.4246 16.7519 44.4733 14.2333 46.5708C11.7148 48.6387 10.4556 51.4156 10.4556 54.9015ZM12.4556 25.168C12.4556 28.388 13.537 31.0172 15.7 33.0556C17.863 35.0644 20.7963 36.0688 24.5 36.0688C28.2037 36.0688 31.137 35.0644 33.3 33.0556C35.463 31.0172 36.5444 28.388 36.5444 25.168C36.5444 22.0661 35.463 19.5403 33.3 17.5906C31.1667 15.6409 28.2333 14.666 24.5 14.666C20.7667 14.666 17.8185 15.6261 15.6556 17.5463C13.5222 19.4665 12.4556 22.0071 12.4556 25.168Z" fill="url(#paint0_radial_1250_73371)"/>
<g filter="url(#filter0_b_1250_73371)">
<path d="M6.5 49.4339C6.5 45.5397 7.70679 42.2945 10.1204 39.6984C12.534 37.0741 15.4586 35.2399 18.8944 34.1958V34.0688C16.0549 32.94 13.6272 31.1481 11.6111 28.6931C9.62346 26.2099 8.62963 23.1764 8.62963 19.5926C8.62963 14.5979 10.5605 10.5908 14.4222 7.57143C18.284 4.52381 23.3099 3 29.5 3C35.6901 3 40.716 4.53792 44.5778 7.61376C48.4395 10.6614 50.3704 14.6543 50.3704 19.5926C50.3704 23.2046 49.3907 26.2522 47.4315 28.7354C45.5006 31.1905 43.1154 32.9541 40.2759 34.0265V34.1958C43.7117 35.2116 46.608 37.0317 48.9648 39.6561C51.3216 42.2804 52.5 45.5256 52.5 49.3915C52.5 54.9788 50.3562 59.3104 46.0685 62.3862C41.7809 65.4621 36.258 67 29.5 67C22.742 67 17.2191 65.4621 12.9315 62.3862C8.64383 59.3104 6.5 54.9929 6.5 49.4339ZM16.0407 48.7566C16.0407 52.0864 17.2333 54.7531 19.6185 56.7566C22.0037 58.7319 25.2975 59.7196 29.5 59.7196C33.7025 59.7196 36.9963 58.7319 39.3815 56.7566C41.7667 54.7813 42.9593 52.1287 42.9593 48.7989C42.9593 45.4409 41.7525 42.7743 39.3389 40.7989C36.9253 38.7954 33.6457 37.7937 29.5 37.7937C25.3543 37.7937 22.0747 38.7954 19.6611 40.7989C17.2475 42.7743 16.0407 45.4268 16.0407 48.7566ZM17.9574 20.3545C17.9574 23.4303 18.9938 25.9418 21.0667 27.8889C23.1395 29.8078 25.9506 30.7672 29.5 30.7672C33.0494 30.7672 35.8605 29.8078 37.9333 27.8889C40.0062 25.9418 41.0426 23.4303 41.0426 20.3545C41.0426 17.3915 40.0062 14.9788 37.9333 13.1164C35.8889 11.254 33.0778 10.3228 29.5 10.3228C25.9222 10.3228 23.0969 11.2399 21.0241 13.0741C18.9796 14.9083 17.9574 17.3351 17.9574 20.3545Z" fill="url(#paint1_linear_1250_73371)" fill-opacity="0.4"/>
<path d="M11.2207 29.0056L11.2208 29.0056C9.15317 26.4225 8.12963 23.2747 8.12963 19.5926C8.12963 14.4478 10.1284 10.2944 14.1134 7.17823C18.0839 4.0451 23.2275 2.5 29.5 2.5C35.7735 2.5 40.9178 4.05975 44.8884 7.22195C48.8702 10.3647 50.8704 14.5023 50.8704 19.5926C50.8704 23.3 49.8627 26.4609 47.8244 29.0446M11.2207 29.0056L47.4315 28.7354M11.2207 29.0056L11.2247 29.0104C13.0407 31.2219 15.1875 32.9135 17.6625 34.0793C14.6075 35.1892 11.9691 36.95 9.75343 39.3588C7.24555 42.0567 6 45.4273 6 49.4339C6 55.1439 8.21343 59.617 12.64 62.7925C17.0338 65.9445 22.6668 67.5 29.5 67.5C36.3332 67.5 41.9662 65.9445 46.36 62.7925C50.7873 59.6164 53 55.1288 53 49.3915C53 45.4151 51.7842 42.0472 49.3368 39.322C47.1663 36.9051 44.5477 35.1517 41.4885 34.0644M11.2207 29.0056L40.348 34.2172M47.8244 29.0446C47.8243 29.0448 47.8242 29.045 47.824 29.0452L47.4315 28.7354M47.8244 29.0446C47.8245 29.0446 47.8245 29.0446 47.8245 29.0445L47.4315 28.7354M47.8244 29.0446C46.0778 31.2654 43.9645 32.9408 41.4885 34.0644M47.4315 28.7354C45.616 31.0438 43.3988 32.741 40.7799 33.8269C41.0187 33.9022 41.2548 33.9813 41.4885 34.0644M41.4885 34.0644C41.2622 34.167 41.0329 34.2651 40.8006 34.3585C40.6508 34.3098 40.4999 34.2627 40.348 34.2172M40.3399 34.1958L40.348 34.2172M40.3399 34.1958H40.7759V34.0265H40.326M40.3399 34.1958L40.304 34.1008M40.3399 34.1958H40.2759L40.304 34.1008M40.348 34.2172L40.3323 34.005L40.326 34.0265M40.326 34.0265H40.2759L40.304 34.1008M40.326 34.0265L40.304 34.1008M39.0195 41.1837L39.0222 41.1859C41.31 43.0582 42.4593 45.5777 42.4593 48.7989C42.4593 51.9926 41.3236 54.4991 39.0626 56.3715C36.7946 58.2498 33.6276 59.2196 29.5 59.2196C25.3732 59.2196 22.2066 58.2502 19.9387 56.3726C17.6762 54.4714 16.5407 51.9497 16.5407 48.7566C16.5407 45.5651 17.6889 43.0591 19.9778 41.1859L19.9805 41.1837C22.2789 39.2757 25.4331 38.2937 29.5 38.2937C33.5669 38.2937 36.7211 39.2757 39.0195 41.1837ZM37.5966 13.486L37.5992 13.4883C39.5591 15.2494 40.5426 17.5233 40.5426 20.3545C40.5426 23.3042 39.5549 25.679 37.5924 27.5232C35.6341 29.3353 32.9564 30.2672 29.5 30.2672C26.0436 30.2672 23.3659 29.3353 21.4076 27.5232C19.4451 25.679 18.4574 23.3042 18.4574 20.3545C18.4574 17.462 19.43 15.1765 21.3567 13.4473C23.3139 11.7162 26.0084 10.8228 29.5 10.8228C32.9909 10.8228 35.6687 11.7298 37.5966 13.486Z" stroke="#FAFAFA" stroke-opacity="0.05"/>
</g>
<defs>
<filter id="filter0_b_1250_73371" x="-24.5" y="-28" width="108" height="126" filterUnits="userSpaceOnUse" color-interpolation-filters="sRGB">
<feFlood flood-opacity="0" result="BackgroundImageFix"/>
<feGaussianBlur in="BackgroundImageFix" stdDeviation="15"/>
<feComposite in2="SourceAlpha" operator="in" result="effect1_backgroundBlur_1250_73371"/>
<feBlend mode="normal" in="SourceGraphic" in2="effect1_backgroundBlur_1250_73371" result="shape"/>
</filter>
<radialGradient id="paint0_radial_1250_73371" cx="0" cy="0" r="1" gradientUnits="userSpaceOnUse" gradientTransform="translate(24.5 40.5) rotate(97.0017) scale(42.1896 30.6513)">
<stop offset="0.338542" stop-color="#7A73FF"/>
<stop offset="0.734375" stop-color="#75CDFF"/>
<stop offset="1" stop-color="#4AFCF1"/>
</radialGradient>
<linearGradient id="paint1_linear_1250_73371" x1="29.5206" y1="66.98" x2="29.5206" y2="2.9907" gradientUnits="userSpaceOnUse">
<stop stop-color="#209DB7"/>
<stop offset="1" stop-color="#F2F8FF"/>
</linearGradient>
</defs>
</svg>
