<svg width="277" height="280" viewBox="0 0 277 280" fill="none" xmlns="http://www.w3.org/2000/svg">
<g filter="url(#filter0_dd_443_59399)">
<rect x="17.5" y="172" width="103" height="94" rx="12" fill="white"/>
<path fill-rule="evenodd" clip-rule="evenodd" d="M55.5487 202.284C53.2916 200.023 54.9122 196 58.1787 196H78.8254C82.0919 196 83.7124 200.023 81.4554 202.284C81.454 202.286 81.4527 202.287 81.4513 202.288L73.3012 210.548V217.769C73.3012 218.929 72.7378 220.159 71.6558 220.83L67.6579 223.575L67.6413 223.586C66.7509 224.179 65.726 224.077 64.9893 223.643C64.2679 223.217 63.7029 222.408 63.7029 221.415V210.548L55.5487 202.284ZM57.38 199.364C57.231 199.725 57.2991 200.075 57.5314 200.307L57.5386 200.314L66.0994 208.99C66.3579 209.252 66.5029 209.605 66.5029 209.973V220.972L70.1016 218.501C70.1254 218.484 70.1497 218.469 70.1744 218.454C70.3239 218.365 70.5012 218.103 70.5012 217.769V209.973C70.5012 209.605 70.6461 209.252 70.9047 208.99L79.4727 200.307C79.705 200.075 79.7731 199.725 79.6241 199.364C79.4781 199.01 79.1867 198.8 78.8254 198.8H58.1787C57.8174 198.8 57.526 199.01 57.38 199.364Z" fill="url(#paint0_radial_443_59399)"/>
<path d="M35.9541 246L39.4463 237.41H40.583L44.0752 246H42.8447L40.331 239.602C40.2646 239.441 40.206 239.289 40.1552 239.145C40.1084 239 40.0654 238.854 40.0263 238.705H39.9619C39.9228 238.854 39.8779 239 39.8271 239.145C39.7802 239.289 39.7236 239.441 39.6572 239.602L37.1259 246H35.9541ZM37.4248 243.797L37.8056 242.836L42.2002 242.842L42.5752 243.803L37.4248 243.797ZM44.9538 239.766H46.0788V242.379H49.3835V239.766H50.5085V246H49.3835V243.27H46.0788V246H44.9538V239.766ZM52.1665 244.166C52.1665 243.529 52.4399 243.035 52.9868 242.684C53.5376 242.332 54.2505 242.156 55.1255 242.156H56.7954V241.711C56.7954 241.336 56.6782 241.037 56.4438 240.814C56.2134 240.592 55.8188 240.48 55.2602 240.48C54.7055 240.48 54.3052 240.576 54.0591 240.768C53.813 240.955 53.6899 241.182 53.6899 241.447V241.477H52.5649V241.447C52.5649 240.936 52.8091 240.498 53.2973 240.135C53.7856 239.771 54.4497 239.59 55.2895 239.59C56.1255 239.59 56.772 239.77 57.229 240.129C57.6899 240.484 57.9204 241.012 57.9204 241.711V244.594C57.9204 244.848 57.9419 245.088 57.9848 245.314C58.0278 245.537 58.0884 245.734 58.1665 245.906V246H57.0825C57.02 245.902 56.9634 245.773 56.9126 245.613C56.8618 245.453 56.8305 245.295 56.8188 245.139C56.6548 245.4 56.3813 245.629 55.9985 245.824C55.6157 246.02 55.1255 246.117 54.5278 246.117C53.8559 246.117 53.2934 245.949 52.8403 245.613C52.3911 245.277 52.1665 244.795 52.1665 244.166ZM53.2915 244.107C53.2915 244.459 53.4126 244.732 53.6548 244.928C53.897 245.123 54.2759 245.221 54.7915 245.221C55.3071 245.221 55.77 245.072 56.1802 244.775C56.5903 244.479 56.7954 244.164 56.7954 243.832V242.953H55.2544C54.6138 242.953 54.1255 243.057 53.7895 243.264C53.4575 243.467 53.2915 243.748 53.2915 244.107ZM61.5471 240.65L61.4416 243.135C61.3948 244.186 61.2502 244.947 61.008 245.42C60.7698 245.893 60.3577 246.129 59.7717 246.129C59.6272 246.129 59.5002 246.119 59.3909 246.1C59.2815 246.084 59.1897 246.059 59.1155 246.023V245.057C59.1819 245.084 59.2502 245.104 59.3205 245.115C59.3948 245.127 59.4788 245.133 59.5725 245.133C59.8694 245.133 60.0745 244.98 60.1877 244.676C60.3049 244.367 60.3791 243.803 60.4104 242.982L60.551 239.766H65.3616V246H64.2366V240.65H61.5471ZM67.377 246V239.766H68.4902V243.738C68.4902 243.855 68.4883 243.988 68.4844 244.137C68.4844 244.285 68.4824 244.42 68.4785 244.541H68.5254C68.5801 244.436 68.6406 244.324 68.707 244.207C68.7734 244.09 68.8496 243.973 68.9355 243.855L71.8711 239.766H73.002V246H71.8828V242.033C71.8828 241.912 71.8848 241.777 71.8887 241.629C71.8926 241.477 71.8984 241.34 71.9062 241.219H71.8418C71.791 241.32 71.7324 241.432 71.666 241.553C71.5996 241.674 71.5254 241.793 71.4434 241.91L68.5078 246H67.377ZM74.3201 240.65V239.766H79.8865V240.65H77.6658V246H76.5408V240.65H74.3201ZM81.2163 246V239.766H82.3296V243.738C82.3296 243.855 82.3277 243.988 82.3237 244.137C82.3237 244.285 82.3218 244.42 82.3179 244.541H82.3648C82.4195 244.436 82.48 244.324 82.5464 244.207C82.6128 244.09 82.689 243.973 82.7749 243.855L85.7105 239.766H86.8413V246H85.7222V242.033C85.7222 241.912 85.7241 241.777 85.728 241.629C85.732 241.477 85.7378 241.34 85.7456 241.219H85.6812C85.6304 241.32 85.5718 241.432 85.5054 241.553C85.439 241.674 85.3648 241.793 85.2827 241.91L82.3472 246H81.2163ZM93.263 246L90.5618 243.146L91.2532 242.414L94.6985 246H93.263ZM89.4075 242.385H90.638L93.052 239.766H94.3821L91.1009 243.27H89.4075V242.385ZM89.97 239.766V246H88.8509V239.766H89.97ZM95.419 244.166C95.419 243.529 95.6924 243.035 96.2393 242.684C96.7901 242.332 97.503 242.156 98.378 242.156H100.048V241.711C100.048 241.336 99.9307 241.037 99.6963 240.814C99.4659 240.592 99.0713 240.48 98.5127 240.48C97.958 240.48 97.5577 240.576 97.3116 240.768C97.0655 240.955 96.9424 241.182 96.9424 241.447V241.477H95.8174V241.447C95.8174 240.936 96.0616 240.498 96.5498 240.135C97.0381 239.771 97.7022 239.59 98.542 239.59C99.378 239.59 100.024 239.77 100.481 240.129C100.942 240.484 101.173 241.012 101.173 241.711V244.594C101.173 244.848 101.194 245.088 101.237 245.314C101.28 245.537 101.341 245.734 101.419 245.906V246H100.335C100.272 245.902 100.216 245.773 100.165 245.613C100.114 245.453 100.083 245.295 100.071 245.139C99.9073 245.4 99.6338 245.629 99.251 245.824C98.8682 246.02 98.378 246.117 97.7803 246.117C97.1084 246.117 96.5459 245.949 96.0928 245.613C95.6436 245.277 95.419 244.795 95.419 244.166ZM96.544 244.107C96.544 244.459 96.6651 244.732 96.9073 244.928C97.1495 245.123 97.5284 245.221 98.044 245.221C98.5596 245.221 99.0225 245.072 99.4327 244.775C99.8428 244.479 100.048 244.164 100.048 243.832V242.953H98.5069C97.8662 242.953 97.378 243.057 97.042 243.264C96.71 243.467 96.544 243.748 96.544 244.107Z" fill="#04101C"/>
</g>
<g filter="url(#filter1_dd_443_59399)">
<rect x="191.5" y="45" width="68" height="94" rx="12" fill="white"/>
<path d="M236.465 91.6H233.5C233.006 89.8 231.4 88.6 229.424 88.6C227.076 88.6 225.1 90.52 225.1 92.8C225.1 95.08 227.076 97 229.424 97C231.4 97 233.006 95.8 233.5 94H236.465C237.206 94 237.7 93.4 237.7 92.8C237.7 92.08 237.206 91.6 236.465 91.6ZM229.424 94.6C228.435 94.6 227.571 93.76 227.571 92.8C227.571 91.84 228.435 91 229.424 91C230.412 91 231.276 91.84 231.276 92.8C231.276 93.76 230.412 94.6 229.424 94.6Z" fill="url(#paint1_radial_443_59399)"/>
<path d="M222.509 91.4H213.691C212.977 91.4 212.5 92.1 212.5 92.8C212.5 93.64 213.096 94.2 213.691 94.2H222.509C223.223 94.2 223.7 93.5 223.7 92.8C223.7 91.96 223.104 91.4 222.509 91.4Z" fill="url(#paint2_radial_443_59399)"/>
<path d="M213.691 74.6H222.509C223.223 74.6 223.7 73.9 223.7 73.2C223.7 72.5 223.104 71.8 222.509 71.8H213.691C212.977 71.8 212.5 72.5 212.5 73.2C212.5 73.9 213.096 74.6 213.691 74.6Z" fill="url(#paint3_radial_443_59399)"/>
<path d="M229.424 77.4C231.4 77.4 233.006 76.2 233.5 74.4H236.465C237.206 74.4 237.7 73.8 237.7 73.2C237.7 72.6 237.082 72 236.465 72H233.5C233.006 70.2 231.4 69 229.424 69C227.076 69 225.1 70.92 225.1 73.2C225.1 75.48 227.076 77.4 229.424 77.4ZM229.424 71.4C230.412 71.4 231.276 72.24 231.276 73.2C231.276 74.16 230.412 75 229.424 75C228.435 75 227.571 74.16 227.571 73.2C227.571 72.24 228.435 71.4 229.424 71.4Z" fill="url(#paint4_radial_443_59399)"/>
<path d="M213.735 84.2H216.7C217.194 85.88 218.8 87.2 220.776 87.2C223.124 87.2 225.1 85.28 225.1 83C225.1 80.72 223.124 78.8 220.776 78.8C218.8 78.8 217.194 80 216.7 81.8H213.735C212.994 81.8 212.5 82.4 212.5 83C212.5 83.6 213.118 84.2 213.735 84.2ZM220.776 81.2C221.765 81.2 222.629 82.04 222.629 83C222.629 83.96 221.765 84.8 220.776 84.8C219.788 84.8 218.924 83.96 218.924 83C218.924 82.04 219.788 81.2 220.776 81.2Z" fill="url(#paint5_radial_443_59399)"/>
<path d="M236.496 81.6H227.704C226.982 81.6 226.5 82.3 226.5 83C226.5 83.7 227.102 84.4 227.704 84.4H236.496C237.218 84.4 237.7 83.7 237.7 83C237.7 82.3 237.218 81.6 236.496 81.6Z" fill="url(#paint6_radial_443_59399)"/>
<path d="M211.772 114.951V114.518C211.772 113.182 212.139 112.145 212.873 111.406C213.608 110.664 214.549 110.293 215.698 110.293C216.85 110.293 217.793 110.664 218.528 111.406C219.262 112.145 219.629 113.182 219.629 114.518V114.951C219.629 116.287 219.262 117.326 218.528 118.068C217.793 118.807 216.85 119.176 215.698 119.176C214.549 119.176 213.608 118.807 212.873 118.068C212.139 117.326 211.772 116.287 211.772 114.951ZM212.949 114.951C212.949 115.967 213.199 116.76 213.699 117.33C214.203 117.896 214.871 118.18 215.703 118.18C216.531 118.18 217.198 117.896 217.701 117.33C218.205 116.76 218.457 115.967 218.457 114.951V114.518C218.457 113.502 218.205 112.711 217.701 112.145C217.198 111.574 216.531 111.289 215.703 111.289C214.871 111.289 214.203 111.574 213.699 112.145C213.199 112.711 212.949 113.502 212.949 114.518V114.951ZM221.574 119V110.469H224.604C225.596 110.469 226.363 110.697 226.906 111.154C227.449 111.611 227.721 112.225 227.721 112.994C227.721 113.764 227.449 114.383 226.906 114.852C226.363 115.32 225.596 115.555 224.604 115.555H222.74V119H221.574ZM222.74 114.605H224.604C225.334 114.605 225.842 114.451 226.127 114.143C226.412 113.83 226.555 113.447 226.555 112.994C226.555 112.541 226.412 112.166 226.127 111.869C225.842 111.568 225.334 111.418 224.604 111.418H222.74V114.605ZM226.865 119L224.627 115.068L225.822 114.922L228.195 119H226.865ZM229.701 119V110.469H231.224L233.996 116.885C234.047 117.002 234.095 117.125 234.142 117.254C234.193 117.379 234.238 117.496 234.277 117.605H234.324C234.359 117.496 234.4 117.379 234.447 117.254C234.494 117.125 234.543 117.002 234.594 116.885L237.347 110.469H238.9V119H237.775V112.73C237.775 112.613 237.777 112.482 237.781 112.338C237.789 112.189 237.801 112.057 237.816 111.939H237.763C237.732 112.057 237.689 112.189 237.635 112.338C237.584 112.482 237.533 112.613 237.482 112.73L234.799 119H233.761L231.06 112.73C231.01 112.613 230.959 112.482 230.908 112.338C230.861 112.189 230.824 112.057 230.797 111.939H230.744C230.756 112.057 230.765 112.189 230.773 112.338C230.785 112.482 230.791 112.613 230.791 112.73V119H229.701Z" fill="#04101C"/>
</g>
<path d="M225.5 39L225.5 2.99152e-06" stroke="#ECECEC" stroke-width="2"/>
<path d="M191.5 106H187.337C178.501 106 171.337 113.163 171.337 122V136.5C171.337 145.337 164.174 152.5 155.337 152.5H83.5C74.6634 152.5 67.5 159.663 67.5 168.5V172" stroke="url(#paint7_linear_443_59399)" stroke-width="2"/>
<defs>
<filter id="filter0_dd_443_59399" x="9.5" y="167.5" width="119" height="110.5" filterUnits="userSpaceOnUse" color-interpolation-filters="sRGB">
<feFlood flood-opacity="0" result="BackgroundImageFix"/>
<feColorMatrix in="SourceAlpha" type="matrix" values="0 0 0 0 0 0 0 0 0 0 0 0 0 0 0 0 0 0 127 0" result="hardAlpha"/>
<feOffset dy="4"/>
<feGaussianBlur stdDeviation="4"/>
<feComposite in2="hardAlpha" operator="out"/>
<feColorMatrix type="matrix" values="0 0 0 0 0 0 0 0 0 0 0 0 0 0 0 0 0 0 0.08 0"/>
<feBlend mode="normal" in2="BackgroundImageFix" result="effect1_dropShadow_443_59399"/>
<feColorMatrix in="SourceAlpha" type="matrix" values="0 0 0 0 0 0 0 0 0 0 0 0 0 0 0 0 0 0 127 0" result="hardAlpha"/>
<feOffset dy="-0.5"/>
<feGaussianBlur stdDeviation="2"/>
<feComposite in2="hardAlpha" operator="out"/>
<feColorMatrix type="matrix" values="0 0 0 0 0 0 0 0 0 0 0 0 0 0 0 0 0 0 0.05 0"/>
<feBlend mode="normal" in2="effect1_dropShadow_443_59399" result="effect2_dropShadow_443_59399"/>
<feBlend mode="normal" in="SourceGraphic" in2="effect2_dropShadow_443_59399" result="shape"/>
</filter>
<filter id="filter1_dd_443_59399" x="183.5" y="40.5" width="84" height="110.5" filterUnits="userSpaceOnUse" color-interpolation-filters="sRGB">
<feFlood flood-opacity="0" result="BackgroundImageFix"/>
<feColorMatrix in="SourceAlpha" type="matrix" values="0 0 0 0 0 0 0 0 0 0 0 0 0 0 0 0 0 0 127 0" result="hardAlpha"/>
<feOffset dy="4"/>
<feGaussianBlur stdDeviation="4"/>
<feComposite in2="hardAlpha" operator="out"/>
<feColorMatrix type="matrix" values="0 0 0 0 0 0 0 0 0 0 0 0 0 0 0 0 0 0 0.08 0"/>
<feBlend mode="normal" in2="BackgroundImageFix" result="effect1_dropShadow_443_59399"/>
<feColorMatrix in="SourceAlpha" type="matrix" values="0 0 0 0 0 0 0 0 0 0 0 0 0 0 0 0 0 0 127 0" result="hardAlpha"/>
<feOffset dy="-0.5"/>
<feGaussianBlur stdDeviation="2"/>
<feComposite in2="hardAlpha" operator="out"/>
<feColorMatrix type="matrix" values="0 0 0 0 0 0 0 0 0 0 0 0 0 0 0 0 0 0 0.05 0"/>
<feBlend mode="normal" in2="effect1_dropShadow_443_59399" result="effect2_dropShadow_443_59399"/>
<feBlend mode="normal" in="SourceGraphic" in2="effect2_dropShadow_443_59399" result="shape"/>
</filter>
<radialGradient id="paint0_radial_443_59399" cx="0" cy="0" r="1" gradientUnits="userSpaceOnUse" gradientTransform="translate(68.502 210) rotate(99.729) scale(17.7554 17.7578)">
<stop offset="0.055" stop-color="#7A73FF"/>
<stop offset="0.65" stop-color="#67DDFA"/>
<stop offset="1" stop-color="#4AFCF1"/>
</radialGradient>
<radialGradient id="paint1_radial_443_59399" cx="0" cy="0" r="1" gradientUnits="userSpaceOnUse" gradientTransform="translate(225.1 83) rotate(98.7708) scale(17.7071 16.0233)">
<stop offset="0.055" stop-color="#7A73FF"/>
<stop offset="0.65" stop-color="#67DDFA"/>
<stop offset="1" stop-color="#4AFCF1"/>
</radialGradient>
<radialGradient id="paint2_radial_443_59399" cx="0" cy="0" r="1" gradientUnits="userSpaceOnUse" gradientTransform="translate(225.1 83) rotate(98.7708) scale(17.7071 16.0233)">
<stop offset="0.055" stop-color="#7A73FF"/>
<stop offset="0.65" stop-color="#67DDFA"/>
<stop offset="1" stop-color="#4AFCF1"/>
</radialGradient>
<radialGradient id="paint3_radial_443_59399" cx="0" cy="0" r="1" gradientUnits="userSpaceOnUse" gradientTransform="translate(225.1 83) rotate(98.7708) scale(17.7071 16.0233)">
<stop offset="0.055" stop-color="#7A73FF"/>
<stop offset="0.65" stop-color="#67DDFA"/>
<stop offset="1" stop-color="#4AFCF1"/>
</radialGradient>
<radialGradient id="paint4_radial_443_59399" cx="0" cy="0" r="1" gradientUnits="userSpaceOnUse" gradientTransform="translate(225.1 83) rotate(98.7708) scale(17.7071 16.0233)">
<stop offset="0.055" stop-color="#7A73FF"/>
<stop offset="0.65" stop-color="#67DDFA"/>
<stop offset="1" stop-color="#4AFCF1"/>
</radialGradient>
<radialGradient id="paint5_radial_443_59399" cx="0" cy="0" r="1" gradientUnits="userSpaceOnUse" gradientTransform="translate(225.1 83) rotate(98.7708) scale(17.7071 16.0233)">
<stop offset="0.055" stop-color="#7A73FF"/>
<stop offset="0.65" stop-color="#67DDFA"/>
<stop offset="1" stop-color="#4AFCF1"/>
</radialGradient>
<radialGradient id="paint6_radial_443_59399" cx="0" cy="0" r="1" gradientUnits="userSpaceOnUse" gradientTransform="translate(225.1 83) rotate(98.7708) scale(17.7071 16.0233)">
<stop offset="0.055" stop-color="#7A73FF"/>
<stop offset="0.65" stop-color="#67DDFA"/>
<stop offset="1" stop-color="#4AFCF1"/>
</radialGradient>
<linearGradient id="paint7_linear_443_59399" x1="-2.25" y1="40" x2="202.502" y2="172.737" gradientUnits="userSpaceOnUse">
<stop offset="0.338542" stop-color="#7A73FF"/>
<stop offset="0.734375" stop-color="#75CDFF"/>
<stop offset="1" stop-color="#4AFCF1"/>
</linearGradient>
</defs>
</svg>
