<svg width="107" height="108" viewBox="0 0 107 108" fill="none" xmlns="http://www.w3.org/2000/svg">
<path fill-rule="evenodd" clip-rule="evenodd" d="M76.6146 7.5192V32.1993C70.6142 25.4067 61.9406 21.1393 52.2937 21.1393C34.1829 21.1393 19.5014 36.1801 19.5014 54.734C19.5014 73.2878 34.1829 88.3287 52.2937 88.3287C61.9406 88.3287 70.6142 84.0613 76.6146 77.2687L76.3766 84.2614C76.3432 85.2442 77.1231 86.0593 78.097 86.0593H83.6199C84.5728 86.0593 85.3444 85.2777 85.3414 84.3157L85.1192 12.9516L76.6146 7.5192ZM77.981 54.734C77.981 68.7066 66.9085 80.0337 53.2501 80.0337C39.5917 80.0337 28.5193 68.7066 28.5193 54.734C28.5193 40.7613 39.5917 29.4343 53.2501 29.4343C66.9085 29.4343 77.981 40.7613 77.981 54.734Z" fill="white"/>
<path fill-rule="evenodd" clip-rule="evenodd" d="M76.6146 7.5192V32.1993C70.6142 25.4067 61.9406 21.1393 52.2937 21.1393C34.1829 21.1393 19.5014 36.1801 19.5014 54.734C19.5014 73.2878 34.1829 88.3287 52.2937 88.3287C61.9406 88.3287 70.6142 84.0613 76.6146 77.2687L76.3766 84.2614C76.3432 85.2442 77.1231 86.0593 78.097 86.0593H83.6199C84.5728 86.0593 85.3444 85.2777 85.3414 84.3157L85.1192 12.9516L76.6146 7.5192ZM77.981 54.734C77.981 68.7066 66.9085 80.0337 53.2501 80.0337C39.5917 80.0337 28.5193 68.7066 28.5193 54.734C28.5193 40.7613 39.5917 29.4343 53.2501 29.4343C66.9085 29.4343 77.981 40.7613 77.981 54.734Z" fill="url(#paint0_radial_1250_74138)"/>
<path fill-rule="evenodd" clip-rule="evenodd" d="M76.6146 7.5192V32.1993C70.6142 25.4067 61.9406 21.1393 52.2937 21.1393C34.1829 21.1393 19.5014 36.1801 19.5014 54.734C19.5014 73.2878 34.1829 88.3287 52.2937 88.3287C61.9406 88.3287 70.6142 84.0613 76.6146 77.2687L76.3766 84.2614C76.3432 85.2442 77.1231 86.0593 78.097 86.0593H83.6199C84.5728 86.0593 85.3444 85.2777 85.3414 84.3157L85.1192 12.9516L76.6146 7.5192ZM77.981 54.734C77.981 68.7066 66.9085 80.0337 53.2501 80.0337C39.5917 80.0337 28.5193 68.7066 28.5193 54.734C28.5193 40.7613 39.5917 29.4343 53.2501 29.4343C66.9085 29.4343 77.981 40.7613 77.981 54.734Z" fill="url(#paint1_radial_1250_74138)"/>
<path fill-rule="evenodd" clip-rule="evenodd" d="M76.6146 7.5192V32.1993C70.6142 25.4067 61.9406 21.1393 52.2937 21.1393C34.1829 21.1393 19.5014 36.1801 19.5014 54.734C19.5014 73.2878 34.1829 88.3287 52.2937 88.3287C61.9406 88.3287 70.6142 84.0613 76.6146 77.2687L76.3766 84.2614C76.3432 85.2442 77.1231 86.0593 78.097 86.0593H83.6199C84.5728 86.0593 85.3444 85.2777 85.3414 84.3157L85.1192 12.9516L76.6146 7.5192ZM77.981 54.734C77.981 68.7066 66.9085 80.0337 53.2501 80.0337C39.5917 80.0337 28.5193 68.7066 28.5193 54.734C28.5193 40.7613 39.5917 29.4343 53.2501 29.4343C66.9085 29.4343 77.981 40.7613 77.981 54.734Z" fill="url(#paint2_radial_1250_74138)"/>
<path fill-rule="evenodd" clip-rule="evenodd" d="M76.6146 7.5192V32.1993C70.6142 25.4067 61.9406 21.1393 52.2937 21.1393C34.1829 21.1393 19.5014 36.1801 19.5014 54.734C19.5014 73.2878 34.1829 88.3287 52.2937 88.3287C61.9406 88.3287 70.6142 84.0613 76.6146 77.2687L76.3766 84.2614C76.3432 85.2442 77.1231 86.0593 78.097 86.0593H83.6199C84.5728 86.0593 85.3444 85.2777 85.3414 84.3157L85.1192 12.9516L76.6146 7.5192ZM77.981 54.734C77.981 68.7066 66.9085 80.0337 53.2501 80.0337C39.5917 80.0337 28.5193 68.7066 28.5193 54.734C28.5193 40.7613 39.5917 29.4343 53.2501 29.4343C66.9085 29.4343 77.981 40.7613 77.981 54.734Z" fill="url(#paint3_radial_1250_74138)"/>
<path d="M85.1192 12.9516C97.218 22.4668 105 37.3158 105 54C105 82.7188 81.9427 106 53.5 106C25.0573 106 2 82.7188 2 54C2 25.2812 25.0573 2 53.5 2C61.8118 2 69.6637 3.98816 76.6146 7.5192M85.1192 12.9516L85.3414 84.3157C85.3444 85.2777 84.5728 86.0593 83.6199 86.0593H78.097C77.1231 86.0593 76.3432 85.2442 76.3766 84.2614L76.6146 77.2687C70.6142 84.0613 61.9406 88.3287 52.2937 88.3287C34.1829 88.3287 19.5014 73.2878 19.5014 54.734C19.5014 36.1801 34.1829 21.1393 52.2937 21.1393C61.9406 21.1393 70.6142 25.4067 76.6146 32.1993V7.5192M85.1192 12.9516L76.6146 7.5192M53.2501 80.0337C66.9085 80.0337 77.981 68.7066 77.981 54.734C77.981 40.7613 66.9085 29.4343 53.2501 29.4343C39.5917 29.4343 28.5193 40.7613 28.5193 54.734C28.5193 68.7066 39.5917 80.0337 53.2501 80.0337Z" stroke="url(#paint4_radial_1250_74138)" stroke-width="4"/>
<path d="M85.1192 12.9516C97.218 22.4668 105 37.3158 105 54C105 82.7188 81.9427 106 53.5 106C25.0573 106 2 82.7188 2 54C2 25.2812 25.0573 2 53.5 2C61.8118 2 69.6637 3.98816 76.6146 7.5192M85.1192 12.9516L85.3414 84.3157C85.3444 85.2777 84.5728 86.0593 83.6199 86.0593H78.097C77.1231 86.0593 76.3432 85.2442 76.3766 84.2614L76.6146 77.2687C70.6142 84.0613 61.9406 88.3287 52.2937 88.3287C34.1829 88.3287 19.5014 73.2878 19.5014 54.734C19.5014 36.1801 34.1829 21.1393 52.2937 21.1393C61.9406 21.1393 70.6142 25.4067 76.6146 32.1993V7.5192M85.1192 12.9516L76.6146 7.5192M53.2501 80.0337C66.9085 80.0337 77.981 68.7066 77.981 54.734C77.981 40.7613 66.9085 29.4343 53.2501 29.4343C39.5917 29.4343 28.5193 40.7613 28.5193 54.734C28.5193 68.7066 39.5917 80.0337 53.2501 80.0337Z" stroke="url(#paint5_radial_1250_74138)" stroke-width="4"/>
<path d="M85.1192 12.9516C97.218 22.4668 105 37.3158 105 54C105 82.7188 81.9427 106 53.5 106C25.0573 106 2 82.7188 2 54C2 25.2812 25.0573 2 53.5 2C61.8118 2 69.6637 3.98816 76.6146 7.5192M85.1192 12.9516L85.3414 84.3157C85.3444 85.2777 84.5728 86.0593 83.6199 86.0593H78.097C77.1231 86.0593 76.3432 85.2442 76.3766 84.2614L76.6146 77.2687C70.6142 84.0613 61.9406 88.3287 52.2937 88.3287C34.1829 88.3287 19.5014 73.2878 19.5014 54.734C19.5014 36.1801 34.1829 21.1393 52.2937 21.1393C61.9406 21.1393 70.6142 25.4067 76.6146 32.1993V7.5192M85.1192 12.9516L76.6146 7.5192M53.2501 80.0337C66.9085 80.0337 77.981 68.7066 77.981 54.734C77.981 40.7613 66.9085 29.4343 53.2501 29.4343C39.5917 29.4343 28.5193 40.7613 28.5193 54.734C28.5193 68.7066 39.5917 80.0337 53.2501 80.0337Z" stroke="url(#paint6_radial_1250_74138)" stroke-width="4"/>
<path d="M85.1192 12.9516C97.218 22.4668 105 37.3158 105 54C105 82.7188 81.9427 106 53.5 106C25.0573 106 2 82.7188 2 54C2 25.2812 25.0573 2 53.5 2C61.8118 2 69.6637 3.98816 76.6146 7.5192M85.1192 12.9516L85.3414 84.3157C85.3444 85.2777 84.5728 86.0593 83.6199 86.0593H78.097C77.1231 86.0593 76.3432 85.2442 76.3766 84.2614L76.6146 77.2687C70.6142 84.0613 61.9406 88.3287 52.2937 88.3287C34.1829 88.3287 19.5014 73.2878 19.5014 54.734C19.5014 36.1801 34.1829 21.1393 52.2937 21.1393C61.9406 21.1393 70.6142 25.4067 76.6146 32.1993V7.5192M85.1192 12.9516L76.6146 7.5192M53.2501 80.0337C66.9085 80.0337 77.981 68.7066 77.981 54.734C77.981 40.7613 66.9085 29.4343 53.2501 29.4343C39.5917 29.4343 28.5193 40.7613 28.5193 54.734C28.5193 68.7066 39.5917 80.0337 53.2501 80.0337Z" stroke="url(#paint7_radial_1250_74138)" stroke-width="4"/>
<defs>
<radialGradient id="paint0_radial_1250_74138" cx="0" cy="0" r="1" gradientUnits="userSpaceOnUse" gradientTransform="translate(41.1989 64.2566) rotate(87.0352) scale(80.7945 82.7213)">
<stop offset="0.662802" stop-color="#762DEE"/>
<stop offset="1" stop-color="#762DEE" stop-opacity="0"/>
</radialGradient>
<radialGradient id="paint1_radial_1250_74138" cx="0" cy="0" r="1" gradientUnits="userSpaceOnUse" gradientTransform="translate(53.5 52.2885) rotate(89.964) scale(93.6097 95.8648)">
<stop stop-color="#75CDFF"/>
<stop offset="0.460519" stop-color="#75CDFF" stop-opacity="0"/>
</radialGradient>
<radialGradient id="paint2_radial_1250_74138" cx="0" cy="0" r="1" gradientUnits="userSpaceOnUse" gradientTransform="translate(92.7577 99.7676) rotate(-129.197) scale(32.409 32.0148)">
<stop stop-color="#FFDC62"/>
<stop offset="1" stop-color="#FFDC62" stop-opacity="0"/>
</radialGradient>
<radialGradient id="paint3_radial_1250_74138" cx="0" cy="0" r="1" gradientUnits="userSpaceOnUse" gradientTransform="translate(86.3423 21.8907) rotate(118.282) scale(100.493 100.866)">
<stop offset="0.227079" stop-color="#81F9F2"/>
<stop offset="0.810258" stop-color="#81F9F2" stop-opacity="0"/>
</radialGradient>
<radialGradient id="paint4_radial_1250_74138" cx="0" cy="0" r="1" gradientUnits="userSpaceOnUse" gradientTransform="translate(41.1989 64.2566) rotate(87.0352) scale(80.7945 82.7213)">
<stop offset="0.662802" stop-color="#762DEE"/>
<stop offset="1" stop-color="#762DEE" stop-opacity="0"/>
</radialGradient>
<radialGradient id="paint5_radial_1250_74138" cx="0" cy="0" r="1" gradientUnits="userSpaceOnUse" gradientTransform="translate(53.5 52.2885) rotate(89.964) scale(93.6097 95.8648)">
<stop stop-color="#75CDFF"/>
<stop offset="0.460519" stop-color="#75CDFF" stop-opacity="0"/>
</radialGradient>
<radialGradient id="paint6_radial_1250_74138" cx="0" cy="0" r="1" gradientUnits="userSpaceOnUse" gradientTransform="translate(92.7577 99.7676) rotate(-129.197) scale(32.409 32.0148)">
<stop stop-color="#FFDC62"/>
<stop offset="1" stop-color="#FFDC62" stop-opacity="0"/>
</radialGradient>
<radialGradient id="paint7_radial_1250_74138" cx="0" cy="0" r="1" gradientUnits="userSpaceOnUse" gradientTransform="translate(86.3423 21.8907) rotate(118.282) scale(100.493 100.866)">
<stop offset="0.227079" stop-color="#81F9F2"/>
<stop offset="0.810258" stop-color="#81F9F2" stop-opacity="0"/>
</radialGradient>
</defs>
</svg>
