<svg width="316" height="346" viewBox="0 0 316 346" fill="none" xmlns="http://www.w3.org/2000/svg">
<g filter="url(#filter0_dd_1250_74414)">
<rect x="8.71484" y="212.722" width="170" height="121.278" rx="12" fill="white"/>
<path d="M104.447 250.794C103.87 250.217 103.004 250.217 102.427 250.794C101.85 251.371 101.85 252.236 102.427 252.814C105.024 255.411 106.466 258.873 106.466 262.625C106.466 266.376 105.024 269.838 102.427 272.435C99.8311 275.032 96.3694 276.475 92.6192 276.475C89.446 276.475 86.2728 275.321 83.8208 273.301L85.6959 271.281C87.7152 272.868 90.1672 273.59 92.475 273.59C95.3597 273.59 98.1002 272.58 100.264 270.416C104.591 266.087 104.591 259.018 100.264 254.833C95.9367 250.505 88.8691 250.505 84.6862 254.833C80.7918 258.729 80.3591 264.933 83.6765 269.261L80.6476 272.435C80.0706 273.013 80.0706 273.878 80.6476 274.455C83.8208 277.629 88.0036 279.361 92.475 279.361C96.9463 279.361 101.129 277.629 104.302 274.455C107.476 271.281 109.206 267.097 109.206 262.625C109.351 258.152 107.62 253.968 104.447 250.794ZM86.8497 256.853C88.4364 255.266 90.5999 254.401 92.6192 254.401C94.7828 254.401 96.8021 255.266 98.3887 256.853C101.562 260.028 101.562 265.222 98.3887 268.396C95.2155 271.57 90.023 271.57 86.8497 268.396C83.6765 265.222 83.6765 260.028 86.8497 256.853Z" fill="url(#paint0_radial_1250_74414)"/>
<path d="M28.8191 303.361V289.142H31.6316L36.4266 299.728C36.5177 299.93 36.6056 300.132 36.6902 300.333C36.7749 300.535 36.8432 300.718 36.8953 300.88H36.9637C37.0158 300.718 37.0776 300.535 37.1492 300.333C37.2273 300.132 37.3152 299.93 37.4129 299.728L42.2371 289.142H45.0691V303.361H42.8719V293.205C42.8719 293.009 42.8784 292.794 42.8914 292.56C42.9044 292.319 42.9207 292.101 42.9402 291.906H42.8621C42.823 292.101 42.7645 292.319 42.6863 292.56C42.6082 292.794 42.5268 293.009 42.4422 293.205L37.8328 303.361H35.8602L31.2605 293.214C31.1694 293.013 31.0848 292.791 31.0066 292.55C30.9285 292.309 30.8667 292.095 30.8211 291.906H30.7527C30.7658 292.095 30.7788 292.309 30.7918 292.55C30.8113 292.791 30.8211 293.013 30.8211 293.214V303.361H28.8191ZM47.3734 298.449V298.156C47.3734 296.606 47.8975 295.356 48.9457 294.406C50.0004 293.449 51.4001 292.97 53.1449 292.97C54.8832 292.97 56.2764 293.449 57.3246 294.406C58.3793 295.356 58.9066 296.606 58.9066 298.156V298.449C58.9066 300.005 58.3793 301.261 57.3246 302.218C56.2764 303.175 54.8832 303.654 53.1449 303.654C51.4001 303.654 50.0004 303.175 48.9457 302.218C47.8975 301.261 47.3734 300.005 47.3734 298.449ZM49.6 298.107V298.507C49.6 299.529 49.8995 300.356 50.4984 300.988C51.0974 301.619 51.9763 301.935 53.1352 301.935C54.3005 301.935 55.1827 301.619 55.7816 300.988C56.3806 300.356 56.6801 299.529 56.6801 298.507V298.107C56.6801 297.085 56.3773 296.258 55.7719 295.626C55.1729 294.995 54.294 294.679 53.1352 294.679C51.9828 294.679 51.1039 294.995 50.4984 295.626C49.8995 296.258 49.6 297.085 49.6 298.107ZM61.4746 293.263H63.6523V297.375H69.1602V293.263H71.3379V303.361H69.1602V299.035H63.6523V303.361H61.4746V293.263ZM74.5113 303.361V293.263H76.6891V299.474C76.6891 299.676 76.6825 299.894 76.6695 300.128C76.663 300.356 76.6533 300.571 76.6402 300.773H76.7184C76.8095 300.591 76.9072 300.412 77.0113 300.236C77.1155 300.054 77.2424 299.858 77.3922 299.65L82.3141 293.263H84.4918V303.361H82.3238V297.13C82.3238 296.935 82.3271 296.72 82.3336 296.486C82.3466 296.251 82.3564 296.033 82.3629 295.832H82.2848C82.2001 296.014 82.1057 296.196 82.0016 296.378C81.8974 296.561 81.7704 296.753 81.6207 296.955L76.6988 303.361H74.5113ZM86.591 294.923V293.263H96.6203V294.923H92.6945V303.361H90.5168V294.923H86.591ZM98.0945 298.449V298.156C98.0945 296.606 98.6186 295.356 99.6668 294.406C100.721 293.449 102.121 292.97 103.866 292.97C105.604 292.97 106.998 293.449 108.046 294.406C109.1 295.356 109.628 296.606 109.628 298.156V298.449C109.628 300.005 109.1 301.261 108.046 302.218C106.998 303.175 105.604 303.654 103.866 303.654C102.121 303.654 100.721 303.175 99.6668 302.218C98.6186 301.261 98.0945 300.005 98.0945 298.449ZM100.321 298.107V298.507C100.321 299.529 100.621 300.356 101.22 300.988C101.818 301.619 102.697 301.935 103.856 301.935C105.022 301.935 105.904 301.619 106.503 300.988C107.102 300.356 107.401 299.529 107.401 298.507V298.107C107.401 297.085 107.098 296.258 106.493 295.626C105.894 294.995 105.015 294.679 103.856 294.679C102.704 294.679 101.825 294.995 101.22 295.626C100.621 296.258 100.321 297.085 100.321 298.107ZM112.196 307.433V293.263H114.217L114.286 294.65H114.315C114.634 294.207 115.125 293.83 115.789 293.517C116.46 293.205 117.235 293.048 118.114 293.048C119.637 293.048 120.855 293.52 121.766 294.464C122.677 295.408 123.133 296.639 123.133 298.156V298.449C123.133 299.966 122.677 301.199 121.766 302.15C120.855 303.094 119.647 303.566 118.143 303.566C117.264 303.566 116.506 303.429 115.868 303.156C115.23 302.882 114.732 302.531 114.373 302.101V307.433H112.196ZM114.364 300.119C114.598 300.568 114.992 300.972 115.545 301.33C116.105 301.681 116.779 301.857 117.567 301.857C118.719 301.857 119.562 301.551 120.096 300.939C120.636 300.32 120.907 299.507 120.907 298.498V298.107C120.907 297.104 120.636 296.297 120.096 295.685C119.562 295.073 118.719 294.767 117.567 294.767C116.779 294.767 116.108 294.943 115.555 295.294C115.002 295.639 114.605 296.037 114.364 296.486V300.119ZM125.701 303.361V293.263H127.879V299.474C127.879 299.676 127.872 299.894 127.859 300.128C127.853 300.356 127.843 300.571 127.83 300.773H127.908C127.999 300.591 128.097 300.412 128.201 300.236C128.305 300.054 128.432 299.858 128.582 299.65L133.504 293.263H135.682V303.361H133.514V297.13C133.514 296.935 133.517 296.72 133.523 296.486C133.536 296.251 133.546 296.033 133.553 295.832H133.475C133.39 296.014 133.296 296.196 133.191 296.378C133.087 296.561 132.96 296.753 132.811 296.955L127.889 303.361H125.701ZM138.875 293.263H141.052V297.375H146.56V293.263H148.738V303.361H146.56V299.035H141.052V303.361H138.875V293.263ZM151.911 293.263H159.919V294.923H154.089V303.361H151.911V293.263Z" fill="#04101C"/>
</g>
<g filter="url(#filter1_dd_1250_74414)">
<rect x="221.242" y="210.141" width="86" height="121.278" rx="12" fill="white"/>
<path d="M275.207 270.38H272.242C271.748 268.58 270.142 267.38 268.166 267.38C265.819 267.38 263.842 269.3 263.842 271.58C263.842 273.86 265.819 275.78 268.166 275.78C270.142 275.78 271.748 274.58 272.242 272.78H275.207C275.948 272.78 276.442 272.18 276.442 271.58C276.442 270.86 275.948 270.38 275.207 270.38ZM268.166 273.38C267.177 273.38 266.313 272.54 266.313 271.58C266.313 270.62 267.177 269.78 268.166 269.78C269.154 269.78 270.019 270.62 270.019 271.58C270.019 272.54 269.154 273.38 268.166 273.38Z" fill="url(#paint1_radial_1250_74414)"/>
<path d="M261.251 270.18H252.434C251.719 270.18 251.242 270.88 251.242 271.58C251.242 272.42 251.838 272.98 252.434 272.98H261.251C261.966 272.98 262.442 272.28 262.442 271.58C262.442 270.74 261.846 270.18 261.251 270.18Z" fill="url(#paint2_radial_1250_74414)"/>
<path d="M252.434 253.38H261.251C261.966 253.38 262.442 252.68 262.442 251.98C262.442 251.28 261.846 250.58 261.251 250.58H252.434C251.719 250.58 251.242 251.28 251.242 251.98C251.242 252.68 251.838 253.38 252.434 253.38Z" fill="url(#paint3_radial_1250_74414)"/>
<path d="M268.166 256.18C270.142 256.18 271.748 254.98 272.242 253.18H275.207C275.948 253.18 276.442 252.58 276.442 251.98C276.442 251.38 275.825 250.78 275.207 250.78H272.242C271.748 248.98 270.142 247.78 268.166 247.78C265.819 247.78 263.842 249.7 263.842 251.98C263.842 254.26 265.819 256.18 268.166 256.18ZM268.166 250.18C269.154 250.18 270.019 251.02 270.019 251.98C270.019 252.94 269.154 253.78 268.166 253.78C267.177 253.78 266.313 252.94 266.313 251.98C266.313 251.02 267.177 250.18 268.166 250.18Z" fill="url(#paint4_radial_1250_74414)"/>
<path d="M252.477 262.98H255.442C255.936 264.66 257.542 265.98 259.519 265.98C261.866 265.98 263.842 264.06 263.842 261.78C263.842 259.5 261.866 257.58 259.519 257.58C257.542 257.58 255.936 258.78 255.442 260.58H252.477C251.736 260.58 251.242 261.18 251.242 261.78C251.242 262.38 251.86 262.98 252.477 262.98ZM259.519 259.98C260.507 259.98 261.372 260.82 261.372 261.78C261.372 262.74 260.507 263.58 259.519 263.58C258.53 263.58 257.666 262.74 257.666 261.78C257.666 260.82 258.53 259.98 259.519 259.98Z" fill="url(#paint5_radial_1250_74414)"/>
<path d="M275.238 260.38H266.446C265.724 260.38 265.242 261.08 265.242 261.78C265.242 262.48 265.844 263.18 266.446 263.18H275.238C275.96 263.18 276.442 262.48 276.442 261.78C276.442 261.08 275.96 260.38 275.238 260.38Z" fill="url(#paint6_radial_1250_74414)"/>
<path d="M240.317 293.964V293.368C240.317 291.05 240.965 289.289 242.26 288.085C243.556 286.881 245.219 286.278 247.25 286.278C249.269 286.278 250.929 286.881 252.231 288.085C253.533 289.289 254.184 291.05 254.184 293.368V293.964C254.184 296.288 253.533 298.052 252.231 299.257C250.929 300.461 249.269 301.063 247.25 301.063C245.226 301.063 243.562 300.461 242.26 299.257C240.965 298.052 240.317 296.288 240.317 293.964ZM242.612 294.062C242.612 295.78 243.035 297.076 243.881 297.948C244.734 298.821 245.857 299.26 247.25 299.267C248.644 299.267 249.767 298.83 250.62 297.958C251.472 297.079 251.899 295.78 251.899 294.062V293.271C251.899 291.558 251.472 290.266 250.62 289.394C249.767 288.521 248.644 288.085 247.25 288.085C245.851 288.085 244.728 288.521 243.881 289.394C243.035 290.266 242.612 291.558 242.612 293.271V294.062ZM257.25 300.78V286.562H262.777C264.483 286.562 265.801 286.939 266.732 287.694C267.67 288.443 268.139 289.491 268.139 290.839C268.139 292.18 267.67 293.238 266.732 294.013C265.795 294.781 264.477 295.168 262.777 295.175H259.496V300.78H257.25ZM259.486 293.456H262.719C263.891 293.456 264.711 293.215 265.18 292.733C265.655 292.252 265.893 291.627 265.893 290.858C265.893 290.071 265.655 289.449 265.18 288.993C264.711 288.531 263.891 288.3 262.719 288.3H259.486V293.456ZM266.4 300.78L262.592 294.247L264.896 294.022L268.969 300.78H266.4ZM271.302 300.78V286.562H274.115L278.91 297.147C279.001 297.349 279.089 297.551 279.173 297.753C279.258 297.955 279.326 298.137 279.379 298.3H279.447C279.499 298.137 279.561 297.955 279.632 297.753C279.711 297.551 279.798 297.349 279.896 297.147L284.72 286.562H287.552V300.78H285.355V290.624C285.355 290.429 285.362 290.214 285.375 289.979C285.388 289.739 285.404 289.521 285.423 289.325H285.345C285.306 289.521 285.248 289.739 285.17 289.979C285.091 290.214 285.01 290.429 284.925 290.624L280.316 300.78H278.343L273.744 290.634C273.653 290.432 273.568 290.211 273.49 289.97C273.412 289.729 273.35 289.514 273.304 289.325H273.236C273.249 289.514 273.262 289.729 273.275 289.97C273.295 290.211 273.304 290.432 273.304 290.634V300.78H271.302Z" fill="#04101C"/>
</g>
<g filter="url(#filter2_dd_1250_74414)">
<rect x="16.625" y="5" width="113" height="121.278" rx="12" fill="white"/>
<path d="M88.3211 56.6392C88.3211 53.6196 86.674 50.8745 84.2034 49.5019C84.2034 49.3647 84.2034 49.0901 84.2034 48.8156C84.2034 45.3843 81.4583 42.6392 78.027 42.6392C76.1054 42.6392 74.3211 43.5999 73.223 44.9725C72.125 43.5999 70.3407 42.6392 68.4191 42.6392C64.9877 42.6392 62.2426 45.3843 62.2426 48.8156C62.2426 49.0901 62.2426 49.2274 62.2426 49.5019C59.7721 50.8745 58.125 53.6196 58.125 56.6392C58.125 59.6588 59.7721 62.4039 62.2426 63.7764C62.2426 64.0509 62.2426 64.1882 62.2426 64.4627C62.2426 67.8941 64.9877 70.6392 68.4191 70.6392C70.3407 70.6392 72.125 69.6784 73.223 68.3058C74.3211 69.6784 76.1054 70.6392 78.027 70.6392C81.4583 70.6392 84.2034 67.8941 84.2034 64.4627C84.2034 64.1882 84.2034 64.0509 84.2034 63.7764C86.674 62.2666 88.3211 59.6588 88.3211 56.6392ZM82.1446 61.7176C81.4583 61.9921 81.1838 62.6784 81.3211 63.3647C81.4583 63.6392 81.4583 64.0509 81.4583 64.3254C81.4583 66.247 79.9485 67.7568 78.027 67.7568C76.2426 67.7568 74.7328 66.3843 74.5956 64.4627C74.5956 64.3254 74.5956 64.3254 74.4583 64.1882V64.0509C74.4583 63.9137 74.3211 63.7764 74.3211 63.7764C74.3211 63.7764 74.3211 63.6392 74.1838 63.6392C74.0466 63.5019 74.0466 63.5019 73.9093 63.3647C73.9093 63.3647 73.7721 63.3647 73.7721 63.2274C73.6348 63.2274 73.4975 63.2274 73.4975 63.0901H73.3603H73.223C73.0858 63.0901 73.0858 63.0901 72.9485 63.2274C72.8113 63.2274 72.8113 63.3647 72.674 63.3647C72.5368 63.3647 72.5368 63.5019 72.3995 63.5019L72.2623 63.6392C72.2623 63.7764 72.125 63.7764 72.125 63.9137V64.0509C72.125 64.1882 71.9877 64.1882 71.9877 64.3254C71.8505 66.1097 70.3407 67.6196 68.5564 67.6196C66.6348 67.6196 65.125 66.1097 65.125 64.1882C65.125 63.7764 65.125 63.5019 65.2623 63.2274C65.5368 62.5411 65.125 61.8548 64.4387 61.5803C62.2426 60.8941 60.8701 58.8352 60.8701 56.6392C60.8701 54.4431 62.2426 52.3843 64.3015 51.5607C64.9877 51.2862 65.3995 50.4627 65.125 49.7764C64.9877 49.5019 64.9877 49.2274 64.9877 48.8156C64.9877 46.8941 66.4975 45.3843 68.4191 45.3843C70.3407 45.3843 71.8505 46.8941 71.8505 48.8156V60.0705C71.8505 60.8941 72.3995 61.4431 73.223 61.4431C74.0466 61.4431 74.5956 60.8941 74.5956 60.0705V48.8156C74.5956 46.8941 76.1054 45.3843 78.027 45.3843C79.9485 45.3843 81.4583 46.8941 81.4583 48.8156C81.4583 49.2274 81.4583 49.5019 81.3211 49.7764C81.0466 50.4627 81.4583 51.149 82.1446 51.4235C84.2034 52.3843 85.576 54.3058 85.576 56.6392C85.576 58.8352 84.2034 60.8941 82.1446 61.7176Z" fill="url(#paint7_radial_1250_74414)"/>
<path d="M36.627 95.6392V81.4204H42.2617C44.0195 81.4204 45.3639 81.811 46.2949 82.5923C47.2324 83.367 47.7012 84.4575 47.7012 85.8638C47.7012 87.2505 47.2324 88.3442 46.2949 89.145C45.3639 89.9393 44.0195 90.3332 42.2617 90.3267H38.873V95.6392H36.627ZM38.873 88.5786H42.1445C43.3685 88.5786 44.2246 88.3312 44.7129 87.8364C45.2077 87.3351 45.4551 86.6776 45.4551 85.8638C45.4551 85.05 45.2077 84.4022 44.7129 83.9204C44.2246 83.4321 43.3685 83.188 42.1445 83.188H38.873V88.5786ZM48.8043 99.6919L48.8141 97.9829C49.0224 98.035 49.2503 98.0773 49.4977 98.1099C49.7451 98.1424 49.9794 98.1587 50.2008 98.1587C50.7802 98.1587 51.262 98.0122 51.6461 97.7192C52.0367 97.4328 52.4566 96.7166 52.9059 95.5708L52.8375 95.561L48.2867 85.5415H50.5133L53.3551 92.0845C53.4592 92.3319 53.5536 92.5728 53.6383 92.8071C53.7229 93.035 53.7978 93.2694 53.8629 93.5103H53.9215C53.9866 93.2694 54.0615 93.035 54.1461 92.8071C54.2307 92.5728 54.3219 92.3319 54.4195 92.0845L57.2027 85.5415H59.3023L54.2926 96.9185C53.8629 97.882 53.3258 98.6177 52.6812 99.1255C52.0432 99.6398 51.2685 99.897 50.357 99.897C50.0445 99.897 49.7646 99.8774 49.5172 99.8384C49.2698 99.8058 49.0322 99.757 48.8043 99.6919ZM62.9445 88.2075C62.9445 88.9823 63.1529 89.5226 63.5695 89.8286C63.9862 90.1346 64.66 90.2876 65.591 90.2876C66.2876 90.2876 66.8931 90.2485 67.4074 90.1704C67.9283 90.0923 68.4816 89.9751 69.0676 89.8188V91.479C68.5077 91.6157 67.9283 91.7264 67.3293 91.811C66.7368 91.8957 66.0077 91.938 65.1418 91.938C63.6639 91.938 62.5669 91.6418 61.8508 91.0493C61.1346 90.4569 60.7766 89.5324 60.7766 88.2759V85.5415H62.9445V88.2075ZM70.1516 85.5415V95.6392H67.9836V85.5415H70.1516ZM73.3348 85.5415H75.5125V89.6528H81.0203V85.5415H83.198V95.6392H81.0203V91.313H75.5125V95.6392H73.3348V85.5415ZM85.7562 90.7271V90.4341C85.7562 88.8846 86.2803 87.6346 87.3285 86.6841C88.3832 85.7271 89.7829 85.2485 91.5277 85.2485C93.266 85.2485 94.6592 85.7271 95.7074 86.6841C96.7621 87.6346 97.2895 88.8846 97.2895 90.4341V90.7271C97.2895 92.283 96.7621 93.5396 95.7074 94.4966C94.6592 95.4536 93.266 95.9321 91.5277 95.9321C89.7829 95.9321 88.3832 95.4536 87.3285 94.4966C86.2803 93.5396 85.7562 92.283 85.7562 90.7271ZM87.9828 90.3853V90.7856C87.9828 91.8078 88.2823 92.6346 88.8812 93.2661C89.4802 93.8976 90.3591 94.2134 91.518 94.2134C92.6833 94.2134 93.5655 93.8976 94.1645 93.2661C94.7634 92.6346 95.0629 91.8078 95.0629 90.7856V90.3853C95.0629 89.3631 94.7602 88.5363 94.1547 87.9048C93.5557 87.2733 92.6768 86.9575 91.518 86.9575C90.3656 86.9575 89.4867 87.2733 88.8812 87.9048C88.2823 88.5363 87.9828 89.3631 87.9828 90.3853ZM99.8574 95.6392V85.5415H102.035V91.7524C102.035 91.9543 102.029 92.1724 102.016 92.4067C102.009 92.6346 101.999 92.8494 101.986 93.0513H102.064C102.156 92.869 102.253 92.6899 102.357 92.5142C102.462 92.3319 102.589 92.1366 102.738 91.9282L107.66 85.5415H109.838V95.6392H107.67V89.4087C107.67 89.2134 107.673 88.9985 107.68 88.7642C107.693 88.5298 107.702 88.3117 107.709 88.1099H107.631C107.546 88.2922 107.452 88.4744 107.348 88.6567C107.243 88.839 107.117 89.0311 106.967 89.2329L102.045 95.6392H99.8574ZM104.838 82.4751C105.307 82.4751 105.688 82.3416 105.98 82.0747C106.28 81.8013 106.531 81.3651 106.732 80.7661L108.266 81.5962C107.94 82.4295 107.478 83.0317 106.879 83.4028C106.286 83.7739 105.606 83.9595 104.838 83.9595C104.07 83.9595 103.386 83.7739 102.787 83.4028C102.195 83.0317 101.736 82.4295 101.41 81.5962L102.963 80.7661C103.171 81.3716 103.419 81.8078 103.705 82.0747C103.998 82.3416 104.376 82.4751 104.838 82.4751Z" fill="#04101C"/>
</g>
<g filter="url(#filter3_dd_1250_74414)">
<rect x="176.984" y="5" width="87" height="121.278" rx="12" fill="white"/>
<path d="M233.712 58.8028H230.403V54.4755H233.712C234.475 54.4755 234.984 53.9664 234.984 53.2028C234.984 52.4392 234.475 51.9301 233.712 51.9301H230.403V50.9119C230.403 48.8755 228.748 47.3483 226.839 47.3483H225.821V43.9119C225.821 43.1483 225.312 42.6392 224.548 42.6392C223.784 42.6392 223.275 43.1483 223.275 43.9119V47.221H218.821V43.9119C218.821 43.1483 218.312 42.6392 217.548 42.6392C216.784 42.6392 216.275 43.1483 216.275 43.9119V47.221H215.257C213.221 47.221 211.693 48.8755 211.693 50.7846V51.8028H208.257C207.493 51.8028 206.984 52.3119 206.984 53.0755C206.984 53.8392 207.493 54.3483 208.257 54.3483H211.566V58.8028H208.257C207.493 58.8028 206.984 59.3119 206.984 60.0755C206.984 60.8392 207.493 61.3483 208.257 61.3483H211.566V62.3664C211.566 64.4028 213.221 65.9301 215.13 65.9301H216.148V69.3664C216.148 70.1301 216.657 70.6392 217.421 70.6392C218.184 70.6392 218.693 70.1301 218.693 69.3664V66.0573H223.148V69.3664C223.148 70.1301 223.657 70.6392 224.421 70.6392C225.184 70.6392 225.693 70.1301 225.693 69.3664V66.0573H226.712C228.748 66.0573 230.275 64.4028 230.275 62.4937V61.4755H233.712C234.475 61.4755 234.984 60.9664 234.984 60.2028C234.984 59.4392 234.475 58.8028 233.712 58.8028ZM227.857 62.3664C227.857 63.0028 227.348 63.3846 226.839 63.3846H215.257C214.621 63.3846 214.239 62.8755 214.239 62.3664V50.9119C214.112 50.2755 214.621 49.7664 215.257 49.7664H226.839C227.475 49.7664 227.857 50.2755 227.857 50.7846V62.3664Z" fill="url(#paint8_radial_1250_74414)"/>
<path d="M194.923 95.6392L200.929 81.3423H203.224L209.24 95.6392H206.828L202.589 85.1021C202.472 84.8156 202.368 84.5487 202.277 84.3013C202.192 84.0474 202.114 83.7935 202.043 83.5396H201.945C201.873 83.7935 201.792 84.0474 201.701 84.3013C201.616 84.5487 201.515 84.8156 201.398 85.1021L197.14 95.6392H194.923ZM197.599 92.0942L198.263 90.3462H205.802L206.476 92.0942H197.599ZM210.509 95.6392V85.5415H216.446C217.664 85.5415 218.579 85.7629 219.191 86.2056C219.809 86.6418 220.118 87.2993 220.118 88.1782C220.118 88.7642 219.956 89.2459 219.63 89.6235C219.311 89.9946 218.865 90.255 218.292 90.4048V90.4438C218.95 90.5545 219.477 90.8084 219.874 91.2056C220.278 91.6027 220.48 92.1235 220.48 92.7681C220.48 93.673 220.154 94.3794 219.503 94.8872C218.852 95.3885 217.937 95.6392 216.759 95.6392H210.509ZM212.667 89.7505H216.261C216.853 89.7505 217.28 89.6268 217.54 89.3794C217.801 89.132 217.931 88.7902 217.931 88.354C217.931 87.9438 217.801 87.6281 217.54 87.4067C217.28 87.1854 216.853 87.0747 216.261 87.0747H212.667V89.7505ZM212.667 94.0962H216.534C217.146 94.0962 217.592 93.9692 217.872 93.7153C218.159 93.4549 218.302 93.1034 218.302 92.6606C218.302 92.231 218.162 91.8892 217.882 91.6353C217.602 91.3748 217.153 91.2446 216.534 91.2446H212.667V94.0962ZM222.139 87.2017V85.5415H232.169V87.2017H228.243V95.6392H226.065V87.2017H222.139ZM233.643 90.7271V90.4341C233.643 88.8846 234.167 87.6346 235.215 86.6841C236.27 85.7271 237.67 85.2485 239.414 85.2485C241.153 85.2485 242.546 85.7271 243.594 86.6841C244.649 87.6346 245.176 88.8846 245.176 90.4341V90.7271C245.176 92.283 244.649 93.5396 243.594 94.4966C242.546 95.4536 241.153 95.9321 239.414 95.9321C237.67 95.9321 236.27 95.4536 235.215 94.4966C234.167 93.5396 233.643 92.283 233.643 90.7271ZM235.87 90.3853V90.7856C235.87 91.8078 236.169 92.6346 236.768 93.2661C237.367 93.8976 238.246 94.2134 239.405 94.2134C240.57 94.2134 241.452 93.8976 242.051 93.2661C242.65 92.6346 242.95 91.8078 242.95 90.7856V90.3853C242.95 89.3631 242.647 88.5363 242.041 87.9048C241.442 87.2733 240.564 86.9575 239.405 86.9575C238.252 86.9575 237.373 87.2733 236.768 87.9048C236.169 88.5363 235.87 89.3631 235.87 90.3853Z" fill="#04101C"/>
</g>
<path d="M167.719 270.78L221.773 270.78" stroke="url(#paint9_linear_1250_74414)" stroke-width="2"/>
<path d="M58.3242 212.722L58.3242 126.279" stroke="url(#paint10_linear_1250_74414)" stroke-width="2"/>
<path d="M223.059 126.279V126.279C223.059 134.829 216.127 141.761 207.576 141.761H92.3411C83.5046 141.761 76.3411 148.924 76.3411 157.761V212.722" stroke="url(#paint11_linear_1250_74414)" stroke-width="2"/>
<defs>
<filter id="filter0_dd_1250_74414" x="0.714844" y="208.222" width="186" height="137.778" filterUnits="userSpaceOnUse" color-interpolation-filters="sRGB">
<feFlood flood-opacity="0" result="BackgroundImageFix"/>
<feColorMatrix in="SourceAlpha" type="matrix" values="0 0 0 0 0 0 0 0 0 0 0 0 0 0 0 0 0 0 127 0" result="hardAlpha"/>
<feOffset dy="4"/>
<feGaussianBlur stdDeviation="4"/>
<feComposite in2="hardAlpha" operator="out"/>
<feColorMatrix type="matrix" values="0 0 0 0 0 0 0 0 0 0 0 0 0 0 0 0 0 0 0.08 0"/>
<feBlend mode="normal" in2="BackgroundImageFix" result="effect1_dropShadow_1250_74414"/>
<feColorMatrix in="SourceAlpha" type="matrix" values="0 0 0 0 0 0 0 0 0 0 0 0 0 0 0 0 0 0 127 0" result="hardAlpha"/>
<feOffset dy="-0.5"/>
<feGaussianBlur stdDeviation="2"/>
<feComposite in2="hardAlpha" operator="out"/>
<feColorMatrix type="matrix" values="0 0 0 0 0 0 0 0 0 0 0 0 0 0 0 0 0 0 0.05 0"/>
<feBlend mode="normal" in2="effect1_dropShadow_1250_74414" result="effect2_dropShadow_1250_74414"/>
<feBlend mode="normal" in="SourceGraphic" in2="effect2_dropShadow_1250_74414" result="shape"/>
</filter>
<filter id="filter1_dd_1250_74414" x="213.242" y="205.641" width="102" height="137.778" filterUnits="userSpaceOnUse" color-interpolation-filters="sRGB">
<feFlood flood-opacity="0" result="BackgroundImageFix"/>
<feColorMatrix in="SourceAlpha" type="matrix" values="0 0 0 0 0 0 0 0 0 0 0 0 0 0 0 0 0 0 127 0" result="hardAlpha"/>
<feOffset dy="4"/>
<feGaussianBlur stdDeviation="4"/>
<feComposite in2="hardAlpha" operator="out"/>
<feColorMatrix type="matrix" values="0 0 0 0 0 0 0 0 0 0 0 0 0 0 0 0 0 0 0.08 0"/>
<feBlend mode="normal" in2="BackgroundImageFix" result="effect1_dropShadow_1250_74414"/>
<feColorMatrix in="SourceAlpha" type="matrix" values="0 0 0 0 0 0 0 0 0 0 0 0 0 0 0 0 0 0 127 0" result="hardAlpha"/>
<feOffset dy="-0.5"/>
<feGaussianBlur stdDeviation="2"/>
<feComposite in2="hardAlpha" operator="out"/>
<feColorMatrix type="matrix" values="0 0 0 0 0 0 0 0 0 0 0 0 0 0 0 0 0 0 0.05 0"/>
<feBlend mode="normal" in2="effect1_dropShadow_1250_74414" result="effect2_dropShadow_1250_74414"/>
<feBlend mode="normal" in="SourceGraphic" in2="effect2_dropShadow_1250_74414" result="shape"/>
</filter>
<filter id="filter2_dd_1250_74414" x="8.625" y="0.5" width="129" height="137.778" filterUnits="userSpaceOnUse" color-interpolation-filters="sRGB">
<feFlood flood-opacity="0" result="BackgroundImageFix"/>
<feColorMatrix in="SourceAlpha" type="matrix" values="0 0 0 0 0 0 0 0 0 0 0 0 0 0 0 0 0 0 127 0" result="hardAlpha"/>
<feOffset dy="4"/>
<feGaussianBlur stdDeviation="4"/>
<feComposite in2="hardAlpha" operator="out"/>
<feColorMatrix type="matrix" values="0 0 0 0 0 0 0 0 0 0 0 0 0 0 0 0 0 0 0.08 0"/>
<feBlend mode="normal" in2="BackgroundImageFix" result="effect1_dropShadow_1250_74414"/>
<feColorMatrix in="SourceAlpha" type="matrix" values="0 0 0 0 0 0 0 0 0 0 0 0 0 0 0 0 0 0 127 0" result="hardAlpha"/>
<feOffset dy="-0.5"/>
<feGaussianBlur stdDeviation="2"/>
<feComposite in2="hardAlpha" operator="out"/>
<feColorMatrix type="matrix" values="0 0 0 0 0 0 0 0 0 0 0 0 0 0 0 0 0 0 0.05 0"/>
<feBlend mode="normal" in2="effect1_dropShadow_1250_74414" result="effect2_dropShadow_1250_74414"/>
<feBlend mode="normal" in="SourceGraphic" in2="effect2_dropShadow_1250_74414" result="shape"/>
</filter>
<filter id="filter3_dd_1250_74414" x="168.984" y="0.5" width="103" height="137.778" filterUnits="userSpaceOnUse" color-interpolation-filters="sRGB">
<feFlood flood-opacity="0" result="BackgroundImageFix"/>
<feColorMatrix in="SourceAlpha" type="matrix" values="0 0 0 0 0 0 0 0 0 0 0 0 0 0 0 0 0 0 127 0" result="hardAlpha"/>
<feOffset dy="4"/>
<feGaussianBlur stdDeviation="4"/>
<feComposite in2="hardAlpha" operator="out"/>
<feColorMatrix type="matrix" values="0 0 0 0 0 0 0 0 0 0 0 0 0 0 0 0 0 0 0.08 0"/>
<feBlend mode="normal" in2="BackgroundImageFix" result="effect1_dropShadow_1250_74414"/>
<feColorMatrix in="SourceAlpha" type="matrix" values="0 0 0 0 0 0 0 0 0 0 0 0 0 0 0 0 0 0 127 0" result="hardAlpha"/>
<feOffset dy="-0.5"/>
<feGaussianBlur stdDeviation="2"/>
<feComposite in2="hardAlpha" operator="out"/>
<feColorMatrix type="matrix" values="0 0 0 0 0 0 0 0 0 0 0 0 0 0 0 0 0 0 0.05 0"/>
<feBlend mode="normal" in2="effect1_dropShadow_1250_74414" result="effect2_dropShadow_1250_74414"/>
<feBlend mode="normal" in="SourceGraphic" in2="effect2_dropShadow_1250_74414" result="shape"/>
</filter>
<radialGradient id="paint0_radial_1250_74414" cx="0" cy="0" r="1" gradientUnits="userSpaceOnUse" gradientTransform="translate(94.7148 264.861) rotate(99.7276) scale(18.3894)">
<stop offset="0.055" stop-color="#7A73FF"/>
<stop offset="0.65" stop-color="#67DDFA"/>
<stop offset="1" stop-color="#4AFCF1"/>
</radialGradient>
<radialGradient id="paint1_radial_1250_74414" cx="0" cy="0" r="1" gradientUnits="userSpaceOnUse" gradientTransform="translate(263.842 261.78) rotate(98.7708) scale(17.7071 16.0233)">
<stop offset="0.055" stop-color="#7A73FF"/>
<stop offset="0.65" stop-color="#67DDFA"/>
<stop offset="1" stop-color="#4AFCF1"/>
</radialGradient>
<radialGradient id="paint2_radial_1250_74414" cx="0" cy="0" r="1" gradientUnits="userSpaceOnUse" gradientTransform="translate(263.842 261.78) rotate(98.7708) scale(17.7071 16.0233)">
<stop offset="0.055" stop-color="#7A73FF"/>
<stop offset="0.65" stop-color="#67DDFA"/>
<stop offset="1" stop-color="#4AFCF1"/>
</radialGradient>
<radialGradient id="paint3_radial_1250_74414" cx="0" cy="0" r="1" gradientUnits="userSpaceOnUse" gradientTransform="translate(263.842 261.78) rotate(98.7708) scale(17.7071 16.0233)">
<stop offset="0.055" stop-color="#7A73FF"/>
<stop offset="0.65" stop-color="#67DDFA"/>
<stop offset="1" stop-color="#4AFCF1"/>
</radialGradient>
<radialGradient id="paint4_radial_1250_74414" cx="0" cy="0" r="1" gradientUnits="userSpaceOnUse" gradientTransform="translate(263.842 261.78) rotate(98.7708) scale(17.7071 16.0233)">
<stop offset="0.055" stop-color="#7A73FF"/>
<stop offset="0.65" stop-color="#67DDFA"/>
<stop offset="1" stop-color="#4AFCF1"/>
</radialGradient>
<radialGradient id="paint5_radial_1250_74414" cx="0" cy="0" r="1" gradientUnits="userSpaceOnUse" gradientTransform="translate(263.842 261.78) rotate(98.7708) scale(17.7071 16.0233)">
<stop offset="0.055" stop-color="#7A73FF"/>
<stop offset="0.65" stop-color="#67DDFA"/>
<stop offset="1" stop-color="#4AFCF1"/>
</radialGradient>
<radialGradient id="paint6_radial_1250_74414" cx="0" cy="0" r="1" gradientUnits="userSpaceOnUse" gradientTransform="translate(263.842 261.78) rotate(98.7708) scale(17.7071 16.0233)">
<stop offset="0.055" stop-color="#7A73FF"/>
<stop offset="0.65" stop-color="#67DDFA"/>
<stop offset="1" stop-color="#4AFCF1"/>
</radialGradient>
<radialGradient id="paint7_radial_1250_74414" cx="0" cy="0" r="1" gradientUnits="userSpaceOnUse" gradientTransform="translate(73.223 56.6392) rotate(100.474) scale(17.7965 19.1035)">
<stop offset="0.055" stop-color="#7A73FF"/>
<stop offset="0.65" stop-color="#67DDFA"/>
<stop offset="1" stop-color="#4AFCF1"/>
</radialGradient>
<radialGradient id="paint8_radial_1250_74414" cx="0" cy="0" r="1" gradientUnits="userSpaceOnUse" gradientTransform="translate(220.984 56.6392) rotate(99.7276) scale(17.7553)">
<stop offset="0.055" stop-color="#7A73FF"/>
<stop offset="0.65" stop-color="#67DDFA"/>
<stop offset="1" stop-color="#4AFCF1"/>
</radialGradient>
<linearGradient id="paint9_linear_1250_74414" x1="253.914" y1="267.351" x2="249.847" y2="289.925" gradientUnits="userSpaceOnUse">
<stop offset="0.338542" stop-color="#7A73FF"/>
<stop offset="0.734375" stop-color="#75CDFF"/>
<stop offset="1" stop-color="#4AFCF1"/>
</linearGradient>
<linearGradient id="paint10_linear_1250_74414" x1="57.3242" y1="77.6543" x2="64.1132" y2="77.8819" gradientUnits="userSpaceOnUse">
<stop offset="0.338542" stop-color="#7A73FF"/>
<stop offset="0.734375" stop-color="#75CDFF"/>
<stop offset="1" stop-color="#4AFCF1"/>
</linearGradient>
<linearGradient id="paint11_linear_1250_74414" x1="-6.18747" y1="299.165" x2="250.018" y2="149.119" gradientUnits="userSpaceOnUse">
<stop offset="0.338542" stop-color="#7A73FF"/>
<stop offset="0.734375" stop-color="#75CDFF"/>
<stop offset="1" stop-color="#4AFCF1"/>
</linearGradient>
</defs>
</svg>
