<svg width="395" height="306" viewBox="0 0 395 306" fill="none" xmlns="http://www.w3.org/2000/svg">
<path d="M54.8076 177.098L54.8079 79.4997C54.8079 70.6631 61.9714 63.4997 70.8079 63.4997L301.502 63.5001C310.339 63.5002 317.502 70.6635 317.502 79.5001L317.502 181.094" stroke="url(#paint0_linear_1250_71769)" stroke-width="2"/>
<g filter="url(#filter0_dd_1250_71769)">
<rect x="259" y="168" width="119" height="126" rx="12" fill="white"/>
<path d="M312.872 211.484C312.304 210.924 311.452 210.924 310.884 211.484C310.316 212.044 310.316 212.884 310.884 213.443L316.706 219.602C316.99 219.882 317.416 220.022 317.7 220.022C318.126 220.022 318.552 219.882 318.694 219.462L332.609 202.246C333.035 201.686 333.035 200.706 332.325 200.287C331.899 199.867 331.047 199.867 330.479 200.566L327.639 204.066C325.083 201.546 321.392 200.007 317.7 200.007C309.89 200.007 303.5 206.305 303.5 214.003C303.5 221.701 309.89 228 317.7 228C325.509 228 331.899 221.701 331.899 214.003C331.899 212.744 331.757 211.484 331.331 210.224C331.047 209.524 330.337 209.104 329.627 209.244C328.917 209.384 328.491 210.224 328.633 210.924C328.917 211.904 329.059 213.024 329.059 214.003C329.059 220.162 323.947 225.201 317.7 225.201C311.452 225.201 306.34 220.162 306.34 214.003C306.34 207.845 311.452 202.806 317.7 202.806C320.824 202.806 323.664 204.066 325.935 206.305L317.7 216.523L312.872 211.484Z" fill="url(#paint1_radial_1250_71769)"/>
<path d="M286.63 245.523V245.094C286.63 243.234 287.127 241.82 288.122 240.852C289.117 239.878 290.401 239.391 291.973 239.391C293.541 239.391 294.822 239.878 295.817 240.852C296.817 241.82 297.317 243.234 297.317 245.094V245.523C297.317 247.383 296.817 248.799 295.817 249.773C294.817 250.747 293.536 251.234 291.973 251.234C290.406 251.234 289.122 250.747 288.122 249.773C287.127 248.799 286.63 247.383 286.63 245.523ZM287.911 245.523C287.911 247.039 288.281 248.19 289.02 248.977C289.765 249.758 290.749 250.148 291.973 250.148C293.192 250.148 294.174 249.758 294.919 248.977C295.664 248.19 296.036 247.039 296.036 245.523V245.094C296.036 243.583 295.664 242.438 294.919 241.656C294.174 240.87 293.192 240.477 291.973 240.477C290.749 240.477 289.765 240.87 289.02 241.656C288.281 242.438 287.911 243.583 287.911 245.094V245.523ZM298.481 243.805V242.828H306.372V243.805H303.043V251H301.817V243.805H298.481ZM311.645 251.234C310.254 251.234 309.225 250.974 308.559 250.453C307.892 249.927 307.559 249.242 307.559 248.398V248.359H308.746V248.398C308.746 248.898 308.957 249.326 309.379 249.68C309.806 250.034 310.556 250.211 311.629 250.211C312.567 250.211 313.264 250.07 313.723 249.789C314.186 249.503 314.418 249.122 314.418 248.648C314.418 248.227 314.264 247.901 313.957 247.672C313.65 247.443 313.194 247.328 312.59 247.328H310.168V246.359H312.363C312.983 246.359 313.434 246.245 313.715 246.016C314.001 245.781 314.145 245.461 314.145 245.055C314.145 244.607 313.949 244.255 313.559 244C313.168 243.745 312.569 243.617 311.762 243.617C310.788 243.617 310.072 243.784 309.613 244.117C309.16 244.445 308.934 244.88 308.934 245.422V245.469H307.754V245.422C307.754 244.552 308.098 243.865 308.785 243.359C309.473 242.849 310.462 242.594 311.754 242.594C312.957 242.594 313.863 242.81 314.473 243.242C315.082 243.674 315.387 244.245 315.387 244.953C315.387 245.411 315.246 245.797 314.965 246.109C314.689 246.417 314.311 246.638 313.832 246.773V246.797C314.358 246.885 314.793 247.083 315.137 247.391C315.486 247.698 315.66 248.128 315.66 248.68C315.66 249.461 315.298 250.083 314.574 250.547C313.856 251.005 312.879 251.234 311.645 251.234ZM319.199 242.828V245.633H322.066C323.082 245.633 323.863 245.867 324.41 246.336C324.962 246.799 325.238 247.456 325.238 248.305C325.238 249.117 324.962 249.771 324.41 250.266C323.863 250.755 323.082 251 322.066 251H317.98V242.828H319.199ZM322.058 246.609H319.199V250.023H322.058C322.772 250.023 323.275 249.865 323.566 249.547C323.858 249.229 324.004 248.812 324.004 248.297C324.004 247.792 323.858 247.385 323.566 247.078C323.275 246.766 322.772 246.609 322.058 246.609ZM326.519 251V242.828H327.73V251H326.519ZM330.394 251V242.828H334.949C335.834 242.828 336.514 243.01 336.988 243.375C337.467 243.74 337.707 244.281 337.707 245C337.707 245.458 337.582 245.841 337.332 246.148C337.087 246.451 336.759 246.659 336.347 246.773V246.797C336.832 246.885 337.23 247.091 337.542 247.414C337.855 247.737 338.011 248.148 338.011 248.648C338.011 249.393 337.759 249.971 337.253 250.383C336.753 250.794 336.066 251 335.191 251H330.394ZM331.613 246.359H334.949C335.49 246.359 335.878 246.245 336.113 246.016C336.347 245.781 336.464 245.458 336.464 245.047C336.464 244.661 336.347 244.359 336.113 244.141C335.878 243.917 335.488 243.805 334.941 243.805H331.613V246.359ZM331.613 250.023H335.191C335.738 250.023 336.139 249.898 336.394 249.648C336.649 249.393 336.777 249.055 336.777 248.633C336.777 248.242 336.647 247.927 336.386 247.688C336.131 247.448 335.733 247.328 335.191 247.328H331.613V250.023ZM341.558 242.828V245.633H344.425C345.441 245.633 346.222 245.867 346.769 246.336C347.321 246.799 347.597 247.456 347.597 248.305C347.597 249.117 347.321 249.771 346.769 250.266C346.222 250.755 345.441 251 344.425 251H340.339V242.828H341.558ZM344.417 246.609H341.558V250.023H344.417C345.131 250.023 345.633 249.865 345.925 249.547C346.217 249.229 346.363 248.812 346.363 248.297C346.363 247.792 346.217 247.385 345.925 247.078C345.633 246.766 345.131 246.609 344.417 246.609ZM348.878 251V242.828H350.089V251H348.878ZM273.427 267V258.828H274.646V264.508C274.646 264.664 274.641 264.839 274.63 265.031C274.625 265.219 274.62 265.391 274.615 265.547H274.677C274.75 265.401 274.828 265.258 274.912 265.117C275 264.971 275.102 264.826 275.216 264.68L279.802 258.828H281.044V267H279.818V261.32C279.818 261.164 279.82 260.992 279.826 260.805C279.836 260.612 279.846 260.438 279.857 260.281H279.794C279.727 260.417 279.649 260.56 279.56 260.711C279.471 260.857 279.37 261.005 279.255 261.156L274.669 267H273.427ZM287.927 270.258V258.828H289.044L289.098 260.039H289.114C289.401 259.664 289.828 259.344 290.395 259.078C290.963 258.807 291.622 258.672 292.372 258.672C293.601 258.672 294.578 259.06 295.302 259.836C296.026 260.612 296.388 261.596 296.388 262.789V263.039C296.388 264.232 296.026 265.216 295.302 265.992C294.578 266.768 293.601 267.156 292.372 267.156C291.622 267.156 290.979 267.039 290.442 266.805C289.906 266.565 289.473 266.26 289.145 265.891V270.258H287.927ZM289.145 264.594C289.364 264.995 289.723 265.352 290.223 265.664C290.729 265.977 291.335 266.133 292.044 266.133C293.111 266.133 293.893 265.849 294.388 265.281C294.882 264.708 295.13 263.958 295.13 263.031V262.789C295.13 261.867 294.882 261.122 294.388 260.555C293.893 259.982 293.111 259.695 292.044 259.695C291.335 259.695 290.731 259.852 290.231 260.164C289.731 260.477 289.369 260.833 289.145 261.234V264.594ZM298.028 263.039V262.789C298.028 261.555 298.421 260.547 299.208 259.766C299.999 258.984 301.043 258.594 302.34 258.594C303.632 258.594 304.624 258.953 305.317 259.672C306.015 260.391 306.364 261.38 306.364 262.641V263.156H298.708V262.172H305.137V262.195C305.137 261.398 304.916 260.771 304.473 260.312C304.036 259.849 303.319 259.617 302.325 259.617C301.314 259.617 300.549 259.911 300.028 260.5C299.507 261.089 299.247 261.852 299.247 262.789V263.039C299.247 263.971 299.517 264.734 300.059 265.328C300.606 265.917 301.458 266.211 302.614 266.211C303.275 266.211 303.846 266.099 304.325 265.875C304.804 265.651 305.189 265.375 305.481 265.047L306.278 265.734C305.981 266.109 305.52 266.453 304.895 266.766C304.27 267.078 303.51 267.234 302.614 267.234C301.14 267.234 300.007 266.844 299.215 266.062C298.424 265.281 298.028 264.273 298.028 263.039ZM308.363 267V258.828H309.582V264.508C309.582 264.664 309.577 264.839 309.567 265.031C309.561 265.219 309.556 265.391 309.551 265.547H309.613C309.686 265.401 309.764 265.258 309.848 265.117C309.936 264.971 310.038 264.826 310.153 264.68L314.738 258.828H315.981V267H314.754V261.32C314.754 261.164 314.757 260.992 314.762 260.805C314.772 260.612 314.783 260.438 314.793 260.281H314.731C314.663 260.417 314.585 260.56 314.496 260.711C314.408 260.857 314.306 261.005 314.192 261.156L309.606 267H308.363ZM312.145 256.578C312.546 256.578 312.874 256.458 313.129 256.219C313.384 255.979 313.598 255.612 313.77 255.117L314.707 255.664C314.494 256.263 314.163 256.724 313.715 257.047C313.272 257.37 312.749 257.531 312.145 257.531C311.535 257.531 311.009 257.37 310.567 257.047C310.124 256.724 309.793 256.263 309.574 255.664L310.52 255.109C310.686 255.615 310.897 255.987 311.153 256.227C311.413 256.461 311.744 256.578 312.145 256.578ZM317.762 259.805V258.828H325.652V259.805H322.324V267H321.097V259.805H317.762ZM327.425 267V258.828H328.644V264.508C328.644 264.664 328.639 264.839 328.628 265.031C328.623 265.219 328.618 265.391 328.613 265.547H328.675C328.748 265.401 328.826 265.258 328.91 265.117C328.998 264.971 329.1 264.826 329.214 264.68L333.8 258.828H335.042V267H333.816V261.32C333.816 261.164 333.819 260.992 333.824 260.805C333.834 260.612 333.845 260.438 333.855 260.281H333.792C333.725 260.417 333.647 260.56 333.558 260.711C333.47 260.857 333.368 261.005 333.253 261.156L328.667 267H327.425ZM337.714 258.828H338.933V262.344H344.019V258.828H345.245V267H344.019V263.32H338.933V267H337.714V258.828ZM347.909 258.828H354.159V259.805H349.128V267H347.909V258.828ZM355.948 267V258.828H357.167V264.508C357.167 264.664 357.161 264.839 357.151 265.031C357.146 265.219 357.141 265.391 357.135 265.547H357.198C357.271 265.401 357.349 265.258 357.432 265.117C357.521 264.971 357.622 264.826 357.737 264.68L362.323 258.828H363.565V267H362.338V261.32C362.338 261.164 362.341 260.992 362.346 260.805C362.357 260.612 362.367 260.438 362.378 260.281H362.315C362.247 260.417 362.169 260.56 362.081 260.711C361.992 260.857 361.891 261.005 361.776 261.156L357.19 267H355.948Z" fill="#04101C"/>
</g>
<g filter="url(#filter1_dd_1250_71769)">
<rect x="17" y="102" width="78" height="107" rx="12" fill="white"/>
<path d="M66.9647 155.1H64C63.5059 153.3 61.9 152.1 59.9235 152.1C57.5765 152.1 55.6 154.02 55.6 156.3C55.6 158.58 57.5765 160.5 59.9235 160.5C61.9 160.5 63.5059 159.3 64 157.5H66.9647C67.7059 157.5 68.2 156.9 68.2 156.3C68.2 155.58 67.7059 155.1 66.9647 155.1ZM59.9235 158.1C58.9353 158.1 58.0706 157.26 58.0706 156.3C58.0706 155.34 58.9353 154.5 59.9235 154.5C60.9118 154.5 61.7765 155.34 61.7765 156.3C61.7765 157.26 60.9118 158.1 59.9235 158.1Z" fill="url(#paint2_radial_1250_71769)"/>
<path d="M53.0085 154.9H44.1915C43.4766 154.9 43 155.6 43 156.3C43 157.14 43.5957 157.7 44.1915 157.7H53.0085C53.7234 157.7 54.2 157 54.2 156.3C54.2 155.46 53.6043 154.9 53.0085 154.9Z" fill="url(#paint3_radial_1250_71769)"/>
<path d="M44.1915 138.1H53.0085C53.7234 138.1 54.2 137.4 54.2 136.7C54.2 136 53.6043 135.3 53.0085 135.3H44.1915C43.4766 135.3 43 136 43 136.7C43 137.4 43.5957 138.1 44.1915 138.1Z" fill="url(#paint4_radial_1250_71769)"/>
<path d="M59.9235 140.9C61.9 140.9 63.5059 139.7 64 137.9H66.9647C67.7059 137.9 68.2 137.3 68.2 136.7C68.2 136.1 67.5824 135.5 66.9647 135.5H64C63.5059 133.7 61.9 132.5 59.9235 132.5C57.5765 132.5 55.6 134.42 55.6 136.7C55.6 138.98 57.5765 140.9 59.9235 140.9ZM59.9235 134.9C60.9118 134.9 61.7765 135.74 61.7765 136.7C61.7765 137.66 60.9118 138.5 59.9235 138.5C58.9353 138.5 58.0706 137.66 58.0706 136.7C58.0706 135.74 58.9353 134.9 59.9235 134.9Z" fill="url(#paint5_radial_1250_71769)"/>
<path d="M44.2353 147.7H47.2C47.6941 149.38 49.3 150.7 51.2765 150.7C53.6235 150.7 55.6 148.78 55.6 146.5C55.6 144.22 53.6235 142.3 51.2765 142.3C49.3 142.3 47.6941 143.5 47.2 145.3H44.2353C43.4941 145.3 43 145.9 43 146.5C43 147.1 43.6176 147.7 44.2353 147.7ZM51.2765 144.7C52.2647 144.7 53.1294 145.54 53.1294 146.5C53.1294 147.46 52.2647 148.3 51.2765 148.3C50.2882 148.3 49.4235 147.46 49.4235 146.5C49.4235 145.54 50.2882 144.7 51.2765 144.7Z" fill="url(#paint6_radial_1250_71769)"/>
<path d="M66.9957 145.1H58.2043C57.4817 145.1 57 145.8 57 146.5C57 147.2 57.6022 147.9 58.2043 147.9H66.9957C67.7183 147.9 68.2 147.2 68.2 146.5C68.2 145.8 67.7183 145.1 66.9957 145.1Z" fill="url(#paint7_radial_1250_71769)"/>
<path d="M37.5081 178.023V177.594C37.5081 175.734 38.0055 174.32 39.0003 173.352C39.9951 172.378 41.279 171.891 42.8519 171.891C44.4196 171.891 45.7008 172.378 46.6956 173.352C47.6956 174.32 48.1956 175.734 48.1956 177.594V178.023C48.1956 179.883 47.6956 181.299 46.6956 182.273C45.6956 183.247 44.4144 183.734 42.8519 183.734C41.2842 183.734 40.0003 183.247 39.0003 182.273C38.0055 181.299 37.5081 179.883 37.5081 178.023ZM38.7894 178.023C38.7894 179.539 39.1592 180.69 39.8988 181.477C40.6435 182.258 41.6279 182.648 42.8519 182.648C44.0706 182.648 45.0524 182.258 45.7972 181.477C46.542 180.69 46.9144 179.539 46.9144 178.023V177.594C46.9144 176.083 46.542 174.938 45.7972 174.156C45.0524 173.37 44.0706 172.977 42.8519 172.977C41.6279 172.977 40.6435 173.37 39.8988 174.156C39.1592 174.938 38.7894 176.083 38.7894 177.594V178.023ZM50.7422 183.5V172.125H54.8281C56.1667 172.125 57.1927 172.419 57.9062 173.008C58.6198 173.591 58.9766 174.401 58.9766 175.438C58.9766 176.474 58.6198 177.292 57.9062 177.891C57.1927 178.484 56.1667 178.781 54.8281 178.781H52.0078V183.5H50.7422ZM52.0078 177.742H54.8281C55.901 177.742 56.6484 177.531 57.0703 177.109C57.4974 176.682 57.7109 176.125 57.7109 175.438C57.7109 174.75 57.4974 174.201 57.0703 173.789C56.6484 173.372 55.901 173.164 54.8281 173.164H52.0078V177.742ZM58.1406 183.5L55.0469 178.273L56.3828 178.133L59.6172 183.5H58.1406ZM61.6091 183.5V172.125H63.2419L67.3981 181.203C67.471 181.359 67.544 181.521 67.6169 181.688C67.6898 181.849 67.7497 181.992 67.7966 182.117H67.8591C67.9111 181.992 67.971 181.849 68.0387 181.688C68.1065 181.521 68.1768 181.359 68.2497 181.203L72.4216 172.125H74.0466V183.5H72.8122V174.703C72.8122 174.552 72.8174 174.38 72.8278 174.188C72.8434 173.99 72.8591 173.812 72.8747 173.656H72.8122C72.7705 173.812 72.7132 173.99 72.6403 174.188C72.5726 174.38 72.5049 174.552 72.4372 174.703L68.3981 183.5H67.2184L63.1872 174.711C63.1143 174.555 63.0414 174.38 62.9684 174.188C62.8955 173.99 62.8408 173.812 62.8044 173.656H62.7419C62.7575 173.812 62.7705 173.99 62.7809 174.188C62.7966 174.38 62.8044 174.555 62.8044 174.711V183.5H61.6091Z" fill="#04101C"/>
</g>
<defs>
<filter id="filter0_dd_1250_71769" x="251" y="163.5" width="135" height="142.5" filterUnits="userSpaceOnUse" color-interpolation-filters="sRGB">
<feFlood flood-opacity="0" result="BackgroundImageFix"/>
<feColorMatrix in="SourceAlpha" type="matrix" values="0 0 0 0 0 0 0 0 0 0 0 0 0 0 0 0 0 0 127 0" result="hardAlpha"/>
<feOffset dy="4"/>
<feGaussianBlur stdDeviation="4"/>
<feComposite in2="hardAlpha" operator="out"/>
<feColorMatrix type="matrix" values="0 0 0 0 0 0 0 0 0 0 0 0 0 0 0 0 0 0 0.08 0"/>
<feBlend mode="normal" in2="BackgroundImageFix" result="effect1_dropShadow_1250_71769"/>
<feColorMatrix in="SourceAlpha" type="matrix" values="0 0 0 0 0 0 0 0 0 0 0 0 0 0 0 0 0 0 127 0" result="hardAlpha"/>
<feOffset dy="-0.5"/>
<feGaussianBlur stdDeviation="2"/>
<feComposite in2="hardAlpha" operator="out"/>
<feColorMatrix type="matrix" values="0 0 0 0 0 0 0 0 0 0 0 0 0 0 0 0 0 0 0.05 0"/>
<feBlend mode="normal" in2="effect1_dropShadow_1250_71769" result="effect2_dropShadow_1250_71769"/>
<feBlend mode="normal" in="SourceGraphic" in2="effect2_dropShadow_1250_71769" result="shape"/>
</filter>
<filter id="filter1_dd_1250_71769" x="9" y="97.5" width="94" height="123.5" filterUnits="userSpaceOnUse" color-interpolation-filters="sRGB">
<feFlood flood-opacity="0" result="BackgroundImageFix"/>
<feColorMatrix in="SourceAlpha" type="matrix" values="0 0 0 0 0 0 0 0 0 0 0 0 0 0 0 0 0 0 127 0" result="hardAlpha"/>
<feOffset dy="4"/>
<feGaussianBlur stdDeviation="4"/>
<feComposite in2="hardAlpha" operator="out"/>
<feColorMatrix type="matrix" values="0 0 0 0 0 0 0 0 0 0 0 0 0 0 0 0 0 0 0.08 0"/>
<feBlend mode="normal" in2="BackgroundImageFix" result="effect1_dropShadow_1250_71769"/>
<feColorMatrix in="SourceAlpha" type="matrix" values="0 0 0 0 0 0 0 0 0 0 0 0 0 0 0 0 0 0 127 0" result="hardAlpha"/>
<feOffset dy="-0.5"/>
<feGaussianBlur stdDeviation="2"/>
<feComposite in2="hardAlpha" operator="out"/>
<feColorMatrix type="matrix" values="0 0 0 0 0 0 0 0 0 0 0 0 0 0 0 0 0 0 0.05 0"/>
<feBlend mode="normal" in2="effect1_dropShadow_1250_71769" result="effect2_dropShadow_1250_71769"/>
<feBlend mode="normal" in="SourceGraphic" in2="effect2_dropShadow_1250_71769" result="shape"/>
</filter>
<linearGradient id="paint0_linear_1250_71769" x1="671.232" y1="140.462" x2="41.9183" y2="272.923" gradientUnits="userSpaceOnUse">
<stop offset="0.338542" stop-color="#7A73FF"/>
<stop offset="0.734375" stop-color="#75CDFF"/>
<stop offset="1" stop-color="#4AFCF1"/>
</linearGradient>
<radialGradient id="paint1_radial_1250_71769" cx="0" cy="0" r="1" gradientUnits="userSpaceOnUse" gradientTransform="translate(318.2 214) rotate(100.204) scale(17.7812 18.6158)">
<stop offset="0.055" stop-color="#7A73FF"/>
<stop offset="0.65" stop-color="#67DDFA"/>
<stop offset="1" stop-color="#4AFCF1"/>
</radialGradient>
<radialGradient id="paint2_radial_1250_71769" cx="0" cy="0" r="1" gradientUnits="userSpaceOnUse" gradientTransform="translate(55.6 146.5) rotate(98.7708) scale(17.7071 16.0233)">
<stop offset="0.055" stop-color="#7A73FF"/>
<stop offset="0.65" stop-color="#67DDFA"/>
<stop offset="1" stop-color="#4AFCF1"/>
</radialGradient>
<radialGradient id="paint3_radial_1250_71769" cx="0" cy="0" r="1" gradientUnits="userSpaceOnUse" gradientTransform="translate(55.6 146.5) rotate(98.7708) scale(17.7071 16.0233)">
<stop offset="0.055" stop-color="#7A73FF"/>
<stop offset="0.65" stop-color="#67DDFA"/>
<stop offset="1" stop-color="#4AFCF1"/>
</radialGradient>
<radialGradient id="paint4_radial_1250_71769" cx="0" cy="0" r="1" gradientUnits="userSpaceOnUse" gradientTransform="translate(55.6 146.5) rotate(98.7708) scale(17.7071 16.0233)">
<stop offset="0.055" stop-color="#7A73FF"/>
<stop offset="0.65" stop-color="#67DDFA"/>
<stop offset="1" stop-color="#4AFCF1"/>
</radialGradient>
<radialGradient id="paint5_radial_1250_71769" cx="0" cy="0" r="1" gradientUnits="userSpaceOnUse" gradientTransform="translate(55.6 146.5) rotate(98.7708) scale(17.7071 16.0233)">
<stop offset="0.055" stop-color="#7A73FF"/>
<stop offset="0.65" stop-color="#67DDFA"/>
<stop offset="1" stop-color="#4AFCF1"/>
</radialGradient>
<radialGradient id="paint6_radial_1250_71769" cx="0" cy="0" r="1" gradientUnits="userSpaceOnUse" gradientTransform="translate(55.6 146.5) rotate(98.7708) scale(17.7071 16.0233)">
<stop offset="0.055" stop-color="#7A73FF"/>
<stop offset="0.65" stop-color="#67DDFA"/>
<stop offset="1" stop-color="#4AFCF1"/>
</radialGradient>
<radialGradient id="paint7_radial_1250_71769" cx="0" cy="0" r="1" gradientUnits="userSpaceOnUse" gradientTransform="translate(55.6 146.5) rotate(98.7708) scale(17.7071 16.0233)">
<stop offset="0.055" stop-color="#7A73FF"/>
<stop offset="0.65" stop-color="#67DDFA"/>
<stop offset="1" stop-color="#4AFCF1"/>
</radialGradient>
</defs>
</svg>
