<svg width="307" height="165" viewBox="0 0 307 165" fill="none" xmlns="http://www.w3.org/2000/svg">
<g filter="url(#filter0_dd_443_64440)">
<rect x="8" y="38.6514" width="68" height="94" rx="12" fill="white"/>
<path d="M52.9647 85.2514H50C49.5059 83.4514 47.9 82.2514 45.9235 82.2514C43.5765 82.2514 41.6 84.1714 41.6 86.4514C41.6 88.7314 43.5765 90.6514 45.9235 90.6514C47.9 90.6514 49.5059 89.4514 50 87.6514H52.9647C53.7059 87.6514 54.2 87.0514 54.2 86.4514C54.2 85.7314 53.7059 85.2514 52.9647 85.2514ZM45.9235 88.2514C44.9353 88.2514 44.0706 87.4114 44.0706 86.4514C44.0706 85.4914 44.9353 84.6514 45.9235 84.6514C46.9118 84.6514 47.7765 85.4914 47.7765 86.4514C47.7765 87.4114 46.9118 88.2514 45.9235 88.2514Z" fill="url(#paint0_radial_443_64440)"/>
<path d="M39.0085 85.0514H30.1915C29.4766 85.0514 29 85.7514 29 86.4514C29 87.2914 29.5957 87.8514 30.1915 87.8514H39.0085C39.7234 87.8514 40.2 87.1514 40.2 86.4514C40.2 85.6114 39.6043 85.0514 39.0085 85.0514Z" fill="url(#paint1_radial_443_64440)"/>
<path d="M30.1915 68.2514H39.0085C39.7234 68.2514 40.2 67.5514 40.2 66.8514C40.2 66.1514 39.6043 65.4514 39.0085 65.4514H30.1915C29.4766 65.4514 29 66.1514 29 66.8514C29 67.5514 29.5957 68.2514 30.1915 68.2514Z" fill="url(#paint2_radial_443_64440)"/>
<path d="M45.9235 71.0514C47.9 71.0514 49.5059 69.8514 50 68.0514H52.9647C53.7059 68.0514 54.2 67.4514 54.2 66.8514C54.2 66.2514 53.5824 65.6514 52.9647 65.6514H50C49.5059 63.8514 47.9 62.6514 45.9235 62.6514C43.5765 62.6514 41.6 64.5714 41.6 66.8514C41.6 69.1314 43.5765 71.0514 45.9235 71.0514ZM45.9235 65.0514C46.9118 65.0514 47.7765 65.8914 47.7765 66.8514C47.7765 67.8114 46.9118 68.6514 45.9235 68.6514C44.9353 68.6514 44.0706 67.8114 44.0706 66.8514C44.0706 65.8914 44.9353 65.0514 45.9235 65.0514Z" fill="url(#paint3_radial_443_64440)"/>
<path d="M30.2353 77.8514H33.2C33.6941 79.5314 35.3 80.8514 37.2765 80.8514C39.6235 80.8514 41.6 78.9314 41.6 76.6514C41.6 74.3714 39.6235 72.4514 37.2765 72.4514C35.3 72.4514 33.6941 73.6514 33.2 75.4514H30.2353C29.4941 75.4514 29 76.0514 29 76.6514C29 77.2514 29.6176 77.8514 30.2353 77.8514ZM37.2765 74.8514C38.2647 74.8514 39.1294 75.6914 39.1294 76.6514C39.1294 77.6114 38.2647 78.4514 37.2765 78.4514C36.2882 78.4514 35.4235 77.6114 35.4235 76.6514C35.4235 75.6914 36.2882 74.8514 37.2765 74.8514Z" fill="url(#paint4_radial_443_64440)"/>
<path d="M52.9957 75.2514H44.2043C43.4817 75.2514 43 75.9514 43 76.6514C43 77.3514 43.6022 78.0514 44.2043 78.0514H52.9957C53.7183 78.0514 54.2 77.3514 54.2 76.6514C54.2 75.9514 53.7183 75.2514 52.9957 75.2514Z" fill="url(#paint5_radial_443_64440)"/>
<path d="M28.2717 108.603V108.169C28.2717 106.833 28.6389 105.796 29.3733 105.058C30.1077 104.315 31.0491 103.944 32.1975 103.944C33.3498 103.944 34.2932 104.315 35.0276 105.058C35.762 105.796 36.1291 106.833 36.1291 108.169V108.603C36.1291 109.938 35.762 110.978 35.0276 111.72C34.2932 112.458 33.3498 112.827 32.1975 112.827C31.0491 112.827 30.1077 112.458 29.3733 111.72C28.6389 110.978 28.2717 109.938 28.2717 108.603ZM29.4495 108.603C29.4495 109.618 29.6995 110.411 30.1995 110.981C30.7034 111.548 31.3713 111.831 32.2034 111.831C33.0315 111.831 33.6975 111.548 34.2014 110.981C34.7053 110.411 34.9573 109.618 34.9573 108.603V108.169C34.9573 107.153 34.7053 106.362 34.2014 105.796C33.6975 105.226 33.0315 104.94 32.2034 104.94C31.3713 104.94 30.7034 105.226 30.1995 105.796C29.6995 106.362 29.4495 107.153 29.4495 108.169V108.603ZM38.0742 112.651V104.12H41.1035C42.0957 104.12 42.8633 104.349 43.4062 104.806C43.9492 105.263 44.2207 105.876 44.2207 106.646C44.2207 107.415 43.9492 108.034 43.4062 108.503C42.8633 108.972 42.0957 109.206 41.1035 109.206H39.2402V112.651H38.0742ZM39.2402 108.257H41.1035C41.834 108.257 42.3418 108.103 42.627 107.794C42.9121 107.481 43.0547 107.099 43.0547 106.646C43.0547 106.192 42.9121 105.817 42.627 105.521C42.3418 105.22 41.834 105.069 41.1035 105.069H39.2402V108.257ZM43.3652 112.651L41.127 108.72L42.3223 108.573L44.6953 112.651H43.3652ZM46.2009 112.651V104.12H47.7244L50.4959 110.536C50.5466 110.653 50.5955 110.776 50.6423 110.905C50.6931 111.03 50.738 111.147 50.7771 111.257H50.824C50.8591 111.147 50.9002 111.03 50.947 110.905C50.9939 110.776 51.0427 110.653 51.0935 110.536L53.8474 104.12H55.4002V112.651H54.2752V106.382C54.2752 106.265 54.2771 106.134 54.281 105.989C54.2888 105.841 54.3005 105.708 54.3162 105.591H54.2634C54.2322 105.708 54.1892 105.841 54.1345 105.989C54.0837 106.134 54.033 106.265 53.9822 106.382L51.2986 112.651H50.2615L47.5603 106.382C47.5095 106.265 47.4587 106.134 47.408 105.989C47.3611 105.841 47.324 105.708 47.2966 105.591H47.2439C47.2556 105.708 47.2654 105.841 47.2732 105.989C47.2849 106.134 47.2908 106.265 47.2908 106.382V112.651H46.2009Z" fill="#04101C"/>
</g>
<g filter="url(#filter1_dd_443_64440)">
<rect x="224" y="39" width="75" height="94" rx="12" fill="white"/>
<path d="M269.928 80.1343C267.002 80.1343 264.495 82.5025 264.495 85.5672C264.495 88.4925 266.863 91 269.928 91C272.853 91 275.361 88.6318 275.361 85.5672C275.361 82.5025 272.993 80.1343 269.928 80.1343ZM269.928 88.0746C268.535 88.0746 267.281 86.9602 267.281 85.4279C267.281 84.0348 268.396 82.7811 269.928 82.7811C271.321 82.7811 272.575 83.8955 272.575 85.4279C272.575 86.9602 271.46 88.0746 269.928 88.0746Z" fill="url(#paint6_radial_443_64440)"/>
<path d="M259.619 74.7015C259.759 74.7015 260.037 74.7015 260.177 74.5622L265.749 71.7761C266.724 73.0299 268.256 73.8657 269.928 73.8657C272.993 73.7264 275.361 71.3582 275.361 68.4328C275.361 65.5075 272.993 63 269.928 63C267.002 63 264.495 65.3682 264.495 68.4328C264.495 68.7114 264.495 68.99 264.634 69.2687L258.923 72.0547C258.226 72.4726 257.948 73.3085 258.366 73.8657C258.505 74.4229 259.062 74.7015 259.619 74.7015ZM269.928 65.7861C271.321 65.7861 272.575 66.9005 272.575 68.4328C272.575 69.8259 271.46 71.0796 269.928 71.0796C268.535 71.0796 267.281 69.9652 267.281 68.4328C267.42 66.9005 268.535 65.7861 269.928 65.7861Z" fill="url(#paint7_radial_443_64440)"/>
<path d="M263.799 81.1095L258.087 78.3234C258.226 77.9055 258.226 77.4876 258.226 76.9303C258.226 74.005 255.858 71.4975 252.794 71.4975C249.729 71.4975 247.5 74.005 247.5 76.9303C247.5 79.8557 249.868 82.3632 252.933 82.3632C254.465 82.3632 255.858 81.806 256.833 80.6915L262.684 83.6169C262.823 83.7562 263.102 83.7562 263.241 83.7562C263.799 83.7562 264.216 83.4776 264.495 82.9204C264.774 82.3632 264.495 81.5274 263.799 81.1095ZM252.933 79.5771C251.4 79.5771 250.286 78.3234 250.286 76.9303C250.286 75.5373 251.4 74.2836 252.933 74.2836C254.326 74.2836 255.58 75.398 255.58 76.9303C255.44 78.3234 254.326 79.5771 252.933 79.5771Z" fill="url(#paint8_radial_443_64440)"/>
<path d="M242.648 110.656V110.586H243.808V110.65C243.808 111.162 244.001 111.545 244.388 111.799C244.779 112.053 245.326 112.18 246.029 112.18C246.728 112.18 247.263 112.051 247.634 111.793C248.009 111.531 248.197 111.188 248.197 110.762C248.197 110.379 248.023 110.074 247.675 109.848C247.331 109.617 246.644 109.371 245.613 109.109C244.57 108.844 243.845 108.531 243.439 108.172C243.036 107.812 242.835 107.299 242.835 106.631C242.835 105.963 243.111 105.406 243.661 104.961C244.216 104.516 244.984 104.293 245.964 104.293C246.941 104.293 247.718 104.531 248.296 105.008C248.874 105.484 249.163 106.076 249.163 106.783V106.848H248.003V106.783C248.003 106.334 247.831 105.973 247.488 105.699C247.148 105.426 246.64 105.289 245.964 105.289C245.288 105.289 244.788 105.406 244.464 105.641C244.144 105.871 243.984 106.186 243.984 106.584C243.984 106.951 244.146 107.242 244.47 107.457C244.798 107.668 245.456 107.896 246.445 108.143C247.48 108.404 248.222 108.729 248.671 109.115C249.12 109.502 249.345 110.049 249.345 110.756C249.345 111.463 249.046 112.043 248.449 112.496C247.855 112.949 247.048 113.176 246.029 113.176C245.005 113.176 244.185 112.951 243.568 112.502C242.954 112.049 242.648 111.434 242.648 110.656ZM251.085 113V104.469H252.609L255.38 110.885C255.431 111.002 255.48 111.125 255.526 111.254C255.577 111.379 255.622 111.496 255.661 111.605H255.708C255.743 111.496 255.784 111.379 255.831 111.254C255.878 111.125 255.927 111.002 255.978 110.885L258.732 104.469H260.284V113H259.159V106.73C259.159 106.613 259.161 106.482 259.165 106.338C259.173 106.189 259.185 106.057 259.2 105.939H259.148C259.116 106.057 259.073 106.189 259.019 106.338C258.968 106.482 258.917 106.613 258.866 106.73L256.183 113H255.146L252.444 106.73C252.394 106.613 252.343 106.482 252.292 106.338C252.245 106.189 252.208 106.057 252.181 105.939H252.128C252.14 106.057 252.15 106.189 252.157 106.338C252.169 106.482 252.175 106.613 252.175 106.73V113H251.085ZM262.552 113V104.469H265.581C266.573 104.469 267.341 104.697 267.884 105.154C268.427 105.611 268.698 106.225 268.698 106.994C268.698 107.764 268.427 108.383 267.884 108.852C267.341 109.32 266.573 109.555 265.581 109.555H263.718V113H262.552ZM263.718 108.605H265.581C266.311 108.605 266.819 108.451 267.104 108.143C267.39 107.83 267.532 107.447 267.532 106.994C267.532 106.541 267.39 106.166 267.104 105.869C266.819 105.568 266.311 105.418 265.581 105.418H263.718V108.605ZM267.843 113L265.604 109.068L266.8 108.922L269.173 113H267.843ZM270.678 113V104.469H272.202L274.973 110.885C275.024 111.002 275.073 111.125 275.12 111.254C275.171 111.379 275.215 111.496 275.255 111.605H275.301C275.337 111.496 275.378 111.379 275.424 111.254C275.471 111.125 275.52 111.002 275.571 110.885L278.325 104.469H279.878V113H278.753V106.73C278.753 106.613 278.755 106.482 278.758 106.338C278.766 106.189 278.778 106.057 278.794 105.939H278.741C278.71 106.057 278.667 106.189 278.612 106.338C278.561 106.482 278.51 106.613 278.46 106.73L275.776 113H274.739L272.038 106.73C271.987 106.613 271.936 106.482 271.885 106.338C271.839 106.189 271.801 106.057 271.774 105.939H271.721C271.733 106.057 271.743 106.189 271.751 106.338C271.762 106.482 271.768 106.613 271.768 106.73V113H270.678Z" fill="#04101C"/>
</g>
<path d="M170 81L224 81" stroke="url(#paint9_linear_443_64440)" stroke-width="2"/>
<path d="M40 38.6515V32C40 23.1634 47.1634 16 56 16L138 16C146.837 16 154 23.1634 154 32V38.6515" stroke="url(#paint10_linear_443_64440)" stroke-width="2"/>
<g filter="url(#filter2_dd_443_64440)">
<rect x="109" y="38.6514" width="88" height="94" rx="12" fill="white"/>
<path d="M142.02 90.6514C141.32 90.6514 140.76 90.3714 140.2 89.9514C139.5 89.2514 139.36 88.2714 139.64 87.4314L141.04 83.0914C140.06 81.1314 139.5 78.8914 139.5 76.6514C139.5 68.9514 145.8 62.6514 153.5 62.6514C161.2 62.6514 167.5 68.9514 167.5 76.6514C167.5 84.3514 161.2 90.6514 153.5 90.6514C151.26 90.6514 149.02 90.0914 147.06 89.1114L142.72 90.5114C142.58 90.6514 142.3 90.6514 142.02 90.6514ZM147.9 86.3114C149.58 87.2914 151.54 87.8514 153.5 87.8514C159.66 87.8514 164.7 82.8114 164.7 76.6514C164.7 70.4914 159.66 65.4514 153.5 65.4514C147.34 65.4514 142.3 70.4914 142.3 76.6514C142.3 78.6114 142.86 80.5714 143.84 82.2514C143.98 82.5314 144.12 82.9514 143.98 83.3714L142.58 87.7114L146.92 86.3114C146.92 86.3114 147.763 86.2429 147.9 86.3114Z" fill="url(#paint11_radial_443_64440)"/>
<path d="M153.5 78.8914C154.737 78.8914 155.74 77.8885 155.74 76.6514C155.74 75.4142 154.737 74.4114 153.5 74.4114C152.263 74.4114 151.26 75.4142 151.26 76.6514C151.26 77.8885 152.263 78.8914 153.5 78.8914Z" fill="url(#paint12_radial_443_64440)"/>
<path d="M146.64 78.8914C147.877 78.8914 148.88 77.8885 148.88 76.6514C148.88 75.4142 147.877 74.4114 146.64 74.4114C145.403 74.4114 144.4 75.4142 144.4 76.6514C144.4 77.8885 145.403 78.8914 146.64 78.8914Z" fill="url(#paint13_radial_443_64440)"/>
<path d="M160.36 78.8914C161.597 78.8914 162.6 77.8885 162.6 76.6514C162.6 75.4142 161.597 74.4114 160.36 74.4114C159.123 74.4114 158.12 75.4142 158.12 76.6514C158.12 77.8885 159.123 78.8914 160.36 78.8914Z" fill="url(#paint14_radial_443_64440)"/>
<path d="M127.706 108.603V108.169C127.706 106.833 128.071 105.796 128.801 105.058C129.536 104.315 130.456 103.944 131.561 103.944C132.655 103.944 133.505 104.22 134.11 104.771C134.716 105.317 135.044 105.995 135.094 106.804L135.1 106.862H133.934L133.928 106.804C133.901 106.288 133.692 105.849 133.301 105.485C132.915 105.122 132.335 104.94 131.561 104.94C130.78 104.94 130.137 105.218 129.634 105.772C129.134 106.323 128.884 107.122 128.884 108.169V108.603C128.884 109.622 129.134 110.415 129.634 110.981C130.137 111.548 130.78 111.831 131.561 111.831C132.335 111.831 132.909 111.646 133.284 111.274C133.663 110.899 133.878 110.464 133.928 109.968L133.934 109.909H135.1L135.094 109.968C135.012 110.765 134.678 111.44 134.093 111.995C133.507 112.55 132.663 112.827 131.561 112.827C130.456 112.827 129.536 112.46 128.801 111.726C128.071 110.987 127.706 109.946 127.706 108.603ZM136.096 109.628V109.44C136.096 108.499 136.391 107.731 136.981 107.138C137.575 106.54 138.368 106.241 139.36 106.241C140.348 106.241 141.139 106.54 141.733 107.138C142.327 107.731 142.624 108.499 142.624 109.44V109.628C142.624 110.569 142.327 111.339 141.733 111.937C141.139 112.53 140.348 112.827 139.36 112.827C138.368 112.827 137.575 112.53 136.981 111.937C136.391 111.339 136.096 110.569 136.096 109.628ZM137.245 109.44V109.628C137.245 110.269 137.422 110.808 137.778 111.245C138.133 111.683 138.661 111.901 139.36 111.901C140.059 111.901 140.584 111.683 140.936 111.245C141.291 110.808 141.469 110.269 141.469 109.628V109.44C141.469 108.796 141.291 108.257 140.936 107.823C140.584 107.386 140.059 107.167 139.36 107.167C138.661 107.167 138.133 107.386 137.778 107.823C137.422 108.257 137.245 108.796 137.245 109.44ZM149.643 114.233V112.651H144.264V106.417H145.389V111.767H148.612V106.417H149.737V111.767H150.674V114.233H149.643ZM151.564 109.628V109.44C151.564 108.499 151.848 107.731 152.414 107.138C152.984 106.54 153.768 106.241 154.764 106.241C155.686 106.241 156.385 106.466 156.861 106.915C157.342 107.36 157.582 107.86 157.582 108.415V108.444H156.469V108.409C156.469 108.077 156.334 107.786 156.064 107.536C155.799 107.286 155.365 107.161 154.764 107.161C154.061 107.161 153.543 107.38 153.211 107.817C152.879 108.255 152.713 108.796 152.713 109.44V109.628C152.713 110.272 152.879 110.813 153.211 111.251C153.543 111.685 154.061 111.901 154.764 111.901C155.365 111.901 155.799 111.778 156.064 111.532C156.334 111.286 156.469 110.993 156.469 110.653V110.624H157.582V110.653C157.582 111.204 157.342 111.704 156.861 112.153C156.385 112.603 155.686 112.827 154.764 112.827C153.768 112.827 152.984 112.53 152.414 111.937C151.848 111.339 151.564 110.569 151.564 109.628ZM158.66 109.628V109.44C158.66 108.499 158.945 107.731 159.515 107.138C160.09 106.54 160.847 106.241 161.789 106.241C162.734 106.241 163.461 106.521 163.969 107.079C164.476 107.634 164.73 108.386 164.73 109.335V109.798H159.328V108.901H163.599V108.872C163.599 108.372 163.457 107.962 163.172 107.642C162.886 107.321 162.429 107.161 161.801 107.161C161.14 107.161 160.64 107.38 160.301 107.817C159.961 108.255 159.791 108.796 159.791 109.44V109.628C159.791 110.272 159.969 110.813 160.324 111.251C160.683 111.688 161.236 111.907 161.982 111.907C162.435 111.907 162.826 111.821 163.154 111.649C163.482 111.474 163.746 111.267 163.945 111.028L164.672 111.626C164.453 111.919 164.113 112.192 163.652 112.446C163.195 112.7 162.638 112.827 161.982 112.827C160.908 112.827 160.086 112.53 159.515 111.937C158.945 111.339 158.66 110.569 158.66 109.628ZM165.574 107.302V106.417H171.14V107.302H168.919V112.651H167.794V107.302H165.574ZM172.47 112.651V106.417H173.583V110.39C173.583 110.507 173.581 110.64 173.577 110.788C173.577 110.937 173.575 111.071 173.572 111.192H173.618C173.673 111.087 173.734 110.976 173.8 110.858C173.866 110.741 173.943 110.624 174.029 110.507L176.964 106.417H178.095V112.651H176.976V108.685C176.976 108.563 176.978 108.429 176.982 108.28C176.986 108.128 176.991 107.991 176.999 107.87H176.935C176.884 107.972 176.825 108.083 176.759 108.204C176.693 108.325 176.618 108.444 176.536 108.562L173.601 112.651H172.47Z" fill="#04101C"/>
</g>
<defs>
<filter id="filter0_dd_443_64440" x="0" y="34.1514" width="84" height="110.5" filterUnits="userSpaceOnUse" color-interpolation-filters="sRGB">
<feFlood flood-opacity="0" result="BackgroundImageFix"/>
<feColorMatrix in="SourceAlpha" type="matrix" values="0 0 0 0 0 0 0 0 0 0 0 0 0 0 0 0 0 0 127 0" result="hardAlpha"/>
<feOffset dy="4"/>
<feGaussianBlur stdDeviation="4"/>
<feComposite in2="hardAlpha" operator="out"/>
<feColorMatrix type="matrix" values="0 0 0 0 0 0 0 0 0 0 0 0 0 0 0 0 0 0 0.08 0"/>
<feBlend mode="normal" in2="BackgroundImageFix" result="effect1_dropShadow_443_64440"/>
<feColorMatrix in="SourceAlpha" type="matrix" values="0 0 0 0 0 0 0 0 0 0 0 0 0 0 0 0 0 0 127 0" result="hardAlpha"/>
<feOffset dy="-0.5"/>
<feGaussianBlur stdDeviation="2"/>
<feComposite in2="hardAlpha" operator="out"/>
<feColorMatrix type="matrix" values="0 0 0 0 0 0 0 0 0 0 0 0 0 0 0 0 0 0 0.05 0"/>
<feBlend mode="normal" in2="effect1_dropShadow_443_64440" result="effect2_dropShadow_443_64440"/>
<feBlend mode="normal" in="SourceGraphic" in2="effect2_dropShadow_443_64440" result="shape"/>
</filter>
<filter id="filter1_dd_443_64440" x="216" y="34.5" width="91" height="110.5" filterUnits="userSpaceOnUse" color-interpolation-filters="sRGB">
<feFlood flood-opacity="0" result="BackgroundImageFix"/>
<feColorMatrix in="SourceAlpha" type="matrix" values="0 0 0 0 0 0 0 0 0 0 0 0 0 0 0 0 0 0 127 0" result="hardAlpha"/>
<feOffset dy="4"/>
<feGaussianBlur stdDeviation="4"/>
<feComposite in2="hardAlpha" operator="out"/>
<feColorMatrix type="matrix" values="0 0 0 0 0 0 0 0 0 0 0 0 0 0 0 0 0 0 0.08 0"/>
<feBlend mode="normal" in2="BackgroundImageFix" result="effect1_dropShadow_443_64440"/>
<feColorMatrix in="SourceAlpha" type="matrix" values="0 0 0 0 0 0 0 0 0 0 0 0 0 0 0 0 0 0 127 0" result="hardAlpha"/>
<feOffset dy="-0.5"/>
<feGaussianBlur stdDeviation="2"/>
<feComposite in2="hardAlpha" operator="out"/>
<feColorMatrix type="matrix" values="0 0 0 0 0 0 0 0 0 0 0 0 0 0 0 0 0 0 0.05 0"/>
<feBlend mode="normal" in2="effect1_dropShadow_443_64440" result="effect2_dropShadow_443_64440"/>
<feBlend mode="normal" in="SourceGraphic" in2="effect2_dropShadow_443_64440" result="shape"/>
</filter>
<filter id="filter2_dd_443_64440" x="101" y="34.1514" width="104" height="110.5" filterUnits="userSpaceOnUse" color-interpolation-filters="sRGB">
<feFlood flood-opacity="0" result="BackgroundImageFix"/>
<feColorMatrix in="SourceAlpha" type="matrix" values="0 0 0 0 0 0 0 0 0 0 0 0 0 0 0 0 0 0 127 0" result="hardAlpha"/>
<feOffset dy="4"/>
<feGaussianBlur stdDeviation="4"/>
<feComposite in2="hardAlpha" operator="out"/>
<feColorMatrix type="matrix" values="0 0 0 0 0 0 0 0 0 0 0 0 0 0 0 0 0 0 0.08 0"/>
<feBlend mode="normal" in2="BackgroundImageFix" result="effect1_dropShadow_443_64440"/>
<feColorMatrix in="SourceAlpha" type="matrix" values="0 0 0 0 0 0 0 0 0 0 0 0 0 0 0 0 0 0 127 0" result="hardAlpha"/>
<feOffset dy="-0.5"/>
<feGaussianBlur stdDeviation="2"/>
<feComposite in2="hardAlpha" operator="out"/>
<feColorMatrix type="matrix" values="0 0 0 0 0 0 0 0 0 0 0 0 0 0 0 0 0 0 0.05 0"/>
<feBlend mode="normal" in2="effect1_dropShadow_443_64440" result="effect2_dropShadow_443_64440"/>
<feBlend mode="normal" in="SourceGraphic" in2="effect2_dropShadow_443_64440" result="shape"/>
</filter>
<radialGradient id="paint0_radial_443_64440" cx="0" cy="0" r="1" gradientUnits="userSpaceOnUse" gradientTransform="translate(41.6 76.6514) rotate(98.7708) scale(17.7071 16.0233)">
<stop offset="0.055" stop-color="#7A73FF"/>
<stop offset="0.65" stop-color="#67DDFA"/>
<stop offset="1" stop-color="#4AFCF1"/>
</radialGradient>
<radialGradient id="paint1_radial_443_64440" cx="0" cy="0" r="1" gradientUnits="userSpaceOnUse" gradientTransform="translate(41.6 76.6514) rotate(98.7708) scale(17.7071 16.0233)">
<stop offset="0.055" stop-color="#7A73FF"/>
<stop offset="0.65" stop-color="#67DDFA"/>
<stop offset="1" stop-color="#4AFCF1"/>
</radialGradient>
<radialGradient id="paint2_radial_443_64440" cx="0" cy="0" r="1" gradientUnits="userSpaceOnUse" gradientTransform="translate(41.6 76.6514) rotate(98.7708) scale(17.7071 16.0233)">
<stop offset="0.055" stop-color="#7A73FF"/>
<stop offset="0.65" stop-color="#67DDFA"/>
<stop offset="1" stop-color="#4AFCF1"/>
</radialGradient>
<radialGradient id="paint3_radial_443_64440" cx="0" cy="0" r="1" gradientUnits="userSpaceOnUse" gradientTransform="translate(41.6 76.6514) rotate(98.7708) scale(17.7071 16.0233)">
<stop offset="0.055" stop-color="#7A73FF"/>
<stop offset="0.65" stop-color="#67DDFA"/>
<stop offset="1" stop-color="#4AFCF1"/>
</radialGradient>
<radialGradient id="paint4_radial_443_64440" cx="0" cy="0" r="1" gradientUnits="userSpaceOnUse" gradientTransform="translate(41.6 76.6514) rotate(98.7708) scale(17.7071 16.0233)">
<stop offset="0.055" stop-color="#7A73FF"/>
<stop offset="0.65" stop-color="#67DDFA"/>
<stop offset="1" stop-color="#4AFCF1"/>
</radialGradient>
<radialGradient id="paint5_radial_443_64440" cx="0" cy="0" r="1" gradientUnits="userSpaceOnUse" gradientTransform="translate(41.6 76.6514) rotate(98.7708) scale(17.7071 16.0233)">
<stop offset="0.055" stop-color="#7A73FF"/>
<stop offset="0.65" stop-color="#67DDFA"/>
<stop offset="1" stop-color="#4AFCF1"/>
</radialGradient>
<radialGradient id="paint6_radial_443_64440" cx="0" cy="0" r="1" gradientUnits="userSpaceOnUse" gradientTransform="translate(261.43 77) rotate(99.6801) scale(17.7528 17.6694)">
<stop offset="0.055" stop-color="#7A73FF"/>
<stop offset="0.65" stop-color="#67DDFA"/>
<stop offset="1" stop-color="#4AFCF1"/>
</radialGradient>
<radialGradient id="paint7_radial_443_64440" cx="0" cy="0" r="1" gradientUnits="userSpaceOnUse" gradientTransform="translate(261.43 77) rotate(99.6801) scale(17.7528 17.6694)">
<stop offset="0.055" stop-color="#7A73FF"/>
<stop offset="0.65" stop-color="#67DDFA"/>
<stop offset="1" stop-color="#4AFCF1"/>
</radialGradient>
<radialGradient id="paint8_radial_443_64440" cx="0" cy="0" r="1" gradientUnits="userSpaceOnUse" gradientTransform="translate(261.43 77) rotate(99.6801) scale(17.7528 17.6694)">
<stop offset="0.055" stop-color="#7A73FF"/>
<stop offset="0.65" stop-color="#67DDFA"/>
<stop offset="1" stop-color="#4AFCF1"/>
</radialGradient>
<linearGradient id="paint9_linear_443_64440" x1="254.375" y1="80" x2="254.011" y2="86.7771" gradientUnits="userSpaceOnUse">
<stop offset="0.338542" stop-color="#7A73FF"/>
<stop offset="0.734375" stop-color="#75CDFF"/>
<stop offset="1" stop-color="#4AFCF1"/>
</linearGradient>
<linearGradient id="paint10_linear_443_64440" x1="358" y1="165.776" x2="102.267" y2="-168.72" gradientUnits="userSpaceOnUse">
<stop offset="0.338542" stop-color="#7A73FF"/>
<stop offset="0.734375" stop-color="#75CDFF"/>
<stop offset="1" stop-color="#4AFCF1"/>
</linearGradient>
<radialGradient id="paint11_radial_443_64440" cx="0" cy="0" r="1" gradientUnits="userSpaceOnUse" gradientTransform="translate(153.5 76.6514) rotate(99.7276) scale(17.7553)">
<stop offset="0.055" stop-color="#7A73FF"/>
<stop offset="0.65" stop-color="#67DDFA"/>
<stop offset="1" stop-color="#4AFCF1"/>
</radialGradient>
<radialGradient id="paint12_radial_443_64440" cx="0" cy="0" r="1" gradientUnits="userSpaceOnUse" gradientTransform="translate(153.5 76.6514) rotate(99.7276) scale(17.7553)">
<stop offset="0.055" stop-color="#7A73FF"/>
<stop offset="0.65" stop-color="#67DDFA"/>
<stop offset="1" stop-color="#4AFCF1"/>
</radialGradient>
<radialGradient id="paint13_radial_443_64440" cx="0" cy="0" r="1" gradientUnits="userSpaceOnUse" gradientTransform="translate(153.5 76.6514) rotate(99.7276) scale(17.7553)">
<stop offset="0.055" stop-color="#7A73FF"/>
<stop offset="0.65" stop-color="#67DDFA"/>
<stop offset="1" stop-color="#4AFCF1"/>
</radialGradient>
<radialGradient id="paint14_radial_443_64440" cx="0" cy="0" r="1" gradientUnits="userSpaceOnUse" gradientTransform="translate(153.5 76.6514) rotate(99.7276) scale(17.7553)">
<stop offset="0.055" stop-color="#7A73FF"/>
<stop offset="0.65" stop-color="#67DDFA"/>
<stop offset="1" stop-color="#4AFCF1"/>
</radialGradient>
</defs>
</svg>
