<svg width="115" height="221" viewBox="0 0 115 221" fill="none" xmlns="http://www.w3.org/2000/svg">
<path d="M83 52H94C102.837 52 110 59.1634 110 68V145.5C110 154.337 102.837 161.5 94 161.5H76.5" stroke="url(#paint0_linear_443_63315)" stroke-width="2"/>
<g filter="url(#filter0_dd_443_63315)">
<rect x="8.5" y="115" width="88" height="94" rx="12" fill="white"/>
<path d="M41.52 167C40.82 167 40.26 166.72 39.7 166.3C39 165.6 38.86 164.62 39.14 163.78L40.54 159.44C39.56 157.48 39 155.24 39 153C39 145.3 45.3 139 53 139C60.7 139 67 145.3 67 153C67 160.7 60.7 167 53 167C50.76 167 48.52 166.44 46.56 165.46L42.22 166.86C42.08 167 41.8 167 41.52 167ZM47.4 162.66C49.08 163.64 51.04 164.2 53 164.2C59.16 164.2 64.2 159.16 64.2 153C64.2 146.84 59.16 141.8 53 141.8C46.84 141.8 41.8 146.84 41.8 153C41.8 154.96 42.36 156.92 43.34 158.6C43.48 158.88 43.62 159.3 43.48 159.72L42.08 164.06L46.42 162.66C46.42 162.66 47.2631 162.592 47.4 162.66Z" fill="url(#paint1_radial_443_63315)"/>
<path d="M53 155.24C54.2371 155.24 55.24 154.237 55.24 153C55.24 151.763 54.2371 150.76 53 150.76C51.7629 150.76 50.76 151.763 50.76 153C50.76 154.237 51.7629 155.24 53 155.24Z" fill="url(#paint2_radial_443_63315)"/>
<path d="M46.14 155.24C47.3771 155.24 48.38 154.237 48.38 153C48.38 151.763 47.3771 150.76 46.14 150.76C44.9029 150.76 43.9 151.763 43.9 153C43.9 154.237 44.9029 155.24 46.14 155.24Z" fill="url(#paint3_radial_443_63315)"/>
<path d="M59.86 155.24C61.0971 155.24 62.1 154.237 62.1 153C62.1 151.763 61.0971 150.76 59.86 150.76C58.6229 150.76 57.62 151.763 57.62 153C57.62 154.237 58.6229 155.24 59.86 155.24Z" fill="url(#paint4_radial_443_63315)"/>
<path d="M27.2058 184.951V184.518C27.2058 183.182 27.571 182.145 28.3015 181.406C29.0359 180.664 29.9558 180.293 31.0613 180.293C32.155 180.293 33.0046 180.568 33.6101 181.119C34.2155 181.666 34.5437 182.344 34.5945 183.152L34.6003 183.211H33.4343L33.4284 183.152C33.4011 182.637 33.1921 182.197 32.8015 181.834C32.4148 181.471 31.8347 181.289 31.0613 181.289C30.28 181.289 29.6374 181.566 29.1335 182.121C28.6335 182.672 28.3835 183.471 28.3835 184.518V184.951C28.3835 185.971 28.6335 186.764 29.1335 187.33C29.6374 187.896 30.28 188.18 31.0613 188.18C31.8347 188.18 32.4089 187.994 32.7839 187.623C33.1628 187.248 33.3777 186.812 33.4284 186.316L33.4343 186.258H34.6003L34.5945 186.316C34.5124 187.113 34.1784 187.789 33.5925 188.344C33.0066 188.898 32.1628 189.176 31.0613 189.176C29.9558 189.176 29.0359 188.809 28.3015 188.074C27.571 187.336 27.2058 186.295 27.2058 184.951ZM35.5962 185.977V185.789C35.5962 184.848 35.8911 184.08 36.4809 183.486C37.0747 182.889 37.8677 182.59 38.8598 182.59C39.8481 182.59 40.6391 182.889 41.2329 183.486C41.8266 184.08 42.1235 184.848 42.1235 185.789V185.977C42.1235 186.918 41.8266 187.688 41.2329 188.285C40.6391 188.879 39.8481 189.176 38.8598 189.176C37.8677 189.176 37.0747 188.879 36.4809 188.285C35.8911 187.688 35.5962 186.918 35.5962 185.977ZM36.7446 185.789V185.977C36.7446 186.617 36.9223 187.156 37.2778 187.594C37.6333 188.031 38.1606 188.25 38.8598 188.25C39.5591 188.25 40.0845 188.031 40.436 187.594C40.7915 187.156 40.9692 186.617 40.9692 185.977V185.789C40.9692 185.145 40.7915 184.605 40.436 184.172C40.0845 183.734 39.5591 183.516 38.8598 183.516C38.1606 183.516 37.6333 183.734 37.2778 184.172C36.9223 184.605 36.7446 185.145 36.7446 185.789ZM49.1428 190.582V189H43.7639V182.766H44.8889V188.115H48.1116V182.766H49.2366V188.115H50.1741V190.582H49.1428ZM51.0645 185.977V185.789C51.0645 184.848 51.3477 184.08 51.9141 183.486C52.4844 182.889 53.2676 182.59 54.2637 182.59C55.1855 182.59 55.8848 182.814 56.3613 183.264C56.8418 183.709 57.082 184.209 57.082 184.764V184.793H55.9688V184.758C55.9688 184.426 55.834 184.135 55.5645 183.885C55.2988 183.635 54.8652 183.51 54.2637 183.51C53.5605 183.51 53.043 183.729 52.7109 184.166C52.3789 184.604 52.2129 185.145 52.2129 185.789V185.977C52.2129 186.621 52.3789 187.162 52.7109 187.6C53.043 188.033 53.5605 188.25 54.2637 188.25C54.8652 188.25 55.2988 188.127 55.5645 187.881C55.834 187.635 55.9688 187.342 55.9688 187.002V186.973H57.082V187.002C57.082 187.553 56.8418 188.053 56.3613 188.502C55.8848 188.951 55.1855 189.176 54.2637 189.176C53.2676 189.176 52.4844 188.879 51.9141 188.285C51.3477 187.688 51.0645 186.918 51.0645 185.977ZM58.1599 185.977V185.789C58.1599 184.848 58.4451 184.08 59.0154 183.486C59.5896 182.889 60.3474 182.59 61.2888 182.59C62.2341 182.59 62.9607 182.869 63.4685 183.428C63.9763 183.982 64.2302 184.734 64.2302 185.684V186.146H58.8279V185.25H63.0994V185.221C63.0994 184.721 62.9568 184.311 62.6716 183.99C62.3865 183.67 61.9295 183.51 61.3005 183.51C60.6404 183.51 60.1404 183.729 59.8005 184.166C59.4607 184.604 59.2908 185.145 59.2908 185.789V185.977C59.2908 186.621 59.4685 187.162 59.824 187.6C60.1834 188.037 60.7361 188.256 61.4822 188.256C61.9353 188.256 62.3259 188.17 62.6541 187.998C62.9822 187.822 63.2459 187.615 63.4451 187.377L64.1716 187.975C63.9529 188.268 63.613 188.541 63.1521 188.795C62.6951 189.049 62.1384 189.176 61.4822 189.176C60.408 189.176 59.5857 188.879 59.0154 188.285C58.4451 187.688 58.1599 186.918 58.1599 185.977ZM65.0738 183.65V182.766H70.6402V183.65H68.4195V189H67.2945V183.65H65.0738ZM71.97 189V182.766H73.0833V186.738C73.0833 186.855 73.0813 186.988 73.0774 187.137C73.0774 187.285 73.0755 187.42 73.0716 187.541H73.1184C73.1731 187.436 73.2337 187.324 73.3001 187.207C73.3665 187.09 73.4427 186.973 73.5286 186.855L76.4641 182.766H77.595V189H76.4759V185.033C76.4759 184.912 76.4778 184.777 76.4817 184.629C76.4856 184.477 76.4915 184.34 76.4993 184.219H76.4348C76.3841 184.32 76.3255 184.432 76.2591 184.553C76.1927 184.674 76.1184 184.793 76.0364 184.91L73.1009 189H71.97Z" fill="#04101C"/>
</g>
<g filter="url(#filter1_dd_443_63315)">
<rect x="17.5" y="5" width="68" height="94" rx="12" fill="white"/>
<path d="M62.4647 51.6H59.5C59.0059 49.8 57.4 48.6 55.4235 48.6C53.0765 48.6 51.1 50.52 51.1 52.8C51.1 55.08 53.0765 57 55.4235 57C57.4 57 59.0059 55.8 59.5 54H62.4647C63.2059 54 63.7 53.4 63.7 52.8C63.7 52.08 63.2059 51.6 62.4647 51.6ZM55.4235 54.6C54.4353 54.6 53.5706 53.76 53.5706 52.8C53.5706 51.84 54.4353 51 55.4235 51C56.4118 51 57.2765 51.84 57.2765 52.8C57.2765 53.76 56.4118 54.6 55.4235 54.6Z" fill="url(#paint5_radial_443_63315)"/>
<path d="M48.5085 51.4H39.6915C38.9766 51.4 38.5 52.1 38.5 52.8C38.5 53.64 39.0957 54.2 39.6915 54.2H48.5085C49.2234 54.2 49.7 53.5 49.7 52.8C49.7 51.96 49.1043 51.4 48.5085 51.4Z" fill="url(#paint6_radial_443_63315)"/>
<path d="M39.6915 34.6H48.5085C49.2234 34.6 49.7 33.9 49.7 33.2C49.7 32.5 49.1043 31.8 48.5085 31.8H39.6915C38.9766 31.8 38.5 32.5 38.5 33.2C38.5 33.9 39.0957 34.6 39.6915 34.6Z" fill="url(#paint7_radial_443_63315)"/>
<path d="M55.4235 37.4C57.4 37.4 59.0059 36.2 59.5 34.4H62.4647C63.2059 34.4 63.7 33.8 63.7 33.2C63.7 32.6 63.0824 32 62.4647 32H59.5C59.0059 30.2 57.4 29 55.4235 29C53.0765 29 51.1 30.92 51.1 33.2C51.1 35.48 53.0765 37.4 55.4235 37.4ZM55.4235 31.4C56.4118 31.4 57.2765 32.24 57.2765 33.2C57.2765 34.16 56.4118 35 55.4235 35C54.4353 35 53.5706 34.16 53.5706 33.2C53.5706 32.24 54.4353 31.4 55.4235 31.4Z" fill="url(#paint8_radial_443_63315)"/>
<path d="M39.7353 44.2H42.7C43.1941 45.88 44.8 47.2 46.7765 47.2C49.1235 47.2 51.1 45.28 51.1 43C51.1 40.72 49.1235 38.8 46.7765 38.8C44.8 38.8 43.1941 40 42.7 41.8H39.7353C38.9941 41.8 38.5 42.4 38.5 43C38.5 43.6 39.1176 44.2 39.7353 44.2ZM46.7765 41.2C47.7647 41.2 48.6294 42.04 48.6294 43C48.6294 43.96 47.7647 44.8 46.7765 44.8C45.7882 44.8 44.9235 43.96 44.9235 43C44.9235 42.04 45.7882 41.2 46.7765 41.2Z" fill="url(#paint9_radial_443_63315)"/>
<path d="M62.4957 41.6H53.7043C52.9817 41.6 52.5 42.3 52.5 43C52.5 43.7 53.1022 44.4 53.7043 44.4H62.4957C63.2183 44.4 63.7 43.7 63.7 43C63.7 42.3 63.2183 41.6 62.4957 41.6Z" fill="url(#paint10_radial_443_63315)"/>
<path d="M37.7717 74.9512V74.5176C37.7717 73.1816 38.1389 72.1445 38.8733 71.4062C39.6077 70.6641 40.5491 70.293 41.6975 70.293C42.8498 70.293 43.7932 70.6641 44.5276 71.4062C45.262 72.1445 45.6291 73.1816 45.6291 74.5176V74.9512C45.6291 76.2871 45.262 77.3262 44.5276 78.0684C43.7932 78.8066 42.8498 79.1758 41.6975 79.1758C40.5491 79.1758 39.6077 78.8066 38.8733 78.0684C38.1389 77.3262 37.7717 76.2871 37.7717 74.9512ZM38.9495 74.9512C38.9495 75.9668 39.1995 76.7598 39.6995 77.3301C40.2034 77.8965 40.8713 78.1797 41.7034 78.1797C42.5315 78.1797 43.1975 77.8965 43.7014 77.3301C44.2053 76.7598 44.4573 75.9668 44.4573 74.9512V74.5176C44.4573 73.502 44.2053 72.7109 43.7014 72.1445C43.1975 71.5742 42.5315 71.2891 41.7034 71.2891C40.8713 71.2891 40.2034 71.5742 39.6995 72.1445C39.1995 72.7109 38.9495 73.502 38.9495 74.5176V74.9512ZM47.5742 79V70.4688H50.6035C51.5957 70.4688 52.3633 70.6973 52.9062 71.1543C53.4492 71.6113 53.7207 72.2246 53.7207 72.9941C53.7207 73.7637 53.4492 74.3828 52.9062 74.8516C52.3633 75.3203 51.5957 75.5547 50.6035 75.5547H48.7402V79H47.5742ZM48.7402 74.6055H50.6035C51.334 74.6055 51.8418 74.4512 52.127 74.1426C52.4121 73.8301 52.5547 73.4473 52.5547 72.9941C52.5547 72.541 52.4121 72.166 52.127 71.8691C51.8418 71.5684 51.334 71.418 50.6035 71.418H48.7402V74.6055ZM52.8652 79L50.627 75.0684L51.8223 74.9219L54.1953 79H52.8652ZM55.7009 79V70.4688H57.2244L59.9959 76.8848C60.0466 77.002 60.0955 77.125 60.1423 77.2539C60.1931 77.3789 60.238 77.4961 60.2771 77.6055H60.324C60.3591 77.4961 60.4002 77.3789 60.447 77.2539C60.4939 77.125 60.5427 77.002 60.5935 76.8848L63.3474 70.4688H64.9002V79H63.7752V72.7305C63.7752 72.6133 63.7771 72.4824 63.781 72.3379C63.7888 72.1895 63.8005 72.0566 63.8162 71.9395H63.7634C63.7322 72.0566 63.6892 72.1895 63.6345 72.3379C63.5837 72.4824 63.533 72.6133 63.4822 72.7305L60.7986 79H59.7615L57.0603 72.7305C57.0095 72.6133 56.9587 72.4824 56.908 72.3379C56.8611 72.1895 56.824 72.0566 56.7966 71.9395H56.7439C56.7556 72.0566 56.7654 72.1895 56.7732 72.3379C56.7849 72.4824 56.7908 72.6133 56.7908 72.7305V79H55.7009Z" fill="#04101C"/>
</g>
<defs>
<filter id="filter0_dd_443_63315" x="0.5" y="110.5" width="104" height="110.5" filterUnits="userSpaceOnUse" color-interpolation-filters="sRGB">
<feFlood flood-opacity="0" result="BackgroundImageFix"/>
<feColorMatrix in="SourceAlpha" type="matrix" values="0 0 0 0 0 0 0 0 0 0 0 0 0 0 0 0 0 0 127 0" result="hardAlpha"/>
<feOffset dy="4"/>
<feGaussianBlur stdDeviation="4"/>
<feComposite in2="hardAlpha" operator="out"/>
<feColorMatrix type="matrix" values="0 0 0 0 0 0 0 0 0 0 0 0 0 0 0 0 0 0 0.08 0"/>
<feBlend mode="normal" in2="BackgroundImageFix" result="effect1_dropShadow_443_63315"/>
<feColorMatrix in="SourceAlpha" type="matrix" values="0 0 0 0 0 0 0 0 0 0 0 0 0 0 0 0 0 0 127 0" result="hardAlpha"/>
<feOffset dy="-0.5"/>
<feGaussianBlur stdDeviation="2"/>
<feComposite in2="hardAlpha" operator="out"/>
<feColorMatrix type="matrix" values="0 0 0 0 0 0 0 0 0 0 0 0 0 0 0 0 0 0 0.05 0"/>
<feBlend mode="normal" in2="effect1_dropShadow_443_63315" result="effect2_dropShadow_443_63315"/>
<feBlend mode="normal" in="SourceGraphic" in2="effect2_dropShadow_443_63315" result="shape"/>
</filter>
<filter id="filter1_dd_443_63315" x="9.5" y="0.5" width="84" height="110.5" filterUnits="userSpaceOnUse" color-interpolation-filters="sRGB">
<feFlood flood-opacity="0" result="BackgroundImageFix"/>
<feColorMatrix in="SourceAlpha" type="matrix" values="0 0 0 0 0 0 0 0 0 0 0 0 0 0 0 0 0 0 127 0" result="hardAlpha"/>
<feOffset dy="4"/>
<feGaussianBlur stdDeviation="4"/>
<feComposite in2="hardAlpha" operator="out"/>
<feColorMatrix type="matrix" values="0 0 0 0 0 0 0 0 0 0 0 0 0 0 0 0 0 0 0.08 0"/>
<feBlend mode="normal" in2="BackgroundImageFix" result="effect1_dropShadow_443_63315"/>
<feColorMatrix in="SourceAlpha" type="matrix" values="0 0 0 0 0 0 0 0 0 0 0 0 0 0 0 0 0 0 127 0" result="hardAlpha"/>
<feOffset dy="-0.5"/>
<feGaussianBlur stdDeviation="2"/>
<feComposite in2="hardAlpha" operator="out"/>
<feColorMatrix type="matrix" values="0 0 0 0 0 0 0 0 0 0 0 0 0 0 0 0 0 0 0.05 0"/>
<feBlend mode="normal" in2="effect1_dropShadow_443_63315" result="effect2_dropShadow_443_63315"/>
<feBlend mode="normal" in="SourceGraphic" in2="effect2_dropShadow_443_63315" result="shape"/>
</filter>
<linearGradient id="paint0_linear_443_63315" x1="212" y1="386.375" x2="-26.3866" y2="57.0817" gradientUnits="userSpaceOnUse">
<stop offset="0.338542" stop-color="#7A73FF"/>
<stop offset="0.734375" stop-color="#75CDFF"/>
<stop offset="1" stop-color="#4AFCF1"/>
</linearGradient>
<radialGradient id="paint1_radial_443_63315" cx="0" cy="0" r="1" gradientUnits="userSpaceOnUse" gradientTransform="translate(53 153) rotate(99.7276) scale(17.7553)">
<stop offset="0.055" stop-color="#7A73FF"/>
<stop offset="0.65" stop-color="#67DDFA"/>
<stop offset="1" stop-color="#4AFCF1"/>
</radialGradient>
<radialGradient id="paint2_radial_443_63315" cx="0" cy="0" r="1" gradientUnits="userSpaceOnUse" gradientTransform="translate(53 153) rotate(99.7276) scale(17.7553)">
<stop offset="0.055" stop-color="#7A73FF"/>
<stop offset="0.65" stop-color="#67DDFA"/>
<stop offset="1" stop-color="#4AFCF1"/>
</radialGradient>
<radialGradient id="paint3_radial_443_63315" cx="0" cy="0" r="1" gradientUnits="userSpaceOnUse" gradientTransform="translate(53 153) rotate(99.7276) scale(17.7553)">
<stop offset="0.055" stop-color="#7A73FF"/>
<stop offset="0.65" stop-color="#67DDFA"/>
<stop offset="1" stop-color="#4AFCF1"/>
</radialGradient>
<radialGradient id="paint4_radial_443_63315" cx="0" cy="0" r="1" gradientUnits="userSpaceOnUse" gradientTransform="translate(53 153) rotate(99.7276) scale(17.7553)">
<stop offset="0.055" stop-color="#7A73FF"/>
<stop offset="0.65" stop-color="#67DDFA"/>
<stop offset="1" stop-color="#4AFCF1"/>
</radialGradient>
<radialGradient id="paint5_radial_443_63315" cx="0" cy="0" r="1" gradientUnits="userSpaceOnUse" gradientTransform="translate(51.1 43) rotate(98.7708) scale(17.7071 16.0233)">
<stop offset="0.055" stop-color="#7A73FF"/>
<stop offset="0.65" stop-color="#67DDFA"/>
<stop offset="1" stop-color="#4AFCF1"/>
</radialGradient>
<radialGradient id="paint6_radial_443_63315" cx="0" cy="0" r="1" gradientUnits="userSpaceOnUse" gradientTransform="translate(51.1 43) rotate(98.7708) scale(17.7071 16.0233)">
<stop offset="0.055" stop-color="#7A73FF"/>
<stop offset="0.65" stop-color="#67DDFA"/>
<stop offset="1" stop-color="#4AFCF1"/>
</radialGradient>
<radialGradient id="paint7_radial_443_63315" cx="0" cy="0" r="1" gradientUnits="userSpaceOnUse" gradientTransform="translate(51.1 43) rotate(98.7708) scale(17.7071 16.0233)">
<stop offset="0.055" stop-color="#7A73FF"/>
<stop offset="0.65" stop-color="#67DDFA"/>
<stop offset="1" stop-color="#4AFCF1"/>
</radialGradient>
<radialGradient id="paint8_radial_443_63315" cx="0" cy="0" r="1" gradientUnits="userSpaceOnUse" gradientTransform="translate(51.1 43) rotate(98.7708) scale(17.7071 16.0233)">
<stop offset="0.055" stop-color="#7A73FF"/>
<stop offset="0.65" stop-color="#67DDFA"/>
<stop offset="1" stop-color="#4AFCF1"/>
</radialGradient>
<radialGradient id="paint9_radial_443_63315" cx="0" cy="0" r="1" gradientUnits="userSpaceOnUse" gradientTransform="translate(51.1 43) rotate(98.7708) scale(17.7071 16.0233)">
<stop offset="0.055" stop-color="#7A73FF"/>
<stop offset="0.65" stop-color="#67DDFA"/>
<stop offset="1" stop-color="#4AFCF1"/>
</radialGradient>
<radialGradient id="paint10_radial_443_63315" cx="0" cy="0" r="1" gradientUnits="userSpaceOnUse" gradientTransform="translate(51.1 43) rotate(98.7708) scale(17.7071 16.0233)">
<stop offset="0.055" stop-color="#7A73FF"/>
<stop offset="0.65" stop-color="#67DDFA"/>
<stop offset="1" stop-color="#4AFCF1"/>
</radialGradient>
</defs>
</svg>
