<svg width="395" height="306" viewBox="0 0 395 306" fill="none" xmlns="http://www.w3.org/2000/svg">
<path d="M54.8076 177.098L54.8079 79.4997C54.8079 70.6631 61.9714 63.4997 70.8079 63.4997L301.502 63.5001C310.339 63.5002 317.502 70.6635 317.502 79.5001L317.502 181.094" stroke="url(#paint0_linear_1250_73716)" stroke-width="2"/>
<g filter="url(#filter0_dd_1250_73716)">
<rect x="259" y="168" width="119" height="126" rx="12" fill="white"/>
<path fill-rule="evenodd" clip-rule="evenodd" d="M316.416 200.491C317.888 199.836 319.533 199.836 321.005 200.491L321.027 200.502L328.896 204.188C328.906 204.193 328.916 204.197 328.926 204.202C330.689 205.085 331.733 207.025 331.389 209.105C330.734 213.165 328.753 221.169 321.41 227.053L321.396 227.064C319.794 228.312 317.627 228.312 316.024 227.064L316.011 227.053C308.665 221.168 306.685 213.161 306.032 209.102C306.027 209.073 306.023 209.044 306.021 209.015C305.858 207.218 306.658 205.102 308.654 204.187L316.386 200.505C316.396 200.5 316.406 200.496 316.416 200.491ZM317.465 202.811L309.739 206.489L309.719 206.499C308.941 206.853 308.478 207.763 308.552 208.744C309.175 212.577 311.013 219.782 317.595 225.061C318.274 225.586 319.146 225.586 319.826 225.061C326.435 219.761 328.261 212.517 328.876 208.697L328.877 208.691C329.038 207.726 328.566 206.876 327.799 206.485L319.959 202.812C319.154 202.457 318.27 202.457 317.465 202.811Z" fill="url(#paint1_radial_1250_73716)"/>
<path fill-rule="evenodd" clip-rule="evenodd" d="M324.58 207.89C325.143 208.311 325.258 209.108 324.837 209.671L319.126 217.308C318.887 217.627 318.511 217.816 318.112 217.818C317.713 217.82 317.336 217.634 317.094 217.316L313.896 213.116C313.47 212.557 313.578 211.759 314.138 211.333C314.697 210.907 315.495 211.015 315.921 211.574L318.098 214.433L322.798 208.147C323.219 207.584 324.017 207.469 324.58 207.89Z" fill="url(#paint2_radial_1250_73716)"/>
<path d="M297.168 245.523V245.094C297.168 243.234 297.666 241.82 298.661 240.852C299.655 239.878 300.939 239.391 302.512 239.391C304.08 239.391 305.361 239.878 306.356 240.852C307.356 241.82 307.856 243.234 307.856 245.094V245.523C307.856 247.383 307.356 248.799 306.356 249.773C305.356 250.747 304.075 251.234 302.512 251.234C300.944 251.234 299.661 250.747 298.661 249.773C297.666 248.799 297.168 247.383 297.168 245.523ZM298.45 245.523C298.45 247.039 298.819 248.19 299.559 248.977C300.304 249.758 301.288 250.148 302.512 250.148C303.731 250.148 304.713 249.758 305.458 248.977C306.202 248.19 306.575 247.039 306.575 245.523V245.094C306.575 243.583 306.202 242.438 305.458 241.656C304.713 240.87 303.731 240.477 302.512 240.477C301.288 240.477 300.304 240.87 299.559 241.656C298.819 242.438 298.45 243.583 298.45 245.094V245.523ZM310.403 251V239.625H314.488C315.827 239.625 316.853 239.919 317.567 240.508C318.28 241.091 318.637 241.901 318.637 242.938C318.637 243.974 318.28 244.792 317.567 245.391C316.853 245.984 315.827 246.281 314.488 246.281H311.668V251H310.403ZM311.668 245.242H314.488C315.561 245.242 316.309 245.031 316.731 244.609C317.158 244.182 317.371 243.625 317.371 242.938C317.371 242.25 317.158 241.701 316.731 241.289C316.309 240.872 315.561 240.664 314.488 240.664H311.668V245.242ZM317.801 251L314.707 245.773L316.043 245.633L319.278 251H317.801ZM321.269 251V239.625H322.902L327.058 248.703C327.131 248.859 327.204 249.021 327.277 249.188C327.35 249.349 327.41 249.492 327.457 249.617H327.519C327.571 249.492 327.631 249.349 327.699 249.188C327.767 249.021 327.837 248.859 327.91 248.703L332.082 239.625H333.707V251H332.472V242.203C332.472 242.052 332.478 241.88 332.488 241.688C332.504 241.49 332.519 241.312 332.535 241.156H332.472C332.431 241.312 332.374 241.49 332.301 241.688C332.233 241.88 332.165 242.052 332.097 242.203L328.058 251H326.879L322.847 242.211C322.775 242.055 322.702 241.88 322.629 241.688C322.556 241.49 322.501 241.312 322.465 241.156H322.402C322.418 241.312 322.431 241.49 322.441 241.688C322.457 241.88 322.465 242.055 322.465 242.211V251H321.269ZM335.675 246.617V245.492H340.41V246.617H335.675ZM276.447 263.039V262.789C276.447 261.555 276.837 260.547 277.618 259.766C278.405 258.984 279.483 258.594 280.853 258.594C282.092 258.594 283.046 258.88 283.712 259.453C284.379 260.021 284.712 260.69 284.712 261.461L284.72 261.508H283.486V261.461C283.486 260.935 283.275 260.497 282.853 260.148C282.431 259.794 281.764 259.617 280.853 259.617C279.78 259.617 278.986 259.914 278.47 260.508C277.954 261.096 277.697 261.857 277.697 262.789V263.039C277.697 263.977 277.954 264.74 278.47 265.328C278.986 265.917 279.78 266.211 280.853 266.211C281.764 266.211 282.431 266.036 282.853 265.688C283.275 265.333 283.486 264.893 283.486 264.367V264.32H284.72V264.367C284.715 265.138 284.379 265.81 283.712 266.383C283.046 266.951 282.092 267.234 280.853 267.234C279.483 267.234 278.405 266.844 277.618 266.062C276.837 265.281 276.447 264.273 276.447 263.039ZM285.767 259.805V258.828H293.657V259.805H290.329V267H289.103V259.805H285.767ZM295.43 270.258V258.828H296.548L296.602 260.039H296.618C296.904 259.664 297.331 259.344 297.899 259.078C298.467 258.807 299.126 258.672 299.876 258.672C301.105 258.672 302.081 259.06 302.805 259.836C303.529 260.612 303.891 261.596 303.891 262.789V263.039C303.891 264.232 303.529 265.216 302.805 265.992C302.081 266.768 301.105 267.156 299.876 267.156C299.126 267.156 298.482 267.039 297.946 266.805C297.409 266.565 296.977 266.26 296.649 265.891V270.258H295.43ZM296.649 264.594C296.868 264.995 297.227 265.352 297.727 265.664C298.232 265.977 298.839 266.133 299.548 266.133C300.615 266.133 301.396 265.849 301.891 265.281C302.386 264.708 302.633 263.958 302.633 263.031V262.789C302.633 261.867 302.386 261.122 301.891 260.555C301.396 259.982 300.615 259.695 299.548 259.695C298.839 259.695 298.235 259.852 297.735 260.164C297.235 260.477 296.873 260.833 296.649 261.234V264.594ZM305.571 264.648C305.571 263.815 305.93 263.174 306.649 262.727C307.373 262.273 308.362 262.047 309.618 262.047H312.196V261.398C312.196 260.81 312.008 260.362 311.633 260.055C311.263 259.742 310.657 259.586 309.813 259.586C308.99 259.586 308.378 259.716 307.977 259.977C307.576 260.237 307.375 260.586 307.375 261.023V261.07H306.157V261.023C306.157 260.284 306.479 259.695 307.125 259.258C307.776 258.815 308.688 258.594 309.86 258.594C311 258.594 311.881 258.833 312.5 259.312C313.12 259.792 313.43 260.49 313.43 261.406V265.125C313.43 265.464 313.461 265.784 313.524 266.086C313.586 266.383 313.672 266.646 313.782 266.875V267H312.61C312.521 266.865 312.44 266.688 312.368 266.469C312.295 266.245 312.25 266.023 312.235 265.805C311.995 266.159 311.586 266.474 311.008 266.75C310.43 267.021 309.698 267.156 308.813 267.156C307.818 267.156 307.029 266.945 306.446 266.523C305.862 266.096 305.571 265.471 305.571 264.648ZM306.797 264.586C306.797 265.112 306.979 265.508 307.344 265.773C307.709 266.039 308.295 266.172 309.102 266.172C309.92 266.172 310.638 265.964 311.258 265.547C311.883 265.13 312.196 264.682 312.196 264.203V262.938H309.805C308.826 262.938 308.078 263.081 307.563 263.367C307.052 263.648 306.797 264.055 306.797 264.586ZM315.227 259.805V258.828H323.117V259.805H319.789V267H318.562V259.805H315.227ZM324.375 263.039V262.789C324.375 261.555 324.768 260.547 325.554 259.766C326.346 258.984 327.39 258.594 328.687 258.594C329.979 258.594 330.971 258.953 331.664 259.672C332.362 260.391 332.711 261.38 332.711 262.641V263.156H325.054V262.172H331.484V262.195C331.484 261.398 331.263 260.771 330.82 260.312C330.382 259.849 329.666 259.617 328.672 259.617C327.661 259.617 326.896 259.911 326.375 260.5C325.854 261.089 325.593 261.852 325.593 262.789V263.039C325.593 263.971 325.864 264.734 326.406 265.328C326.953 265.917 327.804 266.211 328.961 266.211C329.622 266.211 330.192 266.099 330.672 265.875C331.151 265.651 331.536 265.375 331.828 265.047L332.625 265.734C332.328 266.109 331.867 266.453 331.242 266.766C330.617 267.078 329.856 267.234 328.961 267.234C327.487 267.234 326.354 266.844 325.562 266.062C324.771 265.281 324.375 264.273 324.375 263.039ZM334.71 258.828H340.96V259.805H335.929V267H334.71V258.828ZM342.749 267V258.828H343.968V264.508C343.968 264.664 343.963 264.839 343.952 265.031C343.947 265.219 343.942 265.391 343.937 265.547H343.999C344.072 265.401 344.15 265.258 344.233 265.117C344.322 264.971 344.424 264.826 344.538 264.68L349.124 258.828H350.366V267H349.14V261.32C349.14 261.164 349.142 260.992 349.147 260.805C349.158 260.612 349.168 260.438 349.179 260.281H349.116C349.049 260.417 348.97 260.56 348.882 260.711C348.793 260.857 348.692 261.005 348.577 261.156L343.991 267H342.749ZM353.874 267H352.514L355.28 263.477L356.499 263.602L353.874 267ZM358.811 267V263.977H355.983L355.803 263.906C354.809 263.885 354.051 263.651 353.53 263.203C353.009 262.75 352.749 262.151 352.749 261.406C352.749 260.625 353.02 260 353.561 259.531C354.108 259.062 354.9 258.828 355.936 258.828H360.038V267H358.811ZM355.936 263H358.811V259.805H355.936C355.217 259.805 354.712 259.956 354.421 260.258C354.129 260.56 353.983 260.943 353.983 261.406C353.983 261.875 354.129 262.258 354.421 262.555C354.712 262.852 355.217 263 355.936 263Z" fill="#04101C"/>
</g>
<g filter="url(#filter1_dd_1250_73716)">
<rect x="17" y="102" width="78" height="107" rx="12" fill="white"/>
<path d="M66.9647 155.1H64C63.5059 153.3 61.9 152.1 59.9235 152.1C57.5765 152.1 55.6 154.02 55.6 156.3C55.6 158.58 57.5765 160.5 59.9235 160.5C61.9 160.5 63.5059 159.3 64 157.5H66.9647C67.7059 157.5 68.2 156.9 68.2 156.3C68.2 155.58 67.7059 155.1 66.9647 155.1ZM59.9235 158.1C58.9353 158.1 58.0706 157.26 58.0706 156.3C58.0706 155.34 58.9353 154.5 59.9235 154.5C60.9118 154.5 61.7765 155.34 61.7765 156.3C61.7765 157.26 60.9118 158.1 59.9235 158.1Z" fill="url(#paint3_radial_1250_73716)"/>
<path d="M53.0085 154.9H44.1915C43.4766 154.9 43 155.6 43 156.3C43 157.14 43.5957 157.7 44.1915 157.7H53.0085C53.7234 157.7 54.2 157 54.2 156.3C54.2 155.46 53.6043 154.9 53.0085 154.9Z" fill="url(#paint4_radial_1250_73716)"/>
<path d="M44.1915 138.1H53.0085C53.7234 138.1 54.2 137.4 54.2 136.7C54.2 136 53.6043 135.3 53.0085 135.3H44.1915C43.4766 135.3 43 136 43 136.7C43 137.4 43.5957 138.1 44.1915 138.1Z" fill="url(#paint5_radial_1250_73716)"/>
<path d="M59.9235 140.9C61.9 140.9 63.5059 139.7 64 137.9H66.9647C67.7059 137.9 68.2 137.3 68.2 136.7C68.2 136.1 67.5824 135.5 66.9647 135.5H64C63.5059 133.7 61.9 132.5 59.9235 132.5C57.5765 132.5 55.6 134.42 55.6 136.7C55.6 138.98 57.5765 140.9 59.9235 140.9ZM59.9235 134.9C60.9118 134.9 61.7765 135.74 61.7765 136.7C61.7765 137.66 60.9118 138.5 59.9235 138.5C58.9353 138.5 58.0706 137.66 58.0706 136.7C58.0706 135.74 58.9353 134.9 59.9235 134.9Z" fill="url(#paint6_radial_1250_73716)"/>
<path d="M44.2353 147.7H47.2C47.6941 149.38 49.3 150.7 51.2765 150.7C53.6235 150.7 55.6 148.78 55.6 146.5C55.6 144.22 53.6235 142.3 51.2765 142.3C49.3 142.3 47.6941 143.5 47.2 145.3H44.2353C43.4941 145.3 43 145.9 43 146.5C43 147.1 43.6176 147.7 44.2353 147.7ZM51.2765 144.7C52.2647 144.7 53.1294 145.54 53.1294 146.5C53.1294 147.46 52.2647 148.3 51.2765 148.3C50.2882 148.3 49.4235 147.46 49.4235 146.5C49.4235 145.54 50.2882 144.7 51.2765 144.7Z" fill="url(#paint7_radial_1250_73716)"/>
<path d="M66.9957 145.1H58.2043C57.4817 145.1 57 145.8 57 146.5C57 147.2 57.6022 147.9 58.2043 147.9H66.9957C67.7183 147.9 68.2 147.2 68.2 146.5C68.2 145.8 67.7183 145.1 66.9957 145.1Z" fill="url(#paint8_radial_1250_73716)"/>
<path d="M37.5081 178.023V177.594C37.5081 175.734 38.0055 174.32 39.0003 173.352C39.9951 172.378 41.279 171.891 42.8519 171.891C44.4196 171.891 45.7008 172.378 46.6956 173.352C47.6956 174.32 48.1956 175.734 48.1956 177.594V178.023C48.1956 179.883 47.6956 181.299 46.6956 182.273C45.6956 183.247 44.4144 183.734 42.8519 183.734C41.2842 183.734 40.0003 183.247 39.0003 182.273C38.0055 181.299 37.5081 179.883 37.5081 178.023ZM38.7894 178.023C38.7894 179.539 39.1592 180.69 39.8988 181.477C40.6435 182.258 41.6279 182.648 42.8519 182.648C44.0706 182.648 45.0524 182.258 45.7972 181.477C46.542 180.69 46.9144 179.539 46.9144 178.023V177.594C46.9144 176.083 46.542 174.938 45.7972 174.156C45.0524 173.37 44.0706 172.977 42.8519 172.977C41.6279 172.977 40.6435 173.37 39.8988 174.156C39.1592 174.938 38.7894 176.083 38.7894 177.594V178.023ZM50.7422 183.5V172.125H54.8281C56.1667 172.125 57.1927 172.419 57.9062 173.008C58.6198 173.591 58.9766 174.401 58.9766 175.438C58.9766 176.474 58.6198 177.292 57.9062 177.891C57.1927 178.484 56.1667 178.781 54.8281 178.781H52.0078V183.5H50.7422ZM52.0078 177.742H54.8281C55.901 177.742 56.6484 177.531 57.0703 177.109C57.4974 176.682 57.7109 176.125 57.7109 175.438C57.7109 174.75 57.4974 174.201 57.0703 173.789C56.6484 173.372 55.901 173.164 54.8281 173.164H52.0078V177.742ZM58.1406 183.5L55.0469 178.273L56.3828 178.133L59.6172 183.5H58.1406ZM61.6091 183.5V172.125H63.2419L67.3981 181.203C67.471 181.359 67.544 181.521 67.6169 181.688C67.6898 181.849 67.7497 181.992 67.7966 182.117H67.8591C67.9111 181.992 67.971 181.849 68.0387 181.688C68.1065 181.521 68.1768 181.359 68.2497 181.203L72.4216 172.125H74.0466V183.5H72.8122V174.703C72.8122 174.552 72.8174 174.38 72.8278 174.188C72.8434 173.99 72.8591 173.812 72.8747 173.656H72.8122C72.7705 173.812 72.7132 173.99 72.6403 174.188C72.5726 174.38 72.5049 174.552 72.4372 174.703L68.3981 183.5H67.2184L63.1872 174.711C63.1143 174.555 63.0414 174.38 62.9684 174.188C62.8955 173.99 62.8408 173.812 62.8044 173.656H62.7419C62.7575 173.812 62.7705 173.99 62.7809 174.188C62.7966 174.38 62.8044 174.555 62.8044 174.711V183.5H61.6091Z" fill="#04101C"/>
</g>
<defs>
<filter id="filter0_dd_1250_73716" x="251" y="163.5" width="135" height="142.5" filterUnits="userSpaceOnUse" color-interpolation-filters="sRGB">
<feFlood flood-opacity="0" result="BackgroundImageFix"/>
<feColorMatrix in="SourceAlpha" type="matrix" values="0 0 0 0 0 0 0 0 0 0 0 0 0 0 0 0 0 0 127 0" result="hardAlpha"/>
<feOffset dy="4"/>
<feGaussianBlur stdDeviation="4"/>
<feComposite in2="hardAlpha" operator="out"/>
<feColorMatrix type="matrix" values="0 0 0 0 0 0 0 0 0 0 0 0 0 0 0 0 0 0 0.08 0"/>
<feBlend mode="normal" in2="BackgroundImageFix" result="effect1_dropShadow_1250_73716"/>
<feColorMatrix in="SourceAlpha" type="matrix" values="0 0 0 0 0 0 0 0 0 0 0 0 0 0 0 0 0 0 127 0" result="hardAlpha"/>
<feOffset dy="-0.5"/>
<feGaussianBlur stdDeviation="2"/>
<feComposite in2="hardAlpha" operator="out"/>
<feColorMatrix type="matrix" values="0 0 0 0 0 0 0 0 0 0 0 0 0 0 0 0 0 0 0.05 0"/>
<feBlend mode="normal" in2="effect1_dropShadow_1250_73716" result="effect2_dropShadow_1250_73716"/>
<feBlend mode="normal" in="SourceGraphic" in2="effect2_dropShadow_1250_73716" result="shape"/>
</filter>
<filter id="filter1_dd_1250_73716" x="9" y="97.5" width="94" height="123.5" filterUnits="userSpaceOnUse" color-interpolation-filters="sRGB">
<feFlood flood-opacity="0" result="BackgroundImageFix"/>
<feColorMatrix in="SourceAlpha" type="matrix" values="0 0 0 0 0 0 0 0 0 0 0 0 0 0 0 0 0 0 127 0" result="hardAlpha"/>
<feOffset dy="4"/>
<feGaussianBlur stdDeviation="4"/>
<feComposite in2="hardAlpha" operator="out"/>
<feColorMatrix type="matrix" values="0 0 0 0 0 0 0 0 0 0 0 0 0 0 0 0 0 0 0.08 0"/>
<feBlend mode="normal" in2="BackgroundImageFix" result="effect1_dropShadow_1250_73716"/>
<feColorMatrix in="SourceAlpha" type="matrix" values="0 0 0 0 0 0 0 0 0 0 0 0 0 0 0 0 0 0 127 0" result="hardAlpha"/>
<feOffset dy="-0.5"/>
<feGaussianBlur stdDeviation="2"/>
<feComposite in2="hardAlpha" operator="out"/>
<feColorMatrix type="matrix" values="0 0 0 0 0 0 0 0 0 0 0 0 0 0 0 0 0 0 0.05 0"/>
<feBlend mode="normal" in2="effect1_dropShadow_1250_73716" result="effect2_dropShadow_1250_73716"/>
<feBlend mode="normal" in="SourceGraphic" in2="effect2_dropShadow_1250_73716" result="shape"/>
</filter>
<linearGradient id="paint0_linear_1250_73716" x1="671.232" y1="140.462" x2="41.9183" y2="272.923" gradientUnits="userSpaceOnUse">
<stop offset="0.338542" stop-color="#7A73FF"/>
<stop offset="0.734375" stop-color="#75CDFF"/>
<stop offset="1" stop-color="#4AFCF1"/>
</linearGradient>
<radialGradient id="paint1_radial_1250_73716" cx="0" cy="0" r="1" gradientUnits="userSpaceOnUse" gradientTransform="translate(318.727 214) rotate(98.8578) scale(17.7112 16.181)">
<stop stop-color="#FD9BE8"/>
<stop offset="0.338542" stop-color="#7A73FF"/>
<stop offset="0.734375" stop-color="#75CDFF"/>
<stop offset="1" stop-color="#4AFCF1"/>
</radialGradient>
<radialGradient id="paint2_radial_1250_73716" cx="0" cy="0" r="1" gradientUnits="userSpaceOnUse" gradientTransform="translate(318.727 214) rotate(98.8578) scale(17.7112 16.181)">
<stop stop-color="#FD9BE8"/>
<stop offset="0.338542" stop-color="#7A73FF"/>
<stop offset="0.734375" stop-color="#75CDFF"/>
<stop offset="1" stop-color="#4AFCF1"/>
</radialGradient>
<radialGradient id="paint3_radial_1250_73716" cx="0" cy="0" r="1" gradientUnits="userSpaceOnUse" gradientTransform="translate(55.6 146.5) rotate(98.7708) scale(17.7071 16.0233)">
<stop offset="0.055" stop-color="#7A73FF"/>
<stop offset="0.65" stop-color="#67DDFA"/>
<stop offset="1" stop-color="#4AFCF1"/>
</radialGradient>
<radialGradient id="paint4_radial_1250_73716" cx="0" cy="0" r="1" gradientUnits="userSpaceOnUse" gradientTransform="translate(55.6 146.5) rotate(98.7708) scale(17.7071 16.0233)">
<stop offset="0.055" stop-color="#7A73FF"/>
<stop offset="0.65" stop-color="#67DDFA"/>
<stop offset="1" stop-color="#4AFCF1"/>
</radialGradient>
<radialGradient id="paint5_radial_1250_73716" cx="0" cy="0" r="1" gradientUnits="userSpaceOnUse" gradientTransform="translate(55.6 146.5) rotate(98.7708) scale(17.7071 16.0233)">
<stop offset="0.055" stop-color="#7A73FF"/>
<stop offset="0.65" stop-color="#67DDFA"/>
<stop offset="1" stop-color="#4AFCF1"/>
</radialGradient>
<radialGradient id="paint6_radial_1250_73716" cx="0" cy="0" r="1" gradientUnits="userSpaceOnUse" gradientTransform="translate(55.6 146.5) rotate(98.7708) scale(17.7071 16.0233)">
<stop offset="0.055" stop-color="#7A73FF"/>
<stop offset="0.65" stop-color="#67DDFA"/>
<stop offset="1" stop-color="#4AFCF1"/>
</radialGradient>
<radialGradient id="paint7_radial_1250_73716" cx="0" cy="0" r="1" gradientUnits="userSpaceOnUse" gradientTransform="translate(55.6 146.5) rotate(98.7708) scale(17.7071 16.0233)">
<stop offset="0.055" stop-color="#7A73FF"/>
<stop offset="0.65" stop-color="#67DDFA"/>
<stop offset="1" stop-color="#4AFCF1"/>
</radialGradient>
<radialGradient id="paint8_radial_1250_73716" cx="0" cy="0" r="1" gradientUnits="userSpaceOnUse" gradientTransform="translate(55.6 146.5) rotate(98.7708) scale(17.7071 16.0233)">
<stop offset="0.055" stop-color="#7A73FF"/>
<stop offset="0.65" stop-color="#67DDFA"/>
<stop offset="1" stop-color="#4AFCF1"/>
</radialGradient>
</defs>
</svg>
