<svg xmlns="http://www.w3.org/2000/svg" width="52" height="52" viewBox="0 0 52 52" fill="none">
    <path d="M26.0008 5.2C37.4408 5.2 46.8008 14.56 46.8008 26C46.8008 27.248 45.9688 28.08 44.7208 28.08H24.1288L30.7848 34.736C31.6168 35.568 31.6168 36.816 30.7848 37.648C30.3688 38.064 29.9528 38.272 29.3288 38.272C28.7048 38.272 28.2888 38.064 27.8728 37.648L17.8888 27.456C17.0568 26.624 17.0568 25.376 17.8888 24.544L27.6648 14.352C28.4968 13.52 29.9528 13.52 30.5768 14.352C31.4088 15.184 31.4088 16.432 30.5768 17.264L24.1288 23.92H42.4328C41.3928 15.808 34.5288 9.36 26.0008 9.36C16.8488 9.36 9.36078 16.848 9.36078 26C9.36078 35.152 16.8488 42.64 26.0008 42.64C32.8648 42.64 38.8968 38.48 41.6008 32.032C42.0168 30.992 43.2648 30.368 44.3048 30.784C45.3448 31.2 45.9688 32.448 45.5528 33.488C42.2248 41.6 34.5288 46.8 26.0008 46.8C14.5608 46.8 5.20078 37.44 5.20078 26C5.20078 14.56 14.5608 5.2 26.0008 5.2Z" fill="url(#paint0_radial_452_19468)"/>
    <defs>
        <radialGradient id="paint0_radial_452_19468" cx="0" cy="0" r="1" gradientUnits="userSpaceOnUse" gradientTransform="translate(26.0008 26) rotate(80.2724) scale(26.3793)">
            <stop stop-color="#FD9BE8"/>
            <stop offset="0.338542" stop-color="#7A73FF"/>
            <stop offset="0.734375" stop-color="#75CDFF"/>
            <stop offset="1" stop-color="#4AFCF1"/>
        </radialGradient>
    </defs>
</svg>