<svg xmlns="http://www.w3.org/2000/svg" width="711" height="696" viewBox="0 0 711 696" fill="none">
    <path d="M474.531 480.82C470.78 481.703 466.588 483.249 465.264 484.132C461.955 486.118 461.734 494.287 465.044 494.287C466.368 494.287 472.766 498.702 479.606 504.221C486.225 509.74 493.065 514.156 494.83 514.156C496.374 514.156 497.477 515.48 497.036 516.805C496.595 518.35 495.05 524.311 493.506 530.05C490.196 542.413 486.225 544.621 462.837 545.725C448.496 546.608 419.813 542.634 401.721 537.336C395.543 535.57 392.895 539.764 398.191 542.634C403.927 545.725 439.009 553.893 446.731 553.893C450.261 553.893 456.88 555.438 461.072 557.204C471.442 561.399 491.3 561.62 497.036 557.204C499.243 555.438 504.759 553.893 508.951 553.893C520.644 553.893 533.662 549.478 538.075 544.4C543.591 538.219 541.605 537.336 531.014 541.53C526.16 543.517 516.232 545.062 508.951 545.062H495.492L498.801 538.66C500.787 535.128 502.773 528.284 503.655 523.648C504.758 516.805 507.186 513.272 514.467 507.312C530.352 494.728 532.338 486.56 520.865 481.483C514.908 478.613 485.563 478.392 474.531 480.82ZM518.438 489.651C520.424 491.638 503.214 505.325 499.022 505.325C494.609 505.325 475.193 490.092 478.282 488.988C487.99 485.456 514.687 486.119 518.438 489.651Z" fill="#00D4FF"/>
    <path d="M440.553 568.022C440.553 569.567 445.628 573.32 452.026 575.969C461.293 579.943 465.926 580.605 476.076 579.501C491.52 577.956 506.744 572.216 506.744 568.022C506.744 564.269 507.406 564.269 491.962 568.243C485.122 570.009 475.193 571.554 470.118 571.554C465.044 571.554 456.66 570.009 451.585 568.243C440.112 564.269 440.553 564.269 440.553 568.022Z" fill="#00D4FF"/>
    <path fill-rule="evenodd" clip-rule="evenodd" d="M238.449 6.1787C239.111 7.28252 237.567 8.6071 234.698 9.49015C231.83 10.1524 223.446 14.5677 215.944 19.4245C207.339 25.1644 202.264 27.372 202.264 25.3851C202.264 21.6321 194.101 18.3207 175.788 14.5677C162.55 11.6978 160.343 11.9185 147.105 16.5546C128.351 22.736 72.309 45.4746 34.58 61.5903C0.601868 76.3815 -31.1698 87.4197 -110.82 112.587C-141.709 122.3 -171.716 132.897 -177.673 135.767C-191.353 142.611 -221.801 170.206 -305.202 251.005C-399.414 342.181 -462.075 406.202 -493.405 443.511C-497.526 448.373 -501.802 453.424 -505.949 458.323L-505.959 458.335L-505.968 458.346C-516.692 471.014 -526.558 482.669 -530.693 487.443C-541.946 500.247 -543.49 506.429 -537.312 513.935C-533.561 518.571 -534.223 519.454 -586.294 571.996C-656.898 643.523 -686.463 676.417 -704.776 703.571C-717.794 723.219 -720 727.634 -720 736.023C-720 749.048 -715.587 751.476 -692.42 751.256C-674.99 750.814 -590.045 737.568 -536.871 726.971C-499.363 719.245 -412.431 697.389 -362.126 682.819C-317.999 670.235 -192.897 626.524 -185.175 621.005C-182.527 619.239 -175.026 611.512 -168.406 603.786C-161.787 595.838 -143.474 575.307 -127.588 557.867L-99.1263 526.298L-76.8419 526.077C-54.5575 525.856 -16.8285 519.012 -4.91406 512.831C1.26379 509.74 13.3989 490.975 48.9215 429.162C60.174 409.734 72.0884 389.203 75.6186 383.464L81.7964 373.308L85.5473 381.697C87.7537 386.554 93.2697 395.606 98.1237 402.008C98.6771 402.772 99.4415 403.827 100.391 405.136C101.597 406.8 103.103 408.874 104.854 411.287L104.904 411.357C113.315 422.947 127.348 442.287 141.148 461.393C160.123 487.664 178.215 510.844 181.745 513.272C185.055 515.48 196.528 521.882 206.898 527.401C217.488 532.92 233.595 543.738 242.641 551.685L259.189 566.035L260.733 584.358C263.602 615.927 261.175 636.679 253.232 654.34L247.275 685.689C254.335 675.975 266.029 651.691 269.559 638.887C272.648 628.732 273.089 621.226 271.986 604.669C271.324 593.189 270 581.488 269.338 578.618C267.573 572.658 269.338 572.437 276.84 577.956C286.327 584.579 316.996 602.24 332.441 610.188C354.284 621.226 387.159 632.706 420.475 641.315C452.688 649.704 466.809 650.367 479.385 643.964L486.225 640.653L487.549 656.327C488.109 663.498 489.109 670.044 490.564 676L507.5 690.741C504.483 686.256 503.407 681.922 501.449 673.105C499.463 664.054 497.257 652.133 496.595 646.614L495.271 636.679L523.733 617.914C568.523 588.332 592.131 569.346 617.063 543.517C645.304 514.155 653.248 501.351 659.205 475.301C661.632 464.484 666.265 450.355 669.133 443.732C672.222 437.109 677.297 423.642 680.165 413.929C683.254 403.995 687.446 393.619 689.653 390.528C696.272 380.814 705.318 358.517 708.848 342.181C713.261 322.533 711.496 318.78 697.816 320.767C692.741 321.65 684.799 322.754 679.724 323.416L670.898 324.74L672.664 308.404C676.194 277.497 668.913 218.553 657.219 181.906C654.792 174.621 652.144 162.7 651.482 155.636C649.055 132.676 631.184 98.2371 610.003 75.7192C605.81 71.3039 604.266 68.2132 605.81 67.3302C607.134 66.4471 608.237 64.2395 608.237 62.2526C608.237 59.8242 606.914 59.1619 602.501 60.2658C598.088 61.3696 593.896 60.045 585.291 54.3051C573.597 46.5784 554.623 37.3063 550.872 37.3063C549.769 37.3063 548.665 36.6441 548.665 35.5402C548.665 34.6572 541.605 33.7741 533.221 33.3326C521.748 32.8911 514.025 30.9042 502.773 26.0474C494.609 22.2944 479.164 16.1131 468.133 12.3601L440.805 4.19148L390.248 0.0285139C360.682 -0.413013 340.825 4.41259 341.266 4.85412C342.81 6.39946 377.892 15.23 382.084 15.23C383.849 15.23 385.394 13.6847 385.394 11.9185C385.394 7.72404 396.205 7.72404 427.315 11.6978C464.161 16.7753 500.566 31.7873 545.797 60.7073C566.096 73.7323 574.48 96.0295 576.686 142.611C578.01 168.219 577.789 169.764 573.818 169.764C567.64 169.764 555.064 178.154 541.164 191.399C529.911 202.217 529.249 203.541 530.132 211.268C531.897 224.293 539.398 255.421 544.914 273.523C549.548 288.756 550.43 290.081 556.167 290.743C561.683 291.405 564.992 288.977 579.334 274.186C597.647 255.421 610.223 233.344 611.988 217.449C612.871 210.385 611.547 204.645 606.472 193.386C602.721 185.218 598.309 178.154 596.764 177.491C594.558 176.608 593.675 167.115 593.013 138.637C592.352 101.769 592.351 100.886 596.544 103.315C605.369 107.951 625.888 136.208 637.803 160.051C653.689 192.062 664.059 247.694 662.955 295.158L662.294 322.312L656.998 321.65C652.806 321.208 651.041 318.78 648.614 309.949C646.849 303.768 644.422 297.145 643.319 295.158C642.216 292.95 641.333 289.639 641.333 287.873C641.333 286.107 640.009 284.561 638.244 284.561C635.596 284.561 635.376 286.107 637.141 291.626C638.244 295.6 639.127 301.34 639.127 304.43C639.127 309.508 638.465 309.949 627.212 310.17C610.664 310.391 593.013 319.663 574.921 337.545L560.359 351.894L565.434 339.311C575.804 312.598 590.586 293.171 610.444 279.705C615.519 276.172 615.518 275.952 611.547 275.952C599.412 275.51 570.95 305.092 560.139 328.935C546.238 359.842 535.868 405.761 538.295 424.305C539.84 435.343 545.797 447.706 550.21 449.472C559.256 453.004 613.974 435.784 634.273 422.98C646.408 415.253 646.408 409.734 634.493 399.358L625.226 391.411L638.023 355.647H648.173L658.543 355.427L656.557 364.257C655.454 369.335 654.13 393.839 653.689 418.786C652.365 485.456 647.29 499.144 609.561 538.219C571.612 577.515 479.826 639.991 460.19 639.991C450.482 639.991 396.426 625.42 370.832 615.707C322.953 597.604 270.221 565.152 234.698 531.817C197.631 496.715 186.82 475.963 169.169 403.774C160.123 366.906 158.358 361.829 154.607 361.829C152.4 361.829 151.518 363.374 152.18 365.582C154.386 373.971 158.137 390.528 163.874 417.02C170.713 449.472 183.51 484.132 195.645 502.676L204.25 515.922L196.749 511.727C186.379 505.546 179.318 498.04 164.756 477.73C161.04 472.453 153.809 462.355 145.431 450.657L145.422 450.644L145.411 450.629C138.372 440.8 130.526 429.844 123.276 419.669C106.067 395.826 93.2697 375.516 91.9458 370.439C89.5188 361.829 89.7394 360.946 103.198 340.194C110.7 328.493 117.319 318.338 117.76 317.897C117.981 317.455 124.379 322.091 131.44 328.273C142.913 338.428 149.312 341.96 149.312 338.649C149.312 338.207 147.326 333.792 144.899 329.156C142.472 324.52 139.383 312.819 138.059 302.885L135.411 285.224L146.443 268.225C156.593 252.33 157.475 251.447 160.785 255.2C162.77 257.408 164.977 261.602 165.859 264.693C168.507 272.861 191.895 321.65 199.617 334.675C207.78 348.362 205.795 349.466 189.026 340.856C183.069 337.765 177.112 335.337 175.788 335.337C171.817 335.337 173.361 341.96 181.083 356.972C195.645 386.113 203.368 396.268 223.666 412.604C246.392 430.928 264.264 436.888 311.039 441.304C322.291 442.407 339.501 444.836 349.65 447.043C367.522 450.796 367.963 450.796 373.92 446.381C382.084 440.2 385.614 422.98 385.835 386.113C386.055 346.155 381.863 325.182 368.846 298.69C360.682 282.133 355.608 275.289 344.355 265.134C323.174 245.707 292.064 230.916 283.68 236.214C281.253 237.539 281.253 238.201 283.9 239.084C311.48 248.798 330.234 260.057 344.355 275.731C360.903 294.275 376.568 336.662 376.568 363.374V373.529L368.846 358.076C359.579 339.752 333.985 311.274 309.715 292.73C290.299 277.939 262.278 261.381 250.363 257.628C240.214 254.538 239.994 252.551 248.598 248.136C252.349 246.149 255.217 243.279 255.217 241.513C255.217 237.539 244.627 240.409 235.36 247.032C228.962 251.447 227.638 251.668 208.222 249.239C181.525 246.149 164.094 241.292 166.301 237.318C167.106 235.907 176.004 222.719 186.614 206.994L189.688 202.437L211.531 170.206L223.887 167.998C238.228 165.57 241.317 166.232 243.303 172.634C246.613 183.673 255.217 181.906 255.438 169.985C255.438 165.57 256.1 160.492 256.983 158.506C258.748 154.753 272.648 137.533 288.534 120.093C294.05 114.132 303.316 102.211 309.274 94.0426C315.01 85.6536 321.188 78.3684 322.733 77.7061C334.206 73.2908 353.401 100.224 375.906 152.103C383.187 168.44 383.187 169.323 378.775 179.037C376.568 184.335 373.479 199.126 372.155 212.372L369.508 235.994L378.775 247.032C391.572 262.264 416.062 284.561 423.784 287.873C437.243 293.613 441.656 288.314 449.158 258.07C458.204 221.202 457.983 201.554 448.275 189.854C442.759 183.673 410.326 165.349 404.148 165.349C402.603 165.349 400.397 163.142 399.735 160.272C396.205 148.13 384.291 118.989 377.23 104.639C365.536 81.6798 357.152 70.8624 343.031 61.1488C335.971 56.5128 330.234 51.656 330.234 50.7729C330.234 49.6691 332.661 43.4877 335.75 36.8648C341.707 24.2813 342.59 15.23 339.06 8.38633C337.074 4.85412 333.985 0.0285139 321.409 0.0285139L307.067 4.41259L318.761 10.1524C331.779 16.7753 332.661 19.6453 325.821 34.8779C320.526 46.1369 320.085 57.8374 324.718 61.5903C329.572 65.5641 328.69 67.551 321.409 68.8755C316.334 69.9794 311.48 74.6154 301.11 88.7442C293.388 99.1201 277.943 117.885 266.911 130.91C255.659 143.714 246.392 155.415 246.392 156.519C246.392 157.622 243.524 158.064 240.214 157.402C236.684 156.739 230.285 157.181 225.652 158.285C217.93 160.492 217.489 160.492 219.033 155.856C219.695 153.207 220.577 151 220.798 151C220.798 151 229.624 145.26 239.993 138.195C269.118 118.768 296.918 91.6142 307.067 72.6285C322.512 43.0462 319.644 21.1906 298.462 10.3732C297.239 9.72502 296.15 9.08019 295.091 8.45294C289.658 5.23477 285.007 2.47951 266.911 2.11C251.908 1.66847 237.787 5.07488 238.449 6.1787ZM286.989 15.4508C291.623 16.7753 298.021 20.3076 300.889 23.1775C305.964 28.255 306.405 30.2419 305.523 42.6047C304.42 62.4734 296.256 77.0438 275.737 97.354C244.406 128.482 224.77 141.065 207.119 141.948C193.218 142.611 179.098 148.35 175.567 154.532C172.92 159.609 167.404 159.83 161.005 155.415C153.062 149.896 149.312 139.52 149.312 123.404C149.312 103.756 157.475 87.1989 178.436 64.9018C201.823 39.9555 226.755 24.2813 255.217 16.5546C270 12.5808 275.957 12.3601 286.989 15.4508ZM178.656 24.2813C185.496 25.8266 191.233 27.5928 191.233 28.4758C191.233 31.7873 148.65 79.6929 140.927 84.7705C136.515 87.8612 129.895 90.2896 126.145 90.2896C117.76 90.2896 114.01 93.8218 114.01 101.328C114.01 109.496 108.494 117.223 84.0028 143.494C82.7255 144.873 81.4951 146.205 80.3065 147.492C66.7365 162.183 58.6371 170.952 48.833 176.919C34.3179 185.755 16.0663 188.452 -29.2073 195.142C-32.1024 195.57 -35.108 196.014 -38.2303 196.477C-63.1623 200.23 -93.3896 205.087 -105.525 207.294C-130.898 212.372 -235.921 238.643 -248.939 243.279C-259.088 247.032 -291.081 269.991 -317.337 292.288C-370.952 338.207 -383.528 349.466 -407.798 372.867C-422.36 386.996 -444.645 407.968 -457.441 419.448L-480.608 440.2L-462.516 420.331C-435.378 390.307 -272.327 229.812 -219.815 181.244C-182.086 146.364 -177.232 143.494 -131.56 128.923C-34.4795 98.0163 5.01465 84.1082 37.8896 69.7586C57.3057 61.3696 80.6932 51.656 89.7394 48.1238C98.7855 44.8123 117.76 37.5271 131.661 32.008C159.681 20.9699 160.785 20.7491 178.656 24.2813ZM549.327 47.2407C557.712 51.4352 584.409 75.4984 594.117 87.1989L601.839 96.9125L594.999 95.3672C586.394 93.8218 584.188 96.6917 583.747 109.054C583.526 117.223 583.305 117.002 581.54 105.743C578.231 81.9006 566.316 62.4734 549.107 51.656C536.972 44.15 537.192 40.8386 549.327 47.2407ZM619.931 103.315C626.109 113.911 623.241 111.483 610.444 95.1464C607.277 91.2382 603.857 86.9763 600.814 83.1827L600.812 83.1804C597.495 79.0462 594.624 75.4685 593.013 73.5116C589.925 69.7586 593.675 73.5116 601.618 81.6798C609.561 89.8481 617.725 99.5617 619.931 103.315ZM347.223 76.1607C355.166 82.5629 359.579 89.6273 371.052 113.249C378.775 129.144 385.614 144.597 386.276 147.688C387.159 150.779 382.305 142.169 375.906 128.482C361.565 99.5617 352.298 85.212 341.487 75.4984C330.675 65.7848 335.309 66.2264 347.223 76.1607ZM134.97 107.951C131.881 113.911 127.91 125.612 125.924 133.78C124.159 142.169 120.408 151.662 117.981 155.415C115.554 158.947 114.23 160.051 115.113 157.622C116.216 153.87 119.746 128.702 120.408 118.989C121.07 106.405 123.497 101.769 130.116 99.5617C131.379 99.2108 132.619 98.8599 133.759 98.5374C136.205 97.8453 138.189 97.2838 138.942 97.1333C139.824 96.9125 138.059 101.769 134.97 107.951ZM136.735 134.663C135.411 135.988 135.191 134.001 135.853 129.585C136.735 123.404 137.176 123.183 137.838 127.599C138.28 130.469 137.838 133.559 136.735 134.663ZM109.597 147.026C106.287 168.881 103.198 175.284 89.7394 188.529L78.7076 199.347V162.479L94.814 145.48C103.419 136.208 110.921 128.923 111.362 129.144C111.803 129.365 110.921 137.533 109.597 147.026ZM585.512 149.233C585.07 153.87 584.629 150.558 584.629 142.169C584.629 133.559 585.07 130.027 585.512 133.78C585.953 137.754 585.953 144.818 585.512 149.233ZM145.781 154.09C158.799 172.855 157.916 183.452 141.369 201.113C134.529 208.398 131.661 213.476 131.661 217.891C131.661 222.085 129.454 226.28 124.821 230.695C111.803 243.058 70.9852 300.456 59.9533 322.091C54.2167 333.35 33.6975 362.491 22.8863 374.633C18.9148 379.048 7.44165 391.632 -2.7077 402.449C-12.8571 413.487 -34.7001 438.434 -51.2479 457.64C-122.955 541.972 -186.94 612.174 -195.765 616.59C-209.004 623.213 -315.351 660.301 -355.948 672.222C-431.186 694.519 -498.921 711.297 -564.671 723.881C-645.866 739.555 -697.054 745.957 -710.513 742.425C-718.014 740.438 -716.69 735.14 -704.997 717.037C-683.374 684.143 -664.179 662.288 -582.322 578.398C-543.49 538.66 -381.101 393.398 -333.884 356.31C-325.339 349.636 -302.226 330.947 -281.28 314.011L-277.622 311.053C-255.779 293.171 -225.993 270.433 -211.431 260.277C-196.869 250.122 -182.968 240.188 -180.541 238.201C-176.129 234.448 -158.919 227.605 -162.89 231.137C-164.214 232.241 -175.467 240.409 -188.264 249.239C-241.658 286.769 -298.362 333.35 -438.467 455.432C-532.238 537.115 -695.951 706.661 -701.466 728.075C-702.349 731.387 -701.908 733.815 -699.922 735.14C-697.716 736.464 -696.612 735.802 -696.171 733.153C-694.627 725.868 -664.179 688.559 -637.923 661.626C-623.361 646.614 -599.753 622.109 -585.632 607.097C-571.511 591.864 -550.992 570.892 -540.18 560.516C-477.961 500.91 -454.794 479.275 -419.933 449.251C-398.752 431.148 -373.379 409.072 -363.671 400.462C-353.962 391.853 -334.105 374.854 -319.543 362.933C-304.981 351.011 -281.593 331.584 -267.693 319.884C-238.348 295.158 -219.815 281.25 -173.04 248.136C-146.122 229.15 -136.855 223.631 -126.706 221.423C-108.614 217.229 -68.4576 210.385 -30.508 205.087C-12.1951 202.658 5.45587 200.009 8.76544 199.347C14.502 198.243 14.9433 198.464 12.9576 202.217C11.4131 204.866 11.4131 216.346 12.9576 235.773C15.1639 265.134 15.1639 265.134 10.0892 270.433L4.79401 275.731L5.45587 263.368C5.89716 256.745 5.67651 248.798 5.01459 245.928C3.24951 238.643 -3.81085 235.11 -9.76807 238.422C-14.4014 240.85 -14.6221 241.954 -13.2982 266.9C-11.9744 290.964 -12.1951 293.171 -16.1666 296.703C-20.5762 300.674 -20.5793 300.457 -20.7994 285.477L-20.8 285.445C-21.0206 259.394 -24.1095 233.786 -27.6397 230.254C-30.2874 227.605 -32.2731 227.605 -43.0844 231.357C-57.8671 236.435 -83.461 241.733 -107.29 244.824C-126.485 247.252 -152.962 256.966 -166.862 266.68C-179.218 275.289 -223.566 313.482 -263.28 349.687C-266.155 352.275 -269.175 354.998 -272.266 357.784C-288.155 372.107 -305.895 388.1 -315.13 396.047C-317.039 397.762 -319.113 399.622 -321.281 401.565C-331.389 410.628 -343.529 421.514 -350.432 428.058C-359.037 436.005 -389.264 462.938 -417.727 487.885C-474.872 537.998 -555.846 618.797 -561.803 631.602C-571.07 651.47 -562.244 659.418 -525.177 664.275C-498.921 667.586 -481.05 666.924 -432.509 660.742C-379.998 654.12 -364.553 650.808 -317.337 635.575C-271.885 620.784 -252.911 611.071 -228.199 589.877C-207.901 572.658 -171.937 529.167 -147.005 492.079C-140.827 483.028 -128.03 465.588 -118.542 453.446C-109.417 441.825 -100.488 430.205 -97.6155 426.468L-97.1405 425.85C-91.1833 417.461 -107.731 450.576 -123.176 477.73C-130.677 490.975 -146.122 518.35 -157.375 538.439C-183.63 585.021 -193.338 599.37 -202.164 603.786C-209.004 607.539 -272.768 632.043 -319.543 649.263C-371.613 668.469 -417.065 680.17 -515.91 700.48C-548.565 707.103 -585.852 715.05 -598.649 718.141C-627.332 724.985 -671.68 732.711 -681.609 732.711C-689.331 732.711 -691.758 736.244 -685.581 738.672C-680.947 740.438 -627.553 731.828 -598.87 724.985C-587.176 722.115 -556.066 715.713 -530.031 710.635C-426.111 690.546 -362.788 673.768 -300.789 649.925C-280.049 641.978 -251.807 631.381 -238.348 626.524C-188.484 608.201 -185.396 605.331 -152.521 547.27C-108.172 469.561 -94.4929 443.732 -68.8989 391.411L-40.878 333.571L-0.280701 292.951C47.1564 245.266 115.554 173.517 129.234 156.96C134.308 150.779 138.942 145.48 139.383 145.48C139.604 145.48 142.472 149.233 145.781 154.09ZM212.635 152.986C211.531 155.856 203.588 167.998 178.656 205.087C170.713 217.229 163.432 228.488 133.867 275.731C123.362 292.511 109.933 313.604 101.293 327.173L101.287 327.183L100.003 329.2C98.817 331.063 97.7412 332.753 96.7999 334.233C88.8569 346.375 80.0314 360.283 77.3837 365.361C74.7361 370.218 69.2202 379.269 65.028 385.23C60.8359 391.19 51.5692 406.202 44.7294 418.565C37.6689 431.148 31.4911 441.304 31.2705 441.304C30.8292 441.304 34.8007 430.707 40.096 417.461C45.3913 404.436 52.8929 381.918 56.6438 367.348C59.7807 355.162 63.3804 342.051 65.2493 335.244C65.6151 333.911 65.9145 332.821 66.1312 332.026C68.7788 321.429 73.6329 313.04 88.4156 292.288C110.038 261.823 122.394 245.707 131.44 236.435C137.838 229.812 140.486 225.176 140.486 220.761C140.486 215.021 149.312 201.554 162.329 187.426C164.315 185.218 168.286 179.257 171.375 174.18C174.464 169.102 179.76 163.362 183.069 161.596C186.599 159.83 188.806 157.843 188.144 156.96C185.496 154.532 196.528 150.117 205.353 149.896C211.752 149.896 213.517 150.558 212.635 152.986ZM70.9852 195.373C69.882 206.19 68.1169 210.826 63.4836 216.346L57.3057 223.41L55.7612 204.866L53.9962 186.322L62.601 179.257L62.7675 179.118C70.7676 172.411 70.9897 172.225 71.6472 176.829C72.0884 179.478 71.8678 187.867 70.9852 195.373ZM442.539 196.698C447.172 203.321 447.613 205.528 446.289 221.644C445.186 239.526 437.243 274.627 433.493 279.263C429.742 284.341 422.02 279.263 400.176 257.408L378.333 235.552L379.657 218.553C380.54 209.281 382.305 196.256 383.628 189.633L386.055 177.491L390.248 187.205C396.867 202.879 397.308 206.853 393.116 216.125C389.144 224.735 389.144 224.955 394.881 233.565C404.589 248.356 424.005 267.121 427.977 265.576C432.831 263.81 436.14 252.992 437.685 233.565C439.229 213.255 437.243 208.84 424.226 203.983C415.621 200.671 414.077 198.905 409.884 188.088C407.237 181.465 405.251 175.063 405.251 173.959C405.251 169.764 437.243 189.412 442.539 196.698ZM577.348 179.92C577.348 180.582 576.245 185.439 574.921 190.958C572.715 199.126 570.95 201.554 564.11 205.087C559.476 207.515 555.284 211.268 554.843 213.476C553.519 218.112 556.829 252.33 559.477 263.589C562.124 274.848 568.964 273.523 579.113 259.836C588.601 247.032 597.206 231.357 597.206 226.501C597.206 224.735 595.22 220.761 592.793 217.891C588.821 212.813 588.821 211.268 591.248 198.905L594.117 185.439L599.191 198.464C605.369 213.917 604.707 220.54 594.558 240.409C586.615 256.525 561.242 284.561 557.932 281.25C555.284 278.601 544.914 241.733 540.722 220.54L538.075 206.19L544.914 198.684C554.843 188.309 568.523 178.595 573.377 178.595C575.583 178.595 577.348 179.257 577.348 179.92ZM48.4802 209.943C49.3628 230.254 49.3627 230.474 43.1849 237.097L36.7864 243.72V228.046C36.7864 212.151 33.6975 198.464 29.9467 198.464C28.8434 198.464 27.9609 197.581 27.9609 196.698C27.9609 195.152 37.6689 191.62 45.8325 189.854C46.7151 189.854 47.8183 198.905 48.4802 209.943ZM418.489 210.606C428.859 215.242 429.521 218.332 426.212 243.72L424.667 254.758L418.048 247.032C400.618 226.721 400.176 225.397 403.045 218.332C404.589 214.579 405.913 209.06 405.913 205.749C405.913 201.554 406.354 200.892 407.678 203.321C408.561 205.087 413.415 208.398 418.489 210.606ZM28.1816 210.606C29.0641 214.359 29.726 224.735 29.9467 233.786C29.9467 247.032 29.2847 251.447 25.7545 255.862L21.3418 261.381V250.343C21.3418 244.162 20.6799 230.916 19.7974 220.761C18.4735 203.541 18.6942 202.437 22.6656 203.321C25.0927 203.762 27.299 206.632 28.1816 210.606ZM580.216 208.177C579.555 211.268 580.658 215.904 582.644 218.774C584.629 221.423 586.174 225.618 586.174 227.825C586.174 232.903 580.437 244.162 573.818 251.888L568.964 258.07L567.64 251.888C566.978 248.577 565.875 238.863 565.213 230.033C563.889 215.683 564.11 214.138 568.081 213.034C570.508 212.151 574.039 209.723 576.245 207.294L576.246 207.294C578.877 204.432 580.144 203.054 580.6 203.284C581.023 203.497 580.747 205.096 580.216 208.177ZM-30.7287 244.162C-28.3017 259.615 -28.7429 261.602 -34.0381 254.979C-36.6858 251.668 -40.6573 249.239 -43.9669 249.239C-47.0558 249.239 -48.8209 248.356 -48.159 247.032C-47.4971 245.928 -50.1447 246.369 -54.3369 248.136C-58.3083 249.681 -73.5323 254.317 -88.0944 258.07C-102.877 262.044 -123.176 269.329 -134.649 274.848C-154.065 284.341 -156.492 286.548 -201.943 332.688C-297.921 429.824 -367.421 505.546 -380.218 526.739C-385.955 536.011 -387.941 542.192 -388.603 551.906C-389.706 568.022 -385.955 574.645 -371.834 580.826C-362.126 585.241 -358.817 585.241 -316.233 584.138C-291.301 583.254 -265.928 581.709 -259.971 580.385C-243.203 576.852 -227.978 568.463 -214.961 555.659C-203.929 544.621 -122.734 439.317 -64.0449 359.621C-56.7639 349.466 -69.7814 371.542 -88.5356 400.242C-98.685 415.916 -115.895 439.979 -126.706 454.108C-137.738 468.016 -151.859 487.002 -158.036 496.274C-169.289 513.052 -195.545 547.049 -210.107 563.827C-225.11 580.826 -250.925 600.916 -268.796 609.305C-287.771 618.135 -345.799 637.783 -369.186 643.081C-420.374 654.782 -502.672 660.963 -532.679 655.444C-557.831 650.808 -561.141 646.393 -552.095 631.16C-545.035 619.46 -449.94 525.414 -410.004 490.975C-390.588 474.197 -363.671 450.355 -350.432 437.992C-348.365 436.127 -346.162 434.136 -343.876 432.071L-343.871 432.066C-331.28 420.691 -316.184 407.052 -307.408 399.579C-297.038 390.528 -283.138 378.165 -276.519 371.984C-261.515 357.855 -227.317 327.39 -208.121 311.053C-200.399 304.43 -189.146 294.717 -183.189 289.418C-159.14 268.225 -133.325 255.641 -107.731 252.772C-85.6674 250.122 -58.7496 244.824 -46.6146 240.409C-40.2161 238.201 -34.2589 236.214 -33.5969 236.214C-32.7144 235.994 -31.6113 239.747 -30.7287 244.162ZM-213.858 251.888C-239.452 269.55 -254.455 281.029 -285.344 306.638C-299.244 318.338 -319.543 334.675 -330.575 343.064C-341.386 351.674 -362.347 368.893 -376.909 381.697C-391.471 394.502 -414.196 414.37 -427.655 425.85C-440.894 437.33 -466.046 459.406 -483.477 475.08C-510.836 499.806 -514.807 502.676 -514.807 497.819C-514.807 494.508 -510.615 487.443 -503.996 479.496C-477.519 447.926 -333.002 313.261 -297.479 286.99C-295.399 285.446 -293.418 283.975 -291.53 282.573C-265.835 263.491 -257.27 257.13 -247.71 253.171C-242.93 251.192 -237.902 249.813 -230.358 247.746C-229.523 247.517 -228.658 247.279 -227.758 247.032C-213.858 243.279 -201.502 239.747 -200.399 239.305C-193.338 236.877 -196.207 239.526 -213.858 251.888ZM-0.942566 256.304C-1.16321 262.706 -2.04572 270.874 -2.92828 274.627L-4.69342 281.25L-4.91406 273.303C-4.91406 268.887 -5.79657 260.719 -6.4585 254.979C-7.78235 246.59 -7.341 244.824 -4.25208 244.824C-1.38379 244.824 -0.721924 247.032 -0.942566 256.304ZM184.393 254.538C185.496 255.2 197.411 257.408 211.09 259.174C224.77 261.161 241.538 264.914 248.378 267.342C274.634 277.276 315.893 306.859 337.957 331.805C356.711 352.998 359.138 357.413 343.252 341.739C320.526 319.221 304.861 311.274 261.837 300.236C251.467 297.587 237.787 293.834 231.389 292.067C219.033 288.535 185.275 267.121 174.905 256.083L168.507 249.239L175.347 251.226C179.098 252.33 183.069 253.875 184.393 254.538ZM-36.4652 263.147C-34.7001 266.459 -32.935 274.627 -32.2731 281.25C-31.1699 291.626 -31.8318 294.937 -38.2303 307.3C-45.9526 322.754 -91.8452 387.879 -123.176 428.058C-134.208 441.966 -157.595 472.873 -175.467 496.494C-233.274 573.32 -236.583 575.307 -316.895 577.515C-352.418 578.618 -359.478 578.177 -368.083 574.865C-379.556 570.671 -382.425 566.476 -382.425 553.893C-382.425 537.998 -370.069 518.792 -335.208 480.82C-269.679 409.514 -160.464 298.028 -146.784 288.535C-133.104 279.042 -116.998 272.419 -90.9627 265.797C-78.3864 262.485 -66.6925 258.953 -65.1481 258.291C-63.8242 257.408 -57.2051 256.745 -51.0273 256.966C-40.4367 256.966 -39.1129 257.628 -36.4652 263.147ZM198.293 284.12L206.677 289.639L205.353 305.313C205.148 307.318 204.954 309.251 204.776 311.037L204.773 311.065C204.185 316.934 203.757 321.208 203.588 321.208C203.588 321.429 197.631 310.17 190.791 296.262C189.49 293.637 188.303 291.27 187.238 289.147C182.421 279.541 180.109 274.931 181.074 274.093C181.964 273.32 185.644 275.757 192.719 280.445C194.386 281.549 196.241 282.778 198.293 284.12ZM219.474 302.664C216.165 312.819 215.503 313.04 215.503 303.768C215.503 298.028 216.385 295.6 218.592 295.6C221.239 295.6 221.46 296.924 219.474 302.664ZM247.495 315.027C243.303 319.442 239.332 325.403 238.67 328.493C236.684 338.869 245.509 388.32 251.025 395.826C255.218 402.008 254.776 401.787 246.833 394.06C241.979 389.424 235.581 380.373 232.933 374.191C227.417 361.387 221.901 331.805 223.446 324.078C227.638 304.651 229.403 299.794 232.712 301.119C234.477 301.781 240.214 303.326 245.509 304.651L255.217 307.079L247.495 315.027ZM-24.992 303.989C-24.992 305.092 -26.9778 307.742 -29.6254 310.17C-34.2588 314.365 -34.2589 314.365 -31.3906 308.183C-28.7429 302.443 -24.992 300.015 -24.992 303.989ZM129.454 307.962C129.454 311.053 126.806 312.157 124.379 309.729C122.394 307.742 125.262 302.002 127.468 303.547C128.572 304.209 129.454 306.196 129.454 307.962ZM293.167 316.793C304.64 320.546 304.861 320.987 307.067 346.596C308.612 363.153 308.612 363.374 301.551 371.542C294.05 379.931 269.559 394.943 263.381 394.943C257.645 394.943 254.997 387.217 250.805 359.842C246.613 330.922 247.495 325.182 258.086 316.351C265.587 309.949 272.648 310.17 293.167 316.793ZM638.465 321.871C645.966 329.597 653.909 333.129 666.927 334.896L679.944 336.662L672.884 340.415C664.279 345.051 656.336 345.492 625.888 343.285C599.853 341.298 588.16 343.285 574.039 352.336L565.213 358.076L570.729 351.894C584.629 336.22 599.412 325.844 615.518 320.987C628.536 316.793 633.831 317.014 638.465 321.871ZM322.292 335.117C324.033 337.077 324.916 338.07 324.7 338.467C324.479 338.875 323.1 338.654 320.306 338.207C317.217 337.545 314.79 335.558 314.79 334.013C314.79 329.818 317.879 330.26 322.291 335.116L322.292 335.117ZM699.802 335.779C698.919 338.649 696.713 343.285 694.948 346.154C692.741 349.687 692.521 350.791 694.507 349.687C696.492 348.362 696.934 349.024 695.83 351.674C694.948 353.881 694.286 356.972 694.286 358.738C694.286 360.725 693.183 361.387 691.859 360.725C690.535 359.842 690.094 358.076 690.535 356.53C692.079 352.557 682.592 352.557 673.546 356.31C666.486 359.4 665.603 359.4 665.603 356.31C665.603 354.544 667.148 352.998 669.133 352.998C673.987 352.998 688.991 341.96 692.3 335.779C693.845 333.129 696.492 330.922 698.037 330.922C700.243 330.922 700.684 332.467 699.802 335.779ZM328.69 347.921C330.896 348.583 332.441 351.232 332.441 354.323C332.441 357.193 332.22 359.621 331.779 359.621C331.337 359.621 327.587 356.089 323.394 351.453C318.099 345.713 317.217 343.947 320.306 345.271C322.733 346.155 326.483 347.479 328.69 347.921ZM44.5087 377.061C35.2419 409.514 17.8116 450.796 3.91144 473.756L-6.23792 490.534L-22.7856 495.391C-31.8318 498.04 -48.159 500.91 -58.9702 501.793C-77.7244 503.117 -78.6069 502.897 -75.2974 499.364C-73.5323 497.157 -61.6179 482.807 -48.6002 467.574C-35.8032 452.342 -13.7396 426.954 0.381226 411.28C14.502 395.606 31.7117 375.295 38.5515 366.023C45.3913 356.751 51.3485 349.466 51.7898 349.687C52.0104 349.907 48.9214 362.27 44.5087 377.061ZM204.912 355.206C211.752 355.206 212.634 356.089 220.798 372.867C230.947 393.839 247.495 410.617 268.676 421.214C283.459 428.72 283.459 429.162 268.456 425.629C238.67 418.786 213.076 396.489 189.026 356.751L183.952 348.141L190.791 351.674C194.542 353.66 200.941 355.206 204.912 355.206ZM363.33 387.216C372.817 406.644 376.127 423.422 372.376 433.356C369.949 439.537 369.508 439.758 358.255 438.434C352.077 437.771 335.53 434.018 321.85 430.045L297.139 422.98L310.156 411.28C326.263 396.489 336.853 378.607 338.398 362.712L339.722 351.011L347.003 360.283C351.195 365.361 358.476 377.503 363.33 387.216ZM595.661 357.413C594.337 362.491 586.174 363.595 586.174 358.738C586.174 356.089 588.821 354.323 595.44 353.219C596.102 353.219 596.323 354.985 595.661 357.413ZM628.095 354.764C628.095 355.868 625.668 363.374 622.8 371.763C617.725 386.113 604.045 407.747 594.558 416.357L589.925 420.331L594.558 411.501C598.971 402.67 606.031 370.218 606.031 358.959C606.031 353.219 606.472 352.998 617.063 352.998C623.241 352.998 628.095 353.881 628.095 354.764ZM327.366 372.646C320.526 388.1 312.363 398.917 300.007 408.631L286.769 419.227L272.648 412.163C259.63 405.54 258.968 405.098 264.484 403.553C275.075 400.683 297.139 387.658 307.067 378.386C314.79 371.322 316.996 367.789 316.996 362.27V355.206L323.394 360.946C329.352 366.023 329.572 367.348 327.366 372.646ZM574.039 396.489C572.494 404.657 565.213 413.046 554.843 418.344L548.003 421.876L549.548 407.085C551.534 388.1 555.505 378.607 565.875 368.893L574.039 360.946L574.701 375.295C575.142 383.022 574.701 392.736 574.039 396.489ZM683.916 366.906C684.799 369.335 671.119 419.669 665.824 432.473C664.059 437.109 663.617 436.005 663.397 424.746C662.735 403.995 662.735 399.138 663.176 384.567C663.397 371.101 663.617 370.659 670.678 367.569C679.724 363.595 682.592 363.374 683.916 366.906ZM594.117 374.191C593.455 376.178 592.793 378.827 592.793 380.152C592.572 383.022 586.174 375.295 586.174 372.425C586.174 371.542 588.159 370.659 590.807 370.659C594.117 370.659 594.999 371.542 594.117 374.191ZM590.586 394.722C590.586 406.644 572.715 431.148 559.256 438.213C553.74 441.083 553.299 440.862 551.975 436.668C551.092 434.239 550.872 432.031 551.313 431.59C575.142 417.682 583.967 407.085 583.967 392.515C584.188 383.464 584.408 383.022 587.277 386.996C589.042 389.424 590.586 392.956 590.586 394.722ZM628.095 405.098C631.625 408.41 634.052 411.942 633.169 413.267C631.846 415.695 603.825 428.941 594.999 431.369C589.924 432.694 589.924 432.473 596.544 427.175C600.294 423.863 607.134 416.357 611.547 410.397C615.96 404.215 620.152 399.358 620.593 399.358C621.034 399.358 624.565 402.008 628.095 405.098ZM-523.191 496.494C-523.633 500.247 -523.191 504.442 -521.868 505.987C-520.102 507.974 -520.544 509.519 -523.853 511.506C-527.604 513.935 -528.487 513.493 -530.472 508.857C-532.679 504.442 -532.238 502.234 -528.266 496.715C-525.618 492.962 -522.971 489.872 -522.75 489.872C-522.529 489.872 -522.529 492.962 -523.191 496.494ZM-2.92828 500.91C-6.23785 506.87 -27.8603 512.831 -54.7781 515.039C-60.7353 515.48 -68.4576 516.584 -71.7672 517.467C-75.2974 518.35 -80.5927 518.35 -83.9022 517.688C-88.7562 516.363 -89.1976 515.701 -86.5499 513.052C-84.3436 510.623 -74.8561 509.74 -51.2479 508.857C-21.2412 507.974 -18.5936 507.533 -10.6506 502.234C-0.721924 495.391 0.160645 495.17 -2.92828 500.91Z" fill="#00D4FF"/>
</svg>