<svg width="566" height="846" viewBox="0 0 566 846" fill="none" xmlns="http://www.w3.org/2000/svg">
<path d="M374.684 11.0816C372.605 17.216 370.625 22.4599 370.229 22.7568C369.833 23.0536 369.635 24.142 369.833 25.2303C370.031 26.3187 369.536 28.4954 368.745 30.1774C367.458 33.1457 359.538 65.8957 357.261 77.8677C356.667 81.3307 355.875 84.1011 355.479 84.1011C355.182 84.1011 354.786 86.1789 354.786 88.8503C354.687 91.4228 353.895 98.3488 352.905 104.384C352.014 110.321 350.727 119.522 349.935 124.667C349.242 129.812 347.559 141.883 346.074 151.382C343.698 167.905 341.817 190.068 339.441 232.515C338.847 243.102 338.055 256.954 337.659 263.187C336.768 277.435 337.065 326.609 337.956 335.91C338.352 339.669 339.144 345.507 339.738 348.772C340.332 352.037 340.827 355.995 341.025 357.677C341.52 362.525 344.292 374.497 346.569 381.126C350.727 393.494 364.587 429.113 368.943 438.315C371.318 443.46 375.575 453.453 378.347 460.577C381.119 467.602 383.792 473.934 384.287 474.627C384.782 475.32 384.98 476.21 384.683 476.804C384.386 477.298 384.485 477.892 384.98 478.09C385.97 478.387 396.959 504.013 396.959 505.893C396.959 507.377 401.315 512.225 406.265 516.183C409.532 518.854 410.125 519.844 410.224 523.603C410.422 529.54 413.788 548.438 414.877 549.625C416.56 551.406 415.768 552 412.798 550.912C411.115 550.417 408.542 550.219 407.057 550.516C405.572 550.912 402.8 551.406 400.919 551.703C399.038 552 396.86 552.791 396.266 553.286C395.573 553.88 394.385 554.078 393.593 553.781C392.9 553.484 391.811 553.682 391.217 554.276C390.623 554.869 389.633 554.968 388.94 554.473C387.554 553.682 366.27 553.88 359.934 554.77L356.073 555.265L357.657 552.495C359.439 549.328 362.31 538.346 362.31 534.784C362.31 533.597 361.617 532.014 360.825 531.321C359.736 530.43 359.637 529.738 360.33 528.847C361.815 526.968 360.132 517.766 354.984 499.659C351.123 486.104 339.144 452.167 336.372 446.725C334.689 443.658 319.543 423.672 313.801 417.042C310.93 413.777 302.119 404.18 294.1 395.77C286.082 387.36 271.727 371.727 262.223 361.14C252.719 350.553 239.85 336.305 233.613 329.478C214.11 308.404 192.133 282.481 175.699 261.208C149.366 227.271 115.311 190.167 101.352 180.273C91.1555 172.951 87.6906 172.457 85.0176 177.8L83.4337 180.966L77.9888 174.337C75.0189 170.676 67.9901 162.76 62.3472 156.824C56.8033 150.788 46.6066 139.212 39.7758 131.099C22.8472 110.816 15.8184 103.692 14.1354 104.978C13.4424 105.572 11.9575 109.232 10.8685 113.19C9.68053 117.049 7.89858 122.293 6.9086 124.766C5.81963 127.24 4.82965 130.604 4.53266 132.187C4.23567 133.77 3.0477 139.905 1.95873 145.94C-2.10017 168.202 -2.19917 167.609 25.3221 269.123C37.7958 315.033 47.2006 340.164 67.7921 382.709C81.3547 410.809 89.5715 426.739 106.104 457.114C111.252 466.613 117.687 478.684 120.261 483.829C130.062 503.518 133.427 507.179 152.435 519.052C157.583 522.218 166.691 528.551 172.729 533.003C178.669 537.455 188.569 544.085 194.707 547.745L205.795 554.276L212.427 565.555C215.991 571.788 221.04 581.881 223.614 588.015C226.089 594.05 228.762 599.987 229.356 601.174C231.138 604.341 242.325 609.486 250.245 610.673L257.273 611.761L255.887 614.433C255.095 615.917 254.006 619.281 253.412 621.952C252.719 624.624 252.026 627.493 251.729 628.285C251.432 629.076 251.234 630.956 251.333 632.44C251.531 634.023 250.64 637.585 249.552 640.553C248.067 644.61 243.513 664.003 243.513 666.476C243.513 666.575 240.84 665.19 237.474 663.31C228.861 658.561 228.267 658.66 229.158 665.586C230.643 678.448 232.821 683.989 238.563 690.124C241.632 693.389 242.424 694.972 242.721 699.226C243.414 706.449 241.533 707.834 232.524 707.241C228.861 706.944 225.396 707.043 224.901 707.34C222.723 708.725 222.624 717.729 224.703 724.753C225.891 728.513 226.881 732.471 226.98 733.361C227.079 734.252 227.277 734.846 227.475 734.648C228.366 733.757 231.732 739.1 231.039 740.188C230.643 740.98 230.742 741.079 231.534 740.683C232.92 739.793 235.791 741.87 234.999 743.157C234.702 743.651 234.9 744.047 235.395 744.047C235.89 744.047 237.276 747.51 238.464 751.666C239.751 755.92 241.929 762.055 243.513 765.32C245.988 770.465 247.275 775.115 247.968 780.656C248.067 781.448 248.562 783.031 248.958 784.119C249.354 785.207 250.245 787.78 251.036 789.858C253.808 797.179 259.649 804.897 271.628 816.77C283.706 828.841 302.416 843.089 319.939 853.675L327.661 858.326L327.067 862.283C326.77 864.46 326.176 866.637 325.879 867.132C325.582 867.725 325.186 869.012 325.087 870.1C324.79 873.761 321.622 883.952 320.236 886.228C319.444 887.415 316.771 890.086 314.197 892.164C303.307 901.168 298.06 923.034 302.515 940.844C304.594 949.155 305.881 951.727 312.514 960.434C316.474 965.579 319.345 968.251 323.206 970.23L328.453 973L335.283 970.724C342.609 968.152 355.38 962.413 359.34 959.742C370.526 952.42 376.169 948.166 387.356 939.063C410.917 919.868 425.074 909.479 431.905 906.511C435.469 905.027 441.508 905.027 443.686 906.61C446.656 908.885 449.526 915.91 451.506 925.805C454.278 939.162 455.367 940.25 460.812 934.61C464.574 930.752 464.475 931.048 461.802 908.786C459.822 893.154 459.921 893.252 455.565 888.107C450.318 881.676 445.171 873.266 441.904 865.252C439.132 858.524 439.033 857.93 439.132 841.604L439.231 824.883L443.092 821.816C445.171 820.134 449.329 816.572 452.1 813.901C455.367 810.932 460.119 807.865 464.871 805.787C474.177 801.731 479.325 798.268 482.196 794.013C483.483 792.232 484.869 790.946 485.265 791.144C485.76 791.441 485.958 791.243 485.859 790.748C485.562 789.858 490.313 782.833 501.797 767.299C511.202 754.535 524.765 734.648 525.062 733.065C526.448 725.743 527.141 723.962 529.219 722.379C530.506 721.389 531.595 720.301 531.595 720.004C531.595 719.608 532.882 717.234 534.367 714.661C538.03 708.527 538.129 707.834 540.01 688.639C541.693 671.127 541.495 668.455 538.624 666.872C536.05 665.487 528.328 667.07 522.587 670.137L518.033 672.611L517.439 662.519C516.548 648.568 514.469 640.158 509.42 629.769C507.044 624.921 504.47 618.192 503.876 614.927C503.183 611.662 502.292 608.199 501.797 607.309C500.609 605.033 503.579 605.627 509.519 608.991C511.994 610.376 514.667 611.464 515.36 611.464C516.152 611.464 517.439 609.782 518.33 607.705C521.894 599.393 523.28 596.821 527.141 590.686C538.822 572.58 545.851 559.717 548.425 552.099C550.306 546.558 550.405 545.173 549.415 542.403C548.326 539.236 548.623 538.445 554.662 526.572C570.006 496.394 569.808 482.74 553.87 435.05C552.088 429.509 548.92 418.724 546.94 411.106C539.218 381.324 538.426 378.356 537.436 376.674C536.941 375.684 536.743 374.497 537.04 374.002C537.337 373.607 537.139 373.013 536.644 372.815C535.951 372.617 526.349 340.659 525.161 334.524C524.963 333.634 524.765 332.941 524.666 332.941C524.567 332.941 524.369 332.249 524.171 331.457C523.973 330.666 523.478 328.885 523.181 327.5C522.785 326.114 522.488 324.333 522.389 323.542C522.29 322.75 521.894 321.86 521.597 321.563C521.201 321.266 519.518 315.231 517.736 308.206C515.954 301.082 513.776 292.87 512.786 289.901C511.796 286.933 507.539 272.191 503.381 257.25C499.223 242.31 493.382 221.829 490.412 211.737C487.443 201.645 483.879 189.376 482.493 184.528C481.107 179.581 479.523 174.732 479.127 173.644C471.801 157.22 470.217 154.35 467.049 152.371C465.267 151.283 462.792 150.393 461.604 150.393C460.416 150.393 459.129 149.898 458.832 149.403C458.436 148.809 457.743 148.612 457.248 148.908C456.753 149.304 456.357 149.304 456.357 149.007C456.357 147.82 450.813 128.823 446.359 114.773C440.518 96.3699 435.271 79.154 434.974 77.373C434.875 76.5815 434.38 75.2952 433.984 74.4047C433.588 73.5142 433.192 72.5248 433.093 72.228C432.994 71.9312 432.4 70.546 431.806 69.0618C431.212 67.6766 429.331 61.2454 427.648 54.9131C425.965 48.5807 424.183 42.3474 423.49 41.1601C422.896 40.0717 416.362 32.8489 408.938 25.2303C385.772 1.3852 384.188 0 381.218 0C378.545 0 378.248 0.494712 374.684 11.0816ZM401.216 21.3716C411.115 31.4637 419.728 40.7643 420.421 41.9516C421.015 43.1389 422.5 47.8881 423.688 52.5384C424.777 57.0898 428.143 68.1713 431.113 77.1751C436.459 93.5996 445.369 122.491 448.141 132.583C449.032 135.551 451.209 142.675 452.991 148.414C454.872 154.152 456.357 159.594 456.357 160.584C456.357 161.474 456.753 163.057 457.248 164.047C457.743 164.937 460.416 172.655 463.089 181.065C470.811 204.613 475.068 216.981 476.157 218.96C476.751 219.85 478.137 223.214 479.325 226.38C480.414 229.448 481.998 232.911 482.691 233.999C486.255 239.54 492.986 258.932 500.807 286.438C521.003 356.885 521.3 367.769 504.866 421.396C496.352 449.298 490.214 472.648 487.938 486.302C485.958 498.076 486.057 501.341 488.631 511.236C489.125 512.918 488.235 514.006 483.384 517.172C464.97 529.243 460.218 531.618 458.139 529.54C457.545 528.946 456.753 525.681 456.357 522.218C455.961 518.755 454.872 509.554 453.882 501.638L452.1 487.292L456.159 472.945C464.673 442.965 474.177 402.399 477.642 380.731C479.622 368.561 481.701 356.984 482.295 355.006C483.78 349.861 482.592 329.577 479.523 310.382C474.078 275.456 461.505 212.627 453.981 182.549C447.943 158.605 446.755 154.35 437.152 121.699C429.133 94.7869 422.5 70.546 420.223 59.8602C419.332 55.5067 417.451 50.1638 416.263 47.9871C412.699 41.7537 383.792 14.8414 380.723 14.8414C378.347 14.8414 374.189 21.6684 374.189 25.4282C374.189 27.506 373.595 32.5521 372.803 36.6087C372.011 40.6653 370.427 51.1532 369.24 59.8602C368.052 68.5671 365.379 86.3768 363.201 99.4372C356.667 140.103 354.489 157.417 349.242 212.232C347.361 231.921 347.658 290.495 349.638 311.174C350.628 320.376 351.618 334.228 352.014 341.846C352.608 355.302 352.806 356.094 357.063 367.077C361.815 378.95 367.755 391.515 371.912 397.947C373.199 400.123 379.337 411.007 385.475 422.286C408.938 465.227 412.699 471.857 421.213 484.323C426.064 491.348 430.717 498.967 431.707 501.144C433.093 504.31 435.568 520.734 435.568 526.968C435.568 529.738 430.816 528.254 423.787 523.406C414.382 516.875 405.869 510.345 403.097 507.278C400.919 504.903 392.9 487.292 381.119 458.598C377.951 450.98 372.506 438.018 368.943 429.905C362.706 415.36 354.588 394.385 349.836 380.335C346.767 371.034 343.896 353.027 341.916 330.468C340.629 315.923 340.431 305.04 340.827 277.039C341.817 220.048 344.688 178.591 350.331 141.488C351.915 130.901 354.192 115.07 355.38 106.363C358.35 84.6947 360.429 73.7121 367.359 45.5135C373.001 22.1631 377.555 6.82703 379.436 4.15558C379.931 3.56193 381.02 2.96827 381.812 2.96827C382.604 2.96827 391.316 11.2794 401.216 21.3716ZM420.817 85.2884C422.995 86.0799 423.787 87.3662 424.975 91.8186C425.767 94.8858 429.826 109.232 434.083 123.678C453.189 189.277 457.545 207.186 470.613 276.544C477.642 314.142 479.127 324.037 479.721 339.373C480.315 353.719 480.315 353.719 475.167 379.741C472.395 393.989 468.336 412.095 466.257 419.813C464.178 427.53 461.109 439.403 459.525 446.23C457.842 453.057 454.872 463.941 452.793 470.471C449.625 480.563 449.032 483.73 449.131 491.249C449.131 501.144 448.438 502.628 443.488 502.628C440.122 502.628 434.578 500.154 434.578 498.67C434.578 498.175 430.024 490.952 424.381 482.641C414.58 467.998 402.998 448.308 388.049 420.505C384.089 413.184 378.941 404.279 376.565 400.717C373.199 395.671 371.813 392.307 370.229 384.985C368.349 376.08 368.349 374.101 369.24 336.503C370.328 294.156 372.011 258.141 375.179 214.903C378.941 162.266 382.208 142.477 390.722 119.226C399.731 94.8858 403.889 88.0588 411.709 84.7937C415.174 83.3095 415.768 83.4085 420.817 85.2884ZM21.8572 115.466C24.8272 118.632 31.757 126.547 37.2018 133.078C42.5477 139.509 52.1505 150.393 58.3873 157.318C64.7231 164.146 75.1179 175.92 81.6517 183.538C88.1856 191.157 97.4913 201.645 102.441 206.79C107.292 211.935 118.677 224.204 127.587 233.999C136.595 243.794 149.168 257.151 155.504 263.682C161.939 270.212 167.978 276.643 169.067 278.028C171.64 281.491 198.766 325.521 203.122 333.436C215.001 354.907 229.356 395.77 238.068 432.972C242.622 452.365 245.493 460.181 255.491 480.069C265.292 499.758 270.935 508.861 273.806 509.949C274.697 510.246 276.38 510.246 277.766 509.949C279.053 509.653 280.142 509.752 280.142 510.246C280.142 511.631 269.648 542.501 267.173 548.042C265.094 553.088 264.797 553.286 261.728 552.792C255.986 551.802 230.643 533.597 230.643 530.43C230.643 529.936 229.752 524.494 228.762 518.261C223.812 489.567 209.062 435.94 200.449 415.459C187.975 385.876 162.929 335.514 146.594 307.216C139.664 295.244 129.666 277.731 124.32 268.332C118.974 258.932 110.559 245.179 105.51 237.66C100.461 230.239 91.6505 217.179 86.0076 208.769C80.2658 200.358 72.346 187.892 68.2871 181.263C62.2482 171.368 47.0026 149.601 44.5277 147.424C42.8447 145.94 34.6279 135.749 34.6279 135.056C34.6279 133.869 20.8673 117.346 18.7883 115.961C16.2144 114.377 15.2244 115.07 13.3434 119.028C12.4525 120.809 12.0565 121.402 12.3535 120.314C12.6505 119.325 13.3434 116.554 13.9374 114.18C14.5314 111.805 15.3234 109.826 15.7194 109.826C16.1154 109.826 18.8873 112.399 21.8572 115.466ZM7.79958 179.086C8.98755 185.319 10.2745 191.157 10.7695 191.948C11.1655 192.74 12.5515 197.687 13.8384 202.832C18.3923 221.829 23.7382 241.815 28.6881 258.24C30.371 263.978 33.8359 275.852 36.2119 284.756C38.5878 293.562 40.9637 301.577 41.5577 302.566C42.0527 303.456 44.8246 310.481 47.5966 318.1C50.3685 325.719 56.7043 340.659 61.5552 351.246C69.97 369.253 75.0189 380.533 82.3447 397.254C84.0277 401.014 86.2056 405.268 87.0966 406.653C87.9876 408.039 90.5615 412.491 92.7394 416.548C94.9174 420.604 99.3723 428.817 102.639 434.852C105.906 440.789 110.46 449.693 112.836 454.641C132.635 496.295 131.942 495.504 157.385 505.398C163.622 507.773 170.354 510.345 172.333 511.137C177.778 513.116 210.051 529.144 229.554 539.434C243.81 547.053 247.077 549.23 248.562 551.901C249.453 553.781 250.937 555.958 251.828 556.947C254.204 559.52 253.808 561.894 250.838 562.587C245.295 563.972 232.326 562.389 224.604 559.322C214.902 555.562 191.143 541.512 174.709 529.837C167.681 524.89 156.692 517.568 150.455 513.709C144.218 509.751 138.08 505.794 136.892 504.804C134.021 502.232 128.676 493.822 122.835 482.245C120.162 476.903 112.044 461.764 104.916 448.704C97.7883 435.644 85.8096 412.491 78.2858 397.254C48.2896 336.701 42.3497 320.672 23.1442 249.83C17.8973 230.239 12.0565 208.67 10.1755 201.843C4.43366 180.372 1.95873 162.167 3.64168 152.866C4.33467 149.502 4.53266 150.294 5.02765 158.308C5.42364 163.453 6.61161 172.852 7.79958 179.086ZM466.059 155.043C472.395 159.001 486.057 202.238 513.875 306.722C519.815 329.28 526.745 354.412 529.12 362.624C531.496 370.737 537.04 390.625 541.396 406.752C545.752 422.88 551.296 442.174 553.771 449.792C559.612 467.701 561.394 476.507 561.493 486.797C561.493 498.472 559.216 507.179 552.484 520.932C549.316 527.462 545.653 534.883 544.465 537.554C543.277 540.127 541.297 542.699 540.208 543.392C539.02 543.986 535.159 546.558 531.595 549.131C528.032 551.703 520.607 556.254 515.063 559.322L504.866 564.763V559.025C504.866 551.109 502.688 540.226 498.926 529.738C497.243 524.89 494.471 515.886 492.887 509.85L490.016 498.67L492.095 486.599C494.075 475.32 501.302 447.616 510.806 415.163C521.102 379.741 522.092 360.942 515.261 328.984C512.588 316.517 497.54 263.088 489.521 237.957C482.097 214.507 477.642 199.27 474.276 185.517C472.593 178.987 470.613 171.665 469.722 169.192C468.138 164.739 462.891 158.308 460.812 158.308C459.822 158.308 457.347 154.35 457.347 152.767C457.347 151.877 463.683 153.46 466.059 155.043ZM48.7845 162.958C54.3284 164.64 54.8234 165.135 59.1793 171.764C61.7532 175.623 67.0001 184.033 70.762 190.365C78.5828 203.327 83.5327 210.945 93.7294 225.886C104.124 241.024 112.44 254.678 124.32 276.247C130.161 286.735 139.268 302.863 144.515 312.163C159.266 337.79 186.49 393.395 196.588 418.428C204.805 438.612 220.743 497.087 224.307 519.745C225.198 525.285 226.287 530.628 226.782 531.519C228.96 535.576 194.905 517.667 172.531 503.023C150.554 488.479 144.02 481.454 131.744 458.994C127.092 450.584 118.875 435.743 113.232 425.947C99.8673 402.399 96.9963 396.363 90.0665 378.653C86.8986 370.342 80.5628 353.818 75.9099 341.846C48.1906 269.717 26.8071 184.132 32.747 168.499C34.2319 164.442 37.5978 161.276 40.4688 161.276C41.8547 161.276 45.6166 162.068 48.7845 162.958ZM97.4913 181.559C109.074 188.98 139.664 221.532 165.602 254.183C194.608 290.594 201.637 298.707 251.63 354.61C265.193 369.649 283.904 390.328 293.407 400.519C323.008 432.181 330.729 442.767 338.154 462.259C346.569 484.125 356.37 516.974 356.37 523.307C356.37 524.791 354.39 524.098 344.391 519.25C337.758 516.084 328.75 512.423 324.196 511.038C316.573 508.861 300.04 506.585 293.506 506.882C291.922 506.882 286.874 506.882 282.419 506.783L274.4 506.585L269.945 499.857C261.926 487.786 248.661 458.994 244.899 445.241C227.178 380.829 222.327 366.384 210.348 341.846C200.944 322.453 166.295 266.848 149.069 243.398C141.347 232.812 113.925 199.27 109.668 195.213C102.837 188.584 91.6505 180.075 89.8685 180.075C88.9775 180.075 87.7896 181.263 87.2946 182.747C86.6016 184.627 86.2056 184.923 86.2056 183.736C86.1066 180.867 87.9876 178.096 90.1655 178.096C91.2545 178.096 94.5214 179.679 97.4913 181.559ZM329.839 521.427C333.798 522.416 339.738 523.999 342.906 524.89C355.578 528.254 359.439 531.717 357.558 538.049C356.964 540.028 355.578 544.876 354.489 548.636L352.509 555.562L345.777 557.343C339.045 559.025 330.234 559.52 327.166 558.431C326.275 558.035 324.691 555.958 323.503 553.682C320.434 547.548 310.534 538.544 297.565 529.837C290.635 525.187 286.379 521.724 286.874 521.229C290.042 518.063 317.563 518.162 329.839 521.427ZM419.629 526.077C422.104 528.056 426.955 532.211 430.42 535.081L436.558 540.523L431.311 546.063C428.341 549.131 425.47 552.594 424.777 553.781C424.183 555.067 422.995 556.057 422.203 556.057C420.916 556.057 420.322 553.88 416.164 533.3C415.273 529.243 414.382 525.088 414.184 524.098C413.392 521.625 414.58 522.02 419.629 526.077ZM494.768 531.222C495.659 533.795 495.065 535.477 489.422 546.855C485.859 553.781 482.097 560.608 481.107 561.993L479.127 564.467V560.014C479.127 551.208 488.729 528.353 492.392 528.353C493.184 528.353 494.273 529.639 494.768 531.222ZM471.108 537.95C467.148 553.583 465.366 557.442 463.881 553.484C462.891 551.011 463.386 541.017 464.574 536.862C465.663 533.201 470.514 528.946 472.296 529.936C472.692 530.134 472.098 533.794 471.108 537.95ZM291.526 533.399C297.466 540.523 304.297 559.025 301.822 561.498C300.733 562.587 299.05 560.905 288.854 548.24C281.132 538.544 280.439 536.862 283.31 533.3C286.28 529.54 288.26 529.639 291.526 533.399ZM449.229 542.403C451.11 549.823 451.209 551.109 450.318 551.109C449.13 551.109 447.646 547.251 446.854 542.106C445.963 536.862 447.844 537.06 449.229 542.403ZM544.96 547.745C543.772 554.572 537.139 566.742 521.993 590.39C520.112 593.358 517.736 597.612 516.746 599.789L514.964 603.747L511.697 597.513C509.915 594.05 507.539 589.4 506.45 587.223C503.876 582.276 503.777 573.174 506.252 569.414C507.143 568.029 510.608 565.555 514.073 563.873C520.904 560.41 529.318 554.869 537.535 548.438C544.366 543.095 545.95 542.897 544.96 547.745ZM317.167 551.505C318.553 553.682 318.553 554.276 317.266 557.442C316.375 559.421 315.385 561.004 314.89 561.004C313.801 561.004 313.009 555.958 313.603 552.099C314.098 548.537 315.088 548.339 317.167 551.505ZM281.33 561.004C292.516 571.887 289.349 572.679 276.182 562.389C269.846 557.343 268.361 555.661 269.252 554.572C271.034 552.396 274.4 554.078 281.33 561.004ZM403.493 556.254C401.216 559.421 401.513 563.18 404.483 570.502C405.869 573.965 406.859 577.23 406.661 577.725C406.463 578.22 403.493 580.693 399.929 583.365C396.464 586.036 392.504 589.994 391.316 592.171C388.742 596.722 380.921 619.973 379.139 628.482C378.347 632.737 377.555 634.221 376.367 634.221C375.377 634.221 371.021 636.596 366.666 639.564C356.865 646.094 354.885 649.557 355.875 657.67C356.865 665.883 362.211 680.427 366.567 686.858C369.141 690.717 372.308 690.42 377.258 685.968C381.416 682.208 392.801 668.158 394.781 664.3C396.167 661.727 392.009 644.709 388.445 638.278C387.158 635.903 386.069 633.232 386.069 632.242C386.069 629.472 394.88 604.439 397.751 599.294C400.424 594.347 405.968 588.708 408.245 588.708C409.829 588.708 412.402 591.478 418.936 600.284C421.807 604.242 428.044 611.86 432.895 617.302C441.805 627.493 443.488 630.362 443.488 635.309C443.488 639.168 445.666 638.97 447.151 635.112C448.339 631.945 448.339 631.945 454.08 632.539C461.505 633.331 486.156 642.038 494.669 646.886C502.49 651.239 503.777 653.614 503.777 663.904C503.876 674.886 499.025 704.272 495.956 711.099C494.966 713.474 494.372 715.354 494.57 715.354C494.867 715.354 498.134 712.682 501.698 709.417C510.707 701.304 523.181 695.368 525.755 698.039C526.547 698.732 524.864 715.255 523.181 723.665C521.102 733.757 520.211 735.439 506.252 754.931C480.612 790.847 477.543 794.607 469.722 799.851C463.782 803.808 462.693 802.918 467.049 797.674C474.87 788.373 481.107 772.147 485.958 748.698C487.641 740.683 489.027 733.559 489.027 732.966C489.027 729.799 487.542 734.549 483.681 750.083C475.761 781.843 471.306 790.451 453.882 807.271C433.39 827.06 407.156 842.693 378.644 852.29C367.359 856.149 348.153 860.799 343.995 860.799C338.946 860.799 326.671 854.368 309.148 842.297C289.151 828.742 281.33 822.311 269.549 809.943C253.115 792.727 249.453 783.031 249.65 757.602C249.749 749.588 249.948 743.058 250.047 743.058C250.146 743.058 251.828 745.235 253.709 747.906C259.352 755.722 271.133 760.571 290.438 762.846C295.684 763.44 300.832 763.638 301.921 763.341C306.475 761.857 308.257 752.754 306.574 739.298C305.485 729.997 304.099 724.951 298.852 711.99C291.328 693.488 283.904 683.494 269.747 672.809C264.5 668.851 258.56 663.508 256.58 660.837C254.6 658.165 252.719 655.988 252.323 655.988C251.432 655.988 250.343 660.441 250.838 662.123C251.036 662.815 251.531 664.695 251.927 666.18C252.422 668.752 252.323 668.95 249.75 668.653C247.176 668.356 246.978 668.059 247.275 664.497C247.869 656.978 253.412 637.882 257.273 629.868C261.431 621.26 266.777 613.938 274.202 606.814C281.429 599.888 281.429 599.987 280.637 620.567C280.142 636.2 279.746 638.772 278.261 639.762C275.192 641.939 270.935 652.822 271.529 657.077C273.113 669.049 289.646 691.608 296.773 691.608C298.456 691.608 299.446 690.717 300.634 687.848C303.208 681.714 308.851 658.066 308.752 653.713C308.653 649.854 308.158 649.062 301.822 643.423C297.763 639.762 293.308 636.794 290.932 636.101L287.072 634.914V621.952C287.072 602.461 290.734 590.39 298.456 583.958C308.356 575.845 334.59 563.18 348.945 559.52C355.083 558.035 383 555.76 383.99 556.65C384.188 556.848 383.693 557.046 382.802 557.046C381.911 557.046 381.119 557.442 381.119 558.035C381.119 559.52 384.683 559.124 393.989 556.551C404.978 553.583 405.374 553.583 403.493 556.254ZM233.613 566.248C237.672 567.138 242.523 567.534 244.206 567.237C248.463 566.544 249.354 568.82 246.483 572.877C245.295 574.559 243.81 579.011 243.117 583.068C241.83 590.587 240.147 594.644 238.563 594.644C237.969 594.644 236.682 596.029 235.692 597.612C233.415 601.471 232.92 600.976 227.277 587.421C224.901 581.584 220.644 572.877 217.872 567.93C215.1 563.081 212.823 558.926 212.823 558.728C212.823 558.53 215.793 559.816 219.555 561.597C223.218 563.378 229.554 565.456 233.613 566.248ZM443.488 560.509C462.297 565.456 486.057 585.443 491.996 601.372C494.57 608.1 494.669 618.489 492.194 623.337C491.303 625.217 489.026 627.592 487.146 628.68C484.176 630.362 483.186 630.461 478.236 629.472C465.564 626.899 446.26 614.927 431.41 600.482C415.075 584.651 411.61 565.852 424.084 560.41C428.143 558.629 436.756 558.728 443.488 560.509ZM307.366 574.757C306.772 575.251 303.307 576.835 299.446 578.319C291.724 581.188 285.488 584.651 279.845 589.004C275.885 592.072 262.52 611.662 260.54 617.203C259.253 620.963 256.382 625.316 256.382 623.535C256.382 619.38 264.203 604.538 270.737 596.227C277.568 587.52 292.516 576.736 300.436 574.757C304.891 573.668 308.455 573.668 307.366 574.757ZM376.862 637.882C376.565 638.871 375.773 642.038 375.179 644.808C374.09 649.656 373.694 650.151 369.635 651.932C366.567 653.317 365.181 654.603 364.686 656.582C363.498 661.331 368.052 678.745 370.427 678.745C372.605 678.745 375.278 676.47 378.248 672.116C380.03 669.643 382.208 666.773 383.297 665.685C385.475 663.508 385.574 660.045 383.396 655.593C382.01 652.525 381.911 651.239 383 645.105C383.693 641.345 384.683 638.179 385.178 638.179C386.663 638.179 389.732 646.094 391.613 654.603L393.296 662.717L388.544 669.346C382.208 678.152 374.684 686.265 372.209 686.957C371.12 687.254 369.635 686.859 368.844 686.166C366.072 683.297 359.34 666.081 358.152 658.561L356.964 651.041L359.934 647.974C362.904 644.808 374.981 636.2 376.466 636.2C376.961 636.2 377.06 636.992 376.862 637.882ZM294.892 640.85C296.872 642.235 300.337 645.204 302.713 647.479C307.564 652.13 307.564 650.052 302.317 672.017C300.337 680.031 298.159 687.353 297.466 688.343C296.278 689.926 295.585 689.431 289.25 683.099C281.528 675.183 275.291 664.003 274.499 656.78C274.202 653.515 274.697 651.239 277.073 646.589C278.855 642.928 280.043 641.444 280.043 642.631C280.142 643.72 280.736 646.985 281.429 649.656C282.617 654.306 282.617 654.9 280.934 656.978C277.37 661.331 279.152 667.268 286.775 677.261C291.13 682.802 294.397 684.088 295.288 680.526C296.476 675.282 298.258 657.176 297.664 655.692C297.367 654.801 295.288 653.02 293.11 651.635C289.25 649.161 287.072 644.907 287.072 639.861C287.072 637.288 290.734 637.783 294.892 640.85ZM261.035 686.76L264.104 687.749L263.609 694.378C263.411 698.039 263.114 701.997 262.916 703.184C262.718 704.866 263.114 705.46 264.401 705.46C267.47 705.46 274.301 708.626 273.905 709.813C273.707 710.407 271.034 711 267.866 711.198C264.797 711.396 262.52 711.792 262.718 712.287C263.015 712.682 263.906 716.145 264.698 720.004C266.48 728.612 270.044 735.934 275.291 741.574C284.597 751.666 297.466 752.754 302.812 743.948L304.693 740.881L305.386 744.938C306.178 749.786 305.188 756.613 303.307 759.581C301.822 761.956 297.268 762.747 295.486 760.966C294.892 760.472 291.625 759.383 288.062 758.493C271.331 754.238 262.124 742.464 258.857 720.796C256.976 708.23 255.887 685.671 257.075 685.671C257.669 685.671 259.451 686.166 261.035 686.76ZM249.552 703.58C250.64 712.188 254.996 730.591 256.976 734.252C258.263 736.824 258.164 736.824 253.808 737.814L249.452 738.803V732.768C249.354 727.227 248.661 718.322 246.978 701.007C245.988 691.311 248.265 693.685 249.552 703.58ZM271.232 697.148C274.202 699.127 275.192 700.414 275.192 702.392C275.192 706.944 274.103 707.537 269.351 705.361C265.292 703.58 265.094 703.283 265.688 700.414C265.985 698.732 266.282 696.654 266.282 695.961C266.282 694.081 266.777 694.18 271.232 697.148ZM273.806 714.068C275.786 720.697 286.181 734.846 288.161 733.658C288.557 733.361 288.755 731.778 288.359 730.195C287.765 727.128 288.755 726.337 290.833 728.414C292.417 729.997 292.318 732.867 290.833 733.46C290.141 733.658 291.427 734.153 293.803 734.648C299.644 735.637 301.228 738.704 298.456 743.849C291.229 757.108 269.153 739.199 266.678 718.025L265.985 712.386H269.648C272.222 712.386 273.41 712.88 273.806 714.068ZM242.424 724.852L246.186 727.326L246.879 737.814C247.77 752.754 247.671 764.825 246.582 764.825C244.602 764.825 233.613 729.997 233.613 723.962C233.613 721.389 233.91 721.093 236.187 721.686C237.573 722.082 240.444 723.467 242.424 724.852ZM435.568 839.23C434.875 845.958 434.578 853.478 434.974 856.05C435.766 861.096 442.696 876.036 446.854 881.577L449.526 885.04L443.884 885.733C440.815 886.129 435.964 887.514 433.093 888.899C426.361 891.966 411.907 901.663 398.939 911.755C383.792 923.628 376.268 928.377 360.825 936.094C351.42 940.745 343.797 943.713 337.164 945.395C325.186 948.462 320.83 948.561 317.464 945.89C311.425 941.141 305.98 923.628 307.168 913.041C308.059 905.917 312.019 897.903 315.583 896.023C323.206 892.065 327.958 882.369 329.641 867.428C330.036 863.669 330.63 860.503 330.927 860.206C331.224 859.909 332.808 860.404 334.59 861.294C339.738 863.966 349.935 863.273 364.785 859.414C388.346 853.28 408.245 844.573 427.45 832.106C432.202 829.039 436.261 826.565 436.459 826.763C436.558 826.862 436.162 832.502 435.568 839.23ZM454.377 889.987C456.951 892.362 458.238 898.398 459.525 915.119C460.416 927.19 460.416 930.158 459.426 931.444C457.347 933.918 456.456 933.324 455.763 929.267C453.684 916.801 448.933 906.115 444.478 903.839C440.419 901.762 434.281 901.959 429.331 904.433C422.599 907.896 409.135 917.394 394.385 929.169C368.25 950.144 363.102 953.805 351.42 959.643C335.679 967.558 329.839 969.339 325.681 967.657C321.226 965.777 312.019 955.19 308.851 948.363C304.891 939.558 301.822 923.925 303.901 922.638C304.396 922.342 304.891 922.836 304.891 923.826C304.891 927.981 308.158 937.776 311.029 942.328C314.791 948.067 318.949 950.837 323.8 950.837C331.818 950.837 346.866 945.989 361.815 938.568C377.852 930.554 384.485 926.497 398.939 915.119C411.412 905.422 426.262 895.231 432.598 891.966C441.508 887.415 450.615 886.623 454.377 889.987Z" fill="#00D4FF"/>
<path d="M439.033 654.603C437.944 655.494 430.816 659.155 423.193 662.914C400.127 674.194 387.455 684.088 382.109 694.972C377.357 704.668 373.793 733.658 375.971 745.136C376.565 748.104 377.357 752.655 377.654 755.327C378.347 760.175 381.614 764.825 384.287 764.825C385.079 764.825 384.683 764.034 383.495 763.044C379.139 759.581 377.852 745.234 380.624 731.976C383.495 718.421 389.633 705.163 395.672 699.424L399.236 696.06L398.543 701.205C397.949 705.559 398.147 706.449 399.434 706.449C400.622 706.449 400.919 705.163 400.919 700.513C400.919 695.862 401.315 694.18 402.899 692.597C405.473 690.025 408.146 690.124 411.313 692.795C413.59 694.873 413.788 695.565 413.194 699.721L412.501 704.47L406.958 704.569L401.414 704.767L407.057 705.361C410.125 705.658 412.996 706.251 413.293 706.647C414.976 708.329 412.402 710.704 405.869 713.573C399.335 716.442 398.939 716.838 399.038 719.707C399.137 721.389 399.533 723.863 399.929 725.248C400.523 727.227 400.721 726.633 400.82 722.577L400.919 717.432L414.58 710.901L417.154 716.838C420.817 725.347 425.074 730.195 428.737 730.195C430.816 730.195 431.608 729.701 431.608 728.414C431.608 725.842 433.687 724.061 435.172 725.248C437.548 727.326 446.161 714.661 447.943 706.449C448.734 703.085 448.833 703.085 449.526 705.46C449.922 706.845 450.219 712.089 450.318 717.135C450.417 725.149 450.12 727.029 447.646 732.471C443.884 740.683 440.122 744.839 434.083 747.609C422.104 753.249 411.313 748.796 404.582 735.637C403.097 732.867 402.008 731.086 401.909 731.482C401.909 732.768 405.869 740.386 408.542 743.849C414.382 751.567 426.361 753.744 436.261 748.697C448.042 742.662 457.941 721.983 459.129 701.205L459.624 691.509L461.901 693.685C463.98 695.565 464.277 696.852 464.277 702.392C464.277 711.099 461.109 723.665 456.852 732.273C453.09 739.793 444.181 750.38 439.132 753.15C432.895 756.613 423.787 758.79 410.224 759.878C395.672 761.065 388.445 762.451 387.356 764.133C386.96 764.825 387.356 764.825 388.643 764.231C389.633 763.737 400.127 763.341 411.808 763.242C440.221 763.143 447.052 761.164 462.792 748.697C469.821 743.157 483.087 729.503 483.087 727.821C483.087 727.524 481.404 727.227 479.424 727.227C476.058 727.326 472.791 728.216 466.95 730.69C465.366 731.383 465.465 730.789 467.643 725.941C470.514 719.312 472.89 709.615 474.078 699.523C474.573 695.466 475.761 690.124 476.652 687.65C479.325 680.922 478.83 657.967 476.058 657.967C475.563 657.967 472.989 659.352 470.316 660.936C466.158 663.508 452.595 667.862 448.735 667.862C447.943 667.862 447.448 666.674 447.448 664.794C447.448 663.211 446.953 659.847 446.359 657.374C445.072 652.525 442.795 651.734 439.033 654.603ZM447.25 692.498C451.11 695.269 453.684 700.018 452.1 701.304C450.318 702.788 445.171 700.315 442.597 696.654C438.736 691.311 441.904 688.639 447.25 692.498Z" fill="#00D4FF"/>
<path d="M314.989 784.614C310.138 786.691 311.623 791.342 318.652 796.289C322.018 798.663 322.513 799.554 323.008 804.204C323.305 807.073 324.493 811.328 325.681 813.505C327.364 816.77 327.562 817.759 326.473 818.353C324.295 819.837 321.226 819.342 316.672 816.968C313.108 814.989 312.316 814.098 312.316 811.823C312.316 810.24 311.722 808.854 311.128 808.657C309.544 808.063 309.445 810.438 311.029 813.802C312.712 817.561 318.256 820.53 323.404 820.53C325.78 820.53 328.156 820.134 328.75 819.54C329.542 818.749 330.828 818.848 333.204 819.837C337.164 821.519 342.51 821.618 345.876 820.134C348.549 818.848 353.697 811.922 352.707 810.932C351.519 809.745 350.628 810.339 349.44 813.307C346.866 819.54 340.53 820.925 332.61 816.968C327.661 814.395 324.691 809.844 324.691 804.6C324.691 801.038 325.582 800.049 334.986 793.222C338.55 790.649 341.52 788.077 341.52 787.582C341.52 785.603 336.768 784.317 327.265 784.02C321.721 783.822 316.276 784.02 314.989 784.614ZM336.372 787.483C337.164 787.978 335.481 789.66 331.719 792.331C328.453 794.607 325.384 796.487 324.889 796.487C323.503 796.487 314.791 789.561 314.791 788.571C314.791 786.098 332.115 785.306 336.372 787.483Z" fill="#00D4FF"/>
<path d="M325.879 828.742C326.473 831.908 332.61 834.283 338.451 833.689C346.371 832.996 346.47 831.611 338.55 831.611C332.907 831.611 331.422 831.216 329.442 829.336C326.572 826.763 325.384 826.565 325.879 828.742Z" fill="#00D4FF"/>
<path d="M228.663 686.562C228.663 687.749 231.534 690.618 232.722 690.618C233.217 690.618 232.92 689.53 232.029 688.145C230.445 685.671 228.663 684.88 228.663 686.562Z" fill="#00D4FF"/>
</svg>
