<svg width="64" height="64" viewBox="0 0 64 64" fill="none" xmlns="http://www.w3.org/2000/svg">
<g id="menu burger">
<g id="Vector">
<path d="M22.0952 32C22.0952 30.3431 20.7308 29 19.0476 29C17.3645 29 16 30.3431 16 32C16 33.6569 17.3645 35 19.0476 35C20.7308 35 22.0952 33.6569 22.0952 32Z" fill="#7A73FF"/>
<path d="M35.0476 32C35.0476 30.3431 33.6832 29 32 29C30.3168 29 28.9524 30.3431 28.9524 32C28.9524 33.6569 30.3168 35 32 35C33.6832 35 35.0476 33.6569 35.0476 32Z" fill="#7A73FF"/>
<path d="M48 32C48 30.3431 46.6355 29 44.9524 29C43.2692 29 41.9048 30.3431 41.9048 32C41.9048 33.6569 43.2692 35 44.9524 35C46.6355 35 48 33.6569 48 32Z" fill="#7A73FF"/>
</g>
<rect id="Rectangle 52" x="16" y="35" width="6" height="32" rx="3" transform="rotate(-90 16 35)" fill="#7A73FF"/>
</g>
</svg>
