<svg width="123" height="114" viewBox="0 0 123 114" fill="none" xmlns="http://www.w3.org/2000/svg">
<g filter="url(#filter0_d_364_13642)">
<rect x="9" y="8" width="103" height="94" rx="12" fill="white"/>
<path fill-rule="evenodd" clip-rule="evenodd" d="M47.0487 38.2843C44.7916 36.0234 46.4122 32 49.6787 32H70.3254C73.5919 32 75.2124 36.0233 72.9554 38.2843C72.954 38.2856 72.9527 38.287 72.9513 38.2883L64.8012 46.5479V53.7689C64.8012 54.9289 64.2378 56.1592 63.1558 56.8302L59.1579 59.5752L59.1413 59.5864C58.2509 60.1793 57.226 60.0772 56.4893 59.6425C55.7679 59.2167 55.2029 58.4076 55.2029 57.4152V46.5479L47.0487 38.2843ZM48.88 35.3639C48.731 35.7252 48.7991 36.0752 49.0314 36.3072L49.0386 36.3144L57.5994 44.9901C57.8579 45.2521 58.0029 45.6053 58.0029 45.9734V56.9718L61.6016 54.5008C61.6254 54.4845 61.6497 54.4689 61.6744 54.4541C61.8239 54.3645 62.0012 54.1029 62.0012 53.7689V45.9734C62.0012 45.6053 62.1461 45.2521 62.4047 44.9901L70.9727 36.3072C71.205 36.0751 71.2731 35.7252 71.1241 35.3639C70.9781 35.0098 70.6867 34.8 70.3254 34.8H49.6787C49.3174 34.8 49.026 35.0098 48.88 35.3639Z" fill="url(#paint0_radial_364_13642)"/>
<path d="M27.4541 82L30.9463 73.4102H32.083L35.5752 82H34.3447L31.831 75.6016C31.7646 75.4414 31.706 75.2891 31.6552 75.1445C31.6084 75 31.5654 74.8535 31.5263 74.7051H31.4619C31.4228 74.8535 31.3779 75 31.3271 75.1445C31.2802 75.2891 31.2236 75.4414 31.1572 75.6016L28.6259 82H27.4541ZM28.9248 79.7969L29.3056 78.8359L33.7002 78.8418L34.0752 79.8027L28.9248 79.7969ZM36.4538 75.7656H37.5788V78.3789H40.8835V75.7656H42.0085V82H40.8835V79.2695H37.5788V82H36.4538V75.7656ZM43.6665 80.166C43.6665 79.5293 43.9399 79.0352 44.4868 78.6836C45.0376 78.332 45.7505 78.1562 46.6255 78.1562H48.2954V77.7109C48.2954 77.3359 48.1782 77.0371 47.9438 76.8145C47.7134 76.5918 47.3188 76.4805 46.7602 76.4805C46.2055 76.4805 45.8052 76.5762 45.5591 76.7676C45.313 76.9551 45.1899 77.1816 45.1899 77.4473V77.4766H44.0649V77.4473C44.0649 76.9355 44.3091 76.498 44.7973 76.1348C45.2856 75.7715 45.9497 75.5898 46.7895 75.5898C47.6255 75.5898 48.272 75.7695 48.729 76.1289C49.1899 76.4844 49.4204 77.0117 49.4204 77.7109V80.5938C49.4204 80.8477 49.4419 81.0879 49.4848 81.3145C49.5278 81.5371 49.5884 81.7344 49.6665 81.9062V82H48.5825C48.52 81.9023 48.4634 81.7734 48.4126 81.6133C48.3618 81.4531 48.3305 81.2949 48.3188 81.1387C48.1548 81.4004 47.8813 81.6289 47.4985 81.8242C47.1157 82.0195 46.6255 82.1172 46.0278 82.1172C45.3559 82.1172 44.7934 81.9492 44.3403 81.6133C43.8911 81.2773 43.6665 80.7949 43.6665 80.166ZM44.7915 80.1074C44.7915 80.459 44.9126 80.7324 45.1548 80.9277C45.397 81.123 45.7759 81.2207 46.2915 81.2207C46.8071 81.2207 47.27 81.0723 47.6802 80.7754C48.0903 80.4785 48.2954 80.1641 48.2954 79.832V78.9531H46.7544C46.1138 78.9531 45.6255 79.0566 45.2895 79.2637C44.9575 79.4668 44.7915 79.748 44.7915 80.1074ZM53.0471 76.6504L52.9416 79.1348C52.8948 80.1855 52.7502 80.9473 52.508 81.4199C52.2698 81.8926 51.8577 82.1289 51.2717 82.1289C51.1272 82.1289 51.0002 82.1191 50.8909 82.0996C50.7815 82.084 50.6897 82.0586 50.6155 82.0234V81.0566C50.6819 81.084 50.7502 81.1035 50.8205 81.1152C50.8948 81.127 50.9788 81.1328 51.0725 81.1328C51.3694 81.1328 51.5745 80.9805 51.6877 80.6758C51.8049 80.3672 51.8791 79.8027 51.9104 78.9824L52.051 75.7656H56.8616V82H55.7366V76.6504H53.0471ZM58.877 82V75.7656H59.9902V79.7383C59.9902 79.8555 59.9883 79.9883 59.9844 80.1367C59.9844 80.2852 59.9824 80.4199 59.9785 80.541H60.0254C60.0801 80.4355 60.1406 80.3242 60.207 80.207C60.2734 80.0898 60.3496 79.9727 60.4355 79.8555L63.3711 75.7656H64.502V82H63.3828V78.0332C63.3828 77.9121 63.3848 77.7773 63.3887 77.6289C63.3926 77.4766 63.3984 77.3398 63.4062 77.2188H63.3418C63.291 77.3203 63.2324 77.4316 63.166 77.5527C63.0996 77.6738 63.0254 77.793 62.9434 77.9102L60.0078 82H58.877ZM65.8201 76.6504V75.7656H71.3865V76.6504H69.1658V82H68.0408V76.6504H65.8201ZM72.7163 82V75.7656H73.8296V79.7383C73.8296 79.8555 73.8277 79.9883 73.8237 80.1367C73.8237 80.2852 73.8218 80.4199 73.8179 80.541H73.8648C73.9195 80.4355 73.98 80.3242 74.0464 80.207C74.1128 80.0898 74.189 79.9727 74.2749 79.8555L77.2105 75.7656H78.3413V82H77.2222V78.0332C77.2222 77.9121 77.2241 77.7773 77.228 77.6289C77.232 77.4766 77.2378 77.3398 77.2456 77.2188H77.1812C77.1304 77.3203 77.0718 77.4316 77.0054 77.5527C76.939 77.6738 76.8648 77.793 76.7827 77.9102L73.8472 82H72.7163ZM84.763 82L82.0618 79.1465L82.7532 78.4141L86.1985 82H84.763ZM80.9075 78.3848H82.138L84.552 75.7656H85.8821L82.6009 79.2695H80.9075V78.3848ZM81.47 75.7656V82H80.3509V75.7656H81.47ZM86.919 80.166C86.919 79.5293 87.1924 79.0352 87.7393 78.6836C88.2901 78.332 89.003 78.1562 89.878 78.1562H91.5479V77.7109C91.5479 77.3359 91.4307 77.0371 91.1963 76.8145C90.9659 76.5918 90.5713 76.4805 90.0127 76.4805C89.458 76.4805 89.0577 76.5762 88.8116 76.7676C88.5655 76.9551 88.4424 77.1816 88.4424 77.4473V77.4766H87.3174V77.4473C87.3174 76.9355 87.5616 76.498 88.0498 76.1348C88.5381 75.7715 89.2022 75.5898 90.042 75.5898C90.878 75.5898 91.5245 75.7695 91.9815 76.1289C92.4424 76.4844 92.6729 77.0117 92.6729 77.7109V80.5938C92.6729 80.8477 92.6944 81.0879 92.7373 81.3145C92.7803 81.5371 92.8409 81.7344 92.919 81.9062V82H91.835C91.7725 81.9023 91.7159 81.7734 91.6651 81.6133C91.6143 81.4531 91.583 81.2949 91.5713 81.1387C91.4073 81.4004 91.1338 81.6289 90.751 81.8242C90.3682 82.0195 89.878 82.1172 89.2803 82.1172C88.6084 82.1172 88.0459 81.9492 87.5928 81.6133C87.1436 81.2773 86.919 80.7949 86.919 80.166ZM88.044 80.1074C88.044 80.459 88.1651 80.7324 88.4073 80.9277C88.6495 81.123 89.0284 81.2207 89.544 81.2207C90.0596 81.2207 90.5225 81.0723 90.9327 80.7754C91.3428 80.4785 91.5479 80.1641 91.5479 79.832V78.9531H90.0069C89.3662 78.9531 88.878 79.0566 88.542 79.2637C88.21 79.4668 88.044 79.748 88.044 80.1074Z" fill="#04101C"/>
</g>
<defs>
<filter id="filter0_d_364_13642" x="0" y="0" width="123" height="114" filterUnits="userSpaceOnUse" color-interpolation-filters="sRGB">
<feFlood flood-opacity="0" result="BackgroundImageFix"/>
<feColorMatrix in="SourceAlpha" type="matrix" values="0 0 0 0 0 0 0 0 0 0 0 0 0 0 0 0 0 0 127 0" result="hardAlpha"/>
<feOffset dx="1" dy="2"/>
<feGaussianBlur stdDeviation="5"/>
<feComposite in2="hardAlpha" operator="out"/>
<feColorMatrix type="matrix" values="0 0 0 0 0.00780001 0 0 0 0 0.045344 0 0 0 0 0.0800001 0 0 0 0.04 0"/>
<feBlend mode="normal" in2="BackgroundImageFix" result="effect1_dropShadow_364_13642"/>
<feBlend mode="normal" in="SourceGraphic" in2="effect1_dropShadow_364_13642" result="shape"/>
</filter>
<radialGradient id="paint0_radial_364_13642" cx="0" cy="0" r="1" gradientUnits="userSpaceOnUse" gradientTransform="translate(60.002 46) rotate(99.729) scale(17.7554 17.7578)">
<stop stop-color="#FD9BE8"/>
<stop offset="0.338542" stop-color="#7A73FF"/>
<stop offset="0.734375" stop-color="#75CDFF"/>
<stop offset="1" stop-color="#4AFCF1"/>
</radialGradient>
</defs>
</svg>
