<svg width="133" height="114" viewBox="0 0 133 114" fill="none" xmlns="http://www.w3.org/2000/svg">
<g filter="url(#filter0_d_364_13402)">
<rect x="9" y="8" width="113" height="94" rx="12" fill="white"/>
<path d="M76.2318 32.4328C75.6549 31.8557 74.7895 31.8557 74.2125 32.4328C73.6356 33.01 73.6356 33.8756 74.2125 34.4527C76.8088 37.0498 78.2512 40.5124 78.2512 44.2637C78.2512 48.0149 76.8088 51.4776 74.2125 54.0746C71.6162 56.6716 68.1546 58.1144 64.4044 58.1144C61.2312 58.1144 58.058 56.9602 55.6059 54.9403L57.481 52.9204C59.5003 54.5075 61.9524 55.2289 64.2602 55.2289C67.1449 55.2289 69.8854 54.2189 72.049 52.0547C76.3761 47.7264 76.3761 40.6567 72.049 36.4726C67.7218 32.1443 60.6542 32.1443 56.4713 36.4726C52.5769 40.3682 52.1442 46.5721 55.4617 50.9005L52.4327 54.0746C51.8558 54.6517 51.8558 55.5174 52.4327 56.0945C55.6059 59.2687 59.7888 61 64.2602 61C68.7315 61 72.9144 59.2687 76.0876 56.0945C79.2608 52.9204 80.9917 48.7363 80.9917 44.2637C81.1359 39.791 79.405 35.607 76.2318 32.4328ZM58.6349 38.4925C60.2215 36.9055 62.3851 36.0398 64.4044 36.0398C66.5679 36.0398 68.5873 36.9055 70.1739 38.4925C73.3471 41.6667 73.3471 46.8607 70.1739 50.0348C67.0007 53.209 61.8081 53.209 58.6349 50.0348C55.4617 46.8607 55.4617 41.6667 58.6349 38.4925Z" fill="url(#paint0_radial_364_13402)"/>
<path d="M28.1329 82V73.4688H29.6563L32.4278 79.8848C32.4786 80.002 32.5274 80.125 32.5743 80.2539C32.6251 80.3789 32.67 80.4961 32.7091 80.6055H32.7559C32.7911 80.4961 32.8321 80.3789 32.879 80.2539C32.9259 80.125 32.9747 80.002 33.0255 79.8848L35.7794 73.4688H37.3321V82H36.2071V75.7305C36.2071 75.6133 36.2091 75.4824 36.213 75.3379C36.2208 75.1895 36.2325 75.0566 36.2481 74.9395H36.1954C36.1641 75.0566 36.1212 75.1895 36.0665 75.3379C36.0157 75.4824 35.9649 75.6133 35.9141 75.7305L33.2305 82H32.1934L29.4923 75.7305C29.4415 75.6133 29.3907 75.4824 29.3399 75.3379C29.293 75.1895 29.2559 75.0566 29.2286 74.9395H29.1759C29.1876 75.0566 29.1973 75.1895 29.2052 75.3379C29.2169 75.4824 29.2227 75.6133 29.2227 75.7305V82H28.1329ZM38.8202 78.9766V78.7891C38.8202 77.8477 39.1151 77.0801 39.7049 76.4863C40.2987 75.8887 41.0916 75.5898 42.0838 75.5898C43.0721 75.5898 43.8631 75.8887 44.4569 76.4863C45.0506 77.0801 45.3475 77.8477 45.3475 78.7891V78.9766C45.3475 79.918 45.0506 80.6875 44.4569 81.2852C43.8631 81.8789 43.0721 82.1758 42.0838 82.1758C41.0916 82.1758 40.2987 81.8789 39.7049 81.2852C39.1151 80.6875 38.8202 79.918 38.8202 78.9766ZM39.9686 78.7891V78.9766C39.9686 79.6172 40.1463 80.1562 40.5018 80.5938C40.8573 81.0312 41.3846 81.25 42.0838 81.25C42.783 81.25 43.3084 81.0312 43.66 80.5938C44.0155 80.1562 44.1932 79.6172 44.1932 78.9766V78.7891C44.1932 78.1445 44.0155 77.6055 43.66 77.1719C43.3084 76.7344 42.783 76.5156 42.0838 76.5156C41.3846 76.5156 40.8573 76.7344 40.5018 77.1719C40.1463 77.6055 39.9686 78.1445 39.9686 78.7891ZM46.9879 75.7656H48.1129V78.3789H51.4176V75.7656H52.5426V82H51.4176V79.2695H48.1129V82H46.9879V75.7656ZM54.5521 82V75.7656H55.6654V79.7383C55.6654 79.8555 55.6634 79.9883 55.6595 80.1367C55.6595 80.2852 55.6576 80.4199 55.6537 80.541H55.7005C55.7552 80.4355 55.8158 80.3242 55.8822 80.207C55.9486 80.0898 56.0248 79.9727 56.1107 79.8555L59.0462 75.7656H60.1771V82H59.058V78.0332C59.058 77.9121 59.0599 77.7773 59.0638 77.6289C59.0677 77.4766 59.0736 77.3398 59.0814 77.2188H59.017C58.9662 77.3203 58.9076 77.4316 58.8412 77.5527C58.7748 77.6738 58.7005 77.793 58.6185 77.9102L55.683 82H54.5521ZM61.4952 76.6504V75.7656H67.0616V76.6504H64.8409V82H63.7159V76.6504H61.4952ZM68.0223 78.9766V78.7891C68.0223 77.8477 68.3173 77.0801 68.9071 76.4863C69.5009 75.8887 70.2938 75.5898 71.286 75.5898C72.2743 75.5898 73.0653 75.8887 73.6591 76.4863C74.2528 77.0801 74.5497 77.8477 74.5497 78.7891V78.9766C74.5497 79.918 74.2528 80.6875 73.6591 81.2852C73.0653 81.8789 72.2743 82.1758 71.286 82.1758C70.2938 82.1758 69.5009 81.8789 68.9071 81.2852C68.3173 80.6875 68.0223 79.918 68.0223 78.9766ZM69.1708 78.7891V78.9766C69.1708 79.6172 69.3485 80.1562 69.704 80.5938C70.0595 81.0312 70.5868 81.25 71.286 81.25C71.9852 81.25 72.5106 81.0312 72.8622 80.5938C73.2177 80.1562 73.3954 79.6172 73.3954 78.9766V78.7891C73.3954 78.1445 73.2177 77.6055 72.8622 77.1719C72.5106 76.7344 71.9852 76.5156 71.286 76.5156C70.5868 76.5156 70.0595 76.7344 69.704 77.1719C69.3485 77.6055 69.1708 78.1445 69.1708 78.7891ZM76.1901 84.4375V75.7656H77.2096L77.2623 76.6211H77.2858C77.4733 76.3516 77.7565 76.123 78.1354 75.9355C78.5143 75.7441 78.9577 75.6484 79.4655 75.6484C80.3405 75.6484 81.0397 75.9453 81.5631 76.5391C82.0905 77.1289 82.3541 77.8789 82.3541 78.7891V78.9766C82.3541 79.8828 82.0905 80.6328 81.5631 81.2266C81.0397 81.8203 80.3405 82.1172 79.4655 82.1172C78.9577 82.1172 78.526 82.0352 78.1705 81.8711C77.8151 81.707 77.5299 81.4902 77.3151 81.2207V84.4375H76.1901ZM77.3151 80.084C77.4557 80.373 77.6881 80.6309 78.0123 80.8574C78.3366 81.0801 78.7311 81.1914 79.1959 81.1914C79.8873 81.1914 80.3932 80.9805 80.7135 80.5586C81.0377 80.1328 81.1998 79.6055 81.1998 78.9766V78.7891C81.1998 78.1562 81.0377 77.6289 80.7135 77.207C80.3932 76.7852 79.8873 76.5742 79.1959 76.5742C78.7311 76.5742 78.3366 76.6875 78.0123 76.9141C77.692 77.1367 77.4596 77.3926 77.3151 77.6816V80.084ZM84.0004 82V75.7656H85.1137V79.7383C85.1137 79.8555 85.1117 79.9883 85.1078 80.1367C85.1078 80.2852 85.1059 80.4199 85.102 80.541H85.1488C85.2035 80.4355 85.2641 80.3242 85.3305 80.207C85.3969 80.0898 85.473 79.9727 85.559 79.8555L88.4945 75.7656H89.6254V82H88.5062V78.0332C88.5062 77.9121 88.5082 77.7773 88.5121 77.6289C88.516 77.4766 88.5219 77.3398 88.5297 77.2188H88.4652C88.4145 77.3203 88.3559 77.4316 88.2895 77.5527C88.223 77.6738 88.1488 77.793 88.0668 77.9102L85.1312 82H84.0004ZM91.6349 75.7656H92.7599V78.3789H96.0646V75.7656H97.1896V82H96.0646V79.2695H92.7599V82H91.6349V75.7656ZM99.1991 75.7656H103.676V76.6504H100.324V82H99.1991V75.7656Z" fill="#04101C"/>
</g>
<defs>
<filter id="filter0_d_364_13402" x="0" y="0" width="133" height="114" filterUnits="userSpaceOnUse" color-interpolation-filters="sRGB">
<feFlood flood-opacity="0" result="BackgroundImageFix"/>
<feColorMatrix in="SourceAlpha" type="matrix" values="0 0 0 0 0 0 0 0 0 0 0 0 0 0 0 0 0 0 127 0" result="hardAlpha"/>
<feOffset dx="1" dy="2"/>
<feGaussianBlur stdDeviation="5"/>
<feComposite in2="hardAlpha" operator="out"/>
<feColorMatrix type="matrix" values="0 0 0 0 0.00780001 0 0 0 0 0.045344 0 0 0 0 0.0800001 0 0 0 0.04 0"/>
<feBlend mode="normal" in2="BackgroundImageFix" result="effect1_dropShadow_364_13402"/>
<feBlend mode="normal" in="SourceGraphic" in2="effect1_dropShadow_364_13402" result="shape"/>
</filter>
<radialGradient id="paint0_radial_364_13402" cx="0" cy="0" r="1" gradientUnits="userSpaceOnUse" gradientTransform="translate(66.5 46.5) rotate(99.7276) scale(18.3894)">
<stop stop-color="#FD9BE8"/>
<stop offset="0.338542" stop-color="#7A73FF"/>
<stop offset="0.734375" stop-color="#75CDFF"/>
<stop offset="1" stop-color="#4AFCF1"/>
</radialGradient>
</defs>
</svg>
