<svg width="125" height="130" viewBox="0 0 125 130" fill="none" xmlns="http://www.w3.org/2000/svg">
<g filter="url(#filter0_d_364_13408)">
<rect x="9" y="8" width="105" height="110" rx="12" fill="white"/>
<path d="M55.8718 43.4839C55.3038 42.924 54.4518 42.924 53.8838 43.4839C53.3158 44.0438 53.3158 44.8836 53.8838 45.4434L59.7057 51.602C59.9897 51.8819 60.4157 52.0219 60.6996 52.0219C61.1256 52.0219 61.5516 51.8819 61.6936 51.462L75.6093 34.2461C76.0353 33.6862 76.0353 32.7065 75.3253 32.2866C74.8993 31.8667 74.0473 31.8667 73.4793 32.5665L70.6394 36.0657C68.0835 33.5463 64.3916 32.0066 60.6996 32.0066C52.8898 32.0066 46.5 38.3051 46.5 46.0033C46.5 53.7015 52.8898 60 60.6996 60C68.5095 60 74.8993 53.7015 74.8993 46.0033C74.8993 44.7436 74.7573 43.4839 74.3313 42.2242C74.0473 41.5244 73.3373 41.1045 72.6274 41.2444C71.9174 41.3844 71.4914 42.2242 71.6334 42.924C71.9174 43.9038 72.0594 45.0235 72.0594 46.0033C72.0594 52.1619 66.9475 57.2007 60.6996 57.2007C54.4518 57.2007 49.3399 52.1619 49.3399 46.0033C49.3399 39.8448 54.4518 34.806 60.6996 34.806C63.8236 34.806 66.6635 36.0657 68.9354 38.3051L60.6996 48.5227L55.8718 43.4839Z" fill="url(#paint0_radial_364_13408)"/>
<path d="M38.0309 77.9512V77.5176C38.0309 76.1816 38.398 75.1445 39.1324 74.4062C39.8668 73.6641 40.8082 73.293 41.9566 73.293C43.109 73.293 44.0523 73.6641 44.7867 74.4062C45.5211 75.1445 45.8883 76.1816 45.8883 77.5176V77.9512C45.8883 79.2871 45.5211 80.3262 44.7867 81.0684C44.0523 81.8066 43.109 82.1758 41.9566 82.1758C40.8082 82.1758 39.8668 81.8066 39.1324 81.0684C38.398 80.3262 38.0309 79.2871 38.0309 77.9512ZM39.2086 77.9512C39.2086 78.9668 39.4586 79.7598 39.9586 80.3301C40.4625 80.8965 41.1305 81.1797 41.9625 81.1797C42.7906 81.1797 43.4566 80.8965 43.9605 80.3301C44.4645 79.7598 44.7164 78.9668 44.7164 77.9512V77.5176C44.7164 76.502 44.4645 75.7109 43.9605 75.1445C43.4566 74.5742 42.7906 74.2891 41.9625 74.2891C41.1305 74.2891 40.4625 74.5742 39.9586 75.1445C39.4586 75.7109 39.2086 76.502 39.2086 77.5176V77.9512ZM46.767 76.6504V75.7656H52.3334V76.6504H50.1127V82H48.9877V76.6504H46.767ZM56.1652 82.1758C55.1573 82.1758 54.4132 81.9629 53.9327 81.5371C53.4562 81.1113 53.2179 80.6074 53.2179 80.0254V79.9961H54.3077V80.0254C54.3077 80.3496 54.4425 80.6348 54.712 80.8809C54.9855 81.127 55.4659 81.25 56.1534 81.25C56.7433 81.25 57.1866 81.1543 57.4835 80.9629C57.7804 80.7715 57.9288 80.5078 57.9288 80.1719C57.9288 79.8867 57.8175 79.666 57.5948 79.5098C57.3761 79.3496 57.0284 79.2695 56.5519 79.2695H55.1691V78.3906H56.4464C56.8878 78.3906 57.212 78.3105 57.4191 78.1504C57.6261 77.9902 57.7296 77.7695 57.7296 77.4883C57.7296 77.1719 57.6046 76.9297 57.3546 76.7617C57.1085 76.5938 56.7374 76.5098 56.2413 76.5098C55.6163 76.5098 55.1593 76.6289 54.8702 76.8672C54.5812 77.1055 54.4366 77.3965 54.4366 77.7402V77.7695H53.3468V77.7402C53.3468 77.123 53.5929 76.6113 54.0851 76.2051C54.5773 75.7949 55.2941 75.5898 56.2355 75.5898C57.0909 75.5898 57.7433 75.75 58.1925 76.0703C58.6417 76.3906 58.8663 76.832 58.8663 77.3945C58.8663 77.7344 58.753 78.0293 58.5265 78.2793C58.3038 78.5254 57.9991 78.6914 57.6124 78.7773V78.7949C58.0616 78.8574 58.4152 79.0098 58.673 79.252C58.9347 79.4902 59.0655 79.8047 59.0655 80.1953C59.0655 80.8125 58.8019 81.2969 58.2745 81.6484C57.7472 82 57.0441 82.1758 56.1652 82.1758ZM61.8954 75.7656V77.8926H63.7059C64.4833 77.8926 65.0809 78.0762 65.4989 78.4434C65.9208 78.8066 66.1317 79.3027 66.1317 79.9316C66.1317 80.5566 65.9208 81.0586 65.4989 81.4375C65.0809 81.8125 64.4833 82 63.7059 82H60.7704V75.7656H61.8954ZM63.7001 78.7832H61.8954V81.1152H63.7001C64.1805 81.1152 64.5165 81.0039 64.7079 80.7812C64.9032 80.5586 65.0009 80.2754 65.0009 79.9316C65.0009 79.5957 64.9032 79.3203 64.7079 79.1055C64.5165 78.8906 64.1805 78.7832 63.7001 78.7832ZM66.9813 82V75.7656H68.1063V82H66.9813ZM70.1159 82V75.7656H73.2389C73.9498 75.7656 74.5045 75.9043 74.903 76.1816C75.3053 76.4551 75.5065 76.8711 75.5065 77.4297C75.5065 77.7773 75.403 78.0684 75.1959 78.3027C74.9889 78.5371 74.7116 78.6953 74.3639 78.7773V78.7949C74.7858 78.8574 75.1178 79.0117 75.36 79.2578C75.6022 79.5 75.7233 79.8105 75.7233 80.1895C75.7233 80.7598 75.5123 81.2051 75.0905 81.5254C74.6686 81.8418 74.11 82 73.4147 82H70.1159ZM71.2409 78.3906H73.2389C73.6413 78.3906 73.9303 78.3105 74.1061 78.1504C74.2819 77.9902 74.3698 77.7695 74.3698 77.4883C74.3698 77.2148 74.2819 77.0078 74.1061 76.8672C73.9303 76.7266 73.6413 76.6543 73.2389 76.6504H71.2409V78.3906ZM71.2409 81.1152H73.4147C73.8209 81.1152 74.1178 81.0312 74.3053 80.8633C74.4967 80.6953 74.5924 80.4688 74.5924 80.1836C74.5924 79.9062 74.4987 79.6855 74.3112 79.5215C74.1237 79.3535 73.8248 79.2695 73.4147 79.2695H71.2409V81.1152ZM78.559 75.7656V77.8926H80.3695C81.1469 77.8926 81.7445 78.0762 82.1625 78.4434C82.5844 78.8066 82.7953 79.3027 82.7953 79.9316C82.7953 80.5566 82.5844 81.0586 82.1625 81.4375C81.7445 81.8125 81.1469 82 80.3695 82H77.434V75.7656H78.559ZM80.3637 78.7832H78.559V81.1152H80.3637C80.8441 81.1152 81.1801 81.0039 81.3715 80.7812C81.5668 80.5586 81.6645 80.2754 81.6645 79.9316C81.6645 79.5957 81.5668 79.3203 81.3715 79.1055C81.1801 78.8906 80.8441 78.7832 80.3637 78.7832ZM83.6449 82V75.7656H84.7699V82H83.6449ZM28.3399 98V91.7656H29.4532V95.7383C29.4532 95.8555 29.4512 95.9883 29.4473 96.1367C29.4473 96.2852 29.4454 96.4199 29.4415 96.541H29.4884C29.543 96.4355 29.6036 96.3242 29.67 96.207C29.7364 96.0898 29.8126 95.9727 29.8985 95.8555L32.8341 91.7656H33.9649V98H32.8458V94.0332C32.8458 93.9121 32.8477 93.7773 32.8516 93.6289C32.8555 93.4766 32.8614 93.3398 32.8692 93.2188H32.8048C32.754 93.3203 32.6954 93.4316 32.629 93.5527C32.5626 93.6738 32.4884 93.793 32.4063 93.9102L29.4708 98H28.3399ZM39.1441 100.438V91.7656H40.1637L40.2164 92.6211H40.2398C40.4273 92.3516 40.7105 92.123 41.0895 91.9355C41.4684 91.7441 41.9117 91.6484 42.4195 91.6484C43.2945 91.6484 43.9937 91.9453 44.5172 92.5391C45.0445 93.1289 45.3082 93.8789 45.3082 94.7891V94.9766C45.3082 95.8828 45.0445 96.6328 44.5172 97.2266C43.9937 97.8203 43.2945 98.1172 42.4195 98.1172C41.9117 98.1172 41.4801 98.0352 41.1246 97.8711C40.7691 97.707 40.484 97.4902 40.2691 97.2207V100.438H39.1441ZM40.2691 96.084C40.4098 96.373 40.6422 96.6309 40.9664 96.8574C41.2906 97.0801 41.6852 97.1914 42.15 97.1914C42.8414 97.1914 43.3473 96.9805 43.6676 96.5586C43.9918 96.1328 44.1539 95.6055 44.1539 94.9766V94.7891C44.1539 94.1562 43.9918 93.6289 43.6676 93.207C43.3473 92.7852 42.8414 92.5742 42.15 92.5742C41.6852 92.5742 41.2906 92.6875 40.9664 92.9141C40.6461 93.1367 40.4137 93.3926 40.2691 93.6816V96.084ZM46.5853 94.9766V94.7891C46.5853 93.8477 46.8705 93.0801 47.4408 92.4863C48.015 91.8887 48.7728 91.5898 49.7142 91.5898C50.6595 91.5898 51.3861 91.8691 51.8939 92.4277C52.4017 92.9824 52.6556 93.7344 52.6556 94.6836V95.1465H47.2533V94.25H51.5248V94.2207C51.5248 93.7207 51.3822 93.3105 51.097 92.9902C50.8119 92.6699 50.3548 92.5098 49.7259 92.5098C49.0658 92.5098 48.5658 92.7285 48.2259 93.166C47.8861 93.6035 47.7162 94.1445 47.7162 94.7891V94.9766C47.7162 95.6211 47.8939 96.1621 48.2494 96.5996C48.6087 97.0371 49.1615 97.2559 49.9076 97.2559C50.3607 97.2559 50.7513 97.1699 51.0795 96.998C51.4076 96.8223 51.6712 96.6152 51.8705 96.377L52.597 96.9746C52.3783 97.2676 52.0384 97.541 51.5775 97.7949C51.1205 98.0488 50.5638 98.1758 49.9076 98.1758C48.8334 98.1758 48.0111 97.8789 47.4408 97.2852C46.8705 96.6875 46.5853 95.918 46.5853 94.9766ZM54.1905 98V91.7656H55.3038V95.7383C55.3038 95.8555 55.3019 95.9883 55.298 96.1367C55.298 96.2852 55.296 96.4199 55.2921 96.541H55.339C55.3937 96.4355 55.4542 96.3242 55.5206 96.207C55.587 96.0898 55.6632 95.9727 55.7491 95.8555L58.6847 91.7656H59.8155V98H58.6964V94.0332C58.6964 93.9121 58.6984 93.7773 58.7023 93.6289C58.7062 93.4766 58.712 93.3398 58.7198 93.2188H58.6554C58.6046 93.3203 58.546 93.4316 58.4796 93.5527C58.4132 93.6738 58.339 93.793 58.257 93.9102L55.3214 98H54.1905ZM57.003 89.8672C57.296 89.8672 57.5362 89.7891 57.7237 89.6328C57.9112 89.4727 58.0714 89.2129 58.2042 88.8535L59.0655 89.3574C58.8702 89.834 58.5929 90.1836 58.2335 90.4062C57.8741 90.6289 57.464 90.7402 57.003 90.7402C56.5382 90.7402 56.128 90.6309 55.7726 90.4121C55.4171 90.1895 55.1378 89.8379 54.9347 89.3574L55.8019 88.8418C55.9347 89.2129 56.0929 89.4766 56.2765 89.6328C56.464 89.7891 56.7062 89.8672 57.003 89.8672ZM61.1337 92.6504V91.7656H66.7001V92.6504H64.4794V98H63.3544V92.6504H61.1337ZM68.0299 98V91.7656H69.1432V95.7383C69.1432 95.8555 69.1412 95.9883 69.1373 96.1367C69.1373 96.2852 69.1354 96.4199 69.1315 96.541H69.1784C69.233 96.4355 69.2936 96.3242 69.36 96.207C69.4264 96.0898 69.5026 95.9727 69.5885 95.8555L72.5241 91.7656H73.6549V98H72.5358V94.0332C72.5358 93.9121 72.5377 93.7773 72.5416 93.6289C72.5455 93.4766 72.5514 93.3398 72.5592 93.2188H72.4948C72.444 93.3203 72.3854 93.4316 72.319 93.5527C72.2526 93.6738 72.1784 93.793 72.0963 93.9102L69.1608 98H68.0299ZM75.6645 91.7656H76.7895V94.3789H80.0941V91.7656H81.2191V98H80.0941V95.2695H76.7895V98H75.6645V91.7656ZM83.2287 91.7656H87.7052V92.6504H84.3537V98H83.2287V91.7656ZM89.0351 98V91.7656H90.1484V95.7383C90.1484 95.8555 90.1464 95.9883 90.1425 96.1367C90.1425 96.2852 90.1405 96.4199 90.1366 96.541H90.1835C90.2382 96.4355 90.2987 96.3242 90.3652 96.207C90.4316 96.0898 90.5077 95.9727 90.5937 95.8555L93.5292 91.7656H94.6601V98H93.5409V94.0332C93.5409 93.9121 93.5429 93.7773 93.5468 93.6289C93.5507 93.4766 93.5566 93.3398 93.5644 93.2188H93.4999C93.4491 93.3203 93.3905 93.4316 93.3241 93.5527C93.2577 93.6738 93.1835 93.793 93.1015 93.9102L90.1659 98H89.0351Z" fill="#04101C"/>
</g>
<defs>
<filter id="filter0_d_364_13408" x="0" y="0" width="125" height="130" filterUnits="userSpaceOnUse" color-interpolation-filters="sRGB">
<feFlood flood-opacity="0" result="BackgroundImageFix"/>
<feColorMatrix in="SourceAlpha" type="matrix" values="0 0 0 0 0 0 0 0 0 0 0 0 0 0 0 0 0 0 127 0" result="hardAlpha"/>
<feOffset dx="1" dy="2"/>
<feGaussianBlur stdDeviation="5"/>
<feComposite in2="hardAlpha" operator="out"/>
<feColorMatrix type="matrix" values="0 0 0 0 0.00780001 0 0 0 0 0.045344 0 0 0 0 0.0800001 0 0 0 0.04 0"/>
<feBlend mode="normal" in2="BackgroundImageFix" result="effect1_dropShadow_364_13408"/>
<feBlend mode="normal" in="SourceGraphic" in2="effect1_dropShadow_364_13408" result="shape"/>
</filter>
<radialGradient id="paint0_radial_364_13408" cx="0" cy="0" r="1" gradientUnits="userSpaceOnUse" gradientTransform="translate(61.2 46) rotate(100.204) scale(17.7812 18.6158)">
<stop stop-color="#FD9BE8"/>
<stop offset="0.338542" stop-color="#7A73FF"/>
<stop offset="0.734375" stop-color="#75CDFF"/>
<stop offset="1" stop-color="#4AFCF1"/>
</radialGradient>
</defs>
</svg>
