<svg width="108" height="114" viewBox="0 0 108 114" fill="none" xmlns="http://www.w3.org/2000/svg">
<g filter="url(#filter0_d_364_13406)">
<rect x="9" y="8" width="88" height="94" rx="12" fill="white"/>
<path d="M42.02 60C41.32 60 40.76 59.72 40.2 59.3C39.5 58.6 39.36 57.62 39.64 56.78L41.04 52.44C40.06 50.48 39.5 48.24 39.5 46C39.5 38.3 45.8 32 53.5 32C61.2 32 67.5 38.3 67.5 46C67.5 53.7 61.2 60 53.5 60C51.26 60 49.02 59.44 47.06 58.46L42.72 59.86C42.58 60 42.3 60 42.02 60ZM47.9 55.66C49.58 56.64 51.54 57.2 53.5 57.2C59.66 57.2 64.7 52.16 64.7 46C64.7 39.84 59.66 34.8 53.5 34.8C47.34 34.8 42.3 39.84 42.3 46C42.3 47.96 42.86 49.92 43.84 51.6C43.98 51.88 44.12 52.3 43.98 52.72L42.58 57.06L46.92 55.66C46.92 55.66 47.7631 55.5915 47.9 55.66Z" fill="url(#paint0_radial_364_13406)"/>
<path d="M53.5 48.24C54.7371 48.24 55.74 47.2371 55.74 46C55.74 44.7629 54.7371 43.76 53.5 43.76C52.2629 43.76 51.26 44.7629 51.26 46C51.26 47.2371 52.2629 48.24 53.5 48.24Z" fill="url(#paint1_radial_364_13406)"/>
<path d="M46.64 48.24C47.8771 48.24 48.88 47.2371 48.88 46C48.88 44.7629 47.8771 43.76 46.64 43.76C45.4029 43.76 44.4 44.7629 44.4 46C44.4 47.2371 45.4029 48.24 46.64 48.24Z" fill="url(#paint2_radial_364_13406)"/>
<path d="M60.36 48.24C61.5971 48.24 62.6 47.2371 62.6 46C62.6 44.7629 61.5971 43.76 60.36 43.76C59.1229 43.76 58.12 44.7629 58.12 46C58.12 47.2371 59.1229 48.24 60.36 48.24Z" fill="url(#paint3_radial_364_13406)"/>
<path d="M27.7058 77.9512V77.5176C27.7058 76.1816 28.071 75.1445 28.8015 74.4062C29.5359 73.6641 30.4558 73.293 31.5613 73.293C32.655 73.293 33.5046 73.5684 34.1101 74.1191C34.7155 74.666 35.0437 75.3438 35.0945 76.1523L35.1003 76.2109H33.9343L33.9284 76.1523C33.9011 75.6367 33.6921 75.1973 33.3015 74.834C32.9148 74.4707 32.3347 74.2891 31.5613 74.2891C30.78 74.2891 30.1374 74.5664 29.6335 75.1211C29.1335 75.6719 28.8835 76.4707 28.8835 77.5176V77.9512C28.8835 78.9707 29.1335 79.7637 29.6335 80.3301C30.1374 80.8965 30.78 81.1797 31.5613 81.1797C32.3347 81.1797 32.9089 80.9941 33.2839 80.623C33.6628 80.248 33.8777 79.8125 33.9284 79.3164L33.9343 79.2578H35.1003L35.0945 79.3164C35.0124 80.1133 34.6784 80.7891 34.0925 81.3438C33.5066 81.8984 32.6628 82.1758 31.5613 82.1758C30.4558 82.1758 29.5359 81.8086 28.8015 81.0742C28.071 80.3359 27.7058 79.2949 27.7058 77.9512ZM36.0962 78.9766V78.7891C36.0962 77.8477 36.3911 77.0801 36.9809 76.4863C37.5747 75.8887 38.3677 75.5898 39.3598 75.5898C40.3481 75.5898 41.1391 75.8887 41.7329 76.4863C42.3266 77.0801 42.6235 77.8477 42.6235 78.7891V78.9766C42.6235 79.918 42.3266 80.6875 41.7329 81.2852C41.1391 81.8789 40.3481 82.1758 39.3598 82.1758C38.3677 82.1758 37.5747 81.8789 36.9809 81.2852C36.3911 80.6875 36.0962 79.918 36.0962 78.9766ZM37.2446 78.7891V78.9766C37.2446 79.6172 37.4223 80.1562 37.7778 80.5938C38.1333 81.0312 38.6606 81.25 39.3598 81.25C40.0591 81.25 40.5845 81.0312 40.936 80.5938C41.2915 80.1562 41.4692 79.6172 41.4692 78.9766V78.7891C41.4692 78.1445 41.2915 77.6055 40.936 77.1719C40.5845 76.7344 40.0591 76.5156 39.3598 76.5156C38.6606 76.5156 38.1333 76.7344 37.7778 77.1719C37.4223 77.6055 37.2446 78.1445 37.2446 78.7891ZM49.6428 83.582V82H44.2639V75.7656H45.3889V81.1152H48.6116V75.7656H49.7366V81.1152H50.6741V83.582H49.6428ZM51.5645 78.9766V78.7891C51.5645 77.8477 51.8477 77.0801 52.4141 76.4863C52.9844 75.8887 53.7676 75.5898 54.7637 75.5898C55.6855 75.5898 56.3848 75.8145 56.8613 76.2637C57.3418 76.709 57.582 77.209 57.582 77.7637V77.793H56.4688V77.7578C56.4688 77.4258 56.334 77.1348 56.0645 76.8848C55.7988 76.6348 55.3652 76.5098 54.7637 76.5098C54.0605 76.5098 53.543 76.7285 53.2109 77.166C52.8789 77.6035 52.7129 78.1445 52.7129 78.7891V78.9766C52.7129 79.6211 52.8789 80.1621 53.2109 80.5996C53.543 81.0332 54.0605 81.25 54.7637 81.25C55.3652 81.25 55.7988 81.127 56.0645 80.8809C56.334 80.6348 56.4688 80.3418 56.4688 80.002V79.9727H57.582V80.002C57.582 80.5527 57.3418 81.0527 56.8613 81.502C56.3848 81.9512 55.6855 82.1758 54.7637 82.1758C53.7676 82.1758 52.9844 81.8789 52.4141 81.2852C51.8477 80.6875 51.5645 79.918 51.5645 78.9766ZM58.6599 78.9766V78.7891C58.6599 77.8477 58.9451 77.0801 59.5154 76.4863C60.0896 75.8887 60.8474 75.5898 61.7888 75.5898C62.7341 75.5898 63.4607 75.8691 63.9685 76.4277C64.4763 76.9824 64.7302 77.7344 64.7302 78.6836V79.1465H59.3279V78.25H63.5994V78.2207C63.5994 77.7207 63.4568 77.3105 63.1716 76.9902C62.8865 76.6699 62.4295 76.5098 61.8005 76.5098C61.1404 76.5098 60.6404 76.7285 60.3005 77.166C59.9607 77.6035 59.7908 78.1445 59.7908 78.7891V78.9766C59.7908 79.6211 59.9685 80.1621 60.324 80.5996C60.6834 81.0371 61.2361 81.2559 61.9822 81.2559C62.4353 81.2559 62.8259 81.1699 63.1541 80.998C63.4822 80.8223 63.7459 80.6152 63.9451 80.377L64.6716 80.9746C64.4529 81.2676 64.113 81.541 63.6521 81.7949C63.1951 82.0488 62.6384 82.1758 61.9822 82.1758C60.908 82.1758 60.0857 81.8789 59.5154 81.2852C58.9451 80.6875 58.6599 79.918 58.6599 78.9766ZM65.5738 76.6504V75.7656H71.1402V76.6504H68.9195V82H67.7945V76.6504H65.5738ZM72.47 82V75.7656H73.5833V79.7383C73.5833 79.8555 73.5813 79.9883 73.5774 80.1367C73.5774 80.2852 73.5755 80.4199 73.5716 80.541H73.6184C73.6731 80.4355 73.7337 80.3242 73.8001 80.207C73.8665 80.0898 73.9427 79.9727 74.0286 79.8555L76.9641 75.7656H78.095V82H76.9759V78.0332C76.9759 77.9121 76.9778 77.7773 76.9817 77.6289C76.9856 77.4766 76.9915 77.3398 76.9993 77.2188H76.9348C76.8841 77.3203 76.8255 77.4316 76.7591 77.5527C76.6927 77.6738 76.6184 77.793 76.5364 77.9102L73.6009 82H72.47Z" fill="#04101C"/>
</g>
<defs>
<filter id="filter0_d_364_13406" x="0" y="0" width="108" height="114" filterUnits="userSpaceOnUse" color-interpolation-filters="sRGB">
<feFlood flood-opacity="0" result="BackgroundImageFix"/>
<feColorMatrix in="SourceAlpha" type="matrix" values="0 0 0 0 0 0 0 0 0 0 0 0 0 0 0 0 0 0 127 0" result="hardAlpha"/>
<feOffset dx="1" dy="2"/>
<feGaussianBlur stdDeviation="5"/>
<feComposite in2="hardAlpha" operator="out"/>
<feColorMatrix type="matrix" values="0 0 0 0 0.00780001 0 0 0 0 0.045344 0 0 0 0 0.0800001 0 0 0 0.04 0"/>
<feBlend mode="normal" in2="BackgroundImageFix" result="effect1_dropShadow_364_13406"/>
<feBlend mode="normal" in="SourceGraphic" in2="effect1_dropShadow_364_13406" result="shape"/>
</filter>
<radialGradient id="paint0_radial_364_13406" cx="0" cy="0" r="1" gradientUnits="userSpaceOnUse" gradientTransform="translate(53.5 46) rotate(99.7276) scale(17.7553)">
<stop stop-color="#FD9BE8"/>
<stop offset="0.338542" stop-color="#7A73FF"/>
<stop offset="0.734375" stop-color="#75CDFF"/>
<stop offset="1" stop-color="#4AFCF1"/>
</radialGradient>
<radialGradient id="paint1_radial_364_13406" cx="0" cy="0" r="1" gradientUnits="userSpaceOnUse" gradientTransform="translate(53.5 46) rotate(99.7276) scale(17.7553)">
<stop stop-color="#FD9BE8"/>
<stop offset="0.338542" stop-color="#7A73FF"/>
<stop offset="0.734375" stop-color="#75CDFF"/>
<stop offset="1" stop-color="#4AFCF1"/>
</radialGradient>
<radialGradient id="paint2_radial_364_13406" cx="0" cy="0" r="1" gradientUnits="userSpaceOnUse" gradientTransform="translate(53.5 46) rotate(99.7276) scale(17.7553)">
<stop stop-color="#FD9BE8"/>
<stop offset="0.338542" stop-color="#7A73FF"/>
<stop offset="0.734375" stop-color="#75CDFF"/>
<stop offset="1" stop-color="#4AFCF1"/>
</radialGradient>
<radialGradient id="paint3_radial_364_13406" cx="0" cy="0" r="1" gradientUnits="userSpaceOnUse" gradientTransform="translate(53.5 46) rotate(99.7276) scale(17.7553)">
<stop stop-color="#FD9BE8"/>
<stop offset="0.338542" stop-color="#7A73FF"/>
<stop offset="0.734375" stop-color="#75CDFF"/>
<stop offset="1" stop-color="#4AFCF1"/>
</radialGradient>
</defs>
</svg>
