<svg width="206" height="125" viewBox="0 0 206 125" fill="none" xmlns="http://www.w3.org/2000/svg">
<path d="M171.743 77.8731C169.715 76.7847 169.4 73.7093 169.445 66.2291L169.49 54.7657L165.615 54.7611L166.516 52.6398H169.49V47.2114L176.61 44.4973V52.4591L179.899 52.4637L179.043 54.8167L176.61 54.812V74.6495C176.745 76.2474 177.286 77.1876 178.007 77.8731H171.743Z" fill="#AFB6B3"/>
<path d="M66.2965 96.0571C66.0712 95.4133 65.6206 95.0011 64.9446 95.0011C63.9983 95.0011 63.6378 95.5013 63.6378 96.1914C63.6378 97.8357 67.2428 97.5346 67.2428 100.323C67.2428 101.879 65.936 103 64.0885 103C63.4576 103 62.7366 102.843 62.1958 102.477C62.331 101.962 62.4662 101.453 62.5563 100.93H62.7816C62.9168 101.768 63.5928 102.268 64.4039 102.268C65.1249 102.268 65.8008 101.842 65.8008 101.004C65.8008 99.0538 62.2409 99.7625 62.2409 96.826C62.2409 95.4272 63.1872 94.2693 64.9897 94.2693C65.8459 94.2693 66.6119 94.5981 66.8373 94.8529C66.7021 95.2419 66.6119 95.6449 66.4768 96.0571H66.2965Z" fill="#AFB6B3"/>
<path d="M101.58 28.8561C102.121 30.3892 103.383 31.9732 102.482 33.7518C102.076 35.5581 100.409 37.0217 98.6513 37.3135C96.8037 37.4849 95.0913 37.1653 93.6944 36.0213C92.7481 30.806 94.821 25.9798 98.8315 23.1036L101.58 28.8561Z" fill="#AFB6B3"/>
<path d="M108.655 44.7476C107.754 47.9017 98.696 45.8314 95.857 40.6532C99.5972 41.0793 103.788 37.6796 103.878 33.8029L108.655 44.7476Z" fill="#AFB6B3"/>
<path d="M112.397 44.3399C112.803 44.15 113.614 43.7239 113.839 42.8115L104.106 21.0518C103.43 20.9685 102.979 20.9083 102.123 21.515L112.397 44.3399Z" fill="#AFB6B3"/>
<path d="M116.767 39.6155C120.912 33.1543 117.443 22.5524 108.475 21.0656L116.767 39.6155Z" fill="#AFB6B3"/>
<path d="M22 88.5631H178.547V87.331H22V88.5631Z" fill="#AFB6B3"/>
<path d="M72.6506 98.5026C72.6506 98.0302 72.2451 97.6504 71.7945 97.6504C71.3438 97.6504 70.9833 98.0302 70.9833 98.5026C70.9833 98.9751 71.3438 99.3549 71.7945 99.3549C72.2451 99.3549 72.6506 98.9751 72.6506 98.5026Z" fill="#AFB6B3"/>
<path d="M115.866 53.5244C117.173 52.3943 119.471 52.3711 120.958 53.0937C121.589 53.4179 122.174 53.8486 122.58 54.4137L119.696 59.0083C119.336 58.7119 119.065 58.5776 118.615 58.3367C117.173 57.7022 115.685 58.0727 114.829 58.874V72.2827C114.784 74.6032 115.19 76.7198 116.361 77.8176H109.827C108.43 76.743 108.115 75.0247 107.98 73.5194L107.935 55.6874C107.98 54.2423 107.619 53.6078 107.078 52.7972L113.838 52.825C114.379 53.228 114.424 53.9274 114.694 54.4647L115.866 53.5244Z" fill="#AFB6B3"/>
<path d="M124.112 57.9338C124.067 56.2386 124.427 54.2099 123.346 52.7463H129.609C130.06 53.0705 130.285 53.6078 130.421 54.1173C130.781 54.5712 130.736 55.2196 130.871 55.7569L130.961 74.756C131.187 75.8862 131.637 77.0255 132.448 77.9148L125.734 77.9287C123.526 75.7426 124.247 72.1484 124.067 68.4384L124.112 57.9338Z" fill="#AFB6B3"/>
<path d="M134.071 58.119C134.747 56.1876 136.865 55.2196 138.397 54.1682C140.74 53.2836 143.354 51.0789 145.968 52.8806C148.176 54.3581 150.113 56.0255 151.51 58.3089C151.826 59.1936 152.006 60.1894 152.231 61.1296C152.231 62.3941 152.502 63.3343 152.457 64.5988C152.547 65.9697 152.547 67.2064 152.457 68.5496C152.366 70.833 151.33 72.8756 149.573 74.4596C146.959 76.8542 143.669 79.5683 140.109 77.711C136.91 76.1779 133.17 73.1442 133.395 68.9757C133.26 66.0207 133.125 63.4686 133.53 60.5923C133.665 59.7586 133.62 58.8462 134.071 58.119ZM140.605 71.5555C140.921 72.7413 141.506 74.191 142.903 74.3531C143.714 74.3809 144.3 73.6815 144.796 73.0886C146.238 70.1336 146.013 66.91 146.013 63.5474C145.562 61.0509 146.148 57.6373 143.534 56.1043C142.588 55.7569 141.912 56.4007 141.326 56.9935C140.29 58.5776 140.2 60.3932 140.109 62.408C139.794 65.6316 140.154 68.3041 140.605 71.5555Z" fill="#AFB6B3"/>
<path d="M157.098 77.8731C155.07 76.7847 154.754 73.7093 154.8 66.2291L154.845 54.7657L151.014 54.7611L151.87 52.6398H154.845V47.2114L162.01 44.4973V52.4591L165.254 52.4637L164.398 54.8167L162.01 54.812V74.6495C162.145 76.2474 162.686 77.1876 163.406 77.8731H157.098Z" fill="#AFB6B3"/>
<path d="M91.8469 55.6874C91.8019 54.2423 91.5315 53.6078 90.9908 52.7972L97.7501 52.825C98.2909 53.228 98.3359 53.9274 98.6063 54.4647L99.7779 53.5244C101.085 52.3943 103.383 52.3711 104.87 53.0937C105.501 53.4179 106.087 53.8486 106.492 54.4137L103.608 59.0083C103.248 58.7119 102.977 58.5776 102.527 58.3367C101.085 57.7022 99.5977 58.0727 98.7415 58.874V72.2827C98.6964 74.6032 99.102 76.7198 100.274 77.8176H93.7396C92.3877 76.743 91.9821 75.1451 91.892 73.5194L91.8469 55.6874Z" fill="#AFB6B3"/>
<path d="M40.611 62.7415L38.1776 67.9475C36.4652 71.0183 34.1219 74.7838 30.5169 75.7194C29.12 76.2196 27.8582 75.7657 26.5064 75.6685L22.1353 83.0097C22.4958 83.371 22.9464 83.672 23.397 83.848C31.0577 86.8586 34.167 83.6211 41.6925 66.0624L48.8574 81.7035H58.3656L53.8593 71.1479L56.4279 65.6918L63.4577 81.4627L72.5603 81.5229L56.6082 45.544L49.263 49.2911L55.031 62.7183L52.5075 67.9938L41.9628 44.6131L34.2571 48.6611L40.611 62.7415Z" fill="#AFB6B3"/>
<path d="M69.8566 69.0868C70.0369 66.4792 71.4338 64.0337 73.7771 62.7183C76.1203 61.2362 78.8241 60.6479 81.2575 59.3557C81.663 59.0083 82.1587 58.5776 82.2038 58.0125C82.2488 57.3131 81.8883 56.7758 81.3025 56.535C77.6074 55.7291 74.5882 58.0913 71.9295 60.4303C72.245 58.7119 72.5153 56.8314 73.3265 55.2196C73.687 54.7889 73.9573 54.196 74.453 53.8764C77.0666 52.5564 80.3112 52.1812 83.1952 52.3943C85.5835 52.5564 87.7916 54.3025 88.6027 56.535C89.0082 57.5818 88.9632 58.7675 89.0533 59.842L89.0984 74.4086C89.0984 75.6684 89.6842 76.8542 90.4052 77.8731H83.6458C82.8347 77.1228 82.4291 76.1779 82.2038 74.9969C80.3112 76.7198 76.3456 79.2719 74.0024 77.5767C71.569 76.4512 69.3159 72.6579 69.8566 69.0868ZM81.8433 64.0198C81.7982 63.0101 81.1223 62.9036 80.6266 62.9036C79.0044 63.1444 77.6074 64.5385 76.7963 65.9697C76.1203 67.2434 75.9401 68.318 75.895 69.4342C75.895 70.6385 75.8049 71.5324 76.3006 72.4448C76.571 73.0377 77.1117 73.3063 77.6975 73.4638C78.734 73.6815 79.6803 73.385 80.4914 72.82C82.4291 71.7177 82.0686 69.513 82.1137 67.5537L81.8433 64.0198Z" fill="#AFB6B3"/>
<path d="M134.296 98.5026C134.296 98.0302 133.89 97.6504 133.44 97.6504C132.989 97.6504 132.629 98.0302 132.629 98.5026C132.629 98.9751 132.989 99.3549 133.44 99.3549C133.89 99.3549 134.296 98.9751 134.296 98.5026Z" fill="#AFB6B3"/>
<path d="M77.5623 94.487H80.0858C80.6266 94.487 81.5278 94.4638 82.0235 94.7324C82.6994 95.0984 83.0149 95.6449 83.0149 96.474C83.0149 97.6689 82.2939 98.4239 81.1673 98.6647C81.8433 99.8319 82.5642 100.953 83.2852 102.088L83.7359 102.843C83.3754 102.815 83.0149 102.782 82.6544 102.782C82.2939 102.782 81.9784 102.815 81.6179 102.843L80.1759 100.286C79.9957 99.957 79.6802 99.3966 79.4099 98.9334H79.3197V102.843C79.0494 102.815 78.7339 102.782 78.4635 102.782C78.1481 102.782 77.8777 102.815 77.5623 102.843V94.487ZM79.3197 98.41C80.5815 98.5304 81.2124 97.9237 81.2124 96.6685C81.2124 96.4971 81.1673 96.3165 81.1222 96.0571C80.942 95.0474 80.0407 95.1447 79.3197 95.1447V98.41Z" fill="#AFB6B3"/>
<path d="M90.0445 94.487C89.9995 94.6583 89.9544 94.8436 89.9544 95.0104C89.9544 95.1817 89.9995 95.367 90.0445 95.5337C89.2784 95.4365 88.5124 95.3392 87.2957 95.367V97.9839H88.5124C89.0531 97.9839 89.5488 97.933 89.9995 97.8727C89.9544 98.0441 89.9093 98.2247 89.9093 98.3961C89.9093 98.5675 89.9544 98.7528 89.9995 98.9195C89.5488 98.8593 89.0531 98.813 88.5124 98.813H87.2957V101.902C88.5124 101.893 89.2784 101.833 90.0445 101.736C89.9995 101.902 89.9544 102.088 89.9544 102.259C89.9544 102.426 89.9995 102.611 90.0445 102.782H85.4932V94.487H90.0445Z" fill="#AFB6B3"/>
<path d="M95.8125 96.0571C95.5421 95.4133 95.0915 95.0011 94.4156 95.0011C93.5143 95.0011 93.1087 95.5013 93.1087 96.1914C93.1087 97.8357 96.7138 97.5346 96.7138 100.323C96.7138 101.879 95.452 103 93.6044 103C92.9285 103 92.2526 102.843 91.7118 102.477C91.847 101.962 91.9822 101.453 92.0273 100.93H92.2526C92.4328 101.768 93.0637 102.268 93.8748 102.268C94.6409 102.268 95.2718 101.842 95.2718 101.004C95.2718 99.0538 91.7569 99.7625 91.7569 96.826C91.7569 95.4272 92.6581 94.2693 94.5057 94.2693C95.3168 94.2693 96.0829 94.5981 96.3533 94.8529C96.2181 95.2419 96.0829 95.6449 95.9928 96.0571H95.8125Z" fill="#AFB6B3"/>
<path d="M102.572 103C99.9585 103 98.201 101.416 98.201 98.6508C98.201 96.2285 99.9134 94.2693 102.888 94.2693C106.267 94.2693 107.259 96.7148 107.259 98.6046C107.259 100.981 105.501 103 102.572 103ZM100.184 99.0075C100.184 100.587 100.86 102.268 102.662 102.268C104.465 102.268 105.276 100.392 105.276 98.373C105.276 96.8028 104.555 95.0011 102.797 95.0011C101.175 95.0011 100.184 96.2794 100.184 99.0075Z" fill="#AFB6B3"/>
<path d="M109.241 94.487H111.765C112.305 94.487 113.162 94.4638 113.657 94.7324C114.333 95.0984 114.694 95.6449 114.694 96.474C114.694 97.6689 113.928 98.4239 112.846 98.6647C113.522 99.8319 114.243 100.953 114.964 102.088L115.415 102.843C115.054 102.815 114.694 102.782 114.333 102.782C113.973 102.782 113.612 102.815 113.252 102.843L111.855 100.286C111.675 99.957 111.359 99.3966 111.089 98.9334H110.999V102.843C110.683 102.815 110.413 102.782 110.097 102.782C109.827 102.782 109.512 102.815 109.241 102.843V94.487ZM110.999 98.41C112.26 98.5304 112.846 97.9237 112.846 96.6685C112.846 96.4971 112.846 96.3165 112.801 96.0571C112.621 95.0474 111.72 95.1447 110.999 95.1447V98.41Z" fill="#AFB6B3"/>
<path d="M120.462 102.843C120.191 102.815 119.876 102.782 119.56 102.782C119.29 102.782 118.975 102.815 118.704 102.843V95.3531C117.848 95.3531 117.127 95.4365 116.496 95.5245C116.496 95.3531 116.541 95.1817 116.541 95.0011C116.541 94.8297 116.496 94.6583 116.496 94.487H122.58C122.58 94.6583 122.535 94.8297 122.535 95.0011C122.535 95.1817 122.58 95.3531 122.58 95.5245C121.904 95.4365 121.183 95.3531 120.462 95.3531V102.843Z" fill="#AFB6B3"/>
<path d="M128.122 96.0571C127.897 95.4133 127.446 95.0011 126.77 95.0011C125.824 95.0011 125.464 95.5013 125.464 96.1914C125.464 97.8357 129.069 97.5346 129.069 100.323C129.069 101.879 127.762 103 125.914 103C125.283 103 124.562 102.843 124.022 102.477C124.157 101.962 124.292 101.453 124.382 100.93H124.607C124.743 101.768 125.419 102.268 126.23 102.268C126.951 102.268 127.582 101.842 127.582 101.004C127.582 99.0538 124.067 99.7625 124.067 96.826C124.067 95.4272 125.013 94.2693 126.816 94.2693C127.672 94.2693 128.438 94.5981 128.663 94.8529C128.528 95.2419 128.438 95.6449 128.303 96.0571H128.122Z" fill="#AFB6B3"/>
<path d="M142.678 96.0571C142.407 95.4133 141.957 95.0011 141.281 95.0011C140.38 95.0011 139.974 95.5013 139.974 96.1914C139.974 97.8357 143.579 97.5346 143.579 100.323C143.579 101.879 142.317 103 140.47 103C139.794 103 139.118 102.843 138.577 102.477C138.712 101.962 138.802 101.453 138.893 100.93H139.118C139.298 101.768 139.929 102.268 140.74 102.268C141.506 102.268 142.137 101.842 142.137 101.004C142.137 99.0538 138.622 99.7625 138.622 96.826C138.622 95.4272 139.568 94.2693 141.326 94.2693C142.182 94.2693 142.948 94.5981 143.219 94.8529C143.083 95.2419 142.948 95.6449 142.858 96.0571H142.678Z" fill="#AFB6B3"/>
<path d="M145.697 94.487C146.013 94.5148 146.283 94.5518 146.598 94.5518C146.914 94.5518 147.184 94.5148 147.5 94.487V97.9468C147.5 98.6184 147.455 99.6142 147.59 100.249C147.68 100.846 147.77 101.221 148.176 101.648C148.581 102.013 149.032 102.171 149.573 102.171C150.654 102.171 151.24 101.759 151.645 100.698C151.871 100.161 151.871 98.7759 151.871 98.1784V94.487C152.006 94.5148 152.186 94.524 152.321 94.524C152.502 94.524 152.682 94.5148 152.817 94.487V98.8222C152.772 100.212 152.817 101.476 151.555 102.356C150.924 102.829 150.113 103 149.302 103C147.905 103 146.328 102.537 145.922 100.953C145.787 100.48 145.697 99.9431 145.697 99.4568V94.487Z" fill="#AFB6B3"/>
<path d="M155.611 94.487C155.926 94.5148 156.242 94.5518 156.512 94.5518C156.828 94.5518 157.098 94.5148 157.413 94.487V102.843C157.098 102.815 156.828 102.782 156.512 102.782C156.242 102.782 155.926 102.815 155.611 102.843V94.487Z" fill="#AFB6B3"/>
<path d="M163.407 102.843C163.091 102.815 162.776 102.782 162.505 102.782C162.19 102.782 161.92 102.815 161.604 102.843V95.3531C160.793 95.3531 160.027 95.4365 159.396 95.5245C159.441 95.3531 159.486 95.1817 159.486 95.0011C159.486 94.8297 159.441 94.6584 159.396 94.487H165.525C165.48 94.6584 165.435 94.8297 165.435 95.0011C165.435 95.1817 165.48 95.3531 165.525 95.5245C164.804 95.4365 164.128 95.3531 163.407 95.3531V102.843Z" fill="#AFB6B3"/>
<path d="M171.878 94.487C171.833 94.6584 171.833 94.8436 171.833 95.0104C171.833 95.1817 171.833 95.367 171.878 95.5337C171.157 95.4365 170.346 95.3392 169.13 95.367V97.9839H170.346C170.887 97.9839 171.383 97.933 171.833 97.8727C171.788 98.0441 171.788 98.2247 171.788 98.3961C171.788 98.5675 171.788 98.7528 171.833 98.9195C171.383 98.8593 170.887 98.813 170.346 98.813H169.13V101.902C170.346 101.893 171.157 101.833 171.878 101.736C171.833 101.902 171.833 102.088 171.833 102.259C171.833 102.426 171.833 102.611 171.878 102.782H167.372V94.487H171.878Z" fill="#AFB6B3"/>
<path d="M177.646 96.0571C177.421 95.4133 176.97 95.0011 176.295 95.0011C175.348 95.0011 174.988 95.5013 174.988 96.1914C174.988 97.8357 178.593 97.5346 178.593 100.323C178.593 101.879 177.286 103 175.438 103C174.807 103 174.086 102.843 173.546 102.477C173.681 101.962 173.816 101.453 173.861 100.93H174.086C174.267 101.768 174.898 102.268 175.754 102.268C176.475 102.268 177.106 101.842 177.106 101.004C177.106 99.0538 173.591 99.7625 173.591 96.826C173.591 95.4272 174.537 94.2693 176.34 94.2693C177.196 94.2693 177.962 94.5981 178.187 94.8529C178.052 95.2419 177.962 95.6449 177.827 96.0571H177.646Z" fill="#AFB6B3"/>
<path d="M22.2255 94.487C22.5409 94.5148 22.8113 94.5518 23.1267 94.5518C23.3971 94.5518 23.7125 94.5148 24.028 94.487V97.7894C24.6138 97.8125 25.2447 97.8496 25.8305 97.8496C26.4163 97.8496 27.0472 97.8125 27.633 97.7894V94.487C27.9484 94.5148 28.2188 94.5518 28.5342 94.5518C28.8046 94.5518 29.12 94.5148 29.4355 94.487V102.843C29.12 102.815 28.8046 102.782 28.5342 102.782C28.2188 102.782 27.9484 102.815 27.633 102.843V98.762C27.0472 98.7389 26.4163 98.7018 25.8305 98.7018C25.2447 98.7018 24.6138 98.7389 24.028 98.762V102.843C23.7125 102.815 23.3971 102.782 23.1267 102.782C22.8113 102.782 22.5409 102.815 22.2255 102.843V94.487Z" fill="#AFB6B3"/>
<path d="M35.9245 103C33.3108 103 31.5083 101.416 31.5083 98.6508C31.5083 96.2285 33.2658 94.2693 36.1948 94.2693C39.5745 94.2693 40.5659 96.7148 40.5659 98.6046C40.5659 100.981 38.8085 103 35.9245 103ZM33.4911 99.0075C33.4911 100.587 34.2121 102.268 35.9695 102.268C37.772 102.268 38.6282 100.392 38.6282 98.373C38.6282 96.8028 37.9072 95.0011 36.1047 95.0011C34.4825 95.0011 33.4911 96.2794 33.4911 99.0075Z" fill="#AFB6B3"/>
<path d="M44.9822 102.843C44.7118 102.815 44.3964 102.782 44.126 102.782C43.8106 102.782 43.5402 102.815 43.2247 102.843V95.3531C42.3685 95.3531 41.6475 95.4365 41.0167 95.5245C41.0617 95.3531 41.0617 95.1817 41.0617 95.0011C41.0617 94.8297 41.0617 94.6584 41.0167 94.487H47.1001C47.1001 94.6584 47.055 94.8297 47.055 95.0011C47.055 95.1817 47.1001 95.3531 47.1001 95.5245C46.4242 95.4365 45.7032 95.3531 44.9822 95.3531V102.843Z" fill="#AFB6B3"/>
<path d="M53.4087 94.487C53.4087 94.6584 53.3636 94.8436 53.3636 95.0104C53.3636 95.1817 53.4087 95.367 53.4087 95.5337C52.6877 95.4365 51.8766 95.3392 50.6599 95.367V97.9839H51.9216C52.4624 97.9839 52.913 97.933 53.3636 97.8727C53.3186 98.0441 53.3186 98.2247 53.3186 98.3961C53.3186 98.5675 53.3186 98.7528 53.3636 98.9195C52.913 98.8593 52.4624 98.813 51.9216 98.813H50.6599V101.902C51.8766 101.893 52.6877 101.833 53.4087 101.736C53.4087 101.902 53.3636 102.088 53.3636 102.259C53.3636 102.426 53.4087 102.611 53.4087 102.782H48.9025V94.487H53.4087Z" fill="#AFB6B3"/>
<path d="M57.4643 101.902C58.5007 101.902 59.3569 101.819 60.168 101.736C60.123 101.902 60.0779 102.088 60.0779 102.259C60.0779 102.426 60.123 102.611 60.168 102.782H55.6618V94.487C55.9772 94.5148 56.2476 94.5518 56.563 94.5518C56.8785 94.5518 57.1489 94.5148 57.4643 94.487V101.902Z" fill="#AFB6B3"/>
<path d="M178.863 75.6916C178.863 74.2002 180.035 73.1025 181.431 73.1025C182.828 73.1025 184 74.2002 184 75.6916C184 77.1923 182.828 78.29 181.431 78.29C180.035 78.29 178.863 77.1923 178.863 75.6916ZM181.431 77.8592C182.603 77.8592 183.504 76.9422 183.504 75.6916C183.504 74.4642 182.603 73.5333 181.431 73.5333C180.305 73.5333 179.359 74.4642 179.359 75.6916C179.359 76.9422 180.305 77.8592 181.431 77.8592ZM180.891 77.1923H180.485V74.2002H181.567C182.243 74.2002 182.603 74.4642 182.603 75.0524C182.603 75.5897 182.288 75.8213 181.837 75.8769L182.693 77.1923H182.198L181.431 75.8954H180.891V77.1923ZM181.431 75.511C181.792 75.511 182.152 75.4832 182.152 75.0247C182.152 74.6541 181.837 74.5847 181.522 74.5847H180.891V75.511H181.431Z" fill="#AFB6B3"/>
</svg>
