<svg width="205" height="125" viewBox="0 0 205 125" fill="none" xmlns="http://www.w3.org/2000/svg">
<path d="M118.707 67.0613V81.1029H121.856V75.3657H128.57V81.1029H131.719V67.0613H128.57V72.8182H121.856V67.0613H118.707Z" fill="#AFB6B3"/>
<path d="M138.811 75.4398H140.77L145.604 81.1029H149.675L143.231 73.8414L148.862 67.0613H145.242L140.55 73.0798H138.811V67.0613H135.66V81.1029H138.811V75.4398Z" fill="#AFB6B3"/>
<path d="M113.293 81.1029H116.611L110.458 67.0613H107.246L100.949 81.1029H104.14L105.412 78.2742H112.105L113.293 81.1029ZM106.35 75.927L108.791 70.2904L111.084 75.927H106.35Z" fill="#AFB6B3"/>
<path d="M94.3645 72.5347H90.5326V69.3992H98.7704L98.7776 67.0613H87.3828V81.1029H93.9591C97.6479 81.1029 99.763 79.4953 99.763 76.6921C99.763 74.0115 97.8464 72.5347 94.3645 72.5347ZM93.8171 78.765H90.5326V74.8726H93.8171C95.8155 74.8726 96.7467 75.5242 96.7467 76.8194C96.7467 78.1423 95.7614 78.765 93.8171 78.765Z" fill="#AFB6B3"/>
<path d="M125.653 50.9582L128.95 48.6202H117.914V62.6631H128.95V60.3251H121.063V56.7302H127.791V54.3911H121.063V50.9582H125.653Z" fill="#AFB6B3"/>
<path d="M109.583 54.0948H105.751V50.9582H111.869L115.167 48.6202H102.602V62.6631H109.178C112.867 62.6631 114.982 61.0554 114.982 58.2522C114.982 55.5705 113.065 54.0948 109.583 54.0948ZM109.031 60.3251H105.747V56.4327H109.031C111.029 56.4327 111.961 57.0832 111.961 58.3783C111.961 59.7013 110.975 60.3251 109.031 60.3251Z" fill="#AFB6B3"/>
<path d="M137.895 48.6202H131.879V62.6631H135.029V58.6851H137.889C141.723 58.6851 144.105 56.7452 144.105 53.6457C144.105 50.5462 141.723 48.6202 137.889 48.6202M137.821 56.3471H135.029V50.9582H137.821C139.839 50.9582 140.949 51.9154 140.949 53.6526C140.949 55.3899 139.838 56.3471 137.821 56.3471Z" fill="#AFB6B3"/>
<path d="M97.1966 59.6226C96.3614 60.0584 95.4253 60.2841 94.4752 60.2789C91.6358 60.2789 89.5748 58.3287 89.5748 55.6423C89.5748 52.956 91.6358 51.0127 94.4752 51.0127C95.5012 50.9985 96.5051 51.3006 97.3398 51.875L99.5993 50.2731L99.4501 50.1469C98.1266 49.0324 96.3689 48.4432 94.3536 48.4432C92.1676 48.4432 90.1836 49.1516 88.7675 50.4398C87.3515 51.728 86.5586 53.5578 86.5586 55.5706C86.5586 57.5833 87.3406 59.4432 88.7591 60.7789C90.1776 62.1145 92.1627 62.8553 94.3332 62.8553C96.6035 62.8553 98.5862 62.0937 99.9301 60.7083L97.892 59.2627L97.1966 59.6226Z" fill="#AFB6B3"/>
<path d="M79.0661 55.5739C79.0664 54.8784 79.002 54.1843 78.8736 53.4998L76.2833 55.3355C76.2833 55.4154 76.2833 55.4941 76.2833 55.5739C76.2854 57.5651 75.5943 59.4997 74.3202 61.069C73.0461 62.6383 71.2623 63.7518 69.2536 64.2321C67.2448 64.7123 65.1267 64.5316 63.2371 63.7187C61.3476 62.9057 59.7955 61.5075 58.8284 59.7469C57.8614 57.9864 57.5351 55.965 57.9015 54.0052C58.268 52.0455 59.3062 50.2602 60.8504 48.9343C62.3947 47.6084 64.356 46.8181 66.4216 46.6897C68.4872 46.5612 70.538 47.1019 72.2468 48.2255L74.5869 46.567C72.4635 44.9185 69.8207 44.0134 67.0921 44.0001C64.3636 43.9869 61.7114 44.8662 59.5707 46.4939C57.4301 48.1216 55.9282 50.4009 55.3114 52.9579C54.6946 55.5149 54.9997 58.1976 56.1765 60.5658C57.3533 62.934 59.3319 64.8471 61.7877 65.9911C64.2435 67.1351 67.0306 67.4421 69.6916 66.8617C72.3527 66.2812 74.7296 64.8479 76.4323 62.7968C78.1351 60.7458 79.0625 58.1988 79.0625 55.5739H79.0661Z" fill="#AFB6B3"/>
<path d="M76.5565 48.4965C77.1289 49.2069 77.6134 49.9791 78.0002 50.7974L67.0373 58.5705L62.457 55.8078V52.4849L67.0373 55.2476L76.5565 48.4965Z" fill="#AFB6B3"/>
</svg>
