<svg width="206" height="125" viewBox="0 0 206 125" fill="none" xmlns="http://www.w3.org/2000/svg">
<path d="M60.309 73.6521V88.2412C60.309 89.5828 60.9645 90.1249 62.0701 90.1249H70.8637C71.9679 90.1249 72.6248 89.5828 72.6248 88.2412V73.6521H77.7846V89.1988C77.7846 92.4984 75.38 94.9984 72.6235 94.9984H60.3076C57.5632 94.9984 55.1451 92.4842 55.1451 89.1988V73.6521H60.309Z" fill="#AFB6B3"/>
<path d="M30.6719 88.4134H35.8089C35.8935 89.6287 36.5007 90.1264 37.5217 90.1264H46.9601C47.8346 90.1264 48.3195 89.2431 48.3195 88.2839C48.3195 86.9991 47.5189 86.3259 46.4859 86.3259H36.1972C32.8079 86.3259 30.5 84.3822 30.5 80.1818C30.5 77.9963 31.2294 75.6812 32.8818 74.5086C33.9135 73.7643 35.1762 73.6505 36.3678 73.6505H48.4888C51.1137 73.6505 53.2255 75.8361 53.2013 78.9792V80.1075H47.8951C47.8467 79.1357 47.3604 78.5083 46.4872 78.5083H37.5351C36.6243 78.5083 35.8586 79.0503 35.8586 80.2371C35.8586 81.4097 36.6364 81.8521 37.523 81.8521H48.4915C52.0379 81.8521 53.873 84.6397 53.873 88.6979C53.873 92.5838 52.3415 94.9968 48.916 94.9968H35.8103C32.8213 94.9968 30.7082 93.5841 30.684 89.8404L30.6719 88.4134Z" fill="#AFB6B3"/>
<path d="M152.85 73.6521H158.024V88.2412C158.024 89.5828 158.681 90.1249 159.785 90.1249H168.578C169.682 90.1249 170.339 89.5828 170.339 88.2412V73.6521H175.5V89.1988C175.5 92.4826 173.083 94.9984 170.339 94.9984H158.022C155.265 94.9984 152.847 92.4984 152.847 89.1988L152.85 73.6521Z" fill="#AFB6B3"/>
<path d="M109.305 90.7838L107.277 94.9968H101.544L111.395 73.6521H118.136L127.988 94.9968H122.254L120.225 90.7838H109.305ZM114.759 79.0535L111.504 86.1694H118.027L114.759 79.0535Z" fill="#AFB6B3"/>
<path d="M79.7553 73.6521H95.6673C99.0794 73.6521 101.606 75.0522 101.606 79.5529C101.606 81.4966 100.952 83.197 99.4945 84.1546C101.096 85.1549 102.008 87.0102 102.008 89.153C102.008 92.1682 100.366 94.9968 97.6112 94.9968H79.7553V73.6521ZM85.0387 90.1249H94.8532C95.811 90.1249 96.699 89.5117 96.699 88.2823C96.699 87.067 95.8003 86.4397 94.8532 86.4397H85.0387V90.1249ZM85.0387 82.026H94.8532C95.7385 82.026 96.2987 81.2975 96.2987 80.2829C96.2987 79.2684 95.7519 78.513 94.8532 78.513H85.0387V82.026Z" fill="#AFB6B3"/>
<path d="M128.97 73.6521H146.266C149.717 73.6521 151.381 76.9675 151.381 80.6685C151.381 83.0674 150.641 85.3114 148.77 86.4571C150.593 87.4985 151.43 89.1419 151.43 91.5439V95H146.266V91.5455C146.266 89.5165 145.308 88.788 143.642 88.788H134.293V95H128.972L128.97 73.6521ZM134.291 83.9255H143.972C145.221 83.9255 146.06 82.6107 146.06 81.2248C146.06 79.4533 144.943 78.5099 143.497 78.5099H134.291V83.9255Z" fill="#AFB6B3"/>
<path d="M102.044 29C107.765 29 113.899 30.3717 118.781 34.0158C121.951 36.402 124.902 40.0176 124.902 44.73C124.902 50.2325 120.907 54.2338 117.08 56.5757C112.526 59.3491 107.145 60.4474 102.043 60.4474C96.3226 60.4474 90.2009 59.0915 85.3179 55.4332C82.1476 53.047 79.1841 49.4313 79.1841 44.73C79.1841 39.2022 83.1685 35.2152 87.0065 32.8717C91.5739 30.0999 96.9432 29 102.044 29ZM101.996 30.6719C96.6759 30.6719 90.9425 31.8429 86.3267 35.1141C83.4237 37.1574 80.557 40.3732 80.557 44.6447C80.557 49.662 84.4433 53.1734 87.9172 55.1898C92.2173 57.6598 97.2455 58.6206 101.996 58.6206C107.326 58.6206 113.061 57.4464 117.677 54.1753C120.567 52.1178 123.446 48.9177 123.446 44.6463C123.446 39.6178 119.571 36.1017 116.086 34.1027C111.785 31.628 106.756 30.6719 101.996 30.6719ZM81.9178 41.1728L90.6752 39.4156L93.3108 32.6852L95.9357 39.4156L104.692 41.1728L95.9357 42.9459L93.3108 49.6905L90.6752 42.9459L81.9178 41.1728ZM101.169 46.3008L105.032 45.5028L106.185 42.4592L107.339 45.5028L111.203 46.3008L107.339 47.0862L106.185 50.1314L105.032 47.0862L101.169 46.3008ZM109.162 38.1861L113.024 37.4007L114.178 34.3445L115.332 37.4007L119.194 38.1861L115.332 38.9857L114.178 42.0309L113.023 38.9857L109.162 38.1861ZM105.032 52.5903L108.882 51.8049L110.036 48.7471L111.202 51.8049L115.064 52.5903L111.202 53.3899L110.036 56.4351L108.882 53.3899L105.032 52.5903ZM93.1657 53.6901L97.0279 52.9048L98.1939 49.8438L99.3465 52.9048L103.21 53.6901L99.3465 54.4898L98.1939 57.5349L97.0279 54.4898L93.1657 53.6901ZM112.588 46.176L116.438 45.3748L117.592 42.3312L118.758 45.3748L122.62 46.176L118.758 46.9614L117.591 50.0018L116.437 46.9598L112.588 46.176Z" fill="#AFB6B3"/>
</svg>
