<svg width="206" height="125" viewBox="0 0 206 125" fill="none" xmlns="http://www.w3.org/2000/svg">
<path d="M124.92 58.9389C124.92 58.9389 120.808 60.336 112.852 66.0828C105.72 71.2436 102.924 74.7108 102.924 74.7108L80.9213 56.8355C80.9213 56.8355 90.1778 48.8336 97.9121 54.9624L108.287 63.3288L109.553 62.3504L80.9258 38.7736C80.9258 38.7736 85.04 37.3749 92.9908 31.6316C100.127 26.469 102.924 23 102.924 23L124.925 40.8753C124.925 40.8753 115.67 48.8772 107.934 42.7484L97.559 34.3803L96.2934 35.357L124.92 58.9389Z" fill="#514F4F"/>
<path d="M107.88 83.3239H91.1342V87.7016H99.223L90.8493 96.8913V100.559H107.849V96.164H99.3907L107.88 86.997V83.3239Z" fill="#AFB6B3"/>
<path d="M81.2745 101C87.9716 101 89.6867 98.9891 89.6867 94.5556V83.3235H84.3812V93.8841C84.3812 95.6578 83.0904 96.7147 81.2745 96.7147C79.3858 96.7147 78.1707 95.6526 78.1707 93.8562V83.3235H72.8652V94.5556C72.8652 98.9891 74.5802 101 81.2745 101Z" fill="#AFB6B3"/>
<path d="M117.602 101C124.299 101 126.014 98.9891 126.014 94.5556V83.3235H120.707V93.8841C120.707 95.6578 119.415 96.7147 117.602 96.7147C115.713 96.7147 114.494 95.6526 114.494 93.8562V83.3235H109.19V94.5556C109.19 98.9891 110.905 101 117.602 101Z" fill="#AFB6B3"/>
<path d="M152.5 83.3239H146.967V100.559H152.5V83.3239Z" fill="#AFB6B3"/>
<path d="M146.125 83.3239H138.846L132.956 89.2713V83.3239H127.422V100.559H132.956V94.446L138.426 100.559H145.859L137.769 91.7165L146.125 83.3239Z" fill="#AFB6B3"/>
<path d="M59.7877 88.0861C59.7877 86.7537 61.4672 86.7101 62.0339 86.7101C62.6022 86.7101 63.8826 86.9769 64.7535 88.6565H71.01C71.01 85.409 68.3914 82.8259 62.0532 82.8259C55.0133 82.8259 53.8145 86.4572 53.8145 88.5431C53.8145 92.3888 56.3486 93.5155 61.8589 94.2062C62.3307 94.2638 65.1971 94.105 65.1971 95.7253C65.1971 96.9252 63.5858 97.0055 62.9924 97.0055C62.4034 97.0055 61.301 96.8921 60.3901 94.9858H53.5C53.5 98.7705 55.6706 100.958 62.982 100.958C69.7163 100.958 71.504 97.7258 71.504 95.2684C71.504 92.8824 70.1109 90.4546 64.3692 89.5913C61.9746 89.2268 59.7877 89.0733 59.7877 88.0861Z" fill="#AFB6B3"/>
</svg>
