<svg width="206" height="125" viewBox="0 0 206 125" fill="none" xmlns="http://www.w3.org/2000/svg">
<path d="M19.5 88H185.5V36H19.5V88Z" fill="#514F4F"/>
<path d="M166.748 71.0565H169.998V75.6977H156.395V71.3385H159.133L154.967 65.6517L150.922 71.3385H153.66V75.6977H142.113V71.0565H145.168L151.793 61.6159L145.251 52.9389H142.74V48.3H155.407V52.6592H152.825L156.832 57.7819L160.482 52.6592H158.022V48.3H169.998V52.9389H166.233L159.848 61.898L166.748 71.0565ZM130.235 48.3H140.43V52.9389H137.753V68.2727C137.753 74.6474 131.204 76.021 127.163 76.021C121.57 76.021 116.402 73.9641 116.402 67.2637V52.9389H113.228V48.3H125.762V52.9389H123.425V66.8625C123.425 69.5637 124.759 71.3798 127.885 71.3798C130.508 71.3798 132.624 70.2103 132.624 67.1009V52.9389H130.235V48.3ZM50.3473 48.3H61.5252V52.9389H58.9339L51.1915 75.7045H44.8718L36.8489 52.9389H33.6743V48.3H47.0019V52.9389H43.908L48.3903 66.8143H48.4684L53.3242 52.9389H50.3473V48.3ZM108.23 66.9748H113.506V75.6977H90.5791V71.0565H94.4246V52.9389H90.5791V48.3H105.376V52.9389H101.447V71.0565H108.23V66.9748ZM63.836 48.3H87.2655V56.9747H82.1486V52.9389H73.7792V59.2357H80.5235V63.8746H73.7792V71.0565H82.1486V66.984H87.2655V75.6977H63.5871V71.0565H66.7616V52.9389H63.836V48.3ZM169.652 61.9897C169.652 60.0222 171.238 58.5363 173.339 58.5363C175.44 58.5363 177.023 60.0222 177.023 61.9897C177.023 63.9686 175.447 65.4614 173.358 65.4614C171.245 65.4614 169.652 63.9686 169.652 61.9897ZM168.803 61.9989C168.803 64.4295 170.742 66.2617 173.319 66.2617C175.918 66.2617 177.877 64.4295 177.877 61.9989C177.877 59.5682 175.925 57.7337 173.336 57.7337C170.752 57.7337 168.803 59.5682 168.803 61.9989ZM173.397 60.3455C173.951 60.3455 174.256 60.5817 174.256 61.0105C174.256 61.5586 173.79 61.6732 173.397 61.6732C173.397 61.6732 172.782 61.6732 172.707 61.6732C172.707 61.6044 172.707 60.4143 172.707 60.3455C172.782 60.3455 173.397 60.3455 173.397 60.3455ZM171.767 59.6416V64.2484H172.748C172.748 64.2484 172.748 62.4506 172.748 62.3795C172.814 62.3795 173.168 62.3795 173.168 62.3795C173.168 62.4116 174.398 64.23 174.398 64.23L175.405 64.2484H175.479C175.479 64.2484 174.176 62.3405 174.124 62.2694C174.805 62.0837 175.198 61.632 175.198 61.0105C175.198 60.1392 174.561 59.6416 173.453 59.6416H171.767Z" fill="white"/>
</svg>
