<svg width="48" height="48" viewBox="0 0 48 48" fill="none" xmlns="http://www.w3.org/2000/svg">
<g clip-path="url(#clip0_1789_38283)">
<path d="M17.25 42C14.1167 42 11.4583 40.9083 9.275 38.725C7.09167 36.5417 6 33.8833 6 30.75C6 29.25 6.28333 27.8167 6.85 26.45C7.41667 25.0833 8.23333 23.8667 9.3 22.8L22.8 9.3C23.8667 8.23333 25.0833 7.41667 26.45 6.85C27.8167 6.28333 29.25 6 30.75 6C33.8833 6 36.5417 7.09167 38.725 9.275C40.9083 11.4583 42 14.1167 42 17.25C42 18.75 41.7167 20.1833 41.15 21.55C40.5833 22.9167 39.7667 24.1333 38.7 25.2L25.2 38.7C24.1333 39.7667 22.9167 40.5833 21.55 41.15C20.1833 41.7167 18.75 42 17.25 42ZM30.55 27.7L35.9 22.4C36.5667 21.7333 37.0833 20.95 37.45 20.05C37.8167 19.15 38 18.2167 38 17.25C38 15.25 37.2917 13.5417 35.875 12.125C34.4583 10.7083 32.75 10 30.75 10C29.7833 10 28.85 10.1833 27.95 10.55C27.05 10.9167 26.2667 11.4333 25.6 12.1L20.3 17.45L30.55 27.7ZM17.25 38C18.2167 38 19.15 37.8167 20.05 37.45C20.95 37.0833 21.7333 36.5667 22.4 35.9L27.7 30.55L17.45 20.3L12.1 25.6C11.4333 26.2667 10.9167 27.05 10.55 27.95C10.1833 28.85 10 29.7833 10 30.75C10 32.75 10.7083 34.4583 12.125 35.875C13.5417 37.2917 15.25 38 17.25 38Z" fill="url(#paint0_radial_1789_38283)"/>
</g>
<defs>
<radialGradient id="paint0_radial_1789_38283" cx="0" cy="0" r="1" gradientUnits="userSpaceOnUse" gradientTransform="translate(24 24) rotate(99.7276) scale(22.8282)">
<stop offset="0.055" stop-color="#7A73FF"/>
<stop offset="0.65" stop-color="#67DDFA"/>
<stop offset="1" stop-color="#4AFCF1"/>
</radialGradient>
<clipPath id="clip0_1789_38283">
<rect width="48" height="48" fill="white"/>
</clipPath>
</defs>
</svg>
