<svg width="88" height="114" viewBox="0 0 88 114" fill="none" xmlns="http://www.w3.org/2000/svg">
<g filter="url(#filter0_dd_364_14580)">
<rect x="9" y="8" width="68" height="94" rx="12" fill="white"/>
<path d="M35.6665 34.5695L48.1798 40.8268L45.5292 42.4175L35.6665 38.0335V34.5695ZM33.6665 31.3335V39.3335L45.6665 44.6668L52.3332 40.6668L33.6665 31.3335ZM50.3332 46.8282V50.0975L43.7958 53.3668L50.3332 46.8282ZM52.3332 42.0002L33.6665 60.6668L52.3332 51.3335V42.0002ZM35.6665 44.6668L36.6465 45.4015L35.6665 48.3428V44.6668ZM33.6665 40.6668V60.6668L38.9998 44.6668L33.6665 40.6668Z" fill="black"/>
<path d="M35.6665 34.5695L48.1798 40.8268L45.5292 42.4175L35.6665 38.0335V34.5695ZM33.6665 31.3335V39.3335L45.6665 44.6668L52.3332 40.6668L33.6665 31.3335ZM50.3332 46.8282V50.0975L43.7958 53.3668L50.3332 46.8282ZM52.3332 42.0002L33.6665 60.6668L52.3332 51.3335V42.0002ZM35.6665 44.6668L36.6465 45.4015L35.6665 48.3428V44.6668ZM33.6665 40.6668V60.6668L38.9998 44.6668L33.6665 40.6668Z" fill="url(#paint0_radial_364_14580)"/>
<path d="M29.5998 77.9512V77.5176C29.5998 76.1816 29.9651 75.1445 30.6955 74.4062C31.4299 73.6641 32.3498 73.293 33.4553 73.293C34.5491 73.293 35.3987 73.5684 36.0041 74.1191C36.6096 74.666 36.9377 75.3438 36.9885 76.1523L36.9944 76.2109H35.8284L35.8225 76.1523C35.7952 75.6367 35.5862 75.1973 35.1955 74.834C34.8088 74.4707 34.2288 74.2891 33.4553 74.2891C32.6741 74.2891 32.0315 74.5664 31.5276 75.1211C31.0276 75.6719 30.7776 76.4707 30.7776 77.5176V77.9512C30.7776 78.9707 31.0276 79.7637 31.5276 80.3301C32.0315 80.8965 32.6741 81.1797 33.4553 81.1797C34.2288 81.1797 34.803 80.9941 35.178 80.623C35.5569 80.248 35.7717 79.8125 35.8225 79.3164L35.8284 79.2578H36.9944L36.9885 79.3164C36.9065 80.1133 36.5725 80.7891 35.9866 81.3438C35.4006 81.8984 34.5569 82.1758 33.4553 82.1758C32.3498 82.1758 31.4299 81.8086 30.6955 81.0742C29.9651 80.3359 29.5998 79.2949 29.5998 77.9512ZM38.7461 82V73.4688H41.7754C42.7676 73.4688 43.5352 73.6973 44.0781 74.1543C44.6211 74.6113 44.8926 75.2246 44.8926 75.9941C44.8926 76.7637 44.6211 77.3828 44.0781 77.8516C43.5352 78.3203 42.7676 78.5547 41.7754 78.5547H39.9121V82H38.7461ZM39.9121 77.6055H41.7754C42.5059 77.6055 43.0137 77.4512 43.2988 77.1426C43.584 76.8301 43.7266 76.4473 43.7266 75.9941C43.7266 75.541 43.584 75.166 43.2988 74.8691C43.0137 74.5684 42.5059 74.418 41.7754 74.418H39.9121V77.6055ZM44.0371 82L41.7988 78.0684L42.9941 77.9219L45.3672 82H44.0371ZM46.8728 82V73.4688H48.3962L51.1677 79.8848C51.2185 80.002 51.2673 80.125 51.3142 80.2539C51.365 80.3789 51.4099 80.4961 51.449 80.6055H51.4959C51.531 80.4961 51.572 80.3789 51.6189 80.2539C51.6658 80.125 51.7146 80.002 51.7654 79.8848L54.5193 73.4688H56.072V82H54.947V75.7305C54.947 75.6133 54.949 75.4824 54.9529 75.3379C54.9607 75.1895 54.9724 75.0566 54.988 74.9395H54.9353C54.9041 75.0566 54.8611 75.1895 54.8064 75.3379C54.7556 75.4824 54.7048 75.6133 54.6541 75.7305L51.9705 82H50.9334L48.2322 75.7305C48.1814 75.6133 48.1306 75.4824 48.0798 75.3379C48.033 75.1895 47.9959 75.0566 47.9685 74.9395H47.9158C47.9275 75.0566 47.9373 75.1895 47.9451 75.3379C47.9568 75.4824 47.9627 75.6133 47.9627 75.7305V82H46.8728Z" fill="#04101C"/>
</g>
<defs>
<filter id="filter0_dd_364_14580" x="0" y="0" width="88" height="114" filterUnits="userSpaceOnUse" color-interpolation-filters="sRGB">
<feFlood flood-opacity="0" result="BackgroundImageFix"/>
<feColorMatrix in="SourceAlpha" type="matrix" values="0 0 0 0 0 0 0 0 0 0 0 0 0 0 0 0 0 0 127 0" result="hardAlpha"/>
<feOffset dx="1" dy="2"/>
<feGaussianBlur stdDeviation="5"/>
<feComposite in2="hardAlpha" operator="out"/>
<feColorMatrix type="matrix" values="0 0 0 0 0.00780001 0 0 0 0 0.045344 0 0 0 0 0.0800001 0 0 0 0.08 0"/>
<feBlend mode="normal" in2="BackgroundImageFix" result="effect1_dropShadow_364_14580"/>
<feColorMatrix in="SourceAlpha" type="matrix" values="0 0 0 0 0 0 0 0 0 0 0 0 0 0 0 0 0 0 127 0" result="hardAlpha"/>
<feOffset dx="1" dy="2"/>
<feGaussianBlur stdDeviation="5"/>
<feComposite in2="hardAlpha" operator="out"/>
<feColorMatrix type="matrix" values="0 0 0 0 0.00780001 0 0 0 0 0.045344 0 0 0 0 0.0800001 0 0 0 0.08 0"/>
<feBlend mode="normal" in2="effect1_dropShadow_364_14580" result="effect2_dropShadow_364_14580"/>
<feBlend mode="normal" in="SourceGraphic" in2="effect2_dropShadow_364_14580" result="shape"/>
</filter>
<radialGradient id="paint0_radial_364_14580" cx="0" cy="0" r="1" gradientUnits="userSpaceOnUse" gradientTransform="translate(42.9998 46.0002) rotate(96.2258) scale(18.4421 11.9387)">
<stop stop-color="#FD9BE8"/>
<stop offset="0.338542" stop-color="#7A73FF"/>
<stop offset="0.734375" stop-color="#75CDFF"/>
<stop offset="1" stop-color="#4AFCF1"/>
</radialGradient>
</defs>
</svg>
