<svg width="135" height="114" viewBox="0 0 135 114" fill="none" xmlns="http://www.w3.org/2000/svg">
<g filter="url(#filter0_dd_364_14382)">
<rect x="9" y="8" width="115" height="94" rx="12" fill="white"/>
<g clip-path="url(#clip0_364_14382)">
<path d="M55.8335 40.6668H61.1668V35.3335H55.8335V40.6668ZM63.8335 56.6668H69.1668V51.3335H63.8335V56.6668ZM55.8335 56.6668H61.1668V51.3335H55.8335V56.6668ZM55.8335 48.6668H61.1668V43.3335H55.8335V48.6668ZM63.8335 48.6668H69.1668V43.3335H63.8335V48.6668ZM71.8335 35.3335V40.6668H77.1668V35.3335H71.8335ZM63.8335 40.6668H69.1668V35.3335H63.8335V40.6668ZM71.8335 48.6668H77.1668V43.3335H71.8335V48.6668ZM71.8335 56.6668H77.1668V51.3335H71.8335V56.6668Z" fill="url(#paint0_radial_364_14382)"/>
</g>
<path d="M28.0782 82V73.4688H34.8751V82H33.7149V74.4297H29.2442V82H28.0782ZM37.0252 84.4375V75.7656H38.0448L38.0975 76.6211H38.1209C38.3084 76.3516 38.5916 76.123 38.9705 75.9355C39.3495 75.7441 39.7928 75.6484 40.3006 75.6484C41.1756 75.6484 41.8748 75.9453 42.3983 76.5391C42.9256 77.1289 43.1893 77.8789 43.1893 78.7891V78.9766C43.1893 79.8828 42.9256 80.6328 42.3983 81.2266C41.8748 81.8203 41.1756 82.1172 40.3006 82.1172C39.7928 82.1172 39.3612 82.0352 39.0057 81.8711C38.6502 81.707 38.3651 81.4902 38.1502 81.2207V84.4375H37.0252ZM38.1502 80.084C38.2909 80.373 38.5233 80.6309 38.8475 80.8574C39.1717 81.0801 39.5662 81.1914 40.0311 81.1914C40.7225 81.1914 41.2284 80.9805 41.5487 80.5586C41.8729 80.1328 42.035 79.6055 42.035 78.9766V78.7891C42.035 78.1562 41.8729 77.6289 41.5487 77.207C41.2284 76.7852 40.7225 76.5742 40.0311 76.5742C39.5662 76.5742 39.1717 76.6875 38.8475 76.9141C38.5272 77.1367 38.2948 77.3926 38.1502 77.6816V80.084ZM44.8355 82V75.7656H45.9488V79.7383C45.9488 79.8555 45.9469 79.9883 45.943 80.1367C45.943 80.2852 45.941 80.4199 45.9371 80.541H45.984C46.0387 80.4355 46.0992 80.3242 46.1656 80.207C46.232 80.0898 46.3082 79.9727 46.3941 79.8555L49.3297 75.7656H50.4605V82H49.3414V78.0332C49.3414 77.9121 49.3434 77.7773 49.3473 77.6289C49.3512 77.4766 49.357 77.3398 49.3648 77.2188H49.3004C49.2496 77.3203 49.191 77.4316 49.1246 77.5527C49.0582 77.6738 48.984 77.793 48.902 77.9102L45.9664 82H44.8355ZM54.099 76.6504L53.9935 79.1348C53.9466 80.1855 53.8021 80.9473 53.5599 81.4199C53.3216 81.8926 52.9095 82.1289 52.3236 82.1289C52.1791 82.1289 52.0521 82.1191 51.9427 82.0996C51.8334 82.084 51.7416 82.0586 51.6673 82.0234V81.0566C51.7337 81.084 51.8021 81.1035 51.8724 81.1152C51.9466 81.127 52.0306 81.1328 52.1244 81.1328C52.4212 81.1328 52.6263 80.9805 52.7396 80.6758C52.8568 80.3672 52.931 79.8027 52.9623 78.9824L53.1029 75.7656H57.9134V82H56.7884V76.6504H54.099ZM59.5597 78.9766V78.7891C59.5597 77.8477 59.8546 77.0801 60.4445 76.4863C61.0382 75.8887 61.8312 75.5898 62.8234 75.5898C63.8116 75.5898 64.6027 75.8887 65.1964 76.4863C65.7902 77.0801 66.087 77.8477 66.087 78.7891V78.9766C66.087 79.918 65.7902 80.6875 65.1964 81.2852C64.6027 81.8789 63.8116 82.1758 62.8234 82.1758C61.8312 82.1758 61.0382 81.8789 60.4445 81.2852C59.8546 80.6875 59.5597 79.918 59.5597 78.9766ZM60.7081 78.7891V78.9766C60.7081 79.6172 60.8859 80.1562 61.2413 80.5938C61.5968 81.0312 62.1241 81.25 62.8234 81.25C63.5226 81.25 64.048 81.0312 64.3995 80.5938C64.755 80.1562 64.9327 79.6172 64.9327 78.9766V78.7891C64.9327 78.1445 64.755 77.6055 64.3995 77.1719C64.048 76.7344 63.5226 76.5156 62.8234 76.5156C62.1241 76.5156 61.5968 76.7344 61.2413 77.1719C60.8859 77.6055 60.7081 78.1445 60.7081 78.7891ZM72.0985 82H70.9852V75.7656H72.0985V82ZM75.0282 82L72.6024 79.1934L73.3173 78.4727L76.3876 82H75.0282ZM71.5477 78.3848H72.6434L74.8407 75.7656H76.1063L73.1356 79.2637H71.5477V78.3848ZM68.0497 82H66.7313L69.7958 78.4844L70.4637 79.2051L68.0497 82ZM71.5477 78.3848V79.2637H69.9188L66.9598 75.7656H68.2548L70.4403 78.3848H71.5477ZM77.0319 78.9766V78.7891C77.0319 77.8477 77.317 77.0801 77.8873 76.4863C78.4616 75.8887 79.2194 75.5898 80.1608 75.5898C81.1061 75.5898 81.8327 75.8691 82.3405 76.4277C82.8483 76.9824 83.1022 77.7344 83.1022 78.6836V79.1465H77.6998V78.25H81.9713V78.2207C81.9713 77.7207 81.8287 77.3105 81.5436 76.9902C81.2584 76.6699 80.8014 76.5098 80.1725 76.5098C79.5123 76.5098 79.0123 76.7285 78.6725 77.166C78.3327 77.6035 78.1627 78.1445 78.1627 78.7891V78.9766C78.1627 79.6211 78.3405 80.1621 78.6959 80.5996C79.0553 81.0371 79.608 81.2559 80.3541 81.2559C80.8073 81.2559 81.1979 81.1699 81.526 80.998C81.8541 80.8223 82.1178 80.6152 82.317 80.377L83.0436 80.9746C82.8248 81.2676 82.485 81.541 82.0241 81.7949C81.567 82.0488 81.0104 82.1758 80.3541 82.1758C79.2799 82.1758 78.4577 81.8789 77.8873 81.2852C77.317 80.6875 77.0319 79.918 77.0319 78.9766ZM84.6371 75.7656H85.7621V78.3789H89.0668V75.7656H90.1918V82H89.0668V79.2695H85.7621V82H84.6371V75.7656ZM92.2013 82V75.7656H93.3146V79.7383C93.3146 79.8555 93.3127 79.9883 93.3087 80.1367C93.3087 80.2852 93.3068 80.4199 93.3029 80.541H93.3498C93.4044 80.4355 93.465 80.3242 93.5314 80.207C93.5978 80.0898 93.674 79.9727 93.7599 79.8555L96.6955 75.7656H97.8263V82H96.7072V78.0332C96.7072 77.9121 96.7091 77.7773 96.713 77.6289C96.7169 77.4766 96.7228 77.3398 96.7306 77.2188H96.6662C96.6154 77.3203 96.5568 77.4316 96.4904 77.5527C96.424 77.6738 96.3498 77.793 96.2677 77.9102L93.3322 82H92.2013ZM100.68 82H99.4316L101.435 79.3398L102.566 79.4395L100.68 82ZM103.92 82V79.75H102.162L102.033 79.6797C101.268 79.6797 100.68 79.5078 100.269 79.1641C99.8593 78.8164 99.6542 78.3496 99.6542 77.7637C99.6542 77.1582 99.8613 76.6738 100.275 76.3105C100.689 75.9473 101.283 75.7656 102.057 75.7656H105.051V82H103.92ZM102.062 78.8594H103.92V76.6504H102.062C101.594 76.6504 101.264 76.7559 101.072 76.9668C100.885 77.1777 100.791 77.4434 100.791 77.7637C100.791 78.0879 100.885 78.3516 101.072 78.5547C101.26 78.7578 101.59 78.8594 102.062 78.8594Z" fill="#04101C"/>
</g>
<defs>
<filter id="filter0_dd_364_14382" x="0" y="0" width="135" height="114" filterUnits="userSpaceOnUse" color-interpolation-filters="sRGB">
<feFlood flood-opacity="0" result="BackgroundImageFix"/>
<feColorMatrix in="SourceAlpha" type="matrix" values="0 0 0 0 0 0 0 0 0 0 0 0 0 0 0 0 0 0 127 0" result="hardAlpha"/>
<feOffset dx="1" dy="2"/>
<feGaussianBlur stdDeviation="5"/>
<feComposite in2="hardAlpha" operator="out"/>
<feColorMatrix type="matrix" values="0 0 0 0 0.00780001 0 0 0 0 0.045344 0 0 0 0 0.0800001 0 0 0 0.08 0"/>
<feBlend mode="normal" in2="BackgroundImageFix" result="effect1_dropShadow_364_14382"/>
<feColorMatrix in="SourceAlpha" type="matrix" values="0 0 0 0 0 0 0 0 0 0 0 0 0 0 0 0 0 0 127 0" result="hardAlpha"/>
<feOffset dx="1" dy="2"/>
<feGaussianBlur stdDeviation="5"/>
<feComposite in2="hardAlpha" operator="out"/>
<feColorMatrix type="matrix" values="0 0 0 0 0.00780001 0 0 0 0 0.045344 0 0 0 0 0.0800001 0 0 0 0.08 0"/>
<feBlend mode="normal" in2="effect1_dropShadow_364_14382" result="effect2_dropShadow_364_14382"/>
<feBlend mode="normal" in="SourceGraphic" in2="effect2_dropShadow_364_14382" result="shape"/>
</filter>
<radialGradient id="paint0_radial_364_14382" cx="0" cy="0" r="1" gradientUnits="userSpaceOnUse" gradientTransform="translate(66.5002 46.0002) rotate(99.7276) scale(13.5278)">
<stop stop-color="#FD9BE8"/>
<stop offset="0.338542" stop-color="#7A73FF"/>
<stop offset="0.734375" stop-color="#75CDFF"/>
<stop offset="1" stop-color="#4AFCF1"/>
</radialGradient>
<clipPath id="clip0_364_14382">
<rect width="32" height="32" fill="white" transform="translate(50.5 30)"/>
</clipPath>
</defs>
</svg>
