<svg width="526" height="192" viewBox="0 0 526 192" fill="none" xmlns="http://www.w3.org/2000/svg">
<path opacity="0.4" d="M15.1895 174.357V169.668C15.1895 167.207 15.8503 165.27 17.1719 163.857C18.4935 162.436 20.3574 161.725 22.7637 161.725C25.1608 161.725 27.0247 162.431 28.3555 163.844C29.6862 165.247 30.3516 167.189 30.3516 169.668V174.357C30.3516 176.873 29.6816 178.842 28.3418 180.264C27.0111 181.676 25.1517 182.378 22.7637 182.369C20.3483 182.369 18.4798 181.658 17.1582 180.236C15.8457 178.814 15.1895 176.855 15.1895 174.357ZM18.2656 174.604C18.2656 176.29 18.6302 177.616 19.3594 178.582C20.0977 179.539 21.2324 180.018 22.7637 180.018C24.2949 180.018 25.4297 179.539 26.168 178.582C26.9154 177.616 27.2891 176.29 27.2891 174.604V169.449C27.2891 167.799 26.9154 166.496 26.168 165.539C25.4297 164.582 24.2949 164.104 22.7637 164.104C21.2324 164.104 20.0977 164.582 19.3594 165.539C18.6302 166.496 18.2656 167.799 18.2656 169.449V174.604Z" fill="#04101C"/>
<path opacity="0.4" d="M234.271 176.832V176.572H237.238V176.832C237.238 177.853 237.648 178.641 238.469 179.197C239.289 179.753 240.387 180.031 241.764 180.031C243.149 180.031 244.252 179.653 245.072 178.896C245.902 178.131 246.316 177.023 246.316 175.574C246.316 174.125 245.897 173.054 245.059 172.361C244.229 171.66 243.154 171.309 241.832 171.309C240.866 171.309 240.036 171.477 239.344 171.814C238.651 172.152 238.045 172.589 237.525 173.127L235.037 172.129L236.117 162.094H248.189V164.609L238.523 164.596L237.895 170.297C238.359 169.969 238.984 169.663 239.768 169.381C240.551 169.098 241.44 168.957 242.434 168.957C244.384 168.957 246.025 169.522 247.355 170.652C248.686 171.783 249.352 173.4 249.352 175.506C249.352 177.639 248.659 179.316 247.273 180.537C245.888 181.758 244.051 182.369 241.764 182.369C239.458 182.369 237.63 181.854 236.281 180.824C234.941 179.794 234.271 178.464 234.271 176.832ZM253.397 174.357V169.668C253.397 167.207 254.058 165.27 255.379 163.857C256.701 162.436 258.565 161.725 260.971 161.725C263.368 161.725 265.232 162.431 266.563 163.844C267.894 165.247 268.559 167.189 268.559 169.668V174.357C268.559 176.873 267.889 178.842 266.549 180.264C265.218 181.676 263.359 182.378 260.971 182.369C258.556 182.369 256.687 181.658 255.366 180.236C254.053 178.814 253.397 176.855 253.397 174.357ZM256.473 174.604C256.473 176.29 256.838 177.616 257.567 178.582C258.305 179.539 259.44 180.018 260.971 180.018C262.502 180.018 263.637 179.539 264.375 178.582C265.123 177.616 265.496 176.29 265.496 174.604V169.449C265.496 167.799 265.123 166.496 264.375 165.539C263.637 164.582 262.502 164.104 260.971 164.104C259.44 164.104 258.305 164.582 257.567 165.539C256.838 166.496 256.473 167.799 256.473 169.449V174.604ZM272.29 168.164V166.523C272.29 165.092 272.755 163.949 273.684 163.092C274.614 162.226 275.858 161.793 277.417 161.793C278.984 161.793 280.228 162.226 281.149 163.092C282.079 163.958 282.544 165.102 282.544 166.523V168.164C282.544 169.613 282.074 170.775 281.135 171.65C280.206 172.516 278.966 172.949 277.417 172.949C275.867 172.949 274.623 172.516 273.684 171.65C272.755 170.785 272.29 169.622 272.29 168.164ZM274.778 168.205C274.778 169.016 275.01 169.673 275.475 170.174C275.94 170.675 276.587 170.926 277.417 170.926C278.255 170.926 278.902 170.68 279.358 170.188C279.823 169.686 280.055 169.025 280.055 168.205V166.51C280.055 165.717 279.827 165.074 279.372 164.582C278.916 164.081 278.264 163.83 277.417 163.83C276.578 163.83 275.926 164.081 275.462 164.582C275.006 165.074 274.778 165.717 274.778 166.51V168.205ZM292.647 162.627L279.495 182.602L277.553 181.344L290.692 161.383L292.647 162.627ZM287.52 177.543V175.902C287.52 174.471 287.985 173.327 288.915 172.471C289.844 171.605 291.089 171.172 292.647 171.172C294.215 171.172 295.459 171.605 296.38 172.471C297.309 173.337 297.774 174.48 297.774 175.902V177.543C297.774 178.992 297.305 180.154 296.366 181.029C295.436 181.895 294.197 182.328 292.647 182.328C291.098 182.328 289.853 181.895 288.915 181.029C287.985 180.163 287.52 179.001 287.52 177.543ZM290.008 177.584C290.008 178.395 290.241 179.051 290.706 179.553C291.171 180.054 291.818 180.305 292.647 180.305C293.486 180.305 294.133 180.059 294.589 179.566C295.053 179.065 295.286 178.404 295.286 177.584V175.889C295.286 175.096 295.058 174.453 294.602 173.961C294.146 173.46 293.495 173.209 292.647 173.209C291.809 173.209 291.157 173.46 290.692 173.961C290.236 174.453 290.008 175.096 290.008 175.889V177.584Z" fill="#04101C"/>
<path d="M445.23 176.695C445.23 175.438 445.627 174.389 446.42 173.551C447.222 172.703 448.188 172.115 449.318 171.787V171.732C448.37 171.386 447.568 170.812 446.912 170.01C446.265 169.208 445.941 168.223 445.941 167.057C445.941 165.443 446.566 164.154 447.814 163.188C449.072 162.212 450.722 161.725 452.764 161.725C454.805 161.725 456.451 162.217 457.699 163.201C458.957 164.186 459.586 165.471 459.586 167.057C459.586 168.242 459.267 169.23 458.629 170.023C458 170.816 457.216 171.382 456.277 171.719V171.773C457.408 172.102 458.36 172.689 459.135 173.537C459.91 174.376 460.297 175.424 460.297 176.682C460.297 178.495 459.595 179.899 458.191 180.893C456.797 181.877 454.988 182.369 452.764 182.369C450.54 182.369 448.726 181.877 447.322 180.893C445.928 179.899 445.23 178.5 445.23 176.695ZM448.266 176.49C448.266 177.584 448.662 178.454 449.455 179.102C450.257 179.74 451.36 180.059 452.764 180.059C454.167 180.059 455.266 179.74 456.059 179.102C456.861 178.464 457.262 177.593 457.262 176.49C457.262 175.396 456.856 174.531 456.045 173.893C455.243 173.245 454.149 172.922 452.764 172.922C451.378 172.922 450.28 173.241 449.469 173.879C448.667 174.517 448.266 175.387 448.266 176.49ZM448.881 167.303C448.881 168.324 449.232 169.148 449.934 169.777C450.635 170.397 451.579 170.707 452.764 170.707C453.958 170.707 454.901 170.397 455.594 169.777C456.286 169.148 456.633 168.324 456.633 167.303C456.633 166.337 456.286 165.553 455.594 164.951C454.901 164.34 453.958 164.035 452.764 164.035C451.57 164.035 450.622 164.336 449.92 164.938C449.227 165.53 448.881 166.318 448.881 167.303ZM464.479 176.832V176.572H467.446V176.832C467.446 177.853 467.856 178.641 468.676 179.197C469.496 179.753 470.595 180.031 471.971 180.031C473.356 180.031 474.459 179.653 475.28 178.896C476.109 178.131 476.524 177.023 476.524 175.574C476.524 174.125 476.104 173.054 475.266 172.361C474.437 171.66 473.361 171.309 472.039 171.309C471.073 171.309 470.244 171.477 469.551 171.814C468.858 172.152 468.252 172.589 467.733 173.127L465.244 172.129L466.325 162.094H478.397V164.609L468.731 164.596L468.102 170.297C468.567 169.969 469.191 169.663 469.975 169.381C470.759 169.098 471.647 168.957 472.641 168.957C474.591 168.957 476.232 169.522 477.563 170.652C478.894 171.783 479.559 173.4 479.559 175.506C479.559 177.639 478.866 179.316 477.481 180.537C476.095 181.758 474.259 182.369 471.971 182.369C469.665 182.369 467.838 181.854 466.489 180.824C465.149 179.794 464.479 178.464 464.479 176.832ZM483.29 168.164V166.523C483.29 165.092 483.755 163.949 484.684 163.092C485.614 162.226 486.858 161.793 488.417 161.793C489.984 161.793 491.228 162.226 492.149 163.092C493.079 163.958 493.544 165.102 493.544 166.523V168.164C493.544 169.613 493.074 170.775 492.135 171.65C491.206 172.516 489.966 172.949 488.417 172.949C486.867 172.949 485.623 172.516 484.684 171.65C483.755 170.785 483.29 169.622 483.29 168.164ZM485.778 168.205C485.778 169.016 486.01 169.673 486.475 170.174C486.94 170.675 487.587 170.926 488.417 170.926C489.255 170.926 489.902 170.68 490.358 170.188C490.823 169.686 491.055 169.025 491.055 168.205V166.51C491.055 165.717 490.827 165.074 490.372 164.582C489.916 164.081 489.264 163.83 488.417 163.83C487.578 163.83 486.926 164.081 486.462 164.582C486.006 165.074 485.778 165.717 485.778 166.51V168.205ZM503.647 162.627L490.495 182.602L488.553 181.344L501.692 161.383L503.647 162.627ZM498.52 177.543V175.902C498.52 174.471 498.985 173.327 499.915 172.471C500.844 171.605 502.089 171.172 503.647 171.172C505.215 171.172 506.459 171.605 507.38 172.471C508.309 173.337 508.774 174.48 508.774 175.902V177.543C508.774 178.992 508.305 180.154 507.366 181.029C506.436 181.895 505.197 182.328 503.647 182.328C502.098 182.328 500.853 181.895 499.915 181.029C498.985 180.163 498.52 179.001 498.52 177.543ZM501.008 177.584C501.008 178.395 501.241 179.051 501.706 179.553C502.171 180.054 502.818 180.305 503.647 180.305C504.486 180.305 505.133 180.059 505.589 179.566C506.053 179.065 506.286 178.404 506.286 177.584V175.889C506.286 175.096 506.058 174.453 505.602 173.961C505.146 173.46 504.495 173.209 503.647 173.209C502.809 173.209 502.157 173.46 501.692 173.961C501.236 174.453 501.008 175.096 501.008 175.889V177.584Z" fill="#04101C"/>
<rect y="20" width="526" height="82" rx="8" fill="url(#paint0_linear_1_1857)"/>
<line x1="120.5" y1="138" x2="120.5" y2="-1.81692e-08" stroke="#AFB6B3"/>
<line x1="478.5" y1="138" x2="478.5" y2="-1.81692e-08" stroke="#AFB6B3"/>
<defs>
<linearGradient id="paint0_linear_1_1857" x1="0" y1="61" x2="526" y2="61" gradientUnits="userSpaceOnUse">
<stop offset="0.0239582" stop-color="#7A73FF"/>
<stop offset="0.232192" stop-color="#FD9BE8"/>
<stop offset="0.232292" stop-color="#83FFBC"/>
</linearGradient>
</defs>
</svg>
