<svg width="526" height="174" viewBox="0 0 526 174" fill="none" xmlns="http://www.w3.org/2000/svg">
<path opacity="0.4" d="M15.1895 156.357V151.668C15.1895 149.207 15.8503 147.27 17.1719 145.857C18.4935 144.436 20.3574 143.725 22.7637 143.725C25.1608 143.725 27.0247 144.431 28.3555 145.844C29.6862 147.247 30.3516 149.189 30.3516 151.668V156.357C30.3516 158.873 29.6816 160.842 28.3418 162.264C27.0111 163.676 25.1517 164.378 22.7637 164.369C20.3483 164.369 18.4798 163.658 17.1582 162.236C15.8457 160.814 15.1895 158.855 15.1895 156.357ZM18.2656 156.604C18.2656 158.29 18.6302 159.616 19.3594 160.582C20.0977 161.539 21.2324 162.018 22.7637 162.018C24.2949 162.018 25.4297 161.539 26.168 160.582C26.9154 159.616 27.2891 158.29 27.2891 156.604V151.449C27.2891 149.799 26.9154 148.496 26.168 147.539C25.4297 146.582 24.2949 146.104 22.7637 146.104C21.2324 146.104 20.0977 146.582 19.3594 147.539C18.6302 148.496 18.2656 149.799 18.2656 151.449V156.604Z" fill="#04101C"/>
<path opacity="0.4" d="M162.271 158.832V158.572H165.238V158.832C165.238 159.853 165.648 160.641 166.469 161.197C167.289 161.753 168.387 162.031 169.764 162.031C171.149 162.031 172.252 161.653 173.072 160.896C173.902 160.131 174.316 159.023 174.316 157.574C174.316 156.125 173.897 155.054 173.059 154.361C172.229 153.66 171.154 153.309 169.832 153.309C168.866 153.309 168.036 153.477 167.344 153.814C166.651 154.152 166.045 154.589 165.525 155.127L163.037 154.129L164.117 144.094H176.189V146.609L166.523 146.596L165.895 152.297C166.359 151.969 166.984 151.663 167.768 151.381C168.551 151.098 169.44 150.957 170.434 150.957C172.384 150.957 174.025 151.522 175.355 152.652C176.686 153.783 177.352 155.4 177.352 157.506C177.352 159.639 176.659 161.316 175.273 162.537C173.888 163.758 172.051 164.369 169.764 164.369C167.458 164.369 165.63 163.854 164.281 162.824C162.941 161.794 162.271 160.464 162.271 158.832Z" fill="#04101C"/>
<path opacity="0.4" d="M316.258 164V147.033L310.311 149.248V146.527L317.967 143.875H319.307V164H316.258ZM328.397 156.357V151.668C328.397 149.207 329.058 147.27 330.379 145.857C331.701 144.436 333.565 143.725 335.971 143.725C338.368 143.725 340.232 144.431 341.563 145.844C342.894 147.247 343.559 149.189 343.559 151.668V156.357C343.559 158.873 342.889 160.842 341.549 162.264C340.218 163.676 338.359 164.378 335.971 164.369C333.556 164.369 331.687 163.658 330.366 162.236C329.053 160.814 328.397 158.855 328.397 156.357ZM331.473 156.604C331.473 158.29 331.838 159.616 332.567 160.582C333.305 161.539 334.44 162.018 335.971 162.018C337.502 162.018 338.637 161.539 339.375 160.582C340.123 159.616 340.496 158.29 340.496 156.604V151.449C340.496 149.799 340.123 148.496 339.375 147.539C338.637 146.582 337.502 146.104 335.971 146.104C334.44 146.104 333.305 146.582 332.567 147.539C331.838 148.496 331.473 149.799 331.473 151.449V156.604Z" fill="#04101C"/>
<path d="M482.258 164V147.033L476.311 149.248V146.527L483.967 143.875H485.307V164H482.258ZM497.651 164L506.114 146.568H494.383V144.094H509.299V146.021L500.809 164H497.651Z" fill="#04101C"/>
<rect y="20" width="526" height="82" rx="8" fill="url(#paint0_linear_1_1743)"/>
<line x1="169.5" y1="122" x2="169.5" y2="-2.18557e-08" stroke="#AFB6B3"/>
<line x1="493.5" y1="122" x2="493.5" y2="-2.18557e-08" stroke="#AFB6B3"/>
<defs>
<linearGradient id="paint0_linear_1_1743" x1="0" y1="61" x2="526" y2="61" gradientUnits="userSpaceOnUse">
<stop offset="0.0119905" stop-color="#7A73FF"/>
<stop offset="0.320822" stop-color="#FD9BE8"/>
<stop offset="0.322334" stop-color="#83FFBC"/>
</linearGradient>
</defs>
</svg>
