<svg width="526" height="174" viewBox="0 0 526 174" fill="none" xmlns="http://www.w3.org/2000/svg">
<path opacity="0.4" d="M15.1895 156.357V151.668C15.1895 149.207 15.8503 147.27 17.1719 145.857C18.4935 144.436 20.3574 143.725 22.7637 143.725C25.1608 143.725 27.0247 144.431 28.3555 145.844C29.6862 147.247 30.3516 149.189 30.3516 151.668V156.357C30.3516 158.873 29.6816 160.842 28.3418 162.264C27.0111 163.676 25.1517 164.378 22.7637 164.369C20.3483 164.369 18.4798 163.658 17.1582 162.236C15.8457 160.814 15.1895 158.855 15.1895 156.357ZM18.2656 156.604C18.2656 158.29 18.6302 159.616 19.3594 160.582C20.0977 161.539 21.2324 162.018 22.7637 162.018C24.2949 162.018 25.4297 161.539 26.168 160.582C26.9154 159.616 27.2891 158.29 27.2891 156.604V151.449C27.2891 149.799 26.9154 148.496 26.168 147.539C25.4297 146.582 24.2949 146.104 22.7637 146.104C21.2324 146.104 20.0977 146.582 19.3594 147.539C18.6302 148.496 18.2656 149.799 18.2656 151.449V156.604Z" fill="#04101C"/>
<path opacity="0.4" d="M234.271 158.832V158.572H237.238V158.832C237.238 159.853 237.648 160.641 238.469 161.197C239.289 161.753 240.387 162.031 241.764 162.031C243.149 162.031 244.252 161.653 245.072 160.896C245.902 160.131 246.316 159.023 246.316 157.574C246.316 156.125 245.897 155.054 245.059 154.361C244.229 153.66 243.154 153.309 241.832 153.309C240.866 153.309 240.036 153.477 239.344 153.814C238.651 154.152 238.045 154.589 237.525 155.127L235.037 154.129L236.117 144.094H248.189V146.609L238.523 146.596L237.895 152.297C238.359 151.969 238.984 151.663 239.768 151.381C240.551 151.098 241.44 150.957 242.434 150.957C244.384 150.957 246.025 151.522 247.355 152.652C248.686 153.783 249.352 155.4 249.352 157.506C249.352 159.639 248.659 161.316 247.273 162.537C245.888 163.758 244.051 164.369 241.764 164.369C239.458 164.369 237.63 163.854 236.281 162.824C234.941 161.794 234.271 160.464 234.271 158.832ZM253.397 156.357V151.668C253.397 149.207 254.058 147.27 255.379 145.857C256.701 144.436 258.565 143.725 260.971 143.725C263.368 143.725 265.232 144.431 266.563 145.844C267.894 147.247 268.559 149.189 268.559 151.668V156.357C268.559 158.873 267.889 160.842 266.549 162.264C265.218 163.676 263.359 164.378 260.971 164.369C258.556 164.369 256.687 163.658 255.366 162.236C254.053 160.814 253.397 158.855 253.397 156.357ZM256.473 156.604C256.473 158.29 256.838 159.616 257.567 160.582C258.305 161.539 259.44 162.018 260.971 162.018C262.502 162.018 263.637 161.539 264.375 160.582C265.123 159.616 265.496 158.29 265.496 156.604V151.449C265.496 149.799 265.123 148.496 264.375 147.539C263.637 146.582 262.502 146.104 260.971 146.104C259.44 146.104 258.305 146.582 257.567 147.539C256.838 148.496 256.473 149.799 256.473 151.449V156.604ZM272.29 150.164V148.523C272.29 147.092 272.755 145.949 273.684 145.092C274.614 144.226 275.858 143.793 277.417 143.793C278.984 143.793 280.228 144.226 281.149 145.092C282.079 145.958 282.544 147.102 282.544 148.523V150.164C282.544 151.613 282.074 152.775 281.135 153.65C280.206 154.516 278.966 154.949 277.417 154.949C275.867 154.949 274.623 154.516 273.684 153.65C272.755 152.785 272.29 151.622 272.29 150.164ZM274.778 150.205C274.778 151.016 275.01 151.673 275.475 152.174C275.94 152.675 276.587 152.926 277.417 152.926C278.255 152.926 278.902 152.68 279.358 152.188C279.823 151.686 280.055 151.025 280.055 150.205V148.51C280.055 147.717 279.827 147.074 279.372 146.582C278.916 146.081 278.264 145.83 277.417 145.83C276.578 145.83 275.926 146.081 275.462 146.582C275.006 147.074 274.778 147.717 274.778 148.51V150.205ZM292.647 144.627L279.495 164.602L277.553 163.344L290.692 143.383L292.647 144.627ZM287.52 159.543V157.902C287.52 156.471 287.985 155.327 288.915 154.471C289.844 153.605 291.089 153.172 292.647 153.172C294.215 153.172 295.459 153.605 296.38 154.471C297.309 155.337 297.774 156.48 297.774 157.902V159.543C297.774 160.992 297.305 162.154 296.366 163.029C295.436 163.895 294.197 164.328 292.647 164.328C291.098 164.328 289.853 163.895 288.915 163.029C287.985 162.163 287.52 161.001 287.52 159.543ZM290.008 159.584C290.008 160.395 290.241 161.051 290.706 161.553C291.171 162.054 291.818 162.305 292.647 162.305C293.486 162.305 294.133 162.059 294.589 161.566C295.053 161.065 295.286 160.404 295.286 159.584V157.889C295.286 157.096 295.058 156.453 294.602 155.961C294.146 155.46 293.495 155.209 292.647 155.209C291.809 155.209 291.157 155.46 290.692 155.961C290.236 156.453 290.008 157.096 290.008 157.889V159.584Z" fill="#04101C"/>
<path d="M445.23 158.695C445.23 157.438 445.627 156.389 446.42 155.551C447.222 154.703 448.188 154.115 449.318 153.787V153.732C448.37 153.386 447.568 152.812 446.912 152.01C446.265 151.208 445.941 150.223 445.941 149.057C445.941 147.443 446.566 146.154 447.814 145.188C449.072 144.212 450.722 143.725 452.764 143.725C454.805 143.725 456.451 144.217 457.699 145.201C458.957 146.186 459.586 147.471 459.586 149.057C459.586 150.242 459.267 151.23 458.629 152.023C458 152.816 457.216 153.382 456.277 153.719V153.773C457.408 154.102 458.36 154.689 459.135 155.537C459.91 156.376 460.297 157.424 460.297 158.682C460.297 160.495 459.595 161.899 458.191 162.893C456.797 163.877 454.988 164.369 452.764 164.369C450.54 164.369 448.726 163.877 447.322 162.893C445.928 161.899 445.23 160.5 445.23 158.695ZM448.266 158.49C448.266 159.584 448.662 160.454 449.455 161.102C450.257 161.74 451.36 162.059 452.764 162.059C454.167 162.059 455.266 161.74 456.059 161.102C456.861 160.464 457.262 159.593 457.262 158.49C457.262 157.396 456.856 156.531 456.045 155.893C455.243 155.245 454.149 154.922 452.764 154.922C451.378 154.922 450.28 155.241 449.469 155.879C448.667 156.517 448.266 157.387 448.266 158.49ZM448.881 149.303C448.881 150.324 449.232 151.148 449.934 151.777C450.635 152.397 451.579 152.707 452.764 152.707C453.958 152.707 454.901 152.397 455.594 151.777C456.286 151.148 456.633 150.324 456.633 149.303C456.633 148.337 456.286 147.553 455.594 146.951C454.901 146.34 453.958 146.035 452.764 146.035C451.57 146.035 450.622 146.336 449.92 146.938C449.227 147.53 448.881 148.318 448.881 149.303ZM464.479 158.832V158.572H467.446V158.832C467.446 159.853 467.856 160.641 468.676 161.197C469.496 161.753 470.595 162.031 471.971 162.031C473.356 162.031 474.459 161.653 475.28 160.896C476.109 160.131 476.524 159.023 476.524 157.574C476.524 156.125 476.104 155.054 475.266 154.361C474.437 153.66 473.361 153.309 472.039 153.309C471.073 153.309 470.244 153.477 469.551 153.814C468.858 154.152 468.252 154.589 467.733 155.127L465.244 154.129L466.325 144.094H478.397V146.609L468.731 146.596L468.102 152.297C468.567 151.969 469.191 151.663 469.975 151.381C470.759 151.098 471.647 150.957 472.641 150.957C474.591 150.957 476.232 151.522 477.563 152.652C478.894 153.783 479.559 155.4 479.559 157.506C479.559 159.639 478.866 161.316 477.481 162.537C476.095 163.758 474.259 164.369 471.971 164.369C469.665 164.369 467.838 163.854 466.489 162.824C465.149 161.794 464.479 160.464 464.479 158.832ZM483.29 150.164V148.523C483.29 147.092 483.755 145.949 484.684 145.092C485.614 144.226 486.858 143.793 488.417 143.793C489.984 143.793 491.228 144.226 492.149 145.092C493.079 145.958 493.544 147.102 493.544 148.523V150.164C493.544 151.613 493.074 152.775 492.135 153.65C491.206 154.516 489.966 154.949 488.417 154.949C486.867 154.949 485.623 154.516 484.684 153.65C483.755 152.785 483.29 151.622 483.29 150.164ZM485.778 150.205C485.778 151.016 486.01 151.673 486.475 152.174C486.94 152.675 487.587 152.926 488.417 152.926C489.255 152.926 489.902 152.68 490.358 152.188C490.823 151.686 491.055 151.025 491.055 150.205V148.51C491.055 147.717 490.827 147.074 490.372 146.582C489.916 146.081 489.264 145.83 488.417 145.83C487.578 145.83 486.926 146.081 486.462 146.582C486.006 147.074 485.778 147.717 485.778 148.51V150.205ZM503.647 144.627L490.495 164.602L488.553 163.344L501.692 143.383L503.647 144.627ZM498.52 159.543V157.902C498.52 156.471 498.985 155.327 499.915 154.471C500.844 153.605 502.089 153.172 503.647 153.172C505.215 153.172 506.459 153.605 507.38 154.471C508.309 155.337 508.774 156.48 508.774 157.902V159.543C508.774 160.992 508.305 162.154 507.366 163.029C506.436 163.895 505.197 164.328 503.647 164.328C502.098 164.328 500.853 163.895 499.915 163.029C498.985 162.163 498.52 161.001 498.52 159.543ZM501.008 159.584C501.008 160.395 501.241 161.051 501.706 161.553C502.171 162.054 502.818 162.305 503.647 162.305C504.486 162.305 505.133 162.059 505.589 161.566C506.053 161.065 506.286 160.404 506.286 159.584V157.889C506.286 157.096 506.058 156.453 505.602 155.961C505.146 155.46 504.495 155.209 503.647 155.209C502.809 155.209 502.157 155.46 501.692 155.961C501.236 156.453 501.008 157.096 501.008 157.889V159.584Z" fill="#04101C"/>
<rect y="20" width="526" height="82" rx="8" fill="url(#paint0_linear_1_1764)"/>
<line x1="122.5" y1="122" x2="122.5" y2="-1.60626e-08" stroke="#AFB6B3"/>
<line x1="478.5" y1="122" x2="478.5" y2="-1.60626e-08" stroke="#AFB6B3"/>
<defs>
<linearGradient id="paint0_linear_1_1764" x1="0" y1="61" x2="526" y2="61" gradientUnits="userSpaceOnUse">
<stop offset="0.0239582" stop-color="#7A73FF"/>
<stop offset="0.232192" stop-color="#FD9BE8"/>
<stop offset="0.232292" stop-color="#83FFBC"/>
</linearGradient>
</defs>
</svg>
