<svg width="526" height="173" viewBox="0 0 526 173" fill="none" xmlns="http://www.w3.org/2000/svg">
<path opacity="0.4" d="M1.35352 153.43V152.664C1.35352 149.374 2.26497 146.89 4.08789 145.213C5.91992 143.536 8.26693 142.697 11.1289 142.697C13.8359 142.697 15.9551 143.299 17.4863 144.502C19.0176 145.705 19.8698 147.364 20.043 149.479L20.0703 149.766H17.0215L17.0078 149.465C16.8802 148.116 16.3333 147.059 15.3672 146.293C14.4102 145.518 12.9974 145.131 11.1289 145.131C9.1237 145.131 7.51042 145.746 6.28906 146.977C5.07682 148.207 4.4707 150.048 4.4707 152.5V153.594C4.4707 156.064 5.08138 157.914 6.30273 159.145C7.5332 160.366 9.14648 160.977 11.1426 160.977C13.0749 160.977 14.5013 160.576 15.4219 159.773C16.3424 158.971 16.8711 157.919 17.0078 156.615L17.0215 156.342H20.0703L20.0566 156.656C19.8835 158.671 19.054 160.298 17.5684 161.537C16.0827 162.768 13.9362 163.383 11.1289 163.383C8.25781 163.383 5.91081 162.553 4.08789 160.895C2.26497 159.227 1.35352 156.738 1.35352 153.43ZM22.9398 156.273V155.891C22.9398 153.776 23.6644 152.067 25.1136 150.764C26.5719 149.451 28.5088 148.795 30.9241 148.795C33.3395 148.795 35.2718 149.451 36.721 150.764C38.1793 152.067 38.9085 153.776 38.9085 155.891V156.273C38.9085 158.406 38.1793 160.129 36.721 161.441C35.2718 162.745 33.3395 163.396 30.9241 163.396C28.5088 163.396 26.5719 162.745 25.1136 161.441C23.6644 160.129 22.9398 158.406 22.9398 156.273ZM25.9339 155.836V156.342C25.9339 157.755 26.3577 158.898 27.2054 159.773C28.053 160.648 29.2926 161.086 30.9241 161.086C32.5557 161.086 33.7907 160.648 34.6292 159.773C35.4769 158.898 35.9007 157.755 35.9007 156.342V155.836C35.9007 154.432 35.4769 153.293 34.6292 152.418C33.7907 151.543 32.5557 151.105 30.9241 151.105C29.2926 151.105 28.053 151.543 27.2054 152.418C26.3577 153.293 25.9339 154.432 25.9339 155.836ZM43.6237 163V149.205H47.5612L52.0455 158.051C52.2825 158.552 52.4466 158.917 52.5377 159.145C52.6289 159.363 52.7018 159.582 52.7565 159.801H52.8659C52.9297 159.582 53.0071 159.363 53.0983 159.145C53.1894 158.917 53.3535 158.552 53.5905 158.051L58.0475 149.205H61.944V163H59.0319V154.086C59.0319 153.585 59.041 153.202 59.0592 152.938C59.0774 152.664 59.1002 152.413 59.1276 152.186H59.0319C58.9772 152.386 58.9088 152.605 58.8268 152.842C58.7448 153.07 58.5989 153.402 58.3893 153.84L53.8092 163H51.4713L46.8776 153.826C46.7135 153.498 46.5814 153.197 46.4811 152.924C46.3899 152.641 46.317 152.395 46.2623 152.186H46.1666C46.1758 152.395 46.1894 152.637 46.2077 152.91C46.235 153.174 46.2487 153.553 46.2487 154.045V163H43.6237ZM67.5341 149.205H70.4736V154.838H78.2119V149.205H81.1513V163H78.2119V157.094H70.4736V163H67.5341V149.205ZM85.8391 156.273V155.891C85.8391 153.776 86.5455 152.067 87.9583 150.764C89.3802 149.451 91.2486 148.795 93.5638 148.795C95.8789 148.795 97.6653 149.41 98.9231 150.641C100.19 151.862 100.824 153.535 100.824 155.658V156.725H87.5618V154.701H97.9114V154.619C97.9114 153.598 97.5742 152.751 96.8997 152.076C96.2343 151.402 95.1223 151.064 93.5638 151.064C91.9687 151.064 90.7656 151.502 89.9544 152.377C89.1523 153.243 88.7513 154.378 88.7513 155.781V156.342C88.7513 157.773 89.1751 158.926 90.0227 159.801C90.8704 160.676 92.1555 161.113 93.8782 161.113C95.0266 161.113 95.9928 160.922 96.7766 160.539C97.5605 160.156 98.1757 159.701 98.6223 159.172L100.646 160.553C100.135 161.3 99.3105 161.961 98.1712 162.535C97.0319 163.109 95.61 163.396 93.9055 163.396C91.3444 163.396 89.3574 162.745 87.9446 161.441C86.541 160.129 85.8391 158.406 85.8391 156.273ZM105.211 149.205H108.15V154.838H115.888V149.205H118.828V163H115.888V157.094H108.15V163H105.211V149.205ZM124.418 163V149.205H127.357V157.818C127.357 158.11 127.348 158.402 127.33 158.693C127.321 158.976 127.307 159.263 127.289 159.555L127.385 159.568C127.531 159.295 127.667 159.049 127.795 158.83C127.932 158.602 128.114 158.333 128.342 158.023L135.205 149.205H138.185V163H135.246V154.359C135.246 154.077 135.251 153.794 135.26 153.512C135.269 153.22 135.282 152.924 135.301 152.623H135.205C135.068 152.878 134.932 153.124 134.795 153.361C134.667 153.589 134.49 153.854 134.262 154.154L127.398 163H124.418ZM146.059 163H142.819L147.317 157.176L150.352 157.381L146.059 163ZM153.619 163V158.051H149.231L148.725 157.928C146.957 157.937 145.608 157.549 144.678 156.766C143.757 155.982 143.297 154.924 143.297 153.594C143.297 152.263 143.762 151.201 144.692 150.408C145.621 149.606 146.961 149.205 148.711 149.205H156.586V163H153.619ZM149.053 155.945H153.619V151.283H149.053C148.023 151.283 147.298 151.507 146.879 151.953C146.46 152.391 146.25 152.947 146.25 153.621C146.25 154.305 146.455 154.865 146.865 155.303C147.285 155.731 148.014 155.945 149.053 155.945Z" fill="#04101C"/>
<path d="M319.885 160.498C320.14 160.571 320.409 160.63 320.691 160.676C320.974 160.721 321.261 160.744 321.553 160.744C322.364 160.744 323.043 160.539 323.59 160.129C324.146 159.71 324.734 158.926 325.354 157.777L325.285 157.996L317.109 143.094H320.527L325.982 153.334C326.201 153.762 326.356 154.086 326.447 154.305C326.538 154.514 326.652 154.779 326.789 155.098H326.857C326.994 154.779 327.108 154.51 327.199 154.291C327.29 154.072 327.436 153.753 327.637 153.334L332.682 143.094H335.717L328.307 157.75C327.277 159.801 326.315 161.255 325.422 162.111C324.538 162.959 323.367 163.383 321.908 163.383C321.407 163.383 321.006 163.355 320.705 163.301C320.413 163.255 320.14 163.187 319.885 163.096V160.498ZM339.393 163V149.205H347.692C349.314 149.205 350.54 149.501 351.369 150.094C352.199 150.686 352.614 151.579 352.614 152.773C352.614 153.585 352.39 154.25 351.944 154.77C351.497 155.289 350.882 155.649 350.098 155.85V155.891C351 156.046 351.729 156.396 352.285 156.943C352.841 157.49 353.119 158.215 353.119 159.117C353.119 160.339 352.682 161.291 351.807 161.975C350.932 162.658 349.697 163 348.102 163H339.393ZM342.305 154.975H347.364C348.184 154.975 348.772 154.806 349.127 154.469C349.492 154.122 349.674 153.639 349.674 153.02C349.674 152.445 349.492 152.008 349.127 151.707C348.763 151.406 348.175 151.256 347.364 151.256H342.305V154.975ZM342.305 160.949H347.719C348.558 160.949 349.177 160.776 349.578 160.43C349.979 160.074 350.18 159.582 350.18 158.953C350.18 158.342 349.979 157.859 349.578 157.504C349.187 157.139 348.567 156.957 347.719 156.957H342.305V160.949ZM357.124 156.273V155.891C357.124 153.776 357.83 152.067 359.243 150.764C360.665 149.451 362.533 148.795 364.848 148.795C367.163 148.795 368.95 149.41 370.208 150.641C371.475 151.862 372.108 153.535 372.108 155.658V156.725H358.846V154.701H369.196V154.619C369.196 153.598 368.859 152.751 368.184 152.076C367.519 151.402 366.407 151.064 364.848 151.064C363.253 151.064 362.05 151.502 361.239 152.377C360.437 153.243 360.036 154.378 360.036 155.781V156.342C360.036 157.773 360.46 158.926 361.307 159.801C362.155 160.676 363.44 161.113 365.163 161.113C366.311 161.113 367.277 160.922 368.061 160.539C368.845 160.156 369.46 159.701 369.907 159.172L371.93 160.553C371.42 161.3 370.595 161.961 369.456 162.535C368.316 163.109 366.895 163.396 365.19 163.396C362.629 163.396 360.642 162.745 359.229 161.441C357.825 160.129 357.124 158.406 357.124 156.273ZM376.495 168.715V149.205H379.243L379.325 151.105H379.353C379.79 150.504 380.474 149.984 381.403 149.547C382.342 149.109 383.44 148.891 384.698 148.891C386.822 148.891 388.513 149.533 389.77 150.818C391.028 152.094 391.657 153.781 391.657 155.877V156.273C391.657 158.379 391.024 160.079 389.757 161.373C388.499 162.658 386.822 163.301 384.726 163.301C383.477 163.301 382.406 163.109 381.513 162.727C380.619 162.335 379.927 161.852 379.435 161.277V168.715H376.495ZM379.421 158.611C379.74 159.222 380.291 159.773 381.075 160.266C381.868 160.758 382.83 161.004 383.96 161.004C385.573 161.004 386.758 160.576 387.515 159.719C388.271 158.862 388.649 157.727 388.649 156.314V155.822C388.649 154.437 388.271 153.32 387.515 152.473C386.758 151.625 385.569 151.201 383.946 151.201C382.834 151.201 381.886 151.443 381.103 151.926C380.319 152.4 379.758 152.942 379.421 153.553V158.611ZM395.456 156.273V155.891C395.456 153.776 396.163 152.067 397.575 150.764C398.997 149.451 400.866 148.795 403.181 148.795C405.496 148.795 407.283 149.41 408.54 150.641C409.807 151.862 410.441 153.535 410.441 155.658V156.725H397.179V154.701H407.529V154.619C407.529 153.598 407.191 152.751 406.517 152.076C405.852 151.402 404.74 151.064 403.181 151.064C401.586 151.064 400.383 151.502 399.572 152.377C398.769 153.243 398.368 154.378 398.368 155.781V156.342C398.368 157.773 398.792 158.926 399.64 159.801C400.488 160.676 401.773 161.113 403.495 161.113C404.644 161.113 405.61 160.922 406.394 160.539C407.178 160.156 407.793 159.701 408.24 159.172L410.263 160.553C409.753 161.3 408.928 161.961 407.788 162.535C406.649 163.109 405.227 163.396 403.523 163.396C400.962 163.396 398.975 162.745 397.562 161.441C396.158 160.129 395.456 158.406 395.456 156.273ZM414.828 149.205H417.767V154.838H425.505V149.205H428.445V163H425.505V157.094H417.767V163H414.828V149.205ZM434.035 149.205H436.975V154.838H444.713V149.205H447.652V163H444.713V157.094H436.975V163H434.035V149.205ZM452.34 156.273V155.891C452.34 153.776 453.065 152.067 454.514 150.764C455.972 149.451 457.909 148.795 460.324 148.795C462.74 148.795 464.672 149.451 466.121 150.764C467.58 152.067 468.309 153.776 468.309 155.891V156.273C468.309 158.406 467.58 160.129 466.121 161.441C464.672 162.745 462.74 163.396 460.324 163.396C457.909 163.396 455.972 162.745 454.514 161.441C453.065 160.129 452.34 158.406 452.34 156.273ZM455.334 155.836V156.342C455.334 157.755 455.758 158.898 456.606 159.773C457.453 160.648 458.693 161.086 460.324 161.086C461.956 161.086 463.191 160.648 464.03 159.773C464.877 158.898 465.301 157.755 465.301 156.342V155.836C465.301 154.432 464.877 153.293 464.03 152.418C463.191 151.543 461.956 151.105 460.324 151.105C458.693 151.105 457.453 151.543 456.606 152.418C455.758 153.293 455.334 154.432 455.334 155.836ZM472.094 156.273V155.891C472.094 153.749 472.796 152.031 474.2 150.736C475.603 149.442 477.517 148.795 479.942 148.795C482.193 148.795 483.916 149.283 485.11 150.258C486.304 151.233 486.919 152.413 486.956 153.799V153.963H484.044L484.03 153.826C484.012 153.006 483.674 152.345 483.018 151.844C482.362 151.342 481.341 151.092 479.956 151.092C478.315 151.092 477.094 151.525 476.292 152.391C475.489 153.247 475.088 154.396 475.088 155.836V156.342C475.088 157.773 475.48 158.926 476.264 159.801C477.057 160.676 478.283 161.113 479.942 161.113C481.355 161.113 482.389 160.858 483.045 160.348C483.711 159.837 484.048 159.167 484.057 158.338V158.201H486.956V158.365C486.937 159.742 486.327 160.926 485.124 161.92C483.93 162.904 482.202 163.396 479.942 163.396C477.508 163.396 475.59 162.749 474.186 161.455C472.792 160.161 472.094 158.434 472.094 156.273ZM489.702 151.475V149.205H503.538V151.475H498.097V163H495.157V151.475H489.702ZM510.523 149.205V153.771H515.321C517.062 153.771 518.398 154.177 519.327 154.988C520.257 155.79 520.722 156.921 520.722 158.379C520.722 159.81 520.257 160.94 519.327 161.77C518.398 162.59 517.062 163 515.321 163H507.583V149.205H510.523ZM515.021 155.918H510.523V160.854H515.021C516.032 160.854 516.743 160.63 517.154 160.184C517.573 159.728 517.782 159.117 517.782 158.352C517.782 157.613 517.573 157.025 517.154 156.588C516.743 156.141 516.032 155.918 515.021 155.918Z" fill="#04101C"/>
<rect y="20" width="526" height="82" rx="8" fill="url(#paint0_linear_2055_56735)"/>
<line x1="23.5" y1="122" x2="23.5" y2="-2.18557e-08" stroke="#AFB6B3"/>
<line x1="493.5" y1="122" x2="493.5" y2="-2.18557e-08" stroke="#AFB6B3"/>
<defs>
<linearGradient id="paint0_linear_2055_56735" x1="0" y1="61" x2="526" y2="61" gradientUnits="userSpaceOnUse">
<stop offset="0.0119905" stop-color="#7A73FF"/>
<stop offset="0.05" stop-color="#FD9BE8"/>
<stop offset="0.0501" stop-color="#83FFBC"/>
</linearGradient>
</defs>
</svg>
