<svg width="526" height="172" viewBox="0 0 526 172" fill="none" xmlns="http://www.w3.org/2000/svg">
<path opacity="0.4" d="M15.1895 154.357V149.668C15.1895 147.207 15.8503 145.27 17.1719 143.857C18.4935 142.436 20.3574 141.725 22.7637 141.725C25.1608 141.725 27.0247 142.431 28.3555 143.844C29.6862 145.247 30.3516 147.189 30.3516 149.668V154.357C30.3516 156.873 29.6816 158.842 28.3418 160.264C27.0111 161.676 25.1517 162.378 22.7637 162.369C20.3483 162.369 18.4798 161.658 17.1582 160.236C15.8457 158.814 15.1895 156.855 15.1895 154.357ZM18.2656 154.604C18.2656 156.29 18.6302 157.616 19.3594 158.582C20.0977 159.539 21.2324 160.018 22.7637 160.018C24.2949 160.018 25.4297 159.539 26.168 158.582C26.9154 157.616 27.2891 156.29 27.2891 154.604V149.449C27.2891 147.799 26.9154 146.496 26.168 145.539C25.4297 144.582 24.2949 144.104 22.7637 144.104C21.2324 144.104 20.0977 144.582 19.3594 145.539C18.6302 146.496 18.2656 147.799 18.2656 149.449V154.604Z" fill="#04101C"/>
<path opacity="0.4" d="M234.271 156.832V156.572H237.238V156.832C237.238 157.853 237.648 158.641 238.469 159.197C239.289 159.753 240.387 160.031 241.764 160.031C243.149 160.031 244.252 159.653 245.072 158.896C245.902 158.131 246.316 157.023 246.316 155.574C246.316 154.125 245.897 153.054 245.059 152.361C244.229 151.66 243.154 151.309 241.832 151.309C240.866 151.309 240.036 151.477 239.344 151.814C238.651 152.152 238.045 152.589 237.525 153.127L235.037 152.129L236.117 142.094H248.189V144.609L238.523 144.596L237.895 150.297C238.359 149.969 238.984 149.663 239.768 149.381C240.551 149.098 241.44 148.957 242.434 148.957C244.384 148.957 246.025 149.522 247.355 150.652C248.686 151.783 249.352 153.4 249.352 155.506C249.352 157.639 248.659 159.316 247.273 160.537C245.888 161.758 244.051 162.369 241.764 162.369C239.458 162.369 237.63 161.854 236.281 160.824C234.941 159.794 234.271 158.464 234.271 156.832ZM253.397 154.357V149.668C253.397 147.207 254.058 145.27 255.379 143.857C256.701 142.436 258.565 141.725 260.971 141.725C263.368 141.725 265.232 142.431 266.563 143.844C267.894 145.247 268.559 147.189 268.559 149.668V154.357C268.559 156.873 267.889 158.842 266.549 160.264C265.218 161.676 263.359 162.378 260.971 162.369C258.556 162.369 256.687 161.658 255.366 160.236C254.053 158.814 253.397 156.855 253.397 154.357ZM256.473 154.604C256.473 156.29 256.838 157.616 257.567 158.582C258.305 159.539 259.44 160.018 260.971 160.018C262.502 160.018 263.637 159.539 264.375 158.582C265.123 157.616 265.496 156.29 265.496 154.604V149.449C265.496 147.799 265.123 146.496 264.375 145.539C263.637 144.582 262.502 144.104 260.971 144.104C259.44 144.104 258.305 144.582 257.567 145.539C256.838 146.496 256.473 147.799 256.473 149.449V154.604ZM272.29 148.164V146.523C272.29 145.092 272.755 143.949 273.684 143.092C274.614 142.226 275.858 141.793 277.417 141.793C278.984 141.793 280.228 142.226 281.149 143.092C282.079 143.958 282.544 145.102 282.544 146.523V148.164C282.544 149.613 282.074 150.775 281.135 151.65C280.206 152.516 278.966 152.949 277.417 152.949C275.867 152.949 274.623 152.516 273.684 151.65C272.755 150.785 272.29 149.622 272.29 148.164ZM274.778 148.205C274.778 149.016 275.01 149.673 275.475 150.174C275.94 150.675 276.587 150.926 277.417 150.926C278.255 150.926 278.902 150.68 279.358 150.188C279.823 149.686 280.055 149.025 280.055 148.205V146.51C280.055 145.717 279.827 145.074 279.372 144.582C278.916 144.081 278.264 143.83 277.417 143.83C276.578 143.83 275.926 144.081 275.462 144.582C275.006 145.074 274.778 145.717 274.778 146.51V148.205ZM292.647 142.627L279.495 162.602L277.553 161.344L290.692 141.383L292.647 142.627ZM287.52 157.543V155.902C287.52 154.471 287.985 153.327 288.915 152.471C289.844 151.605 291.089 151.172 292.647 151.172C294.215 151.172 295.459 151.605 296.38 152.471C297.309 153.337 297.774 154.48 297.774 155.902V157.543C297.774 158.992 297.305 160.154 296.366 161.029C295.436 161.895 294.197 162.328 292.647 162.328C291.098 162.328 289.853 161.895 288.915 161.029C287.985 160.163 287.52 159.001 287.52 157.543ZM290.008 157.584C290.008 158.395 290.241 159.051 290.706 159.553C291.171 160.054 291.818 160.305 292.647 160.305C293.486 160.305 294.133 160.059 294.589 159.566C295.053 159.065 295.286 158.404 295.286 157.584V155.889C295.286 155.096 295.058 154.453 294.602 153.961C294.146 153.46 293.495 153.209 292.647 153.209C291.809 153.209 291.157 153.46 290.692 153.961C290.236 154.453 290.008 155.096 290.008 155.889V157.584Z" fill="#04101C"/>
<path d="M445.23 156.695C445.23 155.438 445.627 154.389 446.42 153.551C447.222 152.703 448.188 152.115 449.318 151.787V151.732C448.37 151.386 447.568 150.812 446.912 150.01C446.265 149.208 445.941 148.223 445.941 147.057C445.941 145.443 446.566 144.154 447.814 143.188C449.072 142.212 450.722 141.725 452.764 141.725C454.805 141.725 456.451 142.217 457.699 143.201C458.957 144.186 459.586 145.471 459.586 147.057C459.586 148.242 459.267 149.23 458.629 150.023C458 150.816 457.216 151.382 456.277 151.719V151.773C457.408 152.102 458.36 152.689 459.135 153.537C459.91 154.376 460.297 155.424 460.297 156.682C460.297 158.495 459.595 159.899 458.191 160.893C456.797 161.877 454.988 162.369 452.764 162.369C450.54 162.369 448.726 161.877 447.322 160.893C445.928 159.899 445.23 158.5 445.23 156.695ZM448.266 156.49C448.266 157.584 448.662 158.454 449.455 159.102C450.257 159.74 451.36 160.059 452.764 160.059C454.167 160.059 455.266 159.74 456.059 159.102C456.861 158.464 457.262 157.593 457.262 156.49C457.262 155.396 456.856 154.531 456.045 153.893C455.243 153.245 454.149 152.922 452.764 152.922C451.378 152.922 450.28 153.241 449.469 153.879C448.667 154.517 448.266 155.387 448.266 156.49ZM448.881 147.303C448.881 148.324 449.232 149.148 449.934 149.777C450.635 150.397 451.579 150.707 452.764 150.707C453.958 150.707 454.901 150.397 455.594 149.777C456.286 149.148 456.633 148.324 456.633 147.303C456.633 146.337 456.286 145.553 455.594 144.951C454.901 144.34 453.958 144.035 452.764 144.035C451.57 144.035 450.622 144.336 449.92 144.938C449.227 145.53 448.881 146.318 448.881 147.303ZM464.479 156.832V156.572H467.446V156.832C467.446 157.853 467.856 158.641 468.676 159.197C469.496 159.753 470.595 160.031 471.971 160.031C473.356 160.031 474.459 159.653 475.28 158.896C476.109 158.131 476.524 157.023 476.524 155.574C476.524 154.125 476.104 153.054 475.266 152.361C474.437 151.66 473.361 151.309 472.039 151.309C471.073 151.309 470.244 151.477 469.551 151.814C468.858 152.152 468.252 152.589 467.733 153.127L465.244 152.129L466.325 142.094H478.397V144.609L468.731 144.596L468.102 150.297C468.567 149.969 469.191 149.663 469.975 149.381C470.759 149.098 471.647 148.957 472.641 148.957C474.591 148.957 476.232 149.522 477.563 150.652C478.894 151.783 479.559 153.4 479.559 155.506C479.559 157.639 478.866 159.316 477.481 160.537C476.095 161.758 474.259 162.369 471.971 162.369C469.665 162.369 467.838 161.854 466.489 160.824C465.149 159.794 464.479 158.464 464.479 156.832ZM483.29 148.164V146.523C483.29 145.092 483.755 143.949 484.684 143.092C485.614 142.226 486.858 141.793 488.417 141.793C489.984 141.793 491.228 142.226 492.149 143.092C493.079 143.958 493.544 145.102 493.544 146.523V148.164C493.544 149.613 493.074 150.775 492.135 151.65C491.206 152.516 489.966 152.949 488.417 152.949C486.867 152.949 485.623 152.516 484.684 151.65C483.755 150.785 483.29 149.622 483.29 148.164ZM485.778 148.205C485.778 149.016 486.01 149.673 486.475 150.174C486.94 150.675 487.587 150.926 488.417 150.926C489.255 150.926 489.902 150.68 490.358 150.188C490.823 149.686 491.055 149.025 491.055 148.205V146.51C491.055 145.717 490.827 145.074 490.372 144.582C489.916 144.081 489.264 143.83 488.417 143.83C487.578 143.83 486.926 144.081 486.462 144.582C486.006 145.074 485.778 145.717 485.778 146.51V148.205ZM503.647 142.627L490.495 162.602L488.553 161.344L501.692 141.383L503.647 142.627ZM498.52 157.543V155.902C498.52 154.471 498.985 153.327 499.915 152.471C500.844 151.605 502.089 151.172 503.647 151.172C505.215 151.172 506.459 151.605 507.38 152.471C508.309 153.337 508.774 154.48 508.774 155.902V157.543C508.774 158.992 508.305 160.154 507.366 161.029C506.436 161.895 505.197 162.328 503.647 162.328C502.098 162.328 500.853 161.895 499.915 161.029C498.985 160.163 498.52 159.001 498.52 157.543ZM501.008 157.584C501.008 158.395 501.241 159.051 501.706 159.553C502.171 160.054 502.818 160.305 503.647 160.305C504.486 160.305 505.133 160.059 505.589 159.566C506.053 159.065 506.286 158.404 506.286 157.584V155.889C506.286 155.096 506.058 154.453 505.602 153.961C505.146 153.46 504.495 153.209 503.647 153.209C502.809 153.209 502.157 153.46 501.692 153.961C501.236 154.453 501.008 155.096 501.008 155.889V157.584Z" fill="#04101C"/>
<rect y="20" width="526" height="82" rx="8" fill="url(#paint0_linear_1_2028)"/>
<line x1="122.5" y1="130" x2="122.5" y2="-1.71159e-08" stroke="#AFB6B3"/>
<line x1="478.5" y1="130" x2="478.5" y2="-1.71159e-08" stroke="#AFB6B3"/>
<defs>
<linearGradient id="paint0_linear_1_2028" x1="0" y1="61" x2="526" y2="61" gradientUnits="userSpaceOnUse">
<stop offset="0.0239582" stop-color="#7A73FF"/>
<stop offset="0.232192" stop-color="#FD9BE8"/>
<stop offset="0.232292" stop-color="#83FFBC"/>
</linearGradient>
</defs>
</svg>
