<svg width="526" height="162" viewBox="0 0 526 162" fill="none" xmlns="http://www.w3.org/2000/svg">
<path opacity="0.4" d="M2.29688 152V132.094H5.33203V140.502H16.625V132.094H19.6602V152H16.625V142.949H5.33203V152H2.29688ZM24.1702 145.273V144.891C24.1702 142.776 24.8766 141.067 26.2894 139.764C27.7113 138.451 29.5797 137.795 31.8948 137.795C34.2099 137.795 35.9964 138.41 37.2542 139.641C38.5211 140.862 39.1546 142.535 39.1546 144.658V145.725H25.8929V143.701H36.2425V143.619C36.2425 142.598 35.9053 141.751 35.2308 141.076C34.5654 140.402 33.4534 140.064 31.8948 140.064C30.2998 140.064 29.0967 140.502 28.2855 141.377C27.4834 142.243 27.0823 143.378 27.0823 144.781V145.342C27.0823 146.773 27.5062 147.926 28.3538 148.801C29.2015 149.676 30.4866 150.113 32.2093 150.113C33.3577 150.113 34.3239 149.922 35.1077 149.539C35.8916 149.156 36.5068 148.701 36.9534 148.172L38.9769 149.553C38.4665 150.3 37.6416 150.961 36.5023 151.535C35.3629 152.109 33.9411 152.396 32.2366 152.396C29.6754 152.396 27.6885 151.745 26.2757 150.441C24.8721 149.129 24.1702 147.406 24.1702 145.273ZM43.5416 138.205H54.5612V140.475H46.4811V152H43.5416V138.205ZM57.6904 147.939C57.6904 146.518 58.292 145.424 59.4951 144.658C60.7073 143.883 62.389 143.496 64.54 143.496L68.8877 143.51V142.471C68.8877 141.632 68.6097 141.003 68.0537 140.584C67.4977 140.156 66.5634 139.941 65.2509 139.941C63.9931 139.941 63.0634 140.128 62.4619 140.502C61.8603 140.867 61.5595 141.363 61.5595 141.992V142.184H58.6748V141.951C58.6748 140.712 59.2672 139.709 60.4521 138.943C61.637 138.178 63.2776 137.795 65.374 137.795C67.4612 137.795 69.0563 138.187 70.1591 138.971C71.2711 139.755 71.8271 140.949 71.8271 142.553V148.773C71.8271 149.357 71.8772 149.908 71.9775 150.428C72.0778 150.947 72.2236 151.398 72.415 151.781V152H69.5576C69.4117 151.772 69.2841 151.485 69.1748 151.139C69.0654 150.783 68.9925 150.41 68.956 150.018C68.5732 150.61 67.8987 151.13 66.9326 151.576C65.9664 152.023 64.7405 152.246 63.2548 152.246C61.5413 152.246 60.1832 151.877 59.1806 151.139C58.1871 150.391 57.6904 149.325 57.6904 147.939ZM60.6298 147.762C60.6298 148.536 60.9078 149.129 61.4638 149.539C62.0198 149.94 62.9039 150.141 64.1162 150.141C65.3558 150.141 66.4586 149.826 67.4248 149.197C68.4 148.559 68.8877 147.835 68.8877 147.023V145.383H65.0459C63.5784 145.383 62.4755 145.583 61.7373 145.984C60.999 146.385 60.6298 146.978 60.6298 147.762ZM75.8723 140.475V138.205H89.7083V140.475H84.2669V152H81.3274V140.475H75.8723ZM93.7535 152V138.205H96.693V146.818C96.693 147.11 96.6839 147.402 96.6656 147.693C96.6565 147.976 96.6428 148.263 96.6246 148.555L96.7203 148.568C96.8661 148.295 97.0029 148.049 97.1305 147.83C97.2672 147.602 97.4495 147.333 97.6773 147.023L104.541 138.205H107.521V152H104.582V143.359C104.582 143.077 104.586 142.794 104.595 142.512C104.604 142.22 104.618 141.924 104.636 141.623H104.541C104.404 141.878 104.267 142.124 104.13 142.361C104.003 142.589 103.825 142.854 103.597 143.154L96.734 152H93.7535ZM113.125 152V138.205H121.424C123.046 138.205 124.272 138.501 125.101 139.094C125.931 139.686 126.346 140.579 126.346 141.773C126.346 142.585 126.122 143.25 125.676 143.77C125.229 144.289 124.614 144.649 123.83 144.85V144.891C124.732 145.046 125.462 145.396 126.018 145.943C126.573 146.49 126.851 147.215 126.851 148.117C126.851 149.339 126.414 150.291 125.539 150.975C124.664 151.658 123.429 152 121.834 152H113.125ZM116.037 143.975H121.096C121.916 143.975 122.504 143.806 122.859 143.469C123.224 143.122 123.406 142.639 123.406 142.02C123.406 141.445 123.224 141.008 122.859 140.707C122.495 140.406 121.907 140.256 121.096 140.256H116.037V143.975ZM116.037 149.949H121.451C122.29 149.949 122.909 149.776 123.31 149.43C123.712 149.074 123.912 148.582 123.912 147.953C123.912 147.342 123.712 146.859 123.31 146.504C122.919 146.139 122.299 145.957 121.451 145.957H116.037V149.949Z" fill="#04101C"/>
<path d="M317.621 149V134.781H320.434L325.229 145.367C325.32 145.569 325.408 145.771 325.492 145.973C325.577 146.174 325.645 146.357 325.697 146.52H325.766C325.818 146.357 325.88 146.174 325.951 145.973C326.029 145.771 326.117 145.569 326.215 145.367L331.039 134.781H333.871V149H331.674V138.844C331.674 138.648 331.68 138.434 331.693 138.199C331.706 137.958 331.723 137.74 331.742 137.545H331.664C331.625 137.74 331.566 137.958 331.488 138.199C331.41 138.434 331.329 138.648 331.244 138.844L326.635 149H324.662L320.062 138.854C319.971 138.652 319.887 138.43 319.809 138.189C319.73 137.949 319.669 137.734 319.623 137.545H319.555C319.568 137.734 319.581 137.949 319.594 138.189C319.613 138.43 319.623 138.652 319.623 138.854V149H317.621ZM337.591 149V138.902H339.768V145.113C339.768 145.315 339.762 145.533 339.749 145.768C339.742 145.995 339.733 146.21 339.72 146.412H339.798C339.889 146.23 339.986 146.051 340.091 145.875C340.195 145.693 340.322 145.497 340.471 145.289L345.393 138.902H347.571V149H345.403V142.77C345.403 142.574 345.406 142.359 345.413 142.125C345.426 141.891 345.436 141.673 345.442 141.471H345.364C345.279 141.653 345.185 141.835 345.081 142.018C344.977 142.2 344.85 142.392 344.7 142.594L339.778 149H337.591ZM351.564 138.902H353.742V143.014H359.25V138.902H361.427V149H359.25V144.674H353.742V149H351.564V138.902ZM365.401 149V138.902H367.579V145.113C367.579 145.315 367.572 145.533 367.559 145.768C367.552 145.995 367.543 146.21 367.53 146.412H367.608C367.699 146.23 367.797 146.051 367.901 145.875C368.005 145.693 368.132 145.497 368.282 145.289L373.204 138.902H375.381V149H373.213V142.77C373.213 142.574 373.217 142.359 373.223 142.125C373.236 141.891 373.246 141.673 373.252 141.471H373.174C373.09 141.653 372.995 141.835 372.891 142.018C372.787 142.2 372.66 142.392 372.51 142.594L367.588 149H365.401ZM379.404 149V138.902H382.333L385.497 145.348C385.68 145.738 385.8 146.015 385.859 146.178C385.917 146.334 385.966 146.49 386.005 146.646H386.093C386.126 146.49 386.171 146.334 386.23 146.178C386.295 146.021 386.418 145.745 386.601 145.348L389.765 138.902H392.646V149H390.497V142.486C390.497 142.089 390.504 141.796 390.517 141.607C390.53 141.412 390.546 141.236 390.566 141.08H390.497C390.458 141.217 390.409 141.37 390.351 141.539C390.299 141.702 390.195 141.956 390.038 142.301L386.767 149H385.058L381.777 142.281C381.659 142.021 381.565 141.793 381.493 141.598C381.428 141.396 381.379 141.223 381.347 141.08H381.259C381.272 141.223 381.288 141.393 381.308 141.588C381.327 141.783 381.337 142.07 381.337 142.447V149H379.404ZM395.789 153.053L395.799 151.344C396.007 151.396 396.235 151.438 396.482 151.471C396.73 151.503 396.964 151.52 397.186 151.52C397.765 151.52 398.247 151.373 398.631 151.08C399.021 150.794 399.441 150.077 399.891 148.932L399.822 148.922L395.271 138.902H397.498L400.34 145.445C400.444 145.693 400.538 145.934 400.623 146.168C400.708 146.396 400.783 146.63 400.848 146.871H400.906C400.971 146.63 401.046 146.396 401.131 146.168C401.215 145.934 401.307 145.693 401.404 145.445L404.188 138.902H406.287L401.277 150.279C400.848 151.243 400.311 151.979 399.666 152.486C399.028 153.001 398.253 153.258 397.342 153.258C397.029 153.258 396.749 153.238 396.502 153.199C396.255 153.167 396.017 153.118 395.789 153.053ZM408.854 149V138.902H411.784L414.948 145.348C415.13 145.738 415.251 146.015 415.309 146.178C415.368 146.334 415.417 146.49 415.456 146.646H415.544C415.576 146.49 415.622 146.334 415.68 146.178C415.746 146.021 415.869 145.745 416.052 145.348L419.216 138.902H422.096V149H419.948V142.486C419.948 142.089 419.955 141.796 419.968 141.607C419.981 141.412 419.997 141.236 420.016 141.08H419.948C419.909 141.217 419.86 141.37 419.802 141.539C419.749 141.702 419.645 141.956 419.489 142.301L416.218 149H414.509L411.227 142.281C411.11 142.021 411.016 141.793 410.944 141.598C410.879 141.396 410.83 141.223 410.798 141.08H410.71C410.723 141.223 410.739 141.393 410.759 141.588C410.778 141.783 410.788 142.07 410.788 142.447V149H408.854ZM432.202 138.902H434.379V143.014H439.887V138.902H442.065V149H439.887V144.674H434.379V149H432.202V138.902ZM445.423 144.088V143.795C445.423 142.252 445.934 141.002 446.956 140.045C447.978 139.088 449.32 138.609 450.98 138.609C452.646 138.609 453.932 139.059 454.837 139.957C455.749 140.855 456.204 142.076 456.204 143.619V144.439H446.741V142.926H454.036V142.848C454.043 142.092 453.808 141.477 453.333 141.002C452.858 140.527 452.073 140.289 450.98 140.289C449.853 140.289 449.004 140.608 448.431 141.246C447.858 141.878 447.571 142.708 447.571 143.736V144.137C447.571 145.172 447.871 146.008 448.47 146.646C449.075 147.278 450.003 147.594 451.253 147.594C452.034 147.594 452.702 147.457 453.255 147.184C453.815 146.904 454.264 146.568 454.603 146.178L456.068 147.242C455.703 147.776 455.107 148.251 454.28 148.668C453.46 149.085 452.454 149.293 451.263 149.293C449.407 149.293 447.969 148.814 446.946 147.857C445.931 146.894 445.423 145.637 445.423 144.088ZM459.367 138.902H467.375V140.562H461.545V149H459.367V138.902ZM469.669 146.021C469.669 144.967 470.118 144.16 471.016 143.6C471.921 143.033 473.165 142.75 474.747 142.75L477.725 142.76V142.057C477.725 141.445 477.524 140.982 477.12 140.67C476.723 140.357 476.059 140.201 475.128 140.201C474.236 140.201 473.575 140.335 473.145 140.602C472.716 140.868 472.501 141.223 472.501 141.666V141.764H470.352V141.656C470.352 140.732 470.782 139.993 471.641 139.439C472.507 138.886 473.699 138.609 475.216 138.609C476.713 138.609 477.865 138.902 478.673 139.488C479.486 140.068 479.893 140.934 479.893 142.086V146.676C479.893 147.099 479.929 147.499 480.001 147.877C480.079 148.248 480.186 148.57 480.323 148.844V149H478.214C478.116 148.837 478.025 148.632 477.94 148.385C477.862 148.131 477.81 147.87 477.784 147.604C477.511 148.027 477.029 148.398 476.339 148.717C475.649 149.029 474.776 149.186 473.721 149.186C472.485 149.186 471.498 148.915 470.762 148.375C470.033 147.828 469.669 147.044 469.669 146.021ZM471.837 145.885C471.837 146.451 472.035 146.881 472.432 147.174C472.836 147.46 473.474 147.604 474.346 147.604C475.238 147.604 476.023 147.376 476.7 146.92C477.384 146.464 477.725 145.956 477.725 145.396V144.156L475.079 144.146C474.011 144.146 473.204 144.296 472.657 144.596C472.11 144.895 471.837 145.325 471.837 145.885ZM482.802 140.562V138.902H492.832V140.562H488.906V149H486.728V140.562H482.802ZM495.721 149V138.902H497.899V145.113C497.899 145.315 497.892 145.533 497.879 145.768C497.873 145.995 497.863 146.21 497.85 146.412H497.928C498.019 146.23 498.117 146.051 498.221 145.875C498.325 145.693 498.452 145.497 498.602 145.289L503.524 138.902H505.702V149H503.534V142.77C503.534 142.574 503.537 142.359 503.543 142.125C503.556 141.891 503.566 141.673 503.573 141.471H503.495C503.41 141.653 503.316 141.835 503.211 142.018C503.107 142.2 502.98 142.392 502.83 142.594L497.909 149H495.721ZM509.695 149V138.902H515.632C516.849 138.902 517.764 139.124 518.376 139.566C518.995 140.003 519.304 140.66 519.304 141.539C519.304 142.125 519.141 142.607 518.816 142.984C518.497 143.355 518.051 143.616 517.478 143.766V143.805C518.135 143.915 518.663 144.169 519.06 144.566C519.463 144.964 519.665 145.484 519.665 146.129C519.665 147.034 519.34 147.74 518.689 148.248C518.038 148.749 517.123 149 515.945 149H509.695ZM511.853 143.111H515.446C516.039 143.111 516.465 142.988 516.726 142.74C516.986 142.493 517.116 142.151 517.116 141.715C517.116 141.305 516.986 140.989 516.726 140.768C516.465 140.546 516.039 140.436 515.446 140.436H511.853V143.111ZM511.853 147.457H515.72C516.332 147.457 516.778 147.33 517.058 147.076C517.344 146.816 517.488 146.464 517.488 146.021C517.488 145.592 517.348 145.25 517.068 144.996C516.788 144.736 516.338 144.605 515.72 144.605H511.853V147.457Z" fill="#04101C"/>
<rect y="20" width="526" height="82" rx="8" fill="url(#paint0_linear_1971_36136)"/>
<line x1="31.5" y1="122" x2="31.5" y2="-1.60626e-08" stroke="#AFB6B3"/>
<line x1="482.5" y1="122" x2="482.5" y2="-1.60626e-08" stroke="#AFB6B3"/>
<defs>
<linearGradient id="paint0_linear_1971_36136" x1="0" y1="61" x2="526" y2="61" gradientUnits="userSpaceOnUse">
<stop stop-color="#7A73FF"/>
<stop offset="0.0604165" stop-color="#FD9BE8"/>
<stop offset="0.0605165" stop-color="#83FFBC"/>
</linearGradient>
</defs>
</svg>
