<svg width="526" height="166" viewBox="0 0 526 166" fill="none" xmlns="http://www.w3.org/2000/svg">
<path opacity="0.4" d="M6.18945 148.357V143.668C6.18945 141.207 6.85026 139.27 8.17188 137.857C9.49349 136.436 11.3574 135.725 13.7637 135.725C16.1608 135.725 18.0247 136.431 19.3555 137.844C20.6862 139.247 21.3516 141.189 21.3516 143.668V148.357C21.3516 150.873 20.6816 152.842 19.3418 154.264C18.0111 155.676 16.1517 156.378 13.7637 156.369C11.3483 156.369 9.47982 155.658 8.1582 154.236C6.8457 152.814 6.18945 150.855 6.18945 148.357ZM9.26562 148.604C9.26562 150.29 9.63021 151.616 10.3594 152.582C11.0977 153.539 12.2324 154.018 13.7637 154.018C15.2949 154.018 16.4297 153.539 17.168 152.582C17.9154 151.616 18.2891 150.29 18.2891 148.604V143.449C18.2891 141.799 17.9154 140.496 17.168 139.539C16.4297 138.582 15.2949 138.104 13.7637 138.104C12.2324 138.104 11.0977 138.582 10.3594 139.539C9.63021 140.496 9.26562 141.799 9.26562 143.449V148.604Z" fill="#04101C"/>
<path opacity="0.4" d="M74.2715 150.832V150.572H77.2383V150.832C77.2383 151.853 77.6484 152.641 78.4688 153.197C79.2891 153.753 80.3874 154.031 81.7637 154.031C83.1491 154.031 84.252 153.653 85.0723 152.896C85.9017 152.131 86.3164 151.023 86.3164 149.574C86.3164 148.125 85.8971 147.054 85.0586 146.361C84.2292 145.66 83.1536 145.309 81.832 145.309C80.8659 145.309 80.0365 145.477 79.3438 145.814C78.651 146.152 78.0449 146.589 77.5254 147.127L75.0371 146.129L76.1172 136.094H88.1895V138.609L78.5234 138.596L77.8945 144.297C78.3594 143.969 78.9837 143.663 79.7676 143.381C80.5514 143.098 81.4401 142.957 82.4336 142.957C84.3841 142.957 86.0247 143.522 87.3555 144.652C88.6862 145.783 89.3516 147.4 89.3516 149.506C89.3516 151.639 88.6589 153.316 87.2734 154.537C85.888 155.758 84.0514 156.369 81.7637 156.369C79.4577 156.369 77.6302 155.854 76.2812 154.824C74.9414 153.794 74.2715 152.464 74.2715 150.832ZM93.3968 148.357V143.668C93.3968 141.207 94.0576 139.27 95.3792 137.857C96.7008 136.436 98.5648 135.725 100.971 135.725C103.368 135.725 105.232 136.431 106.563 137.844C107.894 139.247 108.559 141.189 108.559 143.668V148.357C108.559 150.873 107.889 152.842 106.549 154.264C105.218 155.676 103.359 156.378 100.971 156.369C98.5557 156.369 96.6872 155.658 95.3655 154.236C94.053 152.814 93.3968 150.855 93.3968 148.357ZM96.473 148.604C96.473 150.29 96.8376 151.616 97.5667 152.582C98.305 153.539 99.4398 154.018 100.971 154.018C102.502 154.018 103.637 153.539 104.375 152.582C105.123 151.616 105.496 150.29 105.496 148.604V143.449C105.496 141.799 105.123 140.496 104.375 139.539C103.637 138.582 102.502 138.104 100.971 138.104C99.4398 138.104 98.305 138.582 97.5667 139.539C96.8376 140.496 96.473 141.799 96.473 143.449V148.604ZM112.604 148.357V143.668C112.604 141.207 113.265 139.27 114.587 137.857C115.908 136.436 117.772 135.725 120.178 135.725C122.575 135.725 124.439 136.431 125.77 137.844C127.101 139.247 127.766 141.189 127.766 143.668V148.357C127.766 150.873 127.096 152.842 125.756 154.264C124.426 155.676 122.566 156.378 120.178 156.369C117.763 156.369 115.895 155.658 114.573 154.236C113.26 152.814 112.604 150.855 112.604 148.357ZM115.68 148.604C115.68 150.29 116.045 151.616 116.774 152.582C117.512 153.539 118.647 154.018 120.178 154.018C121.71 154.018 122.844 153.539 123.583 152.582C124.33 151.616 124.704 150.29 124.704 148.604V143.449C124.704 141.799 124.33 140.496 123.583 139.539C122.844 138.582 121.71 138.104 120.178 138.104C118.647 138.104 117.512 138.582 116.774 139.539C116.045 140.496 115.68 141.799 115.68 143.449V148.604Z" fill="#04101C"/>
<path opacity="0.4" d="M192.258 156V139.033L186.311 141.248V138.527L193.967 135.875H195.307V156H192.258ZM204.397 148.357V143.668C204.397 141.207 205.058 139.27 206.379 137.857C207.701 136.436 209.565 135.725 211.971 135.725C214.368 135.725 216.232 136.431 217.563 137.844C218.894 139.247 219.559 141.189 219.559 143.668V148.357C219.559 150.873 218.889 152.842 217.549 154.264C216.218 155.676 214.359 156.378 211.971 156.369C209.556 156.369 207.687 155.658 206.366 154.236C205.053 152.814 204.397 150.855 204.397 148.357ZM207.473 148.604C207.473 150.29 207.838 151.616 208.567 152.582C209.305 153.539 210.44 154.018 211.971 154.018C213.502 154.018 214.637 153.539 215.375 152.582C216.123 151.616 216.496 150.29 216.496 148.604V143.449C216.496 141.799 216.123 140.496 215.375 139.539C214.637 138.582 213.502 138.104 211.971 138.104C210.44 138.104 209.305 138.582 208.567 139.539C207.838 140.496 207.473 141.799 207.473 143.449V148.604ZM223.604 148.357V143.668C223.604 141.207 224.265 139.27 225.587 137.857C226.908 136.436 228.772 135.725 231.178 135.725C233.575 135.725 235.439 136.431 236.77 137.844C238.101 139.247 238.766 141.189 238.766 143.668V148.357C238.766 150.873 238.096 152.842 236.756 154.264C235.426 155.676 233.566 156.378 231.178 156.369C228.763 156.369 226.895 155.658 225.573 154.236C224.26 152.814 223.604 150.855 223.604 148.357ZM226.68 148.604C226.68 150.29 227.045 151.616 227.774 152.582C228.512 153.539 229.647 154.018 231.178 154.018C232.71 154.018 233.844 153.539 234.583 152.582C235.33 151.616 235.704 150.29 235.704 148.604V143.449C235.704 141.799 235.33 140.496 234.583 139.539C233.844 138.582 232.71 138.104 231.178 138.104C229.647 138.104 228.512 138.582 227.774 139.539C227.045 140.496 226.68 141.799 226.68 143.449V148.604ZM242.811 148.357V143.668C242.811 141.207 243.472 139.27 244.794 137.857C246.116 136.436 247.979 135.725 250.386 135.725C252.783 135.725 254.647 136.431 255.978 137.844C257.308 139.247 257.974 141.189 257.974 143.668V148.357C257.974 150.873 257.304 152.842 255.964 154.264C254.633 155.676 252.774 156.378 250.386 156.369C247.97 156.369 246.102 155.658 244.78 154.236C243.468 152.814 242.811 150.855 242.811 148.357ZM245.888 148.604C245.888 150.29 246.252 151.616 246.981 152.582C247.72 153.539 248.854 154.018 250.386 154.018C251.917 154.018 253.052 153.539 253.79 152.582C254.537 151.616 254.911 150.29 254.911 148.604V143.449C254.911 141.799 254.537 140.496 253.79 139.539C253.052 138.582 251.917 138.104 250.386 138.104C248.854 138.104 247.72 138.582 246.981 139.539C246.252 140.496 245.888 141.799 245.888 143.449V148.604Z" fill="#04101C"/>
<path opacity="0.4" d="M320.258 156V139.033L314.311 141.248V138.527L321.967 135.875H323.307V156H320.258ZM332.479 150.832V150.572H335.446V150.832C335.446 151.853 335.856 152.641 336.676 153.197C337.496 153.753 338.595 154.031 339.971 154.031C341.356 154.031 342.459 153.653 343.28 152.896C344.109 152.131 344.524 151.023 344.524 149.574C344.524 148.125 344.104 147.054 343.266 146.361C342.437 145.66 341.361 145.309 340.039 145.309C339.073 145.309 338.244 145.477 337.551 145.814C336.858 146.152 336.252 146.589 335.733 147.127L333.244 146.129L334.325 136.094H346.397V138.609L336.731 138.596L336.102 144.297C336.567 143.969 337.191 143.663 337.975 143.381C338.759 143.098 339.647 142.957 340.641 142.957C342.591 142.957 344.232 143.522 345.563 144.652C346.894 145.783 347.559 147.4 347.559 149.506C347.559 151.639 346.866 153.316 345.481 154.537C344.095 155.758 342.259 156.369 339.971 156.369C337.665 156.369 335.838 155.854 334.489 154.824C333.149 153.794 332.479 152.464 332.479 150.832ZM351.604 148.357V143.668C351.604 141.207 352.265 139.27 353.587 137.857C354.908 136.436 356.772 135.725 359.178 135.725C361.575 135.725 363.439 136.431 364.77 137.844C366.101 139.247 366.766 141.189 366.766 143.668V148.357C366.766 150.873 366.096 152.842 364.756 154.264C363.426 155.676 361.566 156.378 359.178 156.369C356.763 156.369 354.895 155.658 353.573 154.236C352.26 152.814 351.604 150.855 351.604 148.357ZM354.68 148.604C354.68 150.29 355.045 151.616 355.774 152.582C356.512 153.539 357.647 154.018 359.178 154.018C360.71 154.018 361.844 153.539 362.583 152.582C363.33 151.616 363.704 150.29 363.704 148.604V143.449C363.704 141.799 363.33 140.496 362.583 139.539C361.844 138.582 360.71 138.104 359.178 138.104C357.647 138.104 356.512 138.582 355.774 139.539C355.045 140.496 354.68 141.799 354.68 143.449V148.604ZM370.811 148.357V143.668C370.811 141.207 371.472 139.27 372.794 137.857C374.116 136.436 375.979 135.725 378.386 135.725C380.783 135.725 382.647 136.431 383.978 137.844C385.308 139.247 385.974 141.189 385.974 143.668V148.357C385.974 150.873 385.304 152.842 383.964 154.264C382.633 155.676 380.774 156.378 378.386 156.369C375.97 156.369 374.102 155.658 372.78 154.236C371.468 152.814 370.811 150.855 370.811 148.357ZM373.888 148.604C373.888 150.29 374.252 151.616 374.981 152.582C375.72 153.539 376.854 154.018 378.386 154.018C379.917 154.018 381.052 153.539 381.79 152.582C382.537 151.616 382.911 150.29 382.911 148.604V143.449C382.911 141.799 382.537 140.496 381.79 139.539C381.052 138.582 379.917 138.104 378.386 138.104C376.854 138.104 375.72 138.582 374.981 139.539C374.252 140.496 373.888 141.799 373.888 143.449V148.604Z" fill="#04101C"/>
<path d="M445.422 156V153.99L453.652 146.211C454.518 145.363 455.247 144.538 455.84 143.736C456.441 142.925 456.742 142.096 456.742 141.248C456.742 140.309 456.4 139.553 455.717 138.979C455.033 138.395 454.058 138.104 452.791 138.104C451.469 138.104 450.412 138.432 449.619 139.088C448.835 139.735 448.443 140.669 448.443 141.891V142.164H445.408V141.85C445.408 140.054 446.083 138.587 447.432 137.447C448.79 136.299 450.581 135.725 452.805 135.725C454.992 135.725 456.706 136.24 457.945 137.27C459.185 138.299 459.805 139.566 459.805 141.07C459.805 142.401 459.422 143.581 458.656 144.611C457.891 145.632 456.906 146.708 455.703 147.838L449.605 153.607H460.379V156H445.422ZM464.397 148.357V143.668C464.397 141.207 465.058 139.27 466.379 137.857C467.701 136.436 469.565 135.725 471.971 135.725C474.368 135.725 476.232 136.431 477.563 137.844C478.894 139.247 479.559 141.189 479.559 143.668V148.357C479.559 150.873 478.889 152.842 477.549 154.264C476.218 155.676 474.359 156.378 471.971 156.369C469.556 156.369 467.687 155.658 466.366 154.236C465.053 152.814 464.397 150.855 464.397 148.357ZM467.473 148.604C467.473 150.29 467.838 151.616 468.567 152.582C469.305 153.539 470.44 154.018 471.971 154.018C473.502 154.018 474.637 153.539 475.375 152.582C476.123 151.616 476.496 150.29 476.496 148.604V143.449C476.496 141.799 476.123 140.496 475.375 139.539C474.637 138.582 473.502 138.104 471.971 138.104C470.44 138.104 469.305 138.582 468.567 139.539C467.838 140.496 467.473 141.799 467.473 143.449V148.604ZM483.604 148.357V143.668C483.604 141.207 484.265 139.27 485.587 137.857C486.908 136.436 488.772 135.725 491.178 135.725C493.575 135.725 495.439 136.431 496.77 137.844C498.101 139.247 498.766 141.189 498.766 143.668V148.357C498.766 150.873 498.096 152.842 496.756 154.264C495.426 155.676 493.566 156.378 491.178 156.369C488.763 156.369 486.895 155.658 485.573 154.236C484.26 152.814 483.604 150.855 483.604 148.357ZM486.68 148.604C486.68 150.29 487.045 151.616 487.774 152.582C488.512 153.539 489.647 154.018 491.178 154.018C492.71 154.018 493.844 153.539 494.583 152.582C495.33 151.616 495.704 150.29 495.704 148.604V143.449C495.704 141.799 495.33 140.496 494.583 139.539C493.844 138.582 492.71 138.104 491.178 138.104C489.647 138.104 488.512 138.582 487.774 139.539C487.045 140.496 486.68 141.799 486.68 143.449V148.604ZM502.811 148.357V143.668C502.811 141.207 503.472 139.27 504.794 137.857C506.116 136.436 507.979 135.725 510.386 135.725C512.783 135.725 514.647 136.431 515.978 137.844C517.308 139.247 517.974 141.189 517.974 143.668V148.357C517.974 150.873 517.304 152.842 515.964 154.264C514.633 155.676 512.774 156.378 510.386 156.369C507.97 156.369 506.102 155.658 504.78 154.236C503.468 152.814 502.811 150.855 502.811 148.357ZM505.888 148.604C505.888 150.29 506.252 151.616 506.981 152.582C507.72 153.539 508.854 154.018 510.386 154.018C511.917 154.018 513.052 153.539 513.79 152.582C514.537 151.616 514.911 150.29 514.911 148.604V143.449C514.911 141.799 514.537 140.496 513.79 139.539C513.052 138.582 511.917 138.104 510.386 138.104C508.854 138.104 507.72 138.582 506.981 139.539C506.252 140.496 505.888 141.799 505.888 143.449V148.604Z" fill="#04101C"/>
<rect y="20" width="526" height="82" rx="8" fill="url(#paint0_linear_1_1753)"/>
<line x1="31.5" y1="122" x2="31.5" y2="-1.60626e-08" stroke="#AFB6B3"/>
<line x1="482.5" y1="122" x2="482.5" y2="-1.60626e-08" stroke="#AFB6B3"/>
<defs>
<linearGradient id="paint0_linear_1_1753" x1="0" y1="61" x2="526" y2="61" gradientUnits="userSpaceOnUse">
<stop stop-color="#7A73FF"/>
<stop offset="0.0604165" stop-color="#FD9BE8"/>
<stop offset="0.0605165" stop-color="#83FFBC"/>
</linearGradient>
</defs>
</svg>
