<svg width="526" height="186" viewBox="0 0 526 186" fill="none" xmlns="http://www.w3.org/2000/svg">
<path opacity="0.4" d="M13.2578 176V159.033L7.31055 161.248V158.527L14.9668 155.875H16.3066V176H13.2578Z" fill="#04101C"/>
<path opacity="0.4" d="M74.4219 176V173.99L82.6523 166.211C83.5182 165.363 84.2474 164.538 84.8398 163.736C85.4414 162.925 85.7422 162.096 85.7422 161.248C85.7422 160.309 85.4004 159.553 84.7168 158.979C84.0332 158.395 83.0579 158.104 81.791 158.104C80.4694 158.104 79.4121 158.432 78.6191 159.088C77.8353 159.735 77.4434 160.669 77.4434 161.891V162.164H74.4082V161.85C74.4082 160.054 75.0827 158.587 76.4316 157.447C77.7897 156.299 79.5807 155.725 81.8047 155.725C83.9922 155.725 85.7057 156.24 86.9453 157.27C88.1849 158.299 88.8047 159.566 88.8047 161.07C88.8047 162.401 88.4219 163.581 87.6562 164.611C86.8906 165.632 85.9062 166.708 84.7031 167.838L78.6055 173.607H89.3789V176H74.4219Z" fill="#04101C"/>
<path opacity="0.4" d="M185.012 170.695V170.395H187.992V170.682C187.992 171.757 188.402 172.587 189.223 173.17C190.043 173.744 191.146 174.031 192.531 174.031C193.917 174.031 195.015 173.744 195.826 173.17C196.646 172.587 197.057 171.666 197.057 170.408C197.057 169.187 196.596 168.275 195.676 167.674C194.755 167.063 193.511 166.758 191.943 166.758H189.934V164.543H191.807C193.174 164.543 194.268 164.26 195.088 163.695C195.908 163.13 196.318 162.287 196.318 161.166C196.318 160.136 195.977 159.366 195.293 158.855C194.618 158.336 193.689 158.076 192.504 158.076C191.301 158.076 190.339 158.34 189.619 158.869C188.899 159.389 188.539 160.141 188.539 161.125V161.357H185.572V161.111C185.572 159.544 186.21 158.254 187.486 157.242C188.771 156.221 190.458 155.711 192.545 155.711C194.641 155.711 196.3 156.194 197.521 157.16C198.752 158.117 199.367 159.366 199.367 160.906C199.367 161.973 199.071 162.911 198.479 163.723C197.886 164.525 197.002 165.122 195.826 165.514V165.568C197.102 165.833 198.141 166.389 198.943 167.236C199.745 168.075 200.146 169.155 200.146 170.477C200.146 172.29 199.449 173.726 198.055 174.783C196.66 175.84 194.819 176.369 192.531 176.369C190.225 176.369 188.393 175.85 187.035 174.811C185.686 173.762 185.012 172.391 185.012 170.695Z" fill="#04101C"/>
<path opacity="0.4" d="M323.143 176V170.641L323.17 170.094V160.154H323.033L316.02 169.082H323.84L324.742 169.014H328.967V171.475H312.684V169.383L323.293 156.094H326.041V176H323.143Z" fill="#04101C"/>
<path d="M445.271 170.832V170.572H448.238V170.832C448.238 171.853 448.648 172.641 449.469 173.197C450.289 173.753 451.387 174.031 452.764 174.031C454.149 174.031 455.252 173.653 456.072 172.896C456.902 172.131 457.316 171.023 457.316 169.574C457.316 168.125 456.897 167.054 456.059 166.361C455.229 165.66 454.154 165.309 452.832 165.309C451.866 165.309 451.036 165.477 450.344 165.814C449.651 166.152 449.045 166.589 448.525 167.127L446.037 166.129L447.117 156.094H459.189V158.609L449.523 158.596L448.895 164.297C449.359 163.969 449.984 163.663 450.768 163.381C451.551 163.098 452.44 162.957 453.434 162.957C455.384 162.957 457.025 163.522 458.355 164.652C459.686 165.783 460.352 167.4 460.352 169.506C460.352 171.639 459.659 173.316 458.273 174.537C456.888 175.758 455.051 176.369 452.764 176.369C450.458 176.369 448.63 175.854 447.281 174.824C445.941 173.794 445.271 172.464 445.271 170.832Z" fill="#04101C"/>
<path d="M0 28C0 23.5817 3.58172 20 8 20H518C522.418 20 526 23.5817 526 28V94C526 98.4183 522.418 102 518 102H8.00001C3.58173 102 0 98.4183 0 94V28Z" fill="url(#paint0_linear_1_1846)"/>
<line x1="161.5" y1="133" x2="161.5" y2="-1.75109e-08" stroke="#AFB6B3"/>
<line x1="391.5" y1="133" x2="391.5" y2="-1.75109e-08" stroke="#AFB6B3"/>
<defs>
<linearGradient id="paint0_linear_1_1846" x1="0" y1="61" x2="526" y2="61" gradientUnits="userSpaceOnUse">
<stop stop-color="#7A73FF"/>
<stop offset="0.745" stop-color="#FD9BE8"/>
<stop offset="0.7451" stop-color="#83FFBC"/>
</linearGradient>
</defs>
</svg>
