<svg width="526" height="185" viewBox="0 0 526 185" fill="none" xmlns="http://www.w3.org/2000/svg">
<path opacity="0.4" d="M13.2578 175V158.033L7.31055 160.248V157.527L14.9668 154.875H16.3066V175H13.2578Z" fill="#04101C"/>
<path opacity="0.4" d="M74.4219 175V172.99L82.6523 165.211C83.5182 164.363 84.2474 163.538 84.8398 162.736C85.4414 161.925 85.7422 161.096 85.7422 160.248C85.7422 159.309 85.4004 158.553 84.7168 157.979C84.0332 157.395 83.0579 157.104 81.791 157.104C80.4694 157.104 79.4121 157.432 78.6191 158.088C77.8353 158.735 77.4434 159.669 77.4434 160.891V161.164H74.4082V160.85C74.4082 159.054 75.0827 157.587 76.4316 156.447C77.7897 155.299 79.5807 154.725 81.8047 154.725C83.9922 154.725 85.7057 155.24 86.9453 156.27C88.1849 157.299 88.8047 158.566 88.8047 160.07C88.8047 161.401 88.4219 162.581 87.6562 163.611C86.8906 164.632 85.9062 165.708 84.7031 166.838L78.6055 172.607H89.3789V175H74.4219Z" fill="#04101C"/>
<path opacity="0.4" d="M185.012 169.695V169.395H187.992V169.682C187.992 170.757 188.402 171.587 189.223 172.17C190.043 172.744 191.146 173.031 192.531 173.031C193.917 173.031 195.015 172.744 195.826 172.17C196.646 171.587 197.057 170.666 197.057 169.408C197.057 168.187 196.596 167.275 195.676 166.674C194.755 166.063 193.511 165.758 191.943 165.758H189.934V163.543H191.807C193.174 163.543 194.268 163.26 195.088 162.695C195.908 162.13 196.318 161.287 196.318 160.166C196.318 159.136 195.977 158.366 195.293 157.855C194.618 157.336 193.689 157.076 192.504 157.076C191.301 157.076 190.339 157.34 189.619 157.869C188.899 158.389 188.539 159.141 188.539 160.125V160.357H185.572V160.111C185.572 158.544 186.21 157.254 187.486 156.242C188.771 155.221 190.458 154.711 192.545 154.711C194.641 154.711 196.3 155.194 197.521 156.16C198.752 157.117 199.367 158.366 199.367 159.906C199.367 160.973 199.071 161.911 198.479 162.723C197.886 163.525 197.002 164.122 195.826 164.514V164.568C197.102 164.833 198.141 165.389 198.943 166.236C199.745 167.075 200.146 168.155 200.146 169.477C200.146 171.29 199.449 172.726 198.055 173.783C196.66 174.84 194.819 175.369 192.531 175.369C190.225 175.369 188.393 174.85 187.035 173.811C185.686 172.762 185.012 171.391 185.012 169.695Z" fill="#04101C"/>
<path opacity="0.4" d="M323.143 175V169.641L323.17 169.094V159.154H323.033L316.02 168.082H323.84L324.742 168.014H328.967V170.475H312.684V168.383L323.293 155.094H326.041V175H323.143Z" fill="#04101C"/>
<path d="M445.271 169.832V169.572H448.238V169.832C448.238 170.853 448.648 171.641 449.469 172.197C450.289 172.753 451.387 173.031 452.764 173.031C454.149 173.031 455.252 172.653 456.072 171.896C456.902 171.131 457.316 170.023 457.316 168.574C457.316 167.125 456.897 166.054 456.059 165.361C455.229 164.66 454.154 164.309 452.832 164.309C451.866 164.309 451.036 164.477 450.344 164.814C449.651 165.152 449.045 165.589 448.525 166.127L446.037 165.129L447.117 155.094H459.189V157.609L449.523 157.596L448.895 163.297C449.359 162.969 449.984 162.663 450.768 162.381C451.551 162.098 452.44 161.957 453.434 161.957C455.384 161.957 457.025 162.522 458.355 163.652C459.686 164.783 460.352 166.4 460.352 168.506C460.352 170.639 459.659 172.316 458.273 173.537C456.888 174.758 455.051 175.369 452.764 175.369C450.458 175.369 448.63 174.854 447.281 173.824C445.941 172.794 445.271 171.464 445.271 169.832Z" fill="#04101C"/>
<path d="M0 28C0 23.5817 3.58172 20 8 20H518C522.418 20 526 23.5817 526 28V94C526 98.4183 522.418 102 518 102H8.00001C3.58173 102 0 98.4183 0 94V28Z" fill="url(#paint0_linear_1_2008)"/>
<line x1="239.5" y1="137" x2="239.5" y2="-1.80375e-08" stroke="#AFB6B3"/>
<line x1="401.5" y1="137" x2="401.5" y2="-1.80375e-08" stroke="#AFB6B3"/>
<defs>
<linearGradient id="paint0_linear_1_2008" x1="0" y1="61" x2="526" y2="61" gradientUnits="userSpaceOnUse">
<stop stop-color="#7A73FF"/>
<stop offset="0.763271" stop-color="#FD9BE8"/>
<stop offset="0.763549" stop-color="#83FFBC"/>
</linearGradient>
</defs>
</svg>
