<svg width="526" height="181" viewBox="0 0 526 181" fill="none" xmlns="http://www.w3.org/2000/svg">
<path opacity="0.4" d="M15.1895 163.357V158.668C15.1895 156.207 15.8503 154.27 17.1719 152.857C18.4935 151.436 20.3574 150.725 22.7637 150.725C25.1608 150.725 27.0247 151.431 28.3555 152.844C29.6862 154.247 30.3516 156.189 30.3516 158.668V163.357C30.3516 165.873 29.6816 167.842 28.3418 169.264C27.0111 170.676 25.1517 171.378 22.7637 171.369C20.3483 171.369 18.4798 170.658 17.1582 169.236C15.8457 167.814 15.1895 165.855 15.1895 163.357ZM18.2656 163.604C18.2656 165.29 18.6302 166.616 19.3594 167.582C20.0977 168.539 21.2324 169.018 22.7637 169.018C24.2949 169.018 25.4297 168.539 26.168 167.582C26.9154 166.616 27.2891 165.29 27.2891 163.604V158.449C27.2891 156.799 26.9154 155.496 26.168 154.539C25.4297 153.582 24.2949 153.104 22.7637 153.104C21.2324 153.104 20.0977 153.582 19.3594 154.539C18.6302 155.496 18.2656 156.799 18.2656 158.449V163.604Z" fill="#04101C"/>
<path opacity="0.4" d="M270.93 157.41C270.93 155.414 271.627 153.801 273.021 152.57C274.425 151.34 276.257 150.725 278.518 150.725C280.769 150.725 282.651 151.417 284.164 152.803C285.677 154.179 286.434 156.398 286.434 159.461V159.926C286.434 163.389 285.349 166.142 283.18 168.184C281.02 170.225 277.966 171.26 274.02 171.287H273.596V168.854H273.992C276.918 168.854 279.224 168.138 280.91 166.707C282.596 165.276 283.439 163.002 283.439 159.885L283.426 159.324C283.426 157.055 282.97 155.446 282.059 154.498C281.147 153.55 279.962 153.076 278.504 153.076C277.073 153.076 275.956 153.441 275.154 154.17C274.361 154.899 273.965 155.979 273.965 157.41C273.965 158.786 274.361 159.835 275.154 160.555C275.956 161.266 277.068 161.621 278.49 161.621C279.83 161.621 280.992 161.252 281.977 160.514C282.961 159.775 283.458 158.75 283.467 157.438L284.602 157.465C284.602 159.352 283.959 160.887 282.674 162.072C281.398 163.257 279.739 163.85 277.697 163.85C275.628 163.85 273.983 163.266 272.762 162.1C271.54 160.933 270.93 159.37 270.93 157.41Z" fill="#04101C"/>
<path d="M482.258 171V154.033L476.311 156.248V153.527L483.967 150.875H485.307V171H482.258ZM494.328 162.633V162.182C494.328 158.691 495.409 155.92 497.569 153.869C499.738 151.809 502.796 150.779 506.743 150.779H507.153V153.199H506.756C503.83 153.199 501.52 153.919 499.825 155.359C498.138 156.799 497.295 159.087 497.295 162.223L497.323 162.77C497.323 165.057 497.778 166.675 498.69 167.623C499.61 168.562 500.795 169.031 502.244 169.031C503.675 169.031 504.792 168.662 505.594 167.924C506.396 167.176 506.797 166.074 506.797 164.615C506.797 163.212 506.396 162.145 505.594 161.416C504.792 160.687 503.68 160.322 502.258 160.322C500.927 160.322 499.765 160.701 498.772 161.457C497.787 162.204 497.291 163.248 497.282 164.588L496.147 164.561C496.147 162.646 496.789 161.088 498.075 159.885C499.36 158.682 501.023 158.08 503.065 158.08C505.143 158.08 506.788 158.677 508 159.871C509.222 161.056 509.832 162.637 509.832 164.615C509.832 166.63 509.131 168.261 507.727 169.51C506.332 170.749 504.5 171.369 502.231 171.369C499.979 171.369 498.097 170.681 496.584 169.305C495.08 167.919 494.328 165.695 494.328 162.633Z" fill="#04101C"/>
<rect y="20" width="526" height="82" rx="8" fill="url(#paint0_linear_1_2019)"/>
<line x1="278.5" y1="136" x2="278.5" y2="-1.79059e-08" stroke="#AFB6B3"/>
<line x1="493.5" y1="136" x2="493.5" y2="-1.79059e-08" stroke="#AFB6B3"/>
<defs>
<linearGradient id="paint0_linear_1_2019" x1="0" y1="61" x2="526" y2="61" gradientUnits="userSpaceOnUse">
<stop stop-color="#7A73FF"/>
<stop offset="0.53" stop-color="#FD9BE8"/>
<stop offset="0.5301" stop-color="#83FFBC"/>
</linearGradient>
</defs>
</svg>
