<svg width="526" height="184" viewBox="0 0 526 184" fill="none" xmlns="http://www.w3.org/2000/svg">
<path opacity="0.4" d="M15.1895 166.357V161.668C15.1895 159.207 15.8503 157.27 17.1719 155.857C18.4935 154.436 20.3574 153.725 22.7637 153.725C25.1608 153.725 27.0247 154.431 28.3555 155.844C29.6862 157.247 30.3516 159.189 30.3516 161.668V166.357C30.3516 168.873 29.6816 170.842 28.3418 172.264C27.0111 173.676 25.1517 174.378 22.7637 174.369C20.3483 174.369 18.4798 173.658 17.1582 172.236C15.8457 170.814 15.1895 168.855 15.1895 166.357ZM18.2656 166.604C18.2656 168.29 18.6302 169.616 19.3594 170.582C20.0977 171.539 21.2324 172.018 22.7637 172.018C24.2949 172.018 25.4297 171.539 26.168 170.582C26.9154 169.616 27.2891 168.29 27.2891 166.604V161.449C27.2891 159.799 26.9154 158.496 26.168 157.539C25.4297 156.582 24.2949 156.104 22.7637 156.104C21.2324 156.104 20.0977 156.582 19.3594 157.539C18.6302 158.496 18.2656 159.799 18.2656 161.449V166.604Z" fill="#04101C"/>
<path opacity="0.4" d="M270.93 160.41C270.93 158.414 271.627 156.801 273.021 155.57C274.425 154.34 276.257 153.725 278.518 153.725C280.769 153.725 282.651 154.417 284.164 155.803C285.677 157.179 286.434 159.398 286.434 162.461V162.926C286.434 166.389 285.349 169.142 283.18 171.184C281.02 173.225 277.966 174.26 274.02 174.287H273.596V171.854H273.992C276.918 171.854 279.224 171.138 280.91 169.707C282.596 168.276 283.439 166.002 283.439 162.885L283.426 162.324C283.426 160.055 282.97 158.446 282.059 157.498C281.147 156.55 279.962 156.076 278.504 156.076C277.073 156.076 275.956 156.441 275.154 157.17C274.361 157.899 273.965 158.979 273.965 160.41C273.965 161.786 274.361 162.835 275.154 163.555C275.956 164.266 277.068 164.621 278.49 164.621C279.83 164.621 280.992 164.252 281.977 163.514C282.961 162.775 283.458 161.75 283.467 160.438L284.602 160.465C284.602 162.352 283.959 163.887 282.674 165.072C281.398 166.257 279.739 166.85 277.697 166.85C275.628 166.85 273.983 166.266 272.762 165.1C271.54 163.933 270.93 162.37 270.93 160.41Z" fill="#04101C"/>
<path d="M482.258 174V157.033L476.311 159.248V156.527L483.967 153.875H485.307V174H482.258ZM494.328 165.633V165.182C494.328 161.691 495.409 158.92 497.569 156.869C499.738 154.809 502.796 153.779 506.743 153.779H507.153V156.199H506.756C503.83 156.199 501.52 156.919 499.825 158.359C498.138 159.799 497.295 162.087 497.295 165.223L497.323 165.77C497.323 168.057 497.778 169.675 498.69 170.623C499.61 171.562 500.795 172.031 502.244 172.031C503.675 172.031 504.792 171.662 505.594 170.924C506.396 170.176 506.797 169.074 506.797 167.615C506.797 166.212 506.396 165.145 505.594 164.416C504.792 163.687 503.68 163.322 502.258 163.322C500.927 163.322 499.765 163.701 498.772 164.457C497.787 165.204 497.291 166.248 497.282 167.588L496.147 167.561C496.147 165.646 496.789 164.088 498.075 162.885C499.36 161.682 501.023 161.08 503.065 161.08C505.143 161.08 506.788 161.677 508 162.871C509.222 164.056 509.832 165.637 509.832 167.615C509.832 169.63 509.131 171.261 507.727 172.51C506.332 173.749 504.5 174.369 502.231 174.369C499.979 174.369 498.097 173.681 496.584 172.305C495.08 170.919 494.328 168.695 494.328 165.633Z" fill="#04101C"/>
<rect y="20" width="526" height="82" rx="8" fill="url(#paint0_linear_1_1837)"/>
<line x1="278.5" y1="132" x2="278.5" y2="-1.73792e-08" stroke="#AFB6B3"/>
<line x1="493.5" y1="132" x2="493.5" y2="-1.73792e-08" stroke="#AFB6B3"/>
<defs>
<linearGradient id="paint0_linear_1_1837" x1="0" y1="61" x2="526" y2="61" gradientUnits="userSpaceOnUse">
<stop stop-color="#7A73FF"/>
<stop offset="0.53" stop-color="#FD9BE8"/>
<stop offset="0.5301" stop-color="#83FFBC"/>
</linearGradient>
</defs>
</svg>
