<svg width="529" height="174" viewBox="0 0 529 174" fill="none" xmlns="http://www.w3.org/2000/svg">
<path opacity="0.4" d="M15.1895 156.357V151.668C15.1895 149.207 15.8503 147.27 17.1719 145.857C18.4935 144.436 20.3574 143.725 22.7637 143.725C25.1608 143.725 27.0247 144.431 28.3555 145.844C29.6862 147.247 30.3516 149.189 30.3516 151.668V156.357C30.3516 158.873 29.6816 160.842 28.3418 162.264C27.0111 163.676 25.1517 164.378 22.7637 164.369C20.3483 164.369 18.4798 163.658 17.1582 162.236C15.8457 160.814 15.1895 158.855 15.1895 156.357ZM18.2656 156.604C18.2656 158.29 18.6302 159.616 19.3594 160.582C20.0977 161.539 21.2324 162.018 22.7637 162.018C24.2949 162.018 25.4297 161.539 26.168 160.582C26.9154 159.616 27.2891 158.29 27.2891 156.604V151.449C27.2891 149.799 26.9154 148.496 26.168 147.539C25.4297 146.582 24.2949 146.104 22.7637 146.104C21.2324 146.104 20.0977 146.582 19.3594 147.539C18.6302 148.496 18.2656 149.799 18.2656 151.449V156.604Z" fill="#04101C"/>
<path d="M459.301 145.527V143.094H476.828V145.527H469.582V163H466.547V145.527H459.301ZM479.315 156.273V155.891C479.315 153.776 480.039 152.067 481.489 150.764C482.947 149.451 484.884 148.795 487.299 148.795C489.715 148.795 491.647 149.451 493.096 150.764C494.554 152.067 495.284 153.776 495.284 155.891V156.273C495.284 158.406 494.554 160.129 493.096 161.441C491.647 162.745 489.715 163.396 487.299 163.396C484.884 163.396 482.947 162.745 481.489 161.441C480.039 160.129 479.315 158.406 479.315 156.273ZM482.309 155.836V156.342C482.309 157.755 482.733 158.898 483.58 159.773C484.428 160.648 485.668 161.086 487.299 161.086C488.931 161.086 490.166 160.648 491.004 159.773C491.852 158.898 492.276 157.755 492.276 156.342V155.836C492.276 154.432 491.852 153.293 491.004 152.418C490.166 151.543 488.931 151.105 487.299 151.105C485.668 151.105 484.428 151.543 483.58 152.418C482.733 153.293 482.309 154.432 482.309 155.836ZM499.971 149.205H513.493V163H510.553V151.475H502.911V163H499.971V149.205Z" fill="#04101C"/>
<rect y="20" width="526" height="82" rx="8" fill="url(#paint0_linear_2053_56561)"/>
<line x1="23.5" y1="122" x2="23.5" y2="-2.18557e-08" stroke="#AFB6B3"/>
<line x1="493.5" y1="122" x2="493.5" y2="-2.18557e-08" stroke="#AFB6B3"/>
<defs>
<linearGradient id="paint0_linear_2053_56561" x1="0" y1="61" x2="526" y2="61" gradientUnits="userSpaceOnUse">
<stop offset="0.0119905" stop-color="#7A73FF"/>
<stop offset="0.05" stop-color="#FD9BE8"/>
<stop offset="0.0501" stop-color="#83FFBC"/>
</linearGradient>
</defs>
</svg>
