<svg width="526" height="195" viewBox="0 0 526 195" fill="none" xmlns="http://www.w3.org/2000/svg">
<path opacity="0.4" d="M15.1895 177.357V172.668C15.1895 170.207 15.8503 168.27 17.1719 166.857C18.4935 165.436 20.3574 164.725 22.7637 164.725C25.1608 164.725 27.0247 165.431 28.3555 166.844C29.6862 168.247 30.3516 170.189 30.3516 172.668V177.357C30.3516 179.873 29.6816 181.842 28.3418 183.264C27.0111 184.676 25.1517 185.378 22.7637 185.369C20.3483 185.369 18.4798 184.658 17.1582 183.236C15.8457 181.814 15.1895 179.855 15.1895 177.357ZM18.2656 177.604C18.2656 179.29 18.6302 180.616 19.3594 181.582C20.0977 182.539 21.2324 183.018 22.7637 183.018C24.2949 183.018 25.4297 182.539 26.168 181.582C26.9154 180.616 27.2891 179.29 27.2891 177.604V172.449C27.2891 170.799 26.9154 169.496 26.168 168.539C25.4297 167.582 24.2949 167.104 22.7637 167.104C21.2324 167.104 20.0977 167.582 19.3594 168.539C18.6302 169.496 18.2656 170.799 18.2656 172.449V177.604Z" fill="#04101C"/>
<path opacity="0.4" d="M234.271 179.832V179.572H237.238V179.832C237.238 180.853 237.648 181.641 238.469 182.197C239.289 182.753 240.387 183.031 241.764 183.031C243.149 183.031 244.252 182.653 245.072 181.896C245.902 181.131 246.316 180.023 246.316 178.574C246.316 177.125 245.897 176.054 245.059 175.361C244.229 174.66 243.154 174.309 241.832 174.309C240.866 174.309 240.036 174.477 239.344 174.814C238.651 175.152 238.045 175.589 237.525 176.127L235.037 175.129L236.117 165.094H248.189V167.609L238.523 167.596L237.895 173.297C238.359 172.969 238.984 172.663 239.768 172.381C240.551 172.098 241.44 171.957 242.434 171.957C244.384 171.957 246.025 172.522 247.355 173.652C248.686 174.783 249.352 176.4 249.352 178.506C249.352 180.639 248.659 182.316 247.273 183.537C245.888 184.758 244.051 185.369 241.764 185.369C239.458 185.369 237.63 184.854 236.281 183.824C234.941 182.794 234.271 181.464 234.271 179.832ZM253.397 177.357V172.668C253.397 170.207 254.058 168.27 255.379 166.857C256.701 165.436 258.565 164.725 260.971 164.725C263.368 164.725 265.232 165.431 266.563 166.844C267.894 168.247 268.559 170.189 268.559 172.668V177.357C268.559 179.873 267.889 181.842 266.549 183.264C265.218 184.676 263.359 185.378 260.971 185.369C258.556 185.369 256.687 184.658 255.366 183.236C254.053 181.814 253.397 179.855 253.397 177.357ZM256.473 177.604C256.473 179.29 256.838 180.616 257.567 181.582C258.305 182.539 259.44 183.018 260.971 183.018C262.502 183.018 263.637 182.539 264.375 181.582C265.123 180.616 265.496 179.29 265.496 177.604V172.449C265.496 170.799 265.123 169.496 264.375 168.539C263.637 167.582 262.502 167.104 260.971 167.104C259.44 167.104 258.305 167.582 257.567 168.539C256.838 169.496 256.473 170.799 256.473 172.449V177.604ZM272.29 171.164V169.523C272.29 168.092 272.755 166.949 273.684 166.092C274.614 165.226 275.858 164.793 277.417 164.793C278.984 164.793 280.228 165.226 281.149 166.092C282.079 166.958 282.544 168.102 282.544 169.523V171.164C282.544 172.613 282.074 173.775 281.135 174.65C280.206 175.516 278.966 175.949 277.417 175.949C275.867 175.949 274.623 175.516 273.684 174.65C272.755 173.785 272.29 172.622 272.29 171.164ZM274.778 171.205C274.778 172.016 275.01 172.673 275.475 173.174C275.94 173.675 276.587 173.926 277.417 173.926C278.255 173.926 278.902 173.68 279.358 173.188C279.823 172.686 280.055 172.025 280.055 171.205V169.51C280.055 168.717 279.827 168.074 279.372 167.582C278.916 167.081 278.264 166.83 277.417 166.83C276.578 166.83 275.926 167.081 275.462 167.582C275.006 168.074 274.778 168.717 274.778 169.51V171.205ZM292.647 165.627L279.495 185.602L277.553 184.344L290.692 164.383L292.647 165.627ZM287.52 180.543V178.902C287.52 177.471 287.985 176.327 288.915 175.471C289.844 174.605 291.089 174.172 292.647 174.172C294.215 174.172 295.459 174.605 296.38 175.471C297.309 176.337 297.774 177.48 297.774 178.902V180.543C297.774 181.992 297.305 183.154 296.366 184.029C295.436 184.895 294.197 185.328 292.647 185.328C291.098 185.328 289.853 184.895 288.915 184.029C287.985 183.163 287.52 182.001 287.52 180.543ZM290.008 180.584C290.008 181.395 290.241 182.051 290.706 182.553C291.171 183.054 291.818 183.305 292.647 183.305C293.486 183.305 294.133 183.059 294.589 182.566C295.053 182.065 295.286 181.404 295.286 180.584V178.889C295.286 178.096 295.058 177.453 294.602 176.961C294.146 176.46 293.495 176.209 292.647 176.209C291.809 176.209 291.157 176.46 290.692 176.961C290.236 177.453 290.008 178.096 290.008 178.889V180.584Z" fill="#04101C"/>
<path d="M445.23 179.695C445.23 178.438 445.627 177.389 446.42 176.551C447.222 175.703 448.188 175.115 449.318 174.787V174.732C448.37 174.386 447.568 173.812 446.912 173.01C446.265 172.208 445.941 171.223 445.941 170.057C445.941 168.443 446.566 167.154 447.814 166.188C449.072 165.212 450.722 164.725 452.764 164.725C454.805 164.725 456.451 165.217 457.699 166.201C458.957 167.186 459.586 168.471 459.586 170.057C459.586 171.242 459.267 172.23 458.629 173.023C458 173.816 457.216 174.382 456.277 174.719V174.773C457.408 175.102 458.36 175.689 459.135 176.537C459.91 177.376 460.297 178.424 460.297 179.682C460.297 181.495 459.595 182.899 458.191 183.893C456.797 184.877 454.988 185.369 452.764 185.369C450.54 185.369 448.726 184.877 447.322 183.893C445.928 182.899 445.23 181.5 445.23 179.695ZM448.266 179.49C448.266 180.584 448.662 181.454 449.455 182.102C450.257 182.74 451.36 183.059 452.764 183.059C454.167 183.059 455.266 182.74 456.059 182.102C456.861 181.464 457.262 180.593 457.262 179.49C457.262 178.396 456.856 177.531 456.045 176.893C455.243 176.245 454.149 175.922 452.764 175.922C451.378 175.922 450.28 176.241 449.469 176.879C448.667 177.517 448.266 178.387 448.266 179.49ZM448.881 170.303C448.881 171.324 449.232 172.148 449.934 172.777C450.635 173.397 451.579 173.707 452.764 173.707C453.958 173.707 454.901 173.397 455.594 172.777C456.286 172.148 456.633 171.324 456.633 170.303C456.633 169.337 456.286 168.553 455.594 167.951C454.901 167.34 453.958 167.035 452.764 167.035C451.57 167.035 450.622 167.336 449.92 167.938C449.227 168.53 448.881 169.318 448.881 170.303ZM464.479 179.832V179.572H467.446V179.832C467.446 180.853 467.856 181.641 468.676 182.197C469.496 182.753 470.595 183.031 471.971 183.031C473.356 183.031 474.459 182.653 475.28 181.896C476.109 181.131 476.524 180.023 476.524 178.574C476.524 177.125 476.104 176.054 475.266 175.361C474.437 174.66 473.361 174.309 472.039 174.309C471.073 174.309 470.244 174.477 469.551 174.814C468.858 175.152 468.252 175.589 467.733 176.127L465.244 175.129L466.325 165.094H478.397V167.609L468.731 167.596L468.102 173.297C468.567 172.969 469.191 172.663 469.975 172.381C470.759 172.098 471.647 171.957 472.641 171.957C474.591 171.957 476.232 172.522 477.563 173.652C478.894 174.783 479.559 176.4 479.559 178.506C479.559 180.639 478.866 182.316 477.481 183.537C476.095 184.758 474.259 185.369 471.971 185.369C469.665 185.369 467.838 184.854 466.489 183.824C465.149 182.794 464.479 181.464 464.479 179.832ZM483.29 171.164V169.523C483.29 168.092 483.755 166.949 484.684 166.092C485.614 165.226 486.858 164.793 488.417 164.793C489.984 164.793 491.228 165.226 492.149 166.092C493.079 166.958 493.544 168.102 493.544 169.523V171.164C493.544 172.613 493.074 173.775 492.135 174.65C491.206 175.516 489.966 175.949 488.417 175.949C486.867 175.949 485.623 175.516 484.684 174.65C483.755 173.785 483.29 172.622 483.29 171.164ZM485.778 171.205C485.778 172.016 486.01 172.673 486.475 173.174C486.94 173.675 487.587 173.926 488.417 173.926C489.255 173.926 489.902 173.68 490.358 173.188C490.823 172.686 491.055 172.025 491.055 171.205V169.51C491.055 168.717 490.827 168.074 490.372 167.582C489.916 167.081 489.264 166.83 488.417 166.83C487.578 166.83 486.926 167.081 486.462 167.582C486.006 168.074 485.778 168.717 485.778 169.51V171.205ZM503.647 165.627L490.495 185.602L488.553 184.344L501.692 164.383L503.647 165.627ZM498.52 180.543V178.902C498.52 177.471 498.985 176.327 499.915 175.471C500.844 174.605 502.089 174.172 503.647 174.172C505.215 174.172 506.459 174.605 507.38 175.471C508.309 176.337 508.774 177.48 508.774 178.902V180.543C508.774 181.992 508.305 183.154 507.366 184.029C506.436 184.895 505.197 185.328 503.647 185.328C502.098 185.328 500.853 184.895 499.915 184.029C498.985 183.163 498.52 182.001 498.52 180.543ZM501.008 180.584C501.008 181.395 501.241 182.051 501.706 182.553C502.171 183.054 502.818 183.305 503.647 183.305C504.486 183.305 505.133 183.059 505.589 182.566C506.053 182.065 506.286 181.404 506.286 180.584V178.889C506.286 178.096 506.058 177.453 505.602 176.961C505.146 176.46 504.495 176.209 503.647 176.209C502.809 176.209 502.157 176.46 501.692 176.961C501.236 177.453 501.008 178.096 501.008 178.889V180.584Z" fill="#04101C"/>
<rect y="20" width="526" height="82" rx="8" fill="url(#paint0_linear_1_1866)"/>
<line x1="120.5" y1="140" x2="120.5" y2="-1.84325e-08" stroke="#AFB6B3"/>
<line x1="478.5" y1="140" x2="478.5" y2="-1.84325e-08" stroke="#AFB6B3"/>
<defs>
<linearGradient id="paint0_linear_1_1866" x1="0" y1="61" x2="526" y2="61" gradientUnits="userSpaceOnUse">
<stop offset="0.0239582" stop-color="#7A73FF"/>
<stop offset="0.232192" stop-color="#FD9BE8"/>
<stop offset="0.232292" stop-color="#83FFBC"/>
</linearGradient>
</defs>
</svg>
