<svg width="526" height="212" viewBox="0 0 526 212" fill="none" xmlns="http://www.w3.org/2000/svg">
<path opacity="0.4" d="M15.1895 194.357V189.668C15.1895 187.207 15.8503 185.27 17.1719 183.857C18.4935 182.436 20.3574 181.725 22.7637 181.725C25.1608 181.725 27.0247 182.431 28.3555 183.844C29.6862 185.247 30.3516 187.189 30.3516 189.668V194.357C30.3516 196.873 29.6816 198.842 28.3418 200.264C27.0111 201.676 25.1517 202.378 22.7637 202.369C20.3483 202.369 18.4798 201.658 17.1582 200.236C15.8457 198.814 15.1895 196.855 15.1895 194.357ZM18.2656 194.604C18.2656 196.29 18.6302 197.616 19.3594 198.582C20.0977 199.539 21.2324 200.018 22.7637 200.018C24.2949 200.018 25.4297 199.539 26.168 198.582C26.9154 197.616 27.2891 196.29 27.2891 194.604V189.449C27.2891 187.799 26.9154 186.496 26.168 185.539C25.4297 184.582 24.2949 184.104 22.7637 184.104C21.2324 184.104 20.0977 184.582 19.3594 185.539C18.6302 186.496 18.2656 187.799 18.2656 189.449V194.604Z" fill="#04101C"/>
<path opacity="0.4" d="M234.271 196.832V196.572H237.238V196.832C237.238 197.853 237.648 198.641 238.469 199.197C239.289 199.753 240.387 200.031 241.764 200.031C243.149 200.031 244.252 199.653 245.072 198.896C245.902 198.131 246.316 197.023 246.316 195.574C246.316 194.125 245.897 193.054 245.059 192.361C244.229 191.66 243.154 191.309 241.832 191.309C240.866 191.309 240.036 191.477 239.344 191.814C238.651 192.152 238.045 192.589 237.525 193.127L235.037 192.129L236.117 182.094H248.189V184.609L238.523 184.596L237.895 190.297C238.359 189.969 238.984 189.663 239.768 189.381C240.551 189.098 241.44 188.957 242.434 188.957C244.384 188.957 246.025 189.522 247.355 190.652C248.686 191.783 249.352 193.4 249.352 195.506C249.352 197.639 248.659 199.316 247.273 200.537C245.888 201.758 244.051 202.369 241.764 202.369C239.458 202.369 237.63 201.854 236.281 200.824C234.941 199.794 234.271 198.464 234.271 196.832ZM253.397 194.357V189.668C253.397 187.207 254.058 185.27 255.379 183.857C256.701 182.436 258.565 181.725 260.971 181.725C263.368 181.725 265.232 182.431 266.563 183.844C267.894 185.247 268.559 187.189 268.559 189.668V194.357C268.559 196.873 267.889 198.842 266.549 200.264C265.218 201.676 263.359 202.378 260.971 202.369C258.556 202.369 256.687 201.658 255.366 200.236C254.053 198.814 253.397 196.855 253.397 194.357ZM256.473 194.604C256.473 196.29 256.838 197.616 257.567 198.582C258.305 199.539 259.44 200.018 260.971 200.018C262.502 200.018 263.637 199.539 264.375 198.582C265.123 197.616 265.496 196.29 265.496 194.604V189.449C265.496 187.799 265.123 186.496 264.375 185.539C263.637 184.582 262.502 184.104 260.971 184.104C259.44 184.104 258.305 184.582 257.567 185.539C256.838 186.496 256.473 187.799 256.473 189.449V194.604ZM272.29 188.164V186.523C272.29 185.092 272.755 183.949 273.684 183.092C274.614 182.226 275.858 181.793 277.417 181.793C278.984 181.793 280.228 182.226 281.149 183.092C282.079 183.958 282.544 185.102 282.544 186.523V188.164C282.544 189.613 282.074 190.775 281.135 191.65C280.206 192.516 278.966 192.949 277.417 192.949C275.867 192.949 274.623 192.516 273.684 191.65C272.755 190.785 272.29 189.622 272.29 188.164ZM274.778 188.205C274.778 189.016 275.01 189.673 275.475 190.174C275.94 190.675 276.587 190.926 277.417 190.926C278.255 190.926 278.902 190.68 279.358 190.188C279.823 189.686 280.055 189.025 280.055 188.205V186.51C280.055 185.717 279.827 185.074 279.372 184.582C278.916 184.081 278.264 183.83 277.417 183.83C276.578 183.83 275.926 184.081 275.462 184.582C275.006 185.074 274.778 185.717 274.778 186.51V188.205ZM292.647 182.627L279.495 202.602L277.553 201.344L290.692 181.383L292.647 182.627ZM287.52 197.543V195.902C287.52 194.471 287.985 193.327 288.915 192.471C289.844 191.605 291.089 191.172 292.647 191.172C294.215 191.172 295.459 191.605 296.38 192.471C297.309 193.337 297.774 194.48 297.774 195.902V197.543C297.774 198.992 297.305 200.154 296.366 201.029C295.436 201.895 294.197 202.328 292.647 202.328C291.098 202.328 289.853 201.895 288.915 201.029C287.985 200.163 287.52 199.001 287.52 197.543ZM290.008 197.584C290.008 198.395 290.241 199.051 290.706 199.553C291.171 200.054 291.818 200.305 292.647 200.305C293.486 200.305 294.133 200.059 294.589 199.566C295.053 199.065 295.286 198.404 295.286 197.584V195.889C295.286 195.096 295.058 194.453 294.602 193.961C294.146 193.46 293.495 193.209 292.647 193.209C291.809 193.209 291.157 193.46 290.692 193.961C290.236 194.453 290.008 195.096 290.008 195.889V197.584Z" fill="#04101C"/>
<path d="M445.23 196.695C445.23 195.438 445.627 194.389 446.42 193.551C447.222 192.703 448.188 192.115 449.318 191.787V191.732C448.37 191.386 447.568 190.812 446.912 190.01C446.265 189.208 445.941 188.223 445.941 187.057C445.941 185.443 446.566 184.154 447.814 183.188C449.072 182.212 450.722 181.725 452.764 181.725C454.805 181.725 456.451 182.217 457.699 183.201C458.957 184.186 459.586 185.471 459.586 187.057C459.586 188.242 459.267 189.23 458.629 190.023C458 190.816 457.216 191.382 456.277 191.719V191.773C457.408 192.102 458.36 192.689 459.135 193.537C459.91 194.376 460.297 195.424 460.297 196.682C460.297 198.495 459.595 199.899 458.191 200.893C456.797 201.877 454.988 202.369 452.764 202.369C450.54 202.369 448.726 201.877 447.322 200.893C445.928 199.899 445.23 198.5 445.23 196.695ZM448.266 196.49C448.266 197.584 448.662 198.454 449.455 199.102C450.257 199.74 451.36 200.059 452.764 200.059C454.167 200.059 455.266 199.74 456.059 199.102C456.861 198.464 457.262 197.593 457.262 196.49C457.262 195.396 456.856 194.531 456.045 193.893C455.243 193.245 454.149 192.922 452.764 192.922C451.378 192.922 450.28 193.241 449.469 193.879C448.667 194.517 448.266 195.387 448.266 196.49ZM448.881 187.303C448.881 188.324 449.232 189.148 449.934 189.777C450.635 190.397 451.579 190.707 452.764 190.707C453.958 190.707 454.901 190.397 455.594 189.777C456.286 189.148 456.633 188.324 456.633 187.303C456.633 186.337 456.286 185.553 455.594 184.951C454.901 184.34 453.958 184.035 452.764 184.035C451.57 184.035 450.622 184.336 449.92 184.938C449.227 185.53 448.881 186.318 448.881 187.303ZM464.479 196.832V196.572H467.446V196.832C467.446 197.853 467.856 198.641 468.676 199.197C469.496 199.753 470.595 200.031 471.971 200.031C473.356 200.031 474.459 199.653 475.28 198.896C476.109 198.131 476.524 197.023 476.524 195.574C476.524 194.125 476.104 193.054 475.266 192.361C474.437 191.66 473.361 191.309 472.039 191.309C471.073 191.309 470.244 191.477 469.551 191.814C468.858 192.152 468.252 192.589 467.733 193.127L465.244 192.129L466.325 182.094H478.397V184.609L468.731 184.596L468.102 190.297C468.567 189.969 469.191 189.663 469.975 189.381C470.759 189.098 471.647 188.957 472.641 188.957C474.591 188.957 476.232 189.522 477.563 190.652C478.894 191.783 479.559 193.4 479.559 195.506C479.559 197.639 478.866 199.316 477.481 200.537C476.095 201.758 474.259 202.369 471.971 202.369C469.665 202.369 467.838 201.854 466.489 200.824C465.149 199.794 464.479 198.464 464.479 196.832ZM483.29 188.164V186.523C483.29 185.092 483.755 183.949 484.684 183.092C485.614 182.226 486.858 181.793 488.417 181.793C489.984 181.793 491.228 182.226 492.149 183.092C493.079 183.958 493.544 185.102 493.544 186.523V188.164C493.544 189.613 493.074 190.775 492.135 191.65C491.206 192.516 489.966 192.949 488.417 192.949C486.867 192.949 485.623 192.516 484.684 191.65C483.755 190.785 483.29 189.622 483.29 188.164ZM485.778 188.205C485.778 189.016 486.01 189.673 486.475 190.174C486.94 190.675 487.587 190.926 488.417 190.926C489.255 190.926 489.902 190.68 490.358 190.188C490.823 189.686 491.055 189.025 491.055 188.205V186.51C491.055 185.717 490.827 185.074 490.372 184.582C489.916 184.081 489.264 183.83 488.417 183.83C487.578 183.83 486.926 184.081 486.462 184.582C486.006 185.074 485.778 185.717 485.778 186.51V188.205ZM503.647 182.627L490.495 202.602L488.553 201.344L501.692 181.383L503.647 182.627ZM498.52 197.543V195.902C498.52 194.471 498.985 193.327 499.915 192.471C500.844 191.605 502.089 191.172 503.647 191.172C505.215 191.172 506.459 191.605 507.38 192.471C508.309 193.337 508.774 194.48 508.774 195.902V197.543C508.774 198.992 508.305 200.154 507.366 201.029C506.436 201.895 505.197 202.328 503.647 202.328C502.098 202.328 500.853 201.895 499.915 201.029C498.985 200.163 498.52 199.001 498.52 197.543ZM501.008 197.584C501.008 198.395 501.241 199.051 501.706 199.553C502.171 200.054 502.818 200.305 503.647 200.305C504.486 200.305 505.133 200.059 505.589 199.566C506.053 199.065 506.286 198.404 506.286 197.584V195.889C506.286 195.096 506.058 194.453 505.602 193.961C505.146 193.46 504.495 193.209 503.647 193.209C502.809 193.209 502.157 193.46 501.692 193.961C501.236 194.453 501.008 195.096 501.008 195.889V197.584Z" fill="#04101C"/>
<rect y="20" width="526" height="120" rx="8" fill="url(#paint0_linear_414_13233)"/>
<line x1="120.5" y1="166" x2="120.5" y2="-2.18557e-08" stroke="#AFB6B3"/>
<line x1="478.5" y1="166" x2="478.5" y2="-2.18557e-08" stroke="#AFB6B3"/>
<defs>
<linearGradient id="paint0_linear_414_13233" x1="0" y1="80" x2="526" y2="80" gradientUnits="userSpaceOnUse">
<stop offset="0.0239582" stop-color="#7A73FF"/>
<stop offset="0.232192" stop-color="#FD9BE8"/>
<stop offset="0.232292" stop-color="#83FFBC"/>
</linearGradient>
</defs>
</svg>
