<svg width="526" height="212" viewBox="0 0 526 212" fill="none" xmlns="http://www.w3.org/2000/svg">
<path opacity="0.4" d="M13.2578 202V185.033L7.31055 187.248V184.527L14.9668 181.875H16.3066V202H13.2578Z" fill="#04101C"/>
<path opacity="0.4" d="M74.4219 202V199.99L82.6523 192.211C83.5182 191.363 84.2474 190.538 84.8398 189.736C85.4414 188.925 85.7422 188.096 85.7422 187.248C85.7422 186.309 85.4004 185.553 84.7168 184.979C84.0332 184.395 83.0579 184.104 81.791 184.104C80.4694 184.104 79.4121 184.432 78.6191 185.088C77.8353 185.735 77.4434 186.669 77.4434 187.891V188.164H74.4082V187.85C74.4082 186.054 75.0827 184.587 76.4316 183.447C77.7897 182.299 79.5807 181.725 81.8047 181.725C83.9922 181.725 85.7057 182.24 86.9453 183.27C88.1849 184.299 88.8047 185.566 88.8047 187.07C88.8047 188.401 88.4219 189.581 87.6562 190.611C86.8906 191.632 85.9062 192.708 84.7031 193.838L78.6055 199.607H89.3789V202H74.4219Z" fill="#04101C"/>
<path opacity="0.4" d="M185.012 196.695V196.395H187.992V196.682C187.992 197.757 188.402 198.587 189.223 199.17C190.043 199.744 191.146 200.031 192.531 200.031C193.917 200.031 195.015 199.744 195.826 199.17C196.646 198.587 197.057 197.666 197.057 196.408C197.057 195.187 196.596 194.275 195.676 193.674C194.755 193.063 193.511 192.758 191.943 192.758H189.934V190.543H191.807C193.174 190.543 194.268 190.26 195.088 189.695C195.908 189.13 196.318 188.287 196.318 187.166C196.318 186.136 195.977 185.366 195.293 184.855C194.618 184.336 193.689 184.076 192.504 184.076C191.301 184.076 190.339 184.34 189.619 184.869C188.899 185.389 188.539 186.141 188.539 187.125V187.357H185.572V187.111C185.572 185.544 186.21 184.254 187.486 183.242C188.771 182.221 190.458 181.711 192.545 181.711C194.641 181.711 196.3 182.194 197.521 183.16C198.752 184.117 199.367 185.366 199.367 186.906C199.367 187.973 199.071 188.911 198.479 189.723C197.886 190.525 197.002 191.122 195.826 191.514V191.568C197.102 191.833 198.141 192.389 198.943 193.236C199.745 194.075 200.146 195.155 200.146 196.477C200.146 198.29 199.449 199.726 198.055 200.783C196.66 201.84 194.819 202.369 192.531 202.369C190.225 202.369 188.393 201.85 187.035 200.811C185.686 199.762 185.012 198.391 185.012 196.695Z" fill="#04101C"/>
<path opacity="0.4" d="M323.143 202V196.641L323.17 196.094V186.154H323.033L316.02 195.082H323.84L324.742 195.014H328.967V197.475H312.684V195.383L323.293 182.094H326.041V202H323.143Z" fill="#04101C"/>
<path d="M445.271 196.832V196.572H448.238V196.832C448.238 197.853 448.648 198.641 449.469 199.197C450.289 199.753 451.387 200.031 452.764 200.031C454.149 200.031 455.252 199.653 456.072 198.896C456.902 198.131 457.316 197.023 457.316 195.574C457.316 194.125 456.897 193.054 456.059 192.361C455.229 191.66 454.154 191.309 452.832 191.309C451.866 191.309 451.036 191.477 450.344 191.814C449.651 192.152 449.045 192.589 448.525 193.127L446.037 192.129L447.117 182.094H459.189V184.609L449.523 184.596L448.895 190.297C449.359 189.969 449.984 189.663 450.768 189.381C451.551 189.098 452.44 188.957 453.434 188.957C455.384 188.957 457.025 189.522 458.355 190.652C459.686 191.783 460.352 193.4 460.352 195.506C460.352 197.639 459.659 199.316 458.273 200.537C456.888 201.758 455.051 202.369 452.764 202.369C450.458 202.369 448.63 201.854 447.281 200.824C445.941 199.794 445.271 198.464 445.271 196.832Z" fill="#04101C"/>
<path d="M0 28C0 23.5817 3.58172 20 8 20H518C522.418 20 526 23.5817 526 28V132C526 136.418 522.418 140 518 140H8.00001C3.58173 140 0 136.418 0 132V28Z" fill="url(#paint0_linear_414_13136)"/>
<line x1="161.5" y1="166" x2="161.5" y2="-2.18557e-08" stroke="#AFB6B3"/>
<line x1="391.5" y1="166" x2="391.5" y2="-2.18557e-08" stroke="#AFB6B3"/>
<defs>
<linearGradient id="paint0_linear_414_13136" x1="0" y1="80" x2="526" y2="80" gradientUnits="userSpaceOnUse">
<stop stop-color="#7A73FF"/>
<stop offset="0.745" stop-color="#FD9BE8"/>
<stop offset="0.7451" stop-color="#83FFBC"/>
</linearGradient>
</defs>
</svg>
