<svg width="80" height="41" viewBox="0 0 80 41" fill="none" xmlns="http://www.w3.org/2000/svg">
<path d="M73.9472 28.243C72.9458 27.712 72.79 26.2118 72.8123 22.563L72.8345 16.9711L70.9208 16.9688L71.3658 15.934H72.8345V13.2861L76.3505 11.9621V15.8459L77.975 15.8482L77.5522 16.9959L76.3505 16.9937V26.6705C76.4173 27.45 76.6843 27.9086 77.0404 28.243H73.9472Z" fill="#AFB6B3"/>
<path d="M21.8748 37.1132C21.7635 36.7992 21.541 36.5981 21.2072 36.5981C20.7399 36.5981 20.5619 36.8421 20.5619 37.1787C20.5619 37.9808 22.3421 37.834 22.3421 39.1941C22.3421 39.9532 21.6968 40.5 20.7844 40.5C20.4729 40.5 20.1168 40.4232 19.8498 40.2447C19.9165 39.9939 19.9833 39.7454 20.0278 39.4901H20.1391C20.2058 39.899 20.5396 40.143 20.9402 40.143C21.2962 40.143 21.63 39.9352 21.63 39.5262C21.63 38.575 19.872 38.9207 19.872 37.4883C19.872 36.806 20.3394 36.2411 21.2295 36.2411C21.6523 36.2411 22.0306 36.4015 22.1419 36.5258C22.0751 36.7156 22.0306 36.9121 21.9638 37.1132H21.8748Z" fill="#AFB6B3"/>
<path d="M39.2989 4.33224C39.566 5.08008 40.1891 5.85279 39.744 6.72038C39.5437 7.60153 38.7203 8.31548 37.8525 8.45783C36.9401 8.54142 36.0945 8.38552 35.4046 7.82746C34.9373 5.28343 35.961 2.92918 37.9415 1.52612L39.2989 4.33224Z" fill="#AFB6B3"/>
<path d="M42.7925 12.0842C42.3475 13.6228 37.8745 12.6129 36.4726 10.0869C38.3196 10.2948 40.3892 8.63639 40.4337 6.74531L42.7925 12.0842Z" fill="#AFB6B3"/>
<path d="M44.6407 11.8853C44.841 11.7927 45.2415 11.5849 45.3528 11.1398L40.5461 0.525292C40.2123 0.484624 39.9898 0.455249 39.567 0.751224L44.6407 11.8853Z" fill="#AFB6B3"/>
<path d="M46.7983 9.58073C48.8456 6.42892 47.1321 1.25726 42.7037 0.532005L46.7983 9.58073Z" fill="#AFB6B3"/>
<path d="M0 33.4576H77.3074V32.8566H0V33.4576Z" fill="#AFB6B3"/>
<path d="M25.0127 38.3062C25.0127 38.0757 24.8124 37.8904 24.5899 37.8904C24.3673 37.8904 24.1893 38.0757 24.1893 38.3062C24.1893 38.5366 24.3673 38.7219 24.5899 38.7219C24.8124 38.7219 25.0127 38.5366 25.0127 38.3062Z" fill="#AFB6B3"/>
<path d="M46.3534 16.3656C46.9988 15.8143 48.1337 15.803 48.868 16.1554C49.1796 16.3136 49.4689 16.5237 49.6691 16.7994L48.2449 19.0406C48.0669 18.896 47.9334 18.8305 47.7109 18.713C46.9988 18.4035 46.2644 18.5843 45.8416 18.9751V25.516C45.8193 26.6479 46.0196 27.6804 46.5982 28.2159H43.3715C42.6817 27.6917 42.5259 26.8535 42.4591 26.1192L42.4369 17.4207C42.4591 16.7158 42.2811 16.4062 42.0141 16.0109L45.352 16.0244C45.6191 16.221 45.6413 16.5621 45.7748 16.8242L46.3534 16.3656Z" fill="#AFB6B3"/>
<path d="M50.4255 18.5165C50.4033 17.6896 50.5813 16.7 50.0473 15.986H53.1404C53.363 16.1442 53.4742 16.4062 53.541 16.6548C53.719 16.8762 53.6968 17.1925 53.7635 17.4546L53.808 26.7225C53.9193 27.2737 54.1418 27.8295 54.5424 28.2633L51.2267 28.2701C50.1363 27.2037 50.4923 25.4504 50.4033 23.6407L50.4255 18.5165Z" fill="#AFB6B3"/>
<path d="M55.3437 18.6068C55.6775 17.6647 56.7234 17.1925 57.48 16.6796C58.6372 16.2481 59.9279 15.1726 61.2185 16.0515C62.3089 16.7722 63.2658 17.5856 63.9557 18.6995C64.1114 19.131 64.2004 19.6168 64.3117 20.0754C64.3117 20.6922 64.4452 21.1509 64.423 21.7677C64.4675 22.4365 64.4675 23.0397 64.423 23.6949C64.3785 24.8088 63.8666 25.8051 62.9988 26.5779C61.7081 27.7459 60.0836 29.0699 58.3256 28.1639C56.7457 27.4161 54.8986 25.9362 55.0099 23.9028C54.9431 22.4613 54.8764 21.2164 55.0767 19.8133C55.1434 19.4067 55.1212 18.9616 55.3437 18.6068ZM58.5704 25.1612C58.7262 25.7396 59.0155 26.4468 59.7053 26.5259C60.1059 26.5394 60.3952 26.1983 60.6399 25.9091C61.352 24.4676 61.2408 22.8951 61.2408 21.2548C61.0183 20.037 61.3075 18.3719 60.0169 17.624C59.5495 17.4546 59.2157 17.7686 58.9265 18.0578C58.4146 18.8305 58.3701 19.7162 58.3256 20.699C58.1698 22.2715 58.3479 23.5752 58.5704 25.1612Z" fill="#AFB6B3"/>
<path d="M66.7149 28.243C65.7135 27.712 65.5578 26.2118 65.58 22.563L65.6023 16.9711L63.7108 16.9688L64.1336 15.934H65.6023V13.2861L69.1405 11.9621V15.8459L70.7427 15.8482L70.3199 16.9959L69.1405 16.9937V26.6705C69.2073 27.45 69.4743 27.9086 69.8304 28.243H66.7149Z" fill="#AFB6B3"/>
<path d="M34.4923 17.4207C34.4701 16.7158 34.3365 16.4062 34.0695 16.0108L37.4075 16.0244C37.6745 16.221 37.6968 16.5621 37.8303 16.8242L38.4089 16.3656C39.0542 15.8143 40.1891 15.803 40.9235 16.1554C41.235 16.3136 41.5243 16.5237 41.7246 16.7994L40.3004 19.0406C40.1223 18.896 39.9888 18.8305 39.7663 18.713C39.0542 18.4035 38.3199 18.5843 37.897 18.9751V25.516C37.8748 26.6479 38.0751 27.6804 38.6536 28.2159H35.4269C34.7593 27.6917 34.5591 26.9122 34.5146 26.1192L34.4923 17.4207Z" fill="#AFB6B3"/>
<path d="M9.19059 20.8617L7.98892 23.4012C7.1433 24.8992 5.98614 26.736 4.20589 27.1924C3.51605 27.4364 2.89296 27.215 2.22536 27.1675L0.0668073 30.7486C0.244832 30.9249 0.467369 31.0717 0.689897 31.1576C4.47293 32.6261 6.0084 31.0469 9.72467 22.4816L13.2629 30.1115H17.9583L15.733 24.9624L17.0014 22.3009L20.4729 29.994L24.9681 30.0234L17.0905 12.4727L13.4632 14.3005L16.3116 20.8504L15.0654 23.4238L9.85819 12.0186L6.0529 13.9932L9.19059 20.8617Z" fill="#AFB6B3"/>
<path d="M23.6329 23.957C23.7219 22.685 24.4118 21.492 25.5689 20.8504C26.7261 20.1274 28.0613 19.8405 29.2629 19.2101C29.4632 19.0406 29.708 18.8305 29.7303 18.5549C29.7525 18.2137 29.5745 17.9516 29.2852 17.8341C27.4604 17.441 25.9695 18.5933 24.6566 19.7343C24.8123 18.896 24.9458 17.9787 25.3464 17.1925C25.5244 16.9824 25.6579 16.6932 25.9027 16.5373C27.1934 15.8934 28.7956 15.7104 30.2198 15.8143C31.3992 15.8934 32.4897 16.7451 32.8902 17.8341C33.0905 18.3448 33.0682 18.9232 33.1127 19.4473L33.135 26.553C33.135 27.1675 33.4243 27.7459 33.7803 28.243H30.4424C30.0418 27.877 29.8415 27.4161 29.7303 26.8399C28.7956 27.6804 26.8374 28.9253 25.6802 28.0984C24.4785 27.5494 23.3659 25.699 23.6329 23.957ZM29.5522 21.4853C29.53 20.9927 29.1962 20.9408 28.9514 20.9408C28.1503 21.0582 27.4604 21.7383 27.0599 22.4365C26.7261 23.0578 26.6371 23.5819 26.6148 24.1265C26.6148 24.7139 26.5703 25.1499 26.8151 25.595C26.9486 25.8842 27.2157 26.0153 27.505 26.0921C28.0168 26.1983 28.4841 26.0537 28.8847 25.778C29.8415 25.2403 29.6635 24.1649 29.6858 23.2091L29.5522 21.4853Z" fill="#AFB6B3"/>
<path d="M55.4548 38.3062C55.4548 38.0757 55.2545 37.8904 55.0319 37.8904C54.8094 37.8904 54.6314 38.0757 54.6314 38.3062C54.6314 38.5366 54.8094 38.7219 55.0319 38.7219C55.2545 38.7219 55.4548 38.5366 55.4548 38.3062Z" fill="#AFB6B3"/>
<path d="M27.4382 36.3473H28.6843C28.9514 36.3473 29.3964 36.336 29.6412 36.467C29.975 36.6455 30.1308 36.9121 30.1308 37.3166C30.1308 37.8995 29.7748 38.2678 29.2184 38.3852C29.5522 38.9546 29.9083 39.5014 30.2643 40.0549L30.4868 40.4232C30.3088 40.4096 30.1308 40.3938 29.9528 40.3938C29.7748 40.3938 29.619 40.4096 29.441 40.4232L28.7289 39.176C28.6398 39.0156 28.4841 38.7422 28.3505 38.5163H28.306V40.4232C28.1725 40.4096 28.0168 40.3938 27.8832 40.3938C27.7275 40.3938 27.5939 40.4096 27.4382 40.4232V36.3473ZM28.306 38.261C28.9291 38.3197 29.2407 38.0238 29.2407 37.4115C29.2407 37.3279 29.2184 37.2398 29.1962 37.1132C29.1072 36.6207 28.6621 36.6681 28.306 36.6681V38.261Z" fill="#AFB6B3"/>
<path d="M33.6022 36.3473C33.58 36.4309 33.5577 36.5213 33.5577 36.6026C33.5577 36.6862 33.58 36.7766 33.6022 36.8579C33.2239 36.8105 32.8456 36.763 32.2448 36.7766V38.0531H32.8456C33.1127 38.0531 33.3574 38.0283 33.58 37.9989C33.5577 38.0825 33.5355 38.1706 33.5355 38.2542C33.5355 38.3378 33.5577 38.4282 33.58 38.5095C33.3574 38.4801 33.1127 38.4575 32.8456 38.4575H32.2448V39.9645C32.8456 39.96 33.2239 39.9306 33.6022 39.8832C33.58 39.9645 33.5577 40.0549 33.5577 40.1385C33.5577 40.2198 33.58 40.3102 33.6022 40.3938H31.3547V36.3473H33.6022Z" fill="#AFB6B3"/>
<path d="M36.4506 37.1132C36.3171 36.7992 36.0946 36.5981 35.7608 36.5981C35.3157 36.5981 35.1154 36.8421 35.1154 37.1787C35.1154 37.9808 36.8957 37.834 36.8957 39.1941C36.8957 39.9532 36.2726 40.5 35.3602 40.5C35.0264 40.5 34.6926 40.4232 34.4256 40.2447C34.4924 39.9939 34.5591 39.7454 34.5814 39.4901H34.6926C34.7816 39.899 35.0932 40.143 35.4937 40.143C35.872 40.143 36.1836 39.9352 36.1836 39.5262C36.1836 38.575 34.4478 38.9207 34.4478 37.4883C34.4478 36.806 34.8929 36.2411 35.8053 36.2411C36.2058 36.2411 36.5841 36.4015 36.7177 36.5258C36.6509 36.7156 36.5841 36.9121 36.5396 37.1132H36.4506Z" fill="#AFB6B3"/>
<path d="M39.7887 40.5C38.498 40.5 37.6301 39.7273 37.6301 38.3785C37.6301 37.1968 38.4757 36.2411 39.9445 36.2411C41.6134 36.2411 42.103 37.4341 42.103 38.3559C42.103 39.5149 41.2351 40.5 39.7887 40.5ZM38.6093 38.5524C38.6093 39.3229 38.9431 40.143 39.8332 40.143C40.7233 40.143 41.1239 39.228 41.1239 38.2429C41.1239 37.477 40.7678 36.5981 39.9 36.5981C39.0988 36.5981 38.6093 37.2217 38.6093 38.5524Z" fill="#AFB6B3"/>
<path d="M43.0821 36.3473H44.3283C44.5953 36.3473 45.0181 36.336 45.2629 36.467C45.5967 36.6455 45.7747 36.9121 45.7747 37.3166C45.7747 37.8995 45.3964 38.2678 44.8624 38.3852C45.1961 38.9546 45.5522 39.5014 45.9082 40.0549L46.1308 40.4232C45.9527 40.4096 45.7747 40.3938 45.5967 40.3938C45.4187 40.3938 45.2406 40.4096 45.0626 40.4232L44.3728 39.176C44.2838 39.0156 44.128 38.7422 43.9945 38.5163H43.95V40.4232C43.7942 40.4096 43.6607 40.3938 43.5049 40.3938C43.3714 40.3938 43.2156 40.4096 43.0821 40.4232V36.3473ZM43.95 38.261C44.5731 38.3197 44.8624 38.0238 44.8624 37.4115C44.8624 37.3279 44.8623 37.2398 44.8401 37.1132C44.7511 36.6207 44.306 36.6681 43.95 36.6681V38.261Z" fill="#AFB6B3"/>
<path d="M48.6231 40.4232C48.4895 40.4096 48.3338 40.3938 48.178 40.3938C48.0445 40.3938 47.8887 40.4096 47.7552 40.4232V36.7698C47.3324 36.7698 46.9763 36.8105 46.6648 36.8534C46.6648 36.7698 46.687 36.6862 46.687 36.5981C46.687 36.5145 46.6648 36.4309 46.6648 36.3473H49.669C49.669 36.4309 49.6467 36.5145 49.6467 36.5981C49.6467 36.6862 49.669 36.7698 49.669 36.8534C49.3352 36.8105 48.9791 36.7698 48.6231 36.7698V40.4232Z" fill="#AFB6B3"/>
<path d="M52.4061 37.1132C52.2948 36.7992 52.0723 36.5981 51.7385 36.5981C51.2712 36.5981 51.0932 36.8421 51.0932 37.1787C51.0932 37.9808 52.8734 37.834 52.8734 39.1941C52.8734 39.9532 52.2281 40.5 51.3157 40.5C51.0042 40.5 50.6481 40.4232 50.3811 40.2447C50.4478 39.9939 50.5146 39.7454 50.5591 39.4901H50.6704C50.7371 39.899 51.0709 40.143 51.4715 40.143C51.8275 40.143 52.1391 39.9352 52.1391 39.5262C52.1391 38.575 50.4033 38.9207 50.4033 37.4883C50.4033 36.806 50.8706 36.2411 51.7608 36.2411C52.1836 36.2411 52.5619 36.4015 52.6731 36.5258C52.6064 36.7156 52.5619 36.9121 52.4951 37.1132H52.4061Z" fill="#AFB6B3"/>
<path d="M59.594 37.1132C59.4604 36.7992 59.2379 36.5981 58.9041 36.5981C58.459 36.5981 58.2588 36.8421 58.2588 37.1787C58.2588 37.9808 60.039 37.834 60.039 39.1941C60.039 39.9532 59.4159 40.5 58.5035 40.5C58.1697 40.5 57.836 40.4232 57.5689 40.2447C57.6357 39.9939 57.6802 39.7454 57.7247 39.4901H57.836C57.925 39.899 58.2365 40.143 58.6371 40.143C59.0154 40.143 59.3269 39.9352 59.3269 39.5262C59.3269 38.575 57.5912 38.9207 57.5912 37.4883C57.5912 36.806 58.0585 36.2411 58.9264 36.2411C59.3492 36.2411 59.7275 36.4015 59.861 36.5258C59.7942 36.7156 59.7275 36.9121 59.683 37.1132H59.594Z" fill="#AFB6B3"/>
<path d="M61.085 36.3473C61.2408 36.3609 61.3743 36.3789 61.5301 36.3789C61.6858 36.3789 61.8194 36.3609 61.9751 36.3473V38.035C61.9751 38.3627 61.9529 38.8484 62.0196 39.1579C62.0641 39.4494 62.1086 39.6324 62.3089 39.8403C62.5092 40.0188 62.7317 40.0956 62.9988 40.0956C63.5328 40.0956 63.8221 39.8945 64.0224 39.3771C64.1337 39.115 64.1337 38.4395 64.1337 38.148V36.3473C64.2004 36.3609 64.2895 36.3654 64.3562 36.3654C64.4452 36.3654 64.5342 36.3609 64.601 36.3473V38.4621C64.5787 39.1399 64.601 39.7567 63.9779 40.1859C63.6664 40.4164 63.2658 40.5 62.8652 40.5C62.1754 40.5 61.3965 40.2741 61.1963 39.5014C61.1295 39.2709 61.085 39.0088 61.085 38.7716V36.3473Z" fill="#AFB6B3"/>
<path d="M65.9807 36.3473C66.1365 36.3609 66.2922 36.3789 66.4257 36.3789C66.5815 36.3789 66.715 36.3609 66.8708 36.3473V40.4232C66.715 40.4096 66.5815 40.3938 66.4257 40.3938C66.2922 40.3938 66.1365 40.4096 65.9807 40.4232V36.3473Z" fill="#AFB6B3"/>
<path d="M69.8305 40.4232C69.6747 40.4096 69.5189 40.3938 69.3854 40.3938C69.2296 40.3938 69.0961 40.4096 68.9404 40.4232V36.7698C68.5398 36.7698 68.1615 36.8105 67.85 36.8534C67.8722 36.7698 67.8945 36.6862 67.8945 36.5981C67.8945 36.5145 67.8722 36.4309 67.85 36.3473H70.8764C70.8541 36.4309 70.8319 36.5145 70.8319 36.5981C70.8319 36.6862 70.8541 36.7698 70.8764 36.8534C70.5203 36.8105 70.1865 36.7698 69.8305 36.7698V40.4232Z" fill="#AFB6B3"/>
<path d="M74.014 36.3473C73.9918 36.4309 73.9918 36.5213 73.9918 36.6026C73.9918 36.6862 73.9918 36.7766 74.014 36.8579C73.658 36.8105 73.2574 36.763 72.6566 36.7766V38.0531H73.2574C73.5245 38.0531 73.7692 38.0283 73.9918 37.9989C73.9695 38.0825 73.9695 38.1706 73.9695 38.2542C73.9695 38.3378 73.9695 38.4282 73.9918 38.5095C73.7692 38.4801 73.5245 38.4575 73.2574 38.4575H72.6566V39.9645C73.2574 39.96 73.658 39.9306 74.014 39.8832C73.9918 39.9645 73.9918 40.0549 73.9918 40.1385C73.9918 40.2198 73.9918 40.3102 74.014 40.3938H71.7887V36.3473H74.014Z" fill="#AFB6B3"/>
<path d="M76.8624 37.1132C76.7512 36.7992 76.5286 36.5981 76.1948 36.5981C75.7275 36.5981 75.5495 36.8421 75.5495 37.1787C75.5495 37.9808 77.3297 37.834 77.3297 39.1941C77.3297 39.9532 76.6844 40.5 75.772 40.5C75.4605 40.5 75.1044 40.4232 74.8374 40.2447C74.9041 39.9939 74.9709 39.7454 74.9931 39.4901H75.1044C75.1934 39.899 75.505 40.143 75.9278 40.143C76.2838 40.143 76.5954 39.9352 76.5954 39.5262C76.5954 38.575 74.8596 38.9207 74.8596 37.4883C74.8596 36.806 75.327 36.2411 76.2171 36.2411C76.6399 36.2411 77.0182 36.4015 77.1294 36.5258C77.0627 36.7156 77.0182 36.9121 76.9514 37.1132H76.8624Z" fill="#AFB6B3"/>
<path d="M0.111345 36.3473C0.267113 36.3609 0.400633 36.3789 0.556401 36.3789C0.689921 36.3789 0.845699 36.3609 1.00147 36.3473V37.9582C1.29075 37.9695 1.6023 37.9876 1.89159 37.9876C2.18089 37.9876 2.49243 37.9695 2.78172 37.9582V36.3473C2.93749 36.3609 3.07101 36.3789 3.22677 36.3789C3.36029 36.3789 3.51607 36.3609 3.67184 36.3473V40.4232C3.51607 40.4096 3.36029 40.3938 3.22677 40.3938C3.07101 40.3938 2.93749 40.4096 2.78172 40.4232V38.4327C2.49243 38.4214 2.18089 38.4033 1.89159 38.4033C1.6023 38.4033 1.29075 38.4214 1.00147 38.4327V40.4232C0.845699 40.4096 0.689921 40.3938 0.556401 40.3938C0.400633 40.3938 0.267113 40.4096 0.111345 40.4232V36.3473Z" fill="#AFB6B3"/>
<path d="M6.87629 40.5C5.5856 40.5 4.69547 39.7273 4.69547 38.3785C4.69547 37.1968 5.56335 36.2411 7.0098 36.2411C8.67878 36.2411 9.16835 37.4341 9.16835 38.3559C9.16835 39.5149 8.30048 40.5 6.87629 40.5ZM5.67461 38.5524C5.67461 39.3229 6.03066 40.143 6.89853 40.143C7.78866 40.143 8.21147 39.228 8.21147 38.2429C8.21147 37.477 7.85542 36.5981 6.96529 36.5981C6.16418 36.5981 5.67461 37.2217 5.67461 38.5524Z" fill="#AFB6B3"/>
<path d="M11.3492 40.4232C11.2157 40.4096 11.0599 40.3938 10.9264 40.3938C10.7706 40.3938 10.6371 40.4096 10.4813 40.4232V36.7698C10.0585 36.7698 9.70249 36.8105 9.39094 36.8534C9.4132 36.7698 9.4132 36.6862 9.4132 36.5981C9.4132 36.5145 9.4132 36.4309 9.39094 36.3473H12.3951C12.3951 36.4309 12.3729 36.5145 12.3729 36.5981C12.3729 36.6862 12.3951 36.7698 12.3951 36.8534C12.0613 36.8105 11.7053 36.7698 11.3492 36.7698V40.4232Z" fill="#AFB6B3"/>
<path d="M15.5105 36.3473C15.5105 36.4309 15.4882 36.5213 15.4882 36.6026C15.4882 36.6862 15.5105 36.7766 15.5105 36.8579C15.1544 36.8105 14.7539 36.763 14.153 36.7766V38.0531H14.7761C15.0432 38.0531 15.2657 38.0283 15.4882 37.9989C15.466 38.0825 15.466 38.1706 15.466 38.2542C15.466 38.3378 15.466 38.4282 15.4882 38.5095C15.2657 38.4801 15.0432 38.4575 14.7761 38.4575H14.153V39.9645C14.7539 39.96 15.1544 39.9306 15.5105 39.8832C15.5105 39.9645 15.4882 40.0549 15.4882 40.1385C15.4882 40.2198 15.5105 40.3102 15.5105 40.3938H13.2852V36.3473H15.5105Z" fill="#AFB6B3"/>
<path d="M17.5132 39.9645C18.0251 39.9645 18.4479 39.9239 18.8484 39.8832C18.8262 39.9645 18.8039 40.0549 18.8039 40.1385C18.8039 40.2198 18.8262 40.3102 18.8484 40.3938H16.6231V36.3473C16.7789 36.3609 16.9124 36.3789 17.0682 36.3789C17.2239 36.3789 17.3575 36.3609 17.5132 36.3473V39.9645Z" fill="#AFB6B3"/>
<path d="M77.4632 27.1788C77.4632 26.4513 78.0417 25.9159 78.7316 25.9159C79.4214 25.9159 80 26.4513 80 27.1788C80 27.9109 79.4214 28.4463 78.7316 28.4463C78.0417 28.4463 77.4632 27.9109 77.4632 27.1788ZM78.7316 28.2362C79.3102 28.2362 79.7552 27.7889 79.7552 27.1788C79.7552 26.5801 79.3102 26.126 78.7316 26.126C78.1752 26.126 77.7079 26.5801 77.7079 27.1788C77.7079 27.7889 78.1752 28.2362 78.7316 28.2362ZM78.4645 27.9109H78.2643V26.4513H78.7983C79.1321 26.4513 79.3102 26.5801 79.3102 26.867C79.3102 27.1291 79.1544 27.2421 78.9319 27.2692L79.3547 27.9109H79.1099L78.7316 27.2783H78.4645V27.9109ZM78.7316 27.0907C78.9096 27.0907 79.0876 27.0772 79.0876 26.8535C79.0876 26.6727 78.9319 26.6389 78.7761 26.6389H78.4645V27.0907H78.7316Z" fill="#AFB6B3"/>
</svg>
