<svg width="51" height="41" viewBox="0 0 51 41" fill="none" xmlns="http://www.w3.org/2000/svg">
<path d="M36.1432 18.9302C36.1432 18.9302 34.066 19.6466 30.0482 22.5937C26.4463 25.2403 25.0338 27.0184 25.0338 27.0184L13.9214 17.8516C13.9214 17.8516 18.5964 13.748 22.5026 16.891L27.7426 21.1815L28.3817 20.6797L13.9237 8.58905C13.9237 8.58905 16.0015 7.87173 20.0171 4.92644C23.6213 2.27898 25.0338 0.5 25.0338 0.5L36.1454 9.66681C36.1454 9.66681 31.4712 13.7704 27.5642 10.6274L22.3243 6.33603L21.6851 6.8369L36.1432 18.9302Z" fill="#514F4F"/>
<path d="M27.537 31.4353H19.0794V33.6803H23.1647L18.9356 38.393V40.2739H27.5212V38.02H23.2494L27.537 33.319V31.4353Z" fill="#AFB6B3"/>
<path d="M14.0998 40.5C17.4822 40.5 18.3484 39.4687 18.3484 37.1952V31.4352H15.6688V36.8508C15.6688 37.7604 15.0169 38.3024 14.0998 38.3024C13.1459 38.3024 12.5322 37.7577 12.5322 36.8365V31.4352H9.85264V37.1952C9.85264 39.4687 10.7189 40.5 14.0998 40.5Z" fill="#AFB6B3"/>
<path d="M32.447 40.5C35.8294 40.5 36.6956 39.4687 36.6956 37.1952V31.4352H34.0153V36.8508C34.0153 37.7604 33.3627 38.3024 32.447 38.3024C31.4931 38.3024 30.8772 37.7577 30.8772 36.8365V31.4352H28.1984V37.1952C28.1984 39.4687 29.0646 40.5 32.447 40.5Z" fill="#AFB6B3"/>
<path d="M50.0723 31.4353H47.2781V40.2739H50.0723V31.4353Z" fill="#AFB6B3"/>
<path d="M46.8524 31.4353H43.1762L40.2014 34.4853V31.4353H37.4065V40.2739H40.2014V37.139L42.9642 40.2739H46.7183L42.6322 35.7392L46.8524 31.4353Z" fill="#AFB6B3"/>
<path d="M3.24787 33.8775C3.24787 33.1942 4.09609 33.1718 4.38233 33.1718C4.66932 33.1718 5.31598 33.3087 5.75583 34.17H8.9157C8.9157 32.5046 7.59315 31.18 4.39207 31.18C0.836568 31.18 0.231121 33.0421 0.231121 34.1119C0.231121 36.084 1.51095 36.6618 4.29391 37.016C4.5322 37.0455 5.97988 36.9641 5.97988 37.795C5.97988 38.4104 5.16612 38.4515 4.86639 38.4515C4.56891 38.4515 4.01217 38.3934 3.55209 37.4158H0.0722656C0.0722656 39.3567 1.16852 40.4783 4.86115 40.4783C8.26229 40.4783 9.16522 38.8209 9.16522 37.5607C9.16522 36.3371 8.46161 35.0921 5.56176 34.6494C4.35236 34.4625 3.24787 34.3838 3.24787 33.8775Z" fill="#AFB6B3"/>
</svg>
