<svg width="83" height="25" viewBox="0 0 83 25" fill="none" xmlns="http://www.w3.org/2000/svg">
<path d="M0.537109 25H82.5371V0H0.537109V25Z" fill="#514F4F"/>
<path d="M73.2741 16.8541H74.8796V19.0854H68.1599V16.9897H69.5123L67.4548 14.2556L65.4563 16.9897H66.8087V19.0854H61.1051V16.8541H62.6142L65.8866 12.3153L62.6551 8.14371H61.4148V5.91348H67.6717V8.00922H66.3965L68.3757 10.4721L70.1788 8.00922H68.9639V5.91348H74.8796V8.14371H73.0198L69.8655 12.4509L73.2741 16.8541ZM55.2375 5.91348H60.2734V8.14371H58.9511V15.5157C58.9511 18.5805 55.716 19.2409 53.72 19.2409C50.9574 19.2409 48.4045 18.252 48.4045 15.0306V8.14371H46.8364V5.91348H53.0282V8.14371H51.8734V14.8377C51.8734 16.1364 52.5328 17.0095 54.0768 17.0095C55.3725 17.0095 56.4175 16.4473 56.4175 14.9524V8.14371H55.2375V5.91348ZM15.7749 5.91348H21.2966V8.14371H20.0165L16.192 19.0887H13.0702L9.10703 8.14371H7.53888V5.91348H14.1224V8.14371H12.5941L14.8082 14.8146H14.8468L17.2454 8.14371H15.7749V5.91348ZM44.3678 14.8917H46.9738V19.0854H35.6485V16.8541H37.5481V8.14371H35.6485V5.91348H42.9576V8.14371H41.017V16.8541H44.3678V14.8917ZM22.438 5.91348H34.0116V10.084H31.484V8.14371H27.3497V11.171H30.6813V13.4012H27.3497V16.8541H31.484V14.8961H34.0116V19.0854H22.3151V16.8541H23.8832V8.14371H22.438V5.91348ZM74.7085 12.495C74.7085 11.5491 75.4919 10.8348 76.5297 10.8348C77.5675 10.8348 78.3498 11.5491 78.3498 12.495C78.3498 13.4464 77.5711 14.1641 76.5394 14.1641C75.4956 14.1641 74.7085 13.4464 74.7085 12.495ZM74.289 12.4994C74.289 13.668 75.2473 14.5489 76.5201 14.5489C77.8038 14.5489 78.7717 13.668 78.7717 12.4994C78.7717 11.3309 77.8074 10.4489 76.5285 10.4489C75.2521 10.4489 74.289 11.3309 74.289 12.4994ZM76.5587 11.7046C76.8323 11.7046 76.9829 11.8181 76.9829 12.0243C76.9829 12.2878 76.7527 12.3429 76.5587 12.3429C76.5587 12.3429 76.2549 12.3429 76.2176 12.3429C76.2176 12.3098 76.2176 11.7377 76.2176 11.7046C76.2549 11.7046 76.5587 11.7046 76.5587 11.7046ZM75.7535 11.3661V13.5809H76.238C76.238 13.5809 76.238 12.7166 76.238 12.6825C76.2706 12.6825 76.4454 12.6825 76.4454 12.6825C76.4454 12.6979 77.0528 13.5721 77.0528 13.5721L77.5507 13.5809H77.5868C77.5868 13.5809 76.9432 12.6637 76.9178 12.6295C77.2541 12.5402 77.4482 12.3231 77.4482 12.0243C77.4482 11.6054 77.1336 11.3661 76.5864 11.3661H75.7535Z" fill="white"/>
</svg>
