<svg width="42" height="43" viewBox="0 0 42 43" fill="none" xmlns="http://www.w3.org/2000/svg">
<path d="M27.6468 28.4092C26.8957 28.4092 26.3324 28.0336 25.9568 27.4703L23.7035 23.5269C22.7647 21.4614 20.8869 19.5836 18.8214 18.4569L14.8782 16.2035C14.3149 16.0158 13.9393 15.2646 13.9393 14.7013C13.9393 13.9502 14.3149 13.3869 14.8782 13.0113L18.8214 10.758C20.8869 9.63128 22.7647 7.94127 23.8913 5.68792L26.1446 1.74456C26.3324 1.18122 27.0834 0.805664 27.6468 0.805664C28.3979 0.805664 28.9612 1.18122 29.3367 1.74456L31.59 5.68792C32.7166 7.75349 34.5943 9.63128 36.6599 10.758L40.6031 13.0113C41.1664 13.3869 41.5419 13.9502 41.5419 14.7013C41.5419 15.4524 41.1664 16.0158 40.6031 16.3913L36.6599 18.6447C34.5943 19.7713 32.7166 21.6491 31.59 23.7147L29.3367 27.6581C28.9612 28.0336 28.3979 28.4092 27.6468 28.4092ZM19.7603 14.7013L20.6992 15.2646C23.5158 16.7669 25.769 19.0202 27.2712 21.8369L27.8345 22.7758L28.3979 21.8369C29.9 19.0202 32.1533 16.7669 34.9699 15.2646L35.9088 14.7013L34.9699 14.138C32.1533 12.6357 29.9 10.3824 28.3979 7.56571L27.8345 6.62681L27.2712 7.56571C25.769 10.3824 23.5158 12.6357 20.6992 14.138L19.7603 14.7013Z" fill="#ECECEC"/>
<path d="M10.558 42.1171C9.80688 42.1171 9.24356 41.7416 8.86802 41.1782L7.74138 38.9249C6.80252 37.0471 5.30033 35.5449 3.42261 34.606L1.16933 33.4793C0.606014 33.1037 0.230469 32.3526 0.230469 31.7893C0.230469 31.0382 0.606014 30.4748 1.16933 30.0993L3.42261 28.9726C5.30033 28.0337 6.80252 26.5315 7.74138 24.6537L8.86802 22.4003C9.61911 21.2737 11.4968 21.2737 12.2479 22.4003L13.3746 24.6537C14.3134 26.5315 15.8156 28.0337 17.6933 28.9726L19.9466 30.0993C20.5099 30.4748 20.8855 31.0382 20.8855 31.7893C20.8855 32.5404 20.5099 33.1037 19.9466 33.4793L17.8811 34.606C16.0034 35.5449 14.5012 37.0471 13.5623 38.9249L12.4357 41.1782C11.8724 41.7416 11.3091 42.1171 10.558 42.1171ZM6.05142 31.7893C7.92915 32.916 9.61911 34.606 10.7457 36.4838C11.8724 34.606 13.5623 32.916 15.4401 31.7893C13.3746 30.4748 11.8724 28.9726 10.558 27.0948C9.43133 28.9726 7.92915 30.4748 6.05142 31.7893Z" fill="#ECECEC"/>
</svg>
