<svg width="29" height="28" viewBox="0 0 29 28" fill="none" xmlns="http://www.w3.org/2000/svg">
<path fill-rule="evenodd" clip-rule="evenodd" d="M1.54874 6.2843C-0.708373 4.02335 0.912184 0 4.17871 0H24.8254C28.0919 0 29.7124 4.02331 27.4554 6.28427C27.454 6.28562 27.4527 6.28698 27.4513 6.28833L19.3012 14.5479V21.7689C19.3012 22.9289 18.7378 24.1592 17.6558 24.8302L13.6579 27.5752L13.6413 27.5864C12.7509 28.1793 11.726 28.0772 10.9893 27.6425C10.2679 27.2167 9.7029 26.4076 9.7029 25.4152V14.5479L1.54874 6.2843ZM3.38003 3.36385C3.23103 3.72524 3.2991 4.07517 3.5314 4.30718L3.53864 4.3144L12.0994 12.9901C12.3579 13.2521 12.5029 13.6053 12.5029 13.9734V24.9718L16.1016 22.5008C16.1254 22.4845 16.1497 22.4689 16.1744 22.4541C16.3239 22.3645 16.5012 22.1029 16.5012 21.7689V13.9734C16.5012 13.6053 16.6461 13.2521 16.9047 12.9901L25.4727 4.30715C25.705 4.07514 25.7731 3.72524 25.6241 3.36385C25.4781 3.00977 25.1867 2.79999 24.8254 2.79999H4.17871C3.81735 2.79999 3.52601 3.00977 3.38003 3.36385Z" fill="#ECECEC"/>
</svg>
