<svg width="25" height="29" viewBox="0 0 25 29" fill="none" xmlns="http://www.w3.org/2000/svg">
<path d="M7.98917 3.25574L8.45889 2.91105L8.04691 2.49907L6.31937 0.771535C6.25759 0.709752 6.25759 0.60843 6.31937 0.546646C6.35054 0.515479 6.39054 0.5 6.43182 0.5C6.4731 0.5 6.51309 0.515478 6.54426 0.546646L8.49836 2.50075L8.75255 2.75494L9.07446 2.59494C10.0679 2.10118 11.1816 1.81818 12.3636 1.81818C13.5457 1.81818 14.6594 2.10118 15.6528 2.59494L15.9747 2.75494L16.2289 2.50075L18.183 0.546647C18.2447 0.484999 18.3457 0.484863 18.4075 0.546241C18.4699 0.609448 18.4698 0.70889 18.4074 0.772054C18.4073 0.772183 18.4071 0.772312 18.407 0.772441L16.6804 2.49907L16.2684 2.91105L16.7381 3.25574C18.5774 4.60545 19.7727 6.77463 19.7727 9.22727V21.0909C19.7727 21.5424 19.406 21.9091 18.9545 21.9091H17.6364H17.1364V22.4091V27.0227C17.1364 27.838 16.4744 28.5 15.6591 28.5C14.8438 28.5 14.1818 27.838 14.1818 27.0227V22.4091V21.9091H13.6818H11.0455H10.5455V22.4091V27.0227C10.5455 27.838 9.88349 28.5 9.06818 28.5C8.25287 28.5 7.59091 27.838 7.59091 27.0227V22.4091V21.9091H7.09091H5.77273C5.32123 21.9091 4.95455 21.5424 4.95455 21.0909V9.22727C4.95455 6.77463 6.14985 4.60545 7.98917 3.25574ZM17.6364 9.72727H18.1364V9.22727C18.1364 6.04322 15.5477 3.45455 12.3636 3.45455C9.17958 3.45455 6.59091 6.04322 6.59091 9.22727V9.72727H7.09091H17.6364ZM7.09091 11.3636H6.59091V11.8636V19.7727V20.2727H7.09091H11.0455H17.6364H18.1364V19.7727V11.8636V11.3636H17.6364H7.09091ZM10.5455 7.40909H10.2273V7.09091H10.5455V7.40909ZM14.5 7.40909H14.1818V7.09091H14.5V7.40909ZM1 11.8636C1 11.4121 1.36669 11.0455 1.81818 11.0455C2.26968 11.0455 2.63636 11.4121 2.63636 11.8636V19.7727C2.63636 20.2242 2.26968 20.5909 1.81818 20.5909C1.36669 20.5909 1 20.2242 1 19.7727V11.8636ZM22.0909 11.8636C22.0909 11.4121 22.4576 11.0455 22.9091 11.0455C23.3606 11.0455 23.7273 11.4121 23.7273 11.8636V19.7727C23.7273 20.2242 23.3606 20.5909 22.9091 20.5909C22.4576 20.5909 22.0909 20.2242 22.0909 19.7727V11.8636Z" fill="#ECECEC" stroke="#ECECEC"/>
</svg>
