<svg width="29" height="28" viewBox="0 0 29 28" fill="none" xmlns="http://www.w3.org/2000/svg">
<path d="M11.375 22.0332V21.7194L11.0925 21.583C8.41643 20.2904 6.54167 17.6348 6.54167 14.5C6.54167 10.1188 10.1188 6.54167 14.5 6.54167C18.8812 6.54167 22.4583 10.1188 22.4583 14.5C22.4583 17.6348 20.5836 20.2904 17.9075 21.583L17.625 21.7194V22.0332V25.375C17.625 26.4196 16.753 27.2917 15.7083 27.2917H13.2917C12.247 27.2917 11.375 26.4196 11.375 25.375V22.0332ZM16.6791 20.6617L16.6799 20.6614C19.2151 19.7644 21.0417 17.3595 21.0417 14.5C21.0417 10.8723 18.1277 7.95833 14.5 7.95833C10.8723 7.95833 7.95833 10.8723 7.95833 14.5C7.95833 17.3595 9.7849 19.7644 12.3201 20.6614L12.3209 20.6617L12.7917 20.8273V25.375V25.875H13.2917H15.7083H16.2083V25.375V20.8273L16.6791 20.6617ZM15.2083 3.125H13.7917V0.5H15.2083V3.125ZM4.10082 5.10238L5.10238 4.10082L6.95826 5.95671L5.95671 6.95826L4.10082 5.10238ZM22.0417 5.95671L23.8976 4.10082L24.8992 5.10238L23.0433 6.95826L22.0417 5.95671ZM3.125 15.2083H0.5V13.7917H3.125V15.2083ZM28.5 15.2083H25.875V13.7917H28.5V15.2083ZM4.10082 23.8976L5.95671 22.0417L6.95826 23.0433L5.10238 24.8992L4.10082 23.8976ZM22.0417 23.0433L23.0433 22.0417L24.8992 23.8976L23.8976 24.8992L22.0417 23.0433Z" fill="#ECECEC" stroke="#ECECEC"/>
</svg>
