<svg width="39" height="40" viewBox="0 0 39 40" fill="none" xmlns="http://www.w3.org/2000/svg">
<path d="M36.9967 4.62332H2.29506C1.13833 4.62332 0.367188 3.85217 0.367188 2.69545C0.367188 1.53873 1.13833 0.767578 2.29506 0.767578H36.9967C38.1534 0.767578 38.9246 1.53873 38.9246 2.69545C38.9246 3.85217 38.1534 4.62332 36.9967 4.62332Z" fill="#ECECEC"/>
<path d="M36.9967 27.7577H19.6459C18.4892 27.7577 17.718 26.9866 17.718 25.8299C17.718 24.6732 18.4892 23.902 19.6459 23.902H36.9967C38.1534 23.902 38.9246 24.6732 38.9246 25.8299C38.9246 26.9866 38.1534 27.7577 36.9967 27.7577Z" fill="#ECECEC"/>
<path d="M36.9967 16.1905H19.6459C18.4892 16.1905 17.718 15.4194 17.718 14.2627C17.718 13.1059 18.4892 12.3348 19.6459 12.3348H36.9967C38.1534 12.3348 38.9246 13.1059 38.9246 14.2627C38.9246 15.4194 38.1534 16.1905 36.9967 16.1905Z" fill="#ECECEC"/>
<path d="M36.9967 39.325H2.29506C1.13833 39.325 0.367188 38.5538 0.367188 37.3971C0.367188 36.2404 1.13833 35.4692 2.29506 35.4692H36.9967C38.1534 35.4692 38.9246 36.2404 38.9246 37.3971C38.9246 38.5538 38.1534 39.325 36.9967 39.325Z" fill="#ECECEC"/>
<path d="M3.83735 29.8784C3.25899 29.8784 2.68063 29.6856 2.29506 29.4928C1.13833 28.9145 0.367188 27.7577 0.367188 26.4082V13.6843C0.367188 12.3348 1.13833 11.1781 2.29506 10.5997C3.45178 10.0214 4.80129 10.2141 5.95801 10.9853L14.4406 17.3473C15.2118 17.9256 15.7901 18.8895 15.7901 20.0463C15.7901 21.203 15.2118 22.1669 14.4406 22.9381L5.95801 29.3C5.37965 29.6856 4.6085 29.8784 3.83735 29.8784ZM4.22293 14.4554V25.6371L11.7416 20.0463L4.22293 14.4554Z" fill="#ECECEC"/>
</svg>
