<svg width="20" height="30" viewBox="0 0 20 30" fill="none" xmlns="http://www.w3.org/2000/svg">
<path d="M2.88769 3.1218L2.16406 2.75995V3.56901V7.03301V7.35793L2.46097 7.4899L12.3236 11.8739L12.5611 11.9795L12.784 11.8457L15.4347 10.2551L16.2156 9.78645L15.401 9.37914L2.88769 3.1218ZM5.40909 13.8501L1.16406 26.5852V10.6663L5.40909 13.8501ZM18.8307 20.024L3.19631 27.8412L18.8307 12.2068V20.024ZM17.8307 15.8277V14.6204L16.9771 15.4742L10.4398 22.0128L11.017 22.8135L17.5544 19.5442L17.8307 19.406V19.097V15.8277ZM2.96398 13.2663L2.16406 12.6666V13.6663V17.3423L3.13843 17.5004L4.11843 14.5591L4.23235 14.2171L3.94398 14.0009L2.96398 13.2663ZM12.6297 13.1039L1.16406 8.00807V1.14202L18.2924 9.70622L12.6297 13.1039Z" fill="#ECECEC" stroke="#ECECEC"/>
</svg>
