<svg width="29" height="29" viewBox="0 0 29 29" fill="none" xmlns="http://www.w3.org/2000/svg">
<path d="M19.9715 1.3173L19.9714 1.31743L19.9816 1.32452C22.9139 3.35681 25.4745 6.03201 27.6591 8.97666C28.9296 10.7035 28.7189 13.1542 27.3046 14.8106L22.9015 19.1974C21.3806 20.7126 18.9155 20.9447 17.1653 19.7822L17.1394 19.765L17.1116 19.7512C17.0124 19.7018 16.938 19.6528 16.8405 19.5881L16.8354 19.5847C16.739 19.5206 16.6199 19.4415 16.4621 19.3629L16.1406 19.2028L15.8862 19.4562L7.70171 27.6103C7.149 28.161 6.36786 28.5 5.45634 28.5H1.29913C1.16236 28.5 1.07072 28.4779 0.998155 28.4457C0.923474 28.4127 0.842951 28.3574 0.742634 28.2575C0.642269 28.1575 0.587034 28.0775 0.55406 28.0035C0.522078 27.9318 0.5 27.8413 0.5 27.7057V23.5639C0.5 22.6574 0.839574 21.8801 1.3922 21.3295L9.57671 13.1754L10.0699 12.684L9.44676 12.3736C9.40611 12.3534 9.3611 12.316 9.2988 12.2415C9.27377 12.2116 9.25201 12.1834 9.22524 12.1487C9.21696 12.1379 9.20821 12.1265 9.19872 12.1143C9.17276 12.0808 9.13778 12.0362 9.09725 11.9915C7.95718 10.2518 8.19615 7.82044 9.70663 6.31558L14.1237 1.91494C15.7817 0.263045 18.2366 0.0497933 19.9715 1.3173ZM17.7586 18.5284L17.7585 18.5285L17.768 18.5352C18.8997 19.3406 20.4682 19.1503 21.5287 18.0938L25.9457 13.6931C27.0211 12.6217 27.1891 11.0517 26.2558 9.80725C24.2807 7.05336 21.9029 4.55065 18.9884 2.57086L18.9884 2.57084L18.9841 2.56796C18.5149 2.25632 18.0294 2.09617 17.4083 2.09617C16.6491 2.09617 15.8483 2.39361 15.343 3.04206L10.9625 7.40628C9.8801 8.3437 9.71232 9.89874 10.4831 11.0087C10.6205 11.2772 10.7859 11.5409 10.9376 11.7826L10.9438 11.7926C11.1088 12.0556 11.2579 12.294 11.3752 12.5277L11.3955 12.5681L11.4226 12.6042C11.557 12.7826 11.6077 12.9599 11.5989 13.1169C11.5903 13.2708 11.5224 13.4494 11.3393 13.6318L2.37528 22.5626C2.06096 22.8757 1.83843 23.2544 1.83843 23.6933V26.5408V27.0408H2.33843H5.19652C5.63504 27.0408 6.01435 26.8201 6.32889 26.5067L15.2929 17.576L15.3181 17.5509L15.3395 17.5225C15.5152 17.2891 15.9601 17.2169 16.3296 17.4929C16.5941 17.6906 16.8255 17.8552 17.0521 18.0165L17.0535 18.0175C17.2811 18.1795 17.504 18.3381 17.7586 18.5284ZM18.1174 10.9483L18.1015 10.9321L18.0842 10.9174C17.5161 10.4355 17.4585 9.52798 18.0849 8.85841C18.4947 8.58154 18.7817 8.40909 19.1483 8.40909C19.6607 8.40909 19.985 8.54545 20.1176 8.74798L20.1446 8.78925L20.1792 8.82444C20.4905 9.14123 20.5909 9.43242 20.5909 9.88636C20.5909 10.3403 20.4905 10.6315 20.1792 10.9483C20.0119 11.1186 19.8613 11.216 19.7119 11.2745C19.5604 11.3338 19.3833 11.3636 19.1483 11.3636C18.9134 11.3636 18.7362 11.3338 18.5848 11.2745C18.4354 11.216 18.2848 11.1186 18.1174 10.9483Z" fill="#ECECEC" stroke="#ECECEC"/>
</svg>
