<svg width="29" height="29" viewBox="0 0 29 29" fill="none" xmlns="http://www.w3.org/2000/svg">
<mask id="path-1-inside-1_1303_39073" fill="white">
<path d="M10.5608 21.0129L9.69083 20.3604L11.2617 15.4304L7.25 13.195V12.0833H12.5063L13.9321 6.64583H15.1042L16.53 12.0833H21.7621V13.195L17.7746 15.5029L19.3817 20.3725L18.4754 21.0008L14.5363 17.9558L10.585 21.0129H10.5608ZM29 14.5C29 6.50083 22.4992 0 14.5 0C6.50083 0 0 6.50083 0 14.5C0 22.4992 6.50083 29 14.5 29C22.4992 29 29 22.4992 29 14.5ZM25.375 14.5C25.375 20.4933 20.4933 25.375 14.5 25.375C8.50667 25.375 3.625 20.4933 3.625 14.5C3.625 8.50667 8.50667 3.625 14.5 3.625C20.4933 3.625 25.375 8.50667 25.375 14.5Z"/>
</mask>
<path d="M10.5608 21.0129L9.69083 20.3604L11.2617 15.4304L7.25 13.195V12.0833H12.5063L13.9321 6.64583H15.1042L16.53 12.0833H21.7621V13.195L17.7746 15.5029L19.3817 20.3725L18.4754 21.0008L14.5363 17.9558L10.585 21.0129H10.5608ZM29 14.5C29 6.50083 22.4992 0 14.5 0C6.50083 0 0 6.50083 0 14.5C0 22.4992 6.50083 29 14.5 29C22.4992 29 29 22.4992 29 14.5ZM25.375 14.5C25.375 20.4933 20.4933 25.375 14.5 25.375C8.50667 25.375 3.625 20.4933 3.625 14.5C3.625 8.50667 8.50667 3.625 14.5 3.625C20.4933 3.625 25.375 8.50667 25.375 14.5Z" fill="#ECECEC"/>
<path d="M10.5608 21.0129L-2.23916 38.0796L3.44973 42.3463H10.5608V21.0129ZM9.69083 20.3604L-10.6356 13.8839L-15.2386 28.33L-3.10916 37.4271L9.69083 20.3604ZM11.2617 15.4304L31.5881 21.907L36.884 5.28611L21.6459 -3.20502L11.2617 15.4304ZM7.25 13.195H-14.0833V25.7293L-3.13421 31.8304L7.25 13.195ZM7.25 12.0833V-9.25H-14.0833V12.0833H7.25ZM12.5063 12.0833V33.4167H28.9668L33.1419 17.4945L12.5063 12.0833ZM13.9321 6.64583V-14.6875H-2.52843L-6.70359 1.23471L13.9321 6.64583ZM15.1042 6.64583L35.7398 1.2347L31.5647 -14.6875H15.1042V6.64583ZM16.53 12.0833L-4.10567 17.4945L0.0694893 33.4167H16.53V12.0833ZM21.7621 12.0833H43.0954V-9.25H21.7621V12.0833ZM21.7621 13.195L32.4487 31.6587L43.0954 25.4965V13.195H21.7621ZM17.7746 15.5029L7.08802 -2.96079L-7.91768 5.72433L-2.48401 22.1888L17.7746 15.5029ZM19.3817 20.3725L31.5369 37.9042L44.6355 28.8226L39.6403 13.6867L19.3817 20.3725ZM18.4754 21.0008L5.42826 37.8793L17.7903 47.4352L30.6307 38.5325L18.4754 21.0008ZM14.5363 17.9558L27.5834 1.07736L14.5304 -9.0127L1.48176 1.08303L14.5363 17.9558ZM10.585 21.0129V42.3463H17.8743L23.6395 37.8857L10.585 21.0129ZM23.3608 3.94624L22.4908 3.29375L-3.10916 37.4271L-2.23916 38.0796L23.3608 3.94624ZM30.0173 26.837L31.5881 21.907L-9.0648 8.95385L-10.6356 13.8839L30.0173 26.837ZM21.6459 -3.20502L17.6342 -5.44043L-3.13421 31.8304L0.877461 34.0659L21.6459 -3.20502ZM28.5833 13.195V12.0833H-14.0833V13.195H28.5833ZM7.25 33.4167H12.5063V-9.25H7.25V33.4167ZM33.1419 17.4945L34.5678 12.057L-6.70359 1.23471L-8.12942 6.67221L33.1419 17.4945ZM13.9321 27.9792H15.1042V-14.6875H13.9321V27.9792ZM-5.5315 12.057L-4.10567 17.4945L37.1657 6.6722L35.7398 1.2347L-5.5315 12.057ZM16.53 33.4167H21.7621V-9.25H16.53V33.4167ZM0.42875 12.0833V13.195H43.0954V12.0833H0.42875ZM11.0755 -5.2687L7.08802 -2.96079L28.4612 33.9666L32.4487 31.6587L11.0755 -5.2687ZM-2.48401 22.1888L-0.876926 27.0583L39.6403 13.6867L38.0332 8.81707L-2.48401 22.1888ZM7.2264 2.8408L6.32015 3.46913L30.6307 38.5325L31.5369 37.9042L7.2264 2.8408ZM31.5226 4.12236L27.5834 1.07736L1.48909 34.8343L5.42826 37.8793L31.5226 4.12236ZM1.48176 1.08303L-2.46949 4.14012L23.6395 37.8857L27.5907 34.8286L1.48176 1.08303ZM10.585 -0.320417H10.5608V42.3463H10.585V-0.320417ZM50.3333 14.5C50.3333 -5.28124 34.2812 -21.3333 14.5 -21.3333V21.3333C10.7171 21.3333 7.66667 18.2829 7.66667 14.5H50.3333ZM14.5 -21.3333C-5.28124 -21.3333 -21.3333 -5.28124 -21.3333 14.5H21.3333C21.3333 18.2829 18.2829 21.3333 14.5 21.3333V-21.3333ZM-21.3333 14.5C-21.3333 34.2812 -5.28124 50.3333 14.5 50.3333V7.66667C18.2829 7.66667 21.3333 10.7171 21.3333 14.5H-21.3333ZM14.5 50.3333C34.2812 50.3333 50.3333 34.2812 50.3333 14.5H7.66667C7.66667 10.7171 10.7171 7.66667 14.5 7.66667V50.3333ZM4.04167 14.5C4.04167 8.71126 8.71126 4.04167 14.5 4.04167V46.7083C32.2754 46.7083 46.7083 32.2754 46.7083 14.5H4.04167ZM14.5 4.04167C20.2887 4.04167 24.9583 8.71126 24.9583 14.5H-17.7083C-17.7083 32.2754 -3.27541 46.7083 14.5 46.7083V4.04167ZM24.9583 14.5C24.9583 20.2887 20.2887 24.9583 14.5 24.9583V-17.7083C-3.27541 -17.7083 -17.7083 -3.27541 -17.7083 14.5H24.9583ZM14.5 24.9583C8.71126 24.9583 4.04167 20.2887 4.04167 14.5H46.7083C46.7083 -3.27541 32.2754 -17.7083 14.5 -17.7083V24.9583Z" fill="#ECECEC" mask="url(#path-1-inside-1_1303_39073)"/>
</svg>
