<svg width="40" height="40" viewBox="0 0 40 40" fill="none" xmlns="http://www.w3.org/2000/svg">
<path d="M20.0951 0.540955C9.49182 0.540955 0.816406 9.21636 0.816406 19.8196C0.816406 30.4229 9.49182 39.0983 20.0951 39.0983C30.6984 39.0983 39.3738 30.4229 39.3738 19.8196C39.3738 9.21636 30.6984 0.540955 20.0951 0.540955ZM20.0951 35.2426C11.6125 35.2426 4.67214 28.3023 4.67214 19.8196C4.67214 11.337 11.6125 4.39669 20.0951 4.39669C28.5777 4.39669 35.518 11.337 35.518 19.8196C35.518 28.3023 28.5777 35.2426 20.0951 35.2426Z" fill="#ECECEC"/>
<path d="M30.6984 26.3744C29.3489 25.0249 27.8066 24.061 26.0715 23.2898C27.421 21.7475 28.3849 19.8196 28.3849 17.5062C28.3849 12.8793 24.722 9.21636 20.0951 9.21636C15.4682 9.21636 11.8053 12.8793 11.8053 17.5062C11.8053 19.8196 12.7692 21.7475 14.1187 23.2898C12.3836 24.061 10.8413 25.0249 9.49182 26.3744C8.72067 27.1455 8.72067 28.3023 9.49182 29.0734C9.87739 29.459 10.4558 29.6518 10.8413 29.6518C11.4197 29.6518 11.8053 29.459 12.1908 29.0734C14.3115 26.9528 17.0105 25.796 20.0951 25.796C22.9869 25.796 25.8787 26.9528 27.9994 29.0734C28.7705 29.8446 29.9272 29.8446 30.6984 29.0734C31.4695 28.3023 31.4695 27.1455 30.6984 26.3744ZM15.661 17.5062C15.661 15 17.5889 13.0721 20.0951 13.0721C22.6013 13.0721 24.5292 15 24.5292 17.5062C24.5292 20.0124 22.6013 21.9403 20.0951 21.9403C17.5889 21.9403 15.661 20.0124 15.661 17.5062Z" fill="#ECECEC"/>
</svg>
