<svg width="30" height="25" viewBox="0 0 30 25" fill="none" xmlns="http://www.w3.org/2000/svg">
<path d="M14.5293 1.00297C12.0241 0.956231 9.5155 1.46129 7.28125 2.55179C4.29025 3.97879 1.865 6.46103 0.5 9.41703C2.015 6.53203 4.53033 4.23301 7.48633 3.00101C10.4323 1.74401 13.7579 1.52909 16.8359 2.20609C19.9149 2.87309 22.7623 4.52198 24.6953 6.91898C26.6543 9.30098 27.594 12.378 27.5 15.417C27.5 15.432 27.499 15.4528 27.5 15.4678C27.51 16.0208 27.9675 16.4583 28.5195 16.4483C29.0715 16.4383 29.511 15.9807 29.5 15.4287V15.417C29.434 11.959 28.1601 8.48637 25.8301 5.94437C23.5271 3.37737 20.3254 1.77243 17.0234 1.23343C16.1989 1.09668 15.3644 1.01854 14.5293 1.00297ZM14.1699 3.80179C12.9222 3.79792 11.6805 3.97881 10.5 4.34281C12.905 3.77781 15.4541 3.96762 17.7051 4.85062C19.9541 5.73762 21.9042 7.31932 23.1582 9.32132C24.4292 11.3143 24.9759 13.7052 24.7109 15.9952C24.4709 18.2862 23.423 20.448 21.793 21.96C21.778 21.974 21.7601 21.9909 21.7461 22.0069C21.3661 22.4089 21.3851 23.0439 21.7871 23.4229C22.1891 23.8029 22.8222 23.7839 23.2012 23.3819L23.207 23.3741C25.082 21.3891 26.1226 18.7404 26.2246 16.1084C26.3536 13.4694 25.5311 10.826 23.9961 8.75101C22.4751 6.66001 20.277 5.13606 17.875 4.37406C16.6715 3.99456 15.4177 3.80567 14.1699 3.80179ZM17.5 7.41703C19.233 8.16603 20.6198 9.57301 21.3438 11.251C22.0847 12.915 22.2571 14.818 21.8711 16.544C21.4821 18.269 20.5239 19.8415 19.1719 20.8955C17.8289 21.9585 16.143 22.492 14.5 22.417C14.472 22.416 14.4372 22.416 14.4082 22.417C13.8562 22.442 13.4281 22.9119 13.4531 23.4639C13.4781 24.0159 13.948 24.442 14.5 24.417C16.627 24.329 18.6692 23.4444 20.1602 22.0264C21.6662 20.6174 22.6003 18.6889 22.8633 16.7159C23.1233 14.7349 22.7369 12.7264 21.7949 11.0244C20.8669 9.31645 19.29 8.00503 17.5 7.41703ZM18.5 12.417C19.193 13.466 19.1536 14.8132 18.9316 15.9502C18.6576 17.0982 17.8938 18.0699 16.9258 18.6299C15.9588 19.2019 14.8026 19.3482 13.7656 19.1182C12.7276 18.8902 11.8271 18.2547 11.2891 17.4287C11.2641 17.3917 11.2331 17.3505 11.2031 17.3155C10.8391 16.8975 10.2051 16.8538 9.78711 17.2178C9.36911 17.5818 9.32741 18.2158 9.69141 18.6338L9.71094 18.6553C10.7049 19.7963 12.1169 20.4885 13.5469 20.6045C14.9709 20.7245 16.4102 20.3111 17.4922 19.4561C18.5792 18.6141 19.2987 17.3472 19.4297 16.0342C19.4957 15.3722 19.4316 14.7393 19.3066 14.1143C19.1786 13.4913 18.919 12.883 18.5 12.417Z" fill="#ECECEC" stroke="#ECECEC"/>
</svg>
