<svg width="29" height="29" viewBox="0 0 29 29" fill="none" xmlns="http://www.w3.org/2000/svg">
<mask id="path-1-inside-1_1303_39028" fill="white">
<path d="M29 11.4792C29 10.0183 27.962 8.79909 26.5833 8.51876V1.20834C26.5833 0.578798 26.1012 0.0555895 25.4753 0.00363119C24.8542 -0.0543688 24.2875 0.38909 24.1836 1.00896C23.7135 3.82801 19.8094 4.83334 16.3125 4.83334H6.64583C2.98096 4.83334 0 7.8143 0 11.4792C0 13.4741 0.8845 15.2673 2.28133 16.4865L6.07792 26.616C6.409 27.5246 7.076 28.252 7.95325 28.6605C8.44021 28.8876 8.95979 29.0012 9.48058 29.0012C9.89988 29.0012 10.3192 28.9275 10.7252 28.7801C11.6338 28.449 12.3613 27.782 12.7697 26.9048C13.1781 26.0263 13.2204 25.0427 12.8893 24.1353L10.7107 18.125H16.3125C19.8094 18.125 23.7135 19.1291 24.1836 21.9494C24.2815 22.5354 24.789 22.9583 25.3738 22.9583C25.4076 22.9583 25.4415 22.9583 25.4741 22.9547C26.1012 22.9028 26.5821 22.3795 26.5821 21.75V14.4396C27.9608 14.1593 29 12.9413 29 11.4792ZM6.64583 7.25001H8.4535L8.41725 15.7083H6.64704C4.31496 15.7083 2.41787 13.8113 2.41787 11.4792C2.41787 9.14709 4.31375 7.25001 6.64583 7.25001ZM10.6188 24.9605C10.7288 25.2626 10.7155 25.5913 10.579 25.8837C10.4424 26.1761 10.2008 26.3985 9.89746 26.5096C9.59538 26.6208 9.26671 26.6063 8.97429 26.4698C8.68188 26.3332 8.45954 26.0915 8.34475 25.7786L5.43508 18.015C5.82779 18.0875 6.23258 18.1262 6.64583 18.1262H8.14054L10.6188 24.9618V24.9605ZM24.1667 17.7613C22.3699 16.4382 19.6717 15.7083 16.3125 15.7083H10.8327L10.869 7.25001H16.3113C19.6705 7.25001 22.3687 6.52017 24.1655 5.19705V17.7601L24.1667 17.7613Z"/>
</mask>
<path d="M29 11.4792C29 10.0183 27.962 8.79909 26.5833 8.51876V1.20834C26.5833 0.578798 26.1012 0.0555895 25.4753 0.00363119C24.8542 -0.0543688 24.2875 0.38909 24.1836 1.00896C23.7135 3.82801 19.8094 4.83334 16.3125 4.83334H6.64583C2.98096 4.83334 0 7.8143 0 11.4792C0 13.4741 0.8845 15.2673 2.28133 16.4865L6.07792 26.616C6.409 27.5246 7.076 28.252 7.95325 28.6605C8.44021 28.8876 8.95979 29.0012 9.48058 29.0012C9.89988 29.0012 10.3192 28.9275 10.7252 28.7801C11.6338 28.449 12.3613 27.782 12.7697 26.9048C13.1781 26.0263 13.2204 25.0427 12.8893 24.1353L10.7107 18.125H16.3125C19.8094 18.125 23.7135 19.1291 24.1836 21.9494C24.2815 22.5354 24.789 22.9583 25.3738 22.9583C25.4076 22.9583 25.4415 22.9583 25.4741 22.9547C26.1012 22.9028 26.5821 22.3795 26.5821 21.75V14.4396C27.9608 14.1593 29 12.9413 29 11.4792ZM6.64583 7.25001H8.4535L8.41725 15.7083H6.64704C4.31496 15.7083 2.41787 13.8113 2.41787 11.4792C2.41787 9.14709 4.31375 7.25001 6.64583 7.25001ZM10.6188 24.9605C10.7288 25.2626 10.7155 25.5913 10.579 25.8837C10.4424 26.1761 10.2008 26.3985 9.89746 26.5096C9.59538 26.6208 9.26671 26.6063 8.97429 26.4698C8.68188 26.3332 8.45954 26.0915 8.34475 25.7786L5.43508 18.015C5.82779 18.0875 6.23258 18.1262 6.64583 18.1262H8.14054L10.6188 24.9618V24.9605ZM24.1667 17.7613C22.3699 16.4382 19.6717 15.7083 16.3125 15.7083H10.8327L10.869 7.25001H16.3113C19.6705 7.25001 22.3687 6.52017 24.1655 5.19705V17.7601L24.1667 17.7613Z" fill="#ECECEC"/>
<path d="M26.5833 8.51876H5.25V25.9509L22.3326 29.4243L26.5833 8.51876ZM25.4753 0.00363119L23.4917 21.2445L23.601 21.2548L23.7104 21.2638L25.4753 0.00363119ZM24.1836 1.00896L3.14385 -2.51816L3.1423 -2.50892L3.14076 -2.49968L24.1836 1.00896ZM2.28133 16.4865L22.2576 8.99927L20.3674 3.95598L16.3097 0.414324L2.28133 16.4865ZM6.07792 26.616L26.1222 19.3126L26.0886 19.2205L26.0542 19.1287L6.07792 26.616ZM7.95325 28.6605L16.9722 9.32733L16.9647 9.32386L16.9573 9.3204L7.95325 28.6605ZM10.7252 28.7801L18.0061 48.8325L18.0173 48.8284L18.0285 48.8243L10.7252 28.7801ZM12.7697 26.9048L32.1097 35.9088L32.1145 35.8986L12.7697 26.9048ZM12.8893 24.1353L-7.16704 31.4054L-7.15946 31.4263L-7.15183 31.4472L12.8893 24.1353ZM10.7107 18.125V-3.20833H-19.714L-9.34567 25.3951L10.7107 18.125ZM24.1836 21.9494L3.14051 25.4566L3.14169 25.4636L24.1836 21.9494ZM25.4741 22.9547L23.7126 1.69423L23.415 1.71888L23.1182 1.75186L25.4741 22.9547ZM26.5821 14.4396L22.3314 -6.46597L5.24879 -2.99256V14.4396H26.5821ZM8.4535 7.25001L29.7866 7.34143L29.8785 -14.0833H8.4535V7.25001ZM8.41725 15.7083V37.0417H29.6594L29.7504 15.7998L8.41725 15.7083ZM10.6188 24.9605L30.6654 17.6636L-10.7145 24.9605H10.6188ZM9.89746 26.5096L2.5557 6.47941L2.54277 6.48415L2.52983 6.48891L9.89746 26.5096ZM8.34475 25.7786L28.3733 18.4322L28.3475 18.3619L28.3212 18.2917L8.34475 25.7786ZM5.43508 18.015L9.3081 -2.96377L-27.7758 -9.81002L-14.5413 25.5019L5.43508 18.015ZM8.14054 18.1262L28.1964 10.8548L23.0981 -3.20712H8.14054V18.1262ZM10.6188 24.9618L-9.43702 32.2332L31.9522 24.9618H10.6188ZM24.1667 17.7613L11.5169 34.9396L39.2588 2.68355L24.1667 17.7613ZM10.8327 15.7083L-10.5004 15.6169L-10.5922 37.0417H10.8327V15.7083ZM10.869 7.25001V-14.0833H-10.3731L-10.4642 7.15858L10.869 7.25001ZM24.1655 5.19705H45.4988V-37.0058L11.5157 -11.9813L24.1655 5.19705ZM24.1655 17.7601H2.83213V26.5907L9.07332 32.8378L24.1655 17.7601ZM50.3333 11.4792C50.3333 -0.330785 41.9501 -10.1266 30.8341 -12.3868L22.3326 29.4243C13.974 27.7248 7.66667 20.3674 7.66667 11.4792H50.3333ZM47.9167 8.51876V1.20834H5.25V8.51876H47.9167ZM47.9167 1.20834C47.9167 -10.5159 38.929 -20.2863 27.2401 -21.2566L23.7104 21.2638C13.2735 20.3974 5.25 11.6735 5.25 1.20834H47.9167ZM27.4589 -21.2373C15.462 -22.3576 5.05489 -13.9177 3.14385 -2.51816L45.2233 4.53609C43.5201 14.6959 34.2464 22.2489 23.4917 21.2445L27.4589 -21.2373ZM3.14076 -2.49968C4.6418 -11.5021 11.4868 -15.0207 13.2876 -15.7593C14.4176 -16.2228 15.2441 -16.3793 15.5839 -16.4336C15.9638 -16.4944 16.2001 -16.5 16.3125 -16.5V26.1667C19.6955 26.1667 24.5584 25.734 29.4787 23.7159C34.2233 21.7699 43.2553 16.339 45.2264 4.51761L3.14076 -2.49968ZM16.3125 -16.5H6.64583V26.1667H16.3125V-16.5ZM6.64583 -16.5C-8.80112 -16.5 -21.3333 -3.96777 -21.3333 11.4792H21.3333C21.3333 19.5964 14.763 26.1667 6.64583 26.1667V-16.5ZM-21.3333 11.4792C-21.3333 19.9164 -17.5691 27.477 -11.7471 32.5587L16.3097 0.414324C19.3381 3.05762 21.3333 7.0319 21.3333 11.4792H-21.3333ZM-17.695 23.9737L-13.8984 34.1032L26.0542 19.1287L22.2576 8.99927L-17.695 23.9737ZM-13.9663 33.9193C-11.6978 40.1453 -7.05967 45.203 -1.0508 48.0005L16.9573 9.3204C21.2117 11.3011 24.5158 14.9039 26.1222 19.3126L-13.9663 33.9193ZM-1.06568 47.9936C2.24085 49.5361 5.83844 50.3345 9.48058 50.3345V7.66788C12.0811 7.66788 14.6396 8.23916 16.9722 9.32733L-1.06568 47.9936ZM9.48058 50.3345C12.4182 50.3345 15.2996 49.8152 18.0061 48.8325L3.44423 8.72768C5.33872 8.0398 7.38151 7.66788 9.48058 7.66788V50.3345ZM18.0285 48.8243C24.2545 46.5558 29.3122 41.9177 32.1097 35.9088L-6.5704 17.9007C-4.58972 13.6463 -0.986876 10.3422 3.42181 8.73584L18.0285 48.8243ZM32.1145 35.8986C34.9014 29.9043 35.2044 23.0561 32.9304 16.8233L-7.15183 31.4472C-8.76369 27.0293 -8.54523 22.1483 -6.57514 17.9109L32.1145 35.8986ZM32.9456 16.8651L30.767 10.8549L-9.34567 25.3951L-7.16704 31.4054L32.9456 16.8651ZM10.7107 39.4583H16.3125V-3.20833H10.7107V39.4583ZM16.3125 39.4583C16.2014 39.4583 15.9657 39.4528 15.5861 39.3922C15.2467 39.338 14.4199 39.1815 13.2893 38.7179C11.485 37.978 4.64077 34.4581 3.14051 25.4566L45.2267 18.4422C43.2564 6.62039 34.2251 1.18828 29.4769 -0.758716C24.5558 -2.77665 19.6927 -3.20833 16.3125 -3.20833V39.4583ZM3.14169 25.4636C4.96926 36.4065 14.4377 44.2917 25.3738 44.2917V1.62501C35.1403 1.62501 43.5937 8.66439 45.2255 18.4352L3.14169 25.4636ZM25.3738 44.2917C25.3751 44.2917 25.3972 44.2917 25.4223 44.2916C25.4493 44.2916 25.4914 44.2915 25.5424 44.2911C25.6421 44.2905 25.8032 44.2888 26.0009 44.2834C26.3826 44.2731 27.0313 44.2463 27.83 44.1576L23.1182 1.75186C23.8842 1.66675 24.4997 1.64176 24.8479 1.63234C25.168 1.62369 25.4405 1.62501 25.3738 1.62501V44.2917ZM27.2356 44.2152C38.9447 43.2451 47.9155 33.4579 47.9155 21.75H5.24879C5.24879 11.3012 13.2578 2.56043 23.7126 1.69423L27.2356 44.2152ZM47.9155 21.75V14.4396H5.24879V21.75H47.9155ZM30.8329 35.3451C41.9313 33.0885 50.3333 23.308 50.3333 11.4792H7.66667C7.66667 2.57447 13.9904 -4.76999 22.3314 -6.46597L30.8329 35.3451ZM6.64583 28.5833H8.4535V-14.0833H6.64583V28.5833ZM-12.8796 7.15858L-12.9159 15.6169L29.7504 15.7998L29.7866 7.34143L-12.8796 7.15858ZM8.41725 -5.62499H6.64704V37.0417H8.41725V-5.62499ZM6.64704 -5.62499C16.097 -5.62499 23.7512 2.02918 23.7512 11.4792H-18.9155C-18.9155 25.5933 -7.46712 37.0417 6.64704 37.0417V-5.62499ZM23.7512 11.4792C23.7512 20.9212 16.1038 28.5833 6.64583 28.5833V-14.0833C-7.47626 -14.0833 -18.9155 -2.62704 -18.9155 11.4792H23.7512ZM-9.42775 32.2575C-11.2393 27.2807 -11.0286 21.7356 -8.75091 16.8578L29.9088 34.9096C32.4596 29.447 32.6969 23.2446 30.6654 17.6636L-9.42775 32.2575ZM-8.75091 16.8578C-6.50878 12.0561 -2.44834 8.31356 2.5557 6.47941L17.2392 46.5399C22.8498 44.4834 27.3936 40.2962 29.9088 34.9096L-8.75091 16.8578ZM2.52983 6.48891C7.60311 4.62195 13.1748 4.88671 18.0002 7.13989L-0.0516373 45.7996C5.3586 48.3259 11.5876 48.6196 17.2651 46.5304L2.52983 6.48891ZM18.0002 7.13989C22.8888 9.42258 26.5759 13.532 28.3733 18.4322L-11.6838 33.125C-9.65681 38.6511 -5.52507 43.2438 -0.0516373 45.7996L18.0002 7.13989ZM28.3212 18.2917L25.4115 10.5282L-14.5413 25.5019L-11.6317 33.2655L28.3212 18.2917ZM1.56207 38.9939C3.19835 39.296 4.89941 39.4596 6.64583 39.4596V-3.20712C7.56575 -3.20712 8.45723 -3.12085 9.3081 -2.96377L1.56207 38.9939ZM6.64583 39.4596H8.14054V-3.20712H6.64583V39.4596ZM-11.9153 25.3977L-9.43702 32.2332L30.6747 17.6903L28.1964 10.8548L-11.9153 25.3977ZM31.9522 24.9618V24.9605H-10.7145V24.9618H31.9522ZM36.8165 0.583001C30.0502 -4.39956 22.2811 -5.62499 16.3125 -5.62499V37.0417C16.4915 37.0417 16.1394 37.0656 15.3856 36.8668C14.6478 36.6722 13.1929 36.1738 11.5169 34.9396L36.8165 0.583001ZM16.3125 -5.62499H10.8327V37.0417H16.3125V-5.62499ZM32.1658 15.7998L32.2021 7.34143L-10.4642 7.15858L-10.5004 15.6169L32.1658 15.7998ZM10.869 28.5833H16.3113V-14.0833H10.869V28.5833ZM16.3113 28.5833C22.2799 28.5833 30.049 27.3579 36.8152 22.3753L11.5157 -11.9813C13.1917 -13.2154 14.6466 -13.7138 15.3844 -13.9084C16.1382 -14.1072 16.4903 -14.0833 16.3113 -14.0833V28.5833ZM2.83213 5.19705V17.7601H45.4988V5.19705H2.83213ZM9.07332 32.8378L9.07453 32.839L39.2588 2.68355L39.2576 2.68234L9.07332 32.8378Z" fill="#ECECEC" mask="url(#path-1-inside-1_1303_39028)"/>
</svg>
