<svg width="30" height="28" viewBox="0 0 30 28" fill="none" xmlns="http://www.w3.org/2000/svg">
<path d="M9.37177 11.4839C8.80378 10.924 7.9518 10.924 7.38382 11.4839C6.81583 12.0438 6.81583 12.8836 7.38382 13.4434L13.2057 19.602C13.4897 19.8819 13.9157 20.0219 14.1996 20.0219C14.6256 20.0219 15.0516 19.8819 15.1936 19.462L29.1093 2.2461C29.5353 1.68623 29.5353 0.706465 28.8253 0.286565C28.3993 -0.133336 27.5473 -0.133336 26.9793 0.566498L24.1394 4.06567C21.5835 1.54627 17.8916 0.00663094 14.1996 0.00663094C6.38984 0.00663094 0 6.30514 0 14.0033C0 21.7015 6.38984 28 14.1996 28C22.0095 28 28.3993 21.7015 28.3993 14.0033C28.3993 12.7436 28.2573 11.4839 27.8313 10.2242C27.5473 9.52438 26.8373 9.10448 26.1274 9.24444C25.4174 9.38441 24.9914 10.2242 25.1334 10.924C25.4174 11.9038 25.5594 13.0235 25.5594 14.0033C25.5594 20.1619 20.4475 25.2007 14.1996 25.2007C7.9518 25.2007 2.83993 20.1619 2.83993 14.0033C2.83993 7.84477 7.9518 2.80597 14.1996 2.80597C17.3236 2.80597 20.1635 4.06567 22.4354 6.30514L14.1996 16.5227L9.37177 11.4839Z" fill="#ECECEC"/>
</svg>
