<svg width="28" height="22" viewBox="0 0 28 22" fill="none" xmlns="http://www.w3.org/2000/svg">
<path d="M1.1774 3.00009V2.99967C1.1774 1.80588 2.14346 0.833008 3.33073 0.833008H24.6641C25.8546 0.833008 26.8307 1.80915 26.8307 2.99967V18.9997C26.8307 20.1902 25.8546 21.1663 24.6641 21.1663H3.33073C2.14027 21.1663 1.16417 20.1903 1.16406 18.9999C1.16406 18.9998 1.16406 18.9997 1.16406 18.9997L1.1774 3.00009ZM3.33073 6.49967H2.83073V6.99967V11.6663V12.1663H3.33073H17.3307H17.8307V11.6663V6.99967V6.49967H17.3307H3.33073ZM3.33073 13.833H2.83073V14.333V18.9997V19.4997H3.33073H17.3307H17.8307V18.9997V14.333V13.833H17.3307H3.33073ZM24.6641 19.4997H25.1641V18.9997V6.99967V6.49967H24.6641H19.9974H19.4974V6.99967V18.9997V19.4997H19.9974H24.6641Z" fill="#ECECEC" stroke="#ECECEC"/>
</svg>
