<svg width="48" height="48" viewBox="0 0 48 48" fill="none" xmlns="http://www.w3.org/2000/svg">
<g style="mix-blend-mode:luminosity" clip-path="url(#clip0_1807_36215)">
<path d="M12 38V40C12 40.5667 11.8087 41.0413 11.426 41.424C11.042 41.808 10.5667 42 10 42H8C7.43333 42 6.95867 41.808 6.576 41.424C6.192 41.0413 6 40.5667 6 40V24L10.2 12C10.4 11.4 10.7587 10.9167 11.276 10.55C11.792 10.1833 12.3667 10 13 10H35C35.6333 10 36.2087 10.1833 36.726 10.55C37.242 10.9167 37.6 11.4 37.8 12L42 24V40C42 40.5667 41.808 41.0413 41.424 41.424C41.0413 41.808 40.5667 42 40 42H38C37.4333 42 36.9587 41.808 36.576 41.424C36.192 41.0413 36 40.5667 36 40V38H12ZM11.6 20H36.4L34.3 14H13.7L11.6 20ZM15 32C15.8333 32 16.5413 31.708 17.124 31.124C17.708 30.5413 18 29.8333 18 29C18 28.1667 17.708 27.4587 17.124 26.876C16.5413 26.292 15.8333 26 15 26C14.1667 26 13.4587 26.292 12.876 26.876C12.292 27.4587 12 28.1667 12 29C12 29.8333 12.292 30.5413 12.876 31.124C13.4587 31.708 14.1667 32 15 32ZM33 32C33.8333 32 34.5413 31.708 35.124 31.124C35.708 30.5413 36 29.8333 36 29C36 28.1667 35.708 27.4587 35.124 26.876C34.5413 26.292 33.8333 26 33 26C32.1667 26 31.4587 26.292 30.876 26.876C30.292 27.4587 30 28.1667 30 29C30 29.8333 30.292 30.5413 30.876 31.124C31.4587 31.708 32.1667 32 33 32ZM10 34H38V24H10V34Z" fill="url(#paint0_radial_1807_36215)"/>
</g>
<defs>
<radialGradient id="paint0_radial_1807_36215" cx="0" cy="0" r="1" gradientUnits="userSpaceOnUse" gradientTransform="translate(24 26) rotate(100.916) scale(20.3685 22.7422)">
<stop offset="0.055" stop-color="#7A73FF"/>
<stop offset="0.65" stop-color="#67DDFA"/>
<stop offset="1" stop-color="#4AFCF1"/>
</radialGradient>
<clipPath id="clip0_1807_36215">
<rect width="48" height="48" fill="white"/>
</clipPath>
</defs>
</svg>
