<svg width="128" height="124" viewBox="0 0 128 124" fill="none" xmlns="http://www.w3.org/2000/svg">
<g filter="url(#filter0_dd_369_15040)">
<rect x="9" y="8" width="108" height="104" rx="12" fill="white"/>
<g clip-path="url(#clip0_369_15040)">
<path d="M62.2917 26V29.625H64.7083V26H62.2917ZM54.1024 29.3937L52.3937 31.1024L54.9567 33.6654L56.6654 31.9567L54.1024 29.3937ZM72.8976 29.3937L70.3346 31.9567L72.0433 33.6654L74.6063 31.1024L72.8976 29.3937ZM63.5 32.0417C58.8427 32.0417 55.0417 35.8427 55.0417 40.5C55.0417 43.8444 57.0428 46.6652 59.875 48.0332V51.375C59.875 52.6958 60.9709 53.7917 62.2917 53.7917H64.7083C66.0291 53.7917 67.125 52.6958 67.125 51.375V48.0332C69.9572 46.6652 71.9583 43.8444 71.9583 40.5C71.9583 35.8427 68.1573 32.0417 63.5 32.0417ZM63.5 34.4583C66.8515 34.4583 69.5417 37.1485 69.5417 40.5C69.5417 43.1394 67.8564 45.3609 65.5131 46.19L64.7083 46.4732V51.375H62.2917V46.4732L61.4869 46.19C59.1436 45.3609 57.4583 43.1394 57.4583 40.5C57.4583 37.1485 60.1485 34.4583 63.5 34.4583ZM49 39.2917V41.7083H52.625V39.2917H49ZM74.375 39.2917V41.7083H78V39.2917H74.375ZM54.9567 47.3346L52.3937 49.8976L54.1024 51.6063L56.6654 49.0433L54.9567 47.3346ZM72.0433 47.3346L70.3346 49.0433L72.8976 51.6063L74.6063 49.8976L72.0433 47.3346Z" fill="url(#paint0_radial_369_15040)"/>
</g>
<path d="M31.6505 76L27.8184 71.6699L28.7911 71.1777L33.0802 76H31.6505ZM26.8809 71.1191H28.1759L31.4981 67.4688H32.8165L28.6095 72.0801H26.8809V71.1191ZM26.3009 76V67.4688H27.4669V76H26.3009ZM34.0877 78.4375V69.7656H35.1073L35.16 70.6211H35.1834C35.3709 70.3516 35.6541 70.123 36.033 69.9355C36.412 69.7441 36.8553 69.6484 37.3631 69.6484C38.2381 69.6484 38.9373 69.9453 39.4608 70.5391C39.9881 71.1289 40.2518 71.8789 40.2518 72.7891V72.9766C40.2518 73.8828 39.9881 74.6328 39.4608 75.2266C38.9373 75.8203 38.2381 76.1172 37.3631 76.1172C36.8553 76.1172 36.4237 76.0352 36.0682 75.8711C35.7127 75.707 35.4276 75.4902 35.2127 75.2207V78.4375H34.0877ZM35.2127 74.084C35.3534 74.373 35.5858 74.6309 35.91 74.8574C36.2342 75.0801 36.6287 75.1914 37.0936 75.1914C37.785 75.1914 38.2909 74.9805 38.6112 74.5586C38.9354 74.1328 39.0975 73.6055 39.0975 72.9766V72.7891C39.0975 72.1562 38.9354 71.6289 38.6112 71.207C38.2909 70.7852 37.785 70.5742 37.0936 70.5742C36.6287 70.5742 36.2342 70.6875 35.91 70.9141C35.5897 71.1367 35.3573 71.3926 35.2127 71.6816V74.084ZM41.5289 72.9766V72.7891C41.5289 71.8477 41.8141 71.0801 42.3844 70.4863C42.9586 69.8887 43.7164 69.5898 44.6578 69.5898C45.6031 69.5898 46.3297 69.8691 46.8375 70.4277C47.3453 70.9824 47.5992 71.7344 47.5992 72.6836V73.1465H42.1969V72.25H46.4684V72.2207C46.4684 71.7207 46.3258 71.3105 46.0406 70.9902C45.7555 70.6699 45.2984 70.5098 44.6695 70.5098C44.0094 70.5098 43.5094 70.7285 43.1695 71.166C42.8297 71.6035 42.6598 72.1445 42.6598 72.7891V72.9766C42.6598 73.6211 42.8375 74.1621 43.193 74.5996C43.5523 75.0371 44.1051 75.2559 44.8512 75.2559C45.3043 75.2559 45.6949 75.1699 46.023 74.998C46.3512 74.8223 46.6148 74.6152 46.8141 74.377L47.5406 74.9746C47.3219 75.2676 46.982 75.541 46.5211 75.7949C46.0641 76.0488 45.5074 76.1758 44.8512 76.1758C43.777 76.1758 42.9547 75.8789 42.3844 75.2852C41.8141 74.6875 41.5289 73.918 41.5289 72.9766ZM48.7826 74.166C48.7826 73.5293 49.056 73.0352 49.6029 72.6836C50.1537 72.332 50.8666 72.1562 51.7416 72.1562H53.4115V71.7109C53.4115 71.3359 53.2943 71.0371 53.0599 70.8145C52.8295 70.5918 52.4349 70.4805 51.8763 70.4805C51.3216 70.4805 50.9212 70.5762 50.6752 70.7676C50.4291 70.9551 50.306 71.1816 50.306 71.4473V71.4766H49.181V71.4473C49.181 70.9355 49.4252 70.498 49.9134 70.1348C50.4017 69.7715 51.0658 69.5898 51.9056 69.5898C52.7416 69.5898 53.388 69.7695 53.8451 70.1289C54.306 70.4844 54.5365 71.0117 54.5365 71.7109V74.5938C54.5365 74.8477 54.558 75.0879 54.6009 75.3145C54.6439 75.5371 54.7045 75.7344 54.7826 75.9062V76H53.6986C53.6361 75.9023 53.5795 75.7734 53.5287 75.6133C53.4779 75.4531 53.4466 75.2949 53.4349 75.1387C53.2709 75.4004 52.9974 75.6289 52.6146 75.8242C52.2318 76.0195 51.7416 76.1172 51.1439 76.1172C50.472 76.1172 49.9095 75.9492 49.4564 75.6133C49.0072 75.2773 48.7826 74.7949 48.7826 74.166ZM49.9076 74.1074C49.9076 74.459 50.0287 74.7324 50.2709 74.9277C50.513 75.123 50.892 75.2207 51.4076 75.2207C51.9232 75.2207 52.3861 75.0723 52.7962 74.7754C53.2064 74.4785 53.4115 74.1641 53.4115 73.832V72.9531H51.8705C51.2298 72.9531 50.7416 73.0566 50.4056 73.2637C50.0736 73.4668 49.9076 73.748 49.9076 74.1074ZM55.8429 70.6504V69.7656H61.4093V70.6504H59.1886V76H58.0636V70.6504H55.8429ZM62.7391 76V69.7656H63.8524V73.7383C63.8524 73.8555 63.8505 73.9883 63.8466 74.1367C63.8466 74.2852 63.8446 74.4199 63.8407 74.541H63.8876C63.9423 74.4355 64.0028 74.3242 64.0692 74.207C64.1356 74.0898 64.2118 73.9727 64.2977 73.8555L67.2333 69.7656H68.3641V76H67.245V72.0332C67.245 71.9121 67.247 71.7773 67.2509 71.6289C67.2548 71.4766 67.2606 71.3398 67.2684 71.2188H67.204C67.1532 71.3203 67.0946 71.4316 67.0282 71.5527C66.9618 71.6738 66.8876 71.793 66.8055 71.9102L63.87 76H62.7391ZM70.3737 76V69.7656H73.4967C74.2077 69.7656 74.7623 69.9043 75.1608 70.1816C75.5631 70.4551 75.7643 70.8711 75.7643 71.4297C75.7643 71.7773 75.6608 72.0684 75.4537 72.3027C75.2467 72.5371 74.9694 72.6953 74.6217 72.7773V72.7949C75.0436 72.8574 75.3756 73.0117 75.6178 73.2578C75.86 73.5 75.9811 73.8105 75.9811 74.1895C75.9811 74.7598 75.7702 75.2051 75.3483 75.5254C74.9264 75.8418 74.3678 76 73.6725 76H70.3737ZM71.4987 72.3906H73.4967C73.8991 72.3906 74.1881 72.3105 74.3639 72.1504C74.5397 71.9902 74.6276 71.7695 74.6276 71.4883C74.6276 71.2148 74.5397 71.0078 74.3639 70.8672C74.1881 70.7266 73.8991 70.6543 73.4967 70.6504H71.4987V72.3906ZM71.4987 75.1152H73.6725C74.0787 75.1152 74.3756 75.0312 74.5631 74.8633C74.7545 74.6953 74.8502 74.4688 74.8502 74.1836C74.8502 73.9062 74.7565 73.6855 74.569 73.5215C74.3815 73.3535 74.0827 73.2695 73.6725 73.2695H71.4987V75.1152ZM77.6918 69.7656H78.8168V72.3789H82.1215V69.7656H83.2465V76H82.1215V73.2695H78.8168V76H77.6918V69.7656ZM86.381 69.7656V71.8926H88.1916C88.9689 71.8926 89.5666 72.0762 89.9845 72.4434C90.4064 72.8066 90.6173 73.3027 90.6173 73.9316C90.6173 74.5566 90.4064 75.0586 89.9845 75.4375C89.5666 75.8125 88.9689 76 88.1916 76H85.256V69.7656H86.381ZM88.1857 72.7832H86.381V75.1152H88.1857C88.6662 75.1152 89.0021 75.0039 89.1935 74.7812C89.3888 74.5586 89.4865 74.2754 89.4865 73.9316C89.4865 73.5957 89.3888 73.3203 89.1935 73.1055C89.0021 72.8906 88.6662 72.7832 88.1857 72.7832ZM91.4669 76V69.7656H92.5919V76H91.4669ZM94.2323 72.9766V72.7891C94.2323 71.8477 94.5175 71.0801 95.0878 70.4863C95.662 69.8887 96.4198 69.5898 97.3613 69.5898C98.3066 69.5898 99.0331 69.8691 99.5409 70.4277C100.049 70.9824 100.303 71.7344 100.303 72.6836V73.1465H94.9003V72.25H99.1718V72.2207C99.1718 71.7207 99.0292 71.3105 98.7441 70.9902C98.4589 70.6699 98.0019 70.5098 97.373 70.5098C96.7128 70.5098 96.2128 70.7285 95.873 71.166C95.5331 71.6035 95.3632 72.1445 95.3632 72.7891V72.9766C95.3632 73.6211 95.5409 74.1621 95.8964 74.5996C96.2558 75.0371 96.8085 75.2559 97.5546 75.2559C98.0077 75.2559 98.3984 75.1699 98.7265 74.998C99.0546 74.8223 99.3183 74.6152 99.5175 74.377L100.244 74.9746C100.025 75.2676 99.6855 75.541 99.2245 75.7949C98.7675 76.0488 98.2109 76.1758 97.5546 76.1758C96.4804 76.1758 95.6581 75.8789 95.0878 75.2852C94.5175 74.6875 94.2323 73.918 94.2323 72.9766ZM34.5947 92L31.8935 89.1465L32.5849 88.4141L36.0302 92H34.5947ZM30.7392 88.3848H31.9697L34.3838 85.7656H35.7138L32.4326 89.2695H30.7392V88.3848ZM31.3017 85.7656V92H30.1826V85.7656H31.3017ZM36.7331 88.9766V88.7891C36.7331 87.8477 37.028 87.0801 37.6179 86.4863C38.2116 85.8887 39.0046 85.5898 39.9968 85.5898C40.9851 85.5898 41.7761 85.8887 42.3698 86.4863C42.9636 87.0801 43.2605 87.8477 43.2605 88.7891V88.9766C43.2605 89.918 42.9636 90.6875 42.3698 91.2852C41.7761 91.8789 40.9851 92.1758 39.9968 92.1758C39.0046 92.1758 38.2116 91.8789 37.6179 91.2852C37.028 90.6875 36.7331 89.918 36.7331 88.9766ZM37.8816 88.7891V88.9766C37.8816 89.6172 38.0593 90.1562 38.4148 90.5938C38.7702 91.0312 39.2976 91.25 39.9968 91.25C40.696 91.25 41.2214 91.0312 41.573 90.5938C41.9284 90.1562 42.1062 89.6172 42.1062 88.9766V88.7891C42.1062 88.1445 41.9284 87.6055 41.573 87.1719C41.2214 86.7344 40.696 86.5156 39.9968 86.5156C39.2976 86.5156 38.7702 86.7344 38.4148 87.1719C38.0593 87.6055 37.8816 88.1445 37.8816 88.7891ZM44.9009 85.7656H46.0259V88.3789H49.3305V85.7656H50.4555V92H49.3305V89.2695H46.0259V92H44.9009V85.7656ZM57.844 93.582V92H52.4651V85.7656H53.5901V91.1152H56.8127V85.7656H57.9377V91.1152H58.8752V93.582H57.844ZM59.7656 88.9766V88.7891C59.7656 87.8477 60.0508 87.0801 60.6211 86.4863C61.1953 85.8887 61.9531 85.5898 62.8945 85.5898C63.8398 85.5898 64.5664 85.8691 65.0742 86.4277C65.582 86.9824 65.8359 87.7344 65.8359 88.6836V89.1465H60.4336V88.25H64.7051V88.2207C64.7051 87.7207 64.5625 87.3105 64.2773 86.9902C63.9922 86.6699 63.5352 86.5098 62.9062 86.5098C62.2461 86.5098 61.7461 86.7285 61.4062 87.166C61.0664 87.6035 60.8965 88.1445 60.8965 88.7891V88.9766C60.8965 89.6211 61.0742 90.1621 61.4297 90.5996C61.7891 91.0371 62.3418 91.2559 63.0879 91.2559C63.541 91.2559 63.9316 91.1699 64.2598 90.998C64.5879 90.8223 64.8516 90.6152 65.0508 90.377L65.7773 90.9746C65.5586 91.2676 65.2188 91.541 64.7578 91.7949C64.3008 92.0488 63.7441 92.1758 63.0879 92.1758C62.0137 92.1758 61.1914 91.8789 60.6211 91.2852C60.0508 90.6875 59.7656 89.918 59.7656 88.9766ZM67.3709 85.7656H72.8728V92H71.7478V86.6504H68.4959V92H67.3709V85.7656ZM80.2671 93.582V92H74.8882V85.7656H76.0132V91.1152H79.2359V85.7656H80.3609V91.1152H81.2984V93.582H80.2671ZM82.5579 92V85.7656H83.6712V89.7383C83.6712 89.8555 83.6692 89.9883 83.6653 90.1367C83.6653 90.2852 83.6634 90.4199 83.6595 90.541H83.7063C83.761 90.4355 83.8216 90.3242 83.888 90.207C83.9544 90.0898 84.0305 89.9727 84.1165 89.8555L87.052 85.7656H88.1829V92H87.0638V88.0332C87.0638 87.9121 87.0657 87.7773 87.0696 87.6289C87.0735 87.4766 87.0794 87.3398 87.0872 87.2188H87.0227C86.972 87.3203 86.9134 87.4316 86.847 87.5527C86.7805 87.6738 86.7063 87.793 86.6243 87.9102L83.6888 92H82.5579ZM90.1924 92V85.7656H91.3057V89.7383C91.3057 89.8555 91.3037 89.9883 91.2998 90.1367C91.2998 90.2852 91.2979 90.4199 91.294 90.541H91.3409C91.3955 90.4355 91.4561 90.3242 91.5225 90.207C91.5889 90.0898 91.6651 89.9727 91.751 89.8555L94.6866 85.7656H95.8174V92H94.6983V88.0332C94.6983 87.9121 94.7002 87.7773 94.7041 87.6289C94.708 87.4766 94.7139 87.3398 94.7217 87.2188H94.6573C94.6065 87.3203 94.5479 87.4316 94.4815 87.5527C94.4151 87.6738 94.3409 87.793 94.2588 87.9102L91.3233 92H90.1924Z" fill="#04101C"/>
</g>
<defs>
<filter id="filter0_dd_369_15040" x="0" y="0" width="128" height="124" filterUnits="userSpaceOnUse" color-interpolation-filters="sRGB">
<feFlood flood-opacity="0" result="BackgroundImageFix"/>
<feColorMatrix in="SourceAlpha" type="matrix" values="0 0 0 0 0 0 0 0 0 0 0 0 0 0 0 0 0 0 127 0" result="hardAlpha"/>
<feOffset dx="1" dy="2"/>
<feGaussianBlur stdDeviation="5"/>
<feComposite in2="hardAlpha" operator="out"/>
<feColorMatrix type="matrix" values="0 0 0 0 0.00780001 0 0 0 0 0.045344 0 0 0 0 0.0800001 0 0 0 0.08 0"/>
<feBlend mode="normal" in2="BackgroundImageFix" result="effect1_dropShadow_369_15040"/>
<feColorMatrix in="SourceAlpha" type="matrix" values="0 0 0 0 0 0 0 0 0 0 0 0 0 0 0 0 0 0 127 0" result="hardAlpha"/>
<feOffset dx="1" dy="2"/>
<feGaussianBlur stdDeviation="5"/>
<feComposite in2="hardAlpha" operator="out"/>
<feColorMatrix type="matrix" values="0 0 0 0 0.00780001 0 0 0 0 0.045344 0 0 0 0 0.0800001 0 0 0 0.08 0"/>
<feBlend mode="normal" in2="effect1_dropShadow_369_15040" result="effect2_dropShadow_369_15040"/>
<feBlend mode="normal" in="SourceGraphic" in2="effect2_dropShadow_369_15040" result="shape"/>
</filter>
<radialGradient id="paint0_radial_369_15040" cx="0" cy="0" r="1" gradientUnits="userSpaceOnUse" gradientTransform="translate(63.5 39.8958) rotate(100.142) scale(17.6455 18.3661)">
<stop stop-color="#FD9BE8"/>
<stop offset="0.338542" stop-color="#7A73FF"/>
<stop offset="0.734375" stop-color="#75CDFF"/>
<stop offset="1" stop-color="#4AFCF1"/>
</radialGradient>
<clipPath id="clip0_369_15040">
<rect width="32" height="32" fill="white" transform="translate(47 24)"/>
</clipPath>
</defs>
</svg>
