<svg width="166" height="105" viewBox="0 0 166 105" fill="none" xmlns="http://www.w3.org/2000/svg">
<g filter="url(#filter0_dd_369_15046)">
<rect x="9" y="8" width="146" height="85" rx="12" fill="white"/>
<path d="M78.0608 45.0129L77.1908 44.3604L78.7617 39.4304L74.75 37.195V36.0833H80.0063L81.4321 30.6458H82.6042L84.03 36.0833H89.2621V37.195L85.2746 39.5029L86.8817 44.3725L85.9754 45.0008L82.0363 41.9558L78.085 45.0129H78.0608ZM96.5 38.5C96.5 30.5008 89.9992 24 82 24C74.0008 24 67.5 30.5008 67.5 38.5C67.5 46.4992 74.0008 53 82 53C89.9992 53 96.5 46.4992 96.5 38.5ZM92.875 38.5C92.875 44.4933 87.9933 49.375 82 49.375C76.0067 49.375 71.125 44.4933 71.125 38.5C71.125 32.5067 76.0067 27.625 82 27.625C87.9933 27.625 92.875 32.5067 92.875 38.5Z" fill="url(#paint0_radial_369_15046)"/>
<path d="M31.1423 64.3516V65.459H31.4001C32.6852 65.459 33.6618 65.7461 34.3298 66.3203C35.0016 66.8945 35.3376 67.6797 35.3376 68.6758C35.3376 69.6719 35.0016 70.457 34.3298 71.0312C33.6618 71.6016 32.6852 71.8867 31.4001 71.8867H31.1423V73.1172H30.0055V71.8867H29.7477C28.4587 71.8867 27.4782 71.5996 26.8063 71.0254C26.1384 70.4512 25.8044 69.666 25.8044 68.6699C25.8044 67.6738 26.1384 66.8906 26.8063 66.3203C27.4782 65.7461 28.4587 65.459 29.7477 65.459H30.0055V64.3516H31.1423ZM31.4001 66.3906H31.1423V70.9551H31.4001C32.4157 70.9551 33.1364 70.7617 33.5622 70.375C33.988 69.9883 34.2009 69.4258 34.2009 68.6875C34.2009 67.957 33.988 67.3926 33.5622 66.9941C33.1364 66.5918 32.4157 66.3906 31.4001 66.3906ZM29.7477 66.3906C28.7321 66.3906 28.0114 66.584 27.5856 66.9707C27.1598 67.3574 26.947 67.9199 26.947 68.6582C26.947 69.3887 27.1598 69.9551 27.5856 70.3574C28.0114 70.7559 28.7321 70.9551 29.7477 70.9551H30.0055V66.3906H29.7477ZM37.1069 73V66.7656H38.2202V70.7383C38.2202 70.8555 38.2182 70.9883 38.2143 71.1367C38.2143 71.2852 38.2123 71.4199 38.2084 71.541H38.2553C38.31 71.4355 38.3705 71.3242 38.437 71.207C38.5034 71.0898 38.5795 70.9727 38.6655 70.8555L41.601 66.7656H42.7319V73H41.6127V69.0332C41.6127 68.9121 41.6147 68.7773 41.6186 68.6289C41.6225 68.4766 41.6284 68.3398 41.6362 68.2188H41.5717C41.5209 68.3203 41.4623 68.4316 41.3959 68.5527C41.3295 68.6738 41.2553 68.793 41.1733 68.9102L38.2377 73H37.1069ZM44.7414 75.4375V66.7656H45.7609L45.8137 67.6211H45.8371C46.0246 67.3516 46.3078 67.123 46.6867 66.9355C47.0656 66.7441 47.509 66.6484 48.0168 66.6484C48.8918 66.6484 49.591 66.9453 50.1145 67.5391C50.6418 68.1289 50.9055 68.8789 50.9055 69.7891V69.9766C50.9055 70.8828 50.6418 71.6328 50.1145 72.2266C49.591 72.8203 48.8918 73.1172 48.0168 73.1172C47.509 73.1172 47.0773 73.0352 46.7219 72.8711C46.3664 72.707 46.0812 72.4902 45.8664 72.2207V75.4375H44.7414ZM45.8664 71.084C46.007 71.373 46.2395 71.6309 46.5637 71.8574C46.8879 72.0801 47.2824 72.1914 47.7473 72.1914C48.4387 72.1914 48.9445 71.9805 49.2648 71.5586C49.5891 71.1328 49.7512 70.6055 49.7512 69.9766V69.7891C49.7512 69.1562 49.5891 68.6289 49.2648 68.207C48.9445 67.7852 48.4387 67.5742 47.7473 67.5742C47.2824 67.5742 46.8879 67.6875 46.5637 67.9141C46.2434 68.1367 46.0109 68.3926 45.8664 68.6816V71.084ZM52.5517 73V66.7656H54.1045L56.0673 71.084C56.1728 71.3184 56.2392 71.4785 56.2666 71.5645C56.2978 71.6465 56.3232 71.7344 56.3427 71.8281H56.4072C56.4267 71.7344 56.4502 71.6465 56.4775 71.5645C56.5048 71.4785 56.5712 71.3223 56.6767 71.0957L58.6513 66.7656H60.1748V73H59.0849V68.7344C59.0849 68.5039 59.0869 68.3379 59.0908 68.2363C59.0986 68.1348 59.1084 68.043 59.1201 67.9609H59.0732C59.0537 68.0391 59.0283 68.127 58.997 68.2246C58.9658 68.3223 58.9013 68.4785 58.8037 68.6934L56.8349 73H55.8447L53.8701 68.6758C53.788 68.4883 53.7295 68.3418 53.6943 68.2363C53.6591 68.1309 53.6337 68.0391 53.6181 67.9609H53.5595C53.5673 68.043 53.5752 68.1348 53.583 68.2363C53.5908 68.334 53.5947 68.4883 53.5947 68.6992V73H52.5517ZM61.821 69.9766V69.7891C61.821 68.8477 62.1062 68.0801 62.6765 67.4863C63.2507 66.8887 64.0085 66.5898 64.9499 66.5898C65.8952 66.5898 66.6218 66.8691 67.1296 67.4277C67.6374 67.9824 67.8913 68.7344 67.8913 69.6836V70.1465H62.489V69.25H66.7605V69.2207C66.7605 68.7207 66.6179 68.3105 66.3327 67.9902C66.0476 67.6699 65.5905 67.5098 64.9616 67.5098C64.3015 67.5098 63.8015 67.7285 63.4616 68.166C63.1218 68.6035 62.9519 69.1445 62.9519 69.7891V69.9766C62.9519 70.6211 63.1296 71.1621 63.4851 71.5996C63.8445 72.0371 64.3972 72.2559 65.1433 72.2559C65.5964 72.2559 65.987 72.1699 66.3152 71.998C66.6433 71.8223 66.907 71.6152 67.1062 71.377L67.8327 71.9746C67.614 72.2676 67.2741 72.541 66.8132 72.7949C66.3562 73.0488 65.7995 73.1758 65.1433 73.1758C64.0691 73.1758 63.2468 72.8789 62.6765 72.2852C62.1062 71.6875 61.821 70.918 61.821 69.9766ZM69.4263 66.7656H70.5513V69.3789H73.8559V66.7656H74.9809V73H73.8559V70.2695H70.5513V73H69.4263V66.7656ZM76.9905 66.7656H78.1155V69.3789H81.4202V66.7656H82.5452V73H81.4202V70.2695H78.1155V73H76.9905V66.7656ZM85.6797 66.7656V68.8926H87.4902C88.2676 68.8926 88.8652 69.0762 89.2832 69.4434C89.7051 69.8066 89.916 70.3027 89.916 70.9316C89.916 71.5566 89.7051 72.0586 89.2832 72.4375C88.8652 72.8125 88.2676 73 87.4902 73H84.5547V66.7656H85.6797ZM87.4844 69.7832H85.6797V72.1152H87.4844C87.9648 72.1152 88.3008 72.0039 88.4922 71.7812C88.6875 71.5586 88.7852 71.2754 88.7852 70.9316C88.7852 70.5957 88.6875 70.3203 88.4922 70.1055C88.3008 69.8906 87.9648 69.7832 87.4844 69.7832ZM90.7656 73V66.7656H91.8906V73H90.7656ZM93.9002 73V66.7656H95.0134V70.7383C95.0134 70.8555 95.0115 70.9883 95.0076 71.1367C95.0076 71.2852 95.0056 71.4199 95.0017 71.541H95.0486C95.1033 71.4355 95.1638 71.3242 95.2302 71.207C95.2966 71.0898 95.3728 70.9727 95.4587 70.8555L98.3943 66.7656H99.5252V73H98.406V69.0332C98.406 68.9121 98.408 68.7773 98.4119 68.6289C98.4158 68.4766 98.4216 68.3398 98.4295 68.2188H98.365C98.3142 68.3203 98.2556 68.4316 98.1892 68.5527C98.1228 68.6738 98.0486 68.793 97.9666 68.9102L95.031 73H93.9002ZM96.7127 64.8672C97.0056 64.8672 97.2459 64.7891 97.4334 64.6328C97.6209 64.4727 97.781 64.2129 97.9138 63.8535L98.7752 64.3574C98.5798 64.834 98.3025 65.1836 97.9431 65.4062C97.5837 65.6289 97.1736 65.7402 96.7127 65.7402C96.2478 65.7402 95.8377 65.6309 95.4822 65.4121C95.1267 65.1895 94.8474 64.8379 94.6443 64.3574L95.5115 63.8418C95.6443 64.2129 95.8025 64.4766 95.9861 64.6328C96.1736 64.7891 96.4158 64.8672 96.7127 64.8672ZM104.335 69.9766V69.7891C104.335 68.8477 104.618 68.0801 105.185 67.4863C105.755 66.8887 106.538 66.5898 107.534 66.5898C108.456 66.5898 109.156 66.8145 109.632 67.2637C110.113 67.709 110.353 68.209 110.353 68.7637V68.793H109.24V68.7578C109.24 68.4258 109.105 68.1348 108.835 67.8848C108.57 67.6348 108.136 67.5098 107.534 67.5098C106.831 67.5098 106.314 67.7285 105.982 68.166C105.65 68.6035 105.484 69.1445 105.484 69.7891V69.9766C105.484 70.6211 105.65 71.1621 105.982 71.5996C106.314 72.0332 106.831 72.25 107.534 72.25C108.136 72.25 108.57 72.127 108.835 71.8809C109.105 71.6348 109.24 71.3418 109.24 71.002V70.9727H110.353V71.002C110.353 71.5527 110.113 72.0527 109.632 72.502C109.156 72.9512 108.456 73.1758 107.534 73.1758C106.538 73.1758 105.755 72.8789 105.185 72.2852C104.618 71.6875 104.335 70.918 104.335 69.9766ZM111.108 67.6504V66.7656H116.675V67.6504H114.454V73H113.329V67.6504H111.108ZM118.005 73V66.7656H119.118V70.7383C119.118 70.8555 119.116 70.9883 119.112 71.1367C119.112 71.2852 119.11 71.4199 119.106 71.541H119.153C119.208 71.4355 119.268 71.3242 119.335 71.207C119.401 71.0898 119.477 70.9727 119.563 70.8555L122.499 66.7656H123.63V73H122.511V69.0332C122.511 68.9121 122.512 68.7773 122.516 68.6289C122.52 68.4766 122.526 68.3398 122.534 68.2188H122.47C122.419 68.3203 122.36 68.4316 122.294 68.5527C122.227 68.6738 122.153 68.793 122.071 68.9102L119.136 73H118.005ZM127.268 67.6504L127.163 70.1348C127.116 71.1855 126.971 71.9473 126.729 72.4199C126.491 72.8926 126.079 73.1289 125.493 73.1289C125.348 73.1289 125.221 73.1191 125.112 73.0996C125.003 73.084 124.911 73.0586 124.836 73.0234V72.0566C124.903 72.084 124.971 72.1035 125.042 72.1152C125.116 72.127 125.2 72.1328 125.294 72.1328C125.59 72.1328 125.795 71.9805 125.909 71.6758C126.026 71.3672 126.1 70.8027 126.131 69.9824L126.272 66.7656H131.083V73H129.958V67.6504H127.268ZM134.223 66.7656V68.8926H136.034C136.811 68.8926 137.409 69.0762 137.826 69.4434C138.248 69.8066 138.459 70.3027 138.459 70.9316C138.459 71.5566 138.248 72.0586 137.826 72.4375C137.409 72.8125 136.811 73 136.034 73H133.098V66.7656H134.223ZM136.028 69.7832H134.223V72.1152H136.028C136.508 72.1152 136.844 72.0039 137.035 71.7812C137.231 71.5586 137.328 71.2754 137.328 70.9316C137.328 70.5957 137.231 70.3203 137.035 70.1055C136.844 69.8906 136.508 69.7832 136.028 69.7832Z" fill="#04101C"/>
</g>
<defs>
<filter id="filter0_dd_369_15046" x="0" y="0" width="166" height="105" filterUnits="userSpaceOnUse" color-interpolation-filters="sRGB">
<feFlood flood-opacity="0" result="BackgroundImageFix"/>
<feColorMatrix in="SourceAlpha" type="matrix" values="0 0 0 0 0 0 0 0 0 0 0 0 0 0 0 0 0 0 127 0" result="hardAlpha"/>
<feOffset dx="1" dy="2"/>
<feGaussianBlur stdDeviation="5"/>
<feComposite in2="hardAlpha" operator="out"/>
<feColorMatrix type="matrix" values="0 0 0 0 0.00780001 0 0 0 0 0.045344 0 0 0 0 0.0800001 0 0 0 0.08 0"/>
<feBlend mode="normal" in2="BackgroundImageFix" result="effect1_dropShadow_369_15046"/>
<feColorMatrix in="SourceAlpha" type="matrix" values="0 0 0 0 0 0 0 0 0 0 0 0 0 0 0 0 0 0 127 0" result="hardAlpha"/>
<feOffset dx="1" dy="2"/>
<feGaussianBlur stdDeviation="5"/>
<feComposite in2="hardAlpha" operator="out"/>
<feColorMatrix type="matrix" values="0 0 0 0 0.00780001 0 0 0 0 0.045344 0 0 0 0 0.0800001 0 0 0 0.08 0"/>
<feBlend mode="normal" in2="effect1_dropShadow_369_15046" result="effect2_dropShadow_369_15046"/>
<feBlend mode="normal" in="SourceGraphic" in2="effect2_dropShadow_369_15046" result="shape"/>
</filter>
<radialGradient id="paint0_radial_369_15046" cx="0" cy="0" r="1" gradientUnits="userSpaceOnUse" gradientTransform="translate(82 38.5) rotate(99.7276) scale(18.3894)">
<stop stop-color="#FD9BE8"/>
<stop offset="0.338542" stop-color="#7A73FF"/>
<stop offset="0.734375" stop-color="#75CDFF"/>
<stop offset="1" stop-color="#4AFCF1"/>
</radialGradient>
</defs>
</svg>
