<svg width="103" height="108" viewBox="0 0 103 108" fill="none" xmlns="http://www.w3.org/2000/svg">
<g filter="url(#filter0_dd_369_14938)">
<rect x="9" y="8" width="83" height="88" rx="12" fill="white"/>
<path d="M50.0293 28.003C47.5241 27.9562 45.0155 28.4613 42.7812 29.5518C39.7903 30.9788 37.365 33.461 36 36.417C37.515 33.532 40.0303 31.233 42.9863 30.001C45.9323 28.744 49.2579 28.5291 52.3359 29.2061C55.4149 29.8731 58.2623 31.522 60.1953 33.919C62.1543 36.301 63.094 39.378 63 42.417C63 42.432 62.999 42.4528 63 42.4678C63.01 43.0208 63.4675 43.4583 64.0195 43.4483C64.5715 43.4383 65.011 42.9807 65 42.4287V42.417C64.934 38.959 63.6601 35.4864 61.3301 32.9444C59.0271 30.3774 55.8254 28.7724 52.5234 28.2334C51.6989 28.0967 50.8644 28.0185 50.0293 28.003ZM49.6699 30.8018C48.4222 30.7979 47.1805 30.9788 46 31.3428C48.405 30.7778 50.9541 30.9676 53.2051 31.8506C55.4541 32.7376 57.4042 34.3193 58.6582 36.3213C59.9292 38.3143 60.4759 40.7052 60.2109 42.9952C59.9709 45.2862 58.923 47.448 57.293 48.96C57.278 48.974 57.2601 48.9909 57.2461 49.0069C56.8661 49.4089 56.8851 50.0439 57.2871 50.4229C57.6891 50.8029 58.3222 50.7839 58.7012 50.3819L58.707 50.3741C60.582 48.3891 61.6226 45.7404 61.7246 43.1084C61.8536 40.4694 61.0311 37.826 59.4961 35.751C57.9751 33.66 55.777 32.1361 53.375 31.3741C52.1715 30.9946 50.9177 30.8057 49.6699 30.8018ZM53 34.417C54.733 35.166 56.1198 36.573 56.8438 38.251C57.5847 39.915 57.7571 41.818 57.3711 43.544C56.9821 45.269 56.0239 46.8415 54.6719 47.8955C53.3289 48.9585 51.643 49.492 50 49.417C49.972 49.416 49.9372 49.416 49.9082 49.417C49.3562 49.442 48.9281 49.9119 48.9531 50.4639C48.9781 51.0159 49.448 51.442 50 51.417C52.127 51.329 54.1692 50.4444 55.6602 49.0264C57.1662 47.6174 58.1003 45.6889 58.3633 43.7159C58.6233 41.7349 58.2369 39.7264 57.2949 38.0244C56.3669 36.3164 54.79 35.005 53 34.417ZM54 39.417C54.693 40.466 54.6536 41.8132 54.4316 42.9502C54.1576 44.0982 53.3938 45.0699 52.4258 45.6299C51.4588 46.2019 50.3026 46.3482 49.2656 46.1182C48.2276 45.8902 47.3271 45.2547 46.7891 44.4287C46.7641 44.3917 46.7331 44.3505 46.7031 44.3155C46.3391 43.8975 45.7051 43.8538 45.2871 44.2178C44.8691 44.5818 44.8274 45.2158 45.1914 45.6338L45.2109 45.6553C46.2049 46.7963 47.6169 47.4885 49.0469 47.6045C50.4709 47.7245 51.9102 47.3111 52.9922 46.4561C54.0792 45.6141 54.7987 44.3472 54.9297 43.0342C54.9957 42.3722 54.9316 41.7393 54.8066 41.1143C54.6786 40.4913 54.419 39.883 54 39.417Z" fill="url(#paint0_radial_369_14938)" stroke="url(#paint1_radial_369_14938)"/>
<path d="M26.0992 76V67.4688H27.6227L30.3941 73.8848C30.4449 74.002 30.4937 74.125 30.5406 74.2539C30.5914 74.3789 30.6363 74.4961 30.6754 74.6055H30.7223C30.7574 74.4961 30.7984 74.3789 30.8453 74.2539C30.8922 74.125 30.941 74.002 30.9918 73.8848L33.7457 67.4688H35.2984V76H34.1734V69.7305C34.1734 69.6133 34.1754 69.4824 34.1793 69.3379C34.1871 69.1895 34.1988 69.0566 34.2145 68.9395H34.1617C34.1305 69.0566 34.0875 69.1895 34.0328 69.3379C33.982 69.4824 33.9312 69.6133 33.8805 69.7305L31.1969 76H30.1598L27.4586 69.7305C27.4078 69.6133 27.357 69.4824 27.3062 69.3379C27.2594 69.1895 27.2223 69.0566 27.1949 68.9395H27.1422C27.1539 69.0566 27.1637 69.1895 27.1715 69.3379C27.1832 69.4824 27.1891 69.6133 27.1891 69.7305V76H26.0992ZM36.7865 72.9766V72.7891C36.7865 71.8477 37.0814 71.0801 37.6712 70.4863C38.265 69.8887 39.058 69.5898 40.0502 69.5898C41.0384 69.5898 41.8295 69.8887 42.4232 70.4863C43.017 71.0801 43.3138 71.8477 43.3138 72.7891V72.9766C43.3138 73.918 43.017 74.6875 42.4232 75.2852C41.8295 75.8789 41.0384 76.1758 40.0502 76.1758C39.058 76.1758 38.265 75.8789 37.6712 75.2852C37.0814 74.6875 36.7865 73.918 36.7865 72.9766ZM37.9349 72.7891V72.9766C37.9349 73.6172 38.1127 74.1562 38.4681 74.5938C38.8236 75.0312 39.3509 75.25 40.0502 75.25C40.7494 75.25 41.2748 75.0312 41.6263 74.5938C41.9818 74.1562 42.1595 73.6172 42.1595 72.9766V72.7891C42.1595 72.1445 41.9818 71.6055 41.6263 71.1719C41.2748 70.7344 40.7494 70.5156 40.0502 70.5156C39.3509 70.5156 38.8236 70.7344 38.4681 71.1719C38.1127 71.6055 37.9349 72.1445 37.9349 72.7891ZM44.4034 78.4375V77.4824C44.5206 77.5137 44.6476 77.5391 44.7843 77.5586C44.9249 77.5781 45.0597 77.5879 45.1886 77.5879C45.505 77.5879 45.7706 77.5 45.9855 77.3242C46.2042 77.1484 46.4523 76.6953 46.7296 75.9648V75.959L44.1339 69.7656H45.2648L46.9288 73.873C46.9913 74.0293 47.048 74.1816 47.0987 74.3301C47.1534 74.4785 47.2003 74.623 47.2394 74.7637H47.2745C47.3136 74.623 47.3605 74.4785 47.4152 74.3301C47.4698 74.1816 47.5265 74.0293 47.5851 73.873L49.173 69.7656H50.2687L47.4093 76.8203C47.1827 77.3672 46.8937 77.793 46.5421 78.0977C46.1945 78.4023 45.7667 78.5547 45.2589 78.5547C45.087 78.5547 44.9327 78.5449 44.796 78.5254C44.6593 78.5059 44.5284 78.4766 44.4034 78.4375ZM51.3934 76V69.7656H52.5184V75.1152H55.2489V69.7656H56.3739V75.1152H59.1044V69.7656H60.2294V76H51.3934ZM61.8698 72.9766V72.7891C61.8698 71.8477 62.1549 71.0801 62.7252 70.4863C63.2995 69.8887 64.0573 69.5898 64.9987 69.5898C65.944 69.5898 66.6705 69.8691 67.1784 70.4277C67.6862 70.9824 67.9401 71.7344 67.9401 72.6836V73.1465H62.5377V72.25H66.8092V72.2207C66.8092 71.7207 66.6666 71.3105 66.3815 70.9902C66.0963 70.6699 65.6393 70.5098 65.0104 70.5098C64.3502 70.5098 63.8502 70.7285 63.5104 71.166C63.1705 71.6035 63.0006 72.1445 63.0006 72.7891V72.9766C63.0006 73.6211 63.1784 74.1621 63.5338 74.5996C63.8932 75.0371 64.4459 75.2559 65.192 75.2559C65.6452 75.2559 66.0358 75.1699 66.3639 74.998C66.692 74.8223 66.9557 74.6152 67.1549 74.377L67.8815 74.9746C67.6627 75.2676 67.3229 75.541 66.862 75.7949C66.4049 76.0488 65.8483 76.1758 65.192 76.1758C64.1178 76.1758 63.2955 75.8789 62.7252 75.2852C62.1549 74.6875 61.8698 73.918 61.8698 72.9766ZM69.475 69.7656H70.6V72.3789H73.9047V69.7656H75.0297V76H73.9047V73.2695H70.6V76H69.475V69.7656Z" fill="#04101C"/>
</g>
<defs>
<filter id="filter0_dd_369_14938" x="0" y="0" width="103" height="108" filterUnits="userSpaceOnUse" color-interpolation-filters="sRGB">
<feFlood flood-opacity="0" result="BackgroundImageFix"/>
<feColorMatrix in="SourceAlpha" type="matrix" values="0 0 0 0 0 0 0 0 0 0 0 0 0 0 0 0 0 0 127 0" result="hardAlpha"/>
<feOffset dx="1" dy="2"/>
<feGaussianBlur stdDeviation="5"/>
<feComposite in2="hardAlpha" operator="out"/>
<feColorMatrix type="matrix" values="0 0 0 0 0.00780001 0 0 0 0 0.045344 0 0 0 0 0.0800001 0 0 0 0.08 0"/>
<feBlend mode="normal" in2="BackgroundImageFix" result="effect1_dropShadow_369_14938"/>
<feColorMatrix in="SourceAlpha" type="matrix" values="0 0 0 0 0 0 0 0 0 0 0 0 0 0 0 0 0 0 127 0" result="hardAlpha"/>
<feOffset dx="1" dy="2"/>
<feGaussianBlur stdDeviation="5"/>
<feComposite in2="hardAlpha" operator="out"/>
<feColorMatrix type="matrix" values="0 0 0 0 0.00780001 0 0 0 0 0.045344 0 0 0 0 0.0800001 0 0 0 0.08 0"/>
<feBlend mode="normal" in2="effect1_dropShadow_369_14938" result="effect2_dropShadow_369_14938"/>
<feBlend mode="normal" in="SourceGraphic" in2="effect2_dropShadow_369_14938" result="shape"/>
</filter>
<radialGradient id="paint0_radial_369_14938" cx="0" cy="0" r="1" gradientUnits="userSpaceOnUse" gradientTransform="translate(50.5001 39.709) rotate(101.985) scale(14.9625 18.251)">
<stop stop-color="#FD9BE8"/>
<stop offset="0.338542" stop-color="#7A73FF"/>
<stop offset="0.734375" stop-color="#75CDFF"/>
<stop offset="1" stop-color="#4AFCF1"/>
</radialGradient>
<radialGradient id="paint1_radial_369_14938" cx="0" cy="0" r="1" gradientUnits="userSpaceOnUse" gradientTransform="translate(50.5001 39.709) rotate(101.985) scale(14.9625 18.251)">
<stop stop-color="#FD9BE8"/>
<stop offset="0.338542" stop-color="#7A73FF"/>
<stop offset="0.734375" stop-color="#75CDFF"/>
<stop offset="1" stop-color="#4AFCF1"/>
</radialGradient>
</defs>
</svg>
