<svg width="136" height="108" viewBox="0 0 136 108" fill="none" xmlns="http://www.w3.org/2000/svg">
<g filter="url(#filter0_dd_369_14903)">
<rect x="9" y="8" width="116" height="88" rx="12" fill="white"/>
<g clip-path="url(#clip0_369_14903)">
<path d="M68.4685 37.2294L68.4689 37.2297L71.4994 39.5L68.4689 41.7702L68.4685 41.7705L65.5833 43.9368V35.0631L68.4685 37.2294ZM60.6153 30.1952C62.1074 29.0879 63.8713 28.3277 65.7916 28.0427V29.4857C64.2576 29.7444 62.8475 30.3518 61.629 31.216L60.6153 30.1952ZM56.0427 37.7916C56.3277 35.8713 57.0879 34.1074 58.1952 32.6153L59.216 33.629C58.3518 34.8475 57.7444 36.2576 57.4857 37.7916H56.0427ZM58.194 46.383C57.0873 44.8913 56.3276 43.1279 56.0427 41.2083H57.4857C57.7443 42.7414 58.3513 44.1507 59.2158 45.3612L58.194 46.383ZM65.7916 49.5143V50.9569C63.8789 50.6715 62.1081 49.9113 60.6154 48.8046L61.629 47.7839C62.8475 48.6481 64.2576 49.2555 65.7916 49.5143ZM79.0833 39.5C79.0833 45.2861 74.827 50.0965 69.2687 50.954V49.5105C74.0378 48.6664 77.6666 44.4977 77.6666 39.5C77.6666 34.5022 74.0378 30.3335 69.2687 29.4894V28.046C74.827 28.9035 79.0833 33.7138 79.0833 39.5Z" fill="url(#paint0_radial_369_14903)" stroke="url(#paint1_radial_369_14903)"/>
</g>
<path d="M26.4191 76V67.4688H29.4836C30.4211 67.4688 31.1574 67.6484 31.6926 68.0078C32.2316 68.3672 32.5012 68.9414 32.5012 69.7305C32.5012 70.1992 32.3723 70.5801 32.1145 70.873C31.8566 71.166 31.5402 71.375 31.1652 71.5V71.5234C31.6262 71.6484 32.0031 71.8789 32.2961 72.2148C32.593 72.5508 32.7414 72.9922 32.7414 73.5391C32.7414 74.3281 32.4602 74.9355 31.8977 75.3613C31.3391 75.7871 30.5988 76 29.677 76H26.4191ZM27.5617 75.0449H29.677C30.3371 75.0449 30.8195 74.9102 31.1242 74.6406C31.4328 74.3711 31.5871 74.002 31.5871 73.5332C31.5871 73.0684 31.4328 72.7012 31.1242 72.4316C30.8195 72.1621 30.3371 72.0273 29.677 72.0273H27.5617V75.0449ZM27.5617 71.0898H29.4836C30.1437 71.0898 30.6184 70.9707 30.9074 70.7324C31.2004 70.4941 31.3469 70.1621 31.3469 69.7363C31.3469 69.3066 31.2004 68.9805 30.9074 68.7578C30.6184 68.5352 30.1437 68.4238 29.4836 68.4238H27.5617V71.0898ZM34.2646 76V69.7656H35.3779V73.7383C35.3779 73.8555 35.3759 73.9883 35.372 74.1367C35.372 74.2852 35.3701 74.4199 35.3662 74.541H35.413C35.4677 74.4355 35.5283 74.3242 35.5947 74.207C35.6611 74.0898 35.7373 73.9727 35.8232 73.8555L38.7587 69.7656H39.8896V76H38.7705V72.0332C38.7705 71.9121 38.7724 71.7773 38.7763 71.6289C38.7802 71.4766 38.7861 71.3398 38.7939 71.2188H38.7295C38.6787 71.3203 38.6201 71.4316 38.5537 71.5527C38.4873 71.6738 38.413 71.793 38.331 71.9102L35.3955 76H34.2646ZM47.1316 77.582V76H42.1101V77.582H41.0788V75.1152H48.1687V77.582H47.1316ZM43.3288 70.6504L43.2351 72.7656C43.2038 73.4844 43.1589 74.0137 43.1003 74.3535C43.0456 74.6895 42.9636 74.9746 42.8542 75.209H41.6882C41.8288 75.0215 41.9402 74.752 42.0222 74.4004C42.1081 74.0449 42.1687 73.4531 42.2038 72.625L42.3327 69.7656H47.2312V76H46.1003V70.6504H43.3288ZM49.0591 72.9766V72.7891C49.0591 71.8477 49.3442 71.0801 49.9145 70.4863C50.4887 69.8887 51.2466 69.5898 52.188 69.5898C53.1333 69.5898 53.8598 69.8691 54.3677 70.4277C54.8755 70.9824 55.1294 71.7344 55.1294 72.6836V73.1465H49.727V72.25H53.9985V72.2207C53.9985 71.7207 53.8559 71.3105 53.5708 70.9902C53.2856 70.6699 52.8286 70.5098 52.1997 70.5098C51.5395 70.5098 51.0395 70.7285 50.6997 71.166C50.3598 71.6035 50.1899 72.1445 50.1899 72.7891V72.9766C50.1899 73.6211 50.3677 74.1621 50.7231 74.5996C51.0825 75.0371 51.6352 75.2559 52.3813 75.2559C52.8345 75.2559 53.2251 75.1699 53.5532 74.998C53.8813 74.8223 54.145 74.6152 54.3442 74.377L55.0708 74.9746C54.852 75.2676 54.5122 75.541 54.0512 75.7949C53.5942 76.0488 53.0376 76.1758 52.3813 76.1758C51.3071 76.1758 50.4848 75.8789 49.9145 75.2852C49.3442 74.6875 49.0591 73.918 49.0591 72.9766ZM56.2952 72.9766V72.7891C56.2952 71.8477 56.5901 71.0801 57.1799 70.4863C57.7737 69.8887 58.5666 69.5898 59.5588 69.5898C60.5471 69.5898 61.3381 69.8887 61.9319 70.4863C62.5256 71.0801 62.8225 71.8477 62.8225 72.7891V72.9766C62.8225 73.918 62.5256 74.6875 61.9319 75.2852C61.3381 75.8789 60.5471 76.1758 59.5588 76.1758C58.5666 76.1758 57.7737 75.8789 57.1799 75.2852C56.5901 74.6875 56.2952 73.918 56.2952 72.9766ZM57.4436 72.7891V72.9766C57.4436 73.6172 57.6213 74.1562 57.9768 74.5938C58.3323 75.0312 58.8596 75.25 59.5588 75.25C60.258 75.25 60.7834 75.0312 61.135 74.5938C61.4905 74.1562 61.6682 73.6172 61.6682 72.9766V72.7891C61.6682 72.1445 61.4905 71.6055 61.135 71.1719C60.7834 70.7344 60.258 70.5156 59.5588 70.5156C58.8596 70.5156 58.3323 70.7344 57.9768 71.1719C57.6213 71.6055 57.4436 72.1445 57.4436 72.7891ZM64.4629 78.4375V69.7656H65.4824L65.5352 70.6211H65.5586C65.7461 70.3516 66.0293 70.123 66.4082 69.9355C66.7871 69.7441 67.2305 69.6484 67.7383 69.6484C68.6133 69.6484 69.3125 69.9453 69.8359 70.5391C70.3633 71.1289 70.627 71.8789 70.627 72.7891V72.9766C70.627 73.8828 70.3633 74.6328 69.8359 75.2266C69.3125 75.8203 68.6133 76.1172 67.7383 76.1172C67.2305 76.1172 66.7988 76.0352 66.4434 75.8711C66.0879 75.707 65.8027 75.4902 65.5879 75.2207V78.4375H64.4629ZM65.5879 74.084C65.7285 74.373 65.9609 74.6309 66.2852 74.8574C66.6094 75.0801 67.0039 75.1914 67.4688 75.1914C68.1602 75.1914 68.666 74.9805 68.9863 74.5586C69.3105 74.1328 69.4727 73.6055 69.4727 72.9766V72.7891C69.4727 72.1562 69.3105 71.6289 68.9863 71.207C68.666 70.7852 68.1602 70.5742 67.4688 70.5742C67.0039 70.5742 66.6094 70.6875 66.2852 70.9141C65.9648 71.1367 65.7324 71.3926 65.5879 71.6816V74.084ZM71.9041 72.9766V72.7891C71.9041 71.8477 72.199 71.0801 72.7888 70.4863C73.3826 69.8887 74.1755 69.5898 75.1677 69.5898C76.156 69.5898 76.947 69.8887 77.5408 70.4863C78.1345 71.0801 78.4314 71.8477 78.4314 72.7891V72.9766C78.4314 73.918 78.1345 74.6875 77.5408 75.2852C76.947 75.8789 76.156 76.1758 75.1677 76.1758C74.1755 76.1758 73.3826 75.8789 72.7888 75.2852C72.199 74.6875 71.9041 73.918 71.9041 72.9766ZM73.0525 72.7891V72.9766C73.0525 73.6172 73.2302 74.1562 73.5857 74.5938C73.9412 75.0312 74.4685 75.25 75.1677 75.25C75.867 75.25 76.3923 75.0312 76.7439 74.5938C77.0994 74.1562 77.2771 73.6172 77.2771 72.9766V72.7891C77.2771 72.1445 77.0994 71.6055 76.7439 71.1719C76.3923 70.7344 75.867 70.5156 75.1677 70.5156C74.4685 70.5156 73.9412 70.7344 73.5857 71.1719C73.2302 71.6055 73.0525 72.1445 73.0525 72.7891ZM81.7007 70.6504L81.5952 73.1348C81.5484 74.1855 81.4038 74.9473 81.1616 75.4199C80.9234 75.8926 80.5112 76.1289 79.9253 76.1289C79.7808 76.1289 79.6538 76.1191 79.5445 76.0996C79.4351 76.084 79.3433 76.0586 79.2691 76.0234V75.0566C79.3355 75.084 79.4038 75.1035 79.4741 75.1152C79.5484 75.127 79.6323 75.1328 79.7261 75.1328C80.023 75.1328 80.228 74.9805 80.3413 74.6758C80.4585 74.3672 80.5327 73.8027 80.564 72.9824L80.7046 69.7656H85.5152V76H84.3902V70.6504H81.7007ZM87.5305 76V69.7656H88.6438V73.7383C88.6438 73.8555 88.6419 73.9883 88.638 74.1367C88.638 74.2852 88.636 74.4199 88.6321 74.541H88.679C88.7337 74.4355 88.7942 74.3242 88.8606 74.207C88.927 74.0898 89.0032 73.9727 89.0891 73.8555L92.0247 69.7656H93.1555V76H92.0364V72.0332C92.0364 71.9121 92.0384 71.7773 92.0423 71.6289C92.0462 71.4766 92.052 71.3398 92.0598 71.2188H91.9954C91.9446 71.3203 91.886 71.4316 91.8196 71.5527C91.7532 71.6738 91.679 71.793 91.597 71.9102L88.6614 76H87.5305ZM99.5772 76L96.876 73.1465L97.5674 72.4141L101.013 76H99.5772ZM95.7217 72.3848H96.9522L99.3663 69.7656H100.696L97.4151 73.2695H95.7217V72.3848ZM96.2842 69.7656V76H95.1651V69.7656H96.2842ZM102.085 76V69.7656H103.198V73.7383C103.198 73.8555 103.196 73.9883 103.192 74.1367C103.192 74.2852 103.19 74.4199 103.186 74.541H103.233C103.288 74.4355 103.348 74.3242 103.415 74.207C103.481 74.0898 103.557 73.9727 103.643 73.8555L106.579 69.7656H107.71V76H106.591V72.0332C106.591 71.9121 106.593 71.7773 106.596 71.6289C106.6 71.4766 106.606 71.3398 106.614 71.2188H106.55C106.499 71.3203 106.44 71.4316 106.374 71.5527C106.307 71.6738 106.233 71.793 106.151 71.9102L103.216 76H102.085Z" fill="#04101C"/>
</g>
<defs>
<filter id="filter0_dd_369_14903" x="0" y="0" width="136" height="108" filterUnits="userSpaceOnUse" color-interpolation-filters="sRGB">
<feFlood flood-opacity="0" result="BackgroundImageFix"/>
<feColorMatrix in="SourceAlpha" type="matrix" values="0 0 0 0 0 0 0 0 0 0 0 0 0 0 0 0 0 0 127 0" result="hardAlpha"/>
<feOffset dx="1" dy="2"/>
<feGaussianBlur stdDeviation="5"/>
<feComposite in2="hardAlpha" operator="out"/>
<feColorMatrix type="matrix" values="0 0 0 0 0.00780001 0 0 0 0 0.045344 0 0 0 0 0.0800001 0 0 0 0.08 0"/>
<feBlend mode="normal" in2="BackgroundImageFix" result="effect1_dropShadow_369_14903"/>
<feColorMatrix in="SourceAlpha" type="matrix" values="0 0 0 0 0 0 0 0 0 0 0 0 0 0 0 0 0 0 127 0" result="hardAlpha"/>
<feOffset dx="1" dy="2"/>
<feGaussianBlur stdDeviation="5"/>
<feComposite in2="hardAlpha" operator="out"/>
<feColorMatrix type="matrix" values="0 0 0 0 0.00780001 0 0 0 0 0.045344 0 0 0 0 0.0800001 0 0 0 0.08 0"/>
<feBlend mode="normal" in2="effect1_dropShadow_369_14903" result="effect2_dropShadow_369_14903"/>
<feBlend mode="normal" in="SourceGraphic" in2="effect2_dropShadow_369_14903" result="shape"/>
</filter>
<radialGradient id="paint0_radial_369_14903" cx="0" cy="0" r="1" gradientUnits="userSpaceOnUse" gradientTransform="translate(67.5302 39.5) rotate(99.7516) scale(15.249 15.2851)">
<stop stop-color="#FD9BE8"/>
<stop offset="0.338542" stop-color="#7A73FF"/>
<stop offset="0.734375" stop-color="#75CDFF"/>
<stop offset="1" stop-color="#4AFCF1"/>
</radialGradient>
<radialGradient id="paint1_radial_369_14903" cx="0" cy="0" r="1" gradientUnits="userSpaceOnUse" gradientTransform="translate(67.5302 39.5) rotate(99.7516) scale(15.249 15.2851)">
<stop stop-color="#FD9BE8"/>
<stop offset="0.338542" stop-color="#7A73FF"/>
<stop offset="0.734375" stop-color="#75CDFF"/>
<stop offset="1" stop-color="#4AFCF1"/>
</radialGradient>
<clipPath id="clip0_369_14903">
<rect width="29" height="29" fill="white" transform="translate(53 25)"/>
</clipPath>
</defs>
</svg>
