<svg width="42" height="43" viewBox="0 0 42 43" fill="none" xmlns="http://www.w3.org/2000/svg">
<path d="M27.8968 28.4489C27.1457 28.4489 26.5824 28.0733 26.2068 27.51L23.9535 23.5666C23.0147 21.501 21.1369 19.6232 19.0714 18.4966L15.1282 16.2432C14.5649 16.0554 14.1893 15.3043 14.1893 14.741C14.1893 13.9899 14.5649 13.4265 15.1282 13.051L19.0714 10.7976C21.1369 9.67095 23.0147 7.98094 24.1413 5.72759L26.3946 1.78423C26.5824 1.22089 27.3334 0.845337 27.8968 0.845337C28.6479 0.845337 29.2112 1.22089 29.5867 1.78423L31.84 5.72759C32.9666 7.79316 34.8443 9.67095 36.9099 10.7976L40.8531 13.051C41.4164 13.4265 41.7919 13.9899 41.7919 14.741C41.7919 15.4921 41.4164 16.0554 40.8531 16.431L36.9099 18.6843C34.8443 19.811 32.9666 21.6888 31.84 23.7544L29.5867 27.6977C29.2112 28.0733 28.6479 28.4489 27.8968 28.4489ZM20.0103 14.741L20.9492 15.3043C23.7658 16.8066 26.019 19.0599 27.5212 21.8766L28.0845 22.8155L28.6479 21.8766C30.15 19.0599 32.4033 16.8066 35.2199 15.3043L36.1588 14.741L35.2199 14.1776C32.4033 12.6754 30.15 10.4221 28.6479 7.60538L28.0845 6.66649L27.5212 7.60538C26.019 10.4221 23.7658 12.6754 20.9492 14.1776L20.0103 14.741Z" fill="url(#paint0_radial_1300_17679)"/>
<path d="M10.808 42.1568C10.0569 42.1568 9.49356 41.7813 9.11802 41.2179L7.99138 38.9646C7.05252 37.0868 5.55033 35.5845 3.67261 34.6457L1.41933 33.519C0.856014 33.1434 0.480469 32.3923 0.480469 31.829C0.480469 31.0779 0.856014 30.5145 1.41933 30.139L3.67261 29.0123C5.55033 28.0734 7.05252 26.5712 7.99138 24.6934L9.11802 22.44C9.86911 21.3133 11.7468 21.3133 12.4979 22.44L13.6246 24.6934C14.5634 26.5712 16.0656 28.0734 17.9433 29.0123L20.1966 30.139C20.7599 30.5145 21.1355 31.0779 21.1355 31.829C21.1355 32.5801 20.7599 33.1434 20.1966 33.519L18.1311 34.6457C16.2534 35.5845 14.7512 37.0868 13.8123 38.9646L12.6857 41.2179C12.1224 41.7813 11.5591 42.1568 10.808 42.1568ZM6.30142 31.829C8.17915 32.9556 9.86911 34.6457 10.9957 36.5234C12.1224 34.6457 13.8123 32.9556 15.6901 31.829C13.6246 30.5145 12.1224 29.0123 10.808 27.1345C9.68133 29.0123 8.17915 30.5145 6.30142 31.829Z" fill="url(#paint1_radial_1300_17679)"/>
<defs>
<radialGradient id="paint0_radial_1300_17679" cx="0" cy="0" r="1" gradientUnits="userSpaceOnUse" gradientTransform="translate(21.1362 21.5011) rotate(99.7276) scale(26.1963)">
<stop offset="0.338542" stop-color="#7A73FF"/>
<stop offset="0.734375" stop-color="#75CDFF"/>
<stop offset="1" stop-color="#4AFCF1"/>
</radialGradient>
<radialGradient id="paint1_radial_1300_17679" cx="0" cy="0" r="1" gradientUnits="userSpaceOnUse" gradientTransform="translate(21.1362 21.5011) rotate(99.7276) scale(26.1963)">
<stop offset="0.338542" stop-color="#7A73FF"/>
<stop offset="0.734375" stop-color="#75CDFF"/>
<stop offset="1" stop-color="#4AFCF1"/>
</radialGradient>
</defs>
</svg>
