<svg width="24" height="29" viewBox="0 0 24 29" fill="none" xmlns="http://www.w3.org/2000/svg">
<path fill-rule="evenodd" clip-rule="evenodd" d="M5.93182 0C5.76309 0 5.59434 0.0645703 5.46582 0.193093C5.20877 0.450138 5.20877 0.868043 5.46582 1.12509L7.19336 2.85263C5.23201 4.29189 3.95455 6.60772 3.95455 9.22727V21.0909C3.95455 21.8185 4.54509 22.4091 5.27273 22.4091H6.59091V27.0227C6.59091 28.1142 7.47673 29 8.56818 29C9.65964 29 10.5455 28.1142 10.5455 27.0227V22.4091H13.1818V27.0227C13.1818 28.1142 14.0676 29 15.1591 29C16.2505 29 17.1364 28.1142 17.1364 27.0227V22.4091H18.4545C19.1822 22.4091 19.7727 21.8185 19.7727 21.0909V9.22727C19.7727 6.60772 18.4953 4.29189 16.5339 2.85263L18.2615 1.12509C18.5185 0.866725 18.5185 0.451457 18.2615 0.193093C18.0044 -0.0639525 17.5865 -0.0639525 17.3295 0.193093L15.3754 2.14719C14.3163 1.62078 13.1267 1.31818 11.8636 1.31818C10.6006 1.31818 9.41101 1.62078 8.35192 2.14719L6.39782 0.193093C6.26929 0.0645703 6.10055 0 5.93182 0ZM11.8636 3.95455C14.7715 3.95455 17.1364 6.31936 17.1364 9.22727H6.59091C6.59091 6.31936 8.95573 3.95455 11.8636 3.95455ZM9.22727 6.59091V7.90909H10.5455V6.59091H9.22727ZM13.1818 6.59091V7.90909H14.5V6.59091H13.1818ZM17.1364 11.8636V19.7727H10.5455H6.59091V11.8636H17.1364Z" fill="url(#paint0_radial_339_42173)"/>
<path d="M1.31818 10.5455C0.590545 10.5455 0 11.136 0 11.8636V19.7727C0 20.5004 0.590545 21.0909 1.31818 21.0909C2.04582 21.0909 2.63636 20.5004 2.63636 19.7727V11.8636C2.63636 11.136 2.04582 10.5455 1.31818 10.5455Z" fill="url(#paint1_radial_339_42173)"/>
<path d="M22.4091 10.5455C21.6815 10.5455 21.0909 11.136 21.0909 11.8636V19.7727C21.0909 20.5004 21.6815 21.0909 22.4091 21.0909C23.1367 21.0909 23.7273 20.5004 23.7273 19.7727V11.8636C23.7273 11.136 23.1367 10.5455 22.4091 10.5455Z" fill="url(#paint2_radial_339_42173)"/>
<defs>
<radialGradient id="paint0_radial_339_42173" cx="0" cy="0" r="1" gradientUnits="userSpaceOnUse" gradientTransform="translate(11.8636 14.5) rotate(97.9842) scale(18.3024 15.1174)">
<stop offset="0.338542" stop-color="#7A73FF"/>
<stop offset="0.734375" stop-color="#75CDFF"/>
<stop offset="1" stop-color="#4AFCF1"/>
</radialGradient>
<radialGradient id="paint1_radial_339_42173" cx="0" cy="0" r="1" gradientUnits="userSpaceOnUse" gradientTransform="translate(11.8636 14.5) rotate(97.9842) scale(18.3024 15.1174)">
<stop offset="0.338542" stop-color="#7A73FF"/>
<stop offset="0.734375" stop-color="#75CDFF"/>
<stop offset="1" stop-color="#4AFCF1"/>
</radialGradient>
<radialGradient id="paint2_radial_339_42173" cx="0" cy="0" r="1" gradientUnits="userSpaceOnUse" gradientTransform="translate(11.8636 14.5) rotate(97.9842) scale(18.3024 15.1174)">
<stop offset="0.338542" stop-color="#7A73FF"/>
<stop offset="0.734375" stop-color="#75CDFF"/>
<stop offset="1" stop-color="#4AFCF1"/>
</radialGradient>
</defs>
</svg>
