<svg width="30" height="28" viewBox="0 0 30 28" fill="none" xmlns="http://www.w3.org/2000/svg">
<path d="M13.7917 0V3.625H16.2083V0H13.7917ZM5.60238 3.39372L3.89372 5.10238L6.45671 7.66536L8.16536 5.95671L5.60238 3.39372ZM24.3976 3.39372L21.8346 5.95671L23.5433 7.66536L26.1063 5.10238L24.3976 3.39372ZM15 6.04167C10.3427 6.04167 6.54167 9.84268 6.54167 14.5C6.54167 17.8444 8.54281 20.6652 11.375 22.0332V25.375C11.375 26.6958 12.4709 27.7917 13.7917 27.7917H16.2083C17.5291 27.7917 18.625 26.6958 18.625 25.375V22.0332C21.4572 20.6652 23.4583 17.8444 23.4583 14.5C23.4583 9.84268 19.6573 6.04167 15 6.04167ZM15 8.45833C18.3515 8.45833 21.0417 11.1485 21.0417 14.5C21.0417 17.1394 19.3564 19.3609 17.0131 20.19L16.2083 20.4732V25.375H13.7917V20.4732L12.9869 20.19C10.6436 19.3609 8.95833 17.1394 8.95833 14.5C8.95833 11.1485 11.6485 8.45833 15 8.45833ZM0.5 13.2917V15.7083H4.125V13.2917H0.5ZM25.875 13.2917V15.7083H29.5V13.2917H25.875ZM6.45671 21.3346L3.89372 23.8976L5.60238 25.6063L8.16536 23.0433L6.45671 21.3346ZM23.5433 21.3346L21.8346 23.0433L24.3976 25.6063L26.1063 23.8976L23.5433 21.3346Z" fill="url(#paint0_radial_1303_38782)"/>
<defs>
<radialGradient id="paint0_radial_1303_38782" cx="0" cy="0" r="1" gradientUnits="userSpaceOnUse" gradientTransform="translate(15 13.8958) rotate(100.142) scale(17.6455 18.3661)">
<stop stop-color="#FD9BE8"/>
<stop offset="0.338542" stop-color="#7A73FF"/>
<stop offset="0.734375" stop-color="#75CDFF"/>
<stop offset="1" stop-color="#4AFCF1"/>
</radialGradient>
</defs>
</svg>
