<svg width="40" height="40" viewBox="0 0 40 40" fill="none" xmlns="http://www.w3.org/2000/svg">
<path d="M37.2662 4.66299H2.56459C1.40787 4.66299 0.636719 3.89184 0.636719 2.73512C0.636719 1.5784 1.40787 0.807251 2.56459 0.807251H37.2662C38.4229 0.807251 39.1941 1.5784 39.1941 2.73512C39.1941 3.89184 38.4229 4.66299 37.2662 4.66299Z" fill="url(#paint0_radial_1300_11402)"/>
<path d="M37.2662 27.7974H19.9154C18.7587 27.7974 17.9875 27.0263 17.9875 25.8695C17.9875 24.7128 18.7587 23.9417 19.9154 23.9417H37.2662C38.4229 23.9417 39.1941 24.7128 39.1941 25.8695C39.1941 27.0263 38.4229 27.7974 37.2662 27.7974Z" fill="url(#paint1_radial_1300_11402)"/>
<path d="M37.2662 16.2302H19.9154C18.7587 16.2302 17.9875 15.4591 17.9875 14.3023C17.9875 13.1456 18.7587 12.3745 19.9154 12.3745H37.2662C38.4229 12.3745 39.1941 13.1456 39.1941 14.3023C39.1941 15.4591 38.4229 16.2302 37.2662 16.2302Z" fill="url(#paint2_radial_1300_11402)"/>
<path d="M37.2662 39.3646H2.56459C1.40787 39.3646 0.636719 38.5935 0.636719 37.4368C0.636719 36.28 1.40787 35.5089 2.56459 35.5089H37.2662C38.4229 35.5089 39.1941 36.28 39.1941 37.4368C39.1941 38.5935 38.4229 39.3646 37.2662 39.3646Z" fill="url(#paint3_radial_1300_11402)"/>
<path d="M4.10688 29.9181C3.52852 29.9181 2.95016 29.7253 2.56459 29.5325C1.40787 28.9541 0.636719 27.7974 0.636719 26.4479V13.724C0.636719 12.3745 1.40787 11.2177 2.56459 10.6394C3.72131 10.061 5.07082 10.2538 6.22754 11.025L14.7102 17.3869C15.4813 17.9653 16.0597 18.9292 16.0597 20.0859C16.0597 21.2427 15.4813 22.2066 14.7102 22.9777L6.22754 29.3397C5.64918 29.7253 4.87803 29.9181 4.10688 29.9181ZM4.49246 14.4951V25.6768L12.0111 20.0859L4.49246 14.4951Z" fill="url(#paint4_radial_1300_11402)"/>
<defs>
<radialGradient id="paint0_radial_1300_11402" cx="0" cy="0" r="1" gradientUnits="userSpaceOnUse" gradientTransform="translate(19.9154 20.0859) rotate(99.7276) scale(24.4499)">
<stop offset="0.338542" stop-color="#7A73FF"/>
<stop offset="0.734375" stop-color="#75CDFF"/>
<stop offset="1" stop-color="#4AFCF1"/>
</radialGradient>
<radialGradient id="paint1_radial_1300_11402" cx="0" cy="0" r="1" gradientUnits="userSpaceOnUse" gradientTransform="translate(19.9154 20.0859) rotate(99.7276) scale(24.4499)">
<stop offset="0.338542" stop-color="#7A73FF"/>
<stop offset="0.734375" stop-color="#75CDFF"/>
<stop offset="1" stop-color="#4AFCF1"/>
</radialGradient>
<radialGradient id="paint2_radial_1300_11402" cx="0" cy="0" r="1" gradientUnits="userSpaceOnUse" gradientTransform="translate(19.9154 20.0859) rotate(99.7276) scale(24.4499)">
<stop offset="0.338542" stop-color="#7A73FF"/>
<stop offset="0.734375" stop-color="#75CDFF"/>
<stop offset="1" stop-color="#4AFCF1"/>
</radialGradient>
<radialGradient id="paint3_radial_1300_11402" cx="0" cy="0" r="1" gradientUnits="userSpaceOnUse" gradientTransform="translate(19.9154 20.0859) rotate(99.7276) scale(24.4499)">
<stop offset="0.338542" stop-color="#7A73FF"/>
<stop offset="0.734375" stop-color="#75CDFF"/>
<stop offset="1" stop-color="#4AFCF1"/>
</radialGradient>
<radialGradient id="paint4_radial_1300_11402" cx="0" cy="0" r="1" gradientUnits="userSpaceOnUse" gradientTransform="translate(19.9154 20.0859) rotate(99.7276) scale(24.4499)">
<stop offset="0.338542" stop-color="#7A73FF"/>
<stop offset="0.734375" stop-color="#75CDFF"/>
<stop offset="1" stop-color="#4AFCF1"/>
</radialGradient>
</defs>
</svg>
