<svg width="40" height="40" viewBox="0 0 40 40" fill="none" xmlns="http://www.w3.org/2000/svg">
<path d="M19.8881 0.580688C9.28478 0.580688 0.609375 9.2561 0.609375 19.8594C0.609375 30.4627 9.28478 39.1381 19.8881 39.1381C30.4913 39.1381 39.1668 30.4627 39.1668 19.8594C39.1668 9.2561 30.4913 0.580688 19.8881 0.580688ZM19.8881 35.2823C11.4054 35.2823 4.46511 28.342 4.46511 19.8594C4.46511 11.3768 11.4054 4.43643 19.8881 4.43643C28.3707 4.43643 35.311 11.3768 35.311 19.8594C35.311 28.342 28.3707 35.2823 19.8881 35.2823Z" fill="url(#paint0_radial_1300_6064)"/>
<path d="M30.4913 26.4141C29.1418 25.0646 27.5995 24.1007 25.8645 23.3295C27.214 21.7872 28.1779 19.8594 28.1779 17.5459C28.1779 12.919 24.5149 9.2561 19.8881 9.2561C15.2612 9.2561 11.5982 12.919 11.5982 17.5459C11.5982 19.8594 12.5622 21.7872 13.9117 23.3295C12.1766 24.1007 10.6343 25.0646 9.28478 26.4141C8.51364 27.1853 8.51364 28.342 9.28478 29.1131C9.67036 29.4987 10.2487 29.6915 10.6343 29.6915C11.2127 29.6915 11.5982 29.4987 11.9838 29.1131C14.1045 26.9925 16.8035 25.8358 19.8881 25.8358C22.7799 25.8358 25.6717 26.9925 27.7923 29.1131C28.5635 29.8843 29.7202 29.8843 30.4913 29.1131C31.2625 28.342 31.2625 27.1853 30.4913 26.4141ZM15.454 17.5459C15.454 15.0397 17.3818 13.1118 19.8881 13.1118C22.3943 13.1118 24.3222 15.0397 24.3222 17.5459C24.3222 20.0522 22.3943 21.98 19.8881 21.98C17.3818 21.98 15.454 20.0522 15.454 17.5459Z" fill="url(#paint1_radial_1300_6064)"/>
<defs>
<radialGradient id="paint0_radial_1300_6064" cx="0" cy="0" r="1" gradientUnits="userSpaceOnUse" gradientTransform="translate(19.8881 19.8594) rotate(99.7276) scale(24.4499)">
<stop offset="0.338542" stop-color="#7A73FF"/>
<stop offset="0.734375" stop-color="#75CDFF"/>
<stop offset="1" stop-color="#4AFCF1"/>
</radialGradient>
<radialGradient id="paint1_radial_1300_6064" cx="0" cy="0" r="1" gradientUnits="userSpaceOnUse" gradientTransform="translate(19.8881 19.8594) rotate(99.7276) scale(24.4499)">
<stop offset="0.338542" stop-color="#7A73FF"/>
<stop offset="0.734375" stop-color="#75CDFF"/>
<stop offset="1" stop-color="#4AFCF1"/>
</radialGradient>
</defs>
</svg>
