<svg width="30" height="22" viewBox="0 0 30 22" fill="none" xmlns="http://www.w3.org/2000/svg">
<path d="M7.61222 16.1931C7.99233 16.4257 8.398 16.3316 8.6824 16.0635C8.95788 15.8039 9.12654 15.3838 9.12654 14.9112C9.12654 14.3775 8.89914 13.8444 8.48214 13.6108L5.5929 11.992C5.28103 11.8173 5.08574 11.3806 5.08574 10.8798C5.08574 10.379 5.28103 9.94234 5.5929 9.76762L8.48982 8.1446C8.90218 7.91356 9.12654 7.38683 9.12654 6.86026C9.12654 6.39379 8.96009 5.97892 8.68783 5.72232C8.40664 5.45729 8.00518 5.36408 7.62906 5.59423L1.47586 9.35944C1.01006 9.64446 0.75 10.2594 0.75 10.8862V10.9114C0.75 11.5382 1.01006 12.1531 1.47586 12.4382L7.61222 16.1931ZM11.4086 19.4195C11.2847 19.8364 11.3286 20.2763 11.4872 20.6188C11.643 20.9551 11.9405 21.25 12.3474 21.25C12.8074 21.25 13.1505 20.8669 13.2862 20.4099L18.5823 2.58053C18.7061 2.16363 18.6623 1.72366 18.5037 1.3812C18.3479 1.0449 18.0504 0.75 17.6435 0.75C17.1835 0.75 16.8404 1.13307 16.7047 1.59008L11.4086 19.4195ZM20.8735 14.9373C20.8735 15.4038 21.0399 15.8187 21.3122 16.0753C21.5934 16.3403 21.9948 16.4335 22.3709 16.2034L28.5241 12.4382C28.9899 12.1531 29.25 11.5382 29.25 10.9114V10.8862C29.25 10.2594 28.9899 9.64446 28.5241 9.35944L22.3878 5.60454C22.0077 5.37194 21.602 5.46603 21.3176 5.73408C21.0421 5.99371 20.8735 6.41377 20.8735 6.88644C20.8735 7.42011 21.1009 7.95322 21.5179 8.18685L24.4071 9.80557C24.719 9.98029 24.9143 10.417 24.9143 10.9178C24.9143 11.4186 24.719 11.8553 24.4071 12.03L21.5102 13.653C21.0978 13.884 20.8735 14.4108 20.8735 14.9373Z" fill="url(#paint0_radial_339_42208)" stroke="url(#paint1_radial_339_42208)" stroke-width="0.5"/>
<defs>
<radialGradient id="paint0_radial_339_42208" cx="0" cy="0" r="1" gradientUnits="userSpaceOnUse" gradientTransform="translate(15 11) rotate(103.496) scale(12.855 17.5169)">
<stop offset="0.338542" stop-color="#7A73FF"/>
<stop offset="0.734375" stop-color="#75CDFF"/>
<stop offset="1" stop-color="#4AFCF1"/>
</radialGradient>
<radialGradient id="paint1_radial_339_42208" cx="0" cy="0" r="1" gradientUnits="userSpaceOnUse" gradientTransform="translate(15 11) rotate(103.496) scale(12.855 17.5169)">
<stop offset="0.338542" stop-color="#7A73FF"/>
<stop offset="0.734375" stop-color="#75CDFF"/>
<stop offset="1" stop-color="#4AFCF1"/>
</radialGradient>
</defs>
</svg>
