<svg width="29" height="29" viewBox="0 0 29 29" fill="none" xmlns="http://www.w3.org/2000/svg">
<path d="M24.2318 0.432836C23.6549 -0.144279 22.7895 -0.144279 22.2125 0.432836C21.6356 1.00995 21.6356 1.87562 22.2125 2.45274C24.8088 5.04975 26.2512 8.51244 26.2512 12.2637C26.2512 16.0149 24.8088 19.4776 22.2125 22.0746C19.6162 24.6716 16.1546 26.1144 12.4044 26.1144C9.23117 26.1144 6.05796 24.9602 3.60593 22.9403L5.48101 20.9204C7.50033 22.5075 9.95236 23.2289 12.2602 23.2289C15.1449 23.2289 17.8854 22.2189 20.049 20.0547C24.3761 15.7264 24.3761 8.65672 20.049 4.47264C15.7218 0.144278 8.65422 0.144278 4.47135 4.47264C0.576948 8.36816 0.144237 14.5721 3.46169 18.9005L0.432711 22.0746C-0.144237 22.6517 -0.144237 23.5174 0.432711 24.0945C3.60593 27.2687 7.7888 29 12.2602 29C16.7315 29 20.9144 27.2687 24.0876 24.0945C27.2608 20.9204 28.9917 16.7363 28.9917 12.2637C29.1359 7.79104 27.405 3.60697 24.2318 0.432836ZM6.63491 6.49254C8.22151 4.90547 10.3851 4.0398 12.4044 4.0398C14.5679 4.0398 16.5873 4.90547 18.1739 6.49254C21.3471 9.66667 21.3471 14.8607 18.1739 18.0348C15.0007 21.209 9.80812 21.209 6.63491 18.0348C3.46169 14.8607 3.46169 9.66667 6.63491 6.49254Z" fill="url(#paint0_radial_1300_32372)"/>
<defs>
<radialGradient id="paint0_radial_1300_32372" cx="0" cy="0" r="1" gradientUnits="userSpaceOnUse" gradientTransform="translate(14.5 14.5) rotate(99.7276) scale(18.3894)">
<stop offset="0.055" stop-color="#7A73FF"/>
<stop offset="0.65" stop-color="#67DDFA"/>
<stop offset="1" stop-color="#4AFCF1"/>
</radialGradient>
</defs>
</svg>
