<svg width="29" height="29" viewBox="0 0 29 29" fill="none" xmlns="http://www.w3.org/2000/svg">
<path d="M29 11.4792C29 10.0183 27.962 8.79909 26.5833 8.51876V1.20834C26.5833 0.578798 26.1012 0.0555895 25.4753 0.00363119C24.8542 -0.0543688 24.2875 0.38909 24.1836 1.00896C23.7135 3.82801 19.8094 4.83334 16.3125 4.83334H6.64583C2.98096 4.83334 0 7.8143 0 11.4792C0 13.4741 0.8845 15.2673 2.28133 16.4865L6.07792 26.616C6.409 27.5246 7.076 28.252 7.95325 28.6605C8.44021 28.8876 8.95979 29.0012 9.48058 29.0012C9.89988 29.0012 10.3192 28.9275 10.7252 28.7801C11.6338 28.449 12.3612 27.782 12.7697 26.9048C13.1781 26.0263 13.2204 25.0427 12.8893 24.1353L10.7107 18.125H16.3125C19.8094 18.125 23.7135 19.1291 24.1836 21.9494C24.2815 22.5354 24.789 22.9583 25.3738 22.9583C25.4076 22.9583 25.4415 22.9583 25.4741 22.9547C26.1012 22.9028 26.5821 22.3795 26.5821 21.75V14.4396C27.9608 14.1593 29 12.9413 29 11.4792ZM6.64583 7.25001H8.4535L8.41725 15.7083H6.64704C4.31496 15.7083 2.41788 13.8113 2.41788 11.4792C2.41788 9.14709 4.31375 7.25001 6.64583 7.25001ZM10.6188 24.9605C10.7288 25.2626 10.7155 25.5913 10.579 25.8837C10.4424 26.1761 10.2008 26.3985 9.89746 26.5096C9.59538 26.6208 9.26671 26.6063 8.97429 26.4698C8.68188 26.3332 8.45954 26.0915 8.34475 25.7786L5.43508 18.015C5.82779 18.0875 6.23258 18.1262 6.64583 18.1262H8.14054L10.6188 24.9618V24.9605ZM24.1667 17.7613C22.3699 16.4382 19.6717 15.7083 16.3125 15.7083H10.8327L10.869 7.25001H16.3113C19.6705 7.25001 22.3687 6.52017 24.1655 5.19705V17.7601L24.1667 17.7613Z" fill="url(#paint0_radial_1303_38743)"/>
<defs>
<radialGradient id="paint0_radial_1303_38743" cx="0" cy="0" r="1" gradientUnits="userSpaceOnUse" gradientTransform="translate(14.5 14.4999) rotate(99.7267) scale(18.391 18.3894)">
<stop stop-color="#FD9BE8"/>
<stop offset="0.338542" stop-color="#7A73FF"/>
<stop offset="0.734375" stop-color="#75CDFF"/>
<stop offset="1" stop-color="#4AFCF1"/>
</radialGradient>
</defs>
</svg>
