<svg width="28" height="28" viewBox="0 0 28 28" fill="none" xmlns="http://www.w3.org/2000/svg">
<path d="M26.3537 1.61704C24.5298 -0.207313 21.4431 -0.487983 17.7952 0.775031C16.5325 1.19604 15.2698 1.89771 14.007 2.59938C8.95613 -0.347648 4.18583 -0.908987 1.66037 1.61704C-1.00538 4.14307 -0.303868 8.91445 2.64249 13.9665C-0.444172 19.1589 -0.86508 23.9303 1.66037 26.316C2.64249 27.4387 4.18583 28 6.00977 28C8.39492 28 11.201 27.0177 14.007 25.3336C16.8131 27.0177 19.6192 28 22.0043 28C23.8282 28 25.2313 27.4387 26.3537 26.4563C28.8792 23.9303 28.3179 19.1589 25.3716 14.1068C28.4582 8.77412 28.8792 4.00273 26.3537 1.61704ZM18.637 3.44139C21.3028 2.45905 23.267 2.59938 24.3895 3.58173C25.6522 4.84474 25.3716 7.93211 23.6879 11.3001C22.7058 10.0371 21.7237 8.77412 20.461 7.51111C19.1982 6.24809 17.9355 5.26575 16.6728 4.2834C17.3743 4.00273 18.0758 3.58173 18.637 3.44139ZM3.62462 24.3513C2.36189 23.0883 2.64249 20.0009 4.32613 16.6329C5.30825 17.8959 6.29037 19.1589 7.5531 20.4219C8.81583 21.6849 10.0786 22.8076 11.3413 23.6496C7.83371 25.474 4.88734 25.6143 3.62462 24.3513ZM24.3895 24.3513C23.1267 25.6143 20.1804 25.3336 16.5325 23.6496C17.7952 22.6673 19.0579 21.5446 20.3207 20.4219C20.8819 19.8606 21.4431 19.2992 21.864 18.7379C22.4252 18.1766 22.2849 17.3345 21.7237 16.7732C21.1625 16.2119 20.3207 16.3522 19.7595 16.9135C19.3386 17.4749 18.7773 17.8959 18.3564 18.4572C16.9534 19.8606 15.4101 21.1236 14.007 22.1059C12.604 21.1236 11.0607 19.8606 9.65764 18.4572C3.48431 12.2825 1.52007 5.68675 3.62462 3.58173C4.04552 3.02039 4.88734 2.73972 6.00977 2.73972C7.4128 2.73972 9.37704 3.30106 11.3413 4.2834C10.0786 5.26575 8.81583 6.38843 7.5531 7.51111C6.99189 8.21278 6.29037 8.91445 5.72916 9.61613C5.16795 10.1775 5.30825 11.0195 5.86946 11.5808C6.43068 12.1422 7.4128 12.0018 7.83371 11.4405C8.39492 10.7388 8.95613 10.1775 9.51734 9.61613C10.9204 8.21278 12.4637 6.94977 13.8667 5.96742C15.2698 6.94977 16.8131 8.21278 18.3564 9.61613C24.5298 15.6505 26.494 22.2463 24.3895 24.3513Z" fill="url(#paint0_radial_1300_31920)"/>
<path d="M14 16.24C15.2371 16.24 16.24 15.2371 16.24 14C16.24 12.7629 15.2371 11.76 14 11.76C12.7629 11.76 11.76 12.7629 11.76 14C11.76 15.2371 12.7629 16.24 14 16.24Z" fill="url(#paint1_radial_1300_31920)"/>
<defs>
<radialGradient id="paint0_radial_1300_31920" cx="0" cy="0" r="1" gradientUnits="userSpaceOnUse" gradientTransform="translate(14 14) rotate(99.7276) scale(17.7553)">
<stop offset="0.055" stop-color="#7A73FF"/>
<stop offset="0.65" stop-color="#67DDFA"/>
<stop offset="1" stop-color="#4AFCF1"/>
</radialGradient>
<radialGradient id="paint1_radial_1300_31920" cx="0" cy="0" r="1" gradientUnits="userSpaceOnUse" gradientTransform="translate(14 14) rotate(99.7276) scale(17.7553)">
<stop offset="0.055" stop-color="#7A73FF"/>
<stop offset="0.65" stop-color="#67DDFA"/>
<stop offset="1" stop-color="#4AFCF1"/>
</radialGradient>
</defs>
</svg>
