<svg width="119" height="108" viewBox="0 0 119 108" fill="none" xmlns="http://www.w3.org/2000/svg">
<g filter="url(#filter0_dd_369_15006)">
<rect x="9" y="8" width="99" height="88" rx="12" fill="white"/>
<path d="M65.9348 53H44.5V33M65.9348 53V33M65.9348 53L73.5 46.75V28M65.9348 33H44.5M65.9348 33L73.5 28M44.5 33L52.0652 28H73.5" stroke="url(#paint0_radial_369_15006)" stroke-width="3"/>
<path d="M25.6591 73.7617V73.7031H26.79V73.7617C26.79 74.2227 26.9658 74.5801 27.3173 74.834C27.6689 75.0879 28.1357 75.2148 28.7177 75.2148C29.2959 75.2148 29.7588 75.0879 30.1064 74.834C30.4541 74.5801 30.6279 74.1836 30.6279 73.6445C30.6279 73.1055 30.4326 72.7012 30.042 72.4316C29.6552 72.1582 29.1338 72.0215 28.4775 72.0215H27.7275V71.0898H28.413C29.0185 71.0898 29.4853 70.9609 29.8134 70.7031C30.1455 70.4453 30.3115 70.0859 30.3115 69.625C30.3115 69.1641 30.167 68.8203 29.8779 68.5938C29.5927 68.3672 29.206 68.2539 28.7177 68.2539C28.2216 68.2539 27.8193 68.3672 27.5107 68.5938C27.2021 68.8203 27.0478 69.1445 27.0478 69.5664V69.625H25.9111V69.5664C25.9111 68.9375 26.1728 68.4023 26.6963 67.9609C27.2236 67.5156 27.8974 67.293 28.7177 67.293C29.5263 67.293 30.1884 67.5059 30.7041 67.9316C31.2197 68.3535 31.4775 68.8965 31.4775 69.5605C31.4775 69.9512 31.3623 70.3262 31.1318 70.6855C30.9013 71.041 30.54 71.3164 30.0478 71.5117V71.5352C30.5791 71.6602 31.0048 71.9082 31.3252 72.2793C31.6455 72.6465 31.8056 73.1016 31.8056 73.6445C31.8056 74.4336 31.5146 75.0527 30.9326 75.502C30.3505 75.9512 29.6123 76.1758 28.7177 76.1758C27.8037 76.1758 27.0654 75.9512 26.5029 75.502C25.9404 75.0488 25.6591 74.4688 25.6591 73.7617ZM33.7038 76V67.4688H36.4695C37.657 67.4688 38.6452 67.834 39.4343 68.5645C40.2273 69.291 40.6238 70.2754 40.6238 71.5176V71.9512C40.6238 73.1934 40.2273 74.1797 39.4343 74.9102C38.6452 75.6367 37.657 76 36.4695 76H33.7038ZM34.8698 75.0391H36.4695C37.3757 75.0391 38.0984 74.7695 38.6374 74.2305C39.1765 73.6875 39.446 72.9277 39.446 71.9512V71.5176C39.446 70.541 39.1765 69.7832 38.6374 69.2441C38.0984 68.7012 37.3757 68.4297 36.4695 68.4297H34.8698V75.0391ZM45.6096 76V69.7656H47.1623L49.1252 74.084C49.2307 74.3184 49.2971 74.4785 49.3245 74.5645C49.3557 74.6465 49.3811 74.7344 49.4006 74.8281H49.4651C49.4846 74.7344 49.508 74.6465 49.5354 74.5645C49.5627 74.4785 49.6291 74.3223 49.7346 74.0957L51.7092 69.7656H53.2327V76H52.1428V71.7344C52.1428 71.5039 52.1448 71.3379 52.1487 71.2363C52.1565 71.1348 52.1663 71.043 52.178 70.9609H52.1311C52.1116 71.0391 52.0862 71.127 52.0549 71.2246C52.0237 71.3223 51.9592 71.4785 51.8616 71.6934L49.8928 76H48.9026L46.928 71.6758C46.8459 71.4883 46.7873 71.3418 46.7522 71.2363C46.717 71.1309 46.6916 71.0391 46.676 70.9609H46.6174C46.6252 71.043 46.633 71.1348 46.6409 71.2363C46.6487 71.334 46.6526 71.4883 46.6526 71.6992V76H45.6096ZM54.8789 72.9766V72.7891C54.8789 71.8477 55.1738 71.0801 55.7637 70.4863C56.3574 69.8887 57.1504 69.5898 58.1426 69.5898C59.1309 69.5898 59.9219 69.8887 60.5156 70.4863C61.1094 71.0801 61.4062 71.8477 61.4062 72.7891V72.9766C61.4062 73.918 61.1094 74.6875 60.5156 75.2852C59.9219 75.8789 59.1309 76.1758 58.1426 76.1758C57.1504 76.1758 56.3574 75.8789 55.7637 75.2852C55.1738 74.6875 54.8789 73.918 54.8789 72.9766ZM56.0273 72.7891V72.9766C56.0273 73.6172 56.2051 74.1562 56.5605 74.5938C56.916 75.0312 57.4434 75.25 58.1426 75.25C58.8418 75.25 59.3672 75.0312 59.7188 74.5938C60.0742 74.1562 60.252 73.6172 60.252 72.9766V72.7891C60.252 72.1445 60.0742 71.6055 59.7188 71.1719C59.3672 70.7344 58.8418 70.5156 58.1426 70.5156C57.4434 70.5156 56.916 70.7344 56.5605 71.1719C56.2051 71.6055 56.0273 72.1445 56.0273 72.7891ZM68.2791 77.582V76H63.2576V77.582H62.2263V75.1152H69.3162V77.582H68.2791ZM64.4763 70.6504L64.3826 72.7656C64.3513 73.4844 64.3064 74.0137 64.2478 74.3535C64.1931 74.6895 64.1111 74.9746 64.0017 75.209H62.8357C62.9763 75.0215 63.0877 74.752 63.1697 74.4004C63.2556 74.0449 63.3162 73.4531 63.3513 72.625L63.4802 69.7656H68.3787V76H67.2478V70.6504H64.4763ZM70.2066 72.9766V72.7891C70.2066 71.8477 70.4917 71.0801 71.062 70.4863C71.6362 69.8887 72.3941 69.5898 73.3355 69.5898C74.2808 69.5898 75.0073 69.8691 75.5152 70.4277C76.023 70.9824 76.2769 71.7344 76.2769 72.6836V73.1465H70.8745V72.25H75.146V72.2207C75.146 71.7207 75.0034 71.3105 74.7183 70.9902C74.4331 70.6699 73.9761 70.5098 73.3472 70.5098C72.687 70.5098 72.187 70.7285 71.8472 71.166C71.5073 71.6035 71.3374 72.1445 71.3374 72.7891V72.9766C71.3374 73.6211 71.5152 74.1621 71.8706 74.5996C72.23 75.0371 72.7827 75.2559 73.5288 75.2559C73.982 75.2559 74.3726 75.1699 74.7007 74.998C75.0288 74.8223 75.2925 74.6152 75.4917 74.377L76.2183 74.9746C75.9995 75.2676 75.6597 75.541 75.1987 75.7949C74.7417 76.0488 74.1851 76.1758 73.5288 76.1758C72.4546 76.1758 71.6323 75.8789 71.062 75.2852C70.4917 74.6875 70.2066 73.918 70.2066 72.9766ZM79.4407 70.6504L79.3352 73.1348C79.2884 74.1855 79.1438 74.9473 78.9016 75.4199C78.6634 75.8926 78.2513 76.1289 77.6653 76.1289C77.5208 76.1289 77.3938 76.1191 77.2845 76.0996C77.1751 76.084 77.0833 76.0586 77.0091 76.0234V75.0566C77.0755 75.084 77.1438 75.1035 77.2141 75.1152C77.2884 75.127 77.3723 75.1328 77.4661 75.1328C77.763 75.1328 77.968 74.9805 78.0813 74.6758C78.1985 74.3672 78.2727 73.8027 78.304 72.9824L78.4446 69.7656H83.2552V76H82.1302V70.6504H79.4407ZM85.2705 76V69.7656H86.3838V73.7383C86.3838 73.8555 86.3819 73.9883 86.378 74.1367C86.378 74.2852 86.376 74.4199 86.3721 74.541H86.419C86.4737 74.4355 86.5342 74.3242 86.6006 74.207C86.667 74.0898 86.7432 73.9727 86.8291 73.8555L89.7647 69.7656H90.8955V76H89.7764V72.0332C89.7764 71.9121 89.7784 71.7773 89.7823 71.6289C89.7862 71.4766 89.792 71.3398 89.7998 71.2188H89.7354C89.6846 71.3203 89.626 71.4316 89.5596 71.5527C89.4932 71.6738 89.419 71.793 89.337 71.9102L86.4014 76H85.2705Z" fill="#04101C"/>
</g>
<defs>
<filter id="filter0_dd_369_15006" x="0" y="0" width="119" height="108" filterUnits="userSpaceOnUse" color-interpolation-filters="sRGB">
<feFlood flood-opacity="0" result="BackgroundImageFix"/>
<feColorMatrix in="SourceAlpha" type="matrix" values="0 0 0 0 0 0 0 0 0 0 0 0 0 0 0 0 0 0 127 0" result="hardAlpha"/>
<feOffset dx="1" dy="2"/>
<feGaussianBlur stdDeviation="5"/>
<feComposite in2="hardAlpha" operator="out"/>
<feColorMatrix type="matrix" values="0 0 0 0 0.00780001 0 0 0 0 0.045344 0 0 0 0 0.0800001 0 0 0 0.08 0"/>
<feBlend mode="normal" in2="BackgroundImageFix" result="effect1_dropShadow_369_15006"/>
<feColorMatrix in="SourceAlpha" type="matrix" values="0 0 0 0 0 0 0 0 0 0 0 0 0 0 0 0 0 0 127 0" result="hardAlpha"/>
<feOffset dx="1" dy="2"/>
<feGaussianBlur stdDeviation="5"/>
<feComposite in2="hardAlpha" operator="out"/>
<feColorMatrix type="matrix" values="0 0 0 0 0.00780001 0 0 0 0 0.045344 0 0 0 0 0.0800001 0 0 0 0.08 0"/>
<feBlend mode="normal" in2="effect1_dropShadow_369_15006" result="effect2_dropShadow_369_15006"/>
<feBlend mode="normal" in="SourceGraphic" in2="effect2_dropShadow_369_15006" result="shape"/>
</filter>
<radialGradient id="paint0_radial_369_15006" cx="0" cy="0" r="1" gradientUnits="userSpaceOnUse" gradientTransform="translate(59 40.5) rotate(101.247) scale(15.9309 18.2993)">
<stop stop-color="#FD9BE8"/>
<stop offset="0.338542" stop-color="#7A73FF"/>
<stop offset="0.734375" stop-color="#75CDFF"/>
<stop offset="1" stop-color="#4AFCF1"/>
</radialGradient>
</defs>
</svg>
