<svg width="126" height="124" viewBox="0 0 126 124" fill="none" xmlns="http://www.w3.org/2000/svg">
<g filter="url(#filter0_dd_369_14972)">
<rect x="9" y="8" width="106" height="104" rx="12" fill="white"/>
<path d="M77 37.4792C77 36.0183 75.962 34.7991 74.5833 34.5188V27.2083C74.5833 26.5788 74.1012 26.0556 73.4753 26.0036C72.8542 25.9456 72.2875 26.3891 72.1836 27.009C71.7135 29.828 67.8094 30.8333 64.3125 30.8333H54.6458C50.981 30.8333 48 33.8143 48 37.4792C48 39.4741 48.8845 41.2673 50.2813 42.4865L54.0779 52.616C54.409 53.5246 55.076 54.252 55.9532 54.6605C56.4402 54.8876 56.9598 55.0012 57.4806 55.0012C57.8999 55.0012 58.3192 54.9275 58.7252 54.7801C59.6338 54.449 60.3612 53.782 60.7697 52.9048C61.1781 52.0263 61.2204 51.0427 60.8893 50.1353L58.7107 44.125H64.3125C67.8094 44.125 71.7135 45.1291 72.1836 47.9494C72.2815 48.5354 72.789 48.9583 73.3738 48.9583C73.4076 48.9583 73.4415 48.9583 73.4741 48.9547C74.1012 48.9028 74.5821 48.3795 74.5821 47.75V40.4396C75.9608 40.1593 77 38.9413 77 37.4792ZM54.6458 33.25H56.4535L56.4173 41.7083H54.647C52.315 41.7083 50.4179 39.8113 50.4179 37.4792C50.4179 35.1471 52.3138 33.25 54.6458 33.25ZM58.6188 50.9605C58.7288 51.2626 58.7155 51.5913 58.579 51.8837C58.4424 52.1761 58.2008 52.3985 57.8975 52.5096C57.5954 52.6208 57.2667 52.6063 56.9743 52.4698C56.6819 52.3332 56.4595 52.0915 56.3448 51.7786L53.4351 44.015C53.8278 44.0875 54.2326 44.1262 54.6458 44.1262H56.1405L58.6188 50.9618V50.9605ZM72.1667 43.7613C70.3699 42.4382 67.6717 41.7083 64.3125 41.7083H58.8327L58.869 33.25H64.3113C67.6705 33.25 70.3687 32.5202 72.1655 31.197V43.7601L72.1667 43.7613Z" fill="url(#paint0_radial_369_14972)"/>
<path d="M26.338 76V67.4688H29.4141C30.4376 67.4688 31.2227 67.7051 31.7696 68.1777C32.3204 68.6465 32.5958 69.2773 32.5958 70.0703C32.5958 70.8594 32.3204 71.4941 31.7696 71.9746C31.2227 72.4512 30.4376 72.6895 29.4141 72.6895H27.504V76H26.338ZM27.504 71.7344H29.4141C30.1602 71.7344 30.6817 71.5742 30.9786 71.2539C31.2794 70.9336 31.4298 70.5391 31.4298 70.0703C31.4298 69.5977 31.2794 69.207 30.9786 68.8984C30.6817 68.5859 30.1602 68.4297 29.4141 68.4297H27.504V71.7344ZM33.4627 72.9766V72.7891C33.4627 71.8477 33.7479 71.0801 34.3182 70.4863C34.8924 69.8887 35.6502 69.5898 36.5916 69.5898C37.537 69.5898 38.2635 69.8691 38.7713 70.4277C39.2791 70.9824 39.533 71.7344 39.533 72.6836V73.1465H34.1307V72.25H38.4022V72.2207C38.4022 71.7207 38.2596 71.3105 37.9745 70.9902C37.6893 70.6699 37.2323 70.5098 36.6034 70.5098C35.9432 70.5098 35.4432 70.7285 35.1034 71.166C34.7635 71.6035 34.5936 72.1445 34.5936 72.7891V72.9766C34.5936 73.6211 34.7713 74.1621 35.1268 74.5996C35.4862 75.0371 36.0389 75.2559 36.785 75.2559C37.2381 75.2559 37.6287 75.1699 37.9569 74.998C38.285 74.8223 38.5487 74.6152 38.7479 74.377L39.4745 74.9746C39.2557 75.2676 38.9159 75.541 38.4549 75.7949C37.9979 76.0488 37.4412 76.1758 36.785 76.1758C35.7108 76.1758 34.8885 75.8789 34.3182 75.2852C33.7479 74.6875 33.4627 73.918 33.4627 72.9766ZM45.4801 76L42.7789 73.1465L43.4703 72.4141L46.9156 76H45.4801ZM41.6246 72.3848H42.8551L45.2691 69.7656H46.5992L43.318 73.2695H41.6246V72.3848ZM42.1871 69.7656V76H41.068V69.7656H42.1871ZM49.6166 70.6504L49.5111 73.1348C49.4642 74.1855 49.3197 74.9473 49.0775 75.4199C48.8392 75.8926 48.4271 76.1289 47.8412 76.1289C47.6966 76.1289 47.5697 76.1191 47.4603 76.0996C47.3509 76.084 47.2591 76.0586 47.1849 76.0234V75.0566C47.2513 75.084 47.3197 75.1035 47.39 75.1152C47.4642 75.127 47.5482 75.1328 47.642 75.1328C47.9388 75.1328 48.1439 74.9805 48.2572 74.6758C48.3744 74.3672 48.4486 73.8027 48.4798 72.9824L48.6205 69.7656H53.431V76H52.306V70.6504H49.6166ZM55.0948 74.166C55.0948 73.5293 55.3683 73.0352 55.9152 72.6836C56.4659 72.332 57.1788 72.1562 58.0538 72.1562H59.7237V71.7109C59.7237 71.3359 59.6066 71.0371 59.3722 70.8145C59.1417 70.5918 58.7472 70.4805 58.1886 70.4805C57.6339 70.4805 57.2335 70.5762 56.9874 70.7676C56.7413 70.9551 56.6183 71.1816 56.6183 71.4473V71.4766H55.4933V71.4473C55.4933 70.9355 55.7374 70.498 56.2257 70.1348C56.714 69.7715 57.378 69.5898 58.2179 69.5898C59.0538 69.5898 59.7003 69.7695 60.1573 70.1289C60.6183 70.4844 60.8487 71.0117 60.8487 71.7109V74.5938C60.8487 74.8477 60.8702 75.0879 60.9132 75.3145C60.9562 75.5371 61.0167 75.7344 61.0948 75.9062V76H60.0109C59.9484 75.9023 59.8917 75.7734 59.8409 75.6133C59.7902 75.4531 59.7589 75.2949 59.7472 75.1387C59.5831 75.4004 59.3097 75.6289 58.9269 75.8242C58.5441 76.0195 58.0538 76.1172 57.4562 76.1172C56.7843 76.1172 56.2218 75.9492 55.7687 75.6133C55.3195 75.2773 55.0948 74.7949 55.0948 74.166ZM56.2198 74.1074C56.2198 74.459 56.3409 74.7324 56.5831 74.9277C56.8253 75.123 57.2042 75.2207 57.7198 75.2207C58.2355 75.2207 58.6984 75.0723 59.1085 74.7754C59.5187 74.4785 59.7237 74.1641 59.7237 73.832V72.9531H58.1827C57.5421 72.9531 57.0538 73.0566 56.7179 73.2637C56.3859 73.4668 56.2198 73.748 56.2198 74.1074ZM62.8466 76V69.7656H64.3993L66.3622 74.084C66.4677 74.3184 66.5341 74.4785 66.5614 74.5645C66.5927 74.6465 66.618 74.7344 66.6376 74.8281H66.702C66.7216 74.7344 66.745 74.6465 66.7723 74.5645C66.7997 74.4785 66.8661 74.3223 66.9716 74.0957L68.9462 69.7656H70.4696V76H69.3798V71.7344C69.3798 71.5039 69.3817 71.3379 69.3856 71.2363C69.3934 71.1348 69.4032 71.043 69.4149 70.9609H69.368C69.3485 71.0391 69.3231 71.127 69.2919 71.2246C69.2606 71.3223 69.1962 71.4785 69.0985 71.6934L67.1298 76H66.1395L64.1649 71.6758C64.0829 71.4883 64.0243 71.3418 63.9891 71.2363C63.954 71.1309 63.9286 71.0391 63.913 70.9609H63.8544C63.8622 71.043 63.87 71.1348 63.8778 71.2363C63.8856 71.334 63.8895 71.4883 63.8895 71.6992V76H62.8466ZM72.485 69.7656H73.61V72.3789H76.9147V69.7656H78.0397V76H76.9147V73.2695H73.61V76H72.485V69.7656ZM81.1742 69.7656V71.8926H82.9848C83.7621 71.8926 84.3598 72.0762 84.7777 72.4434C85.1996 72.8066 85.4105 73.3027 85.4105 73.9316C85.4105 74.5566 85.1996 75.0586 84.7777 75.4375C84.3598 75.8125 83.7621 76 82.9848 76H80.0492V69.7656H81.1742ZM82.9789 72.7832H81.1742V75.1152H82.9789C83.4594 75.1152 83.7953 75.0039 83.9867 74.7812C84.182 74.5586 84.2797 74.2754 84.2797 73.9316C84.2797 73.5957 84.182 73.3203 83.9867 73.1055C83.7953 72.8906 83.4594 72.7832 82.9789 72.7832ZM86.2602 76V69.7656H87.3852V76H86.2602ZM89.0255 72.9766V72.7891C89.0255 71.8477 89.3107 71.0801 89.881 70.4863C90.4552 69.8887 91.213 69.5898 92.1544 69.5898C93.0998 69.5898 93.8263 69.8691 94.3341 70.4277C94.8419 70.9824 95.0959 71.7344 95.0959 72.6836V73.1465H89.6935V72.25H93.965V72.2207C93.965 71.7207 93.8224 71.3105 93.5373 70.9902C93.2521 70.6699 92.7951 70.5098 92.1662 70.5098C91.506 70.5098 91.006 70.7285 90.6662 71.166C90.3263 71.6035 90.1564 72.1445 90.1564 72.7891V72.9766C90.1564 73.6211 90.3341 74.1621 90.6896 74.5996C91.049 75.0371 91.6017 75.2559 92.3478 75.2559C92.8009 75.2559 93.1916 75.1699 93.5197 74.998C93.8478 74.8223 94.1115 74.6152 94.3107 74.377L95.0373 74.9746C94.8185 75.2676 94.4787 75.541 94.0177 75.7949C93.5607 76.0488 93.0041 76.1758 92.3478 76.1758C91.2736 76.1758 90.4513 75.8789 89.881 75.2852C89.3107 74.6875 89.0255 73.918 89.0255 72.9766ZM27.9404 92V85.7656H29.4931L31.456 90.084C31.5615 90.3184 31.6279 90.4785 31.6552 90.5645C31.6865 90.6465 31.7119 90.7344 31.7314 90.8281H31.7959C31.8154 90.7344 31.8388 90.6465 31.8662 90.5645C31.8935 90.4785 31.9599 90.3223 32.0654 90.0957L34.04 85.7656H35.5634V92H34.4736V87.7344C34.4736 87.5039 34.4755 87.3379 34.4795 87.2363C34.4873 87.1348 34.497 87.043 34.5088 86.9609H34.4619C34.4423 87.0391 34.417 87.127 34.3857 87.2246C34.3545 87.3223 34.29 87.4785 34.1923 87.6934L32.2236 92H31.2334L29.2588 87.6758C29.1767 87.4883 29.1181 87.3418 29.083 87.2363C29.0478 87.1309 29.0224 87.0391 29.0068 86.9609H28.9482C28.956 87.043 28.9638 87.1348 28.9716 87.2363C28.9795 87.334 28.9834 87.4883 28.9834 87.6992V92H27.9404ZM37.2273 90.166C37.2273 89.5293 37.5007 89.0352 38.0476 88.6836C38.5984 88.332 39.3113 88.1562 40.1863 88.1562H41.8562V87.7109C41.8562 87.3359 41.739 87.0371 41.5046 86.8145C41.2741 86.5918 40.8796 86.4805 40.321 86.4805C39.7663 86.4805 39.3659 86.5762 39.1198 86.7676C38.8738 86.9551 38.7507 87.1816 38.7507 87.4473V87.4766H37.6257V87.4473C37.6257 86.9355 37.8698 86.498 38.3581 86.1348C38.8464 85.7715 39.5105 85.5898 40.3503 85.5898C41.1863 85.5898 41.8327 85.7695 42.2898 86.1289C42.7507 86.4844 42.9812 87.0117 42.9812 87.7109V90.5938C42.9812 90.8477 43.0027 91.0879 43.0456 91.3145C43.0886 91.5371 43.1491 91.7344 43.2273 91.9062V92H42.1433C42.0808 91.9023 42.0241 91.7734 41.9734 91.6133C41.9226 91.4531 41.8913 91.2949 41.8796 91.1387C41.7155 91.4004 41.4421 91.6289 41.0593 91.8242C40.6765 92.0195 40.1863 92.1172 39.5886 92.1172C38.9167 92.1172 38.3542 91.9492 37.9011 91.6133C37.4519 91.2773 37.2273 90.7949 37.2273 90.166ZM38.3523 90.1074C38.3523 90.459 38.4734 90.7324 38.7155 90.9277C38.9577 91.123 39.3366 91.2207 39.8523 91.2207C40.3679 91.2207 40.8308 91.0723 41.2409 90.7754C41.6511 90.4785 41.8562 90.1641 41.8562 89.832V88.9531H40.3152C39.6745 88.9531 39.1863 89.0566 38.8503 89.2637C38.5183 89.4668 38.3523 89.748 38.3523 90.1074ZM44.2876 86.6504V85.7656H49.854V86.6504H47.6333V92H46.5083V86.6504H44.2876ZM50.8147 88.9766V88.7891C50.8147 87.8477 51.0998 87.0801 51.6702 86.4863C52.2444 85.8887 53.0022 85.5898 53.9436 85.5898C54.8889 85.5898 55.6155 85.8691 56.1233 86.4277C56.6311 86.9824 56.885 87.7344 56.885 88.6836V89.1465H51.4827V88.25H55.7541V88.2207C55.7541 87.7207 55.6116 87.3105 55.3264 86.9902C55.0413 86.6699 54.5842 86.5098 53.9553 86.5098C53.2952 86.5098 52.7952 86.7285 52.4553 87.166C52.1155 87.6035 51.9455 88.1445 51.9455 88.7891V88.9766C51.9455 89.6211 52.1233 90.1621 52.4788 90.5996C52.8381 91.0371 53.3909 91.2559 54.137 91.2559C54.5901 91.2559 54.9807 91.1699 55.3088 90.998C55.637 90.8223 55.9006 90.6152 56.0998 90.377L56.8264 90.9746C56.6077 91.2676 56.2678 91.541 55.8069 91.7949C55.3498 92.0488 54.7932 92.1758 54.137 92.1758C53.0627 92.1758 52.2405 91.8789 51.6702 91.2852C51.0998 90.6875 50.8147 89.918 50.8147 88.9766ZM58.4199 94.4375V85.7656H59.4395L59.4922 86.6211H59.5156C59.7031 86.3516 59.9863 86.123 60.3652 85.9355C60.7441 85.7441 61.1875 85.6484 61.6953 85.6484C62.5703 85.6484 63.2695 85.9453 63.793 86.5391C64.3203 87.1289 64.584 87.8789 64.584 88.7891V88.9766C64.584 89.8828 64.3203 90.6328 63.793 91.2266C63.2695 91.8203 62.5703 92.1172 61.6953 92.1172C61.1875 92.1172 60.7559 92.0352 60.4004 91.8711C60.0449 91.707 59.7598 91.4902 59.5449 91.2207V94.4375H58.4199ZM59.5449 90.084C59.6855 90.373 59.918 90.6309 60.2422 90.8574C60.5664 91.0801 60.9609 91.1914 61.4258 91.1914C62.1172 91.1914 62.623 90.9805 62.9434 90.5586C63.2676 90.1328 63.4297 89.6055 63.4297 88.9766V88.7891C63.4297 88.1562 63.2676 87.6289 62.9434 87.207C62.623 86.7852 62.1172 86.5742 61.4258 86.5742C60.9609 86.5742 60.5664 86.6875 60.2422 86.9141C59.9219 87.1367 59.6895 87.3926 59.5449 87.6816V90.084ZM66.2302 92V85.7656H67.3435V89.7383C67.3435 89.8555 67.3416 89.9883 67.3377 90.1367C67.3377 90.2852 67.3357 90.4199 67.3318 90.541H67.3787C67.4334 90.4355 67.4939 90.3242 67.5603 90.207C67.6267 90.0898 67.7029 89.9727 67.7888 89.8555L70.7244 85.7656H71.8552V92H70.7361V88.0332C70.7361 87.9121 70.738 87.7773 70.742 87.6289C70.7459 87.4766 70.7517 87.3398 70.7595 87.2188H70.6951C70.6443 87.3203 70.5857 87.4316 70.5193 87.5527C70.4529 87.6738 70.3787 87.793 70.2966 87.9102L67.3611 92H66.2302ZM73.5132 90.166C73.5132 89.5293 73.7866 89.0352 74.3335 88.6836C74.8843 88.332 75.5972 88.1562 76.4722 88.1562H78.1421V87.7109C78.1421 87.3359 78.0249 87.0371 77.7905 86.8145C77.5601 86.5918 77.1655 86.4805 76.607 86.4805C76.0523 86.4805 75.6519 86.5762 75.4058 86.7676C75.1597 86.9551 75.0366 87.1816 75.0366 87.4473V87.4766H73.9116V87.4473C73.9116 86.9355 74.1558 86.498 74.6441 86.1348C75.1323 85.7715 75.7964 85.5898 76.6362 85.5898C77.4722 85.5898 78.1187 85.7695 78.5757 86.1289C79.0366 86.4844 79.2671 87.0117 79.2671 87.7109V90.5938C79.2671 90.8477 79.2886 91.0879 79.3316 91.3145C79.3745 91.5371 79.4351 91.7344 79.5132 91.9062V92H78.4292C78.3667 91.9023 78.3101 91.7734 78.2593 91.6133C78.2085 91.4531 78.1773 91.2949 78.1655 91.1387C78.0015 91.4004 77.728 91.6289 77.3452 91.8242C76.9624 92.0195 76.4722 92.1172 75.8745 92.1172C75.2027 92.1172 74.6402 91.9492 74.187 91.6133C73.7378 91.2773 73.5132 90.7949 73.5132 90.166ZM74.6382 90.1074C74.6382 90.459 74.7593 90.7324 75.0015 90.9277C75.2437 91.123 75.6226 91.2207 76.1382 91.2207C76.6538 91.2207 77.1167 91.0723 77.5269 90.7754C77.937 90.4785 78.1421 90.1641 78.1421 89.832V88.9531H76.6011C75.9605 88.9531 75.4722 89.0566 75.1362 89.2637C74.8042 89.4668 74.6382 89.748 74.6382 90.1074ZM82.8938 86.6504L82.7884 89.1348C82.7415 90.1855 82.597 90.9473 82.3548 91.4199C82.1165 91.8926 81.7044 92.1289 81.1184 92.1289C80.9739 92.1289 80.847 92.1191 80.7376 92.0996C80.6282 92.084 80.5364 92.0586 80.4622 92.0234V91.0566C80.5286 91.084 80.597 91.1035 80.6673 91.1152C80.7415 91.127 80.8255 91.1328 80.9192 91.1328C81.2161 91.1328 81.4212 90.9805 81.5345 90.6758C81.6516 90.3672 81.7259 89.8027 81.7571 88.9824L81.8977 85.7656H86.7083V92H85.5833V86.6504H82.8938ZM89.8487 85.7656V87.8926H91.6592C92.4366 87.8926 93.0342 88.0762 93.4522 88.4434C93.8741 88.8066 94.085 89.3027 94.085 89.9316C94.085 90.5566 93.8741 91.0586 93.4522 91.4375C93.0342 91.8125 92.4366 92 91.6592 92H88.7237V85.7656H89.8487ZM91.6534 88.7832H89.8487V91.1152H91.6534C92.1338 91.1152 92.4698 91.0039 92.6612 90.7812C92.8565 90.5586 92.9541 90.2754 92.9541 89.9316C92.9541 89.5957 92.8565 89.3203 92.6612 89.1055C92.4698 88.8906 92.1338 88.7832 91.6534 88.7832ZM94.9346 92V85.7656H96.0596V92H94.9346Z" fill="#04101C"/>
</g>
<defs>
<filter id="filter0_dd_369_14972" x="0" y="0" width="126" height="124" filterUnits="userSpaceOnUse" color-interpolation-filters="sRGB">
<feFlood flood-opacity="0" result="BackgroundImageFix"/>
<feColorMatrix in="SourceAlpha" type="matrix" values="0 0 0 0 0 0 0 0 0 0 0 0 0 0 0 0 0 0 127 0" result="hardAlpha"/>
<feOffset dx="1" dy="2"/>
<feGaussianBlur stdDeviation="5"/>
<feComposite in2="hardAlpha" operator="out"/>
<feColorMatrix type="matrix" values="0 0 0 0 0.00780001 0 0 0 0 0.045344 0 0 0 0 0.0800001 0 0 0 0.08 0"/>
<feBlend mode="normal" in2="BackgroundImageFix" result="effect1_dropShadow_369_14972"/>
<feColorMatrix in="SourceAlpha" type="matrix" values="0 0 0 0 0 0 0 0 0 0 0 0 0 0 0 0 0 0 127 0" result="hardAlpha"/>
<feOffset dx="1" dy="2"/>
<feGaussianBlur stdDeviation="5"/>
<feComposite in2="hardAlpha" operator="out"/>
<feColorMatrix type="matrix" values="0 0 0 0 0.00780001 0 0 0 0 0.045344 0 0 0 0 0.0800001 0 0 0 0.08 0"/>
<feBlend mode="normal" in2="effect1_dropShadow_369_14972" result="effect2_dropShadow_369_14972"/>
<feBlend mode="normal" in="SourceGraphic" in2="effect2_dropShadow_369_14972" result="shape"/>
</filter>
<radialGradient id="paint0_radial_369_14972" cx="0" cy="0" r="1" gradientUnits="userSpaceOnUse" gradientTransform="translate(62.5 40.4999) rotate(99.7267) scale(18.391 18.3894)">
<stop stop-color="#FD9BE8"/>
<stop offset="0.338542" stop-color="#7A73FF"/>
<stop offset="0.734375" stop-color="#75CDFF"/>
<stop offset="1" stop-color="#4AFCF1"/>
</radialGradient>
</defs>
</svg>
