<svg width="150" height="130" viewBox="0 0 150 130" fill="none" xmlns="http://www.w3.org/2000/svg">
<g filter="url(#filter0_d_364_13407)">
<rect x="9" y="8" width="130" height="110" rx="12" fill="white"/>
<path d="M88.0612 40.6794C85.8527 37.7025 83.2544 34.9845 80.2664 32.9136C78.3177 31.4898 75.5896 31.7487 73.7708 33.5607L69.3537 37.9614C67.6649 39.644 67.405 42.362 68.7042 44.3035C68.8341 44.4329 68.964 44.6918 69.2238 44.8212L61.0393 52.9753C60.3897 53.6225 60 54.5285 60 55.5639V59.7057C60 60.094 60.1299 60.3528 60.3897 60.6117C60.6496 60.8706 60.9094 61 61.2991 61H65.4563C66.4956 61 67.405 60.6117 68.0546 59.9646L76.2391 51.8104C76.4989 51.9399 76.6289 52.0693 76.8887 52.1987C78.8374 53.493 81.5655 53.2342 83.2544 51.5516L87.6715 47.1509C89.2304 45.3389 89.4902 42.6209 88.0612 40.6794ZM85.5928 45.3389L81.1758 49.7395C80.2664 50.6456 78.9673 50.775 78.0579 50.1278C77.5382 49.7395 77.1485 49.4807 76.6289 49.0924C76.1092 48.7041 75.3297 48.7041 74.94 49.2218L65.976 58.1525C65.7162 58.4114 65.4563 58.5408 65.1965 58.5408H62.3384V55.6933C62.3384 55.4345 62.4683 55.1756 62.7282 54.9168L71.6922 45.9861C72.2118 45.4683 72.2118 44.8212 71.8221 44.3035C71.5623 43.7857 71.1725 43.268 70.9127 42.7503C70.2631 41.8443 70.393 40.55 71.3024 39.7734L75.7195 35.3728C76.1092 34.855 76.7588 34.5962 77.4083 34.5962C77.928 34.5962 78.3177 34.7256 78.7075 34.9845C81.5655 36.9259 83.904 39.3851 85.8527 42.1031C86.6322 43.1386 86.5022 44.4329 85.5928 45.3389Z" fill="url(#paint0_radial_364_13407)"/>
<path d="M79.1483 39.9091C78.5933 39.9091 78.177 40.1916 77.7608 40.474C76.9282 41.3214 76.9282 42.5925 77.7608 43.2987C78.177 43.7224 78.5933 43.8636 79.1483 43.8636C79.7034 43.8636 80.1196 43.7224 80.5359 43.2987C80.9522 42.875 81.0909 42.4513 81.0909 41.8864C81.0909 41.3214 80.9522 40.8977 80.5359 40.474C80.2584 40.0503 79.7034 39.9091 79.1483 39.9091Z" fill="url(#paint1_radial_364_13407)"/>
<path d="M30.8586 77.9512V77.5176C30.8586 76.1816 31.2258 75.1445 31.9602 74.4062C32.6945 73.6641 33.6359 73.293 34.7844 73.293C35.9367 73.293 36.8801 73.6641 37.6145 74.4062C38.3488 75.1445 38.716 76.1816 38.716 77.5176V77.9512C38.716 79.2871 38.3488 80.3262 37.6145 81.0684C36.8801 81.8066 35.9367 82.1758 34.7844 82.1758C33.6359 82.1758 32.6945 81.8066 31.9602 81.0684C31.2258 80.3262 30.8586 79.2871 30.8586 77.9512ZM32.0363 77.9512C32.0363 78.9668 32.2863 79.7598 32.7863 80.3301C33.2902 80.8965 33.9582 81.1797 34.7902 81.1797C35.6184 81.1797 36.2844 80.8965 36.7883 80.3301C37.2922 79.7598 37.5441 78.9668 37.5441 77.9512V77.5176C37.5441 76.502 37.2922 75.7109 36.7883 75.1445C36.2844 74.5742 35.6184 74.2891 34.7902 74.2891C33.9582 74.2891 33.2902 74.5742 32.7863 75.1445C32.2863 75.7109 32.0363 76.502 32.0363 77.5176V77.9512ZM41.0654 78.9766C41.0654 79.6289 41.249 80.1602 41.6162 80.5703C41.9873 80.9805 42.5966 81.207 43.4443 81.25V76.5156C42.5966 76.5586 41.9873 76.7852 41.6162 77.1953C41.249 77.6055 41.0654 78.1367 41.0654 78.7891V78.9766ZM46.9541 78.7891C46.9541 78.1367 46.7685 77.6055 46.3974 77.1953C46.0302 76.7852 45.4209 76.5586 44.5693 76.5156V81.25C45.4209 81.207 46.0302 80.9805 46.3974 80.5703C46.7685 80.1602 46.9541 79.6289 46.9541 78.9766V78.7891ZM43.4443 82.1758C42.3193 82.1367 41.4502 81.834 40.8369 81.2676C40.2236 80.6973 39.917 79.9336 39.917 78.9766V78.7891C39.917 77.832 40.2236 77.0703 40.8369 76.5039C41.4502 75.9336 42.3193 75.6289 43.4443 75.5898V73H44.5693V75.5898C45.6982 75.6289 46.5693 75.9336 47.1826 76.5039C47.7959 77.0703 48.1025 77.832 48.1025 78.7891V78.9766C48.1025 79.9336 47.7959 80.6973 47.1826 81.2676C46.5693 81.834 45.6982 82.1367 44.5693 82.1758V84.4375H43.4443V82.1758ZM49.7487 82V75.7656H50.862V79.7383C50.862 79.8555 50.8601 79.9883 50.8562 80.1367C50.8562 80.2852 50.8542 80.4199 50.8503 80.541H50.8972C50.9519 80.4355 51.0124 80.3242 51.0788 80.207C51.1452 80.0898 51.2214 79.9727 51.3073 79.8555L54.2429 75.7656H55.3737V82H54.2546V78.0332C54.2546 77.9121 54.2566 77.7773 54.2605 77.6289C54.2644 77.4766 54.2702 77.3398 54.278 77.2188H54.2136C54.1628 77.3203 54.1042 77.4316 54.0378 77.5527C53.9714 77.6738 53.8972 77.793 53.8152 77.9102L50.8796 82H49.7487ZM62.7622 83.582V82H57.3833V75.7656H58.5083V81.1152H61.7309V75.7656H62.8559V81.1152H63.7934V83.582H62.7622ZM65.053 82V75.7656H66.1662V79.7383C66.1662 79.8555 66.1643 79.9883 66.1604 80.1367C66.1604 80.2852 66.1584 80.4199 66.1545 80.541H66.2014C66.2561 80.4355 66.3166 80.3242 66.383 80.207C66.4495 80.0898 66.5256 79.9727 66.6116 79.8555L69.5471 75.7656H70.678V82H69.5588V78.0332C69.5588 77.9121 69.5608 77.7773 69.5647 77.6289C69.5686 77.4766 69.5745 77.3398 69.5823 77.2188H69.5178C69.467 77.3203 69.4084 77.4316 69.342 77.5527C69.2756 77.6738 69.2014 77.793 69.1194 77.9102L66.1838 82H65.053ZM72.3359 80.166C72.3359 79.5293 72.6094 79.0352 73.1562 78.6836C73.707 78.332 74.4199 78.1562 75.2949 78.1562H76.9648V77.7109C76.9648 77.3359 76.8477 77.0371 76.6133 76.8145C76.3828 76.5918 75.9883 76.4805 75.4297 76.4805C74.875 76.4805 74.4746 76.5762 74.2285 76.7676C73.9824 76.9551 73.8594 77.1816 73.8594 77.4473V77.4766H72.7344V77.4473C72.7344 76.9355 72.9785 76.498 73.4668 76.1348C73.9551 75.7715 74.6191 75.5898 75.459 75.5898C76.2949 75.5898 76.9414 75.7695 77.3984 76.1289C77.8594 76.4844 78.0898 77.0117 78.0898 77.7109V80.5938C78.0898 80.8477 78.1113 81.0879 78.1543 81.3145C78.1973 81.5371 78.2578 81.7344 78.3359 81.9062V82H77.252C77.1895 81.9023 77.1328 81.7734 77.082 81.6133C77.0312 81.4531 77 81.2949 76.9883 81.1387C76.8242 81.4004 76.5508 81.6289 76.168 81.8242C75.7852 82.0195 75.2949 82.1172 74.6973 82.1172C74.0254 82.1172 73.4629 81.9492 73.0098 81.6133C72.5605 81.2773 72.3359 80.7949 72.3359 80.166ZM73.4609 80.1074C73.4609 80.459 73.582 80.7324 73.8242 80.9277C74.0664 81.123 74.4453 81.2207 74.9609 81.2207C75.4766 81.2207 75.9395 81.0723 76.3496 80.7754C76.7598 80.4785 76.9648 80.1641 76.9648 79.832V78.9531H75.4238C74.7832 78.9531 74.2949 79.0566 73.959 79.2637C73.627 79.4668 73.4609 79.748 73.4609 80.1074ZM81.7166 76.6504L81.6111 79.1348C81.5642 80.1855 81.4197 80.9473 81.1775 81.4199C80.9392 81.8926 80.5271 82.1289 79.9412 82.1289C79.7966 82.1289 79.6697 82.1191 79.5603 82.0996C79.4509 82.084 79.3591 82.0586 79.2849 82.0234V81.0566C79.3513 81.084 79.4197 81.1035 79.49 81.1152C79.5642 81.127 79.6482 81.1328 79.742 81.1328C80.0388 81.1328 80.2439 80.9805 80.3572 80.6758C80.4744 80.3672 80.5486 79.8027 80.5798 78.9824L80.7205 75.7656H85.531V82H84.406V76.6504H81.7166ZM88.6714 75.7656V77.8926H90.482C91.2593 77.8926 91.857 78.0762 92.2749 78.4434C92.6968 78.8066 92.9077 79.3027 92.9077 79.9316C92.9077 80.5566 92.6968 81.0586 92.2749 81.4375C91.857 81.8125 91.2593 82 90.482 82H87.5464V75.7656H88.6714ZM90.4761 78.7832H88.6714V81.1152H90.4761C90.9566 81.1152 91.2925 81.0039 91.4839 80.7812C91.6792 80.5586 91.7769 80.2754 91.7769 79.9316C91.7769 79.5957 91.6792 79.3203 91.4839 79.1055C91.2925 78.8906 90.9566 78.7832 90.4761 78.7832ZM94.4075 75.7656H95.5325V78.3789H98.8372V75.7656H99.9622V82H98.8372V79.2695H95.5325V82H94.4075V75.7656ZM103.097 75.7656V77.8926H104.907C105.685 77.8926 106.282 78.0762 106.7 78.4434C107.122 78.8066 107.333 79.3027 107.333 79.9316C107.333 80.5566 107.122 81.0586 106.7 81.4375C106.282 81.8125 105.685 82 104.907 82H101.972V75.7656H103.097ZM104.901 78.7832H103.097V81.1152H104.901C105.382 81.1152 105.718 81.0039 105.909 80.7812C106.105 80.5586 106.202 80.2754 106.202 79.9316C106.202 79.5957 106.105 79.3203 105.909 79.1055C105.718 78.8906 105.382 78.7832 104.901 78.7832ZM108.183 82V75.7656H109.308V82H108.183ZM111.317 82V75.7656H112.43V79.7383C112.43 79.8555 112.429 79.9883 112.425 80.1367C112.425 80.2852 112.423 80.4199 112.419 80.541H112.466C112.52 80.4355 112.581 80.3242 112.647 80.207C112.714 80.0898 112.79 79.9727 112.876 79.8555L115.811 75.7656H116.942V82H115.823V78.0332C115.823 77.9121 115.825 77.7773 115.829 77.6289C115.833 77.4766 115.839 77.3398 115.846 77.2188H115.782C115.731 77.3203 115.673 77.4316 115.606 77.5527C115.54 77.6738 115.466 77.793 115.384 77.9102L112.448 82H111.317ZM114.13 73.8672C114.423 73.8672 114.663 73.7891 114.85 73.6328C115.038 73.4727 115.198 73.2129 115.331 72.8535L116.192 73.3574C115.997 73.834 115.72 74.1836 115.36 74.4062C115.001 74.6289 114.591 74.7402 114.13 74.7402C113.665 74.7402 113.255 74.6309 112.899 74.4121C112.544 74.1895 112.264 73.8379 112.061 73.3574L112.929 72.8418C113.061 73.2129 113.22 73.4766 113.403 73.6328C113.591 73.7891 113.833 73.8672 114.13 73.8672ZM28.2514 91.7656H33.7534V98H32.6284V92.6504H29.3764V98H28.2514V91.7656ZM35.7688 100.438V91.7656H36.7883L36.841 92.6211H36.8645C37.052 92.3516 37.3352 92.123 37.7141 91.9355C38.093 91.7441 38.5363 91.6484 39.0441 91.6484C39.9191 91.6484 40.6184 91.9453 41.1418 92.5391C41.6691 93.1289 41.9328 93.8789 41.9328 94.7891V94.9766C41.9328 95.8828 41.6691 96.6328 41.1418 97.2266C40.6184 97.8203 39.9191 98.1172 39.0441 98.1172C38.5363 98.1172 38.1047 98.0352 37.7492 97.8711C37.3938 97.707 37.1086 97.4902 36.8938 97.2207V100.438H35.7688ZM36.8938 96.084C37.0344 96.373 37.2668 96.6309 37.591 96.8574C37.9152 97.0801 38.3098 97.1914 38.7746 97.1914C39.466 97.1914 39.9719 96.9805 40.2922 96.5586C40.6164 96.1328 40.7785 95.6055 40.7785 94.9766V94.7891C40.7785 94.1562 40.6164 93.6289 40.2922 93.207C39.9719 92.7852 39.466 92.5742 38.7746 92.5742C38.3098 92.5742 37.9152 92.6875 37.591 92.9141C37.2707 93.1367 37.0383 93.3926 36.8938 93.6816V96.084ZM43.2099 94.9766V94.7891C43.2099 93.8477 43.4951 93.0801 44.0654 92.4863C44.6396 91.8887 45.3974 91.5898 46.3388 91.5898C47.2841 91.5898 48.0107 91.8691 48.5185 92.4277C49.0263 92.9824 49.2802 93.7344 49.2802 94.6836V95.1465H43.8779V94.25H48.1494V94.2207C48.1494 93.7207 48.0068 93.3105 47.7216 92.9902C47.4365 92.6699 46.9795 92.5098 46.3505 92.5098C45.6904 92.5098 45.1904 92.7285 44.8505 93.166C44.5107 93.6035 44.3408 94.1445 44.3408 94.7891V94.9766C44.3408 95.6211 44.5185 96.1621 44.874 96.5996C45.2334 97.0371 45.7861 97.2559 46.5322 97.2559C46.9853 97.2559 47.3759 97.1699 47.7041 96.998C48.0322 96.8223 48.2959 96.6152 48.4951 96.377L49.2216 96.9746C49.0029 97.2676 48.663 97.541 48.2021 97.7949C47.7451 98.0488 47.1884 98.1758 46.5322 98.1758C45.458 98.1758 44.6357 97.8789 44.0654 97.2852C43.4951 96.6875 43.2099 95.918 43.2099 94.9766ZM56.0476 99.582V98H51.0261V99.582H49.9948V97.1152H57.0847V99.582H56.0476ZM52.2448 92.6504L52.1511 94.7656C52.1198 95.4844 52.0749 96.0137 52.0163 96.3535C51.9616 96.6895 51.8796 96.9746 51.7702 97.209H50.6042C50.7448 97.0215 50.8562 96.752 50.9382 96.4004C51.0241 96.0449 51.0847 95.4531 51.1198 94.625L51.2488 91.7656H56.1472V98H55.0163V92.6504H52.2448ZM57.9751 94.9766V94.7891C57.9751 93.8477 58.2583 93.0801 58.8247 92.4863C59.395 91.8887 60.1782 91.5898 61.1743 91.5898C62.0962 91.5898 62.7954 91.8145 63.272 92.2637C63.7524 92.709 63.9927 93.209 63.9927 93.7637V93.793H62.8794V93.7578C62.8794 93.4258 62.7446 93.1348 62.4751 92.8848C62.2095 92.6348 61.7759 92.5098 61.1743 92.5098C60.4712 92.5098 59.9536 92.7285 59.6216 93.166C59.2895 93.6035 59.1235 94.1445 59.1235 94.7891V94.9766C59.1235 95.6211 59.2895 96.1621 59.6216 96.5996C59.9536 97.0332 60.4712 97.25 61.1743 97.25C61.7759 97.25 62.2095 97.127 62.4751 96.8809C62.7446 96.6348 62.8794 96.3418 62.8794 96.002V95.9727H63.9927V96.002C63.9927 96.5527 63.7524 97.0527 63.272 97.502C62.7954 97.9512 62.0962 98.1758 61.1743 98.1758C60.1782 98.1758 59.395 97.8789 58.8247 97.2852C58.2583 96.6875 57.9751 95.918 57.9751 94.9766ZM64.7483 92.6504V91.7656H70.3147V92.6504H68.094V98H66.969V92.6504H64.7483ZM71.293 96.166C71.293 95.5293 71.5664 95.0352 72.1133 94.6836C72.6641 94.332 73.377 94.1562 74.252 94.1562H75.9219V93.7109C75.9219 93.3359 75.8047 93.0371 75.5703 92.8145C75.3398 92.5918 74.9453 92.4805 74.3867 92.4805C73.832 92.4805 73.4316 92.5762 73.1855 92.7676C72.9395 92.9551 72.8164 93.1816 72.8164 93.4473V93.4766H71.6914V93.4473C71.6914 92.9355 71.9355 92.498 72.4238 92.1348C72.9121 91.7715 73.5762 91.5898 74.416 91.5898C75.252 91.5898 75.8984 91.7695 76.3555 92.1289C76.8164 92.4844 77.0469 93.0117 77.0469 93.7109V96.5938C77.0469 96.8477 77.0684 97.0879 77.1113 97.3145C77.1543 97.5371 77.2148 97.7344 77.293 97.9062V98H76.209C76.1465 97.9023 76.0898 97.7734 76.0391 97.6133C75.9883 97.4531 75.957 97.2949 75.9453 97.1387C75.7812 97.4004 75.5078 97.6289 75.125 97.8242C74.7422 98.0195 74.252 98.1172 73.6543 98.1172C72.9824 98.1172 72.4199 97.9492 71.9668 97.6133C71.5176 97.2773 71.293 96.7949 71.293 96.166ZM72.418 96.1074C72.418 96.459 72.5391 96.7324 72.7812 96.9277C73.0234 97.123 73.4023 97.2207 73.918 97.2207C74.4336 97.2207 74.8965 97.0723 75.3066 96.7754C75.7168 96.4785 75.9219 96.1641 75.9219 95.832V94.9531H74.3809C73.7402 94.9531 73.252 95.0566 72.916 95.2637C72.584 95.4668 72.418 95.748 72.418 96.1074ZM79.0447 98V91.7656H82.1677C82.8787 91.7656 83.4334 91.9043 83.8318 92.1816C84.2341 92.4551 84.4353 92.8711 84.4353 93.4297C84.4353 93.7773 84.3318 94.0684 84.1248 94.3027C83.9177 94.5371 83.6404 94.6953 83.2927 94.7773V94.7949C83.7146 94.8574 84.0466 95.0117 84.2888 95.2578C84.531 95.5 84.6521 95.8105 84.6521 96.1895C84.6521 96.7598 84.4412 97.2051 84.0193 97.5254C83.5974 97.8418 83.0388 98 82.3435 98H79.0447ZM80.1697 94.3906H82.1677C82.5701 94.3906 82.8591 94.3105 83.0349 94.1504C83.2107 93.9902 83.2986 93.7695 83.2986 93.4883C83.2986 93.2148 83.2107 93.0078 83.0349 92.8672C82.8591 92.7266 82.5701 92.6543 82.1677 92.6504H80.1697V94.3906ZM80.1697 97.1152H82.3435C82.7498 97.1152 83.0466 97.0312 83.2341 96.8633C83.4255 96.6953 83.5213 96.4688 83.5213 96.1836C83.5213 95.9062 83.4275 95.6855 83.24 95.5215C83.0525 95.3535 82.7537 95.2695 82.3435 95.2695H80.1697V97.1152ZM86.3628 98V91.7656H87.4761V95.7383C87.4761 95.8555 87.4741 95.9883 87.4702 96.1367C87.4702 96.2852 87.4683 96.4199 87.4644 96.541H87.5112C87.5659 96.4355 87.6265 96.3242 87.6929 96.207C87.7593 96.0898 87.8355 95.9727 87.9214 95.8555L90.857 91.7656H91.9878V98H90.8687V94.0332C90.8687 93.9121 90.8706 93.7773 90.8745 93.6289C90.8784 93.4766 90.8843 93.3398 90.8921 93.2188H90.8277C90.7769 93.3203 90.7183 93.4316 90.6519 93.5527C90.5855 93.6738 90.5112 93.793 90.4292 93.9102L87.4937 98H86.3628ZM93.3059 92.6504V91.7656H98.8723V92.6504H96.6516V98H95.5266V92.6504H93.3059ZM99.8331 94.9766V94.7891C99.8331 93.8477 100.118 93.0801 100.689 92.4863C101.263 91.8887 102.021 91.5898 102.962 91.5898C103.907 91.5898 104.634 91.8691 105.142 92.4277C105.649 92.9824 105.903 93.7344 105.903 94.6836V95.1465H100.501V94.25H104.773V94.2207C104.773 93.7207 104.63 93.3105 104.345 92.9902C104.06 92.6699 103.603 92.5098 102.974 92.5098C102.314 92.5098 101.814 92.7285 101.474 93.166C101.134 93.6035 100.964 94.1445 100.964 94.7891V94.9766C100.964 95.6211 101.142 96.1621 101.497 96.5996C101.856 97.0371 102.409 97.2559 103.155 97.2559C103.608 97.2559 103.999 97.1699 104.327 96.998C104.655 96.8223 104.919 96.6152 105.118 96.377L105.845 96.9746C105.626 97.2676 105.286 97.541 104.825 97.7949C104.368 98.0488 103.812 98.1758 103.155 98.1758C102.081 98.1758 101.259 97.8789 100.689 97.2852C100.118 96.6875 99.8331 95.918 99.8331 94.9766ZM109.067 92.6504L108.962 95.1348C108.915 96.1855 108.77 96.9473 108.528 97.4199C108.29 97.8926 107.878 98.1289 107.292 98.1289C107.147 98.1289 107.02 98.1191 106.911 98.0996C106.802 98.084 106.71 98.0586 106.636 98.0234V97.0566C106.702 97.084 106.77 97.1035 106.841 97.1152C106.915 97.127 106.999 97.1328 107.093 97.1328C107.389 97.1328 107.595 96.9805 107.708 96.6758C107.825 96.3672 107.899 95.8027 107.93 94.9824L108.071 91.7656H112.882V98H111.757V92.6504H109.067ZM116.022 91.7656V93.8926H117.833C118.61 93.8926 119.208 94.0762 119.626 94.4434C120.047 94.8066 120.258 95.3027 120.258 95.9316C120.258 96.5566 120.047 97.0586 119.626 97.4375C119.208 97.8125 118.61 98 117.833 98H114.897V91.7656H116.022ZM117.827 94.7832H116.022V97.1152H117.827C118.307 97.1152 118.643 97.0039 118.835 96.7812C119.03 96.5586 119.128 96.2754 119.128 95.9316C119.128 95.5957 119.03 95.3203 118.835 95.1055C118.643 94.8906 118.307 94.7832 117.827 94.7832Z" fill="#04101C"/>
</g>
<defs>
<filter id="filter0_d_364_13407" x="0" y="0" width="150" height="130" filterUnits="userSpaceOnUse" color-interpolation-filters="sRGB">
<feFlood flood-opacity="0" result="BackgroundImageFix"/>
<feColorMatrix in="SourceAlpha" type="matrix" values="0 0 0 0 0 0 0 0 0 0 0 0 0 0 0 0 0 0 127 0" result="hardAlpha"/>
<feOffset dx="1" dy="2"/>
<feGaussianBlur stdDeviation="5"/>
<feComposite in2="hardAlpha" operator="out"/>
<feColorMatrix type="matrix" values="0 0 0 0 0.00780001 0 0 0 0 0.045344 0 0 0 0 0.0800001 0 0 0 0.04 0"/>
<feBlend mode="normal" in2="BackgroundImageFix" result="effect1_dropShadow_364_13407"/>
<feBlend mode="normal" in="SourceGraphic" in2="effect1_dropShadow_364_13407" result="shape"/>
</filter>
<radialGradient id="paint0_radial_364_13407" cx="0" cy="0" r="1" gradientUnits="userSpaceOnUse" gradientTransform="translate(74.5 46.5) rotate(99.7276) scale(18.3894 18.3894)">
<stop stop-color="#FD9BE8"/>
<stop offset="0.338542" stop-color="#7A73FF"/>
<stop offset="0.734375" stop-color="#75CDFF"/>
<stop offset="1" stop-color="#4AFCF1"/>
</radialGradient>
<radialGradient id="paint1_radial_364_13407" cx="0" cy="0" r="1" gradientUnits="userSpaceOnUse" gradientTransform="translate(74.5 46.5) rotate(99.7276) scale(18.3894 18.3894)">
<stop stop-color="#FD9BE8"/>
<stop offset="0.338542" stop-color="#7A73FF"/>
<stop offset="0.734375" stop-color="#75CDFF"/>
<stop offset="1" stop-color="#4AFCF1"/>
</radialGradient>
</defs>
</svg>
