<svg width="119" height="130" viewBox="0 0 119 130" fill="none" xmlns="http://www.w3.org/2000/svg">
<g filter="url(#filter0_d_364_13404)">
<rect x="9" y="8" width="99" height="110" rx="12" fill="white"/>
<path fill-rule="evenodd" clip-rule="evenodd" d="M56.416 32.4913C57.8877 31.8362 59.533 31.8362 61.0047 32.4913L61.0271 32.5015L68.8957 36.1878C68.9058 36.1925 68.9158 36.1974 68.9257 36.2024C70.6885 37.0852 71.7332 39.0251 71.3887 41.1049C70.7345 45.1652 68.7534 53.1691 61.4099 59.0531L61.3963 59.064C59.7941 60.3121 57.6266 60.312 56.0245 59.0639L56.0107 59.0532C48.6654 53.1677 46.6852 45.1612 46.0315 41.1019C46.0269 41.0729 46.0232 41.0438 46.0205 41.0146C45.8575 39.2184 46.6585 37.1015 48.6537 36.1869L56.3864 32.505C56.3962 32.5003 56.406 32.4958 56.416 32.4913ZM57.4648 34.8107L49.7389 38.4895L49.7191 38.4987C48.9407 38.8531 48.4776 39.7626 48.5522 40.7444C49.1749 44.5768 51.013 51.7824 57.5949 57.0606C58.2743 57.5858 59.1464 57.5858 59.8258 57.0606C66.4348 51.7606 68.2609 44.5174 68.8761 40.6972L68.8771 40.6906C69.0376 39.7265 68.5657 38.8758 67.799 38.485L59.9592 34.8122C59.1538 34.457 58.2704 34.4565 57.4648 34.8107Z" fill="url(#paint0_radial_364_13404)"/>
<path fill-rule="evenodd" clip-rule="evenodd" d="M64.5799 39.8899C65.1428 40.3108 65.2578 41.1084 64.8368 41.6713L59.1259 49.3077C58.8868 49.6274 58.5115 49.8164 58.1122 49.8181C57.7129 49.8199 57.336 49.6341 57.0941 49.3165L53.896 45.1165C53.4701 44.5572 53.5783 43.7587 54.1375 43.3329C54.6967 42.907 55.4953 43.0152 55.9211 43.5744L58.0975 46.4326L62.7984 40.1468C63.2194 39.5839 64.017 39.4689 64.5799 39.8899Z" fill="url(#paint1_radial_364_13404)"/>
<path d="M42.5423 77.9512V77.5176C42.5423 76.1816 42.9095 75.1445 43.6439 74.4062C44.3783 73.6641 45.3197 73.293 46.4681 73.293C47.6205 73.293 48.5638 73.6641 49.2982 74.4062C50.0326 75.1445 50.3998 76.1816 50.3998 77.5176V77.9512C50.3998 79.2871 50.0326 80.3262 49.2982 81.0684C48.5638 81.8066 47.6205 82.1758 46.4681 82.1758C45.3197 82.1758 44.3783 81.8066 43.6439 81.0684C42.9095 80.3262 42.5423 79.2871 42.5423 77.9512ZM43.7201 77.9512C43.7201 78.9668 43.9701 79.7598 44.4701 80.3301C44.974 80.8965 45.642 81.1797 46.474 81.1797C47.3021 81.1797 47.9681 80.8965 48.472 80.3301C48.9759 79.7598 49.2279 78.9668 49.2279 77.9512V77.5176C49.2279 76.502 48.9759 75.7109 48.472 75.1445C47.9681 74.5742 47.3021 74.2891 46.474 74.2891C45.642 74.2891 44.974 74.5742 44.4701 75.1445C43.9701 75.7109 43.7201 76.502 43.7201 77.5176V77.9512ZM52.3448 82V73.4688H55.3741C56.3663 73.4688 57.1339 73.6973 57.6769 74.1543C58.2198 74.6113 58.4913 75.2246 58.4913 75.9941C58.4913 76.7637 58.2198 77.3828 57.6769 77.8516C57.1339 78.3203 56.3663 78.5547 55.3741 78.5547H53.5109V82H52.3448ZM53.5109 77.6055H55.3741C56.1046 77.6055 56.6124 77.4512 56.8976 77.1426C57.1827 76.8301 57.3253 76.4473 57.3253 75.9941C57.3253 75.541 57.1827 75.166 56.8976 74.8691C56.6124 74.5684 56.1046 74.418 55.3741 74.418H53.5109V77.6055ZM57.6359 82L55.3976 78.0684L56.5929 77.9219L58.9659 82H57.6359ZM60.4716 82V73.4688H61.995L64.7665 79.8848C64.8173 80.002 64.8661 80.125 64.913 80.2539C64.9637 80.3789 65.0087 80.4961 65.0477 80.6055H65.0946C65.1298 80.4961 65.1708 80.3789 65.2177 80.2539C65.2645 80.125 65.3134 80.002 65.3641 79.8848L68.118 73.4688H69.6708V82H68.5458V75.7305C68.5458 75.6133 68.5477 75.4824 68.5516 75.3379C68.5595 75.1895 68.5712 75.0566 68.5868 74.9395H68.5341C68.5028 75.0566 68.4598 75.1895 68.4052 75.3379C68.3544 75.4824 68.3036 75.6133 68.2528 75.7305L65.5692 82H64.5321L61.8309 75.7305C61.7802 75.6133 61.7294 75.4824 61.6786 75.3379C61.6317 75.1895 61.5946 75.0566 61.5673 74.9395H61.5145C61.5262 75.0566 61.536 75.1895 61.5438 75.3379C61.5555 75.4824 61.5614 75.6133 61.5614 75.7305V82H60.4716ZM71.2936 78.8242V77.793H74.7623V78.8242H71.2936ZM27.8271 94.9766V94.7891C27.8271 93.8477 28.1103 93.0801 28.6767 92.4863C29.247 91.8887 30.0302 91.5898 31.0263 91.5898C31.9482 91.5898 32.6474 91.8145 33.124 92.2637C33.6045 92.709 33.8447 93.209 33.8447 93.7637V93.793H32.7314V93.7578C32.7314 93.4258 32.5966 93.1348 32.3271 92.8848C32.0615 92.6348 31.6279 92.5098 31.0263 92.5098C30.3232 92.5098 29.8056 92.7285 29.4736 93.166C29.1416 93.6035 28.9755 94.1445 28.9755 94.7891V94.9766C28.9755 95.6211 29.1416 96.1621 29.4736 96.5996C29.8056 97.0332 30.3232 97.25 31.0263 97.25C31.6279 97.25 32.0615 97.127 32.3271 96.8809C32.5966 96.6348 32.7314 96.3418 32.7314 96.002V95.9727H33.8447V96.002C33.8447 96.5527 33.6045 97.0527 33.124 97.502C32.6474 97.9512 31.9482 98.1758 31.0263 98.1758C30.0302 98.1758 29.247 97.8789 28.6767 97.2852C28.1103 96.6875 27.8271 95.918 27.8271 94.9766ZM34.6003 92.6504V91.7656H40.1667V92.6504H37.946V98H36.821V92.6504H34.6003ZM41.4966 100.438V91.7656H42.5161L42.5688 92.6211H42.5923C42.7798 92.3516 43.063 92.123 43.4419 91.9355C43.8208 91.7441 44.2641 91.6484 44.772 91.6484C45.647 91.6484 46.3462 91.9453 46.8696 92.5391C47.397 93.1289 47.6606 93.8789 47.6606 94.7891V94.9766C47.6606 95.8828 47.397 96.6328 46.8696 97.2266C46.3462 97.8203 45.647 98.1172 44.772 98.1172C44.2641 98.1172 43.8325 98.0352 43.477 97.8711C43.1216 97.707 42.8364 97.4902 42.6216 97.2207V100.438H41.4966ZM42.6216 96.084C42.7622 96.373 42.9946 96.6309 43.3188 96.8574C43.643 97.0801 44.0376 97.1914 44.5024 97.1914C45.1938 97.1914 45.6997 96.9805 46.02 96.5586C46.3442 96.1328 46.5063 95.6055 46.5063 94.9766V94.7891C46.5063 94.1562 46.3442 93.6289 46.02 93.207C45.6997 92.7852 45.1938 92.5742 44.5024 92.5742C44.0376 92.5742 43.643 92.6875 43.3188 92.9141C42.9985 93.1367 42.7661 93.3926 42.6216 93.6816V96.084ZM48.9553 96.166C48.9553 95.5293 49.2288 95.0352 49.7756 94.6836C50.3264 94.332 51.0393 94.1562 51.9143 94.1562H53.5842V93.7109C53.5842 93.3359 53.467 93.0371 53.2327 92.8145C53.0022 92.5918 52.6077 92.4805 52.0491 92.4805C51.4944 92.4805 51.094 92.5762 50.8479 92.7676C50.6018 92.9551 50.4788 93.1816 50.4788 93.4473V93.4766H49.3538V93.4473C49.3538 92.9355 49.5979 92.498 50.0862 92.1348C50.5745 91.7715 51.2385 91.5898 52.0784 91.5898C52.9143 91.5898 53.5608 91.7695 54.0178 92.1289C54.4788 92.4844 54.7092 93.0117 54.7092 93.7109V96.5938C54.7092 96.8477 54.7307 97.0879 54.7737 97.3145C54.8166 97.5371 54.8772 97.7344 54.9553 97.9062V98H53.8713C53.8088 97.9023 53.7522 97.7734 53.7014 97.6133C53.6506 97.4531 53.6194 97.2949 53.6077 97.1387C53.4436 97.4004 53.1702 97.6289 52.7873 97.8242C52.4045 98.0195 51.9143 98.1172 51.3166 98.1172C50.6448 98.1172 50.0823 97.9492 49.6291 97.6133C49.1799 97.2773 48.9553 96.7949 48.9553 96.166ZM50.0803 96.1074C50.0803 96.459 50.2014 96.7324 50.4436 96.9277C50.6858 97.123 51.0647 97.2207 51.5803 97.2207C52.0959 97.2207 52.5588 97.0723 52.969 96.7754C53.3791 96.4785 53.5842 96.1641 53.5842 95.832V94.9531H52.0432C51.4026 94.9531 50.9143 95.0566 50.5784 95.2637C50.2463 95.4668 50.0803 95.748 50.0803 96.1074ZM56.0156 92.6504V91.7656H61.582V92.6504H59.3613V98H58.2363V92.6504H56.0156ZM62.5427 94.9766V94.7891C62.5427 93.8477 62.8279 93.0801 63.3982 92.4863C63.9724 91.8887 64.7302 91.5898 65.6716 91.5898C66.617 91.5898 67.3435 91.8691 67.8513 92.4277C68.3591 92.9824 68.613 93.7344 68.613 94.6836V95.1465H63.2107V94.25H67.4822V94.2207C67.4822 93.7207 67.3396 93.3105 67.0545 92.9902C66.7693 92.6699 66.3123 92.5098 65.6834 92.5098C65.0232 92.5098 64.5232 92.7285 64.1834 93.166C63.8435 93.6035 63.6736 94.1445 63.6736 94.7891V94.9766C63.6736 95.6211 63.8513 96.1621 64.2068 96.5996C64.5662 97.0371 65.1189 97.2559 65.865 97.2559C66.3181 97.2559 66.7088 97.1699 67.0369 96.998C67.365 96.8223 67.6287 96.6152 67.8279 96.377L68.5545 96.9746C68.3357 97.2676 67.9959 97.541 67.5349 97.7949C67.0779 98.0488 66.5213 98.1758 65.865 98.1758C64.7908 98.1758 63.9685 97.8789 63.3982 97.2852C62.8279 96.6875 62.5427 95.918 62.5427 94.9766ZM70.148 91.7656H74.6245V92.6504H71.273V98H70.148V91.7656ZM75.9544 98V91.7656H77.0677V95.7383C77.0677 95.8555 77.0657 95.9883 77.0618 96.1367C77.0618 96.2852 77.0598 96.4199 77.0559 96.541H77.1028C77.1575 96.4355 77.218 96.3242 77.2845 96.207C77.3509 96.0898 77.427 95.9727 77.513 95.8555L80.4485 91.7656H81.5794V98H80.4602V94.0332C80.4602 93.9121 80.4622 93.7773 80.4661 93.6289C80.47 93.4766 80.4759 93.3398 80.4837 93.2188H80.4192C80.3684 93.3203 80.3098 93.4316 80.2434 93.5527C80.177 93.6738 80.1028 93.793 80.0208 93.9102L77.0852 98H75.9544ZM84.4327 98H83.1846L85.1885 95.3398L86.3194 95.4395L84.4327 98ZM87.6729 98V95.75H85.9151L85.7862 95.6797C85.0205 95.6797 84.4327 95.5078 84.0225 95.1641C83.6123 94.8164 83.4073 94.3496 83.4073 93.7637C83.4073 93.1582 83.6143 92.6738 84.0284 92.3105C84.4424 91.9473 85.0362 91.7656 85.8096 91.7656H88.8037V98H87.6729ZM85.8155 94.8594H87.6729V92.6504H85.8155C85.3467 92.6504 85.0166 92.7559 84.8252 92.9668C84.6377 93.1777 84.544 93.4434 84.544 93.7637C84.544 94.0879 84.6377 94.3516 84.8252 94.5547C85.0127 94.7578 85.3428 94.8594 85.8155 94.8594Z" fill="#04101C"/>
</g>
<defs>
<filter id="filter0_d_364_13404" x="0" y="0" width="119" height="130" filterUnits="userSpaceOnUse" color-interpolation-filters="sRGB">
<feFlood flood-opacity="0" result="BackgroundImageFix"/>
<feColorMatrix in="SourceAlpha" type="matrix" values="0 0 0 0 0 0 0 0 0 0 0 0 0 0 0 0 0 0 127 0" result="hardAlpha"/>
<feOffset dx="1" dy="2"/>
<feGaussianBlur stdDeviation="5"/>
<feComposite in2="hardAlpha" operator="out"/>
<feColorMatrix type="matrix" values="0 0 0 0 0.00780001 0 0 0 0 0.045344 0 0 0 0 0.0800001 0 0 0 0.04 0"/>
<feBlend mode="normal" in2="BackgroundImageFix" result="effect1_dropShadow_364_13404"/>
<feBlend mode="normal" in="SourceGraphic" in2="effect1_dropShadow_364_13404" result="shape"/>
</filter>
<radialGradient id="paint0_radial_364_13404" cx="0" cy="0" r="1" gradientUnits="userSpaceOnUse" gradientTransform="translate(58.727 46) rotate(98.8578) scale(17.7112 16.181)">
<stop stop-color="#FD9BE8"/>
<stop offset="0.338542" stop-color="#7A73FF"/>
<stop offset="0.734375" stop-color="#75CDFF"/>
<stop offset="1" stop-color="#4AFCF1"/>
</radialGradient>
<radialGradient id="paint1_radial_364_13404" cx="0" cy="0" r="1" gradientUnits="userSpaceOnUse" gradientTransform="translate(58.727 46) rotate(98.8578) scale(17.7112 16.181)">
<stop stop-color="#FD9BE8"/>
<stop offset="0.338542" stop-color="#7A73FF"/>
<stop offset="0.734375" stop-color="#75CDFF"/>
<stop offset="1" stop-color="#4AFCF1"/>
</radialGradient>
</defs>
</svg>
