<svg width="91" height="114" viewBox="0 0 91 114" fill="none" xmlns="http://www.w3.org/2000/svg">
<g filter="url(#filter0_d_364_13403)">
<rect x="9" y="8" width="71" height="94" rx="12" fill="white"/>
<path d="M57.3537 33.617C55.5298 31.7927 52.4431 31.512 48.7952 32.775C47.5325 33.196 46.2698 33.8977 45.007 34.5994C39.9561 31.6524 35.1858 31.091 32.6604 33.617C29.9946 36.1431 30.6961 40.9145 33.6425 45.9665C30.5558 51.1589 30.1349 55.9303 32.6604 58.316C33.6425 59.4387 35.1858 60 37.0098 60C39.3949 60 42.201 59.0177 45.007 57.3336C47.8131 59.0177 50.6192 60 53.0043 60C54.8282 60 56.2313 59.4387 57.3537 58.4563C59.8792 55.9303 59.3179 51.1589 56.3716 46.1068C59.4582 40.7741 59.8792 36.0027 57.3537 33.617ZM49.637 35.4414C52.3028 34.459 54.267 34.5994 55.3895 35.5817C56.6522 36.8447 56.3716 39.9321 54.6879 43.3001C53.7058 42.0371 52.7237 40.7741 51.461 39.5111C50.1982 38.2481 48.9355 37.2657 47.6728 36.2834C48.3743 36.0027 49.0758 35.5817 49.637 35.4414ZM34.6246 56.3513C33.3619 55.0883 33.6425 52.0009 35.3261 48.6329C36.3083 49.8959 37.2904 51.1589 38.5531 52.4219C39.8158 53.6849 41.0786 54.8076 42.3413 55.6496C38.8337 57.474 35.8873 57.6143 34.6246 56.3513ZM55.3895 56.3513C54.1267 57.6143 51.1804 57.3336 47.5325 55.6496C48.7952 54.6673 50.0579 53.5446 51.3207 52.4219C51.8819 51.8606 52.4431 51.2992 52.864 50.7379C53.4252 50.1766 53.2849 49.3345 52.7237 48.7732C52.1625 48.2119 51.3207 48.3522 50.7595 48.9135C50.3386 49.4749 49.7773 49.8959 49.3564 50.4572C47.9534 51.8606 46.4101 53.1236 45.007 54.1059C43.604 53.1236 42.0607 51.8606 40.6576 50.4572C34.4843 44.2825 32.5201 37.6868 34.6246 35.5817C35.0455 35.0204 35.8873 34.7397 37.0098 34.7397C38.4128 34.7397 40.377 35.3011 42.3413 36.2834C41.0786 37.2657 39.8158 38.3884 38.5531 39.5111C37.9919 40.2128 37.2904 40.9145 36.7292 41.6161C36.1679 42.1775 36.3083 43.0195 36.8695 43.5808C37.4307 44.1422 38.4128 44.0018 38.8337 43.4405C39.3949 42.7388 39.9561 42.1775 40.5173 41.6161C41.9204 40.2128 43.4637 38.9498 44.8667 37.9674C46.2698 38.9498 47.8131 40.2128 49.3564 41.6161C55.5298 47.6505 57.494 54.2463 55.3895 56.3513Z" fill="url(#paint0_radial_364_13403)"/>
<path d="M45 48.24C46.2371 48.24 47.24 47.2371 47.24 46C47.24 44.7629 46.2371 43.76 45 43.76C43.7629 43.76 42.76 44.7629 42.76 46C42.76 47.2371 43.7629 48.24 45 48.24Z" fill="url(#paint1_radial_364_13403)"/>
<path d="M27.6048 79.6562V79.5859H28.765V79.6504C28.765 80.1621 28.9584 80.5449 29.3451 80.7988C29.7357 81.0527 30.2826 81.1797 30.9857 81.1797C31.6849 81.1797 32.2201 81.0508 32.5912 80.793C32.9662 80.5312 33.1537 80.1875 33.1537 79.7617C33.1537 79.3789 32.9798 79.0742 32.6322 78.8477C32.2884 78.6172 31.6009 78.3711 30.5697 78.1094C29.5267 77.8438 28.8021 77.5312 28.3959 77.1719C27.9935 76.8125 27.7923 76.2988 27.7923 75.6309C27.7923 74.9629 28.0677 74.4062 28.6185 73.9609C29.1732 73.5156 29.9408 73.293 30.9212 73.293C31.8978 73.293 32.6752 73.5312 33.2533 74.0078C33.8314 74.4844 34.1205 75.0762 34.1205 75.7832V75.8477H32.9603V75.7832C32.9603 75.334 32.7884 74.9727 32.4447 74.6992C32.1048 74.4258 31.597 74.2891 30.9212 74.2891C30.2455 74.2891 29.7455 74.4062 29.4212 74.6406C29.1009 74.8711 28.9408 75.1855 28.9408 75.584C28.9408 75.9512 29.1029 76.2422 29.4271 76.457C29.7552 76.668 30.4134 76.8965 31.4017 77.1426C32.4369 77.4043 33.1791 77.7285 33.6283 78.1152C34.0775 78.502 34.3021 79.0488 34.3021 79.7559C34.3021 80.4629 34.0033 81.043 33.4056 81.4961C32.8119 81.9492 32.0052 82.1758 30.9857 82.1758C29.9623 82.1758 29.142 81.9512 28.5248 81.502C27.9115 81.0488 27.6048 80.4336 27.6048 79.6562ZM36.0421 82V73.4688H41.8663V74.4297H37.2081V77.1191H41.2862V78.0801H37.2081V81.0391H41.9308V82H36.0421ZM43.5946 82V73.4688H46.6239C47.6161 73.4688 48.3837 73.6973 48.9266 74.1543C49.4696 74.6113 49.7411 75.2246 49.7411 75.9941C49.7411 76.7637 49.4696 77.3828 48.9266 77.8516C48.3837 78.3203 47.6161 78.5547 46.6239 78.5547H44.7606V82H43.5946ZM44.7606 77.6055H46.6239C47.3544 77.6055 47.8622 77.4512 48.1473 77.1426C48.4325 76.8301 48.5751 76.4473 48.5751 75.9941C48.5751 75.541 48.4325 75.166 48.1473 74.8691C47.8622 74.5684 47.3544 74.418 46.6239 74.418H44.7606V77.6055ZM48.8856 82L46.6473 78.0684L47.8427 77.9219L50.2157 82H48.8856ZM51.7213 82V73.4688H53.2448L56.0162 79.8848C56.067 80.002 56.1159 80.125 56.1627 80.2539C56.2135 80.3789 56.2584 80.4961 56.2975 80.6055H56.3444C56.3795 80.4961 56.4205 80.3789 56.4674 80.2539C56.5143 80.125 56.5631 80.002 56.6139 79.8848L59.3678 73.4688H60.9205V82H59.7955V75.7305C59.7955 75.6133 59.7975 75.4824 59.8014 75.3379C59.8092 75.1895 59.8209 75.0566 59.8366 74.9395H59.7838C59.7526 75.0566 59.7096 75.1895 59.6549 75.3379C59.6041 75.4824 59.5534 75.6133 59.5026 75.7305L56.819 82H55.7819L53.0807 75.7305C53.0299 75.6133 52.9791 75.4824 52.9284 75.3379C52.8815 75.1895 52.8444 75.0566 52.817 74.9395H52.7643C52.776 75.0566 52.7858 75.1895 52.7936 75.3379C52.8053 75.4824 52.8112 75.6133 52.8112 75.7305V82H51.7213Z" fill="#04101C"/>
</g>
<defs>
<filter id="filter0_d_364_13403" x="0" y="0" width="91" height="114" filterUnits="userSpaceOnUse" color-interpolation-filters="sRGB">
<feFlood flood-opacity="0" result="BackgroundImageFix"/>
<feColorMatrix in="SourceAlpha" type="matrix" values="0 0 0 0 0 0 0 0 0 0 0 0 0 0 0 0 0 0 127 0" result="hardAlpha"/>
<feOffset dx="1" dy="2"/>
<feGaussianBlur stdDeviation="5"/>
<feComposite in2="hardAlpha" operator="out"/>
<feColorMatrix type="matrix" values="0 0 0 0 0.00780001 0 0 0 0 0.045344 0 0 0 0 0.0800001 0 0 0 0.04 0"/>
<feBlend mode="normal" in2="BackgroundImageFix" result="effect1_dropShadow_364_13403"/>
<feBlend mode="normal" in="SourceGraphic" in2="effect1_dropShadow_364_13403" result="shape"/>
</filter>
<radialGradient id="paint0_radial_364_13403" cx="0" cy="0" r="1" gradientUnits="userSpaceOnUse" gradientTransform="translate(45 46) rotate(99.7276) scale(17.7553)">
<stop stop-color="#FD9BE8"/>
<stop offset="0.338542" stop-color="#7A73FF"/>
<stop offset="0.734375" stop-color="#75CDFF"/>
<stop offset="1" stop-color="#4AFCF1"/>
</radialGradient>
<radialGradient id="paint1_radial_364_13403" cx="0" cy="0" r="1" gradientUnits="userSpaceOnUse" gradientTransform="translate(45 46) rotate(99.7276) scale(17.7553)">
<stop stop-color="#FD9BE8"/>
<stop offset="0.338542" stop-color="#7A73FF"/>
<stop offset="0.734375" stop-color="#75CDFF"/>
<stop offset="1" stop-color="#4AFCF1"/>
</radialGradient>
</defs>
</svg>
