<svg width="102" height="56" viewBox="0 0 102 56" fill="none" xmlns="http://www.w3.org/2000/svg">
<path d="M84.9472 36.243C83.9458 35.712 83.79 34.2118 83.8123 30.563L83.8345 24.9711L81.9208 24.9688L82.3658 23.934H83.8345V21.2861L87.3505 19.9621V23.8459L88.975 23.8482L88.5522 24.9959L87.3505 24.9937V34.6705C87.4173 35.45 87.6843 35.9086 88.0404 36.243H84.9472Z" fill="#AFB6B3"/>
<path d="M32.8748 45.1132C32.7635 44.7992 32.541 44.5981 32.2072 44.5981C31.7399 44.5981 31.5619 44.8421 31.5619 45.1787C31.5619 45.9808 33.3421 45.834 33.3421 47.1941C33.3421 47.9532 32.6968 48.5 31.7844 48.5C31.4729 48.5 31.1168 48.4232 30.8498 48.2447C30.9165 47.9939 30.9833 47.7454 31.0278 47.4901H31.1391C31.2058 47.899 31.5396 48.143 31.9402 48.143C32.2962 48.143 32.63 47.9352 32.63 47.5262C32.63 46.575 30.872 46.9207 30.872 45.4883C30.872 44.806 31.3394 44.2411 32.2295 44.2411C32.6523 44.2411 33.0306 44.4015 33.1419 44.5258C33.0751 44.7156 33.0306 44.9121 32.9638 45.1132H32.8748Z" fill="#AFB6B3"/>
<path d="M50.2989 12.3322C50.566 13.0801 51.1891 13.8528 50.744 14.7204C50.5437 15.6015 49.7203 16.3155 48.8525 16.4578C47.9401 16.5414 47.0945 16.3855 46.4046 15.8275C45.9373 13.2834 46.961 10.9292 48.9415 9.52612L50.2989 12.3322Z" fill="#AFB6B3"/>
<path d="M53.7925 20.0842C53.3475 21.6228 48.8745 20.6129 47.4726 18.0869C49.3196 18.2948 51.3892 16.6364 51.4337 14.7453L53.7925 20.0842Z" fill="#AFB6B3"/>
<path d="M55.6407 19.8853C55.841 19.7927 56.2415 19.5849 56.3528 19.1398L51.5461 8.52529C51.2123 8.48462 50.9898 8.45525 50.567 8.75122L55.6407 19.8853Z" fill="#AFB6B3"/>
<path d="M57.7983 17.5807C59.8456 14.4289 58.1321 9.25726 53.7037 8.53201L57.7983 17.5807Z" fill="#AFB6B3"/>
<path d="M11 41.4576H88.3074V40.8566H11V41.4576Z" fill="#AFB6B3"/>
<path d="M36.0127 46.3062C36.0127 46.0757 35.8124 45.8904 35.5899 45.8904C35.3673 45.8904 35.1893 46.0757 35.1893 46.3062C35.1893 46.5366 35.3673 46.7219 35.5899 46.7219C35.8124 46.7219 36.0127 46.5366 36.0127 46.3062Z" fill="#AFB6B3"/>
<path d="M57.3534 24.3656C57.9988 23.8143 59.1337 23.803 59.868 24.1554C60.1796 24.3136 60.4689 24.5237 60.6691 24.7994L59.2449 27.0406C59.0669 26.896 58.9334 26.8305 58.7109 26.713C57.9988 26.4035 57.2644 26.5843 56.8416 26.9751V33.516C56.8193 34.6479 57.0196 35.6804 57.5982 36.2159H54.3715C53.6817 35.6917 53.5259 34.8535 53.4591 34.1192L53.4369 25.4207C53.4591 24.7158 53.2811 24.4062 53.0141 24.0109L56.352 24.0244C56.6191 24.221 56.6413 24.5621 56.7748 24.8242L57.3534 24.3656Z" fill="#AFB6B3"/>
<path d="M61.4255 26.5165C61.4033 25.6896 61.5813 24.7 61.0473 23.986H64.1404C64.363 24.1442 64.4742 24.4062 64.541 24.6548C64.719 24.8762 64.6968 25.1925 64.7635 25.4546L64.808 34.7225C64.9193 35.2737 65.1418 35.8295 65.5424 36.2633L62.2267 36.2701C61.1363 35.2037 61.4923 33.4504 61.4033 31.6407L61.4255 26.5165Z" fill="#AFB6B3"/>
<path d="M66.3437 26.6068C66.6775 25.6647 67.7234 25.1925 68.48 24.6796C69.6372 24.2481 70.9279 23.1726 72.2185 24.0515C73.3089 24.7722 74.2658 25.5856 74.9557 26.6995C75.1114 27.131 75.2004 27.6168 75.3117 28.0754C75.3117 28.6922 75.4452 29.1509 75.423 29.7677C75.4675 30.4365 75.4675 31.0397 75.423 31.6949C75.3785 32.8088 74.8666 33.8051 73.9988 34.5779C72.7081 35.7459 71.0836 37.0699 69.3256 36.1639C67.7457 35.4161 65.8986 33.9362 66.0099 31.9028C65.9431 30.4613 65.8764 29.2164 66.0767 27.8133C66.1434 27.4067 66.1212 26.9616 66.3437 26.6068ZM69.5704 33.1612C69.7262 33.7396 70.0155 34.4468 70.7053 34.5259C71.1059 34.5394 71.3952 34.1983 71.6399 33.9091C72.352 32.4676 72.2408 30.8951 72.2408 29.2548C72.0183 28.037 72.3075 26.3719 71.0169 25.624C70.5495 25.4546 70.2157 25.7686 69.9265 26.0578C69.4146 26.8305 69.3701 27.7162 69.3256 28.699C69.1698 30.2715 69.3479 31.5752 69.5704 33.1612Z" fill="#AFB6B3"/>
<path d="M77.7149 36.243C76.7135 35.712 76.5578 34.2118 76.58 30.563L76.6023 24.9711L74.7108 24.9688L75.1336 23.934H76.6023V21.2861L80.1405 19.9621V23.8459L81.7427 23.8482L81.3199 24.9959L80.1405 24.9937V34.6705C80.2073 35.45 80.4743 35.9086 80.8304 36.243H77.7149Z" fill="#AFB6B3"/>
<path d="M45.4923 25.4207C45.4701 24.7158 45.3365 24.4062 45.0695 24.0108L48.4075 24.0244C48.6745 24.221 48.6968 24.5621 48.8303 24.8242L49.4089 24.3656C50.0542 23.8143 51.1891 23.803 51.9235 24.1554C52.235 24.3136 52.5243 24.5237 52.7246 24.7994L51.3004 27.0406C51.1223 26.896 50.9888 26.8305 50.7663 26.713C50.0542 26.4035 49.3199 26.5843 48.897 26.9751V33.516C48.8748 34.6479 49.0751 35.6804 49.6536 36.2159H46.4269C45.7593 35.6917 45.5591 34.9122 45.5146 34.1192L45.4923 25.4207Z" fill="#AFB6B3"/>
<path d="M20.1906 28.8617L18.9889 31.4012C18.1433 32.8992 16.9861 34.736 15.2059 35.1924C14.516 35.4364 13.893 35.215 13.2254 35.1675L11.0668 38.7486C11.2448 38.9249 11.4674 39.0717 11.6899 39.1576C15.4729 40.6261 17.0084 39.0469 20.7247 30.4816L24.2629 38.1115H28.9583L26.733 32.9624L28.0014 30.3009L31.4729 37.994L35.9681 38.0234L28.0905 20.4727L24.4632 22.3005L27.3116 28.8504L26.0654 31.4238L20.8582 20.0186L17.0529 21.9932L20.1906 28.8617Z" fill="#AFB6B3"/>
<path d="M34.6329 31.957C34.7219 30.685 35.4118 29.492 36.5689 28.8504C37.7261 28.1274 39.0613 27.8405 40.2629 27.2101C40.4632 27.0406 40.708 26.8305 40.7303 26.5549C40.7525 26.2137 40.5745 25.9516 40.2852 25.8341C38.4604 25.441 36.9695 26.5933 35.6566 27.7343C35.8123 26.896 35.9458 25.9787 36.3464 25.1925C36.5244 24.9824 36.6579 24.6932 36.9027 24.5373C38.1934 23.8934 39.7956 23.7104 41.2198 23.8143C42.3992 23.8934 43.4897 24.7451 43.8902 25.8341C44.0905 26.3448 44.0682 26.9232 44.1127 27.4473L44.135 34.553C44.135 35.1675 44.4243 35.7459 44.7803 36.243H41.4424C41.0418 35.877 40.8415 35.4161 40.7303 34.8399C39.7956 35.6804 37.8374 36.9253 36.6802 36.0984C35.4785 35.5494 34.3659 33.699 34.6329 31.957ZM40.5522 29.4853C40.53 28.9927 40.1962 28.9408 39.9514 28.9408C39.1503 29.0582 38.4604 29.7383 38.0599 30.4365C37.7261 31.0578 37.6371 31.5819 37.6148 32.1265C37.6148 32.7139 37.5703 33.1499 37.8151 33.595C37.9486 33.8842 38.2157 34.0153 38.505 34.0921C39.0168 34.1983 39.4841 34.0537 39.8847 33.778C40.8415 33.2403 40.6635 32.1649 40.6858 31.2091L40.5522 29.4853Z" fill="#AFB6B3"/>
<path d="M66.4548 46.3062C66.4548 46.0757 66.2545 45.8904 66.0319 45.8904C65.8094 45.8904 65.6314 46.0757 65.6314 46.3062C65.6314 46.5366 65.8094 46.7219 66.0319 46.7219C66.2545 46.7219 66.4548 46.5366 66.4548 46.3062Z" fill="#AFB6B3"/>
<path d="M38.4382 44.3473H39.6843C39.9514 44.3473 40.3964 44.336 40.6412 44.467C40.975 44.6455 41.1308 44.9121 41.1308 45.3166C41.1308 45.8995 40.7748 46.2678 40.2184 46.3852C40.5522 46.9546 40.9083 47.5014 41.2643 48.0549L41.4868 48.4232C41.3088 48.4096 41.1308 48.3938 40.9528 48.3938C40.7748 48.3938 40.619 48.4096 40.441 48.4232L39.7289 47.176C39.6398 47.0156 39.4841 46.7422 39.3505 46.5163H39.306V48.4232C39.1725 48.4096 39.0168 48.3938 38.8832 48.3938C38.7275 48.3938 38.5939 48.4096 38.4382 48.4232V44.3473ZM39.306 46.261C39.9291 46.3197 40.2407 46.0238 40.2407 45.4115C40.2407 45.3279 40.2184 45.2398 40.1962 45.1132C40.1072 44.6207 39.6621 44.6681 39.306 44.6681V46.261Z" fill="#AFB6B3"/>
<path d="M44.6022 44.3473C44.58 44.4309 44.5577 44.5213 44.5577 44.6026C44.5577 44.6862 44.58 44.7766 44.6022 44.8579C44.2239 44.8105 43.8456 44.763 43.2448 44.7766V46.0531H43.8456C44.1127 46.0531 44.3574 46.0283 44.58 45.9989C44.5577 46.0825 44.5355 46.1706 44.5355 46.2542C44.5355 46.3378 44.5577 46.4282 44.58 46.5095C44.3574 46.4801 44.1127 46.4575 43.8456 46.4575H43.2448V47.9645C43.8456 47.96 44.2239 47.9306 44.6022 47.8832C44.58 47.9645 44.5577 48.0549 44.5577 48.1385C44.5577 48.2198 44.58 48.3102 44.6022 48.3938H42.3547V44.3473H44.6022Z" fill="#AFB6B3"/>
<path d="M47.4506 45.1132C47.3171 44.7992 47.0946 44.5981 46.7608 44.5981C46.3157 44.5981 46.1154 44.8421 46.1154 45.1787C46.1154 45.9808 47.8957 45.834 47.8957 47.1941C47.8957 47.9532 47.2726 48.5 46.3602 48.5C46.0264 48.5 45.6926 48.4232 45.4256 48.2447C45.4924 47.9939 45.5591 47.7454 45.5814 47.4901H45.6926C45.7816 47.899 46.0932 48.143 46.4937 48.143C46.872 48.143 47.1836 47.9352 47.1836 47.5262C47.1836 46.575 45.4478 46.9207 45.4478 45.4883C45.4478 44.806 45.8929 44.2411 46.8053 44.2411C47.2058 44.2411 47.5841 44.4015 47.7177 44.5258C47.6509 44.7156 47.5841 44.9121 47.5396 45.1132H47.4506Z" fill="#AFB6B3"/>
<path d="M50.7887 48.5C49.498 48.5 48.6301 47.7273 48.6301 46.3785C48.6301 45.1968 49.4757 44.2411 50.9445 44.2411C52.6134 44.2411 53.103 45.4341 53.103 46.3559C53.103 47.5149 52.2351 48.5 50.7887 48.5ZM49.6093 46.5524C49.6093 47.3229 49.9431 48.143 50.8332 48.143C51.7233 48.143 52.1239 47.228 52.1239 46.2429C52.1239 45.477 51.7678 44.5981 50.9 44.5981C50.0988 44.5981 49.6093 45.2217 49.6093 46.5524Z" fill="#AFB6B3"/>
<path d="M54.0821 44.3473H55.3283C55.5953 44.3473 56.0181 44.336 56.2629 44.467C56.5967 44.6455 56.7747 44.9121 56.7747 45.3166C56.7747 45.8995 56.3964 46.2678 55.8624 46.3852C56.1961 46.9546 56.5522 47.5014 56.9082 48.0549L57.1308 48.4232C56.9527 48.4096 56.7747 48.3938 56.5967 48.3938C56.4187 48.3938 56.2406 48.4096 56.0626 48.4232L55.3728 47.176C55.2838 47.0156 55.128 46.7422 54.9945 46.5163H54.95V48.4232C54.7942 48.4096 54.6607 48.3938 54.5049 48.3938C54.3714 48.3938 54.2156 48.4096 54.0821 48.4232V44.3473ZM54.95 46.261C55.5731 46.3197 55.8624 46.0238 55.8624 45.4115C55.8624 45.3279 55.8623 45.2398 55.8401 45.1132C55.7511 44.6207 55.306 44.6681 54.95 44.6681V46.261Z" fill="#AFB6B3"/>
<path d="M59.6231 48.4232C59.4895 48.4096 59.3338 48.3938 59.178 48.3938C59.0445 48.3938 58.8887 48.4096 58.7552 48.4232V44.7698C58.3324 44.7698 57.9763 44.8105 57.6648 44.8534C57.6648 44.7698 57.687 44.6862 57.687 44.5981C57.687 44.5145 57.6648 44.4309 57.6648 44.3473H60.669C60.669 44.4309 60.6467 44.5145 60.6467 44.5981C60.6467 44.6862 60.669 44.7698 60.669 44.8534C60.3352 44.8105 59.9791 44.7698 59.6231 44.7698V48.4232Z" fill="#AFB6B3"/>
<path d="M63.4061 45.1132C63.2948 44.7992 63.0723 44.5981 62.7385 44.5981C62.2712 44.5981 62.0932 44.8421 62.0932 45.1787C62.0932 45.9808 63.8734 45.834 63.8734 47.1941C63.8734 47.9532 63.2281 48.5 62.3157 48.5C62.0042 48.5 61.6481 48.4232 61.3811 48.2447C61.4478 47.9939 61.5146 47.7454 61.5591 47.4901H61.6704C61.7371 47.899 62.0709 48.143 62.4715 48.143C62.8275 48.143 63.1391 47.9352 63.1391 47.5262C63.1391 46.575 61.4033 46.9207 61.4033 45.4883C61.4033 44.806 61.8706 44.2411 62.7608 44.2411C63.1836 44.2411 63.5619 44.4015 63.6731 44.5258C63.6064 44.7156 63.5619 44.9121 63.4951 45.1132H63.4061Z" fill="#AFB6B3"/>
<path d="M70.594 45.1132C70.4604 44.7992 70.2379 44.5981 69.9041 44.5981C69.459 44.5981 69.2588 44.8421 69.2588 45.1787C69.2588 45.9808 71.039 45.834 71.039 47.1941C71.039 47.9532 70.4159 48.5 69.5035 48.5C69.1697 48.5 68.836 48.4232 68.5689 48.2447C68.6357 47.9939 68.6802 47.7454 68.7247 47.4901H68.836C68.925 47.899 69.2365 48.143 69.6371 48.143C70.0154 48.143 70.3269 47.9352 70.3269 47.5262C70.3269 46.575 68.5912 46.9207 68.5912 45.4883C68.5912 44.806 69.0585 44.2411 69.9264 44.2411C70.3492 44.2411 70.7275 44.4015 70.861 44.5258C70.7942 44.7156 70.7275 44.9121 70.683 45.1132H70.594Z" fill="#AFB6B3"/>
<path d="M72.085 44.3473C72.2408 44.3609 72.3743 44.3789 72.5301 44.3789C72.6858 44.3789 72.8194 44.3609 72.9751 44.3473V46.035C72.9751 46.3627 72.9529 46.8484 73.0196 47.1579C73.0641 47.4494 73.1086 47.6324 73.3089 47.8403C73.5092 48.0188 73.7317 48.0956 73.9988 48.0956C74.5328 48.0956 74.8221 47.8945 75.0224 47.3771C75.1337 47.115 75.1337 46.4395 75.1337 46.148V44.3473C75.2004 44.3609 75.2895 44.3654 75.3562 44.3654C75.4452 44.3654 75.5342 44.3609 75.601 44.3473V46.4621C75.5787 47.1399 75.601 47.7567 74.9779 48.1859C74.6664 48.4164 74.2658 48.5 73.8652 48.5C73.1754 48.5 72.3965 48.2741 72.1963 47.5014C72.1295 47.2709 72.085 47.0088 72.085 46.7716V44.3473Z" fill="#AFB6B3"/>
<path d="M76.9807 44.3473C77.1365 44.3609 77.2922 44.3789 77.4257 44.3789C77.5815 44.3789 77.715 44.3609 77.8708 44.3473V48.4232C77.715 48.4096 77.5815 48.3938 77.4257 48.3938C77.2922 48.3938 77.1365 48.4096 76.9807 48.4232V44.3473Z" fill="#AFB6B3"/>
<path d="M80.8305 48.4232C80.6747 48.4096 80.5189 48.3938 80.3854 48.3938C80.2296 48.3938 80.0961 48.4096 79.9404 48.4232V44.7698C79.5398 44.7698 79.1615 44.8105 78.85 44.8534C78.8722 44.7698 78.8945 44.6862 78.8945 44.5981C78.8945 44.5145 78.8722 44.4309 78.85 44.3473H81.8764C81.8541 44.4309 81.8319 44.5145 81.8319 44.5981C81.8319 44.6862 81.8541 44.7698 81.8764 44.8534C81.5203 44.8105 81.1865 44.7698 80.8305 44.7698V48.4232Z" fill="#AFB6B3"/>
<path d="M85.014 44.3473C84.9918 44.4309 84.9918 44.5213 84.9918 44.6026C84.9918 44.6862 84.9918 44.7766 85.014 44.8579C84.658 44.8105 84.2574 44.763 83.6566 44.7766V46.0531H84.2574C84.5245 46.0531 84.7692 46.0283 84.9918 45.9989C84.9695 46.0825 84.9695 46.1706 84.9695 46.2542C84.9695 46.3378 84.9695 46.4282 84.9918 46.5095C84.7692 46.4801 84.5245 46.4575 84.2574 46.4575H83.6566V47.9645C84.2574 47.96 84.658 47.9306 85.014 47.8832C84.9918 47.9645 84.9918 48.0549 84.9918 48.1385C84.9918 48.2198 84.9918 48.3102 85.014 48.3938H82.7887V44.3473H85.014Z" fill="#AFB6B3"/>
<path d="M87.8624 45.1132C87.7512 44.7992 87.5286 44.5981 87.1948 44.5981C86.7275 44.5981 86.5495 44.8421 86.5495 45.1787C86.5495 45.9808 88.3297 45.834 88.3297 47.1941C88.3297 47.9532 87.6844 48.5 86.772 48.5C86.4605 48.5 86.1044 48.4232 85.8374 48.2447C85.9041 47.9939 85.9709 47.7454 85.9931 47.4901H86.1044C86.1934 47.899 86.505 48.143 86.9278 48.143C87.2838 48.143 87.5954 47.9352 87.5954 47.5262C87.5954 46.575 85.8596 46.9207 85.8596 45.4883C85.8596 44.806 86.327 44.2411 87.2171 44.2411C87.6399 44.2411 88.0182 44.4015 88.1294 44.5258C88.0627 44.7156 88.0182 44.9121 87.9514 45.1132H87.8624Z" fill="#AFB6B3"/>
<path d="M11.1113 44.3473C11.2671 44.3609 11.4006 44.3789 11.5564 44.3789C11.6899 44.3789 11.8457 44.3609 12.0015 44.3473V45.9582C12.2908 45.9695 12.6023 45.9876 12.8916 45.9876C13.1809 45.9876 13.4924 45.9695 13.7817 45.9582V44.3473C13.9375 44.3609 14.071 44.3789 14.2268 44.3789C14.3603 44.3789 14.5161 44.3609 14.6718 44.3473V48.4232C14.5161 48.4096 14.3603 48.3938 14.2268 48.3938C14.071 48.3938 13.9375 48.4096 13.7817 48.4232V46.4327C13.4924 46.4214 13.1809 46.4033 12.8916 46.4033C12.6023 46.4033 12.2908 46.4214 12.0015 46.4327V48.4232C11.8457 48.4096 11.6899 48.3938 11.5564 48.3938C11.4006 48.3938 11.2671 48.4096 11.1113 48.4232V44.3473Z" fill="#AFB6B3"/>
<path d="M17.8763 48.5C16.5856 48.5 15.6955 47.7273 15.6955 46.3785C15.6955 45.1968 16.5633 44.2411 18.0098 44.2411C19.6788 44.2411 20.1684 45.4341 20.1684 46.3559C20.1684 47.5149 19.3005 48.5 17.8763 48.5ZM16.6746 46.5524C16.6746 47.3229 17.0307 48.143 17.8985 48.143C18.7887 48.143 19.2115 47.228 19.2115 46.2429C19.2115 45.477 18.8554 44.5981 17.9653 44.5981C17.1642 44.5981 16.6746 45.2217 16.6746 46.5524Z" fill="#AFB6B3"/>
<path d="M22.3492 48.4232C22.2157 48.4096 22.0599 48.3938 21.9264 48.3938C21.7706 48.3938 21.6371 48.4096 21.4813 48.4232V44.7698C21.0585 44.7698 20.7025 44.8105 20.3909 44.8534C20.4132 44.7698 20.4132 44.6862 20.4132 44.5981C20.4132 44.5145 20.4132 44.4309 20.3909 44.3473H23.3951C23.3951 44.4309 23.3729 44.5145 23.3729 44.5981C23.3729 44.6862 23.3951 44.7698 23.3951 44.8534C23.0613 44.8105 22.7053 44.7698 22.3492 44.7698V48.4232Z" fill="#AFB6B3"/>
<path d="M26.5105 44.3473C26.5105 44.4309 26.4882 44.5213 26.4882 44.6026C26.4882 44.6862 26.5105 44.7766 26.5105 44.8579C26.1544 44.8105 25.7539 44.763 25.153 44.7766V46.0531H25.7761C26.0432 46.0531 26.2657 46.0283 26.4882 45.9989C26.466 46.0825 26.466 46.1706 26.466 46.2542C26.466 46.3378 26.466 46.4282 26.4882 46.5095C26.2657 46.4801 26.0432 46.4575 25.7761 46.4575H25.153V47.9645C25.7539 47.96 26.1544 47.9306 26.5105 47.8832C26.5105 47.9645 26.4882 48.0549 26.4882 48.1385C26.4882 48.2198 26.5105 48.3102 26.5105 48.3938H24.2852V44.3473H26.5105Z" fill="#AFB6B3"/>
<path d="M28.5132 47.9645C29.0251 47.9645 29.4479 47.9239 29.8484 47.8832C29.8262 47.9645 29.8039 48.0549 29.8039 48.1385C29.8039 48.2198 29.8262 48.3102 29.8484 48.3938H27.6231V44.3473C27.7789 44.3609 27.9124 44.3789 28.0682 44.3789C28.2239 44.3789 28.3575 44.3609 28.5132 44.3473V47.9645Z" fill="#AFB6B3"/>
<path d="M88.4632 35.1788C88.4632 34.4513 89.0417 33.9159 89.7316 33.9159C90.4214 33.9159 91 34.4513 91 35.1788C91 35.9109 90.4214 36.4463 89.7316 36.4463C89.0417 36.4463 88.4632 35.9109 88.4632 35.1788ZM89.7316 36.2362C90.3102 36.2362 90.7552 35.7889 90.7552 35.1788C90.7552 34.5801 90.3102 34.126 89.7316 34.126C89.1752 34.126 88.7079 34.5801 88.7079 35.1788C88.7079 35.7889 89.1752 36.2362 89.7316 36.2362ZM89.4645 35.9109H89.2643V34.4513H89.7983C90.1321 34.4513 90.3102 34.5801 90.3102 34.867C90.3102 35.1291 90.1544 35.2421 89.9319 35.2692L90.3547 35.9109H90.1099L89.7316 35.2783H89.4645V35.9109ZM89.7316 35.0907C89.9096 35.0907 90.0876 35.0772 90.0876 34.8535C90.0876 34.6727 89.9319 34.6389 89.7761 34.6389H89.4645V35.0907H89.7316Z" fill="#AFB6B3"/>
</svg>
