<svg width="102" height="56" viewBox="0 0 102 56" fill="none" xmlns="http://www.w3.org/2000/svg">
<path d="M29.8017 33.8261V41.1206C29.8017 41.7914 30.1272 42.0624 30.6762 42.0624H35.0426C35.591 42.0624 35.9171 41.7914 35.9171 41.1206V33.8261H38.4793V41.5994C38.4793 43.2492 37.2852 44.4992 35.9165 44.4992H29.801C28.4383 44.4992 27.2376 43.2421 27.2376 41.5994V33.8261H29.8017Z" fill="#AFB6B3"/>
<path d="M15.0854 41.2067H17.6362C17.6782 41.8143 17.9797 42.0632 18.4866 42.0632H23.1733C23.6075 42.0632 23.8483 41.6215 23.8483 41.1419C23.8483 40.4995 23.4508 40.1629 22.9378 40.1629H17.8289C16.146 40.1629 15 39.1911 15 37.0909C15 35.9981 15.3622 34.8406 16.1827 34.2543C16.695 33.8822 17.322 33.8253 17.9136 33.8253H23.9324C25.2358 33.8253 26.2844 34.918 26.2724 36.4896V37.0538H23.6375C23.6135 36.5678 23.3721 36.2541 22.9385 36.2541H18.4933C18.041 36.2541 17.6608 36.5252 17.6608 37.1186C17.6608 37.7048 18.0471 37.9261 18.4873 37.9261H23.9337C25.6947 37.9261 26.6059 39.3199 26.6059 41.3489C26.6059 43.2919 25.8455 44.4984 24.1445 44.4984H17.6368C16.1526 44.4984 15.1034 43.792 15.0914 41.9202L15.0854 41.2067Z" fill="#AFB6B3"/>
<path d="M75.753 33.8261H78.3224V41.1206C78.3224 41.7914 78.6486 42.0624 79.1969 42.0624H83.5627C84.111 42.0624 84.4372 41.7914 84.4372 41.1206V33.8261H87V41.5994C87 43.2413 85.8 44.4992 84.4372 44.4992H78.3211C76.9523 44.4992 75.7516 43.2492 75.7516 41.5994L75.753 33.8261Z" fill="#AFB6B3"/>
<path d="M54.1308 42.3919L53.1235 44.4984H50.2773L55.1687 33.8261H58.5159L63.408 44.4984H60.5604L59.5532 42.3919H54.1308ZM56.839 36.5267L55.2227 40.0847H58.4619L56.839 36.5267Z" fill="#AFB6B3"/>
<path d="M39.4578 33.8261H47.3589C49.0532 33.8261 50.3079 34.5261 50.3079 36.7764C50.3079 37.7483 49.9831 38.5985 49.2593 39.0773C50.0545 39.5775 50.5074 40.5051 50.5074 41.5765C50.5074 43.0841 49.6923 44.4984 48.3242 44.4984H39.4578V33.8261ZM42.0813 42.0624H46.9547C47.4303 42.0624 47.8712 41.7559 47.8712 41.1411C47.8712 40.5335 47.425 40.2198 46.9547 40.2198H42.0813V42.0624ZM42.0813 38.013H46.9547C47.3943 38.013 47.6725 37.6487 47.6725 37.1415C47.6725 36.6342 47.401 36.2565 46.9547 36.2565H42.0813V38.013Z" fill="#AFB6B3"/>
<path d="M63.8956 33.8261H72.4838C74.1974 33.8261 75.0239 35.4838 75.0239 37.3343C75.0239 38.5337 74.6564 39.6557 73.7272 40.2285C74.6323 40.7492 75.0479 41.571 75.0479 42.772V44.5H72.4838V42.7728C72.4838 41.7582 72.0082 41.394 71.1811 41.394H66.5384V44.5H63.8963L63.8956 33.8261ZM66.5378 38.9627H71.3445C71.9648 38.9627 72.3817 38.3053 72.3817 37.6124C72.3817 36.7266 71.8268 36.2549 71.109 36.2549H66.5378V38.9627Z" fill="#AFB6B3"/>
<path d="M50.5253 11.5C53.3662 11.5 56.4119 12.1858 58.836 14.0079C60.4102 15.201 61.8757 17.0088 61.8757 19.365C61.8757 22.1163 59.8919 24.1169 57.9915 25.2879C55.7302 26.6745 53.058 27.2237 50.5246 27.2237C47.6843 27.2237 44.6446 26.5458 42.2199 24.7166C40.6457 23.5235 39.1742 21.7157 39.1742 19.365C39.1742 16.6011 41.1526 14.6076 43.0584 13.4358C45.3263 12.0499 47.9925 11.5 50.5253 11.5ZM50.5012 12.336C47.8598 12.336 45.0128 12.9215 42.7209 14.557C41.2794 15.5787 39.8559 17.1866 39.8559 19.3223C39.8559 21.831 41.7857 23.5867 43.5106 24.5949C45.6458 25.8299 48.1426 26.3103 50.5012 26.3103C53.1481 26.3103 55.9957 25.7232 58.2876 24.0876C59.7231 23.0589 61.1526 21.4589 61.1526 19.3231C61.1526 16.8089 59.2282 15.0509 57.4979 14.0513C55.362 12.814 52.8652 12.336 50.5012 12.336ZM40.5316 17.5864L44.8801 16.7078L46.1888 13.3426L47.4922 16.7078L51.84 17.5864L47.4922 18.4729L46.1888 21.8452L44.8801 18.4729L40.5316 17.5864ZM50.091 20.1504L52.0088 19.7514L52.5818 18.2296L53.1547 19.7514L55.0732 20.1504L53.1547 20.5431L52.5818 22.0657L52.0088 20.5431L50.091 20.1504ZM54.0599 16.0931L55.9777 15.7004L56.5507 14.1722L57.1236 15.7004L59.0414 16.0931L57.1236 16.4929L56.5507 18.0155L55.977 16.4929L54.0599 16.0931ZM52.0088 23.2951L53.9205 22.9024L54.4935 21.3735L55.0725 22.9024L56.9902 23.2951L55.0725 23.6949L54.4935 25.2175L53.9205 23.6949L52.0088 23.2951ZM46.1168 23.8451L48.0345 23.4524L48.6135 21.9219L49.1858 23.4524L51.1043 23.8451L49.1858 24.2449L48.6135 25.7675L48.0345 24.2449L46.1168 23.8451ZM55.7609 20.088L57.6726 19.6874L58.2456 18.1656L58.8246 19.6874L60.7424 20.088L58.8246 20.4807L58.245 22.0009L57.672 20.4799L55.7609 20.088Z" fill="#AFB6B3"/>
</svg>
