<svg width="73" height="33" viewBox="0 0 73 33" fill="none" xmlns="http://www.w3.org/2000/svg">
<path d="M15.3388 22.3261V29.6206C15.3388 30.2914 15.6643 30.5624 16.2133 30.5624H20.5798C21.1281 30.5624 21.4543 30.2914 21.4543 29.6206V22.3261H24.0164V30.0994C24.0164 31.7492 22.8224 32.9992 21.4536 32.9992H15.3381C13.9754 32.9992 12.7747 31.7421 12.7747 30.0994V22.3261H15.3388Z" fill="#AFB6B3"/>
<path d="M0.622489 29.7067H3.17326C3.21528 30.3143 3.51679 30.5632 4.02374 30.5632H8.71039C9.14464 30.5632 9.38544 30.1215 9.38544 29.6419C9.38544 28.9995 8.98788 28.6629 8.47493 28.6629H3.36604C1.68309 28.6629 0.537109 27.6911 0.537109 25.5909C0.537109 24.4981 0.899312 23.3406 1.71978 22.7543C2.23206 22.3822 2.85909 22.3253 3.45075 22.3253H9.46949C10.7729 22.3253 11.8215 23.418 11.8095 24.9896V25.5538H9.17465C9.15064 25.0678 8.90917 24.7541 8.47559 24.7541H4.03041C3.57816 24.7541 3.19794 25.0252 3.19794 25.6186C3.19794 26.2048 3.58416 26.4261 4.02441 26.4261H9.47082C11.2318 26.4261 12.143 27.8199 12.143 29.8489C12.143 31.7919 11.3826 32.9984 9.68161 32.9984H3.17393C1.68976 32.9984 0.6405 32.292 0.628493 30.4202L0.622489 29.7067Z" fill="#AFB6B3"/>
<path d="M61.2901 22.3261H63.8595V29.6206C63.8595 30.2914 64.1857 30.5624 64.734 30.5624H69.0998C69.6481 30.5624 69.9743 30.2914 69.9743 29.6206V22.3261H72.5371V30.0994C72.5371 31.7413 71.3371 32.9992 69.9743 32.9992H63.8582C62.4894 32.9992 61.2888 31.7492 61.2888 30.0994L61.2901 22.3261Z" fill="#AFB6B3"/>
<path d="M39.6679 30.8919L38.6606 32.9984H35.8144L40.7058 22.3261H44.053L48.9451 32.9984H46.0975L45.0903 30.8919H39.6679ZM42.3761 25.0267L40.7598 28.5847H43.999L42.3761 25.0267Z" fill="#AFB6B3"/>
<path d="M24.9949 22.3261H32.896C34.5903 22.3261 35.845 23.0261 35.845 25.2764C35.845 26.2483 35.5202 27.0985 34.7965 27.5773C35.5916 28.0775 36.0445 29.0051 36.0445 30.0765C36.0445 31.5841 35.2294 32.9984 33.8613 32.9984H24.9949V22.3261ZM27.6184 30.5624H32.4918C32.9674 30.5624 33.4083 30.2559 33.4083 29.6411C33.4083 29.0335 32.9621 28.7198 32.4918 28.7198H27.6184V30.5624ZM27.6184 26.513H32.4918C32.9314 26.513 33.2096 26.1487 33.2096 25.6415C33.2096 25.1342 32.9381 24.7565 32.4918 24.7565H27.6184V26.513Z" fill="#AFB6B3"/>
<path d="M49.4327 22.3261H58.0209C59.7345 22.3261 60.561 23.9838 60.561 25.8343C60.561 27.0337 60.1935 28.1557 59.2643 28.7285C60.1695 29.2492 60.585 30.071 60.585 31.272V33H58.0209V31.2728C58.0209 30.2582 57.5453 29.894 56.7182 29.894H52.0756V33H49.4334L49.4327 22.3261ZM52.0749 27.4627H56.8816C57.5019 27.4627 57.9189 26.8053 57.9189 26.1124C57.9189 25.2266 57.3639 24.7549 56.6461 24.7549H52.0749V27.4627Z" fill="#AFB6B3"/>
<path d="M36.0624 0C38.9033 0 41.949 0.685838 44.3731 2.50789C45.9473 3.70099 47.4128 5.50882 47.4128 7.86501C47.4128 10.6163 45.429 12.6169 43.5286 13.7879C41.2673 15.1745 38.5951 15.7237 36.0617 15.7237C33.2214 15.7237 30.1817 15.0458 27.757 13.2166C26.1828 12.0235 24.7113 10.2157 24.7113 7.86501C24.7113 5.10111 26.6897 3.1076 28.5955 1.93583C30.8634 0.549934 33.5296 0 36.0624 0ZM36.0384 0.835963C33.3969 0.835963 30.5499 1.42145 28.258 3.05703C26.8165 4.07868 25.393 5.6866 25.393 7.82234C25.393 10.331 27.3228 12.0867 29.0477 13.0949C31.1829 14.3299 33.6797 14.8103 36.0384 14.8103C38.6852 14.8103 41.5328 14.2232 43.8248 12.5876C45.2602 11.5589 46.6897 9.95886 46.6897 7.82313C46.6897 5.30892 44.7653 3.55087 43.035 2.55135C40.8991 1.31399 38.4024 0.835963 36.0384 0.835963ZM26.0687 6.08641L30.4172 5.20778L31.7259 1.8426L33.0293 5.20778L37.3771 6.08641L33.0293 6.97294L31.7259 10.3452L30.4172 6.97294L26.0687 6.08641ZM35.6281 8.6504L37.5459 8.25138L38.1189 6.72958L38.6919 8.25138L40.6103 8.6504L38.6919 9.0431L38.1189 10.5657L37.5459 9.0431L35.6281 8.6504ZM39.597 4.59306L41.5148 4.20036L42.0878 2.67224L42.6608 4.20036L44.5785 4.59306L42.6608 4.99286L42.0878 6.51546L41.5141 4.99286L39.597 4.59306ZM37.5459 11.7951L39.4576 11.4024L40.0306 9.87353L40.6096 11.4024L42.5274 11.7951L40.6096 12.1949L40.0306 13.7175L39.4576 12.1949L37.5459 11.7951ZM31.6539 12.3451L33.5716 11.9524L34.1506 10.4219L34.7229 11.9524L36.6414 12.3451L34.7229 12.7449L34.1506 14.2675L33.5716 12.7449L31.6539 12.3451ZM41.298 8.58798L43.2097 8.18738L43.7827 6.66558L44.3617 8.18738L46.2795 8.58798L44.3617 8.98068L43.7821 10.5009L43.2091 8.97989L41.298 8.58798Z" fill="#AFB6B3"/>
</svg>
