<svg width="102" height="56" viewBox="0 0 102 56" fill="none" xmlns="http://www.w3.org/2000/svg">
<path d="M62.0709 26.9302C62.0709 26.9302 59.9938 27.6466 55.976 30.5937C52.374 33.2403 50.9615 35.0184 50.9615 35.0184L39.8492 25.8516C39.8492 25.8516 44.5241 21.748 48.4303 24.891L53.6703 29.1815L54.3095 28.6797L39.8514 16.589C39.8514 16.589 41.9293 15.8717 45.9449 12.9264C49.5491 10.279 50.9615 8.5 50.9615 8.5L62.0731 17.6668C62.0731 17.6668 57.3989 21.7704 53.492 18.6274L48.252 14.336L47.6128 14.8369L62.0709 26.9302Z" fill="#514F4F"/>
<path d="M53.4647 39.4353H45.0072V41.6803H49.0924L44.8633 46.393V48.2739H53.449V46.02H49.1771L53.4647 41.319V39.4353Z" fill="#AFB6B3"/>
<path d="M40.0275 48.5C43.4099 48.5 44.2761 47.4687 44.2761 45.1952V39.4352H41.5966V44.8508C41.5966 45.7604 40.9447 46.3024 40.0275 46.3024C39.0736 46.3024 38.4599 45.7577 38.4599 44.8365V39.4352H35.7804V45.1952C35.7804 47.4687 36.6466 48.5 40.0275 48.5Z" fill="#AFB6B3"/>
<path d="M58.3747 48.5C61.7571 48.5 62.6234 47.4687 62.6234 45.1952V39.4352H59.9431V44.8508C59.9431 45.7604 59.2904 46.3024 58.3747 46.3024C57.4209 46.3024 56.8049 45.7577 56.8049 44.8365V39.4352H54.1261V45.1952C54.1261 47.4687 54.9923 48.5 58.3747 48.5Z" fill="#AFB6B3"/>
<path d="M76 39.4353H73.2058V48.2739H76V39.4353Z" fill="#AFB6B3"/>
<path d="M72.7801 39.4353H69.104L66.1292 42.4853V39.4353H63.3342V48.2739H66.1292V45.139L68.8919 48.2739H72.646L68.56 43.7392L72.7801 39.4353Z" fill="#AFB6B3"/>
<path d="M29.1756 41.8775C29.1756 41.1942 30.0238 41.1718 30.3101 41.1718C30.5971 41.1718 31.2437 41.3087 31.6836 42.17H34.8434C34.8434 40.5046 33.5209 39.18 30.3198 39.18C26.7643 39.18 26.1589 41.0421 26.1589 42.1119C26.1589 44.084 27.4387 44.6618 30.2216 45.016C30.4599 45.0455 31.9076 44.9641 31.9076 45.795C31.9076 46.4104 31.0939 46.4515 30.7941 46.4515C30.4966 46.4515 29.9399 46.3934 29.4798 45.4158H26C26 47.3567 27.0962 48.4783 30.7889 48.4783C34.19 48.4783 35.093 46.8209 35.093 45.5607C35.093 44.3371 34.3893 43.0921 31.4895 42.6494C30.2801 42.4625 29.1756 42.3838 29.1756 41.8775Z" fill="#AFB6B3"/>
</svg>
