<svg width="102" height="56" viewBox="0 0 102 56" fill="none" xmlns="http://www.w3.org/2000/svg">
<path d="M10 40.5H92V15.5H10V40.5Z" fill="#514F4F"/>
<path d="M82.737 32.3541H84.3425V34.5854H77.6228V32.4897H78.9752L76.9177 29.7556L74.9192 32.4897H76.2716V34.5854H70.568V32.3541H72.077L75.3495 27.8153L72.118 23.6437H70.8777V21.4135H77.1346V23.5092H75.8594L77.8385 25.9721L79.6417 23.5092H78.4268V21.4135H84.3425V23.6437H82.4827L79.3283 27.9509L82.737 32.3541ZM64.7004 21.4135H69.7363V23.6437H68.414V31.0157C68.414 34.0805 65.1789 34.7409 63.1829 34.7409C60.4203 34.7409 57.8674 33.752 57.8674 30.5306V23.6437H56.2992V21.4135H62.491V23.6437H61.3363V30.3377C61.3363 31.6364 61.9957 32.5095 63.5397 32.5095C64.8354 32.5095 65.8804 31.9473 65.8804 30.4524V23.6437H64.7004V21.4135ZM25.2378 21.4135H30.7594V23.6437H29.4794L25.6549 34.5887H22.533L18.5699 23.6437H17.0018V21.4135H23.5853V23.6437H22.0569L24.2711 30.3146H24.3097L26.7083 23.6437H25.2378V21.4135ZM53.8307 30.3917H56.4367V34.5854H45.1113V32.3541H47.011V23.6437H45.1113V21.4135H52.4205V23.6437H50.4799V32.3541H53.8307V30.3917ZM31.9009 21.4135H43.4745V25.584H40.9469V23.6437H36.8126V26.671H40.1442V28.9012H36.8126V32.3541H40.9469V30.3961H43.4745V34.5854H31.778V32.3541H33.3461V23.6437H31.9009V21.4135ZM84.1714 27.995C84.1714 27.0491 84.9548 26.3348 85.9926 26.3348C87.0304 26.3348 87.8127 27.0491 87.8127 27.995C87.8127 28.9464 87.034 29.6641 86.0023 29.6641C84.9585 29.6641 84.1714 28.9464 84.1714 27.995ZM83.7519 27.9994C83.7519 29.168 84.7101 30.0489 85.983 30.0489C87.2667 30.0489 88.2345 29.168 88.2345 27.9994C88.2345 26.8309 87.2703 25.9489 85.9914 25.9489C84.715 25.9489 83.7519 26.8309 83.7519 27.9994ZM86.0216 27.2046C86.2952 27.2046 86.4458 27.3181 86.4458 27.5243C86.4458 27.7878 86.2156 27.8429 86.0216 27.8429C86.0216 27.8429 85.7178 27.8429 85.6805 27.8429C85.6805 27.8098 85.6805 27.2377 85.6805 27.2046C85.7178 27.2046 86.0216 27.2046 86.0216 27.2046ZM85.2164 26.8661V29.0809H85.7009C85.7009 29.0809 85.7009 28.2166 85.7009 28.1825C85.7335 28.1825 85.9082 28.1825 85.9082 28.1825C85.9082 28.1979 86.5157 29.0721 86.5157 29.0721L87.0135 29.0809H87.0497C87.0497 29.0809 86.4061 28.1637 86.3807 28.1295C86.717 28.0402 86.9111 27.8231 86.9111 27.5243C86.9111 27.1054 86.5965 26.8661 86.0493 26.8661H85.2164Z" fill="white"/>
</svg>
