<svg width="34.000000" height="25.000000" viewBox="0 0 34 25" fill="none" xmlns="http://www.w3.org/2000/svg" xmlns:xlink="http://www.w3.org/1999/xlink">
	<desc>
			Created with Pixso.
	</desc>
	<defs/>
	<path id="форумы" d="M30.7871 7.38989C32.0273 8.17615 33.1113 9.43396 33.7305 10.849C34.1953 11.7925 34.0391 12.8931 33.4199 13.8364C32.8008 14.7799 31.8711 15.2516 30.7871 15.2516L25.832 15.2516C24.9023 15.2516 24.2832 14.4655 24.2832 13.6792C24.2832 12.7358 24.9023 12.1069 25.832 12.1069L30.7871 12.1069C30.3223 10.3773 28.7754 9.43396 27.0703 9.43396C24.5938 9.43396 22.4258 7.38989 22.4258 4.71704C22.4258 2.04407 24.5938 0 27.0703 0C29.5488 0 31.7168 2.20129 31.7168 4.71704C31.7168 5.6604 31.252 6.60376 30.7871 7.38989ZM9.72656 13.6792C9.72656 12.8931 9.10742 12.1069 8.17773 12.1069L3.06836 12.1069C3.6875 10.5345 5.23633 9.59119 6.93945 9.59119C9.57227 9.59119 11.5859 7.54712 11.5859 4.87427C11.5859 2.20129 9.41797 0.157227 6.93945 0.157227C4.46094 0.157227 2.29297 2.20129 2.29297 4.87427C2.29297 5.81763 2.60352 6.76099 3.22266 7.54712C1.82812 8.33337 0.744141 9.43396 0.28125 10.849C-0.183594 11.7925 -0.0292969 12.8931 0.435547 13.8364C1.05469 14.7799 1.98438 15.2516 3.06836 15.2516L8.02344 15.2516C8.95312 15.2516 9.72656 14.6227 9.72656 13.6792ZM5.39062 4.87427C5.39062 3.93079 6.16602 3.30188 6.93945 3.30188C7.71289 3.30188 8.48828 4.08801 8.48828 4.87427C8.48828 5.81763 7.71289 6.44653 6.93945 6.44653C6.16602 6.44653 5.39062 5.6604 5.39062 4.87427ZM28.6191 4.87427C28.6191 4.08801 28 3.30188 27.0703 3.30188C26.1426 3.30188 25.5215 3.93079 25.5215 4.87427C25.5215 5.6604 26.2969 6.44653 27.0703 6.44653C27.8457 6.44653 28.6191 5.81763 28.6191 4.87427ZM21.4961 14.9371C22.4258 13.8364 23.0449 12.4214 23.0449 11.0063C23.0449 7.54712 20.2578 4.87427 17.0059 4.87427C13.7539 4.87427 10.9648 7.54712 10.9648 10.849C10.9648 12.4214 11.5859 13.8364 12.5137 14.7799C10.502 15.8805 8.95312 17.4529 8.02344 19.6541C7.55859 20.7548 7.71289 22.1698 8.33398 23.2704C9.10742 24.3711 10.3457 25 11.5859 25L22.2695 25C23.5098 25 24.748 24.3711 25.5215 23.2704C26.2969 22.1698 26.2969 20.912 25.832 19.6541C25.0586 17.6101 23.5098 15.8805 21.4961 14.9371ZM14.0625 10.849C14.0625 9.27673 15.457 8.01892 17.0059 8.01892C18.5547 8.01892 19.9473 9.27673 19.9473 11.0063C19.9473 12.7358 18.5547 13.8364 17.0059 13.8364C15.457 13.8364 14.0625 12.5786 14.0625 10.849ZM23.0449 21.5409C22.8906 21.6981 22.5801 21.8553 22.4258 21.8553L11.5859 21.8553C11.2754 21.8553 11.1211 21.6981 10.9648 21.5409C10.8105 21.5409 10.8105 21.2264 10.8105 20.912C11.8945 18.3962 14.2168 16.8239 17.0059 16.8239C19.793 16.8239 22.1152 18.3962 23.1992 20.912C23.1992 21.2264 23.1992 21.5409 23.0449 21.5409Z" fill="#ECECEC" fill-opacity="1.000000" fill-rule="evenodd"/>
</svg>
