<svg width="24" height="28" viewBox="0 0 24 28" fill="none" xmlns="http://www.w3.org/2000/svg">
<path fill-rule="evenodd" clip-rule="evenodd" d="M10.7578 0.0429101C17.547 -0.523298 23.2661 4.58481 23.4091 11.1711L23.4094 11.1988C23.4094 13.501 22.6883 15.6526 21.4101 17.5004L21.3974 17.5184L14.9375 26.5186C14.9247 26.5365 14.9114 26.554 14.8976 26.5712C13.4128 28.4287 10.4924 28.543 9.06564 26.5131L2.60363 17.5099C0.919183 15.1218 0.0340277 12.1066 0.749845 8.91573C1.63249 4.1311 5.80435 0.608857 10.7189 0.0467507C10.7319 0.045272 10.7448 0.0439916 10.7578 0.0429101ZM10.9888 2.57795C7.05526 3.03583 3.89643 5.83606 3.2493 9.39804C3.24599 9.41624 3.24229 9.43436 3.2382 9.45239C2.69886 11.8273 3.33208 14.1243 4.68079 16.0385L11.1466 25.047C11.4911 25.5396 12.3505 25.6549 12.8917 25.0034L19.3228 16.0435C20.318 14.6013 20.8611 12.9581 20.864 11.2126C20.7461 6.14933 16.3457 2.14177 10.9888 2.57795Z" fill="#ECECEC"/>
<path fill-rule="evenodd" clip-rule="evenodd" d="M11.9549 8.78183C10.6193 8.78183 9.53668 9.86448 9.53668 11.2C9.53668 12.5355 10.6193 13.6182 11.9549 13.6182C13.2904 13.6182 14.373 12.5355 14.373 11.2C14.373 9.86448 13.2904 8.78183 11.9549 8.78183ZM6.99123 11.2C6.99123 8.45867 9.21352 6.23637 11.9549 6.23637C14.6962 6.23637 16.9185 8.45867 16.9185 11.2C16.9185 13.9413 14.6962 16.1636 11.9549 16.1636C9.21352 16.1636 6.99123 13.9413 6.99123 11.2Z" fill="#ECECEC"/>
<path fill-rule="evenodd" clip-rule="evenodd" d="M11.9549 8.78183C10.6193 8.78183 9.53668 9.86448 9.53668 11.2C9.53668 12.5355 10.6193 13.6182 11.9549 13.6182C13.2904 13.6182 14.373 12.5355 14.373 11.2C14.373 9.86448 13.2904 8.78183 11.9549 8.78183ZM6.99123 11.2C6.99123 8.45867 9.21352 6.23637 11.9549 6.23637C14.6962 6.23637 16.9185 8.45867 16.9185 11.2C16.9185 13.9413 14.6962 16.1636 11.9549 16.1636C9.21352 16.1636 6.99123 13.9413 6.99123 11.2Z" fill="#ECECEC"/>
<path fill-rule="evenodd" clip-rule="evenodd" d="M11.9549 8.78183C10.6193 8.78183 9.53668 9.86448 9.53668 11.2C9.53668 12.5355 10.6193 13.6182 11.9549 13.6182C13.2904 13.6182 14.373 12.5355 14.373 11.2C14.373 9.86448 13.2904 8.78183 11.9549 8.78183ZM6.99123 11.2C6.99123 8.45867 9.21352 6.23637 11.9549 6.23637C14.6962 6.23637 16.9185 8.45867 16.9185 11.2C16.9185 13.9413 14.6962 16.1636 11.9549 16.1636C9.21352 16.1636 6.99123 13.9413 6.99123 11.2Z" fill="#ECECEC"/>
</svg>
