<svg width="28" height="28" viewBox="0 0 28 28" fill="none" xmlns="http://www.w3.org/2000/svg">
<path d="M26.6 2.8H1.4C0.56 2.8 0 2.24 0 1.4C0 0.56 0.56 0 1.4 0H26.6C27.44 0 28 0.56 28 1.4C28 2.24 27.44 2.8 26.6 2.8Z" fill="#ECECEC"/>
<path d="M26.6 19.6H14C13.16 19.6 12.6 19.04 12.6 18.2C12.6 17.36 13.16 16.8 14 16.8H26.6C27.44 16.8 28 17.36 28 18.2C28 19.04 27.44 19.6 26.6 19.6Z" fill="#ECECEC"/>
<path d="M26.6 11.2H14C13.16 11.2 12.6 10.64 12.6 9.8C12.6 8.96 13.16 8.4 14 8.4H26.6C27.44 8.4 28 8.96 28 9.8C28 10.64 27.44 11.2 26.6 11.2Z" fill="#ECECEC"/>
<path d="M26.6 28H1.4C0.56 28 0 27.44 0 26.6C0 25.76 0.56 25.2 1.4 25.2H26.6C27.44 25.2 28 25.76 28 26.6C28 27.44 27.44 28 26.6 28Z" fill="#ECECEC"/>
<path d="M2.52 21.14C2.1 21.14 1.68 21 1.4 20.86C0.56 20.44 0 19.6 0 18.62V9.38C0 8.4 0.56 7.56 1.4 7.14C2.24 6.72 3.22 6.86 4.06 7.42L10.22 12.04C10.78 12.46 11.2 13.16 11.2 14C11.2 14.84 10.78 15.54 10.22 16.1L4.06 20.72C3.64 21 3.08 21.14 2.52 21.14ZM2.8 9.94V18.06L8.26 14L2.8 9.94Z" fill="#ECECEC"/>
</svg>
