<svg width="30" height="29" viewBox="0 0 30 29" fill="none" xmlns="http://www.w3.org/2000/svg">
<path d="M24.7318 0.432836C24.1549 -0.144279 23.2895 -0.144279 22.7125 0.432836C22.1356 1.00995 22.1356 1.87562 22.7125 2.45274C25.3088 5.04975 26.7512 8.51244 26.7512 12.2637C26.7512 16.0149 25.3088 19.4776 22.7125 22.0746C20.1162 24.6716 16.6546 26.1144 12.9044 26.1144C9.73117 26.1144 6.55796 24.9602 4.10593 22.9403L5.98101 20.9204C8.00033 22.5075 10.4524 23.2289 12.7602 23.2289C15.6449 23.2289 18.3854 22.2189 20.549 20.0547C24.8761 15.7264 24.8761 8.65672 20.549 4.47264C16.2218 0.144278 9.15422 0.144278 4.97135 4.47264C1.07695 8.36816 0.644237 14.5721 3.96169 18.9005L0.932711 22.0746C0.355763 22.6517 0.355763 23.5174 0.932711 24.0945C4.10593 27.2687 8.2888 29 12.7602 29C17.2315 29 21.4144 27.2687 24.5876 24.0945C27.7608 20.9204 29.4917 16.7363 29.4917 12.2637C29.6359 7.79104 27.905 3.60697 24.7318 0.432836ZM7.13491 6.49254C8.72151 4.90547 10.8851 4.0398 12.9044 4.0398C15.0679 4.0398 17.0873 4.90547 18.6739 6.49254C21.8471 9.66667 21.8471 14.8607 18.6739 18.0348C15.5007 21.209 10.3081 21.209 7.13491 18.0348C3.96169 14.8607 3.96169 9.66667 7.13491 6.49254Z" fill="#ECECEC"/>
</svg>
