<svg width="29" height="29" viewBox="0 0 29 29" fill="none" xmlns="http://www.w3.org/2000/svg">
<path d="M13.3883 25.9701H5.1293C4.40482 25.9701 3.68034 25.5373 3.39055 24.9602C2.95587 24.3831 2.95587 23.806 3.24566 23.0846C4.9844 19.0448 8.89658 16.3035 13.3883 16.3035C17.8801 16.3035 21.6474 12.5522 21.6474 8.0796C21.6474 3.60697 17.8801 0 13.2434 0C8.75169 0 4.9844 3.75124 4.9844 8.22388C4.9844 10.8209 6.14357 13.1294 8.02721 14.5721C4.69461 15.8706 1.7967 18.6119 0.347749 22.0746C-0.231833 23.5174 -0.0869373 25.2488 0.782435 26.5473C1.7967 27.99 3.24566 28.8557 4.9844 28.8557H13.2434C14.1128 28.8557 14.6924 28.2786 14.6924 27.4129C14.6924 26.5473 14.1128 25.9701 13.3883 25.9701ZM7.88231 8.22388C7.88231 5.33831 10.3455 2.88557 13.2434 2.88557C16.1414 2.88557 18.6046 5.33831 18.6046 8.22388C18.6046 11.1095 16.1414 13.5622 13.2434 13.5622C10.3455 13.5622 7.88231 11.1095 7.88231 8.22388Z" fill="#ECECEC"/>
<path d="M28.4575 15.5821C27.733 15.1493 26.8636 15.2935 26.4289 16.0149L20.3433 24.9602L18.025 21.9303C17.5903 21.3532 16.576 21.209 15.9965 21.6418C15.4169 22.0746 15.272 23.0846 15.7067 23.6617L19.3291 28.4229C19.6188 28.8557 20.0535 29 20.4882 29C20.9229 29 21.3576 28.7114 21.6474 28.4229L28.7473 17.7463C29.1819 16.8806 29.037 16.0149 28.4575 15.5821Z" fill="#ECECEC"/>
</svg>
