<svg width="31" height="28" viewBox="0 0 31 28" fill="none" xmlns="http://www.w3.org/2000/svg">
<path d="M30.1961 14C30.1961 10.9804 28.549 8.23529 26.0784 6.86275C26.0784 6.72549 26.0784 6.45098 26.0784 6.17647C26.0784 2.7451 23.3333 0 19.902 0C17.9804 0 16.1961 0.960784 15.098 2.33333C14 0.960784 12.2157 0 10.2941 0C6.86275 0 4.11765 2.7451 4.11765 6.17647C4.11765 6.45098 4.11765 6.58824 4.11765 6.86275C1.64706 8.23529 0 10.9804 0 14C0 17.0196 1.64706 19.7647 4.11765 21.1373C4.11765 21.4118 4.11765 21.549 4.11765 21.8235C4.11765 25.2549 6.86275 28 10.2941 28C12.2157 28 14 27.0392 15.098 25.6667C16.1961 27.0392 17.9804 28 19.902 28C23.3333 28 26.0784 25.2549 26.0784 21.8235C26.0784 21.549 26.0784 21.4118 26.0784 21.1373C28.549 19.6275 30.1961 17.0196 30.1961 14ZM24.0196 19.0784C23.3333 19.3529 23.0588 20.0392 23.1961 20.7255C23.3333 21 23.3333 21.4118 23.3333 21.6863C23.3333 23.6078 21.8235 25.1176 19.902 25.1176C18.1176 25.1176 16.6078 23.7451 16.4706 21.8235C16.4706 21.6863 16.4706 21.6863 16.3333 21.549V21.4118C16.3333 21.2745 16.1961 21.1373 16.1961 21.1373C16.1961 21.1373 16.1961 21 16.0588 21C15.9216 20.8627 15.9216 20.8627 15.7843 20.7255C15.7843 20.7255 15.6471 20.7255 15.6471 20.5882C15.5098 20.5882 15.3725 20.5882 15.3725 20.451H15.2353H15.098C14.9608 20.451 14.9608 20.451 14.8235 20.5882C14.6863 20.5882 14.6863 20.7255 14.549 20.7255C14.4118 20.7255 14.4118 20.8627 14.2745 20.8627L14.1373 21C14.1373 21.1373 14 21.1373 14 21.2745V21.4118C14 21.549 13.8627 21.549 13.8627 21.6863C13.7255 23.4706 12.2157 24.9804 10.4314 24.9804C8.5098 24.9804 7 23.4706 7 21.549C7 21.1373 7 20.8627 7.13725 20.5882C7.41176 19.902 7 19.2157 6.31373 18.9412C4.11765 18.2549 2.7451 16.1961 2.7451 14C2.7451 11.8039 4.11765 9.7451 6.17647 8.92157C6.86275 8.64706 7.27451 7.82353 7 7.13725C6.86275 6.86275 6.86275 6.58824 6.86275 6.17647C6.86275 4.2549 8.37255 2.7451 10.2941 2.7451C12.2157 2.7451 13.7255 4.2549 13.7255 6.17647V17.4314C13.7255 18.2549 14.2745 18.8039 15.098 18.8039C15.9216 18.8039 16.4706 18.2549 16.4706 17.4314V6.17647C16.4706 4.2549 17.9804 2.7451 19.902 2.7451C21.8235 2.7451 23.3333 4.2549 23.3333 6.17647C23.3333 6.58824 23.3333 6.86275 23.1961 7.13725C22.9216 7.82353 23.3333 8.5098 24.0196 8.78431C26.0784 9.7451 27.451 11.6667 27.451 14C27.451 16.1961 26.0784 18.2549 24.0196 19.0784Z" fill="#ECECEC"/>
</svg>
