<svg width="29" height="28" viewBox="0 0 29 28" fill="none" xmlns="http://www.w3.org/2000/svg">
<path d="M26.8537 1.61704C25.0298 -0.207313 21.9431 -0.487983 18.2952 0.775031C17.0325 1.19604 15.7698 1.89771 14.507 2.59938C9.45613 -0.347648 4.68583 -0.908987 2.16037 1.61704C-0.505383 4.14307 0.196132 8.91445 3.14249 13.9665C0.0558285 19.1589 -0.36508 23.9303 2.16037 26.316C3.14249 27.4387 4.68583 28 6.50977 28C8.89492 28 11.701 27.0177 14.507 25.3336C17.3131 27.0177 20.1192 28 22.5043 28C24.3282 28 25.7313 27.4387 26.8537 26.4563C29.3792 23.9303 28.8179 19.1589 25.8716 14.1068C28.9582 8.77412 29.3792 4.00273 26.8537 1.61704ZM19.137 3.44139C21.8028 2.45905 23.767 2.59938 24.8895 3.58173C26.1522 4.84474 25.8716 7.93211 24.1879 11.3001C23.2058 10.0371 22.2237 8.77412 20.961 7.51111C19.6982 6.24809 18.4355 5.26575 17.1728 4.2834C17.8743 4.00273 18.5758 3.58173 19.137 3.44139ZM4.12462 24.3513C2.86189 23.0883 3.14249 20.0009 4.82613 16.6329C5.80825 17.8959 6.79037 19.1589 8.0531 20.4219C9.31583 21.6849 10.5786 22.8076 11.8413 23.6496C8.33371 25.474 5.38734 25.6143 4.12462 24.3513ZM24.8895 24.3513C23.6267 25.6143 20.6804 25.3336 17.0325 23.6496C18.2952 22.6673 19.5579 21.5446 20.8207 20.4219C21.3819 19.8606 21.9431 19.2992 22.364 18.7379C22.9252 18.1766 22.7849 17.3345 22.2237 16.7732C21.6625 16.2119 20.8207 16.3522 20.2595 16.9135C19.8386 17.4749 19.2773 17.8959 18.8564 18.4572C17.4534 19.8606 15.9101 21.1236 14.507 22.1059C13.104 21.1236 11.5607 19.8606 10.1576 18.4572C3.98431 12.2825 2.02007 5.68675 4.12462 3.58173C4.54552 3.02039 5.38734 2.73972 6.50977 2.73972C7.9128 2.73972 9.87704 3.30106 11.8413 4.2834C10.5786 5.26575 9.31583 6.38843 8.0531 7.51111C7.49189 8.21278 6.79037 8.91445 6.22916 9.61613C5.66795 10.1775 5.80825 11.0195 6.36946 11.5808C6.93068 12.1422 7.9128 12.0018 8.33371 11.4405C8.89492 10.7388 9.45613 10.1775 10.0173 9.61613C11.4204 8.21278 12.9637 6.94977 14.3667 5.96742C15.7698 6.94977 17.3131 8.21278 18.8564 9.61613C25.0298 15.6505 26.994 22.2463 24.8895 24.3513Z" fill="#ECECEC"/>
<path d="M14.5 16.24C15.7371 16.24 16.74 15.2371 16.74 14C16.74 12.7629 15.7371 11.76 14.5 11.76C13.2629 11.76 12.26 12.7629 12.26 14C12.26 15.2371 13.2629 16.24 14.5 16.24Z" fill="#ECECEC"/>
</svg>
