<svg width="36" height="30" viewBox="0 0 36 30" fill="none" xmlns="http://www.w3.org/2000/svg">
<path d="M7.11542 8.95028C7.11542 5.80111 9.76302 3.31492 13.0725 3.31492C14.0654 3.31492 14.7273 2.65193 14.7273 1.65746C14.7273 0.662983 14.0654 0 13.0725 0C7.9428 0 3.80592 3.9779 3.80592 8.95028V9.94475C3.80592 11.4365 2.81307 12.9282 1.15832 13.4254C0.496425 13.5912 0 14.2541 0 14.9171C0 15.5801 0.496425 16.2431 1.15832 16.5746C2.81307 17.0718 3.80592 18.3978 3.80592 20.0552V21.0497C3.80592 26.0221 7.9428 30 13.0725 30C14.0654 30 14.7273 29.337 14.7273 28.3425C14.7273 27.3481 14.0654 26.6851 13.0725 26.6851C9.76302 26.6851 7.11542 24.1989 7.11542 21.0497V19.8895C7.11542 17.9006 6.28805 16.0773 4.96425 14.9171C6.28805 13.5912 7.11542 11.768 7.11542 9.94475V8.95028Z" fill="#ECECEC"/>
<path d="M34.8417 13.3333C33.1869 12.8333 32.1941 11.5 32.1941 9.83333V9C32.1941 4 28.0572 0 22.9275 0C21.9346 0 21.2727 0.666667 21.2727 1.66667C21.2727 2.66667 21.9346 3.33333 22.9275 3.33333C26.237 3.33333 28.8846 5.83333 28.8846 9V10C28.8846 12 29.7119 13.8333 31.0357 15C29.7119 16.3333 28.8846 18.1667 28.8846 20V21C28.8846 24.1667 26.237 26.6667 22.9275 26.6667C21.9346 26.6667 21.2727 27.3333 21.2727 28.3333C21.2727 29.3333 21.9346 30 22.9275 30C28.0572 30 32.1941 26 32.1941 21V20C32.1941 18.5 33.1869 17 34.8417 16.5C35.5036 16.3333 36 15.6667 36 15C36 14.3333 35.5036 13.6667 34.8417 13.3333Z" fill="#ECECEC"/>
</svg>
