<svg width="28.000000" height="28.000000" viewBox="0 0 28 28" fill="none" xmlns="http://www.w3.org/2000/svg" xmlns:xlink="http://www.w3.org/1999/xlink">
	<desc>
			Created with Pixso.
	</desc>
	<defs/>
	<path id="таргетированная" d="M0 14C0 6.30005 6.30078 0 14 0C21.6992 0 28 6.30005 28 14C28 21.7 21.6992 28 14 28C6.30078 28 0 21.7 0 14ZM2.80078 14C2.80078 20.16 7.83984 25.2 14 25.2C20.1602 25.2 25.1992 20.16 25.1992 14C25.1992 7.83997 20.1602 2.80005 14 2.80005C7.83984 2.80005 2.80078 7.83997 2.80078 14ZM18.3398 16.52C19.5996 17.08 20.7207 17.78 21.6992 18.76C22.2598 19.3199 22.2598 20.16 21.6992 20.72C21.1406 21.28 20.3008 21.28 19.7402 20.72C18.1992 19.1801 16.0996 18.34 14 18.34C11.7598 18.34 9.80078 19.1801 8.25977 20.72C7.98047 21 7.69922 21.14 7.2793 21.14C7 21.14 6.58008 21 6.30078 20.72C5.74023 20.16 5.74023 19.3199 6.30078 18.76C7.2793 17.78 8.40039 17.08 9.66016 16.52C8.67969 15.4 7.98047 14 7.98047 12.3199C7.98047 8.95996 10.6406 6.30005 14 6.30005C17.3594 6.30005 20.0195 8.95996 20.0195 12.3199C20.0195 14 19.3203 15.4 18.3398 16.52ZM14 9.09998C12.1797 9.09998 10.7793 10.5 10.7793 12.3199C10.7793 14.14 12.1797 15.54 14 15.54C15.8203 15.54 17.2207 14.14 17.2207 12.3199C17.2207 10.5 15.8203 9.09998 14 9.09998Z" fill="#ECECEC" fill-opacity="1.000000" fill-rule="evenodd"/>
</svg>
