<svg width="28" height="28" viewBox="0 0 28 28" fill="none" xmlns="http://www.w3.org/2000/svg">
<path d="M14 0C6.3 0 0 6.3 0 14C0 21.7 6.3 28 14 28C21.7 28 28 21.7 28 14C28 6.3 21.7 0 14 0ZM14 25.2C7.84 25.2 2.8 20.16 2.8 14C2.8 7.84 7.84 2.8 14 2.8C20.16 2.8 25.2 7.84 25.2 14C25.2 20.16 20.16 25.2 14 25.2Z" fill="#ECECEC"/>
<path d="M21.7 18.76C20.72 17.78 19.6 17.08 18.34 16.52C19.32 15.4 20.02 14 20.02 12.32C20.02 8.96 17.36 6.3 14 6.3C10.64 6.3 7.98 8.96 7.98 12.32C7.98 14 8.68 15.4 9.66 16.52C8.4 17.08 7.28 17.78 6.3 18.76C5.74 19.32 5.74 20.16 6.3 20.72C6.58 21 7 21.14 7.28 21.14C7.7 21.14 7.98 21 8.26 20.72C9.8 19.18 11.76 18.34 14 18.34C16.1 18.34 18.2 19.18 19.74 20.72C20.3 21.28 21.14 21.28 21.7 20.72C22.26 20.16 22.26 19.32 21.7 18.76ZM10.78 12.32C10.78 10.5 12.18 9.1 14 9.1C15.82 9.1 17.22 10.5 17.22 12.32C17.22 14.14 15.82 15.54 14 15.54C12.18 15.54 10.78 14.14 10.78 12.32Z" fill="#ECECEC"/>
</svg>
