<svg width="34" height="25" viewBox="0 0 34 25" fill="none" xmlns="http://www.w3.org/2000/svg">
<path d="M21.4961 14.9371C22.4252 13.8365 23.0447 12.4214 23.0447 11.0063C23.0447 7.54717 20.2572 4.87421 17.0052 4.87421C13.7532 4.87421 10.9657 7.54717 10.9657 10.8491C10.9657 12.4214 11.5852 13.8365 12.5143 14.7799C10.5011 15.8805 8.95257 17.4528 8.02342 19.6541C7.55884 20.7547 7.7137 22.1698 8.33313 23.2704C9.10742 24.3711 10.3463 25 11.5852 25H22.2704C23.5092 25 24.7481 24.3711 25.5224 23.2704C26.2967 22.1698 26.2967 20.912 25.8321 19.6541C25.0578 17.6101 23.5092 15.8805 21.4961 14.9371ZM14.0629 10.8491C14.0629 9.27673 15.4566 8.01887 17.0052 8.01887C18.5538 8.01887 19.9475 9.27673 19.9475 11.0063C19.9475 12.7358 18.5538 13.8365 17.0052 13.8365C15.4566 13.8365 14.0629 12.5786 14.0629 10.8491ZM23.0447 21.5409C22.8898 21.6981 22.5801 21.8553 22.4252 21.8553H11.5852C11.2754 21.8553 11.1206 21.6981 10.9657 21.5409C10.8109 21.5409 10.8109 21.2264 10.8109 20.9119C11.8949 18.3962 14.2177 16.8239 17.0052 16.8239C19.7926 16.8239 22.1155 18.3962 23.1995 20.9119C23.1995 21.2264 23.1995 21.5409 23.0447 21.5409Z" fill="#ECECEC"/>
<path d="M9.72686 13.6792C9.72686 12.8931 9.10742 12.1069 8.17828 12.1069H3.06796C3.68739 10.5346 5.23597 9.5912 6.93941 9.5912C9.572 9.5912 11.5852 7.54717 11.5852 4.87421C11.5852 2.20126 9.41714 0.157233 6.93941 0.157233C4.46168 0.157233 2.29366 2.20126 2.29366 4.87421C2.29366 5.81761 2.60338 6.76101 3.22281 7.54717C1.82909 8.33333 0.745083 9.43396 0.280508 10.8491C-0.184066 11.7925 -0.0292081 12.8931 0.435367 13.8365C1.0548 14.7799 1.98395 15.2516 3.06796 15.2516H8.02342C8.95257 15.2516 9.72686 14.6226 9.72686 13.6792ZM5.39083 4.87421C5.39083 3.93082 6.16512 3.30189 6.93941 3.30189C7.7137 3.30189 8.48799 4.08805 8.48799 4.87421C8.48799 5.81761 7.7137 6.44654 6.93941 6.44654C6.16512 6.44654 5.39083 5.66038 5.39083 4.87421Z" fill="#ECECEC"/>
<path d="M33.7299 10.8491C33.1104 9.43396 32.0264 8.1761 30.7876 7.38994C31.2521 6.60377 31.7167 5.66038 31.7167 4.71698C31.7167 2.20126 29.5487 0 27.071 0C24.5932 0 22.4252 2.04403 22.4252 4.71698C22.4252 7.38994 24.5932 9.43396 27.071 9.43396C28.7744 9.43396 30.323 10.3774 30.7876 12.1069H25.8321C24.903 12.1069 24.2835 12.7359 24.2835 13.6792C24.2835 14.4654 24.903 15.2516 25.8321 15.2516H30.7876C31.8716 15.2516 32.8007 14.7799 33.4202 13.8365C34.0396 12.8931 34.1945 11.7925 33.7299 10.8491ZM27.071 3.30189C28.0001 3.30189 28.6196 4.08805 28.6196 4.87421C28.6196 5.81761 27.8453 6.44654 27.071 6.44654C26.2967 6.44654 25.5224 5.66038 25.5224 4.87421C25.5224 3.93082 26.1418 3.30189 27.071 3.30189Z" fill="#ECECEC"/>
</svg>
