<svg width="32" height="32" viewBox="0 0 32 32" fill="none" xmlns="http://www.w3.org/2000/svg">
<g id="bounding box">
<path id="Exclude" fill-rule="evenodd" clip-rule="evenodd" d="M16 32C24.8366 32 32 24.8366 32 16C32 10.8664 29.5823 6.29747 25.8234 3.36973L23.1812 1.69821C21.0217 0.611743 18.5823 0 16 0C7.16344 0 0 7.16344 0 16C0 24.8366 7.16344 32 16 32ZM23.1812 1.69821V9.29209C21.317 7.20205 18.6223 5.88901 15.6252 5.88901C9.99858 5.88901 5.43733 10.517 5.43733 16.2258C5.43733 21.9347 9.99858 26.5627 15.6252 26.5627C18.6223 26.5627 21.317 25.2496 23.1812 23.1596L23.1073 25.3112C23.0969 25.6136 23.3392 25.8644 23.6418 25.8644H25.3576C25.6537 25.8644 25.8934 25.6239 25.8925 25.3279L25.8234 3.36973L23.1812 1.69821ZM23.6057 16.2258C23.6057 20.5251 20.1657 24.0104 15.9224 24.0104C11.679 24.0104 8.239 20.5251 8.239 16.2258C8.239 11.9266 11.679 8.44132 15.9224 8.44132C20.1657 8.44132 23.6057 11.9266 23.6057 16.2258Z" fill="url(#paint0_radial_415_975)"/>
</g>
<defs>
<radialGradient id="paint0_radial_415_975" cx="0" cy="0" r="1" gradientUnits="userSpaceOnUse" gradientTransform="translate(28 1.62423e-06) rotate(120.7) scale(37.2156)">
<stop stop-color="#FD9BE8"/>
<stop offset="0.338542" stop-color="#7A73FF"/>
<stop offset="0.722638" stop-color="#75CDFF"/>
<stop offset="1" stop-color="#4AFCF1"/>
</radialGradient>
</defs>
</svg>
