<svg width="29" height="28" viewBox="0 0 29 28" fill="none" xmlns="http://www.w3.org/2000/svg">
<path d="M27.1 2.8H1.9C1.06 2.8 0.5 2.24 0.5 1.4C0.5 0.56 1.06 0 1.9 0H27.1C27.94 0 28.5 0.56 28.5 1.4C28.5 2.24 27.94 2.8 27.1 2.8Z" fill="url(#paint0_radial_1243_926)"/>
<path d="M27.1 19.6H14.5C13.66 19.6 13.1 19.04 13.1 18.2C13.1 17.36 13.66 16.8 14.5 16.8H27.1C27.94 16.8 28.5 17.36 28.5 18.2C28.5 19.04 27.94 19.6 27.1 19.6Z" fill="url(#paint1_radial_1243_926)"/>
<path d="M27.1 11.2H14.5C13.66 11.2 13.1 10.64 13.1 9.8C13.1 8.96 13.66 8.4 14.5 8.4H27.1C27.94 8.4 28.5 8.96 28.5 9.8C28.5 10.64 27.94 11.2 27.1 11.2Z" fill="url(#paint2_radial_1243_926)"/>
<path d="M27.1 28H1.9C1.06 28 0.5 27.44 0.5 26.6C0.5 25.76 1.06 25.2 1.9 25.2H27.1C27.94 25.2 28.5 25.76 28.5 26.6C28.5 27.44 27.94 28 27.1 28Z" fill="url(#paint3_radial_1243_926)"/>
<path d="M3.02 21.14C2.6 21.14 2.18 21 1.9 20.86C1.06 20.44 0.5 19.6 0.5 18.62V9.38C0.5 8.4 1.06 7.56 1.9 7.14C2.74 6.72 3.72 6.86 4.56 7.42L10.72 12.04C11.28 12.46 11.7 13.16 11.7 14C11.7 14.84 11.28 15.54 10.72 16.1L4.56 20.72C4.14 21 3.58 21.14 3.02 21.14ZM3.3 9.94V18.06L8.76 14L3.3 9.94Z" fill="url(#paint4_radial_1243_926)"/>
<defs>
<radialGradient id="paint0_radial_1243_926" cx="0" cy="0" r="1" gradientUnits="userSpaceOnUse" gradientTransform="translate(14.5 14) rotate(99.7276) scale(17.7553)">
<stop stop-color="#FD9BE8"/>
<stop offset="0.338542" stop-color="#7A73FF"/>
<stop offset="0.734375" stop-color="#75CDFF"/>
<stop offset="1" stop-color="#4AFCF1"/>
</radialGradient>
<radialGradient id="paint1_radial_1243_926" cx="0" cy="0" r="1" gradientUnits="userSpaceOnUse" gradientTransform="translate(14.5 14) rotate(99.7276) scale(17.7553)">
<stop stop-color="#FD9BE8"/>
<stop offset="0.338542" stop-color="#7A73FF"/>
<stop offset="0.734375" stop-color="#75CDFF"/>
<stop offset="1" stop-color="#4AFCF1"/>
</radialGradient>
<radialGradient id="paint2_radial_1243_926" cx="0" cy="0" r="1" gradientUnits="userSpaceOnUse" gradientTransform="translate(14.5 14) rotate(99.7276) scale(17.7553)">
<stop stop-color="#FD9BE8"/>
<stop offset="0.338542" stop-color="#7A73FF"/>
<stop offset="0.734375" stop-color="#75CDFF"/>
<stop offset="1" stop-color="#4AFCF1"/>
</radialGradient>
<radialGradient id="paint3_radial_1243_926" cx="0" cy="0" r="1" gradientUnits="userSpaceOnUse" gradientTransform="translate(14.5 14) rotate(99.7276) scale(17.7553)">
<stop stop-color="#FD9BE8"/>
<stop offset="0.338542" stop-color="#7A73FF"/>
<stop offset="0.734375" stop-color="#75CDFF"/>
<stop offset="1" stop-color="#4AFCF1"/>
</radialGradient>
<radialGradient id="paint4_radial_1243_926" cx="0" cy="0" r="1" gradientUnits="userSpaceOnUse" gradientTransform="translate(14.5 14) rotate(99.7276) scale(17.7553)">
<stop stop-color="#FD9BE8"/>
<stop offset="0.338542" stop-color="#7A73FF"/>
<stop offset="0.734375" stop-color="#75CDFF"/>
<stop offset="1" stop-color="#4AFCF1"/>
</radialGradient>
</defs>
</svg>
