<svg width="26" height="28" viewBox="0 0 26 28" fill="none" xmlns="http://www.w3.org/2000/svg">
<path fill-rule="evenodd" clip-rule="evenodd" d="M10.416 0.491337C11.8877 -0.163779 13.533 -0.163779 15.0047 0.491337L15.0271 0.501545L22.8957 4.18784C22.9058 4.19255 22.9158 4.19739 22.9257 4.20236C24.6885 5.08515 25.7332 7.02514 25.3887 9.10489C24.7345 13.1652 22.7534 21.1691 15.4099 27.0531L15.3963 27.064C13.7941 28.3121 11.6266 28.312 10.0245 27.0639L10.0107 27.0532C2.66539 21.1677 0.685227 13.1612 0.0315213 9.10189C0.0268568 9.07293 0.0231952 9.04381 0.0205432 9.01459C-0.142495 7.21835 0.658474 5.10154 2.65367 4.18694L10.3864 0.504958C10.3962 0.500292 10.406 0.495751 10.416 0.491337ZM11.4648 2.81075L3.73893 6.48947L3.71911 6.4987C2.94067 6.85309 2.47761 7.76261 2.55223 8.74439C3.17486 12.5768 5.01295 19.7824 11.5949 25.0606C12.2743 25.5858 13.1464 25.5858 13.8258 25.0606C20.4348 19.7606 22.2609 12.5174 22.8761 8.69719L22.8771 8.69063C23.0376 7.72646 22.5657 6.87584 21.799 6.48497L13.9592 2.81223C13.1538 2.45702 12.2704 2.45653 11.4648 2.81075Z" fill="url(#paint0_radial_1243_2700)"/>
<path fill-rule="evenodd" clip-rule="evenodd" d="M18.5799 7.88985C19.1428 8.31082 19.2578 9.10841 18.8368 9.67132L13.1259 17.3077C12.8868 17.6274 12.5115 17.8164 12.1122 17.8181C11.7129 17.8199 11.336 17.6341 11.0941 17.3165L7.89596 13.1165C7.47013 12.5572 7.57827 11.7587 8.1375 11.3329C8.69674 10.907 9.49529 11.0152 9.92113 11.5744L12.0975 14.4326L16.7984 8.14683C17.2194 7.58393 18.017 7.46888 18.5799 7.88985Z" fill="url(#paint1_radial_1243_2700)"/>
<defs>
<radialGradient id="paint0_radial_1243_2700" cx="0" cy="0" r="1" gradientUnits="userSpaceOnUse" gradientTransform="translate(12.727 14) rotate(98.8578) scale(17.7112 16.181)">
<stop stop-color="#FD9BE8"/>
<stop offset="0.338542" stop-color="#7A73FF"/>
<stop offset="0.734375" stop-color="#75CDFF"/>
<stop offset="1" stop-color="#4AFCF1"/>
</radialGradient>
<radialGradient id="paint1_radial_1243_2700" cx="0" cy="0" r="1" gradientUnits="userSpaceOnUse" gradientTransform="translate(12.727 14) rotate(98.8578) scale(17.7112 16.181)">
<stop stop-color="#FD9BE8"/>
<stop offset="0.338542" stop-color="#7A73FF"/>
<stop offset="0.734375" stop-color="#75CDFF"/>
<stop offset="1" stop-color="#4AFCF1"/>
</radialGradient>
</defs>
</svg>
