<svg width="32" height="32" viewBox="0 0 32 32" fill="none" xmlns="http://www.w3.org/2000/svg">
<g id="bounding box">
<g id="ORM">
<path d="M26.9647 24.6H24C23.5059 22.8 21.9 21.6 19.9235 21.6C17.5765 21.6 15.6 23.52 15.6 25.8C15.6 28.08 17.5765 30 19.9235 30C21.9 30 23.5059 28.8 24 27H26.9647C27.7059 27 28.2 26.4 28.2 25.8C28.2 25.08 27.7059 24.6 26.9647 24.6ZM19.9235 27.6C18.9353 27.6 18.0706 26.76 18.0706 25.8C18.0706 24.84 18.9353 24 19.9235 24C20.9118 24 21.7765 24.84 21.7765 25.8C21.7765 26.76 20.9118 27.6 19.9235 27.6Z" fill="url(#paint0_radial_1243_2707)"/>
<path d="M13.0085 24.4H4.19149C3.4766 24.4 3 25.1 3 25.8C3 26.64 3.59574 27.2 4.19149 27.2H13.0085C13.7234 27.2 14.2 26.5 14.2 25.8C14.2 24.96 13.6043 24.4 13.0085 24.4Z" fill="url(#paint1_radial_1243_2707)"/>
<path d="M4.19149 7.6H13.0085C13.7234 7.6 14.2 6.9 14.2 6.2C14.2 5.5 13.6043 4.8 13.0085 4.8H4.19149C3.4766 4.8 3 5.5 3 6.2C3 6.9 3.59574 7.6 4.19149 7.6Z" fill="url(#paint2_radial_1243_2707)"/>
<path d="M19.9235 10.4C21.9 10.4 23.5059 9.2 24 7.4H26.9647C27.7059 7.4 28.2 6.8 28.2 6.2C28.2 5.6 27.5824 5 26.9647 5H24C23.5059 3.2 21.9 2 19.9235 2C17.5765 2 15.6 3.92 15.6 6.2C15.6 8.48 17.5765 10.4 19.9235 10.4ZM19.9235 4.4C20.9118 4.4 21.7765 5.24 21.7765 6.2C21.7765 7.16 20.9118 8 19.9235 8C18.9353 8 18.0706 7.16 18.0706 6.2C18.0706 5.24 18.9353 4.4 19.9235 4.4Z" fill="url(#paint3_radial_1243_2707)"/>
<path d="M4.23529 17.2H7.2C7.69412 18.88 9.3 20.2 11.2765 20.2C13.6235 20.2 15.6 18.28 15.6 16C15.6 13.72 13.6235 11.8 11.2765 11.8C9.3 11.8 7.69412 13 7.2 14.8H4.23529C3.49412 14.8 3 15.4 3 16C3 16.6 3.61765 17.2 4.23529 17.2ZM11.2765 14.2C12.2647 14.2 13.1294 15.04 13.1294 16C13.1294 16.96 12.2647 17.8 11.2765 17.8C10.2882 17.8 9.42353 16.96 9.42353 16C9.42353 15.04 10.2882 14.2 11.2765 14.2Z" fill="url(#paint4_radial_1243_2707)"/>
<path d="M26.9957 14.6H18.2043C17.4817 14.6 17 15.3 17 16C17 16.7 17.6022 17.4 18.2043 17.4H26.9957C27.7183 17.4 28.2 16.7 28.2 16C28.2 15.3 27.7183 14.6 26.9957 14.6Z" fill="url(#paint5_radial_1243_2707)"/>
</g>
</g>
<defs>
<radialGradient id="paint0_radial_1243_2707" cx="0" cy="0" r="1" gradientUnits="userSpaceOnUse" gradientTransform="translate(15.6 16) rotate(98.7708) scale(17.7071 16.0233)">
<stop stop-color="#FD9BE8"/>
<stop offset="0.338542" stop-color="#7A73FF"/>
<stop offset="0.734375" stop-color="#75CDFF"/>
<stop offset="1" stop-color="#4AFCF1"/>
</radialGradient>
<radialGradient id="paint1_radial_1243_2707" cx="0" cy="0" r="1" gradientUnits="userSpaceOnUse" gradientTransform="translate(15.6 16) rotate(98.7708) scale(17.7071 16.0233)">
<stop stop-color="#FD9BE8"/>
<stop offset="0.338542" stop-color="#7A73FF"/>
<stop offset="0.734375" stop-color="#75CDFF"/>
<stop offset="1" stop-color="#4AFCF1"/>
</radialGradient>
<radialGradient id="paint2_radial_1243_2707" cx="0" cy="0" r="1" gradientUnits="userSpaceOnUse" gradientTransform="translate(15.6 16) rotate(98.7708) scale(17.7071 16.0233)">
<stop stop-color="#FD9BE8"/>
<stop offset="0.338542" stop-color="#7A73FF"/>
<stop offset="0.734375" stop-color="#75CDFF"/>
<stop offset="1" stop-color="#4AFCF1"/>
</radialGradient>
<radialGradient id="paint3_radial_1243_2707" cx="0" cy="0" r="1" gradientUnits="userSpaceOnUse" gradientTransform="translate(15.6 16) rotate(98.7708) scale(17.7071 16.0233)">
<stop stop-color="#FD9BE8"/>
<stop offset="0.338542" stop-color="#7A73FF"/>
<stop offset="0.734375" stop-color="#75CDFF"/>
<stop offset="1" stop-color="#4AFCF1"/>
</radialGradient>
<radialGradient id="paint4_radial_1243_2707" cx="0" cy="0" r="1" gradientUnits="userSpaceOnUse" gradientTransform="translate(15.6 16) rotate(98.7708) scale(17.7071 16.0233)">
<stop stop-color="#FD9BE8"/>
<stop offset="0.338542" stop-color="#7A73FF"/>
<stop offset="0.734375" stop-color="#75CDFF"/>
<stop offset="1" stop-color="#4AFCF1"/>
</radialGradient>
<radialGradient id="paint5_radial_1243_2707" cx="0" cy="0" r="1" gradientUnits="userSpaceOnUse" gradientTransform="translate(15.6 16) rotate(98.7708) scale(17.7071 16.0233)">
<stop stop-color="#FD9BE8"/>
<stop offset="0.338542" stop-color="#7A73FF"/>
<stop offset="0.734375" stop-color="#75CDFF"/>
<stop offset="1" stop-color="#4AFCF1"/>
</radialGradient>
</defs>
</svg>
