<svg width="29" height="28" viewBox="0 0 29 28" fill="none" xmlns="http://www.w3.org/2000/svg">
<path d="M1.9 26.6C1.06 26.6 0.5 26.04 0.5 25.2V12.6C0.5 11.76 1.06 11.2 1.9 11.2C2.74 11.2 3.3 11.76 3.3 12.6V25.2C3.3 26.04 2.74 26.6 1.9 26.6Z" fill="url(#paint0_radial_1243_2823)"/>
<path d="M20.4863 28H8.95543C6.62181 28 4.7 26.04 4.7 23.66V11.9C4.7 10.36 5.24909 8.96 6.20999 7.7L11.7009 1.4C12.5245 0.56 13.76 0 15.1327 0C16.6427 0 17.8781 0.7 18.7018 1.82C19.5254 3.08 19.7999 4.48 19.3881 5.88L18.5645 8.54H24.3299C25.7026 8.54 26.9381 9.1 27.6244 10.22C28.4481 11.34 28.7226 12.74 28.3108 14L25.4281 23.94C24.7417 26.46 22.8199 28 20.4863 28ZM8.40635 9.66C7.85726 10.36 7.58271 11.06 7.58271 11.9V23.66C7.58271 24.5 8.26907 25.2 9.09271 25.2H20.6236C21.7217 25.2 22.6826 24.5 22.9572 23.38L25.7026 13.44C25.8399 13.02 25.7026 12.46 25.4281 12.04C25.1535 11.62 24.7417 11.48 24.3299 11.48H16.6427C16.2309 11.48 15.819 11.2 15.5445 10.92C15.27 10.64 15.27 10.08 15.4072 9.66L16.9172 5.04C17.0545 4.48 17.0545 3.92 16.6427 3.5C16.0936 2.66 14.7209 2.52 14.0345 3.36L8.40635 9.66Z" fill="url(#paint1_radial_1243_2823)"/>
<defs>
<radialGradient id="paint0_radial_1243_2823" cx="0" cy="0" r="1" gradientUnits="userSpaceOnUse" gradientTransform="translate(14.5 14) rotate(99.7276) scale(17.7553 17.7553)">
<stop stop-color="#FD9BE8"/>
<stop offset="0.338542" stop-color="#7A73FF"/>
<stop offset="0.734375" stop-color="#75CDFF"/>
<stop offset="1" stop-color="#4AFCF1"/>
</radialGradient>
<radialGradient id="paint1_radial_1243_2823" cx="0" cy="0" r="1" gradientUnits="userSpaceOnUse" gradientTransform="translate(14.5 14) rotate(99.7276) scale(17.7553 17.7553)">
<stop stop-color="#FD9BE8"/>
<stop offset="0.338542" stop-color="#7A73FF"/>
<stop offset="0.734375" stop-color="#75CDFF"/>
<stop offset="1" stop-color="#4AFCF1"/>
</radialGradient>
</defs>
</svg>
