<svg width="49" height="48" viewBox="0 0 49 48" fill="none" xmlns="http://www.w3.org/2000/svg">
<path d="M27.1667 31.9867H21.8333C18.8867 31.9867 16.5 29.604 16.5 26.6622V21.3378C16.5 18.396 18.8867 16.0133 21.8333 16.0133H27.1667C30.1133 16.0133 32.5 18.396 32.5 21.3378V26.6622C32.5 29.604 30.1133 31.9867 27.1667 31.9867ZM21.8333 18.6755C20.3667 18.6755 19.1667 19.8735 19.1667 21.3378V26.6622C19.1667 28.1265 20.3667 29.3245 21.8333 29.3245H27.1667C28.6333 29.3245 29.8333 28.1265 29.8333 26.6622V21.3378C29.8333 19.8735 28.6333 18.6755 27.1667 18.6755H21.8333ZM13.7533 21.777C13.9933 21.0849 13.6333 20.3261 12.94 20.0732C11.8733 19.7005 11.1667 18.6889 11.1667 17.5574V13.3378C11.1667 11.8735 12.3667 10.6755 13.8333 10.6755H18.06C19.1933 10.6755 20.1933 11.3943 20.58 12.4459C20.82 13.1381 21.5933 13.5108 22.2867 13.2579C22.98 13.0183 23.34 12.2463 23.1 11.5541C22.3533 9.4376 20.3267 8 18.0733 8H13.8467C10.8867 8.02662 8.5 10.4093 8.5 13.3511V17.5707C8.5 19.8203 9.92667 21.8436 12.06 22.589C12.2067 22.6423 12.3533 22.6689 12.5 22.6689C13.0467 22.6689 13.5667 22.3228 13.7533 21.777ZM40.5 34.6489V30.4293C40.5 28.1797 39.0733 26.1564 36.94 25.411C36.2467 25.1581 35.4867 25.5308 35.2333 26.223C34.9933 26.9151 35.3533 27.6739 36.0467 27.9268C37.1133 28.2995 37.82 29.3111 37.82 30.4426V34.6622C37.82 36.1265 36.62 37.3245 35.1533 37.3245H30.9267C29.7933 37.3245 28.7933 36.6057 28.4067 35.5541C28.1667 34.8619 27.3933 34.5025 26.7 34.7421C26.0067 34.9817 25.6467 35.7537 25.8867 36.4459C26.6333 38.5624 28.66 40 30.9133 40H35.14C38.0867 40 40.4733 37.6173 40.4733 34.6755L40.5 34.6489Z" fill="url(#paint0_radial_273_32130)"/>
<defs>
<radialGradient id="paint0_radial_273_32130" cx="0" cy="0" r="1" gradientUnits="userSpaceOnUse" gradientTransform="translate(24.5 24) rotate(99.7276) scale(20.2917)">
<stop offset="0.055" stop-color="#7A73FF"/>
<stop offset="0.65" stop-color="#67DDFA"/>
<stop offset="1" stop-color="#4AFCF1"/>
</radialGradient>
</defs>
</svg>
