<svg width="33" height="32" viewBox="0 0 33 32" fill="none" xmlns="http://www.w3.org/2000/svg">
<path d="M19.1667 23.9867H13.8333C10.8867 23.9867 8.5 21.604 8.5 18.6622V13.3378C8.5 10.396 10.8867 8.01331 13.8333 8.01331H19.1667C22.1133 8.01331 24.5 10.396 24.5 13.3378V18.6622C24.5 21.604 22.1133 23.9867 19.1667 23.9867ZM13.8333 10.6755C12.3667 10.6755 11.1667 11.8735 11.1667 13.3378V18.6622C11.1667 20.1265 12.3667 21.3245 13.8333 21.3245H19.1667C20.6333 21.3245 21.8333 20.1265 21.8333 18.6622V13.3378C21.8333 11.8735 20.6333 10.6755 19.1667 10.6755H13.8333ZM5.75333 13.777C5.99333 13.0849 5.63333 12.3261 4.94 12.0732C3.87333 11.7005 3.16667 10.6889 3.16667 9.5574V5.33777C3.16667 3.87354 4.36667 2.67554 5.83333 2.67554H10.06C11.1933 2.67554 12.1933 3.39434 12.58 4.44592C12.82 5.1381 13.5933 5.51082 14.2867 5.2579C14.98 5.0183 15.34 4.24626 15.1 3.55408C14.3533 1.4376 12.3267 0 10.0733 0H5.84667C2.88667 0.0266223 0.5 2.40932 0.5 5.35108V9.57072C0.5 11.8203 1.92667 13.8436 4.06 14.589C4.20667 14.6423 4.35333 14.6689 4.5 14.6689C5.04667 14.6689 5.56667 14.3228 5.75333 13.777ZM32.5 26.6489V22.4293C32.5 20.1797 31.0733 18.1564 28.94 17.411C28.2467 17.1581 27.4867 17.5308 27.2333 18.223C26.9933 18.9151 27.3533 19.6739 28.0467 19.9268C29.1133 20.2995 29.82 21.3111 29.82 22.4426V26.6622C29.82 28.1265 28.62 29.3245 27.1533 29.3245H22.9267C21.7933 29.3245 20.7933 28.6057 20.4067 27.5541C20.1667 26.8619 19.3933 26.5025 18.7 26.7421C18.0067 26.9817 17.6467 27.7537 17.8867 28.4459C18.6333 30.5624 20.66 32 22.9133 32H27.14C30.0867 32 32.4733 29.6173 32.4733 26.6755L32.5 26.6489Z" fill="url(#paint0_radial_273_32131)"/>
<defs>
<radialGradient id="paint0_radial_273_32131" cx="0" cy="0" r="1" gradientUnits="userSpaceOnUse" gradientTransform="translate(16.5 16) rotate(99.7276) scale(20.2917)">
<stop offset="0.055" stop-color="#7A73FF"/>
<stop offset="0.65" stop-color="#67DDFA"/>
<stop offset="1" stop-color="#4AFCF1"/>
</radialGradient>
</defs>
</svg>
