<svg width="30" height="29" viewBox="0 0 30 29" fill="none" xmlns="http://www.w3.org/2000/svg">
<path d="M13.8883 25.9701H5.6293C4.90482 25.9701 4.18034 25.5373 3.89055 24.9602C3.45587 24.3831 3.45587 23.806 3.74566 23.0846C5.4844 19.0448 9.39658 16.3035 13.8883 16.3035C18.3801 16.3035 22.1474 12.5522 22.1474 8.0796C22.1474 3.60697 18.3801 0 13.7434 0C9.25169 0 5.4844 3.75124 5.4844 8.22388C5.4844 10.8209 6.64357 13.1294 8.52721 14.5721C5.19461 15.8706 2.2967 18.6119 0.847749 22.0746C0.268167 23.5174 0.413063 25.2488 1.28244 26.5473C2.2967 27.99 3.74566 28.8557 5.4844 28.8557H13.7434C14.6128 28.8557 15.1924 28.2786 15.1924 27.4129C15.1924 26.5473 14.6128 25.9701 13.8883 25.9701ZM8.38231 8.22388C8.38231 5.33831 10.8455 2.88557 13.7434 2.88557C16.6414 2.88557 19.1046 5.33831 19.1046 8.22388C19.1046 11.1095 16.6414 13.5622 13.7434 13.5622C10.8455 13.5622 8.38231 11.1095 8.38231 8.22388Z" fill="url(#paint0_radial_1243_3043)"/>
<path d="M28.9575 15.5821C28.233 15.1493 27.3636 15.2935 26.9289 16.0149L20.8433 24.9602L18.525 21.9303C18.0903 21.3532 17.076 21.209 16.4965 21.6418C15.9169 22.0746 15.772 23.0846 16.2067 23.6617L19.8291 28.4229C20.1188 28.8557 20.5535 29 20.9882 29C21.4229 29 21.8576 28.7114 22.1474 28.4229L29.2473 17.7463C29.6819 16.8806 29.537 16.0149 28.9575 15.5821Z" fill="url(#paint1_radial_1243_3043)"/>
<defs>
<radialGradient id="paint0_radial_1243_3043" cx="0" cy="0" r="1" gradientUnits="userSpaceOnUse" gradientTransform="translate(15 14.5) rotate(99.7276) scale(18.3894)">
<stop stop-color="#FD9BE8"/>
<stop offset="0.338542" stop-color="#7A73FF"/>
<stop offset="0.734375" stop-color="#75CDFF"/>
<stop offset="1" stop-color="#4AFCF1"/>
</radialGradient>
<radialGradient id="paint1_radial_1243_3043" cx="0" cy="0" r="1" gradientUnits="userSpaceOnUse" gradientTransform="translate(15 14.5) rotate(99.7276) scale(18.3894)">
<stop stop-color="#FD9BE8"/>
<stop offset="0.338542" stop-color="#7A73FF"/>
<stop offset="0.734375" stop-color="#75CDFF"/>
<stop offset="1" stop-color="#4AFCF1"/>
</radialGradient>
</defs>
</svg>
