<svg width="31" height="28" viewBox="0 0 31 28" fill="none" xmlns="http://www.w3.org/2000/svg">
<path fill-rule="evenodd" clip-rule="evenodd" d="M23.0298 0.487114C24.2931 1.17838 25.2002 2.54944 25.2002 4.20026V18.4801C25.2002 21.8221 21.4994 23.8022 18.7782 21.8595C18.7475 21.8376 18.7177 21.8144 18.6889 21.7901L17.1955 20.5301C17.1742 20.5121 17.1533 20.4934 17.1331 20.4741C15.9851 19.3813 14.5541 18.7004 12.9819 18.4495V23.94C12.9819 26.1613 11.3578 28 9.13827 28C6.87299 28 5.29459 25.9715 5.29459 23.94V18.1827C2.2757 17.4944 0 14.6359 0 11.3402C0 9.48428 0.655037 7.69661 2.05604 6.4128C3.18826 5.25783 4.74068 4.34022 6.69461 4.34022H11.5407C13.6887 4.20977 15.6808 3.47461 17.1846 2.29784L18.6342 0.938912C18.6623 0.912568 18.6915 0.887394 18.7216 0.863456C20.0811 -0.214908 21.7463 -0.215214 23.0298 0.487114ZM20.5 3.02783L19.0559 4.38164C19.0278 4.40798 18.9986 4.43316 18.9684 4.45709C16.9565 6.05308 14.3657 6.98307 11.662 7.13796C11.6353 7.13949 11.6086 7.14025 11.5819 7.14025H6.69461C5.6803 7.14025 4.7999 7.60521 4.03418 8.39484C4.01252 8.41718 3.99011 8.43879 3.96701 8.45964C3.22009 9.1336 2.80003 10.1316 2.80003 11.3402C2.80003 13.7112 4.67963 15.5401 6.69461 15.5401C7.46781 15.5401 8.09462 16.1669 8.09462 16.9401V23.94C8.09462 24.7085 8.68836 25.2 9.13827 25.2C9.63388 25.2 10.1819 24.7987 10.1819 23.94V16.9401C10.1819 16.1669 10.8087 15.5401 11.5819 15.5401C14.3368 15.5401 16.9875 16.486 19.0321 18.4161L20.4434 19.6069C21.2506 20.1408 22.4002 19.6002 22.4002 18.4801V4.20026C22.4002 3.61109 22.0855 3.16219 21.6857 2.94346C21.3181 2.7423 20.8947 2.73571 20.5 3.02783Z" fill="url(#paint0_radial_1243_1650)"/>
<path fill-rule="evenodd" clip-rule="evenodd" d="M29.4003 6.99981C30.1735 6.99981 30.8003 7.62661 30.8003 8.39982V13.9999C30.8003 14.7731 30.1735 15.3999 29.4003 15.3999C28.6271 15.3999 28.0003 14.7731 28.0003 13.9999V8.39982C28.0003 7.62661 28.6271 6.99981 29.4003 6.99981Z" fill="url(#paint1_radial_1243_1650)"/>
<defs>
<radialGradient id="paint0_radial_1243_1650" cx="0" cy="0" r="1" gradientUnits="userSpaceOnUse" gradientTransform="translate(15.4001 14) rotate(100.679) scale(17.8084 19.4727)">
<stop stop-color="#FD9BE8"/>
<stop offset="0.338542" stop-color="#7A73FF"/>
<stop offset="0.734375" stop-color="#75CDFF"/>
<stop offset="1" stop-color="#4AFCF1"/>
</radialGradient>
<radialGradient id="paint1_radial_1243_1650" cx="0" cy="0" r="1" gradientUnits="userSpaceOnUse" gradientTransform="translate(15.4001 14) rotate(100.679) scale(17.8084 19.4727)">
<stop stop-color="#FD9BE8"/>
<stop offset="0.338542" stop-color="#7A73FF"/>
<stop offset="0.734375" stop-color="#75CDFF"/>
<stop offset="1" stop-color="#4AFCF1"/>
</radialGradient>
</defs>
</svg>
