<svg width="29" height="28" viewBox="0 0 29 28" fill="none" xmlns="http://www.w3.org/2000/svg">
<path d="M22.9279 17.1343C20.0025 17.1343 17.495 19.5025 17.495 22.5672C17.495 25.4925 19.8632 28 22.9279 28C25.8532 28 28.3607 25.6318 28.3607 22.5672C28.3607 19.5025 25.9925 17.1343 22.9279 17.1343ZM22.9279 25.0746C21.5348 25.0746 20.2811 23.9602 20.2811 22.4279C20.2811 21.0348 21.3955 19.7811 22.9279 19.7811C24.3209 19.7811 25.5746 20.8955 25.5746 22.4279C25.5746 23.9602 24.4602 25.0746 22.9279 25.0746Z" fill="url(#paint0_radial_1243_1368)"/>
<path d="M12.6194 11.7015C12.7587 11.7015 13.0373 11.7015 13.1766 11.5622L18.7488 8.77612C19.7239 10.0299 21.2562 10.8657 22.9279 10.8657C25.9925 10.7264 28.3607 8.35821 28.3607 5.43284C28.3607 2.50746 25.9925 0 22.9279 0C20.0025 0 17.495 2.36816 17.495 5.43284C17.495 5.71144 17.495 5.99005 17.6343 6.26866L11.9229 9.05473C11.2264 9.47264 10.9478 10.3085 11.3657 10.8657C11.505 11.4229 12.0622 11.7015 12.6194 11.7015ZM22.9279 2.78607C24.3209 2.78607 25.5746 3.9005 25.5746 5.43284C25.5746 6.82587 24.4602 8.0796 22.9279 8.0796C21.5348 8.0796 20.2811 6.96517 20.2811 5.43284C20.4204 3.9005 21.5348 2.78607 22.9279 2.78607Z" fill="url(#paint1_radial_1243_1368)"/>
<path d="M16.7985 18.1095L11.0871 15.3234C11.2264 14.9055 11.2264 14.4876 11.2264 13.9303C11.2264 11.005 8.85821 8.49751 5.79353 8.49751C2.72886 8.49751 0.5 11.005 0.5 13.9303C0.5 16.8557 2.86816 19.3632 5.93284 19.3632C7.46517 19.3632 8.85821 18.806 9.83333 17.6915L15.6841 20.6169C15.8234 20.7562 16.102 20.7562 16.2413 20.7562C16.7985 20.7562 17.2164 20.4776 17.495 19.9204C17.7736 19.3632 17.495 18.5274 16.7985 18.1095ZM5.93284 16.5771C4.4005 16.5771 3.28607 15.3234 3.28607 13.9303C3.28607 12.5373 4.4005 11.2836 5.93284 11.2836C7.32587 11.2836 8.5796 12.398 8.5796 13.9303C8.4403 15.3234 7.32587 16.5771 5.93284 16.5771Z" fill="url(#paint2_radial_1243_1368)"/>
<defs>
<radialGradient id="paint0_radial_1243_1368" cx="0" cy="0" r="1" gradientUnits="userSpaceOnUse" gradientTransform="translate(14.4303 14) rotate(99.6801) scale(17.7528 17.6694)">
<stop stop-color="#FD9BE8"/>
<stop offset="0.338542" stop-color="#7A73FF"/>
<stop offset="0.734375" stop-color="#75CDFF"/>
<stop offset="1" stop-color="#4AFCF1"/>
</radialGradient>
<radialGradient id="paint1_radial_1243_1368" cx="0" cy="0" r="1" gradientUnits="userSpaceOnUse" gradientTransform="translate(14.4303 14) rotate(99.6801) scale(17.7528 17.6694)">
<stop stop-color="#FD9BE8"/>
<stop offset="0.338542" stop-color="#7A73FF"/>
<stop offset="0.734375" stop-color="#75CDFF"/>
<stop offset="1" stop-color="#4AFCF1"/>
</radialGradient>
<radialGradient id="paint2_radial_1243_1368" cx="0" cy="0" r="1" gradientUnits="userSpaceOnUse" gradientTransform="translate(14.4303 14) rotate(99.6801) scale(17.7528 17.6694)">
<stop stop-color="#FD9BE8"/>
<stop offset="0.338542" stop-color="#7A73FF"/>
<stop offset="0.734375" stop-color="#75CDFF"/>
<stop offset="1" stop-color="#4AFCF1"/>
</radialGradient>
</defs>
</svg>
