<svg width="29" height="28" viewBox="0 0 29 28" fill="none" xmlns="http://www.w3.org/2000/svg">
<path d="M3.02 28C2.32 28 1.76 27.72 1.2 27.3C0.5 26.6 0.36 25.62 0.64 24.78L2.04 20.44C1.06 18.48 0.5 16.24 0.5 14C0.5 6.3 6.8 0 14.5 0C22.2 0 28.5 6.3 28.5 14C28.5 21.7 22.2 28 14.5 28C12.26 28 10.02 27.44 8.06 26.46L3.72 27.86C3.58 28 3.3 28 3.02 28ZM8.9 23.66C10.58 24.64 12.54 25.2 14.5 25.2C20.66 25.2 25.7 20.16 25.7 14C25.7 7.84 20.66 2.8 14.5 2.8C8.34 2.8 3.3 7.84 3.3 14C3.3 15.96 3.86 17.92 4.84 19.6C4.98 19.88 5.12 20.3 4.98 20.72L3.58 25.06L7.92 23.66C7.92 23.66 8.76307 23.5915 8.9 23.66Z" fill="url(#paint0_radial_1243_1493)"/>
<path d="M14.5 16.24C15.7371 16.24 16.74 15.2371 16.74 14C16.74 12.7629 15.7371 11.76 14.5 11.76C13.2629 11.76 12.26 12.7629 12.26 14C12.26 15.2371 13.2629 16.24 14.5 16.24Z" fill="url(#paint1_radial_1243_1493)"/>
<path d="M7.64 16.24C8.87712 16.24 9.88 15.2371 9.88 14C9.88 12.7629 8.87712 11.76 7.64 11.76C6.40288 11.76 5.4 12.7629 5.4 14C5.4 15.2371 6.40288 16.24 7.64 16.24Z" fill="url(#paint2_radial_1243_1493)"/>
<path d="M21.36 16.24C22.5971 16.24 23.6 15.2371 23.6 14C23.6 12.7629 22.5971 11.76 21.36 11.76C20.1229 11.76 19.12 12.7629 19.12 14C19.12 15.2371 20.1229 16.24 21.36 16.24Z" fill="url(#paint3_radial_1243_1493)"/>
<defs>
<radialGradient id="paint0_radial_1243_1493" cx="0" cy="0" r="1" gradientUnits="userSpaceOnUse" gradientTransform="translate(14.5 14) rotate(99.7276) scale(17.7553)">
<stop stop-color="#FD9BE8"/>
<stop offset="0.338542" stop-color="#7A73FF"/>
<stop offset="0.734375" stop-color="#75CDFF"/>
<stop offset="1" stop-color="#4AFCF1"/>
</radialGradient>
<radialGradient id="paint1_radial_1243_1493" cx="0" cy="0" r="1" gradientUnits="userSpaceOnUse" gradientTransform="translate(14.5 14) rotate(99.7276) scale(17.7553)">
<stop stop-color="#FD9BE8"/>
<stop offset="0.338542" stop-color="#7A73FF"/>
<stop offset="0.734375" stop-color="#75CDFF"/>
<stop offset="1" stop-color="#4AFCF1"/>
</radialGradient>
<radialGradient id="paint2_radial_1243_1493" cx="0" cy="0" r="1" gradientUnits="userSpaceOnUse" gradientTransform="translate(14.5 14) rotate(99.7276) scale(17.7553)">
<stop stop-color="#FD9BE8"/>
<stop offset="0.338542" stop-color="#7A73FF"/>
<stop offset="0.734375" stop-color="#75CDFF"/>
<stop offset="1" stop-color="#4AFCF1"/>
</radialGradient>
<radialGradient id="paint3_radial_1243_1493" cx="0" cy="0" r="1" gradientUnits="userSpaceOnUse" gradientTransform="translate(14.5 14) rotate(99.7276) scale(17.7553)">
<stop stop-color="#FD9BE8"/>
<stop offset="0.338542" stop-color="#7A73FF"/>
<stop offset="0.734375" stop-color="#75CDFF"/>
<stop offset="1" stop-color="#4AFCF1"/>
</radialGradient>
</defs>
</svg>
