<svg width="40" height="40" viewBox="0 0 40 40" fill="none" xmlns="http://www.w3.org/2000/svg">
<path d="M1.74846e-06 20C7.83308e-07 31.04 8.96 40 20 40C31.04 40 40 31.04 40 20C40 8.96 31.04 -7.83308e-07 20 -1.74846e-06C8.96 -2.7136e-06 2.7136e-06 8.96 1.74846e-06 20ZM36 20C36 28.84 28.84 36 20 36C11.16 36 4 28.84 4 20C4 11.16 11.16 4 20 4C28.84 4 36 11.16 36 20ZM12 20L20 12L22.82 14.82L19.66 18L28 18L28 22L19.66 22L22.84 25.18L20 28L12 20Z" fill="url(#paint0_linear_277_30771)"/>
<defs>
<linearGradient id="paint0_linear_277_30771" x1="-22.5" y1="80" x2="61.3268" y2="51.0753" gradientUnits="userSpaceOnUse">
<stop offset="0.338542" stop-color="#7A73FF"/>
<stop offset="0.734375" stop-color="#75CDFF"/>
<stop offset="1" stop-color="#4AFCF1"/>
</linearGradient>
</defs>
</svg>
