<svg width="25" height="32" viewBox="0 0 25 32" fill="none" xmlns="http://www.w3.org/2000/svg">
<path d="M7.22615 32C6.7741 32 6.32206 31.8539 5.87001 31.7079C4.66456 31.1236 4.06183 29.9551 4.3632 28.7866L6.17138 20.3148H3.45911C2.25366 20.3148 1.19889 19.5845 0.74684 18.5621C0.294796 17.5396 0.445477 16.3711 1.34957 15.6408L15.6643 0.888225C16.5684 0.0118365 18.0752 -0.280293 19.13 0.303966C20.3354 0.888225 20.9382 2.05674 20.6368 3.22526L18.8286 11.697H21.5409C22.7463 11.697 23.8011 12.4273 24.2532 13.4498C24.7052 14.4722 24.5545 15.6408 23.6504 16.3711L9.33569 31.1236C8.73296 31.7079 7.97955 32 7.22615 32ZM7.97955 17.2475C8.4316 17.2475 8.88364 17.3935 9.18501 17.8317C9.48637 18.2699 9.63705 18.5621 9.48637 19.0002L7.52751 28.9326L21.5409 14.4722H17.1711C16.7191 14.4722 16.267 14.3262 15.9657 13.888C15.6643 13.5959 15.5136 13.1577 15.6643 12.7195L17.6232 2.78707L3.60979 17.3935L7.97955 17.2475Z" fill="url(#paint0_radial_1243_1777)"/>
<defs>
<radialGradient id="paint0_radial_1243_1777" cx="0" cy="0" r="1" gradientUnits="userSpaceOnUse" gradientTransform="translate(12.5 16) rotate(97.3264) scale(20.1646 15.3148)">
<stop stop-color="#FD9BE8"/>
<stop offset="0.338542" stop-color="#7A73FF"/>
<stop offset="0.734375" stop-color="#75CDFF"/>
<stop offset="1" stop-color="#4AFCF1"/>
</radialGradient>
</defs>
</svg>
