<svg width="28" height="28" viewBox="0 0 28 28" fill="none" xmlns="http://www.w3.org/2000/svg">
<path fill-rule="evenodd" clip-rule="evenodd" d="M1.04874 6.2843C-1.20837 4.02335 0.412184 0 3.67871 0H24.3254C27.5919 0 29.2124 4.02331 26.9554 6.28427C26.954 6.28562 26.9527 6.28698 26.9513 6.28833L18.8012 14.5479V21.7689C18.8012 22.9289 18.2378 24.1592 17.1558 24.8302L13.1579 27.5752L13.1413 27.5864C12.2509 28.1793 11.226 28.0772 10.4893 27.6425C9.76786 27.2167 9.2029 26.4076 9.2029 25.4152V14.5479L1.04874 6.2843ZM2.88003 3.36385C2.73103 3.72524 2.7991 4.07517 3.0314 4.30718L3.03864 4.3144L11.5994 12.9901C11.8579 13.2521 12.0029 13.6053 12.0029 13.9734V24.9718L15.6016 22.5008C15.6254 22.4845 15.6497 22.4689 15.6744 22.4541C15.8239 22.3645 16.0012 22.1029 16.0012 21.7689V13.9734C16.0012 13.6053 16.1461 13.2521 16.4047 12.9901L24.9727 4.30715C25.205 4.07514 25.2731 3.72524 25.1241 3.36385C24.9781 3.00977 24.6867 2.79999 24.3254 2.79999H3.67871C3.31735 2.79999 3.02601 3.00977 2.88003 3.36385Z" fill="url(#paint0_radial_1243_2605)"/>
<defs>
<radialGradient id="paint0_radial_1243_2605" cx="0" cy="0" r="1" gradientUnits="userSpaceOnUse" gradientTransform="translate(14.002 14) rotate(99.729) scale(17.7554 17.7578)">
<stop stop-color="#FD9BE8"/>
<stop offset="0.338542" stop-color="#7A73FF"/>
<stop offset="0.734375" stop-color="#75CDFF"/>
<stop offset="1" stop-color="#4AFCF1"/>
</radialGradient>
</defs>
</svg>
