<svg width="33" height="32" viewBox="0 0 33 32" fill="none" xmlns="http://www.w3.org/2000/svg">
<g id="bounding box">
<g id="&#208;&#186;&#208;&#190;&#208;&#189;&#208;&#186;&#209;&#131;&#209;&#128;&#208;&#181;&#208;&#189;&#209;&#130;&#209;&#139;">
<path d="M12.4273 13.2C13.1909 13.2 13.7 12.6909 13.7 11.9273C13.7 10.4 14.9727 9.12727 16.5 9.12727C18.0273 9.12727 19.3 10.4 19.3 11.9273C19.3 12.6909 19.8091 13.2 20.5727 13.2C21.3364 13.2 21.8455 12.6909 21.8455 11.9273C21.8455 9 19.4273 6.58182 16.5 6.58182C13.5727 6.58182 11.1545 9 11.1545 11.9273C11.1545 12.5636 11.7909 13.2 12.4273 13.2Z" fill="url(#paint0_radial_1243_1963)"/>
<path d="M29.2273 14.7273H3.77273C3.00909 14.7273 2.5 15.2364 2.5 16C2.5 16.7636 3.00909 17.2727 3.77273 17.2727H10.2636C9.5 18.0364 8.86364 18.9273 8.48182 19.9455C8.1 20.9636 8.22727 22.1091 8.73636 23C9.37273 23.8909 10.3909 24.5273 11.5364 24.5273H21.2091C22.3545 24.5273 23.3727 24.0182 24.0091 23C24.6455 22.1091 24.7727 20.9636 24.2636 19.9455C23.8818 18.9273 23.2455 18.0364 22.4818 17.2727H29.2273C29.9909 17.2727 30.5 16.7636 30.5 16C30.5 15.2364 29.9909 14.7273 29.2273 14.7273ZM22.1 20.9636C22.2273 21.2182 22.1 21.4727 21.9727 21.6C21.8455 21.8545 21.5909 21.9818 21.2091 21.9818H11.6636C11.4091 21.9818 11.1545 21.8545 10.9 21.6C10.7727 21.4727 10.6455 21.2182 10.7727 20.9636C11.5364 19.0545 13.3182 17.6545 15.3545 17.2727H17.3909C19.5545 17.6545 21.3364 19.0545 22.1 20.9636Z" fill="url(#paint1_radial_1243_1963)"/>
<path d="M29.2273 20.4545C28.4636 20.4545 27.9545 20.9636 27.9545 21.7273V24.0182C27.9545 25.9273 26.4273 27.3273 24.6455 27.3273H22.3545C21.5909 27.3273 21.0818 27.8364 21.0818 28.6C21.0818 29.3636 21.5909 29.8727 22.3545 29.8727H24.6455C27.9545 29.8727 30.5 27.2 30.5 24.0182V21.7273C30.5 21.0909 29.9909 20.4545 29.2273 20.4545Z" fill="url(#paint2_radial_1243_1963)"/>
<path d="M10.7727 27.4545H8.35455C6.57273 27.4545 5.04545 25.9273 5.04545 24.1455V21.8545C5.04545 21.0909 4.53636 20.5818 3.77273 20.5818C3.00909 20.5818 2.5 21.0909 2.5 21.8545V24.1455C2.5 27.3273 5.17273 30 8.35455 30H10.6455C11.4091 30 11.9182 29.4909 11.9182 28.7273C11.9182 27.9636 11.4091 27.4545 10.7727 27.4545Z" fill="url(#paint3_radial_1243_1963)"/>
<path d="M3.77273 11.5455C4.53636 11.5455 5.04545 11.0364 5.04545 10.2727V7.85455C5.04545 6.07273 6.57273 4.54545 8.35455 4.54545H10.6455C11.4091 4.54545 11.9182 4.03636 11.9182 3.27273C11.9182 2.50909 11.4091 2 10.7727 2H8.35455C5.17273 2 2.5 4.67273 2.5 7.85455V10.1455C2.5 10.9091 3.00909 11.5455 3.77273 11.5455Z" fill="url(#paint4_radial_1243_1963)"/>
<path d="M24.6455 2H22.3545C21.5909 2 21.0818 2.50909 21.0818 3.27273C21.0818 4.03636 21.5909 4.54545 22.3545 4.54545H24.6455C26.4273 4.54545 27.9545 6.07273 27.9545 7.85455V10.1455C27.9545 10.9091 28.4636 11.4182 29.2273 11.4182C29.9909 11.4182 30.5 10.9091 30.5 10.1455V7.85455C30.5 4.67273 27.8273 2 24.6455 2Z" fill="url(#paint5_radial_1243_1963)"/>
</g>
</g>
<defs>
<radialGradient id="paint0_radial_1243_1963" cx="0" cy="0" r="1" gradientUnits="userSpaceOnUse" gradientTransform="translate(16.5 16) rotate(99.7276) scale(17.7553)">
<stop stop-color="#FD9BE8"/>
<stop offset="0.338542" stop-color="#7A73FF"/>
<stop offset="0.734375" stop-color="#75CDFF"/>
<stop offset="1" stop-color="#4AFCF1"/>
</radialGradient>
<radialGradient id="paint1_radial_1243_1963" cx="0" cy="0" r="1" gradientUnits="userSpaceOnUse" gradientTransform="translate(16.5 16) rotate(99.7276) scale(17.7553)">
<stop stop-color="#FD9BE8"/>
<stop offset="0.338542" stop-color="#7A73FF"/>
<stop offset="0.734375" stop-color="#75CDFF"/>
<stop offset="1" stop-color="#4AFCF1"/>
</radialGradient>
<radialGradient id="paint2_radial_1243_1963" cx="0" cy="0" r="1" gradientUnits="userSpaceOnUse" gradientTransform="translate(16.5 16) rotate(99.7276) scale(17.7553)">
<stop stop-color="#FD9BE8"/>
<stop offset="0.338542" stop-color="#7A73FF"/>
<stop offset="0.734375" stop-color="#75CDFF"/>
<stop offset="1" stop-color="#4AFCF1"/>
</radialGradient>
<radialGradient id="paint3_radial_1243_1963" cx="0" cy="0" r="1" gradientUnits="userSpaceOnUse" gradientTransform="translate(16.5 16) rotate(99.7276) scale(17.7553)">
<stop stop-color="#FD9BE8"/>
<stop offset="0.338542" stop-color="#7A73FF"/>
<stop offset="0.734375" stop-color="#75CDFF"/>
<stop offset="1" stop-color="#4AFCF1"/>
</radialGradient>
<radialGradient id="paint4_radial_1243_1963" cx="0" cy="0" r="1" gradientUnits="userSpaceOnUse" gradientTransform="translate(16.5 16) rotate(99.7276) scale(17.7553)">
<stop stop-color="#FD9BE8"/>
<stop offset="0.338542" stop-color="#7A73FF"/>
<stop offset="0.734375" stop-color="#75CDFF"/>
<stop offset="1" stop-color="#4AFCF1"/>
</radialGradient>
<radialGradient id="paint5_radial_1243_1963" cx="0" cy="0" r="1" gradientUnits="userSpaceOnUse" gradientTransform="translate(16.5 16) rotate(99.7276) scale(17.7553)">
<stop stop-color="#FD9BE8"/>
<stop offset="0.338542" stop-color="#7A73FF"/>
<stop offset="0.734375" stop-color="#75CDFF"/>
<stop offset="1" stop-color="#4AFCF1"/>
</radialGradient>
</defs>
</svg>
