<svg width="33" height="32" viewBox="0 0 33 32" fill="none" xmlns="http://www.w3.org/2000/svg">
<g id="bounding box">
<path id="&#208;&#188;&#208;&#190;&#208;&#189;&#208;&#184;&#209;&#130;&#208;&#190;&#209;&#128;&#208;&#184;&#208;&#189;&#208;&#179;" d="M27.2318 2.43284C26.6549 1.85572 25.7895 1.85572 25.2125 2.43284C24.6356 3.00995 24.6356 3.87562 25.2125 4.45274C27.8088 7.04975 29.2512 10.5124 29.2512 14.2637C29.2512 18.0149 27.8088 21.4776 25.2125 24.0746C22.6162 26.6716 19.1546 28.1144 15.4044 28.1144C12.2312 28.1144 9.05796 26.9602 6.60593 24.9403L8.48101 22.9204C10.5003 24.5075 12.9524 25.2289 15.2602 25.2289C18.1449 25.2289 20.8854 24.2189 23.049 22.0547C27.3761 17.7264 27.3761 10.6567 23.049 6.47264C18.7218 2.14428 11.6542 2.14428 7.47135 6.47264C3.57695 10.3682 3.14424 16.5721 6.46169 20.9005L3.43271 24.0746C2.85576 24.6517 2.85576 25.5174 3.43271 26.0945C6.60593 29.2687 10.7888 31 15.2602 31C19.7315 31 23.9144 29.2687 27.0876 26.0945C30.2608 22.9204 31.9917 18.7363 31.9917 14.2637C32.1359 9.79104 30.405 5.60697 27.2318 2.43284ZM9.63491 8.49254C11.2215 6.90547 13.3851 6.0398 15.4044 6.0398C17.5679 6.0398 19.5873 6.90547 21.1739 8.49254C24.3471 11.6667 24.3471 16.8607 21.1739 20.0348C18.0007 23.209 12.8081 23.209 9.63491 20.0348C6.46169 16.8607 6.46169 11.6667 9.63491 8.49254Z" fill="url(#paint0_radial_1243_2443)"/>
</g>
<defs>
<radialGradient id="paint0_radial_1243_2443" cx="0" cy="0" r="1" gradientUnits="userSpaceOnUse" gradientTransform="translate(17.5 16.5) rotate(99.7276) scale(18.3894)">
<stop stop-color="#FD9BE8"/>
<stop offset="0.338542" stop-color="#7A73FF"/>
<stop offset="0.734375" stop-color="#75CDFF"/>
<stop offset="1" stop-color="#4AFCF1"/>
</radialGradient>
</defs>
</svg>
