<svg width="33" height="32" viewBox="0 0 33 32" fill="none" xmlns="http://www.w3.org/2000/svg">
<path d="M22.4094 22.0454C21.864 22.0454 21.4549 21.7727 21.1822 21.3636L19.5459 18.5C18.8641 17 17.5005 15.6363 16.0006 14.8182L13.1371 13.1818C12.728 13.0454 12.4553 12.5 12.4553 12.0909C12.4553 11.5454 12.728 11.1363 13.1371 10.8636L16.0006 9.22726C17.5005 8.40908 18.8641 7.18181 19.6823 5.54545L21.3186 2.68182C21.4549 2.27273 22.0004 2 22.4094 2C22.9549 2 23.364 2.27273 23.6367 2.68182L25.273 5.54545C26.0911 7.04544 27.4547 8.40908 28.9547 9.22726L31.8182 10.8636C32.2273 11.1363 32.5 11.5454 32.5 12.0909C32.5 12.6363 32.2273 13.0454 31.8182 13.3182L28.9547 14.9545C27.4547 15.7727 26.0911 17.1363 25.273 18.6363L23.6367 21.5C23.364 21.7727 22.9549 22.0454 22.4094 22.0454ZM16.6824 12.0909L17.3642 12.5C19.4096 13.5909 21.0459 15.2272 22.1367 17.2727L22.5458 17.9545L22.9549 17.2727C24.0458 15.2272 25.6821 13.5909 27.7274 12.5L28.4092 12.0909L27.7274 11.6818C25.6821 10.5909 24.0458 8.95453 22.9549 6.90908L22.5458 6.22726L22.1367 6.90908C21.0459 8.95453 19.4096 10.5909 17.3642 11.6818L16.6824 12.0909Z" fill="url(#paint0_radial_1243_1323)"/>
<path d="M9.99973 32C9.4543 32 9.04522 31.7273 8.7725 31.3182L7.95435 29.6818C7.27256 28.3182 6.18169 27.2273 4.8181 26.5455L3.18179 25.7273C2.77272 25.4546 2.5 24.9091 2.5 24.5C2.5 23.9546 2.77272 23.5455 3.18179 23.2727L4.8181 22.4546C6.18169 21.7727 7.27256 20.6818 7.95435 19.3182L8.7725 17.6818C9.31794 16.8637 10.6815 16.8637 11.227 17.6818L12.0451 19.3182C12.7269 20.6818 13.8178 21.7727 15.1814 22.4546L16.8177 23.2727C17.2267 23.5455 17.4995 23.9546 17.4995 24.5C17.4995 25.0455 17.2267 25.4546 16.8177 25.7273L15.3177 26.5455C13.9541 27.2273 12.8633 28.3182 12.1815 29.6818L11.3633 31.3182C10.9542 31.7273 10.5452 32 9.99973 32ZM6.72712 24.5C8.09071 25.3182 9.31794 26.5455 10.1361 27.9091C10.9542 26.5455 12.1815 25.3182 13.5451 24.5C12.0451 23.5455 10.9542 22.4546 9.99973 21.0909C9.18158 22.4546 8.09071 23.5455 6.72712 24.5Z" fill="url(#paint1_radial_1243_1323)"/>
<defs>
<radialGradient id="paint0_radial_1243_1323" cx="0" cy="0" r="1" gradientUnits="userSpaceOnUse" gradientTransform="translate(17.5 17) rotate(99.7276) scale(19.0235)">
<stop stop-color="#FD9BE8"/>
<stop offset="0.338542" stop-color="#7A73FF"/>
<stop offset="0.734375" stop-color="#75CDFF"/>
<stop offset="1" stop-color="#4AFCF1"/>
</radialGradient>
<radialGradient id="paint1_radial_1243_1323" cx="0" cy="0" r="1" gradientUnits="userSpaceOnUse" gradientTransform="translate(17.5 17) rotate(99.7276) scale(19.0235)">
<stop stop-color="#FD9BE8"/>
<stop offset="0.338542" stop-color="#7A73FF"/>
<stop offset="0.734375" stop-color="#75CDFF"/>
<stop offset="1" stop-color="#4AFCF1"/>
</radialGradient>
</defs>
</svg>
