<svg width="31" height="28" viewBox="0 0 31 28" fill="none" xmlns="http://www.w3.org/2000/svg">
<path d="M30.6961 14C30.6961 10.9804 29.049 8.23529 26.5784 6.86275C26.5784 6.72549 26.5784 6.45098 26.5784 6.17647C26.5784 2.7451 23.8333 0 20.402 0C18.4804 0 16.6961 0.960784 15.598 2.33333C14.5 0.960784 12.7157 0 10.7941 0C7.36275 0 4.61765 2.7451 4.61765 6.17647C4.61765 6.45098 4.61765 6.58824 4.61765 6.86275C2.14706 8.23529 0.5 10.9804 0.5 14C0.5 17.0196 2.14706 19.7647 4.61765 21.1373C4.61765 21.4118 4.61765 21.549 4.61765 21.8235C4.61765 25.2549 7.36275 28 10.7941 28C12.7157 28 14.5 27.0392 15.598 25.6667C16.6961 27.0392 18.4804 28 20.402 28C23.8333 28 26.5784 25.2549 26.5784 21.8235C26.5784 21.549 26.5784 21.4118 26.5784 21.1373C29.049 19.6275 30.6961 17.0196 30.6961 14ZM24.5196 19.0784C23.8333 19.3529 23.5588 20.0392 23.6961 20.7255C23.8333 21 23.8333 21.4118 23.8333 21.6863C23.8333 23.6078 22.3235 25.1176 20.402 25.1176C18.6176 25.1176 17.1078 23.7451 16.9706 21.8235C16.9706 21.6863 16.9706 21.6863 16.8333 21.549V21.4118C16.8333 21.2745 16.6961 21.1373 16.6961 21.1373C16.6961 21.1373 16.6961 21 16.5588 21C16.4216 20.8627 16.4216 20.8627 16.2843 20.7255C16.2843 20.7255 16.1471 20.7255 16.1471 20.5882C16.0098 20.5882 15.8725 20.5882 15.8725 20.451H15.7353H15.598C15.4608 20.451 15.4608 20.451 15.3235 20.5882C15.1863 20.5882 15.1863 20.7255 15.049 20.7255C14.9118 20.7255 14.9118 20.8627 14.7745 20.8627L14.6373 21C14.6373 21.1373 14.5 21.1373 14.5 21.2745V21.4118C14.5 21.549 14.3627 21.549 14.3627 21.6863C14.2255 23.4706 12.7157 24.9804 10.9314 24.9804C9.0098 24.9804 7.5 23.4706 7.5 21.549C7.5 21.1373 7.5 20.8627 7.63725 20.5882C7.91176 19.902 7.5 19.2157 6.81373 18.9412C4.61765 18.2549 3.2451 16.1961 3.2451 14C3.2451 11.8039 4.61765 9.7451 6.67647 8.92157C7.36275 8.64706 7.77451 7.82353 7.5 7.13725C7.36275 6.86275 7.36275 6.58824 7.36275 6.17647C7.36275 4.2549 8.87255 2.7451 10.7941 2.7451C12.7157 2.7451 14.2255 4.2549 14.2255 6.17647V17.4314C14.2255 18.2549 14.7745 18.8039 15.598 18.8039C16.4216 18.8039 16.9706 18.2549 16.9706 17.4314V6.17647C16.9706 4.2549 18.4804 2.7451 20.402 2.7451C22.3235 2.7451 23.8333 4.2549 23.8333 6.17647C23.8333 6.58824 23.8333 6.86275 23.6961 7.13725C23.4216 7.82353 23.8333 8.5098 24.5196 8.78431C26.5784 9.7451 27.951 11.6667 27.951 14C27.951 16.1961 26.5784 18.2549 24.5196 19.0784Z" fill="url(#paint0_radial_1243_1901)"/>
<defs>
<radialGradient id="paint0_radial_1243_1901" cx="0" cy="0" r="1" gradientUnits="userSpaceOnUse" gradientTransform="translate(15.598 14) rotate(100.474) scale(17.7965 19.1035)">
<stop stop-color="#FD9BE8"/>
<stop offset="0.338542" stop-color="#7A73FF"/>
<stop offset="0.734375" stop-color="#75CDFF"/>
<stop offset="1" stop-color="#4AFCF1"/>
</radialGradient>
</defs>
</svg>
