<svg width="33" height="32" viewBox="0 0 33 32" fill="none" xmlns="http://www.w3.org/2000/svg">
<g id="bounding box">
<g id="SERM">
<path d="M29.3537 3.61704C27.5298 1.79269 24.4431 1.51202 20.7952 2.77503C19.5325 3.19604 18.2698 3.89771 17.007 4.59938C11.9561 1.65235 7.18583 1.09101 4.66037 3.61704C1.99462 6.14307 2.69613 10.9145 5.64249 15.9665C2.55583 21.1589 2.13492 25.9303 4.66037 28.316C5.64249 29.4387 7.18583 30 9.00977 30C11.3949 30 14.201 29.0177 17.007 27.3336C19.8131 29.0177 22.6192 30 25.0043 30C26.8282 30 28.2313 29.4387 29.3537 28.4563C31.8792 25.9303 31.3179 21.1589 28.3716 16.1068C31.4582 10.7741 31.8792 6.00273 29.3537 3.61704ZM21.637 5.44139C24.3028 4.45905 26.267 4.59938 27.3895 5.58173C28.6522 6.84474 28.3716 9.93211 26.6879 13.3001C25.7058 12.0371 24.7237 10.7741 23.461 9.51111C22.1982 8.24809 20.9355 7.26575 19.6728 6.2834C20.3743 6.00273 21.0758 5.58173 21.637 5.44139ZM6.62462 26.3513C5.36189 25.0883 5.64249 22.0009 7.32613 18.6329C8.30825 19.8959 9.29037 21.1589 10.5531 22.4219C11.8158 23.6849 13.0786 24.8076 14.3413 25.6496C10.8337 27.474 7.88734 27.6143 6.62462 26.3513ZM27.3895 26.3513C26.1267 27.6143 23.1804 27.3336 19.5325 25.6496C20.7952 24.6673 22.0579 23.5446 23.3207 22.4219C23.8819 21.8606 24.4431 21.2992 24.864 20.7379C25.4252 20.1766 25.2849 19.3345 24.7237 18.7732C24.1625 18.2119 23.3207 18.3522 22.7595 18.9135C22.3386 19.4749 21.7773 19.8959 21.3564 20.4572C19.9534 21.8606 18.4101 23.1236 17.007 24.1059C15.604 23.1236 14.0607 21.8606 12.6576 20.4572C6.48431 14.2825 4.52007 7.68675 6.62462 5.58173C7.04552 5.02039 7.88734 4.73972 9.00977 4.73972C10.4128 4.73972 12.377 5.30106 14.3413 6.2834C13.0786 7.26575 11.8158 8.38843 10.5531 9.51111C9.99189 10.2128 9.29037 10.9145 8.72916 11.6161C8.16795 12.1775 8.30825 13.0195 8.86946 13.5808C9.43068 14.1422 10.4128 14.0018 10.8337 13.4405C11.3949 12.7388 11.9561 12.1775 12.5173 11.6161C13.9204 10.2128 15.4637 8.94977 16.8667 7.96742C18.2698 8.94977 19.8131 10.2128 21.3564 11.6161C27.5298 17.6505 29.494 24.2463 27.3895 26.3513Z" fill="url(#paint0_radial_1243_609)"/>
<path d="M17 18.24C18.2371 18.24 19.24 17.2371 19.24 16C19.24 14.7629 18.2371 13.76 17 13.76C15.7629 13.76 14.76 14.7629 14.76 16C14.76 17.2371 15.7629 18.24 17 18.24Z" fill="url(#paint1_radial_1243_609)"/>
</g>
</g>
<defs>
<radialGradient id="paint0_radial_1243_609" cx="0" cy="0" r="1" gradientUnits="userSpaceOnUse" gradientTransform="translate(17 16) rotate(99.7276) scale(17.7553)">
<stop stop-color="#FD9BE8"/>
<stop offset="0.338542" stop-color="#7A73FF"/>
<stop offset="0.734375" stop-color="#75CDFF"/>
<stop offset="1" stop-color="#4AFCF1"/>
</radialGradient>
<radialGradient id="paint1_radial_1243_609" cx="0" cy="0" r="1" gradientUnits="userSpaceOnUse" gradientTransform="translate(17 16) rotate(99.7276) scale(17.7553)">
<stop stop-color="#FD9BE8"/>
<stop offset="0.338542" stop-color="#7A73FF"/>
<stop offset="0.734375" stop-color="#75CDFF"/>
<stop offset="1" stop-color="#4AFCF1"/>
</radialGradient>
</defs>
</svg>
