<svg width="34" height="24" viewBox="0 0 34 24" fill="none" xmlns="http://www.w3.org/2000/svg">
<path d="M10.3545 0H5.40909C2.47273 0 0 2.25 0 5.1V10.2C0 13.05 2.47273 15.3 5.40909 15.3H8.96364C9.89091 15.3 10.5091 14.7 10.5091 13.8C10.5091 12.9 9.89091 12.3 8.96364 12.3H5.40909C4.17273 12.3 3.09091 11.4 3.09091 10.2V5.1C3.09091 3.9 4.17273 3 5.40909 3H10.3545C11.5909 3 12.6727 3.9 12.6727 5.1V17.55C12.6727 19.5 11.1273 21 9.11818 21H6.64545C5.71818 21 5.1 21.6 5.1 22.5C5.1 23.4 5.71818 24 6.64545 24H9.11818C12.8273 24 15.7636 21.15 15.7636 17.55V5.1C15.7636 2.25 13.2909 0 10.3545 0Z" fill="url(#paint0_radial_1243_846)"/>
<path d="M28.5909 0H23.6455C20.7091 0 18.2364 2.25 18.2364 5.1V10.2C18.2364 13.05 20.7091 15.3 23.6455 15.3H27.2C28.1273 15.3 28.7455 14.7 28.7455 13.8C28.7455 12.9 28.1273 12.3 27.2 12.3H23.6455C22.4091 12.3 21.3273 11.4 21.3273 10.2V5.1C21.3273 3.9 22.4091 3 23.6455 3H28.5909C29.8273 3 30.9091 3.9 30.9091 5.1V17.55C30.9091 19.5 29.3636 21 27.3545 21H24.8818C23.9545 21 23.3364 21.6 23.3364 22.5C23.3364 23.4 23.9545 24 24.8818 24H27.3545C31.0636 24 34 21.15 34 17.55V5.1C34 2.25 31.5273 0 28.5909 0Z" fill="url(#paint1_radial_1243_846)"/>
<defs>
<radialGradient id="paint0_radial_1243_846" cx="0" cy="0" r="1" gradientUnits="userSpaceOnUse" gradientTransform="translate(17 12) rotate(103.65) scale(15.436 21.2566)">
<stop stop-color="#FD9BE8"/>
<stop offset="0.338542" stop-color="#7A73FF"/>
<stop offset="0.734375" stop-color="#75CDFF"/>
<stop offset="1" stop-color="#4AFCF1"/>
</radialGradient>
<radialGradient id="paint1_radial_1243_846" cx="0" cy="0" r="1" gradientUnits="userSpaceOnUse" gradientTransform="translate(17 12) rotate(103.65) scale(15.436 21.2566)">
<stop stop-color="#FD9BE8"/>
<stop offset="0.338542" stop-color="#7A73FF"/>
<stop offset="0.734375" stop-color="#75CDFF"/>
<stop offset="1" stop-color="#4AFCF1"/>
</radialGradient>
</defs>
</svg>
