<svg width="30" height="26" viewBox="0 0 30 26" fill="none" xmlns="http://www.w3.org/2000/svg">
<path d="M21.45 0C18.9 0 16.65 1.05202 15 3.00578C13.35 1.05202 11.1 0 8.55 0C3.9 0 0 3.90751 0 8.56647C0 8.86705 0 9.16763 0 9.46821C0.6 16.5318 8.1 22.3931 12.45 25.2486C13.2 25.6994 14.1 26 15 26C15.9 26 16.8 25.6994 17.55 25.2486C21.9 22.3931 29.4 16.5318 30 9.6185C30 9.31792 30 9.01734 30 8.71676C30 3.90751 26.1 0 21.45 0ZM27 9.16763C26.55 15.1792 19.05 20.5896 15.9 22.5434C15.3 22.8439 14.7 22.8439 14.1 22.5434C10.95 20.4393 3.6 15.0289 3 9.01734C3 9.01734 3 8.71676 3 8.56647C3 5.56069 5.55 3.00578 8.55 3.00578C10.8 3.00578 12.75 4.35838 13.65 6.31214C13.8 6.91329 14.4 7.21387 15 7.21387C15.6 7.21387 16.2 6.91329 16.35 6.31214C17.25 4.35838 19.2 3.00578 21.45 3.00578C24.45 3.00578 27 5.56069 27 8.56647C27 8.71676 27 9.01734 27 9.16763Z" fill="url(#paint0_radial_1243_1136)"/>
<defs>
<radialGradient id="paint0_radial_1243_1136" cx="0" cy="0" r="1" gradientUnits="userSpaceOnUse" gradientTransform="translate(15 13) rotate(101.189) scale(16.5648 18.9342)">
<stop stop-color="#FD9BE8"/>
<stop offset="0.338542" stop-color="#7A73FF"/>
<stop offset="0.734375" stop-color="#75CDFF"/>
<stop offset="1" stop-color="#4AFCF1"/>
</radialGradient>
</defs>
</svg>
