<svg width="88" height="114" viewBox="0 0 88 114" fill="none" xmlns="http://www.w3.org/2000/svg">
<g filter="url(#filter0_d_621_47481)">
<rect x="9" y="8" width="68" height="94" rx="12" fill="white"/>
<path fill-rule="evenodd" clip-rule="evenodd" d="M51.0298 32.4871C52.2931 33.1784 53.2002 34.5494 53.2002 36.2003V50.4801C53.2002 53.8221 49.4994 55.8022 46.7782 53.8595C46.7475 53.8376 46.7177 53.8144 46.6889 53.7901L45.1955 52.5301C45.1742 52.5121 45.1533 52.4934 45.1331 52.4741C43.9851 51.3813 42.5541 50.7004 40.9819 50.4495V55.94C40.9819 58.1613 39.3578 60 37.1383 60C34.873 60 33.2946 57.9715 33.2946 55.94V50.1827C30.2757 49.4944 28 46.6359 28 43.3402C28 41.4843 28.655 39.6966 30.056 38.4128C31.1883 37.2578 32.7407 36.3402 34.6946 36.3402H39.5407C41.6887 36.2098 43.6808 35.4746 45.1846 34.2978L46.6342 32.9389C46.6623 32.9126 46.6915 32.8874 46.7216 32.8635C48.0811 31.7851 49.7463 31.7848 51.0298 32.4871ZM48.5 35.0278L47.0559 36.3816C47.0278 36.408 46.9986 36.4332 46.9684 36.4571C44.9565 38.0531 42.3657 38.9831 39.662 39.138C39.6353 39.1395 39.6086 39.1403 39.5819 39.1403H34.6946C33.6803 39.1403 32.7999 39.6052 32.0342 40.3948C32.0125 40.4172 31.9901 40.4388 31.967 40.4596C31.2201 41.1336 30.8 42.1316 30.8 43.3402C30.8 45.7112 32.6796 47.5401 34.6946 47.5401C35.4678 47.5401 36.0946 48.1669 36.0946 48.9401V55.94C36.0946 56.7085 36.6884 57.2 37.1383 57.2C37.6339 57.2 38.1819 56.7987 38.1819 55.94V48.9401C38.1819 48.1669 38.8087 47.5401 39.5819 47.5401C42.3368 47.5401 44.9875 48.486 47.0321 50.4161L48.4434 51.6069C49.2506 52.1408 50.4002 51.6002 50.4002 50.4801V36.2003C50.4002 35.6111 50.0855 35.1622 49.6857 34.9435C49.3181 34.7423 48.8947 34.7357 48.5 35.0278Z" fill="url(#paint0_radial_621_47481)"/>
<path fill-rule="evenodd" clip-rule="evenodd" d="M57.4003 38.9998C58.1735 38.9998 58.8003 39.6266 58.8003 40.3998V45.9999C58.8003 46.7731 58.1735 47.3999 57.4003 47.3999C56.6271 47.3999 56.0003 46.7731 56.0003 45.9999V40.3998C56.0003 39.6266 56.6271 38.9998 57.4003 38.9998Z" fill="url(#paint1_radial_621_47481)"/>
<path d="M28.2112 79.6562V79.5859H29.3713V79.6504C29.3713 80.1621 29.5647 80.5449 29.9514 80.7988C30.342 81.0527 30.8889 81.1797 31.592 81.1797C32.2913 81.1797 32.8264 81.0508 33.1975 80.793C33.5725 80.5312 33.76 80.1875 33.76 79.7617C33.76 79.3789 33.5862 79.0742 33.2385 78.8477C32.8948 78.6172 32.2073 78.3711 31.176 78.1094C30.133 77.8438 29.4084 77.5312 29.0022 77.1719C28.5998 76.8125 28.3987 76.2988 28.3987 75.6309C28.3987 74.9629 28.6741 74.4062 29.2248 73.9609C29.7795 73.5156 30.5471 73.293 31.5276 73.293C32.5041 73.293 33.2815 73.5312 33.8596 74.0078C34.4377 74.4844 34.7268 75.0762 34.7268 75.7832V75.8477H33.5666V75.7832C33.5666 75.334 33.3948 74.9727 33.051 74.6992C32.7112 74.4258 32.2034 74.2891 31.5276 74.2891C30.8518 74.2891 30.3518 74.4062 30.0276 74.6406C29.7073 74.8711 29.5471 75.1855 29.5471 75.584C29.5471 75.9512 29.7092 76.2422 30.0334 76.457C30.3616 76.668 31.0198 76.8965 32.008 77.1426C33.0432 77.4043 33.7854 77.7285 34.2346 78.1152C34.6838 78.502 34.9084 79.0488 34.9084 79.7559C34.9084 80.4629 34.6096 81.043 34.012 81.4961C33.4182 81.9492 32.6116 82.1758 31.592 82.1758C30.5686 82.1758 29.7483 81.9512 29.1311 81.502C28.5178 81.0488 28.2112 80.4336 28.2112 79.6562ZM36.6484 82V73.4688H38.1719L40.9434 79.8848C40.9941 80.002 41.043 80.125 41.0898 80.2539C41.1406 80.3789 41.1855 80.4961 41.2246 80.6055H41.2715C41.3066 80.4961 41.3477 80.3789 41.3945 80.2539C41.4414 80.125 41.4902 80.002 41.541 79.8848L44.2949 73.4688H45.8477V82H44.7227V75.7305C44.7227 75.6133 44.7246 75.4824 44.7285 75.3379C44.7363 75.1895 44.748 75.0566 44.7637 74.9395H44.7109C44.6797 75.0566 44.6367 75.1895 44.582 75.3379C44.5312 75.4824 44.4805 75.6133 44.4297 75.7305L41.7461 82H40.709L38.0078 75.7305C37.957 75.6133 37.9062 75.4824 37.8555 75.3379C37.8086 75.1895 37.7715 75.0566 37.7441 74.9395H37.6914C37.7031 75.0566 37.7129 75.1895 37.7207 75.3379C37.7324 75.4824 37.7383 75.6133 37.7383 75.7305V82H36.6484ZM48.115 82V73.4688H49.6384L52.4099 79.8848C52.4607 80.002 52.5095 80.125 52.5564 80.2539C52.6072 80.3789 52.6521 80.4961 52.6912 80.6055H52.738C52.7732 80.4961 52.8142 80.3789 52.8611 80.2539C52.908 80.125 52.9568 80.002 53.0076 79.8848L55.7615 73.4688H57.3142V82H56.1892V75.7305C56.1892 75.6133 56.1912 75.4824 56.1951 75.3379C56.2029 75.1895 56.2146 75.0566 56.2302 74.9395H56.1775C56.1462 75.0566 56.1033 75.1895 56.0486 75.3379C55.9978 75.4824 55.947 75.6133 55.8962 75.7305L53.2127 82H52.1755L49.4744 75.7305C49.4236 75.6133 49.3728 75.4824 49.322 75.3379C49.2752 75.1895 49.238 75.0566 49.2107 74.9395H49.158C49.1697 75.0566 49.1795 75.1895 49.1873 75.3379C49.199 75.4824 49.2048 75.6133 49.2048 75.7305V82H48.115Z" fill="#04101C"/>
</g>
<defs>
<filter id="filter0_d_621_47481" x="0" y="0" width="88" height="114" filterUnits="userSpaceOnUse" color-interpolation-filters="sRGB">
<feFlood flood-opacity="0" result="BackgroundImageFix"/>
<feColorMatrix in="SourceAlpha" type="matrix" values="0 0 0 0 0 0 0 0 0 0 0 0 0 0 0 0 0 0 127 0" result="hardAlpha"/>
<feOffset dx="1" dy="2"/>
<feGaussianBlur stdDeviation="5"/>
<feComposite in2="hardAlpha" operator="out"/>
<feColorMatrix type="matrix" values="0 0 0 0 0.00780001 0 0 0 0 0.045344 0 0 0 0 0.0800001 0 0 0 0.04 0"/>
<feBlend mode="normal" in2="BackgroundImageFix" result="effect1_dropShadow_621_47481"/>
<feBlend mode="normal" in="SourceGraphic" in2="effect1_dropShadow_621_47481" result="shape"/>
</filter>
<radialGradient id="paint0_radial_621_47481" cx="0" cy="0" r="1" gradientUnits="userSpaceOnUse" gradientTransform="translate(43.4001 46) rotate(100.679) scale(17.8084 19.4727)">
<stop stop-color="#FD9BE8"/>
<stop offset="0.338542" stop-color="#7A73FF"/>
<stop offset="0.734375" stop-color="#75CDFF"/>
<stop offset="1" stop-color="#4AFCF1"/>
</radialGradient>
<radialGradient id="paint1_radial_621_47481" cx="0" cy="0" r="1" gradientUnits="userSpaceOnUse" gradientTransform="translate(43.4001 46) rotate(100.679) scale(17.8084 19.4727)">
<stop stop-color="#FD9BE8"/>
<stop offset="0.338542" stop-color="#7A73FF"/>
<stop offset="0.734375" stop-color="#75CDFF"/>
<stop offset="1" stop-color="#4AFCF1"/>
</radialGradient>
</defs>
</svg>
