<svg width="88" height="114" viewBox="0 0 88 114" fill="none" xmlns="http://www.w3.org/2000/svg">
<g filter="url(#filter0_d_621_47482)">
<rect x="9" y="8" width="68" height="94" rx="12" fill="white"/>
<path d="M36.3545 34H31.4091C28.4727 34 26 36.25 26 39.1V44.2C26 47.05 28.4727 49.3 31.4091 49.3H34.9636C35.8909 49.3 36.5091 48.7 36.5091 47.8C36.5091 46.9 35.8909 46.3 34.9636 46.3H31.4091C30.1727 46.3 29.0909 45.4 29.0909 44.2V39.1C29.0909 37.9 30.1727 37 31.4091 37H36.3545C37.5909 37 38.6727 37.9 38.6727 39.1V51.55C38.6727 53.5 37.1273 55 35.1182 55H32.6455C31.7182 55 31.1 55.6 31.1 56.5C31.1 57.4 31.7182 58 32.6455 58H35.1182C38.8273 58 41.7636 55.15 41.7636 51.55V39.1C41.7636 36.25 39.2909 34 36.3545 34Z" fill="url(#paint0_radial_621_47482)"/>
<path d="M54.5909 34H49.6455C46.7091 34 44.2364 36.25 44.2364 39.1V44.2C44.2364 47.05 46.7091 49.3 49.6455 49.3H53.2C54.1273 49.3 54.7455 48.7 54.7455 47.8C54.7455 46.9 54.1273 46.3 53.2 46.3H49.6455C48.4091 46.3 47.3273 45.4 47.3273 44.2V39.1C47.3273 37.9 48.4091 37 49.6455 37H54.5909C55.8273 37 56.9091 37.9 56.9091 39.1V51.55C56.9091 53.5 55.3636 55 53.3545 55H50.8818C49.9545 55 49.3364 55.6 49.3364 56.5C49.3364 57.4 49.9545 58 50.8818 58H53.3545C57.0636 58 60 55.15 60 51.55V39.1C60 36.25 57.5273 34 54.5909 34Z" fill="url(#paint1_radial_621_47482)"/>
<path d="M29.301 77.9512V77.5176C29.301 76.1816 29.6663 75.1445 30.3967 74.4062C31.1311 73.6641 32.051 73.293 33.1565 73.293C34.2502 73.293 35.0998 73.5684 35.7053 74.1191C36.3108 74.666 36.6389 75.3438 36.6897 76.1523L36.6955 76.2109H35.5295L35.5237 76.1523C35.4963 75.6367 35.2873 75.1973 34.8967 74.834C34.51 74.4707 33.9299 74.2891 33.1565 74.2891C32.3752 74.2891 31.7327 74.5664 31.2288 75.1211C30.7288 75.6719 30.4788 76.4707 30.4788 77.5176V77.9512C30.4788 78.9707 30.7288 79.7637 31.2288 80.3301C31.7327 80.8965 32.3752 81.1797 33.1565 81.1797C33.9299 81.1797 34.5041 80.9941 34.8791 80.623C35.258 80.248 35.4729 79.8125 35.5237 79.3164L35.5295 79.2578H36.6955L36.6897 79.3164C36.6077 80.1133 36.2737 80.7891 35.6877 81.3438C35.1018 81.8984 34.258 82.1758 33.1565 82.1758C32.051 82.1758 31.1311 81.8086 30.3967 81.0742C29.6663 80.3359 29.301 79.2949 29.301 77.9512ZM38.1895 82V73.4688H39.7129L42.4844 79.8848C42.5352 80.002 42.584 80.125 42.6309 80.2539C42.6816 80.3789 42.7266 80.4961 42.7656 80.6055H42.8125C42.8477 80.4961 42.8887 80.3789 42.9355 80.2539C42.9824 80.125 43.0312 80.002 43.082 79.8848L45.8359 73.4688H47.3887V82H46.2637V75.7305C46.2637 75.6133 46.2656 75.4824 46.2695 75.3379C46.2773 75.1895 46.2891 75.0566 46.3047 74.9395H46.252C46.2207 75.0566 46.1777 75.1895 46.123 75.3379C46.0723 75.4824 46.0215 75.6133 45.9707 75.7305L43.2871 82H42.25L39.5488 75.7305C39.498 75.6133 39.4473 75.4824 39.3965 75.3379C39.3496 75.1895 39.3125 75.0566 39.2852 74.9395H39.2324C39.2441 75.0566 39.2539 75.1895 39.2617 75.3379C39.2734 75.4824 39.2793 75.6133 39.2793 75.7305V82H38.1895ZM56.3591 82H55.199V75.7891C55.199 75.6719 55.2009 75.541 55.2048 75.3965C55.2087 75.252 55.2146 75.1211 55.2224 75.0039H55.1755C55.1209 75.1016 55.0584 75.207 54.988 75.3203C54.9216 75.4336 54.8494 75.5527 54.7712 75.6777L50.6052 82H49.3748V73.4688H50.5408V79.6504C50.5408 79.7676 50.5388 79.9062 50.5349 80.0664C50.531 80.2227 50.5252 80.3594 50.5173 80.4766H50.5701C50.617 80.3789 50.6755 80.2695 50.7459 80.1484C50.8201 80.0273 50.8962 79.9062 50.9744 79.7852L55.1345 73.4688H56.3591V82Z" fill="#04101C"/>
</g>
<defs>
<filter id="filter0_d_621_47482" x="0" y="0" width="88" height="114" filterUnits="userSpaceOnUse" color-interpolation-filters="sRGB">
<feFlood flood-opacity="0" result="BackgroundImageFix"/>
<feColorMatrix in="SourceAlpha" type="matrix" values="0 0 0 0 0 0 0 0 0 0 0 0 0 0 0 0 0 0 127 0" result="hardAlpha"/>
<feOffset dx="1" dy="2"/>
<feGaussianBlur stdDeviation="5"/>
<feComposite in2="hardAlpha" operator="out"/>
<feColorMatrix type="matrix" values="0 0 0 0 0.00780001 0 0 0 0 0.045344 0 0 0 0 0.0800001 0 0 0 0.04 0"/>
<feBlend mode="normal" in2="BackgroundImageFix" result="effect1_dropShadow_621_47482"/>
<feBlend mode="normal" in="SourceGraphic" in2="effect1_dropShadow_621_47482" result="shape"/>
</filter>
<radialGradient id="paint0_radial_621_47482" cx="0" cy="0" r="1" gradientUnits="userSpaceOnUse" gradientTransform="translate(43 46) rotate(103.65) scale(15.436 21.2566)">
<stop stop-color="#FD9BE8"/>
<stop offset="0.338542" stop-color="#7A73FF"/>
<stop offset="0.734375" stop-color="#75CDFF"/>
<stop offset="1" stop-color="#4AFCF1"/>
</radialGradient>
<radialGradient id="paint1_radial_621_47482" cx="0" cy="0" r="1" gradientUnits="userSpaceOnUse" gradientTransform="translate(43 46) rotate(103.65) scale(15.436 21.2566)">
<stop stop-color="#FD9BE8"/>
<stop offset="0.338542" stop-color="#7A73FF"/>
<stop offset="0.734375" stop-color="#75CDFF"/>
<stop offset="1" stop-color="#4AFCF1"/>
</radialGradient>
</defs>
</svg>
