<svg width="103" height="114" viewBox="0 0 103 114" fill="none" xmlns="http://www.w3.org/2000/svg">
<g filter="url(#filter0_dd_364_14415)">
<rect x="9" y="8" width="83" height="94" rx="12" fill="white"/>
<path fill-rule="evenodd" clip-rule="evenodd" d="M44.9318 31C44.7631 31 44.5943 31.0646 44.4658 31.1931C44.2088 31.4501 44.2088 31.868 44.4658 32.1251L46.1934 33.8526C44.232 35.2919 42.9545 37.6077 42.9545 40.2273V52.0909C42.9545 52.8185 43.5451 53.4091 44.2727 53.4091H45.5909V58.0227C45.5909 59.1142 46.4767 60 47.5682 60C48.6596 60 49.5455 59.1142 49.5455 58.0227V53.4091H52.1818V58.0227C52.1818 59.1142 53.0676 60 54.1591 60C55.2505 60 56.1364 59.1142 56.1364 58.0227V53.4091H57.4545C58.1822 53.4091 58.7727 52.8185 58.7727 52.0909V40.2273C58.7727 37.6077 57.4953 35.2919 55.5339 33.8526L57.2615 32.1251C57.5185 31.8667 57.5185 31.4515 57.2615 31.1931C57.0044 30.936 56.5865 30.936 56.3295 31.1931L54.3754 33.1472C53.3163 32.6208 52.1267 32.3182 50.8636 32.3182C49.6006 32.3182 48.411 32.6208 47.3519 33.1472L45.3978 31.1931C45.2693 31.0646 45.1005 31 44.9318 31ZM50.8636 34.9545C53.7715 34.9545 56.1364 37.3194 56.1364 40.2273H45.5909C45.5909 37.3194 47.9557 34.9545 50.8636 34.9545ZM48.2273 37.5909V38.9091H49.5455V37.5909H48.2273ZM52.1818 37.5909V38.9091H53.5V37.5909H52.1818ZM56.1364 42.8636V50.7727H49.5455H45.5909V42.8636H56.1364Z" fill="url(#paint0_radial_364_14415)"/>
<path d="M40.3182 41.5455C39.5905 41.5455 39 42.136 39 42.8636V50.7727C39 51.5004 39.5905 52.0909 40.3182 52.0909C41.0458 52.0909 41.6364 51.5004 41.6364 50.7727V42.8636C41.6364 42.136 41.0458 41.5455 40.3182 41.5455Z" fill="url(#paint1_radial_364_14415)"/>
<path d="M61.4091 41.5455C60.6815 41.5455 60.0909 42.136 60.0909 42.8636V50.7727C60.0909 51.5004 60.6815 52.0909 61.4091 52.0909C62.1367 52.0909 62.7273 51.5004 62.7273 50.7727V42.8636C62.7273 42.136 62.1367 41.5455 61.4091 41.5455Z" fill="url(#paint2_radial_364_14415)"/>
<path d="M27.0339 82L30.5261 73.4102H31.6628L35.155 82H33.9245L31.4109 75.6016C31.3445 75.4414 31.2859 75.2891 31.2351 75.1445C31.1882 75 31.1452 74.8535 31.1062 74.7051H31.0417C31.0027 74.8535 30.9577 75 30.907 75.1445C30.8601 75.2891 30.8034 75.4414 30.737 75.6016L28.2058 82H27.0339ZM28.5046 79.7969L28.8855 78.8359L33.28 78.8418L33.655 79.8027L28.5046 79.7969ZM36.2798 82V75.7656H37.2993L37.352 76.6621H37.3813C37.6548 76.3301 37.977 76.0781 38.3481 75.9062C38.7231 75.7344 39.1391 75.6484 39.5962 75.6484C40.2954 75.6484 40.852 75.8418 41.2661 76.2285C41.6841 76.6113 41.893 77.2559 41.893 78.1621V82H40.7622V78.1504C40.7622 77.5957 40.6294 77.1992 40.3638 76.9609C40.0981 76.7188 39.7212 76.5977 39.2329 76.5977C38.8188 76.5977 38.4555 76.7012 38.143 76.9082C37.8345 77.1152 37.5884 77.3828 37.4048 77.7109V82H36.2798ZM43.4748 78.9766V78.7891C43.4748 77.8789 43.7366 77.1289 44.26 76.5391C44.7873 75.9453 45.4885 75.6484 46.3635 75.6484C46.8713 75.6484 47.303 75.7305 47.6584 75.8945C48.0139 76.0586 48.2991 76.2754 48.5139 76.5449V73H49.6389V82H48.6194L48.5666 81.1445H48.5373C48.3538 81.4141 48.0725 81.6445 47.6936 81.8359C47.3147 82.0234 46.8713 82.1172 46.3635 82.1172C45.4885 82.1172 44.7873 81.8203 44.26 81.2266C43.7366 80.6328 43.4748 79.8828 43.4748 78.9766ZM44.6233 78.9766C44.6233 79.6094 44.7834 80.1367 45.1038 80.5586C45.428 80.9805 45.9358 81.1914 46.6272 81.1914C47.092 81.1914 47.4866 81.0801 47.8108 80.8574C48.135 80.6309 48.3694 80.373 48.5139 80.084V77.6816C48.3694 77.3926 48.135 77.1367 47.8108 76.9141C47.4866 76.6875 47.092 76.5742 46.6272 76.5742C45.9358 76.5742 45.428 76.7852 45.1038 77.207C44.7834 77.6289 44.6233 78.1562 44.6233 78.7891V78.9766ZM51.6543 82V75.7656H52.6738L52.7266 76.627H52.75C52.9375 76.3496 53.1816 76.1074 53.4824 75.9004C53.7832 75.6934 54.1426 75.5898 54.5605 75.5898C54.6582 75.5898 54.7578 75.5996 54.8594 75.6191C54.9648 75.6387 55.0391 75.6562 55.082 75.6719V76.7207C54.9961 76.7051 54.9043 76.6934 54.8066 76.6855C54.7129 76.6777 54.6094 76.6738 54.4961 76.6738C54.0781 76.6738 53.7227 76.7734 53.4297 76.9727C53.1367 77.168 52.9199 77.4121 52.7793 77.7051V82H51.6543ZM55.8845 78.9766V78.7891C55.8845 77.8477 56.1795 77.0801 56.7693 76.4863C57.363 75.8887 58.156 75.5898 59.1482 75.5898C60.1365 75.5898 60.9275 75.8887 61.5212 76.4863C62.115 77.0801 62.4119 77.8477 62.4119 78.7891V78.9766C62.4119 79.918 62.115 80.6875 61.5212 81.2852C60.9275 81.8789 60.1365 82.1758 59.1482 82.1758C58.156 82.1758 57.363 81.8789 56.7693 81.2852C56.1795 80.6875 55.8845 79.918 55.8845 78.9766ZM57.033 78.7891V78.9766C57.033 79.6172 57.2107 80.1562 57.5662 80.5938C57.9216 81.0312 58.449 81.25 59.1482 81.25C59.8474 81.25 60.3728 81.0312 60.7244 80.5938C61.0798 80.1562 61.2576 79.6172 61.2576 78.9766V78.7891C61.2576 78.1445 61.0798 77.6055 60.7244 77.1719C60.3728 76.7344 59.8474 76.5156 59.1482 76.5156C58.449 76.5156 57.9216 76.7344 57.5662 77.1719C57.2107 77.6055 57.033 78.1445 57.033 78.7891ZM64.0991 82V75.7656H65.2241V82H64.0991ZM63.9644 73.9375C63.9644 73.7461 64.023 73.5879 64.1402 73.4629C64.2613 73.334 64.4351 73.2695 64.6616 73.2695C64.8882 73.2695 65.0601 73.334 65.1773 73.4629C65.2984 73.5918 65.3589 73.75 65.3589 73.9375C65.3589 74.1289 65.2984 74.2891 65.1773 74.418C65.0562 74.5469 64.8843 74.6113 64.6616 74.6113C64.439 74.6113 64.2671 74.5469 64.146 74.418C64.0249 74.2891 63.9644 74.1289 63.9644 73.9375ZM66.9114 78.9766V78.7891C66.9114 77.8789 67.1731 77.1289 67.6966 76.5391C68.2239 75.9453 68.9251 75.6484 69.8001 75.6484C70.3079 75.6484 70.7395 75.7305 71.095 75.8945C71.4505 76.0586 71.7356 76.2754 71.9505 76.5449V73H73.0755V82H72.0559L72.0032 81.1445H71.9739C71.7903 81.4141 71.5091 81.6445 71.1302 81.8359C70.7513 82.0234 70.3079 82.1172 69.8001 82.1172C68.9251 82.1172 68.2239 81.8203 67.6966 81.2266C67.1731 80.6328 66.9114 79.8828 66.9114 78.9766ZM68.0598 78.9766C68.0598 79.6094 68.22 80.1367 68.5403 80.5586C68.8645 80.9805 69.3723 81.1914 70.0638 81.1914C70.5286 81.1914 70.9231 81.0801 71.2473 80.8574C71.5716 80.6309 71.8059 80.373 71.9505 80.084V77.6816C71.8059 77.3926 71.5716 77.1367 71.2473 76.9141C70.9231 76.6875 70.5286 76.5742 70.0638 76.5742C69.3723 76.5742 68.8645 76.7852 68.5403 77.207C68.22 77.6289 68.0598 78.1562 68.0598 78.7891V78.9766Z" fill="#04101C"/>
</g>
<defs>
<filter id="filter0_dd_364_14415" x="0" y="0" width="103" height="114" filterUnits="userSpaceOnUse" color-interpolation-filters="sRGB">
<feFlood flood-opacity="0" result="BackgroundImageFix"/>
<feColorMatrix in="SourceAlpha" type="matrix" values="0 0 0 0 0 0 0 0 0 0 0 0 0 0 0 0 0 0 127 0" result="hardAlpha"/>
<feOffset dx="1" dy="2"/>
<feGaussianBlur stdDeviation="5"/>
<feComposite in2="hardAlpha" operator="out"/>
<feColorMatrix type="matrix" values="0 0 0 0 0.00780001 0 0 0 0 0.045344 0 0 0 0 0.0800001 0 0 0 0.08 0"/>
<feBlend mode="normal" in2="BackgroundImageFix" result="effect1_dropShadow_364_14415"/>
<feColorMatrix in="SourceAlpha" type="matrix" values="0 0 0 0 0 0 0 0 0 0 0 0 0 0 0 0 0 0 127 0" result="hardAlpha"/>
<feOffset dx="1" dy="2"/>
<feGaussianBlur stdDeviation="5"/>
<feComposite in2="hardAlpha" operator="out"/>
<feColorMatrix type="matrix" values="0 0 0 0 0.00780001 0 0 0 0 0.045344 0 0 0 0 0.0800001 0 0 0 0.08 0"/>
<feBlend mode="normal" in2="effect1_dropShadow_364_14415" result="effect2_dropShadow_364_14415"/>
<feBlend mode="normal" in="SourceGraphic" in2="effect2_dropShadow_364_14415" result="shape"/>
</filter>
<radialGradient id="paint0_radial_364_14415" cx="0" cy="0" r="1" gradientUnits="userSpaceOnUse" gradientTransform="translate(50.8636 45.5) rotate(97.9842) scale(18.3024 15.1174)">
<stop stop-color="#FD9BE8"/>
<stop offset="0.338542" stop-color="#7A73FF"/>
<stop offset="0.734375" stop-color="#75CDFF"/>
<stop offset="1" stop-color="#4AFCF1"/>
</radialGradient>
<radialGradient id="paint1_radial_364_14415" cx="0" cy="0" r="1" gradientUnits="userSpaceOnUse" gradientTransform="translate(50.8636 45.5) rotate(97.9842) scale(18.3024 15.1174)">
<stop stop-color="#FD9BE8"/>
<stop offset="0.338542" stop-color="#7A73FF"/>
<stop offset="0.734375" stop-color="#75CDFF"/>
<stop offset="1" stop-color="#4AFCF1"/>
</radialGradient>
<radialGradient id="paint2_radial_364_14415" cx="0" cy="0" r="1" gradientUnits="userSpaceOnUse" gradientTransform="translate(50.8636 45.5) rotate(97.9842) scale(18.3024 15.1174)">
<stop stop-color="#FD9BE8"/>
<stop offset="0.338542" stop-color="#7A73FF"/>
<stop offset="0.734375" stop-color="#75CDFF"/>
<stop offset="1" stop-color="#4AFCF1"/>
</radialGradient>
</defs>
</svg>
