<svg width="130" height="114" viewBox="0 0 130 114" fill="none" xmlns="http://www.w3.org/2000/svg">
<g filter="url(#filter0_dd_364_14448)">
<rect x="9" y="8" width="110" height="94" rx="12" fill="white"/>
<path d="M78.0612 40.6794C75.8527 37.7025 73.2544 34.9845 70.2664 32.9136C68.3177 31.4898 65.5896 31.7487 63.7708 33.5607L59.3537 37.9614C57.6649 39.644 57.405 42.362 58.7042 44.3035C58.8341 44.4329 58.964 44.6918 59.2238 44.8212L51.0393 52.9753C50.3897 53.6225 50 54.5285 50 55.5639V59.7057C50 60.094 50.1299 60.3528 50.3897 60.6117C50.6496 60.8706 50.9094 61 51.2991 61H55.4563C56.4956 61 57.405 60.6117 58.0546 59.9646L66.2391 51.8104C66.4989 51.9399 66.6289 52.0693 66.8887 52.1987C68.8374 53.493 71.5655 53.2342 73.2544 51.5516L77.6715 47.1509C79.2304 45.3389 79.4902 42.6209 78.0612 40.6794ZM75.5928 45.3389L71.1758 49.7395C70.2664 50.6456 68.9673 50.775 68.0579 50.1278C67.5382 49.7395 67.1485 49.4807 66.6289 49.0924C66.1092 48.7041 65.3297 48.7041 64.94 49.2218L55.976 58.1525C55.7162 58.4114 55.4563 58.5408 55.1965 58.5408H52.3384V55.6933C52.3384 55.4345 52.4683 55.1756 52.7282 54.9168L61.6922 45.9861C62.2118 45.4683 62.2118 44.8212 61.8221 44.3035C61.5623 43.7857 61.1725 43.268 60.9127 42.7503C60.2631 41.8443 60.393 40.55 61.3024 39.7734L65.7195 35.3728C66.1092 34.855 66.7588 34.5962 67.4083 34.5962C67.928 34.5962 68.3177 34.7256 68.7075 34.9845C71.5655 36.9259 73.904 39.3851 75.8527 42.1031C76.6322 43.1386 76.5022 44.4329 75.5928 45.3389Z" fill="url(#paint0_radial_364_14448)"/>
<path d="M69.1483 39.9091C68.5933 39.9091 68.177 40.1916 67.7608 40.474C66.9282 41.3214 66.9282 42.5925 67.7608 43.2987C68.177 43.7224 68.5933 43.8636 69.1483 43.8636C69.7034 43.8636 70.1196 43.7224 70.5359 43.2987C70.9522 42.875 71.0909 42.4513 71.0909 41.8864C71.0909 41.3214 70.9522 40.8977 70.5359 40.474C70.2584 40.0503 69.7034 39.9091 69.1483 39.9091Z" fill="url(#paint1_radial_364_14448)"/>
<path d="M28.3731 82V73.4688H31.4493C32.4727 73.4688 33.2579 73.7051 33.8048 74.1777C34.3555 74.6465 34.6309 75.2773 34.6309 76.0703C34.6309 76.8594 34.3555 77.4941 33.8048 77.9746C33.2579 78.4512 32.4727 78.6895 31.4493 78.6895H29.5391V82H28.3731ZM29.5391 77.7344H31.4493C32.1954 77.7344 32.7169 77.5742 33.0137 77.2539C33.3145 76.9336 33.4649 76.5391 33.4649 76.0703C33.4649 75.5977 33.3145 75.207 33.0137 74.8984C32.7169 74.5859 32.1954 74.4297 31.4493 74.4297H29.5391V77.7344ZM35.5155 80.166C35.5155 79.5293 35.7889 79.0352 36.3358 78.6836C36.8866 78.332 37.5995 78.1562 38.4745 78.1562H40.1444V77.7109C40.1444 77.3359 40.0272 77.0371 39.7928 76.8145C39.5623 76.5918 39.1678 76.4805 38.6092 76.4805C38.0545 76.4805 37.6541 76.5762 37.408 76.7676C37.162 76.9551 37.0389 77.1816 37.0389 77.4473V77.4766H35.9139V77.4473C35.9139 76.9355 36.158 76.498 36.6463 76.1348C37.1346 75.7715 37.7987 75.5898 38.6385 75.5898C39.4745 75.5898 40.1209 75.7695 40.578 76.1289C41.0389 76.4844 41.2694 77.0117 41.2694 77.7109V80.5938C41.2694 80.8477 41.2909 81.0879 41.3338 81.3145C41.3768 81.5371 41.4373 81.7344 41.5155 81.9062V82H40.4315C40.369 81.9023 40.3123 81.7734 40.2616 81.6133C40.2108 81.4531 40.1795 81.2949 40.1678 81.1387C40.0037 81.4004 39.7303 81.6289 39.3475 81.8242C38.9647 82.0195 38.4745 82.1172 37.8768 82.1172C37.2049 82.1172 36.6424 81.9492 36.1893 81.6133C35.7401 81.2773 35.5155 80.7949 35.5155 80.166ZM36.6405 80.1074C36.6405 80.459 36.7616 80.7324 37.0037 80.9277C37.2459 81.123 37.6248 81.2207 38.1405 81.2207C38.6561 81.2207 39.119 81.0723 39.5291 80.7754C39.9393 80.4785 40.1444 80.1641 40.1444 79.832V78.9531H38.6034C37.9627 78.9531 37.4745 79.0566 37.1385 79.2637C36.8065 79.4668 36.6405 79.748 36.6405 80.1074ZM45.7691 82.1758C44.7613 82.1758 44.0172 81.9629 43.5367 81.5371C43.0602 81.1113 42.8219 80.6074 42.8219 80.0254V79.9961H43.9117V80.0254C43.9117 80.3496 44.0465 80.6348 44.316 80.8809C44.5895 81.127 45.0699 81.25 45.7574 81.25C46.3473 81.25 46.7906 81.1543 47.0875 80.9629C47.3844 80.7715 47.5328 80.5078 47.5328 80.1719C47.5328 79.8867 47.4215 79.666 47.1988 79.5098C46.9801 79.3496 46.6324 79.2695 46.1559 79.2695H44.773V78.3906H46.0504C46.4918 78.3906 46.816 78.3105 47.023 78.1504C47.2301 77.9902 47.3336 77.7695 47.3336 77.4883C47.3336 77.1719 47.2086 76.9297 46.9586 76.7617C46.7125 76.5938 46.3414 76.5098 45.8453 76.5098C45.2203 76.5098 44.7633 76.6289 44.4742 76.8672C44.1852 77.1055 44.0406 77.3965 44.0406 77.7402V77.7695H42.9508V77.7402C42.9508 77.123 43.1969 76.6113 43.6891 76.2051C44.1812 75.7949 44.898 75.5898 45.8395 75.5898C46.6949 75.5898 47.3473 75.75 47.7965 76.0703C48.2457 76.3906 48.4703 76.832 48.4703 77.3945C48.4703 77.7344 48.357 78.0293 48.1305 78.2793C47.9078 78.5254 47.6031 78.6914 47.2164 78.7773V78.7949C47.6656 78.8574 48.0191 79.0098 48.277 79.252C48.5387 79.4902 48.6695 79.8047 48.6695 80.1953C48.6695 80.8125 48.4059 81.2969 47.8785 81.6484C47.3512 82 46.648 82.1758 45.7691 82.1758ZM50.3744 84.4375V75.7656H51.3939L51.4466 76.6211H51.4701C51.6576 76.3516 51.9408 76.123 52.3197 75.9355C52.6986 75.7441 53.142 75.6484 53.6498 75.6484C54.5248 75.6484 55.224 75.9453 55.7474 76.5391C56.2748 77.1289 56.5384 77.8789 56.5384 78.7891V78.9766C56.5384 79.8828 56.2748 80.6328 55.7474 81.2266C55.224 81.8203 54.5248 82.1172 53.6498 82.1172C53.142 82.1172 52.7103 82.0352 52.3548 81.8711C51.9994 81.707 51.7142 81.4902 51.4994 81.2207V84.4375H50.3744ZM51.4994 80.084C51.64 80.373 51.8724 80.6309 52.1966 80.8574C52.5209 81.0801 52.9154 81.1914 53.3802 81.1914C54.0716 81.1914 54.5775 80.9805 54.8978 80.5586C55.222 80.1328 55.3841 79.6055 55.3841 78.9766V78.7891C55.3841 78.1562 55.222 77.6289 54.8978 77.207C54.5775 76.7852 54.0716 76.5742 53.3802 76.5742C52.9154 76.5742 52.5209 76.6875 52.1966 76.9141C51.8763 77.1367 51.6439 77.3926 51.4994 77.6816V80.084ZM57.8331 80.166C57.8331 79.5293 58.1066 79.0352 58.6534 78.6836C59.2042 78.332 59.9171 78.1562 60.7921 78.1562H62.462V77.7109C62.462 77.3359 62.3448 77.0371 62.1105 76.8145C61.88 76.5918 61.4855 76.4805 60.9269 76.4805C60.3722 76.4805 59.9718 76.5762 59.7257 76.7676C59.4796 76.9551 59.3566 77.1816 59.3566 77.4473V77.4766H58.2316V77.4473C58.2316 76.9355 58.4757 76.498 58.964 76.1348C59.4523 75.7715 60.1163 75.5898 60.9562 75.5898C61.7921 75.5898 62.4386 75.7695 62.8956 76.1289C63.3566 76.4844 63.587 77.0117 63.587 77.7109V80.5938C63.587 80.8477 63.6085 81.0879 63.6515 81.3145C63.6945 81.5371 63.755 81.7344 63.8331 81.9062V82H62.7491C62.6866 81.9023 62.63 81.7734 62.5792 81.6133C62.5284 81.4531 62.4972 81.2949 62.4855 81.1387C62.3214 81.4004 62.048 81.6289 61.6652 81.8242C61.2823 82.0195 60.7921 82.1172 60.1945 82.1172C59.5226 82.1172 58.9601 81.9492 58.507 81.6133C58.0577 81.2773 57.8331 80.7949 57.8331 80.166ZM58.9581 80.1074C58.9581 80.459 59.0792 80.7324 59.3214 80.9277C59.5636 81.123 59.9425 81.2207 60.4581 81.2207C60.9737 81.2207 61.4366 81.0723 61.8468 80.7754C62.257 80.4785 62.462 80.1641 62.462 79.832V78.9531H60.921C60.2804 78.9531 59.7921 79.0566 59.4562 79.2637C59.1241 79.4668 58.9581 79.748 58.9581 80.1074ZM66.411 78.9297V79.1172C66.411 79.7148 66.5887 80.2207 66.9442 80.6348C67.2997 81.0449 67.829 81.25 68.5321 81.25C69.2313 81.25 69.7587 81.0449 70.1141 80.6348C70.4696 80.2207 70.6473 79.7148 70.6473 79.1172V78.9297C70.6473 78.332 70.4696 77.8281 70.1141 77.418C69.7626 77.0039 69.2352 76.7969 68.5321 76.7969C67.829 76.7969 67.2997 77.0039 66.9442 77.418C66.5887 77.8281 66.411 78.332 66.411 78.9297ZM68.7841 75.8711C69.6981 75.8711 70.4286 76.1582 70.9755 76.7324C71.5223 77.3066 71.7958 78.0391 71.7958 78.9297V79.1172C71.7958 80.0234 71.4989 80.7598 70.9052 81.3262C70.3153 81.8926 69.5223 82.1758 68.5262 82.1758C67.5028 82.1758 66.702 81.8887 66.1239 81.3145C65.5458 80.7402 65.2567 79.8105 65.2567 78.5254V78.291C65.2567 76.8574 65.5126 75.748 66.0243 74.9629C66.5399 74.1738 67.454 73.6934 68.7665 73.5215C69.5477 73.4199 70.0009 73.334 70.1259 73.2637C70.2548 73.1934 70.327 73.1055 70.3427 73H71.3329C71.2899 73.4297 71.1141 73.7656 70.8055 74.0078C70.5009 74.2461 69.8778 74.418 68.9364 74.5234C67.8895 74.6406 67.1747 74.9414 66.7919 75.4258C66.413 75.9102 66.1981 76.5293 66.1473 77.2832H66.2118C66.411 76.8418 66.7313 76.4961 67.1727 76.2461C67.6141 75.9961 68.1512 75.8711 68.7841 75.8711ZM73.0729 78.9766V78.7891C73.0729 77.8477 73.3678 77.0801 73.9577 76.4863C74.5514 75.8887 75.3444 75.5898 76.3366 75.5898C77.3248 75.5898 78.1159 75.8887 78.7096 76.4863C79.3034 77.0801 79.6002 77.8477 79.6002 78.7891V78.9766C79.6002 79.918 79.3034 80.6875 78.7096 81.2852C78.1159 81.8789 77.3248 82.1758 76.3366 82.1758C75.3444 82.1758 74.5514 81.8789 73.9577 81.2852C73.3678 80.6875 73.0729 79.918 73.0729 78.9766ZM74.2213 78.7891V78.9766C74.2213 79.6172 74.3991 80.1562 74.7545 80.5938C75.11 81.0312 75.6373 81.25 76.3366 81.25C77.0358 81.25 77.5612 81.0312 77.9127 80.5938C78.2682 80.1562 78.4459 79.6172 78.4459 78.9766V78.7891C78.4459 78.1445 78.2682 77.6055 77.9127 77.1719C77.5612 76.7344 77.0358 76.5156 76.3366 76.5156C75.6373 76.5156 75.11 76.7344 74.7545 77.1719C74.3991 77.6055 74.2213 78.1445 74.2213 78.7891ZM80.5492 76.6504V75.7656H86.1156V76.6504H83.8949V82H82.7699V76.6504H80.5492ZM91.8576 82L89.1564 79.1465L89.8478 78.4141L93.2931 82H91.8576ZM88.0021 78.3848H89.2326L91.6466 75.7656H92.9767L89.6955 79.2695H88.0021V78.3848ZM88.5646 75.7656V82H87.4455V75.7656H88.5646ZM94.0136 80.166C94.0136 79.5293 94.287 79.0352 94.8339 78.6836C95.3847 78.332 96.0976 78.1562 96.9726 78.1562H98.6425V77.7109C98.6425 77.3359 98.5253 77.0371 98.2909 76.8145C98.0605 76.5918 97.6659 76.4805 97.1073 76.4805C96.5527 76.4805 96.1523 76.5762 95.9062 76.7676C95.6601 76.9551 95.537 77.1816 95.537 77.4473V77.4766H94.412V77.4473C94.412 76.9355 94.6562 76.498 95.1445 76.1348C95.6327 75.7715 96.2968 75.5898 97.1366 75.5898C97.9726 75.5898 98.6191 75.7695 99.0761 76.1289C99.537 76.4844 99.7675 77.0117 99.7675 77.7109V80.5938C99.7675 80.8477 99.789 81.0879 99.832 81.3145C99.8749 81.5371 99.9355 81.7344 100.014 81.9062V82H98.9296C98.8671 81.9023 98.8105 81.7734 98.7597 81.6133C98.7089 81.4531 98.6777 81.2949 98.6659 81.1387C98.5019 81.4004 98.2284 81.6289 97.8456 81.8242C97.4628 82.0195 96.9726 82.1172 96.3749 82.1172C95.703 82.1172 95.1405 81.9492 94.6874 81.6133C94.2382 81.2773 94.0136 80.7949 94.0136 80.166ZM95.1386 80.1074C95.1386 80.459 95.2597 80.7324 95.5019 80.9277C95.7441 81.123 96.123 81.2207 96.6386 81.2207C97.1542 81.2207 97.6171 81.0723 98.0273 80.7754C98.4374 80.4785 98.6425 80.1641 98.6425 79.832V78.9531H97.1015C96.4609 78.9531 95.9726 79.0566 95.6366 79.2637C95.3046 79.4668 95.1386 79.748 95.1386 80.1074Z" fill="#04101C"/>
</g>
<defs>
<filter id="filter0_dd_364_14448" x="0" y="0" width="130" height="114" filterUnits="userSpaceOnUse" color-interpolation-filters="sRGB">
<feFlood flood-opacity="0" result="BackgroundImageFix"/>
<feColorMatrix in="SourceAlpha" type="matrix" values="0 0 0 0 0 0 0 0 0 0 0 0 0 0 0 0 0 0 127 0" result="hardAlpha"/>
<feOffset dx="1" dy="2"/>
<feGaussianBlur stdDeviation="5"/>
<feComposite in2="hardAlpha" operator="out"/>
<feColorMatrix type="matrix" values="0 0 0 0 0.00780001 0 0 0 0 0.045344 0 0 0 0 0.0800001 0 0 0 0.08 0"/>
<feBlend mode="normal" in2="BackgroundImageFix" result="effect1_dropShadow_364_14448"/>
<feColorMatrix in="SourceAlpha" type="matrix" values="0 0 0 0 0 0 0 0 0 0 0 0 0 0 0 0 0 0 127 0" result="hardAlpha"/>
<feOffset dx="1" dy="2"/>
<feGaussianBlur stdDeviation="5"/>
<feComposite in2="hardAlpha" operator="out"/>
<feColorMatrix type="matrix" values="0 0 0 0 0.00780001 0 0 0 0 0.045344 0 0 0 0 0.0800001 0 0 0 0.08 0"/>
<feBlend mode="normal" in2="effect1_dropShadow_364_14448" result="effect2_dropShadow_364_14448"/>
<feBlend mode="normal" in="SourceGraphic" in2="effect2_dropShadow_364_14448" result="shape"/>
</filter>
<radialGradient id="paint0_radial_364_14448" cx="0" cy="0" r="1" gradientUnits="userSpaceOnUse" gradientTransform="translate(64.5 46.5) rotate(99.7276) scale(18.3894 18.3894)">
<stop stop-color="#FD9BE8"/>
<stop offset="0.338542" stop-color="#7A73FF"/>
<stop offset="0.734375" stop-color="#75CDFF"/>
<stop offset="1" stop-color="#4AFCF1"/>
</radialGradient>
<radialGradient id="paint1_radial_364_14448" cx="0" cy="0" r="1" gradientUnits="userSpaceOnUse" gradientTransform="translate(64.5 46.5) rotate(99.7276) scale(18.3894 18.3894)">
<stop stop-color="#FD9BE8"/>
<stop offset="0.338542" stop-color="#7A73FF"/>
<stop offset="0.734375" stop-color="#75CDFF"/>
<stop offset="1" stop-color="#4AFCF1"/>
</radialGradient>
</defs>
</svg>
