<svg width="88" height="114" viewBox="0 0 88 114" fill="none" xmlns="http://www.w3.org/2000/svg">
<g filter="url(#filter0_dd_364_14514)">
<rect x="9" y="8" width="68" height="94" rx="12" fill="white"/>
<path d="M29.4759 48.4382L35.6122 52.1931C35.9923 52.4257 36.398 52.3316 36.6824 52.0635C36.9579 51.8039 37.1265 51.3838 37.1265 50.9112C37.1265 50.3775 36.8991 49.8444 36.4821 49.6108L33.5929 47.992C33.281 47.8173 33.0857 47.3806 33.0857 46.8798C33.0857 46.379 33.281 45.9423 33.5929 45.7676L36.4898 44.1446C36.9022 43.9136 37.1265 43.3868 37.1265 42.8603C37.1265 42.3938 36.9601 41.9789 36.6878 41.7223C36.4066 41.4573 36.0052 41.3641 35.6291 41.5942L29.4759 45.3594C29.0101 45.6445 28.75 46.2594 28.75 46.8862V46.9114C28.75 47.5382 29.0101 48.1531 29.4759 48.4382ZM44.7047 37.5901L39.4086 55.4195C39.2847 55.8364 39.3286 56.2763 39.4872 56.6188C39.643 56.9551 39.9405 57.25 40.3474 57.25C40.8074 57.25 41.1505 56.8669 41.2862 56.4099L46.5823 38.5805C46.7061 38.1636 46.6623 37.7237 46.5037 37.3812C46.3479 37.0449 46.0504 36.75 45.6435 36.75C45.1835 36.75 44.8404 37.1331 44.7047 37.5901ZM52.4071 48.03L49.5102 49.653C49.0978 49.884 48.8735 50.4108 48.8735 50.9373C48.8735 51.4038 49.0399 51.8187 49.3122 52.0753C49.5934 52.3403 49.9948 52.4335 50.3709 52.2034L56.5241 48.4382C56.9899 48.1531 57.25 47.5382 57.25 46.9114V46.8862C57.25 46.2594 56.9899 45.6445 56.5241 45.3594L50.3878 41.6045C50.0077 41.3719 49.602 41.466 49.3176 41.7341C49.0421 41.9937 48.8735 42.4138 48.8735 42.8864C48.8735 43.4201 49.1009 43.9532 49.5179 44.1868L52.4071 45.8056C52.719 45.9803 52.9143 46.417 52.9143 46.9178C52.9143 47.4186 52.719 47.8553 52.4071 48.03Z" fill="url(#paint0_radial_364_14514)" stroke="url(#paint1_radial_364_14514)" stroke-width="0.5"/>
<path d="M38.6202 82V73.4688H39.7804V82H38.6202ZM41.1161 74.4297V73.4688H48.288V74.4297H45.2821V82H44.122V74.4297H41.1161Z" fill="#04101C"/>
</g>
<defs>
<filter id="filter0_dd_364_14514" x="0" y="0" width="88" height="114" filterUnits="userSpaceOnUse" color-interpolation-filters="sRGB">
<feFlood flood-opacity="0" result="BackgroundImageFix"/>
<feColorMatrix in="SourceAlpha" type="matrix" values="0 0 0 0 0 0 0 0 0 0 0 0 0 0 0 0 0 0 127 0" result="hardAlpha"/>
<feOffset dx="1" dy="2"/>
<feGaussianBlur stdDeviation="5"/>
<feComposite in2="hardAlpha" operator="out"/>
<feColorMatrix type="matrix" values="0 0 0 0 0.00780001 0 0 0 0 0.045344 0 0 0 0 0.0800001 0 0 0 0.08 0"/>
<feBlend mode="normal" in2="BackgroundImageFix" result="effect1_dropShadow_364_14514"/>
<feColorMatrix in="SourceAlpha" type="matrix" values="0 0 0 0 0 0 0 0 0 0 0 0 0 0 0 0 0 0 127 0" result="hardAlpha"/>
<feOffset dx="1" dy="2"/>
<feGaussianBlur stdDeviation="5"/>
<feComposite in2="hardAlpha" operator="out"/>
<feColorMatrix type="matrix" values="0 0 0 0 0.00780001 0 0 0 0 0.045344 0 0 0 0 0.0800001 0 0 0 0.08 0"/>
<feBlend mode="normal" in2="effect1_dropShadow_364_14514" result="effect2_dropShadow_364_14514"/>
<feBlend mode="normal" in="SourceGraphic" in2="effect2_dropShadow_364_14514" result="shape"/>
</filter>
<radialGradient id="paint0_radial_364_14514" cx="0" cy="0" r="1" gradientUnits="userSpaceOnUse" gradientTransform="translate(43 47) rotate(103.496) scale(12.855 17.5169)">
<stop stop-color="#FD9BE8"/>
<stop offset="0.338542" stop-color="#7A73FF"/>
<stop offset="0.734375" stop-color="#75CDFF"/>
<stop offset="1" stop-color="#4AFCF1"/>
</radialGradient>
<radialGradient id="paint1_radial_364_14514" cx="0" cy="0" r="1" gradientUnits="userSpaceOnUse" gradientTransform="translate(43 47) rotate(103.496) scale(12.855 17.5169)">
<stop stop-color="#FD9BE8"/>
<stop offset="0.338542" stop-color="#7A73FF"/>
<stop offset="0.734375" stop-color="#75CDFF"/>
<stop offset="1" stop-color="#4AFCF1"/>
</radialGradient>
</defs>
</svg>
