<svg width="95" height="114" viewBox="0 0 95 114" fill="none" xmlns="http://www.w3.org/2000/svg">
<g filter="url(#filter0_dd_364_14481)">
<rect x="9" y="8" width="75" height="94" rx="12" fill="white"/>
<g clip-path="url(#clip0_364_14481)">
<path d="M57.1665 35.3335H35.8332C34.3665 35.3335 33.1798 36.5335 33.1798 38.0002L33.1665 54.0002C33.1665 55.4668 34.3665 56.6668 35.8332 56.6668H57.1665C58.6332 56.6668 59.8332 55.4668 59.8332 54.0002V38.0002C59.8332 36.5335 58.6332 35.3335 57.1665 35.3335ZM35.8332 42.0002H49.8332V46.6668H35.8332V42.0002ZM35.8332 49.3335H49.8332V54.0002H35.8332V49.3335ZM57.1665 54.0002H52.4998V42.0002H57.1665V54.0002Z" fill="url(#paint0_radial_364_14481)"/>
</g>
<path d="M27.7329 77.9512V77.5176C27.7329 76.1816 28.0981 75.1445 28.8286 74.4062C29.563 73.6641 30.4829 73.293 31.5884 73.293C32.6821 73.293 33.5317 73.5684 34.1372 74.1191C34.7427 74.666 35.0708 75.3438 35.1216 76.1523L35.1274 76.2109H33.9614L33.9555 76.1523C33.9282 75.6367 33.7192 75.1973 33.3286 74.834C32.9419 74.4707 32.3618 74.2891 31.5884 74.2891C30.8071 74.2891 30.1645 74.5664 29.6606 75.1211C29.1606 75.6719 28.9106 76.4707 28.9106 77.5176V77.9512C28.9106 78.9707 29.1606 79.7637 29.6606 80.3301C30.1645 80.8965 30.8071 81.1797 31.5884 81.1797C32.3618 81.1797 32.936 80.9941 33.311 80.623C33.6899 80.248 33.9048 79.8125 33.9555 79.3164L33.9614 79.2578H35.1274L35.1216 79.3164C35.0395 80.1133 34.7055 80.7891 34.1196 81.3438C33.5337 81.8984 32.6899 82.1758 31.5884 82.1758C30.4829 82.1758 29.563 81.8086 28.8286 81.0742C28.0981 80.3359 27.7329 79.2949 27.7329 77.9512ZM36.1409 80.166C36.1409 79.5293 36.4143 79.0352 36.9612 78.6836C37.512 78.332 38.2248 78.1562 39.0998 78.1562H40.7698V77.7109C40.7698 77.3359 40.6526 77.0371 40.4182 76.8145C40.1877 76.5918 39.7932 76.4805 39.2346 76.4805C38.6799 76.4805 38.2795 76.5762 38.0334 76.7676C37.7873 76.9551 37.6643 77.1816 37.6643 77.4473V77.4766H36.5393V77.4473C36.5393 76.9355 36.7834 76.498 37.2717 76.1348C37.76 75.7715 38.4241 75.5898 39.2639 75.5898C40.0998 75.5898 40.7463 75.7695 41.2034 76.1289C41.6643 76.4844 41.8948 77.0117 41.8948 77.7109V80.5938C41.8948 80.8477 41.9163 81.0879 41.9592 81.3145C42.0022 81.5371 42.0627 81.7344 42.1409 81.9062V82H41.0569C40.9944 81.9023 40.9377 81.7734 40.887 81.6133C40.8362 81.4531 40.8049 81.2949 40.7932 81.1387C40.6291 81.4004 40.3557 81.6289 39.9729 81.8242C39.5901 82.0195 39.0998 82.1172 38.5022 82.1172C37.8303 82.1172 37.2678 81.9492 36.8147 81.6133C36.3655 81.2773 36.1409 80.7949 36.1409 80.166ZM37.2659 80.1074C37.2659 80.459 37.387 80.7324 37.6291 80.9277C37.8713 81.123 38.2502 81.2207 38.7659 81.2207C39.2815 81.2207 39.7444 81.0723 40.1545 80.7754C40.5647 80.4785 40.7698 80.1641 40.7698 79.832V78.9531H39.2288C38.5881 78.9531 38.0998 79.0566 37.7639 79.2637C37.4319 79.4668 37.2659 79.748 37.2659 80.1074ZM43.8926 82V75.7656H45.0059V79.7383C45.0059 79.8555 45.0039 79.9883 45 80.1367C45 80.2852 44.998 80.4199 44.9941 80.541H45.041C45.0957 80.4355 45.1562 80.3242 45.2227 80.207C45.2891 80.0898 45.3652 79.9727 45.4512 79.8555L48.3867 75.7656H49.5176V82H48.3984V78.0332C48.3984 77.9121 48.4004 77.7773 48.4043 77.6289C48.4082 77.4766 48.4141 77.3398 48.4219 77.2188H48.3574C48.3066 77.3203 48.248 77.4316 48.1816 77.5527C48.1152 77.6738 48.041 77.793 47.959 77.9102L45.0234 82H43.8926ZM46.7051 73.8672C46.998 73.8672 47.2383 73.7891 47.4258 73.6328C47.6133 73.4727 47.7734 73.2129 47.9062 72.8535L48.7676 73.3574C48.5723 73.834 48.2949 74.1836 47.9355 74.4062C47.5762 74.6289 47.166 74.7402 46.7051 74.7402C46.2402 74.7402 45.8301 74.6309 45.4746 74.4121C45.1191 74.1895 44.8398 73.8379 44.6367 73.3574L45.5039 72.8418C45.6367 73.2129 45.7949 73.4766 45.9785 73.6328C46.166 73.7891 46.4082 73.8672 46.7051 73.8672ZM50.8357 76.6504V75.7656H56.4021V76.6504H54.1814V82H53.0564V76.6504H50.8357ZM58.857 75.7656V77.8926H60.6675C61.4448 77.8926 62.0425 78.0762 62.4605 78.4434C62.8823 78.8066 63.0933 79.3027 63.0933 79.9316C63.0933 80.5566 62.8823 81.0586 62.4605 81.4375C62.0425 81.8125 61.4448 82 60.6675 82H57.732V75.7656H58.857ZM60.6616 78.7832H58.857V81.1152H60.6616C61.1421 81.1152 61.478 81.0039 61.6695 80.7812C61.8648 80.5586 61.9624 80.2754 61.9624 79.9316C61.9624 79.5957 61.8648 79.3203 61.6695 79.1055C61.478 78.8906 61.1421 78.7832 60.6616 78.7832ZM63.9429 82V75.7656H65.0679V82H63.9429Z" fill="#04101C"/>
</g>
<defs>
<filter id="filter0_dd_364_14481" x="0" y="0" width="95" height="114" filterUnits="userSpaceOnUse" color-interpolation-filters="sRGB">
<feFlood flood-opacity="0" result="BackgroundImageFix"/>
<feColorMatrix in="SourceAlpha" type="matrix" values="0 0 0 0 0 0 0 0 0 0 0 0 0 0 0 0 0 0 127 0" result="hardAlpha"/>
<feOffset dx="1" dy="2"/>
<feGaussianBlur stdDeviation="5"/>
<feComposite in2="hardAlpha" operator="out"/>
<feColorMatrix type="matrix" values="0 0 0 0 0.00780001 0 0 0 0 0.045344 0 0 0 0 0.0800001 0 0 0 0.08 0"/>
<feBlend mode="normal" in2="BackgroundImageFix" result="effect1_dropShadow_364_14481"/>
<feColorMatrix in="SourceAlpha" type="matrix" values="0 0 0 0 0 0 0 0 0 0 0 0 0 0 0 0 0 0 127 0" result="hardAlpha"/>
<feOffset dx="1" dy="2"/>
<feGaussianBlur stdDeviation="5"/>
<feComposite in2="hardAlpha" operator="out"/>
<feColorMatrix type="matrix" values="0 0 0 0 0.00780001 0 0 0 0 0.045344 0 0 0 0 0.0800001 0 0 0 0.08 0"/>
<feBlend mode="normal" in2="effect1_dropShadow_364_14481" result="effect2_dropShadow_364_14481"/>
<feBlend mode="normal" in="SourceGraphic" in2="effect2_dropShadow_364_14481" result="shape"/>
</filter>
<radialGradient id="paint0_radial_364_14481" cx="0" cy="0" r="1" gradientUnits="userSpaceOnUse" gradientTransform="translate(46.4998 46.0002) rotate(102.095) scale(13.636 16.7756)">
<stop stop-color="#FD9BE8"/>
<stop offset="0.338542" stop-color="#7A73FF"/>
<stop offset="0.734375" stop-color="#75CDFF"/>
<stop offset="1" stop-color="#4AFCF1"/>
</radialGradient>
<clipPath id="clip0_364_14481">
<rect width="32" height="32" fill="white" transform="translate(30.5 30)"/>
</clipPath>
</defs>
</svg>
