<svg width="153" height="158" viewBox="0 0 153 158" fill="none" xmlns="http://www.w3.org/2000/svg">
<g filter="url(#filter0_d_76_39491)">
<rect x="13" y="11.3281" width="123.934" height="129.443" rx="16.5246" fill="white"/>
<path d="M83.7932 71.4971C83.0422 71.4971 82.4788 71.1215 82.1033 70.5582L79.85 66.6148C78.9112 64.5492 77.0334 62.6715 74.9679 61.5448L71.0247 59.2914C70.4614 59.1037 70.0858 58.3525 70.0858 57.7892C70.0858 57.0381 70.4614 56.4747 71.0247 56.0992L74.9679 53.8458C77.0334 52.7192 78.9112 51.0292 80.0378 48.7758L82.2911 44.8324C82.4788 44.2691 83.2299 43.8936 83.7932 43.8936C84.5443 43.8936 85.1077 44.2691 85.4832 44.8324L87.7365 48.7758C88.8631 50.8414 90.7408 52.7192 92.8063 53.8458L96.7496 56.0992C97.3129 56.4747 97.6884 57.0381 97.6884 57.7892C97.6884 58.5403 97.3129 59.1037 96.7496 59.4792L92.8063 61.7326C90.7408 62.8592 88.8631 64.737 87.7365 66.8026L85.4832 70.746C85.1077 71.1215 84.5443 71.4971 83.7932 71.4971ZM75.9068 57.7892L76.8457 58.3525C79.6622 59.8548 81.9155 62.1081 83.4177 64.9248L83.981 65.8637L84.5443 64.9248C86.0465 62.1081 88.2998 59.8548 91.1164 58.3525L92.0552 57.7892L91.1164 57.2259C88.2998 55.7236 86.0465 53.4703 84.5443 50.6536L83.981 49.7147L83.4177 50.6536C81.9155 53.4703 79.6622 55.7236 76.8457 57.2259L75.9068 57.7892Z" fill="url(#paint0_radial_76_39491)"/>
<path d="M66.7045 85.205C65.9534 85.205 65.39 84.8295 65.0145 84.2661L63.8879 82.0128C62.949 80.135 61.4468 78.6328 59.5691 77.6939L57.3158 76.5672C56.7525 76.1916 56.377 75.4405 56.377 74.8772C56.377 74.1261 56.7525 73.5627 57.3158 73.1872L59.5691 72.0605C61.4468 71.1216 62.949 69.6194 63.8879 67.7416L65.0145 65.4882C65.7656 64.3616 67.6433 64.3616 68.3944 65.4882L69.521 67.7416C70.4599 69.6194 71.9621 71.1216 73.8398 72.0605L76.0931 73.1872C76.6564 73.5627 77.032 74.1261 77.032 74.8772C77.032 75.6283 76.6564 76.1916 76.0931 76.5672L74.0276 77.6939C72.1499 78.6328 70.6477 80.135 69.7088 82.0128L68.5822 84.2661C68.0189 84.8295 67.4555 85.205 66.7045 85.205ZM62.1979 74.8772C64.0756 76.0039 65.7656 77.6939 66.8922 79.5717C68.0189 77.6939 69.7088 76.0039 71.5865 74.8772C69.521 73.5627 68.0189 72.0605 66.7045 70.1827C65.5778 72.0605 64.0756 73.5627 62.1979 74.8772Z" fill="url(#paint1_radial_76_39491)"/>
<path d="M40.612 113.222V101.474H44.7431C46.1094 101.474 47.1583 101.796 47.8899 102.442C48.6214 103.082 48.9872 103.945 48.9872 105.032C48.9872 106.119 48.6214 106.987 47.8899 107.638C47.1583 108.289 46.1094 108.614 44.7431 108.614H42.145V113.222H40.612ZM42.145 107.364H44.7431C45.749 107.364 46.451 107.141 46.849 106.694C47.2525 106.248 47.4542 105.694 47.4542 105.032C47.4542 104.37 47.2525 103.822 46.849 103.386C46.451 102.95 45.749 102.732 44.7431 102.732H42.145V107.364ZM50.1326 109.139V108.881C50.1326 107.611 50.5119 106.573 51.2703 105.766C52.0341 104.959 53.0454 104.556 54.3041 104.556C55.5575 104.556 56.523 104.932 57.2008 105.686C57.8785 106.439 58.2174 107.455 58.2174 108.736V109.341H51.004V108.163H56.7328V108.05C56.7328 107.399 56.5391 106.856 56.1518 106.42C55.7646 105.984 55.1621 105.766 54.3445 105.766C53.4354 105.766 52.7523 106.065 52.295 106.662C51.8432 107.254 51.6173 107.993 51.6173 108.881V109.139C51.6173 110.026 51.8566 110.766 52.3354 111.358C52.8141 111.95 53.5537 112.245 54.5543 112.245C55.1675 112.245 55.6919 112.127 56.1276 111.89C56.5687 111.654 56.9237 111.371 57.1927 111.043L58.1448 111.826C57.8543 112.224 57.4025 112.598 56.7893 112.947C56.1814 113.292 55.4364 113.464 54.5543 113.464C53.1288 113.464 52.0341 113.06 51.2703 112.253C50.5119 111.447 50.1326 110.408 50.1326 109.139ZM66.2696 113.222L62.5903 109.397L63.4859 108.405L68.1415 113.222H66.2696ZM61.0734 108.34H62.671L65.9872 104.798H67.7542L63.2923 109.494H61.0734V108.34ZM61.8157 104.798V113.222H60.3311V104.798H61.8157ZM71.7076 105.952L71.5542 109.357C71.4897 110.793 71.2987 111.826 70.9814 112.455C70.6694 113.085 70.118 113.399 69.3273 113.399C69.1337 113.399 68.9615 113.386 68.8109 113.359C68.6603 113.337 68.5339 113.302 68.4317 113.254V112.011C68.5231 112.049 68.6173 112.076 68.7141 112.092C68.8109 112.108 68.9239 112.116 69.053 112.116C69.4618 112.116 69.7415 111.904 69.8921 111.479C70.0481 111.054 70.1503 110.277 70.1987 109.147L70.3924 104.798H76.7666V113.222H75.282V105.952H71.7076ZM79.0094 110.745C79.0094 109.884 79.3698 109.217 80.0906 108.744C80.8167 108.27 81.7688 108.034 82.9469 108.034H85.1819V107.445C85.1819 106.912 85.0259 106.495 84.7139 106.194C84.4019 105.887 83.8721 105.734 83.1244 105.734C82.3982 105.734 81.8657 105.863 81.5268 106.121C81.1933 106.374 81.0265 106.686 81.0265 107.057V107.106H79.55V107.049C79.55 106.35 79.8727 105.761 80.5182 105.282C81.1637 104.798 82.0485 104.556 83.1728 104.556C84.2862 104.556 85.1469 104.801 85.7547 105.29C86.3626 105.774 86.6665 106.492 86.6665 107.445V111.285C86.6665 111.635 86.6934 111.966 86.7472 112.278C86.8064 112.584 86.8897 112.856 86.9973 113.093V113.222H85.5692C85.4831 113.087 85.4051 112.912 85.3352 112.697C85.2706 112.482 85.2303 112.267 85.2141 112.052C84.9936 112.407 84.6278 112.719 84.1168 112.988C83.6112 113.251 82.9603 113.383 82.1642 113.383C81.2497 113.383 80.494 113.157 79.8969 112.705C79.3052 112.248 79.0094 111.595 79.0094 110.745ZM80.494 110.664C80.494 111.153 80.6554 111.533 80.9781 111.802C81.3008 112.071 81.8065 112.205 82.495 112.205C83.1835 112.205 83.8021 112.001 84.3508 111.592C84.9048 111.183 85.1819 110.747 85.1819 110.285V109.091H83.1244C82.2583 109.091 81.6021 109.23 81.1556 109.51C80.7145 109.79 80.494 110.174 80.494 110.664ZM89.353 113.222V104.798H91.3621L94.0893 110.648C94.2346 110.96 94.326 111.178 94.3637 111.301C94.4067 111.42 94.4417 111.546 94.4686 111.681H94.5492C94.5761 111.546 94.6084 111.42 94.6461 111.301C94.6891 111.183 94.7832 110.971 94.9285 110.664L97.6637 104.798H99.6325V113.222H98.2043V107.461C98.2043 107.149 98.207 106.923 98.2124 106.783C98.2232 106.638 98.2366 106.506 98.2528 106.388H98.1801C98.1532 106.5 98.1183 106.624 98.0752 106.759C98.0376 106.888 97.9515 107.095 97.817 107.38L95.0898 113.222H93.8311L91.0878 107.364C90.9802 107.122 90.9022 106.928 90.8538 106.783C90.8054 106.632 90.7704 106.5 90.7489 106.388H90.6682C90.6844 106.5 90.6951 106.63 90.7005 106.775C90.7113 106.915 90.7166 107.127 90.7166 107.412V113.222H89.353ZM101.859 110.745C101.859 109.884 102.22 109.217 102.94 108.744C103.666 108.27 104.619 108.034 105.797 108.034H108.032V107.445C108.032 106.912 107.876 106.495 107.564 106.194C107.252 105.887 106.722 105.734 105.974 105.734C105.248 105.734 104.715 105.863 104.377 106.121C104.043 106.374 103.876 106.686 103.876 107.057V107.106H102.4V107.049C102.4 106.35 102.722 105.761 103.368 105.282C104.013 104.798 104.898 104.556 106.023 104.556C107.136 104.556 107.997 104.801 108.605 105.29C109.212 105.774 109.516 106.492 109.516 107.445V111.285C109.516 111.635 109.543 111.966 109.597 112.278C109.656 112.584 109.739 112.856 109.847 113.093V113.222H108.419C108.333 113.087 108.255 112.912 108.185 112.697C108.12 112.482 108.08 112.267 108.064 112.052C107.843 112.407 107.478 112.719 106.967 112.988C106.461 113.251 105.81 113.383 105.014 113.383C104.1 113.383 103.344 113.157 102.747 112.705C102.155 112.248 101.859 111.595 101.859 110.745ZM103.344 110.664C103.344 111.153 103.505 111.533 103.828 111.802C104.151 112.071 104.656 112.205 105.345 112.205C106.033 112.205 106.652 112.001 107.201 111.592C107.755 111.183 108.032 110.747 108.032 110.285V109.091H105.974C105.108 109.091 104.452 109.23 104.005 109.51C103.564 109.79 103.344 110.174 103.344 110.664Z" fill="#04101C"/>
</g>
<defs>
<filter id="filter0_d_76_39491" x="0.606557" y="0.311731" width="151.476" height="156.983" filterUnits="userSpaceOnUse" color-interpolation-filters="sRGB">
<feFlood flood-opacity="0" result="BackgroundImageFix"/>
<feColorMatrix in="SourceAlpha" type="matrix" values="0 0 0 0 0 0 0 0 0 0 0 0 0 0 0 0 0 0 127 0" result="hardAlpha"/>
<feOffset dx="1.37705" dy="2.7541"/>
<feGaussianBlur stdDeviation="6.88525"/>
<feComposite in2="hardAlpha" operator="out"/>
<feColorMatrix type="matrix" values="0 0 0 0 0.00780001 0 0 0 0 0.045344 0 0 0 0 0.0800001 0 0 0 0.04 0"/>
<feBlend mode="normal" in2="BackgroundImageFix" result="effect1_dropShadow_76_39491"/>
<feBlend mode="normal" in="SourceGraphic" in2="effect1_dropShadow_76_39491" result="shape"/>
</filter>
<radialGradient id="paint0_radial_76_39491" cx="0" cy="0" r="1" gradientUnits="userSpaceOnUse" gradientTransform="translate(77.0327 64.5493) rotate(99.7276) scale(26.1963)">
<stop stop-color="#FD9BE8"/>
<stop offset="0.338542" stop-color="#7A73FF"/>
<stop offset="0.734375" stop-color="#75CDFF"/>
<stop offset="1" stop-color="#4AFCF1"/>
</radialGradient>
<radialGradient id="paint1_radial_76_39491" cx="0" cy="0" r="1" gradientUnits="userSpaceOnUse" gradientTransform="translate(77.0327 64.5493) rotate(99.7276) scale(26.1963)">
<stop stop-color="#FD9BE8"/>
<stop offset="0.338542" stop-color="#7A73FF"/>
<stop offset="0.734375" stop-color="#75CDFF"/>
<stop offset="1" stop-color="#4AFCF1"/>
</radialGradient>
</defs>
</svg>
