<svg width="187" height="158" viewBox="0 0 187 158" fill="none" xmlns="http://www.w3.org/2000/svg">
<g filter="url(#filter0_d_76_39493)">
<rect x="12.6406" y="11.1641" width="158.361" height="129.443" rx="16.5246" fill="white"/>
<path d="M109.172 47.5852H74.4699C73.3131 47.5852 72.542 46.8141 72.542 45.6574C72.542 44.5006 73.3131 43.7295 74.4699 43.7295H109.172C110.328 43.7295 111.099 44.5006 111.099 45.6574C111.099 46.8141 110.328 47.5852 109.172 47.5852Z" fill="url(#paint0_radial_76_39493)"/>
<path d="M109.172 70.7197H91.8207C90.664 70.7197 89.8928 69.9485 89.8928 68.7918C89.8928 67.6351 90.664 66.8639 91.8207 66.8639H109.172C110.328 66.8639 111.099 67.6351 111.099 68.7918C111.099 69.9485 110.328 70.7197 109.172 70.7197Z" fill="url(#paint1_radial_76_39493)"/>
<path d="M109.172 59.1524H91.8207C90.664 59.1524 89.8928 58.3813 89.8928 57.2246C89.8928 56.0679 90.664 55.2967 91.8207 55.2967H109.172C110.328 55.2967 111.099 56.0679 111.099 57.2246C111.099 58.3813 110.328 59.1524 109.172 59.1524Z" fill="url(#paint2_radial_76_39493)"/>
<path d="M109.172 82.2869H74.4699C73.3131 82.2869 72.542 81.5157 72.542 80.359C72.542 79.2023 73.3131 78.4311 74.4699 78.4311H109.172C110.328 78.4311 111.099 79.2023 111.099 80.359C111.099 81.5157 110.328 82.2869 109.172 82.2869Z" fill="url(#paint3_radial_76_39493)"/>
<path d="M76.0122 72.8403C75.4338 72.8403 74.8554 72.6475 74.4699 72.4547C73.3131 71.8764 72.542 70.7197 72.542 69.3701V56.6462C72.542 55.2967 73.3131 54.14 74.4699 53.5616C75.6266 52.9833 76.9761 53.1761 78.1328 53.9472L86.6154 60.3092C87.3866 60.8875 87.9649 61.8515 87.9649 63.0082C87.9649 64.1649 87.3866 65.1288 86.6154 65.9L78.1328 72.262C77.5545 72.6475 76.7833 72.8403 76.0122 72.8403ZM76.3977 57.4174V68.599L83.9164 63.0082L76.3977 57.4174Z" fill="url(#paint4_radial_76_39493)"/>
<path d="M47.7031 113.058L42.4423 107.095L43.7091 106.433L49.5911 113.058H47.7031ZM41.1271 106.369H42.9183L47.4933 101.31H49.2119L43.467 107.627H41.1271V106.369ZM40.3606 113.058V101.31H41.8936V113.058H40.3606ZM50.4299 108.975V108.717C50.4299 107.447 50.8226 106.409 51.608 105.602C52.3987 104.795 53.4557 104.392 54.7789 104.392C56.0968 104.392 57.1511 104.795 57.9418 105.602C58.7326 106.409 59.1279 107.447 59.1279 108.717V108.975C59.1279 110.244 58.7326 111.283 57.9418 112.089C57.1511 112.896 56.0968 113.3 54.7789 113.3C53.4557 113.3 52.3987 112.896 51.608 112.089C50.8226 111.283 50.4299 110.244 50.4299 108.975ZM51.9388 108.717V108.975C51.9388 109.857 52.1781 110.597 52.6569 111.194C53.1356 111.785 53.843 112.081 54.7789 112.081C55.7149 112.081 56.4196 111.785 56.8929 111.194C57.3717 110.597 57.611 109.857 57.611 108.975V108.717C57.611 107.829 57.3717 107.09 56.8929 106.498C56.4196 105.906 55.7149 105.61 54.7789 105.61C53.843 105.61 53.1356 105.906 52.6569 106.498C52.1781 107.09 51.9388 107.829 51.9388 108.717ZM61.3223 104.634H62.8069V108.176H67.2205V104.634H68.7051V113.058H67.2205V109.33H62.8069V113.058H61.3223V104.634ZM70.4718 105.788V104.634H77.9595V105.788H74.958V113.058H73.4733V105.788H70.4718ZM79.2098 108.975V108.717C79.2098 107.447 79.5891 106.409 80.3475 105.602C81.1113 104.795 82.1226 104.392 83.3813 104.392C84.6346 104.392 85.6002 104.768 86.278 105.522C86.9557 106.275 87.2946 107.291 87.2946 108.571V109.177H80.0812V107.999H85.81V107.886C85.81 107.235 85.6163 106.691 85.229 106.256C84.8417 105.82 84.2393 105.602 83.4217 105.602C82.5126 105.602 81.8294 105.901 81.3722 106.498C80.9204 107.09 80.6945 107.829 80.6945 108.717V108.975C80.6945 109.862 80.9338 110.602 81.4126 111.194C81.8913 111.785 82.6309 112.081 83.6314 112.081C84.2447 112.081 84.7691 111.963 85.2048 111.726C85.6459 111.49 86.0009 111.207 86.2699 110.879L87.222 111.662C86.9315 112.06 86.4797 112.434 85.8665 112.783C85.2586 113.128 84.5136 113.3 83.6314 113.3C82.206 113.3 81.1113 112.896 80.3475 112.089C79.5891 111.283 79.2098 110.244 79.2098 108.975ZM95.3468 113.058L91.6675 109.233L92.5631 108.241L97.2187 113.058H95.3468ZM90.1506 108.176H91.7482L95.0644 104.634H96.8314L92.3695 109.33H90.1506V108.176ZM90.8929 104.634V113.058H89.4083V104.634H90.8929ZM98.106 108.975V108.717C98.106 107.442 98.4825 106.404 99.2356 105.602C99.994 104.795 101.038 104.392 102.366 104.392C103.593 104.392 104.523 104.696 105.158 105.304C105.798 105.906 106.118 106.584 106.118 107.337V107.385H104.658V107.337C104.658 106.864 104.475 106.457 104.109 106.119C103.749 105.774 103.168 105.602 102.366 105.602C101.425 105.602 100.731 105.898 100.284 106.49C99.838 107.081 99.6148 107.824 99.6148 108.717V108.975C99.6148 109.862 99.838 110.605 100.284 111.202C100.731 111.794 101.422 112.089 102.358 112.089C103.165 112.089 103.749 111.92 104.109 111.581C104.475 111.237 104.658 110.825 104.658 110.347V110.298H106.118V110.347C106.118 111.105 105.798 111.788 105.158 112.396C104.523 112.998 103.59 113.3 102.358 113.3C101.035 113.3 99.994 112.899 99.2356 112.097C98.4825 111.291 98.106 110.25 98.106 108.975ZM107.183 105.788V104.634H114.671V105.788H111.669V113.058H110.184V105.788H107.183ZM116.429 104.634H117.914V108.176H122.327V104.634H123.812V113.058H122.327V109.33H117.914V113.058H116.429V104.634ZM126.047 110.581C126.047 109.72 126.407 109.053 127.128 108.58C127.854 108.106 128.806 107.869 129.984 107.869H132.219V107.28C132.219 106.748 132.063 106.331 131.751 106.03C131.439 105.723 130.909 105.57 130.162 105.57C129.436 105.57 128.903 105.699 128.564 105.957C128.231 106.21 128.064 106.522 128.064 106.893V106.942H126.587V106.885C126.587 106.186 126.91 105.597 127.556 105.118C128.201 104.634 129.086 104.392 130.21 104.392C131.324 104.392 132.184 104.637 132.792 105.126C133.4 105.61 133.704 106.328 133.704 107.28V111.121C133.704 111.471 133.731 111.802 133.785 112.114C133.844 112.42 133.927 112.692 134.035 112.929V113.058H132.607C132.52 112.923 132.442 112.748 132.373 112.533C132.308 112.318 132.268 112.103 132.252 111.888C132.031 112.243 131.665 112.555 131.154 112.824C130.649 113.087 129.998 113.219 129.202 113.219C128.287 113.219 127.531 112.993 126.934 112.541C126.343 112.084 126.047 111.43 126.047 110.581ZM127.531 110.5C127.531 110.989 127.693 111.369 128.015 111.638C128.338 111.906 128.844 112.041 129.532 112.041C130.221 112.041 130.839 111.837 131.388 111.428C131.942 111.019 132.219 110.583 132.219 110.121V108.926H130.162C129.296 108.926 128.639 109.066 128.193 109.346C127.752 109.626 127.531 110.01 127.531 110.5ZM137.504 113.058H135.882L138.658 109.427L140.134 109.556L137.504 113.058ZM141.974 113.058V109.975H139.569L139.4 109.887C138.351 109.887 137.547 109.655 136.987 109.193C136.428 108.725 136.148 108.098 136.148 107.313C136.148 106.5 136.428 105.852 136.987 105.368C137.552 104.879 138.356 104.634 139.4 104.634H143.459V113.058H141.974ZM139.4 108.822H141.974V105.788H139.4C138.749 105.788 138.292 105.933 138.028 106.223C137.765 106.509 137.633 106.872 137.633 107.313C137.633 107.759 137.762 108.122 138.02 108.402C138.284 108.682 138.744 108.822 139.4 108.822Z" fill="#04101C"/>
</g>
<defs>
<filter id="filter0_d_76_39493" x="0.247182" y="0.147668" width="185.902" height="156.983" filterUnits="userSpaceOnUse" color-interpolation-filters="sRGB">
<feFlood flood-opacity="0" result="BackgroundImageFix"/>
<feColorMatrix in="SourceAlpha" type="matrix" values="0 0 0 0 0 0 0 0 0 0 0 0 0 0 0 0 0 0 127 0" result="hardAlpha"/>
<feOffset dx="1.37705" dy="2.7541"/>
<feGaussianBlur stdDeviation="6.88525"/>
<feComposite in2="hardAlpha" operator="out"/>
<feColorMatrix type="matrix" values="0 0 0 0 0.00780001 0 0 0 0 0.045344 0 0 0 0 0.0800001 0 0 0 0.04 0"/>
<feBlend mode="normal" in2="BackgroundImageFix" result="effect1_dropShadow_76_39493"/>
<feBlend mode="normal" in="SourceGraphic" in2="effect1_dropShadow_76_39493" result="shape"/>
</filter>
<radialGradient id="paint0_radial_76_39493" cx="0" cy="0" r="1" gradientUnits="userSpaceOnUse" gradientTransform="translate(91.8207 63.0082) rotate(99.7276) scale(24.4499)">
<stop stop-color="#FD9BE8"/>
<stop offset="0.338542" stop-color="#7A73FF"/>
<stop offset="0.734375" stop-color="#75CDFF"/>
<stop offset="1" stop-color="#4AFCF1"/>
</radialGradient>
<radialGradient id="paint1_radial_76_39493" cx="0" cy="0" r="1" gradientUnits="userSpaceOnUse" gradientTransform="translate(91.8207 63.0082) rotate(99.7276) scale(24.4499)">
<stop stop-color="#FD9BE8"/>
<stop offset="0.338542" stop-color="#7A73FF"/>
<stop offset="0.734375" stop-color="#75CDFF"/>
<stop offset="1" stop-color="#4AFCF1"/>
</radialGradient>
<radialGradient id="paint2_radial_76_39493" cx="0" cy="0" r="1" gradientUnits="userSpaceOnUse" gradientTransform="translate(91.8207 63.0082) rotate(99.7276) scale(24.4499)">
<stop stop-color="#FD9BE8"/>
<stop offset="0.338542" stop-color="#7A73FF"/>
<stop offset="0.734375" stop-color="#75CDFF"/>
<stop offset="1" stop-color="#4AFCF1"/>
</radialGradient>
<radialGradient id="paint3_radial_76_39493" cx="0" cy="0" r="1" gradientUnits="userSpaceOnUse" gradientTransform="translate(91.8207 63.0082) rotate(99.7276) scale(24.4499)">
<stop stop-color="#FD9BE8"/>
<stop offset="0.338542" stop-color="#7A73FF"/>
<stop offset="0.734375" stop-color="#75CDFF"/>
<stop offset="1" stop-color="#4AFCF1"/>
</radialGradient>
<radialGradient id="paint4_radial_76_39493" cx="0" cy="0" r="1" gradientUnits="userSpaceOnUse" gradientTransform="translate(91.8207 63.0082) rotate(99.7276) scale(24.4499)">
<stop stop-color="#FD9BE8"/>
<stop offset="0.338542" stop-color="#7A73FF"/>
<stop offset="0.734375" stop-color="#75CDFF"/>
<stop offset="1" stop-color="#4AFCF1"/>
</radialGradient>
</defs>
</svg>
