<svg width="230" height="158" viewBox="0 0 230 158" fill="none" xmlns="http://www.w3.org/2000/svg">
<g filter="url(#filter0_d_76_39492)">
<rect x="13.1641" y="12" width="201.049" height="129.443" rx="16.5246" fill="white"/>
<path d="M113.688 44.5654C103.085 44.5654 94.4097 53.2408 94.4097 63.8441C94.4097 74.4474 103.085 83.1228 113.688 83.1228C124.292 83.1228 132.967 74.4474 132.967 63.8441C132.967 53.2408 124.292 44.5654 113.688 44.5654ZM113.688 79.2671C105.206 79.2671 98.2654 72.3267 98.2654 63.8441C98.2654 55.3615 105.206 48.4212 113.688 48.4212C122.171 48.4212 129.111 55.3615 129.111 63.8441C129.111 72.3267 122.171 79.2671 113.688 79.2671Z" fill="url(#paint0_radial_76_39492)"/>
<path d="M124.292 70.3989C122.942 69.0494 121.4 68.0854 119.665 67.3143C121.014 65.772 121.978 63.8441 121.978 61.5307C121.978 56.9038 118.315 53.2408 113.688 53.2408C109.061 53.2408 105.399 56.9038 105.399 61.5307C105.399 63.8441 106.362 65.772 107.712 67.3143C105.977 68.0854 104.435 69.0494 103.085 70.3989C102.314 71.17 102.314 72.3267 103.085 73.0979C103.471 73.4835 104.049 73.6762 104.435 73.6762C105.013 73.6762 105.399 73.4835 105.784 73.0979C107.905 70.9772 110.604 69.8205 113.688 69.8205C116.58 69.8205 119.472 70.9772 121.593 73.0979C122.364 73.869 123.52 73.869 124.292 73.0979C125.063 72.3267 125.063 71.17 124.292 70.3989ZM109.254 61.5307C109.254 59.0244 111.182 57.0966 113.688 57.0966C116.195 57.0966 118.122 59.0244 118.122 61.5307C118.122 64.0369 116.195 65.9648 113.688 65.9648C111.182 65.9648 109.254 64.0369 109.254 61.5307Z" fill="url(#paint1_radial_76_39492)"/>
<path d="M40.4678 103.404V102.146H50.1179V103.404H46.0593V113.894H44.5344V103.404H40.4678ZM51.344 111.416C51.344 110.556 51.7044 109.889 52.4252 109.415C53.1514 108.942 54.1035 108.705 55.2815 108.705H57.5165V108.116C57.5165 107.584 57.3605 107.167 57.0485 106.866C56.7365 106.559 56.2067 106.406 55.459 106.406C54.7328 106.406 54.2003 106.535 53.8614 106.793C53.5279 107.046 53.3611 107.358 53.3611 107.729V107.778H51.8846V107.721C51.8846 107.022 52.2073 106.433 52.8528 105.954C53.4983 105.47 54.3832 105.228 55.5074 105.228C56.6209 105.228 57.4815 105.473 58.0894 105.962C58.6972 106.446 59.0011 107.164 59.0011 108.116V111.957C59.0011 112.307 59.028 112.638 59.0818 112.95C59.141 113.256 59.2244 113.528 59.3319 113.764V113.894H57.9038C57.8177 113.759 57.7397 113.584 57.6698 113.369C57.6052 113.154 57.5649 112.939 57.5488 112.724C57.3282 113.079 56.9624 113.391 56.4514 113.66C55.9458 113.923 55.2949 114.055 54.4988 114.055C53.5844 114.055 52.8286 113.829 52.2315 113.377C51.6398 112.92 51.344 112.266 51.344 111.416ZM52.8286 111.336C52.8286 111.825 52.99 112.205 53.3127 112.473C53.6355 112.742 54.1411 112.877 54.8296 112.877C55.5182 112.877 56.1368 112.672 56.6854 112.264C57.2395 111.855 57.5165 111.419 57.5165 110.957V109.762H55.459C54.5929 109.762 53.9367 109.902 53.4902 110.182C53.0491 110.462 52.8286 110.846 52.8286 111.336ZM61.6877 117.258V105.47H63.0351L63.0997 106.632H63.1319C63.3848 106.266 63.764 105.954 64.2696 105.696C64.7753 105.438 65.367 105.309 66.0447 105.309C67.212 105.309 68.1453 105.709 68.8445 106.511C69.5492 107.307 69.9015 108.321 69.9015 109.553V109.803C69.9015 111.04 69.5492 112.059 68.8445 112.861C68.1453 113.657 67.212 114.055 66.0447 114.055C65.367 114.055 64.7887 113.945 64.31 113.724C63.8366 113.498 63.4574 113.202 63.1723 112.837V117.258H61.6877ZM63.1723 111.336C63.3606 111.728 63.6725 112.078 64.1083 112.385C64.544 112.691 65.0738 112.845 65.6978 112.845C66.623 112.845 67.3007 112.557 67.7311 111.981C68.1668 111.406 68.3846 110.68 68.3846 109.803V109.553C68.3846 108.681 68.1668 107.958 67.7311 107.382C67.3007 106.807 66.623 106.519 65.6978 106.519C65.0738 106.519 64.544 106.672 64.1083 106.979C63.6779 107.285 63.3659 107.635 63.1723 108.028V111.336ZM72.104 105.47H78.1877V106.624H73.5886V113.894H72.104V105.47ZM79.4461 109.811V109.553C79.4461 108.283 79.8253 107.245 80.5838 106.438C81.3476 105.631 82.3589 105.228 83.6176 105.228C84.8709 105.228 85.8365 105.604 86.5142 106.357C87.192 107.111 87.5309 108.127 87.5309 109.407V110.013H80.3175V108.835H86.0463V108.722C86.0463 108.071 85.8526 107.527 85.4653 107.092C85.078 106.656 84.4756 106.438 83.6579 106.438C82.7489 106.438 82.0657 106.737 81.6085 107.334C81.1567 107.925 80.9307 108.665 80.9307 109.553V109.811C80.9307 110.698 81.1701 111.438 81.6488 112.03C82.1276 112.621 82.8672 112.917 83.8677 112.917C84.4809 112.917 85.0054 112.799 85.4411 112.562C85.8822 112.326 86.2372 112.043 86.5062 111.715L87.4583 112.498C87.1678 112.896 86.716 113.27 86.1027 113.619C85.4949 113.963 84.7499 114.136 83.8677 114.136C82.4423 114.136 81.3476 113.732 80.5838 112.925C79.8253 112.118 79.4461 111.08 79.4461 109.811ZM88.7005 106.624V105.47H96.1882V106.624H93.1867V113.894H91.7021V106.624H88.7005ZM97.9469 113.894V105.47H99.4154V110.86C99.4154 111.021 99.4127 111.201 99.4073 111.4C99.4019 111.594 99.3965 111.774 99.3912 111.941H99.4638C99.5391 111.796 99.6198 111.645 99.7058 111.489C99.7973 111.333 99.8995 111.174 100.012 111.013L103.958 105.47H105.443V113.894H103.974V108.512C103.974 108.345 103.977 108.162 103.982 107.963C103.993 107.759 104.004 107.573 104.014 107.406H103.918C103.848 107.546 103.767 107.7 103.676 107.866C103.59 108.028 103.49 108.192 103.377 108.358L99.4315 113.894H97.9469ZM108.153 117.258V105.47H109.501L109.565 106.632H109.598C109.85 106.266 110.23 105.954 110.735 105.696C111.241 105.438 111.833 105.309 112.51 105.309C113.678 105.309 114.611 105.709 115.31 106.511C116.015 107.307 116.367 108.321 116.367 109.553V109.803C116.367 111.04 116.015 112.059 115.31 112.861C114.611 113.657 113.678 114.055 112.51 114.055C111.833 114.055 111.254 113.945 110.776 113.724C110.302 113.498 109.923 113.202 109.638 112.837V117.258H108.153ZM109.638 111.336C109.826 111.728 110.138 112.078 110.574 112.385C111.01 112.691 111.54 112.845 112.164 112.845C113.089 112.845 113.766 112.557 114.197 111.981C114.633 111.406 114.85 110.68 114.85 109.803V109.553C114.85 108.681 114.633 107.958 114.197 107.382C113.766 106.807 113.089 106.519 112.164 106.519C111.54 106.519 111.01 106.672 110.574 106.979C110.144 107.285 109.832 107.635 109.638 108.028V111.336ZM118.061 109.811V109.553C118.061 108.283 118.454 107.245 119.239 106.438C120.03 105.631 121.087 105.228 122.41 105.228C123.728 105.228 124.783 105.631 125.573 106.438C126.364 107.245 126.759 108.283 126.759 109.553V109.811C126.759 111.08 126.364 112.118 125.573 112.925C124.783 113.732 123.728 114.136 122.41 114.136C121.087 114.136 120.03 113.732 119.239 112.925C118.454 112.118 118.061 111.08 118.061 109.811ZM119.57 109.553V109.811C119.57 110.693 119.81 111.433 120.288 112.03C120.767 112.621 121.474 112.917 122.41 112.917C123.346 112.917 124.051 112.621 124.524 112.03C125.003 111.433 125.242 110.693 125.242 109.811V109.553C125.242 108.665 125.003 107.925 124.524 107.334C124.051 106.742 123.346 106.446 122.41 106.446C121.474 106.446 120.767 106.742 120.288 107.334C119.81 107.925 119.57 108.665 119.57 109.553ZM128.954 113.894V105.47H133.198C134.15 105.47 134.892 105.655 135.425 106.027C135.957 106.398 136.224 106.96 136.224 107.713C136.224 108.186 136.084 108.582 135.804 108.899C135.53 109.211 135.158 109.424 134.691 109.536V109.561C135.25 109.652 135.694 109.862 136.022 110.19C136.355 110.518 136.522 110.94 136.522 111.457C136.522 112.226 136.24 112.826 135.675 113.256C135.115 113.681 134.368 113.894 133.432 113.894H128.954ZM130.438 109.036H133.198C133.741 109.036 134.131 108.926 134.368 108.705C134.604 108.479 134.723 108.176 134.723 107.794C134.723 107.417 134.604 107.129 134.368 106.93C134.131 106.726 133.741 106.624 133.198 106.624H130.438V109.036ZM130.438 112.74H133.432C133.986 112.74 134.389 112.621 134.642 112.385C134.9 112.148 135.029 111.836 135.029 111.449C135.029 111.067 134.903 110.76 134.65 110.529C134.397 110.298 133.991 110.182 133.432 110.182H130.438V112.74ZM138.442 111.416C138.442 110.556 138.803 109.889 139.523 109.415C140.249 108.942 141.202 108.705 142.38 108.705H144.615V108.116C144.615 107.584 144.459 107.167 144.147 106.866C143.835 106.559 143.305 106.406 142.557 106.406C141.831 106.406 141.298 106.535 140.96 106.793C140.626 107.046 140.459 107.358 140.459 107.729V107.778H138.983V107.721C138.983 107.022 139.305 106.433 139.951 105.954C140.596 105.47 141.481 105.228 142.606 105.228C143.719 105.228 144.58 105.473 145.188 105.962C145.795 106.446 146.099 107.164 146.099 108.116V111.957C146.099 112.307 146.126 112.638 146.18 112.95C146.239 113.256 146.322 113.528 146.43 113.764V113.894H145.002C144.916 113.759 144.838 113.584 144.768 113.369C144.703 113.154 144.663 112.939 144.647 112.724C144.426 113.079 144.061 113.391 143.55 113.66C143.044 113.923 142.393 114.055 141.597 114.055C140.683 114.055 139.927 113.829 139.33 113.377C138.738 112.92 138.442 112.266 138.442 111.416ZM139.927 111.336C139.927 111.825 140.088 112.205 140.411 112.473C140.734 112.742 141.239 112.877 141.928 112.877C142.616 112.877 143.235 112.672 143.784 112.264C144.338 111.855 144.615 111.419 144.615 110.957V109.762H142.557C141.691 109.762 141.035 109.902 140.588 110.182C140.147 110.462 139.927 110.846 139.927 111.336ZM148.786 105.47H150.27V109.012H154.684V105.47H156.169V113.894H154.684V110.166H150.27V113.894H148.786V105.47ZM158.879 105.47H160.364V109.012H164.778V105.47H166.262V113.894H164.778V110.166H160.364V113.894H158.879V105.47ZM168.497 111.416C168.497 110.556 168.857 109.889 169.578 109.415C170.304 108.942 171.256 108.705 172.434 108.705H174.669V108.116C174.669 107.584 174.513 107.167 174.201 106.866C173.889 106.559 173.36 106.406 172.612 106.406C171.886 106.406 171.353 106.535 171.014 106.793C170.681 107.046 170.514 107.358 170.514 107.729V107.778H169.037V107.721C169.037 107.022 169.36 106.433 170.006 105.954C170.651 105.47 171.536 105.228 172.66 105.228C173.774 105.228 174.634 105.473 175.242 105.962C175.85 106.446 176.154 107.164 176.154 108.116V111.957C176.154 112.307 176.181 112.638 176.235 112.95C176.294 113.256 176.377 113.528 176.485 113.764V113.894H175.057C174.971 113.759 174.893 113.584 174.823 113.369C174.758 113.154 174.718 112.939 174.702 112.724C174.481 113.079 174.115 113.391 173.604 113.66C173.099 113.923 172.448 114.055 171.652 114.055C170.737 114.055 169.981 113.829 169.384 113.377C168.793 112.92 168.497 112.266 168.497 111.416ZM169.981 111.336C169.981 111.825 170.143 112.205 170.466 112.473C170.788 112.742 171.294 112.877 171.983 112.877C172.671 112.877 173.29 112.672 173.838 112.264C174.392 111.855 174.669 111.419 174.669 110.957V109.762H172.612C171.746 109.762 171.09 109.902 170.643 110.182C170.202 110.462 169.981 110.846 169.981 111.336ZM179.954 113.894H178.332L181.108 110.263L182.584 110.392L179.954 113.894ZM184.424 113.894V110.811H182.02L181.85 110.723C180.801 110.723 179.997 110.491 179.438 110.029C178.878 109.561 178.598 108.934 178.598 108.149C178.598 107.336 178.878 106.688 179.438 106.204C180.002 105.715 180.807 105.47 181.85 105.47H185.909V113.894H184.424ZM181.85 109.658H184.424V106.624H181.85C181.199 106.624 180.742 106.769 180.478 107.059C180.215 107.345 180.083 107.708 180.083 108.149C180.083 108.595 180.212 108.958 180.47 109.238C180.734 109.518 181.194 109.658 181.85 109.658Z" fill="#04101C"/>
</g>
<defs>
<filter id="filter0_d_76_39492" x="0.770619" y="0.983606" width="228.59" height="156.983" filterUnits="userSpaceOnUse" color-interpolation-filters="sRGB">
<feFlood flood-opacity="0" result="BackgroundImageFix"/>
<feColorMatrix in="SourceAlpha" type="matrix" values="0 0 0 0 0 0 0 0 0 0 0 0 0 0 0 0 0 0 127 0" result="hardAlpha"/>
<feOffset dx="1.37705" dy="2.7541"/>
<feGaussianBlur stdDeviation="6.88525"/>
<feComposite in2="hardAlpha" operator="out"/>
<feColorMatrix type="matrix" values="0 0 0 0 0.00780001 0 0 0 0 0.045344 0 0 0 0 0.0800001 0 0 0 0.04 0"/>
<feBlend mode="normal" in2="BackgroundImageFix" result="effect1_dropShadow_76_39492"/>
<feBlend mode="normal" in="SourceGraphic" in2="effect1_dropShadow_76_39492" result="shape"/>
</filter>
<radialGradient id="paint0_radial_76_39492" cx="0" cy="0" r="1" gradientUnits="userSpaceOnUse" gradientTransform="translate(113.688 63.8441) rotate(99.7276) scale(24.4499)">
<stop stop-color="#FD9BE8"/>
<stop offset="0.338542" stop-color="#7A73FF"/>
<stop offset="0.734375" stop-color="#75CDFF"/>
<stop offset="1" stop-color="#4AFCF1"/>
</radialGradient>
<radialGradient id="paint1_radial_76_39492" cx="0" cy="0" r="1" gradientUnits="userSpaceOnUse" gradientTransform="translate(113.688 63.8441) rotate(99.7276) scale(24.4499)">
<stop stop-color="#FD9BE8"/>
<stop offset="0.338542" stop-color="#7A73FF"/>
<stop offset="0.734375" stop-color="#75CDFF"/>
<stop offset="1" stop-color="#4AFCF1"/>
</radialGradient>
</defs>
</svg>
