<svg width="200" height="148" viewBox="0 0 200 148" fill="none" xmlns="http://www.w3.org/2000/svg">
<g clip-path="url(#clip0_1789_38609)">
<path d="M88 78V80C88 80.5667 87.8087 81.0413 87.426 81.424C87.042 81.808 86.5667 82 86 82H84C83.4333 82 82.9587 81.808 82.576 81.424C82.192 81.0413 82 80.5667 82 80V64L86.2 52C86.4 51.4 86.7587 50.9167 87.276 50.55C87.792 50.1833 88.3667 50 89 50H111C111.633 50 112.209 50.1833 112.726 50.55C113.242 50.9167 113.6 51.4 113.8 52L118 64V80C118 80.5667 117.808 81.0413 117.424 81.424C117.041 81.808 116.567 82 116 82H114C113.433 82 112.959 81.808 112.576 81.424C112.192 81.0413 112 80.5667 112 80V78H88ZM87.6 60H112.4L110.3 54H89.7L87.6 60ZM91 72C91.8333 72 92.5413 71.708 93.124 71.124C93.708 70.5413 94 69.8333 94 69C94 68.1667 93.708 67.4587 93.124 66.876C92.5413 66.292 91.8333 66 91 66C90.1667 66 89.4587 66.292 88.876 66.876C88.292 67.4587 88 68.1667 88 69C88 69.8333 88.292 70.5413 88.876 71.124C89.4587 71.708 90.1667 72 91 72ZM109 72C109.833 72 110.541 71.708 111.124 71.124C111.708 70.5413 112 69.8333 112 69C112 68.1667 111.708 67.4587 111.124 66.876C110.541 66.292 109.833 66 109 66C108.167 66 107.459 66.292 106.876 66.876C106.292 67.4587 106 68.1667 106 69C106 69.8333 106.292 70.5413 106.876 71.124C107.459 71.708 108.167 72 109 72ZM86 74H114V64H86V74Z" fill="url(#paint0_radial_1789_38609)"/>
</g>
<path d="M41.984 111L47.9898 96.7031H50.2848L56.3004 111H53.8883L49.65 100.463C49.5328 100.176 49.4286 99.9095 49.3375 99.6621C49.2529 99.4082 49.1747 99.1543 49.1031 98.9004H49.0055C48.9339 99.1543 48.8525 99.4082 48.7613 99.6621C48.6767 99.9095 48.5758 100.176 48.4586 100.463L44.2008 111H41.984ZM44.6598 107.455L45.3238 105.707H52.8629L53.5367 107.455H44.6598ZM57.9992 111V100.902H63.9367C65.1542 100.902 66.0689 101.124 66.6809 101.566C67.2994 102.003 67.6086 102.66 67.6086 103.539C67.6086 104.125 67.4458 104.607 67.1203 104.984C66.8013 105.355 66.3553 105.616 65.7824 105.766V105.805C66.44 105.915 66.9673 106.169 67.3645 106.566C67.7681 106.964 67.9699 107.484 67.9699 108.129C67.9699 109.034 67.6444 109.74 66.9934 110.248C66.3423 110.749 65.4276 111 64.2492 111H57.9992ZM60.1574 105.111H63.7512C64.3436 105.111 64.7701 104.988 65.0305 104.74C65.2909 104.493 65.4211 104.151 65.4211 103.715C65.4211 103.305 65.2909 102.989 65.0305 102.768C64.7701 102.546 64.3436 102.436 63.7512 102.436H60.1574V105.111ZM60.1574 109.457H64.0246C64.6366 109.457 65.0826 109.33 65.3625 109.076C65.649 108.816 65.7922 108.464 65.7922 108.021C65.7922 107.592 65.6522 107.25 65.3723 106.996C65.0923 106.736 64.6431 106.605 64.0246 106.605H60.1574V109.457ZM69.6297 102.562V100.902H79.659V102.562H75.7332V111H73.5555V102.562H69.6297ZM81.1332 106.088V105.795C81.1332 104.245 81.6573 102.995 82.7055 102.045C83.7602 101.088 85.1599 100.609 86.9047 100.609C88.643 100.609 90.0362 101.088 91.0844 102.045C92.1391 102.995 92.6664 104.245 92.6664 105.795V106.088C92.6664 107.644 92.1391 108.9 91.0844 109.857C90.0362 110.814 88.643 111.293 86.9047 111.293C85.1599 111.293 83.7602 110.814 82.7055 109.857C81.6573 108.9 81.1332 107.644 81.1332 106.088ZM83.3598 105.746V106.146C83.3598 107.169 83.6592 107.995 84.2582 108.627C84.8572 109.258 85.7361 109.574 86.8949 109.574C88.0603 109.574 88.9425 109.258 89.5414 108.627C90.1404 107.995 90.4398 107.169 90.4398 106.146V105.746C90.4398 104.724 90.1371 103.897 89.5316 103.266C88.9327 102.634 88.0538 102.318 86.8949 102.318C85.7426 102.318 84.8637 102.634 84.2582 103.266C83.6592 103.897 83.3598 104.724 83.3598 105.746ZM94.6191 106.088V105.795C94.6191 104.239 95.127 102.986 96.1426 102.035C97.1582 101.085 98.5384 100.609 100.283 100.609C101.917 100.609 103.158 100.971 104.004 101.693C104.857 102.416 105.296 103.262 105.322 104.232V104.33H103.154V104.252C103.148 103.679 102.917 103.21 102.461 102.846C102.012 102.481 101.286 102.299 100.283 102.299C99.1113 102.299 98.2454 102.618 97.6855 103.256C97.1257 103.887 96.8457 104.717 96.8457 105.746V106.146C96.8457 107.175 97.1224 108.008 97.6758 108.646C98.2357 109.278 99.1016 109.594 100.273 109.594C101.289 109.594 102.021 109.411 102.471 109.047C102.926 108.682 103.158 108.214 103.164 107.641V107.562H105.322V107.65C105.316 108.614 104.883 109.464 104.023 110.199C103.164 110.928 101.917 111.293 100.283 111.293C98.5319 111.293 97.1484 110.818 96.1328 109.867C95.1237 108.91 94.6191 107.65 94.6191 106.088ZM106.963 108.021C106.963 106.967 107.412 106.16 108.31 105.6C109.215 105.033 110.459 104.75 112.041 104.75L115.019 104.76V104.057C115.019 103.445 114.817 102.982 114.414 102.67C114.017 102.357 113.352 102.201 112.421 102.201C111.53 102.201 110.869 102.335 110.439 102.602C110.009 102.868 109.795 103.223 109.795 103.666V103.764H107.646V103.656C107.646 102.732 108.076 101.993 108.935 101.439C109.801 100.886 110.992 100.609 112.509 100.609C114.007 100.609 115.159 100.902 115.966 101.488C116.78 102.068 117.187 102.934 117.187 104.086V108.676C117.187 109.099 117.223 109.499 117.295 109.877C117.373 110.248 117.48 110.57 117.617 110.844V111H115.507C115.41 110.837 115.319 110.632 115.234 110.385C115.156 110.131 115.104 109.87 115.078 109.604C114.804 110.027 114.323 110.398 113.632 110.717C112.942 111.029 112.07 111.186 111.015 111.186C109.778 111.186 108.792 110.915 108.056 110.375C107.327 109.828 106.963 109.044 106.963 108.021ZM109.13 107.885C109.13 108.451 109.329 108.881 109.726 109.174C110.13 109.46 110.768 109.604 111.64 109.604C112.532 109.604 113.317 109.376 113.994 108.92C114.677 108.464 115.019 107.956 115.019 107.396V106.156L112.373 106.146C111.305 106.146 110.498 106.296 109.951 106.596C109.404 106.895 109.13 107.325 109.13 107.885ZM123.368 102.562L123.193 106.381C123.114 108.113 122.867 109.353 122.45 110.102C122.04 110.844 121.321 111.215 120.292 111.215C120.051 111.215 119.833 111.202 119.638 111.176C119.443 111.15 119.28 111.107 119.15 111.049V109.271C119.26 109.317 119.371 109.35 119.482 109.369C119.599 109.382 119.736 109.389 119.892 109.389C120.367 109.389 120.696 109.154 120.878 108.686C121.067 108.217 121.187 107.361 121.239 106.117L121.464 100.902H130.009V111H127.831V102.562H123.368ZM132.577 106.088V105.795C132.577 104.245 133.101 102.995 134.149 102.045C135.204 101.088 136.604 100.609 138.348 100.609C140.087 100.609 141.48 101.088 142.528 102.045C143.583 102.995 144.11 104.245 144.11 105.795V106.088C144.11 107.644 143.583 108.9 142.528 109.857C141.48 110.814 140.087 111.293 138.348 111.293C136.604 111.293 135.204 110.814 134.149 109.857C133.101 108.9 132.577 107.644 132.577 106.088ZM134.804 105.746V106.146C134.804 107.169 135.103 107.995 135.702 108.627C136.301 109.258 137.18 109.574 138.339 109.574C139.504 109.574 140.386 109.258 140.985 108.627C141.584 107.995 141.884 107.169 141.884 106.146V105.746C141.884 104.724 141.581 103.897 140.975 103.266C140.376 102.634 139.498 102.318 138.339 102.318C137.186 102.318 136.307 102.634 135.702 103.266C135.103 103.897 134.804 104.724 134.804 105.746ZM146.678 100.902H148.856V105.014H154.364V100.902H156.541V111H154.364V106.674H148.856V111H146.678V100.902Z" fill="#7A73FF"/>
<defs>
<radialGradient id="paint0_radial_1789_38609" cx="0" cy="0" r="1" gradientUnits="userSpaceOnUse" gradientTransform="translate(100 66) rotate(100.916) scale(20.3685 22.7422)">
<stop offset="0.055" stop-color="#7A73FF"/>
<stop offset="0.65" stop-color="#67DDFA"/>
<stop offset="1" stop-color="#4AFCF1"/>
</radialGradient>
<clipPath id="clip0_1789_38609">
<rect width="48" height="48" fill="white" transform="translate(76 40)"/>
</clipPath>
</defs>
</svg>
