<svg width="261" height="184" viewBox="0 0 261 184" fill="none" xmlns="http://www.w3.org/2000/svg">
<path d="M198.743 112.873C196.715 111.785 196.4 108.709 196.445 101.229L196.49 89.7657L192.615 89.7611L193.516 87.6398H196.49V82.2114L203.61 79.4973V87.4591L206.899 87.4637L206.043 89.8167L203.61 89.812V109.649C203.745 111.247 204.286 112.188 205.007 112.873H198.743Z" fill="#514F4F"/>
<path d="M93.2965 131.057C93.0712 130.413 92.6206 130.001 91.9446 130.001C90.9983 130.001 90.6378 130.501 90.6378 131.191C90.6378 132.836 94.2428 132.535 94.2428 135.323C94.2428 136.879 92.936 138 91.0885 138C90.4576 138 89.7366 137.843 89.1958 137.477C89.331 136.962 89.4662 136.453 89.5563 135.93H89.7816C89.9168 136.768 90.5928 137.268 91.4039 137.268C92.1249 137.268 92.8008 136.842 92.8008 136.004C92.8008 134.054 89.2409 134.762 89.2409 131.826C89.2409 130.427 90.1872 129.269 91.9897 129.269C92.8459 129.269 93.6119 129.598 93.8373 129.853C93.7021 130.242 93.6119 130.645 93.4768 131.057H93.2965Z" fill="#514F4F"/>
<path d="M128.58 63.8561C129.121 65.3892 130.383 66.9732 129.482 68.7518C129.076 70.5581 127.409 72.0217 125.651 72.3135C123.804 72.4849 122.091 72.1653 120.694 71.0213C119.748 65.806 121.821 60.9798 125.832 58.1036L128.58 63.8561Z" fill="#514F4F"/>
<path d="M135.655 79.7476C134.754 82.9017 125.696 80.8314 122.857 75.6532C126.597 76.0793 130.788 72.6796 130.878 68.8029L135.655 79.7476Z" fill="#514F4F"/>
<path d="M139.397 79.3399C139.803 79.15 140.614 78.7239 140.839 77.8115L131.106 56.0518C130.43 55.9685 129.979 55.9083 129.123 56.515L139.397 79.3399Z" fill="#514F4F"/>
<path d="M143.767 74.6155C147.912 68.1543 144.443 57.5524 135.475 56.0656L143.767 74.6155Z" fill="#514F4F"/>
<path d="M49 123.563H205.547V122.331H49V123.563Z" fill="#514F4F"/>
<path d="M99.6506 133.503C99.6506 133.03 99.2451 132.65 98.7945 132.65C98.3438 132.65 97.9833 133.03 97.9833 133.503C97.9833 133.975 98.3438 134.355 98.7945 134.355C99.2451 134.355 99.6506 133.975 99.6506 133.503Z" fill="#514F4F"/>
<path d="M142.866 88.5244C144.173 87.3943 146.471 87.3711 147.958 88.0937C148.589 88.4179 149.174 88.8486 149.58 89.4137L146.696 94.0083C146.336 93.7119 146.065 93.5776 145.615 93.3367C144.173 92.7022 142.685 93.0727 141.829 93.874V107.283C141.784 109.603 142.19 111.72 143.361 112.818H136.827C135.43 111.743 135.115 110.025 134.98 108.519L134.935 90.6874C134.98 89.2423 134.619 88.6078 134.078 87.7972L140.838 87.825C141.379 88.228 141.424 88.9274 141.694 89.4647L142.866 88.5244Z" fill="#514F4F"/>
<path d="M151.112 92.9338C151.067 91.2386 151.427 89.2099 150.346 87.7463H156.609C157.06 88.0705 157.285 88.6078 157.421 89.1173C157.781 89.5712 157.736 90.2196 157.871 90.7569L157.961 109.756C158.187 110.886 158.637 112.026 159.448 112.915L152.734 112.929C150.526 110.743 151.247 107.148 151.067 103.438L151.112 92.9338Z" fill="#514F4F"/>
<path d="M161.071 93.119C161.747 91.1876 163.865 90.2196 165.397 89.1682C167.74 88.2836 170.354 86.0789 172.968 87.8806C175.176 89.3581 177.113 91.0255 178.51 93.3089C178.826 94.1936 179.006 95.1894 179.231 96.1296C179.231 97.3941 179.502 98.3343 179.457 99.5988C179.547 100.97 179.547 102.206 179.457 103.55C179.366 105.833 178.33 107.876 176.573 109.46C173.959 111.854 170.669 114.568 167.109 112.711C163.91 111.178 160.17 108.144 160.395 103.976C160.26 101.021 160.125 98.4686 160.53 95.5923C160.665 94.7586 160.62 93.8462 161.071 93.119ZM167.605 106.556C167.921 107.741 168.506 109.191 169.903 109.353C170.714 109.381 171.3 108.681 171.796 108.089C173.238 105.134 173.013 101.91 173.013 98.5474C172.562 96.0509 173.148 92.6373 170.534 91.1043C169.588 90.7569 168.912 91.4007 168.326 91.9935C167.29 93.5776 167.2 95.3932 167.109 97.408C166.794 100.632 167.154 103.304 167.605 106.556Z" fill="#514F4F"/>
<path d="M184.098 112.873C182.07 111.785 181.754 108.709 181.8 101.229L181.845 89.7657L178.014 89.7611L178.87 87.6398H181.845V82.2114L189.01 79.4973V87.4591L192.254 87.4637L191.398 89.8167L189.01 89.812V109.649C189.145 111.247 189.686 112.188 190.406 112.873H184.098Z" fill="#514F4F"/>
<path d="M118.847 90.6874C118.802 89.2423 118.531 88.6078 117.991 87.7972L124.75 87.825C125.291 88.228 125.336 88.9274 125.606 89.4647L126.778 88.5244C128.085 87.3943 130.383 87.3711 131.87 88.0937C132.501 88.4179 133.087 88.8486 133.492 89.4137L130.608 94.0083C130.248 93.7119 129.977 93.5776 129.527 93.3367C128.085 92.7022 126.598 93.0727 125.742 93.874V107.283C125.696 109.603 126.102 111.72 127.274 112.818H120.74C119.388 111.743 118.982 110.145 118.892 108.519L118.847 90.6874Z" fill="#514F4F"/>
<path d="M67.611 97.7415L65.1776 102.947C63.4652 106.018 61.1219 109.784 57.5169 110.719C56.12 111.22 54.8582 110.766 53.5064 110.668L49.1353 118.01C49.4958 118.371 49.9464 118.672 50.397 118.848C58.0577 121.859 61.167 118.621 68.6925 101.062L75.8574 116.704H85.3656L80.8593 106.148L83.4279 100.692L90.4577 116.463L99.5603 116.523L83.6082 80.544L76.263 84.2911L82.031 97.7183L79.5075 102.994L68.9628 79.6131L61.2571 83.6611L67.611 97.7415Z" fill="#514F4F"/>
<path d="M96.8566 104.087C97.0369 101.479 98.4338 99.0337 100.777 97.7183C103.12 96.2362 105.824 95.6479 108.257 94.3557C108.663 94.0083 109.159 93.5776 109.204 93.0125C109.249 92.3131 108.888 91.7758 108.303 91.535C104.607 90.7291 101.588 93.0913 98.9295 95.4303C99.245 93.7119 99.5153 91.8314 100.326 90.2196C100.687 89.7889 100.957 89.196 101.453 88.8764C104.067 87.5564 107.311 87.1812 110.195 87.3943C112.583 87.5564 114.792 89.3025 115.603 91.535C116.008 92.5818 115.963 93.7675 116.053 94.842L116.098 109.409C116.098 110.668 116.684 111.854 117.405 112.873H110.646C109.835 112.123 109.429 111.178 109.204 109.997C107.311 111.72 103.346 114.272 101.002 112.577C98.569 111.451 96.3159 107.658 96.8566 104.087ZM108.843 99.0198C108.798 98.0101 108.122 97.9036 107.627 97.9036C106.004 98.1444 104.607 99.5385 103.796 100.97C103.12 102.243 102.94 103.318 102.895 104.434C102.895 105.638 102.805 106.532 103.301 107.445C103.571 108.038 104.112 108.306 104.698 108.464C105.734 108.681 106.68 108.385 107.491 107.82C109.429 106.718 109.069 104.513 109.114 102.554L108.843 99.0198Z" fill="#514F4F"/>
<path d="M161.296 133.503C161.296 133.03 160.89 132.65 160.44 132.65C159.989 132.65 159.629 133.03 159.629 133.503C159.629 133.975 159.989 134.355 160.44 134.355C160.89 134.355 161.296 133.975 161.296 133.503Z" fill="#514F4F"/>
<path d="M104.562 129.487H107.086C107.627 129.487 108.528 129.464 109.023 129.732C109.699 130.098 110.015 130.645 110.015 131.474C110.015 132.669 109.294 133.424 108.167 133.665C108.843 134.832 109.564 135.953 110.285 137.088L110.736 137.843C110.375 137.815 110.015 137.782 109.654 137.782C109.294 137.782 108.978 137.815 108.618 137.843L107.176 135.286C106.996 134.957 106.68 134.397 106.41 133.933H106.32V137.843C106.049 137.815 105.734 137.782 105.464 137.782C105.148 137.782 104.878 137.815 104.562 137.843V129.487ZM106.32 133.41C107.581 133.53 108.212 132.924 108.212 131.669C108.212 131.497 108.167 131.316 108.122 131.057C107.942 130.047 107.041 130.145 106.32 130.145V133.41Z" fill="#514F4F"/>
<path d="M117.045 129.487C116.999 129.658 116.954 129.844 116.954 130.01C116.954 130.182 116.999 130.367 117.045 130.534C116.278 130.436 115.512 130.339 114.296 130.367V132.984H115.512C116.053 132.984 116.549 132.933 116.999 132.873C116.954 133.044 116.909 133.225 116.909 133.396C116.909 133.567 116.954 133.753 116.999 133.919C116.549 133.859 116.053 133.813 115.512 133.813H114.296V136.902C115.512 136.893 116.278 136.833 117.045 136.736C116.999 136.902 116.954 137.088 116.954 137.259C116.954 137.426 116.999 137.611 117.045 137.782H112.493V129.487H117.045Z" fill="#514F4F"/>
<path d="M122.813 131.057C122.542 130.413 122.092 130.001 121.416 130.001C120.514 130.001 120.109 130.501 120.109 131.191C120.109 132.836 123.714 132.535 123.714 135.323C123.714 136.879 122.452 138 120.604 138C119.929 138 119.253 137.843 118.712 137.477C118.847 136.962 118.982 136.453 119.027 135.93H119.253C119.433 136.768 120.064 137.268 120.875 137.268C121.641 137.268 122.272 136.842 122.272 136.004C122.272 134.054 118.757 134.762 118.757 131.826C118.757 130.427 119.658 129.269 121.506 129.269C122.317 129.269 123.083 129.598 123.353 129.853C123.218 130.242 123.083 130.645 122.993 131.057H122.813Z" fill="#514F4F"/>
<path d="M129.572 138C126.958 138 125.201 136.416 125.201 133.651C125.201 131.228 126.913 129.269 129.888 129.269C133.267 129.269 134.259 131.715 134.259 133.605C134.259 135.981 132.501 138 129.572 138ZM127.184 134.008C127.184 135.587 127.86 137.268 129.662 137.268C131.465 137.268 132.276 135.392 132.276 133.373C132.276 131.803 131.555 130.001 129.797 130.001C128.175 130.001 127.184 131.279 127.184 134.008Z" fill="#514F4F"/>
<path d="M136.241 129.487H138.765C139.305 129.487 140.162 129.464 140.657 129.732C141.333 130.098 141.694 130.645 141.694 131.474C141.694 132.669 140.928 133.424 139.846 133.665C140.522 134.832 141.243 135.953 141.964 137.088L142.415 137.843C142.054 137.815 141.694 137.782 141.333 137.782C140.973 137.782 140.612 137.815 140.252 137.843L138.855 135.286C138.675 134.957 138.359 134.397 138.089 133.933H137.999V137.843C137.683 137.815 137.413 137.782 137.097 137.782C136.827 137.782 136.512 137.815 136.241 137.843V129.487ZM137.999 133.41C139.26 133.53 139.846 132.924 139.846 131.669C139.846 131.497 139.846 131.316 139.801 131.057C139.621 130.047 138.72 130.145 137.999 130.145V133.41Z" fill="#514F4F"/>
<path d="M147.462 137.843C147.191 137.815 146.876 137.782 146.56 137.782C146.29 137.782 145.975 137.815 145.704 137.843V130.353C144.848 130.353 144.127 130.436 143.496 130.524C143.496 130.353 143.541 130.182 143.541 130.001C143.541 129.83 143.496 129.658 143.496 129.487H149.58C149.58 129.658 149.535 129.83 149.535 130.001C149.535 130.182 149.58 130.353 149.58 130.524C148.904 130.436 148.183 130.353 147.462 130.353V137.843Z" fill="#514F4F"/>
<path d="M155.122 131.057C154.897 130.413 154.446 130.001 153.77 130.001C152.824 130.001 152.464 130.501 152.464 131.191C152.464 132.836 156.069 132.535 156.069 135.323C156.069 136.879 154.762 138 152.914 138C152.283 138 151.562 137.843 151.022 137.477C151.157 136.962 151.292 136.453 151.382 135.93H151.607C151.743 136.768 152.419 137.268 153.23 137.268C153.951 137.268 154.582 136.842 154.582 136.004C154.582 134.054 151.067 134.762 151.067 131.826C151.067 130.427 152.013 129.269 153.816 129.269C154.672 129.269 155.438 129.598 155.663 129.853C155.528 130.242 155.438 130.645 155.303 131.057H155.122Z" fill="#514F4F"/>
<path d="M169.678 131.057C169.407 130.413 168.957 130.001 168.281 130.001C167.38 130.001 166.974 130.501 166.974 131.191C166.974 132.836 170.579 132.535 170.579 135.323C170.579 136.879 169.317 138 167.47 138C166.794 138 166.118 137.843 165.577 137.477C165.712 136.962 165.802 136.453 165.893 135.93H166.118C166.298 136.768 166.929 137.268 167.74 137.268C168.506 137.268 169.137 136.842 169.137 136.004C169.137 134.054 165.622 134.762 165.622 131.826C165.622 130.427 166.568 129.269 168.326 129.269C169.182 129.269 169.948 129.598 170.219 129.853C170.083 130.242 169.948 130.645 169.858 131.057H169.678Z" fill="#514F4F"/>
<path d="M172.697 129.487C173.013 129.515 173.283 129.552 173.598 129.552C173.914 129.552 174.184 129.515 174.5 129.487V132.947C174.5 133.618 174.455 134.614 174.59 135.249C174.68 135.846 174.77 136.221 175.176 136.648C175.581 137.013 176.032 137.171 176.573 137.171C177.654 137.171 178.24 136.759 178.645 135.698C178.871 135.161 178.871 133.776 178.871 133.178V129.487C179.006 129.515 179.186 129.524 179.321 129.524C179.502 129.524 179.682 129.515 179.817 129.487V133.822C179.772 135.212 179.817 136.476 178.555 137.356C177.924 137.829 177.113 138 176.302 138C174.905 138 173.328 137.537 172.922 135.953C172.787 135.48 172.697 134.943 172.697 134.457V129.487Z" fill="#514F4F"/>
<path d="M182.611 129.487C182.926 129.515 183.242 129.552 183.512 129.552C183.828 129.552 184.098 129.515 184.413 129.487V137.843C184.098 137.815 183.828 137.782 183.512 137.782C183.242 137.782 182.926 137.815 182.611 137.843V129.487Z" fill="#514F4F"/>
<path d="M190.407 137.843C190.091 137.815 189.776 137.782 189.505 137.782C189.19 137.782 188.92 137.815 188.604 137.843V130.353C187.793 130.353 187.027 130.436 186.396 130.524C186.441 130.353 186.486 130.182 186.486 130.001C186.486 129.83 186.441 129.658 186.396 129.487H192.525C192.48 129.658 192.435 129.83 192.435 130.001C192.435 130.182 192.48 130.353 192.525 130.524C191.804 130.436 191.128 130.353 190.407 130.353V137.843Z" fill="#514F4F"/>
<path d="M198.878 129.487C198.833 129.658 198.833 129.844 198.833 130.01C198.833 130.182 198.833 130.367 198.878 130.534C198.157 130.436 197.346 130.339 196.13 130.367V132.984H197.346C197.887 132.984 198.383 132.933 198.833 132.873C198.788 133.044 198.788 133.225 198.788 133.396C198.788 133.567 198.788 133.753 198.833 133.919C198.383 133.859 197.887 133.813 197.346 133.813H196.13V136.902C197.346 136.893 198.157 136.833 198.878 136.736C198.833 136.902 198.833 137.088 198.833 137.259C198.833 137.426 198.833 137.611 198.878 137.782H194.372V129.487H198.878Z" fill="#514F4F"/>
<path d="M204.646 131.057C204.421 130.413 203.97 130.001 203.295 130.001C202.348 130.001 201.988 130.501 201.988 131.191C201.988 132.836 205.593 132.535 205.593 135.323C205.593 136.879 204.286 138 202.438 138C201.807 138 201.086 137.843 200.546 137.477C200.681 136.962 200.816 136.453 200.861 135.93H201.086C201.267 136.768 201.898 137.268 202.754 137.268C203.475 137.268 204.106 136.842 204.106 136.004C204.106 134.054 200.591 134.762 200.591 131.826C200.591 130.427 201.537 129.269 203.34 129.269C204.196 129.269 204.962 129.598 205.187 129.853C205.052 130.242 204.962 130.645 204.827 131.057H204.646Z" fill="#514F4F"/>
<path d="M49.2255 129.487C49.5409 129.515 49.8113 129.552 50.1267 129.552C50.3971 129.552 50.7125 129.515 51.028 129.487V132.789C51.6138 132.813 52.2447 132.85 52.8305 132.85C53.4163 132.85 54.0472 132.813 54.633 132.789V129.487C54.9484 129.515 55.2188 129.552 55.5342 129.552C55.8046 129.552 56.12 129.515 56.4355 129.487V137.843C56.12 137.815 55.8046 137.782 55.5342 137.782C55.2188 137.782 54.9484 137.815 54.633 137.843V133.762C54.0472 133.739 53.4163 133.702 52.8305 133.702C52.2447 133.702 51.6138 133.739 51.028 133.762V137.843C50.7125 137.815 50.3971 137.782 50.1267 137.782C49.8113 137.782 49.5409 137.815 49.2255 137.843V129.487Z" fill="#514F4F"/>
<path d="M62.9245 138C60.3108 138 58.5083 136.416 58.5083 133.651C58.5083 131.228 60.2658 129.269 63.1948 129.269C66.5745 129.269 67.5659 131.715 67.5659 133.605C67.5659 135.981 65.8085 138 62.9245 138ZM60.4911 134.008C60.4911 135.587 61.2121 137.268 62.9695 137.268C64.772 137.268 65.6282 135.392 65.6282 133.373C65.6282 131.803 64.9072 130.001 63.1047 130.001C61.4825 130.001 60.4911 131.279 60.4911 134.008Z" fill="#514F4F"/>
<path d="M71.9822 137.843C71.7118 137.815 71.3964 137.782 71.126 137.782C70.8106 137.782 70.5402 137.815 70.2247 137.843V130.353C69.3685 130.353 68.6475 130.436 68.0167 130.524C68.0617 130.353 68.0617 130.182 68.0617 130.001C68.0617 129.83 68.0617 129.658 68.0167 129.487H74.1001C74.1001 129.658 74.055 129.83 74.055 130.001C74.055 130.182 74.1001 130.353 74.1001 130.524C73.4242 130.436 72.7032 130.353 71.9822 130.353V137.843Z" fill="#514F4F"/>
<path d="M80.4087 129.487C80.4087 129.658 80.3636 129.844 80.3636 130.01C80.3636 130.182 80.4087 130.367 80.4087 130.534C79.6877 130.436 78.8766 130.339 77.6599 130.367V132.984H78.9216C79.4624 132.984 79.913 132.933 80.3636 132.873C80.3186 133.044 80.3186 133.225 80.3186 133.396C80.3186 133.567 80.3186 133.753 80.3636 133.919C79.913 133.859 79.4624 133.813 78.9216 133.813H77.6599V136.902C78.8766 136.893 79.6877 136.833 80.4087 136.736C80.4087 136.902 80.3636 137.088 80.3636 137.259C80.3636 137.426 80.4087 137.611 80.4087 137.782H75.9025V129.487H80.4087Z" fill="#514F4F"/>
<path d="M84.4643 136.902C85.5007 136.902 86.3569 136.819 87.168 136.736C87.123 136.902 87.0779 137.088 87.0779 137.259C87.0779 137.426 87.123 137.611 87.168 137.782H82.6618V129.487C82.9772 129.515 83.2476 129.552 83.563 129.552C83.8785 129.552 84.1489 129.515 84.4643 129.487V136.902Z" fill="#514F4F"/>
<path d="M205.863 110.692C205.863 109.2 207.035 108.103 208.431 108.103C209.828 108.103 211 109.2 211 110.692C211 112.192 209.828 113.29 208.431 113.29C207.035 113.29 205.863 112.192 205.863 110.692ZM208.431 112.859C209.603 112.859 210.504 111.942 210.504 110.692C210.504 109.464 209.603 108.533 208.431 108.533C207.305 108.533 206.359 109.464 206.359 110.692C206.359 111.942 207.305 112.859 208.431 112.859ZM207.891 112.192H207.485V109.2H208.567C209.243 109.2 209.603 109.464 209.603 110.052C209.603 110.59 209.288 110.821 208.837 110.877L209.693 112.192H209.198L208.431 110.895H207.891V112.192ZM208.431 110.511C208.792 110.511 209.152 110.483 209.152 110.025C209.152 109.654 208.837 109.585 208.522 109.585H207.891V110.511H208.431Z" fill="#514F4F"/>
</svg>
