<svg width="163" height="82" viewBox="0 0 163 82" fill="none" xmlns="http://www.w3.org/2000/svg">
<path d="M150.618 56.8731C148.59 55.7847 148.275 52.7093 148.32 45.2291L148.365 33.7657L144.49 33.7611L145.391 31.6398H148.365V26.2114L155.485 23.4973V31.4591L158.774 31.4637L157.918 33.8167L155.485 33.812V53.6495C155.62 55.2474 156.161 56.1876 156.882 56.8731H150.618Z" fill="#514F4F"/>
<path d="M45.1715 75.0571C44.9462 74.4133 44.4956 74.0011 43.8196 74.0011C42.8733 74.0011 42.5128 74.5013 42.5128 75.1914C42.5128 76.8357 46.1178 76.5346 46.1178 79.3229C46.1178 80.8791 44.811 82 42.9635 82C42.3326 82 41.6116 81.8425 41.0708 81.4766C41.206 80.9625 41.3412 80.453 41.4313 79.9296H41.6566C41.7918 80.768 42.4678 81.2682 43.2789 81.2682C43.9999 81.2682 44.6758 80.8421 44.6758 80.0038C44.6758 78.0538 41.1159 78.7625 41.1159 75.826C41.1159 74.4272 42.0622 73.2693 43.8647 73.2693C44.7209 73.2693 45.4869 73.5981 45.7123 73.8529C45.5771 74.2419 45.4869 74.6449 45.3518 75.0571H45.1715Z" fill="#514F4F"/>
<path d="M80.4553 7.85609C80.9961 9.38917 82.2578 10.9732 81.3566 12.7518C80.951 14.5581 79.2837 16.0217 77.5263 16.3135C75.6787 16.4849 73.9663 16.1653 72.5694 15.0213C71.6231 9.80603 73.696 4.97982 77.7065 2.10356L80.4553 7.85609Z" fill="#514F4F"/>
<path d="M87.5299 23.7476C86.6286 26.9017 77.571 24.8314 74.732 19.6532C78.4722 20.0793 82.6631 16.6796 82.7532 12.8029L87.5299 23.7476Z" fill="#514F4F"/>
<path d="M91.2724 23.3399C91.678 23.15 92.4891 22.7239 92.7144 21.8115L82.9808 0.0518492C82.3049 -0.0315211 81.8543 -0.09174 80.9981 0.51501L91.2724 23.3399Z" fill="#514F4F"/>
<path d="M95.6416 18.6155C99.7873 12.1543 96.3175 1.55237 87.3501 0.0656103L95.6416 18.6155Z" fill="#514F4F"/>
<path d="M0.875 67.5631H157.422V66.331H0.875V67.5631Z" fill="#514F4F"/>
<path d="M51.5256 77.5026C51.5256 77.0302 51.1201 76.6504 50.6695 76.6504C50.2188 76.6504 49.8583 77.0302 49.8583 77.5026C49.8583 77.9751 50.2188 78.3549 50.6695 78.3549C51.1201 78.3549 51.5256 77.9751 51.5256 77.5026Z" fill="#514F4F"/>
<path d="M94.7407 32.5244C96.0475 31.3943 98.3457 31.3711 99.8328 32.0937C100.464 32.4179 101.049 32.8486 101.455 33.4137L98.571 38.0083C98.2105 37.7119 97.9401 37.5776 97.4895 37.3367C96.0475 36.7022 94.5604 37.0727 93.7043 37.874V51.2827C93.6592 53.6032 94.0648 55.7198 95.2364 56.8176H88.7023C87.3054 55.743 86.9899 54.0247 86.8547 52.5194L86.8097 34.6874C86.8547 33.2423 86.4942 32.6078 85.9535 31.7972L92.7129 31.825C93.2536 32.228 93.2987 32.9274 93.5691 33.4647L94.7407 32.5244Z" fill="#514F4F"/>
<path d="M102.987 36.9338C102.942 35.2386 103.302 33.2099 102.221 31.7463H108.484C108.935 32.0705 109.16 32.6078 109.296 33.1173C109.656 33.5712 109.611 34.2196 109.746 34.7569L109.836 53.756C110.062 54.8862 110.512 56.0255 111.323 56.9148L104.609 56.9287C102.401 54.7426 103.122 51.1484 102.942 47.4384L102.987 36.9338Z" fill="#514F4F"/>
<path d="M112.946 37.119C113.622 35.1876 115.74 34.2196 117.272 33.1682C119.615 32.2836 122.229 30.0789 124.843 31.8806C127.051 33.3581 128.988 35.0255 130.385 37.3089C130.701 38.1936 130.881 39.1894 131.106 40.1296C131.106 41.3941 131.377 42.3343 131.332 43.5988C131.422 44.9697 131.422 46.2064 131.332 47.5496C131.241 49.833 130.205 51.8756 128.448 53.4596C125.834 55.8542 122.544 58.5683 118.984 56.711C115.785 55.1779 112.045 52.1442 112.27 47.9757C112.135 45.0207 112 42.4686 112.405 39.5923C112.54 38.7586 112.495 37.8462 112.946 37.119ZM119.48 50.5555C119.796 51.7413 120.381 53.191 121.778 53.3531C122.589 53.3809 123.175 52.6815 123.671 52.0886C125.113 49.1336 124.888 45.91 124.888 42.5474C124.437 40.0509 125.023 36.6373 122.409 35.1043C121.463 34.7569 120.787 35.4007 120.201 35.9935C119.165 37.5776 119.075 39.3932 118.984 41.408C118.669 44.6316 119.029 47.3041 119.48 50.5555Z" fill="#514F4F"/>
<path d="M135.973 56.8731C133.945 55.7847 133.629 52.7093 133.675 45.2291L133.72 33.7657L129.889 33.7611L130.745 31.6398H133.72V26.2114L140.885 23.4973V31.4591L144.129 31.4637L143.273 33.8167L140.885 33.812V53.6495C141.02 55.2474 141.561 56.1876 142.281 56.8731H135.973Z" fill="#514F4F"/>
<path d="M70.7219 34.6874C70.6769 33.2423 70.4065 32.6078 69.8658 31.7972L76.6251 31.825C77.1659 32.228 77.2109 32.9274 77.4813 33.4647L78.6529 32.5244C79.9598 31.3943 82.2579 31.3711 83.745 32.0937C84.3759 32.4179 84.9617 32.8486 85.3673 33.4137L82.4833 38.0083C82.1228 37.7119 81.8524 37.5776 81.4018 37.3367C79.9598 36.7022 78.4727 37.0727 77.6165 37.874V51.2827C77.5714 53.6032 77.977 55.7198 79.1486 56.8176H72.6146C71.2627 55.743 70.8571 54.1451 70.767 52.5194L70.7219 34.6874Z" fill="#514F4F"/>
<path d="M19.486 41.7415L17.0526 46.9475C15.3402 50.0183 12.9969 53.7838 9.39192 54.7194C7.995 55.2196 6.73324 54.7657 5.38136 54.6685L1.01028 62.0097C1.37078 62.371 1.82142 62.672 2.27204 62.848C9.93268 65.8586 13.042 62.6211 20.5675 45.0624L27.7324 60.7035H37.2406L32.7343 50.1479L35.3029 44.6918L42.3327 60.4627L51.4353 60.5229L35.4832 24.544L28.138 28.2911L33.906 41.7183L31.3825 46.9938L20.8378 23.6131L13.1321 27.6611L19.486 41.7415Z" fill="#514F4F"/>
<path d="M48.7316 48.0868C48.9119 45.4792 50.3088 43.0337 52.6521 41.7183C54.9953 40.2362 57.6991 39.6479 60.1325 38.3557C60.538 38.0083 61.0337 37.5776 61.0788 37.0125C61.1238 36.3131 60.7633 35.7758 60.1775 35.535C56.4824 34.7291 53.4632 37.0913 50.8045 39.4303C51.12 37.7119 51.3903 35.8314 52.2015 34.2196C52.562 33.7889 52.8323 33.196 53.328 32.8764C55.9416 31.5564 59.1862 31.1812 62.0702 31.3943C64.4585 31.5564 66.6666 33.3025 67.4777 35.535C67.8832 36.5818 67.8382 37.7675 67.9283 38.842L67.9734 53.4086C67.9734 54.6684 68.5592 55.8542 69.2802 56.8731H62.5208C61.7097 56.1228 61.3041 55.1779 61.0788 53.9969C59.1862 55.7198 55.2206 58.2719 52.8774 56.5767C50.444 55.4512 48.1909 51.6579 48.7316 48.0868ZM60.7183 43.0198C60.6732 42.0101 59.9973 41.9036 59.5016 41.9036C57.8794 42.1444 56.4824 43.5385 55.6713 44.9697C54.9953 46.2434 54.8151 47.318 54.77 48.4342C54.77 49.6385 54.6799 50.5324 55.1756 51.4448C55.446 52.0377 55.9867 52.3063 56.5725 52.4638C57.609 52.6815 58.5553 52.385 59.3664 51.82C61.3041 50.7177 60.9436 48.513 60.9887 46.5537L60.7183 43.0198Z" fill="#514F4F"/>
<path d="M113.171 77.5026C113.171 77.0302 112.765 76.6504 112.315 76.6504C111.864 76.6504 111.504 77.0302 111.504 77.5026C111.504 77.9751 111.864 78.3549 112.315 78.3549C112.765 78.3549 113.171 77.9751 113.171 77.5026Z" fill="#514F4F"/>
<path d="M56.4373 73.487H58.9608C59.5016 73.487 60.4028 73.4638 60.8985 73.7324C61.5744 74.0984 61.8899 74.6449 61.8899 75.474C61.8899 76.6689 61.1689 77.4239 60.0423 77.6647C60.7183 78.8319 61.4392 79.9528 62.1602 81.0876L62.6109 81.8425C62.2504 81.8148 61.8899 81.7823 61.5294 81.7823C61.1689 81.7823 60.8534 81.8148 60.4929 81.8425L59.0509 79.2858C58.8707 78.957 58.5552 78.3966 58.2849 77.9334H58.1947V81.8425C57.9244 81.8148 57.6089 81.7823 57.3385 81.7823C57.0231 81.7823 56.7527 81.8148 56.4373 81.8425V73.487ZM58.1947 77.41C59.4565 77.5304 60.0874 76.9237 60.0874 75.6685C60.0874 75.4971 60.0423 75.3165 59.9972 75.0571C59.817 74.0474 58.9157 74.1447 58.1947 74.1447V77.41Z" fill="#514F4F"/>
<path d="M68.9195 73.487C68.8745 73.6583 68.8294 73.8436 68.8294 74.0104C68.8294 74.1817 68.8745 74.367 68.9195 74.5337C68.1534 74.4365 67.3874 74.3392 66.1707 74.367V76.9839H67.3874C67.9281 76.9839 68.4238 76.933 68.8745 76.8727C68.8294 77.0441 68.7843 77.2247 68.7843 77.3961C68.7843 77.5675 68.8294 77.7528 68.8745 77.9195C68.4238 77.8593 67.9281 77.813 67.3874 77.813H66.1707V80.9023C67.3874 80.893 68.1534 80.8328 68.9195 80.7356C68.8745 80.9023 68.8294 81.0876 68.8294 81.2589C68.8294 81.4257 68.8745 81.6109 68.9195 81.7823H64.3682V73.487H68.9195Z" fill="#514F4F"/>
<path d="M74.6875 75.0571C74.4171 74.4133 73.9665 74.0011 73.2906 74.0011C72.3893 74.0011 71.9837 74.5013 71.9837 75.1914C71.9837 76.8357 75.5888 76.5346 75.5888 79.3229C75.5888 80.8791 74.327 82 72.4794 82C71.8035 82 71.1276 81.8425 70.5868 81.4766C70.722 80.9625 70.8572 80.453 70.9023 79.9296H71.1276C71.3078 80.768 71.9387 81.2682 72.7498 81.2682C73.5159 81.2682 74.1468 80.8421 74.1468 80.0038C74.1468 78.0538 70.6319 78.7625 70.6319 75.826C70.6319 74.4272 71.5331 73.2693 73.3807 73.2693C74.1918 73.2693 74.9579 73.5981 75.2283 73.8529C75.0931 74.2419 74.9579 74.6449 74.8678 75.0571H74.6875Z" fill="#514F4F"/>
<path d="M81.4471 82C78.8335 82 77.076 80.416 77.076 77.6508C77.076 75.2285 78.7884 73.2693 81.7625 73.2693C85.1422 73.2693 86.1336 75.7148 86.1336 77.6046C86.1336 79.9806 84.3762 82 81.4471 82ZM79.0588 78.0075C79.0588 79.5869 79.7347 81.2682 81.5372 81.2682C83.3397 81.2682 84.1509 79.3924 84.1509 77.373C84.1509 75.8028 83.4299 74.0011 81.6724 74.0011C80.0502 74.0011 79.0588 75.2794 79.0588 78.0075Z" fill="#514F4F"/>
<path d="M88.1162 73.487H90.6397C91.1805 73.487 92.0367 73.4638 92.5324 73.7324C93.2083 74.0984 93.5688 74.6449 93.5688 75.474C93.5688 76.6689 92.8028 77.4239 91.7213 77.6647C92.3972 78.8319 93.1182 79.9528 93.8392 81.0876L94.2898 81.8425C93.9293 81.8148 93.5688 81.7823 93.2083 81.7823C92.8478 81.7823 92.4873 81.8148 92.1268 81.8425L90.7299 79.2858C90.5496 78.957 90.2342 78.3966 89.9638 77.9334H89.8737V81.8425C89.5582 81.8148 89.2879 81.7823 88.9724 81.7823C88.7021 81.7823 88.3866 81.8148 88.1162 81.8425V73.487ZM89.8737 77.41C91.1354 77.5304 91.7213 76.9237 91.7213 75.6685C91.7213 75.4971 91.7213 75.3165 91.6762 75.0571C91.4959 74.0474 90.5947 74.1447 89.8737 74.1447V77.41Z" fill="#514F4F"/>
<path d="M99.3367 81.8425C99.0663 81.8147 98.7509 81.7823 98.4354 81.7823C98.165 81.7823 97.8496 81.8147 97.5792 81.8425V74.3531C96.7231 74.3531 96.0021 74.4365 95.3712 74.5245C95.3712 74.3531 95.4162 74.1817 95.4162 74.0011C95.4162 73.8297 95.3712 73.6583 95.3712 73.487H101.455C101.455 73.6583 101.41 73.8297 101.41 74.0011C101.41 74.1817 101.455 74.3531 101.455 74.5245C100.779 74.4365 100.058 74.3531 99.3367 74.3531V81.8425Z" fill="#514F4F"/>
<path d="M106.997 75.0571C106.772 74.4133 106.321 74.0011 105.645 74.0011C104.699 74.0011 104.339 74.5013 104.339 75.1914C104.339 76.8357 107.944 76.5346 107.944 79.3229C107.944 80.8791 106.637 82 104.789 82C104.158 82 103.437 81.8425 102.897 81.4766C103.032 80.9625 103.167 80.453 103.257 79.9296H103.482C103.618 80.768 104.294 81.2682 105.105 81.2682C105.826 81.2682 106.457 80.8421 106.457 80.0038C106.457 78.0538 102.942 78.7625 102.942 75.826C102.942 74.4272 103.888 73.2693 105.691 73.2693C106.547 73.2693 107.313 73.5981 107.538 73.8529C107.403 74.2419 107.313 74.6449 107.178 75.0571H106.997Z" fill="#514F4F"/>
<path d="M121.553 75.0571C121.282 74.4133 120.832 74.0011 120.156 74.0011C119.255 74.0011 118.849 74.5013 118.849 75.1914C118.849 76.8357 122.454 76.5346 122.454 79.3229C122.454 80.8791 121.192 82 119.345 82C118.669 82 117.993 81.8425 117.452 81.4766C117.587 80.9625 117.677 80.453 117.768 79.9296H117.993C118.173 80.768 118.804 81.2682 119.615 81.2682C120.381 81.2682 121.012 80.8421 121.012 80.0038C121.012 78.0538 117.497 78.7625 117.497 75.826C117.497 74.4272 118.443 73.2693 120.201 73.2693C121.057 73.2693 121.823 73.5981 122.094 73.8529C121.958 74.2419 121.823 74.6449 121.733 75.0571H121.553Z" fill="#514F4F"/>
<path d="M124.572 73.487C124.888 73.5148 125.158 73.5518 125.473 73.5518C125.789 73.5518 126.059 73.5148 126.375 73.487V76.9468C126.375 77.6184 126.33 78.6142 126.465 79.2488C126.555 79.8463 126.645 80.2214 127.051 80.6476C127.456 81.0135 127.907 81.1709 128.448 81.1709C129.529 81.1709 130.115 80.7587 130.52 79.6981C130.746 79.1608 130.746 77.7759 130.746 77.1784V73.487C130.881 73.5148 131.061 73.524 131.196 73.524C131.377 73.524 131.557 73.5148 131.692 73.487V77.8222C131.647 79.2117 131.692 80.4762 130.43 81.3562C129.799 81.8286 128.988 82 128.177 82C126.78 82 125.203 81.5368 124.797 79.9528C124.662 79.4804 124.572 78.9431 124.572 78.4568V73.487Z" fill="#514F4F"/>
<path d="M134.486 73.487C134.801 73.5148 135.117 73.5518 135.387 73.5518C135.703 73.5518 135.973 73.5148 136.288 73.487V81.8425C135.973 81.8147 135.703 81.7823 135.387 81.7823C135.117 81.7823 134.801 81.8147 134.486 81.8425V73.487Z" fill="#514F4F"/>
<path d="M142.282 81.8425C141.966 81.8147 141.651 81.7823 141.38 81.7823C141.065 81.7823 140.795 81.8147 140.479 81.8425V74.3531C139.668 74.3531 138.902 74.4365 138.271 74.5245C138.316 74.3531 138.361 74.1817 138.361 74.0011C138.361 73.8297 138.316 73.6584 138.271 73.487H144.4C144.355 73.6584 144.31 73.8297 144.31 74.0011C144.31 74.1817 144.355 74.3531 144.4 74.5245C143.679 74.4365 143.003 74.3531 142.282 74.3531V81.8425Z" fill="#514F4F"/>
<path d="M150.753 73.487C150.708 73.6584 150.708 73.8436 150.708 74.0104C150.708 74.1817 150.708 74.367 150.753 74.5337C150.032 74.4365 149.221 74.3392 148.005 74.367V76.9839H149.221C149.762 76.9839 150.258 76.933 150.708 76.8727C150.663 77.0441 150.663 77.2247 150.663 77.3961C150.663 77.5675 150.663 77.7528 150.708 77.9195C150.258 77.8593 149.762 77.813 149.221 77.813H148.005V80.9023C149.221 80.893 150.032 80.8328 150.753 80.7356C150.708 80.9023 150.708 81.0876 150.708 81.2589C150.708 81.4257 150.708 81.6109 150.753 81.7823H146.247V73.487H150.753Z" fill="#514F4F"/>
<path d="M156.521 75.0571C156.296 74.4133 155.845 74.0011 155.17 74.0011C154.223 74.0011 153.863 74.5013 153.863 75.1914C153.863 76.8357 157.468 76.5346 157.468 79.3229C157.468 80.8791 156.161 82 154.313 82C153.682 82 152.961 81.8425 152.421 81.4766C152.556 80.9625 152.691 80.453 152.736 79.9296H152.961C153.142 80.768 153.773 81.2682 154.629 81.2682C155.35 81.2682 155.981 80.8421 155.981 80.0038C155.981 78.0538 152.466 78.7625 152.466 75.826C152.466 74.4272 153.412 73.2693 155.215 73.2693C156.071 73.2693 156.837 73.5981 157.062 73.8529C156.927 74.2419 156.837 74.6449 156.702 75.0571H156.521Z" fill="#514F4F"/>
<path d="M1.10047 73.487C1.4159 73.5148 1.68628 73.5518 2.00171 73.5518C2.27209 73.5518 2.58754 73.5148 2.90297 73.487V76.7894C3.48878 76.8125 4.11966 76.8496 4.70546 76.8496C5.29129 76.8496 5.92217 76.8125 6.50798 76.7894V73.487C6.82341 73.5148 7.09379 73.5518 7.40922 73.5518C7.6796 73.5518 7.99505 73.5148 8.31047 73.487V81.8425C7.99505 81.8147 7.6796 81.7823 7.40922 81.7823C7.09379 81.7823 6.82341 81.8147 6.50798 81.8425V77.762C5.92217 77.7389 5.29129 77.7018 4.70546 77.7018C4.11966 77.7018 3.48878 77.7389 2.90297 77.762V81.8425C2.58754 81.8147 2.27209 81.7823 2.00171 81.7823C1.68628 81.7823 1.4159 81.8147 1.10047 81.8425V73.487Z" fill="#514F4F"/>
<path d="M14.7995 82C12.1858 82 10.3833 80.416 10.3833 77.6508C10.3833 75.2285 12.1408 73.2693 15.0698 73.2693C18.4495 73.2693 19.4409 75.7148 19.4409 77.6046C19.4409 79.9806 17.6835 82 14.7995 82ZM12.3661 78.0075C12.3661 79.5869 13.0871 81.2682 14.8445 81.2682C16.647 81.2682 17.5032 79.3924 17.5032 77.373C17.5032 75.8028 16.7822 74.0011 14.9797 74.0011C13.3575 74.0011 12.3661 75.2794 12.3661 78.0075Z" fill="#514F4F"/>
<path d="M23.8572 81.8425C23.5868 81.8147 23.2714 81.7823 23.001 81.7823C22.6856 81.7823 22.4152 81.8147 22.0997 81.8425V74.3531C21.2435 74.3531 20.5225 74.4365 19.8917 74.5245C19.9367 74.3531 19.9367 74.1817 19.9367 74.0011C19.9367 73.8297 19.9367 73.6584 19.8917 73.487H25.9751C25.9751 73.6584 25.93 73.8297 25.93 74.0011C25.93 74.1817 25.9751 74.3531 25.9751 74.5245C25.2992 74.4365 24.5782 74.3531 23.8572 74.3531V81.8425Z" fill="#514F4F"/>
<path d="M32.2837 73.487C32.2837 73.6584 32.2386 73.8436 32.2386 74.0104C32.2386 74.1817 32.2837 74.367 32.2837 74.5337C31.5627 74.4365 30.7516 74.3392 29.5349 74.367V76.9839H30.7966C31.3374 76.9839 31.788 76.933 32.2386 76.8727C32.1936 77.0441 32.1936 77.2247 32.1936 77.3961C32.1936 77.5675 32.1936 77.7528 32.2386 77.9195C31.788 77.8593 31.3374 77.813 30.7966 77.813H29.5349V80.9023C30.7516 80.893 31.5627 80.8328 32.2837 80.7356C32.2837 80.9023 32.2386 81.0876 32.2386 81.2589C32.2386 81.4257 32.2837 81.6109 32.2837 81.7823H27.7775V73.487H32.2837Z" fill="#514F4F"/>
<path d="M36.3393 80.9023C37.3757 80.9023 38.2319 80.8189 39.043 80.7356C38.998 80.9023 38.9529 81.0876 38.9529 81.2589C38.9529 81.4257 38.998 81.6109 39.043 81.7823H34.5368V73.487C34.8522 73.5148 35.1226 73.5518 35.438 73.5518C35.7535 73.5518 36.0239 73.5148 36.3393 73.487V80.9023Z" fill="#514F4F"/>
<path d="M157.738 54.6916C157.738 53.2002 158.91 52.1025 160.306 52.1025C161.703 52.1025 162.875 53.2002 162.875 54.6916C162.875 56.1923 161.703 57.29 160.306 57.29C158.91 57.29 157.738 56.1923 157.738 54.6916ZM160.306 56.8592C161.478 56.8592 162.379 55.9422 162.379 54.6916C162.379 53.4642 161.478 52.5333 160.306 52.5333C159.18 52.5333 158.234 53.4642 158.234 54.6916C158.234 55.9422 159.18 56.8592 160.306 56.8592ZM159.766 56.1923H159.36V53.2002H160.442C161.118 53.2002 161.478 53.4642 161.478 54.0524C161.478 54.5897 161.163 54.8213 160.712 54.8769L161.568 56.1923H161.073L160.306 54.8954H159.766V56.1923ZM160.306 54.511C160.667 54.511 161.027 54.4832 161.027 54.0247C161.027 53.6541 160.712 53.5847 160.397 53.5847H159.766V54.511H160.306Z" fill="#514F4F"/>
</svg>
