<svg width="261" height="184" viewBox="0 0 261 184" fill="none" xmlns="http://www.w3.org/2000/svg">
<g clip-path="url(#clip0_37_31007)">
<path d="M150.5 80C150.5 68.96 141.54 60 130.5 60C119.46 60 110.5 68.96 110.5 80C110.5 91.04 119.46 100 130.5 100C141.54 100 150.5 91.04 150.5 80ZM114.5 80C114.5 71.16 121.66 64 130.5 64C139.34 64 146.5 71.16 146.5 80C146.5 88.84 139.34 96 130.5 96C121.66 96 114.5 88.84 114.5 80ZM138.5 80L130.5 88L127.68 85.18L130.84 82H122.5V78H130.84L127.66 74.82L130.5 72L138.5 80Z" fill="url(#paint0_linear_37_31007)"/>
</g>
<path d="M59.1547 139V124.781H67.9047V126.539H61.352V130.494H64.0961C65.6391 130.494 66.8207 130.878 67.641 131.646C68.4613 132.408 68.8715 133.434 68.8715 134.723C68.8715 136.025 68.4613 137.063 67.641 137.838C66.8207 138.613 65.6391 139 64.0961 139H59.1547ZM61.352 132.213V137.271H63.9887C64.9848 137.271 65.6879 137.031 66.098 136.549C66.5082 136.061 66.7133 135.452 66.7133 134.723C66.7133 134 66.5082 133.401 66.098 132.926C65.6879 132.451 64.9848 132.213 63.9887 132.213H61.352ZM70.541 134.098V133.785C70.541 132.242 70.987 130.995 71.8789 130.045C72.7773 129.088 73.9687 128.609 75.4531 128.609C76.931 128.609 78.1191 129.088 79.0176 130.045C79.916 130.995 80.3652 132.242 80.3652 133.785V134.098C80.3652 135.647 79.916 136.9 79.0176 137.857C78.1191 138.808 76.931 139.283 75.4531 139.283C73.9687 139.283 72.7773 138.808 71.8789 137.857C70.987 136.9 70.541 135.647 70.541 134.098ZM72.7187 133.736V134.156C72.7187 135.165 72.9499 135.992 73.4121 136.637C73.8743 137.281 74.5547 137.604 75.4531 137.604C76.3516 137.604 77.0319 137.281 77.4941 136.637C77.9564 135.992 78.1875 135.165 78.1875 134.156V133.736C78.1875 132.727 77.9531 131.904 77.4844 131.266C77.0221 130.621 76.3451 130.299 75.4531 130.299C74.5612 130.299 73.8809 130.621 73.4121 131.266C72.9499 131.904 72.7187 132.727 72.7187 133.736ZM85.7262 130.543L85.5602 134.381C85.482 136.106 85.2477 137.343 84.857 138.092C84.4729 138.834 83.7698 139.205 82.7477 139.205C82.5263 139.205 82.318 139.189 82.1227 139.156C81.9339 139.13 81.7776 139.091 81.6539 139.039V137.291C81.7581 137.33 81.8655 137.359 81.9762 137.379C82.0868 137.398 82.2105 137.408 82.3473 137.408C82.829 137.408 83.1513 137.171 83.3141 136.695C83.4768 136.22 83.5842 135.364 83.6363 134.127L83.8707 128.902H91.2242V139H89.0953V130.543H85.7262ZM96.4582 128.902V132.291H98.7727C100.036 132.291 101.006 132.59 101.683 133.189C102.36 133.788 102.698 134.605 102.698 135.641C102.698 136.682 102.36 137.503 101.683 138.102C101.006 138.701 100.036 139 98.7727 139H94.3293V128.902H96.4582ZM98.5871 133.854H96.4582V137.428H98.5871C99.3098 137.428 99.8208 137.262 100.12 136.93C100.42 136.598 100.57 136.161 100.57 135.621C100.57 135.1 100.42 134.677 100.12 134.352C99.8208 134.02 99.3098 133.854 98.5871 133.854ZM104.983 139V128.902H107.112V137.359H110.745V128.902H112.874V137.359H116.516V128.902H118.645V139H104.983ZM121.145 134.098V133.785C121.145 132.249 121.578 131.002 122.444 130.045C123.316 129.088 124.455 128.609 125.862 128.609C127.274 128.609 128.365 129.059 129.133 129.957C129.908 130.849 130.295 132.07 130.295 133.619V134.43H122.483V132.916H128.176V132.711C128.176 132.034 127.981 131.458 127.59 130.982C127.206 130.501 126.643 130.26 125.901 130.26C125.035 130.26 124.384 130.589 123.948 131.246C123.511 131.897 123.293 132.724 123.293 133.727V134.146C123.293 135.156 123.524 135.989 123.987 136.646C124.449 137.298 125.152 137.623 126.096 137.623C126.708 137.623 127.232 137.486 127.668 137.213C128.111 136.933 128.466 136.607 128.733 136.236L130.188 137.242C129.869 137.776 129.361 138.251 128.664 138.668C127.968 139.078 127.118 139.283 126.116 139.283C124.534 139.283 123.31 138.805 122.444 137.848C121.578 136.891 121.145 135.641 121.145 134.098ZM144.425 139L140.656 134.43L142.013 133.014L146.974 139H144.425ZM138.937 133.023H140.802L144.162 128.902H146.564L141.847 134.664H138.937V133.023ZM139.992 128.902V139H137.863V128.902H139.992ZM147.95 134.098V133.785C147.95 132.249 148.383 131.002 149.249 130.045C150.122 129.088 151.261 128.609 152.667 128.609C154.08 128.609 155.17 129.059 155.939 129.957C156.713 130.849 157.101 132.07 157.101 133.619V134.43H149.288V132.916H154.982V132.711C154.982 132.034 154.786 131.458 154.396 130.982C154.012 130.501 153.448 130.26 152.706 130.26C151.84 130.26 151.189 130.589 150.753 131.246C150.317 131.897 150.099 132.724 150.099 133.727V134.146C150.099 135.156 150.33 135.989 150.792 136.646C151.254 137.298 151.958 137.623 152.902 137.623C153.514 137.623 154.038 137.486 154.474 137.213C154.917 136.933 155.271 136.607 155.538 136.236L156.993 137.242C156.674 137.776 156.167 138.251 155.47 138.668C154.773 139.078 153.924 139.283 152.921 139.283C151.339 139.283 150.115 138.805 149.249 137.848C148.383 136.891 147.95 135.641 147.95 134.098ZM159.522 139V128.902H161.632V134.771C161.632 134.973 161.628 135.198 161.622 135.445C161.615 135.693 161.606 135.914 161.593 136.109L161.69 136.119C161.781 135.943 161.879 135.764 161.983 135.582C162.094 135.393 162.214 135.182 162.345 134.947L166.016 128.902H168.165V139H166.055V133.121C166.055 132.913 166.059 132.685 166.065 132.438C166.072 132.19 166.082 131.962 166.095 131.754H165.977C165.893 131.93 165.798 132.115 165.694 132.311C165.59 132.506 165.47 132.717 165.333 132.945L161.671 139H159.522ZM163.848 125.846C164.304 125.846 164.688 125.715 165.001 125.455C165.313 125.188 165.557 124.762 165.733 124.176L167.218 124.977C166.918 125.797 166.469 126.396 165.87 126.773C165.277 127.145 164.604 127.33 163.848 127.33C163.087 127.33 162.413 127.148 161.827 126.783C161.241 126.412 160.789 125.81 160.47 124.977L161.993 124.146C162.175 124.778 162.416 125.221 162.716 125.475C163.015 125.722 163.393 125.846 163.848 125.846ZM170.664 134.098V133.785C170.664 132.236 171.094 130.986 171.954 130.035C172.819 129.085 173.995 128.609 175.479 128.609C176.866 128.609 177.92 128.971 178.643 129.693C179.366 130.416 179.737 131.259 179.756 132.223L179.766 132.32H177.696V132.242C177.696 131.702 177.513 131.24 177.149 130.855C176.791 130.471 176.234 130.279 175.479 130.279C174.587 130.279 173.923 130.605 173.487 131.256C173.057 131.9 172.842 132.727 172.842 133.736V134.156C172.842 135.159 173.057 135.986 173.487 136.637C173.916 137.288 174.577 137.613 175.469 137.613C176.25 137.613 176.817 137.421 177.168 137.037C177.52 136.646 177.696 136.184 177.696 135.65V135.572H179.766V135.65C179.76 136.614 179.388 137.46 178.653 138.189C177.924 138.919 176.866 139.283 175.479 139.283C173.995 139.283 172.819 138.808 171.954 137.857C171.094 136.907 170.664 135.654 170.664 134.098ZM181.494 134.098V133.785C181.494 132.242 181.94 130.995 182.832 130.045C183.73 129.088 184.922 128.609 186.406 128.609C187.884 128.609 189.072 129.088 189.971 130.045C190.869 130.995 191.318 132.242 191.318 133.785V134.098C191.318 135.647 190.869 136.9 189.971 137.857C189.072 138.808 187.884 139.283 186.406 139.283C184.922 139.283 183.73 138.808 182.832 137.857C181.94 136.9 181.494 135.647 181.494 134.098ZM183.672 133.736V134.156C183.672 135.165 183.903 135.992 184.365 136.637C184.827 137.281 185.508 137.604 186.406 137.604C187.305 137.604 187.985 137.281 188.447 136.637C188.91 135.992 189.141 135.165 189.141 134.156V133.736C189.141 132.727 188.906 131.904 188.438 131.266C187.975 130.621 187.298 130.299 186.406 130.299C185.514 130.299 184.834 130.621 184.365 131.266C183.903 131.904 183.672 132.727 183.672 133.736ZM193.808 139V128.902H198.437C199.602 128.902 200.501 129.124 201.132 129.566C201.764 130.003 202.08 130.66 202.08 131.539C202.08 132.132 201.904 132.62 201.552 133.004C201.207 133.388 200.742 133.645 200.156 133.775V133.795C200.865 133.906 201.422 134.16 201.826 134.557C202.229 134.954 202.431 135.471 202.431 136.109C202.431 137.021 202.106 137.73 201.455 138.238C200.804 138.746 199.902 139 198.75 139H193.808ZM195.918 133.111H198.242C198.841 133.111 199.27 132.988 199.531 132.74C199.798 132.493 199.931 132.148 199.931 131.705C199.931 131.282 199.798 130.96 199.531 130.738C199.27 130.51 198.841 130.396 198.242 130.396H195.918V133.111ZM195.918 137.496H198.525C199.13 137.496 199.576 137.366 199.863 137.105C200.156 136.839 200.302 136.48 200.302 136.031C200.302 135.602 200.159 135.257 199.873 134.996C199.593 134.729 199.143 134.596 198.525 134.596H195.918V137.496Z" fill="#042A50"/>
<defs>
<linearGradient id="paint0_linear_37_31007" x1="173" y1="20" x2="89.1732" y2="48.9247" gradientUnits="userSpaceOnUse">
<stop offset="0.338542" stop-color="#7A73FF"/>
<stop offset="0.734375" stop-color="#75CDFF"/>
<stop offset="1" stop-color="#4AFCF1"/>
</linearGradient>
<clipPath id="clip0_37_31007">
<rect width="48" height="48" fill="white" transform="translate(106.5 56)"/>
</clipPath>
</defs>
</svg>
