<svg width="261" height="184" viewBox="0 0 261 184" fill="none" xmlns="http://www.w3.org/2000/svg">
<path d="M151.92 93.9389C151.92 93.9389 147.808 95.336 139.852 101.083C132.72 106.244 129.924 109.711 129.924 109.711L107.921 91.8355C107.921 91.8355 117.178 83.8336 124.912 89.9624L135.287 98.3288L136.553 97.3504L107.926 73.7736C107.926 73.7736 112.04 72.3749 119.991 66.6316C127.127 61.469 129.924 58 129.924 58L151.925 75.8753C151.925 75.8753 142.67 83.8772 134.934 77.7484L124.559 69.3803L123.293 70.357L151.92 93.9389Z" fill="#514F4F"/>
<path d="M134.88 118.324H118.134V122.702H126.223L117.849 131.891V135.559H134.849V131.164H126.391L134.88 121.997V118.324Z" fill="#AFB6B3"/>
<path d="M108.274 136C114.972 136 116.687 133.989 116.687 129.556V118.324H111.381V128.884C111.381 130.658 110.09 131.715 108.274 131.715C106.386 131.715 105.171 130.653 105.171 128.856V118.324H99.8652V129.556C99.8652 133.989 101.58 136 108.274 136Z" fill="#AFB6B3"/>
<path d="M144.602 136C151.299 136 153.014 133.989 153.014 129.556V118.324H147.707V128.884C147.707 130.658 146.415 131.715 144.602 131.715C142.713 131.715 141.494 130.653 141.494 128.856V118.324H136.19V129.556C136.19 133.989 137.905 136 144.602 136Z" fill="#AFB6B3"/>
<path d="M179.5 118.324H173.967V135.559H179.5V118.324Z" fill="#AFB6B3"/>
<path d="M173.125 118.324H165.846L159.956 124.271V118.324H154.422V135.559H159.956V129.446L165.426 135.559H172.859L164.769 126.717L173.125 118.324Z" fill="#AFB6B3"/>
<path d="M86.7877 123.086C86.7877 121.754 88.4672 121.71 89.0339 121.71C89.6022 121.71 90.8826 121.977 91.7535 123.656H98.01C98.01 120.409 95.3914 117.826 89.0532 117.826C82.0133 117.826 80.8145 121.457 80.8145 123.543C80.8145 127.389 83.3486 128.516 88.8589 129.206C89.3307 129.264 92.1971 129.105 92.1971 130.725C92.1971 131.925 90.5858 132.005 89.9924 132.005C89.4034 132.005 88.301 131.892 87.3901 129.986H80.5C80.5 133.771 82.6706 135.958 89.982 135.958C96.7163 135.958 98.504 132.726 98.504 130.268C98.504 127.882 97.1109 125.455 91.3692 124.591C88.9746 124.227 86.7877 124.073 86.7877 123.086Z" fill="#AFB6B3"/>
</svg>
