<svg width="100" height="78" viewBox="0 0 100 78" fill="none" xmlns="http://www.w3.org/2000/svg">
<path d="M72.0454 35.9389C72.0454 35.9389 67.9327 37.336 59.9774 43.0828C52.8455 48.2436 50.0488 51.7108 50.0488 51.7108L28.0463 33.8355C28.0463 33.8355 37.3028 25.8336 45.0371 31.9624L55.4122 40.3288L56.6778 39.3504L28.0508 15.7736C28.0508 15.7736 32.165 14.3749 40.1158 8.63155C47.2522 3.46902 50.0488 0 50.0488 0L72.0498 17.8753C72.0498 17.8753 62.7948 25.8772 55.0591 19.7484L44.684 11.3803L43.4184 12.357L72.0454 35.9389Z" fill="#514F4F"/>
<path d="M55.0051 60.3239H38.2592V64.7016H46.348L37.9743 73.8913V77.5591H54.9739V73.164H46.5157L55.0051 63.997V60.3239Z" fill="#AFB6B3"/>
<path d="M28.3995 78C35.0966 78 36.8117 75.9891 36.8117 71.5555V60.3235H31.5062V70.8841C31.5062 72.6578 30.2154 73.7147 28.3995 73.7147C26.5108 73.7147 25.2957 72.6526 25.2957 70.8562V60.3235H19.9902V71.5555C19.9902 75.9891 21.7052 78 28.3995 78Z" fill="#AFB6B3"/>
<path d="M64.727 78C71.4241 78 73.1392 75.9891 73.1392 71.5555V60.3235H67.8322V70.8841C67.8322 72.6578 66.54 73.7147 64.727 73.7147C62.8383 73.7147 61.6187 72.6526 61.6187 70.8562V60.3235H56.3147V71.5555C56.3147 75.9891 58.0298 78 64.727 78Z" fill="#AFB6B3"/>
<path d="M99.625 60.3239H94.0925V77.5591H99.625V60.3239Z" fill="#AFB6B3"/>
<path d="M93.2496 60.3239H85.9709L80.0808 66.2713V60.3239H74.5468V77.5591H80.0808V71.446L85.551 77.5591H92.9841L84.8937 68.7165L93.2496 60.3239Z" fill="#AFB6B3"/>
<path d="M6.91269 65.0862C6.91269 63.7537 8.59218 63.7101 9.15893 63.7101C9.72717 63.7101 11.0076 63.9769 11.8785 65.6565H18.135C18.135 62.409 15.5164 59.8259 9.17822 59.8259C2.13832 59.8259 0.939533 63.4572 0.939533 65.5431C0.939533 69.3888 3.4736 70.5155 8.98386 71.2062C9.45566 71.2637 12.3221 71.105 12.3221 72.7253C12.3221 73.9252 10.7108 74.0055 10.1174 74.0055C9.52836 74.0055 8.42601 73.8921 7.51505 71.9858H0.625C0.625 75.7705 2.79557 77.9576 10.107 77.9576C16.8413 77.9576 18.629 74.7258 18.629 72.2683C18.629 69.8824 17.2359 67.4546 11.4942 66.5913C9.09959 66.2268 6.91269 66.0733 6.91269 65.0862Z" fill="#AFB6B3"/>
</svg>
