<svg width="261" height="184" viewBox="0 0 261 184" fill="none" xmlns="http://www.w3.org/2000/svg">
<path d="M47.5 123H213.5V71H47.5V123Z" fill="#514F4F"/>
<path d="M194.748 106.056H197.998V110.698H184.395V106.339H187.133L182.967 100.652L178.922 106.339H181.66V110.698H170.113V106.056H173.168L179.793 96.6159L173.251 87.9389H170.74V83.3H183.407V87.6592H180.825L184.832 92.7819L188.482 87.6592H186.022V83.3H197.998V87.9389H194.233L187.848 96.898L194.748 106.056ZM158.235 83.3H168.43V87.9389H165.753V103.273C165.753 109.647 159.204 111.021 155.163 111.021C149.57 111.021 144.402 108.964 144.402 102.264V87.9389H141.228V83.3H153.762V87.9389H151.425V101.862C151.425 104.564 152.759 106.38 155.885 106.38C158.508 106.38 160.624 105.21 160.624 102.101V87.9389H158.235V83.3ZM78.3473 83.3H89.5252V87.9389H86.9339L79.1915 110.705H72.8718L64.8489 87.9389H61.6743V83.3H75.0019V87.9389H71.908L76.3903 101.814H76.4684L81.3242 87.9389H78.3473V83.3ZM136.23 101.975H141.506V110.698H118.579V106.056H122.425V87.9389H118.579V83.3H133.376V87.9389H129.447V106.056H136.23V101.975ZM91.836 83.3H115.265V91.9747H110.149V87.9389H101.779V94.2357H108.524V98.8746H101.779V106.056H110.149V101.984H115.265V110.698H91.5871V106.056H94.7616V87.9389H91.836V83.3ZM197.652 96.9897C197.652 95.0222 199.238 93.5363 201.339 93.5363C203.44 93.5363 205.023 95.0222 205.023 96.9897C205.023 98.9686 203.447 100.461 201.358 100.461C199.245 100.461 197.652 98.9686 197.652 96.9897ZM196.803 96.9989C196.803 99.4295 198.742 101.262 201.319 101.262C203.918 101.262 205.877 99.4295 205.877 96.9989C205.877 94.5682 203.925 92.7337 201.336 92.7337C198.752 92.7337 196.803 94.5682 196.803 96.9989ZM201.397 95.3455C201.951 95.3455 202.256 95.5817 202.256 96.0105C202.256 96.5586 201.79 96.6732 201.397 96.6732C201.397 96.6732 200.782 96.6732 200.707 96.6732C200.707 96.6044 200.707 95.4143 200.707 95.3455C200.782 95.3455 201.397 95.3455 201.397 95.3455ZM199.767 94.6416V99.2484H200.748C200.748 99.2484 200.748 97.4506 200.748 97.3795C200.814 97.3795 201.168 97.3795 201.168 97.3795C201.168 97.4116 202.398 99.23 202.398 99.23L203.405 99.2484H203.479C203.479 99.2484 202.176 97.3405 202.124 97.2694C202.805 97.0837 203.198 96.632 203.198 96.0105C203.198 95.1392 202.561 94.6416 201.453 94.6416H199.767Z" fill="white"/>
</svg>
