<svg width="167" height="52" viewBox="0 0 167 52" fill="none" xmlns="http://www.w3.org/2000/svg">
<path d="M0.5 52H166.5V0H0.5V52Z" fill="#514F4F"/>
<path d="M147.748 35.0565H150.998V39.6977H137.395V35.3385H140.133L135.967 29.6517L131.922 35.3385H134.66V39.6977H123.113V35.0565H126.168L132.793 25.6159L126.251 16.9389H123.74V12.3H136.407V16.6592H133.825L137.832 21.7819L141.482 16.6592H139.022V12.3H150.998V16.9389H147.233L140.848 25.898L147.748 35.0565ZM111.235 12.3H121.43V16.9389H118.753V32.2727C118.753 38.6474 112.204 40.021 108.163 40.021C102.57 40.021 97.4022 37.9641 97.4022 31.2637V16.9389H94.2277V12.3H106.762V16.9389H104.425V30.8625C104.425 33.5637 105.759 35.3798 108.885 35.3798C111.508 35.3798 113.624 34.2103 113.624 31.1009V16.9389H111.235V12.3ZM31.3473 12.3H42.5252V16.9389H39.9339L32.1915 39.7045H25.8718L17.8489 16.9389H14.6743V12.3H28.0019V16.9389H24.908L29.3903 30.8143H29.4684L34.3242 16.9389H31.3473V12.3ZM89.2305 30.9748H94.5059V39.6977H71.5791V35.0565H75.4246V16.9389H71.5791V12.3H86.3756V16.9389H82.4471V35.0565H89.2305V30.9748ZM44.836 12.3H68.2655V20.9747H63.1486V16.9389H54.7792V23.2357H61.5235V27.8746H54.7792V35.0565H63.1486V30.984H68.2655V39.6977H44.5871V35.0565H47.7616V16.9389H44.836V12.3ZM150.652 25.9897C150.652 24.0222 152.238 22.5363 154.339 22.5363C156.44 22.5363 158.023 24.0222 158.023 25.9897C158.023 27.9686 156.447 29.4614 154.358 29.4614C152.245 29.4614 150.652 27.9686 150.652 25.9897ZM149.803 25.9989C149.803 28.4295 151.742 30.2617 154.319 30.2617C156.918 30.2617 158.877 28.4295 158.877 25.9989C158.877 23.5682 156.925 21.7337 154.336 21.7337C151.752 21.7337 149.803 23.5682 149.803 25.9989ZM154.397 24.3455C154.951 24.3455 155.256 24.5817 155.256 25.0105C155.256 25.5586 154.79 25.6732 154.397 25.6732C154.397 25.6732 153.782 25.6732 153.707 25.6732C153.707 25.6044 153.707 24.4143 153.707 24.3455C153.782 24.3455 154.397 24.3455 154.397 24.3455ZM152.767 23.6416V28.2484H153.748C153.748 28.2484 153.748 26.4506 153.748 26.3795C153.814 26.3795 154.168 26.3795 154.168 26.3795C154.168 26.4116 155.398 28.23 155.398 28.23L156.405 28.2484H156.479C156.479 28.2484 155.176 26.3405 155.124 26.2694C155.805 26.0837 156.198 25.632 156.198 25.0105C156.198 24.1392 155.561 23.6416 154.453 23.6416H152.767Z" fill="white"/>
</svg>
