<svg width="512" height="512" viewBox="0 0 512 512" fill="none" xmlns="http://www.w3.org/2000/svg">
<g clip-path="url(#clip0_1_15)">
<path d="M-975.785 -230.744H677.309V164.735L505.112 196.305L405.811 436.807L156.125 462.063L1.14783 273.794L-975.785 436.807V-230.744Z" fill="url(#paint0_radial_1_15)"/>
<path d="M-975.785 -230.744H677.309V164.735L505.112 196.305L405.811 436.807L156.125 462.063L1.14783 273.794L-975.785 436.807V-230.744Z" fill="url(#paint1_radial_1_15)"/>
<path d="M-975.785 -230.744H677.309V164.735L505.112 196.305L405.811 436.807L156.125 462.063L1.14783 273.794L-975.785 436.807V-230.744Z" fill="url(#paint2_radial_1_15)"/>
<path d="M-975.785 -230.744H677.309V164.735L505.112 196.305L405.811 436.807L156.125 462.063L1.14783 273.794L-975.785 436.807V-230.744Z" fill="url(#paint3_radial_1_15)"/>
<path d="M-975.785 -230.744H677.309V164.735L505.112 196.305L405.811 436.807L156.125 462.063L1.14783 273.794L-975.785 436.807V-230.744Z" fill="url(#paint4_radial_1_15)"/>
<path fill-rule="evenodd" clip-rule="evenodd" d="M256 512C397.385 512 512 397.385 512 256C512 173.862 473.317 100.76 413.175 53.9158L370.9 27.1714C336.348 9.78789 297.317 0 256 0C114.615 0 0 114.615 0 256C0 397.385 114.615 512 256 512ZM370.9 27.1714V148.673C341.072 115.233 297.957 94.2242 250.004 94.2242C159.977 94.2242 86.9972 168.271 86.9972 259.613C86.9972 350.955 159.977 425.003 250.004 425.003C297.957 425.003 341.072 403.994 370.9 370.554L369.717 404.979C369.551 409.818 373.428 413.83 378.269 413.83H405.722C410.459 413.83 414.294 409.983 414.279 405.246L413.175 53.9158L370.9 27.1714ZM377.692 259.613C377.692 328.402 322.652 384.166 254.758 384.166C186.864 384.166 131.824 328.402 131.824 259.613C131.824 190.825 186.864 135.061 254.758 135.061C322.652 135.061 377.692 190.825 377.692 259.613Z" fill="white"/>
</g>
<defs>
<radialGradient id="paint0_radial_1_15" cx="0" cy="0" r="1" gradientUnits="userSpaceOnUse" gradientTransform="translate(190.827 104.033) rotate(115.365) scale(791.628 1348.64)">
<stop offset="0.259999" stop-color="#FD9BE8"/>
<stop offset="1" stop-color="#FD9BE8" stop-opacity="0"/>
</radialGradient>
<radialGradient id="paint1_radial_1_15" cx="0" cy="0" r="1" gradientUnits="userSpaceOnUse" gradientTransform="translate(-917.218 258.115) rotate(42.541) scale(875.658 1021.46)">
<stop offset="0.298581" stop-color="#762DEE"/>
<stop offset="1" stop-color="#762DEE" stop-opacity="0"/>
</radialGradient>
<radialGradient id="paint2_radial_1_15" cx="0" cy="0" r="1" gradientUnits="userSpaceOnUse" gradientTransform="translate(-205.915 84.8898) rotate(102.25) scale(391.79 748.565)">
<stop offset="0.616877" stop-color="#75CDFF"/>
<stop offset="1" stop-color="#75CDFF" stop-opacity="0"/>
</radialGradient>
<radialGradient id="paint3_radial_1_15" cx="0" cy="0" r="1" gradientUnits="userSpaceOnUse" gradientTransform="translate(82.1956 363.171) rotate(-114.504) scale(555.721 956.282)">
<stop stop-color="#FFDC62"/>
<stop offset="1" stop-color="#FFDC62" stop-opacity="0"/>
</radialGradient>
<radialGradient id="paint4_radial_1_15" cx="0" cy="0" r="1" gradientUnits="userSpaceOnUse" gradientTransform="translate(-36.8275 187.611) rotate(125.929) scale(595.645 871.599)">
<stop offset="0.227079" stop-color="#81F9F2"/>
<stop offset="0.547505" stop-color="#81F9F2" stop-opacity="0"/>
</radialGradient>
<clipPath id="clip0_1_15">
<rect width="512" height="512" rx="256" fill="white"/>
</clipPath>
</defs>
</svg>
