<svg width="24" height="32" viewBox="0 0 24 32" fill="none" xmlns="http://www.w3.org/2000/svg">
<path d="M6.72615 32C6.2741 32 5.82206 31.8539 5.37001 31.7079C4.16456 31.1236 3.56183 29.9551 3.8632 28.7866L5.67138 20.3148H2.95911C1.75366 20.3148 0.698885 19.5845 0.24684 18.5621C-0.205204 17.5396 -0.0545226 16.3711 0.849567 15.6408L15.1643 0.888225C16.0684 0.0118365 17.5752 -0.280293 18.63 0.303966C19.8354 0.888225 20.4382 2.05674 20.1368 3.22526L18.3286 11.697H21.0409C22.2463 11.697 23.3011 12.4273 23.7532 13.4498C24.2052 14.4722 24.0545 15.6408 23.1504 16.3711L8.83569 31.1236C8.23296 31.7079 7.47955 32 6.72615 32ZM7.47955 17.2475C7.9316 17.2475 8.38364 17.3935 8.68501 17.8317C8.98637 18.2699 9.13705 18.5621 8.98637 19.0002L7.02751 28.9326L21.0409 14.4722H16.6711C16.2191 14.4722 15.767 14.3262 15.4657 13.888C15.1643 13.5959 15.0136 13.1577 15.1643 12.7195L17.1232 2.78707L3.10979 17.3935L7.47955 17.2475Z" fill="#ECECEC"/>
</svg>
