<svg width="29" height="28" viewBox="0 0 29 28" fill="none" xmlns="http://www.w3.org/2000/svg">
<path d="M27.2273 16.1636H23.9182V11.8364H27.2273C27.9909 11.8364 28.5 11.3273 28.5 10.5636C28.5 9.8 27.9909 9.29091 27.2273 9.29091H23.9182V8.27273C23.9182 6.23636 22.2636 4.70909 20.3545 4.70909H19.3364V1.27273C19.3364 0.509091 18.8273 0 18.0636 0C17.3 0 16.7909 0.509091 16.7909 1.27273V4.58182H12.3364V1.27273C12.3364 0.509091 11.8273 0 11.0636 0C10.3 0 9.79091 0.509091 9.79091 1.27273V4.58182H8.77273C6.73636 4.58182 5.20909 6.23636 5.20909 8.14545V9.16364H1.77273C1.00909 9.16364 0.5 9.67273 0.5 10.4364C0.5 11.2 1.00909 11.7091 1.77273 11.7091H5.08182V16.1636H1.77273C1.00909 16.1636 0.5 16.6727 0.5 17.4364C0.5 18.2 1.00909 18.7091 1.77273 18.7091H5.08182V19.7273C5.08182 21.7636 6.73636 23.2909 8.64545 23.2909H9.66364V26.7273C9.66364 27.4909 10.1727 28 10.9364 28C11.7 28 12.2091 27.4909 12.2091 26.7273V23.4182H16.6636V26.7273C16.6636 27.4909 17.1727 28 17.9364 28C18.7 28 19.2091 27.4909 19.2091 26.7273V23.4182H20.2273C22.2636 23.4182 23.7909 21.7636 23.7909 19.8545V18.8364H27.2273C27.9909 18.8364 28.5 18.3273 28.5 17.5636C28.5 16.8 27.9909 16.1636 27.2273 16.1636ZM21.3727 19.7273C21.3727 20.3636 20.8636 20.7455 20.3545 20.7455H8.77273C8.13636 20.7455 7.75455 20.2364 7.75455 19.7273V8.27273C7.62727 7.63636 8.13636 7.12727 8.77273 7.12727H20.3545C20.9909 7.12727 21.3727 7.63636 21.3727 8.14545V19.7273Z" fill="#ECECEC"/>
</svg>
