<svg width="28" height="28" viewBox="0 0 28 28" fill="none" xmlns="http://www.w3.org/2000/svg">
<path d="M9.92727 11.2C10.6909 11.2 11.2 10.6909 11.2 9.92727C11.2 8.4 12.4727 7.12727 14 7.12727C15.5273 7.12727 16.8 8.4 16.8 9.92727C16.8 10.6909 17.3091 11.2 18.0727 11.2C18.8364 11.2 19.3455 10.6909 19.3455 9.92727C19.3455 7 16.9273 4.58182 14 4.58182C11.0727 4.58182 8.65455 7 8.65455 9.92727C8.65455 10.5636 9.29091 11.2 9.92727 11.2Z" fill="#ECECEC"/>
<path d="M26.7273 12.7273H1.27273C0.509091 12.7273 0 13.2364 0 14C0 14.7636 0.509091 15.2727 1.27273 15.2727H7.76364C7 16.0364 6.36364 16.9273 5.98182 17.9455C5.6 18.9636 5.72727 20.1091 6.23636 21C6.87273 21.8909 7.89091 22.5273 9.03636 22.5273H18.7091C19.8545 22.5273 20.8727 22.0182 21.5091 21C22.1455 20.1091 22.2727 18.9636 21.7636 17.9455C21.3818 16.9273 20.7455 16.0364 19.9818 15.2727H26.7273C27.4909 15.2727 28 14.7636 28 14C28 13.2364 27.4909 12.7273 26.7273 12.7273ZM19.6 18.9636C19.7273 19.2182 19.6 19.4727 19.4727 19.6C19.3455 19.8545 19.0909 19.9818 18.7091 19.9818H9.16364C8.90909 19.9818 8.65454 19.8545 8.4 19.6C8.27273 19.4727 8.14545 19.2182 8.27273 18.9636C9.03636 17.0545 10.8182 15.6545 12.8545 15.2727H14.8909C17.0545 15.6545 18.8364 17.0545 19.6 18.9636Z" fill="#ECECEC"/>
<path d="M26.7273 18.4545C25.9636 18.4545 25.4545 18.9636 25.4545 19.7273V22.0182C25.4545 23.9273 23.9273 25.3273 22.1455 25.3273H19.8545C19.0909 25.3273 18.5818 25.8364 18.5818 26.6C18.5818 27.3636 19.0909 27.8727 19.8545 27.8727H22.1455C25.4545 27.8727 28 25.2 28 22.0182V19.7273C28 19.0909 27.4909 18.4545 26.7273 18.4545Z" fill="#ECECEC"/>
<path d="M8.27273 25.4545H5.85455C4.07273 25.4545 2.54545 23.9273 2.54545 22.1455V19.8545C2.54545 19.0909 2.03636 18.5818 1.27273 18.5818C0.509091 18.5818 0 19.0909 0 19.8545V22.1455C0 25.3273 2.67273 28 5.85455 28H8.14545C8.90909 28 9.41818 27.4909 9.41818 26.7273C9.41818 25.9636 8.90909 25.4545 8.27273 25.4545Z" fill="#ECECEC"/>
<path d="M1.27273 9.54545C2.03636 9.54545 2.54545 9.03636 2.54545 8.27273V5.85455C2.54545 4.07273 4.07273 2.54545 5.85455 2.54545H8.14545C8.90909 2.54545 9.41818 2.03636 9.41818 1.27273C9.41818 0.509091 8.90909 0 8.27273 0H5.85455C2.67273 0 0 2.67273 0 5.85455V8.14545C0 8.90909 0.509091 9.54545 1.27273 9.54545Z" fill="#ECECEC"/>
<path d="M22.1455 0H19.8545C19.0909 0 18.5818 0.509091 18.5818 1.27273C18.5818 2.03636 19.0909 2.54545 19.8545 2.54545H22.1455C23.9273 2.54545 25.4545 4.07273 25.4545 5.85455V8.14545C25.4545 8.90909 25.9636 9.41818 26.7273 9.41818C27.4909 9.41818 28 8.90909 28 8.14545V5.85455C28 2.67273 25.3273 0 22.1455 0Z" fill="#ECECEC"/>
</svg>
