<svg width="19" height="30" viewBox="0 0 19 30" fill="none" xmlns="http://www.w3.org/2000/svg">
<path d="M14.0142 30H4.85106C2.15603 30 0 27.8182 0 25.0909V4.90909C0 2.18182 2.15603 0 4.85106 0H14.1489C16.844 0 19 2.18182 19 4.90909V25.2273C18.8652 27.8182 16.7092 30 14.0142 30ZM4.85106 2.72727C3.6383 2.72727 2.69504 3.68182 2.69504 4.90909V25.2273C2.69504 26.3182 3.6383 27.2727 4.85106 27.2727H14.1489C15.3617 27.2727 16.305 26.3182 16.305 25.0909V4.90909C16.1702 3.68182 15.2269 2.72727 14.0142 2.72727H4.85106Z" fill="#ECECEC"/>
<path d="M11.1844 7.22726H7.68087C6.87236 7.22726 6.33335 6.6818 6.33335 5.86362C6.33335 5.04544 6.87236 4.49998 7.68087 4.49998H11.3192C12.1277 4.49998 12.6667 5.04544 12.6667 5.86362C12.6667 6.6818 11.9929 7.22726 11.1844 7.22726Z" fill="#ECECEC"/>
</svg>
