<svg width="28" height="28" viewBox="0 0 28 28" fill="none" xmlns="http://www.w3.org/2000/svg">
<path d="M7.6654 28C6.96589 28 6.26639 27.72 5.56688 27.3C4.44768 26.46 3.74817 25.06 4.02797 23.66L4.86738 18.2L1.09005 14.28C0.110746 13.3 -0.308957 11.76 0.250647 10.36C0.67035 8.96 1.78956 8.12 3.18857 7.84L8.5048 7L10.8831 2.1C11.4427 0.84 12.7018 0 14.1008 0C15.4999 0 16.759 0.84 17.4585 2.1L19.6969 7L24.8732 7.84C26.2722 7.98 27.3914 8.96 27.8111 10.36C28.2308 11.76 27.951 13.16 26.9717 14.28L23.1944 18.2L24.0338 23.66C24.3136 25.06 23.754 26.6 22.4949 27.3C21.3757 28.14 19.9767 28.14 18.7176 27.58L14.1008 24.92L9.48411 27.44C8.92451 27.86 8.3649 28 7.6654 28ZM14.1008 2.8C13.9609 2.8 13.5412 2.8 13.4013 3.36L10.7432 8.96C10.4634 9.38 10.0437 9.66 9.62401 9.66L3.60827 10.64C3.18857 10.64 3.04867 11.06 2.90876 11.2C2.90876 11.34 2.76886 11.76 3.18857 12.18L7.5255 16.52C7.8053 16.8 7.9452 17.22 7.9452 17.78L6.96589 23.94C6.82599 24.5 7.24569 24.78 7.38559 24.92C7.5255 25.06 7.8053 25.2 8.225 24.92L13.5412 21.98C13.9609 21.7 14.5205 21.7 14.9402 21.98L20.2565 24.92C20.6762 25.06 20.956 24.92 21.0959 24.92C21.2358 24.78 21.5156 24.5 21.5156 23.94L20.5363 17.78C20.3964 17.36 20.5363 16.94 20.956 16.52L25.2929 12.18C25.4328 11.9 25.2929 11.34 25.2929 11.2C25.2929 11.06 25.0131 10.64 24.5934 10.64L18.5777 9.8C18.158 9.8 17.7383 9.38 17.4585 8.96L14.8003 3.36C14.6604 2.8 14.2407 2.8 14.1008 2.8Z" fill="#ECECEC"/>
</svg>
