<svg width="29" height="29" viewBox="0 0 29 29" fill="none" xmlns="http://www.w3.org/2000/svg">
<path d="M28.0612 8.67941C25.8527 5.7025 23.2544 2.98446 20.2664 0.913574C18.3177 -0.510162 15.5896 -0.251301 13.7708 1.56073L9.35373 5.96137C7.66486 7.64396 7.40504 10.362 8.70417 12.3035C8.83408 12.4329 8.96399 12.6918 9.22382 12.8212L1.0393 20.9753C0.389739 21.6225 0 22.5285 0 23.5639V27.7057C0 28.094 0.129913 28.3528 0.389739 28.6117C0.649565 28.8706 0.909391 29 1.29913 29H5.45634C6.49565 29 7.40504 28.6117 8.0546 27.9646L16.2391 19.8104C16.4989 19.9399 16.6289 20.0693 16.8887 20.1987C18.8374 21.493 21.5655 21.2342 23.2544 19.5516L27.6715 15.1509C29.2304 13.3389 29.4902 10.6209 28.0612 8.67941ZM25.5928 13.3389L21.1758 17.7395C20.2664 18.6456 18.9673 18.775 18.0579 18.1278C17.5382 17.7395 17.1485 17.4807 16.6289 17.0924C16.1092 16.7041 15.3297 16.7041 14.94 17.2218L5.97599 26.1525C5.71617 26.4114 5.45634 26.5408 5.19652 26.5408H2.33843V23.6933C2.33843 23.4345 2.46835 23.1756 2.72817 22.9168L11.6922 13.9861C12.2118 13.4683 12.2118 12.8212 11.8221 12.3035C11.5623 11.7857 11.1725 11.268 10.9127 10.7503C10.2631 9.84428 10.393 8.54998 11.3024 7.77339L15.7195 3.37275C16.1092 2.85503 16.7588 2.59617 17.4083 2.59617C17.928 2.59617 18.3177 2.7256 18.7075 2.98446C21.5655 4.92592 23.904 7.3851 25.8527 10.1031C26.6322 11.1386 26.5022 12.4329 25.5928 13.3389Z" fill="#ECECEC"/>
<path d="M19.1483 7.90909C18.5933 7.90909 18.177 8.19156 17.7608 8.47403C16.9282 9.32143 16.9282 10.5925 17.7608 11.2987C18.177 11.7224 18.5933 11.8636 19.1483 11.8636C19.7034 11.8636 20.1196 11.7224 20.5359 11.2987C20.9522 10.875 21.0909 10.4513 21.0909 9.88636C21.0909 9.32143 20.9522 8.89773 20.5359 8.47403C20.2584 8.05033 19.7034 7.90909 19.1483 7.90909Z" fill="#ECECEC"/>
</svg>
