<svg width="26" height="28" viewBox="0 0 26 28" fill="none" xmlns="http://www.w3.org/2000/svg">
<path fill-rule="evenodd" clip-rule="evenodd" d="M10.916 0.491337C12.3877 -0.163779 14.033 -0.163779 15.5047 0.491337L15.5271 0.501545L23.3957 4.18784C23.4058 4.19255 23.4158 4.19739 23.4257 4.20236C25.1885 5.08515 26.2332 7.02514 25.8887 9.10489C25.2345 13.1652 23.2534 21.1691 15.9099 27.0531L15.8963 27.064C14.2941 28.3121 12.1266 28.312 10.5245 27.0639L10.5107 27.0532C3.16539 21.1677 1.18523 13.1612 0.531521 9.10189C0.526857 9.07293 0.523195 9.04381 0.520543 9.01459C0.357505 7.21835 1.15847 5.10154 3.15367 4.18694L10.8864 0.504958C10.8962 0.500292 10.906 0.495751 10.916 0.491337ZM11.9648 2.81075L4.23893 6.48947L4.21911 6.4987C3.44067 6.85309 2.97761 7.76261 3.05223 8.74439C3.67486 12.5768 5.51295 19.7824 12.0949 25.0606C12.7743 25.5858 13.6464 25.5858 14.3258 25.0606C20.9348 19.7606 22.7609 12.5174 23.3761 8.69719L23.3771 8.69063C23.5376 7.72646 23.0657 6.87584 22.299 6.48497L14.4592 2.81223C13.6538 2.45702 12.7704 2.45653 11.9648 2.81075Z" fill="#ECECEC"/>
<path fill-rule="evenodd" clip-rule="evenodd" d="M19.0799 7.88985C19.6428 8.31082 19.7578 9.10841 19.3368 9.67132L13.6259 17.3077C13.3868 17.6274 13.0115 17.8164 12.6122 17.8181C12.2129 17.8199 11.836 17.6341 11.5941 17.3165L8.39596 13.1165C7.97013 12.5572 8.07827 11.7587 8.6375 11.3329C9.19674 10.907 9.99529 11.0152 10.4211 11.5744L12.5975 14.4326L17.2984 8.14683C17.7194 7.58393 18.517 7.46888 19.0799 7.88985Z" fill="#ECECEC"/>
</svg>
