<svg width="26" height="28" viewBox="0 0 26 28" fill="none" xmlns="http://www.w3.org/2000/svg">
<path d="M23.9647 22.6H21C20.5059 20.8 18.9 19.6 16.9235 19.6C14.5765 19.6 12.6 21.52 12.6 23.8C12.6 26.08 14.5765 28 16.9235 28C18.9 28 20.5059 26.8 21 25H23.9647C24.7059 25 25.2 24.4 25.2 23.8C25.2 23.08 24.7059 22.6 23.9647 22.6ZM16.9235 25.6C15.9353 25.6 15.0706 24.76 15.0706 23.8C15.0706 22.84 15.9353 22 16.9235 22C17.9118 22 18.7765 22.84 18.7765 23.8C18.7765 24.76 17.9118 25.6 16.9235 25.6Z" fill="#ECECEC"/>
<path d="M10.0085 22.4H1.19149C0.476596 22.4 0 23.1 0 23.8C0 24.64 0.595745 25.2 1.19149 25.2H10.0085C10.7234 25.2 11.2 24.5 11.2 23.8C11.2 22.96 10.6043 22.4 10.0085 22.4Z" fill="#ECECEC"/>
<path d="M1.19149 5.6H10.0085C10.7234 5.6 11.2 4.9 11.2 4.2C11.2 3.5 10.6043 2.8 10.0085 2.8H1.19149C0.476596 2.8 0 3.5 0 4.2C0 4.9 0.595745 5.6 1.19149 5.6Z" fill="#ECECEC"/>
<path d="M16.9235 8.4C18.9 8.4 20.5059 7.2 21 5.4H23.9647C24.7059 5.4 25.2 4.8 25.2 4.2C25.2 3.6 24.5824 3 23.9647 3H21C20.5059 1.2 18.9 0 16.9235 0C14.5765 0 12.6 1.92 12.6 4.2C12.6 6.48 14.5765 8.4 16.9235 8.4ZM16.9235 2.4C17.9118 2.4 18.7765 3.24 18.7765 4.2C18.7765 5.16 17.9118 6 16.9235 6C15.9353 6 15.0706 5.16 15.0706 4.2C15.0706 3.24 15.9353 2.4 16.9235 2.4Z" fill="#ECECEC"/>
<path d="M1.23529 15.2H4.2C4.69412 16.88 6.3 18.2 8.27647 18.2C10.6235 18.2 12.6 16.28 12.6 14C12.6 11.72 10.6235 9.8 8.27647 9.8C6.3 9.8 4.69412 11 4.2 12.8H1.23529C0.494118 12.8 0 13.4 0 14C0 14.6 0.617647 15.2 1.23529 15.2ZM8.27647 12.2C9.26471 12.2 10.1294 13.04 10.1294 14C10.1294 14.96 9.26471 15.8 8.27647 15.8C7.28824 15.8 6.42353 14.96 6.42353 14C6.42353 13.04 7.28824 12.2 8.27647 12.2Z" fill="#ECECEC"/>
<path d="M23.9957 12.6H15.2043C14.4817 12.6 14 13.3 14 14C14 14.7 14.6022 15.4 15.2043 15.4H23.9957C24.7183 15.4 25.2 14.7 25.2 14C25.2 13.3 24.7183 12.6 23.9957 12.6Z" fill="#ECECEC"/>
</svg>
