<svg width="28" height="28" viewBox="0 0 28 28" fill="none" xmlns="http://www.w3.org/2000/svg">
<path d="M26.8229 21.1429L24.1121 18.4286C23.5414 17.8571 22.6853 17.8571 22.1147 18.4286C21.5439 19 21.5439 19.8571 22.1147 20.4286L24.8255 23.1429C25.2535 23.5714 25.2535 24.2857 24.8255 24.7143C24.3975 25.1429 23.6841 25.1429 23.256 24.7143L18.9758 20.4286C19.2611 20.1429 19.5465 20 19.8318 19.7143C21.972 17.5714 23.256 14.5714 23.256 11.5714C23.256 8.42857 22.1146 5.57143 19.8318 3.42857C15.2662 -1.14286 7.98981 -1.14286 3.4242 3.42857C-1.1414 8 -1.1414 15.2857 3.4242 19.8571C5.56433 22 8.56051 23.2857 11.5567 23.2857C13.2688 23.2857 14.9809 22.8571 16.4076 22.1429L21.1159 26.8571C21.8293 27.5714 22.9707 28 23.9694 28C24.9682 28 25.9669 27.5714 26.8229 26.8571C28.3924 25.1429 28.3924 22.5714 26.8229 21.1429ZM5.42166 17.5714C1.99745 14.1429 1.99745 8.57143 5.42166 5.28571C7.13376 3.57143 9.27389 2.71429 11.5567 2.71429C13.8395 2.71429 15.9796 3.57143 17.6917 5.28571C19.4038 7 20.2599 9.14286 20.2599 11.4286C20.2599 13.7143 19.4038 16 17.6917 17.5714C15.9796 19.1429 13.8395 20.1429 11.5567 20.1429C9.27389 20.1429 6.99108 19.2857 5.42166 17.5714Z" fill="#ECECEC"/>
</svg>
