<svg width="28" height="28" viewBox="0 0 28 28" fill="none" xmlns="http://www.w3.org/2000/svg">
<path d="M22.4279 17.1343C19.5025 17.1343 16.995 19.5025 16.995 22.5672C16.995 25.4925 19.3632 28 22.4279 28C25.3532 28 27.8607 25.6318 27.8607 22.5672C27.8607 19.5025 25.4925 17.1343 22.4279 17.1343ZM22.4279 25.0746C21.0348 25.0746 19.7811 23.9602 19.7811 22.4279C19.7811 21.0348 20.8955 19.7811 22.4279 19.7811C23.8209 19.7811 25.0746 20.8955 25.0746 22.4279C25.0746 23.9602 23.9602 25.0746 22.4279 25.0746Z" fill="#ECECEC"/>
<path d="M12.1194 11.7015C12.2587 11.7015 12.5373 11.7015 12.6766 11.5622L18.2488 8.77612C19.2239 10.0299 20.7562 10.8657 22.4279 10.8657C25.4925 10.7264 27.8607 8.35821 27.8607 5.43284C27.8607 2.50746 25.4925 0 22.4279 0C19.5025 0 16.995 2.36816 16.995 5.43284C16.995 5.71144 16.995 5.99005 17.1343 6.26866L11.4229 9.05473C10.7264 9.47264 10.4478 10.3085 10.8657 10.8657C11.005 11.4229 11.5622 11.7015 12.1194 11.7015ZM22.4279 2.78607C23.8209 2.78607 25.0746 3.9005 25.0746 5.43284C25.0746 6.82587 23.9602 8.0796 22.4279 8.0796C21.0348 8.0796 19.7811 6.96517 19.7811 5.43284C19.9204 3.9005 21.0348 2.78607 22.4279 2.78607Z" fill="#ECECEC"/>
<path d="M16.2985 18.1095L10.5871 15.3234C10.7264 14.9055 10.7264 14.4876 10.7264 13.9303C10.7264 11.005 8.35821 8.49751 5.29353 8.49751C2.22886 8.49751 0 11.005 0 13.9303C0 16.8557 2.36816 19.3632 5.43284 19.3632C6.96517 19.3632 8.35821 18.806 9.33333 17.6915L15.1841 20.6169C15.3234 20.7562 15.602 20.7562 15.7413 20.7562C16.2985 20.7562 16.7164 20.4776 16.995 19.9204C17.2736 19.3632 16.995 18.5274 16.2985 18.1095ZM5.43284 16.5771C3.9005 16.5771 2.78607 15.3234 2.78607 13.9303C2.78607 12.5373 3.9005 11.2836 5.43284 11.2836C6.82587 11.2836 8.0796 12.398 8.0796 13.9303C7.9403 15.3234 6.82587 16.5771 5.43284 16.5771Z" fill="#ECECEC"/>
</svg>
