<svg width="30.000000" height="26.000000" viewBox="0 0 30 26" fill="none" xmlns="http://www.w3.org/2000/svg" xmlns:xlink="http://www.w3.org/1999/xlink">
	<desc>
			Created with Pixso.
	</desc>
	<defs/>
	<path id="удаление негатива" d="M21.4492 0C18.9004 0 16.6504 1.052 15 3.00586C13.3496 1.052 11.0996 0 8.55078 0C3.90039 0 0 3.90747 0 8.56641C0 8.86694 0 9.16772 0 9.46826C0.599609 16.5317 8.09961 22.3931 12.4492 25.2485C13.1992 25.6995 14.0996 26 15 26C15.9004 26 16.8008 25.6995 17.5508 25.2485C21.9004 22.3931 29.4004 16.5317 30 9.61841C30 9.31787 30 9.01733 30 8.7168C30 3.90747 26.0996 0 21.4492 0ZM27 9.16772C26.5508 15.1792 19.0508 20.5896 15.9004 22.5435C15.3008 22.844 14.6992 22.844 14.0996 22.5435C10.9492 20.4392 3.59961 15.0288 3 9.01733C3 9.01733 3 8.7168 3 8.56641C3 5.56079 5.55078 3.00586 8.55078 3.00586C10.8008 3.00586 12.75 4.3584 13.6504 6.31226C13.8008 6.91333 14.4004 7.21387 15 7.21387C15.5996 7.21387 16.1992 6.91333 16.3496 6.31226C17.25 4.3584 19.1992 3.00586 21.4492 3.00586C24.4492 3.00586 27 5.56079 27 8.56641C27 8.7168 27 9.01733 27 9.16772Z" fill="#ECECEC" fill-opacity="1.000000" fill-rule="evenodd"/>
</svg>
