<svg width="150" height="125" viewBox="0 0 150 125" fill="none" xmlns="http://www.w3.org/2000/svg">
<path d="M127.542 72.0659C125.978 71.3757 125.734 69.4254 125.769 64.6819L125.804 57.4124L122.814 57.4095L123.509 56.0642H125.804V52.6219L131.298 50.9007V55.9497L133.836 55.9526L133.175 57.4447L131.298 57.4418V70.0216C131.402 71.035 131.819 71.6312 132.376 72.0659H127.542Z" fill="#AFB6B3"/>
<path d="M46.1794 83.5972C46.0055 83.1889 45.6578 82.9275 45.1363 82.9275C44.4061 82.9275 44.1279 83.2447 44.1279 83.6824C44.1279 84.7251 46.9096 84.5341 46.9096 86.3023C46.9096 87.2892 45.9012 88 44.4757 88C43.9889 88 43.4325 87.9001 43.0153 87.6681C43.1196 87.3421 43.2239 87.019 43.2935 86.6871H43.4673C43.5716 87.2187 44.0932 87.5359 44.719 87.5359C45.2754 87.5359 45.7969 87.2657 45.7969 86.7341C45.7969 85.4975 43.0501 85.9469 43.0501 84.0848C43.0501 83.1977 43.7802 82.4634 45.1711 82.4634C45.8317 82.4634 46.4228 82.672 46.5966 82.8335C46.4923 83.0802 46.4228 83.3358 46.3185 83.5972H46.1794Z" fill="#AFB6B3"/>
<path d="M73.4046 40.9819C73.8218 41.9541 74.7954 42.9586 74.1 44.0865C73.7871 45.232 72.5005 46.1601 71.1445 46.3452C69.7189 46.4538 68.3976 46.2512 67.3197 45.5257C66.5896 42.2185 68.189 39.1579 71.2836 37.334L73.4046 40.9819Z" fill="#AFB6B3"/>
<path d="M78.8633 51.0594C78.1679 53.0596 71.179 51.7467 68.9884 48.463C71.8744 48.7332 75.1081 46.5773 75.1776 44.1189L78.8633 51.0594Z" fill="#AFB6B3"/>
<path d="M81.7511 50.8009C82.064 50.6805 82.6899 50.4103 82.8637 49.8317L75.3533 36.0329C74.8317 35.98 74.484 35.9418 73.8234 36.3266L81.7511 50.8009Z" fill="#AFB6B3"/>
<path d="M85.1224 47.8049C88.3213 43.7076 85.6439 36.9844 78.7246 36.0416L85.1224 47.8049Z" fill="#AFB6B3"/>
<path d="M12 78.8449H132.793V78.0636H12V78.8449Z" fill="#AFB6B3"/>
<path d="M51.0823 85.148C51.0823 84.8484 50.7693 84.6076 50.4216 84.6076C50.0739 84.6076 49.7958 84.8484 49.7958 85.148C49.7958 85.4476 50.0739 85.6885 50.4216 85.6885C50.7693 85.6885 51.0823 85.4476 51.0823 85.148Z" fill="#AFB6B3"/>
<path d="M84.4272 56.6252C85.4356 55.9086 87.2089 55.8939 88.3563 56.3521C88.8431 56.5577 89.2951 56.8308 89.608 57.1892L87.3827 60.1028C87.1046 59.9149 86.8959 59.8297 86.5482 59.6769C85.4356 59.2746 84.2881 59.5095 83.6275 60.0177V68.5207C83.5927 69.9923 83.9057 71.3345 84.8097 72.0307H79.768C78.6901 71.3492 78.4467 70.2595 78.3424 69.305L78.3076 57.9969C78.3424 57.0805 78.0642 56.6781 77.647 56.1641L82.8626 56.1817C83.2798 56.4373 83.3146 56.8808 83.5232 57.2215L84.4272 56.6252Z" fill="#AFB6B3"/>
<path d="M90.7899 59.4214C90.7552 58.3464 91.0333 57.0599 90.1988 56.1318H95.0319C95.3796 56.3374 95.5535 56.6781 95.6578 57.0012C95.936 57.289 95.9012 57.7002 96.0055 58.0409L96.075 70.0892C96.2489 70.8059 96.5966 71.5284 97.2225 72.0923L92.0417 72.1011C90.3379 70.7148 90.8942 68.4356 90.7552 66.0829L90.7899 59.4214Z" fill="#AFB6B3"/>
<path d="M98.4745 59.5389C98.9961 58.3141 100.63 57.7002 101.813 57.0335C103.621 56.4725 105.637 55.0744 107.654 56.217C109.358 57.1539 110.853 58.2113 111.931 59.6593C112.174 60.2203 112.313 60.8518 112.487 61.4481C112.487 62.2499 112.696 62.8462 112.661 63.648C112.73 64.5174 112.73 65.3016 112.661 66.1534C112.591 67.6014 111.792 68.8967 110.436 69.9012C108.419 71.4197 105.881 73.1409 103.134 71.9631C100.665 70.9909 97.7791 69.067 97.953 66.4236C97.8487 64.5497 97.7444 62.9313 98.0573 61.1073C98.1616 60.5787 98.1268 60 98.4745 59.5389ZM103.516 68.0596C103.76 68.8115 104.212 69.7309 105.29 69.8337C105.915 69.8513 106.367 69.4078 106.75 69.0318C107.863 67.1579 107.689 65.1136 107.689 62.9813C107.341 61.3981 107.793 59.2334 105.776 58.2612C105.046 58.0409 104.525 58.4492 104.073 58.8252C103.273 59.8297 103.203 60.981 103.134 62.2587C102.89 64.303 103.169 65.9977 103.516 68.0596Z" fill="#AFB6B3"/>
<path d="M116.242 72.0659C114.677 71.3757 114.434 69.4254 114.469 64.6819L114.504 57.4124L111.548 57.4095L112.209 56.0642H114.504V52.6219L120.032 50.9007V55.9497L122.536 55.9526L121.875 57.4447L120.032 57.4418V70.0216C120.136 71.035 120.554 71.6312 121.11 72.0659H116.242Z" fill="#AFB6B3"/>
<path d="M65.8942 57.9969C65.8595 57.0805 65.6508 56.6781 65.2336 56.1641L70.4492 56.1817C70.8664 56.4373 70.9012 56.8808 71.1098 57.2215L72.0138 56.6252C73.0222 55.9086 74.7955 55.8939 75.9429 56.3521C76.4297 56.5577 76.8817 56.8308 77.1947 57.1892L74.9693 60.1028C74.6912 59.9149 74.4826 59.8297 74.1348 59.6769C73.0222 59.2746 71.8748 59.5095 71.2141 60.0177V68.5207C71.1794 69.9923 71.4923 71.3345 72.3963 72.0307H67.3546C66.3115 71.3492 65.9986 70.3359 65.929 69.305L65.8942 57.9969Z" fill="#AFB6B3"/>
<path d="M26.3603 62.4702L24.4827 65.7716C23.1614 67.7189 21.3533 70.1068 18.5717 70.7001C17.4938 71.0173 16.5202 70.7295 15.4771 70.6678L12.1044 75.3232C12.3825 75.5523 12.7303 75.7432 13.078 75.8548C18.989 77.764 21.3881 75.7109 27.1948 64.5761L32.7233 74.4949H40.0599L36.5828 67.8011L38.5648 64.3412L43.989 74.3422L51.0126 74.3804L38.7038 51.5645L33.0362 53.9407L37.4869 62.4555L35.5397 65.8009L27.4034 50.9741L21.4577 53.5412L26.3603 62.4702Z" fill="#AFB6B3"/>
<path d="M48.9264 66.4941C49.0655 64.8405 50.1434 63.2897 51.9515 62.4555C53.7595 61.5156 55.8458 61.1426 57.7234 60.3231C58.0363 60.1028 58.4188 59.8297 58.4535 59.4713C58.4883 59.0278 58.2101 58.6871 57.7581 58.5344C54.907 58.0233 52.5773 59.5213 50.5259 61.0046C50.7693 59.9149 50.9779 58.7224 51.6038 57.7002C51.8819 57.4271 52.0905 57.0511 52.473 56.8485C54.4897 56.0114 56.9932 55.7735 59.2185 55.9086C61.0613 56.0114 62.7651 57.1187 63.3909 58.5344C63.7039 59.1982 63.6691 59.9501 63.7387 60.6315L63.7734 69.8689C63.7734 70.6678 64.2254 71.4197 64.7818 72.0659H59.5662C58.9403 71.5901 58.6274 70.9909 58.4535 70.2419C56.9932 71.3345 53.9334 72.9529 52.1253 71.8779C50.2477 71.1642 48.5092 68.7586 48.9264 66.4941ZM58.1754 63.2808C58.1406 62.6405 57.6191 62.573 57.2366 62.573C55.9848 62.7257 54.907 63.6098 54.2811 64.5174C53.7595 65.3251 53.6205 66.0065 53.5857 66.7144C53.5857 67.478 53.5161 68.0449 53.8986 68.6235C54.1072 68.9995 54.5245 69.1699 54.9765 69.2697C55.7762 69.4078 56.5064 69.2198 57.1323 68.8615C58.6274 68.1624 58.3492 66.7643 58.384 65.5219L58.1754 63.2808Z" fill="#AFB6B3"/>
<path d="M98.648 85.148C98.648 84.8484 98.3351 84.6076 97.9874 84.6076C97.6397 84.6076 97.3615 84.8484 97.3615 85.148C97.3615 85.4476 97.6397 85.6885 97.9874 85.6885C98.3351 85.6885 98.648 85.4476 98.648 85.148Z" fill="#AFB6B3"/>
<path d="M54.8721 82.6015H56.8193C57.2365 82.6015 57.9319 82.5868 58.3144 82.7572C58.836 82.9892 59.0794 83.3358 59.0794 83.8615C59.0794 84.6193 58.523 85.0981 57.6538 85.2508C58.1753 85.991 58.7317 86.7018 59.288 87.4214L59.6357 87.9001C59.3575 87.8825 59.0794 87.862 58.8012 87.862C58.523 87.862 58.2797 87.8825 58.0015 87.9001L56.8888 86.2788C56.7498 86.0703 56.5064 85.7149 56.2977 85.4212H56.2282V87.9001C56.0196 87.8825 55.7762 87.862 55.5675 87.862C55.3242 87.862 55.1155 87.8825 54.8721 87.9001V82.6015ZM56.2282 85.0893C57.2018 85.1656 57.6886 84.7809 57.6886 83.9849C57.6886 83.8762 57.6538 83.7617 57.619 83.5972C57.4799 82.9569 56.7845 83.0186 56.2282 83.0186V85.0893Z" fill="#AFB6B3"/>
<path d="M64.5035 82.6015C64.4687 82.7102 64.4339 82.8277 64.4339 82.9334C64.4339 83.0421 64.4687 83.1596 64.5035 83.2653C63.9124 83.2036 63.3213 83.1419 62.3825 83.1596V84.8191H63.3213C63.7385 84.8191 64.121 84.7867 64.4687 84.7486C64.4339 84.8572 64.3992 84.9718 64.3992 85.0805C64.3992 85.1891 64.4339 85.3066 64.4687 85.4124C64.121 85.3742 63.7385 85.3448 63.3213 85.3448H62.3825V87.3039C63.3213 87.298 63.9124 87.2598 64.5035 87.1982C64.4687 87.3039 64.4339 87.4214 64.4339 87.5301C64.4339 87.6358 64.4687 87.7533 64.5035 87.862H60.9917V82.6015H64.5035Z" fill="#AFB6B3"/>
<path d="M68.9541 83.5972C68.7455 83.1889 68.3978 82.9275 67.8762 82.9275C67.1808 82.9275 66.8679 83.2447 66.8679 83.6824C66.8679 84.7251 69.6495 84.5341 69.6495 86.3023C69.6495 87.2892 68.6759 88 67.2503 88C66.7288 88 66.2072 87.9001 65.79 87.6681C65.8943 87.3421 65.9986 87.019 66.0334 86.6871H66.2072C66.3463 87.2187 66.8331 87.5359 67.459 87.5359C68.0501 87.5359 68.5369 87.2657 68.5369 86.7341C68.5369 85.4975 65.8247 85.9469 65.8247 84.0848C65.8247 83.1977 66.5202 82.4634 67.9458 82.4634C68.5716 82.4634 69.1627 82.672 69.3713 82.8335C69.267 83.0802 69.1627 83.3358 69.0932 83.5972H68.9541Z" fill="#AFB6B3"/>
<path d="M74.1698 88C72.1531 88 70.7971 86.9955 70.7971 85.242C70.7971 83.7059 72.1184 82.4634 74.4132 82.4634C77.021 82.4634 77.786 84.0143 77.786 85.2126C77.786 86.7194 76.4299 88 74.1698 88ZM72.327 85.4682C72.327 86.4697 72.8486 87.5359 74.2394 87.5359C75.6302 87.5359 76.2561 86.3464 76.2561 85.0658C76.2561 84.0701 75.6997 82.9275 74.3437 82.9275C73.0919 82.9275 72.327 83.7382 72.327 85.4682Z" fill="#AFB6B3"/>
<path d="M79.3158 82.6015H81.2629C81.6802 82.6015 82.3408 82.5868 82.7233 82.7572C83.2448 82.9892 83.523 83.3358 83.523 83.8615C83.523 84.6193 82.9319 85.0981 82.0974 85.2508C82.619 85.991 83.1753 86.7018 83.7316 87.4214L84.0793 87.9001C83.8012 87.8825 83.523 87.862 83.2448 87.862C82.9667 87.862 82.6885 87.8825 82.4103 87.9001L81.3325 86.2788C81.1934 86.0703 80.95 85.7149 80.7414 85.4212H80.6718V87.9001C80.4284 87.8825 80.2198 87.862 79.9764 87.862C79.7678 87.862 79.5244 87.8825 79.3158 87.9001V82.6015ZM80.6718 85.0893C81.6454 85.1656 82.0974 84.7809 82.0974 83.9849C82.0974 83.8762 82.0974 83.7617 82.0626 83.5972C81.9236 82.9569 81.2282 83.0186 80.6718 83.0186V85.0893Z" fill="#AFB6B3"/>
<path d="M87.9735 87.9001C87.7649 87.8825 87.5215 87.862 87.2781 87.862C87.0695 87.862 86.8261 87.8825 86.6175 87.9001V83.1507C85.9568 83.1507 85.4005 83.2036 84.9137 83.2594C84.9137 83.1507 84.9485 83.0421 84.9485 82.9275C84.9485 82.8188 84.9137 82.7102 84.9137 82.6015H89.6077C89.6077 82.7102 89.573 82.8188 89.573 82.9275C89.573 83.0421 89.6077 83.1507 89.6077 83.2594C89.0862 83.2036 88.5298 83.1507 87.9735 83.1507V87.9001Z" fill="#AFB6B3"/>
<path d="M93.8845 83.5972C93.7107 83.1889 93.363 82.9275 92.8414 82.9275C92.1112 82.9275 91.8331 83.2447 91.8331 83.6824C91.8331 84.7251 94.6147 84.5341 94.6147 86.3023C94.6147 87.2892 93.6064 88 92.1808 88C91.694 88 91.1377 87.9001 90.7204 87.6681C90.8247 87.3421 90.929 87.019 90.9986 86.6871H91.1724C91.2767 87.2187 91.7983 87.5359 92.4242 87.5359C92.9805 87.5359 93.4673 87.2657 93.4673 86.7341C93.4673 85.4975 90.7552 85.9469 90.7552 84.0848C90.7552 83.1977 91.4854 82.4635 92.8762 82.4635C93.5368 82.4635 94.1279 82.672 94.3018 82.8335C94.1975 83.0802 94.1279 83.3358 94.0236 83.5972H93.8845Z" fill="#AFB6B3"/>
<path d="M105.116 83.5972C104.907 83.1889 104.559 82.9275 104.038 82.9275C103.342 82.9275 103.029 83.2447 103.029 83.6824C103.029 84.7251 105.811 84.5341 105.811 86.3023C105.811 87.2892 104.837 88 103.412 88C102.89 88 102.369 87.9001 101.951 87.6681C102.056 87.3421 102.125 87.019 102.195 86.6871H102.369C102.508 87.2187 102.995 87.5359 103.62 87.5359C104.212 87.5359 104.698 87.2657 104.698 86.7341C104.698 85.4975 101.986 85.9469 101.986 84.0848C101.986 83.1977 102.716 82.4635 104.072 82.4635C104.733 82.4635 105.324 82.672 105.533 82.8335C105.428 83.0802 105.324 83.3358 105.255 83.5972H105.116Z" fill="#AFB6B3"/>
<path d="M107.445 82.6015C107.689 82.6191 107.897 82.6426 108.141 82.6426C108.384 82.6426 108.593 82.6191 108.836 82.6015V84.7956C108.836 85.2215 108.801 85.8529 108.906 86.2553C108.975 86.6342 109.045 86.8721 109.358 87.1424C109.671 87.3744 110.018 87.4742 110.436 87.4742C111.27 87.4742 111.722 87.2128 112.035 86.5402C112.209 86.1995 112.209 85.3213 112.209 84.9424V82.6015C112.313 82.6191 112.452 82.625 112.557 82.625C112.696 82.625 112.835 82.6191 112.939 82.6015V85.3507C112.904 86.2318 112.939 87.0337 111.965 87.5917C111.479 87.8913 110.853 88 110.227 88C109.149 88 107.932 87.7063 107.619 86.7018C107.515 86.4022 107.445 86.0615 107.445 85.7531V82.6015Z" fill="#AFB6B3"/>
<path d="M115.095 82.6015C115.338 82.6191 115.582 82.6426 115.79 82.6426C116.034 82.6426 116.242 82.6191 116.486 82.6015V87.9001C116.242 87.8825 116.034 87.862 115.79 87.862C115.582 87.862 115.338 87.8825 115.095 87.9001V82.6015Z" fill="#AFB6B3"/>
<path d="M121.11 87.9001C120.867 87.8825 120.623 87.862 120.415 87.862C120.171 87.862 119.963 87.8825 119.719 87.9001V83.1507C119.093 83.1507 118.502 83.2036 118.016 83.2594C118.05 83.1507 118.085 83.0421 118.085 82.9275C118.085 82.8188 118.05 82.7102 118.016 82.6015H122.744C122.71 82.7102 122.675 82.8188 122.675 82.9275C122.675 83.0421 122.71 83.1507 122.744 83.2594C122.188 83.2036 121.666 83.1507 121.11 83.1507V87.9001Z" fill="#AFB6B3"/>
<path d="M127.647 82.6015C127.612 82.7102 127.612 82.8277 127.612 82.9334C127.612 83.0421 127.612 83.1596 127.647 83.2653C127.091 83.2036 126.465 83.1419 125.526 83.1596V84.8191H126.465C126.882 84.8191 127.264 84.7867 127.612 84.7486C127.577 84.8572 127.577 84.9718 127.577 85.0805C127.577 85.1891 127.577 85.3066 127.612 85.4124C127.264 85.3742 126.882 85.3448 126.465 85.3448H125.526V87.3039C126.465 87.298 127.091 87.2598 127.647 87.1982C127.612 87.3039 127.612 87.4214 127.612 87.5301C127.612 87.6358 127.612 87.7533 127.647 87.862H124.17V82.6015H127.647Z" fill="#AFB6B3"/>
<path d="M132.098 83.5972C131.924 83.1889 131.576 82.9275 131.054 82.9275C130.324 82.9275 130.046 83.2447 130.046 83.6824C130.046 84.7251 132.828 84.5341 132.828 86.3023C132.828 87.2892 131.819 88 130.394 88C129.907 88 129.351 87.9001 128.933 87.6681C129.038 87.3421 129.142 87.019 129.177 86.6871H129.351C129.49 87.2187 129.977 87.5359 130.637 87.5359C131.193 87.5359 131.68 87.2657 131.68 86.7341C131.68 85.4975 128.968 85.9469 128.968 84.0848C128.968 83.1977 129.698 82.4635 131.089 82.4635C131.75 82.4635 132.341 82.672 132.515 82.8335C132.41 83.0802 132.341 83.3358 132.237 83.5972H132.098Z" fill="#AFB6B3"/>
<path d="M12.174 82.6015C12.4174 82.6191 12.626 82.6426 12.8694 82.6426C13.078 82.6426 13.3214 82.6191 13.5648 82.6015V84.6957C14.0168 84.7104 14.5036 84.7339 14.9556 84.7339C15.4076 84.7339 15.8944 84.7104 16.3464 84.6957V82.6015C16.5898 82.6191 16.7984 82.6426 17.0418 82.6426C17.2505 82.6426 17.4939 82.6191 17.7372 82.6015V87.9001C17.4939 87.8825 17.2505 87.862 17.0418 87.862C16.7984 87.862 16.5898 87.8825 16.3464 87.9001V85.3125C15.8944 85.2978 15.4076 85.2743 14.9556 85.2743C14.5036 85.2743 14.0168 85.2978 13.5648 85.3125V87.9001C13.3214 87.8825 13.078 87.862 12.8694 87.862C12.626 87.862 12.4174 87.8825 12.174 87.9001V82.6015Z" fill="#AFB6B3"/>
<path d="M22.7442 88C20.7275 88 19.3367 86.9955 19.3367 85.242C19.3367 83.7059 20.6927 82.4635 22.9528 82.4635C25.5606 82.4635 26.3256 84.0143 26.3256 85.2126C26.3256 86.7194 24.9695 88 22.7442 88ZM20.8666 85.4682C20.8666 86.4697 21.4229 87.5359 22.779 87.5359C24.1698 87.5359 24.8304 86.3464 24.8304 85.0658C24.8304 84.0701 24.2741 82.9275 22.8833 82.9275C21.6315 82.9275 20.8666 83.7382 20.8666 85.4682Z" fill="#AFB6B3"/>
<path d="M29.7332 87.9001C29.5245 87.8825 29.2811 87.862 29.0725 87.862C28.8291 87.862 28.6205 87.8825 28.3771 87.9001V83.1507C27.7165 83.1507 27.1601 83.2036 26.6733 83.2594C26.7081 83.1507 26.7081 83.0421 26.7081 82.9275C26.7081 82.8188 26.7081 82.7102 26.6733 82.6015H31.3674C31.3674 82.7102 31.3326 82.8188 31.3326 82.9275C31.3326 83.0421 31.3674 83.1507 31.3674 83.2594C30.8458 83.2036 30.2895 83.1507 29.7332 83.1507V87.9001Z" fill="#AFB6B3"/>
<path d="M36.2351 82.6015C36.2351 82.7102 36.2003 82.8277 36.2003 82.9334C36.2003 83.0421 36.2351 83.1596 36.2351 83.2653C35.6788 83.2036 35.0529 83.1419 34.1141 83.1596V84.8191H35.0877C35.5049 84.8191 35.8526 84.7867 36.2003 84.7486C36.1656 84.8572 36.1656 84.9718 36.1656 85.0805C36.1656 85.1891 36.1656 85.3066 36.2003 85.4124C35.8526 85.3742 35.5049 85.3448 35.0877 85.3448H34.1141V87.3039C35.0529 87.298 35.6788 87.2598 36.2351 87.1982C36.2351 87.3039 36.2003 87.4214 36.2003 87.5301C36.2003 87.6358 36.2351 87.7533 36.2351 87.862H32.7581V82.6015H36.2351Z" fill="#AFB6B3"/>
<path d="M39.3644 87.3039C40.1641 87.3039 40.8248 87.251 41.4506 87.1982C41.4159 87.3039 41.3811 87.4214 41.3811 87.5301C41.3811 87.6358 41.4159 87.7533 41.4506 87.862H37.9736V82.6015C38.217 82.6191 38.4256 82.6426 38.669 82.6426C38.9124 82.6426 39.121 82.6191 39.3644 82.6015V87.3039Z" fill="#AFB6B3"/>
<path d="M133.036 70.6825C133.036 69.7367 133.94 69.0406 135.018 69.0406C136.096 69.0406 137 69.7367 137 70.6825C137 71.6341 136.096 72.3302 135.018 72.3302C133.94 72.3302 133.036 71.6341 133.036 70.6825ZM135.018 72.0571C135.922 72.0571 136.618 71.4755 136.618 70.6825C136.618 69.9041 135.922 69.3138 135.018 69.3138C134.149 69.3138 133.419 69.9041 133.419 70.6825C133.419 71.4755 134.149 72.0571 135.018 72.0571ZM134.601 71.6341H134.288V69.7367H135.122C135.644 69.7367 135.922 69.9041 135.922 70.2772C135.922 70.6179 135.679 70.7647 135.331 70.8L135.992 71.6341H135.609L135.018 70.8117H134.601V71.6341ZM135.018 70.5679C135.296 70.5679 135.574 70.5503 135.574 70.2596C135.574 70.0246 135.331 69.9805 135.088 69.9805H134.601V70.5679H135.018Z" fill="#AFB6B3"/>
</svg>
