<svg width="113" height="58" viewBox="0 0 113 58" fill="none" xmlns="http://www.w3.org/2000/svg">
<path d="M104.125 39.8495C102.715 39.0926 102.496 36.9541 102.527 31.7527L102.558 23.7815L99.8636 23.7783L100.49 22.3032H102.558V18.5286L107.509 16.6413V22.1776L109.797 22.1808L109.201 23.817L107.509 23.8137V37.6079C107.603 38.719 107.979 39.3728 108.481 39.8495H104.125Z" fill="#AFB6B3"/>
<path d="M30.802 52.4939C30.6453 52.0462 30.3319 51.7596 29.8619 51.7596C29.2039 51.7596 28.9532 52.1074 28.9532 52.5873C28.9532 53.7306 31.46 53.5213 31.46 55.4601C31.46 56.5423 30.5513 57.3217 29.2666 57.3217C28.8279 57.3217 28.3265 57.2122 27.9505 56.9577C28.0445 56.6002 28.1385 56.246 28.2012 55.882H28.3579C28.4519 56.465 28.9219 56.8128 29.4859 56.8128C29.9873 56.8128 30.4573 56.5165 30.4573 55.9336C30.4573 54.5776 27.9818 55.0704 27.9818 53.0285C27.9818 52.0559 28.6399 51.2507 29.8933 51.2507C30.4886 51.2507 31.0213 51.4794 31.178 51.6565C31.084 51.927 31.0213 52.2072 30.9273 52.4939H30.802Z" fill="#AFB6B3"/>
<path d="M55.3369 5.76504C55.7129 6.83109 56.5903 7.93257 55.9636 9.16931C55.6816 10.4254 54.5222 11.4431 53.3001 11.646C52.0154 11.7652 50.8247 11.5429 49.8533 10.7474C49.1953 7.12095 50.6367 3.76501 53.4255 1.76497L55.3369 5.76504Z" fill="#AFB6B3"/>
<path d="M60.2562 16.8153C59.6295 19.0086 53.3312 17.569 51.3571 13.9682C53.9579 14.2645 56.8721 11.9005 56.9347 9.20484L60.2562 16.8153Z" fill="#AFB6B3"/>
<path d="M62.8586 16.5319C63.1406 16.3998 63.7046 16.1035 63.8613 15.4691L57.093 0.3383C56.623 0.280328 56.3097 0.238454 55.7143 0.660363L62.8586 16.5319Z" fill="#AFB6B3"/>
<path d="M65.8968 13.2467C68.7796 8.75383 66.3668 1.3817 60.1312 0.347869L65.8968 13.2467Z" fill="#AFB6B3"/>
<path d="M0 47.2828H108.857V46.4261H0V47.2828Z" fill="#AFB6B3"/>
<path d="M35.2204 54.1944C35.2204 53.8659 34.9384 53.6018 34.625 53.6018C34.3117 53.6018 34.061 53.8659 34.061 54.1944C34.061 54.5229 34.3117 54.787 34.625 54.787C34.9384 54.787 35.2204 54.5229 35.2204 54.1944Z" fill="#AFB6B3"/>
<path d="M65.2703 22.9184C66.179 22.1325 67.7771 22.1164 68.8112 22.6189C69.2498 22.8443 69.6572 23.1438 69.9392 23.5368L67.9338 26.7317C67.6831 26.5255 67.4951 26.4321 67.1818 26.2647C66.179 25.8234 65.145 26.0811 64.5496 26.6383V35.9621C64.5183 37.5757 64.8003 39.0475 65.615 39.8108H61.0715C60.1001 39.0636 59.8808 37.8688 59.7868 36.822L59.7554 24.4224C59.7868 23.4176 59.5361 22.9764 59.1601 22.4127L63.8603 22.4321C64.2363 22.7123 64.2676 23.1986 64.4556 23.5722L65.2703 22.9184Z" fill="#AFB6B3"/>
<path d="M71.0043 25.9845C70.973 24.8057 71.2236 23.3951 70.4716 22.3773H74.8271C75.1405 22.6028 75.2971 22.9764 75.3912 23.3306C75.6418 23.6463 75.6105 24.0972 75.7045 24.4707L75.7672 37.682C75.9238 38.4678 76.2372 39.2601 76.8012 39.8785L72.1323 39.8881C70.597 38.368 71.0983 35.8687 70.973 33.289L71.0043 25.9845Z" fill="#AFB6B3"/>
<path d="M77.9296 26.1133C78.3996 24.7703 79.8723 24.0972 80.9377 23.3661C82.5671 22.7509 84.3845 21.2179 86.2019 22.4707C87.7373 23.4981 89.0847 24.6575 90.0561 26.2453C90.2754 26.8605 90.4008 27.5529 90.5574 28.2067C90.5574 29.086 90.7454 29.7398 90.7141 30.619C90.7768 31.5723 90.7768 32.4323 90.7141 33.3663C90.6514 34.9541 89.9307 36.3744 88.7087 37.4758C86.8913 39.1409 84.6039 41.0283 82.1284 39.7368C79.9037 38.6707 77.3029 36.5612 77.4595 33.6626C77.3655 31.6078 77.2715 29.8332 77.5535 27.8331C77.6476 27.2534 77.6162 26.6189 77.9296 26.1133ZM82.4731 35.4565C82.6924 36.281 83.0998 37.289 84.0712 37.4018C84.6352 37.4211 85.0425 36.9348 85.3872 36.5225C86.3899 34.4677 86.2332 32.2261 86.2332 29.8879C85.9199 28.152 86.3273 25.7783 84.5098 24.7123C83.8518 24.4707 83.3818 24.9184 82.9744 25.3307C82.2537 26.4321 82.1911 27.6946 82.1284 29.0956C81.9091 31.3372 82.1597 33.1956 82.4731 35.4565Z" fill="#AFB6B3"/>
<path d="M93.9414 39.8495C92.5314 39.0926 92.312 36.9541 92.3434 31.7527L92.3747 23.7815L89.7112 23.7783L90.3066 22.3032H92.3747V18.5286L97.3569 16.6413V22.1776L99.613 22.1808L99.0176 23.817L97.3569 23.8137V37.6079C97.4509 38.719 97.8269 39.3728 98.3283 39.8495H93.9414Z" fill="#AFB6B3"/>
<path d="M48.5687 24.4224C48.5373 23.4176 48.3493 22.9763 47.9733 22.4127L52.6735 22.4321C53.0495 22.7123 53.0809 23.1986 53.2689 23.5722L54.0836 22.9184C54.9923 22.1325 56.5904 22.1164 57.6244 22.6189C58.0631 22.8443 58.4704 23.1438 58.7524 23.5368L56.747 26.7317C56.4963 26.5255 56.3084 26.4321 55.995 26.2647C54.9923 25.8234 53.9582 26.0811 53.3629 26.6383V35.9621C53.3315 37.5757 53.6136 39.0475 54.4283 39.8108H49.8847C48.9447 39.0636 48.6627 37.9525 48.6 36.822L48.5687 24.4224Z" fill="#AFB6B3"/>
<path d="M12.9413 29.3275L11.2492 32.9476C10.0585 35.0829 8.42909 37.7013 5.92232 38.3519C4.95095 38.6997 4.07358 38.3841 3.13354 38.3164L0.0940714 43.4212C0.344748 43.6724 0.658104 43.8818 0.971445 44.0042C6.29834 46.0976 8.46043 43.8464 13.6933 31.6368L18.6755 42.513H25.2871L22.1537 35.1731L23.9398 31.3791L28.828 42.3455L35.1576 42.3874L24.0651 17.3692L18.9576 19.9747L22.9684 29.3114L21.2136 32.9798L13.8813 16.7218L8.5231 19.5367L12.9413 29.3275Z" fill="#AFB6B3"/>
<path d="M33.2775 33.7399C33.4029 31.9266 34.3743 30.2261 36.0037 29.3114C37.6331 28.2808 39.5131 27.8718 41.2052 26.9732C41.4872 26.7317 41.8319 26.4321 41.8632 26.0392C41.8946 25.5529 41.6439 25.1793 41.2365 25.0118C38.6671 24.4514 36.5677 26.094 34.7189 27.7204C34.9383 26.5255 35.1263 25.2179 35.6903 24.0972C35.941 23.7976 36.129 23.3854 36.4737 23.1632C38.2911 22.2453 40.5472 21.9844 42.5526 22.1325C44.2133 22.2453 45.7487 23.4595 46.3128 25.0118C46.5948 25.7397 46.5634 26.5642 46.6261 27.3114L46.6574 37.4404C46.6574 38.3164 47.0648 39.1409 47.5661 39.8495H42.8659C42.3019 39.3277 42.0199 38.6707 41.8632 37.8494C40.5472 39.0475 37.7897 40.8221 36.1603 39.6434C34.4683 38.8607 32.9015 36.223 33.2775 33.7399ZM41.6126 30.2164C41.5812 29.5143 41.1112 29.4403 40.7665 29.4403C39.6385 29.6077 38.6671 30.5772 38.1031 31.5723C37.6331 32.458 37.5077 33.2052 37.4764 33.9814C37.4764 34.8188 37.4137 35.4404 37.7584 36.0749C37.9464 36.4871 38.3224 36.6739 38.7298 36.7834C39.4505 36.9348 40.1085 36.7286 40.6725 36.3357C42.0199 35.5692 41.7692 34.0362 41.8006 32.6738L41.6126 30.2164Z" fill="#AFB6B3"/>
<path d="M78.0859 54.1944C78.0859 53.8659 77.8039 53.6018 77.4906 53.6018C77.1772 53.6018 76.9265 53.8659 76.9265 54.1944C76.9265 54.5229 77.1772 54.787 77.4906 54.787C77.8039 54.787 78.0859 54.5229 78.0859 54.1944Z" fill="#AFB6B3"/>
<path d="M38.6357 51.4021H40.3905C40.7665 51.4021 41.3932 51.386 41.7379 51.5728C42.2079 51.8272 42.4272 52.2072 42.4272 52.7837C42.4272 53.6147 41.9259 54.1396 41.1425 54.3071C41.6125 55.1187 42.1139 55.8981 42.6152 56.6872L42.9286 57.2122C42.6779 57.1929 42.4272 57.1703 42.1766 57.1703C41.9259 57.1703 41.7065 57.1929 41.4559 57.2122L40.4531 55.4343C40.3278 55.2057 40.1085 54.816 39.9205 54.4939H39.8578V57.2122C39.6698 57.1929 39.4504 57.1703 39.2624 57.1703C39.0431 57.1703 38.8551 57.1929 38.6357 57.2122V51.4021ZM39.8578 54.13C40.7352 54.2137 41.1738 53.7918 41.1738 52.919C41.1738 52.7998 41.1425 52.6742 41.1112 52.4939C40.9858 51.7918 40.3591 51.8594 39.8578 51.8594V54.13Z" fill="#AFB6B3"/>
<path d="M47.3154 51.4021C47.284 51.5212 47.2527 51.6501 47.2527 51.766C47.2527 51.8852 47.284 52.014 47.3154 52.1299C46.7827 52.0623 46.25 51.9947 45.4039 52.014V53.8337H46.25C46.626 53.8337 46.9707 53.7983 47.284 53.7564C47.2527 53.8755 47.2213 54.0012 47.2213 54.1203C47.2213 54.2395 47.2527 54.3683 47.284 54.4843C46.9707 54.4424 46.626 54.4102 46.25 54.4102H45.4039V56.5584C46.25 56.5519 46.7827 56.5101 47.3154 56.4424C47.284 56.5584 47.2527 56.6872 47.2527 56.8064C47.2527 56.9223 47.284 57.0511 47.3154 57.1703H44.1506V51.4021H47.3154Z" fill="#AFB6B3"/>
<path d="M51.3262 52.4939C51.1382 52.0462 50.8248 51.7596 50.3548 51.7596C49.7281 51.7596 49.4461 52.1074 49.4461 52.5873C49.4461 53.7306 51.9529 53.5213 51.9529 55.4601C51.9529 56.5423 51.0755 57.3217 49.7908 57.3217C49.3208 57.3217 48.8507 57.2122 48.4747 56.9577C48.5687 56.6002 48.6627 56.246 48.6941 55.882H48.8507C48.9761 56.465 49.4148 56.8128 49.9788 56.8128C50.5115 56.8128 50.9502 56.5165 50.9502 55.9336C50.9502 54.5776 48.5061 55.0704 48.5061 53.0285C48.5061 52.0559 49.1328 51.2507 50.4175 51.2507C50.9815 51.2507 51.5142 51.4794 51.7022 51.6565C51.6082 51.927 51.5142 52.2072 51.4515 52.4939H51.3262Z" fill="#AFB6B3"/>
<path d="M56.0265 57.3217C54.2091 57.3217 52.9871 56.2202 52.9871 54.2974C52.9871 52.613 54.1778 51.2507 56.2459 51.2507C58.596 51.2507 59.2853 52.9512 59.2853 54.2653C59.2853 55.9175 58.0633 57.3217 56.0265 57.3217ZM54.3658 54.5455C54.3658 55.6437 54.8358 56.8128 56.0892 56.8128C57.3426 56.8128 57.9066 55.5084 57.9066 54.1042C57.9066 53.0124 57.4053 51.7596 56.1832 51.7596C55.0551 51.7596 54.3658 52.6485 54.3658 54.5455Z" fill="#AFB6B3"/>
<path d="M60.664 51.4021H62.4187C62.7947 51.4021 63.3901 51.386 63.7348 51.5728C64.2048 51.8272 64.4555 52.2072 64.4555 52.7837C64.4555 53.6147 63.9228 54.1396 63.1707 54.3071C63.6408 55.1187 64.1421 55.8981 64.6435 56.6872L64.9568 57.2122C64.7061 57.1929 64.4555 57.1703 64.2048 57.1703C63.9541 57.1703 63.7034 57.1929 63.4528 57.2122L62.4814 55.4343C62.356 55.2057 62.1367 54.816 61.9487 54.4939H61.886V57.2122C61.6667 57.1929 61.4787 57.1703 61.2593 57.1703C61.0713 57.1703 60.852 57.1929 60.664 57.2122V51.4021ZM61.886 54.13C62.7634 54.2137 63.1707 53.7918 63.1707 52.919C63.1707 52.7998 63.1707 52.6742 63.1394 52.4939C63.0141 51.7918 62.3874 51.8594 61.886 51.8594V54.13Z" fill="#AFB6B3"/>
<path d="M68.4662 57.2122C68.2782 57.1928 68.0589 57.1703 67.8395 57.1703C67.6515 57.1703 67.4322 57.1928 67.2441 57.2122V52.0043C66.6488 52.0043 66.1474 52.0623 65.7087 52.1235C65.7087 52.0043 65.7401 51.8852 65.7401 51.7596C65.7401 51.6404 65.7087 51.5212 65.7087 51.4021H69.9389C69.9389 51.5212 69.9076 51.6404 69.9076 51.7596C69.9076 51.8852 69.9389 52.0043 69.9389 52.1235C69.4689 52.0623 68.9676 52.0043 68.4662 52.0043V57.2122Z" fill="#AFB6B3"/>
<path d="M73.7931 52.4939C73.6365 52.0462 73.3231 51.7596 72.8531 51.7596C72.1951 51.7596 71.9444 52.1074 71.9444 52.5873C71.9444 53.7306 74.4511 53.5213 74.4511 55.4601C74.4511 56.5423 73.5424 57.3217 72.2577 57.3217C71.819 57.3217 71.3177 57.2122 70.9417 56.9577C71.0357 56.6002 71.1297 56.246 71.1923 55.882H71.349C71.443 56.465 71.913 56.8128 72.4771 56.8128C72.9784 56.8128 73.4171 56.5165 73.4171 55.9336C73.4171 54.5776 70.973 55.0704 70.973 53.0285C70.973 52.0559 71.631 51.2507 72.8844 51.2507C73.4798 51.2507 74.0125 51.4794 74.1691 51.6565C74.0751 51.927 74.0125 52.2072 73.9184 52.4939H73.7931Z" fill="#AFB6B3"/>
<path d="M83.9143 52.4939C83.7263 52.0462 83.413 51.7596 82.943 51.7596C82.3163 51.7596 82.0343 52.1074 82.0343 52.5873C82.0343 53.7306 84.541 53.5213 84.541 55.4601C84.541 56.5423 83.6637 57.3217 82.3789 57.3217C81.9089 57.3217 81.4389 57.2122 81.0629 56.9577C81.1569 56.6002 81.2196 56.246 81.2822 55.882H81.4389C81.5642 56.465 82.0029 56.8128 82.567 56.8128C83.0997 56.8128 83.5383 56.5165 83.5383 55.9336C83.5383 54.5776 81.0942 55.0704 81.0942 53.0285C81.0942 52.0559 81.7522 51.2507 82.9743 51.2507C83.5697 51.2507 84.1023 51.4794 84.2904 51.6565C84.1964 51.927 84.1024 52.2072 84.0397 52.4939H83.9143Z" fill="#AFB6B3"/>
<path d="M86.0139 51.4021C86.2332 51.4214 86.4212 51.4472 86.6406 51.4472C86.8599 51.4472 87.0479 51.4214 87.2673 51.4021V53.8079C87.2673 54.2749 87.2359 54.9674 87.3299 55.4086C87.3926 55.8241 87.4553 56.0849 87.7373 56.3812C88.0193 56.6357 88.3327 56.7452 88.7087 56.7452C89.4607 56.7452 89.8681 56.4585 90.1501 55.721C90.3067 55.3474 90.3067 54.3844 90.3067 53.9689V51.4021C90.4007 51.4214 90.5261 51.4278 90.6201 51.4278C90.7454 51.4278 90.8708 51.4214 90.9648 51.4021V54.4166C90.9334 55.3828 90.9648 56.2621 90.0874 56.874C89.6487 57.2025 89.0847 57.3217 88.5207 57.3217C87.5493 57.3217 86.4526 56.9996 86.1706 55.8981C86.0766 55.5696 86.0139 55.196 86.0139 54.8578V51.4021Z" fill="#AFB6B3"/>
<path d="M92.9075 51.4021C93.1269 51.4214 93.3462 51.4472 93.5342 51.4472C93.7535 51.4472 93.9415 51.4214 94.1609 51.4021V57.2122C93.9415 57.1928 93.7535 57.1703 93.5342 57.1703C93.3462 57.1703 93.1269 57.1928 92.9075 57.2122V51.4021Z" fill="#AFB6B3"/>
<path d="M98.3284 57.2122C98.1091 57.1928 97.8897 57.1703 97.7017 57.1703C97.4824 57.1703 97.2944 57.1928 97.075 57.2122V52.0043C96.511 52.0043 95.9783 52.0623 95.5396 52.1235C95.571 52.0043 95.6023 51.8852 95.6023 51.7596C95.6023 51.6404 95.571 51.5212 95.5396 51.4021H99.8011C99.7698 51.5212 99.7385 51.6404 99.7385 51.7596C99.7385 51.8852 99.7698 52.0043 99.8011 52.1235C99.2998 52.0623 98.8298 52.0043 98.3284 52.0043V57.2122Z" fill="#AFB6B3"/>
<path d="M104.219 51.4021C104.188 51.5212 104.188 51.6501 104.188 51.766C104.188 51.8852 104.188 52.014 104.219 52.1299C103.718 52.0623 103.154 51.9947 102.308 52.014V53.8337H103.154C103.53 53.8337 103.875 53.7983 104.188 53.7564C104.157 53.8755 104.157 54.0012 104.157 54.1203C104.157 54.2395 104.157 54.3683 104.188 54.4843C103.875 54.4424 103.53 54.4102 103.154 54.4102H102.308V56.5584C103.154 56.5519 103.718 56.5101 104.219 56.4424C104.188 56.5584 104.188 56.6872 104.188 56.8064C104.188 56.9223 104.188 57.0511 104.219 57.1703H101.086V51.4021H104.219Z" fill="#AFB6B3"/>
<path d="M108.23 52.4939C108.073 52.0462 107.76 51.7596 107.29 51.7596C106.632 51.7596 106.381 52.1074 106.381 52.5873C106.381 53.7306 108.888 53.5213 108.888 55.4601C108.888 56.5423 107.979 57.3217 106.695 57.3217C106.256 57.3217 105.755 57.2122 105.379 56.9577C105.473 56.6002 105.567 56.246 105.598 55.882H105.755C105.88 56.465 106.319 56.8128 106.914 56.8128C107.415 56.8128 107.854 56.5165 107.854 55.9336C107.854 54.5776 105.41 55.0704 105.41 53.0285C105.41 52.0559 106.068 51.2507 107.321 51.2507C107.917 51.2507 108.449 51.4794 108.606 51.6565C108.512 51.927 108.449 52.2072 108.355 52.4939H108.23Z" fill="#AFB6B3"/>
<path d="M0.156786 51.4021C0.376122 51.4214 0.564133 51.4472 0.783469 51.4472C0.971479 51.4472 1.19083 51.4214 1.41017 51.4021V53.6984C1.81751 53.7145 2.2562 53.7403 2.66355 53.7403C3.07091 53.7403 3.5096 53.7145 3.91694 53.6984V51.4021C4.13628 51.4214 4.32429 51.4472 4.54363 51.4472C4.73164 51.4472 4.95099 51.4214 5.17032 51.4021V57.2122C4.95099 57.1928 4.73164 57.1703 4.54363 57.1703C4.32429 57.1703 4.13628 57.1928 3.91694 57.2122V54.3747C3.5096 54.3586 3.07091 54.3329 2.66355 54.3329C2.2562 54.3329 1.81751 54.3586 1.41017 54.3747V57.2122C1.19083 57.1928 0.971479 57.1703 0.783469 57.1703C0.564133 57.1703 0.376122 57.1928 0.156786 57.2122V51.4021Z" fill="#AFB6B3"/>
<path d="M9.68251 57.3217C7.8651 57.3217 6.6117 56.2202 6.6117 54.2974C6.6117 52.613 7.83376 51.2507 9.87051 51.2507C12.2206 51.2507 12.91 52.9512 12.91 54.2653C12.91 55.9175 11.6879 57.3217 9.68251 57.3217ZM7.99043 54.5455C7.99043 55.6437 8.49178 56.8128 9.71384 56.8128C10.9672 56.8128 11.5626 55.5084 11.5626 54.1042C11.5626 53.0124 11.0612 51.7596 9.80784 51.7596C8.67979 51.7596 7.99043 52.6485 7.99043 54.5455Z" fill="#AFB6B3"/>
<path d="M15.9809 57.2122C15.7928 57.1928 15.5735 57.1703 15.3855 57.1703C15.1662 57.1703 14.9782 57.1928 14.7588 57.2122V52.0043C14.1634 52.0043 13.6621 52.0623 13.2234 52.1235C13.2547 52.0043 13.2547 51.8852 13.2547 51.7596C13.2547 51.6404 13.2547 51.5212 13.2234 51.4021H17.4536C17.4536 51.5212 17.4222 51.6404 17.4222 51.7596C17.4222 51.8852 17.4536 52.0043 17.4536 52.1235C16.9836 52.0623 16.4822 52.0043 15.9809 52.0043V57.2122Z" fill="#AFB6B3"/>
<path d="M21.8403 51.4021C21.8403 51.5212 21.809 51.6501 21.809 51.766C21.809 51.8852 21.8403 52.014 21.8403 52.1299C21.339 52.0623 20.7749 51.9947 19.9289 52.014V53.8337H20.8063C21.1823 53.8337 21.4956 53.7983 21.809 53.7564C21.7777 53.8755 21.7777 54.0012 21.7777 54.1203C21.7777 54.2395 21.7777 54.3683 21.809 54.4843C21.4956 54.4424 21.1823 54.4102 20.8063 54.4102H19.9289V56.5584C20.7749 56.5519 21.339 56.5101 21.8403 56.4424C21.8403 56.5584 21.809 56.6872 21.809 56.8064C21.809 56.9223 21.8403 57.0511 21.8403 57.1703H18.7069V51.4021H21.8403Z" fill="#AFB6B3"/>
<path d="M24.6604 56.5584C25.3811 56.5584 25.9765 56.5004 26.5405 56.4424C26.5092 56.5584 26.4778 56.6872 26.4778 56.8064C26.4778 56.9223 26.5092 57.0511 26.5405 57.1703H23.407V51.4021C23.6264 51.4214 23.8144 51.4472 24.0337 51.4472C24.2531 51.4472 24.4411 51.4214 24.6604 51.4021V56.5584Z" fill="#AFB6B3"/>
<path d="M109.076 38.3325C109.076 37.2955 109.891 36.5322 110.862 36.5322C111.833 36.5322 112.648 37.2955 112.648 38.3325C112.648 39.376 111.833 40.1394 110.862 40.1394C109.891 40.1394 109.076 39.376 109.076 38.3325ZM110.862 39.8398C111.677 39.8398 112.303 39.2021 112.303 38.3325C112.303 37.4791 111.677 36.8317 110.862 36.8317C110.079 36.8317 109.421 37.4791 109.421 38.3325C109.421 39.2021 110.079 39.8398 110.862 39.8398ZM110.486 39.376H110.204V37.2955H110.956C111.426 37.2955 111.677 37.4791 111.677 37.8881C111.677 38.2617 111.457 38.4227 111.144 38.4614L111.739 39.376H111.395L110.862 38.4743H110.486V39.376ZM110.862 38.207C111.113 38.207 111.363 38.1876 111.363 37.8688C111.363 37.6111 111.144 37.5628 110.925 37.5628H110.486V38.207H110.862Z" fill="#AFB6B3"/>
</svg>
