<svg width="150" height="125" viewBox="0 0 150 125" fill="none" xmlns="http://www.w3.org/2000/svg">
<path d="M37.6974 72.1023V84.5513C37.6974 85.6961 38.2625 86.1587 39.2156 86.1587H46.7963C47.7482 86.1587 48.3145 85.6961 48.3145 84.5513V72.1023H52.7626V85.3685C52.7626 88.1841 50.6897 90.3173 48.3133 90.3173H37.6962C35.3303 90.3173 33.2458 88.1719 33.2458 85.3685V72.1023H37.6974Z" fill="#AFB6B3"/>
<path d="M12.1482 84.6983H16.5767C16.6496 85.7352 17.1731 86.16 18.0532 86.16H26.1897C26.9436 86.16 27.3617 85.4062 27.3617 84.5877C27.3617 83.4914 26.6715 82.917 25.7809 82.917H16.9113C13.9895 82.917 12 81.2583 12 77.6741C12 75.8092 12.6288 73.8337 14.0532 72.8331C14.9426 72.198 16.0312 72.1009 17.0584 72.1009H27.5076C29.7704 72.1009 31.5909 73.9658 31.5701 76.6479V77.6107H26.9957C26.954 76.7814 26.5348 76.2461 25.7821 76.2461H18.0648C17.2796 76.2461 16.6195 76.7086 16.6195 77.7213C16.6195 78.7219 17.29 79.0994 18.0543 79.0994H27.5099C30.5672 79.0994 32.1491 81.4781 32.1491 84.941C32.1491 88.2569 30.8289 90.316 27.8759 90.316H16.5778C14.0011 90.316 12.1795 89.1105 12.1587 85.9159L12.1482 84.6983Z" fill="#AFB6B3"/>
<path d="M117.474 72.1023H121.935V84.5513C121.935 85.6961 122.501 86.1587 123.453 86.1587H131.033C131.984 86.1587 132.551 85.6961 132.551 84.5513V72.1023H137V85.3685C137 88.1706 134.917 90.3173 132.551 90.3173H121.932C119.556 90.3173 117.472 88.1841 117.472 85.3685L117.474 72.1023Z" fill="#AFB6B3"/>
<path d="M79.9354 86.721L78.1867 90.316H73.2452L81.7373 72.1023H87.5485L96.0417 90.316H91.0979L89.3492 86.721H79.9354ZM84.6371 76.7113L81.8311 82.7835H87.4547L84.6371 76.7113Z" fill="#AFB6B3"/>
<path d="M54.4615 72.1023H68.1787C71.1202 72.1023 73.2985 73.297 73.2985 77.1374C73.2985 78.796 72.7345 80.247 71.478 81.0642C72.8584 81.9177 73.6448 83.5008 73.6448 85.3294C73.6448 87.9022 72.2296 90.316 69.8544 90.316H54.4615V72.1023ZM59.0161 86.1587H67.4769C68.3026 86.1587 69.0681 85.6355 69.0681 84.5864C69.0681 83.5494 68.2934 83.014 67.4769 83.014H59.0161V86.1587ZM59.0161 79.2478H67.4769C68.2401 79.2478 68.723 78.6261 68.723 77.7604C68.723 76.8947 68.2517 76.2501 67.4769 76.2501H59.0161V79.2478Z" fill="#AFB6B3"/>
<path d="M96.8882 72.1023H111.798C114.773 72.1023 116.208 74.9313 116.208 78.0894C116.208 80.1364 115.57 82.0512 113.957 83.0289C115.528 83.9175 116.25 85.3199 116.25 87.3696V90.3187H111.798V87.3709C111.798 85.6395 110.973 85.0179 109.537 85.0179H101.476V90.3187H96.8894L96.8882 72.1023ZM101.475 80.8686H109.82C110.897 80.8686 111.621 79.7467 111.621 78.5641C111.621 77.0525 110.658 76.2474 109.411 76.2474H101.475V80.8686Z" fill="#AFB6B3"/>
<path d="M73.6758 34C78.608 34 83.8957 35.1705 88.1041 38.28C90.8371 40.3162 93.3814 43.4015 93.3814 47.4226C93.3814 52.118 89.9373 55.5323 86.638 57.5307C82.7122 59.8973 78.073 60.8345 73.6746 60.8345C68.7436 60.8345 63.4663 59.6775 59.2568 56.5558C56.5238 54.5196 53.9691 51.4343 53.9691 47.4226C53.9691 42.7057 57.4039 39.3035 60.7125 37.3037C64.6499 34.9385 69.2786 34 73.6758 34ZM73.6341 35.4267C69.0482 35.4267 64.1056 36.4259 60.1265 39.2172C57.6239 40.9608 55.1526 43.7049 55.1526 47.3498C55.1526 51.6312 58.5029 54.6275 61.4976 56.3481C65.2046 58.4558 69.5392 59.2756 73.6341 59.2756C78.2293 59.2756 83.1731 58.2737 87.1522 55.4824C89.6443 53.7267 92.126 50.9961 92.126 47.3512C92.126 43.0603 88.785 40.06 85.781 38.3542C82.0729 36.2425 77.7383 35.4267 73.6341 35.4267ZM56.3257 44.3872L63.8751 42.8877L66.1472 37.1446L68.4101 42.8877L75.9583 44.3872L68.4101 45.9002L66.1472 51.6555L63.8751 45.9002L56.3257 44.3872ZM72.9219 48.763L76.2513 48.082L77.2461 45.4849L78.2409 48.082L81.5715 48.763L78.2409 49.4332L77.2461 52.0317L76.2513 49.4332L72.9219 48.763ZM79.8124 41.8386L83.1418 41.1684L84.1366 38.5605L85.1313 41.1684L88.4608 41.8386L85.1313 42.521L84.1366 45.1195L83.1406 42.521L79.8124 41.8386ZM76.2513 54.1299L79.5703 53.4597L80.5651 50.8504L81.5703 53.4597L84.8997 54.1299L81.5703 54.8122L80.5651 57.4107L79.5703 54.8122L76.2513 54.1299ZM66.0222 55.0684L69.3516 54.3982L70.3568 51.7863L71.3504 54.3982L74.681 55.0684L71.3504 55.7508L70.3568 58.3492L69.3516 55.7508L66.0222 55.0684ZM82.7654 48.6565L86.0844 47.9728L87.0792 45.3757L88.0844 47.9728L91.4138 48.6565L88.0844 49.3267L87.078 51.9211L86.0833 49.3253L82.7654 48.6565Z" fill="#AFB6B3"/>
</svg>
