<svg width="102" height="47" viewBox="0 0 102 47" fill="none" xmlns="http://www.w3.org/2000/svg">
<path d="M21.0377 31.914V42.0586C21.0377 42.9916 21.4936 43.3685 22.2624 43.3685H28.377C29.1449 43.3685 29.6017 42.9916 29.6017 42.0586V31.914H33.1896V42.7245C33.1896 45.0189 31.5175 46.7573 29.6007 46.7573H21.0368C19.1284 46.7573 17.447 45.0091 17.447 42.7245V31.914H21.0377Z" fill="#AFB6B3"/>
<path d="M0.429377 42.1784H4.00142C4.06026 43.0234 4.48249 43.3696 5.19241 43.3696H11.7555C12.3636 43.3696 12.7008 42.7553 12.7008 42.0883C12.7008 41.1949 12.1441 40.7268 11.4257 40.7268H4.27138C1.91462 40.7268 0.309814 39.3752 0.309814 36.4545C0.309814 34.9348 0.817034 33.3249 1.96599 32.5096C2.68339 31.992 3.56145 31.9129 4.39001 31.9129H12.8185C14.6437 31.9129 16.1122 33.4326 16.0954 35.6182V36.4028H12.4056C12.372 35.727 12.0338 35.2908 11.4267 35.2908H5.20175C4.56842 35.2908 4.03598 35.6677 4.03598 36.4929C4.03598 37.3083 4.57683 37.616 5.19334 37.616H12.8204C15.2864 37.616 16.5624 39.5543 16.5624 42.3762C16.5624 45.0783 15.4975 46.7562 13.1155 46.7562H4.00235C1.92395 46.7562 0.4546 45.7739 0.437786 43.1707L0.429377 42.1784Z" fill="#AFB6B3"/>
<path d="M85.3868 31.914H88.985V42.0586C88.985 42.9916 89.4418 43.3685 90.2096 43.3685H96.3234C97.0912 43.3685 97.548 42.9916 97.548 42.0586V31.914H101.137V42.7245C101.137 45.008 99.4564 46.7573 97.548 46.7573H88.9831C87.0663 46.7573 85.3849 45.0189 85.3849 42.7245L85.3868 31.914Z" fill="#AFB6B3"/>
<path d="M55.1076 43.8267L53.6971 46.7562H49.7112L56.5611 31.914H61.2484L68.0992 46.7562H64.1115L62.701 43.8267H55.1076ZM58.9001 35.6699L56.6367 40.618H61.1728L58.9001 35.6699Z" fill="#AFB6B3"/>
<path d="M34.5599 31.914H45.6245C47.9971 31.914 49.7542 32.8876 49.7542 36.0171C49.7542 37.3687 49.2993 38.5511 48.2858 39.217C49.3992 39.9126 50.0335 41.2026 50.0335 42.6927C50.0335 44.7893 48.892 46.7562 46.9761 46.7562H34.5599V31.914ZM38.2338 43.3685H45.0584C45.7244 43.3685 46.3419 42.9421 46.3419 42.0872C46.3419 41.2422 45.7169 40.8059 45.0584 40.8059H38.2338V43.3685ZM38.2338 37.7368H45.0584C45.674 37.7368 46.0635 37.2303 46.0635 36.5248C46.0635 35.8193 45.6833 35.2941 45.0584 35.2941H38.2338V37.7368Z" fill="#AFB6B3"/>
<path d="M68.782 31.914H80.8087C83.2084 31.914 84.3658 34.2194 84.3658 36.7929C84.3658 38.461 83.8511 40.0214 82.5499 40.818C83.8175 41.5422 84.3994 42.685 84.3994 44.3552V46.7584H80.8087V44.3563C80.8087 42.9454 80.1427 42.4388 78.9844 42.4388H72.483V46.7584H68.783L68.782 31.914ZM72.482 39.0577H79.2132C80.082 39.0577 80.6658 38.1434 80.6658 37.1797C80.6658 35.9479 79.8886 35.2919 78.8835 35.2919H72.482V39.0577Z" fill="#AFB6B3"/>
<path d="M50.0585 0.864746C54.0369 0.864746 58.302 1.81855 61.6966 4.35251C63.9011 6.01178 65.9533 8.52596 65.9533 11.8028C65.9533 15.629 63.1753 18.4113 60.514 20.0398C57.3474 21.9683 53.6053 22.732 50.0576 22.732C46.0801 22.732 41.8234 21.7891 38.4279 19.2453C36.2234 17.586 34.1627 15.0718 34.1627 11.8028C34.1627 7.95895 36.9333 5.18654 39.6021 3.55694C42.7781 1.62955 46.5117 0.864746 50.0585 0.864746ZM50.0249 2.02733C46.3258 2.02733 42.339 2.84159 39.1294 5.11622C37.1108 6.53704 35.1174 8.77321 35.1174 11.7434C35.1174 15.2323 37.8198 17.6739 40.2354 19.0761C43.2255 20.7936 46.7219 21.4617 50.0249 21.4617C53.7314 21.4617 57.7192 20.6452 60.9288 18.3706C62.939 16.9399 64.9408 14.7147 64.9408 11.7445C64.9408 8.24795 62.2459 5.803 59.8228 4.41295C56.8318 2.69214 53.3354 2.02733 50.0249 2.02733ZM36.0637 9.32923L42.1531 8.1073L43.9859 3.42728L45.8111 8.1073L51.8996 9.32923L45.8111 10.5621L43.9859 15.2521L42.1531 10.5621L36.0637 9.32923ZM49.4504 12.895L52.136 12.3401L52.9384 10.2237L53.7408 12.3401L56.4273 12.895L53.7408 13.4411L52.9384 15.5586L52.136 13.4411L49.4504 12.895ZM55.0084 7.25239L57.6939 6.70626L58.4963 4.58107L59.2987 6.70626L61.9843 7.25239L59.2987 7.80841L58.4963 9.92591L57.693 7.80841L55.0084 7.25239ZM52.136 17.2685L54.8131 16.7223L55.6155 14.596L56.4263 16.7223L59.1119 17.2685L56.4263 17.8245L55.6155 19.942L54.8131 17.8245L52.136 17.2685ZM43.885 18.0333L46.5705 17.4871L47.3814 15.3586L48.1828 17.4871L50.8693 18.0333L48.1828 18.5893L47.3814 20.7068L46.5705 18.5893L43.885 18.0333ZM57.3904 12.8082L60.0675 12.2511L60.8699 10.1347L61.6807 12.2511L64.3663 12.8082L61.6807 13.3543L60.869 15.4685L60.0666 13.3532L57.3904 12.8082Z" fill="#AFB6B3"/>
</svg>
