<svg width="70" height="55" viewBox="0 0 70 55" fill="none" xmlns="http://www.w3.org/2000/svg">
<path d="M50.4611 25.6833C50.4611 25.6833 47.6013 26.6548 42.0695 30.6509C37.1103 34.2395 35.1656 36.6505 35.1656 36.6505L19.866 24.2207C19.866 24.2207 26.3026 18.6565 31.6807 22.9182L38.8951 28.7359L39.7751 28.0555L19.8691 11.6612C19.8691 11.6612 22.7299 10.6886 28.2586 6.6949C33.2209 3.10508 35.1656 0.692871 35.1656 0.692871L50.4642 13.1226C50.4642 13.1226 44.0287 18.6868 38.6496 14.4251L31.4351 8.60623L30.5551 9.28539L50.4611 25.6833Z" fill="#514F4F"/>
<path d="M38.612 42.6396H26.9676V45.6837H32.5922L26.7695 52.0738V54.6243H38.5904V51.5681H32.7088L38.612 45.1937V42.6396Z" fill="#AFB6B3"/>
<path d="M20.1116 54.9309C24.7685 54.9309 25.9611 53.5325 25.9611 50.4497V42.6394H22.2719V49.9827C22.2719 51.2161 21.3743 51.9511 20.1116 51.9511C18.7982 51.9511 17.9533 51.2125 17.9533 49.9633V42.6394H14.2641V50.4497C14.2641 53.5325 15.4567 54.9309 20.1116 54.9309Z" fill="#AFB6B3"/>
<path d="M45.3722 54.9309C50.0292 54.9309 51.2218 53.5325 51.2218 50.4497V42.6394H47.5315V49.9827C47.5315 51.2161 46.6329 51.9511 45.3722 51.9511C44.0589 51.9511 43.2109 51.2125 43.2109 49.9633V42.6394H39.5227V50.4497C39.5227 53.5325 40.7153 54.9309 45.3722 54.9309Z" fill="#AFB6B3"/>
<path d="M69.6389 42.6396H65.7918V54.6243H69.6389V42.6396Z" fill="#AFB6B3"/>
<path d="M65.2057 42.6396H60.1443L56.0486 46.7752V42.6396H52.2005V54.6243H56.0486V50.3735L59.8524 54.6243H65.021L59.3953 48.4755L65.2057 42.6396Z" fill="#AFB6B3"/>
<path d="M5.17054 45.9511C5.17054 45.0245 6.33839 44.9942 6.73249 44.9942C7.12761 44.9942 8.01794 45.1798 8.62353 46.3477H12.9741C12.9741 44.0895 11.1532 42.2934 6.7459 42.2934C1.85064 42.2934 1.01705 44.8184 1.01705 46.2688C1.01705 48.943 2.77914 49.7265 6.61075 50.2067C6.93882 50.2467 8.932 50.1364 8.932 51.2631C8.932 52.0974 7.81161 52.1532 7.39894 52.1532C6.98937 52.1532 6.22284 52.0744 5.5894 50.7488H0.79834C0.79834 53.3806 2.30767 54.9014 7.39172 54.9014C12.0745 54.9014 13.3176 52.6541 13.3176 50.9453C13.3176 49.2862 12.3489 47.598 8.35633 46.9977C6.69122 46.7443 5.17054 46.6375 5.17054 45.9511Z" fill="#AFB6B3"/>
</svg>
