<svg width="150" height="125" viewBox="0 0 150 125" fill="none" xmlns="http://www.w3.org/2000/svg">
<path d="M90.6628 59.9905C90.6628 59.9905 87.803 60.9619 82.2712 64.958C77.312 68.5466 75.3673 70.9576 75.3673 70.9576L60.0677 58.5278C60.0677 58.5278 66.5042 52.9636 71.8823 57.2253L79.0968 63.043L79.9768 62.3626L60.0708 45.9683C60.0708 45.9683 62.9316 44.9957 68.4603 41.002C73.4226 37.4122 75.3673 35 75.3673 35L90.6659 47.4297C90.6659 47.4297 84.2303 52.9939 78.8512 48.7323L71.6368 42.9134L70.7568 43.5925L90.6628 59.9905Z" fill="#514F4F"/>
<path d="M78.8137 76.9468H67.1693V79.9908H72.7939L66.9712 86.3809V88.9314H78.792V85.8752H72.9105L78.8137 79.5009V76.9468Z" fill="#AFB6B3"/>
<path d="M60.3132 89.238C64.9702 89.238 66.1628 87.8397 66.1628 84.7568V76.9465H62.4735V84.2899C62.4735 85.5233 61.576 86.2582 60.3132 86.2582C58.9999 86.2582 58.155 85.5196 58.155 84.2705V76.9465H54.4657V84.7568C54.4657 87.8397 55.6583 89.238 60.3132 89.238Z" fill="#AFB6B3"/>
<path d="M85.5739 89.238C90.2308 89.238 91.4234 87.8397 91.4234 84.7568V76.9465H87.7331V84.2899C87.7331 85.5233 86.8346 86.2582 85.5739 86.2582C84.2606 86.2582 83.4125 85.5196 83.4125 84.2705V76.9465H79.7243V84.7568C79.7243 87.8397 80.9169 89.238 85.5739 89.238Z" fill="#AFB6B3"/>
<path d="M109.841 76.9468H105.993V88.9314H109.841V76.9468Z" fill="#AFB6B3"/>
<path d="M105.407 76.9468H100.346L96.2503 81.0823V76.9468H92.4022V88.9314H96.2503V84.6806L100.054 88.9314H105.223L99.597 82.7826L105.407 76.9468Z" fill="#AFB6B3"/>
<path d="M45.3722 80.2582C45.3722 79.3317 46.54 79.3013 46.9341 79.3013C47.3293 79.3013 48.2196 79.4869 48.8252 80.6548H53.1757C53.1757 78.3966 51.3548 76.6005 46.9476 76.6005C42.0523 76.6005 41.2187 79.1255 41.2187 80.576C41.2187 83.2501 42.9808 84.0336 46.8124 84.5139C47.1405 84.5539 49.1337 84.4435 49.1337 85.5702C49.1337 86.4046 48.0133 86.4604 47.6006 86.4604C47.191 86.4604 46.4245 86.3815 45.7911 85.056H41C41 87.6877 42.5093 89.2085 47.5934 89.2085C52.2761 89.2085 53.5193 86.9612 53.5193 85.2524C53.5193 83.5934 52.5505 81.9052 48.558 81.3049C46.8929 81.0514 45.3722 80.9447 45.3722 80.2582Z" fill="#AFB6B3"/>
</svg>
