<svg width="150" height="125" viewBox="0 0 150 125" fill="none" xmlns="http://www.w3.org/2000/svg">
<path d="M12 82.1566H137V43H12V82.1566Z" fill="#514F4F"/>
<path d="M122.88 69.398H125.327V72.8928H115.084V69.6103H117.145L114.009 65.3281L110.962 69.6103H113.024V72.8928H104.329V69.398H106.63L111.618 62.2891L106.692 55.7552H104.801V52.2621H114.339V55.5446H112.395L115.412 59.402L118.161 55.5446H116.309V52.2621H125.327V55.7552H122.492L117.683 62.5015L122.88 69.398ZM95.3848 52.2621H103.061V55.7552H101.046V67.3017C101.046 72.102 96.1142 73.1363 93.0715 73.1363C88.8602 73.1363 84.9686 71.5874 84.9686 66.542V55.7552H82.5781V52.2621H92.0168V55.7552H90.2566V66.2398C90.2566 68.2739 91.2617 69.6414 93.6154 69.6414C95.5906 69.6414 97.1836 68.7608 97.1836 66.4194V55.7552H95.3848V52.2621ZM35.2284 52.2621H43.6455V55.7552H41.6942L35.8641 72.898H31.1052L25.0639 55.7552H22.6734V52.2621H32.7093V55.7552H30.3795L33.7548 66.2035H33.8136L37.47 55.7552H35.2284V52.2621ZM78.8151 66.3244H82.7876V72.8928H65.5234V69.398H68.4191V55.7552H65.5234V52.2621H76.6654V55.7552H73.7072V69.398H78.8151V66.3244ZM45.3855 52.2621H63.0282V58.7942H59.1752V55.7552H52.8729V60.4968H57.9515V63.9899H52.8729V69.398H59.1752V66.3313H63.0282V72.8928H45.1981V69.398H47.5885V55.7552H45.3855V52.2621ZM125.066 62.5705C125.066 61.089 126.26 59.9701 127.842 59.9701C129.424 59.9701 130.617 61.089 130.617 62.5705C130.617 64.0607 129.43 65.1848 127.857 65.1848C126.266 65.1848 125.066 64.0607 125.066 62.5705ZM124.427 62.5774C124.427 64.4078 125.887 65.7874 127.828 65.7874C129.785 65.7874 131.26 64.4078 131.26 62.5774C131.26 60.7471 129.79 59.3658 127.841 59.3658C125.895 59.3658 124.427 60.7471 124.427 62.5774ZM127.887 61.3325C128.304 61.3325 128.533 61.5103 128.533 61.8332C128.533 62.2459 128.182 62.3323 127.887 62.3323C127.887 62.3323 127.423 62.3323 127.367 62.3323C127.367 62.2805 127.367 61.3843 127.367 61.3325C127.423 61.3325 127.887 61.3325 127.887 61.3325ZM126.659 60.8024V64.2714H127.398C127.398 64.2714 127.398 62.9176 127.398 62.8641C127.447 62.8641 127.714 62.8641 127.714 62.8641C127.714 62.8883 128.64 64.2575 128.64 64.2575L129.399 64.2714H129.454C129.454 64.2714 128.473 62.8347 128.434 62.7812C128.947 62.6413 129.243 62.3012 129.243 61.8332C129.243 61.1771 128.763 60.8024 127.929 60.8024H126.659Z" fill="white"/>
</svg>
