<svg width="116" height="37" viewBox="0 0 116 37" fill="none" xmlns="http://www.w3.org/2000/svg">
<path d="M0.300537 36.8911H115.73V0.732422H0.300537V36.8911Z" fill="#514F4F"/>
<path d="M102.691 25.1093H104.951V28.3365H95.4916V25.3054H97.3954L94.4991 21.351L91.6859 25.3054H93.5896V28.3365H85.5607V25.1093H87.685L92.2916 18.5447L87.7427 12.5111H85.9968V9.28536H94.8045V12.3165H93.0093L95.7953 15.8787L98.3336 12.3165H96.6233V9.28536H104.951V12.5111H102.333L97.8925 18.7408L102.691 25.1093ZM77.3011 9.28536H84.39V12.5111H82.5287V23.1735C82.5287 27.6063 77.9747 28.5614 75.1649 28.5614C71.276 28.5614 67.6824 27.1311 67.6824 22.4719V12.5111H65.4749V9.28536H74.191V12.5111H72.5655V22.1929C72.5655 24.0712 73.4937 25.3341 75.6672 25.3341C77.4911 25.3341 78.9622 24.5209 78.9622 22.3587V12.5111H77.3011V9.28536ZM21.7505 9.28536H29.5231V12.5111H27.7212L22.3375 28.3413H17.943L12.3642 12.5111H10.1568V9.28536H19.4243V12.5111H17.2728L20.3897 22.1594H20.444L23.8205 12.5111H21.7505V9.28536ZM62.0001 22.271H65.6684V28.3365H49.726V25.1093H52.4V12.5111H49.726V9.28536H60.0149V12.5111H57.2832V25.1093H62.0001V22.271ZM31.1299 9.28536H47.4219V15.3174H43.8638V12.5111H38.0441V16.8896H42.7338V20.1153H38.0441V25.1093H43.8638V22.2774H47.4219V28.3365H30.9569V25.1093H33.1643V12.5111H31.1299V9.28536ZM104.71 18.8046C104.71 17.4365 105.813 16.4032 107.274 16.4032C108.735 16.4032 109.836 17.4365 109.836 18.8046C109.836 20.1806 108.74 21.2187 107.287 21.2187C105.818 21.2187 104.71 20.1806 104.71 18.8046ZM104.119 18.811C104.119 20.5011 105.468 21.7751 107.26 21.7751C109.067 21.7751 110.43 20.5011 110.43 18.811C110.43 17.1208 109.072 15.8452 107.272 15.8452C105.475 15.8452 104.119 17.1208 104.119 18.811ZM107.314 17.6613C107.7 17.6613 107.912 17.8255 107.912 18.1237C107.912 18.5048 107.588 18.5845 107.314 18.5845C107.314 18.5845 106.887 18.5845 106.834 18.5845C106.834 18.5367 106.834 17.7091 106.834 17.6613C106.887 17.6613 107.314 17.6613 107.314 17.6613ZM106.181 17.1718V20.3752H106.863C106.863 20.3752 106.863 19.1251 106.863 19.0756C106.909 19.0756 107.155 19.0756 107.155 19.0756C107.155 19.098 108.01 20.3624 108.01 20.3624L108.711 20.3752H108.762C108.762 20.3752 107.856 19.0485 107.82 18.9991C108.293 18.8699 108.567 18.5558 108.567 18.1237C108.567 17.5178 108.124 17.1718 107.353 17.1718H106.181Z" fill="white"/>
</svg>
