<svg width="526" height="212" viewBox="0 0 526 212" fill="none" xmlns="http://www.w3.org/2000/svg">
<path opacity="0.4" d="M15.1895 194.357V189.668C15.1895 187.207 15.8503 185.27 17.1719 183.857C18.4935 182.436 20.3574 181.725 22.7637 181.725C25.1608 181.725 27.0247 182.431 28.3555 183.844C29.6862 185.247 30.3516 187.189 30.3516 189.668V194.357C30.3516 196.873 29.6816 198.842 28.3418 200.264C27.0111 201.676 25.1517 202.378 22.7637 202.369C20.3483 202.369 18.4798 201.658 17.1582 200.236C15.8457 198.814 15.1895 196.855 15.1895 194.357ZM18.2656 194.604C18.2656 196.29 18.6302 197.616 19.3594 198.582C20.0977 199.539 21.2324 200.018 22.7637 200.018C24.2949 200.018 25.4297 199.539 26.168 198.582C26.9154 197.616 27.2891 196.29 27.2891 194.604V189.449C27.2891 187.799 26.9154 186.496 26.168 185.539C25.4297 184.582 24.2949 184.104 22.7637 184.104C21.2324 184.104 20.0977 184.582 19.3594 185.539C18.6302 186.496 18.2656 187.799 18.2656 189.449V194.604Z" fill="#04101C"/>
<path opacity="0.4" d="M270.93 188.41C270.93 186.414 271.627 184.801 273.021 183.57C274.425 182.34 276.257 181.725 278.518 181.725C280.769 181.725 282.651 182.417 284.164 183.803C285.677 185.179 286.434 187.398 286.434 190.461V190.926C286.434 194.389 285.349 197.142 283.18 199.184C281.02 201.225 277.966 202.26 274.02 202.287H273.596V199.854H273.992C276.918 199.854 279.224 199.138 280.91 197.707C282.596 196.276 283.439 194.002 283.439 190.885L283.426 190.324C283.426 188.055 282.97 186.446 282.059 185.498C281.147 184.55 279.962 184.076 278.504 184.076C277.073 184.076 275.956 184.441 275.154 185.17C274.361 185.899 273.965 186.979 273.965 188.41C273.965 189.786 274.361 190.835 275.154 191.555C275.956 192.266 277.068 192.621 278.49 192.621C279.83 192.621 280.992 192.252 281.977 191.514C282.961 190.775 283.458 189.75 283.467 188.438L284.602 188.465C284.602 190.352 283.959 191.887 282.674 193.072C281.398 194.257 279.739 194.85 277.697 194.85C275.628 194.85 273.983 194.266 272.762 193.1C271.54 191.933 270.93 190.37 270.93 188.41Z" fill="#04101C"/>
<path d="M482.258 202V185.033L476.311 187.248V184.527L483.967 181.875H485.307V202H482.258ZM494.328 193.633V193.182C494.328 189.691 495.409 186.92 497.569 184.869C499.738 182.809 502.796 181.779 506.743 181.779H507.153V184.199H506.756C503.83 184.199 501.52 184.919 499.825 186.359C498.138 187.799 497.295 190.087 497.295 193.223L497.323 193.77C497.323 196.057 497.778 197.675 498.69 198.623C499.61 199.562 500.795 200.031 502.244 200.031C503.675 200.031 504.792 199.662 505.594 198.924C506.396 198.176 506.797 197.074 506.797 195.615C506.797 194.212 506.396 193.145 505.594 192.416C504.792 191.687 503.68 191.322 502.258 191.322C500.927 191.322 499.765 191.701 498.772 192.457C497.787 193.204 497.291 194.248 497.282 195.588L496.147 195.561C496.147 193.646 496.789 192.088 498.075 190.885C499.36 189.682 501.023 189.08 503.065 189.08C505.143 189.08 506.788 189.677 508 190.871C509.222 192.056 509.832 193.637 509.832 195.615C509.832 197.63 509.131 199.261 507.727 200.51C506.332 201.749 504.5 202.369 502.231 202.369C499.979 202.369 498.097 201.681 496.584 200.305C495.08 198.919 494.328 196.695 494.328 193.633Z" fill="#04101C"/>
<rect y="20" width="526" height="120" rx="8" fill="url(#paint0_linear_414_13688)"/>
<line x1="278.5" y1="166" x2="278.5" y2="-2.18557e-08" stroke="#AFB6B3"/>
<line x1="493.5" y1="166" x2="493.5" y2="-2.18557e-08" stroke="#AFB6B3"/>
<defs>
<linearGradient id="paint0_linear_414_13688" x1="0" y1="80" x2="526" y2="80" gradientUnits="userSpaceOnUse">
<stop stop-color="#7A73FF"/>
<stop offset="0.53" stop-color="#FD9BE8"/>
<stop offset="0.5301" stop-color="#83FFBC"/>
</linearGradient>
</defs>
</svg>
