<svg width="33" height="28" viewBox="0 0 33 28" fill="none" xmlns="http://www.w3.org/2000/svg">
<path d="M30.6526 10.0211C27.7053 7.51579 22.8421 4.42105 16.2105 4.42105C15.4737 4.42105 14.7368 4.42105 14.2947 4.56842C13.4105 4.71579 12.8211 5.45263 12.9684 6.33684C13.1158 7.07368 13.8526 7.66316 14.5895 7.66316C15.0316 7.66316 15.6211 7.51579 16.2105 7.51579C21.9579 7.51579 26.2316 10.1684 28.7368 12.3789C29.1789 12.6737 29.4737 13.2632 29.4737 14C29.4737 14.7368 29.1789 15.1789 28.7368 15.6211C27.8526 16.3579 26.8211 17.0947 25.7895 17.6842C25.0526 18.1263 24.9053 19.0105 25.2 19.7474C25.4947 20.1895 25.9368 20.4842 26.5263 20.4842C26.8211 20.4842 26.9684 20.4842 27.2632 20.3368C28.4421 19.6 29.6211 18.8632 30.6526 17.9789C31.8316 16.9474 32.4211 15.6211 32.4211 14.1474C32.4211 12.3789 31.8316 11.0526 30.6526 10.0211Z" fill="url(#paint0_radial_1243_600)"/>
<path d="M4.71579 0.442105C4.12632 -0.147368 3.24211 -0.147368 2.65263 0.442105C2.06316 1.03158 2.06316 1.91579 2.65263 2.50526L6.77895 6.63158C4.71579 7.81053 2.94737 9.13684 1.76842 10.0211C0.589474 11.0526 0 12.3789 0 14C0 15.6211 0.589474 16.9474 1.76842 17.8316C4.71579 20.3368 9.57895 23.4316 16.2105 23.4316C18.4211 23.4316 20.4842 23.1368 22.5474 22.4L27.7053 27.5579C28 27.8526 28.4421 28 28.7368 28C29.0316 28 29.4737 27.8526 29.7684 27.5579C30.3579 26.9684 30.3579 26.0842 29.7684 25.4947L4.71579 0.442105ZM16.2105 20.3368C10.4632 20.3368 6.18947 17.6842 3.68421 15.4737C3.24211 15.1789 2.94737 14.5895 2.94737 14C2.94737 13.4105 3.24211 12.8211 3.68421 12.3789C4.86316 11.3474 6.77895 10.0211 9.13684 8.98947L12.9684 12.8211C12.8211 13.1158 12.8211 13.5579 12.8211 14C12.8211 15.9158 14.2947 17.3895 16.2105 17.3895C16.6526 17.3895 16.9474 17.2421 17.3895 17.2421L20.1895 20.0421C18.8632 20.1895 17.5368 20.3368 16.2105 20.3368Z" fill="url(#paint1_radial_1243_600)"/>
<defs>
<radialGradient id="paint0_radial_1243_600" cx="0" cy="0" r="1" gradientUnits="userSpaceOnUse" gradientTransform="translate(16.2105 14) rotate(101.227) scale(17.8414 20.4595)">
<stop stop-color="#FD9BE8"/>
<stop offset="0.338542" stop-color="#7A73FF"/>
<stop offset="0.734375" stop-color="#75CDFF"/>
<stop offset="1" stop-color="#4AFCF1"/>
</radialGradient>
<radialGradient id="paint1_radial_1243_600" cx="0" cy="0" r="1" gradientUnits="userSpaceOnUse" gradientTransform="translate(16.2105 14) rotate(101.227) scale(17.8414 20.4595)">
<stop stop-color="#FD9BE8"/>
<stop offset="0.338542" stop-color="#7A73FF"/>
<stop offset="0.734375" stop-color="#75CDFF"/>
<stop offset="1" stop-color="#4AFCF1"/>
</radialGradient>
</defs>
</svg>
