<svg width="23" height="28" viewBox="0 0 23 28" fill="none" xmlns="http://www.w3.org/2000/svg">
<path fill-rule="evenodd" clip-rule="evenodd" d="M10.2578 0.0429101C17.047 -0.523298 22.7661 4.58481 22.9091 11.1711L22.9094 11.1988C22.9094 13.501 22.1883 15.6526 20.9101 17.5004L20.8974 17.5184L14.4375 26.5186C14.4247 26.5365 14.4114 26.554 14.3976 26.5712C12.9128 28.4287 9.99244 28.543 8.56564 26.5131L2.10363 17.5099C0.419183 15.1218 -0.465972 12.1066 0.249845 8.91573C1.13249 4.1311 5.30435 0.608857 10.2189 0.0467507C10.2319 0.045272 10.2448 0.0439916 10.2578 0.0429101ZM10.4888 2.57795C6.55526 3.03583 3.39643 5.83606 2.7493 9.39804C2.74599 9.41624 2.74229 9.43436 2.7382 9.45239C2.19886 11.8273 2.83208 14.1243 4.18079 16.0385L10.6466 25.047C10.9911 25.5396 11.8505 25.6549 12.3917 25.0034L18.8228 16.0435C19.818 14.6013 20.3611 12.9581 20.364 11.2126C20.2461 6.14933 15.8457 2.14177 10.4888 2.57795Z" fill="url(#paint0_radial_1243_2756)"/>
<path fill-rule="evenodd" clip-rule="evenodd" d="M11.4549 8.78183C10.1193 8.78183 9.03668 9.86448 9.03668 11.2C9.03668 12.5355 10.1193 13.6182 11.4549 13.6182C12.7904 13.6182 13.873 12.5355 13.873 11.2C13.873 9.86448 12.7904 8.78183 11.4549 8.78183ZM6.49123 11.2C6.49123 8.45867 8.71352 6.23637 11.4549 6.23637C14.1962 6.23637 16.4185 8.45867 16.4185 11.2C16.4185 13.9413 14.1962 16.1636 11.4549 16.1636C8.71352 16.1636 6.49123 13.9413 6.49123 11.2Z" fill="url(#paint1_radial_1243_2756)"/>
<path fill-rule="evenodd" clip-rule="evenodd" d="M11.4549 8.78183C10.1193 8.78183 9.03668 9.86448 9.03668 11.2C9.03668 12.5355 10.1193 13.6182 11.4549 13.6182C12.7904 13.6182 13.873 12.5355 13.873 11.2C13.873 9.86448 12.7904 8.78183 11.4549 8.78183ZM6.49123 11.2C6.49123 8.45867 8.71352 6.23637 11.4549 6.23637C14.1962 6.23637 16.4185 8.45867 16.4185 11.2C16.4185 13.9413 14.1962 16.1636 11.4549 16.1636C8.71352 16.1636 6.49123 13.9413 6.49123 11.2Z" fill="url(#paint2_radial_1243_2756)"/>
<path fill-rule="evenodd" clip-rule="evenodd" d="M11.4549 8.78183C10.1193 8.78183 9.03668 9.86448 9.03668 11.2C9.03668 12.5355 10.1193 13.6182 11.4549 13.6182C12.7904 13.6182 13.873 12.5355 13.873 11.2C13.873 9.86448 12.7904 8.78183 11.4549 8.78183ZM6.49123 11.2C6.49123 8.45867 8.71352 6.23637 11.4549 6.23637C14.1962 6.23637 16.4185 8.45867 16.4185 11.2C16.4185 13.9413 14.1962 16.1636 11.4549 16.1636C8.71352 16.1636 6.49123 13.9413 6.49123 11.2Z" fill="url(#paint3_radial_1243_2756)"/>
<defs>
<radialGradient id="paint0_radial_1243_2756" cx="0" cy="0" r="1" gradientUnits="userSpaceOnUse" gradientTransform="translate(11.4547 14) rotate(97.9843) scale(17.6713 14.5963)">
<stop stop-color="#FD9BE8"/>
<stop offset="0.338542" stop-color="#7A73FF"/>
<stop offset="0.734375" stop-color="#75CDFF"/>
<stop offset="1" stop-color="#4AFCF1"/>
</radialGradient>
<radialGradient id="paint1_radial_1243_2756" cx="0" cy="0" r="1" gradientUnits="userSpaceOnUse" gradientTransform="translate(11.4547 14) rotate(97.9843) scale(17.6713 14.5963)">
<stop stop-color="#FD9BE8"/>
<stop offset="0.338542" stop-color="#7A73FF"/>
<stop offset="0.734375" stop-color="#75CDFF"/>
<stop offset="1" stop-color="#4AFCF1"/>
</radialGradient>
<radialGradient id="paint2_radial_1243_2756" cx="0" cy="0" r="1" gradientUnits="userSpaceOnUse" gradientTransform="translate(11.4547 14) rotate(97.9843) scale(17.6713 14.5963)">
<stop stop-color="#FD9BE8"/>
<stop offset="0.338542" stop-color="#7A73FF"/>
<stop offset="0.734375" stop-color="#75CDFF"/>
<stop offset="1" stop-color="#4AFCF1"/>
</radialGradient>
<radialGradient id="paint3_radial_1243_2756" cx="0" cy="0" r="1" gradientUnits="userSpaceOnUse" gradientTransform="translate(11.4547 14) rotate(97.9843) scale(17.6713 14.5963)">
<stop stop-color="#FD9BE8"/>
<stop offset="0.338542" stop-color="#7A73FF"/>
<stop offset="0.734375" stop-color="#75CDFF"/>
<stop offset="1" stop-color="#4AFCF1"/>
</radialGradient>
</defs>
</svg>
