<svg width="30" height="28" viewBox="0 0 30 28" fill="none" xmlns="http://www.w3.org/2000/svg">
<path d="M9.87177 11.4839C9.30378 10.924 8.4518 10.924 7.88382 11.4839C7.31583 12.0438 7.31583 12.8836 7.88382 13.4434L13.7057 19.602C13.9897 19.8819 14.4157 20.0219 14.6996 20.0219C15.1256 20.0219 15.5516 19.8819 15.6936 19.462L29.6093 2.2461C30.0353 1.68623 30.0353 0.706465 29.3253 0.286565C28.8993 -0.133336 28.0473 -0.133336 27.4793 0.566498L24.6394 4.06567C22.0835 1.54627 18.3916 0.00663094 14.6996 0.00663094C6.88984 0.00663094 0.5 6.30514 0.5 14.0033C0.5 21.7015 6.88984 28 14.6996 28C22.5095 28 28.8993 21.7015 28.8993 14.0033C28.8993 12.7436 28.7573 11.4839 28.3313 10.2242C28.0473 9.52438 27.3373 9.10448 26.6274 9.24444C25.9174 9.38441 25.4914 10.2242 25.6334 10.924C25.9174 11.9038 26.0594 13.0235 26.0594 14.0033C26.0594 20.1619 20.9475 25.2007 14.6996 25.2007C8.4518 25.2007 3.33993 20.1619 3.33993 14.0033C3.33993 7.84477 8.4518 2.80597 14.6996 2.80597C17.8236 2.80597 20.6635 4.06567 22.9354 6.30514L14.6996 16.5227L9.87177 11.4839Z" fill="url(#paint0_radial_1243_2419)"/>
<defs>
<radialGradient id="paint0_radial_1243_2419" cx="0" cy="0" r="1" gradientUnits="userSpaceOnUse" gradientTransform="translate(15.2 14) rotate(100.204) scale(17.7812 18.6158)">
<stop stop-color="#FD9BE8"/>
<stop offset="0.338542" stop-color="#7A73FF"/>
<stop offset="0.734375" stop-color="#75CDFF"/>
<stop offset="1" stop-color="#4AFCF1"/>
</radialGradient>
</defs>
</svg>
