<svg width="29" height="28" viewBox="0 0 29 28" fill="none" xmlns="http://www.w3.org/2000/svg">
<path d="M27.3229 21.1429L24.6121 18.4286C24.0414 17.8571 23.1853 17.8571 22.6147 18.4286C22.0439 19 22.0439 19.8571 22.6147 20.4286L25.3255 23.1429C25.7535 23.5714 25.7535 24.2857 25.3255 24.7143C24.8975 25.1429 24.1841 25.1429 23.756 24.7143L19.4758 20.4286C19.7611 20.1429 20.0465 20 20.3318 19.7143C22.472 17.5714 23.756 14.5714 23.756 11.5714C23.756 8.42857 22.6146 5.57143 20.3318 3.42857C15.7662 -1.14286 8.48981 -1.14286 3.9242 3.42857C-0.641401 8 -0.641401 15.2857 3.9242 19.8571C6.06433 22 9.06051 23.2857 12.0567 23.2857C13.7688 23.2857 15.4809 22.8571 16.9076 22.1429L21.6159 26.8571C22.3293 27.5714 23.4707 28 24.4694 28C25.4682 28 26.4669 27.5714 27.3229 26.8571C28.8924 25.1429 28.8924 22.5714 27.3229 21.1429ZM5.92166 17.5714C2.49745 14.1429 2.49745 8.57143 5.92166 5.28571C7.63376 3.57143 9.77389 2.71429 12.0567 2.71429C14.3395 2.71429 16.4796 3.57143 18.1917 5.28571C19.9038 7 20.7599 9.14286 20.7599 11.4286C20.7599 13.7143 19.9038 16 18.1917 17.5714C16.4796 19.1429 14.3395 20.1429 12.0567 20.1429C9.77389 20.1429 7.49108 19.2857 5.92166 17.5714Z" fill="url(#paint0_radial_1243_1430)"/>
<defs>
<radialGradient id="paint0_radial_1243_1430" cx="0" cy="0" r="1" gradientUnits="userSpaceOnUse" gradientTransform="translate(14.5 14) rotate(99.7276) scale(17.7553)">
<stop stop-color="#FD9BE8"/>
<stop offset="0.338542" stop-color="#7A73FF"/>
<stop offset="0.734375" stop-color="#75CDFF"/>
<stop offset="1" stop-color="#4AFCF1"/>
</radialGradient>
</defs>
</svg>
