<svg width="48" height="48" viewBox="0 0 48 48" fill="none" xmlns="http://www.w3.org/2000/svg">
<g clip-path="url(#clip0_757_46374)">
<path d="M24 4C16.26 4 10 10.26 10 18C10 28.5 24 44 24 44C24 44 38 28.5 38 18C38 10.26 31.74 4 24 4ZM14 18C14 12.48 18.48 8 24 8C29.52 8 34 12.48 34 18C34 23.76 28.24 32.38 24 37.76C19.84 32.42 14 23.7 14 18Z" fill="url(#paint0_radial_757_46374)"/>
<path d="M24 23C26.7614 23 29 20.7614 29 18C29 15.2386 26.7614 13 24 13C21.2386 13 19 15.2386 19 18C19 20.7614 21.2386 23 24 23Z" fill="url(#paint1_radial_757_46374)"/>
</g>
<defs>
<radialGradient id="paint0_radial_757_46374" cx="0" cy="0" r="1" gradientUnits="userSpaceOnUse" gradientTransform="translate(24 24) rotate(96.8428) scale(25.1794 17.886)">
<stop offset="0.338542" stop-color="#7A73FF"/>
<stop offset="0.734375" stop-color="#75CDFF"/>
<stop offset="1" stop-color="#4AFCF1"/>
</radialGradient>
<radialGradient id="paint1_radial_757_46374" cx="0" cy="0" r="1" gradientUnits="userSpaceOnUse" gradientTransform="translate(24 18) rotate(99.7276) scale(6.34117)">
<stop offset="0.338542" stop-color="#7A73FF"/>
<stop offset="0.734375" stop-color="#75CDFF"/>
<stop offset="1" stop-color="#4AFCF1"/>
</radialGradient>
<clipPath id="clip0_757_46374">
<rect width="48" height="48" fill="white"/>
</clipPath>
</defs>
</svg>
