<svg width="42" height="42" viewBox="0 0 42 42" fill="none" xmlns="http://www.w3.org/2000/svg">
<path d="M21.0031 0.200195C9.56312 0.200195 0.203125 9.56019 0.203125 21.0002C0.203125 22.2482 1.03512 23.0802 2.28312 23.0802L22.8751 23.0802L16.2191 29.7362C15.3871 30.5682 15.3871 31.8162 16.2191 32.6482C16.6351 33.0642 17.0511 33.2722 17.6751 33.2722C18.2991 33.2722 18.7151 33.0642 19.1311 32.6482L29.1151 22.4562C29.9471 21.6242 29.9471 20.3762 29.1151 19.5442L19.3391 9.35219C18.5071 8.5202 17.0511 8.5202 16.4271 9.35219C15.5951 10.1842 15.5951 11.4322 16.4271 12.2642L22.8751 18.9202L4.57112 18.9202C5.61112 10.8082 12.4751 4.3602 21.0031 4.3602C30.1551 4.3602 37.6431 11.8482 37.6431 21.0002C37.6431 30.1522 30.1551 37.6402 21.0031 37.6402C14.1391 37.6402 8.10712 33.4802 5.40312 27.0322C4.98712 25.9922 3.73913 25.3682 2.69913 25.7842C1.65913 26.2002 1.03513 27.4482 1.45113 28.4882C4.77912 36.6002 12.4751 41.8002 21.0031 41.8002C32.4431 41.8002 41.8031 32.4402 41.8031 21.0002C41.8031 9.56019 32.4431 0.200195 21.0031 0.200195Z" fill="url(#paint0_radial_1561_36111)"/>
<defs>
<radialGradient id="paint0_radial_1561_36111" cx="0" cy="0" r="1" gradientUnits="userSpaceOnUse" gradientTransform="translate(21.0031 21.0002) rotate(99.7276) scale(26.3793)">
<stop offset="0.338542" stop-color="#7A73FF"/>
<stop offset="0.734375" stop-color="#75CDFF"/>
<stop offset="1" stop-color="#4AFCF1"/>
</radialGradient>
</defs>
</svg>
