<svg width="110" height="61" viewBox="0 0 110 61" fill="none" xmlns="http://www.w3.org/2000/svg">
<path fill-rule="evenodd" clip-rule="evenodd" d="M0.859375 0C1.33399 0 1.71875 0.447715 1.71875 1V60C1.71875 60.5523 1.33399 61 0.859375 61C0.384755 61 0 60.5523 0 60V1C0 0.447715 0.384755 0 0.859375 0ZM11.6875 0C12.1621 0 12.5469 0.447715 12.5469 1V60C12.5469 60.5523 12.1621 61 11.6875 61C11.2129 61 10.8281 60.5523 10.8281 60V1C10.8281 0.447715 11.2129 0 11.6875 0ZM22.5156 0C22.9902 0 23.375 0.447715 23.375 1V60C23.375 60.5523 22.9902 61 22.5156 61C22.041 61 21.6562 60.5523 21.6562 60V1C21.6562 0.447715 22.041 0 22.5156 0ZM33.3438 0C33.8184 0 34.2031 0.447715 34.2031 1V60C34.2031 60.5523 33.8184 61 33.3438 61C32.8691 61 32.4844 60.5523 32.4844 60V1C32.4844 0.447715 32.8691 0 33.3438 0ZM44.1719 0C44.6465 0 45.0312 0.447715 45.0312 1V60C45.0312 60.5523 44.6465 61 44.1719 61C43.6973 61 43.3125 60.5523 43.3125 60V1C43.3125 0.447715 43.6973 0 44.1719 0ZM55 0C55.4746 0 55.8594 0.447715 55.8594 1V60C55.8594 60.5523 55.4746 61 55 61C54.5254 61 54.1406 60.5523 54.1406 60V1C54.1406 0.447715 54.5254 0 55 0ZM65.8281 0C66.3027 0 66.6875 0.447715 66.6875 1V60C66.6875 60.5523 66.3027 61 65.8281 61C65.3535 61 64.9688 60.5523 64.9688 60V1C64.9688 0.447715 65.3535 0 65.8281 0ZM76.6562 0C77.1309 0 77.5156 0.447715 77.5156 1V60C77.5156 60.5523 77.1309 61 76.6562 61C76.1816 61 75.7969 60.5523 75.7969 60V1C75.7969 0.447715 76.1816 0 76.6562 0ZM87.4844 0C87.959 0 88.3438 0.447715 88.3438 1V60C88.3438 60.5523 87.959 61 87.4844 61C87.0098 61 86.625 60.5523 86.625 60V1C86.625 0.447715 87.0098 0 87.4844 0ZM98.3125 0C98.7871 0 99.1719 0.447715 99.1719 1V60C99.1719 60.5523 98.7871 61 98.3125 61C97.8379 61 97.4531 60.5523 97.4531 60V1C97.4531 0.447715 97.8379 0 98.3125 0ZM109.141 0C109.615 0 110 0.447715 110 1V60C110 60.5523 109.615 61 109.141 61C108.666 61 108.281 60.5523 108.281 60V1C108.281 0.447715 108.666 0 109.141 0Z" fill="url(#paint0_linear_1561_36158)"/>
<defs>
<linearGradient id="paint0_linear_1561_36158" x1="170.049" y1="-58" x2="-11.2036" y2="56.7811" gradientUnits="userSpaceOnUse">
<stop offset="0.338542" stop-color="#7A73FF"/>
<stop offset="0.734375" stop-color="#75CDFF"/>
<stop offset="1" stop-color="#4AFCF1"/>
</linearGradient>
</defs>
</svg>
