<svg width="114" height="61" viewBox="0 0 114 61" fill="none" xmlns="http://www.w3.org/2000/svg">
<path fill-rule="evenodd" clip-rule="evenodd" d="M0.890625 0C1.3825 0 1.78125 0.447715 1.78125 1V60C1.78125 60.5523 1.3825 61 0.890625 61C0.398746 61 0 60.5523 0 60V1C0 0.447715 0.398746 0 0.890625 0ZM12.1125 0C12.6044 0 13.0031 0.447715 13.0031 1V60C13.0031 60.5523 12.6044 61 12.1125 61C11.6206 61 11.2219 60.5523 11.2219 60V1C11.2219 0.447715 11.6206 0 12.1125 0ZM23.3344 0C23.8263 0 24.225 0.447715 24.225 1V60C24.225 60.5523 23.8263 61 23.3344 61C22.8425 61 22.4438 60.5523 22.4438 60V1C22.4438 0.447715 22.8425 0 23.3344 0ZM34.5562 0C35.0481 0 35.4469 0.447715 35.4469 1V60C35.4469 60.5523 35.0481 61 34.5562 61C34.0644 61 33.6656 60.5523 33.6656 60V1C33.6656 0.447715 34.0644 0 34.5562 0ZM45.7781 0C46.27 0 46.6688 0.447715 46.6688 1V60C46.6688 60.5523 46.27 61 45.7781 61C45.2862 61 44.8875 60.5523 44.8875 60V1C44.8875 0.447715 45.2862 0 45.7781 0ZM57 0C57.4919 0 57.8906 0.447715 57.8906 1V60C57.8906 60.5523 57.4919 61 57 61C56.5081 61 56.1094 60.5523 56.1094 60V1C56.1094 0.447715 56.5081 0 57 0ZM68.2219 0C68.7138 0 69.1125 0.447715 69.1125 1V60C69.1125 60.5523 68.7138 61 68.2219 61C67.73 61 67.3312 60.5523 67.3312 60V1C67.3312 0.447715 67.73 0 68.2219 0ZM79.4437 0C79.9356 0 80.3344 0.447715 80.3344 1V60C80.3344 60.5523 79.9356 61 79.4437 61C78.9519 61 78.5531 60.5523 78.5531 60V1C78.5531 0.447715 78.9519 0 79.4437 0ZM90.6656 0C91.1575 0 91.5563 0.447715 91.5563 1V60C91.5563 60.5523 91.1575 61 90.6656 61C90.1738 61 89.775 60.5523 89.775 60V1C89.775 0.447715 90.1738 0 90.6656 0ZM101.888 0C102.379 0 102.778 0.447715 102.778 1V60C102.778 60.5523 102.379 61 101.888 61C101.396 61 100.997 60.5523 100.997 60V1C100.997 0.447715 101.396 0 101.888 0ZM113.109 0C113.601 0 114 0.447715 114 1V60C114 60.5523 113.601 61 113.109 61C112.618 61 112.219 60.5523 112.219 60V1C112.219 0.447715 112.618 0 113.109 0Z" fill="url(#paint0_linear_1561_36162)"/>
<defs>
<linearGradient id="paint0_linear_1561_36162" x1="176.232" y1="-58" x2="-7.71216" y2="62.7218" gradientUnits="userSpaceOnUse">
<stop offset="0.338542" stop-color="#7A73FF"/>
<stop offset="0.734375" stop-color="#75CDFF"/>
<stop offset="1" stop-color="#4AFCF1"/>
</linearGradient>
</defs>
</svg>
