<svg width="113" height="61" viewBox="0 0 113 61" fill="none" xmlns="http://www.w3.org/2000/svg">
<path fill-rule="evenodd" clip-rule="evenodd" d="M0.882812 0C1.37038 0 1.76562 0.447715 1.76562 1V60C1.76562 60.5523 1.37038 61 0.882812 61C0.395249 61 0 60.5523 0 60V1C0 0.447715 0.395249 0 0.882812 0ZM12.0063 0C12.4938 0 12.8891 0.447715 12.8891 1V60C12.8891 60.5523 12.4938 61 12.0063 61C11.5187 61 11.1234 60.5523 11.1234 60V1C11.1234 0.447715 11.5187 0 12.0063 0ZM23.1297 0C23.6173 0 24.0125 0.447715 24.0125 1V60C24.0125 60.5523 23.6173 61 23.1297 61C22.6421 61 22.2469 60.5523 22.2469 60V1C22.2469 0.447715 22.6421 0 23.1297 0ZM34.2531 0C34.7407 0 35.1359 0.447715 35.1359 1V60C35.1359 60.5523 34.7407 61 34.2531 61C33.7656 61 33.3703 60.5523 33.3703 60V1C33.3703 0.447715 33.7656 0 34.2531 0ZM45.3766 0C45.8641 0 46.2594 0.447715 46.2594 1V60C46.2594 60.5523 45.8641 61 45.3766 61C44.889 61 44.4938 60.5523 44.4938 60V1C44.4938 0.447715 44.889 0 45.3766 0ZM56.5 0C56.9876 0 57.3828 0.447715 57.3828 1V60C57.3828 60.5523 56.9876 61 56.5 61C56.0124 61 55.6172 60.5523 55.6172 60V1C55.6172 0.447715 56.0124 0 56.5 0ZM67.6234 0C68.111 0 68.5062 0.447715 68.5062 1V60C68.5062 60.5523 68.111 61 67.6234 61C67.1359 61 66.7406 60.5523 66.7406 60V1C66.7406 0.447715 67.1359 0 67.6234 0ZM78.7469 0C79.2344 0 79.6297 0.447715 79.6297 1V60C79.6297 60.5523 79.2344 61 78.7469 61C78.2593 61 77.8641 60.5523 77.8641 60V1C77.8641 0.447715 78.2593 0 78.7469 0ZM89.8703 0C90.3579 0 90.7531 0.447715 90.7531 1V60C90.7531 60.5523 90.3579 61 89.8703 61C89.3828 61 88.9875 60.5523 88.9875 60V1C88.9875 0.447715 89.3828 0 89.8703 0ZM100.994 0C101.481 0 101.877 0.447715 101.877 1V60C101.877 60.5523 101.481 61 100.994 61C100.506 61 100.111 60.5523 100.111 60V1C100.111 0.447715 100.506 0 100.994 0ZM112.117 0C112.605 0 113 0.447715 113 1V60C113 60.5523 112.605 61 112.117 61C111.63 61 111.234 60.5523 111.234 60V1C111.234 0.447715 111.63 0 112.117 0Z" fill="url(#paint0_linear_1561_36160)"/>
<defs>
<linearGradient id="paint0_linear_1561_36160" x1="174.687" y1="-58" x2="-8.60836" y2="61.2402" gradientUnits="userSpaceOnUse">
<stop offset="0.338542" stop-color="#7A73FF"/>
<stop offset="0.734375" stop-color="#75CDFF"/>
<stop offset="1" stop-color="#4AFCF1"/>
</linearGradient>
</defs>
</svg>
