<svg width="93" height="61" viewBox="0 0 93 61" fill="none" xmlns="http://www.w3.org/2000/svg">
<path fill-rule="evenodd" clip-rule="evenodd" d="M0.726562 0C1.12783 0 1.45312 0.447715 1.45312 1V60C1.45312 60.5523 1.12783 61 0.726562 61C0.325293 61 0 60.5523 0 60V1C0 0.447715 0.325293 0 0.726562 0ZM9.88125 0C10.2825 0 10.6078 0.447715 10.6078 1V60C10.6078 60.5523 10.2825 61 9.88125 61C9.47998 61 9.15469 60.5523 9.15469 60V1C9.15469 0.447715 9.47998 0 9.88125 0ZM19.0359 0C19.4372 0 19.7625 0.447715 19.7625 1V60C19.7625 60.5523 19.4372 61 19.0359 61C18.6347 61 18.3094 60.5523 18.3094 60V1C18.3094 0.447715 18.6347 0 19.0359 0ZM28.1906 0C28.5919 0 28.9172 0.447715 28.9172 1V60C28.9172 60.5523 28.5919 61 28.1906 61C27.7894 61 27.4641 60.5523 27.4641 60V1C27.4641 0.447715 27.7894 0 28.1906 0ZM37.3453 0C37.7466 0 38.0719 0.447715 38.0719 1V60C38.0719 60.5523 37.7466 61 37.3453 61C36.944 61 36.6188 60.5523 36.6188 60V1C36.6188 0.447715 36.944 0 37.3453 0ZM46.5 0C46.9013 0 47.2266 0.447715 47.2266 1V60C47.2266 60.5523 46.9013 61 46.5 61C46.0987 61 45.7734 60.5523 45.7734 60V1C45.7734 0.447715 46.0987 0 46.5 0ZM55.6547 0C56.056 0 56.3812 0.447715 56.3812 1V60C56.3812 60.5523 56.056 61 55.6547 61C55.2534 61 54.9281 60.5523 54.9281 60V1C54.9281 0.447715 55.2534 0 55.6547 0ZM64.8094 0C65.2106 0 65.5359 0.447715 65.5359 1V60C65.5359 60.5523 65.2106 61 64.8094 61C64.4081 61 64.0828 60.5523 64.0828 60V1C64.0828 0.447715 64.4081 0 64.8094 0ZM73.9641 0C74.3653 0 74.6906 0.447715 74.6906 1V60C74.6906 60.5523 74.3653 61 73.9641 61C73.5628 61 73.2375 60.5523 73.2375 60V1C73.2375 0.447715 73.5628 0 73.9641 0ZM83.1188 0C83.52 0 83.8453 0.447715 83.8453 1V60C83.8453 60.5523 83.52 61 83.1188 61C82.7175 61 82.3922 60.5523 82.3922 60V1C82.3922 0.447715 82.7175 0 83.1188 0ZM92.2734 0C92.6747 0 93 0.447715 93 1V60C93 60.5523 92.6747 61 92.2734 61C91.8722 61 91.5469 60.5523 91.5469 60V1C91.5469 0.447715 91.8722 0 92.2734 0Z" fill="url(#paint0_linear_1561_36156)"/>
<defs>
<linearGradient id="paint0_linear_1561_36156" x1="143.769" y1="-58" x2="-23.0943" y2="31.3381" gradientUnits="userSpaceOnUse">
<stop offset="0.338542" stop-color="#7A73FF"/>
<stop offset="0.734375" stop-color="#75CDFF"/>
<stop offset="1" stop-color="#4AFCF1"/>
</linearGradient>
</defs>
</svg>
