<svg width="121" height="61" viewBox="0 0 121 61" fill="none" xmlns="http://www.w3.org/2000/svg">
<path fill-rule="evenodd" clip-rule="evenodd" d="M0.945312 0C1.46739 0 1.89062 0.447715 1.89062 1V60C1.89062 60.5523 1.46739 61 0.945312 61C0.423231 61 0 60.5523 0 60V1C0 0.447715 0.423231 0 0.945312 0ZM12.8563 0C13.3783 0 13.8016 0.447715 13.8016 1V60C13.8016 60.5523 13.3783 61 12.8563 61C12.3342 61 11.9109 60.5523 11.9109 60V1C11.9109 0.447715 12.3342 0 12.8563 0ZM24.7672 0C25.2893 0 25.7125 0.447715 25.7125 1V60C25.7125 60.5523 25.2893 61 24.7672 61C24.2451 61 23.8219 60.5523 23.8219 60V1C23.8219 0.447715 24.2451 0 24.7672 0ZM36.6781 0C37.2002 0 37.6234 0.447715 37.6234 1V60C37.6234 60.5523 37.2002 61 36.6781 61C36.156 61 35.7328 60.5523 35.7328 60V1C35.7328 0.447715 36.156 0 36.6781 0ZM48.5891 0C49.1111 0 49.5344 0.447715 49.5344 1V60C49.5344 60.5523 49.1111 61 48.5891 61C48.067 61 47.6438 60.5523 47.6438 60V1C47.6438 0.447715 48.067 0 48.5891 0ZM60.5 0C61.0221 0 61.4453 0.447715 61.4453 1V60C61.4453 60.5523 61.0221 61 60.5 61C59.9779 61 59.5547 60.5523 59.5547 60V1C59.5547 0.447715 59.9779 0 60.5 0ZM72.4109 0C72.933 0 73.3562 0.447715 73.3562 1V60C73.3562 60.5523 72.933 61 72.4109 61C71.8889 61 71.4656 60.5523 71.4656 60V1C71.4656 0.447715 71.8889 0 72.4109 0ZM84.3219 0C84.844 0 85.2672 0.447715 85.2672 1V60C85.2672 60.5523 84.844 61 84.3219 61C83.7998 61 83.3766 60.5523 83.3766 60V1C83.3766 0.447715 83.7998 0 84.3219 0ZM96.2328 0C96.7549 0 97.1781 0.447715 97.1781 1V60C97.1781 60.5523 96.7549 61 96.2328 61C95.7107 61 95.2875 60.5523 95.2875 60V1C95.2875 0.447715 95.7107 0 96.2328 0ZM108.144 0C108.666 0 109.089 0.447715 109.089 1V60C109.089 60.5523 108.666 61 108.144 61C107.622 61 107.198 60.5523 107.198 60V1C107.198 0.447715 107.622 0 108.144 0ZM120.055 0C120.577 0 121 0.447715 121 1V60C121 60.5523 120.577 61 120.055 61C119.533 61 119.109 60.5523 119.109 60V1C119.109 0.447715 119.533 0 120.055 0Z" fill="url(#paint0_linear_1561_36168)"/>
<defs>
<linearGradient id="paint0_linear_1561_36168" x1="187.054" y1="-58" x2="-1.01894" y2="73.0101" gradientUnits="userSpaceOnUse">
<stop offset="0.338542" stop-color="#7A73FF"/>
<stop offset="0.734375" stop-color="#75CDFF"/>
<stop offset="1" stop-color="#4AFCF1"/>
</linearGradient>
</defs>
</svg>
