<svg width="249" height="61" viewBox="0 0 249 61" fill="none" xmlns="http://www.w3.org/2000/svg">
<path fill-rule="evenodd" clip-rule="evenodd" d="M1.94531 0C3.01968 0 3.89062 0.447715 3.89062 1V60C3.89062 60.5523 3.01968 61 1.94531 61C0.870946 61 0 60.5523 0 60V1C0 0.447715 0.870946 0 1.94531 0ZM26.4563 0C27.5306 0 28.4016 0.447715 28.4016 1V60C28.4016 60.5523 27.5306 61 26.4563 61C25.3819 61 24.5109 60.5523 24.5109 60V1C24.5109 0.447715 25.3819 0 26.4563 0ZM50.9672 0C52.0416 0 52.9125 0.447715 52.9125 1V60C52.9125 60.5523 52.0416 61 50.9672 61C49.8928 61 49.0219 60.5523 49.0219 60V1C49.0219 0.447715 49.8928 0 50.9672 0ZM75.4781 0C76.5525 0 77.4234 0.447715 77.4234 1V60C77.4234 60.5523 76.5525 61 75.4781 61C74.4038 61 73.5328 60.5523 73.5328 60V1C73.5328 0.447715 74.4038 0 75.4781 0ZM99.9891 0C101.063 0 101.934 0.447715 101.934 1V60C101.934 60.5523 101.063 61 99.9891 61C98.9147 61 98.0438 60.5523 98.0438 60V1C98.0438 0.447715 98.9147 0 99.9891 0ZM124.5 0C125.574 0 126.445 0.447715 126.445 1V60C126.445 60.5523 125.574 61 124.5 61C123.426 61 122.555 60.5523 122.555 60V1C122.555 0.447715 123.426 0 124.5 0ZM149.011 0C150.085 0 150.956 0.447715 150.956 1V60C150.956 60.5523 150.085 61 149.011 61C147.937 61 147.066 60.5523 147.066 60V1C147.066 0.447715 147.937 0 149.011 0ZM173.522 0C174.596 0 175.467 0.447715 175.467 1V60C175.467 60.5523 174.596 61 173.522 61C172.448 61 171.577 60.5523 171.577 60V1C171.577 0.447715 172.448 0 173.522 0ZM198.033 0C199.107 0 199.978 0.447715 199.978 1V60C199.978 60.5523 199.107 61 198.033 61C196.958 61 196.088 60.5523 196.088 60V1C196.088 0.447715 196.958 0 198.033 0ZM222.544 0C223.618 0 224.489 0.447715 224.489 1V60C224.489 60.5523 223.618 61 222.544 61C221.469 61 220.598 60.5523 220.598 60V1C220.598 0.447715 221.469 0 222.544 0ZM247.055 0C248.129 0 249 0.447715 249 1V60C249 60.5523 248.129 61 247.055 61C245.98 61 245.109 60.5523 245.109 60V1C245.109 0.447715 245.98 0 247.055 0Z" fill="url(#paint0_linear_1561_36170)"/>
<defs>
<linearGradient id="paint0_linear_1561_36170" x1="364.677" y1="-60" x2="14.8178" y2="135.574" gradientUnits="userSpaceOnUse">
<stop offset="0.424207" stop-color="#7A73FF" stop-opacity="0"/>
<stop offset="0.835" stop-color="#75CDFF"/>
<stop offset="1" stop-color="#4AFCF1"/>
</linearGradient>
</defs>
</svg>
