<svg width="343" height="371" viewBox="0 0 343 371" fill="none" xmlns="http://www.w3.org/2000/svg">
<path d="M124.062 293.043H177.827" stroke="url(#paint0_linear_493_80977)" stroke-width="1.37705"/>
<path d="M124.066 274.543L130.33 274.543C142.489 274.543 152.326 264.73 152.326 252.603L152.328 136.819" stroke="url(#paint1_linear_493_80977)" stroke-width="1.37705"/>
<g filter="url(#filter0_dd_493_80977)">
<rect x="9" y="227.265" width="120.134" height="131.735" rx="16.5246" fill="white"/>
<path d="M77.8931 287.449C77.142 287.449 76.5787 287.074 76.2031 286.51L73.9499 282.567C73.011 280.501 71.1333 278.624 69.0678 277.497L65.1245 275.244C64.5612 275.056 64.1857 274.305 64.1857 273.741C64.1857 272.99 64.5612 272.427 65.1245 272.051L69.0678 269.798C71.1333 268.671 73.011 266.981 74.1376 264.728L76.3909 260.785C76.5787 260.221 77.3298 259.846 77.8931 259.846C78.6442 259.846 79.2075 260.221 79.5831 260.785L81.8363 264.728C82.963 266.794 84.8407 268.671 86.9062 269.798L90.8494 272.051C91.4127 272.427 91.7883 272.99 91.7883 273.741C91.7883 274.492 91.4127 275.056 90.8494 275.431L86.9062 277.685C84.8407 278.811 82.963 280.689 81.8363 282.755L79.5831 286.698C79.2075 287.074 78.6442 287.449 77.8931 287.449ZM70.0066 273.741L70.9455 274.305C73.7621 275.807 76.0154 278.06 77.5176 280.877L78.0809 281.816L78.6442 280.877C80.1464 278.06 82.3996 275.807 85.2162 274.305L86.1551 273.741L85.2162 273.178C82.3996 271.676 80.1464 269.422 78.6442 266.606L78.0809 265.667L77.5176 266.606C76.0154 269.422 73.7621 271.676 70.9455 273.178L70.0066 273.741Z" fill="url(#paint2_radial_493_80977)"/>
<path d="M60.8043 301.157C60.0532 301.157 59.4899 300.782 59.1144 300.218L57.9877 297.965C57.0489 296.087 55.5467 294.585 53.6689 293.646L51.4157 292.519C50.8524 292.144 50.4768 291.393 50.4768 290.829C50.4768 290.078 50.8524 289.515 51.4157 289.139L53.6689 288.013C55.5467 287.074 57.0489 285.572 57.9877 283.694L59.1144 281.44C59.8654 280.314 61.7432 280.314 62.4943 281.44L63.6209 283.694C64.5598 285.572 66.0619 287.074 67.9397 288.013L70.1929 289.139C70.7563 289.515 71.1318 290.078 71.1318 290.829C71.1318 291.58 70.7563 292.144 70.1929 292.519L68.1274 293.646C66.2497 294.585 64.7475 296.087 63.8087 297.965L62.682 300.218C62.1187 300.782 61.5554 301.157 60.8043 301.157ZM56.2978 290.829C58.1755 291.956 59.8654 293.646 60.9921 295.524C62.1187 293.646 63.8087 291.956 65.6864 290.829C63.6209 289.515 62.1187 288.013 60.8043 286.135C59.6777 288.013 58.1755 289.515 56.2978 290.829Z" fill="url(#paint3_radial_493_80977)"/>
<path d="M34.7116 329.173V317.425H38.8427C40.209 317.425 41.2579 317.748 41.9895 318.394C42.721 319.034 43.0868 319.897 43.0868 320.984C43.0868 322.07 42.721 322.939 41.9895 323.59C41.2579 324.241 40.209 324.566 38.8427 324.566H36.2446V329.173H34.7116ZM36.2446 323.316H38.8427C39.8486 323.316 40.5506 323.092 40.9486 322.646C41.3521 322.199 41.5538 321.645 41.5538 320.984C41.5538 320.322 41.3521 319.773 40.9486 319.338C40.5506 318.902 39.8486 318.684 38.8427 318.684H36.2446V323.316ZM44.2322 325.091V324.832C44.2322 323.563 44.6115 322.525 45.3699 321.718C46.1338 320.911 47.145 320.508 48.4037 320.508C49.6571 320.508 50.6226 320.884 51.3004 321.637C51.9781 322.39 52.317 323.407 52.317 324.687V325.292H45.1037V324.114H50.8324V324.001C50.8324 323.35 50.6387 322.807 50.2515 322.371C49.8642 321.936 49.2617 321.718 48.4441 321.718C47.535 321.718 46.8519 322.016 46.3946 322.614C45.9428 323.205 45.7169 323.945 45.7169 324.832V325.091C45.7169 325.978 45.9562 326.718 46.435 327.309C46.9137 327.901 47.6534 328.197 48.6539 328.197C49.2671 328.197 49.7915 328.079 50.2272 327.842C50.6683 327.605 51.0234 327.323 51.2923 326.995L52.2444 327.777C51.9539 328.176 51.5021 328.549 50.8889 328.899C50.281 329.243 49.536 329.415 48.6539 329.415C47.2284 329.415 46.1338 329.012 45.3699 328.205C44.6115 327.398 44.2322 326.36 44.2322 325.091ZM60.3692 329.173L56.6899 325.349L57.5855 324.356L62.2411 329.173H60.3692ZM55.173 324.292H56.7706L60.0868 320.75H61.8538L57.3919 325.446H55.173V324.292ZM55.9153 320.75V329.173H54.4307V320.75H55.9153ZM65.8072 321.903L65.6539 325.308C65.5893 326.745 65.3983 327.777 65.081 328.407C64.769 329.036 64.2176 329.351 63.4269 329.351C63.2333 329.351 63.0611 329.337 62.9105 329.311C62.7599 329.289 62.6335 329.254 62.5313 329.206V327.963C62.6227 328.001 62.7169 328.028 62.8137 328.044C62.9105 328.06 63.0235 328.068 63.1526 328.068C63.5614 328.068 63.8411 327.855 63.9917 327.431C64.1477 327.006 64.2499 326.228 64.2983 325.099L64.492 320.75H70.8662V329.173H69.3816V321.903H65.8072ZM73.109 326.696C73.109 325.836 73.4694 325.169 74.1902 324.695C74.9163 324.222 75.8684 323.985 77.0465 323.985H79.2815V323.396C79.2815 322.864 79.1255 322.447 78.8135 322.146C78.5015 321.839 77.9717 321.686 77.224 321.686C76.4978 321.686 75.9653 321.815 75.6264 322.073C75.2929 322.326 75.1261 322.638 75.1261 323.009V323.057H73.6496V323.001C73.6496 322.302 73.9723 321.713 74.6178 321.234C75.2633 320.75 76.1482 320.508 77.2724 320.508C78.3859 320.508 79.2465 320.752 79.8544 321.242C80.4622 321.726 80.7661 322.444 80.7661 323.396V327.237C80.7661 327.587 80.793 327.917 80.8468 328.229C80.906 328.536 80.9893 328.808 81.0969 329.044V329.173H79.6688C79.5827 329.039 79.5047 328.864 79.4348 328.649C79.3702 328.434 79.3299 328.219 79.3138 328.003C79.0932 328.358 78.7274 328.67 78.2164 328.939C77.7108 329.203 77.0599 329.335 76.2638 329.335C75.3494 329.335 74.5936 329.109 73.9965 328.657C73.4048 328.2 73.109 327.546 73.109 326.696ZM74.5936 326.616C74.5936 327.105 74.755 327.484 75.0777 327.753C75.4005 328.022 75.9061 328.157 76.5946 328.157C77.2831 328.157 77.9017 327.952 78.4504 327.543C79.0045 327.135 79.2815 326.699 79.2815 326.236V325.042H77.224C76.3579 325.042 75.7017 325.182 75.2552 325.462C74.8141 325.741 74.5936 326.126 74.5936 326.616ZM83.4526 329.173V320.75H85.4617L88.1889 326.599C88.3342 326.911 88.4256 327.129 88.4633 327.253C88.5063 327.371 88.5413 327.498 88.5682 327.632H88.6489C88.6758 327.498 88.708 327.371 88.7457 327.253C88.7887 327.135 88.8828 326.922 89.0281 326.616L91.7634 320.75H93.7321V329.173H92.304V323.412C92.304 323.1 92.3066 322.874 92.312 322.735C92.3228 322.589 92.3362 322.458 92.3524 322.339H92.2797C92.2529 322.452 92.2179 322.576 92.1749 322.71C92.1372 322.839 92.0511 323.047 91.9167 323.332L89.1895 329.173H87.9307L85.1874 323.316C85.0798 323.073 85.0018 322.88 84.9534 322.735C84.905 322.584 84.87 322.452 84.8485 322.339H84.7678C84.784 322.452 84.7947 322.581 84.8001 322.726C84.8109 322.866 84.8162 323.079 84.8162 323.364V329.173H83.4526ZM95.9587 326.696C95.9587 325.836 96.3191 325.169 97.0399 324.695C97.7661 324.222 98.7182 323.985 99.8962 323.985H102.131V323.396C102.131 322.864 101.975 322.447 101.663 322.146C101.351 321.839 100.821 321.686 100.074 321.686C99.3476 321.686 98.815 321.815 98.4761 322.073C98.1426 322.326 97.9759 322.638 97.9759 323.009V323.057H96.4993V323.001C96.4993 322.302 96.8221 321.713 97.4676 321.234C98.1131 320.75 98.9979 320.508 100.122 320.508C101.236 320.508 102.096 320.752 102.704 321.242C103.312 321.726 103.616 322.444 103.616 323.396V327.237C103.616 327.587 103.643 327.917 103.697 328.229C103.756 328.536 103.839 328.808 103.947 329.044V329.173H102.519C102.432 329.039 102.354 328.864 102.285 328.649C102.22 328.434 102.18 328.219 102.164 328.003C101.943 328.358 101.577 328.67 101.066 328.939C100.561 329.203 99.9097 329.335 99.1136 329.335C98.1991 329.335 97.4434 329.109 96.8463 328.657C96.2546 328.2 95.9587 327.546 95.9587 326.696ZM97.4434 326.616C97.4434 327.105 97.6047 327.484 97.9275 327.753C98.2502 328.022 98.7559 328.157 99.4444 328.157C100.133 328.157 100.752 327.952 101.3 327.543C101.854 327.135 102.131 326.699 102.131 326.236V325.042H100.074C99.2077 325.042 98.5515 325.182 98.105 325.462C97.6639 325.741 97.4434 326.126 97.4434 326.616Z" fill="#04101C"/>
</g>
<g filter="url(#filter1_dd_493_80977)">
<rect x="110.277" y="8" width="195.217" height="131.735" rx="16.5246" fill="white"/>
<path d="M207.886 40.5811C197.283 40.5811 188.607 49.2565 188.607 59.8597C188.607 70.463 197.283 79.1384 207.886 79.1384C218.489 79.1384 227.165 70.463 227.165 59.8597C227.165 49.2565 218.489 40.5811 207.886 40.5811ZM207.886 75.2827C199.403 75.2827 192.463 68.3424 192.463 59.8597C192.463 51.3771 199.403 44.4368 207.886 44.4368C216.369 44.4368 223.309 51.3771 223.309 59.8597C223.309 68.3424 216.369 75.2827 207.886 75.2827Z" fill="url(#paint4_radial_493_80977)"/>
<path d="M218.489 66.4145C217.14 65.065 215.598 64.1011 213.863 63.3299C215.212 61.7876 216.176 59.8597 216.176 57.5463C216.176 52.9194 212.513 49.2565 207.886 49.2565C203.259 49.2565 199.596 52.9194 199.596 57.5463C199.596 59.8597 200.56 61.7876 201.91 63.3299C200.175 64.1011 198.632 65.065 197.283 66.4145C196.512 67.1856 196.512 68.3424 197.283 69.1135C197.668 69.4991 198.247 69.6919 198.632 69.6919C199.211 69.6919 199.596 69.4991 199.982 69.1135C202.103 66.9929 204.802 65.8361 207.886 65.8361C210.778 65.8361 213.67 66.9929 215.79 69.1135C216.562 69.8847 217.718 69.8847 218.489 69.1135C219.261 68.3424 219.261 67.1856 218.489 66.4145ZM203.452 57.5463C203.452 55.0401 205.38 53.1122 207.886 53.1122C210.392 53.1122 212.32 55.0401 212.32 57.5463C212.32 60.0525 210.392 61.9804 207.886 61.9804C205.38 61.9804 203.452 60.0525 203.452 57.5463Z" fill="url(#paint5_radial_493_80977)"/>
<path d="M134.811 99.4194V98.1607H144.461V99.4194H140.402V109.909H138.877V99.4194H134.811ZM145.396 107.432C145.396 106.571 145.757 105.904 146.477 105.431C147.204 104.957 148.156 104.721 149.334 104.721H151.569V104.132C151.569 103.599 151.413 103.182 151.101 102.881C150.789 102.574 150.259 102.421 149.511 102.421C148.785 102.421 148.253 102.55 147.914 102.808C147.58 103.061 147.413 103.373 147.413 103.744V103.793H145.937V103.736C145.937 103.037 146.26 102.448 146.905 101.969C147.551 101.485 148.435 101.243 149.56 101.243C150.673 101.243 151.534 101.488 152.142 101.977C152.749 102.461 153.053 103.179 153.053 104.132V107.972C153.053 108.322 153.08 108.653 153.134 108.965C153.193 109.271 153.277 109.543 153.384 109.78V109.909H151.956C151.87 109.774 151.792 109.599 151.722 109.384C151.658 109.169 151.617 108.954 151.601 108.739C151.38 109.094 151.015 109.406 150.504 109.675C149.998 109.938 149.347 110.07 148.551 110.07C147.637 110.07 146.881 109.844 146.284 109.392C145.692 108.935 145.396 108.282 145.396 107.432ZM146.881 107.351C146.881 107.84 147.042 108.22 147.365 108.489C147.688 108.758 148.193 108.892 148.882 108.892C149.57 108.892 150.189 108.688 150.738 108.279C151.292 107.87 151.569 107.434 151.569 106.972V105.778H149.511C148.645 105.778 147.989 105.917 147.543 106.197C147.101 106.477 146.881 106.861 146.881 107.351ZM155.74 113.273V101.485H157.087L157.152 102.647H157.184C157.437 102.281 157.816 101.969 158.322 101.711C158.828 101.453 159.419 101.324 160.097 101.324C161.264 101.324 162.198 101.724 162.897 102.526C163.601 103.322 163.954 104.336 163.954 105.568V105.818C163.954 107.055 163.601 108.074 162.897 108.876C162.198 109.672 161.264 110.07 160.097 110.07C159.419 110.07 158.841 109.96 158.362 109.739C157.889 109.513 157.51 109.217 157.225 108.852V113.273H155.74ZM157.225 107.351C157.413 107.744 157.725 108.093 158.161 108.4C158.596 108.706 159.126 108.86 159.75 108.86C160.675 108.86 161.353 108.572 161.783 107.996C162.219 107.421 162.437 106.695 162.437 105.818V105.568C162.437 104.696 162.219 103.973 161.783 103.397C161.353 102.822 160.675 102.534 159.75 102.534C159.126 102.534 158.596 102.687 158.161 102.994C157.73 103.3 157.418 103.65 157.225 104.043V107.351ZM166.156 101.485H172.24V102.639H167.641V109.909H166.156V101.485ZM173.498 105.826V105.568C173.498 104.298 173.878 103.26 174.636 102.453C175.4 101.646 176.411 101.243 177.67 101.243C178.923 101.243 179.889 101.62 180.567 102.373C181.244 103.126 181.583 104.142 181.583 105.423V106.028H174.37V104.85H180.099V104.737C180.099 104.086 179.905 103.543 179.518 103.107C179.13 102.671 178.528 102.453 177.71 102.453C176.801 102.453 176.118 102.752 175.661 103.349C175.209 103.941 174.983 104.68 174.983 105.568V105.826C174.983 106.714 175.222 107.453 175.701 108.045C176.18 108.637 176.919 108.932 177.92 108.932C178.533 108.932 179.058 108.814 179.493 108.577C179.934 108.341 180.289 108.058 180.558 107.73L181.511 108.513C181.22 108.911 180.768 109.285 180.155 109.634C179.547 109.979 178.802 110.151 177.92 110.151C176.495 110.151 175.4 109.747 174.636 108.94C173.878 108.134 173.498 107.095 173.498 105.826ZM182.753 102.639V101.485H190.241V102.639H187.239V109.909H185.754V102.639H182.753ZM191.999 109.909V101.485H193.468V106.875C193.468 107.036 193.465 107.216 193.46 107.415C193.454 107.609 193.449 107.789 193.443 107.956H193.516C193.591 107.811 193.672 107.66 193.758 107.504C193.85 107.348 193.952 107.19 194.065 107.028L198.01 101.485H199.495V109.909H198.026V104.527C198.026 104.36 198.029 104.177 198.034 103.978C198.045 103.774 198.056 103.588 198.067 103.421H197.97C197.9 103.561 197.819 103.715 197.728 103.881C197.642 104.043 197.542 104.207 197.429 104.374L193.484 109.909H191.999ZM202.206 113.273V101.485H203.553L203.618 102.647H203.65C203.903 102.281 204.282 101.969 204.788 101.711C205.293 101.453 205.885 101.324 206.563 101.324C207.73 101.324 208.663 101.724 209.363 102.526C210.067 103.322 210.42 104.336 210.42 105.568V105.818C210.42 107.055 210.067 108.074 209.363 108.876C208.663 109.672 207.73 110.07 206.563 110.07C205.885 110.07 205.307 109.96 204.828 109.739C204.355 109.513 203.975 109.217 203.69 108.852V113.273H202.206ZM203.69 107.351C203.879 107.744 204.191 108.093 204.626 108.4C205.062 108.706 205.592 108.86 206.216 108.86C207.141 108.86 207.819 108.572 208.249 107.996C208.685 107.421 208.903 106.695 208.903 105.818V105.568C208.903 104.696 208.685 103.973 208.249 103.397C207.819 102.822 207.141 102.534 206.216 102.534C205.592 102.534 205.062 102.687 204.626 102.994C204.196 103.3 203.884 103.65 203.69 104.043V107.351ZM212.114 105.826V105.568C212.114 104.298 212.506 103.26 213.292 102.453C214.082 101.646 215.139 101.243 216.463 101.243C217.781 101.243 218.835 101.646 219.626 102.453C220.416 103.26 220.812 104.298 220.812 105.568V105.826C220.812 107.095 220.416 108.134 219.626 108.94C218.835 109.747 217.781 110.151 216.463 110.151C215.139 110.151 214.082 109.747 213.292 108.94C212.506 108.134 212.114 107.095 212.114 105.826ZM213.622 105.568V105.826C213.622 106.708 213.862 107.448 214.341 108.045C214.819 108.637 215.527 108.932 216.463 108.932C217.399 108.932 218.103 108.637 218.577 108.045C219.055 107.448 219.295 106.708 219.295 105.826V105.568C219.295 104.68 219.055 103.941 218.577 103.349C218.103 102.757 217.399 102.461 216.463 102.461C215.527 102.461 214.819 102.757 214.341 103.349C213.862 103.941 213.622 104.68 213.622 105.568ZM223.006 109.909V101.485H227.25C228.202 101.485 228.945 101.671 229.477 102.042C230.01 102.413 230.276 102.975 230.276 103.728C230.276 104.201 230.136 104.597 229.856 104.914C229.582 105.226 229.211 105.439 228.743 105.552V105.576C229.302 105.667 229.746 105.877 230.074 106.205C230.408 106.533 230.574 106.956 230.574 107.472C230.574 108.241 230.292 108.841 229.727 109.271C229.168 109.696 228.42 109.909 227.484 109.909H223.006ZM224.491 105.051H227.25C227.793 105.051 228.183 104.941 228.42 104.721C228.657 104.495 228.775 104.191 228.775 103.809C228.775 103.432 228.657 103.144 228.42 102.945C228.183 102.741 227.793 102.639 227.25 102.639H224.491V105.051ZM224.491 108.755H227.484C228.038 108.755 228.442 108.637 228.694 108.4C228.953 108.163 229.082 107.851 229.082 107.464C229.082 107.082 228.955 106.775 228.702 106.544C228.45 106.313 228.044 106.197 227.484 106.197H224.491V108.755ZM232.494 107.432C232.494 106.571 232.855 105.904 233.576 105.431C234.302 104.957 235.254 104.721 236.432 104.721H238.667V104.132C238.667 103.599 238.511 103.182 238.199 102.881C237.887 102.574 237.357 102.421 236.609 102.421C235.883 102.421 235.351 102.55 235.012 102.808C234.678 103.061 234.512 103.373 234.512 103.744V103.793H233.035V103.736C233.035 103.037 233.358 102.448 234.003 101.969C234.649 101.485 235.534 101.243 236.658 101.243C237.771 101.243 238.632 101.488 239.24 101.977C239.848 102.461 240.152 103.179 240.152 104.132V107.972C240.152 108.322 240.178 108.653 240.232 108.965C240.291 109.271 240.375 109.543 240.482 109.78V109.909H239.054C238.968 109.774 238.89 109.599 238.82 109.384C238.756 109.169 238.715 108.954 238.699 108.739C238.479 109.094 238.113 109.406 237.602 109.675C237.096 109.938 236.445 110.07 235.649 110.07C234.735 110.07 233.979 109.844 233.382 109.392C232.79 108.935 232.494 108.282 232.494 107.432ZM233.979 107.351C233.979 107.84 234.14 108.22 234.463 108.489C234.786 108.758 235.292 108.892 235.98 108.892C236.669 108.892 237.287 108.688 237.836 108.279C238.39 107.87 238.667 107.434 238.667 106.972V105.778H236.609C235.743 105.778 235.087 105.917 234.641 106.197C234.2 106.477 233.979 106.861 233.979 107.351ZM242.838 101.485H244.323V105.027H248.736V101.485H250.221V109.909H248.736V106.181H244.323V109.909H242.838V101.485ZM252.932 101.485H254.416V105.027H258.83V101.485H260.314V109.909H258.83V106.181H254.416V109.909H252.932V101.485ZM262.549 107.432C262.549 106.571 262.91 105.904 263.63 105.431C264.357 104.957 265.309 104.721 266.487 104.721H268.722V104.132C268.722 103.599 268.566 103.182 268.254 102.881C267.942 102.574 267.412 102.421 266.664 102.421C265.938 102.421 265.405 102.55 265.067 102.808C264.733 103.061 264.566 103.373 264.566 103.744V103.793H263.09V103.736C263.09 103.037 263.412 102.448 264.058 101.969C264.703 101.485 265.588 101.243 266.713 101.243C267.826 101.243 268.687 101.488 269.295 101.977C269.902 102.461 270.206 103.179 270.206 104.132V107.972C270.206 108.322 270.233 108.653 270.287 108.965C270.346 109.271 270.43 109.543 270.537 109.78V109.909H269.109C269.023 109.774 268.945 109.599 268.875 109.384C268.81 109.169 268.77 108.954 268.754 108.739C268.533 109.094 268.168 109.406 267.657 109.675C267.151 109.938 266.5 110.07 265.704 110.07C264.79 110.07 264.034 109.844 263.437 109.392C262.845 108.935 262.549 108.282 262.549 107.432ZM264.034 107.351C264.034 107.84 264.195 108.22 264.518 108.489C264.841 108.758 265.346 108.892 266.035 108.892C266.723 108.892 267.342 108.688 267.891 108.279C268.445 107.87 268.722 107.434 268.722 106.972V105.778H266.664C265.798 105.778 265.142 105.917 264.695 106.197C264.254 106.477 264.034 106.861 264.034 107.351ZM274.006 109.909H272.384L275.16 106.278L276.637 106.407L274.006 109.909ZM278.476 109.909V106.826H276.072L275.902 106.738C274.853 106.738 274.049 106.506 273.49 106.044C272.93 105.576 272.651 104.949 272.651 104.164C272.651 103.352 272.93 102.703 273.49 102.219C274.055 101.73 274.859 101.485 275.902 101.485H279.961V109.909H278.476ZM275.902 105.673H278.476V102.639H275.902C275.252 102.639 274.794 102.784 274.531 103.075C274.267 103.36 274.135 103.723 274.135 104.164C274.135 104.61 274.264 104.973 274.523 105.253C274.786 105.533 275.246 105.673 275.902 105.673Z" fill="#04101C"/>
</g>
<g filter="url(#filter2_dd_493_80977)">
<rect x="177.828" y="201.227" width="154.172" height="131.735" rx="16.5246" fill="white"/>
<path d="M272.265 237.663H237.563C236.406 237.663 235.635 236.892 235.635 235.735C235.635 234.579 236.406 233.808 237.563 233.808H272.265C273.421 233.808 274.193 234.579 274.193 235.735C274.193 236.892 273.421 237.663 272.265 237.663Z" fill="url(#paint6_radial_493_80977)"/>
<path d="M272.265 260.798H254.914C253.757 260.798 252.986 260.027 252.986 258.87C252.986 257.713 253.757 256.942 254.914 256.942H272.265C273.421 256.942 274.193 257.713 274.193 258.87C274.193 260.027 273.421 260.798 272.265 260.798Z" fill="url(#paint7_radial_493_80977)"/>
<path d="M272.265 249.231H254.914C253.757 249.231 252.986 248.459 252.986 247.303C252.986 246.146 253.757 245.375 254.914 245.375H272.265C273.421 245.375 274.193 246.146 274.193 247.303C274.193 248.459 273.421 249.231 272.265 249.231Z" fill="url(#paint8_radial_493_80977)"/>
<path d="M272.265 272.365H237.563C236.406 272.365 235.635 271.594 235.635 270.437C235.635 269.28 236.406 268.509 237.563 268.509H272.265C273.421 268.509 274.193 269.28 274.193 270.437C274.193 271.594 273.421 272.365 272.265 272.365Z" fill="url(#paint9_radial_493_80977)"/>
<path d="M239.105 262.918C238.527 262.918 237.949 262.726 237.563 262.533C236.406 261.955 235.635 260.798 235.635 259.448V246.724C235.635 245.375 236.406 244.218 237.563 243.64C238.72 243.061 240.069 243.254 241.226 244.025L249.709 250.387C250.48 250.966 251.058 251.93 251.058 253.086C251.058 254.243 250.48 255.207 249.709 255.978L241.226 262.34C240.648 262.726 239.877 262.918 239.105 262.918ZM239.491 247.495V258.677L247.01 253.086L239.491 247.495Z" fill="url(#paint10_radial_493_80977)"/>
<path d="M210.796 303.135L205.535 297.173L206.802 296.511L212.684 303.135H210.796ZM204.22 296.446H206.011L210.586 291.387H212.305L206.56 297.705H204.22V296.446ZM203.454 303.135V291.387H204.987V303.135H203.454ZM213.523 299.053V298.794C213.523 297.525 213.916 296.487 214.701 295.68C215.492 294.873 216.549 294.47 217.872 294.47C219.19 294.47 220.244 294.873 221.035 295.68C221.826 296.487 222.221 297.525 222.221 298.794V299.053C222.221 300.322 221.826 301.36 221.035 302.167C220.244 302.974 219.19 303.377 217.872 303.377C216.549 303.377 215.492 302.974 214.701 302.167C213.916 301.36 213.523 300.322 213.523 299.053ZM215.032 298.794V299.053C215.032 299.935 215.271 300.674 215.75 301.271C216.229 301.863 216.936 302.159 217.872 302.159C218.808 302.159 219.513 301.863 219.986 301.271C220.465 300.674 220.704 299.935 220.704 299.053V298.794C220.704 297.907 220.465 297.167 219.986 296.575C219.513 295.984 218.808 295.688 217.872 295.688C216.936 295.688 216.229 295.984 215.75 296.575C215.271 297.167 215.032 297.907 215.032 298.794ZM224.415 294.712H225.9V298.254H230.313V294.712H231.798V303.135H230.313V299.408H225.9V303.135H224.415V294.712ZM233.565 295.865V294.712H241.053V295.865H238.051V303.135H236.566V295.865H233.565ZM242.303 299.053V298.794C242.303 297.525 242.682 296.487 243.441 295.68C244.204 294.873 245.216 294.47 246.474 294.47C247.728 294.47 248.693 294.846 249.371 295.599C250.049 296.352 250.388 297.369 250.388 298.649V299.254H243.174V298.076H248.903V297.963C248.903 297.312 248.709 296.769 248.322 296.333C247.935 295.898 247.332 295.68 246.515 295.68C245.606 295.68 244.922 295.978 244.465 296.575C244.013 297.167 243.787 297.907 243.787 298.794V299.053C243.787 299.94 244.027 300.68 244.506 301.271C244.984 301.863 245.724 302.159 246.724 302.159C247.338 302.159 247.862 302.041 248.298 301.804C248.739 301.567 249.094 301.285 249.363 300.957L250.315 301.739C250.025 302.137 249.573 302.511 248.959 302.861C248.352 303.205 247.607 303.377 246.724 303.377C245.299 303.377 244.204 302.974 243.441 302.167C242.682 301.36 242.303 300.322 242.303 299.053ZM258.44 303.135L254.761 299.311L255.656 298.318L260.312 303.135H258.44ZM253.244 298.254H254.841L258.157 294.712H259.924L255.462 299.408H253.244V298.254ZM253.986 294.712V303.135H252.501V294.712H253.986ZM261.199 299.053V298.794C261.199 297.519 261.576 296.481 262.329 295.68C263.087 294.873 264.131 294.47 265.459 294.47C266.686 294.47 267.616 294.773 268.251 295.381C268.891 295.984 269.211 296.662 269.211 297.415V297.463H267.751V297.415C267.751 296.941 267.568 296.535 267.202 296.196C266.842 295.852 266.261 295.68 265.459 295.68C264.518 295.68 263.824 295.976 263.378 296.567C262.931 297.159 262.708 297.901 262.708 298.794V299.053C262.708 299.94 262.931 300.682 263.378 301.279C263.824 301.871 264.515 302.167 265.451 302.167C266.258 302.167 266.842 301.998 267.202 301.659C267.568 301.314 267.751 300.903 267.751 300.424V300.376H269.211V300.424C269.211 301.183 268.891 301.866 268.251 302.474C267.616 303.076 266.683 303.377 265.451 303.377C264.128 303.377 263.087 302.977 262.329 302.175C261.576 301.368 261.199 300.327 261.199 299.053ZM270.276 295.865V294.712H277.764V295.865H274.762V303.135H273.277V295.865H270.276ZM279.522 294.712H281.007V298.254H285.42V294.712H286.905V303.135H285.42V299.408H281.007V303.135H279.522V294.712ZM289.14 300.658C289.14 299.798 289.5 299.131 290.221 298.657C290.947 298.184 291.899 297.947 293.077 297.947H295.312V297.358C295.312 296.826 295.156 296.409 294.844 296.107C294.532 295.801 294.002 295.648 293.255 295.648C292.529 295.648 291.996 295.777 291.657 296.035C291.324 296.288 291.157 296.6 291.157 296.971V297.019H289.68V296.963C289.68 296.263 290.003 295.674 290.649 295.196C291.294 294.712 292.179 294.47 293.303 294.47C294.417 294.47 295.277 294.714 295.885 295.204C296.493 295.688 296.797 296.406 296.797 297.358V301.199C296.797 301.548 296.824 301.879 296.878 302.191C296.937 302.498 297.02 302.769 297.128 303.006V303.135H295.7C295.613 303.001 295.535 302.826 295.466 302.611C295.401 302.396 295.361 302.18 295.345 301.965C295.124 302.32 294.758 302.632 294.247 302.901C293.742 303.165 293.091 303.297 292.295 303.297C291.38 303.297 290.624 303.071 290.027 302.619C289.436 302.162 289.14 301.508 289.14 300.658ZM290.624 300.577C290.624 301.067 290.786 301.446 291.108 301.715C291.431 301.984 291.937 302.119 292.625 302.119C293.314 302.119 293.933 301.914 294.481 301.505C295.035 301.097 295.312 300.661 295.312 300.198V299.004H293.255C292.389 299.004 291.732 299.144 291.286 299.424C290.845 299.703 290.624 300.088 290.624 300.577ZM300.597 303.135H298.975L301.751 299.504L303.227 299.633L300.597 303.135ZM305.067 303.135V300.053H302.662L302.493 299.964C301.444 299.964 300.64 299.733 300.08 299.27C299.521 298.802 299.241 298.176 299.241 297.39C299.241 296.578 299.521 295.93 300.08 295.446C300.645 294.956 301.449 294.712 302.493 294.712H306.552V303.135H305.067ZM302.493 298.899H305.067V295.865H302.493C301.842 295.865 301.385 296.011 301.121 296.301C300.858 296.586 300.726 296.949 300.726 297.39C300.726 297.837 300.855 298.2 301.113 298.48C301.377 298.759 301.837 298.899 302.493 298.899Z" fill="#04101C"/>
</g>
<defs>
<filter id="filter0_dd_493_80977" x="0" y="219.265" width="140.134" height="151.735" filterUnits="userSpaceOnUse" color-interpolation-filters="sRGB">
<feFlood flood-opacity="0" result="BackgroundImageFix"/>
<feColorMatrix in="SourceAlpha" type="matrix" values="0 0 0 0 0 0 0 0 0 0 0 0 0 0 0 0 0 0 127 0" result="hardAlpha"/>
<feOffset dx="1" dy="2"/>
<feGaussianBlur stdDeviation="5"/>
<feComposite in2="hardAlpha" operator="out"/>
<feColorMatrix type="matrix" values="0 0 0 0 0.00780001 0 0 0 0 0.045344 0 0 0 0 0.0800001 0 0 0 0.04 0"/>
<feBlend mode="normal" in2="BackgroundImageFix" result="effect1_dropShadow_493_80977"/>
<feColorMatrix in="SourceAlpha" type="matrix" values="0 0 0 0 0 0 0 0 0 0 0 0 0 0 0 0 0 0 127 0" result="hardAlpha"/>
<feOffset dx="0.72619" dy="1.45238"/>
<feGaussianBlur stdDeviation="3.63095"/>
<feComposite in2="hardAlpha" operator="out"/>
<feColorMatrix type="matrix" values="0 0 0 0 0.00780001 0 0 0 0 0.045344 0 0 0 0 0.0800001 0 0 0 0.04 0"/>
<feBlend mode="normal" in2="effect1_dropShadow_493_80977" result="effect2_dropShadow_493_80977"/>
<feBlend mode="normal" in="SourceGraphic" in2="effect2_dropShadow_493_80977" result="shape"/>
</filter>
<filter id="filter1_dd_493_80977" x="101.277" y="0" width="215.217" height="151.735" filterUnits="userSpaceOnUse" color-interpolation-filters="sRGB">
<feFlood flood-opacity="0" result="BackgroundImageFix"/>
<feColorMatrix in="SourceAlpha" type="matrix" values="0 0 0 0 0 0 0 0 0 0 0 0 0 0 0 0 0 0 127 0" result="hardAlpha"/>
<feOffset dx="1" dy="2"/>
<feGaussianBlur stdDeviation="5"/>
<feComposite in2="hardAlpha" operator="out"/>
<feColorMatrix type="matrix" values="0 0 0 0 0.00780001 0 0 0 0 0.045344 0 0 0 0 0.0800001 0 0 0 0.04 0"/>
<feBlend mode="normal" in2="BackgroundImageFix" result="effect1_dropShadow_493_80977"/>
<feColorMatrix in="SourceAlpha" type="matrix" values="0 0 0 0 0 0 0 0 0 0 0 0 0 0 0 0 0 0 127 0" result="hardAlpha"/>
<feOffset dx="0.72619" dy="1.45238"/>
<feGaussianBlur stdDeviation="3.63095"/>
<feComposite in2="hardAlpha" operator="out"/>
<feColorMatrix type="matrix" values="0 0 0 0 0.00780001 0 0 0 0 0.045344 0 0 0 0 0.0800001 0 0 0 0.04 0"/>
<feBlend mode="normal" in2="effect1_dropShadow_493_80977" result="effect2_dropShadow_493_80977"/>
<feBlend mode="normal" in="SourceGraphic" in2="effect2_dropShadow_493_80977" result="shape"/>
</filter>
<filter id="filter2_dd_493_80977" x="168.828" y="193.227" width="174.172" height="151.735" filterUnits="userSpaceOnUse" color-interpolation-filters="sRGB">
<feFlood flood-opacity="0" result="BackgroundImageFix"/>
<feColorMatrix in="SourceAlpha" type="matrix" values="0 0 0 0 0 0 0 0 0 0 0 0 0 0 0 0 0 0 127 0" result="hardAlpha"/>
<feOffset dx="1" dy="2"/>
<feGaussianBlur stdDeviation="5"/>
<feComposite in2="hardAlpha" operator="out"/>
<feColorMatrix type="matrix" values="0 0 0 0 0.00780001 0 0 0 0 0.045344 0 0 0 0 0.0800001 0 0 0 0.04 0"/>
<feBlend mode="normal" in2="BackgroundImageFix" result="effect1_dropShadow_493_80977"/>
<feColorMatrix in="SourceAlpha" type="matrix" values="0 0 0 0 0 0 0 0 0 0 0 0 0 0 0 0 0 0 127 0" result="hardAlpha"/>
<feOffset dx="0.72619" dy="1.45238"/>
<feGaussianBlur stdDeviation="3.63095"/>
<feComposite in2="hardAlpha" operator="out"/>
<feColorMatrix type="matrix" values="0 0 0 0 0.00780001 0 0 0 0 0.045344 0 0 0 0 0.0800001 0 0 0 0.04 0"/>
<feBlend mode="normal" in2="effect1_dropShadow_493_80977" result="effect2_dropShadow_493_80977"/>
<feBlend mode="normal" in="SourceGraphic" in2="effect2_dropShadow_493_80977" result="shape"/>
</filter>
<linearGradient id="paint0_linear_493_80977" x1="208.07" y1="292.043" x2="207.705" y2="298.82" gradientUnits="userSpaceOnUse">
<stop offset="0.338542" stop-color="#7A73FF"/>
<stop offset="0.734375" stop-color="#75CDFF"/>
<stop offset="1" stop-color="#4AFCF1"/>
</linearGradient>
<linearGradient id="paint1_linear_493_80977" x1="146.566" y1="1.2164" x2="0.729016" y2="91.2354" gradientUnits="userSpaceOnUse">
<stop offset="0.338542" stop-color="#7A73FF"/>
<stop offset="0.734375" stop-color="#75CDFF"/>
<stop offset="1" stop-color="#4AFCF1"/>
</linearGradient>
<radialGradient id="paint2_radial_493_80977" cx="0" cy="0" r="1" gradientUnits="userSpaceOnUse" gradientTransform="translate(71.1325 280.501) rotate(99.7276) scale(26.1963)">
<stop offset="0.338542" stop-color="#7A73FF"/>
<stop offset="0.734375" stop-color="#75CDFF"/>
<stop offset="1" stop-color="#4AFCF1"/>
</radialGradient>
<radialGradient id="paint3_radial_493_80977" cx="0" cy="0" r="1" gradientUnits="userSpaceOnUse" gradientTransform="translate(71.1325 280.501) rotate(99.7276) scale(26.1963)">
<stop offset="0.338542" stop-color="#7A73FF"/>
<stop offset="0.734375" stop-color="#75CDFF"/>
<stop offset="1" stop-color="#4AFCF1"/>
</radialGradient>
<radialGradient id="paint4_radial_493_80977" cx="0" cy="0" r="1" gradientUnits="userSpaceOnUse" gradientTransform="translate(207.886 59.8597) rotate(99.7276) scale(24.4499)">
<stop offset="0.338542" stop-color="#7A73FF"/>
<stop offset="0.734375" stop-color="#75CDFF"/>
<stop offset="1" stop-color="#4AFCF1"/>
</radialGradient>
<radialGradient id="paint5_radial_493_80977" cx="0" cy="0" r="1" gradientUnits="userSpaceOnUse" gradientTransform="translate(207.886 59.8597) rotate(99.7276) scale(24.4499)">
<stop offset="0.338542" stop-color="#7A73FF"/>
<stop offset="0.734375" stop-color="#75CDFF"/>
<stop offset="1" stop-color="#4AFCF1"/>
</radialGradient>
<radialGradient id="paint6_radial_493_80977" cx="0" cy="0" r="1" gradientUnits="userSpaceOnUse" gradientTransform="translate(254.914 253.086) rotate(99.7276) scale(24.4499)">
<stop offset="0.338542" stop-color="#7A73FF"/>
<stop offset="0.734375" stop-color="#75CDFF"/>
<stop offset="1" stop-color="#4AFCF1"/>
</radialGradient>
<radialGradient id="paint7_radial_493_80977" cx="0" cy="0" r="1" gradientUnits="userSpaceOnUse" gradientTransform="translate(254.914 253.086) rotate(99.7276) scale(24.4499)">
<stop offset="0.338542" stop-color="#7A73FF"/>
<stop offset="0.734375" stop-color="#75CDFF"/>
<stop offset="1" stop-color="#4AFCF1"/>
</radialGradient>
<radialGradient id="paint8_radial_493_80977" cx="0" cy="0" r="1" gradientUnits="userSpaceOnUse" gradientTransform="translate(254.914 253.086) rotate(99.7276) scale(24.4499)">
<stop offset="0.338542" stop-color="#7A73FF"/>
<stop offset="0.734375" stop-color="#75CDFF"/>
<stop offset="1" stop-color="#4AFCF1"/>
</radialGradient>
<radialGradient id="paint9_radial_493_80977" cx="0" cy="0" r="1" gradientUnits="userSpaceOnUse" gradientTransform="translate(254.914 253.086) rotate(99.7276) scale(24.4499)">
<stop offset="0.338542" stop-color="#7A73FF"/>
<stop offset="0.734375" stop-color="#75CDFF"/>
<stop offset="1" stop-color="#4AFCF1"/>
</radialGradient>
<radialGradient id="paint10_radial_493_80977" cx="0" cy="0" r="1" gradientUnits="userSpaceOnUse" gradientTransform="translate(254.914 253.086) rotate(99.7276) scale(24.4499)">
<stop offset="0.338542" stop-color="#7A73FF"/>
<stop offset="0.734375" stop-color="#75CDFF"/>
<stop offset="1" stop-color="#4AFCF1"/>
</radialGradient>
</defs>
</svg>
