<svg width="364" height="241" viewBox="0 0 364 241" fill="none" xmlns="http://www.w3.org/2000/svg">
<path d="M281.208 171.368C279.897 171.682 278.431 172.231 277.969 172.545C276.812 173.25 276.735 176.152 277.892 176.152C278.354 176.152 280.591 177.72 282.982 179.681C285.296 181.641 287.687 183.21 288.304 183.21C288.843 183.21 289.229 183.68 289.075 184.151C288.921 184.7 288.381 186.817 287.841 188.856C286.684 193.248 285.296 194.032 277.12 194.424C272.107 194.738 262.081 193.326 255.757 191.444C253.597 190.817 252.672 192.306 254.523 193.326C256.528 194.424 268.791 197.325 271.49 197.325C272.724 197.325 275.038 197.874 276.503 198.502C280.128 199.992 287.07 200.07 289.075 198.502C289.846 197.874 291.774 197.325 293.24 197.325C297.327 197.325 301.878 195.757 303.42 193.953C305.348 191.758 304.654 191.444 300.952 192.934C299.255 193.64 295.785 194.189 293.24 194.189H288.535L289.692 191.914C290.386 190.66 291.08 188.229 291.389 186.582C291.774 184.151 292.623 182.896 295.168 180.779C300.721 176.309 301.415 173.407 297.404 171.604C295.322 170.584 285.064 170.506 281.208 171.368ZM296.556 174.505C297.25 175.211 291.234 180.073 289.769 180.073C288.226 180.073 281.439 174.662 282.519 174.27C285.913 173.015 295.245 173.25 296.556 174.505Z" fill="#00D4FF"/>
<path d="M269.331 202.344C269.331 202.893 271.105 204.226 273.341 205.167C276.581 206.579 278.2 206.814 281.748 206.422C287.147 205.873 292.468 203.834 292.468 202.344C292.468 201.011 292.7 201.011 287.301 202.423C284.91 203.05 281.439 203.599 279.665 203.599C277.892 203.599 274.961 203.05 273.187 202.423C269.176 201.011 269.331 201.011 269.331 202.344Z" fill="#00D4FF"/>
<path fill-rule="evenodd" clip-rule="evenodd" d="M198.684 2.76561C198.915 3.15771 198.375 3.62822 197.373 3.9419C196.37 4.17716 193.439 5.74556 190.817 7.4708C187.809 9.50972 186.035 10.2939 186.035 9.58814C186.035 8.255 183.181 7.0787 176.78 5.74556C172.152 4.7261 171.381 4.80452 166.754 6.45134C160.198 8.6471 140.608 16.7243 127.42 22.449C115.542 27.7031 104.436 31.6241 76.594 40.564C65.7964 44.0145 55.3073 47.7786 53.2249 48.7981C48.4431 51.2291 37.7998 61.0316 8.64638 89.7333C-24.2862 122.121 -46.1899 144.862 -57.1417 158.115C-58.5822 159.842 -60.0767 161.637 -61.5265 163.377L-61.5299 163.381L-61.5332 163.385C-65.2816 167.885 -68.7305 172.025 -70.1759 173.721C-74.1093 178.269 -74.6492 180.465 -72.4897 183.131C-71.1785 184.778 -71.4099 185.092 -89.6115 203.756C-114.292 229.164 -124.627 240.848 -131.028 250.494C-135.578 257.473 -136.35 259.042 -136.35 262.022C-136.35 266.649 -134.807 267.511 -126.709 267.433C-120.616 267.276 -90.9227 262.571 -72.3354 258.807C-59.2241 256.062 -28.8366 248.298 -11.252 243.123C4.17311 238.653 47.9033 223.126 50.6027 221.165C51.5282 220.538 54.1504 217.793 56.4642 215.048C58.778 212.225 65.1794 204.932 70.7324 198.737L80.6816 187.523L88.4713 187.444C96.261 187.366 109.449 184.935 113.614 182.739C115.774 181.641 120.016 174.976 132.433 153.018C136.366 146.117 140.531 138.824 141.765 136.785L143.925 133.178L145.236 136.158C146.007 137.883 147.935 141.098 149.632 143.372C149.825 143.644 150.092 144.019 150.424 144.484C150.846 145.075 151.372 145.812 151.984 146.669L152.002 146.693C154.942 150.811 159.847 157.681 164.671 164.467C171.304 173.799 177.628 182.033 178.862 182.896C180.019 183.68 184.03 185.954 187.655 187.915C191.357 189.875 196.987 193.718 200.149 196.541L205.933 201.638L206.473 208.147C207.476 219.361 206.628 226.733 203.851 233.006L201.769 244.142C204.237 240.692 208.324 232.065 209.558 227.517C210.638 223.91 210.792 221.243 210.407 215.362C210.175 211.284 209.713 207.128 209.481 206.108C208.864 203.991 209.481 203.913 212.104 205.873C215.42 208.226 226.14 214.499 231.539 217.322C239.175 221.243 250.666 225.321 262.312 228.38C273.573 231.36 278.509 231.595 282.905 229.321L285.296 228.144L285.758 233.712C285.954 236.26 286.304 238.585 286.812 240.7L292.733 245.937C291.678 244.343 291.302 242.804 290.617 239.672C289.923 236.457 289.152 232.222 288.921 230.262L288.458 226.733L298.407 220.067C314.063 209.559 322.316 202.815 331.031 193.64C340.903 183.21 343.68 178.661 345.762 169.408C346.61 165.565 348.23 160.546 349.233 158.194C350.312 155.841 352.086 151.058 353.089 147.607C354.169 144.078 355.634 140.393 356.405 139.295C358.719 135.844 361.881 127.924 363.115 122.121C364.658 115.141 364.041 113.808 359.259 114.514C357.485 114.828 354.709 115.22 352.935 115.455L349.85 115.926L350.467 110.122C351.701 99.1437 349.156 78.2056 345.068 65.1879C344.22 62.6 343.294 58.3653 343.063 55.8559C342.214 47.7002 335.967 35.4667 328.563 27.4679C327.098 25.8995 326.558 24.8016 327.098 24.4879C327.56 24.1742 327.946 23.39 327.946 22.6843C327.946 21.8216 327.483 21.5864 325.941 21.9785C324.398 22.3706 322.933 21.9001 319.925 19.8611C315.837 17.1164 309.205 13.8228 307.893 13.8228C307.508 13.8228 307.122 13.5876 307.122 13.1955C307.122 12.8818 304.654 12.5681 301.723 12.4113C297.713 12.2544 295.013 11.5486 291.08 9.8234C288.226 8.49026 282.828 6.2945 278.971 4.96136L269.419 2.0597L251.746 0.58093C241.411 0.42409 234.47 2.13825 234.624 2.29509C235.164 2.84403 247.427 5.98082 248.892 5.98082C249.509 5.98082 250.049 5.43188 250.049 4.80452C250.049 3.31455 253.828 3.31455 264.703 4.7261C277.583 6.52976 290.309 11.8623 306.119 22.1353C313.215 26.7621 316.146 34.6825 316.917 51.2291C317.38 60.3258 317.303 60.8748 315.914 60.8748C313.755 60.8748 309.359 63.8547 304.5 68.5599C300.566 72.4025 300.335 72.873 300.644 75.6177C301.261 80.2445 303.883 91.3017 305.811 97.7321C307.431 103.143 307.739 103.614 309.744 103.849C311.673 104.084 312.829 103.222 317.843 97.9674C324.244 91.3017 328.64 83.4597 329.257 77.8135C329.566 75.304 329.103 73.2651 327.329 69.2657C326.018 66.3642 324.475 63.8547 323.935 63.6195C323.164 63.3058 322.856 59.9337 322.624 49.8176C322.393 36.7214 322.393 36.4077 323.858 37.2704C326.943 38.9172 334.116 48.9549 338.281 57.4243C343.834 68.7952 347.459 88.557 347.073 105.417L346.842 115.063L344.991 114.828C343.525 114.671 342.908 113.808 342.06 110.671C341.443 108.476 340.595 106.123 340.209 105.417C339.823 104.633 339.515 103.457 339.515 102.829C339.515 102.202 339.052 101.653 338.435 101.653C337.51 101.653 337.432 102.202 338.049 104.163C338.435 105.574 338.744 107.613 338.744 108.711C338.744 110.515 338.512 110.671 334.579 110.75C328.794 110.828 322.624 114.122 316.3 120.474L311.21 125.571L312.984 121.101C316.609 111.612 321.776 104.711 328.717 99.9279C330.491 98.6731 330.491 98.5947 329.103 98.5947C324.861 98.4379 314.912 108.946 311.133 117.415C306.274 128.394 302.649 144.706 303.497 151.293C304.037 155.214 306.12 159.605 307.662 160.233C310.824 161.487 329.951 155.371 337.047 150.822C341.289 148.078 341.289 146.117 337.124 142.431L333.885 139.608L338.358 126.904H341.906L345.531 126.826L344.837 129.963C344.451 131.766 343.988 140.471 343.834 149.332C343.371 173.015 341.597 177.877 328.409 191.758C315.143 205.716 283.059 227.909 276.195 227.909C272.801 227.909 253.906 222.733 244.959 219.283C228.223 212.853 209.79 201.325 197.373 189.483C184.415 177.015 180.636 169.643 174.466 144C171.304 130.904 170.687 129.1 169.376 129.1C168.605 129.1 168.296 129.649 168.528 130.433C169.299 133.413 170.61 139.295 172.615 148.705C175.006 160.233 179.479 172.545 183.721 179.132L186.729 183.837L184.107 182.347C180.482 180.151 178.014 177.485 172.924 170.271C171.625 168.396 169.097 164.809 166.169 160.654L166.165 160.649L166.162 160.644C163.701 157.152 160.958 153.26 158.424 149.646C152.408 141.177 147.935 133.962 147.472 132.158C146.624 129.1 146.701 128.786 151.406 121.415C154.028 117.259 156.342 113.651 156.496 113.494C156.573 113.338 158.81 114.984 161.278 117.18C165.288 120.788 167.525 122.042 167.525 120.866C167.525 120.709 166.831 119.141 165.982 117.494C165.134 115.847 164.054 111.691 163.592 108.162L162.666 101.888L166.522 95.85C170.07 90.2038 170.379 89.8901 171.535 91.2233C172.23 92.0075 173.001 93.4974 173.309 94.5953C174.235 97.4968 182.41 114.828 185.11 119.454C187.963 124.316 187.269 124.709 181.408 121.65C179.325 120.552 177.243 119.69 176.78 119.69C175.392 119.69 175.932 122.042 178.631 127.375C183.721 137.726 186.421 141.334 193.516 147.137C201.46 153.646 207.707 155.763 224.058 157.331C227.991 157.723 234.007 158.586 237.555 159.37C243.802 160.703 243.956 160.703 246.039 159.135C248.892 156.939 250.126 150.822 250.203 137.726C250.281 123.532 248.815 116.082 244.265 106.672C241.411 100.79 239.637 98.3595 235.704 94.7521C228.3 87.8512 217.425 82.5971 214.494 84.4792C213.646 84.9497 213.646 85.1849 214.572 85.4986C224.212 88.9491 230.768 92.9485 235.704 98.5163C241.488 105.104 246.964 120.16 246.964 129.649V133.256L244.265 127.767C241.026 121.258 232.079 111.142 223.595 104.555C216.808 99.3005 207.013 93.419 202.848 92.0859C199.301 90.988 199.224 90.2822 202.231 88.7138C203.543 88.008 204.545 86.9886 204.545 86.3612C204.545 84.9497 200.843 85.9691 197.604 88.3217C195.367 89.8901 194.905 89.9685 188.117 89.1059C178.785 88.008 172.692 86.2828 173.464 84.8712C173.745 84.3701 176.856 79.6854 180.564 74.0996L181.639 72.4809L189.274 61.0316L193.593 60.2474C198.607 59.3848 199.686 59.62 200.38 61.8942C201.537 65.8152 204.545 65.1879 204.622 60.9532C204.622 59.3848 204.854 57.5811 205.162 56.8753C205.779 55.5422 210.638 49.4254 216.191 43.2303C218.119 41.1129 221.359 36.8783 223.441 33.9767C225.446 30.9968 227.606 28.4089 228.146 28.1737C232.156 26.6053 238.866 36.1725 246.733 54.6012C249.278 60.4042 249.278 60.7179 247.736 64.1684C246.964 66.0505 245.884 71.3046 245.422 76.0098L244.496 84.4007L247.736 88.3217C252.209 93.7327 260.77 101.653 263.469 102.829C268.174 104.868 269.716 102.986 272.339 92.2427C275.501 79.1466 275.424 72.1672 272.03 68.011C270.102 65.8152 258.764 59.3064 256.605 59.3064C256.065 59.3064 255.294 58.5222 255.062 57.5027C253.828 53.1896 249.664 42.8382 247.196 37.7409C243.108 29.5852 240.177 25.7426 235.241 22.2922C232.773 20.6453 230.768 18.9201 230.768 18.6064C230.768 18.2143 231.616 16.0186 232.696 13.666C234.778 9.19604 235.087 5.98082 233.853 3.5498C233.159 2.29509 232.079 0.58093 227.683 0.58093L222.67 2.13825L226.757 4.17716C231.308 6.52976 231.616 7.54922 229.225 12.9602C227.374 16.9596 227.22 21.1159 228.84 22.449C230.536 23.8606 230.228 24.5663 227.683 25.0369C225.909 25.429 224.212 27.0758 220.587 32.0946C217.888 35.7804 212.489 42.4461 208.633 47.0728C204.699 51.6212 201.46 55.7775 201.46 56.1696C201.46 56.5617 200.458 56.7185 199.301 56.4832C198.067 56.248 195.83 56.4048 194.21 56.7969C191.511 57.5811 191.357 57.5811 191.897 55.9343C192.128 54.9933 192.436 54.2091 192.514 54.2091C192.514 54.2091 195.599 52.1701 199.224 49.6607C209.404 42.7598 219.122 33.1141 222.67 26.37C228.068 15.8617 227.066 8.09816 219.662 4.25558C219.234 4.02534 218.854 3.79628 218.483 3.57346C216.584 2.4303 214.958 1.45157 208.633 1.32032C203.388 1.16348 198.452 2.37351 198.684 2.76561ZM215.651 6.05924C217.271 6.52976 219.508 7.78448 220.51 8.80394C222.284 10.6076 222.438 11.3134 222.13 15.7049C221.744 22.7627 218.891 27.9384 211.718 35.153C200.766 46.2102 193.902 50.6802 187.732 50.9939C182.873 51.2291 177.937 53.268 176.703 55.4638C175.777 57.2674 173.849 57.3459 171.613 55.7775C168.836 53.817 167.525 50.1312 167.525 44.4066C167.525 37.4272 170.379 31.5457 177.706 23.6253C185.881 14.7639 194.596 9.19604 204.545 6.45134C209.713 5.03978 211.795 4.96136 215.651 6.05924ZM177.783 9.19604C180.174 9.74498 182.179 10.3723 182.179 10.686C182.179 11.8623 167.294 28.8794 164.594 30.6831C163.052 31.781 160.738 32.6436 159.427 32.6436C156.496 32.6436 155.185 33.8983 155.185 36.5646C155.185 39.4661 153.257 42.2108 144.696 51.5428C144.249 52.0329 143.819 52.5061 143.404 52.9631C138.66 58.1817 135.829 61.2964 132.402 63.4164C127.328 66.5549 120.948 67.5129 105.122 69.8893C104.11 70.0413 103.06 70.1991 101.968 70.3636C93.2531 71.6967 82.6869 73.4219 78.445 74.2061C69.5755 76.0098 32.8638 85.3418 28.3134 86.9886C24.7656 88.3217 13.5824 96.4774 4.40446 104.398C-14.337 120.709 -18.7332 124.709 -27.217 133.021C-32.3073 138.04 -40.097 145.49 -44.5702 149.568L-52.6684 156.939L-46.3441 149.881C-36.8577 139.216 20.1381 82.205 38.4939 64.9526C51.6824 52.5622 53.3792 51.5428 69.3442 46.3671C103.279 35.3883 117.085 30.4478 128.577 25.3505C135.364 22.3706 143.539 18.9201 146.701 17.6654C149.863 16.4891 156.496 13.9012 161.355 11.9407C171.15 8.01974 171.535 7.94132 177.783 9.19604ZM307.354 17.3517C310.284 18.8417 319.616 27.3895 323.01 31.5457L325.709 34.9962L323.319 34.4472C320.311 33.8983 319.539 34.9178 319.385 39.3093C319.308 42.2108 319.231 42.1324 318.614 38.133C317.457 29.6636 313.292 22.7627 307.276 18.9201C303.035 16.2538 303.112 15.0775 307.354 17.3517ZM332.034 37.2704C334.193 41.0345 333.191 40.1719 328.717 34.3688C327.61 32.9806 326.415 31.4666 325.351 30.1191L325.35 30.1183C324.191 28.6497 323.187 27.3788 322.624 26.6837C321.545 25.3505 322.856 26.6837 325.632 29.5852C328.409 32.4867 331.262 35.9372 332.034 37.2704ZM236.707 27.6247C239.483 29.8989 241.026 32.4083 245.036 40.7993C247.736 46.4455 250.126 51.9349 250.358 53.0328C250.666 54.1306 248.969 51.0723 246.733 46.2102C241.72 35.9372 238.48 30.8399 234.701 27.3895C230.922 23.939 232.542 24.0958 236.707 27.6247ZM162.512 38.9172C161.432 41.0345 160.044 45.1908 159.35 48.0923C158.733 51.0723 157.422 54.4443 156.573 55.7775C155.725 57.0322 155.262 57.4243 155.57 56.5617C155.956 55.2285 157.19 46.2887 157.422 42.8382C157.653 38.3682 158.501 36.7214 160.815 35.9372C161.256 35.8126 161.69 35.6879 162.088 35.5734C162.943 35.3275 163.637 35.1281 163.9 35.0746C164.209 34.9962 163.592 36.7214 162.512 38.9172ZM163.129 48.406C162.666 48.8765 162.589 48.1707 162.82 46.6023C163.129 44.4066 163.283 44.3282 163.514 45.8965C163.669 46.916 163.514 48.0139 163.129 48.406ZM153.642 52.7975C152.485 60.5611 151.406 62.8353 146.701 67.5404L142.845 71.383V58.2869L148.475 52.2486C151.483 48.9549 154.105 46.3671 154.259 46.4455C154.414 46.5239 154.105 49.4255 153.642 52.7975ZM320.002 53.5817C319.848 55.2285 319.694 54.0522 319.694 51.0723C319.694 48.0139 319.848 46.7592 320.002 48.0923C320.156 49.5039 320.156 52.0133 320.002 53.5817ZM166.291 55.3069C170.841 61.9726 170.533 65.7368 164.748 72.0104C162.358 74.5982 161.355 76.4019 161.355 77.9703C161.355 79.4603 160.584 80.9502 158.964 82.5186C154.414 86.9102 140.145 107.299 136.289 114.984C134.284 118.984 127.111 129.335 123.332 133.648C121.944 135.217 117.933 139.687 114.385 143.529C110.838 147.45 103.202 156.312 97.4178 163.134C72.3521 193.091 49.9857 218.028 46.9006 219.597C42.2731 221.949 5.0986 235.124 -9.09249 239.358C-35.3923 247.279 -59.0698 253.239 -82.0532 257.709C-110.435 263.277 -128.329 265.551 -133.033 264.296C-135.655 263.59 -135.193 261.708 -131.105 255.278C-123.547 243.593 -116.837 235.83 -88.2233 206.03C-74.6492 191.914 -17.8848 140.314 -1.37994 127.14C1.60706 124.769 9.68666 118.13 17.0082 112.114L18.2871 111.063C25.9225 104.711 36.3344 96.6342 41.4247 93.0269C46.515 89.4196 51.3739 85.8907 52.2223 85.1849C53.7648 83.8518 59.7806 81.4208 58.3923 82.6755C57.9296 83.0676 53.9962 85.9691 49.5229 89.1059C30.8585 102.437 11.0373 118.984 -37.9374 162.35C-70.7158 191.365 -127.943 251.592 -129.871 259.199C-130.18 260.375 -130.025 261.238 -129.331 261.708C-128.56 262.179 -128.174 261.943 -128.02 261.002C-127.48 258.414 -116.837 245.162 -107.659 235.594C-102.569 230.262 -94.3162 221.557 -89.3802 216.225C-84.4441 210.814 -77.2715 203.364 -73.4923 199.678C-51.7429 178.505 -43.6447 170.819 -31.4589 160.154C-24.0548 153.724 -15.1854 145.882 -11.7919 142.824C-8.39837 139.765 -1.45706 133.727 3.63322 129.492C8.72351 125.257 16.8988 118.357 21.7577 114.2C32.0154 105.417 38.4939 100.477 54.8446 88.7138C64.2539 81.9697 67.4931 80.0092 71.0409 79.225C77.3652 77.735 91.4021 75.304 104.668 73.4219C111.069 72.5593 117.239 71.6183 118.396 71.383C120.401 70.9909 120.556 71.0694 119.861 72.4025C119.322 73.3435 119.322 77.4214 119.861 84.3223C120.633 94.7522 120.633 94.7522 118.859 96.6342L117.008 98.5163L117.239 94.1248C117.393 91.7722 117.316 88.9491 117.085 87.9296C116.468 85.3418 114 84.087 111.917 85.2633C110.298 86.126 110.221 86.5181 110.683 95.3795C111.146 103.927 111.069 104.711 109.681 105.966C108.139 107.377 108.138 107.299 108.061 101.978L108.061 101.967C107.984 92.7132 106.904 83.6165 105.67 82.3618C104.745 81.4208 104.051 81.4208 100.271 82.7539C95.1041 84.5576 86.1575 86.4397 77.828 87.5375C71.118 88.4001 61.863 91.8506 57.0041 95.3011C52.685 98.3595 37.1828 111.926 23.3002 124.787C22.2955 125.706 21.2397 126.674 20.1594 127.663C14.6053 132.751 8.40405 138.432 5.17572 141.255C4.50844 141.864 3.78345 142.525 3.02579 143.215C-0.507523 146.435 -4.75108 150.301 -7.16437 152.626C-10.1723 155.449 -20.7385 165.016 -30.6876 173.878C-50.6632 191.679 -78.9682 220.381 -81.0506 224.929C-84.2899 231.987 -81.2049 234.81 -68.2478 236.535C-59.0698 237.712 -52.8227 237.476 -35.855 235.281C-17.4992 232.928 -12.1004 231.752 4.40446 226.341C20.2923 221.087 26.9251 217.636 35.5632 210.108C42.6587 203.991 55.2302 188.542 63.9454 175.368C66.1049 172.153 70.5782 165.957 73.8946 161.644C77.0842 157.517 80.2057 153.389 81.2097 152.061L81.3757 151.842C83.4581 148.862 77.6737 160.625 72.2749 170.271C69.6527 174.976 64.2539 184.7 60.3205 191.836C51.1425 208.383 47.749 213.48 44.664 215.048C42.2731 216.381 19.9838 225.086 3.63322 231.203C-14.5684 238.025 -30.4563 242.182 -65.0085 249.396C-76.4231 251.749 -89.4573 254.572 -93.9306 255.67C-103.957 258.101 -119.459 260.845 -122.93 260.845C-125.629 260.845 -126.478 262.1 -124.318 262.963C-122.698 263.59 -104.034 260.532 -94.0077 258.101C-89.92 257.081 -79.0453 254.807 -69.9445 253.003C-33.6184 245.867 -11.4834 239.907 10.1889 231.438C17.4387 228.615 27.3108 224.851 32.0154 223.126C49.4458 216.617 50.5255 215.597 62.0172 194.973C77.5195 167.369 82.3012 158.194 91.2478 139.608L101.043 119.062L115.234 104.633C131.816 87.6944 155.725 62.2079 160.507 56.3264C162.28 54.1306 163.9 52.2486 164.054 52.2486C164.131 52.2486 165.134 53.5817 166.291 55.3069ZM189.66 54.9148C189.274 55.9343 186.498 60.2474 177.783 73.4219C175.006 77.735 172.461 81.7345 162.126 98.5163C158.454 104.477 153.76 111.969 150.74 116.79L150.738 116.793L150.289 117.51C149.874 118.172 149.498 118.772 149.169 119.298C146.393 123.611 143.308 128.551 142.382 130.355C141.457 132.08 139.528 135.295 138.063 137.413C136.598 139.53 133.358 144.862 130.967 149.254C128.499 153.724 126.34 157.331 126.263 157.331C126.109 157.331 127.497 153.567 129.348 148.862C131.199 144.235 133.821 136.236 135.132 131.061C136.229 126.732 137.487 122.074 138.14 119.657C138.268 119.183 138.373 118.796 138.449 118.513C139.374 114.749 141.071 111.769 146.238 104.398C153.797 93.5759 158.116 87.8512 161.278 84.5576C163.514 82.205 164.44 80.5582 164.44 78.9898C164.44 76.9508 167.525 72.1672 172.075 67.1483C172.77 66.3641 174.158 64.2468 175.237 62.4432C176.317 60.6395 178.168 58.6006 179.325 57.9732C180.559 57.3459 181.33 56.6401 181.099 56.3264C180.174 55.4638 184.03 53.8954 187.115 53.817C189.351 53.817 189.969 54.0522 189.66 54.9148ZM140.145 69.9715C139.76 73.814 139.143 75.4609 137.523 77.4214L135.364 79.9308L134.824 73.3435L134.207 66.7563L137.215 64.2468L137.273 64.1972C140.069 61.8148 140.147 61.7486 140.377 63.3842C140.531 64.3252 140.454 67.3052 140.145 69.9715ZM270.025 70.442C271.644 72.7946 271.799 73.5788 271.336 79.3034C270.95 85.6554 268.174 98.1242 266.863 99.771C265.551 101.575 262.852 99.771 255.217 92.0075L247.581 84.2439L248.044 78.2056C248.353 74.9119 248.969 70.2851 249.432 67.9325L250.281 63.6195L251.746 67.0699C254.06 72.6377 254.214 74.0493 252.749 77.3429C251.36 80.4013 251.36 80.4797 253.366 83.5381C256.759 88.7922 263.546 95.4579 264.935 94.909C266.631 94.2816 267.788 90.4391 268.328 83.5381C268.868 76.3235 268.174 74.7551 263.623 73.0298C260.615 71.8535 260.076 71.2262 258.61 67.3836C257.685 65.031 256.991 62.7568 256.991 62.3647C256.991 60.8748 268.174 67.8541 270.025 70.442ZM317.148 64.4821C317.148 64.7173 316.763 66.4426 316.3 68.4031C315.529 71.3046 314.912 72.1672 312.521 73.4219C310.901 74.2846 309.436 75.6177 309.282 76.4019C308.819 78.0487 309.976 90.2038 310.901 94.2032C311.827 98.2026 314.218 97.7321 317.766 92.8701C321.082 88.3217 324.09 82.7539 324.09 81.0287C324.09 80.4013 323.396 78.9898 322.547 77.9703C321.159 76.1666 321.159 75.6177 322.007 71.2262L323.01 66.4426L324.784 71.0693C326.943 76.5587 326.712 78.9113 323.164 85.9691C320.388 91.6938 311.518 101.653 310.361 100.477C309.436 99.5358 305.811 86.4397 304.346 78.9113L303.42 73.814L305.811 71.1478C309.282 67.462 314.063 64.0116 315.76 64.0116C316.531 64.0116 317.148 64.2468 317.148 64.4821ZM132.279 75.1472C132.587 82.3618 132.587 82.4402 130.428 84.7928L128.191 87.1454V81.5776C128.191 75.9314 127.111 71.0693 125.8 71.0693C125.414 71.0693 125.106 70.7557 125.106 70.442C125.106 69.8931 128.499 68.6383 131.353 68.011C131.662 68.011 132.047 71.2262 132.279 75.1472ZM261.618 75.3824C265.243 77.0293 265.474 78.1271 264.318 87.1454L263.778 91.0664L261.464 88.3217C255.371 81.1071 255.217 80.6366 256.219 78.1271C256.759 76.794 257.222 74.8335 257.222 73.6572C257.222 72.1672 257.376 71.932 257.839 72.7946C258.147 73.4219 259.844 74.5982 261.618 75.3824ZM125.183 75.3824C125.492 76.7156 125.723 80.4013 125.8 83.6165C125.8 88.3217 125.569 89.8901 124.335 91.4585L122.792 93.419V89.498C122.792 87.3023 122.561 82.5971 122.252 78.9898C121.79 72.873 121.867 72.4809 123.255 72.7946C124.103 72.9514 124.875 73.9709 125.183 75.3824ZM318.151 74.5198C317.92 75.6177 318.305 77.2645 319 78.284C319.694 79.225 320.233 80.715 320.233 81.4992C320.233 83.3029 318.228 87.3023 315.914 90.047L314.218 92.2427L313.755 90.047C313.524 88.8707 313.138 85.4202 312.907 82.2834C312.444 77.1861 312.521 76.6372 313.909 76.2451C314.758 75.9314 315.992 75.0688 316.763 74.2061L316.763 74.2059C317.683 73.1892 318.126 72.6999 318.285 72.7816C318.433 72.8574 318.337 73.4251 318.151 74.5198ZM104.59 87.3023C105.439 92.7917 105.285 93.4974 103.434 91.1448C102.508 89.9685 101.12 89.1059 99.963 89.1059C98.8832 89.1059 98.2662 88.7922 98.4976 88.3217C98.729 87.9296 97.8035 88.0865 96.3381 88.7138C94.9498 89.2628 89.6282 90.9096 84.5379 92.2427C79.3705 93.6543 72.2749 96.2421 68.2644 98.2026C61.4774 101.575 60.629 102.359 44.7411 118.749C11.1915 153.253 -13.103 180.151 -17.5763 187.68C-19.5816 190.973 -20.2757 193.169 -20.5071 196.62C-20.8927 202.344 -19.5816 204.697 -14.6455 206.893C-11.252 208.461 -10.0951 208.461 4.7901 208.069C13.5053 207.755 22.3747 207.206 24.4571 206.736C30.3186 205.481 35.6403 202.501 40.1907 197.953C44.047 194.032 72.4292 156.625 92.9446 128.316C95.4897 124.709 90.9393 132.551 84.3836 142.745C80.8359 148.313 74.8201 156.861 71.0409 161.88C67.1846 166.82 62.2486 173.564 60.0891 176.858C56.1557 182.818 46.9778 194.894 41.8875 200.854C36.6429 206.893 27.6193 214.029 21.3721 217.009C14.7393 220.146 -5.54471 227.125 -13.72 229.007C-31.6131 233.163 -60.381 235.359 -70.87 233.399C-79.6623 231.752 -80.8192 230.183 -77.6571 224.772C-75.1891 220.616 -41.948 187.209 -27.9883 174.976C-21.2012 169.016 -11.7919 160.546 -7.16437 156.155C-6.4416 155.492 -5.67151 154.785 -4.87254 154.052L-4.87065 154.05C-0.46936 150.009 4.80754 145.164 7.87512 142.51C11.5 139.295 16.3589 134.903 18.6727 132.707C23.9172 127.689 35.8717 116.867 42.5816 111.063C45.281 108.711 49.2144 105.26 51.2968 103.378C59.7035 95.85 68.7271 91.3801 77.6737 90.3606C85.3863 89.4196 94.7956 87.5375 99.0375 85.9691C101.274 85.1849 103.357 84.4792 103.588 84.4792C103.896 84.4007 104.282 85.7339 104.59 87.3023ZM40.5763 90.047C31.6298 96.3205 26.3852 100.398 15.5877 109.495C10.7288 113.651 3.63321 119.454 -0.223068 122.434C-4.00221 125.493 -11.3291 131.609 -16.4194 136.158C-21.5097 140.706 -29.4536 147.764 -34.1583 151.842C-38.7858 155.92 -47.5781 163.762 -53.671 169.329C-63.2346 178.113 -64.6229 179.132 -64.6229 177.407C-64.6229 176.23 -63.1575 173.721 -60.8437 170.898C-51.5887 159.684 -1.07144 111.848 11.3458 102.516C12.073 101.967 12.7654 101.445 13.4254 100.947C22.4073 94.1683 25.4012 91.9087 28.743 90.5026C30.4138 89.7996 32.1716 89.3099 34.8084 88.5753C35.1003 88.494 35.4029 88.4097 35.7174 88.3217C40.5763 86.9886 44.8954 85.7339 45.281 85.577C47.749 84.7144 46.7464 85.6554 40.5763 90.047ZM115.002 91.6154C114.925 93.8895 114.617 96.7911 114.308 98.1242L113.691 100.477L113.614 97.6537C113.614 96.0853 113.306 93.1838 113.074 91.1448C112.612 88.1649 112.766 87.5375 113.846 87.5375C114.848 87.5375 115.08 88.3217 115.002 91.6154ZM179.788 90.988C180.174 91.2233 184.338 92.0075 189.12 92.6348C193.902 93.3406 199.763 94.6737 202.154 95.5363C211.332 99.0652 225.755 109.574 233.467 118.435C240.023 125.963 240.871 127.532 235.318 121.964C227.374 113.965 221.898 111.142 206.859 107.221C203.234 106.28 198.452 104.947 196.216 104.319C191.897 103.065 180.096 95.4579 176.471 91.5369L174.235 89.1059L176.626 89.8117C177.937 90.2038 179.325 90.7527 179.788 90.988ZM102.585 94.0464C103.202 95.2227 103.819 98.1242 104.051 100.477C104.436 104.163 104.205 105.339 101.968 109.73C99.2689 115.22 83.2267 138.354 72.2749 152.626C68.4187 157.566 60.2433 168.545 53.9962 176.936C33.7893 204.226 32.6324 204.932 4.55872 205.716C-7.85849 206.108 -10.3265 205.952 -13.3344 204.775C-17.3449 203.285 -18.3476 201.795 -18.3476 197.325C-18.3476 191.679 -14.0285 184.857 -1.8427 171.368C21.0636 146.039 59.2407 106.437 64.0225 103.065C68.8043 99.6926 74.4344 97.34 83.5352 94.9874C87.9314 93.8111 92.0191 92.5564 92.5589 92.3211C93.0217 92.0075 95.3355 91.7722 97.495 91.8506C101.197 91.8506 101.66 92.0859 102.585 94.0464ZM184.647 101.496L187.578 103.457L187.115 109.025C187.043 109.737 186.975 110.423 186.913 111.058L186.912 111.068C186.706 113.153 186.557 114.671 186.498 114.671C186.498 114.749 184.415 110.75 182.025 105.809C181.57 104.877 181.155 104.036 180.783 103.282C179.099 99.8697 178.291 98.2321 178.628 97.9344C178.939 97.6597 180.225 98.5257 182.698 100.191C183.281 100.583 183.93 101.02 184.647 101.496ZM192.051 108.084C190.894 111.691 190.663 111.769 190.663 108.476C190.663 106.437 190.971 105.574 191.742 105.574C192.668 105.574 192.745 106.045 192.051 108.084ZM201.846 112.475C200.38 114.043 198.992 116.161 198.761 117.259C198.067 120.944 201.152 138.51 203.08 141.177C204.545 143.372 204.391 143.294 201.614 140.549C199.918 138.903 197.681 135.687 196.756 133.492C194.827 128.943 192.899 118.435 193.439 115.69C194.905 108.789 195.521 107.064 196.678 107.535C197.295 107.77 199.301 108.319 201.152 108.789L204.545 109.652L201.846 112.475ZM106.596 108.554C106.596 108.946 105.902 109.887 104.976 110.75C103.357 112.24 103.357 112.24 104.359 110.044C105.285 108.005 106.596 107.142 106.596 108.554ZM160.584 109.966C160.584 111.063 159.658 111.456 158.81 110.593C158.116 109.887 159.118 107.848 159.89 108.397C160.275 108.632 160.584 109.338 160.584 109.966ZM217.811 113.102C221.821 114.436 221.898 114.592 222.67 123.689C223.21 129.571 223.21 129.649 220.742 132.551C218.119 135.531 209.558 140.863 207.399 140.863C205.394 140.863 204.468 138.118 203.003 128.394C201.537 118.121 201.846 116.082 205.548 112.946C208.17 110.671 210.638 110.75 217.811 113.102ZM338.512 114.906C341.134 117.651 343.911 118.905 348.461 119.533L353.012 120.16L350.544 121.493C347.536 123.14 344.759 123.297 334.116 122.513C325.015 121.807 320.928 122.513 315.992 125.728L312.907 127.767L314.835 125.571C319.694 120.003 324.861 116.318 330.491 114.592C335.042 113.102 336.893 113.181 338.512 114.906ZM227.992 119.612C228.6 120.308 228.909 120.661 228.833 120.802C228.756 120.946 228.274 120.868 227.297 120.709C226.217 120.474 225.369 119.768 225.369 119.219C225.369 117.729 226.449 117.886 227.991 119.611L227.992 119.612ZM359.953 119.847C359.645 120.866 358.873 122.513 358.256 123.532C357.485 124.787 357.408 125.179 358.102 124.787C358.796 124.316 358.951 124.552 358.565 125.493C358.256 126.277 358.025 127.375 358.025 128.002C358.025 128.708 357.639 128.943 357.177 128.708C356.714 128.394 356.56 127.767 356.714 127.218C357.254 125.806 353.937 125.806 350.775 127.14C348.307 128.237 347.999 128.237 347.999 127.14C347.999 126.512 348.539 125.963 349.233 125.963C350.929 125.963 356.174 122.042 357.331 119.847C357.871 118.905 358.796 118.121 359.336 118.121C360.107 118.121 360.262 118.67 359.953 119.847ZM230.228 124.16C230.999 124.395 231.539 125.336 231.539 126.434C231.539 127.453 231.462 128.316 231.308 128.316C231.154 128.316 229.842 127.061 228.377 125.414C226.526 123.375 226.217 122.748 227.297 123.219C228.146 123.532 229.457 124.003 230.228 124.16ZM130.89 134.511C127.651 146.039 121.558 160.703 116.699 168.859L113.151 174.819L107.367 176.544C104.205 177.485 98.4976 178.505 94.7185 178.818C88.1628 179.289 87.8543 179.21 89.0112 177.956C89.6282 177.171 93.793 172.074 98.3434 166.663C102.817 161.252 110.529 152.234 115.465 146.666C120.401 141.098 126.417 133.884 128.808 130.59C131.199 127.296 133.281 124.709 133.435 124.787C133.513 124.865 132.433 129.257 130.89 134.511ZM186.961 126.747C189.351 126.747 189.66 127.061 192.514 133.021C196.061 140.471 201.846 146.431 209.25 150.195C214.417 152.861 214.417 153.018 209.173 151.763C198.761 149.332 189.814 141.412 181.408 127.296L179.634 124.238L182.025 125.493C183.336 126.199 185.572 126.747 186.961 126.747ZM242.337 138.118C245.653 145.019 246.81 150.979 245.499 154.508C244.65 156.704 244.496 156.782 240.563 156.312C238.403 156.077 232.619 154.743 227.837 153.332L219.199 150.822L223.749 146.666C229.38 141.412 233.082 135.06 233.622 129.414L234.084 125.257L236.629 128.551C238.095 130.355 240.64 134.668 242.337 138.118ZM323.55 127.532C323.087 129.335 320.233 129.727 320.233 128.002C320.233 127.061 321.159 126.434 323.473 126.042C323.704 126.042 323.781 126.669 323.55 127.532ZM334.887 126.591C334.887 126.983 334.039 129.649 333.036 132.629C331.262 137.726 326.481 145.411 323.164 148.47L321.545 149.881L323.164 146.745C324.707 143.608 327.175 132.08 327.175 128.081C327.175 126.042 327.329 125.963 331.031 125.963C333.191 125.963 334.887 126.277 334.887 126.591ZM229.765 132.943C227.374 138.432 224.521 142.275 220.202 145.725L215.574 149.489L210.638 146.98C206.088 144.627 205.856 144.47 207.784 143.921C211.486 142.902 219.199 138.275 222.67 134.982C225.369 132.472 226.14 131.217 226.14 129.257V126.747L228.377 128.786C230.459 130.59 230.536 131.061 229.765 132.943ZM315.992 141.412C315.452 144.314 312.907 147.293 309.282 149.176L306.891 150.43L307.431 145.176C308.125 138.432 309.513 135.06 313.138 131.609L315.992 128.786L316.223 133.884C316.377 136.628 316.223 140.079 315.992 141.412ZM354.4 130.904C354.709 131.766 349.927 149.646 348.076 154.194C347.459 155.841 347.305 155.449 347.227 151.45C346.996 144.078 346.996 142.353 347.15 137.177C347.227 132.394 347.305 132.237 349.773 131.139C352.935 129.727 353.937 129.649 354.4 130.904ZM323.01 133.492C322.779 134.197 322.547 135.138 322.547 135.609C322.47 136.628 320.233 133.884 320.233 132.864C320.233 132.551 320.928 132.237 321.853 132.237C323.01 132.237 323.319 132.551 323.01 133.492ZM321.776 140.785C321.776 145.019 315.529 153.724 310.824 156.233C308.896 157.253 308.742 157.174 308.279 155.684C307.971 154.822 307.893 154.038 308.048 153.881C316.377 148.94 319.462 145.176 319.462 140C319.539 136.785 319.616 136.628 320.619 138.04C321.236 138.903 321.776 140.157 321.776 140.785ZM334.887 144.47C336.121 145.647 336.97 146.901 336.661 147.372C336.198 148.235 326.404 152.94 323.319 153.802C321.545 154.273 321.545 154.194 323.858 152.312C325.169 151.136 327.56 148.47 329.103 146.352C330.645 144.157 332.111 142.431 332.265 142.431C332.419 142.431 333.653 143.372 334.887 144.47ZM-67.5536 176.936C-67.7079 178.269 -67.5536 179.759 -67.0909 180.308C-66.4739 181.014 -66.6281 181.563 -67.785 182.269C-69.0962 183.131 -69.4047 182.975 -70.0988 181.328C-70.87 179.759 -70.7158 178.975 -69.3275 177.015C-68.402 175.681 -67.4765 174.584 -67.3994 174.584C-67.3223 174.584 -67.3223 175.681 -67.5536 176.936ZM114.308 178.505C113.151 180.622 105.593 182.739 96.1839 183.523C94.1015 183.68 91.4021 184.072 90.2452 184.386C89.0112 184.7 87.1602 184.7 86.0033 184.465C84.3065 183.994 84.1523 183.759 85.0778 182.818C85.849 181.955 89.1654 181.641 97.4178 181.328C107.907 181.014 108.832 180.857 111.609 178.975C115.08 176.544 115.388 176.466 114.308 178.505Z" fill="#00D4FF"/>
</svg>
