<svg xmlns="http://www.w3.org/2000/svg" width="40" height="40" viewBox="0 0 40 40" fill="none">
                            <path d="M36 24.3805C35.5762 13.3667 28.1589 5.15645 23.7086 1.35169C21.5894 -0.450563 18.1987 -0.450563 16.0795 1.35169C11.8411 5.3567 4.42384 13.3667 4 24.3805C4 24.5807 4 24.9812 4 25.1815C4 33.3917 11.2053 40 19.894 40C28.7947 40 35.7881 33.3917 35.7881 25.1815C36 24.781 36 24.5807 36 24.3805ZM22.4371 35.194C21.3775 35.995 20.106 36.1952 18.8344 35.7947C17.7748 35.3942 16.9272 34.9937 16.5033 33.9925C15.8675 32.5907 15.8675 30.7885 16.5033 28.9862C17.351 26.7835 19.2583 23.98 20.106 23.7797C22.649 25.7822 24.3444 29.1865 24.3444 31.99C24.1325 33.3917 23.4967 34.393 22.4371 35.194ZM28.3709 32.791C28.3709 32.5907 28.3709 32.3905 28.3709 32.1902C28.3709 27.985 26.0397 23.5795 22.649 20.776C21.5894 19.975 20.3179 19.5745 18.8344 19.975C14.8079 20.9762 12.4768 27.5845 12.4768 27.7847C11.8411 29.587 11.6291 31.3892 11.8411 32.9912C9.72185 30.9887 8.23841 28.1852 8.23841 25.1815C8.23841 24.9812 8.23841 24.781 8.23841 24.5807C8.45033 14.9687 15.2318 7.7597 19.0464 4.35544C19.2583 4.15519 19.6821 3.95494 19.894 3.95494C20.106 3.95494 20.5298 4.15519 20.9536 4.35544C24.9801 7.7597 31.5497 14.9687 31.7616 24.5807C31.7616 24.781 31.7616 24.9812 31.7616 24.9812C31.7616 28.1852 30.4901 30.7885 28.3709 32.791Z" fill="url(#paint0_radial_452_19310)"/>
                            <defs>
                                <radialGradient id="paint0_radial_452_19310" cx="0" cy="0" r="1" gradientUnits="userSpaceOnUse" gradientTransform="translate(20 20) rotate(97.809) scale(25.234 20.3968)">
                                    <stop stop-color="#FD9BE8"/>
                                    <stop offset="0.338542" stop-color="#7A73FF"/>
                                    <stop offset="0.734375" stop-color="#75CDFF"/>
                                    <stop offset="1" stop-color="#4AFCF1"/>
                                </radialGradient>
                            </defs>
                        </svg>