<svg width="234" height="40" viewBox="0 0 234 40" fill="none" xmlns="http://www.w3.org/2000/svg">
<rect width="234" height="40" rx="16" fill="#04101C"/>
<path d="M25.4453 25.2031C25.6146 25.2552 25.8001 25.2975 26.002 25.3301C26.2103 25.3626 26.4121 25.3789 26.6074 25.3789C27.2064 25.3789 27.6914 25.2389 28.0625 24.959C28.4336 24.679 28.821 24.1452 29.2246 23.3574L29.2051 23.3965L24.0977 12.7812H26.5L29.6641 19.6953C29.8268 20.0469 29.944 20.3138 30.0156 20.4961C30.0872 20.6784 30.1719 20.8867 30.2695 21.1211H30.3281C30.4258 20.8867 30.5039 20.6816 30.5625 20.5059C30.6276 20.3236 30.735 20.0566 30.8848 19.7051L33.7949 12.7812H35.9531L31.4316 23.1523C30.748 24.7279 30.0775 25.8118 29.4199 26.4043C28.7689 26.9902 27.9355 27.2832 26.9199 27.2832C26.5423 27.2832 26.2461 27.2669 26.0312 27.2344C25.8229 27.2018 25.6276 27.153 25.4453 27.0879V25.2031ZM42.4266 27.2832C40.9096 27.2832 39.7866 26.9349 39.0574 26.2383C38.3348 25.5352 37.9734 24.7051 37.9734 23.748V23.6895H40.0242V23.748C40.0242 24.2624 40.2065 24.7148 40.5711 25.1055C40.9357 25.4896 41.5509 25.6816 42.4168 25.6816C43.1395 25.6816 43.6993 25.5352 44.0965 25.2422C44.4936 24.9492 44.6922 24.5423 44.6922 24.0215C44.6922 23.5983 44.549 23.2598 44.2625 23.0059C43.976 22.752 43.5203 22.625 42.8953 22.625H41.2742V21.1016H42.6316C43.2501 21.1016 43.6928 20.9779 43.9598 20.7305C44.2332 20.4831 44.3699 20.1445 44.3699 19.7148C44.3699 19.2331 44.2039 18.8652 43.8719 18.6113C43.5464 18.3509 43.0841 18.2207 42.4852 18.2207C41.743 18.2207 41.1798 18.3965 40.7957 18.748C40.4116 19.0996 40.2228 19.5651 40.2293 20.1445V20.2031H38.1687V20.1445C38.1687 19.0573 38.5496 18.1979 39.3113 17.5664C40.0796 16.9284 41.157 16.6094 42.5437 16.6094C43.8458 16.6094 44.8354 16.8698 45.5125 17.3906C46.1896 17.9115 46.5281 18.6211 46.5281 19.5195C46.5281 20.0664 46.3426 20.5482 45.9715 20.9648C45.6069 21.375 45.1089 21.6452 44.4773 21.7754V21.8047C45.2326 21.9089 45.8152 22.1595 46.2254 22.5566C46.6355 22.9473 46.8406 23.4583 46.8406 24.0898C46.8406 25.1185 46.4272 25.9095 45.6004 26.4629C44.7801 27.0098 43.7221 27.2832 42.4266 27.2832ZM50.277 16.9023H52.4059V21.0234H56.6051V16.9023H58.734V27H56.6051V22.6641H52.4059V27H50.277V16.9023ZM62.0629 24.041C62.0629 22.9863 62.4763 22.1758 63.3031 21.6094C64.1299 21.0365 65.1814 20.75 66.4574 20.75H68.6742V20.0664C68.6742 19.5 68.5277 19.0475 68.2348 18.709C67.9418 18.3639 67.4405 18.1914 66.7309 18.1914C66.0277 18.1914 65.5199 18.3346 65.2074 18.6211C64.8949 18.9076 64.7387 19.2526 64.7387 19.6562V19.7637L62.6391 19.7539V19.6465C62.6391 18.8066 63.0167 18.0938 63.7719 17.5078C64.5336 16.9154 65.546 16.6191 66.809 16.6191C68.072 16.6191 69.0518 16.9056 69.7484 17.4785C70.4516 18.0449 70.8031 18.9108 70.8031 20.0762V24.6758C70.8031 25.099 70.8357 25.4961 70.9008 25.8672C70.9659 26.2383 71.0603 26.5638 71.184 26.8438V27H69.1137C69.0225 26.8372 68.9411 26.6322 68.8695 26.3848C68.8044 26.1309 68.7589 25.877 68.7328 25.623C68.5115 26.0332 68.1306 26.3978 67.5902 26.7168C67.0499 27.0293 66.3598 27.1855 65.5199 27.1855C64.5434 27.1855 63.723 26.9186 63.059 26.3848C62.3949 25.8509 62.0629 25.0697 62.0629 24.041ZM64.1918 23.8945C64.1918 24.4284 64.348 24.8483 64.6605 25.1543C64.973 25.4603 65.4548 25.6133 66.1059 25.6133C66.7764 25.6133 67.3721 25.3887 67.893 24.9395C68.4138 24.4837 68.6742 23.9824 68.6742 23.4355V22.1562H66.7504C65.8975 22.1562 65.2562 22.3092 64.8266 22.6152C64.4034 22.9212 64.1918 23.3477 64.1918 23.8945ZM73.6242 18.543V16.9023H82.0324V18.543H78.8879V27H76.759V18.543H73.6242ZM87.002 16.9023V20.291H89.3164C90.5794 20.291 91.5495 20.5905 92.2266 21.1895C92.9036 21.7884 93.2422 22.6055 93.2422 23.6406C93.2422 24.6823 92.9036 25.5026 92.2266 26.1016C91.5495 26.7005 90.5794 27 89.3164 27H84.873V16.9023H87.002ZM89.1309 21.8535H87.002V25.4277H89.1309C89.8535 25.4277 90.3646 25.2617 90.6641 24.9297C90.9635 24.5977 91.1133 24.1615 91.1133 23.6211C91.1133 23.1003 90.9635 22.6771 90.6641 22.3516C90.3646 22.0195 89.8535 21.8535 89.1309 21.8535ZM103.943 21.9707V22.2832C103.943 23.2598 104.171 24.0573 104.627 24.6758C105.089 25.2943 105.772 25.6035 106.677 25.6035C107.582 25.6035 108.263 25.2943 108.718 24.6758C109.181 24.0573 109.412 23.2598 109.412 22.2832V21.9707C109.412 21.0072 109.181 20.2161 108.718 19.5977C108.263 18.9792 107.582 18.6699 106.677 18.6699C105.772 18.6699 105.089 18.9792 104.627 19.5977C104.171 20.2161 103.943 21.0072 103.943 21.9707ZM107.224 16.9902C108.572 16.9902 109.636 17.459 110.418 18.3965C111.199 19.3275 111.589 20.5189 111.589 21.9707V22.2832C111.589 23.7676 111.14 24.972 110.242 25.8965C109.343 26.821 108.155 27.2832 106.677 27.2832C105.147 27.2832 103.946 26.821 103.074 25.8965C102.201 24.9655 101.765 23.4421 101.765 21.3262V20.7207C101.765 18.3965 102.159 16.5996 102.947 15.3301C103.741 14.0605 105.16 13.2728 107.205 12.9668C108.285 12.804 108.914 12.6608 109.089 12.5371C109.272 12.4134 109.379 12.2669 109.412 12.0977H111.296C111.238 12.8724 110.961 13.4681 110.466 13.8848C109.978 14.2949 109.044 14.5944 107.664 14.7832C106.082 14.9915 105.007 15.4635 104.441 16.1992C103.875 16.9284 103.543 17.918 103.445 19.168H103.552C103.878 18.4909 104.353 17.9603 104.978 17.5762C105.61 17.1855 106.358 16.9902 107.224 16.9902ZM114.293 22.0977V21.7852C114.293 20.2422 114.739 18.9954 115.631 18.0449C116.53 17.0879 117.721 16.6094 119.205 16.6094C120.683 16.6094 121.871 17.0879 122.77 18.0449C123.668 18.9954 124.118 20.2422 124.118 21.7852V22.0977C124.118 23.6471 123.668 24.9004 122.77 25.8574C121.871 26.8079 120.683 27.2832 119.205 27.2832C117.721 27.2832 116.53 26.8079 115.631 25.8574C114.739 24.9004 114.293 23.6471 114.293 22.0977ZM116.471 21.7363V22.1562C116.471 23.1654 116.702 23.9922 117.164 24.6367C117.627 25.2812 118.307 25.6035 119.205 25.6035C120.104 25.6035 120.784 25.2812 121.246 24.6367C121.709 23.9922 121.94 23.1654 121.94 22.1562V21.7363C121.94 20.7272 121.705 19.9036 121.237 19.2656C120.774 18.6211 120.097 18.2988 119.205 18.2988C118.314 18.2988 117.633 18.6211 117.164 19.2656C116.702 19.9036 116.471 20.7272 116.471 21.7363ZM130.279 18.543L130.113 22.3809C130.034 24.1061 129.8 25.3431 129.409 26.0918C129.025 26.834 128.322 27.2051 127.3 27.2051C127.079 27.2051 126.87 27.1888 126.675 27.1562C126.486 27.1302 126.33 27.0911 126.206 27.0391V25.291C126.31 25.3301 126.418 25.3594 126.529 25.3789C126.639 25.3984 126.763 25.4082 126.9 25.4082C127.381 25.4082 127.704 25.1706 127.866 24.6953C128.029 24.2201 128.137 23.3639 128.189 22.127L128.423 16.9023H135.777V27H133.648V18.543H130.279ZM141.811 16.9023V20.291H144.125C145.388 20.291 146.358 20.5905 147.035 21.1895C147.712 21.7884 148.051 22.6055 148.051 23.6406C148.051 24.6823 147.712 25.5026 147.035 26.1016C146.358 26.7005 145.388 27 144.125 27H139.682V16.9023H141.811ZM143.939 21.8535H141.811V25.4277H143.939C144.662 25.4277 145.173 25.2617 145.473 24.9297C145.772 24.5977 145.922 24.1615 145.922 23.6211C145.922 23.1003 145.772 22.6771 145.473 22.3516C145.173 22.0195 144.662 21.8535 143.939 21.8535ZM151.136 27V16.9023H153.264V25.3594H156.897V16.9023H159.026V25.3594H162.669V16.9023H164.798V27H151.136ZM168.097 22.0977V21.7852C168.097 20.2487 168.53 19.002 169.396 18.0449C170.268 17.0879 171.408 16.6094 172.814 16.6094C174.227 16.6094 175.317 17.0586 176.086 17.957C176.86 18.849 177.248 20.0697 177.248 21.6191V22.4297H169.435V20.916H175.129V20.7109C175.129 20.0339 174.933 19.4577 174.543 18.9824C174.158 18.5007 173.595 18.2598 172.853 18.2598C171.987 18.2598 171.336 18.5885 170.9 19.2461C170.464 19.8971 170.246 20.724 170.246 21.7266V22.1465C170.246 23.1556 170.477 23.9889 170.939 24.6465C171.401 25.2975 172.104 25.623 173.048 25.623C173.66 25.623 174.184 25.4863 174.621 25.2129C175.063 24.9329 175.418 24.6074 175.685 24.2363L177.14 25.2422C176.821 25.776 176.313 26.2513 175.617 26.668C174.92 27.0781 174.071 27.2832 173.068 27.2832C171.486 27.2832 170.262 26.8047 169.396 25.8477C168.53 24.8906 168.097 23.6406 168.097 22.0977Z" fill="white"/>
<g clip-path="url(#clip0_132_43619)">
<path d="M208 20C208 14.48 203.52 10 198 10C192.48 10 188 14.48 188 20C188 25.52 192.48 30 198 30C203.52 30 208 25.52 208 20ZM198 22.79V21H195C194.45 21 194 20.55 194 20C194 19.45 194.45 19 195 19H198V17.21C198 16.76 198.54 16.54 198.85 16.86L201.64 19.65C201.84 19.85 201.84 20.16 201.64 20.36L198.85 23.15C198.54 23.46 198 23.24 198 22.79Z" fill="white"/>
</g>
<defs>
<clipPath id="clip0_132_43619">
<rect width="24" height="24" fill="white" transform="translate(186 8)"/>
</clipPath>
</defs>
</svg>
