<svg width="1405" height="508" viewBox="0 0 1405 508" fill="none" xmlns="http://www.w3.org/2000/svg">
<path d="M0 507.76V333C437.77 112.163 970.086 88.3703 1443 0V173.598C960.369 306.583 468.756 317.624 0 507.76Z" fill="url(#paint0_radial_756_20149)"/>
<path d="M0 507.76V333C437.77 112.163 970.086 88.3703 1443 0V173.598C960.369 306.583 468.756 317.624 0 507.76Z" fill="url(#paint1_radial_756_20149)"/>
<path d="M0 507.76V333C437.77 112.163 970.086 88.3703 1443 0V173.598C960.369 306.583 468.756 317.624 0 507.76Z" fill="url(#paint2_radial_756_20149)"/>
<path d="M0 507.76V333C437.77 112.163 970.086 88.3703 1443 0V173.598C960.369 306.583 468.756 317.624 0 507.76Z" fill="url(#paint3_radial_756_20149)"/>
<defs>
<radialGradient id="paint0_radial_756_20149" cx="0" cy="0" r="1" gradientUnits="userSpaceOnUse" gradientTransform="translate(549.165 487.828) rotate(84.7096) scale(634.944 1155.51)">
<stop offset="0.662802" stop-color="#762DEE"/>
<stop offset="1" stop-color="#762DEE" stop-opacity="0"/>
</radialGradient>
<radialGradient id="paint1_radial_756_20149" cx="0" cy="0" r="1" gradientUnits="userSpaceOnUse" gradientTransform="translate(721.5 394.049) rotate(89.9356) scale(733.504 1343.04)">
<stop stop-color="#209DB7"/>
<stop offset="0.460519" stop-color="#209DB7" stop-opacity="0"/>
</radialGradient>
<radialGradient id="paint2_radial_756_20149" cx="0" cy="0" r="1" gradientUnits="userSpaceOnUse" gradientTransform="translate(1271.49 766.084) rotate(-145.556) scale(347.955 327.344)">
<stop stop-color="#FFDC62"/>
<stop offset="1" stop-color="#FFDC62" stop-opacity="0"/>
</radialGradient>
<radialGradient id="paint3_radial_756_20149" cx="0" cy="0" r="1" gradientUnits="userSpaceOnUse" gradientTransform="translate(1181.61 155.858) rotate(133.89) scale(962.21 1156.44)">
<stop offset="0.227079" stop-color="#209DB7"/>
<stop offset="0.810258" stop-color="#209DB7" stop-opacity="0"/>
</radialGradient>
</defs>
</svg>
