<svg width="1448.000000" height="796.000000" viewBox="0 0 1448 796" fill="none" xmlns="http://www.w3.org/2000/svg" xmlns:xlink="http://www.w3.org/1999/xlink">
 <desc>
  Created with Pixso.
 </desc>
 <defs>
  <linearGradient id="paint_linear_76_39286_0" x1="25.989014" y1="610.000000" x2="1446.893555" y2="173.838379" gradientUnits="userSpaceOnUse">
   <stop stop-color="#4AFCF1"/>
   <stop offset="0.268750" stop-color="#FF93DA"/>
   <stop offset="0.784375" stop-color="#7A73FF"/>
   <stop offset="0.951645" stop-color="#83FFBC"/>
  </linearGradient>
 </defs>
 <path id="Vector" d="M1445 148C1443 148.5 1302.68 183.69 1211.49 206.56L1046.61 295.66L813.1 354.22L546.53 465.84L238.59 516.89L0 583.59L0 610L238.59 537.92L546.53 487.51L813.1 375.53L1046.61 316.99L1211.49 226.96C1302.68 204.45 1442 169.33 1445 169.33C1448 169.33 1447 147.5 1445 148Z" fill="url(#paint_linear_76_39286_0)" fill-opacity="1.000000" fill-rule="evenodd"/>
 <path id="Vector" d="M238.59 516.89C358.85 496.96 426.27 485.78 546.53 465.84C650.63 422.25 708.99 397.81 813.1 354.22C904.29 331.35 955.41 318.53 1046.61 295.66C1111 260.86 1147.1 241.35 1211.49 206.56C1302.68 183.69 1443 148.5 1445 148C1447 147.5 1448 169.33 1445 169.33C1442 169.33 1302.68 204.45 1211.49 226.96C1147.1 262.12 1111 281.83 1046.61 316.99C955.41 339.85 904.29 352.67 813.1 375.53C708.99 419.26 650.63 443.78 546.53 487.51C426.27 507.2 358.85 518.23 238.59 537.92C145.41 566.07 0 610 0 610L0 583.59C0 583.59 145.41 542.94 238.59 516.89ZM1211.49 206.56C1211.49 214.53 1211.49 218.99 1211.49 226.96M1046.61 295.66C1046.61 303.99 1046.61 308.66 1046.61 316.99M813.1 354.22C813.1 362.54 813.1 367.21 813.1 375.53M546.53 465.84C546.53 474.3 546.53 479.05 546.53 487.51M238.59 516.89C238.59 525.1 238.59 529.71 238.59 537.92" stroke="#AFB6B3" stroke-opacity="1.000000" stroke-width="1.000000"/>
 <line id="Line 6" x1="238.500000" y1="538.000000" x2="238.500000" y2="300.000000" stroke="#AFB6B3" stroke-opacity="1.000000" stroke-width="1.000000"/>
 <line id="Line 7" x1="546.500000" y1="796.000000" x2="546.500000" y2="466.000000" stroke="#AFB6B3" stroke-opacity="1.000000" stroke-width="1.000000"/>
 <line id="Line 8" x1="1046.500000" y1="559.000000" x2="1046.500000" y2="296.000000" stroke="#AFB6B3" stroke-opacity="1.000000" stroke-width="1.000000"/>
 <line id="Line 9" x1="812.500000" y1="376.000000" x2="812.500000" y2="148.000000" stroke="#AFB6B3" stroke-opacity="1.000000" stroke-width="1.000000"/>
 <line id="Line 10" x1="1211.500000" y1="224.000000" x2="1211.500000" y2="0.000000" stroke="#AFB6B3" stroke-opacity="1.000000" stroke-width="1.000000"/>
</svg>
