<svg width="1440" height="464" viewBox="0 0 1440 464" fill="none" xmlns="http://www.w3.org/2000/svg">
<path d="M233.595 369.899C139.277 391.453 -5 436.594 -5 436.594V463C-5 463 138.938 413.601 233.595 390.922C352.098 362.53 424.572 374.717 541.531 340.517C649.907 308.826 700.731 263.483 808.1 228.532C897.496 199.432 954.602 205.605 1041.61 169.995C1109.51 142.206 1138.55 107.638 1206.49 79.9619C1293.48 44.5289 1437 22.3351 1440 22.3351C1443 22.3351 1442 0.499669 1440 0.999669C1438 1.49967 1293.58 24.1497 1206.49 59.563C1138.69 87.1316 1109.41 121.091 1041.61 148.659C954.519 184.073 897.511 178.162 808.1 207.223C700.767 242.109 649.84 287.121 541.531 318.844C424.547 353.107 352.429 342.742 233.595 369.899Z" fill="url(#paint0_linear_37_30655)" stroke="#AFB6B3"/>
<defs>
<linearGradient id="paint0_linear_37_30655" x1="20.9891" y1="463" x2="920.529" y2="-473.794" gradientUnits="userSpaceOnUse">
<stop stop-color="#4AFCF1"/>
<stop offset="0.784375" stop-color="#7A73FF"/>
<stop offset="0.951645" stop-color="#83FFBC"/>
</linearGradient>
</defs>
</svg>
