<svg width="1440" height="1024" viewBox="0 0 1440 1024" fill="none" xmlns="http://www.w3.org/2000/svg">
<g clip-path="url(#clip0_19_9)">
<rect width="1440" height="1024" fill="#F9FBFF"/>
<path d="M52.2822 452.101V451.377C52.2822 448.355 53.137 446.062 54.8467 444.496C56.5563 442.93 58.7399 442.147 61.3975 442.147C64.055 442.147 66.2428 442.93 67.9609 444.496C69.679 446.062 70.5381 448.355 70.5381 451.377V452.101C70.5381 455.139 69.679 457.445 67.9609 459.02C66.2428 460.585 64.055 461.368 61.3975 461.368C58.7399 461.368 56.5563 460.585 54.8467 459.02C53.137 457.445 52.2822 455.139 52.2822 452.101ZM55.1768 452.24C55.1768 454.508 55.748 456.218 56.8906 457.369C58.0417 458.52 59.5482 459.096 61.4102 459.096C63.2637 459.096 64.7617 458.52 65.9043 457.369C67.0553 456.218 67.6309 454.508 67.6309 452.24V451.25C67.6309 448.99 67.0596 447.289 65.917 446.146C64.7744 445.004 63.2721 444.433 61.4102 444.433C59.5397 444.433 58.0332 445.004 56.8906 446.146C55.748 447.289 55.1768 448.99 55.1768 451.25V452.24ZM73.8246 454.716V454.348C73.8246 452.359 74.4763 450.759 75.7797 449.549C77.0916 448.33 78.8774 447.721 81.1371 447.721C83.2361 447.721 84.8357 448.182 85.936 449.104C87.0447 450.019 87.6202 451.115 87.6625 452.393V452.545H84.9204V452.418C84.9034 451.665 84.5903 451.055 83.9809 450.59C83.38 450.116 82.4321 449.879 81.1371 449.879C79.6222 449.879 78.4923 450.285 77.7475 451.098C77.0112 451.902 76.643 452.968 76.643 454.297V454.792C76.643 456.121 77.0069 457.196 77.7348 458.017C78.4711 458.829 79.6052 459.235 81.1371 459.235C82.449 459.235 83.4096 458.998 84.019 458.524C84.6284 458.042 84.9373 457.42 84.9457 456.658V456.544H87.6625V456.684C87.6456 457.962 87.0786 459.062 85.9614 459.984C84.8442 460.907 83.2361 461.368 81.1371 461.368C78.8774 461.368 77.0916 460.763 75.7797 459.553C74.4763 458.342 73.8246 456.73 73.8246 454.716ZM91.6346 448.102H94.3895V453.37H101.562V448.102H104.317V461H101.562V455.478H94.3895V461H91.6346V448.102ZM108.683 454.716V454.36C108.683 452.38 109.36 450.78 110.714 449.562C112.077 448.334 113.88 447.721 116.122 447.721C118.374 447.721 120.176 448.334 121.531 449.562C122.885 450.78 123.562 452.38 123.562 454.36V454.716C123.562 456.713 122.885 458.321 121.531 459.54C120.176 460.759 118.374 461.368 116.122 461.368C113.88 461.368 112.077 460.759 110.714 459.54C109.36 458.321 108.683 456.713 108.683 454.716ZM111.501 454.31V454.792C111.501 456.104 111.891 457.17 112.669 457.991C113.456 458.804 114.607 459.21 116.122 459.21C117.637 459.21 118.784 458.804 119.563 457.991C120.35 457.17 120.743 456.1 120.743 454.779V454.31C120.743 452.998 120.35 451.936 119.563 451.123C118.784 450.311 117.637 449.904 116.122 449.904C114.616 449.904 113.469 450.311 112.682 451.123C111.895 451.936 111.501 452.998 111.501 454.31ZM127.915 461V448.102H135.621C137.144 448.102 138.295 448.381 139.074 448.939C139.853 449.498 140.242 450.336 140.242 451.453C140.242 452.206 140.03 452.824 139.607 453.307C139.192 453.789 138.621 454.128 137.893 454.322V454.36C138.74 454.504 139.421 454.83 139.937 455.338C140.454 455.846 140.712 456.523 140.712 457.369C140.712 458.512 140.301 459.405 139.48 460.048C138.659 460.683 137.5 461 136.002 461H127.915ZM130.644 453.497H135.329C136.091 453.497 136.641 453.34 136.979 453.027C137.318 452.706 137.487 452.257 137.487 451.682C137.487 451.148 137.318 450.742 136.979 450.463C136.641 450.175 136.091 450.031 135.329 450.031H130.644V453.497ZM130.644 459.07H135.672C136.45 459.07 137.026 458.905 137.398 458.575C137.771 458.245 137.957 457.792 137.957 457.217C137.957 456.65 137.775 456.201 137.411 455.871C137.047 455.533 136.467 455.363 135.672 455.363H130.644V459.07ZM144.43 457.204C144.43 455.867 144.997 454.839 146.131 454.119C147.265 453.4 148.835 453.044 150.841 453.053H154.84V452.101C154.84 451.322 154.582 450.734 154.066 450.336C153.549 449.938 152.682 449.739 151.463 449.739C150.304 449.739 149.44 449.913 148.873 450.26C148.315 450.607 148.035 451.068 148.035 451.644V451.809H145.344V451.618C145.344 450.45 145.894 449.511 146.994 448.8C148.103 448.089 149.631 447.733 151.577 447.733C153.524 447.733 155.014 448.102 156.046 448.838C157.079 449.566 157.595 450.679 157.595 452.177V457.991C157.595 458.541 157.641 459.058 157.735 459.54C157.828 460.022 157.963 460.441 158.141 460.797V461H155.462C155.335 460.788 155.217 460.522 155.107 460.2C155.005 459.87 154.942 459.527 154.916 459.172C154.561 459.722 153.934 460.204 153.037 460.619C152.14 461.025 150.998 461.229 149.61 461.229C148.018 461.229 146.757 460.882 145.826 460.188C144.895 459.493 144.43 458.499 144.43 457.204ZM147.185 457.039C147.185 457.758 147.443 458.309 147.959 458.689C148.475 459.062 149.296 459.248 150.422 459.248C151.573 459.248 152.597 458.956 153.494 458.372C154.391 457.78 154.84 457.107 154.84 456.354V454.817H151.311C149.94 454.817 148.907 455.008 148.213 455.389C147.528 455.761 147.185 456.311 147.185 457.039ZM162.798 448.102H165.553V453.37H172.726V448.102H175.481V461H172.726V455.478H165.553V461H162.798V448.102ZM180.685 461V448.102H183.427V456.125C183.427 456.396 183.423 456.671 183.414 456.95C183.406 457.221 183.393 457.492 183.376 457.763H183.465C183.6 457.517 183.732 457.289 183.858 457.077C183.985 456.857 184.15 456.607 184.354 456.328L190.727 448.102H193.52V461H190.765V452.964C190.765 452.701 190.769 452.431 190.777 452.151C190.786 451.872 190.799 451.597 190.816 451.326H190.727C190.6 451.563 190.473 451.792 190.346 452.012C190.219 452.232 190.05 452.481 189.838 452.761L183.465 461H180.685ZM197.86 454.716V454.36C197.86 452.388 198.52 450.793 199.84 449.574C201.161 448.347 202.9 447.733 205.058 447.733C207.208 447.733 208.867 448.309 210.035 449.46C211.211 450.603 211.799 452.16 211.799 454.132V455.147H199.498V453.243H209.07V453.167C209.07 452.211 208.761 451.419 208.143 450.793C207.525 450.167 206.497 449.854 205.058 449.854C203.577 449.854 202.46 450.264 201.707 451.085C200.962 451.897 200.589 452.96 200.589 454.271V454.779C200.589 456.108 200.983 457.183 201.77 458.004C202.557 458.816 203.755 459.223 205.363 459.223C206.421 459.223 207.309 459.045 208.029 458.689C208.757 458.334 209.332 457.907 209.755 457.407L211.634 458.728C211.16 459.422 210.394 460.035 209.336 460.568C208.278 461.102 206.958 461.368 205.376 461.368C202.997 461.368 201.148 460.759 199.828 459.54C198.516 458.313 197.86 456.705 197.86 454.716ZM233.759 461L227.742 455.059L229.633 453.434L237.314 461H233.759ZM225.253 453.37H228.11L233.264 448.102H236.476L229.113 455.49H225.253V453.37ZM226.624 448.102V461H223.882V448.102H226.624ZM239.636 454.716V454.36C239.636 452.38 240.313 450.78 241.667 449.562C243.029 448.334 244.832 447.721 247.075 447.721C249.326 447.721 251.129 448.334 252.483 449.562C253.837 450.78 254.514 452.38 254.514 454.36V454.716C254.514 456.713 253.837 458.321 252.483 459.54C251.129 460.759 249.326 461.368 247.075 461.368C244.832 461.368 243.029 460.759 241.667 459.54C240.313 458.321 239.636 456.713 239.636 454.716ZM242.454 454.31V454.792C242.454 456.104 242.843 457.17 243.622 457.991C244.409 458.804 245.56 459.21 247.075 459.21C248.59 459.21 249.737 458.804 250.515 457.991C251.303 457.17 251.696 456.1 251.696 454.779V454.31C251.696 452.998 251.303 451.936 250.515 451.123C249.737 450.311 248.59 449.904 247.075 449.904C245.569 449.904 244.422 450.311 243.635 451.123C242.848 451.936 242.454 452.998 242.454 454.31ZM258.893 461V448.102H262.587L266.739 456.366C266.967 456.84 267.119 457.183 267.196 457.395C267.28 457.598 267.348 457.801 267.399 458.004H267.5C267.56 457.801 267.627 457.598 267.703 457.395C267.788 457.191 267.945 456.849 268.173 456.366L272.312 448.102H275.955V461H273.226V452.685C273.226 452.202 273.234 451.838 273.251 451.593C273.268 451.339 273.289 451.106 273.315 450.895H273.226C273.175 451.081 273.112 451.284 273.035 451.504C272.959 451.715 272.824 452.029 272.629 452.443L268.376 461H266.193L261.927 452.431C261.783 452.118 261.665 451.83 261.572 451.567C261.478 451.305 261.411 451.081 261.368 450.895H261.267C261.284 451.081 261.301 451.301 261.318 451.555C261.335 451.809 261.343 452.168 261.343 452.634V461H258.893ZM281.146 448.102H293.74V461H290.985V450.234H283.901V461H281.146V448.102ZM298.068 457.204C298.068 455.867 298.635 454.839 299.769 454.119C300.903 453.4 302.473 453.044 304.479 453.053H308.478V452.101C308.478 451.322 308.22 450.734 307.703 450.336C307.187 449.938 306.319 449.739 305.101 449.739C303.941 449.739 303.078 449.913 302.511 450.26C301.952 450.607 301.673 451.068 301.673 451.644V451.809H298.982V451.618C298.982 450.45 299.532 449.511 300.632 448.8C301.741 448.089 303.268 447.733 305.215 447.733C307.162 447.733 308.651 448.102 309.684 448.838C310.716 449.566 311.233 450.679 311.233 452.177V457.991C311.233 458.541 311.279 459.058 311.372 459.54C311.465 460.022 311.601 460.441 311.778 460.797V461H309.1C308.973 460.788 308.854 460.522 308.744 460.2C308.643 459.87 308.579 459.527 308.554 459.172C308.198 459.722 307.572 460.204 306.675 460.619C305.778 461.025 304.635 461.229 303.247 461.229C301.656 461.229 300.395 460.882 299.464 460.188C298.533 459.493 298.068 458.499 298.068 457.204ZM300.822 457.039C300.822 457.758 301.081 458.309 301.597 458.689C302.113 459.062 302.934 459.248 304.06 459.248C305.211 459.248 306.235 458.956 307.132 458.372C308.029 457.78 308.478 457.107 308.478 456.354V454.817H304.948C303.577 454.817 302.545 455.008 301.851 455.389C301.165 455.761 300.822 456.311 300.822 457.039ZM316.436 448.102H319.191V453.37H326.364V448.102H329.119V461H326.364V455.478H319.191V461H316.436V448.102ZM334.322 461V448.102H337.064V456.125C337.064 456.396 337.06 456.671 337.052 456.95C337.043 457.221 337.031 457.492 337.014 457.763H337.103C337.238 457.517 337.369 457.289 337.496 457.077C337.623 456.857 337.788 456.607 337.991 456.328L344.364 448.102H347.157V461H344.402V452.964C344.402 452.701 344.407 452.431 344.415 452.151C344.424 451.872 344.436 451.597 344.453 451.326H344.364C344.237 451.563 344.11 451.792 343.983 452.012C343.856 452.232 343.687 452.481 343.476 452.761L337.103 461H334.322ZM352.335 461V448.102H355.078V456.125C355.078 456.396 355.073 456.671 355.065 456.95C355.056 457.221 355.044 457.492 355.027 457.763H355.116C355.251 457.517 355.382 457.289 355.509 457.077C355.636 456.857 355.801 456.607 356.004 456.328L362.377 448.102H365.17V461H362.415V452.964C362.415 452.701 362.42 452.431 362.428 452.151C362.437 451.872 362.449 451.597 362.466 451.326H362.377C362.25 451.563 362.124 451.792 361.997 452.012C361.87 452.232 361.7 452.481 361.489 452.761L355.116 461H352.335Z" fill="#04101C"/>
<path d="M52.2949 501V499.121L59.9248 491.897C60.7373 491.11 61.4186 490.344 61.9688 489.6C62.5189 488.855 62.7939 488.089 62.7939 487.302C62.7939 486.447 62.4766 485.749 61.8418 485.207C61.2155 484.665 60.3184 484.395 59.1504 484.395C57.9232 484.395 56.9456 484.703 56.2178 485.321C55.4899 485.931 55.126 486.794 55.126 487.911V488.152H52.2822V487.873C52.2822 486.206 52.9085 484.839 54.1611 483.772C55.4222 482.698 57.0853 482.16 59.1504 482.16C61.1816 482.16 62.7728 482.643 63.9238 483.607C65.0833 484.572 65.6631 485.753 65.6631 487.149C65.6631 488.377 65.3034 489.468 64.584 490.425C63.873 491.381 62.9632 492.384 61.8545 493.434L56.2051 498.753H66.1836V501H52.2949ZM69.9272 493.967V489.498C69.9272 487.23 70.5366 485.44 71.7553 484.128C72.9825 482.816 74.7049 482.16 76.9223 482.16C79.1398 482.16 80.8621 482.816 82.0893 484.128C83.325 485.431 83.9428 487.221 83.9428 489.498V493.967C83.9428 496.277 83.325 498.089 82.0893 499.4C80.8536 500.704 79.1313 501.355 76.9223 501.355C74.6879 501.355 72.9614 500.695 71.7426 499.375C70.5323 498.055 69.9272 496.252 69.9272 493.967ZM72.809 494.183C72.809 495.723 73.1433 496.933 73.812 497.813C74.4806 498.694 75.5174 499.134 76.9223 499.134C78.3357 499.134 79.3767 498.694 80.0454 497.813C80.7224 496.933 81.061 495.727 81.061 494.195V489.295C81.061 487.788 80.7224 486.599 80.0454 485.728C79.3683 484.847 78.3273 484.407 76.9223 484.407C75.5258 484.407 74.489 484.847 73.812 485.728C73.1433 486.599 72.809 487.788 72.809 489.295V494.183ZM94.2372 501V485.283L88.7401 487.327V484.775L95.8876 482.3H97.0936V501H94.2372ZM105.344 496.074V495.808H108.137V496.062C108.137 497.06 108.514 497.826 109.267 498.359C110.029 498.893 111.048 499.159 112.326 499.159C113.604 499.159 114.62 498.893 115.373 498.359C116.127 497.818 116.503 496.967 116.503 495.808C116.503 494.674 116.08 493.827 115.234 493.269C114.387 492.71 113.241 492.431 111.793 492.431H109.94V490.336H111.666C112.927 490.336 113.935 490.078 114.688 489.562C115.441 489.037 115.818 488.258 115.818 487.226C115.818 486.278 115.505 485.567 114.878 485.093C114.252 484.61 113.393 484.369 112.301 484.369C111.192 484.369 110.308 484.61 109.648 485.093C108.988 485.575 108.658 486.273 108.658 487.188V487.391H105.865V487.175C105.865 485.728 106.457 484.53 107.642 483.582C108.835 482.634 110.401 482.16 112.339 482.16C114.286 482.16 115.826 482.609 116.96 483.506C118.103 484.403 118.674 485.562 118.674 486.984C118.674 487.958 118.399 488.821 117.849 489.574C117.307 490.327 116.491 490.89 115.399 491.263V491.313C116.584 491.559 117.544 492.075 118.281 492.862C119.025 493.649 119.398 494.652 119.398 495.871C119.398 497.564 118.75 498.901 117.455 499.883C116.16 500.865 114.451 501.355 112.326 501.355C110.194 501.355 108.497 500.869 107.236 499.896C105.975 498.922 105.344 497.648 105.344 496.074Z" fill="#7A73FF"/>
<path d="M210.12 977V958.516H217.483C219.515 958.516 221.11 958.901 222.27 959.671C223.429 960.433 224.009 961.656 224.009 963.34C224.009 964.372 223.734 965.219 223.184 965.879C222.642 966.539 221.973 966.996 221.178 967.25V967.301C222.176 967.555 222.997 968.05 223.641 968.786C224.284 969.514 224.605 970.492 224.605 971.719C224.605 973.437 223.988 974.749 222.752 975.654C221.516 976.551 219.896 977 217.89 977H210.12ZM212.926 974.842H217.75C219.104 974.842 220.111 974.567 220.771 974.017C221.432 973.458 221.762 972.658 221.762 971.617C221.762 970.618 221.432 969.84 220.771 969.281C220.111 968.714 219.104 968.431 217.75 968.431H212.926V974.842ZM212.926 966.374H217.356C218.702 966.374 219.68 966.124 220.289 965.625C220.898 965.117 221.203 964.406 221.203 963.492C221.203 962.553 220.898 961.854 220.289 961.397C219.68 960.932 218.702 960.699 217.356 960.699H212.926V966.374ZM234.646 977.368C232.293 977.377 230.558 976.966 229.441 976.137C228.324 975.299 227.765 974.194 227.765 972.823V972.722H230.406V972.811C230.406 973.53 230.723 974.127 231.358 974.601C231.993 975.075 233.076 975.312 234.608 975.312C235.92 975.312 236.914 975.13 237.591 974.766C238.268 974.393 238.607 973.873 238.607 973.204C238.607 972.637 238.383 972.201 237.934 971.896C237.494 971.583 236.808 971.427 235.877 971.427H232.373V969.459H235.573C236.478 969.459 237.134 969.302 237.54 968.989C237.955 968.668 238.163 968.232 238.163 967.682C238.163 967.072 237.875 966.607 237.299 966.285C236.724 965.955 235.865 965.79 234.722 965.79C233.343 965.79 232.323 966.014 231.663 966.463C231.002 966.911 230.672 967.512 230.672 968.266V968.367H228.032V968.266C228.04 966.869 228.62 965.765 229.771 964.952C230.93 964.131 232.602 963.721 234.786 963.721C236.859 963.721 238.404 964.055 239.419 964.724C240.443 965.392 240.956 966.285 240.956 967.402C240.956 968.13 240.719 968.744 240.245 969.243C239.771 969.743 239.102 970.102 238.239 970.322V970.36C239.22 970.504 239.991 970.826 240.549 971.325C241.116 971.816 241.4 972.489 241.4 973.344C241.4 974.605 240.795 975.591 239.584 976.302C238.383 977.013 236.736 977.368 234.646 977.368ZM248.051 977H245.029L249.244 971.554L252.075 971.744L248.051 977ZM255.084 977V972.392H251.021L250.552 972.265C248.901 972.265 247.64 971.901 246.768 971.173C245.905 970.445 245.474 969.459 245.474 968.215C245.474 966.971 245.905 965.976 246.768 965.231C247.64 964.478 248.897 964.102 250.539 964.102H257.864V977H255.084ZM250.844 970.411H255.084V966.069H250.844C249.887 966.069 249.214 966.277 248.825 966.691C248.436 967.098 248.241 967.614 248.241 968.24C248.241 968.883 248.432 969.408 248.812 969.814C249.202 970.212 249.879 970.411 250.844 970.411ZM261.608 966.234V964.102H274.506V966.234H269.441V977H266.686V966.234H261.608ZM296.123 977L290.106 971.059L291.997 969.434L299.678 977H296.123ZM287.617 969.37H290.474L295.628 964.102H298.84L291.477 971.49H287.617V969.37ZM288.988 964.102V977H286.246V964.102H288.988ZM301.606 982.256L301.619 980.098C301.898 980.174 302.199 980.233 302.52 980.275C302.842 980.318 303.151 980.339 303.447 980.339C304.217 980.339 304.86 980.132 305.377 979.717C305.893 979.311 306.443 978.384 307.027 976.937L306.951 976.924L301.035 964.102H303.853L307.611 972.569C307.755 972.891 307.878 973.191 307.979 973.471C308.081 973.742 308.174 974.025 308.258 974.321H308.322C308.415 974.025 308.512 973.742 308.614 973.471C308.715 973.191 308.834 972.891 308.969 972.569L312.689 964.102H315.355L308.804 978.6C308.203 979.895 307.484 980.872 306.646 981.532C305.817 982.192 304.818 982.522 303.65 982.522C303.235 982.522 302.867 982.497 302.546 982.446C302.224 982.404 301.911 982.34 301.606 982.256ZM318.642 982.307V964.102H321.206L321.295 965.892H321.32C321.727 965.325 322.361 964.838 323.225 964.432C324.096 964.025 325.112 963.822 326.272 963.822C328.244 963.822 329.814 964.423 330.982 965.625C332.158 966.827 332.746 968.401 332.746 970.348V970.716C332.746 972.679 332.158 974.266 330.982 975.477C329.814 976.678 328.256 977.279 326.31 977.279C325.15 977.279 324.156 977.102 323.326 976.746C322.497 976.382 321.854 975.929 321.397 975.388L321.384 982.307H318.642ZM321.384 972.887C321.68 973.462 322.192 973.979 322.92 974.436C323.648 974.893 324.532 975.121 325.573 975.121C327.08 975.121 328.184 974.723 328.887 973.928C329.589 973.132 329.941 972.078 329.941 970.767V970.297C329.941 969.002 329.589 967.961 328.887 967.174C328.184 966.387 327.08 965.993 325.573 965.993C324.541 965.993 323.661 966.217 322.933 966.666C322.213 967.106 321.697 967.614 321.384 968.189V972.887ZM336.274 970.716V970.348C336.274 968.359 336.926 966.759 338.229 965.549C339.541 964.33 341.327 963.721 343.586 963.721C345.685 963.721 347.285 964.182 348.385 965.104C349.494 966.019 350.07 967.115 350.112 968.393V968.545H347.37V968.418C347.353 967.665 347.04 967.055 346.43 966.59C345.829 966.116 344.881 965.879 343.586 965.879C342.071 965.879 340.942 966.285 340.197 967.098C339.46 967.902 339.092 968.968 339.092 970.297V970.792C339.092 972.121 339.456 973.196 340.184 974.017C340.92 974.829 342.055 975.235 343.586 975.235C344.898 975.235 345.859 974.998 346.468 974.524C347.078 974.042 347.387 973.42 347.395 972.658V972.544H350.112V972.684C350.095 973.962 349.528 975.062 348.411 975.984C347.293 976.907 345.685 977.368 343.586 977.368C341.327 977.368 339.541 976.763 338.229 975.553C336.926 974.342 336.274 972.73 336.274 970.716ZM362.068 964.102H364.823V969.37H371.996V964.102H374.75V977H371.996V971.478H364.823V977H362.068V964.102ZM379.091 973.204C379.091 971.867 379.658 970.839 380.792 970.119C381.926 969.4 383.496 969.044 385.502 969.053H389.501V968.101C389.501 967.322 389.243 966.734 388.726 966.336C388.21 965.938 387.343 965.739 386.124 965.739C384.964 965.739 384.101 965.913 383.534 966.26C382.975 966.607 382.696 967.068 382.696 967.644V967.809H380.005V967.618C380.005 966.45 380.555 965.511 381.655 964.8C382.764 964.089 384.292 963.733 386.238 963.733C388.185 963.733 389.674 964.102 390.707 964.838C391.739 965.566 392.256 966.679 392.256 968.177V973.991C392.256 974.541 392.302 975.058 392.395 975.54C392.488 976.022 392.624 976.441 392.802 976.797V977H390.123C389.996 976.788 389.877 976.522 389.767 976.2C389.666 975.87 389.602 975.527 389.577 975.172C389.222 975.722 388.595 976.204 387.698 976.619C386.801 977.025 385.658 977.229 384.27 977.229C382.679 977.229 381.418 976.882 380.487 976.188C379.556 975.493 379.091 974.499 379.091 973.204ZM381.846 973.039C381.846 973.758 382.104 974.309 382.62 974.689C383.136 975.062 383.957 975.248 385.083 975.248C386.234 975.248 387.258 974.956 388.155 974.372C389.052 973.78 389.501 973.107 389.501 972.354V970.817H385.972C384.6 970.817 383.568 971.008 382.874 971.389C382.188 971.761 381.846 972.311 381.846 973.039ZM404.91 968.101V967.377C404.91 964.355 405.765 962.062 407.474 960.496C409.184 958.93 411.368 958.147 414.025 958.147C416.683 958.147 418.87 958.93 420.589 960.496C422.307 962.062 423.166 964.355 423.166 967.377V968.101C423.166 971.139 422.307 973.445 420.589 975.02C418.87 976.585 416.683 977.368 414.025 977.368C411.368 977.368 409.184 976.585 407.474 975.02C405.765 973.445 404.91 971.139 404.91 968.101ZM407.804 968.24C407.804 970.508 408.376 972.218 409.518 973.369C410.669 974.52 412.176 975.096 414.038 975.096C415.891 975.096 417.389 974.52 418.532 973.369C419.683 972.218 420.259 970.508 420.259 968.24V967.25C420.259 964.99 419.687 963.289 418.545 962.146C417.402 961.004 415.9 960.433 414.038 960.433C412.167 960.433 410.661 961.004 409.518 962.146C408.376 963.289 407.804 964.99 407.804 967.25V968.24ZM428.128 977V958.516H435.542C437.709 958.516 439.38 959.007 440.557 959.988C441.733 960.962 442.321 962.316 442.321 964.051C442.321 965.777 441.725 967.144 440.531 968.151C439.347 969.159 437.683 969.666 435.542 969.675H430.985V977H428.128ZM430.972 967.517H435.428C436.909 967.517 437.95 967.199 438.551 966.564C439.16 965.93 439.469 965.104 439.478 964.089C439.478 963.056 439.173 962.24 438.564 961.639C437.954 961.029 436.909 960.725 435.428 960.725H430.972V967.517ZM440.176 977L435.212 968.532L438.119 968.24L443.426 977H440.176ZM447.436 977V958.516H450.965L457.415 972.379C457.542 972.65 457.656 972.908 457.757 973.153C457.859 973.399 457.944 973.627 458.011 973.839H458.087C458.155 973.627 458.236 973.399 458.329 973.153C458.43 972.899 458.54 972.641 458.659 972.379L465.146 958.516H468.713V977H465.921L465.933 963.708C465.933 963.454 465.937 963.183 465.946 962.896C465.963 962.599 465.984 962.328 466.009 962.083H465.908C465.857 962.328 465.781 962.599 465.679 962.896C465.578 963.192 465.476 963.463 465.375 963.708L459.192 977H456.716L450.546 963.721C450.436 963.467 450.331 963.192 450.229 962.896C450.128 962.591 450.051 962.32 450.001 962.083H449.899C449.924 962.32 449.946 962.591 449.962 962.896C449.979 963.192 449.988 963.467 449.988 963.721L450.001 977H447.436Z" fill="#04101C"/>
<path d="M209.295 1017V1015.12L216.925 1007.9C217.737 1007.11 218.419 1006.34 218.969 1005.6C219.519 1004.85 219.794 1004.09 219.794 1003.3C219.794 1002.45 219.477 1001.75 218.842 1001.21C218.215 1000.67 217.318 1000.39 216.15 1000.39C214.923 1000.39 213.946 1000.7 213.218 1001.32C212.49 1001.93 212.126 1002.79 212.126 1003.91V1004.15H209.282V1003.87C209.282 1002.21 209.909 1000.84 211.161 999.772C212.422 998.698 214.085 998.16 216.15 998.16C218.182 998.16 219.773 998.643 220.924 999.607C222.083 1000.57 222.663 1001.75 222.663 1003.15C222.663 1004.38 222.303 1005.47 221.584 1006.42C220.873 1007.38 219.963 1008.38 218.854 1009.43L213.205 1014.75H223.184V1017H209.295ZM226.927 1009.97V1005.5C226.927 1003.23 227.537 1001.44 228.755 1000.13C229.983 998.816 231.705 998.16 233.922 998.16C236.14 998.16 237.862 998.816 239.089 1000.13C240.325 1001.43 240.943 1003.22 240.943 1005.5V1009.97C240.943 1012.28 240.325 1014.09 239.089 1015.4C237.854 1016.7 236.131 1017.36 233.922 1017.36C231.688 1017.36 229.961 1016.7 228.743 1015.38C227.532 1014.05 226.927 1012.25 226.927 1009.97ZM229.809 1010.18C229.809 1011.72 230.143 1012.93 230.812 1013.81C231.481 1014.69 232.517 1015.13 233.922 1015.13C235.336 1015.13 236.377 1014.69 237.045 1013.81C237.722 1012.93 238.061 1011.73 238.061 1010.2V1005.29C238.061 1003.79 237.722 1002.6 237.045 1001.73C236.368 1000.85 235.327 1000.41 233.922 1000.41C232.526 1000.41 231.489 1000.85 230.812 1001.73C230.143 1002.6 229.809 1003.79 229.809 1005.29V1010.18ZM251.237 1017V1001.28L245.74 1003.33V1000.78L252.888 998.3H254.094V1017H251.237ZM271.751 1017V1012.01L271.777 1011.49V1002.32H271.637L265.175 1010.55H272.386L273.262 1010.5H277.172V1012.79H262.052V1010.84L271.878 998.516H274.468V1017H271.751Z" fill="#5D5FEF"/>
<path d="M984.12 754V735.516H991.483C993.515 735.516 995.11 735.901 996.27 736.671C997.429 737.433 998.009 738.656 998.009 740.34C998.009 741.372 997.734 742.219 997.184 742.879C996.642 743.539 995.973 743.996 995.178 744.25V744.301C996.176 744.555 996.997 745.05 997.641 745.786C998.284 746.514 998.605 747.492 998.605 748.719C998.605 750.437 997.988 751.749 996.752 752.654C995.516 753.551 993.896 754 991.89 754H984.12ZM986.926 751.842H991.75C993.104 751.842 994.111 751.567 994.771 751.017C995.432 750.458 995.762 749.658 995.762 748.617C995.762 747.618 995.432 746.84 994.771 746.281C994.111 745.714 993.104 745.431 991.75 745.431H986.926V751.842ZM986.926 743.374H991.356C992.702 743.374 993.68 743.124 994.289 742.625C994.898 742.117 995.203 741.406 995.203 740.492C995.203 739.553 994.898 738.854 994.289 738.397C993.68 737.932 992.702 737.699 991.356 737.699H986.926V743.374ZM1001.28 743.234V741.102H1014.18V743.234H1009.12V754H1006.36V743.234H1001.28ZM1017.1 747.716V747.36C1017.1 745.38 1017.78 743.78 1019.13 742.562C1020.49 741.334 1022.3 740.721 1024.54 740.721C1026.79 740.721 1028.59 741.334 1029.95 742.562C1031.3 743.78 1031.98 745.38 1031.98 747.36V747.716C1031.98 749.713 1031.3 751.321 1029.95 752.54C1028.59 753.759 1026.79 754.368 1024.54 754.368C1022.3 754.368 1020.49 753.759 1019.13 752.54C1017.78 751.321 1017.1 749.713 1017.1 747.716ZM1019.92 747.31V747.792C1019.92 749.104 1020.31 750.17 1021.09 750.991C1021.87 751.804 1023.02 752.21 1024.54 752.21C1026.05 752.21 1027.2 751.804 1027.98 750.991C1028.77 750.17 1029.16 749.1 1029.16 747.779V747.31C1029.16 745.998 1028.77 744.936 1027.98 744.123C1027.2 743.311 1026.05 742.904 1024.54 742.904C1023.03 742.904 1021.89 743.311 1021.1 744.123C1020.31 744.936 1019.92 745.998 1019.92 747.31ZM1036.33 759.307V741.102H1038.9L1038.98 742.892H1039.01C1039.42 742.325 1040.05 741.838 1040.91 741.432C1041.79 741.025 1042.8 740.822 1043.96 740.822C1045.93 740.822 1047.5 741.423 1048.67 742.625C1049.85 743.827 1050.44 745.401 1050.44 747.348V747.716C1050.44 749.679 1049.85 751.266 1048.67 752.477C1047.5 753.678 1045.95 754.279 1044 754.279C1042.84 754.279 1041.85 754.102 1041.02 753.746C1040.19 753.382 1039.54 752.929 1039.09 752.388L1039.07 759.307H1036.33ZM1039.07 749.887C1039.37 750.462 1039.88 750.979 1040.61 751.436C1041.34 751.893 1042.22 752.121 1043.26 752.121C1044.77 752.121 1045.87 751.723 1046.58 750.928C1047.28 750.132 1047.63 749.078 1047.63 747.767V747.297C1047.63 746.002 1047.28 744.961 1046.58 744.174C1045.87 743.387 1044.77 742.993 1043.26 742.993C1042.23 742.993 1041.35 743.217 1040.62 743.666C1039.9 744.106 1039.39 744.614 1039.07 745.189V749.887ZM1053.94 750.204C1053.94 748.867 1054.51 747.839 1055.64 747.119C1056.77 746.4 1058.34 746.044 1060.35 746.053H1064.35V745.101C1064.35 744.322 1064.09 743.734 1063.57 743.336C1063.06 742.938 1062.19 742.739 1060.97 742.739C1059.81 742.739 1058.95 742.913 1058.38 743.26C1057.82 743.607 1057.54 744.068 1057.54 744.644V744.809H1054.85V744.618C1054.85 743.45 1055.4 742.511 1056.5 741.8C1057.61 741.089 1059.14 740.733 1061.09 740.733C1063.03 740.733 1064.52 741.102 1065.55 741.838C1066.59 742.566 1067.1 743.679 1067.1 745.177V750.991C1067.1 751.541 1067.15 752.058 1067.24 752.54C1067.34 753.022 1067.47 753.441 1067.65 753.797V754H1064.97C1064.84 753.788 1064.73 753.522 1064.61 753.2C1064.51 752.87 1064.45 752.527 1064.42 752.172C1064.07 752.722 1063.44 753.204 1062.55 753.619C1061.65 754.025 1060.51 754.229 1059.12 754.229C1057.53 754.229 1056.27 753.882 1055.33 753.188C1054.4 752.493 1053.94 751.499 1053.94 750.204ZM1056.69 750.039C1056.69 750.758 1056.95 751.309 1057.47 751.689C1057.98 752.062 1058.8 752.248 1059.93 752.248C1061.08 752.248 1062.11 751.956 1063 751.372C1063.9 750.78 1064.35 750.107 1064.35 749.354V747.817H1060.82C1059.45 747.817 1058.42 748.008 1057.72 748.389C1057.04 748.761 1056.69 749.311 1056.69 750.039ZM1074.44 754H1071.42L1075.63 748.554L1078.46 748.744L1074.44 754ZM1081.47 754V749.392H1077.41L1076.94 749.265C1075.29 749.265 1074.03 748.901 1073.16 748.173C1072.29 747.445 1071.86 746.459 1071.86 745.215C1071.86 743.971 1072.29 742.976 1073.16 742.231C1074.03 741.478 1075.29 741.102 1076.93 741.102H1084.25V754H1081.47ZM1077.23 747.411H1081.47V743.069H1077.23C1076.28 743.069 1075.6 743.277 1075.21 743.691C1074.82 744.098 1074.63 744.614 1074.63 745.24C1074.63 745.883 1074.82 746.408 1075.2 746.814C1075.59 747.212 1076.27 747.411 1077.23 747.411ZM1110.19 747.716C1110.19 749.798 1109.54 751.427 1108.24 752.604C1106.96 753.78 1105.2 754.368 1102.96 754.368C1100.8 754.368 1099.15 753.911 1098.02 752.997C1096.91 752.075 1096.34 750.979 1096.34 749.709V749.557H1098.95V749.671C1098.96 750.424 1099.28 751.046 1099.9 751.537C1100.54 752.02 1101.57 752.261 1102.99 752.261C1104.49 752.261 1105.61 751.871 1106.34 751.093C1107.08 750.306 1107.44 749.193 1107.44 747.754V747.297C1107.44 745.841 1107.07 744.741 1106.33 743.996C1105.59 743.243 1104.48 742.866 1103 742.866C1101.6 742.866 1100.58 743.107 1099.95 743.59C1099.34 744.064 1099.02 744.669 1099 745.405V745.532H1096.36L1096.37 745.367C1096.4 744.081 1096.97 742.985 1098.09 742.079C1099.21 741.174 1100.84 740.721 1103 740.721C1105.22 740.721 1106.97 741.313 1108.26 742.498C1109.54 743.674 1110.19 745.291 1110.19 747.348V747.716ZM1108.74 746.472V748.376H1100.78V746.472H1108.74ZM1114.54 754V741.102H1122.25C1123.77 741.102 1124.92 741.381 1125.7 741.939C1126.48 742.498 1126.87 743.336 1126.87 744.453C1126.87 745.206 1126.66 745.824 1126.23 746.307C1125.82 746.789 1125.25 747.128 1124.52 747.322V747.36C1125.36 747.504 1126.05 747.83 1126.56 748.338C1127.08 748.846 1127.34 749.523 1127.34 750.369C1127.34 751.512 1126.93 752.405 1126.1 753.048C1125.28 753.683 1124.12 754 1122.63 754H1114.54ZM1117.27 746.497H1121.95C1122.72 746.497 1123.27 746.34 1123.6 746.027C1123.94 745.706 1124.11 745.257 1124.11 744.682C1124.11 744.148 1123.94 743.742 1123.6 743.463C1123.27 743.175 1122.72 743.031 1121.95 743.031H1117.27V746.497ZM1117.27 752.07H1122.3C1123.08 752.07 1123.65 751.905 1124.02 751.575C1124.4 751.245 1124.58 750.792 1124.58 750.217C1124.58 749.65 1124.4 749.201 1124.04 748.871C1123.67 748.533 1123.09 748.363 1122.3 748.363H1117.27V752.07ZM1131.08 747.716V747.36C1131.08 745.38 1131.76 743.78 1133.11 742.562C1134.47 741.334 1136.28 740.721 1138.52 740.721C1140.77 740.721 1142.57 741.334 1143.93 742.562C1145.28 743.78 1145.96 745.38 1145.96 747.36V747.716C1145.96 749.713 1145.28 751.321 1143.93 752.54C1142.57 753.759 1140.77 754.368 1138.52 754.368C1136.28 754.368 1134.47 753.759 1133.11 752.54C1131.76 751.321 1131.08 749.713 1131.08 747.716ZM1133.9 747.31V747.792C1133.9 749.104 1134.29 750.17 1135.07 750.991C1135.85 751.804 1137 752.21 1138.52 752.21C1140.03 752.21 1141.18 751.804 1141.96 750.991C1142.75 750.17 1143.14 749.1 1143.14 747.779V747.31C1143.14 745.998 1142.75 744.936 1141.96 744.123C1141.18 743.311 1140.03 742.904 1138.52 742.904C1137.01 742.904 1135.87 743.311 1135.08 744.123C1134.29 744.936 1133.9 745.998 1133.9 747.31ZM1154.1 743.234L1153.85 748.186C1153.76 750.361 1153.44 751.922 1152.9 752.87C1152.37 753.81 1151.45 754.279 1150.16 754.279C1149.85 754.279 1149.58 754.262 1149.32 754.229C1149.08 754.195 1148.88 754.144 1148.73 754.076V751.804C1148.86 751.863 1149 751.905 1149.14 751.931C1149.29 751.948 1149.47 751.956 1149.68 751.956C1150.27 751.956 1150.68 751.664 1150.92 751.08C1151.17 750.488 1151.32 749.417 1151.38 747.868L1151.7 741.102H1162.65V754H1159.9V743.234H1154.1ZM1167.87 741.102H1170.62V746.37H1174.63V748.478H1170.62V754H1167.87V741.102ZM1173.25 747.716V747.36C1173.25 745.38 1173.92 743.78 1175.24 742.562C1176.58 741.334 1178.35 740.721 1180.55 740.721C1182.76 740.721 1184.53 741.334 1185.86 742.562C1187.19 743.78 1187.85 745.38 1187.85 747.36V747.716C1187.85 749.713 1187.19 751.321 1185.86 752.54C1184.53 753.759 1182.76 754.368 1180.55 754.368C1178.34 754.368 1176.57 753.759 1175.24 752.54C1173.92 751.321 1173.25 749.713 1173.25 747.716ZM1176.04 747.31V747.779C1176.04 749.108 1176.42 750.179 1177.17 750.991C1177.94 751.804 1179.06 752.21 1180.54 752.21C1182.01 752.21 1183.13 751.804 1183.89 750.991C1184.65 750.179 1185.03 749.108 1185.03 747.779V747.31C1185.03 745.989 1184.65 744.927 1183.89 744.123C1183.13 743.311 1182.01 742.904 1180.54 742.904C1179.07 742.904 1177.95 743.311 1177.19 744.123C1176.42 744.927 1176.04 745.989 1176.04 747.31ZM1204.23 757.402V754H1192.2V741.102H1194.96V751.88H1201.98V741.102H1204.73V751.88H1206.78V757.402H1204.23ZM1210.39 754V741.102H1213.14V749.125C1213.14 749.396 1213.13 749.671 1213.12 749.95C1213.12 750.221 1213.1 750.492 1213.09 750.763H1213.17C1213.31 750.517 1213.44 750.289 1213.57 750.077C1213.7 749.857 1213.86 749.607 1214.06 749.328L1220.44 741.102H1223.23V754H1220.47V745.964C1220.47 745.701 1220.48 745.431 1220.49 745.151C1220.5 744.872 1220.51 744.597 1220.53 744.326H1220.44C1220.31 744.563 1220.18 744.792 1220.06 745.012C1219.93 745.232 1219.76 745.481 1219.55 745.761L1213.17 754H1210.39ZM1230.54 754H1227.52L1231.73 748.554L1234.56 748.744L1230.54 754ZM1237.57 754V749.392H1233.51L1233.04 749.265C1231.39 749.265 1230.13 748.901 1229.26 748.173C1228.39 747.445 1227.96 746.459 1227.96 745.215C1227.96 743.971 1228.39 742.976 1229.26 742.231C1230.13 741.478 1231.39 741.102 1233.03 741.102H1240.35V754H1237.57ZM1233.33 747.411H1237.57V743.069H1233.33C1232.38 743.069 1231.7 743.277 1231.31 743.691C1230.93 744.098 1230.73 744.614 1230.73 745.24C1230.73 745.883 1230.92 746.408 1231.3 746.814C1231.69 747.212 1232.37 747.411 1233.33 747.411Z" fill="#04101C"/>
<path d="M983.295 794V792.121L990.925 784.897C991.737 784.11 992.419 783.344 992.969 782.6C993.519 781.855 993.794 781.089 993.794 780.302C993.794 779.447 993.477 778.749 992.842 778.207C992.215 777.665 991.318 777.395 990.15 777.395C988.923 777.395 987.946 777.703 987.218 778.321C986.49 778.931 986.126 779.794 986.126 780.911V781.152H983.282V780.873C983.282 779.206 983.909 777.839 985.161 776.772C986.422 775.698 988.085 775.16 990.15 775.16C992.182 775.16 993.773 775.643 994.924 776.607C996.083 777.572 996.663 778.753 996.663 780.149C996.663 781.377 996.303 782.468 995.584 783.425C994.873 784.381 993.963 785.384 992.854 786.434L987.205 791.753H997.184V794H983.295ZM1000.93 786.967V782.498C1000.93 780.23 1001.54 778.44 1002.76 777.128C1003.98 775.816 1005.7 775.16 1007.92 775.16C1010.14 775.16 1011.86 775.816 1013.09 777.128C1014.32 778.431 1014.94 780.221 1014.94 782.498V786.967C1014.94 789.277 1014.32 791.089 1013.09 792.4C1011.85 793.704 1010.13 794.355 1007.92 794.355C1005.69 794.355 1003.96 793.695 1002.74 792.375C1001.53 791.055 1000.93 789.252 1000.93 786.967ZM1003.81 787.183C1003.81 788.723 1004.14 789.933 1004.81 790.813C1005.48 791.694 1006.52 792.134 1007.92 792.134C1009.34 792.134 1010.38 791.694 1011.05 790.813C1011.72 789.933 1012.06 788.727 1012.06 787.195V782.295C1012.06 780.788 1011.72 779.599 1011.05 778.728C1010.37 777.847 1009.33 777.407 1007.92 777.407C1006.53 777.407 1005.49 777.847 1004.81 778.728C1004.14 779.599 1003.81 780.788 1003.81 782.295V787.183ZM1018.91 794V792.121L1026.54 784.897C1027.36 784.11 1028.04 783.344 1028.59 782.6C1029.14 781.855 1029.41 781.089 1029.41 780.302C1029.41 779.447 1029.1 778.749 1028.46 778.207C1027.84 777.665 1026.94 777.395 1025.77 777.395C1024.54 777.395 1023.57 777.703 1022.84 778.321C1022.11 778.931 1021.75 779.794 1021.75 780.911V781.152H1018.9V780.873C1018.9 779.206 1019.53 777.839 1020.78 776.772C1022.04 775.698 1023.71 775.16 1025.77 775.16C1027.8 775.16 1029.39 775.643 1030.54 776.607C1031.7 777.572 1032.28 778.753 1032.28 780.149C1032.28 781.377 1031.92 782.468 1031.2 783.425C1030.49 784.381 1029.58 785.384 1028.47 786.434L1022.83 791.753H1032.8V794H1018.91ZM1036.55 786.967V782.498C1036.55 780.23 1037.16 778.44 1038.38 777.128C1039.6 775.816 1041.32 775.16 1043.54 775.16C1045.76 775.16 1047.48 775.816 1048.71 777.128C1049.94 778.431 1050.56 780.221 1050.56 782.498V786.967C1050.56 789.277 1049.94 791.089 1048.71 792.4C1047.47 793.704 1045.75 794.355 1043.54 794.355C1041.31 794.355 1039.58 793.695 1038.36 792.375C1037.15 791.055 1036.55 789.252 1036.55 786.967ZM1039.43 787.183C1039.43 788.723 1039.76 789.933 1040.43 790.813C1041.1 791.694 1042.14 792.134 1043.54 792.134C1044.96 792.134 1046 791.694 1046.67 790.813C1047.34 789.933 1047.68 788.727 1047.68 787.195V782.295C1047.68 780.788 1047.34 779.599 1046.67 778.728C1045.99 777.847 1044.95 777.407 1043.54 777.407C1042.15 777.407 1041.11 777.847 1040.43 778.728C1039.76 779.599 1039.43 780.788 1039.43 782.295V787.183Z" fill="#5D5FEF"/>
<path d="M1252.12 643V624.516H1254.96V632.311H1265.42V624.516H1268.27V643H1265.42V634.608H1254.96V643H1252.12ZM1272.42 639.204C1272.42 637.867 1272.99 636.839 1274.12 636.119C1275.25 635.4 1276.82 635.044 1278.83 635.053H1282.83V634.101C1282.83 633.322 1282.57 632.734 1282.05 632.336C1281.54 631.938 1280.67 631.739 1279.45 631.739C1278.29 631.739 1277.43 631.913 1276.86 632.26C1276.3 632.607 1276.02 633.068 1276.02 633.644V633.809H1273.33V633.618C1273.33 632.45 1273.88 631.511 1274.98 630.8C1276.09 630.089 1277.62 629.733 1279.57 629.733C1281.51 629.733 1283 630.102 1284.03 630.838C1285.07 631.566 1285.58 632.679 1285.58 634.177V639.991C1285.58 640.541 1285.63 641.058 1285.72 641.54C1285.82 642.022 1285.95 642.441 1286.13 642.797V643H1283.45C1283.32 642.788 1283.21 642.522 1283.1 642.2C1282.99 641.87 1282.93 641.527 1282.9 641.172C1282.55 641.722 1281.92 642.204 1281.03 642.619C1280.13 643.025 1278.99 643.229 1277.6 643.229C1276.01 643.229 1274.75 642.882 1273.81 642.188C1272.88 641.493 1272.42 640.499 1272.42 639.204ZM1275.17 639.039C1275.17 639.758 1275.43 640.309 1275.95 640.689C1276.46 641.062 1277.28 641.248 1278.41 641.248C1279.56 641.248 1280.59 640.956 1281.48 640.372C1282.38 639.78 1282.83 639.107 1282.83 638.354V636.817H1279.3C1277.93 636.817 1276.9 637.008 1276.2 637.389C1275.52 637.761 1275.17 638.311 1275.17 639.039ZM1290.81 643V630.102H1294.51L1298.66 638.366C1298.89 638.84 1299.04 639.183 1299.12 639.395C1299.2 639.598 1299.27 639.801 1299.32 640.004H1299.42C1299.48 639.801 1299.55 639.598 1299.62 639.395C1299.71 639.191 1299.86 638.849 1300.09 638.366L1304.23 630.102H1307.87V643H1305.15V634.685C1305.15 634.202 1305.15 633.838 1305.17 633.593C1305.19 633.339 1305.21 633.106 1305.23 632.895H1305.15C1305.09 633.081 1305.03 633.284 1304.95 633.504C1304.88 633.715 1304.74 634.029 1304.55 634.443L1300.3 643H1298.11L1293.85 634.431C1293.7 634.118 1293.58 633.83 1293.49 633.567C1293.4 633.305 1293.33 633.081 1293.29 632.895H1293.19C1293.2 633.081 1293.22 633.301 1293.24 633.555C1293.25 633.809 1293.26 634.168 1293.26 634.634V643H1290.81ZM1326.85 643V627.283L1321.35 629.327V626.775L1328.5 624.3H1329.71V643H1326.85ZM1338.16 635.967V631.498C1338.16 629.23 1338.77 627.44 1339.99 626.128C1341.22 624.816 1342.94 624.16 1345.16 624.16C1347.37 624.16 1349.1 624.816 1350.32 626.128C1351.56 627.431 1352.18 629.221 1352.18 631.498V635.967C1352.18 638.277 1351.56 640.089 1350.32 641.4C1349.09 642.704 1347.37 643.355 1345.16 643.355C1342.92 643.355 1341.2 642.695 1339.98 641.375C1338.77 640.055 1338.16 638.252 1338.16 635.967ZM1341.04 636.183C1341.04 637.723 1341.38 638.933 1342.05 639.813C1342.71 640.694 1343.75 641.134 1345.16 641.134C1346.57 641.134 1347.61 640.694 1348.28 639.813C1348.96 638.933 1349.3 637.727 1349.3 636.195V631.295C1349.3 629.788 1348.96 628.599 1348.28 627.728C1347.6 626.847 1346.56 626.407 1345.16 626.407C1343.76 626.407 1342.72 626.847 1342.05 627.728C1341.38 628.599 1341.04 629.788 1341.04 631.295V636.183ZM1368.44 632.234L1368.2 637.186C1368.1 639.361 1367.78 640.922 1367.24 641.87C1366.71 642.81 1365.8 643.279 1364.5 643.279C1364.2 643.279 1363.92 643.262 1363.66 643.229C1363.42 643.195 1363.22 643.144 1363.07 643.076V640.804C1363.2 640.863 1363.34 640.905 1363.49 640.931C1363.63 640.948 1363.81 640.956 1364.02 640.956C1364.61 640.956 1365.03 640.664 1365.26 640.08C1365.51 639.488 1365.66 638.417 1365.72 636.868L1366.04 630.102H1376.99V643H1374.24V632.234H1368.44ZM1381.37 636.716V636.36C1381.37 634.388 1382.03 632.793 1383.35 631.574C1384.67 630.347 1386.41 629.733 1388.57 629.733C1390.72 629.733 1392.38 630.309 1393.55 631.46C1394.72 632.603 1395.31 634.16 1395.31 636.132V637.147H1383.01V635.243H1392.58V635.167C1392.58 634.211 1392.27 633.419 1391.65 632.793C1391.04 632.167 1390.01 631.854 1388.57 631.854C1387.09 631.854 1385.97 632.264 1385.22 633.085C1384.47 633.897 1384.1 634.96 1384.1 636.271V636.779C1384.1 638.108 1384.49 639.183 1385.28 640.004C1386.07 640.816 1387.27 641.223 1388.87 641.223C1389.93 641.223 1390.82 641.045 1391.54 640.689C1392.27 640.334 1392.84 639.907 1393.27 639.407L1395.15 640.728C1394.67 641.422 1393.91 642.035 1392.85 642.568C1391.79 643.102 1390.47 643.368 1388.89 643.368C1386.51 643.368 1384.66 642.759 1383.34 641.54C1382.03 640.313 1381.37 638.705 1381.37 636.716ZM1397.98 632.234V630.102H1410.87V632.234H1405.81V643H1403.05V632.234H1397.98Z" fill="#04101C"/>
<path d="M1251.29 683V681.121L1258.92 673.897C1259.74 673.11 1260.42 672.344 1260.97 671.6C1261.52 670.855 1261.79 670.089 1261.79 669.302C1261.79 668.447 1261.48 667.749 1260.84 667.207C1260.22 666.665 1259.32 666.395 1258.15 666.395C1256.92 666.395 1255.95 666.703 1255.22 667.321C1254.49 667.931 1254.13 668.794 1254.13 669.911V670.152H1251.28V669.873C1251.28 668.206 1251.91 666.839 1253.16 665.772C1254.42 664.698 1256.09 664.16 1258.15 664.16C1260.18 664.16 1261.77 664.643 1262.92 665.607C1264.08 666.572 1264.66 667.753 1264.66 669.149C1264.66 670.377 1264.3 671.468 1263.58 672.425C1262.87 673.381 1261.96 674.384 1260.85 675.434L1255.21 680.753H1265.18V683H1251.29ZM1268.93 675.967V671.498C1268.93 669.23 1269.54 667.44 1270.76 666.128C1271.98 664.816 1273.7 664.16 1275.92 664.16C1278.14 664.16 1279.86 664.816 1281.09 666.128C1282.32 667.431 1282.94 669.221 1282.94 671.498V675.967C1282.94 678.277 1282.32 680.089 1281.09 681.4C1279.85 682.704 1278.13 683.355 1275.92 683.355C1273.69 683.355 1271.96 682.695 1270.74 681.375C1269.53 680.055 1268.93 678.252 1268.93 675.967ZM1271.81 676.183C1271.81 677.723 1272.14 678.933 1272.81 679.813C1273.48 680.694 1274.52 681.134 1275.92 681.134C1277.34 681.134 1278.38 680.694 1279.05 679.813C1279.72 678.933 1280.06 677.727 1280.06 676.195V671.295C1280.06 669.788 1279.72 668.599 1279.05 667.728C1278.37 666.847 1277.33 666.407 1275.92 666.407C1274.53 666.407 1273.49 666.847 1272.81 667.728C1272.14 668.599 1271.81 669.788 1271.81 671.295V676.183ZM1286.91 683V681.121L1294.54 673.897C1295.36 673.11 1296.04 672.344 1296.59 671.6C1297.14 670.855 1297.41 670.089 1297.41 669.302C1297.41 668.447 1297.1 667.749 1296.46 667.207C1295.84 666.665 1294.94 666.395 1293.77 666.395C1292.54 666.395 1291.57 666.703 1290.84 667.321C1290.11 667.931 1289.75 668.794 1289.75 669.911V670.152H1286.9V669.873C1286.9 668.206 1287.53 666.839 1288.78 665.772C1290.04 664.698 1291.71 664.16 1293.77 664.16C1295.8 664.16 1297.39 664.643 1298.54 665.607C1299.7 666.572 1300.28 667.753 1300.28 669.149C1300.28 670.377 1299.92 671.468 1299.2 672.425C1298.49 673.381 1297.58 674.384 1296.47 675.434L1290.83 680.753H1300.8V683H1286.91ZM1304.34 678.074V677.808H1307.14V678.062C1307.14 679.06 1307.51 679.826 1308.27 680.359C1309.03 680.893 1310.05 681.159 1311.33 681.159C1312.6 681.159 1313.62 680.893 1314.37 680.359C1315.13 679.818 1315.5 678.967 1315.5 677.808C1315.5 676.674 1315.08 675.827 1314.23 675.269C1313.39 674.71 1312.24 674.431 1310.79 674.431H1308.94V672.336H1310.67C1311.93 672.336 1312.93 672.078 1313.69 671.562C1314.44 671.037 1314.82 670.258 1314.82 669.226C1314.82 668.278 1314.5 667.567 1313.88 667.093C1313.25 666.61 1312.39 666.369 1311.3 666.369C1310.19 666.369 1309.31 666.61 1308.65 667.093C1307.99 667.575 1307.66 668.273 1307.66 669.188V669.391H1304.86V669.175C1304.86 667.728 1305.46 666.53 1306.64 665.582C1307.84 664.634 1309.4 664.16 1311.34 664.16C1313.29 664.16 1314.83 664.609 1315.96 665.506C1317.1 666.403 1317.67 667.562 1317.67 668.984C1317.67 669.958 1317.4 670.821 1316.85 671.574C1316.31 672.327 1315.49 672.89 1314.4 673.263V673.313C1315.58 673.559 1316.54 674.075 1317.28 674.862C1318.03 675.649 1318.4 676.652 1318.4 677.871C1318.4 679.564 1317.75 680.901 1316.46 681.883C1315.16 682.865 1313.45 683.355 1311.33 683.355C1309.19 683.355 1307.5 682.869 1306.24 681.896C1304.97 680.922 1304.34 679.648 1304.34 678.074Z" fill="#5D5FEF"/>
<path d="M1079.12 212V193.516H1082.65L1089.1 207.379C1089.23 207.65 1089.34 207.908 1089.44 208.153C1089.54 208.399 1089.63 208.627 1089.7 208.839H1089.77C1089.84 208.627 1089.92 208.399 1090.01 208.153C1090.11 207.899 1090.22 207.641 1090.34 207.379L1096.83 193.516H1100.4V212H1097.6L1097.62 198.708C1097.62 198.454 1097.62 198.183 1097.63 197.896C1097.65 197.599 1097.67 197.328 1097.69 197.083H1097.59C1097.54 197.328 1097.46 197.599 1097.36 197.896C1097.26 198.192 1097.16 198.463 1097.06 198.708L1090.88 212H1088.4L1082.23 198.721C1082.12 198.467 1082.01 198.192 1081.91 197.896C1081.81 197.591 1081.74 197.32 1081.68 197.083H1081.58C1081.61 197.32 1081.63 197.591 1081.65 197.896C1081.66 198.192 1081.67 198.467 1081.67 198.721L1081.68 212H1079.12ZM1105.26 212V199.102H1108V207.125C1108 207.396 1108 207.671 1107.99 207.95C1107.98 208.221 1107.97 208.492 1107.95 208.763H1108.04C1108.17 208.517 1108.31 208.289 1108.43 208.077C1108.56 207.857 1108.72 207.607 1108.93 207.328L1115.3 199.102H1118.09V212H1115.34V203.964C1115.34 203.701 1115.34 203.431 1115.35 203.151C1115.36 202.872 1115.37 202.597 1115.39 202.326H1115.3C1115.17 202.563 1115.05 202.792 1114.92 203.012C1114.79 203.232 1114.62 203.481 1114.41 203.761L1108.04 212H1105.26ZM1123.27 217.307V199.102H1125.84L1125.92 200.892H1125.95C1126.36 200.325 1126.99 199.838 1127.85 199.432C1128.73 199.025 1129.74 198.822 1130.9 198.822C1132.87 198.822 1134.44 199.423 1135.61 200.625C1136.79 201.827 1137.38 203.401 1137.38 205.348V205.716C1137.38 207.679 1136.79 209.266 1135.61 210.477C1134.44 211.678 1132.89 212.279 1130.94 212.279C1129.78 212.279 1128.79 212.102 1127.96 211.746C1127.13 211.382 1126.48 210.929 1126.03 210.388L1126.01 217.307H1123.27ZM1126.01 207.887C1126.31 208.462 1126.82 208.979 1127.55 209.436C1128.28 209.893 1129.16 210.121 1130.2 210.121C1131.71 210.121 1132.81 209.723 1133.52 208.928C1134.22 208.132 1134.57 207.078 1134.57 205.767V205.297C1134.57 204.002 1134.22 202.961 1133.52 202.174C1132.81 201.387 1131.71 200.993 1130.2 200.993C1129.17 200.993 1128.29 201.217 1127.56 201.666C1126.84 202.106 1126.33 202.614 1126.01 203.189V207.887ZM1149.73 212V199.102H1157.43C1158.95 199.102 1160.11 199.381 1160.88 199.939C1161.66 200.498 1162.05 201.336 1162.05 202.453C1162.05 203.206 1161.84 203.824 1161.42 204.307C1161 204.789 1160.43 205.128 1159.7 205.322V205.36C1160.55 205.504 1161.23 205.83 1161.75 206.338C1162.26 206.846 1162.52 207.523 1162.52 208.369C1162.52 209.512 1162.11 210.405 1161.29 211.048C1160.47 211.683 1159.31 212 1157.81 212H1149.73ZM1152.45 204.497H1157.14C1157.9 204.497 1158.45 204.34 1158.79 204.027C1159.13 203.706 1159.3 203.257 1159.3 202.682C1159.3 202.148 1159.13 201.742 1158.79 201.463C1158.45 201.175 1157.9 201.031 1157.14 201.031H1152.45V204.497ZM1152.45 210.07H1157.48C1158.26 210.07 1158.84 209.905 1159.21 209.575C1159.58 209.245 1159.77 208.792 1159.77 208.217C1159.77 207.65 1159.59 207.201 1159.22 206.871C1158.86 206.533 1158.28 206.363 1157.48 206.363H1152.45V210.07ZM1166.27 205.716V205.348C1166.27 203.359 1166.92 201.759 1168.22 200.549C1169.53 199.33 1171.32 198.721 1173.58 198.721C1175.68 198.721 1177.28 199.182 1178.38 200.104C1179.49 201.019 1180.06 202.115 1180.1 203.393V203.545H1177.36V203.418C1177.34 202.665 1177.03 202.055 1176.42 201.59C1175.82 201.116 1174.87 200.879 1173.58 200.879C1172.06 200.879 1170.93 201.285 1170.19 202.098C1169.45 202.902 1169.08 203.968 1169.08 205.297V205.792C1169.08 207.121 1169.45 208.196 1170.18 209.017C1170.91 209.829 1172.05 210.235 1173.58 210.235C1174.89 210.235 1175.85 209.998 1176.46 209.524C1177.07 209.042 1177.38 208.42 1177.39 207.658V207.544H1180.1V207.684C1180.09 208.962 1179.52 210.062 1178.4 210.984C1177.29 211.907 1175.68 212.368 1173.58 212.368C1171.32 212.368 1169.53 211.763 1168.22 210.553C1166.92 209.342 1166.27 207.73 1166.27 205.716ZM1182.64 201.234V199.102H1195.54V201.234H1190.47V212H1187.72V201.234H1182.64ZM1199.3 217.307V199.102H1201.86L1201.95 200.892H1201.97C1202.38 200.325 1203.02 199.838 1203.88 199.432C1204.75 199.025 1205.77 198.822 1206.93 198.822C1208.9 198.822 1210.47 199.423 1211.64 200.625C1212.81 201.827 1213.4 203.401 1213.4 205.348V205.716C1213.4 207.679 1212.81 209.266 1211.64 210.477C1210.47 211.678 1208.91 212.279 1206.96 212.279C1205.8 212.279 1204.81 212.102 1203.98 211.746C1203.15 211.382 1202.51 210.929 1202.05 210.388L1202.04 217.307H1199.3ZM1202.04 207.887C1202.33 208.462 1202.85 208.979 1203.57 209.436C1204.3 209.893 1205.19 210.121 1206.23 210.121C1207.73 210.121 1208.84 209.723 1209.54 208.928C1210.24 208.132 1210.59 207.078 1210.59 205.767V205.297C1210.59 204.002 1210.24 202.961 1209.54 202.174C1208.84 201.387 1207.73 200.993 1206.23 200.993C1205.2 200.993 1204.31 201.217 1203.59 201.666C1202.87 202.106 1202.35 202.614 1202.04 203.189V207.887ZM1216.93 205.716V205.36C1216.93 203.388 1217.59 201.793 1218.91 200.574C1220.23 199.347 1221.97 198.733 1224.13 198.733C1226.28 198.733 1227.94 199.309 1229.1 200.46C1230.28 201.603 1230.87 203.16 1230.87 205.132V206.147H1218.57V204.243H1228.14V204.167C1228.14 203.211 1227.83 202.419 1227.21 201.793C1226.59 201.167 1225.57 200.854 1224.13 200.854C1222.65 200.854 1221.53 201.264 1220.77 202.085C1220.03 202.897 1219.66 203.96 1219.66 205.271V205.779C1219.66 207.108 1220.05 208.183 1220.84 209.004C1221.63 209.816 1222.82 210.223 1224.43 210.223C1225.49 210.223 1226.38 210.045 1227.1 209.689C1227.83 209.334 1228.4 208.907 1228.82 208.407L1230.7 209.728C1230.23 210.422 1229.46 211.035 1228.4 211.568C1227.35 212.102 1226.03 212.368 1224.44 212.368C1222.07 212.368 1220.22 211.759 1218.9 210.54C1217.58 209.313 1216.93 207.705 1216.93 205.716ZM1237.34 202.491C1237.34 203.49 1237.61 204.188 1238.15 204.586C1238.7 204.984 1239.58 205.183 1240.79 205.183C1241.71 205.183 1242.5 205.132 1243.18 205.03C1243.86 204.929 1244.56 204.776 1245.29 204.573V206.693C1244.59 206.871 1243.84 207.015 1243.05 207.125C1242.28 207.235 1241.34 207.29 1240.25 207.29C1238.34 207.29 1236.91 206.909 1235.98 206.147C1235.05 205.386 1234.59 204.201 1234.59 202.593V199.102H1237.34V202.491ZM1246.66 199.102V212H1243.92V199.102H1246.66ZM1251 208.204C1251 206.867 1251.57 205.839 1252.7 205.119C1253.83 204.4 1255.4 204.044 1257.41 204.053H1261.41V203.101C1261.41 202.322 1261.15 201.734 1260.64 201.336C1260.12 200.938 1259.25 200.739 1258.03 200.739C1256.87 200.739 1256.01 200.913 1255.44 201.26C1254.88 201.607 1254.6 202.068 1254.6 202.644V202.809H1251.91V202.618C1251.91 201.45 1252.46 200.511 1253.56 199.8C1254.67 199.089 1256.2 198.733 1258.15 198.733C1260.09 198.733 1261.58 199.102 1262.62 199.838C1263.65 200.566 1264.16 201.679 1264.16 203.177V208.991C1264.16 209.541 1264.21 210.058 1264.3 210.54C1264.4 211.022 1264.53 211.441 1264.71 211.797V212H1262.03C1261.9 211.788 1261.79 211.522 1261.68 211.2C1261.57 210.87 1261.51 210.527 1261.49 210.172C1261.13 210.722 1260.5 211.204 1259.61 211.619C1258.71 212.025 1257.57 212.229 1256.18 212.229C1254.59 212.229 1253.33 211.882 1252.4 211.188C1251.46 210.493 1251 209.499 1251 208.204ZM1253.75 208.039C1253.75 208.758 1254.01 209.309 1254.53 209.689C1255.04 210.062 1255.87 210.248 1256.99 210.248C1258.14 210.248 1259.17 209.956 1260.06 209.372C1260.96 208.78 1261.41 208.107 1261.41 207.354V205.817H1257.88C1256.51 205.817 1255.48 206.008 1254.78 206.389C1254.1 206.761 1253.75 207.311 1253.75 208.039ZM1269.37 212V199.102H1272.11V207.125C1272.11 207.396 1272.11 207.671 1272.1 207.95C1272.09 208.221 1272.08 208.492 1272.06 208.763H1272.15C1272.28 208.517 1272.41 208.289 1272.54 208.077C1272.67 207.857 1272.83 207.607 1273.04 207.328L1279.41 199.102H1282.2V212H1279.45V203.964C1279.45 203.701 1279.45 203.431 1279.46 203.151C1279.47 202.872 1279.48 202.597 1279.5 202.326H1279.41C1279.28 202.563 1279.16 202.792 1279.03 203.012C1278.9 203.232 1278.73 203.481 1278.52 203.761L1272.15 212H1269.37ZM1275.77 195.229C1276.37 195.229 1276.86 195.056 1277.25 194.709C1277.64 194.354 1277.98 193.791 1278.25 193.021L1280.2 194.049C1279.77 195.115 1279.18 195.894 1278.41 196.385C1277.65 196.876 1276.77 197.121 1275.77 197.121C1274.75 197.121 1273.86 196.876 1273.1 196.385C1272.35 195.894 1271.75 195.115 1271.32 194.049L1273.3 193.021C1273.58 193.799 1273.91 194.362 1274.29 194.709C1274.67 195.056 1275.17 195.229 1275.77 195.229Z" fill="#04101C"/>
<path d="M1078.29 252V250.121L1085.92 242.897C1086.74 242.11 1087.42 241.344 1087.97 240.6C1088.52 239.855 1088.79 239.089 1088.79 238.302C1088.79 237.447 1088.48 236.749 1087.84 236.207C1087.22 235.665 1086.32 235.395 1085.15 235.395C1083.92 235.395 1082.95 235.703 1082.22 236.321C1081.49 236.931 1081.13 237.794 1081.13 238.911V239.152H1078.28V238.873C1078.28 237.206 1078.91 235.839 1080.16 234.772C1081.42 233.698 1083.09 233.16 1085.15 233.16C1087.18 233.16 1088.77 233.643 1089.92 234.607C1091.08 235.572 1091.66 236.753 1091.66 238.149C1091.66 239.377 1091.3 240.468 1090.58 241.425C1089.87 242.381 1088.96 243.384 1087.85 244.434L1082.21 249.753H1092.18V252H1078.29ZM1095.93 244.967V240.498C1095.93 238.23 1096.54 236.44 1097.76 235.128C1098.98 233.816 1100.7 233.16 1102.92 233.16C1105.14 233.16 1106.86 233.816 1108.09 235.128C1109.32 236.431 1109.94 238.221 1109.94 240.498V244.967C1109.94 247.277 1109.32 249.089 1108.09 250.4C1106.85 251.704 1105.13 252.355 1102.92 252.355C1100.69 252.355 1098.96 251.695 1097.74 250.375C1096.53 249.055 1095.93 247.252 1095.93 244.967ZM1098.81 245.183C1098.81 246.723 1099.14 247.933 1099.81 248.813C1100.48 249.694 1101.52 250.134 1102.92 250.134C1104.34 250.134 1105.38 249.694 1106.05 248.813C1106.72 247.933 1107.06 246.727 1107.06 245.195V240.295C1107.06 238.788 1106.72 237.599 1106.05 236.728C1105.37 235.847 1104.33 235.407 1102.92 235.407C1101.53 235.407 1100.49 235.847 1099.81 236.728C1099.14 237.599 1098.81 238.788 1098.81 240.295V245.183ZM1113.91 252V250.121L1121.54 242.897C1122.36 242.11 1123.04 241.344 1123.59 240.6C1124.14 239.855 1124.41 239.089 1124.41 238.302C1124.41 237.447 1124.1 236.749 1123.46 236.207C1122.84 235.665 1121.94 235.395 1120.77 235.395C1119.54 235.395 1118.57 235.703 1117.84 236.321C1117.11 236.931 1116.75 237.794 1116.75 238.911V239.152H1113.9V238.873C1113.9 237.206 1114.53 235.839 1115.78 234.772C1117.04 233.698 1118.71 233.16 1120.77 233.16C1122.8 233.16 1124.39 233.643 1125.54 234.607C1126.7 235.572 1127.28 236.753 1127.28 238.149C1127.28 239.377 1126.92 240.468 1126.2 241.425C1125.49 242.381 1124.58 243.384 1123.47 244.434L1117.83 249.753H1127.8V252H1113.91ZM1131.72 252V250.121L1139.35 242.897C1140.17 242.11 1140.85 241.344 1141.4 240.6C1141.95 239.855 1142.22 239.089 1142.22 238.302C1142.22 237.447 1141.91 236.749 1141.27 236.207C1140.65 235.665 1139.75 235.395 1138.58 235.395C1137.35 235.395 1136.38 235.703 1135.65 236.321C1134.92 236.931 1134.56 237.794 1134.56 238.911V239.152H1131.71V238.873C1131.71 237.206 1132.34 235.839 1133.59 234.772C1134.85 233.698 1136.52 233.16 1138.58 233.16C1140.61 233.16 1142.2 233.643 1143.35 234.607C1144.51 235.572 1145.09 236.753 1145.09 238.149C1145.09 239.377 1144.73 240.468 1144.01 241.425C1143.3 242.381 1142.39 243.384 1141.28 244.434L1135.64 249.753H1145.61V252H1131.72Z" fill="#5D5FEF"/>
<path d="M786.12 325V306.516H801.608V325H798.765V308.788H788.977V325H786.12ZM806.241 321.204C806.241 319.867 806.808 318.839 807.942 318.119C809.076 317.4 810.646 317.044 812.652 317.053H816.651V316.101C816.651 315.322 816.393 314.734 815.876 314.336C815.36 313.938 814.493 313.739 813.274 313.739C812.114 313.739 811.251 313.913 810.684 314.26C810.125 314.607 809.846 315.068 809.846 315.644V315.809H807.155V315.618C807.155 314.45 807.705 313.511 808.805 312.8C809.914 312.089 811.442 311.733 813.388 311.733C815.335 311.733 816.824 312.102 817.857 312.838C818.889 313.566 819.406 314.679 819.406 316.177V321.991C819.406 322.541 819.452 323.058 819.545 323.54C819.638 324.022 819.774 324.441 819.952 324.797V325H817.273C817.146 324.788 817.027 324.522 816.917 324.2C816.816 323.87 816.752 323.527 816.727 323.172C816.372 323.722 815.745 324.204 814.848 324.619C813.951 325.025 812.808 325.229 811.42 325.229C809.829 325.229 808.568 324.882 807.637 324.188C806.706 323.493 806.241 322.499 806.241 321.204ZM808.996 321.039C808.996 321.758 809.254 322.309 809.77 322.689C810.286 323.062 811.107 323.248 812.233 323.248C813.384 323.248 814.408 322.956 815.305 322.372C816.202 321.78 816.651 321.107 816.651 320.354V318.817H813.122C811.75 318.817 810.718 319.008 810.024 319.389C809.338 319.761 808.996 320.311 808.996 321.039ZM824.609 312.102H827.364V317.37H834.537V312.102H837.292V325H834.537V319.478H827.364V325H824.609V312.102ZM854.226 328.402V325H843.346V328.402H840.794V322.88H856.778V328.402H854.226ZM845.923 314.222L845.72 318.5C845.669 319.651 845.58 320.586 845.453 321.306C845.326 322.025 845.157 322.63 844.946 323.121H842.191C842.462 322.723 842.69 322.135 842.876 321.356C843.062 320.578 843.189 319.482 843.257 318.068L843.536 312.102H854.734V324.962H851.979V314.222H845.923ZM859.569 318.716V318.36C859.569 316.388 860.229 314.793 861.55 313.574C862.87 312.347 864.609 311.733 866.767 311.733C868.917 311.733 870.576 312.309 871.744 313.46C872.92 314.603 873.509 316.16 873.509 318.132V319.147H861.207V317.243H870.779V317.167C870.779 316.211 870.47 315.419 869.852 314.793C869.234 314.167 868.206 313.854 866.767 313.854C865.286 313.854 864.169 314.264 863.416 315.085C862.671 315.897 862.299 316.96 862.299 318.271V318.779C862.299 320.108 862.692 321.183 863.479 322.004C864.266 322.816 865.464 323.223 867.072 323.223C868.13 323.223 869.019 323.045 869.738 322.689C870.466 322.334 871.041 321.907 871.465 321.407L873.344 322.728C872.87 323.422 872.104 324.035 871.046 324.568C869.988 325.102 868.667 325.368 867.085 325.368C864.706 325.368 862.857 324.759 861.537 323.54C860.225 322.313 859.569 320.705 859.569 318.716ZM877.633 325V312.102H881.327L885.479 320.366C885.707 320.84 885.86 321.183 885.936 321.395C886.02 321.598 886.088 321.801 886.139 322.004H886.24C886.3 321.801 886.367 321.598 886.444 321.395C886.528 321.191 886.685 320.849 886.913 320.366L891.052 312.102H894.696V325H891.966V316.685C891.966 316.202 891.974 315.838 891.991 315.593C892.008 315.339 892.029 315.106 892.055 314.895H891.966C891.915 315.081 891.852 315.284 891.776 315.504C891.699 315.715 891.564 316.029 891.369 316.443L887.116 325H884.933L880.667 316.431C880.523 316.118 880.405 315.83 880.312 315.567C880.219 315.305 880.151 315.081 880.109 314.895H880.007C880.024 315.081 880.041 315.301 880.058 315.555C880.075 315.809 880.083 316.168 880.083 316.634V325H877.633ZM899.886 325V312.102H902.629V320.125C902.629 320.396 902.624 320.671 902.616 320.95C902.607 321.221 902.595 321.492 902.578 321.763H902.667C902.802 321.517 902.933 321.289 903.06 321.077C903.187 320.857 903.352 320.607 903.555 320.328L909.928 312.102H912.721V325H909.966V316.964C909.966 316.701 909.971 316.431 909.979 316.151C909.988 315.872 910 315.597 910.017 315.326H909.928C909.801 315.563 909.674 315.792 909.548 316.012C909.421 316.232 909.251 316.481 909.04 316.761L902.667 325H899.886ZM920.032 325H917.011L921.226 319.554L924.057 319.744L920.032 325ZM927.066 325V320.392H923.003L922.533 320.265C920.883 320.265 919.622 319.901 918.75 319.173C917.887 318.445 917.455 317.459 917.455 316.215C917.455 314.971 917.887 313.976 918.75 313.231C919.622 312.478 920.879 312.102 922.521 312.102H929.846V325H927.066ZM922.825 318.411H927.066V314.069H922.825C921.869 314.069 921.196 314.277 920.807 314.691C920.417 315.098 920.223 315.614 920.223 316.24C920.223 316.883 920.413 317.408 920.794 317.814C921.183 318.212 921.86 318.411 922.825 318.411Z" fill="#04101C"/>
<path d="M785.295 365V363.121L792.925 355.897C793.737 355.11 794.419 354.344 794.969 353.6C795.519 352.855 795.794 352.089 795.794 351.302C795.794 350.447 795.477 349.749 794.842 349.207C794.215 348.665 793.318 348.395 792.15 348.395C790.923 348.395 789.946 348.703 789.218 349.321C788.49 349.931 788.126 350.794 788.126 351.911V352.152H785.282V351.873C785.282 350.206 785.909 348.839 787.161 347.772C788.422 346.698 790.085 346.16 792.15 346.16C794.182 346.16 795.773 346.643 796.924 347.607C798.083 348.572 798.663 349.753 798.663 351.149C798.663 352.377 798.303 353.468 797.584 354.425C796.873 355.381 795.963 356.384 794.854 357.434L789.205 362.753H799.184V365H785.295ZM802.927 357.967V353.498C802.927 351.23 803.537 349.44 804.755 348.128C805.983 346.816 807.705 346.16 809.922 346.16C812.14 346.16 813.862 346.816 815.089 348.128C816.325 349.431 816.943 351.221 816.943 353.498V357.967C816.943 360.277 816.325 362.089 815.089 363.4C813.854 364.704 812.131 365.355 809.922 365.355C807.688 365.355 805.961 364.695 804.743 363.375C803.532 362.055 802.927 360.252 802.927 357.967ZM805.809 358.183C805.809 359.723 806.143 360.933 806.812 361.813C807.481 362.694 808.517 363.134 809.922 363.134C811.336 363.134 812.377 362.694 813.045 361.813C813.722 360.933 814.061 359.727 814.061 358.195V353.295C814.061 351.788 813.722 350.599 813.045 349.728C812.368 348.847 811.327 348.407 809.922 348.407C808.526 348.407 807.489 348.847 806.812 349.728C806.143 350.599 805.809 351.788 805.809 353.295V358.183ZM827.237 365V349.283L821.74 351.327V348.775L828.888 346.3H830.094V365H827.237ZM838.281 352.381C838.281 350.527 838.928 349.029 840.223 347.887C841.518 346.744 843.215 346.173 845.314 346.173C847.396 346.173 849.139 346.816 850.544 348.103C851.958 349.381 852.664 351.441 852.664 354.285V354.717C852.664 357.924 851.661 360.48 849.656 362.385C847.65 364.281 844.81 365.237 841.137 365.254H840.756V362.981H841.112C843.828 362.981 845.965 362.321 847.523 361.001C849.089 359.681 849.871 357.577 849.871 354.691L849.859 354.171C849.859 352.063 849.436 350.574 848.589 349.702C847.751 348.822 846.655 348.382 845.301 348.382C843.981 348.382 842.952 348.72 842.216 349.397C841.48 350.066 841.112 351.061 841.112 352.381C841.112 353.65 841.48 354.619 842.216 355.288C842.952 355.948 843.977 356.278 845.288 356.278C846.533 356.278 847.607 355.936 848.513 355.25C849.427 354.564 849.888 353.612 849.897 352.394L850.951 352.419C850.951 354.179 850.362 355.614 849.186 356.723C848.009 357.831 846.469 358.386 844.565 358.386C842.644 358.386 841.116 357.84 839.982 356.748C838.848 355.648 838.281 354.192 838.281 352.381Z" fill="#5D5FEF"/>
<path d="M471.12 471V452.516H486.608V471H483.765V454.788H473.977V471H471.12ZM491.266 464.716V464.36C491.266 462.388 491.926 460.793 493.247 459.574C494.567 458.347 496.306 457.733 498.464 457.733C500.614 457.733 502.273 458.309 503.441 459.46C504.617 460.603 505.206 462.16 505.206 464.132V465.147H492.904V463.243H502.476V463.167C502.476 462.211 502.167 461.419 501.549 460.793C500.931 460.167 499.903 459.854 498.464 459.854C496.983 459.854 495.866 460.264 495.113 461.085C494.368 461.897 493.996 462.96 493.996 464.271V464.779C493.996 466.108 494.389 467.183 495.176 468.004C495.963 468.816 497.161 469.223 498.769 469.223C499.827 469.223 500.716 469.045 501.435 468.689C502.163 468.334 502.738 467.907 503.162 467.407L505.04 468.728C504.567 469.422 503.801 470.035 502.743 470.568C501.685 471.102 500.364 471.368 498.782 471.368C496.403 471.368 494.554 470.759 493.234 469.54C491.922 468.313 491.266 466.705 491.266 464.716ZM509.305 476.307V458.102H511.869L511.958 459.892H511.983C512.39 459.325 513.024 458.838 513.888 458.432C514.759 458.025 515.775 457.822 516.934 457.822C518.906 457.822 520.476 458.423 521.644 459.625C522.821 460.827 523.409 462.401 523.409 464.348V464.716C523.409 466.679 522.821 468.266 521.644 469.477C520.476 470.678 518.919 471.279 516.973 471.279C515.813 471.279 514.819 471.102 513.989 470.746C513.16 470.382 512.516 469.929 512.059 469.388L512.047 476.307H509.305ZM512.047 466.887C512.343 467.462 512.855 467.979 513.583 468.436C514.311 468.893 515.195 469.121 516.236 469.121C517.743 469.121 518.847 468.723 519.55 467.928C520.252 467.132 520.603 466.078 520.603 464.767V464.297C520.603 463.002 520.252 461.961 519.55 461.174C518.847 460.387 517.743 459.993 516.236 459.993C515.204 459.993 514.323 460.217 513.596 460.666C512.876 461.106 512.36 461.614 512.047 462.189V466.887ZM527.775 471V458.102H535.481C537.004 458.102 538.155 458.381 538.934 458.939C539.713 459.498 540.102 460.336 540.102 461.453C540.102 462.206 539.89 462.824 539.467 463.307C539.052 463.789 538.481 464.128 537.753 464.322V464.36C538.6 464.504 539.281 464.83 539.797 465.338C540.313 465.846 540.572 466.523 540.572 467.369C540.572 468.512 540.161 469.405 539.34 470.048C538.519 470.683 537.36 471 535.862 471H527.775ZM530.504 463.497H535.189C535.951 463.497 536.501 463.34 536.839 463.027C537.178 462.706 537.347 462.257 537.347 461.682C537.347 461.148 537.178 460.742 536.839 460.463C536.501 460.175 535.951 460.031 535.189 460.031H530.504V463.497ZM530.504 469.07H535.532C536.31 469.07 536.886 468.905 537.258 468.575C537.631 468.245 537.817 467.792 537.817 467.217C537.817 466.65 537.635 466.201 537.271 465.871C536.907 465.533 536.327 465.363 535.532 465.363H530.504V469.07ZM544.29 467.204C544.29 465.867 544.857 464.839 545.991 464.119C547.125 463.4 548.695 463.044 550.701 463.053H554.7V462.101C554.7 461.322 554.442 460.734 553.926 460.336C553.409 459.938 552.542 459.739 551.323 459.739C550.164 459.739 549.3 459.913 548.733 460.26C548.175 460.607 547.895 461.068 547.895 461.644V461.809H545.204V461.618C545.204 460.45 545.754 459.511 546.854 458.8C547.963 458.089 549.491 457.733 551.437 457.733C553.384 457.733 554.873 458.102 555.906 458.838C556.939 459.566 557.455 460.679 557.455 462.177V467.991C557.455 468.541 557.501 469.058 557.594 469.54C557.688 470.022 557.823 470.441 558.001 470.797V471H555.322C555.195 470.788 555.077 470.522 554.967 470.2C554.865 469.87 554.802 469.527 554.776 469.172C554.421 469.722 553.794 470.204 552.897 470.619C552 471.025 550.858 471.229 549.469 471.229C547.878 471.229 546.617 470.882 545.686 470.188C544.755 469.493 544.29 468.499 544.29 467.204ZM547.045 467.039C547.045 467.758 547.303 468.309 547.819 468.689C548.335 469.062 549.156 469.248 550.282 469.248C551.433 469.248 552.457 468.956 553.354 468.372C554.251 467.78 554.7 467.107 554.7 466.354V464.817H551.171C549.8 464.817 548.767 465.008 548.073 465.389C547.387 465.761 547.045 466.311 547.045 467.039ZM564.791 471H561.77L565.985 465.554L568.816 465.744L564.791 471ZM571.824 471V466.392H567.762L567.292 466.265C565.642 466.265 564.381 465.901 563.509 465.173C562.646 464.445 562.214 463.459 562.214 462.215C562.214 460.971 562.646 459.976 563.509 459.231C564.381 458.478 565.638 458.102 567.279 458.102H574.605V471H571.824ZM567.584 464.411H571.824V460.069H567.584C566.628 460.069 565.955 460.277 565.566 460.691C565.176 461.098 564.982 461.614 564.982 462.24C564.982 462.883 565.172 463.408 565.553 463.814C565.942 464.212 566.619 464.411 567.584 464.411ZM600.538 464.716C600.538 466.798 599.891 468.427 598.596 469.604C597.309 470.78 595.549 471.368 593.315 471.368C591.148 471.368 589.502 470.911 588.376 469.997C587.259 469.075 586.696 467.979 586.688 466.709V466.557H589.303V466.671C589.311 467.424 589.629 468.046 590.255 468.537C590.89 469.02 591.918 469.261 593.34 469.261C594.846 469.261 595.964 468.871 596.691 468.093C597.428 467.306 597.796 466.193 597.796 464.754V464.297C597.796 462.841 597.424 461.741 596.679 460.996C595.942 460.243 594.834 459.866 593.353 459.866C591.948 459.866 590.932 460.107 590.306 460.59C589.688 461.064 589.371 461.669 589.354 462.405V462.532H586.713L586.726 462.367C586.751 461.081 587.322 459.985 588.44 459.079C589.557 458.174 591.194 457.721 593.353 457.721C595.57 457.721 597.322 458.313 598.608 459.498C599.895 460.674 600.538 462.291 600.538 464.348V464.716ZM599.091 463.472V465.376H591.131V463.472H599.091ZM604.891 471V458.102H612.597C614.121 458.102 615.272 458.381 616.05 458.939C616.829 459.498 617.218 460.336 617.218 461.453C617.218 462.206 617.007 462.824 616.584 463.307C616.169 463.789 615.598 464.128 614.87 464.322V464.36C615.716 464.504 616.397 464.83 616.914 465.338C617.43 465.846 617.688 466.523 617.688 467.369C617.688 468.512 617.278 469.405 616.457 470.048C615.636 470.683 614.476 471 612.978 471H604.891ZM607.621 463.497H612.305C613.067 463.497 613.617 463.34 613.956 463.027C614.294 462.706 614.463 462.257 614.463 461.682C614.463 461.148 614.294 460.742 613.956 460.463C613.617 460.175 613.067 460.031 612.305 460.031H607.621V463.497ZM607.621 469.07H612.648C613.427 469.07 614.002 468.905 614.375 468.575C614.747 468.245 614.933 467.792 614.933 467.217C614.933 466.65 614.751 466.201 614.387 465.871C614.023 465.533 613.444 465.363 612.648 465.363H607.621V469.07ZM621.432 464.716V464.36C621.432 462.38 622.109 460.78 623.463 459.562C624.825 458.334 626.628 457.721 628.871 457.721C631.122 457.721 632.925 458.334 634.279 459.562C635.633 460.78 636.311 462.38 636.311 464.36V464.716C636.311 466.713 635.633 468.321 634.279 469.54C632.925 470.759 631.122 471.368 628.871 471.368C626.628 471.368 624.825 470.759 623.463 469.54C622.109 468.321 621.432 466.713 621.432 464.716ZM624.25 464.31V464.792C624.25 466.104 624.639 467.17 625.418 467.991C626.205 468.804 627.356 469.21 628.871 469.21C630.386 469.21 631.533 468.804 632.311 467.991C633.099 467.17 633.492 466.1 633.492 464.779V464.31C633.492 462.998 633.099 461.936 632.311 461.123C631.533 460.311 630.386 459.904 628.871 459.904C627.365 459.904 626.218 460.311 625.431 461.123C624.644 461.936 624.25 462.998 624.25 464.31ZM644.447 460.234L644.205 465.186C644.112 467.361 643.795 468.922 643.253 469.87C642.72 470.81 641.806 471.279 640.511 471.279C640.206 471.279 639.927 471.262 639.673 471.229C639.428 471.195 639.229 471.144 639.077 471.076V468.804C639.212 468.863 639.352 468.905 639.496 468.931C639.639 468.948 639.817 468.956 640.029 468.956C640.621 468.956 641.036 468.664 641.273 468.08C641.518 467.488 641.671 466.417 641.73 464.868L642.047 458.102H653.003V471H650.248V460.234H644.447ZM658.22 458.102H660.974V463.37H664.986V465.478H660.974V471H658.22V458.102ZM663.602 464.716V464.36C663.602 462.38 664.267 460.78 665.596 459.562C666.933 458.334 668.702 457.721 670.902 457.721C673.111 457.721 674.88 458.334 676.209 459.562C677.538 460.78 678.202 462.38 678.202 464.36V464.716C678.202 466.713 677.538 468.321 676.209 469.54C674.88 470.759 673.111 471.368 670.902 471.368C668.693 471.368 666.924 470.759 665.596 469.54C664.267 468.321 663.602 466.713 663.602 464.716ZM666.395 464.31V464.779C666.395 466.108 666.772 467.179 667.525 467.991C668.287 468.804 669.408 469.21 670.889 469.21C672.362 469.21 673.479 468.804 674.241 467.991C675.003 467.179 675.384 466.108 675.384 464.779V464.31C675.384 462.989 675.003 461.927 674.241 461.123C673.479 460.311 672.362 459.904 670.889 459.904C669.417 459.904 668.3 460.311 667.538 461.123C666.776 461.927 666.395 462.989 666.395 464.31ZM694.577 474.402V471H682.555V458.102H685.31V468.88H692.33V458.102H695.085V468.88H697.129V474.402H694.577ZM700.746 471V458.102H703.488V466.125C703.488 466.396 703.484 466.671 703.475 466.95C703.467 467.221 703.454 467.492 703.437 467.763H703.526C703.662 467.517 703.793 467.289 703.92 467.077C704.047 466.857 704.212 466.607 704.415 466.328L710.788 458.102H713.581V471H710.826V462.964C710.826 462.701 710.83 462.431 710.839 462.151C710.847 461.872 710.86 461.597 710.877 461.326H710.788C710.661 461.563 710.534 461.792 710.407 462.012C710.28 462.232 710.111 462.481 709.899 462.761L703.526 471H700.746ZM720.892 471H717.87L722.085 465.554L724.916 465.744L720.892 471ZM727.925 471V466.392H723.862L723.393 466.265C721.742 466.265 720.481 465.901 719.61 465.173C718.746 464.445 718.315 463.459 718.315 462.215C718.315 460.971 718.746 459.976 719.61 459.231C720.481 458.478 721.738 458.102 723.38 458.102H730.705V471H727.925ZM723.685 464.411H727.925V460.069H723.685C722.728 460.069 722.055 460.277 721.666 460.691C721.277 461.098 721.082 461.614 721.082 462.24C721.082 462.883 721.273 463.408 721.653 463.814C722.043 464.212 722.72 464.411 723.685 464.411Z" fill="#04101C"/>
<path d="M470.295 511V509.121L477.925 501.897C478.737 501.11 479.419 500.344 479.969 499.6C480.519 498.855 480.794 498.089 480.794 497.302C480.794 496.447 480.477 495.749 479.842 495.207C479.215 494.665 478.318 494.395 477.15 494.395C475.923 494.395 474.946 494.703 474.218 495.321C473.49 495.931 473.126 496.794 473.126 497.911V498.152H470.282V497.873C470.282 496.206 470.909 494.839 472.161 493.772C473.422 492.698 475.085 492.16 477.15 492.16C479.182 492.16 480.773 492.643 481.924 493.607C483.083 494.572 483.663 495.753 483.663 497.149C483.663 498.377 483.303 499.468 482.584 500.425C481.873 501.381 480.963 502.384 479.854 503.434L474.205 508.753H484.184V511H470.295ZM487.927 503.967V499.498C487.927 497.23 488.537 495.44 489.755 494.128C490.983 492.816 492.705 492.16 494.922 492.16C497.14 492.16 498.862 492.816 500.089 494.128C501.325 495.431 501.943 497.221 501.943 499.498V503.967C501.943 506.277 501.325 508.089 500.089 509.4C498.854 510.704 497.131 511.355 494.922 511.355C492.688 511.355 490.961 510.695 489.743 509.375C488.532 508.055 487.927 506.252 487.927 503.967ZM490.809 504.183C490.809 505.723 491.143 506.933 491.812 507.813C492.481 508.694 493.517 509.134 494.922 509.134C496.336 509.134 497.377 508.694 498.045 507.813C498.722 506.933 499.061 505.727 499.061 504.195V499.295C499.061 497.788 498.722 496.599 498.045 495.728C497.368 494.847 496.327 494.407 494.922 494.407C493.526 494.407 492.489 494.847 491.812 495.728C491.143 496.599 490.809 497.788 490.809 499.295V504.183ZM512.237 511V495.283L506.74 497.327V494.775L513.888 492.3H515.094V511H512.237ZM523.446 503.23V502.812C523.446 499.578 524.449 497.006 526.454 495.093C528.46 493.172 531.3 492.211 534.973 492.211H535.354V494.483H534.998C532.282 494.483 530.14 495.148 528.575 496.477C527.009 497.805 526.226 499.925 526.226 502.837L526.251 503.357C526.251 505.473 526.67 506.967 527.508 507.839C528.354 508.711 529.451 509.146 530.796 509.146C532.117 509.146 533.145 508.804 533.881 508.118C534.626 507.424 534.998 506.409 534.998 505.071C534.998 503.776 534.63 502.79 533.894 502.113C533.158 501.428 532.129 501.085 530.809 501.085C529.573 501.085 528.498 501.436 527.584 502.139C526.679 502.833 526.222 503.806 526.213 505.059L525.147 505.021C525.147 503.235 525.739 501.783 526.924 500.666C528.109 499.54 529.649 498.978 531.545 498.978C533.475 498.978 535.003 499.532 536.128 500.641C537.262 501.749 537.829 503.222 537.829 505.059C537.829 506.929 537.182 508.448 535.887 509.616C534.592 510.776 532.891 511.355 530.784 511.355C528.701 511.355 526.958 510.712 525.553 509.426C524.148 508.139 523.446 506.074 523.446 503.23Z" fill="#5D5FEF"/>
<path d="M658.12 869V850.516H665.598C667.857 850.516 669.58 851.023 670.765 852.039C671.95 853.055 672.542 854.477 672.542 856.305C672.542 858.09 671.95 859.508 670.765 860.558C669.588 861.599 667.866 862.119 665.598 862.119H660.977V869H658.12ZM660.977 859.91H665.407C666.99 859.91 668.099 859.58 668.733 858.92C669.377 858.251 669.698 857.384 669.698 856.317C669.698 855.234 669.377 854.371 668.733 853.728C668.099 853.076 666.99 852.75 665.407 852.75H660.977V859.91ZM675.27 862.716V862.36C675.27 860.38 675.947 858.78 677.301 857.562C678.664 856.334 680.467 855.721 682.709 855.721C684.961 855.721 686.763 856.334 688.118 857.562C689.472 858.78 690.149 860.38 690.149 862.36V862.716C690.149 864.713 689.472 866.321 688.118 867.54C686.763 868.759 684.961 869.368 682.709 869.368C680.467 869.368 678.664 868.759 677.301 867.54C675.947 866.321 675.27 864.713 675.27 862.716ZM678.088 862.31V862.792C678.088 864.104 678.478 865.17 679.256 865.991C680.043 866.804 681.194 867.21 682.709 867.21C684.224 867.21 685.371 866.804 686.15 865.991C686.937 865.17 687.331 864.1 687.331 862.779V862.31C687.331 860.998 686.937 859.936 686.15 859.123C685.371 858.311 684.224 857.904 682.709 857.904C681.203 857.904 680.056 858.311 679.269 859.123C678.482 859.936 678.088 860.998 678.088 862.31ZM693.664 862.716V862.348C693.664 860.359 694.316 858.759 695.619 857.549C696.931 856.33 698.717 855.721 700.976 855.721C703.075 855.721 704.675 856.182 705.775 857.104C706.884 858.019 707.46 859.115 707.502 860.393V860.545H704.76V860.418C704.743 859.665 704.43 859.055 703.82 858.59C703.219 858.116 702.271 857.879 700.976 857.879C699.461 857.879 698.332 858.285 697.587 859.098C696.85 859.902 696.482 860.968 696.482 862.297V862.792C696.482 864.121 696.846 865.196 697.574 866.017C698.31 866.829 699.445 867.235 700.976 867.235C702.288 867.235 703.249 866.998 703.858 866.524C704.468 866.042 704.777 865.42 704.785 864.658V864.544H707.502V864.684C707.485 865.962 706.918 867.062 705.801 867.984C704.683 868.907 703.075 869.368 700.976 869.368C698.717 869.368 696.931 868.763 695.619 867.553C694.316 866.342 693.664 864.73 693.664 862.716ZM710.039 858.234V856.102H722.938V858.234H717.872V869H715.118V858.234H710.039ZM734.678 856.102H747.272V869H744.517V858.234H737.433V869H734.678V856.102ZM751.231 874.256L751.244 872.098C751.523 872.174 751.824 872.233 752.145 872.275C752.467 872.318 752.776 872.339 753.072 872.339C753.842 872.339 754.485 872.132 755.002 871.717C755.518 871.311 756.068 870.384 756.652 868.937L756.576 868.924L750.66 856.102H753.478L757.236 864.569C757.38 864.891 757.503 865.191 757.604 865.471C757.706 865.742 757.799 866.025 757.883 866.321H757.947C758.04 866.025 758.137 865.742 758.239 865.471C758.34 865.191 758.459 864.891 758.594 864.569L762.314 856.102H764.98L758.429 870.6C757.828 871.895 757.109 872.872 756.271 873.532C755.442 874.192 754.443 874.522 753.275 874.522C752.86 874.522 752.492 874.497 752.171 874.446C751.849 874.404 751.536 874.34 751.231 874.256ZM770.336 862.563V862.919C770.336 864.188 770.721 865.221 771.491 866.017C772.27 866.812 773.429 867.21 774.97 867.21C776.51 867.21 777.665 866.812 778.436 866.017C779.214 865.213 779.604 864.18 779.604 862.919V862.563C779.604 861.319 779.219 860.304 778.448 859.517C777.678 858.721 776.523 858.323 774.982 858.323C773.434 858.323 772.27 858.721 771.491 859.517C770.721 860.304 770.336 861.319 770.336 862.563ZM775.668 856.165C777.75 856.165 779.396 856.753 780.607 857.93C781.817 859.106 782.422 860.646 782.422 862.551V862.932C782.422 864.87 781.741 866.427 780.378 867.604C779.024 868.78 777.225 869.368 774.982 869.368C772.672 869.368 770.848 868.784 769.511 867.616C768.174 866.44 767.505 864.514 767.505 861.84V860.812C767.505 857.815 768.072 855.501 769.206 853.867C770.34 852.225 772.312 851.243 775.122 850.922C776.933 850.719 777.996 850.541 778.309 850.389C778.622 850.236 778.795 850.033 778.829 849.779H781.279C781.212 850.803 780.827 851.578 780.124 852.103C779.43 852.619 778.025 852.983 775.909 853.194C773.641 853.414 772.071 854.015 771.199 854.997C770.328 855.97 769.845 857.303 769.752 858.996H769.892C770.349 858.116 771.068 857.426 772.05 856.927C773.04 856.419 774.246 856.165 775.668 856.165ZM790.571 858.234L790.33 863.186C790.237 865.361 789.919 866.922 789.377 867.87C788.844 868.81 787.93 869.279 786.635 869.279C786.331 869.279 786.051 869.262 785.797 869.229C785.552 869.195 785.353 869.144 785.201 869.076V866.804C785.336 866.863 785.476 866.905 785.62 866.931C785.764 866.948 785.941 866.956 786.153 866.956C786.745 866.956 787.16 866.664 787.397 866.08C787.642 865.488 787.795 864.417 787.854 862.868L788.171 856.102H799.127V869H796.373V858.234H790.571ZM804.344 869V856.102H807.086V864.125C807.086 864.396 807.082 864.671 807.073 864.95C807.065 865.221 807.052 865.492 807.035 865.763H807.124C807.259 865.517 807.391 865.289 807.518 865.077C807.644 864.857 807.81 864.607 808.013 864.328L814.386 856.102H817.179V869H814.424V860.964C814.424 860.701 814.428 860.431 814.436 860.151C814.445 859.872 814.458 859.597 814.475 859.326H814.386C814.259 859.563 814.132 859.792 814.005 860.012C813.878 860.232 813.709 860.481 813.497 860.761L807.124 869H804.344ZM824.731 859.491C824.731 860.49 825.002 861.188 825.543 861.586C826.093 861.984 826.974 862.183 828.184 862.183C829.098 862.183 829.894 862.132 830.571 862.03C831.248 861.929 831.95 861.776 832.678 861.573V863.693C831.976 863.871 831.231 864.015 830.444 864.125C829.665 864.235 828.73 864.29 827.638 864.29C825.725 864.29 824.303 863.909 823.372 863.147C822.441 862.386 821.976 861.201 821.976 859.593V856.102H824.731V859.491ZM834.049 856.102V869H831.307V856.102H834.049ZM839.253 856.102H842.008V861.37H849.181V856.102H851.935V869H849.181V863.478H842.008V869H839.253V856.102ZM856.301 862.716V862.36C856.301 860.38 856.978 858.78 858.332 857.562C859.695 856.334 861.498 855.721 863.741 855.721C865.992 855.721 867.795 856.334 869.149 857.562C870.503 858.78 871.18 860.38 871.18 862.36V862.716C871.18 864.713 870.503 866.321 869.149 867.54C867.795 868.759 865.992 869.368 863.741 869.368C861.498 869.368 859.695 868.759 858.332 867.54C856.978 866.321 856.301 864.713 856.301 862.716ZM859.119 862.31V862.792C859.119 864.104 859.509 865.17 860.287 865.991C861.074 866.804 862.226 867.21 863.741 867.21C865.255 867.21 866.402 866.804 867.181 865.991C867.968 865.17 868.362 864.1 868.362 862.779V862.31C868.362 860.998 867.968 859.936 867.181 859.123C866.402 858.311 865.255 857.904 863.741 857.904C862.234 857.904 861.087 858.311 860.3 859.123C859.513 859.936 859.119 860.998 859.119 862.31ZM874.695 862.716V862.348C874.695 860.359 875.347 858.759 876.65 857.549C877.962 856.33 879.748 855.721 882.008 855.721C884.106 855.721 885.706 856.182 886.806 857.104C887.915 858.019 888.491 859.115 888.533 860.393V860.545H885.791V860.418C885.774 859.665 885.461 859.055 884.851 858.59C884.25 858.116 883.302 857.879 882.008 857.879C880.493 857.879 879.363 858.285 878.618 859.098C877.882 859.902 877.513 860.968 877.513 862.297V862.792C877.513 864.121 877.877 865.196 878.605 866.017C879.342 866.829 880.476 867.235 882.008 867.235C883.319 867.235 884.28 866.998 884.889 866.524C885.499 866.042 885.808 865.42 885.816 864.658V864.544H888.533V864.684C888.516 865.962 887.949 867.062 886.832 867.984C885.715 868.907 884.106 869.368 882.008 869.368C879.748 869.368 877.962 868.763 876.65 867.553C875.347 866.342 874.695 864.73 874.695 862.716ZM891.07 858.234V856.102H903.969V858.234H898.903V869H896.149V858.234H891.07ZM907.725 869V856.102H910.467V864.125C910.467 864.396 910.463 864.671 910.455 864.95C910.446 865.221 910.434 865.492 910.417 865.763H910.505C910.641 865.517 910.772 865.289 910.899 865.077C911.026 864.857 911.191 864.607 911.394 864.328L917.767 856.102H920.56V869H917.805V860.964C917.805 860.701 917.809 860.431 917.818 860.151C917.826 859.872 917.839 859.597 917.856 859.326H917.767C917.64 859.563 917.513 859.792 917.386 860.012C917.259 860.232 917.09 860.481 916.879 860.761L910.505 869H907.725Z" fill="#04101C"/>
<path d="M657.295 909V907.121L664.925 899.897C665.737 899.11 666.419 898.344 666.969 897.6C667.519 896.855 667.794 896.089 667.794 895.302C667.794 894.447 667.477 893.749 666.842 893.207C666.215 892.665 665.318 892.395 664.15 892.395C662.923 892.395 661.946 892.703 661.218 893.321C660.49 893.931 660.126 894.794 660.126 895.911V896.152H657.282V895.873C657.282 894.206 657.909 892.839 659.161 891.772C660.422 890.698 662.085 890.16 664.15 890.16C666.182 890.16 667.773 890.643 668.924 891.607C670.083 892.572 670.663 893.753 670.663 895.149C670.663 896.377 670.303 897.468 669.584 898.425C668.873 899.381 667.963 900.384 666.854 901.434L661.205 906.753H671.184V909H657.295ZM674.927 901.967V897.498C674.927 895.23 675.537 893.44 676.755 892.128C677.983 890.816 679.705 890.16 681.922 890.16C684.14 890.16 685.862 890.816 687.089 892.128C688.325 893.431 688.943 895.221 688.943 897.498V901.967C688.943 904.277 688.325 906.089 687.089 907.4C685.854 908.704 684.131 909.355 681.922 909.355C679.688 909.355 677.961 908.695 676.743 907.375C675.532 906.055 674.927 904.252 674.927 901.967ZM677.809 902.183C677.809 903.723 678.143 904.933 678.812 905.813C679.481 906.694 680.517 907.134 681.922 907.134C683.336 907.134 684.377 906.694 685.045 905.813C685.722 904.933 686.061 903.727 686.061 902.195V897.295C686.061 895.788 685.722 894.599 685.045 893.728C684.368 892.847 683.327 892.407 681.922 892.407C680.526 892.407 679.489 892.847 678.812 893.728C678.143 894.599 677.809 895.788 677.809 897.295V902.183ZM699.237 909V893.283L693.74 895.327V892.775L700.888 890.3H702.094V909H699.237ZM713.518 909L721.376 892.839H710.484V890.516H724.36V892.306L716.489 909H713.518Z" fill="#5D5FEF"/>
<path d="M1279.24 32.6562V29H1264.75V32.6562H1262.15V26.7275H1281.84V32.6562H1279.24ZM1265.9 10.5156H1279.44V28.835H1276.61V12.7881H1268.36L1267.9 20.5576C1267.8 22.3604 1267.64 23.7695 1267.41 24.7852C1267.19 25.8008 1266.91 26.6344 1266.58 27.2861H1263.73C1264.18 26.5667 1264.53 25.6865 1264.78 24.6455C1265.04 23.6045 1265.22 22.2122 1265.33 20.4688L1265.9 10.5156ZM1285.56 29V16.1016H1293.27C1294.79 16.1016 1295.94 16.3809 1296.72 16.9395C1297.5 17.498 1297.89 18.3359 1297.89 19.4531C1297.89 20.2064 1297.68 20.8242 1297.25 21.3066C1296.84 21.7891 1296.27 22.1276 1295.54 22.3223V22.3604C1296.39 22.5042 1297.07 22.8301 1297.58 23.3379C1298.1 23.8457 1298.36 24.5228 1298.36 25.3691C1298.36 26.5117 1297.95 27.4046 1297.13 28.0479C1296.31 28.6826 1295.15 29 1293.65 29H1285.56ZM1288.29 21.4971H1292.98C1293.74 21.4971 1294.29 21.3405 1294.63 21.0273C1294.96 20.7057 1295.13 20.2572 1295.13 19.6816C1295.13 19.1484 1294.96 18.7422 1294.63 18.4629C1294.29 18.1751 1293.74 18.0312 1292.98 18.0312H1288.29V21.4971ZM1288.29 27.0703H1293.32C1294.1 27.0703 1294.67 26.9053 1295.04 26.5752C1295.42 26.2451 1295.6 25.7923 1295.6 25.2168C1295.6 24.6497 1295.42 24.2012 1295.06 23.8711C1294.69 23.5326 1294.11 23.3633 1293.32 23.3633H1288.29V27.0703ZM1302.94 29V16.1016H1305.68V24.125C1305.68 24.3958 1305.68 24.6709 1305.67 24.9502C1305.66 25.221 1305.65 25.4919 1305.63 25.7627H1305.72C1305.86 25.5173 1305.99 25.2887 1306.11 25.0771C1306.24 24.8571 1306.41 24.6074 1306.61 24.3281L1312.98 16.1016H1315.77V29H1313.02V20.9639C1313.02 20.7015 1313.02 20.4307 1313.03 20.1514C1313.04 19.8721 1313.05 19.597 1313.07 19.3262H1312.98C1312.85 19.5632 1312.73 19.7917 1312.6 20.0117C1312.47 20.2318 1312.3 20.4814 1312.09 20.7607L1305.72 29H1302.94ZM1320.95 16.1016H1331.22V18.2344H1323.71V29H1320.95V16.1016ZM1334.14 25.2041C1334.14 23.8669 1334.71 22.8385 1335.84 22.1191C1336.98 21.3997 1338.55 21.0443 1340.55 21.0527H1344.55V20.1006C1344.55 19.3219 1344.29 18.7337 1343.78 18.3359C1343.26 17.9382 1342.39 17.7393 1341.17 17.7393C1340.02 17.7393 1339.15 17.9128 1338.58 18.2598C1338.03 18.6068 1337.75 19.068 1337.75 19.6436V19.8086H1335.06V19.6182C1335.06 18.4502 1335.61 17.5107 1336.71 16.7998C1337.81 16.0889 1339.34 15.7334 1341.29 15.7334C1343.24 15.7334 1344.73 16.1016 1345.76 16.8379C1346.79 17.5658 1347.31 18.6787 1347.31 20.1768V25.9912C1347.31 26.5413 1347.35 27.0576 1347.45 27.54C1347.54 28.0225 1347.67 28.4414 1347.85 28.7969V29H1345.17C1345.05 28.7884 1344.93 28.5218 1344.82 28.2002C1344.72 27.8701 1344.65 27.5273 1344.63 27.1719C1344.27 27.722 1343.65 28.2044 1342.75 28.6191C1341.85 29.0254 1340.71 29.2285 1339.32 29.2285C1337.73 29.2285 1336.47 28.8815 1335.54 28.1875C1334.61 27.4935 1334.14 26.499 1334.14 25.2041ZM1336.9 25.0391C1336.9 25.7585 1337.15 26.3086 1337.67 26.6895C1338.19 27.0618 1339.01 27.248 1340.13 27.248C1341.28 27.248 1342.31 26.9561 1343.21 26.3721C1344.1 25.7796 1344.55 25.1068 1344.55 24.3535V22.8174H1341.02C1339.65 22.8174 1338.62 23.0078 1337.92 23.3887C1337.24 23.7611 1336.9 24.3112 1336.9 25.0391ZM1351.67 22.7158V22.3604C1351.67 20.3883 1352.33 18.793 1353.65 17.5742C1354.97 16.347 1356.71 15.7334 1358.87 15.7334C1361.02 15.7334 1362.68 16.3089 1363.85 17.46C1365.02 18.6025 1365.61 20.1598 1365.61 22.1318V23.1475H1353.31V21.2432H1362.88V21.167C1362.88 20.2106 1362.57 19.4193 1361.96 18.793C1361.34 18.1667 1360.31 17.8535 1358.87 17.8535C1357.39 17.8535 1356.27 18.264 1355.52 19.085C1354.77 19.8975 1354.4 20.9596 1354.4 22.2715V22.7793C1354.4 24.1081 1354.8 25.1829 1355.58 26.0039C1356.37 26.8164 1357.57 27.2227 1359.18 27.2227C1360.23 27.2227 1361.12 27.0449 1361.84 26.6895C1362.57 26.334 1363.14 25.9066 1363.57 25.4072L1365.45 26.7275C1364.97 27.4215 1364.21 28.0352 1363.15 28.5684C1362.09 29.1016 1360.77 29.3682 1359.19 29.3682C1356.81 29.3682 1354.96 28.7588 1353.64 27.54C1352.33 26.3128 1351.67 24.7048 1351.67 22.7158ZM1369.74 29V16.1016H1373.43L1377.58 24.3662C1377.81 24.8402 1377.96 25.1829 1378.04 25.3945C1378.12 25.5977 1378.19 25.8008 1378.24 26.0039H1378.34C1378.4 25.8008 1378.47 25.5977 1378.55 25.3945C1378.63 25.1914 1378.79 24.8486 1379.02 24.3662L1383.15 16.1016H1386.8V29H1384.07V20.6846C1384.07 20.2021 1384.08 19.8382 1384.09 19.5928C1384.11 19.3389 1384.13 19.1061 1384.16 18.8945H1384.07C1384.02 19.0807 1383.95 19.2839 1383.88 19.5039C1383.8 19.7155 1383.67 20.0286 1383.47 20.4434L1379.22 29H1377.04L1372.77 20.4307C1372.63 20.1175 1372.51 19.8298 1372.41 19.5674C1372.32 19.305 1372.25 19.0807 1372.21 18.8945H1372.11C1372.13 19.0807 1372.14 19.3008 1372.16 19.5547C1372.18 19.8086 1372.19 20.1683 1372.19 20.6338V29H1369.74ZM1391.15 22.7158V22.3477C1391.15 20.3587 1391.8 18.7591 1393.11 17.5488C1394.42 16.3301 1396.2 15.7207 1398.46 15.7207C1400.56 15.7207 1402.16 16.182 1403.26 17.1045C1404.37 18.0186 1404.95 19.1146 1404.99 20.3926V20.5449H1402.25V20.418C1402.23 19.6647 1401.92 19.0553 1401.31 18.5898C1400.71 18.1159 1399.76 17.8789 1398.46 17.8789C1396.95 17.8789 1395.82 18.2852 1395.07 19.0977C1394.34 19.9017 1393.97 20.9681 1393.97 22.2969V22.792C1393.97 24.1208 1394.33 25.1956 1395.06 26.0166C1395.8 26.8291 1396.93 27.2354 1398.46 27.2354C1399.78 27.2354 1400.74 26.9984 1401.35 26.5244C1401.96 26.042 1402.26 25.4199 1402.27 24.6582V24.5439H1404.99V24.6836C1404.97 25.9616 1404.41 27.0618 1403.29 27.9844C1402.17 28.9069 1400.56 29.3682 1398.46 29.3682C1396.2 29.3682 1394.42 28.763 1393.11 27.5527C1391.8 26.3424 1391.15 24.7301 1391.15 22.7158ZM1411.09 29H1408.07L1412.29 23.5537L1415.12 23.7441L1411.09 29ZM1418.13 29V24.3916H1414.06L1413.6 24.2646C1411.94 24.2646 1410.68 23.9007 1409.81 23.1729C1408.95 22.445 1408.52 21.459 1408.52 20.2148C1408.52 18.9707 1408.95 17.9762 1409.81 17.2314C1410.68 16.4782 1411.94 16.1016 1413.58 16.1016H1420.91V29H1418.13ZM1413.89 22.4111H1418.13V18.0693H1413.89C1412.93 18.0693 1412.26 18.2767 1411.87 18.6914C1411.48 19.0977 1411.28 19.6139 1411.28 20.2402C1411.28 20.8835 1411.48 21.4082 1411.86 21.8145C1412.25 22.2122 1412.92 22.4111 1413.89 22.4111ZM1275.55 72.4023V69H1264.67V72.4023H1262.11V66.8799H1278.1V72.4023H1275.55ZM1267.24 58.2217L1267.04 62.5C1266.99 63.651 1266.9 64.5863 1266.77 65.3057C1266.65 66.0251 1266.48 66.6302 1266.27 67.1211H1263.51C1263.78 66.7233 1264.01 66.1351 1264.2 65.3564C1264.38 64.5778 1264.51 63.4818 1264.58 62.0684L1264.86 56.1016H1276.05V68.9619H1273.3V58.2217H1267.24ZM1280.86 65.2041C1280.86 63.8669 1281.43 62.8385 1282.56 62.1191C1283.7 61.3997 1285.27 61.0443 1287.27 61.0527H1291.27V60.1006C1291.27 59.3219 1291.02 58.7337 1290.5 58.3359C1289.98 57.9382 1289.12 57.7393 1287.9 57.7393C1286.74 57.7393 1285.87 57.9128 1285.31 58.2598C1284.75 58.6068 1284.47 59.068 1284.47 59.6436V59.8086H1281.78V59.6182C1281.78 58.4502 1282.33 57.5107 1283.43 56.7998C1284.54 56.0889 1286.06 55.7334 1288.01 55.7334C1289.96 55.7334 1291.45 56.1016 1292.48 56.8379C1293.51 57.5658 1294.03 58.6787 1294.03 60.1768V65.9912C1294.03 66.5413 1294.08 67.0576 1294.17 67.54C1294.26 68.0225 1294.4 68.4414 1294.57 68.7969V69H1291.9C1291.77 68.7884 1291.65 68.5218 1291.54 68.2002C1291.44 67.8701 1291.38 67.5273 1291.35 67.1719C1290.99 67.722 1290.37 68.2044 1289.47 68.6191C1288.57 69.0254 1287.43 69.2285 1286.04 69.2285C1284.45 69.2285 1283.19 68.8815 1282.26 68.1875C1281.33 67.4935 1280.86 66.499 1280.86 65.2041ZM1283.62 65.0391C1283.62 65.7585 1283.88 66.3086 1284.39 66.6895C1284.91 67.0618 1285.73 67.248 1286.86 67.248C1288.01 67.248 1289.03 66.9561 1289.93 66.3721C1290.83 65.7796 1291.27 65.1068 1291.27 64.3535V62.8174H1287.74C1286.37 62.8174 1285.34 63.0078 1284.65 63.3887C1283.96 63.7611 1283.62 64.3112 1283.62 65.0391ZM1303.02 58.2344L1302.77 63.1855C1302.68 65.3607 1302.36 66.9222 1301.82 67.8701C1301.29 68.8096 1300.37 69.2793 1299.08 69.2793C1298.78 69.2793 1298.5 69.2624 1298.24 69.2285C1298 69.1947 1297.8 69.1439 1297.65 69.0762V66.8037C1297.78 66.863 1297.92 66.9053 1298.06 66.9307C1298.21 66.9476 1298.39 66.9561 1298.6 66.9561C1299.19 66.9561 1299.6 66.6641 1299.84 66.0801C1300.09 65.4876 1300.24 64.417 1300.3 62.8682L1300.62 56.1016H1311.57V69H1308.82V58.2344H1303.02ZM1319.54 56.1016V60.3672H1323.99C1325.62 60.3672 1326.87 60.748 1327.73 61.5098C1328.6 62.263 1329.04 63.321 1329.04 64.6836C1329.04 66.0208 1328.6 67.0745 1327.73 67.8447C1326.87 68.6149 1325.62 69 1323.99 69H1316.79V56.1016H1319.54ZM1323.71 62.3857H1319.54V66.9814H1323.71C1324.65 66.9814 1325.31 66.7741 1325.7 66.3594C1326.09 65.9362 1326.28 65.3691 1326.28 64.6582C1326.28 63.9642 1326.09 63.4141 1325.7 63.0078C1325.31 62.5931 1324.65 62.3857 1323.71 62.3857ZM1333.15 69V56.1016H1335.91V66.8799H1341.54V56.1016H1344.3V66.8799H1349.93V56.1016H1352.69V69H1333.15ZM1357.03 62.7158V62.3604C1357.03 60.3883 1357.69 58.793 1359.01 57.5742C1360.33 56.347 1362.07 55.7334 1364.23 55.7334C1366.38 55.7334 1368.04 56.3089 1369.2 57.46C1370.38 58.6025 1370.97 60.1598 1370.97 62.1318V63.1475H1358.67V61.2432H1368.24V61.167C1368.24 60.2106 1367.93 59.4193 1367.31 58.793C1366.69 58.1667 1365.67 57.8535 1364.23 57.8535C1362.75 57.8535 1361.63 58.264 1360.88 59.085C1360.13 59.8975 1359.76 60.9596 1359.76 62.2715V62.7793C1359.76 64.1081 1360.15 65.1829 1360.94 66.0039C1361.73 66.8164 1362.92 67.2227 1364.53 67.2227C1365.59 67.2227 1366.48 67.0449 1367.2 66.6895C1367.93 66.334 1368.5 65.9066 1368.93 65.4072L1370.8 66.7275C1370.33 67.4215 1369.56 68.0352 1368.51 68.5684C1367.45 69.1016 1366.13 69.3682 1364.55 69.3682C1362.17 69.3682 1360.32 68.7588 1359 67.54C1357.69 66.3128 1357.03 64.7048 1357.03 62.7158Z" fill="#04101C"/>
<path d="M-4.5 835.5L281 722.5L648.5 643L967 467L1246 375L1443 233.5V275L1246 416.5L967 508.5L648.5 684.5L281 764L-4.5 877V835.5Z" fill="url(#paint0_linear_19_9)"/>
<path d="M281 722.5L-4.5 835.5V877L281 764M281 722.5L648.5 643M281 722.5V764M967 467L1246 375M967 467L648.5 643M967 467V508.5M1246 375L1443 233.5V275L1246 416.5M1246 375V416.5M648.5 643V684.5M281 764L648.5 684.5M967 508.5L1246 416.5M967 508.5L648.5 684.5" stroke="#AFB6B3"/>
<line x1="460.5" y1="725" x2="460.5" y2="456" stroke="#AFB6B3"/>
<line x1="30.5" y1="822" x2="30.5" y2="462" stroke="#AFB6B3"/>
<line x1="205.5" y1="1028" x2="204.5" y2="754.002" stroke="#AFB6B3"/>
<line x1="773.5" y1="614" x2="773.5" y2="316" stroke="#AFB6B3"/>
<line x1="1246.5" y1="685" x2="1246.5" y2="416" stroke="#AFB6B3"/>
<line x1="1066.5" y1="476" x2="1066.5" y2="207" stroke="#AFB6B3"/>
<line x1="1439.5" y1="278" x2="1439.5" y2="9" stroke="#AFB6B3"/>
<path d="M94.7414 196H111.011C127.996 196 135.148 202.66 135.148 217C135.148 231.34 127.996 238 111.011 238H94.7414C93.2515 238 92 236.8 92 235.3V198.82C92 197.26 93.1919 196 94.7414 196ZM110.713 204.28H102.966V229.72H110.713C121.381 229.72 124.182 226 124.182 217C124.182 208 121.381 204.28 110.713 204.28Z" fill="#04101C"/>
<path d="M137.664 235.3L144.994 207.4C147.438 198.1 155.841 196 164.304 196H179.978C181.408 196 182.481 197.26 182.481 198.7V235.3C182.481 236.8 181.229 238 179.739 238H174.256C172.707 238 171.515 236.8 171.515 235.24V227.86H150.835L148.868 235.24C148.451 236.8 146.961 238 145.412 238H139.69C138.141 238 137.247 236.8 137.664 235.3ZM155.543 210.16L152.98 219.58H171.515V204.28H163.231C159.476 204.28 156.497 206.56 155.543 210.16Z" fill="#04101C"/>
<path d="M203.279 235.3V223L187.724 198.76C186.83 197.38 187.247 196 188.737 196H194.28C196.664 196 198.332 197.2 199.346 198.76L208.762 213.4L218.178 198.76C219.191 197.2 220.86 196 223.244 196H228.786C230.276 196 230.693 197.38 229.799 198.76L214.245 223V235.3C214.245 236.8 212.993 238 211.503 238H206.02C204.53 238 203.279 236.8 203.279 235.3Z" fill="#04101C"/>
<path d="M242.922 238H237.797C236.307 238 235.055 236.74 235.055 235.24V198.76C235.055 197.26 236.247 196 237.737 196H246.319C247.749 196 249.418 197.38 250.312 198.76L267.893 226V198.7C267.893 197.2 269.144 196 270.634 196H275.64C277.19 196 278.382 197.2 278.382 198.76V235.24C278.382 236.74 277.19 238 275.64 238H265.986C264.436 238 262.708 236.74 261.754 235.24L245.663 210.1V235.24C245.663 236.74 244.412 238 242.922 238Z" fill="#04101C"/>
<path d="M323.031 196C324.521 196 325.772 197.2 325.772 198.76V201.52C325.772 203.08 324.521 204.28 323.031 204.28H297.702V212.8H319.515C321.005 212.8 322.256 214.06 322.256 215.56V218.32C322.256 219.82 321.005 221.08 319.515 221.08H297.702V229.72H322.971C324.461 229.72 325.653 230.92 325.653 232.42V235.24C325.653 236.74 324.461 238 322.912 238H289.478C287.928 238 286.737 236.74 286.737 235.18V198.7C286.737 197.2 287.988 196 289.478 196H323.031Z" fill="#04101C"/>
<path d="M330.309 196H367.259C368.808 196 370 197.2 370 198.76V201.52C370 203.08 368.808 204.28 367.259 204.28H354.267V235.3C354.267 236.8 353.015 238 351.525 238H346.042C344.552 238 343.301 236.8 343.301 235.3V204.28H330.309C328.759 204.28 327.567 203.08 327.567 201.52V198.76C327.567 197.2 328.759 196 330.309 196Z" fill="#04101C"/>
<line x1="648.5" y1="911" x2="648.5" y2="642" stroke="#AFB6B3"/>
<line x1="966.5" y1="778" x2="966.5" y2="509" stroke="#AFB6B3"/>
</g>
<defs>
<linearGradient id="paint0_linear_19_9" x1="21.5" y1="877" x2="1224.38" y2="-22.7667" gradientUnits="userSpaceOnUse">
<stop stop-color="#4AFCF1"/>
<stop offset="0.26875" stop-color="#FF93DA"/>
<stop offset="0.784375" stop-color="#7A73FF"/>
<stop offset="0.951645" stop-color="#83FFBC"/>
</linearGradient>
<clipPath id="clip0_19_9">
<rect width="1440" height="1024" fill="white"/>
</clipPath>
</defs>
</svg>
