<svg width="1440" height="1024" viewBox="0 0 1440 1024" fill="none" xmlns="http://www.w3.org/2000/svg">
<g clip-path="url(#clip0_37_30654)">
<rect width="1440" height="1024" fill="#F9FBFF"/>
<path d="M233.595 665.899C139.277 687.453 -5 732.594 -5 732.594V759C-5 759 138.938 709.601 233.595 686.922C352.098 658.53 424.572 670.717 541.531 636.517C649.907 604.826 700.731 559.483 808.1 524.532C897.496 495.432 954.602 501.605 1041.61 465.995C1109.51 438.206 1138.55 403.638 1206.49 375.962C1293.48 340.529 1437 318.335 1440 318.335C1443 318.335 1442 296.5 1440 297C1438 297.5 1293.58 320.15 1206.49 355.563C1138.69 383.132 1109.41 417.091 1041.61 444.659C954.519 480.073 897.511 474.162 808.1 503.223C700.767 538.109 649.84 583.121 541.531 614.844C424.547 649.107 352.429 638.742 233.595 665.899Z" fill="url(#paint0_linear_37_30654)" stroke="#AFB6B3"/>
<path d="M425.12 422V403.516H440.608V422H437.765V405.788H427.977V422H425.12ZM445.266 415.716V415.36C445.266 413.388 445.926 411.793 447.247 410.574C448.567 409.347 450.306 408.733 452.464 408.733C454.614 408.733 456.273 409.309 457.441 410.46C458.617 411.603 459.206 413.16 459.206 415.132V416.147H446.904V414.243H456.476V414.167C456.476 413.211 456.167 412.419 455.549 411.793C454.931 411.167 453.903 410.854 452.464 410.854C450.983 410.854 449.866 411.264 449.113 412.085C448.368 412.897 447.996 413.96 447.996 415.271V415.779C447.996 417.108 448.389 418.183 449.176 419.004C449.963 419.816 451.161 420.223 452.769 420.223C453.827 420.223 454.716 420.045 455.435 419.689C456.163 419.334 456.738 418.907 457.162 418.407L459.04 419.728C458.567 420.422 457.801 421.035 456.743 421.568C455.685 422.102 454.364 422.368 452.782 422.368C450.403 422.368 448.554 421.759 447.234 420.54C445.922 419.313 445.266 417.705 445.266 415.716ZM463.305 427.307V409.102H465.869L465.958 410.892H465.983C466.39 410.325 467.024 409.838 467.888 409.432C468.759 409.025 469.775 408.822 470.934 408.822C472.906 408.822 474.476 409.423 475.644 410.625C476.821 411.827 477.409 413.401 477.409 415.348V415.716C477.409 417.679 476.821 419.266 475.644 420.477C474.476 421.678 472.919 422.279 470.973 422.279C469.813 422.279 468.819 422.102 467.989 421.746C467.16 421.382 466.516 420.929 466.059 420.388L466.047 427.307H463.305ZM466.047 417.887C466.343 418.462 466.855 418.979 467.583 419.436C468.311 419.893 469.195 420.121 470.236 420.121C471.743 420.121 472.847 419.723 473.55 418.928C474.252 418.132 474.603 417.078 474.603 415.767V415.297C474.603 414.002 474.252 412.961 473.55 412.174C472.847 411.387 471.743 410.993 470.236 410.993C469.204 410.993 468.323 411.217 467.596 411.666C466.876 412.106 466.36 412.614 466.047 413.189V417.887ZM481.775 422V409.102H489.481C491.004 409.102 492.155 409.381 492.934 409.939C493.713 410.498 494.102 411.336 494.102 412.453C494.102 413.206 493.89 413.824 493.467 414.307C493.052 414.789 492.481 415.128 491.753 415.322V415.36C492.6 415.504 493.281 415.83 493.797 416.338C494.313 416.846 494.572 417.523 494.572 418.369C494.572 419.512 494.161 420.405 493.34 421.048C492.519 421.683 491.36 422 489.862 422H481.775ZM484.504 414.497H489.189C489.951 414.497 490.501 414.34 490.839 414.027C491.178 413.706 491.347 413.257 491.347 412.682C491.347 412.148 491.178 411.742 490.839 411.463C490.501 411.175 489.951 411.031 489.189 411.031H484.504V414.497ZM484.504 420.07H489.532C490.31 420.07 490.886 419.905 491.258 419.575C491.631 419.245 491.817 418.792 491.817 418.217C491.817 417.65 491.635 417.201 491.271 416.871C490.907 416.533 490.327 416.363 489.532 416.363H484.504V420.07ZM498.29 418.204C498.29 416.867 498.857 415.839 499.991 415.119C501.125 414.4 502.695 414.044 504.701 414.053H508.7V413.101C508.7 412.322 508.442 411.734 507.926 411.336C507.409 410.938 506.542 410.739 505.323 410.739C504.164 410.739 503.3 410.913 502.733 411.26C502.175 411.607 501.895 412.068 501.895 412.644V412.809H499.204V412.618C499.204 411.45 499.754 410.511 500.854 409.8C501.963 409.089 503.491 408.733 505.437 408.733C507.384 408.733 508.873 409.102 509.906 409.838C510.939 410.566 511.455 411.679 511.455 413.177V418.991C511.455 419.541 511.501 420.058 511.594 420.54C511.688 421.022 511.823 421.441 512.001 421.797V422H509.322C509.195 421.788 509.077 421.522 508.967 421.2C508.865 420.87 508.802 420.527 508.776 420.172C508.421 420.722 507.794 421.204 506.897 421.619C506 422.025 504.858 422.229 503.469 422.229C501.878 422.229 500.617 421.882 499.686 421.188C498.755 420.493 498.29 419.499 498.29 418.204ZM501.045 418.039C501.045 418.758 501.303 419.309 501.819 419.689C502.335 420.062 503.156 420.248 504.282 420.248C505.433 420.248 506.457 419.956 507.354 419.372C508.251 418.78 508.7 418.107 508.7 417.354V415.817H505.171C503.8 415.817 502.767 416.008 502.073 416.389C501.387 416.761 501.045 417.311 501.045 418.039ZM518.791 422H515.77L519.985 416.554L522.816 416.744L518.791 422ZM525.824 422V417.392H521.762L521.292 417.265C519.642 417.265 518.381 416.901 517.509 416.173C516.646 415.445 516.214 414.459 516.214 413.215C516.214 411.971 516.646 410.976 517.509 410.231C518.381 409.478 519.638 409.102 521.279 409.102H528.605V422H525.824ZM521.584 415.411H525.824V411.069H521.584C520.628 411.069 519.955 411.277 519.566 411.691C519.176 412.098 518.982 412.614 518.982 413.24C518.982 413.883 519.172 414.408 519.553 414.814C519.942 415.212 520.619 415.411 521.584 415.411ZM554.538 415.716C554.538 417.798 553.891 419.427 552.596 420.604C551.309 421.78 549.549 422.368 547.315 422.368C545.148 422.368 543.502 421.911 542.376 420.997C541.259 420.075 540.696 418.979 540.688 417.709V417.557H543.303V417.671C543.311 418.424 543.629 419.046 544.255 419.537C544.89 420.02 545.918 420.261 547.34 420.261C548.846 420.261 549.964 419.871 550.691 419.093C551.428 418.306 551.796 417.193 551.796 415.754V415.297C551.796 413.841 551.424 412.741 550.679 411.996C549.942 411.243 548.834 410.866 547.353 410.866C545.948 410.866 544.932 411.107 544.306 411.59C543.688 412.064 543.371 412.669 543.354 413.405V413.532H540.713L540.726 413.367C540.751 412.081 541.322 410.985 542.44 410.079C543.557 409.174 545.194 408.721 547.353 408.721C549.57 408.721 551.322 409.313 552.608 410.498C553.895 411.674 554.538 413.291 554.538 415.348V415.716ZM553.091 414.472V416.376H545.131V414.472H553.091ZM558.891 422V409.102H566.597C568.121 409.102 569.272 409.381 570.05 409.939C570.829 410.498 571.218 411.336 571.218 412.453C571.218 413.206 571.007 413.824 570.584 414.307C570.169 414.789 569.598 415.128 568.87 415.322V415.36C569.716 415.504 570.397 415.83 570.914 416.338C571.43 416.846 571.688 417.523 571.688 418.369C571.688 419.512 571.278 420.405 570.457 421.048C569.636 421.683 568.476 422 566.978 422H558.891ZM561.621 414.497H566.305C567.067 414.497 567.617 414.34 567.956 414.027C568.294 413.706 568.463 413.257 568.463 412.682C568.463 412.148 568.294 411.742 567.956 411.463C567.617 411.175 567.067 411.031 566.305 411.031H561.621V414.497ZM561.621 420.07H566.648C567.427 420.07 568.002 419.905 568.375 419.575C568.747 419.245 568.933 418.792 568.933 418.217C568.933 417.65 568.751 417.201 568.387 416.871C568.023 416.533 567.444 416.363 566.648 416.363H561.621V420.07ZM575.432 415.716V415.36C575.432 413.38 576.109 411.78 577.463 410.562C578.825 409.334 580.628 408.721 582.871 408.721C585.122 408.721 586.925 409.334 588.279 410.562C589.633 411.78 590.311 413.38 590.311 415.36V415.716C590.311 417.713 589.633 419.321 588.279 420.54C586.925 421.759 585.122 422.368 582.871 422.368C580.628 422.368 578.825 421.759 577.463 420.54C576.109 419.321 575.432 417.713 575.432 415.716ZM578.25 415.31V415.792C578.25 417.104 578.639 418.17 579.418 418.991C580.205 419.804 581.356 420.21 582.871 420.21C584.386 420.21 585.533 419.804 586.311 418.991C587.099 418.17 587.492 417.1 587.492 415.779V415.31C587.492 413.998 587.099 412.936 586.311 412.123C585.533 411.311 584.386 410.904 582.871 410.904C581.365 410.904 580.218 411.311 579.431 412.123C578.644 412.936 578.25 413.998 578.25 415.31ZM598.447 411.234L598.205 416.186C598.112 418.361 597.795 419.922 597.253 420.87C596.72 421.81 595.806 422.279 594.511 422.279C594.206 422.279 593.927 422.262 593.673 422.229C593.428 422.195 593.229 422.144 593.077 422.076V419.804C593.212 419.863 593.352 419.905 593.496 419.931C593.639 419.948 593.817 419.956 594.029 419.956C594.621 419.956 595.036 419.664 595.273 419.08C595.518 418.488 595.671 417.417 595.73 415.868L596.047 409.102H607.003V422H604.248V411.234H598.447ZM612.22 409.102H614.974V414.37H618.986V416.478H614.974V422H612.22V409.102ZM617.602 415.716V415.36C617.602 413.38 618.267 411.78 619.596 410.562C620.933 409.334 622.702 408.721 624.902 408.721C627.111 408.721 628.88 409.334 630.209 410.562C631.538 411.78 632.202 413.38 632.202 415.36V415.716C632.202 417.713 631.538 419.321 630.209 420.54C628.88 421.759 627.111 422.368 624.902 422.368C622.693 422.368 620.924 421.759 619.596 420.54C618.267 419.321 617.602 417.713 617.602 415.716ZM620.395 415.31V415.779C620.395 417.108 620.772 418.179 621.525 418.991C622.287 419.804 623.408 420.21 624.889 420.21C626.362 420.21 627.479 419.804 628.241 418.991C629.003 418.179 629.384 417.108 629.384 415.779V415.31C629.384 413.989 629.003 412.927 628.241 412.123C627.479 411.311 626.362 410.904 624.889 410.904C623.417 410.904 622.3 411.311 621.538 412.123C620.776 412.927 620.395 413.989 620.395 415.31ZM648.577 425.402V422H636.555V409.102H639.31V419.88H646.33V409.102H649.085V419.88H651.129V425.402H648.577ZM654.746 422V409.102H657.488V417.125C657.488 417.396 657.484 417.671 657.475 417.95C657.467 418.221 657.454 418.492 657.437 418.763H657.526C657.662 418.517 657.793 418.289 657.92 418.077C658.047 417.857 658.212 417.607 658.415 417.328L664.788 409.102H667.581V422H664.826V413.964C664.826 413.701 664.83 413.431 664.839 413.151C664.847 412.872 664.86 412.597 664.877 412.326H664.788C664.661 412.563 664.534 412.792 664.407 413.012C664.28 413.232 664.111 413.481 663.899 413.761L657.526 422H654.746ZM674.892 422H671.87L676.085 416.554L678.916 416.744L674.892 422ZM681.925 422V417.392H677.862L677.393 417.265C675.742 417.265 674.481 416.901 673.61 416.173C672.746 415.445 672.315 414.459 672.315 413.215C672.315 411.971 672.746 410.976 673.61 410.231C674.481 409.478 675.738 409.102 677.38 409.102H684.705V422H681.925ZM677.685 415.411H681.925V411.069H677.685C676.728 411.069 676.055 411.277 675.666 411.691C675.277 412.098 675.082 412.614 675.082 413.24C675.082 413.883 675.273 414.408 675.653 414.814C676.043 415.212 676.72 415.411 677.685 415.411Z" fill="#04101C"/>
<path d="M424.295 462V460.121L431.925 452.897C432.737 452.11 433.419 451.344 433.969 450.6C434.519 449.855 434.794 449.089 434.794 448.302C434.794 447.447 434.477 446.749 433.842 446.207C433.215 445.665 432.318 445.395 431.15 445.395C429.923 445.395 428.946 445.703 428.218 446.321C427.49 446.931 427.126 447.794 427.126 448.911V449.152H424.282V448.873C424.282 447.206 424.909 445.839 426.161 444.772C427.422 443.698 429.085 443.16 431.15 443.16C433.182 443.16 434.773 443.643 435.924 444.607C437.083 445.572 437.663 446.753 437.663 448.149C437.663 449.377 437.303 450.468 436.584 451.425C435.873 452.381 434.963 453.384 433.854 454.434L428.205 459.753H438.184V462H424.295ZM441.927 454.967V450.498C441.927 448.23 442.537 446.44 443.755 445.128C444.983 443.816 446.705 443.16 448.922 443.16C451.14 443.16 452.862 443.816 454.089 445.128C455.325 446.431 455.943 448.221 455.943 450.498V454.967C455.943 457.277 455.325 459.089 454.089 460.4C452.854 461.704 451.131 462.355 448.922 462.355C446.688 462.355 444.961 461.695 443.743 460.375C442.532 459.055 441.927 457.252 441.927 454.967ZM444.809 455.183C444.809 456.723 445.143 457.933 445.812 458.813C446.481 459.694 447.517 460.134 448.922 460.134C450.336 460.134 451.377 459.694 452.045 458.813C452.722 457.933 453.061 456.727 453.061 455.195V450.295C453.061 448.788 452.722 447.599 452.045 446.728C451.368 445.847 450.327 445.407 448.922 445.407C447.526 445.407 446.489 445.847 445.812 446.728C445.143 447.599 444.809 448.788 444.809 450.295V455.183ZM466.237 462V446.283L460.74 448.327V445.775L467.888 443.3H469.094V462H466.237ZM477.446 454.23V453.812C477.446 450.578 478.449 448.006 480.454 446.093C482.46 444.172 485.3 443.211 488.973 443.211H489.354V445.483H488.998C486.282 445.483 484.14 446.148 482.575 447.477C481.009 448.805 480.226 450.925 480.226 453.837L480.251 454.357C480.251 456.473 480.67 457.967 481.508 458.839C482.354 459.711 483.451 460.146 484.796 460.146C486.117 460.146 487.145 459.804 487.881 459.118C488.626 458.424 488.998 457.409 488.998 456.071C488.998 454.776 488.63 453.79 487.894 453.113C487.158 452.428 486.129 452.085 484.809 452.085C483.573 452.085 482.498 452.436 481.584 453.139C480.679 453.833 480.222 454.806 480.213 456.059L479.147 456.021C479.147 454.235 479.739 452.783 480.924 451.666C482.109 450.54 483.649 449.978 485.545 449.978C487.475 449.978 489.003 450.532 490.128 451.641C491.262 452.749 491.829 454.222 491.829 456.059C491.829 457.929 491.182 459.448 489.887 460.616C488.592 461.776 486.891 462.355 484.784 462.355C482.701 462.355 480.958 461.712 479.553 460.426C478.148 459.139 477.446 457.074 477.446 454.23Z" fill="#5D5FEF"/>
<line x1="406.5" y1="662" x2="406.5" y2="393" stroke="#AFB6B3"/>
<path d="M40.2822 407.101V406.377C40.2822 403.355 41.137 401.062 42.8467 399.496C44.5563 397.93 46.7399 397.147 49.3975 397.147C52.055 397.147 54.2428 397.93 55.9609 399.496C57.679 401.062 58.5381 403.355 58.5381 406.377V407.101C58.5381 410.139 57.679 412.445 55.9609 414.02C54.2428 415.585 52.055 416.368 49.3975 416.368C46.7399 416.368 44.5563 415.585 42.8467 414.02C41.137 412.445 40.2822 410.139 40.2822 407.101ZM43.1768 407.24C43.1768 409.508 43.748 411.218 44.8906 412.369C46.0417 413.52 47.5482 414.096 49.4102 414.096C51.2637 414.096 52.7617 413.52 53.9043 412.369C55.0553 411.218 55.6309 409.508 55.6309 407.24V406.25C55.6309 403.99 55.0596 402.289 53.917 401.146C52.7744 400.004 51.2721 399.433 49.4102 399.433C47.5397 399.433 46.0332 400.004 44.8906 401.146C43.748 402.289 43.1768 403.99 43.1768 406.25V407.24ZM61.8246 409.716V409.348C61.8246 407.359 62.4763 405.759 63.7797 404.549C65.0916 403.33 66.8774 402.721 69.1371 402.721C71.2361 402.721 72.8357 403.182 73.936 404.104C75.0447 405.019 75.6202 406.115 75.6625 407.393V407.545H72.9204V407.418C72.9034 406.665 72.5903 406.055 71.9809 405.59C71.38 405.116 70.4321 404.879 69.1371 404.879C67.6222 404.879 66.4923 405.285 65.7475 406.098C65.0112 406.902 64.643 407.968 64.643 409.297V409.792C64.643 411.121 65.0069 412.196 65.7348 413.017C66.4711 413.829 67.6052 414.235 69.1371 414.235C70.449 414.235 71.4096 413.998 72.019 413.524C72.6284 413.042 72.9373 412.42 72.9457 411.658V411.544H75.6625V411.684C75.6456 412.962 75.0786 414.062 73.9614 414.984C72.8442 415.907 71.2361 416.368 69.1371 416.368C66.8774 416.368 65.0916 415.763 63.7797 414.553C62.4763 413.342 61.8246 411.73 61.8246 409.716ZM79.6346 403.102H82.3895V408.37H89.5624V403.102H92.3173V416H89.5624V410.478H82.3895V416H79.6346V403.102ZM96.6829 409.716V409.36C96.6829 407.38 97.36 405.78 98.7142 404.562C100.077 403.334 101.88 402.721 104.122 402.721C106.374 402.721 108.176 403.334 109.531 404.562C110.885 405.78 111.562 407.38 111.562 409.36V409.716C111.562 411.713 110.885 413.321 109.531 414.54C108.176 415.759 106.374 416.368 104.122 416.368C101.88 416.368 100.077 415.759 98.7142 414.54C97.36 413.321 96.6829 411.713 96.6829 409.716ZM99.5013 409.31V409.792C99.5013 411.104 99.8906 412.17 100.669 412.991C101.456 413.804 102.607 414.21 104.122 414.21C105.637 414.21 106.784 413.804 107.563 412.991C108.35 412.17 108.743 411.1 108.743 409.779V409.31C108.743 407.998 108.35 406.936 107.563 406.123C106.784 405.311 105.637 404.904 104.122 404.904C102.616 404.904 101.469 405.311 100.682 406.123C99.8948 406.936 99.5013 407.998 99.5013 409.31ZM115.915 416V403.102H123.621C125.144 403.102 126.295 403.381 127.074 403.939C127.853 404.498 128.242 405.336 128.242 406.453C128.242 407.206 128.03 407.824 127.607 408.307C127.192 408.789 126.621 409.128 125.893 409.322V409.36C126.74 409.504 127.421 409.83 127.937 410.338C128.454 410.846 128.712 411.523 128.712 412.369C128.712 413.512 128.301 414.405 127.48 415.048C126.659 415.683 125.5 416 124.002 416H115.915ZM118.644 408.497H123.329C124.091 408.497 124.641 408.34 124.979 408.027C125.318 407.706 125.487 407.257 125.487 406.682C125.487 406.148 125.318 405.742 124.979 405.463C124.641 405.175 124.091 405.031 123.329 405.031H118.644V408.497ZM118.644 414.07H123.672C124.45 414.07 125.026 413.905 125.398 413.575C125.771 413.245 125.957 412.792 125.957 412.217C125.957 411.65 125.775 411.201 125.411 410.871C125.047 410.533 124.467 410.363 123.672 410.363H118.644V414.07ZM132.43 412.204C132.43 410.867 132.997 409.839 134.131 409.119C135.265 408.4 136.835 408.044 138.841 408.053H142.84V407.101C142.84 406.322 142.582 405.734 142.066 405.336C141.549 404.938 140.682 404.739 139.463 404.739C138.304 404.739 137.44 404.913 136.873 405.26C136.315 405.607 136.035 406.068 136.035 406.644V406.809H133.344V406.618C133.344 405.45 133.894 404.511 134.994 403.8C136.103 403.089 137.631 402.733 139.577 402.733C141.524 402.733 143.014 403.102 144.046 403.838C145.079 404.566 145.595 405.679 145.595 407.177V412.991C145.595 413.541 145.641 414.058 145.735 414.54C145.828 415.022 145.963 415.441 146.141 415.797V416H143.462C143.335 415.788 143.217 415.522 143.107 415.2C143.005 414.87 142.942 414.527 142.916 414.172C142.561 414.722 141.934 415.204 141.037 415.619C140.14 416.025 138.998 416.229 137.61 416.229C136.018 416.229 134.757 415.882 133.826 415.188C132.895 414.493 132.43 413.499 132.43 412.204ZM135.185 412.039C135.185 412.758 135.443 413.309 135.959 413.689C136.475 414.062 137.296 414.248 138.422 414.248C139.573 414.248 140.597 413.956 141.494 413.372C142.391 412.78 142.84 412.107 142.84 411.354V409.817H139.311C137.94 409.817 136.907 410.008 136.213 410.389C135.528 410.761 135.185 411.311 135.185 412.039ZM150.798 403.102H153.553V408.37H160.726V403.102H163.481V416H160.726V410.478H153.553V416H150.798V403.102ZM168.685 416V403.102H171.427V411.125C171.427 411.396 171.423 411.671 171.414 411.95C171.406 412.221 171.393 412.492 171.376 412.763H171.465C171.6 412.517 171.732 412.289 171.858 412.077C171.985 411.857 172.15 411.607 172.354 411.328L178.727 403.102H181.52V416H178.765V407.964C178.765 407.701 178.769 407.431 178.777 407.151C178.786 406.872 178.799 406.597 178.816 406.326H178.727C178.6 406.563 178.473 406.792 178.346 407.012C178.219 407.232 178.05 407.481 177.838 407.761L171.465 416H168.685ZM185.86 409.716V409.36C185.86 407.388 186.52 405.793 187.84 404.574C189.161 403.347 190.9 402.733 193.058 402.733C195.208 402.733 196.867 403.309 198.035 404.46C199.211 405.603 199.799 407.16 199.799 409.132V410.147H187.498V408.243H197.07V408.167C197.07 407.211 196.761 406.419 196.143 405.793C195.525 405.167 194.497 404.854 193.058 404.854C191.577 404.854 190.46 405.264 189.707 406.085C188.962 406.897 188.589 407.96 188.589 409.271V409.779C188.589 411.108 188.983 412.183 189.77 413.004C190.557 413.816 191.755 414.223 193.363 414.223C194.421 414.223 195.309 414.045 196.029 413.689C196.757 413.334 197.332 412.907 197.755 412.407L199.634 413.728C199.16 414.422 198.394 415.035 197.336 415.568C196.278 416.102 194.958 416.368 193.376 416.368C190.997 416.368 189.148 415.759 187.828 414.54C186.516 413.313 185.86 411.705 185.86 409.716ZM221.759 416L215.742 410.059L217.633 408.434L225.314 416H221.759ZM213.253 408.37H216.11L221.264 403.102H224.476L217.113 410.49H213.253V408.37ZM214.624 403.102V416H211.882V403.102H214.624ZM227.636 409.716V409.36C227.636 407.38 228.313 405.78 229.667 404.562C231.029 403.334 232.832 402.721 235.075 402.721C237.326 402.721 239.129 403.334 240.483 404.562C241.837 405.78 242.514 407.38 242.514 409.36V409.716C242.514 411.713 241.837 413.321 240.483 414.54C239.129 415.759 237.326 416.368 235.075 416.368C232.832 416.368 231.029 415.759 229.667 414.54C228.313 413.321 227.636 411.713 227.636 409.716ZM230.454 409.31V409.792C230.454 411.104 230.843 412.17 231.622 412.991C232.409 413.804 233.56 414.21 235.075 414.21C236.59 414.21 237.737 413.804 238.515 412.991C239.303 412.17 239.696 411.1 239.696 409.779V409.31C239.696 407.998 239.303 406.936 238.515 406.123C237.737 405.311 236.59 404.904 235.075 404.904C233.569 404.904 232.422 405.311 231.635 406.123C230.848 406.936 230.454 407.998 230.454 409.31ZM246.893 416V403.102H250.587L254.739 411.366C254.967 411.84 255.119 412.183 255.196 412.395C255.28 412.598 255.348 412.801 255.399 413.004H255.5C255.56 412.801 255.627 412.598 255.703 412.395C255.788 412.191 255.945 411.849 256.173 411.366L260.312 403.102H263.955V416H261.226V407.685C261.226 407.202 261.234 406.838 261.251 406.593C261.268 406.339 261.289 406.106 261.315 405.895H261.226C261.175 406.081 261.112 406.284 261.035 406.504C260.959 406.715 260.824 407.029 260.629 407.443L256.376 416H254.193L249.927 407.431C249.783 407.118 249.665 406.83 249.572 406.567C249.478 406.305 249.411 406.081 249.368 405.895H249.267C249.284 406.081 249.301 406.301 249.318 406.555C249.335 406.809 249.343 407.168 249.343 407.634V416H246.893ZM269.146 403.102H281.74V416H278.985V405.234H271.901V416H269.146V403.102ZM286.068 412.204C286.068 410.867 286.635 409.839 287.769 409.119C288.903 408.4 290.473 408.044 292.479 408.053H296.478V407.101C296.478 406.322 296.22 405.734 295.703 405.336C295.187 404.938 294.319 404.739 293.101 404.739C291.941 404.739 291.078 404.913 290.511 405.26C289.952 405.607 289.673 406.068 289.673 406.644V406.809H286.982V406.618C286.982 405.45 287.532 404.511 288.632 403.8C289.741 403.089 291.268 402.733 293.215 402.733C295.162 402.733 296.651 403.102 297.684 403.838C298.716 404.566 299.233 405.679 299.233 407.177V412.991C299.233 413.541 299.279 414.058 299.372 414.54C299.465 415.022 299.601 415.441 299.778 415.797V416H297.1C296.973 415.788 296.854 415.522 296.744 415.2C296.643 414.87 296.579 414.527 296.554 414.172C296.198 414.722 295.572 415.204 294.675 415.619C293.778 416.025 292.635 416.229 291.247 416.229C289.656 416.229 288.395 415.882 287.464 415.188C286.533 414.493 286.068 413.499 286.068 412.204ZM288.822 412.039C288.822 412.758 289.081 413.309 289.597 413.689C290.113 414.062 290.934 414.248 292.06 414.248C293.211 414.248 294.235 413.956 295.132 413.372C296.029 412.78 296.478 412.107 296.478 411.354V409.817H292.948C291.577 409.817 290.545 410.008 289.851 410.389C289.165 410.761 288.822 411.311 288.822 412.039ZM304.436 403.102H307.191V408.37H314.364V403.102H317.119V416H314.364V410.478H307.191V416H304.436V403.102ZM322.322 416V403.102H325.064V411.125C325.064 411.396 325.06 411.671 325.052 411.95C325.043 412.221 325.031 412.492 325.014 412.763H325.103C325.238 412.517 325.369 412.289 325.496 412.077C325.623 411.857 325.788 411.607 325.991 411.328L332.364 403.102H335.157V416H332.402V407.964C332.402 407.701 332.407 407.431 332.415 407.151C332.424 406.872 332.436 406.597 332.453 406.326H332.364C332.237 406.563 332.11 406.792 331.983 407.012C331.856 407.232 331.687 407.481 331.476 407.761L325.103 416H322.322ZM340.335 416V403.102H343.078V411.125C343.078 411.396 343.073 411.671 343.065 411.95C343.056 412.221 343.044 412.492 343.027 412.763H343.116C343.251 412.517 343.382 412.289 343.509 412.077C343.636 411.857 343.801 411.607 344.004 411.328L350.377 403.102H353.17V416H350.415V407.964C350.415 407.701 350.42 407.431 350.428 407.151C350.437 406.872 350.449 406.597 350.466 406.326H350.377C350.25 406.563 350.124 406.792 349.997 407.012C349.87 407.232 349.7 407.481 349.489 407.761L343.116 416H340.335Z" fill="#04101C"/>
<path d="M40.2949 456V454.121L47.9248 446.897C48.7373 446.11 49.4186 445.344 49.9688 444.6C50.5189 443.855 50.7939 443.089 50.7939 442.302C50.7939 441.447 50.4766 440.749 49.8418 440.207C49.2155 439.665 48.3184 439.395 47.1504 439.395C45.9232 439.395 44.9456 439.703 44.2178 440.321C43.4899 440.931 43.126 441.794 43.126 442.911V443.152H40.2822V442.873C40.2822 441.206 40.9085 439.839 42.1611 438.772C43.4222 437.698 45.0853 437.16 47.1504 437.16C49.1816 437.16 50.7728 437.643 51.9238 438.607C53.0833 439.572 53.6631 440.753 53.6631 442.149C53.6631 443.377 53.3034 444.468 52.584 445.425C51.873 446.381 50.9632 447.384 49.8545 448.434L44.2051 453.753H54.1836V456H40.2949ZM57.9272 448.967V444.498C57.9272 442.23 58.5366 440.44 59.7553 439.128C60.9825 437.816 62.7049 437.16 64.9223 437.16C67.1398 437.16 68.8621 437.816 70.0893 439.128C71.325 440.431 71.9428 442.221 71.9428 444.498V448.967C71.9428 451.277 71.325 453.089 70.0893 454.4C68.8536 455.704 67.1313 456.355 64.9223 456.355C62.6879 456.355 60.9614 455.695 59.7426 454.375C58.5323 453.055 57.9272 451.252 57.9272 448.967ZM60.809 449.183C60.809 450.723 61.1433 451.933 61.812 452.813C62.4806 453.694 63.5174 454.134 64.9223 454.134C66.3357 454.134 67.3767 453.694 68.0454 452.813C68.7224 451.933 69.061 450.727 69.061 449.195V444.295C69.061 442.788 68.7224 441.599 68.0454 440.728C67.3683 439.847 66.3273 439.407 64.9223 439.407C63.5258 439.407 62.489 439.847 61.812 440.728C61.1433 441.599 60.809 442.788 60.809 444.295V449.183ZM82.2372 456V440.283L76.7401 442.327V439.775L83.8876 437.3H85.0936V456H82.2372ZM93.3441 451.074V450.808H96.137V451.062C96.137 452.06 96.5137 452.826 97.2669 453.359C98.0286 453.893 99.0485 454.159 100.326 454.159C101.604 454.159 102.62 453.893 103.373 453.359C104.127 452.818 104.503 451.967 104.503 450.808C104.503 449.674 104.08 448.827 103.234 448.269C102.387 447.71 101.241 447.431 99.7933 447.431H97.9398V445.336H99.6663C100.927 445.336 101.935 445.078 102.688 444.562C103.441 444.037 103.818 443.258 103.818 442.226C103.818 441.278 103.505 440.567 102.878 440.093C102.252 439.61 101.393 439.369 100.301 439.369C99.1924 439.369 98.3079 439.61 97.6478 440.093C96.9876 440.575 96.6575 441.273 96.6575 442.188V442.391H93.8646V442.175C93.8646 440.728 94.457 439.53 95.6419 438.582C96.8353 437.634 98.401 437.16 100.339 437.16C102.286 437.16 103.826 437.609 104.96 438.506C106.103 439.403 106.674 440.562 106.674 441.984C106.674 442.958 106.399 443.821 105.849 444.574C105.307 445.327 104.491 445.89 103.399 446.263V446.313C104.584 446.559 105.544 447.075 106.281 447.862C107.025 448.649 107.398 449.652 107.398 450.871C107.398 452.564 106.75 453.901 105.455 454.883C104.16 455.865 102.451 456.355 100.326 456.355C98.1937 456.355 96.4967 455.869 95.2357 454.896C93.9746 453.922 93.3441 452.648 93.3441 451.074Z" fill="#7A73FF"/>
<line x1="30.5" y1="747" x2="30.5" y2="387" stroke="#AFB6B3"/>
<path d="M176.12 904V885.516H183.483C185.515 885.516 187.11 885.901 188.27 886.671C189.429 887.433 190.009 888.656 190.009 890.34C190.009 891.372 189.734 892.219 189.184 892.879C188.642 893.539 187.973 893.996 187.178 894.25V894.301C188.176 894.555 188.997 895.05 189.641 895.786C190.284 896.514 190.605 897.492 190.605 898.719C190.605 900.437 189.988 901.749 188.752 902.654C187.516 903.551 185.896 904 183.89 904H176.12ZM178.926 901.842H183.75C185.104 901.842 186.111 901.567 186.771 901.017C187.432 900.458 187.762 899.658 187.762 898.617C187.762 897.618 187.432 896.84 186.771 896.281C186.111 895.714 185.104 895.431 183.75 895.431H178.926V901.842ZM178.926 893.374H183.356C184.702 893.374 185.68 893.124 186.289 892.625C186.898 892.117 187.203 891.406 187.203 890.492C187.203 889.553 186.898 888.854 186.289 888.397C185.68 887.932 184.702 887.699 183.356 887.699H178.926V893.374ZM200.646 904.368C198.293 904.377 196.558 903.966 195.441 903.137C194.324 902.299 193.765 901.194 193.765 899.823V899.722H196.406V899.811C196.406 900.53 196.723 901.127 197.358 901.601C197.993 902.075 199.076 902.312 200.608 902.312C201.92 902.312 202.914 902.13 203.591 901.766C204.268 901.393 204.607 900.873 204.607 900.204C204.607 899.637 204.383 899.201 203.934 898.896C203.494 898.583 202.808 898.427 201.877 898.427H198.373V896.459H201.573C202.478 896.459 203.134 896.302 203.54 895.989C203.955 895.668 204.163 895.232 204.163 894.682C204.163 894.072 203.875 893.607 203.299 893.285C202.724 892.955 201.865 892.79 200.722 892.79C199.343 892.79 198.323 893.014 197.663 893.463C197.002 893.911 196.672 894.512 196.672 895.266V895.367H194.032V895.266C194.04 893.869 194.62 892.765 195.771 891.952C196.93 891.131 198.602 890.721 200.786 890.721C202.859 890.721 204.404 891.055 205.419 891.724C206.443 892.392 206.956 893.285 206.956 894.402C206.956 895.13 206.719 895.744 206.245 896.243C205.771 896.743 205.102 897.102 204.239 897.322V897.36C205.22 897.504 205.991 897.826 206.549 898.325C207.116 898.816 207.4 899.489 207.4 900.344C207.4 901.605 206.795 902.591 205.584 903.302C204.383 904.013 202.736 904.368 200.646 904.368ZM214.051 904H211.029L215.244 898.554L218.075 898.744L214.051 904ZM221.084 904V899.392H217.021L216.552 899.265C214.901 899.265 213.64 898.901 212.768 898.173C211.905 897.445 211.474 896.459 211.474 895.215C211.474 893.971 211.905 892.976 212.768 892.231C213.64 891.478 214.897 891.102 216.539 891.102H223.864V904H221.084ZM216.844 897.411H221.084V893.069H216.844C215.887 893.069 215.214 893.277 214.825 893.691C214.436 894.098 214.241 894.614 214.241 895.24C214.241 895.883 214.432 896.408 214.812 896.814C215.202 897.212 215.879 897.411 216.844 897.411ZM227.608 893.234V891.102H240.506V893.234H235.441V904H232.686V893.234H227.608ZM262.123 904L256.106 898.059L257.997 896.434L265.678 904H262.123ZM253.617 896.37H256.474L261.628 891.102H264.84L257.477 898.49H253.617V896.37ZM254.988 891.102V904H252.246V891.102H254.988ZM267.606 909.256L267.619 907.098C267.898 907.174 268.199 907.233 268.52 907.275C268.842 907.318 269.151 907.339 269.447 907.339C270.217 907.339 270.86 907.132 271.377 906.717C271.893 906.311 272.443 905.384 273.027 903.937L272.951 903.924L267.035 891.102H269.853L273.611 899.569C273.755 899.891 273.878 900.191 273.979 900.471C274.081 900.742 274.174 901.025 274.258 901.321H274.322C274.415 901.025 274.512 900.742 274.614 900.471C274.715 900.191 274.834 899.891 274.969 899.569L278.689 891.102H281.355L274.804 905.6C274.203 906.895 273.484 907.872 272.646 908.532C271.817 909.192 270.818 909.522 269.65 909.522C269.235 909.522 268.867 909.497 268.546 909.446C268.224 909.404 267.911 909.34 267.606 909.256ZM284.642 909.307V891.102H287.206L287.295 892.892H287.32C287.727 892.325 288.361 891.838 289.225 891.432C290.096 891.025 291.112 890.822 292.272 890.822C294.244 890.822 295.814 891.423 296.982 892.625C298.158 893.827 298.746 895.401 298.746 897.348V897.716C298.746 899.679 298.158 901.266 296.982 902.477C295.814 903.678 294.256 904.279 292.31 904.279C291.15 904.279 290.156 904.102 289.326 903.746C288.497 903.382 287.854 902.929 287.397 902.388L287.384 909.307H284.642ZM287.384 899.887C287.68 900.462 288.192 900.979 288.92 901.436C289.648 901.893 290.532 902.121 291.573 902.121C293.08 902.121 294.184 901.723 294.887 900.928C295.589 900.132 295.941 899.078 295.941 897.767V897.297C295.941 896.002 295.589 894.961 294.887 894.174C294.184 893.387 293.08 892.993 291.573 892.993C290.541 892.993 289.661 893.217 288.933 893.666C288.213 894.106 287.697 894.614 287.384 895.189V899.887ZM302.274 897.716V897.348C302.274 895.359 302.926 893.759 304.229 892.549C305.541 891.33 307.327 890.721 309.586 890.721C311.685 890.721 313.285 891.182 314.385 892.104C315.494 893.019 316.07 894.115 316.112 895.393V895.545H313.37V895.418C313.353 894.665 313.04 894.055 312.43 893.59C311.829 893.116 310.881 892.879 309.586 892.879C308.071 892.879 306.942 893.285 306.197 894.098C305.46 894.902 305.092 895.968 305.092 897.297V897.792C305.092 899.121 305.456 900.196 306.184 901.017C306.92 901.829 308.055 902.235 309.586 902.235C310.898 902.235 311.859 901.998 312.468 901.524C313.078 901.042 313.387 900.42 313.395 899.658V899.544H316.112V899.684C316.095 900.962 315.528 902.062 314.411 902.984C313.293 903.907 311.685 904.368 309.586 904.368C307.327 904.368 305.541 903.763 304.229 902.553C302.926 901.342 302.274 899.73 302.274 897.716ZM328.068 891.102H330.823V896.37H337.996V891.102H340.75V904H337.996V898.478H330.823V904H328.068V891.102ZM345.091 900.204C345.091 898.867 345.658 897.839 346.792 897.119C347.926 896.4 349.496 896.044 351.502 896.053H355.501V895.101C355.501 894.322 355.243 893.734 354.726 893.336C354.21 892.938 353.343 892.739 352.124 892.739C350.964 892.739 350.101 892.913 349.534 893.26C348.975 893.607 348.696 894.068 348.696 894.644V894.809H346.005V894.618C346.005 893.45 346.555 892.511 347.655 891.8C348.764 891.089 350.292 890.733 352.238 890.733C354.185 890.733 355.674 891.102 356.707 891.838C357.739 892.566 358.256 893.679 358.256 895.177V900.991C358.256 901.541 358.302 902.058 358.395 902.54C358.488 903.022 358.624 903.441 358.802 903.797V904H356.123C355.996 903.788 355.877 903.522 355.767 903.2C355.666 902.87 355.602 902.527 355.577 902.172C355.222 902.722 354.595 903.204 353.698 903.619C352.801 904.025 351.658 904.229 350.27 904.229C348.679 904.229 347.418 903.882 346.487 903.188C345.556 902.493 345.091 901.499 345.091 900.204ZM347.846 900.039C347.846 900.758 348.104 901.309 348.62 901.689C349.136 902.062 349.957 902.248 351.083 902.248C352.234 902.248 353.258 901.956 354.155 901.372C355.052 900.78 355.501 900.107 355.501 899.354V897.817H351.972C350.6 897.817 349.568 898.008 348.874 898.389C348.188 898.761 347.846 899.311 347.846 900.039ZM370.91 895.101V894.377C370.91 891.355 371.765 889.062 373.474 887.496C375.184 885.93 377.368 885.147 380.025 885.147C382.683 885.147 384.87 885.93 386.589 887.496C388.307 889.062 389.166 891.355 389.166 894.377V895.101C389.166 898.139 388.307 900.445 386.589 902.02C384.87 903.585 382.683 904.368 380.025 904.368C377.368 904.368 375.184 903.585 373.474 902.02C371.765 900.445 370.91 898.139 370.91 895.101ZM373.804 895.24C373.804 897.508 374.376 899.218 375.518 900.369C376.669 901.52 378.176 902.096 380.038 902.096C381.891 902.096 383.389 901.52 384.532 900.369C385.683 899.218 386.259 897.508 386.259 895.24V894.25C386.259 891.99 385.687 890.289 384.545 889.146C383.402 888.004 381.9 887.433 380.038 887.433C378.167 887.433 376.661 888.004 375.518 889.146C374.376 890.289 373.804 891.99 373.804 894.25V895.24ZM394.128 904V885.516H401.542C403.709 885.516 405.38 886.007 406.557 886.988C407.733 887.962 408.321 889.316 408.321 891.051C408.321 892.777 407.725 894.144 406.531 895.151C405.347 896.159 403.683 896.666 401.542 896.675H396.985V904H394.128ZM396.972 894.517H401.428C402.909 894.517 403.95 894.199 404.551 893.564C405.16 892.93 405.469 892.104 405.478 891.089C405.478 890.056 405.173 889.24 404.564 888.639C403.954 888.029 402.909 887.725 401.428 887.725H396.972V894.517ZM406.176 904L401.212 895.532L404.119 895.24L409.426 904H406.176ZM413.436 904V885.516H416.965L423.415 899.379C423.542 899.65 423.656 899.908 423.757 900.153C423.859 900.399 423.944 900.627 424.011 900.839H424.087C424.155 900.627 424.236 900.399 424.329 900.153C424.43 899.899 424.54 899.641 424.659 899.379L431.146 885.516H434.713V904H431.921L431.933 890.708C431.933 890.454 431.937 890.183 431.946 889.896C431.963 889.599 431.984 889.328 432.009 889.083H431.908C431.857 889.328 431.781 889.599 431.679 889.896C431.578 890.192 431.476 890.463 431.375 890.708L425.192 904H422.716L416.546 890.721C416.436 890.467 416.331 890.192 416.229 889.896C416.128 889.591 416.051 889.32 416.001 889.083H415.899C415.924 889.32 415.946 889.591 415.962 889.896C415.979 890.192 415.988 890.467 415.988 890.721L416.001 904H413.436Z" fill="#04101C"/>
<path d="M175.295 944V942.121L182.925 934.897C183.737 934.11 184.419 933.344 184.969 932.6C185.519 931.855 185.794 931.089 185.794 930.302C185.794 929.447 185.477 928.749 184.842 928.207C184.215 927.665 183.318 927.395 182.15 927.395C180.923 927.395 179.946 927.703 179.218 928.321C178.49 928.931 178.126 929.794 178.126 930.911V931.152H175.282V930.873C175.282 929.206 175.909 927.839 177.161 926.772C178.422 925.698 180.085 925.16 182.15 925.16C184.182 925.16 185.773 925.643 186.924 926.607C188.083 927.572 188.663 928.753 188.663 930.149C188.663 931.377 188.303 932.468 187.584 933.425C186.873 934.381 185.963 935.384 184.854 936.434L179.205 941.753H189.184V944H175.295ZM192.927 936.967V932.498C192.927 930.23 193.537 928.44 194.755 927.128C195.983 925.816 197.705 925.16 199.922 925.16C202.14 925.16 203.862 925.816 205.089 927.128C206.325 928.431 206.943 930.221 206.943 932.498V936.967C206.943 939.277 206.325 941.089 205.089 942.4C203.854 943.704 202.131 944.355 199.922 944.355C197.688 944.355 195.961 943.695 194.743 942.375C193.532 941.055 192.927 939.252 192.927 936.967ZM195.809 937.183C195.809 938.723 196.143 939.933 196.812 940.813C197.481 941.694 198.517 942.134 199.922 942.134C201.336 942.134 202.377 941.694 203.045 940.813C203.722 939.933 204.061 938.727 204.061 937.195V932.295C204.061 930.788 203.722 929.599 203.045 928.728C202.368 927.847 201.327 927.407 199.922 927.407C198.526 927.407 197.489 927.847 196.812 928.728C196.143 929.599 195.809 930.788 195.809 932.295V937.183ZM217.237 944V928.283L211.74 930.327V927.775L218.888 925.3H220.094V944H217.237ZM237.751 944V939.011L237.777 938.49V929.324H237.637L231.175 937.551H238.386L239.262 937.5H243.172V939.785H228.052V937.843L237.878 925.516H240.468V944H237.751Z" fill="#5D5FEF"/>
<line x1="157.5" y1="959.002" x2="156.5" y2="685.002" stroke="#AFB6B3"/>
<path d="M779.12 273V254.516H794.608V273H791.765V256.788H781.977V273H779.12ZM799.241 269.204C799.241 267.867 799.808 266.839 800.942 266.119C802.076 265.4 803.646 265.044 805.652 265.053H809.651V264.101C809.651 263.322 809.393 262.734 808.876 262.336C808.36 261.938 807.493 261.739 806.274 261.739C805.114 261.739 804.251 261.913 803.684 262.26C803.125 262.607 802.846 263.068 802.846 263.644V263.809H800.155V263.618C800.155 262.45 800.705 261.511 801.805 260.8C802.914 260.089 804.442 259.733 806.388 259.733C808.335 259.733 809.824 260.102 810.857 260.838C811.889 261.566 812.406 262.679 812.406 264.177V269.991C812.406 270.541 812.452 271.058 812.545 271.54C812.638 272.022 812.774 272.441 812.952 272.797V273H810.273C810.146 272.788 810.027 272.522 809.917 272.2C809.816 271.87 809.752 271.527 809.727 271.172C809.372 271.722 808.745 272.204 807.848 272.619C806.951 273.025 805.808 273.229 804.42 273.229C802.829 273.229 801.568 272.882 800.637 272.188C799.706 271.493 799.241 270.499 799.241 269.204ZM801.996 269.039C801.996 269.758 802.254 270.309 802.77 270.689C803.286 271.062 804.107 271.248 805.233 271.248C806.384 271.248 807.408 270.956 808.305 270.372C809.202 269.78 809.651 269.107 809.651 268.354V266.817H806.122C804.75 266.817 803.718 267.008 803.024 267.389C802.338 267.761 801.996 268.311 801.996 269.039ZM817.609 260.102H820.364V265.37H827.537V260.102H830.292V273H827.537V267.478H820.364V273H817.609V260.102ZM847.226 276.402V273H836.346V276.402H833.794V270.88H849.778V276.402H847.226ZM838.923 262.222L838.72 266.5C838.669 267.651 838.58 268.586 838.453 269.306C838.326 270.025 838.157 270.63 837.946 271.121H835.191C835.462 270.723 835.69 270.135 835.876 269.356C836.062 268.578 836.189 267.482 836.257 266.068L836.536 260.102H847.734V272.962H844.979V262.222H838.923ZM852.569 266.716V266.36C852.569 264.388 853.229 262.793 854.55 261.574C855.87 260.347 857.609 259.733 859.767 259.733C861.917 259.733 863.576 260.309 864.744 261.46C865.92 262.603 866.509 264.16 866.509 266.132V267.147H854.207V265.243H863.779V265.167C863.779 264.211 863.47 263.419 862.852 262.793C862.234 262.167 861.206 261.854 859.767 261.854C858.286 261.854 857.169 262.264 856.416 263.085C855.671 263.897 855.299 264.96 855.299 266.271V266.779C855.299 268.108 855.692 269.183 856.479 270.004C857.266 270.816 858.464 271.223 860.072 271.223C861.13 271.223 862.019 271.045 862.738 270.689C863.466 270.334 864.041 269.907 864.465 269.407L866.344 270.728C865.87 271.422 865.104 272.035 864.046 272.568C862.988 273.102 861.667 273.368 860.085 273.368C857.706 273.368 855.857 272.759 854.537 271.54C853.225 270.313 852.569 268.705 852.569 266.716ZM870.633 273V260.102H874.327L878.479 268.366C878.707 268.84 878.86 269.183 878.936 269.395C879.02 269.598 879.088 269.801 879.139 270.004H879.24C879.3 269.801 879.367 269.598 879.444 269.395C879.528 269.191 879.685 268.849 879.913 268.366L884.052 260.102H887.696V273H884.966V264.685C884.966 264.202 884.974 263.838 884.991 263.593C885.008 263.339 885.029 263.106 885.055 262.895H884.966C884.915 263.081 884.852 263.284 884.776 263.504C884.699 263.715 884.564 264.029 884.369 264.443L880.116 273H877.933L873.667 264.431C873.523 264.118 873.405 263.83 873.312 263.567C873.219 263.305 873.151 263.081 873.109 262.895H873.007C873.024 263.081 873.041 263.301 873.058 263.555C873.075 263.809 873.083 264.168 873.083 264.634V273H870.633ZM892.886 273V260.102H895.629V268.125C895.629 268.396 895.624 268.671 895.616 268.95C895.607 269.221 895.595 269.492 895.578 269.763H895.667C895.802 269.517 895.933 269.289 896.06 269.077C896.187 268.857 896.352 268.607 896.555 268.328L902.928 260.102H905.721V273H902.966V264.964C902.966 264.701 902.971 264.431 902.979 264.151C902.988 263.872 903 263.597 903.017 263.326H902.928C902.801 263.563 902.674 263.792 902.548 264.012C902.421 264.232 902.251 264.481 902.04 264.761L895.667 273H892.886ZM913.032 273H910.011L914.226 267.554L917.057 267.744L913.032 273ZM920.066 273V268.392H916.003L915.533 268.265C913.883 268.265 912.622 267.901 911.75 267.173C910.887 266.445 910.455 265.459 910.455 264.215C910.455 262.971 910.887 261.976 911.75 261.231C912.622 260.478 913.879 260.102 915.521 260.102H922.846V273H920.066ZM915.825 266.411H920.066V262.069H915.825C914.869 262.069 914.196 262.277 913.807 262.691C913.417 263.098 913.223 263.614 913.223 264.24C913.223 264.883 913.413 265.408 913.794 265.814C914.183 266.212 914.86 266.411 915.825 266.411Z" fill="#04101C"/>
<path d="M778.295 313V311.121L785.925 303.897C786.737 303.11 787.419 302.344 787.969 301.6C788.519 300.855 788.794 300.089 788.794 299.302C788.794 298.447 788.477 297.749 787.842 297.207C787.215 296.665 786.318 296.395 785.15 296.395C783.923 296.395 782.946 296.703 782.218 297.321C781.49 297.931 781.126 298.794 781.126 299.911V300.152H778.282V299.873C778.282 298.206 778.909 296.839 780.161 295.772C781.422 294.698 783.085 294.16 785.15 294.16C787.182 294.16 788.773 294.643 789.924 295.607C791.083 296.572 791.663 297.753 791.663 299.149C791.663 300.377 791.303 301.468 790.584 302.425C789.873 303.381 788.963 304.384 787.854 305.434L782.205 310.753H792.184V313H778.295ZM795.927 305.967V301.498C795.927 299.23 796.537 297.44 797.755 296.128C798.983 294.816 800.705 294.16 802.922 294.16C805.14 294.16 806.862 294.816 808.089 296.128C809.325 297.431 809.943 299.221 809.943 301.498V305.967C809.943 308.277 809.325 310.089 808.089 311.4C806.854 312.704 805.131 313.355 802.922 313.355C800.688 313.355 798.961 312.695 797.743 311.375C796.532 310.055 795.927 308.252 795.927 305.967ZM798.809 306.183C798.809 307.723 799.143 308.933 799.812 309.813C800.481 310.694 801.517 311.134 802.922 311.134C804.336 311.134 805.377 310.694 806.045 309.813C806.722 308.933 807.061 307.727 807.061 306.195V301.295C807.061 299.788 806.722 298.599 806.045 297.728C805.368 296.847 804.327 296.407 802.922 296.407C801.526 296.407 800.489 296.847 799.812 297.728C799.143 298.599 798.809 299.788 798.809 301.295V306.183ZM820.237 313V297.283L814.74 299.327V296.775L821.888 294.3H823.094V313H820.237ZM831.281 300.381C831.281 298.527 831.928 297.029 833.223 295.887C834.518 294.744 836.215 294.173 838.314 294.173C840.396 294.173 842.139 294.816 843.544 296.103C844.958 297.381 845.664 299.441 845.664 302.285V302.717C845.664 305.924 844.661 308.48 842.656 310.385C840.65 312.281 837.81 313.237 834.137 313.254H833.756V310.981H834.112C836.828 310.981 838.965 310.321 840.523 309.001C842.089 307.681 842.871 305.577 842.871 302.691L842.859 302.171C842.859 300.063 842.436 298.574 841.589 297.702C840.751 296.822 839.655 296.382 838.301 296.382C836.981 296.382 835.952 296.72 835.216 297.397C834.48 298.066 834.112 299.061 834.112 300.381C834.112 301.65 834.48 302.619 835.216 303.288C835.952 303.948 836.977 304.278 838.288 304.278C839.533 304.278 840.607 303.936 841.513 303.25C842.427 302.564 842.888 301.612 842.897 300.394L843.951 300.419C843.951 302.179 843.362 303.614 842.186 304.723C841.009 305.831 839.469 306.386 837.565 306.386C835.644 306.386 834.116 305.84 832.982 304.748C831.848 303.648 831.281 302.192 831.281 300.381Z" fill="#5D5FEF"/>
<line x1="760.5" y1="542" x2="760.5" y2="244" stroke="#AFB6B3"/>
<path d="M1179.12 596V577.516H1181.96V585.311H1192.42V577.516H1195.27V596H1192.42V587.608H1181.96V596H1179.12ZM1199.42 592.204C1199.42 590.867 1199.99 589.839 1201.12 589.119C1202.25 588.4 1203.82 588.044 1205.83 588.053H1209.83V587.101C1209.83 586.322 1209.57 585.734 1209.05 585.336C1208.54 584.938 1207.67 584.739 1206.45 584.739C1205.29 584.739 1204.43 584.913 1203.86 585.26C1203.3 585.607 1203.02 586.068 1203.02 586.644V586.809H1200.33V586.618C1200.33 585.45 1200.88 584.511 1201.98 583.8C1203.09 583.089 1204.62 582.733 1206.57 582.733C1208.51 582.733 1210 583.102 1211.03 583.838C1212.07 584.566 1212.58 585.679 1212.58 587.177V592.991C1212.58 593.541 1212.63 594.058 1212.72 594.54C1212.82 595.022 1212.95 595.441 1213.13 595.797V596H1210.45C1210.32 595.788 1210.21 595.522 1210.1 595.2C1209.99 594.87 1209.93 594.527 1209.9 594.172C1209.55 594.722 1208.92 595.204 1208.03 595.619C1207.13 596.025 1205.99 596.229 1204.6 596.229C1203.01 596.229 1201.75 595.882 1200.81 595.188C1199.88 594.493 1199.42 593.499 1199.42 592.204ZM1202.17 592.039C1202.17 592.758 1202.43 593.309 1202.95 593.689C1203.46 594.062 1204.28 594.248 1205.41 594.248C1206.56 594.248 1207.59 593.956 1208.48 593.372C1209.38 592.78 1209.83 592.107 1209.83 591.354V589.817H1206.3C1204.93 589.817 1203.9 590.008 1203.2 590.389C1202.52 590.761 1202.17 591.311 1202.17 592.039ZM1217.81 596V583.102H1221.51L1225.66 591.366C1225.89 591.84 1226.04 592.183 1226.12 592.395C1226.2 592.598 1226.27 592.801 1226.32 593.004H1226.42C1226.48 592.801 1226.55 592.598 1226.62 592.395C1226.71 592.191 1226.86 591.849 1227.09 591.366L1231.23 583.102H1234.87V596H1232.15V587.685C1232.15 587.202 1232.15 586.838 1232.17 586.593C1232.19 586.339 1232.21 586.106 1232.23 585.895H1232.15C1232.09 586.081 1232.03 586.284 1231.95 586.504C1231.88 586.715 1231.74 587.029 1231.55 587.443L1227.3 596H1225.11L1220.85 587.431C1220.7 587.118 1220.58 586.83 1220.49 586.567C1220.4 586.305 1220.33 586.081 1220.29 585.895H1220.19C1220.2 586.081 1220.22 586.301 1220.24 586.555C1220.25 586.809 1220.26 587.168 1220.26 587.634V596H1217.81ZM1253.85 596V580.283L1248.35 582.327V579.775L1255.5 577.3H1256.71V596H1253.85ZM1265.16 588.967V584.498C1265.16 582.23 1265.77 580.44 1266.99 579.128C1268.22 577.816 1269.94 577.16 1272.16 577.16C1274.37 577.16 1276.1 577.816 1277.32 579.128C1278.56 580.431 1279.18 582.221 1279.18 584.498V588.967C1279.18 591.277 1278.56 593.089 1277.32 594.4C1276.09 595.704 1274.37 596.355 1272.16 596.355C1269.92 596.355 1268.2 595.695 1266.98 594.375C1265.77 593.055 1265.16 591.252 1265.16 588.967ZM1268.04 589.183C1268.04 590.723 1268.38 591.933 1269.05 592.813C1269.71 593.694 1270.75 594.134 1272.16 594.134C1273.57 594.134 1274.61 593.694 1275.28 592.813C1275.96 591.933 1276.3 590.727 1276.3 589.195V584.295C1276.3 582.788 1275.96 581.599 1275.28 580.728C1274.6 579.847 1273.56 579.407 1272.16 579.407C1270.76 579.407 1269.72 579.847 1269.05 580.728C1268.38 581.599 1268.04 582.788 1268.04 584.295V589.183ZM1295.44 585.234L1295.2 590.186C1295.1 592.361 1294.78 593.922 1294.24 594.87C1293.71 595.81 1292.8 596.279 1291.5 596.279C1291.2 596.279 1290.92 596.262 1290.66 596.229C1290.42 596.195 1290.22 596.144 1290.07 596.076V593.804C1290.2 593.863 1290.34 593.905 1290.49 593.931C1290.63 593.948 1290.81 593.956 1291.02 593.956C1291.61 593.956 1292.03 593.664 1292.26 593.08C1292.51 592.488 1292.66 591.417 1292.72 589.868L1293.04 583.102H1303.99V596H1301.24V585.234H1295.44ZM1308.37 589.716V589.36C1308.37 587.388 1309.03 585.793 1310.35 584.574C1311.67 583.347 1313.41 582.733 1315.57 582.733C1317.72 582.733 1319.38 583.309 1320.55 584.46C1321.72 585.603 1322.31 587.16 1322.31 589.132V590.147H1310.01V588.243H1319.58V588.167C1319.58 587.211 1319.27 586.419 1318.65 585.793C1318.04 585.167 1317.01 584.854 1315.57 584.854C1314.09 584.854 1312.97 585.264 1312.22 586.085C1311.47 586.897 1311.1 587.96 1311.1 589.271V589.779C1311.1 591.108 1311.49 592.183 1312.28 593.004C1313.07 593.816 1314.27 594.223 1315.87 594.223C1316.93 594.223 1317.82 594.045 1318.54 593.689C1319.27 593.334 1319.84 592.907 1320.27 592.407L1322.15 593.728C1321.67 594.422 1320.91 595.035 1319.85 595.568C1318.79 596.102 1317.47 596.368 1315.89 596.368C1313.51 596.368 1311.66 595.759 1310.34 594.54C1309.03 593.313 1308.37 591.705 1308.37 589.716ZM1324.98 585.234V583.102H1337.87V585.234H1332.81V596H1330.05V585.234H1324.98Z" fill="#04101C"/>
<path d="M1178.29 636V634.121L1185.92 626.897C1186.74 626.11 1187.42 625.344 1187.97 624.6C1188.52 623.855 1188.79 623.089 1188.79 622.302C1188.79 621.447 1188.48 620.749 1187.84 620.207C1187.22 619.665 1186.32 619.395 1185.15 619.395C1183.92 619.395 1182.95 619.703 1182.22 620.321C1181.49 620.931 1181.13 621.794 1181.13 622.911V623.152H1178.28V622.873C1178.28 621.206 1178.91 619.839 1180.16 618.772C1181.42 617.698 1183.09 617.16 1185.15 617.16C1187.18 617.16 1188.77 617.643 1189.92 618.607C1191.08 619.572 1191.66 620.753 1191.66 622.149C1191.66 623.377 1191.3 624.468 1190.58 625.425C1189.87 626.381 1188.96 627.384 1187.85 628.434L1182.21 633.753H1192.18V636H1178.29ZM1195.93 628.967V624.498C1195.93 622.23 1196.54 620.44 1197.76 619.128C1198.98 617.816 1200.7 617.16 1202.92 617.16C1205.14 617.16 1206.86 617.816 1208.09 619.128C1209.32 620.431 1209.94 622.221 1209.94 624.498V628.967C1209.94 631.277 1209.32 633.089 1208.09 634.4C1206.85 635.704 1205.13 636.355 1202.92 636.355C1200.69 636.355 1198.96 635.695 1197.74 634.375C1196.53 633.055 1195.93 631.252 1195.93 628.967ZM1198.81 629.183C1198.81 630.723 1199.14 631.933 1199.81 632.813C1200.48 633.694 1201.52 634.134 1202.92 634.134C1204.34 634.134 1205.38 633.694 1206.05 632.813C1206.72 631.933 1207.06 630.727 1207.06 629.195V624.295C1207.06 622.788 1206.72 621.599 1206.05 620.728C1205.37 619.847 1204.33 619.407 1202.92 619.407C1201.53 619.407 1200.49 619.847 1199.81 620.728C1199.14 621.599 1198.81 622.788 1198.81 624.295V629.183ZM1213.91 636V634.121L1221.54 626.897C1222.36 626.11 1223.04 625.344 1223.59 624.6C1224.14 623.855 1224.41 623.089 1224.41 622.302C1224.41 621.447 1224.1 620.749 1223.46 620.207C1222.84 619.665 1221.94 619.395 1220.77 619.395C1219.54 619.395 1218.57 619.703 1217.84 620.321C1217.11 620.931 1216.75 621.794 1216.75 622.911V623.152H1213.9V622.873C1213.9 621.206 1214.53 619.839 1215.78 618.772C1217.04 617.698 1218.71 617.16 1220.77 617.16C1222.8 617.16 1224.39 617.643 1225.54 618.607C1226.7 619.572 1227.28 620.753 1227.28 622.149C1227.28 623.377 1226.92 624.468 1226.2 625.425C1225.49 626.381 1224.58 627.384 1223.47 628.434L1217.83 633.753H1227.8V636H1213.91ZM1231.34 631.074V630.808H1234.14V631.062C1234.14 632.06 1234.51 632.826 1235.27 633.359C1236.03 633.893 1237.05 634.159 1238.33 634.159C1239.6 634.159 1240.62 633.893 1241.37 633.359C1242.13 632.818 1242.5 631.967 1242.5 630.808C1242.5 629.674 1242.08 628.827 1241.23 628.269C1240.39 627.71 1239.24 627.431 1237.79 627.431H1235.94V625.336H1237.67C1238.93 625.336 1239.93 625.078 1240.69 624.562C1241.44 624.037 1241.82 623.258 1241.82 622.226C1241.82 621.278 1241.5 620.567 1240.88 620.093C1240.25 619.61 1239.39 619.369 1238.3 619.369C1237.19 619.369 1236.31 619.61 1235.65 620.093C1234.99 620.575 1234.66 621.273 1234.66 622.188V622.391H1231.86V622.175C1231.86 620.728 1232.46 619.53 1233.64 618.582C1234.84 617.634 1236.4 617.16 1238.34 617.16C1240.29 617.16 1241.83 617.609 1242.96 618.506C1244.1 619.403 1244.67 620.562 1244.67 621.984C1244.67 622.958 1244.4 623.821 1243.85 624.574C1243.31 625.327 1242.49 625.89 1241.4 626.263V626.313C1242.58 626.559 1243.54 627.075 1244.28 627.862C1245.03 628.649 1245.4 629.652 1245.4 630.871C1245.4 632.564 1244.75 633.901 1243.46 634.883C1242.16 635.865 1240.45 636.355 1238.33 636.355C1236.19 636.355 1234.5 635.869 1233.24 634.896C1231.97 633.922 1231.34 632.648 1231.34 631.074Z" fill="#5D5FEF"/>
<line x1="1160.5" y1="647" x2="1160.5" y2="378" stroke="#AFB6B3"/>
<path d="M1018.12 241V222.516H1021.65L1028.1 236.379C1028.23 236.65 1028.34 236.908 1028.44 237.153C1028.54 237.399 1028.63 237.627 1028.7 237.839H1028.77C1028.84 237.627 1028.92 237.399 1029.01 237.153C1029.11 236.899 1029.22 236.641 1029.34 236.379L1035.83 222.516H1039.4V241H1036.6L1036.62 227.708C1036.62 227.454 1036.62 227.183 1036.63 226.896C1036.65 226.599 1036.67 226.328 1036.69 226.083H1036.59C1036.54 226.328 1036.46 226.599 1036.36 226.896C1036.26 227.192 1036.16 227.463 1036.06 227.708L1029.88 241H1027.4L1021.23 227.721C1021.12 227.467 1021.01 227.192 1020.91 226.896C1020.81 226.591 1020.74 226.32 1020.68 226.083H1020.58C1020.61 226.32 1020.63 226.591 1020.65 226.896C1020.66 227.192 1020.67 227.467 1020.67 227.721L1020.68 241H1018.12ZM1044.26 241V228.102H1047V236.125C1047 236.396 1047 236.671 1046.99 236.95C1046.98 237.221 1046.97 237.492 1046.95 237.763H1047.04C1047.17 237.517 1047.31 237.289 1047.43 237.077C1047.56 236.857 1047.72 236.607 1047.93 236.328L1054.3 228.102H1057.09V241H1054.34V232.964C1054.34 232.701 1054.34 232.431 1054.35 232.151C1054.36 231.872 1054.37 231.597 1054.39 231.326H1054.3C1054.17 231.563 1054.05 231.792 1053.92 232.012C1053.79 232.232 1053.62 232.481 1053.41 232.761L1047.04 241H1044.26ZM1062.27 246.307V228.102H1064.84L1064.92 229.892H1064.95C1065.36 229.325 1065.99 228.838 1066.85 228.432C1067.73 228.025 1068.74 227.822 1069.9 227.822C1071.87 227.822 1073.44 228.423 1074.61 229.625C1075.79 230.827 1076.38 232.401 1076.38 234.348V234.716C1076.38 236.679 1075.79 238.266 1074.61 239.477C1073.44 240.678 1071.89 241.279 1069.94 241.279C1068.78 241.279 1067.79 241.102 1066.96 240.746C1066.13 240.382 1065.48 239.929 1065.03 239.388L1065.01 246.307H1062.27ZM1065.01 236.887C1065.31 237.462 1065.82 237.979 1066.55 238.436C1067.28 238.893 1068.16 239.121 1069.2 239.121C1070.71 239.121 1071.81 238.723 1072.52 237.928C1073.22 237.132 1073.57 236.078 1073.57 234.767V234.297C1073.57 233.002 1073.22 231.961 1072.52 231.174C1071.81 230.387 1070.71 229.993 1069.2 229.993C1068.17 229.993 1067.29 230.217 1066.56 230.666C1065.84 231.106 1065.33 231.614 1065.01 232.189V236.887ZM1088.73 241V228.102H1096.43C1097.95 228.102 1099.11 228.381 1099.88 228.939C1100.66 229.498 1101.05 230.336 1101.05 231.453C1101.05 232.206 1100.84 232.824 1100.42 233.307C1100 233.789 1099.43 234.128 1098.7 234.322V234.36C1099.55 234.504 1100.23 234.83 1100.75 235.338C1101.26 235.846 1101.52 236.523 1101.52 237.369C1101.52 238.512 1101.11 239.405 1100.29 240.048C1099.47 240.683 1098.31 241 1096.81 241H1088.73ZM1091.45 233.497H1096.14C1096.9 233.497 1097.45 233.34 1097.79 233.027C1098.13 232.706 1098.3 232.257 1098.3 231.682C1098.3 231.148 1098.13 230.742 1097.79 230.463C1097.45 230.175 1096.9 230.031 1096.14 230.031H1091.45V233.497ZM1091.45 239.07H1096.48C1097.26 239.07 1097.84 238.905 1098.21 238.575C1098.58 238.245 1098.77 237.792 1098.77 237.217C1098.77 236.65 1098.59 236.201 1098.22 235.871C1097.86 235.533 1097.28 235.363 1096.48 235.363H1091.45V239.07ZM1105.27 234.716V234.348C1105.27 232.359 1105.92 230.759 1107.22 229.549C1108.53 228.33 1110.32 227.721 1112.58 227.721C1114.68 227.721 1116.28 228.182 1117.38 229.104C1118.49 230.019 1119.06 231.115 1119.1 232.393V232.545H1116.36V232.418C1116.34 231.665 1116.03 231.055 1115.42 230.59C1114.82 230.116 1113.87 229.879 1112.58 229.879C1111.06 229.879 1109.93 230.285 1109.19 231.098C1108.45 231.902 1108.08 232.968 1108.08 234.297V234.792C1108.08 236.121 1108.45 237.196 1109.18 238.017C1109.91 238.829 1111.05 239.235 1112.58 239.235C1113.89 239.235 1114.85 238.998 1115.46 238.524C1116.07 238.042 1116.38 237.42 1116.39 236.658V236.544H1119.1V236.684C1119.09 237.962 1118.52 239.062 1117.4 239.984C1116.29 240.907 1114.68 241.368 1112.58 241.368C1110.32 241.368 1108.53 240.763 1107.22 239.553C1105.92 238.342 1105.27 236.73 1105.27 234.716ZM1121.64 230.234V228.102H1134.54V230.234H1129.47V241H1126.72V230.234H1121.64ZM1138.3 246.307V228.102H1140.86L1140.95 229.892H1140.97C1141.38 229.325 1142.02 228.838 1142.88 228.432C1143.75 228.025 1144.77 227.822 1145.93 227.822C1147.9 227.822 1149.47 228.423 1150.64 229.625C1151.81 230.827 1152.4 232.401 1152.4 234.348V234.716C1152.4 236.679 1151.81 238.266 1150.64 239.477C1149.47 240.678 1147.91 241.279 1145.96 241.279C1144.8 241.279 1143.81 241.102 1142.98 240.746C1142.15 240.382 1141.51 239.929 1141.05 239.388L1141.04 246.307H1138.3ZM1141.04 236.887C1141.33 237.462 1141.85 237.979 1142.57 238.436C1143.3 238.893 1144.19 239.121 1145.23 239.121C1146.73 239.121 1147.84 238.723 1148.54 237.928C1149.24 237.132 1149.59 236.078 1149.59 234.767V234.297C1149.59 233.002 1149.24 231.961 1148.54 231.174C1147.84 230.387 1146.73 229.993 1145.23 229.993C1144.2 229.993 1143.31 230.217 1142.59 230.666C1141.87 231.106 1141.35 231.614 1141.04 232.189V236.887ZM1155.93 234.716V234.36C1155.93 232.388 1156.59 230.793 1157.91 229.574C1159.23 228.347 1160.97 227.733 1163.13 227.733C1165.28 227.733 1166.94 228.309 1168.1 229.46C1169.28 230.603 1169.87 232.16 1169.87 234.132V235.147H1157.57V233.243H1167.14V233.167C1167.14 232.211 1166.83 231.419 1166.21 230.793C1165.59 230.167 1164.57 229.854 1163.13 229.854C1161.65 229.854 1160.53 230.264 1159.77 231.085C1159.03 231.897 1158.66 232.96 1158.66 234.271V234.779C1158.66 236.108 1159.05 237.183 1159.84 238.004C1160.63 238.816 1161.82 239.223 1163.43 239.223C1164.49 239.223 1165.38 239.045 1166.1 238.689C1166.83 238.334 1167.4 237.907 1167.82 237.407L1169.7 238.728C1169.23 239.422 1168.46 240.035 1167.4 240.568C1166.35 241.102 1165.03 241.368 1163.44 241.368C1161.07 241.368 1159.22 240.759 1157.9 239.54C1156.58 238.313 1155.93 236.705 1155.93 234.716ZM1176.34 231.491C1176.34 232.49 1176.61 233.188 1177.15 233.586C1177.7 233.984 1178.58 234.183 1179.79 234.183C1180.71 234.183 1181.5 234.132 1182.18 234.03C1182.86 233.929 1183.56 233.776 1184.29 233.573V235.693C1183.59 235.871 1182.84 236.015 1182.05 236.125C1181.28 236.235 1180.34 236.29 1179.25 236.29C1177.34 236.29 1175.91 235.909 1174.98 235.147C1174.05 234.386 1173.59 233.201 1173.59 231.593V228.102H1176.34V231.491ZM1185.66 228.102V241H1182.92V228.102H1185.66ZM1190 237.204C1190 235.867 1190.57 234.839 1191.7 234.119C1192.83 233.4 1194.4 233.044 1196.41 233.053H1200.41V232.101C1200.41 231.322 1200.15 230.734 1199.64 230.336C1199.12 229.938 1198.25 229.739 1197.03 229.739C1195.87 229.739 1195.01 229.913 1194.44 230.26C1193.88 230.607 1193.6 231.068 1193.6 231.644V231.809H1190.91V231.618C1190.91 230.45 1191.46 229.511 1192.56 228.8C1193.67 228.089 1195.2 227.733 1197.15 227.733C1199.09 227.733 1200.58 228.102 1201.62 228.838C1202.65 229.566 1203.16 230.679 1203.16 232.177V237.991C1203.16 238.541 1203.21 239.058 1203.3 239.54C1203.4 240.022 1203.53 240.441 1203.71 240.797V241H1201.03C1200.9 240.788 1200.79 240.522 1200.68 240.2C1200.57 239.87 1200.51 239.527 1200.49 239.172C1200.13 239.722 1199.5 240.204 1198.61 240.619C1197.71 241.025 1196.57 241.229 1195.18 241.229C1193.59 241.229 1192.33 240.882 1191.4 240.188C1190.46 239.493 1190 238.499 1190 237.204ZM1192.75 237.039C1192.75 237.758 1193.01 238.309 1193.53 238.689C1194.04 239.062 1194.87 239.248 1195.99 239.248C1197.14 239.248 1198.17 238.956 1199.06 238.372C1199.96 237.78 1200.41 237.107 1200.41 236.354V234.817H1196.88C1195.51 234.817 1194.48 235.008 1193.78 235.389C1193.1 235.761 1192.75 236.311 1192.75 237.039ZM1208.37 241V228.102H1211.11V236.125C1211.11 236.396 1211.11 236.671 1211.1 236.95C1211.09 237.221 1211.08 237.492 1211.06 237.763H1211.15C1211.28 237.517 1211.41 237.289 1211.54 237.077C1211.67 236.857 1211.83 236.607 1212.04 236.328L1218.41 228.102H1221.2V241H1218.45V232.964C1218.45 232.701 1218.45 232.431 1218.46 232.151C1218.47 231.872 1218.48 231.597 1218.5 231.326H1218.41C1218.28 231.563 1218.16 231.792 1218.03 232.012C1217.9 232.232 1217.73 232.481 1217.52 232.761L1211.15 241H1208.37ZM1214.77 224.229C1215.37 224.229 1215.86 224.056 1216.25 223.709C1216.64 223.354 1216.98 222.791 1217.25 222.021L1219.2 223.049C1218.77 224.115 1218.18 224.894 1217.41 225.385C1216.65 225.876 1215.77 226.121 1214.77 226.121C1213.75 226.121 1212.86 225.876 1212.1 225.385C1211.35 224.894 1210.75 224.115 1210.32 223.049L1212.3 222.021C1212.58 222.799 1212.91 223.362 1213.29 223.709C1213.67 224.056 1214.17 224.229 1214.77 224.229Z" fill="#04101C"/>
<path d="M1017.29 281V279.121L1024.92 271.897C1025.74 271.11 1026.42 270.344 1026.97 269.6C1027.52 268.855 1027.79 268.089 1027.79 267.302C1027.79 266.447 1027.48 265.749 1026.84 265.207C1026.22 264.665 1025.32 264.395 1024.15 264.395C1022.92 264.395 1021.95 264.703 1021.22 265.321C1020.49 265.931 1020.13 266.794 1020.13 267.911V268.152H1017.28V267.873C1017.28 266.206 1017.91 264.839 1019.16 263.772C1020.42 262.698 1022.09 262.16 1024.15 262.16C1026.18 262.16 1027.77 262.643 1028.92 263.607C1030.08 264.572 1030.66 265.753 1030.66 267.149C1030.66 268.377 1030.3 269.468 1029.58 270.425C1028.87 271.381 1027.96 272.384 1026.85 273.434L1021.21 278.753H1031.18V281H1017.29ZM1034.93 273.967V269.498C1034.93 267.23 1035.54 265.44 1036.76 264.128C1037.98 262.816 1039.7 262.16 1041.92 262.16C1044.14 262.16 1045.86 262.816 1047.09 264.128C1048.32 265.431 1048.94 267.221 1048.94 269.498V273.967C1048.94 276.277 1048.32 278.089 1047.09 279.4C1045.85 280.704 1044.13 281.355 1041.92 281.355C1039.69 281.355 1037.96 280.695 1036.74 279.375C1035.53 278.055 1034.93 276.252 1034.93 273.967ZM1037.81 274.183C1037.81 275.723 1038.14 276.933 1038.81 277.813C1039.48 278.694 1040.52 279.134 1041.92 279.134C1043.34 279.134 1044.38 278.694 1045.05 277.813C1045.72 276.933 1046.06 275.727 1046.06 274.195V269.295C1046.06 267.788 1045.72 266.599 1045.05 265.728C1044.37 264.847 1043.33 264.407 1041.92 264.407C1040.53 264.407 1039.49 264.847 1038.81 265.728C1038.14 266.599 1037.81 267.788 1037.81 269.295V274.183ZM1052.91 281V279.121L1060.54 271.897C1061.36 271.11 1062.04 270.344 1062.59 269.6C1063.14 268.855 1063.41 268.089 1063.41 267.302C1063.41 266.447 1063.1 265.749 1062.46 265.207C1061.84 264.665 1060.94 264.395 1059.77 264.395C1058.54 264.395 1057.57 264.703 1056.84 265.321C1056.11 265.931 1055.75 266.794 1055.75 267.911V268.152H1052.9V267.873C1052.9 266.206 1053.53 264.839 1054.78 263.772C1056.04 262.698 1057.71 262.16 1059.77 262.16C1061.8 262.16 1063.39 262.643 1064.54 263.607C1065.7 264.572 1066.28 265.753 1066.28 267.149C1066.28 268.377 1065.92 269.468 1065.2 270.425C1064.49 271.381 1063.58 272.384 1062.47 273.434L1056.83 278.753H1066.8V281H1052.91ZM1070.72 281V279.121L1078.35 271.897C1079.17 271.11 1079.85 270.344 1080.4 269.6C1080.95 268.855 1081.22 268.089 1081.22 267.302C1081.22 266.447 1080.91 265.749 1080.27 265.207C1079.65 264.665 1078.75 264.395 1077.58 264.395C1076.35 264.395 1075.38 264.703 1074.65 265.321C1073.92 265.931 1073.56 266.794 1073.56 267.911V268.152H1070.71V267.873C1070.71 266.206 1071.34 264.839 1072.59 263.772C1073.85 262.698 1075.52 262.16 1077.58 262.16C1079.61 262.16 1081.2 262.643 1082.35 263.607C1083.51 264.572 1084.09 265.753 1084.09 267.149C1084.09 268.377 1083.73 269.468 1083.01 270.425C1082.3 271.381 1081.39 272.384 1080.28 273.434L1074.64 278.753H1084.61V281H1070.72Z" fill="#5D5FEF"/>
<line x1="999.5" y1="481" x2="999.5" y2="212" stroke="#AFB6B3"/>
<path d="M1242.24 88.6562V85H1227.75V88.6562H1225.15V82.7275H1244.84V88.6562H1242.24ZM1228.9 66.5156H1242.44V84.835H1239.61V68.7881H1231.36L1230.9 76.5576C1230.8 78.3604 1230.64 79.7695 1230.41 80.7852C1230.19 81.8008 1229.91 82.6344 1229.58 83.2861H1226.73C1227.18 82.5667 1227.53 81.6865 1227.78 80.6455C1228.04 79.6045 1228.22 78.2122 1228.33 76.4688L1228.9 66.5156ZM1248.56 85V72.1016H1256.27C1257.79 72.1016 1258.94 72.3809 1259.72 72.9395C1260.5 73.498 1260.89 74.3359 1260.89 75.4531C1260.89 76.2064 1260.68 76.8242 1260.25 77.3066C1259.84 77.7891 1259.27 78.1276 1258.54 78.3223V78.3604C1259.39 78.5042 1260.07 78.8301 1260.58 79.3379C1261.1 79.8457 1261.36 80.5228 1261.36 81.3691C1261.36 82.5117 1260.95 83.4046 1260.13 84.0479C1259.31 84.6826 1258.15 85 1256.65 85H1248.56ZM1251.29 77.4971H1255.98C1256.74 77.4971 1257.29 77.3405 1257.63 77.0273C1257.96 76.7057 1258.13 76.2572 1258.13 75.6816C1258.13 75.1484 1257.96 74.7422 1257.63 74.4629C1257.29 74.1751 1256.74 74.0312 1255.98 74.0312H1251.29V77.4971ZM1251.29 83.0703H1256.32C1257.1 83.0703 1257.67 82.9053 1258.04 82.5752C1258.42 82.2451 1258.6 81.7923 1258.6 81.2168C1258.6 80.6497 1258.42 80.2012 1258.06 79.8711C1257.69 79.5326 1257.11 79.3633 1256.32 79.3633H1251.29V83.0703ZM1265.94 85V72.1016H1268.68V80.125C1268.68 80.3958 1268.68 80.6709 1268.67 80.9502C1268.66 81.221 1268.65 81.4919 1268.63 81.7627H1268.72C1268.86 81.5173 1268.99 81.2887 1269.11 81.0771C1269.24 80.8571 1269.41 80.6074 1269.61 80.3281L1275.98 72.1016H1278.77V85H1276.02V76.9639C1276.02 76.7015 1276.02 76.4307 1276.03 76.1514C1276.04 75.8721 1276.05 75.597 1276.07 75.3262H1275.98C1275.85 75.5632 1275.73 75.7917 1275.6 76.0117C1275.47 76.2318 1275.3 76.4814 1275.09 76.7607L1268.72 85H1265.94ZM1283.95 72.1016H1294.22V74.2344H1286.71V85H1283.95V72.1016ZM1297.14 81.2041C1297.14 79.8669 1297.71 78.8385 1298.84 78.1191C1299.98 77.3997 1301.55 77.0443 1303.55 77.0527H1307.55V76.1006C1307.55 75.3219 1307.29 74.7337 1306.78 74.3359C1306.26 73.9382 1305.39 73.7393 1304.17 73.7393C1303.02 73.7393 1302.15 73.9128 1301.58 74.2598C1301.03 74.6068 1300.75 75.068 1300.75 75.6436V75.8086H1298.06V75.6182C1298.06 74.4502 1298.61 73.5107 1299.71 72.7998C1300.81 72.0889 1302.34 71.7334 1304.29 71.7334C1306.24 71.7334 1307.73 72.1016 1308.76 72.8379C1309.79 73.5658 1310.31 74.6787 1310.31 76.1768V81.9912C1310.31 82.5413 1310.35 83.0576 1310.45 83.54C1310.54 84.0225 1310.67 84.4414 1310.85 84.7969V85H1308.17C1308.05 84.7884 1307.93 84.5218 1307.82 84.2002C1307.72 83.8701 1307.65 83.5273 1307.63 83.1719C1307.27 83.722 1306.65 84.2044 1305.75 84.6191C1304.85 85.0254 1303.71 85.2285 1302.32 85.2285C1300.73 85.2285 1299.47 84.8815 1298.54 84.1875C1297.61 83.4935 1297.14 82.499 1297.14 81.2041ZM1299.9 81.0391C1299.9 81.7585 1300.15 82.3086 1300.67 82.6895C1301.19 83.0618 1302.01 83.248 1303.13 83.248C1304.28 83.248 1305.31 82.9561 1306.21 82.3721C1307.1 81.7796 1307.55 81.1068 1307.55 80.3535V78.8174H1304.02C1302.65 78.8174 1301.62 79.0078 1300.92 79.3887C1300.24 79.7611 1299.9 80.3112 1299.9 81.0391ZM1314.67 78.7158V78.3604C1314.67 76.3883 1315.33 74.793 1316.65 73.5742C1317.97 72.347 1319.71 71.7334 1321.87 71.7334C1324.02 71.7334 1325.68 72.3089 1326.85 73.46C1328.02 74.6025 1328.61 76.1598 1328.61 78.1318V79.1475H1316.31V77.2432H1325.88V77.167C1325.88 76.2106 1325.57 75.4193 1324.96 74.793C1324.34 74.1667 1323.31 73.8535 1321.87 73.8535C1320.39 73.8535 1319.27 74.264 1318.52 75.085C1317.77 75.8975 1317.4 76.9596 1317.4 78.2715V78.7793C1317.4 80.1081 1317.8 81.1829 1318.58 82.0039C1319.37 82.8164 1320.57 83.2227 1322.18 83.2227C1323.23 83.2227 1324.12 83.0449 1324.84 82.6895C1325.57 82.334 1326.14 81.9066 1326.57 81.4072L1328.45 82.7275C1327.97 83.4215 1327.21 84.0352 1326.15 84.5684C1325.09 85.1016 1323.77 85.3682 1322.19 85.3682C1319.81 85.3682 1317.96 84.7588 1316.64 83.54C1315.33 82.3128 1314.67 80.7048 1314.67 78.7158ZM1332.74 85V72.1016H1336.43L1340.58 80.3662C1340.81 80.8402 1340.96 81.1829 1341.04 81.3945C1341.12 81.5977 1341.19 81.8008 1341.24 82.0039H1341.34C1341.4 81.8008 1341.47 81.5977 1341.55 81.3945C1341.63 81.1914 1341.79 80.8486 1342.02 80.3662L1346.15 72.1016H1349.8V85H1347.07V76.6846C1347.07 76.2021 1347.08 75.8382 1347.09 75.5928C1347.11 75.3389 1347.13 75.1061 1347.16 74.8945H1347.07C1347.02 75.0807 1346.95 75.2839 1346.88 75.5039C1346.8 75.7155 1346.67 76.0286 1346.47 76.4434L1342.22 85H1340.04L1335.77 76.4307C1335.63 76.1175 1335.51 75.8298 1335.41 75.5674C1335.32 75.305 1335.25 75.0807 1335.21 74.8945H1335.11C1335.13 75.0807 1335.14 75.3008 1335.16 75.5547C1335.18 75.8086 1335.19 76.1683 1335.19 76.6338V85H1332.74ZM1354.15 78.7158V78.3477C1354.15 76.3587 1354.8 74.7591 1356.11 73.5488C1357.42 72.3301 1359.2 71.7207 1361.46 71.7207C1363.56 71.7207 1365.16 72.182 1366.26 73.1045C1367.37 74.0186 1367.95 75.1146 1367.99 76.3926V76.5449H1365.25V76.418C1365.23 75.6647 1364.92 75.0553 1364.31 74.5898C1363.71 74.1159 1362.76 73.8789 1361.46 73.8789C1359.95 73.8789 1358.82 74.2852 1358.07 75.0977C1357.34 75.9017 1356.97 76.9681 1356.97 78.2969V78.792C1356.97 80.1208 1357.33 81.1956 1358.06 82.0166C1358.8 82.8291 1359.93 83.2354 1361.46 83.2354C1362.78 83.2354 1363.74 82.9984 1364.35 82.5244C1364.96 82.042 1365.26 81.4199 1365.27 80.6582V80.5439H1367.99V80.6836C1367.97 81.9616 1367.41 83.0618 1366.29 83.9844C1365.17 84.9069 1363.56 85.3682 1361.46 85.3682C1359.2 85.3682 1357.42 84.763 1356.11 83.5527C1354.8 82.3424 1354.15 80.7301 1354.15 78.7158ZM1374.09 85H1371.07L1375.29 79.5537L1378.12 79.7441L1374.09 85ZM1381.13 85V80.3916H1377.06L1376.6 80.2646C1374.94 80.2646 1373.68 79.9007 1372.81 79.1729C1371.95 78.445 1371.52 77.459 1371.52 76.2148C1371.52 74.9707 1371.95 73.9762 1372.81 73.2314C1373.68 72.4782 1374.94 72.1016 1376.58 72.1016H1383.91V85H1381.13ZM1376.89 78.4111H1381.13V74.0693H1376.89C1375.93 74.0693 1375.26 74.2767 1374.87 74.6914C1374.48 75.0977 1374.28 75.6139 1374.28 76.2402C1374.28 76.8835 1374.48 77.4082 1374.86 77.8145C1375.25 78.2122 1375.92 78.4111 1376.89 78.4111ZM1238.55 128.402V125H1227.67V128.402H1225.11V122.88H1241.1V128.402H1238.55ZM1230.24 114.222L1230.04 118.5C1229.99 119.651 1229.9 120.586 1229.77 121.306C1229.65 122.025 1229.48 122.63 1229.27 123.121H1226.51C1226.78 122.723 1227.01 122.135 1227.2 121.356C1227.38 120.578 1227.51 119.482 1227.58 118.068L1227.86 112.102H1239.05V124.962H1236.3V114.222H1230.24ZM1243.86 121.204C1243.86 119.867 1244.43 118.839 1245.56 118.119C1246.7 117.4 1248.27 117.044 1250.27 117.053H1254.27V116.101C1254.27 115.322 1254.02 114.734 1253.5 114.336C1252.98 113.938 1252.12 113.739 1250.9 113.739C1249.74 113.739 1248.87 113.913 1248.31 114.26C1247.75 114.607 1247.47 115.068 1247.47 115.644V115.809H1244.78V115.618C1244.78 114.45 1245.33 113.511 1246.43 112.8C1247.54 112.089 1249.06 111.733 1251.01 111.733C1252.96 111.733 1254.45 112.102 1255.48 112.838C1256.51 113.566 1257.03 114.679 1257.03 116.177V121.991C1257.03 122.541 1257.08 123.058 1257.17 123.54C1257.26 124.022 1257.4 124.441 1257.57 124.797V125H1254.9C1254.77 124.788 1254.65 124.522 1254.54 124.2C1254.44 123.87 1254.38 123.527 1254.35 123.172C1253.99 123.722 1253.37 124.204 1252.47 124.619C1251.57 125.025 1250.43 125.229 1249.04 125.229C1247.45 125.229 1246.19 124.882 1245.26 124.188C1244.33 123.493 1243.86 122.499 1243.86 121.204ZM1246.62 121.039C1246.62 121.758 1246.88 122.309 1247.39 122.689C1247.91 123.062 1248.73 123.248 1249.86 123.248C1251.01 123.248 1252.03 122.956 1252.93 122.372C1253.83 121.78 1254.27 121.107 1254.27 120.354V118.817H1250.74C1249.37 118.817 1248.34 119.008 1247.65 119.389C1246.96 119.761 1246.62 120.311 1246.62 121.039ZM1266.02 114.234L1265.77 119.186C1265.68 121.361 1265.36 122.922 1264.82 123.87C1264.29 124.81 1263.37 125.279 1262.08 125.279C1261.78 125.279 1261.5 125.262 1261.24 125.229C1261 125.195 1260.8 125.144 1260.65 125.076V122.804C1260.78 122.863 1260.92 122.905 1261.06 122.931C1261.21 122.948 1261.39 122.956 1261.6 122.956C1262.19 122.956 1262.6 122.664 1262.84 122.08C1263.09 121.488 1263.24 120.417 1263.3 118.868L1263.62 112.102H1274.57V125H1271.82V114.234H1266.02ZM1282.54 112.102V116.367H1286.99C1288.62 116.367 1289.87 116.748 1290.73 117.51C1291.6 118.263 1292.04 119.321 1292.04 120.684C1292.04 122.021 1291.6 123.075 1290.73 123.845C1289.87 124.615 1288.62 125 1286.99 125H1279.79V112.102H1282.54ZM1286.71 118.386H1282.54V122.981H1286.71C1287.65 122.981 1288.31 122.774 1288.7 122.359C1289.09 121.936 1289.28 121.369 1289.28 120.658C1289.28 119.964 1289.09 119.414 1288.7 119.008C1288.31 118.593 1287.65 118.386 1286.71 118.386ZM1296.15 125V112.102H1298.91V122.88H1304.54V112.102H1307.3V122.88H1312.93V112.102H1315.69V125H1296.15ZM1320.03 118.716V118.36C1320.03 116.388 1320.69 114.793 1322.01 113.574C1323.33 112.347 1325.07 111.733 1327.23 111.733C1329.38 111.733 1331.04 112.309 1332.2 113.46C1333.38 114.603 1333.97 116.16 1333.97 118.132V119.147H1321.67V117.243H1331.24V117.167C1331.24 116.211 1330.93 115.419 1330.31 114.793C1329.69 114.167 1328.67 113.854 1327.23 113.854C1325.75 113.854 1324.63 114.264 1323.88 115.085C1323.13 115.897 1322.76 116.96 1322.76 118.271V118.779C1322.76 120.108 1323.15 121.183 1323.94 122.004C1324.73 122.816 1325.92 123.223 1327.53 123.223C1328.59 123.223 1329.48 123.045 1330.2 122.689C1330.93 122.334 1331.5 121.907 1331.93 121.407L1333.8 122.728C1333.33 123.422 1332.56 124.035 1331.51 124.568C1330.45 125.102 1329.13 125.368 1327.55 125.368C1325.17 125.368 1323.32 124.759 1322 123.54C1320.69 122.313 1320.03 120.705 1320.03 118.716Z" fill="#04101C"/>
<line x1="1398.5" y1="325" x2="1398.5" y2="56" stroke="#AFB6B3"/>
<path d="M645.12 801V782.516H652.598C654.857 782.516 656.58 783.023 657.765 784.039C658.95 785.055 659.542 786.477 659.542 788.305C659.542 790.09 658.95 791.508 657.765 792.558C656.588 793.599 654.866 794.119 652.598 794.119H647.977V801H645.12ZM647.977 791.91H652.407C653.99 791.91 655.099 791.58 655.733 790.92C656.377 790.251 656.698 789.384 656.698 788.317C656.698 787.234 656.377 786.371 655.733 785.728C655.099 785.076 653.99 784.75 652.407 784.75H647.977V791.91ZM662.27 794.716V794.36C662.27 792.38 662.947 790.78 664.301 789.562C665.664 788.334 667.467 787.721 669.709 787.721C671.961 787.721 673.763 788.334 675.118 789.562C676.472 790.78 677.149 792.38 677.149 794.36V794.716C677.149 796.713 676.472 798.321 675.118 799.54C673.763 800.759 671.961 801.368 669.709 801.368C667.467 801.368 665.664 800.759 664.301 799.54C662.947 798.321 662.27 796.713 662.27 794.716ZM665.088 794.31V794.792C665.088 796.104 665.478 797.17 666.256 797.991C667.043 798.804 668.194 799.21 669.709 799.21C671.224 799.21 672.371 798.804 673.15 797.991C673.937 797.17 674.331 796.1 674.331 794.779V794.31C674.331 792.998 673.937 791.936 673.15 791.123C672.371 790.311 671.224 789.904 669.709 789.904C668.203 789.904 667.056 790.311 666.269 791.123C665.482 791.936 665.088 792.998 665.088 794.31ZM680.664 794.716V794.348C680.664 792.359 681.316 790.759 682.619 789.549C683.931 788.33 685.717 787.721 687.976 787.721C690.075 787.721 691.675 788.182 692.775 789.104C693.884 790.019 694.46 791.115 694.502 792.393V792.545H691.76V792.418C691.743 791.665 691.43 791.055 690.82 790.59C690.219 790.116 689.271 789.879 687.976 789.879C686.461 789.879 685.332 790.285 684.587 791.098C683.85 791.902 683.482 792.968 683.482 794.297V794.792C683.482 796.121 683.846 797.196 684.574 798.017C685.31 798.829 686.445 799.235 687.976 799.235C689.288 799.235 690.249 798.998 690.858 798.524C691.468 798.042 691.777 797.42 691.785 796.658V796.544H694.502V796.684C694.485 797.962 693.918 799.062 692.801 799.984C691.683 800.907 690.075 801.368 687.976 801.368C685.717 801.368 683.931 800.763 682.619 799.553C681.316 798.342 680.664 796.73 680.664 794.716ZM697.039 790.234V788.102H709.938V790.234H704.872V801H702.118V790.234H697.039ZM721.678 788.102H734.272V801H731.517V790.234H724.433V801H721.678V788.102ZM738.231 806.256L738.244 804.098C738.523 804.174 738.824 804.233 739.145 804.275C739.467 804.318 739.776 804.339 740.072 804.339C740.842 804.339 741.485 804.132 742.002 803.717C742.518 803.311 743.068 802.384 743.652 800.937L743.576 800.924L737.66 788.102H740.478L744.236 796.569C744.38 796.891 744.503 797.191 744.604 797.471C744.706 797.742 744.799 798.025 744.883 798.321H744.947C745.04 798.025 745.137 797.742 745.239 797.471C745.34 797.191 745.459 796.891 745.594 796.569L749.314 788.102H751.98L745.429 802.6C744.828 803.895 744.109 804.872 743.271 805.532C742.442 806.192 741.443 806.522 740.275 806.522C739.86 806.522 739.492 806.497 739.171 806.446C738.849 806.404 738.536 806.34 738.231 806.256ZM757.336 794.563V794.919C757.336 796.188 757.721 797.221 758.491 798.017C759.27 798.812 760.429 799.21 761.97 799.21C763.51 799.21 764.665 798.812 765.436 798.017C766.214 797.213 766.604 796.18 766.604 794.919V794.563C766.604 793.319 766.219 792.304 765.448 791.517C764.678 790.721 763.523 790.323 761.982 790.323C760.434 790.323 759.27 790.721 758.491 791.517C757.721 792.304 757.336 793.319 757.336 794.563ZM762.668 788.165C764.75 788.165 766.396 788.753 767.607 789.93C768.817 791.106 769.422 792.646 769.422 794.551V794.932C769.422 796.87 768.741 798.427 767.378 799.604C766.024 800.78 764.225 801.368 761.982 801.368C759.672 801.368 757.848 800.784 756.511 799.616C755.174 798.44 754.505 796.514 754.505 793.84V792.812C754.505 789.815 755.072 787.501 756.206 785.867C757.34 784.225 759.312 783.243 762.122 782.922C763.933 782.719 764.996 782.541 765.309 782.389C765.622 782.236 765.795 782.033 765.829 781.779H768.279C768.212 782.803 767.827 783.578 767.124 784.103C766.43 784.619 765.025 784.983 762.909 785.194C760.641 785.414 759.071 786.015 758.199 786.997C757.328 787.97 756.845 789.303 756.752 790.996H756.892C757.349 790.116 758.068 789.426 759.05 788.927C760.04 788.419 761.246 788.165 762.668 788.165ZM777.571 790.234L777.33 795.186C777.237 797.361 776.919 798.922 776.377 799.87C775.844 800.81 774.93 801.279 773.635 801.279C773.331 801.279 773.051 801.262 772.797 801.229C772.552 801.195 772.353 801.144 772.201 801.076V798.804C772.336 798.863 772.476 798.905 772.62 798.931C772.764 798.948 772.941 798.956 773.153 798.956C773.745 798.956 774.16 798.664 774.397 798.08C774.642 797.488 774.795 796.417 774.854 794.868L775.171 788.102H786.127V801H783.373V790.234H777.571ZM791.344 801V788.102H794.086V796.125C794.086 796.396 794.082 796.671 794.073 796.95C794.065 797.221 794.052 797.492 794.035 797.763H794.124C794.259 797.517 794.391 797.289 794.518 797.077C794.644 796.857 794.81 796.607 795.013 796.328L801.386 788.102H804.179V801H801.424V792.964C801.424 792.701 801.428 792.431 801.436 792.151C801.445 791.872 801.458 791.597 801.475 791.326H801.386C801.259 791.563 801.132 791.792 801.005 792.012C800.878 792.232 800.709 792.481 800.497 792.761L794.124 801H791.344ZM811.731 791.491C811.731 792.49 812.002 793.188 812.543 793.586C813.093 793.984 813.974 794.183 815.184 794.183C816.098 794.183 816.894 794.132 817.571 794.03C818.248 793.929 818.95 793.776 819.678 793.573V795.693C818.976 795.871 818.231 796.015 817.444 796.125C816.665 796.235 815.73 796.29 814.638 796.29C812.725 796.29 811.303 795.909 810.372 795.147C809.441 794.386 808.976 793.201 808.976 791.593V788.102H811.731V791.491ZM821.049 788.102V801H818.307V788.102H821.049ZM826.253 788.102H829.008V793.37H836.181V788.102H838.935V801H836.181V795.478H829.008V801H826.253V788.102ZM843.301 794.716V794.36C843.301 792.38 843.978 790.78 845.332 789.562C846.695 788.334 848.498 787.721 850.741 787.721C852.992 787.721 854.795 788.334 856.149 789.562C857.503 790.78 858.18 792.38 858.18 794.36V794.716C858.18 796.713 857.503 798.321 856.149 799.54C854.795 800.759 852.992 801.368 850.741 801.368C848.498 801.368 846.695 800.759 845.332 799.54C843.978 798.321 843.301 796.713 843.301 794.716ZM846.119 794.31V794.792C846.119 796.104 846.509 797.17 847.287 797.991C848.074 798.804 849.226 799.21 850.741 799.21C852.255 799.21 853.402 798.804 854.181 797.991C854.968 797.17 855.362 796.1 855.362 794.779V794.31C855.362 792.998 854.968 791.936 854.181 791.123C853.402 790.311 852.255 789.904 850.741 789.904C849.234 789.904 848.087 790.311 847.3 791.123C846.513 791.936 846.119 792.998 846.119 794.31ZM861.695 794.716V794.348C861.695 792.359 862.347 790.759 863.65 789.549C864.962 788.33 866.748 787.721 869.008 787.721C871.106 787.721 872.706 788.182 873.806 789.104C874.915 790.019 875.491 791.115 875.533 792.393V792.545H872.791V792.418C872.774 791.665 872.461 791.055 871.851 790.59C871.25 790.116 870.302 789.879 869.008 789.879C867.493 789.879 866.363 790.285 865.618 791.098C864.882 791.902 864.513 792.968 864.513 794.297V794.792C864.513 796.121 864.877 797.196 865.605 798.017C866.342 798.829 867.476 799.235 869.008 799.235C870.319 799.235 871.28 798.998 871.889 798.524C872.499 798.042 872.808 797.42 872.816 796.658V796.544H875.533V796.684C875.516 797.962 874.949 799.062 873.832 799.984C872.715 800.907 871.106 801.368 869.008 801.368C866.748 801.368 864.962 800.763 863.65 799.553C862.347 798.342 861.695 796.73 861.695 794.716ZM878.07 790.234V788.102H890.969V790.234H885.903V801H883.149V790.234H878.07ZM894.725 801V788.102H897.467V796.125C897.467 796.396 897.463 796.671 897.455 796.95C897.446 797.221 897.434 797.492 897.417 797.763H897.505C897.641 797.517 897.772 797.289 897.899 797.077C898.026 796.857 898.191 796.607 898.394 796.328L904.767 788.102H907.56V801H904.805V792.964C904.805 792.701 904.809 792.431 904.818 792.151C904.826 791.872 904.839 791.597 904.856 791.326H904.767C904.64 791.563 904.513 791.792 904.386 792.012C904.259 792.232 904.09 792.481 903.879 792.761L897.505 801H894.725Z" fill="#04101C"/>
<path d="M644.295 841V839.121L651.925 831.897C652.737 831.11 653.419 830.344 653.969 829.6C654.519 828.855 654.794 828.089 654.794 827.302C654.794 826.447 654.477 825.749 653.842 825.207C653.215 824.665 652.318 824.395 651.15 824.395C649.923 824.395 648.946 824.703 648.218 825.321C647.49 825.931 647.126 826.794 647.126 827.911V828.152H644.282V827.873C644.282 826.206 644.909 824.839 646.161 823.772C647.422 822.698 649.085 822.16 651.15 822.16C653.182 822.16 654.773 822.643 655.924 823.607C657.083 824.572 657.663 825.753 657.663 827.149C657.663 828.377 657.303 829.468 656.584 830.425C655.873 831.381 654.963 832.384 653.854 833.434L648.205 838.753H658.184V841H644.295ZM661.927 833.967V829.498C661.927 827.23 662.537 825.44 663.755 824.128C664.983 822.816 666.705 822.16 668.922 822.16C671.14 822.16 672.862 822.816 674.089 824.128C675.325 825.431 675.943 827.221 675.943 829.498V833.967C675.943 836.277 675.325 838.089 674.089 839.4C672.854 840.704 671.131 841.355 668.922 841.355C666.688 841.355 664.961 840.695 663.743 839.375C662.532 838.055 661.927 836.252 661.927 833.967ZM664.809 834.183C664.809 835.723 665.143 836.933 665.812 837.813C666.481 838.694 667.517 839.134 668.922 839.134C670.336 839.134 671.377 838.694 672.045 837.813C672.722 836.933 673.061 835.727 673.061 834.195V829.295C673.061 827.788 672.722 826.599 672.045 825.728C671.368 824.847 670.327 824.407 668.922 824.407C667.526 824.407 666.489 824.847 665.812 825.728C665.143 826.599 664.809 827.788 664.809 829.295V834.183ZM686.237 841V825.283L680.74 827.327V824.775L687.888 822.3H689.094V841H686.237ZM700.518 841L708.376 824.839H697.484V822.516H711.36V824.306L703.489 841H700.518Z" fill="#5D5FEF"/>
<line x1="626.5" y1="852" x2="626.5" y2="583" stroke="#AFB6B3"/>
</g>
<defs>
<linearGradient id="paint0_linear_37_30654" x1="20.9891" y1="759" x2="920.529" y2="-177.794" gradientUnits="userSpaceOnUse">
<stop stop-color="#4AFCF1"/>
<stop offset="0.784375" stop-color="#7A73FF"/>
<stop offset="0.951645" stop-color="#83FFBC"/>
</linearGradient>
<clipPath id="clip0_37_30654">
<rect width="1440" height="1024" fill="white"/>
</clipPath>
</defs>
</svg>
