<svg width="380" height="482" viewBox="0 0 380 482" fill="none" xmlns="http://www.w3.org/2000/svg">
<g clip-path="url(#clip0_936_43190)">
<rect x="378.5" y="309.5" width="67" height="67" rx="11.5" fill="#F9FBFF"/>
<rect x="378.5" y="309.5" width="67" height="67" rx="11.5" stroke="#ECECEC"/>
<rect x="378.5" y="169.5" width="67" height="67" rx="11.5" fill="#F9FBFF"/>
<rect x="378.5" y="169.5" width="67" height="67" rx="11.5" stroke="#ECECEC"/>
<rect x="228.5" y="164.5" width="67" height="67" rx="11.5" fill="#F9FBFF"/>
<rect x="228.5" y="164.5" width="67" height="67" rx="11.5" stroke="#ECECEC"/>
<path d="M272.732 184.433C272.155 183.856 271.289 183.856 270.713 184.433C270.136 185.01 270.136 185.876 270.713 186.453C273.309 189.05 274.751 192.512 274.751 196.264C274.751 200.015 273.309 203.478 270.713 206.075C268.116 208.672 264.655 210.114 260.904 210.114C257.731 210.114 254.558 208.96 252.106 206.94L253.981 204.92C256 206.507 258.452 207.229 260.76 207.229C263.645 207.229 266.385 206.219 268.549 204.055C272.876 199.726 272.876 192.657 268.549 188.473C264.222 184.144 257.154 184.144 252.971 188.473C249.077 192.368 248.644 198.572 251.962 202.9L248.933 206.075C248.356 206.652 248.356 207.517 248.933 208.095C252.106 211.269 256.289 213 260.76 213C265.232 213 269.414 211.269 272.588 208.095C275.761 204.92 277.492 200.736 277.492 196.264C277.636 191.791 275.905 187.607 272.732 184.433ZM255.135 190.493C256.722 188.905 258.885 188.04 260.904 188.04C263.068 188.04 265.087 188.905 266.674 190.493C269.847 193.667 269.847 198.861 266.674 202.035C263.501 205.209 258.308 205.209 255.135 202.035C251.962 198.861 251.962 193.667 255.135 190.493Z" fill="#ECECEC"/>
<g filter="url(#filter0_d_936_43190)">
<rect x="146" y="297" width="71" height="94" rx="12" fill="white"/>
<path d="M194.354 322.617C192.53 320.793 189.443 320.512 185.795 321.775C184.532 322.196 183.27 322.898 182.007 323.599C176.956 320.652 172.186 320.091 169.66 322.617C166.995 325.143 167.696 329.914 170.642 334.967C167.556 340.159 167.135 344.93 169.66 347.316C170.642 348.439 172.186 349 174.01 349C176.395 349 179.201 348.018 182.007 346.334C184.813 348.018 187.619 349 190.004 349C191.828 349 193.231 348.439 194.354 347.456C196.879 344.93 196.318 340.159 193.372 335.107C196.458 329.774 196.879 325.003 194.354 322.617ZM186.637 324.441C189.303 323.459 191.267 323.599 192.389 324.582C193.652 325.845 193.372 328.932 191.688 332.3C190.706 331.037 189.724 329.774 188.461 328.511C187.198 327.248 185.936 326.266 184.673 325.283C185.374 325.003 186.076 324.582 186.637 324.441ZM171.625 345.351C170.362 344.088 170.642 341.001 172.326 337.633C173.308 338.896 174.29 340.159 175.553 341.422C176.816 342.685 178.079 343.808 179.341 344.65C175.834 346.474 172.887 346.614 171.625 345.351ZM192.389 345.351C191.127 346.614 188.18 346.334 184.532 344.65C185.795 343.667 187.058 342.545 188.321 341.422C188.882 340.861 189.443 340.299 189.864 339.738C190.425 339.177 190.285 338.335 189.724 337.773C189.162 337.212 188.321 337.352 187.759 337.914C187.339 338.475 186.777 338.896 186.356 339.457C184.953 340.861 183.41 342.124 182.007 343.106C180.604 342.124 179.061 340.861 177.658 339.457C171.484 333.282 169.52 326.687 171.625 324.582C172.046 324.02 172.887 323.74 174.01 323.74C175.413 323.74 177.377 324.301 179.341 325.283C178.079 326.266 176.816 327.388 175.553 328.511C174.992 329.213 174.29 329.914 173.729 330.616C173.168 331.177 173.308 332.019 173.869 332.581C174.431 333.142 175.413 333.002 175.834 332.44C176.395 331.739 176.956 331.177 177.517 330.616C178.92 329.213 180.464 327.95 181.867 326.967C183.27 327.95 184.813 329.213 186.356 330.616C192.53 336.651 194.494 343.246 192.389 345.351Z" fill="url(#paint0_radial_936_43190)"/>
<path d="M182 337.24C183.237 337.24 184.24 336.237 184.24 335C184.24 333.763 183.237 332.76 182 332.76C180.763 332.76 179.76 333.763 179.76 335C179.76 336.237 180.763 337.24 182 337.24Z" fill="url(#paint1_radial_936_43190)"/>
<path d="M164.605 368.656V368.586H165.765V368.65C165.765 369.162 165.958 369.545 166.345 369.799C166.736 370.053 167.283 370.18 167.986 370.18C168.685 370.18 169.22 370.051 169.591 369.793C169.966 369.531 170.154 369.188 170.154 368.762C170.154 368.379 169.98 368.074 169.632 367.848C169.288 367.617 168.601 367.371 167.57 367.109C166.527 366.844 165.802 366.531 165.396 366.172C164.994 365.812 164.792 365.299 164.792 364.631C164.792 363.963 165.068 363.406 165.619 362.961C166.173 362.516 166.941 362.293 167.921 362.293C168.898 362.293 169.675 362.531 170.253 363.008C170.831 363.484 171.12 364.076 171.12 364.783V364.848H169.96V364.783C169.96 364.334 169.788 363.973 169.445 363.699C169.105 363.426 168.597 363.289 167.921 363.289C167.245 363.289 166.745 363.406 166.421 363.641C166.101 363.871 165.941 364.186 165.941 364.584C165.941 364.951 166.103 365.242 166.427 365.457C166.755 365.668 167.413 365.896 168.402 366.143C169.437 366.404 170.179 366.729 170.628 367.115C171.077 367.502 171.302 368.049 171.302 368.756C171.302 369.463 171.003 370.043 170.406 370.496C169.812 370.949 169.005 371.176 167.986 371.176C166.962 371.176 166.142 370.951 165.525 370.502C164.911 370.049 164.605 369.434 164.605 368.656ZM173.042 371V362.469H178.866V363.43H174.208V366.119H178.286V367.08H174.208V370.039H178.931V371H173.042ZM180.595 371V362.469H183.624C184.616 362.469 185.384 362.697 185.927 363.154C186.47 363.611 186.741 364.225 186.741 364.994C186.741 365.764 186.47 366.383 185.927 366.852C185.384 367.32 184.616 367.555 183.624 367.555H181.761V371H180.595ZM181.761 366.605H183.624C184.354 366.605 184.862 366.451 185.147 366.143C185.432 365.83 185.575 365.447 185.575 364.994C185.575 364.541 185.432 364.166 185.147 363.869C184.862 363.568 184.354 363.418 183.624 363.418H181.761V366.605ZM185.886 371L183.647 367.068L184.843 366.922L187.216 371H185.886ZM188.721 371V362.469H190.245L193.016 368.885C193.067 369.002 193.116 369.125 193.163 369.254C193.214 369.379 193.258 369.496 193.297 369.605H193.344C193.38 369.496 193.421 369.379 193.467 369.254C193.514 369.125 193.563 369.002 193.614 368.885L196.368 362.469H197.921V371H196.796V364.73C196.796 364.613 196.797 364.482 196.801 364.338C196.809 364.189 196.821 364.057 196.837 363.939H196.784C196.753 364.057 196.71 364.189 196.655 364.338C196.604 364.482 196.553 364.613 196.503 364.73L193.819 371H192.782L190.081 364.73C190.03 364.613 189.979 364.482 189.928 364.338C189.881 364.189 189.844 364.057 189.817 363.939H189.764C189.776 364.057 189.786 364.189 189.794 364.338C189.805 364.482 189.811 364.613 189.811 364.73V371H188.721Z" fill="#04101C"/>
</g>
<rect x="86.5" y="430.5" width="67" height="67" rx="11.5" fill="#F9FBFF"/>
<rect x="86.5" y="430.5" width="67" height="67" rx="11.5" stroke="#ECECEC"/>
<path fill-rule="evenodd" clip-rule="evenodd" d="M106.549 456.284C104.292 454.023 105.912 450 109.179 450H129.825C133.092 450 134.712 454.023 132.455 456.284C132.454 456.286 132.453 456.287 132.451 456.288L124.301 464.548V471.769C124.301 472.929 123.738 474.159 122.656 474.83L118.658 477.575L118.641 477.586C117.751 478.179 116.726 478.077 115.989 477.643C115.268 477.217 114.703 476.408 114.703 475.415V464.548L106.549 456.284ZM108.38 453.364C108.231 453.725 108.299 454.075 108.531 454.307L108.539 454.314L117.099 462.99C117.358 463.252 117.503 463.605 117.503 463.973V474.972L121.102 472.501C121.125 472.484 121.15 472.469 121.174 472.454C121.324 472.365 121.501 472.103 121.501 471.769V463.973C121.501 463.605 121.646 463.252 121.905 462.99L130.473 454.307C130.705 454.075 130.773 453.725 130.624 453.364C130.478 453.01 130.187 452.8 129.825 452.8H109.179C108.817 452.8 108.526 453.01 108.38 453.364Z" fill="#ECECEC"/>
<rect x="229.5" y="430.5" width="67" height="67" rx="11.5" fill="#F9FBFF"/>
<rect x="229.5" y="430.5" width="67" height="67" rx="11.5" stroke="#ECECEC"/>
<path fill-rule="evenodd" clip-rule="evenodd" d="M260.916 450.491C262.388 449.836 264.033 449.836 265.505 450.491L265.527 450.502L273.396 454.188C273.406 454.193 273.416 454.197 273.426 454.202C275.189 455.085 276.233 457.025 275.889 459.105C275.234 463.165 273.253 471.169 265.91 477.053L265.896 477.064C264.294 478.312 262.127 478.312 260.524 477.064L260.511 477.053C253.165 471.168 251.185 463.161 250.532 459.102C250.527 459.073 250.523 459.044 250.521 459.015C250.358 457.218 251.158 455.102 253.154 454.187L260.886 450.505C260.896 450.5 260.906 450.496 260.916 450.491ZM261.965 452.811L254.239 456.489L254.219 456.499C253.441 456.853 252.978 457.763 253.052 458.744C253.675 462.577 255.513 469.782 262.095 475.061C262.774 475.586 263.646 475.586 264.326 475.061C270.935 469.761 272.761 462.517 273.376 458.697L273.377 458.691C273.538 457.726 273.066 456.876 272.299 456.485L264.459 452.812C263.654 452.457 262.77 452.457 261.965 452.811Z" fill="#ECECEC"/>
<path fill-rule="evenodd" clip-rule="evenodd" d="M269.08 457.89C269.643 458.311 269.758 459.108 269.337 459.671L263.626 467.308C263.387 467.627 263.011 467.816 262.612 467.818C262.213 467.82 261.836 467.634 261.594 467.316L258.396 463.116C257.97 462.557 258.078 461.759 258.638 461.333C259.197 460.907 259.995 461.015 260.421 461.574L262.598 464.433L267.298 458.147C267.719 457.584 268.517 457.469 269.08 457.89Z" fill="#ECECEC"/>
<g filter="url(#filter1_d_936_43190)">
<rect x="260" y="301" width="68" height="94" rx="12" fill="white"/>
<path d="M304.965 347.6H302C301.506 345.8 299.9 344.6 297.924 344.6C295.576 344.6 293.6 346.52 293.6 348.8C293.6 351.08 295.576 353 297.924 353C299.9 353 301.506 351.8 302 350H304.965C305.706 350 306.2 349.4 306.2 348.8C306.2 348.08 305.706 347.6 304.965 347.6ZM297.924 350.6C296.935 350.6 296.071 349.76 296.071 348.8C296.071 347.84 296.935 347 297.924 347C298.912 347 299.776 347.84 299.776 348.8C299.776 349.76 298.912 350.6 297.924 350.6Z" fill="url(#paint2_radial_936_43190)"/>
<path d="M291.009 347.4H282.191C281.477 347.4 281 348.1 281 348.8C281 349.64 281.596 350.2 282.191 350.2H291.009C291.723 350.2 292.2 349.5 292.2 348.8C292.2 347.96 291.604 347.4 291.009 347.4Z" fill="url(#paint3_radial_936_43190)"/>
<path d="M282.191 330.6H291.009C291.723 330.6 292.2 329.9 292.2 329.2C292.2 328.5 291.604 327.8 291.009 327.8H282.191C281.477 327.8 281 328.5 281 329.2C281 329.9 281.596 330.6 282.191 330.6Z" fill="url(#paint4_radial_936_43190)"/>
<path d="M297.924 333.4C299.9 333.4 301.506 332.2 302 330.4H304.965C305.706 330.4 306.2 329.8 306.2 329.2C306.2 328.6 305.582 328 304.965 328H302C301.506 326.2 299.9 325 297.924 325C295.576 325 293.6 326.92 293.6 329.2C293.6 331.48 295.576 333.4 297.924 333.4ZM297.924 327.4C298.912 327.4 299.776 328.24 299.776 329.2C299.776 330.16 298.912 331 297.924 331C296.935 331 296.071 330.16 296.071 329.2C296.071 328.24 296.935 327.4 297.924 327.4Z" fill="url(#paint5_radial_936_43190)"/>
<path d="M282.235 340.2H285.2C285.694 341.88 287.3 343.2 289.276 343.2C291.624 343.2 293.6 341.28 293.6 339C293.6 336.72 291.624 334.8 289.276 334.8C287.3 334.8 285.694 336 285.2 337.8H282.235C281.494 337.8 281 338.4 281 339C281 339.6 281.618 340.2 282.235 340.2ZM289.276 337.2C290.265 337.2 291.129 338.04 291.129 339C291.129 339.96 290.265 340.8 289.276 340.8C288.288 340.8 287.424 339.96 287.424 339C287.424 338.04 288.288 337.2 289.276 337.2Z" fill="url(#paint6_radial_936_43190)"/>
<path d="M304.996 337.6H296.204C295.482 337.6 295 338.3 295 339C295 339.7 295.602 340.4 296.204 340.4H304.996C305.718 340.4 306.2 339.7 306.2 339C306.2 338.3 305.718 337.6 304.996 337.6Z" fill="url(#paint7_radial_936_43190)"/>
<path d="M280.272 370.951V370.518C280.272 369.182 280.639 368.145 281.373 367.406C282.108 366.664 283.049 366.293 284.198 366.293C285.35 366.293 286.293 366.664 287.028 367.406C287.762 368.145 288.129 369.182 288.129 370.518V370.951C288.129 372.287 287.762 373.326 287.028 374.068C286.293 374.807 285.35 375.176 284.198 375.176C283.049 375.176 282.108 374.807 281.373 374.068C280.639 373.326 280.272 372.287 280.272 370.951ZM281.449 370.951C281.449 371.967 281.699 372.76 282.199 373.33C282.703 373.896 283.371 374.18 284.203 374.18C285.031 374.18 285.698 373.896 286.201 373.33C286.705 372.76 286.957 371.967 286.957 370.951V370.518C286.957 369.502 286.705 368.711 286.201 368.145C285.698 367.574 285.031 367.289 284.203 367.289C283.371 367.289 282.703 367.574 282.199 368.145C281.699 368.711 281.449 369.502 281.449 370.518V370.951ZM290.074 375V366.469H293.104C294.096 366.469 294.863 366.697 295.406 367.154C295.949 367.611 296.221 368.225 296.221 368.994C296.221 369.764 295.949 370.383 295.406 370.852C294.863 371.32 294.096 371.555 293.104 371.555H291.24V375H290.074ZM291.24 370.605H293.104C293.834 370.605 294.342 370.451 294.627 370.143C294.912 369.83 295.055 369.447 295.055 368.994C295.055 368.541 294.912 368.166 294.627 367.869C294.342 367.568 293.834 367.418 293.104 367.418H291.24V370.605ZM295.365 375L293.127 371.068L294.322 370.922L296.695 375H295.365ZM298.201 375V366.469H299.724L302.496 372.885C302.547 373.002 302.595 373.125 302.642 373.254C302.693 373.379 302.738 373.496 302.777 373.605H302.824C302.859 373.496 302.9 373.379 302.947 373.254C302.994 373.125 303.043 373.002 303.094 372.885L305.847 366.469H307.4V375H306.275V368.73C306.275 368.613 306.277 368.482 306.281 368.338C306.289 368.189 306.301 368.057 306.316 367.939H306.263C306.232 368.057 306.189 368.189 306.135 368.338C306.084 368.482 306.033 368.613 305.982 368.73L303.299 375H302.261L299.56 368.73C299.51 368.613 299.459 368.482 299.408 368.338C299.361 368.189 299.324 368.057 299.297 367.939H299.244C299.256 368.057 299.265 368.189 299.273 368.338C299.285 368.482 299.291 368.613 299.291 368.73V375H298.201Z" fill="#04101C"/>
</g>
<g filter="url(#filter2_d_936_43190)">
<rect x="37" y="164" width="104" height="94" rx="12" fill="white"/>
<path d="M93.8 209.14C93.8 208.3 93.24 207.74 92.4 207.74H78.26C77.14 207.74 76.3 206.9 76.3 205.78V198.22C76.3 197.1 77.14 196.26 78.26 196.26H92.4C93.24 196.26 93.8 195.7 93.8 194.86C93.8 194.02 93.24 193.46 92.4 193.46H78.26C75.6 193.46 73.5 195.56 73.5 198.22V205.78C73.5 208.44 75.6 210.54 78.26 210.54H92.4C93.1 210.54 93.8 209.98 93.8 209.14Z" fill="url(#paint8_radial_936_43190)"/>
<path d="M99.54 193.46H98.28V190.8H100.38C101.22 190.8 101.78 190.24 101.78 189.4C101.78 188.56 101.22 188 100.38 188H93.52C92.68 188 92.12 188.56 92.12 189.4C92.12 190.24 92.68 190.8 93.52 190.8H95.62V213.2H93.52C92.68 213.2 92.12 213.76 92.12 214.6C92.12 215.44 92.68 216 93.52 216H100.38C101.22 216 101.78 215.44 101.78 214.6C101.78 213.76 101.22 213.2 100.38 213.2H98.28V210.54H99.54C102.2 210.54 104.3 208.44 104.3 205.78V198.22C104.3 195.56 102.2 193.46 99.54 193.46ZM101.5 205.78C101.5 206.9 100.66 207.74 99.54 207.74H98.28V196.26H99.54C100.66 196.26 101.5 197.1 101.5 198.22V205.78Z" fill="url(#paint9_radial_936_43190)"/>
<path d="M56.3935 238V229.469H63.1904V238H62.0302V230.43H57.5595V238H56.3935ZM64.9714 234.977V234.789C64.9714 233.848 65.2663 233.08 65.8562 232.486C66.4499 231.889 67.2429 231.59 68.2351 231.59C69.2234 231.59 70.0144 231.889 70.6081 232.486C71.2019 233.08 71.4988 233.848 71.4988 234.789V234.977C71.4988 235.918 71.2019 236.688 70.6081 237.285C70.0144 237.879 69.2234 238.176 68.2351 238.176C67.2429 238.176 66.4499 237.879 65.8562 237.285C65.2663 236.688 64.9714 235.918 64.9714 234.977ZM66.1198 234.789V234.977C66.1198 235.617 66.2976 236.156 66.653 236.594C67.0085 237.031 67.5359 237.25 68.2351 237.25C68.9343 237.25 69.4597 237.031 69.8113 236.594C70.1667 236.156 70.3445 235.617 70.3445 234.977V234.789C70.3445 234.145 70.1667 233.605 69.8113 233.172C69.4597 232.734 68.9343 232.516 68.2351 232.516C67.5359 232.516 67.0085 232.734 66.653 233.172C66.2976 233.605 66.1198 234.145 66.1198 234.789ZM78.3716 239.582V238H73.3501V239.582H72.3188V237.115H79.4087V239.582H78.3716ZM74.5688 232.65L74.4751 234.766C74.4438 235.484 74.3989 236.014 74.3403 236.354C74.2856 236.689 74.2036 236.975 74.0942 237.209H72.9282C73.0688 237.021 73.1802 236.752 73.2622 236.4C73.3481 236.045 73.4087 235.453 73.4438 234.625L73.5727 231.766H78.4712V238H77.3403V232.65H74.5688ZM80.2991 234.977V234.789C80.2991 233.848 80.5823 233.08 81.1487 232.486C81.719 231.889 82.5022 231.59 83.4983 231.59C84.4202 231.59 85.1194 231.814 85.5959 232.264C86.0764 232.709 86.3166 233.209 86.3166 233.764V233.793H85.2034V233.758C85.2034 233.426 85.0686 233.135 84.7991 232.885C84.5334 232.635 84.0998 232.51 83.4983 232.51C82.7952 232.51 82.2776 232.729 81.9455 233.166C81.6135 233.604 81.4475 234.145 81.4475 234.789V234.977C81.4475 235.621 81.6135 236.162 81.9455 236.6C82.2776 237.033 82.7952 237.25 83.4983 237.25C84.0998 237.25 84.5334 237.127 84.7991 236.881C85.0686 236.635 85.2034 236.342 85.2034 236.002V235.973H86.3166V236.002C86.3166 236.553 86.0764 237.053 85.5959 237.502C85.1194 237.951 84.4202 238.176 83.4983 238.176C82.5022 238.176 81.719 237.879 81.1487 237.285C80.5823 236.688 80.2991 235.918 80.2991 234.977ZM92.1758 238L89.4746 235.146L90.166 234.414L93.6113 238H92.1758ZM88.3203 234.385H89.5508L91.9648 231.766H93.2949L90.0137 235.27H88.3203V234.385ZM88.8828 231.766V238H87.7637V231.766H88.8828ZM94.3318 236.166C94.3318 235.529 94.6052 235.035 95.1521 234.684C95.7029 234.332 96.4158 234.156 97.2908 234.156H98.9607V233.711C98.9607 233.336 98.8435 233.037 98.6091 232.814C98.3787 232.592 97.9841 232.48 97.4255 232.48C96.8709 232.48 96.4705 232.576 96.2244 232.768C95.9783 232.955 95.8552 233.182 95.8552 233.447V233.477H94.7302V233.447C94.7302 232.936 94.9744 232.498 95.4627 232.135C95.9509 231.771 96.615 231.59 97.4548 231.59C98.2908 231.59 98.9373 231.77 99.3943 232.129C99.8552 232.484 100.086 233.012 100.086 233.711V236.594C100.086 236.848 100.107 237.088 100.15 237.314C100.193 237.537 100.254 237.734 100.332 237.906V238H99.2478C99.1853 237.902 99.1287 237.773 99.0779 237.613C99.0271 237.453 98.9959 237.295 98.9841 237.139C98.8201 237.4 98.5466 237.629 98.1638 237.824C97.781 238.02 97.2908 238.117 96.6931 238.117C96.0213 238.117 95.4588 237.949 95.0056 237.613C94.5564 237.277 94.3318 236.795 94.3318 236.166ZM95.4568 236.107C95.4568 236.459 95.5779 236.732 95.8201 236.928C96.0623 237.123 96.4412 237.221 96.9568 237.221C97.4724 237.221 97.9353 237.072 98.3455 236.775C98.7556 236.479 98.9607 236.164 98.9607 235.832V234.953H97.4197C96.7791 234.953 96.2908 235.057 95.9548 235.264C95.6228 235.467 95.4568 235.748 95.4568 236.107ZM104.585 238.176C103.578 238.176 102.834 237.963 102.353 237.537C101.876 237.111 101.638 236.607 101.638 236.025V235.996H102.728V236.025C102.728 236.35 102.863 236.635 103.132 236.881C103.406 237.127 103.886 237.25 104.574 237.25C105.164 237.25 105.607 237.154 105.904 236.963C106.201 236.771 106.349 236.508 106.349 236.172C106.349 235.887 106.238 235.666 106.015 235.51C105.796 235.35 105.449 235.27 104.972 235.27H103.589V234.391H104.867C105.308 234.391 105.632 234.311 105.839 234.15C106.046 233.99 106.15 233.77 106.15 233.488C106.15 233.172 106.025 232.93 105.775 232.762C105.529 232.594 105.158 232.51 104.662 232.51C104.037 232.51 103.58 232.629 103.291 232.867C103.001 233.105 102.857 233.396 102.857 233.74V233.77H101.767V233.74C101.767 233.123 102.013 232.611 102.505 232.205C102.998 231.795 103.714 231.59 104.656 231.59C105.511 231.59 106.164 231.75 106.613 232.07C107.062 232.391 107.287 232.832 107.287 233.395C107.287 233.734 107.173 234.029 106.947 234.279C106.724 234.525 106.419 234.691 106.033 234.777V234.795C106.482 234.857 106.835 235.01 107.093 235.252C107.355 235.49 107.486 235.805 107.486 236.195C107.486 236.812 107.222 237.297 106.695 237.648C106.167 238 105.464 238.176 104.585 238.176ZM113.603 238L110.902 235.146L111.593 234.414L115.038 238H113.603ZM109.747 234.385H110.978L113.392 231.766H114.722L111.441 235.27H109.747V234.385ZM110.31 231.766V238H109.191V231.766H110.31ZM116.11 238V231.766H117.224V235.738C117.224 235.855 117.222 235.988 117.218 236.137C117.218 236.285 117.216 236.42 117.212 236.541H117.259C117.314 236.436 117.374 236.324 117.44 236.207C117.507 236.09 117.583 235.973 117.669 235.855L120.605 231.766H121.735V238H120.616V234.033C120.616 233.912 120.618 233.777 120.622 233.629C120.626 233.477 120.632 233.34 120.64 233.219H120.575C120.524 233.32 120.466 233.432 120.399 233.553C120.333 233.674 120.259 233.793 120.177 233.91L117.241 238H116.11Z" fill="#04101C"/>
</g>
<g filter="url(#filter3_d_936_43190)">
<rect x="36" y="29" width="105" height="110" rx="12" fill="white"/>
<path d="M101.323 74.1429L98.6121 71.4286C98.0414 70.8571 97.1853 70.8571 96.6147 71.4286C96.0439 72 96.0439 72.8571 96.6147 73.4286L99.3255 76.1429C99.7535 76.5714 99.7535 77.2857 99.3255 77.7143C98.8975 78.1429 98.1841 78.1429 97.756 77.7143L93.4758 73.4286C93.7611 73.1429 94.0465 73 94.3318 72.7143C96.472 70.5714 97.756 67.5714 97.756 64.5714C97.756 61.4286 96.6146 58.5714 94.3318 56.4286C89.7662 51.8571 82.4898 51.8571 77.9242 56.4286C73.3586 61 73.3586 68.2857 77.9242 72.8571C80.0643 75 83.0605 76.2857 86.0567 76.2857C87.7688 76.2857 89.4809 75.8571 90.9076 75.1429L95.6159 79.8571C96.3293 80.5714 97.4707 81 98.4694 81C99.4682 81 100.467 80.5714 101.323 79.8571C102.892 78.1429 102.892 75.5714 101.323 74.1429ZM79.9217 70.5714C76.4975 67.1429 76.4975 61.5714 79.9217 58.2857C81.6338 56.5714 83.7739 55.7143 86.0567 55.7143C88.3395 55.7143 90.4796 56.5714 92.1917 58.2857C93.9038 60 94.7599 62.1429 94.7599 64.4286C94.7599 66.7143 93.9038 69 92.1917 70.5714C90.4796 72.1429 88.3395 73.1429 86.0567 73.1429C83.7739 73.1429 81.4911 72.2857 79.9217 70.5714Z" fill="url(#paint10_radial_936_43190)"/>
<path d="M55.5009 103V94.4688H62.2978V103H61.1377V95.4297H56.667V103H55.5009ZM64.0788 99.9766V99.7891C64.0788 98.8477 64.3738 98.0801 64.9636 97.4863C65.5573 96.8887 66.3503 96.5898 67.3425 96.5898C68.3308 96.5898 69.1218 96.8887 69.7155 97.4863C70.3093 98.0801 70.6062 98.8477 70.6062 99.7891V99.9766C70.6062 100.918 70.3093 101.688 69.7155 102.285C69.1218 102.879 68.3308 103.176 67.3425 103.176C66.3503 103.176 65.5573 102.879 64.9636 102.285C64.3738 101.688 64.0788 100.918 64.0788 99.9766ZM65.2273 99.7891V99.9766C65.2273 100.617 65.405 101.156 65.7605 101.594C66.1159 102.031 66.6433 102.25 67.3425 102.25C68.0417 102.25 68.5671 102.031 68.9187 101.594C69.2741 101.156 69.4519 100.617 69.4519 99.9766V99.7891C69.4519 99.1445 69.2741 98.6055 68.9187 98.1719C68.5671 97.7344 68.0417 97.5156 67.3425 97.5156C66.6433 97.5156 66.1159 97.7344 65.7605 98.1719C65.405 98.6055 65.2273 99.1445 65.2273 99.7891ZM72.2466 103V96.7656H73.3598V100.738C73.3598 100.855 73.3579 100.988 73.354 101.137C73.354 101.285 73.352 101.42 73.3481 101.541H73.395C73.4497 101.436 73.5102 101.324 73.5766 101.207C73.643 101.09 73.7192 100.973 73.8052 100.855L76.7407 96.7656H77.8716V103H76.7524V99.0332C76.7524 98.9121 76.7544 98.7773 76.7583 98.6289C76.7622 98.4766 76.768 98.3398 76.7759 98.2188H76.7114C76.6606 98.3203 76.602 98.4316 76.5356 98.5527C76.4692 98.6738 76.395 98.793 76.313 98.9102L73.3774 103H72.2466ZM79.512 99.9766V99.7891C79.512 98.8477 79.7952 98.0801 80.3616 97.4863C80.9319 96.8887 81.7151 96.5898 82.7112 96.5898C83.633 96.5898 84.3323 96.8145 84.8088 97.2637C85.2893 97.709 85.5295 98.209 85.5295 98.7637V98.793H84.4163V98.7578C84.4163 98.4258 84.2815 98.1348 84.012 97.8848C83.7463 97.6348 83.3127 97.5098 82.7112 97.5098C82.008 97.5098 81.4905 97.7285 81.1584 98.166C80.8264 98.6035 80.6604 99.1445 80.6604 99.7891V99.9766C80.6604 100.621 80.8264 101.162 81.1584 101.6C81.4905 102.033 82.008 102.25 82.7112 102.25C83.3127 102.25 83.7463 102.127 84.012 101.881C84.2815 101.635 84.4163 101.342 84.4163 101.002V100.973H85.5295V101.002C85.5295 101.553 85.2893 102.053 84.8088 102.502C84.3323 102.951 83.633 103.176 82.7112 103.176C81.7151 103.176 80.9319 102.879 80.3616 102.285C79.7952 101.688 79.512 100.918 79.512 99.9766ZM91.3887 103L88.6875 100.146L89.3789 99.4141L92.8242 103H91.3887ZM87.5332 99.3848H88.7637L91.1777 96.7656H92.5078L89.2266 100.27H87.5332V99.3848ZM88.0957 96.7656V103H86.9766V96.7656H88.0957ZM93.5271 99.9766V99.7891C93.5271 98.8477 93.822 98.0801 94.4119 97.4863C95.0056 96.8887 95.7986 96.5898 96.7908 96.5898C97.7791 96.5898 98.5701 96.8887 99.1638 97.4863C99.7576 98.0801 100.054 98.8477 100.054 99.7891V99.9766C100.054 100.918 99.7576 101.688 99.1638 102.285C98.5701 102.879 97.7791 103.176 96.7908 103.176C95.7986 103.176 95.0056 102.879 94.4119 102.285C93.822 101.688 93.5271 100.918 93.5271 99.9766ZM94.6755 99.7891V99.9766C94.6755 100.617 94.8533 101.156 95.2088 101.594C95.5642 102.031 96.0916 102.25 96.7908 102.25C97.49 102.25 98.0154 102.031 98.367 101.594C98.7224 101.156 98.9002 100.617 98.9002 99.9766V99.7891C98.9002 99.1445 98.7224 98.6055 98.367 98.1719C98.0154 97.7344 97.49 97.5156 96.7908 97.5156C96.0916 97.5156 95.5642 97.7344 95.2088 98.1719C94.8533 98.6055 94.6755 99.1445 94.6755 99.7891ZM101.695 103V96.7656H104.818C105.529 96.7656 106.084 96.9043 106.482 97.1816C106.884 97.4551 107.085 97.8711 107.085 98.4297C107.085 98.7773 106.982 99.0684 106.775 99.3027C106.568 99.5371 106.291 99.6953 105.943 99.7773V99.7949C106.365 99.8574 106.697 100.012 106.939 100.258C107.181 100.5 107.302 100.811 107.302 101.189C107.302 101.76 107.091 102.205 106.669 102.525C106.248 102.842 105.689 103 104.994 103H101.695ZM102.82 99.3906H104.818C105.22 99.3906 105.509 99.3105 105.685 99.1504C105.861 98.9902 105.949 98.7695 105.949 98.4883C105.949 98.2148 105.861 98.0078 105.685 97.8672C105.509 97.7266 105.22 97.6543 104.818 97.6504H102.82V99.3906ZM102.82 102.115H104.994C105.4 102.115 105.697 102.031 105.884 101.863C106.076 101.695 106.171 101.469 106.171 101.184C106.171 100.906 106.078 100.686 105.89 100.521C105.703 100.354 105.404 100.27 104.994 100.27H102.82V102.115ZM108.661 101.166C108.661 100.529 108.935 100.035 109.482 99.6836C110.033 99.332 110.745 99.1562 111.62 99.1562H113.29V98.7109C113.29 98.3359 113.173 98.0371 112.939 97.8145C112.708 97.5918 112.314 97.4805 111.755 97.4805C111.2 97.4805 110.8 97.5762 110.554 97.7676C110.308 97.9551 110.185 98.1816 110.185 98.4473V98.4766H109.06V98.4473C109.06 97.9355 109.304 97.498 109.792 97.1348C110.281 96.7715 110.945 96.5898 111.784 96.5898C112.62 96.5898 113.267 96.7695 113.724 97.1289C114.185 97.4844 114.415 98.0117 114.415 98.7109V101.594C114.415 101.848 114.437 102.088 114.48 102.314C114.523 102.537 114.583 102.734 114.661 102.906V103H113.577C113.515 102.902 113.458 102.773 113.408 102.613C113.357 102.453 113.325 102.295 113.314 102.139C113.15 102.4 112.876 102.629 112.493 102.824C112.111 103.02 111.62 103.117 111.023 103.117C110.351 103.117 109.788 102.949 109.335 102.613C108.886 102.277 108.661 101.795 108.661 101.166ZM109.786 101.107C109.786 101.459 109.908 101.732 110.15 101.928C110.392 102.123 110.771 102.221 111.286 102.221C111.802 102.221 112.265 102.072 112.675 101.775C113.085 101.479 113.29 101.164 113.29 100.832V99.9531H111.749C111.109 99.9531 110.62 100.057 110.284 100.264C109.952 100.467 109.786 100.748 109.786 101.107ZM117.257 103H116.009L118.013 100.34L119.144 100.439L117.257 103ZM120.497 103V100.75H118.739L118.61 100.68C117.845 100.68 117.257 100.508 116.847 100.164C116.437 99.8164 116.231 99.3496 116.231 98.7637C116.231 98.1582 116.439 97.6738 116.853 97.3105C117.267 96.9473 117.86 96.7656 118.634 96.7656H121.628V103H120.497ZM118.64 99.8594H120.497V97.6504H118.64C118.171 97.6504 117.841 97.7559 117.649 97.9668C117.462 98.1777 117.368 98.4434 117.368 98.7637C117.368 99.0879 117.462 99.3516 117.649 99.5547C117.837 99.7578 118.167 99.8594 118.64 99.8594ZM66.4078 119V112.766H69.5309C70.2418 112.766 70.7965 112.904 71.1949 113.182C71.5973 113.455 71.7984 113.871 71.7984 114.43C71.7984 114.777 71.6949 115.068 71.4879 115.303C71.2809 115.537 71.0035 115.695 70.6559 115.777V115.795C71.0777 115.857 71.4098 116.012 71.652 116.258C71.8941 116.5 72.0152 116.811 72.0152 117.189C72.0152 117.76 71.8043 118.205 71.3824 118.525C70.9605 118.842 70.402 119 69.7066 119H66.4078ZM67.5328 115.391H69.5309C69.9332 115.391 70.2223 115.311 70.398 115.15C70.5738 114.99 70.6617 114.77 70.6617 114.488C70.6617 114.215 70.5738 114.008 70.398 113.867C70.2223 113.727 69.9332 113.654 69.5309 113.65H67.5328V115.391ZM67.5328 118.115H69.7066C70.1129 118.115 70.4098 118.031 70.5973 117.863C70.7887 117.695 70.8844 117.469 70.8844 117.184C70.8844 116.906 70.7906 116.686 70.6031 116.521C70.4156 116.354 70.1168 116.27 69.7066 116.27H67.5328V118.115ZM74.8509 112.766V114.893H76.6615C77.4388 114.893 78.0365 115.076 78.4545 115.443C78.8763 115.807 79.0873 116.303 79.0873 116.932C79.0873 117.557 78.8763 118.059 78.4545 118.438C78.0365 118.812 77.4388 119 76.6615 119H73.7259V112.766H74.8509ZM76.6556 115.783H74.8509V118.115H76.6556C77.1361 118.115 77.472 118.004 77.6634 117.781C77.8587 117.559 77.9564 117.275 77.9564 116.932C77.9564 116.596 77.8587 116.32 77.6634 116.105C77.472 115.891 77.1361 115.783 76.6556 115.783ZM79.9369 119V112.766H81.0619V119H79.9369ZM88.3038 120.582V119H83.2823V120.582H82.2511V118.115H89.3409V120.582H88.3038ZM84.5011 113.65L84.4073 115.766C84.3761 116.484 84.3312 117.014 84.2726 117.354C84.2179 117.689 84.1359 117.975 84.0265 118.209H82.8605C83.0011 118.021 83.1124 117.752 83.1945 117.4C83.2804 117.045 83.3409 116.453 83.3761 115.625L83.505 112.766H88.4034V119H87.2726V113.65H84.5011ZM90.2489 117.166C90.2489 116.529 90.5223 116.035 91.0692 115.684C91.62 115.332 92.3329 115.156 93.2079 115.156H94.8778V114.711C94.8778 114.336 94.7606 114.037 94.5262 113.814C94.2958 113.592 93.9012 113.48 93.3427 113.48C92.788 113.48 92.3876 113.576 92.1415 113.768C91.8954 113.955 91.7723 114.182 91.7723 114.447V114.477H90.6473V114.447C90.6473 113.936 90.8915 113.498 91.3798 113.135C91.868 112.771 92.5321 112.59 93.372 112.59C94.2079 112.59 94.8544 112.77 95.3114 113.129C95.7723 113.484 96.0028 114.012 96.0028 114.711V117.594C96.0028 117.848 96.0243 118.088 96.0673 118.314C96.1102 118.537 96.1708 118.734 96.2489 118.906V119H95.1649C95.1024 118.902 95.0458 118.773 94.995 118.613C94.9442 118.453 94.913 118.295 94.9012 118.139C94.7372 118.4 94.4637 118.629 94.0809 118.824C93.6981 119.02 93.2079 119.117 92.6102 119.117C91.9384 119.117 91.3759 118.949 90.9227 118.613C90.4735 118.277 90.2489 117.795 90.2489 117.166ZM91.3739 117.107C91.3739 117.459 91.495 117.732 91.7372 117.928C91.9794 118.123 92.3583 118.221 92.8739 118.221C93.3895 118.221 93.8524 118.072 94.2626 117.775C94.6727 117.479 94.8778 117.164 94.8778 116.832V115.953H93.3368C92.6962 115.953 92.2079 116.057 91.872 116.264C91.5399 116.467 91.3739 116.748 91.3739 117.107ZM98.9733 114.471C98.9733 114.979 99.0924 115.332 99.3307 115.531C99.569 115.73 99.9498 115.83 100.473 115.83C100.876 115.83 101.241 115.803 101.569 115.748C101.901 115.689 102.255 115.609 102.63 115.508V116.404C102.278 116.494 101.928 116.57 101.581 116.633C101.233 116.691 100.803 116.721 100.292 116.721C99.4557 116.721 98.8385 116.533 98.4401 116.158C98.0455 115.779 97.8483 115.217 97.8483 114.471V112.766H98.9733V114.471ZM103.186 112.766V119H102.067V112.766H103.186ZM104.85 117.166C104.85 116.529 105.123 116.035 105.67 115.684C106.221 115.332 106.934 115.156 107.809 115.156H109.479V114.711C109.479 114.336 109.362 114.037 109.127 113.814C108.897 113.592 108.502 113.48 107.944 113.48C107.389 113.48 106.989 113.576 106.743 113.768C106.496 113.955 106.373 114.182 106.373 114.447V114.477H105.248V114.447C105.248 113.936 105.493 113.498 105.981 113.135C106.469 112.771 107.133 112.59 107.973 112.59C108.809 112.59 109.455 112.77 109.912 113.129C110.373 113.484 110.604 114.012 110.604 114.711V117.594C110.604 117.848 110.625 118.088 110.668 118.314C110.711 118.537 110.772 118.734 110.85 118.906V119H109.766C109.704 118.902 109.647 118.773 109.596 118.613C109.545 118.453 109.514 118.295 109.502 118.139C109.338 118.4 109.065 118.629 108.682 118.824C108.299 119.02 107.809 119.117 107.211 119.117C106.539 119.117 105.977 118.949 105.524 118.613C105.075 118.277 104.85 117.795 104.85 117.166ZM105.975 117.107C105.975 117.459 106.096 117.732 106.338 117.928C106.58 118.123 106.959 118.221 107.475 118.221C107.991 118.221 108.454 118.072 108.864 117.775C109.274 117.479 109.479 117.164 109.479 116.832V115.953H107.938C107.297 115.953 106.809 116.057 106.473 116.264C106.141 116.467 105.975 116.748 105.975 117.107Z" fill="#04101C"/>
</g>
<rect x="378.5" y="428.5" width="67" height="67" rx="11.5" fill="#F9FBFF"/>
<rect x="378.5" y="428.5" width="67" height="67" rx="11.5" stroke="#ECECEC"/>
<rect x="218.5" y="29.5" width="67" height="67" rx="11.5" fill="#F9FBFF"/>
<rect x="218.5" y="29.5" width="67" height="67" rx="11.5" stroke="#ECECEC"/>
<path d="M267.196 63C267.196 59.9804 265.549 57.2353 263.078 55.8627C263.078 55.7255 263.078 55.451 263.078 55.1765C263.078 51.7451 260.333 49 256.902 49C254.98 49 253.196 49.9608 252.098 51.3333C251 49.9608 249.216 49 247.294 49C243.863 49 241.118 51.7451 241.118 55.1765C241.118 55.451 241.118 55.5882 241.118 55.8627C238.647 57.2353 237 59.9804 237 63C237 66.0196 238.647 68.7647 241.118 70.1373C241.118 70.4118 241.118 70.549 241.118 70.8235C241.118 74.2549 243.863 77 247.294 77C249.216 77 251 76.0392 252.098 74.6667C253.196 76.0392 254.98 77 256.902 77C260.333 77 263.078 74.2549 263.078 70.8235C263.078 70.549 263.078 70.4118 263.078 70.1373C265.549 68.6275 267.196 66.0196 267.196 63ZM261.02 68.0784C260.333 68.3529 260.059 69.0392 260.196 69.7255C260.333 70 260.333 70.4118 260.333 70.6863C260.333 72.6078 258.824 74.1176 256.902 74.1176C255.118 74.1176 253.608 72.7451 253.471 70.8235C253.471 70.6863 253.471 70.6863 253.333 70.549V70.4118C253.333 70.2745 253.196 70.1373 253.196 70.1373C253.196 70.1373 253.196 70 253.059 70C252.922 69.8627 252.922 69.8627 252.784 69.7255C252.784 69.7255 252.647 69.7255 252.647 69.5882C252.51 69.5882 252.373 69.5882 252.373 69.451H252.235H252.098C251.961 69.451 251.961 69.451 251.824 69.5882C251.686 69.5882 251.686 69.7255 251.549 69.7255C251.412 69.7255 251.412 69.8627 251.275 69.8627L251.137 70C251.137 70.1373 251 70.1373 251 70.2745V70.4118C251 70.549 250.863 70.549 250.863 70.6863C250.725 72.4706 249.216 73.9804 247.431 73.9804C245.51 73.9804 244 72.4706 244 70.549C244 70.1373 244 69.8627 244.137 69.5882C244.412 68.902 244 68.2157 243.314 67.9412C241.118 67.2549 239.745 65.1961 239.745 63C239.745 60.8039 241.118 58.7451 243.176 57.9216C243.863 57.6471 244.275 56.8235 244 56.1373C243.863 55.8627 243.863 55.5882 243.863 55.1765C243.863 53.2549 245.373 51.7451 247.294 51.7451C249.216 51.7451 250.725 53.2549 250.725 55.1765V66.4314C250.725 67.2549 251.275 67.8039 252.098 67.8039C252.922 67.8039 253.471 67.2549 253.471 66.4314V55.1765C253.471 53.2549 254.98 51.7451 256.902 51.7451C258.824 51.7451 260.333 53.2549 260.333 55.1765C260.333 55.5882 260.333 55.8627 260.196 56.1373C259.922 56.8235 260.333 57.5098 261.02 57.7843C263.078 58.7451 264.451 60.6667 264.451 63C264.451 65.1961 263.078 67.2549 261.02 68.0784Z" fill="#ECECEC"/>
<rect x="339.5" y="29.5" width="67" height="67" rx="11.5" fill="#F9FBFF"/>
<rect x="339.5" y="29.5" width="67" height="67" rx="11.5" stroke="#ECECEC"/>
<path d="M386.227 65.1636H382.918V60.8364H386.227C386.991 60.8364 387.5 60.3273 387.5 59.5636C387.5 58.8 386.991 58.2909 386.227 58.2909H382.918V57.2727C382.918 55.2364 381.264 53.7091 379.355 53.7091H378.336V50.2727C378.336 49.5091 377.827 49 377.064 49C376.3 49 375.791 49.5091 375.791 50.2727V53.5818H371.336V50.2727C371.336 49.5091 370.827 49 370.064 49C369.3 49 368.791 49.5091 368.791 50.2727V53.5818H367.773C365.736 53.5818 364.209 55.2364 364.209 57.1455V58.1636H360.773C360.009 58.1636 359.5 58.6727 359.5 59.4364C359.5 60.2 360.009 60.7091 360.773 60.7091H364.082V65.1636H360.773C360.009 65.1636 359.5 65.6727 359.5 66.4364C359.5 67.2 360.009 67.7091 360.773 67.7091H364.082V68.7273C364.082 70.7636 365.736 72.2909 367.645 72.2909H368.664V75.7273C368.664 76.4909 369.173 77 369.936 77C370.7 77 371.209 76.4909 371.209 75.7273V72.4182H375.664V75.7273C375.664 76.4909 376.173 77 376.936 77C377.7 77 378.209 76.4909 378.209 75.7273V72.4182H379.227C381.264 72.4182 382.791 70.7636 382.791 68.8545V67.8364H386.227C386.991 67.8364 387.5 67.3273 387.5 66.5636C387.5 65.8 386.991 65.1636 386.227 65.1636ZM380.373 68.7273C380.373 69.3636 379.864 69.7455 379.355 69.7455H367.773C367.136 69.7455 366.755 69.2364 366.755 68.7273V57.2727C366.627 56.6364 367.136 56.1273 367.773 56.1273H379.355C379.991 56.1273 380.373 56.6364 380.373 57.1455V68.7273Z" fill="#ECECEC"/>
<rect x="-1.5" y="297.5" width="67" height="67" rx="11.5" fill="#F9FBFF"/>
<rect x="-1.5" y="297.5" width="67" height="67" rx="11.5" stroke="#ECECEC"/>
<path d="M27.9273 328.2C28.6909 328.2 29.2 327.691 29.2 326.927C29.2 325.4 30.4727 324.127 32 324.127C33.5273 324.127 34.8 325.4 34.8 326.927C34.8 327.691 35.3091 328.2 36.0727 328.2C36.8364 328.2 37.3455 327.691 37.3455 326.927C37.3455 324 34.9273 321.582 32 321.582C29.0727 321.582 26.6545 324 26.6545 326.927C26.6545 327.564 27.2909 328.2 27.9273 328.2Z" fill="#ECECEC"/>
<path d="M44.7273 329.727H19.2727C18.5091 329.727 18 330.236 18 331C18 331.764 18.5091 332.273 19.2727 332.273H25.7636C25 333.036 24.3636 333.927 23.9818 334.945C23.6 335.964 23.7273 337.109 24.2364 338C24.8727 338.891 25.8909 339.527 27.0364 339.527H36.7091C37.8545 339.527 38.8727 339.018 39.5091 338C40.1455 337.109 40.2727 335.964 39.7636 334.945C39.3818 333.927 38.7455 333.036 37.9818 332.273H44.7273C45.4909 332.273 46 331.764 46 331C46 330.236 45.4909 329.727 44.7273 329.727ZM37.6 335.964C37.7273 336.218 37.6 336.473 37.4727 336.6C37.3455 336.855 37.0909 336.982 36.7091 336.982H27.1636C26.9091 336.982 26.6545 336.855 26.4 336.6C26.2727 336.473 26.1455 336.218 26.2727 335.964C27.0364 334.055 28.8182 332.655 30.8545 332.273H32.8909C35.0545 332.655 36.8364 334.055 37.6 335.964Z" fill="#ECECEC"/>
<path d="M44.7273 335.455C43.9636 335.455 43.4545 335.964 43.4545 336.727V339.018C43.4545 340.927 41.9273 342.327 40.1455 342.327H37.8545C37.0909 342.327 36.5818 342.836 36.5818 343.6C36.5818 344.364 37.0909 344.873 37.8545 344.873H40.1455C43.4545 344.873 46 342.2 46 339.018V336.727C46 336.091 45.4909 335.455 44.7273 335.455Z" fill="#ECECEC"/>
<path d="M26.2727 342.455H23.8545C22.0727 342.455 20.5455 340.927 20.5455 339.145V336.855C20.5455 336.091 20.0364 335.582 19.2727 335.582C18.5091 335.582 18 336.091 18 336.855V339.145C18 342.327 20.6727 345 23.8545 345H26.1455C26.9091 345 27.4182 344.491 27.4182 343.727C27.4182 342.964 26.9091 342.455 26.2727 342.455Z" fill="#ECECEC"/>
<path d="M19.2727 326.545C20.0364 326.545 20.5455 326.036 20.5455 325.273V322.855C20.5455 321.073 22.0727 319.545 23.8545 319.545H26.1455C26.9091 319.545 27.4182 319.036 27.4182 318.273C27.4182 317.509 26.9091 317 26.2727 317H23.8545C20.6727 317 18 319.673 18 322.855V325.145C18 325.909 18.5091 326.545 19.2727 326.545Z" fill="#ECECEC"/>
<path d="M40.1455 317H37.8545C37.0909 317 36.5818 317.509 36.5818 318.273C36.5818 319.036 37.0909 319.545 37.8545 319.545H40.1455C41.9273 319.545 43.4545 321.073 43.4545 322.855V325.145C43.4545 325.909 43.9636 326.418 44.7273 326.418C45.4909 326.418 46 325.909 46 325.145V322.855C46 319.673 43.3273 317 40.1455 317Z" fill="#ECECEC"/>
<path d="M274 301L274 232" stroke="#ECECEC"/>
<path d="M308 302L308 295.5C308.001 286.663 315.164 279.5 324 279.5L558.999 279.5C567.836 279.5 574.999 286.664 574.999 295.5L574.999 431C574.999 437.904 569.403 443.5 562.499 443.5V443.5" stroke="#ECECEC"/>
<path d="M165 297L165 214C165 205.163 157.837 198 149 198L142 198" stroke="url(#paint11_linear_936_43190)" stroke-width="2"/>
<path d="M104 430V349C104 340.163 96.8366 333 88 333H66" stroke="#ECECEC"/>
<path d="M247 164L247 97" stroke="#ECECEC"/>
<path d="M375 97V97C375 103.627 369.627 109 363 109H277C268.163 109 261 116.163 261 125V164" stroke="#ECECEC"/>
<path d="M141 65H183C191.837 65 199 72.1635 199 81V297" stroke="url(#paint12_linear_936_43190)" stroke-width="2"/>
<path d="M378 344H328" stroke="#ECECEC"/>
<path d="M260 344L217 344" stroke="url(#paint13_linear_936_43190)" stroke-width="2"/>
<path d="M260 356H255.837C247.001 356 239.837 363.163 239.837 372V392.136C239.837 400.973 232.674 408.136 223.837 408.136H152C143.163 408.136 136 415.3 136 424.136V430" stroke="#ECECEC"/>
<path d="M280 369L280 430" stroke="#ECECEC"/>
<path d="M328 350L343.999 350C352.836 350 359.999 357.163 359.999 366L359.999 579" stroke="#ECECEC"/>
<path d="M328 356V356C336.837 356 344 363.163 344 372V543.349C344 552.185 336.837 559.349 328 559.349H258C249.163 559.349 242 566.512 242 575.349V582" stroke="#ECECEC"/>
</g>
<defs>
<filter id="filter0_d_936_43190" x="137" y="289" width="91" height="114" filterUnits="userSpaceOnUse" color-interpolation-filters="sRGB">
<feFlood flood-opacity="0" result="BackgroundImageFix"/>
<feColorMatrix in="SourceAlpha" type="matrix" values="0 0 0 0 0 0 0 0 0 0 0 0 0 0 0 0 0 0 127 0" result="hardAlpha"/>
<feOffset dx="1" dy="2"/>
<feGaussianBlur stdDeviation="5"/>
<feComposite in2="hardAlpha" operator="out"/>
<feColorMatrix type="matrix" values="0 0 0 0 0.00780001 0 0 0 0 0.045344 0 0 0 0 0.0800001 0 0 0 0.04 0"/>
<feBlend mode="normal" in2="BackgroundImageFix" result="effect1_dropShadow_936_43190"/>
<feBlend mode="normal" in="SourceGraphic" in2="effect1_dropShadow_936_43190" result="shape"/>
</filter>
<filter id="filter1_d_936_43190" x="251" y="293" width="88" height="114" filterUnits="userSpaceOnUse" color-interpolation-filters="sRGB">
<feFlood flood-opacity="0" result="BackgroundImageFix"/>
<feColorMatrix in="SourceAlpha" type="matrix" values="0 0 0 0 0 0 0 0 0 0 0 0 0 0 0 0 0 0 127 0" result="hardAlpha"/>
<feOffset dx="1" dy="2"/>
<feGaussianBlur stdDeviation="5"/>
<feComposite in2="hardAlpha" operator="out"/>
<feColorMatrix type="matrix" values="0 0 0 0 0.00780001 0 0 0 0 0.045344 0 0 0 0 0.0800001 0 0 0 0.04 0"/>
<feBlend mode="normal" in2="BackgroundImageFix" result="effect1_dropShadow_936_43190"/>
<feBlend mode="normal" in="SourceGraphic" in2="effect1_dropShadow_936_43190" result="shape"/>
</filter>
<filter id="filter2_d_936_43190" x="28" y="156" width="124" height="114" filterUnits="userSpaceOnUse" color-interpolation-filters="sRGB">
<feFlood flood-opacity="0" result="BackgroundImageFix"/>
<feColorMatrix in="SourceAlpha" type="matrix" values="0 0 0 0 0 0 0 0 0 0 0 0 0 0 0 0 0 0 127 0" result="hardAlpha"/>
<feOffset dx="1" dy="2"/>
<feGaussianBlur stdDeviation="5"/>
<feComposite in2="hardAlpha" operator="out"/>
<feColorMatrix type="matrix" values="0 0 0 0 0.00780001 0 0 0 0 0.045344 0 0 0 0 0.0800001 0 0 0 0.04 0"/>
<feBlend mode="normal" in2="BackgroundImageFix" result="effect1_dropShadow_936_43190"/>
<feBlend mode="normal" in="SourceGraphic" in2="effect1_dropShadow_936_43190" result="shape"/>
</filter>
<filter id="filter3_d_936_43190" x="27" y="21" width="125" height="130" filterUnits="userSpaceOnUse" color-interpolation-filters="sRGB">
<feFlood flood-opacity="0" result="BackgroundImageFix"/>
<feColorMatrix in="SourceAlpha" type="matrix" values="0 0 0 0 0 0 0 0 0 0 0 0 0 0 0 0 0 0 127 0" result="hardAlpha"/>
<feOffset dx="1" dy="2"/>
<feGaussianBlur stdDeviation="5"/>
<feComposite in2="hardAlpha" operator="out"/>
<feColorMatrix type="matrix" values="0 0 0 0 0.00780001 0 0 0 0 0.045344 0 0 0 0 0.0800001 0 0 0 0.04 0"/>
<feBlend mode="normal" in2="BackgroundImageFix" result="effect1_dropShadow_936_43190"/>
<feBlend mode="normal" in="SourceGraphic" in2="effect1_dropShadow_936_43190" result="shape"/>
</filter>
<radialGradient id="paint0_radial_936_43190" cx="0" cy="0" r="1" gradientUnits="userSpaceOnUse" gradientTransform="translate(182 335) rotate(99.7276) scale(17.7553)">
<stop offset="0.055" stop-color="#7A73FF"/>
<stop offset="0.65" stop-color="#67DDFA"/>
<stop offset="1" stop-color="#4AFCF1"/>
</radialGradient>
<radialGradient id="paint1_radial_936_43190" cx="0" cy="0" r="1" gradientUnits="userSpaceOnUse" gradientTransform="translate(182 335) rotate(99.7276) scale(17.7553)">
<stop offset="0.055" stop-color="#7A73FF"/>
<stop offset="0.65" stop-color="#67DDFA"/>
<stop offset="1" stop-color="#4AFCF1"/>
</radialGradient>
<radialGradient id="paint2_radial_936_43190" cx="0" cy="0" r="1" gradientUnits="userSpaceOnUse" gradientTransform="translate(293.6 339) rotate(98.7708) scale(17.7071 16.0233)">
<stop offset="0.055" stop-color="#7A73FF"/>
<stop offset="0.65" stop-color="#67DDFA"/>
<stop offset="1" stop-color="#4AFCF1"/>
</radialGradient>
<radialGradient id="paint3_radial_936_43190" cx="0" cy="0" r="1" gradientUnits="userSpaceOnUse" gradientTransform="translate(293.6 339) rotate(98.7708) scale(17.7071 16.0233)">
<stop offset="0.055" stop-color="#7A73FF"/>
<stop offset="0.65" stop-color="#67DDFA"/>
<stop offset="1" stop-color="#4AFCF1"/>
</radialGradient>
<radialGradient id="paint4_radial_936_43190" cx="0" cy="0" r="1" gradientUnits="userSpaceOnUse" gradientTransform="translate(293.6 339) rotate(98.7708) scale(17.7071 16.0233)">
<stop offset="0.055" stop-color="#7A73FF"/>
<stop offset="0.65" stop-color="#67DDFA"/>
<stop offset="1" stop-color="#4AFCF1"/>
</radialGradient>
<radialGradient id="paint5_radial_936_43190" cx="0" cy="0" r="1" gradientUnits="userSpaceOnUse" gradientTransform="translate(293.6 339) rotate(98.7708) scale(17.7071 16.0233)">
<stop offset="0.055" stop-color="#7A73FF"/>
<stop offset="0.65" stop-color="#67DDFA"/>
<stop offset="1" stop-color="#4AFCF1"/>
</radialGradient>
<radialGradient id="paint6_radial_936_43190" cx="0" cy="0" r="1" gradientUnits="userSpaceOnUse" gradientTransform="translate(293.6 339) rotate(98.7708) scale(17.7071 16.0233)">
<stop offset="0.055" stop-color="#7A73FF"/>
<stop offset="0.65" stop-color="#67DDFA"/>
<stop offset="1" stop-color="#4AFCF1"/>
</radialGradient>
<radialGradient id="paint7_radial_936_43190" cx="0" cy="0" r="1" gradientUnits="userSpaceOnUse" gradientTransform="translate(293.6 339) rotate(98.7708) scale(17.7071 16.0233)">
<stop offset="0.055" stop-color="#7A73FF"/>
<stop offset="0.65" stop-color="#67DDFA"/>
<stop offset="1" stop-color="#4AFCF1"/>
</radialGradient>
<radialGradient id="paint8_radial_936_43190" cx="0" cy="0" r="1" gradientUnits="userSpaceOnUse" gradientTransform="translate(88.9 202) rotate(100.679) scale(17.8084 19.4725)">
<stop offset="0.055" stop-color="#7A73FF"/>
<stop offset="0.65" stop-color="#67DDFA"/>
<stop offset="1" stop-color="#4AFCF1"/>
</radialGradient>
<radialGradient id="paint9_radial_936_43190" cx="0" cy="0" r="1" gradientUnits="userSpaceOnUse" gradientTransform="translate(88.9 202) rotate(100.679) scale(17.8084 19.4725)">
<stop offset="0.055" stop-color="#7A73FF"/>
<stop offset="0.65" stop-color="#67DDFA"/>
<stop offset="1" stop-color="#4AFCF1"/>
</radialGradient>
<radialGradient id="paint10_radial_936_43190" cx="0" cy="0" r="1" gradientUnits="userSpaceOnUse" gradientTransform="translate(88.5 67) rotate(99.7276) scale(17.7553)">
<stop offset="0.055" stop-color="#7A73FF"/>
<stop offset="0.65" stop-color="#67DDFA"/>
<stop offset="1" stop-color="#4AFCF1"/>
</radialGradient>
<linearGradient id="paint11_linear_936_43190" x1="107.24" y1="147.382" x2="228.205" y2="190.199" gradientUnits="userSpaceOnUse">
<stop offset="0.338542" stop-color="#7A73FF"/>
<stop offset="0.734375" stop-color="#75CDFF"/>
<stop offset="1" stop-color="#4AFCF1"/>
</linearGradient>
<linearGradient id="paint12_linear_936_43190" x1="231.625" y1="529" x2="96.609" y2="517.353" gradientUnits="userSpaceOnUse">
<stop offset="0.338542" stop-color="#7A73FF"/>
<stop offset="0.734375" stop-color="#75CDFF"/>
<stop offset="1" stop-color="#4AFCF1"/>
</linearGradient>
<linearGradient id="paint13_linear_936_43190" x1="192.813" y1="345" x2="193.269" y2="338.234" gradientUnits="userSpaceOnUse">
<stop offset="0.338542" stop-color="#7A73FF"/>
<stop offset="0.734375" stop-color="#75CDFF"/>
<stop offset="1" stop-color="#4AFCF1"/>
</linearGradient>
<clipPath id="clip0_936_43190">
<rect width="788" height="482" fill="white" transform="translate(-207)"/>
</clipPath>
</defs>
</svg>
