<svg width="342" height="480" viewBox="0 0 342 480" fill="none" xmlns="http://www.w3.org/2000/svg">
<g clip-path="url(#clip0_936_43186)">
<g filter="url(#filter0_d_936_43186)">
<rect x="67" y="299" width="88" height="90" rx="12" fill="white"/>
<path fill-rule="evenodd" clip-rule="evenodd" d="M111 353C119.837 353 127 345.837 127 337C127 331.866 124.582 327.297 120.823 324.37L118.181 322.698C116.022 321.612 113.582 321 111 321C102.163 321 95 328.163 95 337C95 345.837 102.163 353 111 353ZM118.181 322.698V330.292C116.317 328.202 113.622 326.889 110.625 326.889C104.999 326.889 100.437 331.517 100.437 337.226C100.437 342.935 104.999 347.563 110.625 347.563C113.622 347.563 116.317 346.25 118.181 344.16L118.107 346.311C118.097 346.614 118.339 346.864 118.642 346.864H120.358C120.654 346.864 120.893 346.624 120.892 346.328L120.823 324.37L118.181 322.698ZM118.606 337.226C118.606 341.525 115.166 345.01 110.922 345.01C106.679 345.01 103.239 341.525 103.239 337.226C103.239 332.927 106.679 329.441 110.922 329.441C115.166 329.441 118.606 332.927 118.606 337.226Z" fill="url(#paint0_radial_936_43186)"/>
<path d="M85.5128 365H88.5561C91.7331 365 93.0708 366.269 93.0708 369C93.0708 371.731 91.7331 373 88.5561 373H85.5128C85.2341 373 85 372.771 85 372.486V365.537C85 365.24 85.223 365 85.5128 365ZM88.5003 366.577H87.0512V371.423H88.5003C90.4958 371.423 91.0197 370.714 91.0197 369C91.0197 367.286 90.4958 366.577 88.5003 366.577Z" fill="#04101C"/>
<path d="M93.5415 372.486L94.9126 367.171C95.3697 365.4 96.9415 365 98.5244 365H101.456C101.724 365 101.924 365.24 101.924 365.514V372.486C101.924 372.771 101.69 373 101.412 373H100.386C100.096 373 99.8733 372.771 99.8733 372.474V371.069H96.0051L95.6372 372.474C95.5592 372.771 95.2805 373 94.9907 373H93.9205C93.6307 373 93.4634 372.771 93.5415 372.486ZM96.8857 367.697L96.4064 369.491H99.8733V366.577H98.3238C97.6215 366.577 97.0641 367.011 96.8857 367.697Z" fill="#04101C"/>
<path d="M105.815 372.486V370.143L102.905 365.526C102.738 365.263 102.816 365 103.095 365H104.131C104.577 365 104.89 365.229 105.079 365.526L106.84 368.314L108.602 365.526C108.791 365.229 109.103 365 109.549 365H110.586C110.865 365 110.943 365.263 110.775 365.526L107.866 370.143V372.486C107.866 372.771 107.632 373 107.353 373H106.328C106.049 373 105.815 372.771 105.815 372.486Z" fill="#04101C"/>
<path d="M113.23 373H112.271C111.993 373 111.759 372.76 111.759 372.474V365.526C111.759 365.24 111.981 365 112.26 365H113.865C114.133 365 114.445 365.263 114.612 365.526L117.901 370.714V365.514C117.901 365.229 118.135 365 118.414 365H119.35C119.64 365 119.863 365.229 119.863 365.526V372.474C119.863 372.76 119.64 373 119.35 373H117.544C117.254 373 116.931 372.76 116.753 372.474L113.743 367.686V372.474C113.743 372.76 113.509 373 113.23 373Z" fill="#04101C"/>
<path d="M128.214 365C128.493 365 128.727 365.229 128.727 365.526V366.051C128.727 366.349 128.493 366.577 128.214 366.577H123.477V368.2H127.557C127.835 368.2 128.069 368.44 128.069 368.726V369.251C128.069 369.537 127.835 369.777 127.557 369.777H123.477V371.423H128.203C128.482 371.423 128.705 371.651 128.705 371.937V372.474C128.705 372.76 128.482 373 128.192 373H121.938C121.648 373 121.426 372.76 121.426 372.463V365.514C121.426 365.229 121.66 365 121.938 365H128.214Z" fill="#04101C"/>
<path d="M129.576 365H136.487C136.777 365 137 365.229 137 365.526V366.051C137 366.349 136.777 366.577 136.487 366.577H134.057V372.486C134.057 372.771 133.823 373 133.544 373H132.519C132.24 373 132.006 372.771 132.006 372.486V366.577H129.576C129.286 366.577 129.063 366.349 129.063 366.051V365.526C129.063 365.229 129.286 365 129.576 365Z" fill="#04101C"/>
</g>
<rect x="-40.5" y="297.5" width="67" height="67" rx="11.5" fill="#F9FBFF"/>
<rect x="-40.5" y="297.5" width="67" height="67" rx="11.5" stroke="#ECECEC"/>
<path d="M3.96471 339.6H1C0.505884 337.8 -1.1 336.6 -3.07647 336.6C-5.42353 336.6 -7.4 338.52 -7.4 340.8C-7.4 343.08 -5.42353 345 -3.07647 345C-1.1 345 0.505884 343.8 1 342H3.96471C4.70588 342 5.2 341.4 5.2 340.8C5.2 340.08 4.70588 339.6 3.96471 339.6ZM-3.07647 342.6C-4.0647 342.6 -4.92941 341.76 -4.92941 340.8C-4.92941 339.84 -4.0647 339 -3.07647 339C-2.08823 339 -1.22353 339.84 -1.22353 340.8C-1.22353 341.76 -2.08823 342.6 -3.07647 342.6Z" fill="#ECECEC"/>
<path d="M-9.99149 339.4H-18.8085C-19.5234 339.4 -20 340.1 -20 340.8C-20 341.64 -19.4043 342.2 -18.8085 342.2H-9.99149C-9.2766 342.2 -8.8 341.5 -8.8 340.8C-8.8 339.96 -9.39574 339.4 -9.99149 339.4Z" fill="#ECECEC"/>
<path d="M-18.8085 322.6H-9.99149C-9.2766 322.6 -8.8 321.9 -8.8 321.2C-8.8 320.5 -9.39574 319.8 -9.99149 319.8H-18.8085C-19.5234 319.8 -20 320.5 -20 321.2C-20 321.9 -19.4043 322.6 -18.8085 322.6Z" fill="#ECECEC"/>
<path d="M-3.07647 325.4C-1.1 325.4 0.505884 324.2 1 322.4H3.96471C4.70588 322.4 5.2 321.8 5.2 321.2C5.2 320.6 4.58236 320 3.96471 320H1C0.505884 318.2 -1.1 317 -3.07647 317C-5.42353 317 -7.4 318.92 -7.4 321.2C-7.4 323.48 -5.42353 325.4 -3.07647 325.4ZM-3.07647 319.4C-2.08823 319.4 -1.22353 320.24 -1.22353 321.2C-1.22353 322.16 -2.08823 323 -3.07647 323C-4.0647 323 -4.92941 322.16 -4.92941 321.2C-4.92941 320.24 -4.0647 319.4 -3.07647 319.4Z" fill="#ECECEC"/>
<path d="M-18.7647 332.2H-15.8C-15.3059 333.88 -13.7 335.2 -11.7235 335.2C-9.37647 335.2 -7.4 333.28 -7.4 331C-7.4 328.72 -9.37647 326.8 -11.7235 326.8C-13.7 326.8 -15.3059 328 -15.8 329.8H-18.7647C-19.5059 329.8 -20 330.4 -20 331C-20 331.6 -19.3824 332.2 -18.7647 332.2ZM-11.7235 329.2C-10.7353 329.2 -9.87059 330.04 -9.87059 331C-9.87059 331.96 -10.7353 332.8 -11.7235 332.8C-12.7118 332.8 -13.5765 331.96 -13.5765 331C-13.5765 330.04 -12.7118 329.2 -11.7235 329.2Z" fill="#ECECEC"/>
<path d="M3.9957 329.6H-4.7957C-5.51828 329.6 -6 330.3 -6 331C-6 331.7 -5.39785 332.4 -4.7957 332.4H3.9957C4.71828 332.4 5.2 331.7 5.2 331C5.2 330.3 4.71828 329.6 3.9957 329.6Z" fill="#ECECEC"/>
<g filter="url(#filter1_d_936_43186)">
<rect x="195" y="164" width="115" height="94" rx="12" fill="white"/>
<path d="M265.1 190.8H239.9C239.06 190.8 238.5 190.24 238.5 189.4C238.5 188.56 239.06 188 239.9 188H265.1C265.94 188 266.5 188.56 266.5 189.4C266.5 190.24 265.94 190.8 265.1 190.8Z" fill="url(#paint1_radial_936_43186)"/>
<path d="M265.1 207.6H252.5C251.66 207.6 251.1 207.04 251.1 206.2C251.1 205.36 251.66 204.8 252.5 204.8H265.1C265.94 204.8 266.5 205.36 266.5 206.2C266.5 207.04 265.94 207.6 265.1 207.6Z" fill="url(#paint2_radial_936_43186)"/>
<path d="M265.1 199.2H252.5C251.66 199.2 251.1 198.64 251.1 197.8C251.1 196.96 251.66 196.4 252.5 196.4H265.1C265.94 196.4 266.5 196.96 266.5 197.8C266.5 198.64 265.94 199.2 265.1 199.2Z" fill="url(#paint3_radial_936_43186)"/>
<path d="M265.1 216H239.9C239.06 216 238.5 215.44 238.5 214.6C238.5 213.76 239.06 213.2 239.9 213.2H265.1C265.94 213.2 266.5 213.76 266.5 214.6C266.5 215.44 265.94 216 265.1 216Z" fill="url(#paint4_radial_936_43186)"/>
<path d="M241.02 209.14C240.6 209.14 240.18 209 239.9 208.86C239.06 208.44 238.5 207.6 238.5 206.62V197.38C238.5 196.4 239.06 195.56 239.9 195.14C240.74 194.72 241.72 194.86 242.56 195.42L248.72 200.04C249.28 200.46 249.7 201.16 249.7 202C249.7 202.84 249.28 203.54 248.72 204.1L242.56 208.72C242.14 209 241.58 209.14 241.02 209.14ZM241.3 197.94V206.06L246.76 202L241.3 197.94Z" fill="url(#paint5_radial_936_43186)"/>
<path d="M219.419 238L215.587 233.67L216.56 233.178L220.849 238H219.419ZM214.65 233.119H215.945L219.267 229.469H220.585L216.378 234.08H214.65V233.119ZM214.07 238V229.469H215.236V238H214.07ZM221.487 234.977V234.789C221.487 233.848 221.782 233.08 222.372 232.486C222.966 231.889 223.759 231.59 224.751 231.59C225.739 231.59 226.53 231.889 227.124 232.486C227.718 233.08 228.015 233.848 228.015 234.789V234.977C228.015 235.918 227.718 236.688 227.124 237.285C226.53 237.879 225.739 238.176 224.751 238.176C223.759 238.176 222.966 237.879 222.372 237.285C221.782 236.688 221.487 235.918 221.487 234.977ZM222.636 234.789V234.977C222.636 235.617 222.813 236.156 223.169 236.594C223.524 237.031 224.052 237.25 224.751 237.25C225.45 237.25 225.976 237.031 226.327 236.594C226.683 236.156 226.86 235.617 226.86 234.977V234.789C226.86 234.145 226.683 233.605 226.327 233.172C225.976 232.734 225.45 232.516 224.751 232.516C224.052 232.516 223.524 232.734 223.169 233.172C222.813 233.605 222.636 234.145 222.636 234.789ZM229.655 231.766H230.78V234.379H234.085V231.766H235.21V238H234.085V235.27H230.78V238H229.655V231.766ZM236.528 232.65V231.766H242.094V232.65H239.874V238H238.749V232.65H236.528ZM243.055 234.977V234.789C243.055 233.848 243.34 233.08 243.91 232.486C244.485 231.889 245.242 231.59 246.184 231.59C247.129 231.59 247.856 231.869 248.364 232.428C248.871 232.982 249.125 233.734 249.125 234.684V235.146H243.723V234.25H247.994V234.221C247.994 233.721 247.852 233.311 247.567 232.99C247.281 232.67 246.824 232.51 246.196 232.51C245.535 232.51 245.035 232.729 244.696 233.166C244.356 233.604 244.186 234.145 244.186 234.789V234.977C244.186 235.621 244.364 236.162 244.719 236.6C245.078 237.037 245.631 237.256 246.377 237.256C246.83 237.256 247.221 237.17 247.549 236.998C247.877 236.822 248.141 236.615 248.34 236.377L249.067 236.975C248.848 237.268 248.508 237.541 248.047 237.795C247.59 238.049 247.033 238.176 246.377 238.176C245.303 238.176 244.481 237.879 243.91 237.285C243.34 236.688 243.055 235.918 243.055 234.977ZM255.072 238L252.371 235.146L253.062 234.414L256.508 238H255.072ZM251.217 234.385H252.447L254.861 231.766H256.191L252.91 235.27H251.217V234.385ZM251.779 231.766V238H250.66V231.766H251.779ZM257.211 234.977V234.789C257.211 233.848 257.494 233.08 258.06 232.486C258.631 231.889 259.414 231.59 260.41 231.59C261.332 231.59 262.031 231.814 262.508 232.264C262.988 232.709 263.228 233.209 263.228 233.764V233.793H262.115V233.758C262.115 233.426 261.98 233.135 261.711 232.885C261.445 232.635 261.011 232.51 260.41 232.51C259.707 232.51 259.189 232.729 258.857 233.166C258.525 233.604 258.359 234.145 258.359 234.789V234.977C258.359 235.621 258.525 236.162 258.857 236.6C259.189 237.033 259.707 237.25 260.41 237.25C261.011 237.25 261.445 237.127 261.711 236.881C261.98 236.635 262.115 236.342 262.115 236.002V235.973H263.228V236.002C263.228 236.553 262.988 237.053 262.508 237.502C262.031 237.951 261.332 238.176 260.41 238.176C259.414 238.176 258.631 237.879 258.06 237.285C257.494 236.688 257.211 235.918 257.211 234.977ZM263.984 232.65V231.766H269.55V232.65H267.33V238H266.205V232.65H263.984ZM270.88 231.766H272.005V234.379H275.31V231.766H276.435V238H275.31V235.27H272.005V238H270.88V231.766ZM278.093 236.166C278.093 235.529 278.366 235.035 278.913 234.684C279.464 234.332 280.177 234.156 281.052 234.156H282.722V233.711C282.722 233.336 282.605 233.037 282.37 232.814C282.14 232.592 281.745 232.48 281.187 232.48C280.632 232.48 280.231 232.576 279.985 232.768C279.739 232.955 279.616 233.182 279.616 233.447V233.477H278.491V233.447C278.491 232.936 278.735 232.498 279.224 232.135C279.712 231.771 280.376 231.59 281.216 231.59C282.052 231.59 282.698 231.77 283.155 232.129C283.616 232.484 283.847 233.012 283.847 233.711V236.594C283.847 236.848 283.868 237.088 283.911 237.314C283.954 237.537 284.015 237.734 284.093 237.906V238H283.009C282.946 237.902 282.89 237.773 282.839 237.613C282.788 237.453 282.757 237.295 282.745 237.139C282.581 237.4 282.308 237.629 281.925 237.824C281.542 238.02 281.052 238.117 280.454 238.117C279.782 238.117 279.22 237.949 278.767 237.613C278.317 237.277 278.093 236.795 278.093 236.166ZM279.218 236.107C279.218 236.459 279.339 236.732 279.581 236.928C279.823 237.123 280.202 237.221 280.718 237.221C281.233 237.221 281.696 237.072 282.106 236.775C282.517 236.479 282.722 236.164 282.722 235.832V234.953H281.181C280.54 234.953 280.052 235.057 279.716 235.264C279.384 235.467 279.218 235.748 279.218 236.107ZM286.688 238H285.44L287.444 235.34L288.575 235.439L286.688 238ZM289.929 238V235.75H288.171L288.042 235.68C287.276 235.68 286.688 235.508 286.278 235.164C285.868 234.816 285.663 234.35 285.663 233.764C285.663 233.158 285.87 232.674 286.284 232.311C286.698 231.947 287.292 231.766 288.065 231.766H291.059V238H289.929ZM288.071 234.859H289.929V232.65H288.071C287.602 232.65 287.272 232.756 287.081 232.967C286.893 233.178 286.8 233.443 286.8 233.764C286.8 234.088 286.893 234.352 287.081 234.555C287.268 234.758 287.598 234.859 288.071 234.859Z" fill="#04101C"/>
</g>
<rect x="339.5" y="429.5" width="67" height="67" rx="11.5" fill="#F9FBFF"/>
<rect x="339.5" y="429.5" width="67" height="67" rx="11.5" stroke="#ECECEC"/>
<rect x="303.5" y="297.5" width="67" height="67" rx="11.5" fill="#F9FBFF"/>
<rect x="303.5" y="297.5" width="67" height="67" rx="11.5" stroke="#ECECEC"/>
<path d="M327.115 325.95C327.115 322.801 329.763 320.315 333.073 320.315C334.065 320.315 334.727 319.652 334.727 318.657C334.727 317.663 334.065 317 333.073 317C327.943 317 323.806 320.978 323.806 325.95V326.945C323.806 328.436 322.813 329.928 321.158 330.425C320.496 330.591 320 331.254 320 331.917C320 332.58 320.496 333.243 321.158 333.575C322.813 334.072 323.806 335.398 323.806 337.055V338.05C323.806 343.022 327.943 347 333.073 347C334.065 347 334.727 346.337 334.727 345.343C334.727 344.348 334.065 343.685 333.073 343.685C329.763 343.685 327.115 341.199 327.115 338.05V336.89C327.115 334.901 326.288 333.077 324.964 331.917C326.288 330.591 327.115 328.768 327.115 326.945V325.95Z" fill="#ECECEC"/>
<path d="M354.842 330.333C353.187 329.833 352.194 328.5 352.194 326.833V326C352.194 321 348.057 317 342.927 317C341.935 317 341.273 317.667 341.273 318.667C341.273 319.667 341.935 320.333 342.927 320.333C346.237 320.333 348.885 322.833 348.885 326V327C348.885 329 349.712 330.833 351.036 332C349.712 333.333 348.885 335.167 348.885 337V338C348.885 341.167 346.237 343.667 342.927 343.667C341.935 343.667 341.273 344.333 341.273 345.333C341.273 346.333 341.935 347 342.927 347C348.057 347 352.194 343 352.194 338V337C352.194 335.5 353.187 334 354.842 333.5C355.504 333.333 356 332.667 356 332C356 331.333 355.504 330.667 354.842 330.333Z" fill="#ECECEC"/>
<rect x="194.5" y="429.5" width="67" height="67" rx="11.5" fill="#F9FBFF"/>
<rect x="194.5" y="429.5" width="67" height="67" rx="11.5" stroke="#ECECEC"/>
<path d="M222.372 460.484C221.804 459.924 220.952 459.924 220.384 460.484C219.816 461.044 219.816 461.884 220.384 462.443L226.206 468.602C226.49 468.882 226.916 469.022 227.2 469.022C227.626 469.022 228.052 468.882 228.194 468.462L242.109 451.246C242.535 450.686 242.535 449.706 241.825 449.287C241.399 448.867 240.547 448.867 239.979 449.566L237.139 453.066C234.583 450.546 230.892 449.007 227.2 449.007C219.39 449.007 213 455.305 213 463.003C213 470.701 219.39 477 227.2 477C235.009 477 241.399 470.701 241.399 463.003C241.399 461.744 241.257 460.484 240.831 459.224C240.547 458.524 239.837 458.104 239.127 458.244C238.417 458.384 237.991 459.224 238.133 459.924C238.417 460.904 238.559 462.024 238.559 463.003C238.559 469.162 233.447 474.201 227.2 474.201C220.952 474.201 215.84 469.162 215.84 463.003C215.84 456.845 220.952 451.806 227.2 451.806C230.324 451.806 233.164 453.066 235.435 455.305L227.2 465.523L222.372 460.484Z" fill="#ECECEC"/>
<rect x="77.5" y="429.5" width="67" height="67" rx="11.5" fill="#F9FBFF"/>
<rect x="77.5" y="429.5" width="67" height="67" rx="11.5" stroke="#ECECEC"/>
<path fill-rule="evenodd" clip-rule="evenodd" d="M119.03 449.487C120.293 450.178 121.2 451.549 121.2 453.2V467.48C121.2 470.822 117.499 472.802 114.778 470.859C114.748 470.838 114.718 470.814 114.689 470.79L113.196 469.53C113.174 469.512 113.153 469.493 113.133 469.474C111.985 468.381 110.554 467.7 108.982 467.449V472.94C108.982 475.161 107.358 477 105.138 477C102.873 477 101.295 474.972 101.295 472.94V467.183C98.2757 466.494 96 463.636 96 460.34C96 458.484 96.655 456.697 98.056 455.413C99.1883 454.258 100.741 453.34 102.695 453.34H107.541C109.689 453.21 111.681 452.475 113.185 451.298L114.634 449.939C114.662 449.913 114.691 449.887 114.722 449.863C116.081 448.785 117.746 448.785 119.03 449.487ZM116.5 452.028L115.056 453.382C115.028 453.408 114.999 453.433 114.968 453.457C112.956 455.053 110.366 455.983 107.662 456.138C107.635 456.139 107.609 456.14 107.582 456.14H102.695C101.68 456.14 100.8 456.605 100.034 457.395C100.013 457.417 99.9901 457.439 99.967 457.46C99.2201 458.134 98.8 459.132 98.8 460.34C98.8 462.711 100.68 464.54 102.695 464.54C103.468 464.54 104.095 465.167 104.095 465.94V472.94C104.095 473.709 104.688 474.2 105.138 474.2C105.634 474.2 106.182 473.799 106.182 472.94V465.94C106.182 465.167 106.809 464.54 107.582 464.54C110.337 464.54 112.988 465.486 115.032 467.416L116.443 468.607C117.251 469.141 118.4 468.6 118.4 467.48V453.2C118.4 452.611 118.085 452.162 117.686 451.943C117.318 451.742 116.895 451.736 116.5 452.028Z" fill="#ECECEC"/>
<path fill-rule="evenodd" clip-rule="evenodd" d="M125.4 456C126.173 456 126.8 456.627 126.8 457.4V463C126.8 463.773 126.173 464.4 125.4 464.4C124.627 464.4 124 463.773 124 463V457.4C124 456.627 124.627 456 125.4 456Z" fill="#ECECEC"/>
<rect x="195.5" y="297.5" width="67" height="67" rx="11.5" fill="#F9FBFF"/>
<rect x="195.5" y="297.5" width="67" height="67" rx="11.5" stroke="#ECECEC"/>
<path d="M222.355 319H217.409C214.473 319 212 321.25 212 324.1V329.2C212 332.05 214.473 334.3 217.409 334.3H220.964C221.891 334.3 222.509 333.7 222.509 332.8C222.509 331.9 221.891 331.3 220.964 331.3H217.409C216.173 331.3 215.091 330.4 215.091 329.2V324.1C215.091 322.9 216.173 322 217.409 322H222.355C223.591 322 224.673 322.9 224.673 324.1V336.55C224.673 338.5 223.127 340 221.118 340H218.645C217.718 340 217.1 340.6 217.1 341.5C217.1 342.4 217.718 343 218.645 343H221.118C224.827 343 227.764 340.15 227.764 336.55V324.1C227.764 321.25 225.291 319 222.355 319Z" fill="#ECECEC"/>
<path d="M240.591 319H235.645C232.709 319 230.236 321.25 230.236 324.1V329.2C230.236 332.05 232.709 334.3 235.645 334.3H239.2C240.127 334.3 240.745 333.7 240.745 332.8C240.745 331.9 240.127 331.3 239.2 331.3H235.645C234.409 331.3 233.327 330.4 233.327 329.2V324.1C233.327 322.9 234.409 322 235.645 322H240.591C241.827 322 242.909 322.9 242.909 324.1V336.55C242.909 338.5 241.364 340 239.355 340H236.882C235.955 340 235.336 340.6 235.336 341.5C235.336 342.4 235.955 343 236.882 343H239.355C243.064 343 246 340.15 246 336.55V324.1C246 321.25 243.527 319 240.591 319Z" fill="#ECECEC"/>
<rect x="40.5" y="29.5" width="67" height="67" rx="11.5" fill="#F9FBFF"/>
<rect x="40.5" y="29.5" width="67" height="67" rx="11.5" stroke="#ECECEC"/>
<path d="M87.2273 65.1636H83.9182V60.8364H87.2273C87.9909 60.8364 88.5 60.3273 88.5 59.5636C88.5 58.8 87.9909 58.2909 87.2273 58.2909H83.9182V57.2727C83.9182 55.2364 82.2636 53.7091 80.3545 53.7091H79.3364V50.2727C79.3364 49.5091 78.8273 49 78.0636 49C77.3 49 76.7909 49.5091 76.7909 50.2727V53.5818H72.3364V50.2727C72.3364 49.5091 71.8273 49 71.0636 49C70.3 49 69.7909 49.5091 69.7909 50.2727V53.5818H68.7727C66.7364 53.5818 65.2091 55.2364 65.2091 57.1455V58.1636H61.7727C61.0091 58.1636 60.5 58.6727 60.5 59.4364C60.5 60.2 61.0091 60.7091 61.7727 60.7091H65.0818V65.1636H61.7727C61.0091 65.1636 60.5 65.6727 60.5 66.4364C60.5 67.2 61.0091 67.7091 61.7727 67.7091H65.0818V68.7273C65.0818 70.7636 66.7364 72.2909 68.6455 72.2909H69.6636V75.7273C69.6636 76.4909 70.1727 77 70.9364 77C71.7 77 72.2091 76.4909 72.2091 75.7273V72.4182H76.6636V75.7273C76.6636 76.4909 77.1727 77 77.9364 77C78.7 77 79.2091 76.4909 79.2091 75.7273V72.4182H80.2273C82.2636 72.4182 83.7909 70.7636 83.7909 68.8545V67.8364H87.2273C87.9909 67.8364 88.5 67.3273 88.5 66.5636C88.5 65.8 87.9909 65.1636 87.2273 65.1636ZM81.3727 68.7273C81.3727 69.3636 80.8636 69.7455 80.3545 69.7455H68.7727C68.1364 69.7455 67.7545 69.2364 67.7545 68.7273V57.2727C67.6273 56.6364 68.1364 56.1273 68.7727 56.1273H80.3545C80.9909 56.1273 81.3727 56.6364 81.3727 57.1455V68.7273Z" fill="#ECECEC"/>
<path d="M155 344H195" stroke="#ECECEC"/>
<path d="M261.5 463H271C279.837 463 287 455.837 287 447V274.994C287 266.158 294.163 258.994 303 258.994H371C379.837 258.994 387 251.831 387 242.994V231" stroke="#ECECEC"/>
<path d="M262 476L308 476C316.837 476 324 468.837 324 460L324 365" stroke="#ECECEC"/>
<path d="M135 211H193" stroke="#ECECEC" stroke-width="2"/>
<path d="M135 211H193" stroke="url(#paint6_linear_936_43186)" stroke-width="2"/>
<path d="M-7 297L-7 205C-7 200.582 -10.5817 197 -15 197V197" stroke="#ECECEC"/>
<path d="M261.5 447.5V447.5C268.403 447.5 273.999 441.903 273.999 435L273.999 295.5C273.999 286.663 266.836 279.5 257.999 279.5L23.0002 279.5C14.1639 279.5 7.00054 286.663 7.00016 295.499L7.00009 297" stroke="#ECECEC"/>
<path d="M74 97V97C74 103.627 68.6274 109 62 109H-24C-32.8366 109 -40 116.163 -40 125V164" stroke="#ECECEC"/>
<path d="M134.5 197.5L154.814 197.499C163.377 197.499 169.935 191.435 169.936 183.517L169.937 97.0003" stroke="#ECECEC" stroke-width="2"/>
<path d="M134.5 197.5L154.814 197.499C163.377 197.499 169.935 191.435 169.936 183.517L169.937 97.0003" stroke="url(#paint7_linear_936_43186)" stroke-width="2"/>
<path d="M67 344H27" stroke="#ECECEC"/>
<path d="M26.9998 353L32.9993 353C41.8359 353 48.9993 360.164 48.9993 369L48.9993 579" stroke="#ECECEC"/>
<path d="M-59 582V576.551C-59 567.715 -51.8366 560.551 -43 560.551H-4C4.83656 560.551 12 553.388 12 544.551L12 365" stroke="#ECECEC"/>
<path d="M111 299V244" stroke="url(#paint8_linear_936_43186)" stroke-width="2"/>
<path d="M111 389L111 429" stroke="#ECECEC" stroke-width="2"/>
<g filter="url(#filter2_d_936_43186)">
<rect x="67" y="176" width="90" height="94" rx="12" fill="white"/>
<path d="M118.409 220.045C117.864 220.045 117.455 219.773 117.182 219.364L115.546 216.5C114.864 215 113.501 213.636 112.001 212.818L109.137 211.182C108.728 211.045 108.455 210.5 108.455 210.091C108.455 209.545 108.728 209.136 109.137 208.864L112.001 207.227C113.501 206.409 114.864 205.182 115.682 203.545L117.319 200.682C117.455 200.273 118 200 118.409 200C118.955 200 119.364 200.273 119.637 200.682L121.273 203.545C122.091 205.045 123.455 206.409 124.955 207.227L127.818 208.864C128.227 209.136 128.5 209.545 128.5 210.091C128.5 210.636 128.227 211.045 127.818 211.318L124.955 212.955C123.455 213.773 122.091 215.136 121.273 216.636L119.637 219.5C119.364 219.773 118.955 220.045 118.409 220.045ZM112.682 210.091L113.364 210.5C115.41 211.591 117.046 213.227 118.137 215.273L118.546 215.955L118.955 215.273C120.046 213.227 121.682 211.591 123.727 210.5L124.409 210.091L123.727 209.682C121.682 208.591 120.046 206.955 118.955 204.909L118.546 204.227L118.137 204.909C117.046 206.955 115.41 208.591 113.364 209.682L112.682 210.091Z" fill="url(#paint9_radial_936_43186)"/>
<path d="M106 230C105.454 230 105.045 229.727 104.773 229.318L103.954 227.682C103.273 226.318 102.182 225.227 100.818 224.545L99.1818 223.727C98.7727 223.455 98.5 222.909 98.5 222.5C98.5 221.955 98.7727 221.545 99.1818 221.273L100.818 220.455C102.182 219.773 103.273 218.682 103.954 217.318L104.773 215.682C105.318 214.864 106.682 214.864 107.227 215.682L108.045 217.318C108.727 218.682 109.818 219.773 111.181 220.455L112.818 221.273C113.227 221.545 113.499 221.955 113.499 222.5C113.499 223.045 113.227 223.455 112.818 223.727L111.318 224.545C109.954 225.227 108.863 226.318 108.181 227.682L107.363 229.318C106.954 229.727 106.545 230 106 230ZM102.727 222.5C104.091 223.318 105.318 224.545 106.136 225.909C106.954 224.545 108.181 223.318 109.545 222.5C108.045 221.545 106.954 220.455 106 219.091C105.182 220.455 104.091 221.545 102.727 222.5Z" fill="url(#paint10_radial_936_43186)"/>
<path d="M86.196 250V241.469H89.2722C90.2956 241.469 91.0808 241.705 91.6277 242.178C92.1784 242.646 92.4538 243.277 92.4538 244.07C92.4538 244.859 92.1784 245.494 91.6277 245.975C91.0808 246.451 90.2956 246.689 89.2722 246.689H87.362V250H86.196ZM87.362 245.734H89.2722C90.0183 245.734 90.5398 245.574 90.8366 245.254C91.1374 244.934 91.2878 244.539 91.2878 244.07C91.2878 243.598 91.1374 243.207 90.8366 242.898C90.5398 242.586 90.0183 242.43 89.2722 242.43H87.362V245.734ZM93.52 246.977V246.789C93.52 245.848 93.8052 245.08 94.3755 244.486C94.9497 243.889 95.7075 243.59 96.6489 243.59C97.5942 243.59 98.3208 243.869 98.8286 244.428C99.3364 244.982 99.5903 245.734 99.5903 246.684V247.146H94.188V246.25H98.4595V246.221C98.4595 245.721 98.3169 245.311 98.0317 244.99C97.7466 244.67 97.2895 244.51 96.6606 244.51C96.0005 244.51 95.5005 244.729 95.1606 245.166C94.8208 245.604 94.6509 246.145 94.6509 246.789V246.977C94.6509 247.621 94.8286 248.162 95.1841 248.6C95.5434 249.037 96.0962 249.256 96.8423 249.256C97.2954 249.256 97.686 249.17 98.0141 248.998C98.3423 248.822 98.6059 248.615 98.8052 248.377L99.5317 248.975C99.313 249.268 98.9731 249.541 98.5122 249.795C98.0552 250.049 97.4985 250.176 96.8423 250.176C95.768 250.176 94.9458 249.879 94.3755 249.285C93.8052 248.688 93.52 247.918 93.52 246.977ZM105.537 250L102.836 247.146L103.528 246.414L106.973 250H105.537ZM101.682 246.385H102.912L105.326 243.766H106.656L103.375 247.27H101.682V246.385ZM102.244 243.766V250H101.125V243.766H102.244ZM109.674 244.65L109.568 247.135C109.521 248.186 109.377 248.947 109.135 249.42C108.896 249.893 108.484 250.129 107.898 250.129C107.754 250.129 107.627 250.119 107.518 250.1C107.408 250.084 107.316 250.059 107.242 250.023V249.057C107.309 249.084 107.377 249.104 107.447 249.115C107.521 249.127 107.605 249.133 107.699 249.133C107.996 249.133 108.201 248.98 108.314 248.676C108.432 248.367 108.506 247.803 108.537 246.982L108.678 243.766H113.488V250H112.363V244.65H109.674ZM115.152 248.166C115.152 247.529 115.426 247.035 115.972 246.684C116.523 246.332 117.236 246.156 118.111 246.156H119.781V245.711C119.781 245.336 119.664 245.037 119.429 244.814C119.199 244.592 118.804 244.48 118.246 244.48C117.691 244.48 117.291 244.576 117.045 244.768C116.799 244.955 116.676 245.182 116.676 245.447V245.477H115.551V245.447C115.551 244.936 115.795 244.498 116.283 244.135C116.771 243.771 117.435 243.59 118.275 243.59C119.111 243.59 119.758 243.77 120.215 244.129C120.676 244.484 120.906 245.012 120.906 245.711V248.594C120.906 248.848 120.927 249.088 120.97 249.314C121.013 249.537 121.074 249.734 121.152 249.906V250H120.068C120.006 249.902 119.949 249.773 119.898 249.613C119.847 249.453 119.816 249.295 119.804 249.139C119.64 249.4 119.367 249.629 118.984 249.824C118.601 250.02 118.111 250.117 117.513 250.117C116.842 250.117 116.279 249.949 115.826 249.613C115.377 249.277 115.152 248.795 115.152 248.166ZM116.277 248.107C116.277 248.459 116.398 248.732 116.64 248.928C116.883 249.123 117.261 249.221 117.777 249.221C118.293 249.221 118.756 249.072 119.166 248.775C119.576 248.479 119.781 248.164 119.781 247.832V246.953H118.24C117.599 246.953 117.111 247.057 116.775 247.264C116.443 247.467 116.277 247.748 116.277 248.107ZM122.904 250V243.766H124.457L126.419 248.084C126.525 248.318 126.591 248.479 126.619 248.564C126.65 248.646 126.675 248.734 126.695 248.828H126.759C126.779 248.734 126.802 248.646 126.83 248.564C126.857 248.479 126.923 248.322 127.029 248.096L129.003 243.766H130.527V250H129.437V245.734C129.437 245.504 129.439 245.338 129.443 245.236C129.451 245.135 129.46 245.043 129.472 244.961H129.425C129.406 245.039 129.38 245.127 129.349 245.225C129.318 245.322 129.253 245.479 129.156 245.693L127.187 250H126.197L124.222 245.676C124.14 245.488 124.082 245.342 124.046 245.236C124.011 245.131 123.986 245.039 123.97 244.961H123.912C123.919 245.043 123.927 245.135 123.935 245.236C123.943 245.334 123.947 245.488 123.947 245.699V250H122.904ZM132.191 248.166C132.191 247.529 132.464 247.035 133.011 246.684C133.562 246.332 134.275 246.156 135.15 246.156H136.82V245.711C136.82 245.336 136.702 245.037 136.468 244.814C136.238 244.592 135.843 244.48 135.284 244.48C134.73 244.48 134.329 244.576 134.083 244.768C133.837 244.955 133.714 245.182 133.714 245.447V245.477H132.589V245.447C132.589 244.936 132.833 244.498 133.322 244.135C133.81 243.771 134.474 243.59 135.314 243.59C136.15 243.59 136.796 243.77 137.253 244.129C137.714 244.484 137.945 245.012 137.945 245.711V248.594C137.945 248.848 137.966 249.088 138.009 249.314C138.052 249.537 138.113 249.734 138.191 249.906V250H137.107C137.044 249.902 136.988 249.773 136.937 249.613C136.886 249.453 136.855 249.295 136.843 249.139C136.679 249.4 136.406 249.629 136.023 249.824C135.64 250.02 135.15 250.117 134.552 250.117C133.88 250.117 133.318 249.949 132.865 249.613C132.415 249.277 132.191 248.795 132.191 248.166ZM133.316 248.107C133.316 248.459 133.437 248.732 133.679 248.928C133.921 249.123 134.3 249.221 134.816 249.221C135.331 249.221 135.794 249.072 136.204 248.775C136.615 248.479 136.82 248.164 136.82 247.832V246.953H135.279C134.638 246.953 134.15 247.057 133.814 247.264C133.482 247.467 133.316 247.748 133.316 248.107Z" fill="#04101C"/>
</g>
<g filter="url(#filter3_d_936_43186)">
<rect x="148" y="29" width="146" height="94" rx="12" fill="white"/>
<path d="M221 53C213.3 53 207 59.3 207 67C207 74.7 213.3 81 221 81C228.7 81 235 74.7 235 67C235 59.3 228.7 53 221 53ZM221 78.2C214.84 78.2 209.8 73.16 209.8 67C209.8 60.84 214.84 55.8 221 55.8C227.16 55.8 232.2 60.84 232.2 67C232.2 73.16 227.16 78.2 221 78.2Z" fill="url(#paint11_radial_936_43186)"/>
<path d="M228.7 71.76C227.72 70.78 226.6 70.08 225.34 69.52C226.32 68.4 227.02 67 227.02 65.32C227.02 61.96 224.36 59.3 221 59.3C217.64 59.3 214.98 61.96 214.98 65.32C214.98 67 215.68 68.4 216.66 69.52C215.4 70.08 214.28 70.78 213.3 71.76C212.74 72.32 212.74 73.16 213.3 73.72C213.58 74 214 74.14 214.28 74.14C214.7 74.14 214.98 74 215.26 73.72C216.8 72.18 218.76 71.34 221 71.34C223.1 71.34 225.2 72.18 226.74 73.72C227.3 74.28 228.14 74.28 228.7 73.72C229.26 73.16 229.26 72.32 228.7 71.76ZM217.78 65.32C217.78 63.5 219.18 62.1 221 62.1C222.82 62.1 224.22 63.5 224.22 65.32C224.22 67.14 222.82 68.54 221 68.54C219.18 68.54 217.78 67.14 217.78 65.32Z" fill="url(#paint12_radial_936_43186)"/>
<path d="M166.433 95.4297V94.4688H173.605V95.4297H170.599V103H169.439V95.4297H166.433ZM174.308 101.166C174.308 100.529 174.581 100.035 175.128 99.6836C175.679 99.332 176.392 99.1562 177.267 99.1562H178.937V98.7109C178.937 98.3359 178.82 98.0371 178.585 97.8145C178.355 97.5918 177.96 97.4805 177.402 97.4805C176.847 97.4805 176.447 97.5762 176.201 97.7676C175.955 97.9551 175.831 98.1816 175.831 98.4473V98.4766H174.706V98.4473C174.706 97.9355 174.951 97.498 175.439 97.1348C175.927 96.7715 176.591 96.5898 177.431 96.5898C178.267 96.5898 178.914 96.7695 179.371 97.1289C179.831 97.4844 180.062 98.0117 180.062 98.7109V101.594C180.062 101.848 180.083 102.088 180.126 102.314C180.169 102.537 180.23 102.734 180.308 102.906V103H179.224C179.162 102.902 179.105 102.773 179.054 102.613C179.003 102.453 178.972 102.295 178.96 102.139C178.796 102.4 178.523 102.629 178.14 102.824C177.757 103.02 177.267 103.117 176.669 103.117C175.997 103.117 175.435 102.949 174.982 102.613C174.533 102.277 174.308 101.795 174.308 101.166ZM175.433 101.107C175.433 101.459 175.554 101.732 175.796 101.928C176.039 102.123 176.417 102.221 176.933 102.221C177.449 102.221 177.912 102.072 178.322 101.775C178.732 101.479 178.937 101.164 178.937 100.832V99.9531H177.396C176.755 99.9531 176.267 100.057 175.931 100.264C175.599 100.467 175.433 100.748 175.433 101.107ZM182.06 105.438V96.7656H183.079L183.132 97.6211H183.155C183.343 97.3516 183.626 97.123 184.005 96.9355C184.384 96.7441 184.827 96.6484 185.335 96.6484C186.21 96.6484 186.909 96.9453 187.433 97.5391C187.96 98.1289 188.224 98.8789 188.224 99.7891V99.9766C188.224 100.883 187.96 101.633 187.433 102.227C186.909 102.82 186.21 103.117 185.335 103.117C184.827 103.117 184.396 103.035 184.04 102.871C183.685 102.707 183.4 102.49 183.185 102.221V105.438H182.06ZM183.185 101.084C183.325 101.373 183.558 101.631 183.882 101.857C184.206 102.08 184.601 102.191 185.066 102.191C185.757 102.191 186.263 101.98 186.583 101.559C186.907 101.133 187.07 100.605 187.07 99.9766V99.7891C187.07 99.1562 186.907 98.6289 186.583 98.207C186.263 97.7852 185.757 97.5742 185.066 97.5742C184.601 97.5742 184.206 97.6875 183.882 97.9141C183.562 98.1367 183.329 98.3926 183.185 98.6816V101.084ZM189.87 96.7656H194.347V97.6504H190.995V103H189.87V96.7656ZM195.307 99.9766V99.7891C195.307 98.8477 195.592 98.0801 196.163 97.4863C196.737 96.8887 197.495 96.5898 198.436 96.5898C199.382 96.5898 200.108 96.8691 200.616 97.4277C201.124 97.9824 201.378 98.7344 201.378 99.6836V100.146H195.975V99.25H200.247V99.2207C200.247 98.7207 200.104 98.3105 199.819 97.9902C199.534 97.6699 199.077 97.5098 198.448 97.5098C197.788 97.5098 197.288 97.7285 196.948 98.166C196.608 98.6035 196.438 99.1445 196.438 99.7891V99.9766C196.438 100.621 196.616 101.162 196.971 101.6C197.331 102.037 197.884 102.256 198.63 102.256C199.083 102.256 199.473 102.17 199.801 101.998C200.13 101.822 200.393 101.615 200.592 101.377L201.319 101.975C201.1 102.268 200.76 102.541 200.3 102.795C199.842 103.049 199.286 103.176 198.63 103.176C197.555 103.176 196.733 102.879 196.163 102.285C195.592 101.688 195.307 100.918 195.307 99.9766ZM202.221 97.6504V96.7656H207.788V97.6504H205.567V103H204.442V97.6504H202.221ZM209.117 103V96.7656H210.231V100.738C210.231 100.855 210.229 100.988 210.225 101.137C210.225 101.285 210.223 101.42 210.219 101.541H210.266C210.321 101.436 210.381 101.324 210.447 101.207C210.514 101.09 210.59 100.973 210.676 100.855L213.612 96.7656H214.742V103H213.623V99.0332C213.623 98.9121 213.625 98.7773 213.629 98.6289C213.633 98.4766 213.639 98.3398 213.647 98.2188H213.582C213.531 98.3203 213.473 98.4316 213.406 98.5527C213.34 98.6738 213.266 98.793 213.184 98.9102L210.248 103H209.117ZM216.752 105.438V96.7656H217.771L217.824 97.6211H217.848C218.035 97.3516 218.318 97.123 218.697 96.9355C219.076 96.7441 219.52 96.6484 220.027 96.6484C220.902 96.6484 221.602 96.9453 222.125 97.5391C222.652 98.1289 222.916 98.8789 222.916 99.7891V99.9766C222.916 100.883 222.652 101.633 222.125 102.227C221.602 102.82 220.902 103.117 220.027 103.117C219.52 103.117 219.088 103.035 218.732 102.871C218.377 102.707 218.092 102.49 217.877 102.221V105.438H216.752ZM217.877 101.084C218.018 101.373 218.25 101.631 218.574 101.857C218.898 102.08 219.293 102.191 219.758 102.191C220.449 102.191 220.955 101.98 221.275 101.559C221.6 101.133 221.762 100.605 221.762 99.9766V99.7891C221.762 99.1562 221.6 98.6289 221.275 98.207C220.955 97.7852 220.449 97.5742 219.758 97.5742C219.293 97.5742 218.898 97.6875 218.574 97.9141C218.254 98.1367 218.021 98.3926 217.877 98.6816V101.084ZM224.193 99.9766V99.7891C224.193 98.8477 224.488 98.0801 225.078 97.4863C225.672 96.8887 226.465 96.5898 227.457 96.5898C228.445 96.5898 229.236 96.8887 229.83 97.4863C230.424 98.0801 230.72 98.8477 230.72 99.7891V99.9766C230.72 100.918 230.424 101.688 229.83 102.285C229.236 102.879 228.445 103.176 227.457 103.176C226.465 103.176 225.672 102.879 225.078 102.285C224.488 101.688 224.193 100.918 224.193 99.9766ZM225.342 99.7891V99.9766C225.342 100.617 225.519 101.156 225.875 101.594C226.23 102.031 226.758 102.25 227.457 102.25C228.156 102.25 228.681 102.031 229.033 101.594C229.388 101.156 229.566 100.617 229.566 99.9766V99.7891C229.566 99.1445 229.388 98.6055 229.033 98.1719C228.681 97.7344 228.156 97.5156 227.457 97.5156C226.758 97.5156 226.23 97.7344 225.875 98.1719C225.519 98.6055 225.342 99.1445 225.342 99.7891ZM232.361 103V96.7656H235.484C236.195 96.7656 236.75 96.9043 237.148 97.1816C237.55 97.4551 237.751 97.8711 237.751 98.4297C237.751 98.7773 237.648 99.0684 237.441 99.3027C237.234 99.5371 236.957 99.6953 236.609 99.7773V99.7949C237.031 99.8574 237.363 100.012 237.605 100.258C237.847 100.5 237.968 100.811 237.968 101.189C237.968 101.76 237.757 102.205 237.335 102.525C236.914 102.842 236.355 103 235.66 103H232.361ZM233.486 99.3906H235.484C235.886 99.3906 236.175 99.3105 236.351 99.1504C236.527 98.9902 236.615 98.7695 236.615 98.4883C236.615 98.2148 236.527 98.0078 236.351 97.8672C236.175 97.7266 235.886 97.6543 235.484 97.6504H233.486V99.3906ZM233.486 102.115H235.66C236.066 102.115 236.363 102.031 236.55 101.863C236.742 101.695 236.837 101.469 236.837 101.184C236.837 100.906 236.744 100.686 236.556 100.521C236.369 100.354 236.07 100.27 235.66 100.27H233.486V102.115ZM239.327 101.166C239.327 100.529 239.601 100.035 240.148 99.6836C240.699 99.332 241.411 99.1562 242.286 99.1562H243.956V98.7109C243.956 98.3359 243.839 98.0371 243.605 97.8145C243.374 97.5918 242.98 97.4805 242.421 97.4805C241.866 97.4805 241.466 97.5762 241.22 97.7676C240.974 97.9551 240.851 98.1816 240.851 98.4473V98.4766H239.726V98.4473C239.726 97.9355 239.97 97.498 240.458 97.1348C240.947 96.7715 241.611 96.5898 242.45 96.5898C243.286 96.5898 243.933 96.7695 244.39 97.1289C244.851 97.4844 245.081 98.0117 245.081 98.7109V101.594C245.081 101.848 245.103 102.088 245.146 102.314C245.189 102.537 245.249 102.734 245.327 102.906V103H244.243C244.181 102.902 244.124 102.773 244.074 102.613C244.023 102.453 243.991 102.295 243.98 102.139C243.816 102.4 243.542 102.629 243.159 102.824C242.777 103.02 242.286 103.117 241.689 103.117C241.017 103.117 240.454 102.949 240.001 102.613C239.552 102.277 239.327 101.795 239.327 101.166ZM240.452 101.107C240.452 101.459 240.574 101.732 240.816 101.928C241.058 102.123 241.437 102.221 241.952 102.221C242.468 102.221 242.931 102.072 243.341 101.775C243.751 101.479 243.956 101.164 243.956 100.832V99.9531H242.415C241.775 99.9531 241.286 100.057 240.95 100.264C240.618 100.467 240.452 100.748 240.452 101.107ZM247.079 96.7656H248.204V99.3789H251.509V96.7656H252.634V103H251.509V100.27H248.204V103H247.079V96.7656ZM254.643 96.7656H255.768V99.3789H259.073V96.7656H260.198V103H259.073V100.27H255.768V103H254.643V96.7656ZM261.856 101.166C261.856 100.529 262.129 100.035 262.676 99.6836C263.227 99.332 263.94 99.1562 264.815 99.1562H266.485V98.7109C266.485 98.3359 266.368 98.0371 266.133 97.8145C265.903 97.5918 265.508 97.4805 264.95 97.4805C264.395 97.4805 263.995 97.5762 263.749 97.7676C263.503 97.9551 263.379 98.1816 263.379 98.4473V98.4766H262.254V98.4473C262.254 97.9355 262.499 97.498 262.987 97.1348C263.475 96.7715 264.139 96.5898 264.979 96.5898C265.815 96.5898 266.461 96.7695 266.919 97.1289C267.379 97.4844 267.61 98.0117 267.61 98.7109V101.594C267.61 101.848 267.631 102.088 267.674 102.314C267.717 102.537 267.778 102.734 267.856 102.906V103H266.772C266.71 102.902 266.653 102.773 266.602 102.613C266.551 102.453 266.52 102.295 266.508 102.139C266.344 102.4 266.071 102.629 265.688 102.824C265.305 103.02 264.815 103.117 264.217 103.117C263.545 103.117 262.983 102.949 262.53 102.613C262.081 102.277 261.856 101.795 261.856 101.166ZM262.981 101.107C262.981 101.459 263.102 101.732 263.344 101.928C263.586 102.123 263.965 102.221 264.481 102.221C264.997 102.221 265.46 102.072 265.87 101.775C266.28 101.479 266.485 101.164 266.485 100.832V99.9531H264.944C264.303 99.9531 263.815 100.057 263.479 100.264C263.147 100.467 262.981 100.748 262.981 101.107ZM270.451 103H269.203L271.207 100.34L272.338 100.439L270.451 103ZM273.692 103V100.75H271.934L271.805 100.68C271.039 100.68 270.451 100.508 270.041 100.164C269.631 99.8164 269.426 99.3496 269.426 98.7637C269.426 98.1582 269.633 97.6738 270.047 97.3105C270.461 96.9473 271.055 96.7656 271.828 96.7656H274.823V103H273.692ZM271.834 99.8594H273.692V97.6504H271.834C271.366 97.6504 271.035 97.7559 270.844 97.9668C270.657 98.1777 270.563 98.4434 270.563 98.7637C270.563 99.0879 270.657 99.3516 270.844 99.5547C271.032 99.7578 271.362 99.8594 271.834 99.8594Z" fill="#04101C"/>
</g>
</g>
<defs>
<filter id="filter0_d_936_43186" x="58" y="291" width="108" height="110" filterUnits="userSpaceOnUse" color-interpolation-filters="sRGB">
<feFlood flood-opacity="0" result="BackgroundImageFix"/>
<feColorMatrix in="SourceAlpha" type="matrix" values="0 0 0 0 0 0 0 0 0 0 0 0 0 0 0 0 0 0 127 0" result="hardAlpha"/>
<feOffset dx="1" dy="2"/>
<feGaussianBlur stdDeviation="5"/>
<feComposite in2="hardAlpha" operator="out"/>
<feColorMatrix type="matrix" values="0 0 0 0 0.00780001 0 0 0 0 0.045344 0 0 0 0 0.0800001 0 0 0 0.04 0"/>
<feBlend mode="normal" in2="BackgroundImageFix" result="effect1_dropShadow_936_43186"/>
<feBlend mode="normal" in="SourceGraphic" in2="effect1_dropShadow_936_43186" result="shape"/>
</filter>
<filter id="filter1_d_936_43186" x="186" y="156" width="135" height="114" filterUnits="userSpaceOnUse" color-interpolation-filters="sRGB">
<feFlood flood-opacity="0" result="BackgroundImageFix"/>
<feColorMatrix in="SourceAlpha" type="matrix" values="0 0 0 0 0 0 0 0 0 0 0 0 0 0 0 0 0 0 127 0" result="hardAlpha"/>
<feOffset dx="1" dy="2"/>
<feGaussianBlur stdDeviation="5"/>
<feComposite in2="hardAlpha" operator="out"/>
<feColorMatrix type="matrix" values="0 0 0 0 0.00780001 0 0 0 0 0.045344 0 0 0 0 0.0800001 0 0 0 0.04 0"/>
<feBlend mode="normal" in2="BackgroundImageFix" result="effect1_dropShadow_936_43186"/>
<feBlend mode="normal" in="SourceGraphic" in2="effect1_dropShadow_936_43186" result="shape"/>
</filter>
<filter id="filter2_d_936_43186" x="58" y="168" width="110" height="114" filterUnits="userSpaceOnUse" color-interpolation-filters="sRGB">
<feFlood flood-opacity="0" result="BackgroundImageFix"/>
<feColorMatrix in="SourceAlpha" type="matrix" values="0 0 0 0 0 0 0 0 0 0 0 0 0 0 0 0 0 0 127 0" result="hardAlpha"/>
<feOffset dx="1" dy="2"/>
<feGaussianBlur stdDeviation="5"/>
<feComposite in2="hardAlpha" operator="out"/>
<feColorMatrix type="matrix" values="0 0 0 0 0.00780001 0 0 0 0 0.045344 0 0 0 0 0.0800001 0 0 0 0.04 0"/>
<feBlend mode="normal" in2="BackgroundImageFix" result="effect1_dropShadow_936_43186"/>
<feBlend mode="normal" in="SourceGraphic" in2="effect1_dropShadow_936_43186" result="shape"/>
</filter>
<filter id="filter3_d_936_43186" x="139" y="21" width="166" height="114" filterUnits="userSpaceOnUse" color-interpolation-filters="sRGB">
<feFlood flood-opacity="0" result="BackgroundImageFix"/>
<feColorMatrix in="SourceAlpha" type="matrix" values="0 0 0 0 0 0 0 0 0 0 0 0 0 0 0 0 0 0 127 0" result="hardAlpha"/>
<feOffset dx="1" dy="2"/>
<feGaussianBlur stdDeviation="5"/>
<feComposite in2="hardAlpha" operator="out"/>
<feColorMatrix type="matrix" values="0 0 0 0 0.00780001 0 0 0 0 0.045344 0 0 0 0 0.0800001 0 0 0 0.04 0"/>
<feBlend mode="normal" in2="BackgroundImageFix" result="effect1_dropShadow_936_43186"/>
<feBlend mode="normal" in="SourceGraphic" in2="effect1_dropShadow_936_43186" result="shape"/>
</filter>
<radialGradient id="paint0_radial_936_43186" cx="0" cy="0" r="1" gradientUnits="userSpaceOnUse" gradientTransform="translate(123 321) rotate(120.7) scale(37.2156)">
<stop offset="0.338542" stop-color="#7A73FF"/>
<stop offset="0.722638" stop-color="#75CDFF"/>
<stop offset="1" stop-color="#4AFCF1"/>
</radialGradient>
<radialGradient id="paint1_radial_936_43186" cx="0" cy="0" r="1" gradientUnits="userSpaceOnUse" gradientTransform="translate(252.5 202) rotate(99.7276) scale(17.7553)">
<stop offset="0.055" stop-color="#7A73FF"/>
<stop offset="0.65" stop-color="#67DDFA"/>
<stop offset="1" stop-color="#4AFCF1"/>
</radialGradient>
<radialGradient id="paint2_radial_936_43186" cx="0" cy="0" r="1" gradientUnits="userSpaceOnUse" gradientTransform="translate(252.5 202) rotate(99.7276) scale(17.7553)">
<stop offset="0.055" stop-color="#7A73FF"/>
<stop offset="0.65" stop-color="#67DDFA"/>
<stop offset="1" stop-color="#4AFCF1"/>
</radialGradient>
<radialGradient id="paint3_radial_936_43186" cx="0" cy="0" r="1" gradientUnits="userSpaceOnUse" gradientTransform="translate(252.5 202) rotate(99.7276) scale(17.7553)">
<stop offset="0.055" stop-color="#7A73FF"/>
<stop offset="0.65" stop-color="#67DDFA"/>
<stop offset="1" stop-color="#4AFCF1"/>
</radialGradient>
<radialGradient id="paint4_radial_936_43186" cx="0" cy="0" r="1" gradientUnits="userSpaceOnUse" gradientTransform="translate(252.5 202) rotate(99.7276) scale(17.7553)">
<stop offset="0.055" stop-color="#7A73FF"/>
<stop offset="0.65" stop-color="#67DDFA"/>
<stop offset="1" stop-color="#4AFCF1"/>
</radialGradient>
<radialGradient id="paint5_radial_936_43186" cx="0" cy="0" r="1" gradientUnits="userSpaceOnUse" gradientTransform="translate(252.5 202) rotate(99.7276) scale(17.7553)">
<stop offset="0.055" stop-color="#7A73FF"/>
<stop offset="0.65" stop-color="#67DDFA"/>
<stop offset="1" stop-color="#4AFCF1"/>
</radialGradient>
<linearGradient id="paint6_linear_936_43186" x1="220" y1="210" x2="219.591" y2="216.772" gradientUnits="userSpaceOnUse">
<stop offset="0.338542" stop-color="#7A73FF"/>
<stop offset="0.734375" stop-color="#75CDFF"/>
<stop offset="1" stop-color="#4AFCF1"/>
</linearGradient>
<linearGradient id="paint7_linear_936_43186" x1="165.081" y1="-1.99998" x2="50.9712" y2="82.2246" gradientUnits="userSpaceOnUse">
<stop offset="0.338542" stop-color="#7A73FF"/>
<stop offset="0.734375" stop-color="#75CDFF"/>
<stop offset="1" stop-color="#4AFCF1"/>
</linearGradient>
<linearGradient id="paint8_linear_936_43186" x1="110" y1="213.063" x2="116.778" y2="213.42" gradientUnits="userSpaceOnUse">
<stop offset="0.338542" stop-color="#7A73FF"/>
<stop offset="0.734375" stop-color="#75CDFF"/>
<stop offset="1" stop-color="#4AFCF1"/>
</linearGradient>
<radialGradient id="paint9_radial_936_43186" cx="0" cy="0" r="1" gradientUnits="userSpaceOnUse" gradientTransform="translate(113.5 215) rotate(99.7276) scale(19.0235)">
<stop offset="0.055" stop-color="#7A73FF"/>
<stop offset="0.65" stop-color="#67DDFA"/>
<stop offset="1" stop-color="#4AFCF1"/>
</radialGradient>
<radialGradient id="paint10_radial_936_43186" cx="0" cy="0" r="1" gradientUnits="userSpaceOnUse" gradientTransform="translate(113.5 215) rotate(99.7276) scale(19.0235)">
<stop offset="0.055" stop-color="#7A73FF"/>
<stop offset="0.65" stop-color="#67DDFA"/>
<stop offset="1" stop-color="#4AFCF1"/>
</radialGradient>
<radialGradient id="paint11_radial_936_43186" cx="0" cy="0" r="1" gradientUnits="userSpaceOnUse" gradientTransform="translate(221 67) rotate(99.7276) scale(17.7553)">
<stop offset="0.055" stop-color="#7A73FF"/>
<stop offset="0.65" stop-color="#67DDFA"/>
<stop offset="1" stop-color="#4AFCF1"/>
</radialGradient>
<radialGradient id="paint12_radial_936_43186" cx="0" cy="0" r="1" gradientUnits="userSpaceOnUse" gradientTransform="translate(221 67) rotate(99.7276) scale(17.7553)">
<stop offset="0.055" stop-color="#7A73FF"/>
<stop offset="0.65" stop-color="#67DDFA"/>
<stop offset="1" stop-color="#4AFCF1"/>
</radialGradient>
<clipPath id="clip0_936_43186">
<rect width="342" height="480" fill="white"/>
</clipPath>
</defs>
</svg>
