<svg width="380" height="576" viewBox="0 0 380 576" fill="none" xmlns="http://www.w3.org/2000/svg">
<g clip-path="url(#clip0_928_56948)">
<rect x="299.5" y="160.5" width="67" height="67" rx="11.5" fill="#F9FBFF"/>
<rect x="299.5" y="160.5" width="67" height="67" rx="11.5" stroke="#ECECEC"/>
<path fill-rule="evenodd" clip-rule="evenodd" d="M333 210C341.837 210 349 202.837 349 194C349 188.866 346.582 184.297 342.823 181.37L340.181 179.698C338.022 178.612 335.582 178 333 178C324.163 178 317 185.163 317 194C317 202.837 324.163 210 333 210ZM340.181 179.698V187.292C338.317 185.202 335.622 183.889 332.625 183.889C326.999 183.889 322.437 188.517 322.437 194.226C322.437 199.935 326.999 204.563 332.625 204.563C335.622 204.563 338.317 203.25 340.181 201.16L340.107 203.311C340.097 203.614 340.339 203.864 340.642 203.864H342.358C342.654 203.864 342.893 203.624 342.892 203.328L342.823 181.37L340.181 179.698ZM340.606 194.226C340.606 198.525 337.166 202.01 332.922 202.01C328.679 202.01 325.239 198.525 325.239 194.226C325.239 189.927 328.679 186.441 332.922 186.441C337.166 186.441 340.606 189.927 340.606 194.226Z" fill="#ECECEC"/>
<rect x="299.5" y="20.5" width="67" height="67" rx="11.5" fill="#F9FBFF"/>
<rect x="299.5" y="20.5" width="67" height="67" rx="11.5" stroke="#ECECEC"/>
<path d="M339.409 60.0454C338.864 60.0454 338.455 59.7727 338.182 59.3636L336.546 56.5C335.864 55 334.501 53.6363 333.001 52.8182L330.137 51.1818C329.728 51.0454 329.455 50.5 329.455 50.0909C329.455 49.5454 329.728 49.1363 330.137 48.8636L333.001 47.2273C334.501 46.4091 335.864 45.1818 336.682 43.5454L338.319 40.6818C338.455 40.2727 339 40 339.409 40C339.955 40 340.364 40.2727 340.637 40.6818L342.273 43.5454C343.091 45.0454 344.455 46.4091 345.955 47.2273L348.818 48.8636C349.227 49.1363 349.5 49.5454 349.5 50.0909C349.5 50.6363 349.227 51.0454 348.818 51.3182L345.955 52.9545C344.455 53.7727 343.091 55.1363 342.273 56.6363L340.637 59.5C340.364 59.7727 339.955 60.0454 339.409 60.0454ZM333.682 50.0909L334.364 50.5C336.41 51.5909 338.046 53.2272 339.137 55.2727L339.546 55.9545L339.955 55.2727C341.046 53.2272 342.682 51.5909 344.727 50.5L345.409 50.0909L344.727 49.6818C342.682 48.5909 341.046 46.9545 339.955 44.9091L339.546 44.2273L339.137 44.9091C338.046 46.9545 336.41 48.5909 334.364 49.6818L333.682 50.0909Z" fill="#ECECEC"/>
<path d="M327 70C326.454 70 326.045 69.7273 325.773 69.3182L324.954 67.6818C324.273 66.3182 323.182 65.2273 321.818 64.5455L320.182 63.7273C319.773 63.4546 319.5 62.9091 319.5 62.5C319.5 61.9546 319.773 61.5455 320.182 61.2727L321.818 60.4546C323.182 59.7727 324.273 58.6818 324.954 57.3182L325.773 55.6818C326.318 54.8637 327.682 54.8637 328.227 55.6818L329.045 57.3182C329.727 58.6818 330.818 59.7727 332.181 60.4546L333.818 61.2727C334.227 61.5455 334.499 61.9546 334.499 62.5C334.499 63.0455 334.227 63.4546 333.818 63.7273L332.318 64.5455C330.954 65.2273 329.863 66.3182 329.181 67.6818L328.363 69.3182C327.954 69.7273 327.545 70 327 70ZM323.727 62.5C325.091 63.3182 326.318 64.5455 327.136 65.9091C327.954 64.5455 329.181 63.3182 330.545 62.5C329.045 61.5455 327.954 60.4546 327 59.0909C326.182 60.4546 325.091 61.5455 323.727 62.5Z" fill="#ECECEC"/>
<g filter="url(#filter0_d_928_56948)">
<rect x="139" y="15" width="113" height="94" rx="12" fill="white"/>
<path d="M206.232 39.4328C205.655 38.8557 204.789 38.8557 204.213 39.4328C203.636 40.01 203.636 40.8756 204.213 41.4527C206.809 44.0498 208.251 47.5124 208.251 51.2637C208.251 55.0149 206.809 58.4776 204.213 61.0746C201.616 63.6716 198.155 65.1144 194.404 65.1144C191.231 65.1144 188.058 63.9602 185.606 61.9403L187.481 59.9204C189.5 61.5075 191.952 62.2289 194.26 62.2289C197.145 62.2289 199.885 61.2189 202.049 59.0547C206.376 54.7264 206.376 47.6567 202.049 43.4726C197.722 39.1443 190.654 39.1443 186.471 43.4726C182.577 47.3682 182.144 53.5721 185.462 57.9005L182.433 61.0746C181.856 61.6517 181.856 62.5174 182.433 63.0945C185.606 66.2687 189.789 68 194.26 68C198.732 68 202.914 66.2687 206.088 63.0945C209.261 59.9204 210.992 55.7363 210.992 51.2637C211.136 46.791 209.405 42.607 206.232 39.4328ZM188.635 45.4925C190.222 43.9055 192.385 43.0398 194.404 43.0398C196.568 43.0398 198.587 43.9055 200.174 45.4925C203.347 48.6667 203.347 53.8607 200.174 57.0348C197.001 60.209 191.808 60.209 188.635 57.0348C185.462 53.8607 185.462 48.6667 188.635 45.4925Z" fill="url(#paint0_radial_928_56948)"/>
<path d="M158.133 89V80.4688H159.656L162.428 86.8848C162.479 87.002 162.527 87.125 162.574 87.2539C162.625 87.3789 162.67 87.4961 162.709 87.6055H162.756C162.791 87.4961 162.832 87.3789 162.879 87.2539C162.926 87.125 162.975 87.002 163.025 86.8848L165.779 80.4688H167.332V89H166.207V82.7305C166.207 82.6133 166.209 82.4824 166.213 82.3379C166.221 82.1895 166.232 82.0566 166.248 81.9395H166.195C166.164 82.0566 166.121 82.1895 166.066 82.3379C166.016 82.4824 165.965 82.6133 165.914 82.7305L163.231 89H162.193L159.492 82.7305C159.441 82.6133 159.391 82.4824 159.34 82.3379C159.293 82.1895 159.256 82.0566 159.229 81.9395H159.176C159.188 82.0566 159.197 82.1895 159.205 82.3379C159.217 82.4824 159.223 82.6133 159.223 82.7305V89H158.133ZM168.82 85.9766V85.7891C168.82 84.8477 169.115 84.0801 169.705 83.4863C170.299 82.8887 171.092 82.5898 172.084 82.5898C173.072 82.5898 173.863 82.8887 174.457 83.4863C175.051 84.0801 175.347 84.8477 175.347 85.7891V85.9766C175.347 86.918 175.051 87.6875 174.457 88.2852C173.863 88.8789 173.072 89.1758 172.084 89.1758C171.092 89.1758 170.299 88.8789 169.705 88.2852C169.115 87.6875 168.82 86.918 168.82 85.9766ZM169.969 85.7891V85.9766C169.969 86.6172 170.146 87.1562 170.502 87.5938C170.857 88.0312 171.385 88.25 172.084 88.25C172.783 88.25 173.308 88.0312 173.66 87.5938C174.015 87.1562 174.193 86.6172 174.193 85.9766V85.7891C174.193 85.1445 174.015 84.6055 173.66 84.1719C173.308 83.7344 172.783 83.5156 172.084 83.5156C171.385 83.5156 170.857 83.7344 170.502 84.1719C170.146 84.6055 169.969 85.1445 169.969 85.7891ZM176.988 82.7656H178.113V85.3789H181.418V82.7656H182.543V89H181.418V86.2695H178.113V89H176.988V82.7656ZM184.552 89V82.7656H185.665V86.7383C185.665 86.8555 185.663 86.9883 185.66 87.1367C185.66 87.2852 185.658 87.4199 185.654 87.541H185.701C185.755 87.4355 185.816 87.3242 185.882 87.207C185.949 87.0898 186.025 86.9727 186.111 86.8555L189.046 82.7656H190.177V89H189.058V85.0332C189.058 84.9121 189.06 84.7773 189.064 84.6289C189.068 84.4766 189.074 84.3398 189.081 84.2188H189.017C188.966 84.3203 188.908 84.4316 188.841 84.5527C188.775 84.6738 188.701 84.793 188.619 84.9102L185.683 89H184.552ZM191.495 83.6504V82.7656H197.062V83.6504H194.841V89H193.716V83.6504H191.495ZM198.022 85.9766V85.7891C198.022 84.8477 198.317 84.0801 198.907 83.4863C199.501 82.8887 200.294 82.5898 201.286 82.5898C202.274 82.5898 203.065 82.8887 203.659 83.4863C204.253 84.0801 204.55 84.8477 204.55 85.7891V85.9766C204.55 86.918 204.253 87.6875 203.659 88.2852C203.065 88.8789 202.274 89.1758 201.286 89.1758C200.294 89.1758 199.501 88.8789 198.907 88.2852C198.317 87.6875 198.022 86.918 198.022 85.9766ZM199.171 85.7891V85.9766C199.171 86.6172 199.349 87.1562 199.704 87.5938C200.059 88.0312 200.587 88.25 201.286 88.25C201.985 88.25 202.511 88.0312 202.862 87.5938C203.218 87.1562 203.395 86.6172 203.395 85.9766V85.7891C203.395 85.1445 203.218 84.6055 202.862 84.1719C202.511 83.7344 201.985 83.5156 201.286 83.5156C200.587 83.5156 200.059 83.7344 199.704 84.1719C199.349 84.6055 199.171 85.1445 199.171 85.7891ZM206.19 91.4375V82.7656H207.21L207.262 83.6211H207.286C207.473 83.3516 207.756 83.123 208.135 82.9355C208.514 82.7441 208.958 82.6484 209.465 82.6484C210.34 82.6484 211.04 82.9453 211.563 83.5391C212.09 84.1289 212.354 84.8789 212.354 85.7891V85.9766C212.354 86.8828 212.09 87.6328 211.563 88.2266C211.04 88.8203 210.34 89.1172 209.465 89.1172C208.958 89.1172 208.526 89.0352 208.171 88.8711C207.815 88.707 207.53 88.4902 207.315 88.2207V91.4375H206.19ZM207.315 87.084C207.456 87.373 207.688 87.6309 208.012 87.8574C208.337 88.0801 208.731 88.1914 209.196 88.1914C209.887 88.1914 210.393 87.9805 210.714 87.5586C211.038 87.1328 211.2 86.6055 211.2 85.9766V85.7891C211.2 85.1562 211.038 84.6289 210.714 84.207C210.393 83.7852 209.887 83.5742 209.196 83.5742C208.731 83.5742 208.337 83.6875 208.012 83.9141C207.692 84.1367 207.46 84.3926 207.315 84.6816V87.084ZM214 89V82.7656H215.114V86.7383C215.114 86.8555 215.112 86.9883 215.108 87.1367C215.108 87.2852 215.106 87.4199 215.102 87.541H215.149C215.204 87.4355 215.264 87.3242 215.33 87.207C215.397 87.0898 215.473 86.9727 215.559 86.8555L218.495 82.7656H219.625V89H218.506V85.0332C218.506 84.9121 218.508 84.7773 218.512 84.6289C218.516 84.4766 218.522 84.3398 218.53 84.2188H218.465C218.414 84.3203 218.356 84.4316 218.289 84.5527C218.223 84.6738 218.149 84.793 218.067 84.9102L215.131 89H214ZM221.635 82.7656H222.76V85.3789H226.065V82.7656H227.19V89H226.065V86.2695H222.76V89H221.635V82.7656ZM229.199 82.7656H233.676V83.6504H230.324V89H229.199V82.7656Z" fill="#04101C"/>
</g>
<g filter="url(#filter1_d_928_56948)">
<rect x="70" y="148" width="71" height="94" rx="12" fill="white"/>
<path d="M118.354 173.617C116.53 171.793 113.443 171.512 109.795 172.775C108.532 173.196 107.27 173.898 106.007 174.599C100.956 171.652 96.1858 171.091 93.6604 173.617C90.9946 176.143 91.6961 180.914 94.6425 185.967C91.5558 191.159 91.1349 195.93 93.6604 198.316C94.6425 199.439 96.1858 200 98.0098 200C100.395 200 103.201 199.018 106.007 197.334C108.813 199.018 111.619 200 114.004 200C115.828 200 117.231 199.439 118.354 198.456C120.879 195.93 120.318 191.159 117.372 186.107C120.458 180.774 120.879 176.003 118.354 173.617ZM110.637 175.441C113.303 174.459 115.267 174.599 116.389 175.582C117.652 176.845 117.372 179.932 115.688 183.3C114.706 182.037 113.724 180.774 112.461 179.511C111.198 178.248 109.936 177.266 108.673 176.283C109.374 176.003 110.076 175.582 110.637 175.441ZM95.6246 196.351C94.3619 195.088 94.6425 192.001 96.3261 188.633C97.3083 189.896 98.2904 191.159 99.5531 192.422C100.816 193.685 102.079 194.808 103.341 195.65C99.8337 197.474 96.8873 197.614 95.6246 196.351ZM116.389 196.351C115.127 197.614 112.18 197.334 108.532 195.65C109.795 194.667 111.058 193.545 112.321 192.422C112.882 191.861 113.443 191.299 113.864 190.738C114.425 190.177 114.285 189.335 113.724 188.773C113.162 188.212 112.321 188.352 111.759 188.914C111.339 189.475 110.777 189.896 110.356 190.457C108.953 191.861 107.41 193.124 106.007 194.106C104.604 193.124 103.061 191.861 101.658 190.457C95.4843 184.282 93.5201 177.687 95.6246 175.582C96.0455 175.02 96.8873 174.74 98.0098 174.74C99.4128 174.74 101.377 175.301 103.341 176.283C102.079 177.266 100.816 178.388 99.5531 179.511C98.9919 180.213 98.2904 180.914 97.7292 181.616C97.1679 182.177 97.3083 183.019 97.8695 183.581C98.4307 184.142 99.4128 184.002 99.8337 183.44C100.395 182.739 100.956 182.177 101.517 181.616C102.92 180.213 104.464 178.95 105.867 177.967C107.27 178.95 108.813 180.213 110.356 181.616C116.53 187.651 118.494 194.246 116.389 196.351Z" fill="url(#paint1_radial_928_56948)"/>
<path d="M106 188.24C107.237 188.24 108.24 187.237 108.24 186C108.24 184.763 107.237 183.76 106 183.76C104.763 183.76 103.76 184.763 103.76 186C103.76 187.237 104.763 188.24 106 188.24Z" fill="url(#paint2_radial_928_56948)"/>
<path d="M88.6048 219.656V219.586H89.765V219.65C89.765 220.162 89.9584 220.545 90.3451 220.799C90.7357 221.053 91.2826 221.18 91.9857 221.18C92.6849 221.18 93.2201 221.051 93.5912 220.793C93.9662 220.531 94.1537 220.188 94.1537 219.762C94.1537 219.379 93.9798 219.074 93.6322 218.848C93.2884 218.617 92.6009 218.371 91.5697 218.109C90.5267 217.844 89.8021 217.531 89.3959 217.172C88.9935 216.812 88.7923 216.299 88.7923 215.631C88.7923 214.963 89.0677 214.406 89.6185 213.961C90.1732 213.516 90.9408 213.293 91.9212 213.293C92.8978 213.293 93.6752 213.531 94.2533 214.008C94.8314 214.484 95.1205 215.076 95.1205 215.783V215.848H93.9603V215.783C93.9603 215.334 93.7884 214.973 93.4447 214.699C93.1048 214.426 92.597 214.289 91.9212 214.289C91.2455 214.289 90.7455 214.406 90.4212 214.641C90.1009 214.871 89.9408 215.186 89.9408 215.584C89.9408 215.951 90.1029 216.242 90.4271 216.457C90.7552 216.668 91.4134 216.896 92.4017 217.143C93.4369 217.404 94.1791 217.729 94.6283 218.115C95.0775 218.502 95.3021 219.049 95.3021 219.756C95.3021 220.463 95.0033 221.043 94.4056 221.496C93.8119 221.949 93.0052 222.176 91.9857 222.176C90.9623 222.176 90.142 221.951 89.5248 221.502C88.9115 221.049 88.6048 220.434 88.6048 219.656ZM97.0421 222V213.469H102.866V214.43H98.2081V217.119H102.286V218.08H98.2081V221.039H102.931V222H97.0421ZM104.595 222V213.469H107.624C108.616 213.469 109.384 213.697 109.927 214.154C110.47 214.611 110.741 215.225 110.741 215.994C110.741 216.764 110.47 217.383 109.927 217.852C109.384 218.32 108.616 218.555 107.624 218.555H105.761V222H104.595ZM105.761 217.605H107.624C108.354 217.605 108.862 217.451 109.147 217.143C109.432 216.83 109.575 216.447 109.575 215.994C109.575 215.541 109.432 215.166 109.147 214.869C108.862 214.568 108.354 214.418 107.624 214.418H105.761V217.605ZM109.886 222L107.647 218.068L108.843 217.922L111.216 222H109.886ZM112.721 222V213.469H114.245L117.016 219.885C117.067 220.002 117.116 220.125 117.163 220.254C117.214 220.379 117.258 220.496 117.297 220.605H117.344C117.38 220.496 117.421 220.379 117.467 220.254C117.514 220.125 117.563 220.002 117.614 219.885L120.368 213.469H121.921V222H120.796V215.73C120.796 215.613 120.797 215.482 120.801 215.338C120.809 215.189 120.821 215.057 120.837 214.939H120.784C120.753 215.057 120.71 215.189 120.655 215.338C120.604 215.482 120.553 215.613 120.503 215.73L117.819 222H116.782L114.081 215.73C114.03 215.613 113.979 215.482 113.928 215.338C113.881 215.189 113.844 215.057 113.817 214.939H113.764C113.776 215.057 113.786 215.189 113.794 215.338C113.805 215.482 113.811 215.613 113.811 215.73V222H112.721Z" fill="#04101C"/>
</g>
<g filter="url(#filter2_d_928_56948)">
<rect x="7" y="281" width="103" height="94" rx="12" fill="white"/>
<path fill-rule="evenodd" clip-rule="evenodd" d="M45.0487 311.284C42.7916 309.023 44.4122 305 47.6787 305H68.3254C71.5919 305 73.2124 309.023 70.9554 311.284C70.954 311.286 70.9527 311.287 70.9513 311.288L62.8012 319.548V326.769C62.8012 327.929 62.2378 329.159 61.1558 329.83L57.1579 332.575L57.1413 332.586C56.2509 333.179 55.226 333.077 54.4893 332.643C53.7679 332.217 53.2029 331.408 53.2029 330.415V319.548L45.0487 311.284ZM46.88 308.364C46.731 308.725 46.7991 309.075 47.0314 309.307L47.0386 309.314L55.5994 317.99C55.8579 318.252 56.0029 318.605 56.0029 318.973V329.972L59.6016 327.501C59.6254 327.484 59.6497 327.469 59.6744 327.454C59.8239 327.365 60.0012 327.103 60.0012 326.769V318.973C60.0012 318.605 60.1461 318.252 60.4047 317.99L68.9727 309.307C69.205 309.075 69.2731 308.725 69.1241 308.364C68.9781 308.01 68.6867 307.8 68.3254 307.8H47.6787C47.3174 307.8 47.026 308.01 46.88 308.364Z" fill="url(#paint3_radial_928_56948)"/>
<path d="M25.4541 355L28.9463 346.41H30.083L33.5752 355H32.3447L29.831 348.602C29.7646 348.441 29.706 348.289 29.6552 348.145C29.6084 348 29.5654 347.854 29.5263 347.705H29.4619C29.4228 347.854 29.3779 348 29.3271 348.145C29.2802 348.289 29.2236 348.441 29.1572 348.602L26.6259 355H25.4541ZM26.9248 352.797L27.3056 351.836L31.7002 351.842L32.0752 352.803L26.9248 352.797ZM34.4538 348.766H35.5788V351.379H38.8835V348.766H40.0085V355H38.8835V352.27H35.5788V355H34.4538V348.766ZM41.6665 353.166C41.6665 352.529 41.9399 352.035 42.4868 351.684C43.0376 351.332 43.7505 351.156 44.6255 351.156H46.2954V350.711C46.2954 350.336 46.1782 350.037 45.9438 349.814C45.7134 349.592 45.3188 349.48 44.7602 349.48C44.2055 349.48 43.8052 349.576 43.5591 349.768C43.313 349.955 43.1899 350.182 43.1899 350.447V350.477H42.0649V350.447C42.0649 349.936 42.3091 349.498 42.7973 349.135C43.2856 348.771 43.9497 348.59 44.7895 348.59C45.6255 348.59 46.272 348.77 46.729 349.129C47.1899 349.484 47.4204 350.012 47.4204 350.711V353.594C47.4204 353.848 47.4419 354.088 47.4848 354.314C47.5278 354.537 47.5884 354.734 47.6665 354.906V355H46.5825C46.52 354.902 46.4634 354.773 46.4126 354.613C46.3618 354.453 46.3305 354.295 46.3188 354.139C46.1548 354.4 45.8813 354.629 45.4985 354.824C45.1157 355.02 44.6255 355.117 44.0278 355.117C43.3559 355.117 42.7934 354.949 42.3403 354.613C41.8911 354.277 41.6665 353.795 41.6665 353.166ZM42.7915 353.107C42.7915 353.459 42.9126 353.732 43.1548 353.928C43.397 354.123 43.7759 354.221 44.2915 354.221C44.8071 354.221 45.27 354.072 45.6802 353.775C46.0903 353.479 46.2954 353.164 46.2954 352.832V351.953H44.7544C44.1138 351.953 43.6255 352.057 43.2895 352.264C42.9575 352.467 42.7915 352.748 42.7915 353.107ZM51.0471 349.65L50.9416 352.135C50.8948 353.186 50.7502 353.947 50.508 354.42C50.2698 354.893 49.8577 355.129 49.2717 355.129C49.1272 355.129 49.0002 355.119 48.8909 355.1C48.7815 355.084 48.6897 355.059 48.6155 355.023V354.057C48.6819 354.084 48.7502 354.104 48.8205 354.115C48.8948 354.127 48.9788 354.133 49.0725 354.133C49.3694 354.133 49.5745 353.98 49.6877 353.676C49.8049 353.367 49.8791 352.803 49.9104 351.982L50.051 348.766H54.8616V355H53.7366V349.65H51.0471ZM56.877 355V348.766H57.9902V352.738C57.9902 352.855 57.9883 352.988 57.9844 353.137C57.9844 353.285 57.9824 353.42 57.9785 353.541H58.0254C58.0801 353.436 58.1406 353.324 58.207 353.207C58.2734 353.09 58.3496 352.973 58.4355 352.855L61.3711 348.766H62.502V355H61.3828V351.033C61.3828 350.912 61.3848 350.777 61.3887 350.629C61.3926 350.477 61.3984 350.34 61.4062 350.219H61.3418C61.291 350.32 61.2324 350.432 61.166 350.553C61.0996 350.674 61.0254 350.793 60.9434 350.91L58.0078 355H56.877ZM63.8201 349.65V348.766H69.3865V349.65H67.1658V355H66.0408V349.65H63.8201ZM70.7163 355V348.766H71.8296V352.738C71.8296 352.855 71.8277 352.988 71.8237 353.137C71.8237 353.285 71.8218 353.42 71.8179 353.541H71.8648C71.9195 353.436 71.98 353.324 72.0464 353.207C72.1128 353.09 72.189 352.973 72.2749 352.855L75.2105 348.766H76.3413V355H75.2222V351.033C75.2222 350.912 75.2241 350.777 75.228 350.629C75.232 350.477 75.2378 350.34 75.2456 350.219H75.1812C75.1304 350.32 75.0718 350.432 75.0054 350.553C74.939 350.674 74.8648 350.793 74.7827 350.91L71.8472 355H70.7163ZM82.763 355L80.0618 352.146L80.7532 351.414L84.1985 355H82.763ZM78.9075 351.385H80.138L82.552 348.766H83.8821L80.6009 352.27H78.9075V351.385ZM79.47 348.766V355H78.3509V348.766H79.47ZM84.919 353.166C84.919 352.529 85.1924 352.035 85.7393 351.684C86.2901 351.332 87.003 351.156 87.878 351.156H89.5479V350.711C89.5479 350.336 89.4307 350.037 89.1963 349.814C88.9659 349.592 88.5713 349.48 88.0127 349.48C87.458 349.48 87.0577 349.576 86.8116 349.768C86.5655 349.955 86.4424 350.182 86.4424 350.447V350.477H85.3174V350.447C85.3174 349.936 85.5616 349.498 86.0498 349.135C86.5381 348.771 87.2022 348.59 88.042 348.59C88.878 348.59 89.5245 348.77 89.9815 349.129C90.4424 349.484 90.6729 350.012 90.6729 350.711V353.594C90.6729 353.848 90.6944 354.088 90.7373 354.314C90.7803 354.537 90.8409 354.734 90.919 354.906V355H89.835C89.7725 354.902 89.7159 354.773 89.6651 354.613C89.6143 354.453 89.583 354.295 89.5713 354.139C89.4073 354.4 89.1338 354.629 88.751 354.824C88.3682 355.02 87.878 355.117 87.2803 355.117C86.6084 355.117 86.0459 354.949 85.5928 354.613C85.1436 354.277 84.919 353.795 84.919 353.166ZM86.044 353.107C86.044 353.459 86.1651 353.732 86.4073 353.928C86.6495 354.123 87.0284 354.221 87.544 354.221C88.0596 354.221 88.5225 354.072 88.9327 353.775C89.3428 353.479 89.5479 353.164 89.5479 352.832V351.953H88.0069C87.3662 351.953 86.878 352.057 86.542 352.264C86.21 352.467 86.044 352.748 86.044 353.107Z" fill="#04101C"/>
</g>
<g filter="url(#filter3_d_928_56948)">
<rect x="150" y="281" width="99" height="110" rx="12" fill="white"/>
<path fill-rule="evenodd" clip-rule="evenodd" d="M197.416 305.491C198.888 304.836 200.533 304.836 202.005 305.491L202.027 305.502L209.896 309.188C209.906 309.193 209.916 309.197 209.926 309.202C211.689 310.085 212.733 312.025 212.389 314.105C211.734 318.165 209.753 326.169 202.41 332.053L202.396 332.064C200.794 333.312 198.627 333.312 197.024 332.064L197.011 332.053C189.665 326.168 187.685 318.161 187.032 314.102C187.027 314.073 187.023 314.044 187.021 314.015C186.858 312.218 187.658 310.102 189.654 309.187L197.386 305.505C197.396 305.5 197.406 305.496 197.416 305.491ZM198.465 307.811L190.739 311.489L190.719 311.499C189.941 311.853 189.478 312.763 189.552 313.744C190.175 317.577 192.013 324.782 198.595 330.061C199.274 330.586 200.146 330.586 200.826 330.061C207.435 324.761 209.261 317.517 209.876 313.697L209.877 313.691C210.038 312.726 209.566 311.876 208.799 311.485L200.959 307.812C200.154 307.457 199.27 307.457 198.465 307.811Z" fill="url(#paint4_radial_928_56948)"/>
<path fill-rule="evenodd" clip-rule="evenodd" d="M205.58 312.89C206.143 313.311 206.258 314.108 205.837 314.671L200.126 322.308C199.887 322.627 199.511 322.816 199.112 322.818C198.713 322.82 198.336 322.634 198.094 322.316L194.896 318.116C194.47 317.557 194.578 316.759 195.138 316.333C195.697 315.907 196.495 316.015 196.921 316.574L199.098 319.433L203.798 313.147C204.219 312.584 205.017 312.469 205.58 312.89Z" fill="url(#paint5_radial_928_56948)"/>
<path d="M183.542 350.951V350.518C183.542 349.182 183.91 348.145 184.644 347.406C185.378 346.664 186.32 346.293 187.468 346.293C188.62 346.293 189.564 346.664 190.298 347.406C191.033 348.145 191.4 349.182 191.4 350.518V350.951C191.4 352.287 191.033 353.326 190.298 354.068C189.564 354.807 188.62 355.176 187.468 355.176C186.32 355.176 185.378 354.807 184.644 354.068C183.91 353.326 183.542 352.287 183.542 350.951ZM184.72 350.951C184.72 351.967 184.97 352.76 185.47 353.33C185.974 353.896 186.642 354.18 187.474 354.18C188.302 354.18 188.968 353.896 189.472 353.33C189.976 352.76 190.228 351.967 190.228 350.951V350.518C190.228 349.502 189.976 348.711 189.472 348.145C188.968 347.574 188.302 347.289 187.474 347.289C186.642 347.289 185.974 347.574 185.47 348.145C184.97 348.711 184.72 349.502 184.72 350.518V350.951ZM193.345 355V346.469H196.374C197.366 346.469 198.134 346.697 198.677 347.154C199.22 347.611 199.491 348.225 199.491 348.994C199.491 349.764 199.22 350.383 198.677 350.852C198.134 351.32 197.366 351.555 196.374 351.555H194.511V355H193.345ZM194.511 350.605H196.374C197.105 350.605 197.612 350.451 197.898 350.143C198.183 349.83 198.325 349.447 198.325 348.994C198.325 348.541 198.183 348.166 197.898 347.869C197.612 347.568 197.105 347.418 196.374 347.418H194.511V350.605ZM198.636 355L196.398 351.068L197.593 350.922L199.966 355H198.636ZM201.472 355V346.469H202.995L205.766 352.885C205.817 353.002 205.866 353.125 205.913 353.254C205.964 353.379 206.009 353.496 206.048 353.605H206.095C206.13 353.496 206.171 353.379 206.218 353.254C206.265 353.125 206.313 353.002 206.364 352.885L209.118 346.469H210.671V355H209.546V348.73C209.546 348.613 209.548 348.482 209.552 348.338C209.559 348.189 209.571 348.057 209.587 347.939H209.534C209.503 348.057 209.46 348.189 209.405 348.338C209.354 348.482 209.304 348.613 209.253 348.73L206.569 355H205.532L202.831 348.73C202.78 348.613 202.729 348.482 202.679 348.338C202.632 348.189 202.595 348.057 202.567 347.939H202.515C202.526 348.057 202.536 348.189 202.544 348.338C202.556 348.482 202.561 348.613 202.561 348.73V355H201.472ZM212.294 351.824V350.793H215.762V351.824H212.294ZM168.827 367.977V367.789C168.827 366.848 169.11 366.08 169.677 365.486C170.247 364.889 171.03 364.59 172.026 364.59C172.948 364.59 173.647 364.814 174.124 365.264C174.604 365.709 174.845 366.209 174.845 366.764V366.793H173.731V366.758C173.731 366.426 173.597 366.135 173.327 365.885C173.061 365.635 172.628 365.51 172.026 365.51C171.323 365.51 170.806 365.729 170.474 366.166C170.142 366.604 169.976 367.145 169.976 367.789V367.977C169.976 368.621 170.142 369.162 170.474 369.6C170.806 370.033 171.323 370.25 172.026 370.25C172.628 370.25 173.061 370.127 173.327 369.881C173.597 369.635 173.731 369.342 173.731 369.002V368.973H174.845V369.002C174.845 369.553 174.604 370.053 174.124 370.502C173.647 370.951 172.948 371.176 172.026 371.176C171.03 371.176 170.247 370.879 169.677 370.285C169.11 369.688 168.827 368.918 168.827 367.977ZM175.6 365.65V364.766H181.167V365.65H178.946V371H177.821V365.65H175.6ZM182.497 373.438V364.766H183.516L183.569 365.621H183.592C183.78 365.352 184.063 365.123 184.442 364.936C184.821 364.744 185.264 364.648 185.772 364.648C186.647 364.648 187.346 364.945 187.87 365.539C188.397 366.129 188.661 366.879 188.661 367.789V367.977C188.661 368.883 188.397 369.633 187.87 370.227C187.346 370.82 186.647 371.117 185.772 371.117C185.264 371.117 184.833 371.035 184.477 370.871C184.122 370.707 183.836 370.49 183.622 370.221V373.438H182.497ZM183.622 369.084C183.762 369.373 183.995 369.631 184.319 369.857C184.643 370.08 185.038 370.191 185.502 370.191C186.194 370.191 186.7 369.98 187.02 369.559C187.344 369.133 187.506 368.605 187.506 367.977V367.789C187.506 367.156 187.344 366.629 187.02 366.207C186.7 365.785 186.194 365.574 185.502 365.574C185.038 365.574 184.643 365.688 184.319 365.914C183.999 366.137 183.766 366.393 183.622 366.682V369.084ZM189.955 369.166C189.955 368.529 190.229 368.035 190.776 367.684C191.326 367.332 192.039 367.156 192.914 367.156H194.584V366.711C194.584 366.336 194.467 366.037 194.233 365.814C194.002 365.592 193.608 365.48 193.049 365.48C192.494 365.48 192.094 365.576 191.848 365.768C191.602 365.955 191.479 366.182 191.479 366.447V366.477H190.354V366.447C190.354 365.936 190.598 365.498 191.086 365.135C191.574 364.771 192.239 364.59 193.078 364.59C193.914 364.59 194.561 364.77 195.018 365.129C195.479 365.484 195.709 366.012 195.709 366.711V369.594C195.709 369.848 195.731 370.088 195.774 370.314C195.817 370.537 195.877 370.734 195.955 370.906V371H194.871C194.809 370.902 194.752 370.773 194.701 370.613C194.651 370.453 194.619 370.295 194.608 370.139C194.444 370.4 194.17 370.629 193.787 370.824C193.405 371.02 192.914 371.117 192.317 371.117C191.645 371.117 191.082 370.949 190.629 370.613C190.18 370.277 189.955 369.795 189.955 369.166ZM191.08 369.107C191.08 369.459 191.201 369.732 191.444 369.928C191.686 370.123 192.065 370.221 192.58 370.221C193.096 370.221 193.559 370.072 193.969 369.775C194.379 369.479 194.584 369.164 194.584 368.832V367.953H193.043C192.403 367.953 191.914 368.057 191.578 368.264C191.246 368.467 191.08 368.748 191.08 369.107ZM197.016 365.65V364.766H202.582V365.65H200.361V371H199.236V365.65H197.016ZM203.543 367.977V367.789C203.543 366.848 203.828 366.08 204.398 365.486C204.972 364.889 205.73 364.59 206.672 364.59C207.617 364.59 208.344 364.869 208.851 365.428C209.359 365.982 209.613 366.734 209.613 367.684V368.146H204.211V367.25H208.482V367.221C208.482 366.721 208.34 366.311 208.054 365.99C207.769 365.67 207.312 365.51 206.683 365.51C206.023 365.51 205.523 365.729 205.183 366.166C204.844 366.604 204.674 367.145 204.674 367.789V367.977C204.674 368.621 204.851 369.162 205.207 369.6C205.566 370.037 206.119 370.256 206.865 370.256C207.318 370.256 207.709 370.17 208.037 369.998C208.365 369.822 208.629 369.615 208.828 369.377L209.554 369.975C209.336 370.268 208.996 370.541 208.535 370.795C208.078 371.049 207.521 371.176 206.865 371.176C205.791 371.176 204.969 370.879 204.398 370.285C203.828 369.688 203.543 368.918 203.543 367.977ZM211.148 364.766H215.625V365.65H212.273V371H211.148V364.766ZM216.954 371V364.766H218.068V368.738C218.068 368.855 218.066 368.988 218.062 369.137C218.062 369.285 218.06 369.42 218.056 369.541H218.103C218.158 369.436 218.218 369.324 218.284 369.207C218.351 369.09 218.427 368.973 218.513 368.855L221.449 364.766H222.579V371H221.46V367.033C221.46 366.912 221.462 366.777 221.466 366.629C221.47 366.477 221.476 366.34 221.484 366.219H221.419C221.368 366.32 221.31 366.432 221.243 366.553C221.177 366.674 221.103 366.793 221.021 366.91L218.085 371H216.954ZM225.433 371H224.185L226.189 368.34L227.319 368.439L225.433 371ZM228.673 371V368.75H226.915L226.786 368.68C226.021 368.68 225.433 368.508 225.022 368.164C224.612 367.816 224.407 367.35 224.407 366.764C224.407 366.158 224.614 365.674 225.028 365.311C225.442 364.947 226.036 364.766 226.81 364.766H229.804V371H228.673ZM226.815 367.859H228.673V365.65H226.815C226.347 365.65 226.017 365.756 225.825 365.967C225.638 366.178 225.544 366.443 225.544 366.764C225.544 367.088 225.638 367.352 225.825 367.555C226.013 367.758 226.343 367.859 226.815 367.859Z" fill="#04101C"/>
</g>
<g filter="url(#filter4_d_928_56948)">
<rect x="181" y="148" width="68" height="94" rx="12" fill="white"/>
<path d="M225.965 194.6H223C222.506 192.8 220.9 191.6 218.924 191.6C216.576 191.6 214.6 193.52 214.6 195.8C214.6 198.08 216.576 200 218.924 200C220.9 200 222.506 198.8 223 197H225.965C226.706 197 227.2 196.4 227.2 195.8C227.2 195.08 226.706 194.6 225.965 194.6ZM218.924 197.6C217.935 197.6 217.071 196.76 217.071 195.8C217.071 194.84 217.935 194 218.924 194C219.912 194 220.776 194.84 220.776 195.8C220.776 196.76 219.912 197.6 218.924 197.6Z" fill="url(#paint6_radial_928_56948)"/>
<path d="M212.009 194.4H203.191C202.477 194.4 202 195.1 202 195.8C202 196.64 202.596 197.2 203.191 197.2H212.009C212.723 197.2 213.2 196.5 213.2 195.8C213.2 194.96 212.604 194.4 212.009 194.4Z" fill="url(#paint7_radial_928_56948)"/>
<path d="M203.191 177.6H212.009C212.723 177.6 213.2 176.9 213.2 176.2C213.2 175.5 212.604 174.8 212.009 174.8H203.191C202.477 174.8 202 175.5 202 176.2C202 176.9 202.596 177.6 203.191 177.6Z" fill="url(#paint8_radial_928_56948)"/>
<path d="M218.924 180.4C220.9 180.4 222.506 179.2 223 177.4H225.965C226.706 177.4 227.2 176.8 227.2 176.2C227.2 175.6 226.582 175 225.965 175H223C222.506 173.2 220.9 172 218.924 172C216.576 172 214.6 173.92 214.6 176.2C214.6 178.48 216.576 180.4 218.924 180.4ZM218.924 174.4C219.912 174.4 220.776 175.24 220.776 176.2C220.776 177.16 219.912 178 218.924 178C217.935 178 217.071 177.16 217.071 176.2C217.071 175.24 217.935 174.4 218.924 174.4Z" fill="url(#paint9_radial_928_56948)"/>
<path d="M203.235 187.2H206.2C206.694 188.88 208.3 190.2 210.276 190.2C212.624 190.2 214.6 188.28 214.6 186C214.6 183.72 212.624 181.8 210.276 181.8C208.3 181.8 206.694 183 206.2 184.8H203.235C202.494 184.8 202 185.4 202 186C202 186.6 202.618 187.2 203.235 187.2ZM210.276 184.2C211.265 184.2 212.129 185.04 212.129 186C212.129 186.96 211.265 187.8 210.276 187.8C209.288 187.8 208.424 186.96 208.424 186C208.424 185.04 209.288 184.2 210.276 184.2Z" fill="url(#paint10_radial_928_56948)"/>
<path d="M225.996 184.6H217.204C216.482 184.6 216 185.3 216 186C216 186.7 216.602 187.4 217.204 187.4H225.996C226.718 187.4 227.2 186.7 227.2 186C227.2 185.3 226.718 184.6 225.996 184.6Z" fill="url(#paint11_radial_928_56948)"/>
<path d="M201.272 217.951V217.518C201.272 216.182 201.639 215.145 202.373 214.406C203.108 213.664 204.049 213.293 205.198 213.293C206.35 213.293 207.293 213.664 208.028 214.406C208.762 215.145 209.129 216.182 209.129 217.518V217.951C209.129 219.287 208.762 220.326 208.028 221.068C207.293 221.807 206.35 222.176 205.198 222.176C204.049 222.176 203.108 221.807 202.373 221.068C201.639 220.326 201.272 219.287 201.272 217.951ZM202.449 217.951C202.449 218.967 202.699 219.76 203.199 220.33C203.703 220.896 204.371 221.18 205.203 221.18C206.031 221.18 206.698 220.896 207.201 220.33C207.705 219.76 207.957 218.967 207.957 217.951V217.518C207.957 216.502 207.705 215.711 207.201 215.145C206.698 214.574 206.031 214.289 205.203 214.289C204.371 214.289 203.703 214.574 203.199 215.145C202.699 215.711 202.449 216.502 202.449 217.518V217.951ZM211.074 222V213.469H214.104C215.096 213.469 215.863 213.697 216.406 214.154C216.949 214.611 217.221 215.225 217.221 215.994C217.221 216.764 216.949 217.383 216.406 217.852C215.863 218.32 215.096 218.555 214.104 218.555H212.24V222H211.074ZM212.24 217.605H214.104C214.834 217.605 215.342 217.451 215.627 217.143C215.912 216.83 216.055 216.447 216.055 215.994C216.055 215.541 215.912 215.166 215.627 214.869C215.342 214.568 214.834 214.418 214.104 214.418H212.24V217.605ZM216.365 222L214.127 218.068L215.322 217.922L217.695 222H216.365ZM219.201 222V213.469H220.724L223.496 219.885C223.547 220.002 223.595 220.125 223.642 220.254C223.693 220.379 223.738 220.496 223.777 220.605H223.824C223.859 220.496 223.9 220.379 223.947 220.254C223.994 220.125 224.043 220.002 224.094 219.885L226.847 213.469H228.4V222H227.275V215.73C227.275 215.613 227.277 215.482 227.281 215.338C227.289 215.189 227.301 215.057 227.316 214.939H227.263C227.232 215.057 227.189 215.189 227.135 215.338C227.084 215.482 227.033 215.613 226.982 215.73L224.299 222H223.261L220.56 215.73C220.51 215.613 220.459 215.482 220.408 215.338C220.361 215.189 220.324 215.057 220.297 214.939H220.244C220.256 215.057 220.265 215.189 220.273 215.338C220.285 215.482 220.291 215.613 220.291 215.73V222H219.201Z" fill="#04101C"/>
</g>
<rect x="-4.5" y="15.5" width="67" height="67" rx="11.5" fill="#F9FBFF"/>
<rect x="-4.5" y="15.5" width="67" height="67" rx="11.5" stroke="#ECECEC"/>
<path d="M33.8 56.14C33.8 55.3 33.24 54.74 32.4 54.74H18.26C17.14 54.74 16.3 53.9 16.3 52.78V45.22C16.3 44.1 17.14 43.26 18.26 43.26H32.4C33.24 43.26 33.8 42.7 33.8 41.86C33.8 41.02 33.24 40.46 32.4 40.46H18.26C15.6 40.46 13.5 42.56 13.5 45.22V52.78C13.5 55.44 15.6 57.54 18.26 57.54H32.4C33.1 57.54 33.8 56.98 33.8 56.14Z" fill="#ECECEC"/>
<path d="M39.54 40.46H38.28V37.8H40.38C41.22 37.8 41.78 37.24 41.78 36.4C41.78 35.56 41.22 35 40.38 35H33.52C32.68 35 32.12 35.56 32.12 36.4C32.12 37.24 32.68 37.8 33.52 37.8H35.62V60.2H33.52C32.68 60.2 32.12 60.76 32.12 61.6C32.12 62.44 32.68 63 33.52 63H40.38C41.22 63 41.78 62.44 41.78 61.6C41.78 60.76 41.22 60.2 40.38 60.2H38.28V57.54H39.54C42.2 57.54 44.3 55.44 44.3 52.78V45.22C44.3 42.56 42.2 40.46 39.54 40.46ZM41.5 52.78C41.5 53.9 40.66 54.74 39.54 54.74H38.28V43.26H39.54C40.66 43.26 41.5 44.1 41.5 45.22V52.78Z" fill="#ECECEC"/>
<rect x="-22.5" y="430.5" width="67" height="67" rx="11.5" fill="#F9FBFF"/>
<rect x="-22.5" y="430.5" width="67" height="67" rx="11.5" stroke="#ECECEC"/>
<path d="M10.3883 475.97H2.1293C1.40482 475.97 0.680344 475.537 0.390553 474.96C-0.0441332 474.383 -0.0441332 473.806 0.245658 473.085C1.9844 469.045 5.89658 466.303 10.3883 466.303C14.8801 466.303 18.6474 462.552 18.6474 458.08C18.6474 453.607 14.8801 450 10.2434 450C5.75169 450 1.9844 453.751 1.9844 458.224C1.9844 460.821 3.14357 463.129 5.02721 464.572C1.69461 465.871 -1.2033 468.612 -2.65225 472.075C-3.23183 473.517 -3.08694 475.249 -2.21756 476.547C-1.2033 477.99 0.245658 478.856 1.9844 478.856H10.2434C11.1128 478.856 11.6924 478.279 11.6924 477.413C11.6924 476.547 11.1128 475.97 10.3883 475.97ZM4.88231 458.224C4.88231 455.338 7.34553 452.886 10.2434 452.886C13.1414 452.886 15.6046 455.338 15.6046 458.224C15.6046 461.109 13.1414 463.562 10.2434 463.562C7.34553 463.562 4.88231 461.109 4.88231 458.224Z" fill="#ECECEC"/>
<path d="M25.4575 465.582C24.733 465.149 23.8636 465.294 23.4289 466.015L17.3433 474.96L15.025 471.93C14.5903 471.353 13.576 471.209 12.9965 471.642C12.4169 472.075 12.272 473.085 12.7067 473.662L16.3291 478.423C16.6188 478.856 17.0535 479 17.4882 479C17.9229 479 18.3576 478.711 18.6474 478.423L25.7473 467.746C26.1819 466.881 26.037 466.015 25.4575 465.582Z" fill="#ECECEC"/>
<g filter="url(#filter5_d_928_56948)">
<rect x="118" y="433" width="88" height="94" rx="12" fill="white"/>
<path d="M151.02 485C150.32 485 149.76 484.72 149.2 484.3C148.5 483.6 148.36 482.62 148.64 481.78L150.04 477.44C149.06 475.48 148.5 473.24 148.5 471C148.5 463.3 154.8 457 162.5 457C170.2 457 176.5 463.3 176.5 471C176.5 478.7 170.2 485 162.5 485C160.26 485 158.02 484.44 156.06 483.46L151.72 484.86C151.58 485 151.3 485 151.02 485ZM156.9 480.66C158.58 481.64 160.54 482.2 162.5 482.2C168.66 482.2 173.7 477.16 173.7 471C173.7 464.84 168.66 459.8 162.5 459.8C156.34 459.8 151.3 464.84 151.3 471C151.3 472.96 151.86 474.92 152.84 476.6C152.98 476.88 153.12 477.3 152.98 477.72L151.58 482.06L155.92 480.66C155.92 480.66 156.763 480.592 156.9 480.66Z" fill="url(#paint12_radial_928_56948)"/>
<path d="M162.5 473.24C163.737 473.24 164.74 472.237 164.74 471C164.74 469.763 163.737 468.76 162.5 468.76C161.263 468.76 160.26 469.763 160.26 471C160.26 472.237 161.263 473.24 162.5 473.24Z" fill="url(#paint13_radial_928_56948)"/>
<path d="M155.64 473.24C156.877 473.24 157.88 472.237 157.88 471C157.88 469.763 156.877 468.76 155.64 468.76C154.403 468.76 153.4 469.763 153.4 471C153.4 472.237 154.403 473.24 155.64 473.24Z" fill="url(#paint14_radial_928_56948)"/>
<path d="M169.36 473.24C170.597 473.24 171.6 472.237 171.6 471C171.6 469.763 170.597 468.76 169.36 468.76C168.123 468.76 167.12 469.763 167.12 471C167.12 472.237 168.123 473.24 169.36 473.24Z" fill="url(#paint15_radial_928_56948)"/>
<path d="M136.706 502.951V502.518C136.706 501.182 137.071 500.145 137.801 499.406C138.536 498.664 139.456 498.293 140.561 498.293C141.655 498.293 142.505 498.568 143.11 499.119C143.716 499.666 144.044 500.344 144.094 501.152L144.1 501.211H142.934L142.928 501.152C142.901 500.637 142.692 500.197 142.301 499.834C141.915 499.471 141.335 499.289 140.561 499.289C139.78 499.289 139.137 499.566 138.634 500.121C138.134 500.672 137.884 501.471 137.884 502.518V502.951C137.884 503.971 138.134 504.764 138.634 505.33C139.137 505.896 139.78 506.18 140.561 506.18C141.335 506.18 141.909 505.994 142.284 505.623C142.663 505.248 142.878 504.812 142.928 504.316L142.934 504.258H144.1L144.094 504.316C144.012 505.113 143.678 505.789 143.093 506.344C142.507 506.898 141.663 507.176 140.561 507.176C139.456 507.176 138.536 506.809 137.801 506.074C137.071 505.336 136.706 504.295 136.706 502.951ZM145.096 503.977V503.789C145.096 502.848 145.391 502.08 145.981 501.486C146.575 500.889 147.368 500.59 148.36 500.59C149.348 500.59 150.139 500.889 150.733 501.486C151.327 502.08 151.624 502.848 151.624 503.789V503.977C151.624 504.918 151.327 505.688 150.733 506.285C150.139 506.879 149.348 507.176 148.36 507.176C147.368 507.176 146.575 506.879 145.981 506.285C145.391 505.688 145.096 504.918 145.096 503.977ZM146.245 503.789V503.977C146.245 504.617 146.422 505.156 146.778 505.594C147.133 506.031 147.661 506.25 148.36 506.25C149.059 506.25 149.584 506.031 149.936 505.594C150.291 505.156 150.469 504.617 150.469 503.977V503.789C150.469 503.145 150.291 502.605 149.936 502.172C149.584 501.734 149.059 501.516 148.36 501.516C147.661 501.516 147.133 501.734 146.778 502.172C146.422 502.605 146.245 503.145 146.245 503.789ZM158.643 508.582V507H153.264V500.766H154.389V506.115H157.612V500.766H158.737V506.115H159.674V508.582H158.643ZM160.564 503.977V503.789C160.564 502.848 160.848 502.08 161.414 501.486C161.984 500.889 162.768 500.59 163.764 500.59C164.686 500.59 165.385 500.814 165.861 501.264C166.342 501.709 166.582 502.209 166.582 502.764V502.793H165.469V502.758C165.469 502.426 165.334 502.135 165.064 501.885C164.799 501.635 164.365 501.51 163.764 501.51C163.061 501.51 162.543 501.729 162.211 502.166C161.879 502.604 161.713 503.145 161.713 503.789V503.977C161.713 504.621 161.879 505.162 162.211 505.6C162.543 506.033 163.061 506.25 163.764 506.25C164.365 506.25 164.799 506.127 165.064 505.881C165.334 505.635 165.469 505.342 165.469 505.002V504.973H166.582V505.002C166.582 505.553 166.342 506.053 165.861 506.502C165.385 506.951 164.686 507.176 163.764 507.176C162.768 507.176 161.984 506.879 161.414 506.285C160.848 505.688 160.564 504.918 160.564 503.977ZM167.66 503.977V503.789C167.66 502.848 167.945 502.08 168.515 501.486C169.09 500.889 169.847 500.59 170.789 500.59C171.734 500.59 172.461 500.869 172.969 501.428C173.476 501.982 173.73 502.734 173.73 503.684V504.146H168.328V503.25H172.599V503.221C172.599 502.721 172.457 502.311 172.172 501.99C171.886 501.67 171.429 501.51 170.801 501.51C170.14 501.51 169.64 501.729 169.301 502.166C168.961 502.604 168.791 503.145 168.791 503.789V503.977C168.791 504.621 168.969 505.162 169.324 505.6C169.683 506.037 170.236 506.256 170.982 506.256C171.435 506.256 171.826 506.17 172.154 505.998C172.482 505.822 172.746 505.615 172.945 505.377L173.672 505.975C173.453 506.268 173.113 506.541 172.652 506.795C172.195 507.049 171.638 507.176 170.982 507.176C169.908 507.176 169.086 506.879 168.515 506.285C167.945 505.688 167.66 504.918 167.66 503.977ZM174.574 501.65V500.766H180.14V501.65H177.919V507H176.794V501.65H174.574ZM181.47 507V500.766H182.583V504.738C182.583 504.855 182.581 504.988 182.577 505.137C182.577 505.285 182.575 505.42 182.572 505.541H182.618C182.673 505.436 182.734 505.324 182.8 505.207C182.866 505.09 182.943 504.973 183.029 504.855L185.964 500.766H187.095V507H185.976V503.033C185.976 502.912 185.978 502.777 185.982 502.629C185.986 502.477 185.991 502.34 185.999 502.219H185.935C185.884 502.32 185.825 502.432 185.759 502.553C185.693 502.674 185.618 502.793 185.536 502.91L182.601 507H181.47Z" fill="#04101C"/>
</g>
<g filter="url(#filter6_d_928_56948)">
<rect x="246" y="430" width="130" height="110" rx="12" fill="white"/>
<path d="M325.061 462.679C322.853 459.703 320.254 456.984 317.266 454.914C315.318 453.49 312.59 453.749 310.771 455.561L306.354 459.961C304.665 461.644 304.405 464.362 305.704 466.303C305.834 466.433 305.964 466.692 306.224 466.821L298.039 474.975C297.39 475.622 297 476.528 297 477.564V481.706C297 482.094 297.13 482.353 297.39 482.612C297.65 482.871 297.909 483 298.299 483H302.456C303.496 483 304.405 482.612 305.055 481.965L313.239 473.81C313.499 473.94 313.629 474.069 313.889 474.199C315.837 475.493 318.566 475.234 320.254 473.552L324.671 469.151C326.23 467.339 326.49 464.621 325.061 462.679ZM322.593 467.339L318.176 471.74C317.266 472.646 315.967 472.775 315.058 472.128C314.538 471.74 314.149 471.481 313.629 471.092C313.109 470.704 312.33 470.704 311.94 471.222L302.976 480.153C302.716 480.411 302.456 480.541 302.197 480.541H299.338V477.693C299.338 477.434 299.468 477.176 299.728 476.917L308.692 467.986C309.212 467.468 309.212 466.821 308.822 466.303C308.562 465.786 308.173 465.268 307.913 464.75C307.263 463.844 307.393 462.55 308.302 461.773L312.719 457.373C313.109 456.855 313.759 456.596 314.408 456.596C314.928 456.596 315.318 456.726 315.707 456.984C318.566 458.926 320.904 461.385 322.853 464.103C323.632 465.139 323.502 466.433 322.593 467.339Z" fill="url(#paint16_radial_928_56948)"/>
<path d="M316.148 461.909C315.593 461.909 315.177 462.192 314.761 462.474C313.928 463.321 313.928 464.593 314.761 465.299C315.177 465.722 315.593 465.864 316.148 465.864C316.703 465.864 317.12 465.722 317.536 465.299C317.952 464.875 318.091 464.451 318.091 463.886C318.091 463.321 317.952 462.898 317.536 462.474C317.258 462.05 316.703 461.909 316.148 461.909Z" fill="url(#paint17_radial_928_56948)"/>
<path d="M267.859 499.951V499.518C267.859 498.182 268.226 497.145 268.96 496.406C269.695 495.664 270.636 495.293 271.784 495.293C272.937 495.293 273.88 495.664 274.614 496.406C275.349 497.145 275.716 498.182 275.716 499.518V499.951C275.716 501.287 275.349 502.326 274.614 503.068C273.88 503.807 272.937 504.176 271.784 504.176C270.636 504.176 269.695 503.807 268.96 503.068C268.226 502.326 267.859 501.287 267.859 499.951ZM269.036 499.951C269.036 500.967 269.286 501.76 269.786 502.33C270.29 502.896 270.958 503.18 271.79 503.18C272.618 503.18 273.284 502.896 273.788 502.33C274.292 501.76 274.544 500.967 274.544 499.951V499.518C274.544 498.502 274.292 497.711 273.788 497.145C273.284 496.574 272.618 496.289 271.79 496.289C270.958 496.289 270.29 496.574 269.786 497.145C269.286 497.711 269.036 498.502 269.036 499.518V499.951ZM278.065 500.977C278.065 501.629 278.249 502.16 278.616 502.57C278.987 502.98 279.597 503.207 280.444 503.25V498.516C279.597 498.559 278.987 498.785 278.616 499.195C278.249 499.605 278.065 500.137 278.065 500.789V500.977ZM283.954 500.789C283.954 500.137 283.769 499.605 283.397 499.195C283.03 498.785 282.421 498.559 281.569 498.516V503.25C282.421 503.207 283.03 502.98 283.397 502.57C283.769 502.16 283.954 501.629 283.954 500.977V500.789ZM280.444 504.176C279.319 504.137 278.45 503.834 277.837 503.268C277.224 502.697 276.917 501.934 276.917 500.977V500.789C276.917 499.832 277.224 499.07 277.837 498.504C278.45 497.934 279.319 497.629 280.444 497.59V495H281.569V497.59C282.698 497.629 283.569 497.934 284.183 498.504C284.796 499.07 285.102 499.832 285.102 500.789V500.977C285.102 501.934 284.796 502.697 284.183 503.268C283.569 503.834 282.698 504.137 281.569 504.176V506.438H280.444V504.176ZM286.749 504V497.766H287.862V501.738C287.862 501.855 287.86 501.988 287.856 502.137C287.856 502.285 287.854 502.42 287.85 502.541H287.897C287.952 502.436 288.012 502.324 288.079 502.207C288.145 502.09 288.221 501.973 288.307 501.855L291.243 497.766H292.374V504H291.255V500.033C291.255 499.912 291.257 499.777 291.26 499.629C291.264 499.477 291.27 499.34 291.278 499.219H291.214C291.163 499.32 291.104 499.432 291.038 499.553C290.971 499.674 290.897 499.793 290.815 499.91L287.88 504H286.749ZM299.762 505.582V504H294.383V497.766H295.508V503.115H298.731V497.766H299.856V503.115H300.793V505.582H299.762ZM302.053 504V497.766H303.166V501.738C303.166 501.855 303.164 501.988 303.16 502.137C303.16 502.285 303.158 502.42 303.155 502.541H303.201C303.256 502.436 303.317 502.324 303.383 502.207C303.449 502.09 303.526 501.973 303.612 501.855L306.547 497.766H307.678V504H306.559V500.033C306.559 499.912 306.561 499.777 306.565 499.629C306.569 499.477 306.574 499.34 306.582 499.219H306.518C306.467 499.32 306.408 499.432 306.342 499.553C306.276 499.674 306.201 499.793 306.119 499.91L303.184 504H302.053ZM309.336 502.166C309.336 501.529 309.609 501.035 310.156 500.684C310.707 500.332 311.42 500.156 312.295 500.156H313.965V499.711C313.965 499.336 313.848 499.037 313.613 498.814C313.383 498.592 312.988 498.48 312.43 498.48C311.875 498.48 311.475 498.576 311.229 498.768C310.982 498.955 310.859 499.182 310.859 499.447V499.477H309.734V499.447C309.734 498.936 309.979 498.498 310.467 498.135C310.955 497.771 311.619 497.59 312.459 497.59C313.295 497.59 313.941 497.77 314.398 498.129C314.859 498.484 315.09 499.012 315.09 499.711V502.594C315.09 502.848 315.111 503.088 315.154 503.314C315.197 503.537 315.258 503.734 315.336 503.906V504H314.252C314.189 503.902 314.133 503.773 314.082 503.613C314.031 503.453 314 503.295 313.988 503.139C313.824 503.4 313.551 503.629 313.168 503.824C312.785 504.02 312.295 504.117 311.697 504.117C311.025 504.117 310.463 503.949 310.01 503.613C309.561 503.277 309.336 502.795 309.336 502.166ZM310.461 502.107C310.461 502.459 310.582 502.732 310.824 502.928C311.066 503.123 311.445 503.221 311.961 503.221C312.477 503.221 312.939 503.072 313.35 502.775C313.76 502.479 313.965 502.164 313.965 501.832V500.953H312.424C311.783 500.953 311.295 501.057 310.959 501.264C310.627 501.467 310.461 501.748 310.461 502.107ZM318.717 498.65L318.611 501.135C318.564 502.186 318.42 502.947 318.177 503.42C317.939 503.893 317.527 504.129 316.941 504.129C316.797 504.129 316.67 504.119 316.56 504.1C316.451 504.084 316.359 504.059 316.285 504.023V503.057C316.351 503.084 316.42 503.104 316.49 503.115C316.564 503.127 316.648 503.133 316.742 503.133C317.039 503.133 317.244 502.98 317.357 502.676C317.474 502.367 317.549 501.803 317.58 500.982L317.72 497.766H322.531V504H321.406V498.65H318.717ZM325.671 497.766V499.893H327.482C328.259 499.893 328.857 500.076 329.275 500.443C329.697 500.807 329.908 501.303 329.908 501.932C329.908 502.557 329.697 503.059 329.275 503.438C328.857 503.812 328.259 504 327.482 504H324.546V497.766H325.671ZM327.476 500.783H325.671V503.115H327.476C327.957 503.115 328.292 503.004 328.484 502.781C328.679 502.559 328.777 502.275 328.777 501.932C328.777 501.596 328.679 501.32 328.484 501.105C328.292 500.891 327.957 500.783 327.476 500.783ZM331.408 497.766H332.533V500.379H335.837V497.766H336.962V504H335.837V501.27H332.533V504H331.408V497.766ZM340.097 497.766V499.893H341.907C342.685 499.893 343.282 500.076 343.7 500.443C344.122 500.807 344.333 501.303 344.333 501.932C344.333 502.557 344.122 503.059 343.7 503.438C343.282 503.812 342.685 504 341.907 504H338.972V497.766H340.097ZM341.901 500.783H340.097V503.115H341.901C342.382 503.115 342.718 503.004 342.909 502.781C343.105 502.559 343.202 502.275 343.202 501.932C343.202 501.596 343.105 501.32 342.909 501.105C342.718 500.891 342.382 500.783 341.901 500.783ZM345.183 504V497.766H346.308V504H345.183ZM348.317 504V497.766H349.43V501.738C349.43 501.855 349.429 501.988 349.425 502.137C349.425 502.285 349.423 502.42 349.419 502.541H349.466C349.52 502.436 349.581 502.324 349.647 502.207C349.714 502.09 349.79 501.973 349.876 501.855L352.811 497.766H353.942V504H352.823V500.033C352.823 499.912 352.825 499.777 352.829 499.629C352.833 499.477 352.839 499.34 352.846 499.219H352.782C352.731 499.32 352.673 499.432 352.606 499.553C352.54 499.674 352.466 499.793 352.384 499.91L349.448 504H348.317ZM351.13 495.867C351.423 495.867 351.663 495.789 351.85 495.633C352.038 495.473 352.198 495.213 352.331 494.854L353.192 495.357C352.997 495.834 352.72 496.184 352.36 496.406C352.001 496.629 351.591 496.74 351.13 496.74C350.665 496.74 350.255 496.631 349.899 496.412C349.544 496.189 349.264 495.838 349.061 495.357L349.929 494.842C350.061 495.213 350.22 495.477 350.403 495.633C350.591 495.789 350.833 495.867 351.13 495.867ZM265.251 513.766H270.753V520H269.628V514.65H266.376V520H265.251V513.766ZM272.769 522.438V513.766H273.788L273.841 514.621H273.864C274.052 514.352 274.335 514.123 274.714 513.936C275.093 513.744 275.536 513.648 276.044 513.648C276.919 513.648 277.618 513.945 278.142 514.539C278.669 515.129 278.933 515.879 278.933 516.789V516.977C278.933 517.883 278.669 518.633 278.142 519.227C277.618 519.82 276.919 520.117 276.044 520.117C275.536 520.117 275.105 520.035 274.749 519.871C274.394 519.707 274.109 519.49 273.894 519.221V522.438H272.769ZM273.894 518.084C274.034 518.373 274.267 518.631 274.591 518.857C274.915 519.08 275.31 519.191 275.775 519.191C276.466 519.191 276.972 518.98 277.292 518.559C277.616 518.133 277.779 517.605 277.779 516.977V516.789C277.779 516.156 277.616 515.629 277.292 515.207C276.972 514.785 276.466 514.574 275.775 514.574C275.31 514.574 274.915 514.688 274.591 514.914C274.271 515.137 274.038 515.393 273.894 515.682V518.084ZM280.21 516.977V516.789C280.21 515.848 280.495 515.08 281.065 514.486C281.64 513.889 282.397 513.59 283.339 513.59C284.284 513.59 285.011 513.869 285.519 514.428C286.026 514.982 286.28 515.734 286.28 516.684V517.146H280.878V516.25H285.149V516.221C285.149 515.721 285.007 515.311 284.722 514.99C284.436 514.67 283.979 514.51 283.351 514.51C282.69 514.51 282.19 514.729 281.851 515.166C281.511 515.604 281.341 516.145 281.341 516.789V516.977C281.341 517.621 281.519 518.162 281.874 518.6C282.233 519.037 282.786 519.256 283.532 519.256C283.985 519.256 284.376 519.17 284.704 518.998C285.032 518.822 285.296 518.615 285.495 518.377L286.222 518.975C286.003 519.268 285.663 519.541 285.202 519.795C284.745 520.049 284.188 520.176 283.532 520.176C282.458 520.176 281.636 519.879 281.065 519.285C280.495 518.688 280.21 517.918 280.21 516.977ZM293.048 521.582V520H288.026V521.582H286.995V519.115H294.085V521.582H293.048ZM289.245 514.65L289.151 516.766C289.12 517.484 289.075 518.014 289.016 518.354C288.962 518.689 288.88 518.975 288.77 519.209H287.604C287.745 519.021 287.856 518.752 287.938 518.4C288.024 518.045 288.085 517.453 288.12 516.625L288.249 513.766H293.147V520H292.016V514.65H289.245ZM294.975 516.977V516.789C294.975 515.848 295.258 515.08 295.825 514.486C296.395 513.889 297.178 513.59 298.174 513.59C299.096 513.59 299.795 513.814 300.272 514.264C300.752 514.709 300.993 515.209 300.993 515.764V515.793H299.879V515.758C299.879 515.426 299.745 515.135 299.475 514.885C299.209 514.635 298.776 514.51 298.174 514.51C297.471 514.51 296.954 514.729 296.622 515.166C296.29 515.604 296.124 516.145 296.124 516.789V516.977C296.124 517.621 296.29 518.162 296.622 518.6C296.954 519.033 297.471 519.25 298.174 519.25C298.776 519.25 299.209 519.127 299.475 518.881C299.745 518.635 299.879 518.342 299.879 518.002V517.973H300.993V518.002C300.993 518.553 300.752 519.053 300.272 519.502C299.795 519.951 299.096 520.176 298.174 520.176C297.178 520.176 296.395 519.879 295.825 519.285C295.258 518.688 294.975 517.918 294.975 516.977ZM301.748 514.65V513.766H307.315V514.65H305.094V520H303.969V514.65H301.748ZM308.293 518.166C308.293 517.529 308.566 517.035 309.113 516.684C309.664 516.332 310.377 516.156 311.252 516.156H312.922V515.711C312.922 515.336 312.805 515.037 312.57 514.814C312.34 514.592 311.945 514.48 311.387 514.48C310.832 514.48 310.432 514.576 310.186 514.768C309.939 514.955 309.816 515.182 309.816 515.447V515.477H308.691V515.447C308.691 514.936 308.936 514.498 309.424 514.135C309.912 513.771 310.576 513.59 311.416 513.59C312.252 513.59 312.898 513.77 313.355 514.129C313.816 514.484 314.047 515.012 314.047 515.711V518.594C314.047 518.848 314.068 519.088 314.111 519.314C314.154 519.537 314.215 519.734 314.293 519.906V520H313.209C313.146 519.902 313.09 519.773 313.039 519.613C312.988 519.453 312.957 519.295 312.945 519.139C312.781 519.4 312.508 519.629 312.125 519.824C311.742 520.02 311.252 520.117 310.654 520.117C309.982 520.117 309.42 519.949 308.967 519.613C308.518 519.277 308.293 518.795 308.293 518.166ZM309.418 518.107C309.418 518.459 309.539 518.732 309.781 518.928C310.023 519.123 310.402 519.221 310.918 519.221C311.434 519.221 311.896 519.072 312.307 518.775C312.717 518.479 312.922 518.164 312.922 517.832V516.953H311.381C310.74 516.953 310.252 517.057 309.916 517.264C309.584 517.467 309.418 517.748 309.418 518.107ZM316.045 520V513.766H319.168C319.879 513.766 320.433 513.904 320.832 514.182C321.234 514.455 321.435 514.871 321.435 515.43C321.435 515.777 321.332 516.068 321.125 516.303C320.918 516.537 320.64 516.695 320.293 516.777V516.795C320.715 516.857 321.047 517.012 321.289 517.258C321.531 517.5 321.652 517.811 321.652 518.189C321.652 518.76 321.441 519.205 321.019 519.525C320.597 519.842 320.039 520 319.344 520H316.045ZM317.17 516.391H319.168C319.57 516.391 319.859 516.311 320.035 516.15C320.211 515.99 320.299 515.77 320.299 515.488C320.299 515.215 320.211 515.008 320.035 514.867C319.859 514.727 319.57 514.654 319.168 514.65H317.17V516.391ZM317.17 519.115H319.344C319.75 519.115 320.047 519.031 320.234 518.863C320.426 518.695 320.521 518.469 320.521 518.184C320.521 517.906 320.428 517.686 320.24 517.521C320.053 517.354 319.754 517.27 319.344 517.27H317.17V519.115ZM323.363 520V513.766H324.476V517.738C324.476 517.855 324.474 517.988 324.47 518.137C324.47 518.285 324.468 518.42 324.464 518.541H324.511C324.566 518.436 324.626 518.324 324.693 518.207C324.759 518.09 324.835 517.973 324.921 517.855L327.857 513.766H328.988V520H327.869V516.033C327.869 515.912 327.871 515.777 327.875 515.629C327.878 515.477 327.884 515.34 327.892 515.219H327.828C327.777 515.32 327.718 515.432 327.652 515.553C327.585 515.674 327.511 515.793 327.429 515.91L324.494 520H323.363ZM330.306 514.65V513.766H335.872V514.65H333.652V520H332.527V514.65H330.306ZM336.833 516.977V516.789C336.833 515.848 337.118 515.08 337.689 514.486C338.263 513.889 339.021 513.59 339.962 513.59C340.907 513.59 341.634 513.869 342.142 514.428C342.649 514.982 342.903 515.734 342.903 516.684V517.146H337.501V516.25H341.773V516.221C341.773 515.721 341.63 515.311 341.345 514.99C341.06 514.67 340.603 514.51 339.974 514.51C339.314 514.51 338.814 514.729 338.474 515.166C338.134 515.604 337.964 516.145 337.964 516.789V516.977C337.964 517.621 338.142 518.162 338.497 518.6C338.856 519.037 339.409 519.256 340.155 519.256C340.608 519.256 340.999 519.17 341.327 518.998C341.655 518.822 341.919 518.615 342.118 518.377L342.845 518.975C342.626 519.268 342.286 519.541 341.825 519.795C341.368 520.049 340.812 520.176 340.155 520.176C339.081 520.176 338.259 519.879 337.689 519.285C337.118 518.688 336.833 517.918 336.833 516.977ZM346.067 514.65L345.962 517.135C345.915 518.186 345.77 518.947 345.528 519.42C345.29 519.893 344.878 520.129 344.292 520.129C344.147 520.129 344.02 520.119 343.911 520.1C343.802 520.084 343.71 520.059 343.636 520.023V519.057C343.702 519.084 343.77 519.104 343.841 519.115C343.915 519.127 343.999 519.133 344.093 519.133C344.389 519.133 344.595 518.98 344.708 518.676C344.825 518.367 344.899 517.803 344.93 516.982L345.071 513.766H349.882V520H348.757V514.65H346.067ZM353.022 513.766V515.893H354.833C355.61 515.893 356.208 516.076 356.626 516.443C357.047 516.807 357.258 517.303 357.258 517.932C357.258 518.557 357.047 519.059 356.626 519.438C356.208 519.812 355.61 520 354.833 520H351.897V513.766H353.022ZM354.827 516.783H353.022V519.115H354.827C355.307 519.115 355.643 519.004 355.835 518.781C356.03 518.559 356.128 518.275 356.128 517.932C356.128 517.596 356.03 517.32 355.835 517.105C355.643 516.891 355.307 516.783 354.827 516.783Z" fill="#04101C"/>
</g>
<rect x="299.5" y="279.5" width="67" height="67" rx="11.5" fill="#F9FBFF"/>
<rect x="299.5" y="279.5" width="67" height="67" rx="11.5" stroke="#ECECEC"/>
<path fill-rule="evenodd" clip-rule="evenodd" d="M341.03 299.487C342.293 300.178 343.2 301.549 343.2 303.2V317.48C343.2 320.822 339.499 322.802 336.778 320.859C336.748 320.838 336.718 320.814 336.689 320.79L335.196 319.53C335.174 319.512 335.153 319.493 335.133 319.474C333.985 318.381 332.554 317.7 330.982 317.449V322.94C330.982 325.161 329.358 327 327.138 327C324.873 327 323.295 324.972 323.295 322.94V317.183C320.276 316.494 318 313.636 318 310.34C318 308.484 318.655 306.697 320.056 305.413C321.188 304.258 322.741 303.34 324.695 303.34H329.541C331.689 303.21 333.681 302.475 335.185 301.298L336.634 299.939C336.662 299.913 336.691 299.887 336.722 299.863C338.081 298.785 339.746 298.785 341.03 299.487ZM338.5 302.028L337.056 303.382C337.028 303.408 336.999 303.433 336.968 303.457C334.956 305.053 332.366 305.983 329.662 306.138C329.635 306.139 329.609 306.14 329.582 306.14H324.695C323.68 306.14 322.8 306.605 322.034 307.395C322.013 307.417 321.99 307.439 321.967 307.46C321.22 308.134 320.8 309.132 320.8 310.34C320.8 312.711 322.68 314.54 324.695 314.54C325.468 314.54 326.095 315.167 326.095 315.94V322.94C326.095 323.709 326.688 324.2 327.138 324.2C327.634 324.2 328.182 323.799 328.182 322.94V315.94C328.182 315.167 328.809 314.54 329.582 314.54C332.337 314.54 334.988 315.486 337.032 317.416L338.443 318.607C339.251 319.141 340.4 318.6 340.4 317.48V303.2C340.4 302.611 340.085 302.162 339.686 301.943C339.318 301.742 338.895 301.736 338.5 302.028Z" fill="#ECECEC"/>
<path fill-rule="evenodd" clip-rule="evenodd" d="M347.4 306C348.173 306 348.8 306.627 348.8 307.4V313C348.8 313.773 348.173 314.4 347.4 314.4C346.627 314.4 346 313.773 346 313V307.4C346 306.627 346.627 306 347.4 306Z" fill="#ECECEC"/>
<path d="M367 195L417 195" stroke="#ECECEC"/>
<path d="M367 62L417 62" stroke="#ECECEC"/>
<path d="M215 148L215 109" stroke="url(#paint18_linear_928_56948)"/>
<path d="M229 148L229 146.499C229.001 137.663 236.164 130.5 245 130.5L479.999 130.5C488.836 130.5 495.999 137.663 495.999 146.5L495.999 280" stroke="url(#paint19_linear_928_56948)"/>
<path d="M86 148L86 65C86 56.1634 78.8366 49 70 49L63 49" stroke="#ECECEC"/>
<path d="M25 375L25 430" stroke="#ECECEC"/>
<path d="M162 527L162 580" stroke="#ECECEC"/>
<path d="M281 540L281 580" stroke="#ECECEC"/>
<path d="M293 540.611L293 559.416C293 566.142 298.582 570.925 306.433 570.925L439.593 570.925C446.26 570.925 451 574.986 451 580.698V580.698" stroke="#ECECEC"/>
<path d="M376 465L380.5 465C389.337 465 396.5 472.163 396.5 481L396.5 528.5C396.5 537.337 403.664 544.5 412.5 544.5L605 544.5C613.837 544.5 621 551.663 621 560.5L621 580" stroke="#ECECEC"/>
<path d="M143 527L143 544.676C143 553.513 135.837 560.676 127 560.676L72 560.676C63.1634 560.676 56 567.84 56 576.676L56 579" stroke="#ECECEC"/>
<path d="M25 281L25 200C25 191.163 17.8366 184 9 184H-13" stroke="#ECECEC"/>
<path d="M168 15L168 -52" stroke="#ECECEC"/>
<path d="M296 -52V-52C296 -45.3726 290.627 -40 284 -40L198 -40C189.163 -40 182 -32.8366 182 -24V15" stroke="#ECECEC"/>
<path d="M62 -84H104C112.837 -84 120 -76.8365 120 -68L120 148" stroke="#ECECEC"/>
<path d="M367.001 48.499L382.5 48.499C391.336 48.499 398.5 41.3357 398.5 32.4992L398.501 -52" stroke="#ECECEC"/>
<path d="M299 195H249" stroke="#ECECEC"/>
<path d="M181 195H141" stroke="url(#paint20_linear_928_56948)"/>
<path d="M181 215H176.837C168.001 215 160.837 222.163 160.837 231V245.5C160.837 254.337 153.674 261.5 144.837 261.5H73C64.1634 261.5 57 268.663 57 277.5V281" stroke="url(#paint21_linear_928_56948)"/>
<path d="M201 242V281" stroke="url(#paint22_linear_928_56948)"/>
<path d="M249 207L264.999 207C273.836 207 280.999 214.163 280.999 223L280.999 430" stroke="url(#paint23_linear_928_56948)"/>
<path d="M249 219V219C257.837 219 265 226.163 265 235V395.551C265 404.388 257.837 411.551 249 411.551H179C170.163 411.551 163 418.715 163 427.551V433" stroke="url(#paint24_linear_928_56948)"/>
<path d="M333 160L333 88" stroke="#ECECEC"/>
<path d="M333 228L333 280" stroke="#ECECEC"/>
</g>
<defs>
<filter id="filter0_d_928_56948" x="130" y="7" width="133" height="114" filterUnits="userSpaceOnUse" color-interpolation-filters="sRGB">
<feFlood flood-opacity="0" result="BackgroundImageFix"/>
<feColorMatrix in="SourceAlpha" type="matrix" values="0 0 0 0 0 0 0 0 0 0 0 0 0 0 0 0 0 0 127 0" result="hardAlpha"/>
<feOffset dx="1" dy="2"/>
<feGaussianBlur stdDeviation="5"/>
<feComposite in2="hardAlpha" operator="out"/>
<feColorMatrix type="matrix" values="0 0 0 0 0.00780001 0 0 0 0 0.045344 0 0 0 0 0.0800001 0 0 0 0.04 0"/>
<feBlend mode="normal" in2="BackgroundImageFix" result="effect1_dropShadow_928_56948"/>
<feBlend mode="normal" in="SourceGraphic" in2="effect1_dropShadow_928_56948" result="shape"/>
</filter>
<filter id="filter1_d_928_56948" x="61" y="140" width="91" height="114" filterUnits="userSpaceOnUse" color-interpolation-filters="sRGB">
<feFlood flood-opacity="0" result="BackgroundImageFix"/>
<feColorMatrix in="SourceAlpha" type="matrix" values="0 0 0 0 0 0 0 0 0 0 0 0 0 0 0 0 0 0 127 0" result="hardAlpha"/>
<feOffset dx="1" dy="2"/>
<feGaussianBlur stdDeviation="5"/>
<feComposite in2="hardAlpha" operator="out"/>
<feColorMatrix type="matrix" values="0 0 0 0 0.00780001 0 0 0 0 0.045344 0 0 0 0 0.0800001 0 0 0 0.04 0"/>
<feBlend mode="normal" in2="BackgroundImageFix" result="effect1_dropShadow_928_56948"/>
<feBlend mode="normal" in="SourceGraphic" in2="effect1_dropShadow_928_56948" result="shape"/>
</filter>
<filter id="filter2_d_928_56948" x="-2" y="273" width="123" height="114" filterUnits="userSpaceOnUse" color-interpolation-filters="sRGB">
<feFlood flood-opacity="0" result="BackgroundImageFix"/>
<feColorMatrix in="SourceAlpha" type="matrix" values="0 0 0 0 0 0 0 0 0 0 0 0 0 0 0 0 0 0 127 0" result="hardAlpha"/>
<feOffset dx="1" dy="2"/>
<feGaussianBlur stdDeviation="5"/>
<feComposite in2="hardAlpha" operator="out"/>
<feColorMatrix type="matrix" values="0 0 0 0 0.00780001 0 0 0 0 0.045344 0 0 0 0 0.0800001 0 0 0 0.04 0"/>
<feBlend mode="normal" in2="BackgroundImageFix" result="effect1_dropShadow_928_56948"/>
<feBlend mode="normal" in="SourceGraphic" in2="effect1_dropShadow_928_56948" result="shape"/>
</filter>
<filter id="filter3_d_928_56948" x="141" y="273" width="119" height="130" filterUnits="userSpaceOnUse" color-interpolation-filters="sRGB">
<feFlood flood-opacity="0" result="BackgroundImageFix"/>
<feColorMatrix in="SourceAlpha" type="matrix" values="0 0 0 0 0 0 0 0 0 0 0 0 0 0 0 0 0 0 127 0" result="hardAlpha"/>
<feOffset dx="1" dy="2"/>
<feGaussianBlur stdDeviation="5"/>
<feComposite in2="hardAlpha" operator="out"/>
<feColorMatrix type="matrix" values="0 0 0 0 0.00780001 0 0 0 0 0.045344 0 0 0 0 0.0800001 0 0 0 0.04 0"/>
<feBlend mode="normal" in2="BackgroundImageFix" result="effect1_dropShadow_928_56948"/>
<feBlend mode="normal" in="SourceGraphic" in2="effect1_dropShadow_928_56948" result="shape"/>
</filter>
<filter id="filter4_d_928_56948" x="172" y="140" width="88" height="114" filterUnits="userSpaceOnUse" color-interpolation-filters="sRGB">
<feFlood flood-opacity="0" result="BackgroundImageFix"/>
<feColorMatrix in="SourceAlpha" type="matrix" values="0 0 0 0 0 0 0 0 0 0 0 0 0 0 0 0 0 0 127 0" result="hardAlpha"/>
<feOffset dx="1" dy="2"/>
<feGaussianBlur stdDeviation="5"/>
<feComposite in2="hardAlpha" operator="out"/>
<feColorMatrix type="matrix" values="0 0 0 0 0.00780001 0 0 0 0 0.045344 0 0 0 0 0.0800001 0 0 0 0.04 0"/>
<feBlend mode="normal" in2="BackgroundImageFix" result="effect1_dropShadow_928_56948"/>
<feBlend mode="normal" in="SourceGraphic" in2="effect1_dropShadow_928_56948" result="shape"/>
</filter>
<filter id="filter5_d_928_56948" x="109" y="425" width="108" height="114" filterUnits="userSpaceOnUse" color-interpolation-filters="sRGB">
<feFlood flood-opacity="0" result="BackgroundImageFix"/>
<feColorMatrix in="SourceAlpha" type="matrix" values="0 0 0 0 0 0 0 0 0 0 0 0 0 0 0 0 0 0 127 0" result="hardAlpha"/>
<feOffset dx="1" dy="2"/>
<feGaussianBlur stdDeviation="5"/>
<feComposite in2="hardAlpha" operator="out"/>
<feColorMatrix type="matrix" values="0 0 0 0 0.00780001 0 0 0 0 0.045344 0 0 0 0 0.0800001 0 0 0 0.04 0"/>
<feBlend mode="normal" in2="BackgroundImageFix" result="effect1_dropShadow_928_56948"/>
<feBlend mode="normal" in="SourceGraphic" in2="effect1_dropShadow_928_56948" result="shape"/>
</filter>
<filter id="filter6_d_928_56948" x="237" y="422" width="150" height="130" filterUnits="userSpaceOnUse" color-interpolation-filters="sRGB">
<feFlood flood-opacity="0" result="BackgroundImageFix"/>
<feColorMatrix in="SourceAlpha" type="matrix" values="0 0 0 0 0 0 0 0 0 0 0 0 0 0 0 0 0 0 127 0" result="hardAlpha"/>
<feOffset dx="1" dy="2"/>
<feGaussianBlur stdDeviation="5"/>
<feComposite in2="hardAlpha" operator="out"/>
<feColorMatrix type="matrix" values="0 0 0 0 0.00780001 0 0 0 0 0.045344 0 0 0 0 0.0800001 0 0 0 0.04 0"/>
<feBlend mode="normal" in2="BackgroundImageFix" result="effect1_dropShadow_928_56948"/>
<feBlend mode="normal" in="SourceGraphic" in2="effect1_dropShadow_928_56948" result="shape"/>
</filter>
<radialGradient id="paint0_radial_928_56948" cx="0" cy="0" r="1" gradientUnits="userSpaceOnUse" gradientTransform="translate(196.5 53.5) rotate(99.7276) scale(18.3894)">
<stop offset="0.055" stop-color="#7A73FF"/>
<stop offset="0.65" stop-color="#67DDFA"/>
<stop offset="1" stop-color="#4AFCF1"/>
</radialGradient>
<radialGradient id="paint1_radial_928_56948" cx="0" cy="0" r="1" gradientUnits="userSpaceOnUse" gradientTransform="translate(106 186) rotate(99.7276) scale(17.7553)">
<stop offset="0.055" stop-color="#7A73FF"/>
<stop offset="0.65" stop-color="#67DDFA"/>
<stop offset="1" stop-color="#4AFCF1"/>
</radialGradient>
<radialGradient id="paint2_radial_928_56948" cx="0" cy="0" r="1" gradientUnits="userSpaceOnUse" gradientTransform="translate(106 186) rotate(99.7276) scale(17.7553)">
<stop offset="0.055" stop-color="#7A73FF"/>
<stop offset="0.65" stop-color="#67DDFA"/>
<stop offset="1" stop-color="#4AFCF1"/>
</radialGradient>
<radialGradient id="paint3_radial_928_56948" cx="0" cy="0" r="1" gradientUnits="userSpaceOnUse" gradientTransform="translate(58.002 319) rotate(99.729) scale(17.7554 17.7578)">
<stop offset="0.055" stop-color="#7A73FF"/>
<stop offset="0.65" stop-color="#67DDFA"/>
<stop offset="1" stop-color="#4AFCF1"/>
</radialGradient>
<radialGradient id="paint4_radial_928_56948" cx="0" cy="0" r="1" gradientUnits="userSpaceOnUse" gradientTransform="translate(199.727 319) rotate(98.8578) scale(17.7112 16.181)">
<stop offset="0.055" stop-color="#7A73FF"/>
<stop offset="0.65" stop-color="#67DDFA"/>
<stop offset="1" stop-color="#4AFCF1"/>
</radialGradient>
<radialGradient id="paint5_radial_928_56948" cx="0" cy="0" r="1" gradientUnits="userSpaceOnUse" gradientTransform="translate(199.727 319) rotate(98.8578) scale(17.7112 16.181)">
<stop offset="0.055" stop-color="#7A73FF"/>
<stop offset="0.65" stop-color="#67DDFA"/>
<stop offset="1" stop-color="#4AFCF1"/>
</radialGradient>
<radialGradient id="paint6_radial_928_56948" cx="0" cy="0" r="1" gradientUnits="userSpaceOnUse" gradientTransform="translate(214.6 186) rotate(98.7708) scale(17.7071 16.0233)">
<stop offset="0.055" stop-color="#7A73FF"/>
<stop offset="0.65" stop-color="#67DDFA"/>
<stop offset="1" stop-color="#4AFCF1"/>
</radialGradient>
<radialGradient id="paint7_radial_928_56948" cx="0" cy="0" r="1" gradientUnits="userSpaceOnUse" gradientTransform="translate(214.6 186) rotate(98.7708) scale(17.7071 16.0233)">
<stop offset="0.055" stop-color="#7A73FF"/>
<stop offset="0.65" stop-color="#67DDFA"/>
<stop offset="1" stop-color="#4AFCF1"/>
</radialGradient>
<radialGradient id="paint8_radial_928_56948" cx="0" cy="0" r="1" gradientUnits="userSpaceOnUse" gradientTransform="translate(214.6 186) rotate(98.7708) scale(17.7071 16.0233)">
<stop offset="0.055" stop-color="#7A73FF"/>
<stop offset="0.65" stop-color="#67DDFA"/>
<stop offset="1" stop-color="#4AFCF1"/>
</radialGradient>
<radialGradient id="paint9_radial_928_56948" cx="0" cy="0" r="1" gradientUnits="userSpaceOnUse" gradientTransform="translate(214.6 186) rotate(98.7708) scale(17.7071 16.0233)">
<stop offset="0.055" stop-color="#7A73FF"/>
<stop offset="0.65" stop-color="#67DDFA"/>
<stop offset="1" stop-color="#4AFCF1"/>
</radialGradient>
<radialGradient id="paint10_radial_928_56948" cx="0" cy="0" r="1" gradientUnits="userSpaceOnUse" gradientTransform="translate(214.6 186) rotate(98.7708) scale(17.7071 16.0233)">
<stop offset="0.055" stop-color="#7A73FF"/>
<stop offset="0.65" stop-color="#67DDFA"/>
<stop offset="1" stop-color="#4AFCF1"/>
</radialGradient>
<radialGradient id="paint11_radial_928_56948" cx="0" cy="0" r="1" gradientUnits="userSpaceOnUse" gradientTransform="translate(214.6 186) rotate(98.7708) scale(17.7071 16.0233)">
<stop offset="0.055" stop-color="#7A73FF"/>
<stop offset="0.65" stop-color="#67DDFA"/>
<stop offset="1" stop-color="#4AFCF1"/>
</radialGradient>
<radialGradient id="paint12_radial_928_56948" cx="0" cy="0" r="1" gradientUnits="userSpaceOnUse" gradientTransform="translate(162.5 471) rotate(99.7276) scale(17.7553)">
<stop offset="0.055" stop-color="#7A73FF"/>
<stop offset="0.65" stop-color="#67DDFA"/>
<stop offset="1" stop-color="#4AFCF1"/>
</radialGradient>
<radialGradient id="paint13_radial_928_56948" cx="0" cy="0" r="1" gradientUnits="userSpaceOnUse" gradientTransform="translate(162.5 471) rotate(99.7276) scale(17.7553)">
<stop offset="0.055" stop-color="#7A73FF"/>
<stop offset="0.65" stop-color="#67DDFA"/>
<stop offset="1" stop-color="#4AFCF1"/>
</radialGradient>
<radialGradient id="paint14_radial_928_56948" cx="0" cy="0" r="1" gradientUnits="userSpaceOnUse" gradientTransform="translate(162.5 471) rotate(99.7276) scale(17.7553)">
<stop offset="0.055" stop-color="#7A73FF"/>
<stop offset="0.65" stop-color="#67DDFA"/>
<stop offset="1" stop-color="#4AFCF1"/>
</radialGradient>
<radialGradient id="paint15_radial_928_56948" cx="0" cy="0" r="1" gradientUnits="userSpaceOnUse" gradientTransform="translate(162.5 471) rotate(99.7276) scale(17.7553)">
<stop offset="0.055" stop-color="#7A73FF"/>
<stop offset="0.65" stop-color="#67DDFA"/>
<stop offset="1" stop-color="#4AFCF1"/>
</radialGradient>
<radialGradient id="paint16_radial_928_56948" cx="0" cy="0" r="1" gradientUnits="userSpaceOnUse" gradientTransform="translate(311.5 468.5) rotate(99.7276) scale(18.3894 18.3894)">
<stop offset="0.055" stop-color="#7A73FF"/>
<stop offset="0.65" stop-color="#67DDFA"/>
<stop offset="1" stop-color="#4AFCF1"/>
</radialGradient>
<radialGradient id="paint17_radial_928_56948" cx="0" cy="0" r="1" gradientUnits="userSpaceOnUse" gradientTransform="translate(311.5 468.5) rotate(99.7276) scale(18.3894 18.3894)">
<stop offset="0.055" stop-color="#7A73FF"/>
<stop offset="0.65" stop-color="#67DDFA"/>
<stop offset="1" stop-color="#4AFCF1"/>
</radialGradient>
<linearGradient id="paint18_linear_928_56948" x1="207.056" y1="87.698" x2="227.422" y2="90.7344" gradientUnits="userSpaceOnUse">
<stop offset="0.338542" stop-color="#7A73FF"/>
<stop offset="0.734375" stop-color="#75CDFF"/>
<stop offset="1" stop-color="#4AFCF1"/>
</linearGradient>
<linearGradient id="paint19_linear_928_56948" x1="768.892" y1="115.914" x2="217.715" y2="231.929" gradientUnits="userSpaceOnUse">
<stop offset="0.338542" stop-color="#7A73FF"/>
<stop offset="0.734375" stop-color="#75CDFF"/>
<stop offset="1" stop-color="#4AFCF1"/>
</linearGradient>
<linearGradient id="paint20_linear_928_56948" x1="118.5" y1="194" x2="118.99" y2="200.761" gradientUnits="userSpaceOnUse">
<stop offset="0.338542" stop-color="#7A73FF"/>
<stop offset="0.734375" stop-color="#75CDFF"/>
<stop offset="1" stop-color="#4AFCF1"/>
</linearGradient>
<linearGradient id="paint21_linear_928_56948" x1="-12.75" y1="149" x2="192.002" y2="281.737" gradientUnits="userSpaceOnUse">
<stop offset="0.338542" stop-color="#7A73FF"/>
<stop offset="0.734375" stop-color="#75CDFF"/>
<stop offset="1" stop-color="#4AFCF1"/>
</linearGradient>
<linearGradient id="paint22_linear_928_56948" x1="202" y1="302.937" x2="195.241" y2="302.435" gradientUnits="userSpaceOnUse">
<stop offset="0.338542" stop-color="#7A73FF"/>
<stop offset="0.734375" stop-color="#75CDFF"/>
<stop offset="1" stop-color="#4AFCF1"/>
</linearGradient>
<linearGradient id="paint23_linear_928_56948" x1="443.177" y1="511.075" x2="132.097" y2="376.49" gradientUnits="userSpaceOnUse">
<stop offset="0.338542" stop-color="#7A73FF"/>
<stop offset="0.734375" stop-color="#75CDFF"/>
<stop offset="1" stop-color="#4AFCF1"/>
</linearGradient>
<linearGradient id="paint24_linear_928_56948" x1="367" y1="553.375" x2="128.613" y2="224.082" gradientUnits="userSpaceOnUse">
<stop offset="0.338542" stop-color="#7A73FF"/>
<stop offset="0.734375" stop-color="#75CDFF"/>
<stop offset="1" stop-color="#4AFCF1"/>
</linearGradient>
<clipPath id="clip0_928_56948">
<rect width="420" height="576" fill="white" transform="translate(-23)"/>
</clipPath>
</defs>
</svg>
