<svg width="380" height="482" viewBox="0 0 380 482" fill="none" xmlns="http://www.w3.org/2000/svg">
<g clip-path="url(#clip0_936_43195)">
<g filter="url(#filter0_d_936_43195)">
<rect x="147" y="103" width="88" height="90" rx="12" fill="white"/>
<path fill-rule="evenodd" clip-rule="evenodd" d="M191 157C199.837 157 207 149.837 207 141C207 135.866 204.582 131.297 200.823 128.37L198.181 126.698C196.022 125.612 193.582 125 191 125C182.163 125 175 132.163 175 141C175 149.837 182.163 157 191 157ZM198.181 126.698V134.292C196.317 132.202 193.622 130.889 190.625 130.889C184.999 130.889 180.437 135.517 180.437 141.226C180.437 146.935 184.999 151.563 190.625 151.563C193.622 151.563 196.317 150.25 198.181 148.16L198.107 150.311C198.097 150.614 198.339 150.864 198.642 150.864H200.358C200.654 150.864 200.893 150.624 200.892 150.328L200.823 128.37L198.181 126.698ZM198.606 141.226C198.606 145.525 195.166 149.01 190.922 149.01C186.679 149.01 183.239 145.525 183.239 141.226C183.239 136.927 186.679 133.441 190.922 133.441C195.166 133.441 198.606 136.927 198.606 141.226Z" fill="url(#paint0_radial_936_43195)"/>
<path d="M165.513 169H168.556C171.733 169 173.071 170.269 173.071 173C173.071 175.731 171.733 177 168.556 177H165.513C165.234 177 165 176.771 165 176.486V169.537C165 169.24 165.223 169 165.513 169ZM168.5 170.577H167.051V175.423H168.5C170.496 175.423 171.02 174.714 171.02 173C171.02 171.286 170.496 170.577 168.5 170.577Z" fill="#04101C"/>
<path d="M173.541 176.486L174.913 171.171C175.37 169.4 176.941 169 178.524 169H181.456C181.724 169 181.924 169.24 181.924 169.514V176.486C181.924 176.771 181.69 177 181.412 177H180.386C180.096 177 179.873 176.771 179.873 176.474V175.069H176.005L175.637 176.474C175.559 176.771 175.28 177 174.991 177H173.92C173.631 177 173.463 176.771 173.541 176.486ZM176.886 171.697L176.406 173.491H179.873V170.577H178.324C177.621 170.577 177.064 171.011 176.886 171.697Z" fill="#04101C"/>
<path d="M185.815 176.486V174.143L182.905 169.526C182.738 169.263 182.816 169 183.095 169H184.131C184.577 169 184.89 169.229 185.079 169.526L186.84 172.314L188.602 169.526C188.791 169.229 189.103 169 189.549 169H190.586C190.865 169 190.943 169.263 190.775 169.526L187.866 174.143V176.486C187.866 176.771 187.632 177 187.353 177H186.328C186.049 177 185.815 176.771 185.815 176.486Z" fill="#04101C"/>
<path d="M193.23 177H192.271C191.993 177 191.759 176.76 191.759 176.474V169.526C191.759 169.24 191.981 169 192.26 169H193.865C194.133 169 194.445 169.263 194.612 169.526L197.901 174.714V169.514C197.901 169.229 198.135 169 198.414 169H199.35C199.64 169 199.863 169.229 199.863 169.526V176.474C199.863 176.76 199.64 177 199.35 177H197.544C197.254 177 196.931 176.76 196.753 176.474L193.743 171.686V176.474C193.743 176.76 193.509 177 193.23 177Z" fill="#04101C"/>
<path d="M208.214 169C208.493 169 208.727 169.229 208.727 169.526V170.051C208.727 170.349 208.493 170.577 208.214 170.577H203.477V172.2H207.557C207.835 172.2 208.069 172.44 208.069 172.726V173.251C208.069 173.537 207.835 173.777 207.557 173.777H203.477V175.423H208.203C208.482 175.423 208.705 175.651 208.705 175.937V176.474C208.705 176.76 208.482 177 208.192 177H201.938C201.648 177 201.426 176.76 201.426 176.463V169.514C201.426 169.229 201.66 169 201.938 169H208.214Z" fill="#04101C"/>
<path d="M209.576 169H216.487C216.777 169 217 169.229 217 169.526V170.051C217 170.349 216.777 170.577 216.487 170.577H214.057V176.486C214.057 176.771 213.823 177 213.544 177H212.519C212.24 177 212.006 176.771 212.006 176.486V170.577H209.576C209.286 170.577 209.063 170.349 209.063 170.051V169.526C209.063 169.229 209.286 169 209.576 169Z" fill="#04101C"/>
</g>
<rect x="159.5" y="-19.5" width="67" height="67" rx="11.5" fill="#F9FBFF"/>
<rect x="159.5" y="-19.5" width="67" height="67" rx="11.5" stroke="#ECECEC"/>
<path d="M199.409 20.0454C198.864 20.0454 198.455 19.7727 198.182 19.3636L196.546 16.5C195.864 15 194.501 13.6363 193.001 12.8182L190.137 11.1818C189.728 11.0454 189.455 10.5 189.455 10.0909C189.455 9.54543 189.728 9.13634 190.137 8.86362L193.001 7.22726C194.501 6.40908 195.864 5.18181 196.682 3.54545L198.319 0.681817C198.455 0.272727 199 0 199.409 0C199.955 0 200.364 0.272727 200.637 0.681817L202.273 3.54545C203.091 5.04544 204.455 6.40908 205.955 7.22726L208.818 8.86362C209.227 9.13634 209.5 9.54543 209.5 10.0909C209.5 10.6363 209.227 11.0454 208.818 11.3182L205.955 12.9545C204.455 13.7727 203.091 15.1363 202.273 16.6363L200.637 19.5C200.364 19.7727 199.955 20.0454 199.409 20.0454ZM193.682 10.0909L194.364 10.5C196.41 11.5909 198.046 13.2272 199.137 15.2727L199.546 15.9545L199.955 15.2727C201.046 13.2272 202.682 11.5909 204.727 10.5L205.409 10.0909L204.727 9.6818C202.682 8.59089 201.046 6.95453 199.955 4.90908L199.546 4.22726L199.137 4.90908C198.046 6.95453 196.41 8.59089 194.364 9.6818L193.682 10.0909Z" fill="#ECECEC"/>
<path d="M187 30C186.454 30 186.045 29.7273 185.773 29.3182L184.954 27.6818C184.273 26.3182 183.182 25.2273 181.818 24.5455L180.182 23.7273C179.773 23.4546 179.5 22.9091 179.5 22.5C179.5 21.9546 179.773 21.5455 180.182 21.2727L181.818 20.4546C183.182 19.7727 184.273 18.6818 184.954 17.3182L185.773 15.6818C186.318 14.8637 187.682 14.8637 188.227 15.6818L189.045 17.3182C189.727 18.6818 190.818 19.7727 192.181 20.4546L193.818 21.2727C194.227 21.5455 194.499 21.9546 194.499 22.5C194.499 23.0455 194.227 23.4546 193.818 23.7273L192.318 24.5455C190.954 25.2273 189.863 26.3182 189.181 27.6818L188.363 29.3182C187.954 29.7273 187.545 30 187 30ZM183.727 22.5C185.091 23.3182 186.318 24.5455 187.136 25.9091C187.954 24.5455 189.181 23.3182 190.545 22.5C189.045 21.5455 187.954 20.4546 187 19.0909C186.182 20.4546 185.091 21.5455 183.727 22.5Z" fill="#ECECEC"/>
<rect x="-2.5" y="-31.5" width="67" height="67" rx="11.5" fill="#F9FBFF"/>
<rect x="-2.5" y="-31.5" width="67" height="67" rx="11.5" stroke="#ECECEC"/>
<path d="M41.7318 -11.5672C41.1549 -12.1443 40.2895 -12.1443 39.7125 -11.5672C39.1356 -10.99 39.1356 -10.1244 39.7125 -9.54726C42.3088 -6.95025 43.7512 -3.48756 43.7512 0.263681C43.7512 4.01493 42.3088 7.47761 39.7125 10.0746C37.1162 12.6716 33.6546 14.1144 29.9044 14.1144C26.7312 14.1144 23.558 12.9602 21.1059 10.9403L22.981 8.9204C25.0003 10.5075 27.4524 11.2289 29.7602 11.2289C32.6449 11.2289 35.3854 10.2189 37.549 8.05473C41.8761 3.72637 41.8761 -3.34328 37.549 -7.52736C33.2218 -11.8557 26.1542 -11.8557 21.9713 -7.52736C18.0769 -3.63184 17.6442 2.57214 20.9617 6.9005L17.9327 10.0746C17.3558 10.6517 17.3558 11.5174 17.9327 12.0945C21.1059 15.2687 25.2888 17 29.7602 17C34.2315 17 38.4144 15.2687 41.5876 12.0945C44.7608 8.9204 46.4917 4.73632 46.4917 0.263681C46.6359 -4.20896 44.905 -8.39303 41.7318 -11.5672ZM24.1349 -5.50746C25.7215 -7.09453 27.8851 -7.9602 29.9044 -7.9602C32.0679 -7.9602 34.0873 -7.09453 35.6739 -5.50746C38.8471 -2.33333 38.8471 2.8607 35.6739 6.03483C32.5007 9.20896 27.3081 9.20896 24.1349 6.03483C20.9617 2.8607 20.9617 -2.33333 24.1349 -5.50746Z" fill="#ECECEC"/>
<rect x="8.5" y="234.5" width="67" height="67" rx="11.5" fill="#F9FBFF"/>
<rect x="8.5" y="234.5" width="67" height="67" rx="11.5" stroke="#ECECEC"/>
<path fill-rule="evenodd" clip-rule="evenodd" d="M39.916 254.491C41.3877 253.836 43.033 253.836 44.5047 254.491L44.5271 254.502L52.3957 258.188C52.4058 258.193 52.4158 258.197 52.4257 258.202C54.1885 259.085 55.2332 261.025 54.8887 263.105C54.2345 267.165 52.2534 275.169 44.9099 281.053L44.8963 281.064C43.2941 282.312 41.1266 282.312 39.5245 281.064L39.5107 281.053C32.1654 275.168 30.1852 267.161 29.5315 263.102C29.5269 263.073 29.5232 263.044 29.5205 263.015C29.3575 261.218 30.1585 259.102 32.1537 258.187L39.8864 254.505C39.8962 254.5 39.906 254.496 39.916 254.491ZM40.9648 256.811L33.2389 260.489L33.2191 260.499C32.4407 260.853 31.9776 261.763 32.0522 262.744C32.6749 266.577 34.513 273.782 41.0949 279.061C41.7743 279.586 42.6464 279.586 43.3258 279.061C49.9348 273.761 51.7609 266.517 52.3761 262.697L52.3771 262.691C52.5376 261.726 52.0657 260.876 51.299 260.485L43.4592 256.812C42.6538 256.457 41.7704 256.457 40.9648 256.811Z" fill="#ECECEC"/>
<path fill-rule="evenodd" clip-rule="evenodd" d="M48.0799 261.89C48.6428 262.311 48.7578 263.108 48.3368 263.671L42.6259 271.308C42.3868 271.627 42.0115 271.816 41.6122 271.818C41.2129 271.82 40.836 271.634 40.5941 271.316L37.396 267.116C36.9701 266.557 37.0783 265.759 37.6375 265.333C38.1967 264.907 38.9953 265.015 39.4211 265.574L41.5975 268.433L46.2984 262.147C46.7194 261.584 47.517 261.469 48.0799 261.89Z" fill="#ECECEC"/>
<rect x="39.5" y="101.5" width="67" height="67" rx="11.5" fill="#F9FBFF"/>
<rect x="39.5" y="101.5" width="67" height="67" rx="11.5" stroke="#ECECEC"/>
<path d="M83.9647 143.6H81C80.5059 141.8 78.9 140.6 76.9235 140.6C74.5765 140.6 72.6 142.52 72.6 144.8C72.6 147.08 74.5765 149 76.9235 149C78.9 149 80.5059 147.8 81 146H83.9647C84.7059 146 85.2 145.4 85.2 144.8C85.2 144.08 84.7059 143.6 83.9647 143.6ZM76.9235 146.6C75.9353 146.6 75.0706 145.76 75.0706 144.8C75.0706 143.84 75.9353 143 76.9235 143C77.9118 143 78.7765 143.84 78.7765 144.8C78.7765 145.76 77.9118 146.6 76.9235 146.6Z" fill="#ECECEC"/>
<path d="M70.0085 143.4H61.1915C60.4766 143.4 60 144.1 60 144.8C60 145.64 60.5957 146.2 61.1915 146.2H70.0085C70.7234 146.2 71.2 145.5 71.2 144.8C71.2 143.96 70.6043 143.4 70.0085 143.4Z" fill="#ECECEC"/>
<path d="M61.1915 126.6H70.0085C70.7234 126.6 71.2 125.9 71.2 125.2C71.2 124.5 70.6043 123.8 70.0085 123.8H61.1915C60.4766 123.8 60 124.5 60 125.2C60 125.9 60.5957 126.6 61.1915 126.6Z" fill="#ECECEC"/>
<path d="M76.9235 129.4C78.9 129.4 80.5059 128.2 81 126.4H83.9647C84.7059 126.4 85.2 125.8 85.2 125.2C85.2 124.6 84.5824 124 83.9647 124H81C80.5059 122.2 78.9 121 76.9235 121C74.5765 121 72.6 122.92 72.6 125.2C72.6 127.48 74.5765 129.4 76.9235 129.4ZM76.9235 123.4C77.9118 123.4 78.7765 124.24 78.7765 125.2C78.7765 126.16 77.9118 127 76.9235 127C75.9353 127 75.0706 126.16 75.0706 125.2C75.0706 124.24 75.9353 123.4 76.9235 123.4Z" fill="#ECECEC"/>
<path d="M61.2353 136.2H64.2C64.6941 137.88 66.3 139.2 68.2765 139.2C70.6235 139.2 72.6 137.28 72.6 135C72.6 132.72 70.6235 130.8 68.2765 130.8C66.3 130.8 64.6941 132 64.2 133.8H61.2353C60.4941 133.8 60 134.4 60 135C60 135.6 60.6176 136.2 61.2353 136.2ZM68.2765 133.2C69.2647 133.2 70.1294 134.04 70.1294 135C70.1294 135.96 69.2647 136.8 68.2765 136.8C67.2882 136.8 66.4235 135.96 66.4235 135C66.4235 134.04 67.2882 133.2 68.2765 133.2Z" fill="#ECECEC"/>
<path d="M83.9957 133.6H75.2043C74.4817 133.6 74 134.3 74 135C74 135.7 74.6022 136.4 75.2043 136.4H83.9957C84.7183 136.4 85.2 135.7 85.2 135C85.2 134.3 84.7183 133.6 83.9957 133.6Z" fill="#ECECEC"/>
<rect x="275.5" y="-31.5" width="67" height="67" rx="11.5" fill="#F9FBFF"/>
<rect x="275.5" y="-31.5" width="67" height="67" rx="11.5" stroke="#ECECEC"/>
<path d="M321.6 -9.2H296.4C295.56 -9.2 295 -9.76 295 -10.6C295 -11.44 295.56 -12 296.4 -12H321.6C322.44 -12 323 -11.44 323 -10.6C323 -9.76 322.44 -9.2 321.6 -9.2Z" fill="#ECECEC"/>
<path d="M321.6 7.6H309C308.16 7.6 307.6 7.04 307.6 6.2C307.6 5.36 308.16 4.8 309 4.8H321.6C322.44 4.8 323 5.36 323 6.2C323 7.04 322.44 7.6 321.6 7.6Z" fill="#ECECEC"/>
<path d="M321.6 -0.8H309C308.16 -0.8 307.6 -1.36 307.6 -2.2C307.6 -3.04 308.16 -3.6 309 -3.6H321.6C322.44 -3.6 323 -3.04 323 -2.2C323 -1.36 322.44 -0.8 321.6 -0.8Z" fill="#ECECEC"/>
<path d="M321.6 16H296.4C295.56 16 295 15.44 295 14.6C295 13.76 295.56 13.2 296.4 13.2H321.6C322.44 13.2 323 13.76 323 14.6C323 15.44 322.44 16 321.6 16Z" fill="#ECECEC"/>
<path d="M297.52 9.14C297.1 9.14 296.68 9 296.4 8.86C295.56 8.44 295 7.6 295 6.62V-2.62C295 -3.6 295.56 -4.44 296.4 -4.86C297.24 -5.28 298.22 -5.14 299.06 -4.58L305.22 0.0400019C305.78 0.460002 306.2 1.16 306.2 2C306.2 2.84 305.78 3.54 305.22 4.1L299.06 8.72C298.64 9 298.08 9.14 297.52 9.14ZM297.8 -2.06V6.06L303.26 2L297.8 -2.06Z" fill="#ECECEC"/>
<rect x="274.5" y="383.5" width="67" height="67" rx="11.5" fill="#F9FBFF"/>
<rect x="274.5" y="383.5" width="67" height="67" rx="11.5" stroke="#ECECEC"/>
<path fill-rule="evenodd" clip-rule="evenodd" d="M306.758 403.043C313.547 402.477 319.266 407.585 319.409 414.171L319.409 414.199C319.409 416.501 318.688 418.653 317.41 420.5L317.397 420.518L310.937 429.519C310.925 429.536 310.911 429.554 310.898 429.571C309.413 431.429 306.492 431.543 305.066 429.513L298.604 420.51C296.919 418.122 296.034 415.107 296.75 411.916C297.632 407.131 301.804 403.609 306.719 403.047C306.732 403.045 306.745 403.044 306.758 403.043ZM306.989 405.578C303.055 406.036 299.896 408.836 299.249 412.398C299.246 412.416 299.242 412.434 299.238 412.452C298.699 414.827 299.332 417.124 300.681 419.039L307.147 428.047C307.491 428.54 308.35 428.655 308.892 428.003L315.323 419.043C316.318 417.601 316.861 415.958 316.864 414.213C316.746 409.149 312.346 405.142 306.989 405.578Z" fill="#ECECEC"/>
<path fill-rule="evenodd" clip-rule="evenodd" d="M307.955 411.782C306.619 411.782 305.537 412.864 305.537 414.2C305.537 415.536 306.619 416.618 307.955 416.618C309.29 416.618 310.373 415.536 310.373 414.2C310.373 412.864 309.29 411.782 307.955 411.782ZM302.991 414.2C302.991 411.459 305.214 409.236 307.955 409.236C310.696 409.236 312.918 411.459 312.918 414.2C312.918 416.941 310.696 419.164 307.955 419.164C305.214 419.164 302.991 416.941 302.991 414.2Z" fill="#ECECEC"/>
<path fill-rule="evenodd" clip-rule="evenodd" d="M307.955 411.782C306.619 411.782 305.537 412.864 305.537 414.2C305.537 415.536 306.619 416.618 307.955 416.618C309.29 416.618 310.373 415.536 310.373 414.2C310.373 412.864 309.29 411.782 307.955 411.782ZM302.991 414.2C302.991 411.459 305.214 409.236 307.955 409.236C310.696 409.236 312.918 411.459 312.918 414.2C312.918 416.941 310.696 419.164 307.955 419.164C305.214 419.164 302.991 416.941 302.991 414.2Z" fill="#ECECEC"/>
<path fill-rule="evenodd" clip-rule="evenodd" d="M307.955 411.782C306.619 411.782 305.537 412.864 305.537 414.2C305.537 415.536 306.619 416.618 307.955 416.618C309.29 416.618 310.373 415.536 310.373 414.2C310.373 412.864 309.29 411.782 307.955 411.782ZM302.991 414.2C302.991 411.459 305.214 409.236 307.955 409.236C310.696 409.236 312.918 411.459 312.918 414.2C312.918 416.941 310.696 419.164 307.955 419.164C305.214 419.164 302.991 416.941 302.991 414.2Z" fill="#ECECEC"/>
<rect x="-23.5" y="386.5" width="67" height="67" rx="11.5" fill="#F9FBFF"/>
<rect x="-23.5" y="386.5" width="67" height="67" rx="11.5" stroke="#ECECEC"/>
<path d="M-0.98 434C-1.68 434 -2.24 433.72 -2.8 433.3C-3.5 432.6 -3.64 431.62 -3.36 430.78L-1.96 426.44C-2.94 424.48 -3.5 422.24 -3.5 420C-3.5 412.3 2.8 406 10.5 406C18.2 406 24.5 412.3 24.5 420C24.5 427.7 18.2 434 10.5 434C8.26 434 6.02 433.44 4.06 432.46L-0.28 433.86C-0.42 434 -0.7 434 -0.98 434ZM4.9 429.66C6.58 430.64 8.54 431.2 10.5 431.2C16.66 431.2 21.7 426.16 21.7 420C21.7 413.84 16.66 408.8 10.5 408.8C4.34 408.8 -0.7 413.84 -0.7 420C-0.7 421.96 -0.14 423.92 0.84 425.6C0.98 425.88 1.12 426.3 0.98 426.72L-0.42 431.06L3.92 429.66C3.92 429.66 4.76307 429.592 4.9 429.66Z" fill="#ECECEC"/>
<path d="M10.5 422.24C11.7371 422.24 12.74 421.237 12.74 420C12.74 418.763 11.7371 417.76 10.5 417.76C9.26288 417.76 8.26 418.763 8.26 420C8.26 421.237 9.26288 422.24 10.5 422.24Z" fill="#ECECEC"/>
<path d="M3.64 422.24C4.87712 422.24 5.88 421.237 5.88 420C5.88 418.763 4.87712 417.76 3.64 417.76C2.40288 417.76 1.4 418.763 1.4 420C1.4 421.237 2.40288 422.24 3.64 422.24Z" fill="#ECECEC"/>
<path d="M17.36 422.24C18.5971 422.24 19.6 421.237 19.6 420C19.6 418.763 18.5971 417.76 17.36 417.76C16.1229 417.76 15.12 418.763 15.12 420C15.12 421.237 16.1229 422.24 17.36 422.24Z" fill="#ECECEC"/>
<rect x="104.5" y="383.5" width="67" height="67" rx="11.5" fill="#F9FBFF"/>
<rect x="104.5" y="383.5" width="67" height="67" rx="11.5" stroke="#ECECEC"/>
<path d="M152.061 411.679C149.853 408.703 147.254 405.984 144.266 403.914C142.318 402.49 139.59 402.749 137.771 404.561L133.354 408.961C131.665 410.644 131.405 413.362 132.704 415.303C132.834 415.433 132.964 415.692 133.224 415.821L125.039 423.975C124.39 424.622 124 425.528 124 426.564V430.706C124 431.094 124.13 431.353 124.39 431.612C124.65 431.871 124.909 432 125.299 432H129.456C130.496 432 131.405 431.612 132.055 430.965L140.239 422.81C140.499 422.94 140.629 423.069 140.889 423.199C142.837 424.493 145.566 424.234 147.254 422.552L151.671 418.151C153.23 416.339 153.49 413.621 152.061 411.679ZM149.593 416.339L145.176 420.74C144.266 421.646 142.967 421.775 142.058 421.128C141.538 420.74 141.149 420.481 140.629 420.092C140.109 419.704 139.33 419.704 138.94 420.222L129.976 429.153C129.716 429.411 129.456 429.541 129.197 429.541H126.338V426.693C126.338 426.434 126.468 426.176 126.728 425.917L135.692 416.986C136.212 416.468 136.212 415.821 135.822 415.303C135.562 414.786 135.173 414.268 134.913 413.75C134.263 412.844 134.393 411.55 135.302 410.773L139.719 406.373C140.109 405.855 140.759 405.596 141.408 405.596C141.928 405.596 142.318 405.726 142.707 405.984C145.566 407.926 147.904 410.385 149.853 413.103C150.632 414.139 150.502 415.433 149.593 416.339Z" fill="#ECECEC"/>
<path d="M143.148 410.909C142.593 410.909 142.177 411.192 141.761 411.474C140.928 412.321 140.928 413.593 141.761 414.299C142.177 414.722 142.593 414.864 143.148 414.864C143.703 414.864 144.12 414.722 144.536 414.299C144.952 413.875 145.091 413.451 145.091 412.886C145.091 412.321 144.952 411.898 144.536 411.474C144.258 411.05 143.703 410.909 143.148 410.909Z" fill="#ECECEC"/>
<rect x="274.5" y="233.5" width="67" height="67" rx="11.5" fill="#F9FBFF"/>
<rect x="274.5" y="233.5" width="67" height="67" rx="11.5" stroke="#ECECEC"/>
<path d="M302.372 264.484C301.804 263.924 300.952 263.924 300.384 264.484C299.816 265.044 299.816 265.884 300.384 266.443L306.206 272.602C306.49 272.882 306.916 273.022 307.2 273.022C307.626 273.022 308.052 272.882 308.194 272.462L322.109 255.246C322.535 254.686 322.535 253.706 321.825 253.287C321.399 252.867 320.547 252.867 319.979 253.566L317.139 257.066C314.583 254.546 310.892 253.007 307.2 253.007C299.39 253.007 293 259.305 293 267.003C293 274.701 299.39 281 307.2 281C315.009 281 321.399 274.701 321.399 267.003C321.399 265.744 321.257 264.484 320.831 263.224C320.547 262.524 319.837 262.104 319.127 262.244C318.417 262.384 317.991 263.224 318.133 263.924C318.417 264.904 318.559 266.024 318.559 267.003C318.559 273.162 313.447 278.201 307.2 278.201C300.952 278.201 295.84 273.162 295.84 267.003C295.84 260.845 300.952 255.806 307.2 255.806C310.324 255.806 313.164 257.066 315.435 259.305L307.2 269.523L302.372 264.484Z" fill="#ECECEC"/>
<g filter="url(#filter1_d_936_43195)">
<rect x="157" y="233" width="68" height="94" rx="12" fill="white"/>
<path fill-rule="evenodd" clip-rule="evenodd" d="M199.03 257.487C200.293 258.178 201.2 259.549 201.2 261.2V275.48C201.2 278.822 197.499 280.802 194.778 278.859C194.748 278.838 194.718 278.814 194.689 278.79L193.196 277.53C193.174 277.512 193.153 277.493 193.133 277.474C191.985 276.381 190.554 275.7 188.982 275.449V280.94C188.982 283.161 187.358 285 185.138 285C182.873 285 181.295 282.972 181.295 280.94V275.183C178.276 274.494 176 271.636 176 268.34C176 266.484 176.655 264.697 178.056 263.413C179.188 262.258 180.741 261.34 182.695 261.34H187.541C189.689 261.21 191.681 260.475 193.185 259.298L194.634 257.939C194.662 257.913 194.691 257.887 194.722 257.863C196.081 256.785 197.746 256.785 199.03 257.487ZM196.5 260.028L195.056 261.382C195.028 261.408 194.999 261.433 194.968 261.457C192.956 263.053 190.366 263.983 187.662 264.138C187.635 264.139 187.609 264.14 187.582 264.14H182.695C181.68 264.14 180.8 264.605 180.034 265.395C180.013 265.417 179.99 265.439 179.967 265.46C179.22 266.134 178.8 267.132 178.8 268.34C178.8 270.711 180.68 272.54 182.695 272.54C183.468 272.54 184.095 273.167 184.095 273.94V280.94C184.095 281.709 184.688 282.2 185.138 282.2C185.634 282.2 186.182 281.799 186.182 280.94V273.94C186.182 273.167 186.809 272.54 187.582 272.54C190.337 272.54 192.988 273.486 195.032 275.416L196.443 276.607C197.251 277.141 198.4 276.6 198.4 275.48V261.2C198.4 260.611 198.085 260.162 197.686 259.943C197.318 259.742 196.895 259.736 196.5 260.028Z" fill="url(#paint1_radial_936_43195)"/>
<path fill-rule="evenodd" clip-rule="evenodd" d="M205.4 264C206.173 264 206.8 264.627 206.8 265.4V271C206.8 271.773 206.173 272.4 205.4 272.4C204.627 272.4 204 271.773 204 271V265.4C204 264.627 204.627 264 205.4 264Z" fill="url(#paint2_radial_936_43195)"/>
<path d="M176.211 304.656V304.586H177.371V304.65C177.371 305.162 177.565 305.545 177.951 305.799C178.342 306.053 178.889 306.18 179.592 306.18C180.291 306.18 180.826 306.051 181.198 305.793C181.573 305.531 181.76 305.188 181.76 304.762C181.76 304.379 181.586 304.074 181.239 303.848C180.895 303.617 180.207 303.371 179.176 303.109C178.133 302.844 177.408 302.531 177.002 302.172C176.6 301.812 176.399 301.299 176.399 300.631C176.399 299.963 176.674 299.406 177.225 298.961C177.78 298.516 178.547 298.293 179.528 298.293C180.504 298.293 181.281 298.531 181.86 299.008C182.438 299.484 182.727 300.076 182.727 300.783V300.848H181.567V300.783C181.567 300.334 181.395 299.973 181.051 299.699C180.711 299.426 180.203 299.289 179.528 299.289C178.852 299.289 178.352 299.406 178.028 299.641C177.707 299.871 177.547 300.186 177.547 300.584C177.547 300.951 177.709 301.242 178.033 301.457C178.362 301.668 179.02 301.896 180.008 302.143C181.043 302.404 181.785 302.729 182.235 303.115C182.684 303.502 182.908 304.049 182.908 304.756C182.908 305.463 182.61 306.043 182.012 306.496C181.418 306.949 180.612 307.176 179.592 307.176C178.569 307.176 177.748 306.951 177.131 306.502C176.518 306.049 176.211 305.434 176.211 304.656ZM184.648 307V298.469H186.172L188.943 304.885C188.994 305.002 189.043 305.125 189.09 305.254C189.141 305.379 189.186 305.496 189.225 305.605H189.271C189.307 305.496 189.348 305.379 189.395 305.254C189.441 305.125 189.49 305.002 189.541 304.885L192.295 298.469H193.848V307H192.723V300.73C192.723 300.613 192.725 300.482 192.729 300.338C192.736 300.189 192.748 300.057 192.764 299.939H192.711C192.68 300.057 192.637 300.189 192.582 300.338C192.531 300.482 192.48 300.613 192.43 300.73L189.746 307H188.709L186.008 300.73C185.957 300.613 185.906 300.482 185.855 300.338C185.809 300.189 185.771 300.057 185.744 299.939H185.691C185.703 300.057 185.713 300.189 185.721 300.338C185.732 300.482 185.738 300.613 185.738 300.73V307H184.648ZM196.115 307V298.469H197.638L200.41 304.885C200.461 305.002 200.51 305.125 200.556 305.254C200.607 305.379 200.652 305.496 200.691 305.605H200.738C200.773 305.496 200.814 305.379 200.861 305.254C200.908 305.125 200.957 305.002 201.008 304.885L203.761 298.469H205.314V307H204.189V300.73C204.189 300.613 204.191 300.482 204.195 300.338C204.203 300.189 204.215 300.057 204.23 299.939H204.177C204.146 300.057 204.103 300.189 204.049 300.338C203.998 300.482 203.947 300.613 203.896 300.73L201.213 307H200.176L197.474 300.73C197.424 300.613 197.373 300.482 197.322 300.338C197.275 300.189 197.238 300.057 197.211 299.939H197.158C197.17 300.057 197.179 300.189 197.187 300.338C197.199 300.482 197.205 300.613 197.205 300.73V307H196.115Z" fill="#04101C"/>
</g>
<rect x="275.5" y="101.5" width="67" height="67" rx="11.5" fill="#F9FBFF"/>
<rect x="275.5" y="101.5" width="67" height="67" rx="11.5" stroke="#ECECEC"/>
<path d="M302.355 123H297.409C294.473 123 292 125.25 292 128.1V133.2C292 136.05 294.473 138.3 297.409 138.3H300.964C301.891 138.3 302.509 137.7 302.509 136.8C302.509 135.9 301.891 135.3 300.964 135.3H297.409C296.173 135.3 295.091 134.4 295.091 133.2V128.1C295.091 126.9 296.173 126 297.409 126H302.355C303.591 126 304.673 126.9 304.673 128.1V140.55C304.673 142.5 303.127 144 301.118 144H298.645C297.718 144 297.1 144.6 297.1 145.5C297.1 146.4 297.718 147 298.645 147H301.118C304.827 147 307.764 144.15 307.764 140.55V128.1C307.764 125.25 305.291 123 302.355 123Z" fill="#ECECEC"/>
<path d="M320.591 123H315.645C312.709 123 310.236 125.25 310.236 128.1V133.2C310.236 136.05 312.709 138.3 315.645 138.3H319.2C320.127 138.3 320.745 137.7 320.745 136.8C320.745 135.9 320.127 135.3 319.2 135.3H315.645C314.409 135.3 313.327 134.4 313.327 133.2V128.1C313.327 126.9 314.409 126 315.645 126H320.591C321.827 126 322.909 126.9 322.909 128.1V140.55C322.909 142.5 321.364 144 319.355 144H316.882C315.955 144 315.336 144.6 315.336 145.5C315.336 146.4 315.955 147 316.882 147H319.355C323.064 147 326 144.15 326 140.55V128.1C326 125.25 323.527 123 320.591 123Z" fill="#ECECEC"/>
<path d="M235 148H275" stroke="#ECECEC"/>
<path d="M342 292L419 292" stroke="#ECECEC"/>
<path d="M302 301V383" stroke="#ECECEC"/>
<path d="M319 302V329.953C319 338.79 326.163 345.953 335 345.953H408C416.837 345.953 424 353.117 424 361.953V386" stroke="#ECECEC"/>
<path d="M341.5 267H351C359.837 267 367 259.837 367 251V78.9942C367 70.1576 374.163 62.9942 383 62.9942H451C459.837 62.9942 467 55.8307 467 46.9942V35" stroke="#ECECEC"/>
<path d="M342 280L388 280C396.837 280 404 272.837 404 264L404 169" stroke="#ECECEC"/>
<path d="M225 15H273" stroke="#ECECEC"/>
<path d="M73 101L73 9C73 4.58172 69.4183 1 65 1V1" stroke="#ECECEC"/>
<path d="M341.5 251.5V251.5C348.403 251.5 353.999 245.903 353.999 239L353.999 99.4998C353.999 90.6632 346.836 83.4998 337.999 83.4998L103 83.4997C94.1639 83.4997 87.0005 90.6627 87.0002 99.499L87.0001 101" stroke="#ECECEC"/>
<path d="M20 454L20 533" stroke="#ECECEC"/>
<path d="M128 450L128 532" stroke="#ECECEC"/>
<path d="M151 451L151 501C151 509.837 158.163 517 167 517L293 517C301.837 517 309 524.164 309 533V533" stroke="#ECECEC"/>
<path d="M173 418L178.5 418C187.337 418 194.5 425.163 194.5 434L194.5 481.5C194.5 490.336 201.664 497.5 210.5 497.5L463 497.5C471.837 497.5 479 504.663 479 513.5L479 533" stroke="#ECECEC"/>
<path d="M0.999999 454L0.999999 488.514C0.999999 497.351 -6.16344 504.514 -15 504.514L-70 504.514C-78.8366 504.514 -86 511.678 -86 520.514L-86 532" stroke="#ECECEC"/>
<path d="M225 1.49917L234.814 1.49926C243.376 1.49934 249.935 -4.56545 249.935 -12.4829L249.937 -98.9996" stroke="#ECECEC"/>
<path d="M147 148H107" stroke="#ECECEC"/>
<path d="M39 148L-4 148" stroke="#ECECEC"/>
<path d="M39 157H34.8374C26.0008 157 18.8374 164.163 18.8374 173V195.25C18.8374 204.087 11.674 211.25 2.8374 211.25H-69C-77.8366 211.25 -85 218.413 -85 227.25V234" stroke="#ECECEC"/>
<path d="M59 169L59 234" stroke="#ECECEC"/>
<path d="M107 157L112.999 157C121.836 157 128.999 164.164 128.999 173L128.999 383" stroke="#ECECEC"/>
<path d="M21 386V380.551C21 371.715 28.1634 364.551 37 364.551H76C84.8366 364.551 92 357.388 92 348.551V169" stroke="#ECECEC"/>
<path d="M191 103V48" stroke="#ECECEC"/>
<path d="M191 193L191 233" stroke="url(#paint3_linear_936_43195)" stroke-width="2"/>
</g>
<defs>
<filter id="filter0_d_936_43195" x="138" y="95" width="108" height="110" filterUnits="userSpaceOnUse" color-interpolation-filters="sRGB">
<feFlood flood-opacity="0" result="BackgroundImageFix"/>
<feColorMatrix in="SourceAlpha" type="matrix" values="0 0 0 0 0 0 0 0 0 0 0 0 0 0 0 0 0 0 127 0" result="hardAlpha"/>
<feOffset dx="1" dy="2"/>
<feGaussianBlur stdDeviation="5"/>
<feComposite in2="hardAlpha" operator="out"/>
<feColorMatrix type="matrix" values="0 0 0 0 0.00780001 0 0 0 0 0.045344 0 0 0 0 0.0800001 0 0 0 0.04 0"/>
<feBlend mode="normal" in2="BackgroundImageFix" result="effect1_dropShadow_936_43195"/>
<feBlend mode="normal" in="SourceGraphic" in2="effect1_dropShadow_936_43195" result="shape"/>
</filter>
<filter id="filter1_d_936_43195" x="148" y="225" width="88" height="114" filterUnits="userSpaceOnUse" color-interpolation-filters="sRGB">
<feFlood flood-opacity="0" result="BackgroundImageFix"/>
<feColorMatrix in="SourceAlpha" type="matrix" values="0 0 0 0 0 0 0 0 0 0 0 0 0 0 0 0 0 0 127 0" result="hardAlpha"/>
<feOffset dx="1" dy="2"/>
<feGaussianBlur stdDeviation="5"/>
<feComposite in2="hardAlpha" operator="out"/>
<feColorMatrix type="matrix" values="0 0 0 0 0.00780001 0 0 0 0 0.045344 0 0 0 0 0.0800001 0 0 0 0.04 0"/>
<feBlend mode="normal" in2="BackgroundImageFix" result="effect1_dropShadow_936_43195"/>
<feBlend mode="normal" in="SourceGraphic" in2="effect1_dropShadow_936_43195" result="shape"/>
</filter>
<radialGradient id="paint0_radial_936_43195" cx="0" cy="0" r="1" gradientUnits="userSpaceOnUse" gradientTransform="translate(203 125) rotate(120.7) scale(37.2156)">
<stop offset="0.338542" stop-color="#7A73FF"/>
<stop offset="0.722638" stop-color="#75CDFF"/>
<stop offset="1" stop-color="#4AFCF1"/>
</radialGradient>
<radialGradient id="paint1_radial_936_43195" cx="0" cy="0" r="1" gradientUnits="userSpaceOnUse" gradientTransform="translate(191.4 271) rotate(100.679) scale(17.8084 19.4727)">
<stop offset="0.055" stop-color="#7A73FF"/>
<stop offset="0.65" stop-color="#67DDFA"/>
<stop offset="1" stop-color="#4AFCF1"/>
</radialGradient>
<radialGradient id="paint2_radial_936_43195" cx="0" cy="0" r="1" gradientUnits="userSpaceOnUse" gradientTransform="translate(191.4 271) rotate(100.679) scale(17.8084 19.4727)">
<stop offset="0.055" stop-color="#7A73FF"/>
<stop offset="0.65" stop-color="#67DDFA"/>
<stop offset="1" stop-color="#4AFCF1"/>
</radialGradient>
<linearGradient id="paint3_linear_936_43195" x1="190" y1="255.5" x2="196.761" y2="255.01" gradientUnits="userSpaceOnUse">
<stop offset="0.338542" stop-color="#7A73FF"/>
<stop offset="0.734375" stop-color="#75CDFF"/>
<stop offset="1" stop-color="#4AFCF1"/>
</linearGradient>
<clipPath id="clip0_936_43195">
<rect width="788" height="482" fill="white" transform="translate(-207)"/>
</clipPath>
</defs>
</svg>
