<svg width="380" height="582" viewBox="0 0 380 582" fill="none" xmlns="http://www.w3.org/2000/svg">
<rect x="130.5" y="17.5" width="67" height="67" rx="11.5" fill="#F9FBFF"/>
<rect x="130.5" y="17.5" width="67" height="67" rx="11.5" stroke="#ECECEC"/>
<path fill-rule="evenodd" clip-rule="evenodd" d="M164 67C172.837 67 180 59.8366 180 51C180 45.8664 177.582 41.2975 173.823 38.3697L171.181 36.6982C169.022 35.6117 166.582 35 164 35C155.163 35 148 42.1634 148 51C148 59.8366 155.163 67 164 67ZM171.181 36.6982V44.2921C169.317 42.2021 166.622 40.889 163.625 40.889C157.999 40.889 153.437 45.517 153.437 51.2258C153.437 56.9347 157.999 61.5627 163.625 61.5627C166.622 61.5627 169.317 60.2496 171.181 58.1596L171.107 60.3112C171.097 60.6136 171.339 60.8644 171.642 60.8644H173.358C173.654 60.8644 173.893 60.6239 173.892 60.3279L173.823 38.3697L171.181 36.6982ZM171.606 51.2258C171.606 55.5251 168.166 59.0104 163.922 59.0104C159.679 59.0104 156.239 55.5251 156.239 51.2258C156.239 46.9266 159.679 43.4413 163.922 43.4413C168.166 43.4413 171.606 46.9266 171.606 51.2258Z" fill="#ECECEC"/>
<rect x="-18.5" y="138.5" width="67" height="67" rx="11.5" fill="#F9FBFF"/>
<rect x="-18.5" y="138.5" width="67" height="67" rx="11.5" stroke="#ECECEC"/>
<path fill-rule="evenodd" clip-rule="evenodd" d="M12.916 158.491C14.3877 157.836 16.033 157.836 17.5047 158.491L17.5271 158.502L25.3957 162.188C25.4058 162.193 25.4158 162.197 25.4257 162.202C27.1885 163.085 28.2332 165.025 27.8887 167.105C27.2345 171.165 25.2534 179.169 17.9099 185.053L17.8963 185.064C16.2941 186.312 14.1266 186.312 12.5245 185.064L12.5107 185.053C5.16539 179.168 3.18523 171.161 2.53152 167.102C2.52686 167.073 2.5232 167.044 2.52054 167.015C2.35751 165.218 3.15847 163.102 5.15367 162.187L12.8864 158.505C12.8962 158.5 12.906 158.496 12.916 158.491ZM13.9648 160.811L6.23893 164.489L6.21911 164.499C5.44067 164.853 4.97761 165.763 5.05223 166.744C5.67486 170.577 7.51295 177.782 14.0949 183.061C14.7743 183.586 15.6464 183.586 16.3258 183.061C22.9348 177.761 24.7609 170.517 25.3761 166.697L25.3771 166.691C25.5376 165.726 25.0657 164.876 24.299 164.485L16.4592 160.812C15.6538 160.457 14.7704 160.457 13.9648 160.811Z" fill="#ECECEC"/>
<path fill-rule="evenodd" clip-rule="evenodd" d="M21.0799 165.89C21.6428 166.311 21.7578 167.108 21.3368 167.671L15.6259 175.308C15.3868 175.627 15.0115 175.816 14.6122 175.818C14.2129 175.82 13.836 175.634 13.5941 175.316L10.396 171.116C9.97013 170.557 10.0783 169.759 10.6375 169.333C11.1967 168.907 11.9953 169.015 12.4211 169.574L14.5975 172.433L19.2984 166.147C19.7194 165.584 20.517 165.469 21.0799 165.89Z" fill="#ECECEC"/>
<rect x="247.5" y="287.5" width="67" height="67" rx="11.5" fill="#F9FBFF"/>
<rect x="247.5" y="287.5" width="67" height="67" rx="11.5" stroke="#ECECEC"/>
<path fill-rule="evenodd" clip-rule="evenodd" d="M279.758 307.043C286.547 306.477 292.266 311.585 292.409 318.171L292.409 318.199C292.409 320.501 291.688 322.653 290.41 324.5L290.397 324.518L283.937 333.519C283.925 333.536 283.911 333.554 283.898 333.571C282.413 335.429 279.492 335.543 278.066 333.513L271.604 324.51C269.919 322.122 269.034 319.107 269.75 315.916C270.632 311.131 274.804 307.609 279.719 307.047C279.732 307.045 279.745 307.044 279.758 307.043ZM279.989 309.578C276.055 310.036 272.896 312.836 272.249 316.398C272.246 316.416 272.242 316.434 272.238 316.452C271.699 318.827 272.332 321.124 273.681 323.039L280.147 332.047C280.491 332.54 281.35 332.655 281.892 332.003L288.323 323.043C289.318 321.601 289.861 319.958 289.864 318.213C289.746 313.149 285.346 309.142 279.989 309.578Z" fill="#ECECEC"/>
<path fill-rule="evenodd" clip-rule="evenodd" d="M280.955 315.782C279.619 315.782 278.537 316.864 278.537 318.2C278.537 319.536 279.619 320.618 280.955 320.618C282.29 320.618 283.373 319.536 283.373 318.2C283.373 316.864 282.29 315.782 280.955 315.782ZM275.991 318.2C275.991 315.459 278.214 313.236 280.955 313.236C283.696 313.236 285.918 315.459 285.918 318.2C285.918 320.941 283.696 323.164 280.955 323.164C278.214 323.164 275.991 320.941 275.991 318.2Z" fill="#ECECEC"/>
<path fill-rule="evenodd" clip-rule="evenodd" d="M280.955 315.782C279.619 315.782 278.537 316.864 278.537 318.2C278.537 319.536 279.619 320.618 280.955 320.618C282.29 320.618 283.373 319.536 283.373 318.2C283.373 316.864 282.29 315.782 280.955 315.782ZM275.991 318.2C275.991 315.459 278.214 313.236 280.955 313.236C283.696 313.236 285.918 315.459 285.918 318.2C285.918 320.941 283.696 323.164 280.955 323.164C278.214 323.164 275.991 320.941 275.991 318.2Z" fill="#ECECEC"/>
<path fill-rule="evenodd" clip-rule="evenodd" d="M280.955 315.782C279.619 315.782 278.537 316.864 278.537 318.2C278.537 319.536 279.619 320.618 280.955 320.618C282.29 320.618 283.373 319.536 283.373 318.2C283.373 316.864 282.29 315.782 280.955 315.782ZM275.991 318.2C275.991 315.459 278.214 313.236 280.955 313.236C283.696 313.236 285.918 315.459 285.918 318.2C285.918 320.941 283.696 323.164 280.955 323.164C278.214 323.164 275.991 320.941 275.991 318.2Z" fill="#ECECEC"/>
<rect x="362.5" y="287.5" width="67" height="67" rx="11.5" fill="#F9FBFF"/>
<rect x="362.5" y="287.5" width="67" height="67" rx="11.5" stroke="#ECECEC"/>
<rect x="356.5" y="5.5" width="67" height="67" rx="11.5" fill="#F9FBFF"/>
<rect x="356.5" y="5.5" width="67" height="67" rx="11.5" stroke="#ECECEC"/>
<path d="M380.115 33.9503C380.115 30.8011 382.763 28.3149 386.073 28.3149C387.065 28.3149 387.727 27.6519 387.727 26.6575C387.727 25.663 387.065 25 386.073 25C380.943 25 376.806 28.9779 376.806 33.9503V34.9448C376.806 36.4365 375.813 37.9282 374.158 38.4254C373.496 38.5912 373 39.2541 373 39.9171C373 40.5801 373.496 41.2431 374.158 41.5746C375.813 42.0718 376.806 43.3978 376.806 45.0552V46.0497C376.806 51.0221 380.943 55 386.073 55C387.065 55 387.727 54.337 387.727 53.3425C387.727 52.3481 387.065 51.6851 386.073 51.6851C382.763 51.6851 380.115 49.1989 380.115 46.0497V44.8895C380.115 42.9006 379.288 41.0773 377.964 39.9171C379.288 38.5912 380.115 36.768 380.115 34.9448V33.9503Z" fill="#ECECEC"/>
<path d="M407.842 38.3333C406.187 37.8333 405.194 36.5 405.194 34.8333V34C405.194 29 401.057 25 395.927 25C394.935 25 394.273 25.6667 394.273 26.6667C394.273 27.6667 394.935 28.3333 395.927 28.3333C399.237 28.3333 401.885 30.8333 401.885 34V35C401.885 37 402.712 38.8333 404.036 40C402.712 41.3333 401.885 43.1667 401.885 45V46C401.885 49.1667 399.237 51.6667 395.927 51.6667C394.935 51.6667 394.273 52.3333 394.273 53.3333C394.273 54.3333 394.935 55 395.927 55C401.057 55 405.194 51 405.194 46V45C405.194 43.5 406.187 42 407.842 41.5C408.504 41.3333 409 40.6667 409 40C409 39.3333 408.504 38.6667 407.842 38.3333Z" fill="#ECECEC"/>
<rect x="-37.5" y="437.5" width="67" height="67" rx="11.5" fill="#F9FBFF"/>
<rect x="-37.5" y="437.5" width="67" height="67" rx="11.5" stroke="#ECECEC"/>
<path d="M4.42786 474.134C1.50249 474.134 -1.00498 476.502 -1.00498 479.567C-1.00498 482.493 1.36318 485 4.42786 485C7.35323 485 9.8607 482.632 9.8607 479.567C9.8607 476.502 7.49254 474.134 4.42786 474.134ZM4.42786 482.075C3.03483 482.075 1.78109 480.96 1.78109 479.428C1.78109 478.035 2.89552 476.781 4.42786 476.781C5.8209 476.781 7.07463 477.896 7.07463 479.428C7.07463 480.96 5.9602 482.075 4.42786 482.075Z" fill="#ECECEC"/>
<path d="M-5.8806 468.701C-5.74129 468.701 -5.46269 468.701 -5.32338 468.562L0.248756 465.776C1.22388 467.03 2.75622 467.866 4.42786 467.866C7.49254 467.726 9.8607 465.358 9.8607 462.433C9.8607 459.507 7.49254 457 4.42786 457C1.50249 457 -1.00498 459.368 -1.00498 462.433C-1.00498 462.711 -1.00497 462.99 -0.865671 463.269L-6.57712 466.055C-7.27363 466.473 -7.55224 467.308 -7.13433 467.866C-6.99502 468.423 -6.43781 468.701 -5.8806 468.701ZM4.42786 459.786C5.8209 459.786 7.07463 460.9 7.07463 462.433C7.07463 463.826 5.9602 465.08 4.42786 465.08C3.03483 465.08 1.78109 463.965 1.78109 462.433C1.9204 460.9 3.03483 459.786 4.42786 459.786Z" fill="#ECECEC"/>
<path d="M-1.70149 475.109L-7.41294 472.323C-7.27363 471.905 -7.27363 471.488 -7.27363 470.93C-7.27363 468.005 -9.64179 465.498 -12.7065 465.498C-15.7711 465.498 -18 468.005 -18 470.93C-18 473.856 -15.6318 476.363 -12.5672 476.363C-11.0348 476.363 -9.64179 475.806 -8.66667 474.692L-2.81592 477.617C-2.67662 477.756 -2.39801 477.756 -2.25871 477.756C-1.70149 477.756 -1.28358 477.478 -1.00498 476.92C-0.726368 476.363 -1.00498 475.527 -1.70149 475.109ZM-12.5672 473.577C-14.0995 473.577 -15.2139 472.323 -15.2139 470.93C-15.2139 469.537 -14.0995 468.284 -12.5672 468.284C-11.1741 468.284 -9.9204 469.398 -9.9204 470.93C-10.0597 472.323 -11.1741 473.577 -12.5672 473.577Z" fill="#ECECEC"/>
<rect x="-50.5" y="290.5" width="67" height="67" rx="11.5" fill="#F9FBFF"/>
<rect x="-50.5" y="290.5" width="67" height="67" rx="11.5" stroke="#ECECEC"/>
<rect x="247.5" y="137.5" width="67" height="67" rx="11.5" fill="#F9FBFF"/>
<rect x="247.5" y="137.5" width="67" height="67" rx="11.5" stroke="#ECECEC"/>
<path d="M275.372 168.484C274.804 167.924 273.952 167.924 273.384 168.484C272.816 169.044 272.816 169.884 273.384 170.443L279.206 176.602C279.49 176.882 279.916 177.022 280.2 177.022C280.626 177.022 281.052 176.882 281.194 176.462L295.109 159.246C295.535 158.686 295.535 157.706 294.825 157.287C294.399 156.867 293.547 156.867 292.979 157.566L290.139 161.066C287.583 158.546 283.892 157.007 280.2 157.007C272.39 157.007 266 163.305 266 171.003C266 178.701 272.39 185 280.2 185C288.009 185 294.399 178.701 294.399 171.003C294.399 169.744 294.257 168.484 293.831 167.224C293.547 166.524 292.837 166.104 292.127 166.244C291.417 166.384 290.991 167.224 291.133 167.924C291.417 168.904 291.559 170.024 291.559 171.003C291.559 177.162 286.447 182.201 280.2 182.201C273.952 182.201 268.84 177.162 268.84 171.003C268.84 164.845 273.952 159.806 280.2 159.806C283.324 159.806 286.164 161.066 288.435 163.305L280.2 173.523L275.372 168.484Z" fill="#ECECEC"/>
<rect x="130.5" y="136.5" width="67" height="67" rx="11.5" fill="#F9FBFF"/>
<rect x="130.5" y="136.5" width="67" height="67" rx="11.5" stroke="#ECECEC"/>
<path fill-rule="evenodd" clip-rule="evenodd" d="M172.03 156.487C173.293 157.178 174.2 158.549 174.2 160.2V174.48C174.2 177.822 170.499 179.802 167.778 177.859C167.748 177.838 167.718 177.814 167.689 177.79L166.196 176.53C166.174 176.512 166.153 176.493 166.133 176.474C164.985 175.381 163.554 174.7 161.982 174.449V179.94C161.982 182.161 160.358 184 158.138 184C155.873 184 154.295 181.972 154.295 179.94V174.183C151.276 173.494 149 170.636 149 167.34C149 165.484 149.655 163.697 151.056 162.413C152.188 161.258 153.741 160.34 155.695 160.34H160.541C162.689 160.21 164.681 159.475 166.185 158.298L167.634 156.939C167.662 156.913 167.691 156.887 167.722 156.863C169.081 155.785 170.746 155.785 172.03 156.487ZM169.5 159.028L168.056 160.382C168.028 160.408 167.999 160.433 167.968 160.457C165.956 162.053 163.366 162.983 160.662 163.138C160.635 163.139 160.609 163.14 160.582 163.14H155.695C154.68 163.14 153.8 163.605 153.034 164.395C153.013 164.417 152.99 164.439 152.967 164.46C152.22 165.134 151.8 166.132 151.8 167.34C151.8 169.711 153.68 171.54 155.695 171.54C156.468 171.54 157.095 172.167 157.095 172.94V179.94C157.095 180.709 157.688 181.2 158.138 181.2C158.634 181.2 159.182 180.799 159.182 179.94V172.94C159.182 172.167 159.809 171.54 160.582 171.54C163.337 171.54 165.988 172.486 168.032 174.416L169.443 175.607C170.251 176.141 171.4 175.6 171.4 174.48V160.2C171.4 159.611 171.085 159.162 170.686 158.943C170.318 158.742 169.895 158.736 169.5 159.028Z" fill="#ECECEC"/>
<path fill-rule="evenodd" clip-rule="evenodd" d="M178.4 163C179.173 163 179.8 163.627 179.8 164.4V170C179.8 170.773 179.173 171.4 178.4 171.4C177.627 171.4 177 170.773 177 170V164.4C177 163.627 177.627 163 178.4 163Z" fill="#ECECEC"/>
<g filter="url(#filter0_d_928_43985)">
<rect x="77" y="437" width="123" height="94" rx="12" fill="white"/>
<path d="M133.226 491C132.774 491 132.322 490.854 131.87 490.708C130.665 490.124 130.062 488.955 130.363 487.787L132.171 479.315H129.459C128.254 479.315 127.199 478.585 126.747 477.562C126.295 476.54 126.445 475.371 127.35 474.641L141.664 459.888C142.568 459.012 144.075 458.72 145.13 459.304C146.335 459.888 146.938 461.057 146.637 462.225L144.829 470.697H147.541C148.746 470.697 149.801 471.427 150.253 472.45C150.705 473.472 150.555 474.641 149.65 475.371L135.336 490.124C134.733 490.708 133.98 491 133.226 491ZM133.98 476.247C134.432 476.247 134.884 476.394 135.185 476.832C135.486 477.27 135.637 477.562 135.486 478L133.528 487.933L147.541 473.472H143.171C142.719 473.472 142.267 473.326 141.966 472.888C141.664 472.596 141.514 472.158 141.664 471.719L143.623 461.787L129.61 476.394L133.98 476.247Z" fill="url(#paint0_radial_928_43985)"/>
<path d="M95.0159 511L98.5081 502.41H99.6448L103.137 511H101.907L99.3929 504.602C99.3265 504.441 99.2679 504.289 99.2171 504.145C99.1702 504 99.1273 503.854 99.0882 503.705H99.0238C98.9847 503.854 98.9398 504 98.889 504.145C98.8421 504.289 98.7855 504.441 98.7191 504.602L96.1878 511H95.0159ZM96.4866 508.797L96.8675 507.836L101.262 507.842L101.637 508.803L96.4866 508.797ZM108.428 511L105.727 508.146L106.418 507.414L109.863 511H108.428ZM104.572 507.385H105.803L108.217 504.766H109.547L106.266 508.27H104.572V507.385ZM105.135 504.766V511H104.016V504.766H105.135ZM110.244 505.65V504.766H115.81V505.65H113.59V511H112.465V505.65H110.244ZM116.589 513.438V512.482C116.707 512.514 116.834 512.539 116.97 512.559C117.111 512.578 117.246 512.588 117.375 512.588C117.691 512.588 117.957 512.5 118.171 512.324C118.39 512.148 118.638 511.695 118.916 510.965V510.959L116.32 504.766H117.451L119.115 508.873C119.177 509.029 119.234 509.182 119.285 509.33C119.339 509.479 119.386 509.623 119.425 509.764H119.461C119.5 509.623 119.546 509.479 119.601 509.33C119.656 509.182 119.712 509.029 119.771 508.873L121.359 504.766H122.455L119.595 511.82C119.369 512.367 119.08 512.793 118.728 513.098C118.38 513.402 117.953 513.555 117.445 513.555C117.273 513.555 117.119 513.545 116.982 513.525C116.845 513.506 116.714 513.477 116.589 513.438ZM123.228 509.166C123.228 508.529 123.501 508.035 124.048 507.684C124.599 507.332 125.312 507.156 126.187 507.156H127.857V506.711C127.857 506.336 127.74 506.037 127.505 505.814C127.275 505.592 126.88 505.48 126.322 505.48C125.767 505.48 125.367 505.576 125.12 505.768C124.874 505.955 124.751 506.182 124.751 506.447V506.477H123.626V506.447C123.626 505.936 123.87 505.498 124.359 505.135C124.847 504.771 125.511 504.59 126.351 504.59C127.187 504.59 127.833 504.77 128.29 505.129C128.751 505.484 128.982 506.012 128.982 506.711V509.594C128.982 509.848 129.003 510.088 129.046 510.314C129.089 510.537 129.15 510.734 129.228 510.906V511H128.144C128.081 510.902 128.025 510.773 127.974 510.613C127.923 510.453 127.892 510.295 127.88 510.139C127.716 510.4 127.443 510.629 127.06 510.824C126.677 511.02 126.187 511.117 125.589 511.117C124.917 511.117 124.355 510.949 123.902 510.613C123.452 510.277 123.228 509.795 123.228 509.166ZM124.353 509.107C124.353 509.459 124.474 509.732 124.716 509.928C124.958 510.123 125.337 510.221 125.853 510.221C126.369 510.221 126.831 510.072 127.242 509.775C127.652 509.479 127.857 509.164 127.857 508.832V507.953H126.316C125.675 507.953 125.187 508.057 124.851 508.264C124.519 508.467 124.353 508.748 124.353 509.107ZM132.609 505.65L132.503 508.135C132.456 509.186 132.312 509.947 132.069 510.42C131.831 510.893 131.419 511.129 130.833 511.129C130.689 511.129 130.562 511.119 130.452 511.1C130.343 511.084 130.251 511.059 130.177 511.023V510.057C130.243 510.084 130.312 510.104 130.382 510.115C130.456 510.127 130.54 510.133 130.634 510.133C130.931 510.133 131.136 509.98 131.249 509.676C131.366 509.367 131.441 508.803 131.472 507.982L131.612 504.766H136.423V511H135.298V505.65H132.609ZM138.438 511V504.766H139.552V508.738C139.552 508.855 139.55 508.988 139.546 509.137C139.546 509.285 139.544 509.42 139.54 509.541H139.587C139.641 509.436 139.702 509.324 139.768 509.207C139.835 509.09 139.911 508.973 139.997 508.855L142.932 504.766H144.063V511H142.944V507.033C142.944 506.912 142.946 506.777 142.95 506.629C142.954 506.477 142.96 506.34 142.968 506.219H142.903C142.852 506.32 142.794 506.432 142.727 506.553C142.661 506.674 142.587 506.793 142.505 506.91L139.569 511H138.438ZM148.575 511.176C147.567 511.176 146.823 510.963 146.342 510.537C145.866 510.111 145.628 509.607 145.628 509.025V508.996H146.717V509.025C146.717 509.35 146.852 509.635 147.122 509.881C147.395 510.127 147.876 510.25 148.563 510.25C149.153 510.25 149.596 510.154 149.893 509.963C150.19 509.771 150.339 509.508 150.339 509.172C150.339 508.887 150.227 508.666 150.005 508.51C149.786 508.35 149.438 508.27 148.962 508.27H147.579V507.391H148.856C149.298 507.391 149.622 507.311 149.829 507.15C150.036 506.99 150.139 506.77 150.139 506.488C150.139 506.172 150.014 505.93 149.764 505.762C149.518 505.594 149.147 505.51 148.651 505.51C148.026 505.51 147.569 505.629 147.28 505.867C146.991 506.105 146.846 506.396 146.846 506.74V506.77H145.756V506.74C145.756 506.123 146.003 505.611 146.495 505.205C146.987 504.795 147.704 504.59 148.645 504.59C149.501 504.59 150.153 504.75 150.602 505.07C151.051 505.391 151.276 505.832 151.276 506.395C151.276 506.734 151.163 507.029 150.936 507.279C150.714 507.525 150.409 507.691 150.022 507.777V507.795C150.471 507.857 150.825 508.01 151.083 508.252C151.344 508.49 151.475 508.805 151.475 509.195C151.475 509.812 151.212 510.297 150.684 510.648C150.157 511 149.454 511.176 148.575 511.176ZM152.829 509.166C152.829 508.529 153.102 508.035 153.649 507.684C154.2 507.332 154.912 507.156 155.787 507.156H157.457V506.711C157.457 506.336 157.34 506.037 157.106 505.814C156.875 505.592 156.481 505.48 155.922 505.48C155.368 505.48 154.967 505.576 154.721 505.768C154.475 505.955 154.352 506.182 154.352 506.447V506.477H153.227V506.447C153.227 505.936 153.471 505.498 153.959 505.135C154.448 504.771 155.112 504.59 155.952 504.59C156.787 504.59 157.434 504.77 157.891 505.129C158.352 505.484 158.582 506.012 158.582 506.711V509.594C158.582 509.848 158.604 510.088 158.647 510.314C158.69 510.537 158.75 510.734 158.829 510.906V511H157.745C157.682 510.902 157.625 510.773 157.575 510.613C157.524 510.453 157.493 510.295 157.481 510.139C157.317 510.4 157.043 510.629 156.661 510.824C156.278 511.02 155.787 511.117 155.19 511.117C154.518 511.117 153.955 510.949 153.502 510.613C153.053 510.277 152.829 509.795 152.829 509.166ZM153.954 509.107C153.954 509.459 154.075 509.732 154.317 509.928C154.559 510.123 154.938 510.221 155.454 510.221C155.969 510.221 156.432 510.072 156.842 509.775C157.252 509.479 157.457 509.164 157.457 508.832V507.953H155.916C155.276 507.953 154.787 508.057 154.452 508.264C154.12 508.467 153.954 508.748 153.954 509.107ZM165.959 512.582V511H160.58V504.766H161.705V510.115H164.928V504.766H166.053V510.115H166.99V512.582H165.959ZM168.25 511V504.766H169.363V508.738C169.363 508.855 169.361 508.988 169.357 509.137C169.357 509.285 169.355 509.42 169.351 509.541H169.398C169.453 509.436 169.514 509.324 169.58 509.207C169.646 509.09 169.723 508.973 169.809 508.855L172.744 504.766H173.875V511H172.756V507.033C172.756 506.912 172.758 506.777 172.762 506.629C172.766 506.477 172.771 506.34 172.779 506.219H172.715C172.664 506.32 172.605 506.432 172.539 506.553C172.473 506.674 172.398 506.793 172.316 506.91L169.381 511H168.25ZM176.728 511H175.48L177.484 508.34L178.615 508.439L176.728 511ZM179.968 511V508.75H178.211L178.082 508.68C177.316 508.68 176.728 508.508 176.318 508.164C175.908 507.816 175.703 507.35 175.703 506.764C175.703 506.158 175.91 505.674 176.324 505.311C176.738 504.947 177.332 504.766 178.105 504.766H181.099V511H179.968ZM178.111 507.859H179.968V505.65H178.111C177.642 505.65 177.312 505.756 177.121 505.967C176.933 506.178 176.84 506.443 176.84 506.764C176.84 507.088 176.933 507.352 177.121 507.555C177.308 507.758 177.638 507.859 178.111 507.859Z" fill="#04101C"/>
</g>
<g filter="url(#filter1_d_928_43985)">
<rect x="240" y="437" width="124" height="110" rx="12" fill="white"/>
<path d="M295.665 489C294.966 489 294.266 488.72 293.567 488.3C292.448 487.46 291.748 486.06 292.028 484.66L292.867 479.2L289.09 475.28C288.111 474.3 287.691 472.76 288.251 471.36C288.67 469.96 289.79 469.12 291.189 468.84L296.505 468L298.883 463.1C299.443 461.84 300.702 461 302.101 461C303.5 461 304.759 461.84 305.458 463.1L307.697 468L312.873 468.84C314.272 468.98 315.391 469.96 315.811 471.36C316.231 472.76 315.951 474.16 314.972 475.28L311.194 479.2L312.034 484.66C312.314 486.06 311.754 487.6 310.495 488.3C309.376 489.14 307.977 489.14 306.718 488.58L302.101 485.92L297.484 488.44C296.925 488.86 296.365 489 295.665 489ZM302.101 463.8C301.961 463.8 301.541 463.8 301.401 464.36L298.743 469.96C298.463 470.38 298.044 470.66 297.624 470.66L291.608 471.64C291.189 471.64 291.049 472.06 290.909 472.2C290.909 472.34 290.769 472.76 291.189 473.18L295.525 477.52C295.805 477.8 295.945 478.22 295.945 478.78L294.966 484.94C294.826 485.5 295.246 485.78 295.386 485.92C295.525 486.06 295.805 486.2 296.225 485.92L301.541 482.98C301.961 482.7 302.521 482.7 302.94 482.98L308.256 485.92C308.676 486.06 308.956 485.92 309.096 485.92C309.236 485.78 309.516 485.5 309.516 484.94L308.536 478.78C308.396 478.36 308.536 477.94 308.956 477.52L313.293 473.18C313.433 472.9 313.293 472.34 313.293 472.2C313.293 472.06 313.013 471.64 312.593 471.64L306.578 470.8C306.158 470.8 305.738 470.38 305.458 469.96L302.8 464.36C302.66 463.8 302.241 463.8 302.101 463.8Z" fill="url(#paint1_radial_928_43985)"/>
<path d="M259.058 506.951V506.518C259.058 505.182 259.425 504.145 260.159 503.406C260.894 502.664 261.835 502.293 262.984 502.293C264.136 502.293 265.079 502.664 265.814 503.406C266.548 504.145 266.915 505.182 266.915 506.518V506.951C266.915 508.287 266.548 509.326 265.814 510.068C265.079 510.807 264.136 511.176 262.984 511.176C261.835 511.176 260.894 510.807 260.159 510.068C259.425 509.326 259.058 508.287 259.058 506.951ZM260.236 506.951C260.236 507.967 260.486 508.76 260.986 509.33C261.489 509.896 262.157 510.18 262.989 510.18C263.818 510.18 264.484 509.896 264.987 509.33C265.491 508.76 265.743 507.967 265.743 506.951V506.518C265.743 505.502 265.491 504.711 264.987 504.145C264.484 503.574 263.818 503.289 262.989 503.289C262.157 503.289 261.489 503.574 260.986 504.145C260.486 504.711 260.236 505.502 260.236 506.518V506.951ZM269.265 507.977C269.265 508.629 269.448 509.16 269.815 509.57C270.186 509.98 270.796 510.207 271.644 510.25V505.516C270.796 505.559 270.186 505.785 269.815 506.195C269.448 506.605 269.265 507.137 269.265 507.789V507.977ZM275.153 507.789C275.153 507.137 274.968 506.605 274.597 506.195C274.229 505.785 273.62 505.559 272.769 505.516V510.25C273.62 510.207 274.229 509.98 274.597 509.57C274.968 509.16 275.153 508.629 275.153 507.977V507.789ZM271.644 511.176C270.519 511.137 269.649 510.834 269.036 510.268C268.423 509.697 268.116 508.934 268.116 507.977V507.789C268.116 506.832 268.423 506.07 269.036 505.504C269.649 504.934 270.519 504.629 271.644 504.59V502H272.769V504.59C273.897 504.629 274.769 504.934 275.382 505.504C275.995 506.07 276.302 506.832 276.302 507.789V507.977C276.302 508.934 275.995 509.697 275.382 510.268C274.769 510.834 273.897 511.137 272.769 511.176V513.438H271.644V511.176ZM277.948 511V504.766H279.061V508.738C279.061 508.855 279.059 508.988 279.055 509.137C279.055 509.285 279.053 509.42 279.05 509.541H279.096C279.151 509.436 279.212 509.324 279.278 509.207C279.344 509.09 279.421 508.973 279.507 508.855L282.442 504.766H283.573V511H282.454V507.033C282.454 506.912 282.456 506.777 282.46 506.629C282.464 506.477 282.469 506.34 282.477 506.219H282.413C282.362 506.32 282.303 506.432 282.237 506.553C282.171 506.674 282.096 506.793 282.014 506.91L279.079 511H277.948ZM290.961 512.582V511H285.582V504.766H286.707V510.115H289.93V504.766H291.055V510.115H291.993V512.582H290.961ZM293.252 511V504.766H294.365V508.738C294.365 508.855 294.364 508.988 294.36 509.137C294.36 509.285 294.358 509.42 294.354 509.541H294.401C294.455 509.436 294.516 509.324 294.582 509.207C294.649 509.09 294.725 508.973 294.811 508.855L297.746 504.766H298.877V511H297.758V507.033C297.758 506.912 297.76 506.777 297.764 506.629C297.768 506.477 297.774 506.34 297.781 506.219H297.717C297.666 506.32 297.608 506.432 297.541 506.553C297.475 506.674 297.401 506.793 297.319 506.91L294.383 511H293.252ZM300.535 509.166C300.535 508.529 300.809 508.035 301.355 507.684C301.906 507.332 302.619 507.156 303.494 507.156H305.164V506.711C305.164 506.336 305.047 506.037 304.812 505.814C304.582 505.592 304.188 505.48 303.629 505.48C303.074 505.48 302.674 505.576 302.428 505.768C302.182 505.955 302.059 506.182 302.059 506.447V506.477H300.934V506.447C300.934 505.936 301.178 505.498 301.666 505.135C302.154 504.771 302.818 504.59 303.658 504.59C304.494 504.59 305.141 504.77 305.598 505.129C306.059 505.484 306.289 506.012 306.289 506.711V509.594C306.289 509.848 306.311 510.088 306.354 510.314C306.396 510.537 306.457 510.734 306.535 510.906V511H305.451C305.389 510.902 305.332 510.773 305.281 510.613C305.23 510.453 305.199 510.295 305.188 510.139C305.023 510.4 304.75 510.629 304.367 510.824C303.984 511.02 303.494 511.117 302.896 511.117C302.225 511.117 301.662 510.949 301.209 510.613C300.76 510.277 300.535 509.795 300.535 509.166ZM301.66 509.107C301.66 509.459 301.781 509.732 302.023 509.928C302.266 510.123 302.645 510.221 303.16 510.221C303.676 510.221 304.139 510.072 304.549 509.775C304.959 509.479 305.164 509.164 305.164 508.832V507.953H303.623C302.982 507.953 302.494 508.057 302.158 508.264C301.826 508.467 301.66 508.748 301.66 509.107ZM309.916 505.65L309.81 508.135C309.763 509.186 309.619 509.947 309.377 510.42C309.138 510.893 308.726 511.129 308.14 511.129C307.996 511.129 307.869 511.119 307.76 511.1C307.65 511.084 307.558 511.059 307.484 511.023V510.057C307.551 510.084 307.619 510.104 307.689 510.115C307.763 510.127 307.847 510.133 307.941 510.133C308.238 510.133 308.443 509.98 308.556 509.676C308.674 509.367 308.748 508.803 308.779 507.982L308.92 504.766H313.73V511H312.605V505.65H309.916ZM316.871 504.766V506.893H318.681C319.459 506.893 320.056 507.076 320.474 507.443C320.896 507.807 321.107 508.303 321.107 508.932C321.107 509.557 320.896 510.059 320.474 510.438C320.056 510.812 319.459 511 318.681 511H315.746V504.766H316.871ZM318.675 507.783H316.871V510.115H318.675C319.156 510.115 319.492 510.004 319.683 509.781C319.878 509.559 319.976 509.275 319.976 508.932C319.976 508.596 319.878 508.32 319.683 508.105C319.492 507.891 319.156 507.783 318.675 507.783ZM322.607 504.766H323.732V507.379H327.036V504.766H328.161V511H327.036V508.27H323.732V511H322.607V504.766ZM331.296 504.766V506.893H333.106C333.884 506.893 334.481 507.076 334.899 507.443C335.321 507.807 335.532 508.303 335.532 508.932C335.532 509.557 335.321 510.059 334.899 510.438C334.481 510.812 333.884 511 333.106 511H330.171V504.766H331.296ZM333.101 507.783H331.296V510.115H333.101C333.581 510.115 333.917 510.004 334.108 509.781C334.304 509.559 334.401 509.275 334.401 508.932C334.401 508.596 334.304 508.32 334.108 508.105C333.917 507.891 333.581 507.783 333.101 507.783ZM336.382 511V504.766H337.507V511H336.382ZM339.147 507.977V507.789C339.147 506.848 339.432 506.08 340.003 505.486C340.577 504.889 341.335 504.59 342.276 504.59C343.221 504.59 343.948 504.869 344.456 505.428C344.964 505.982 345.218 506.734 345.218 507.684V508.146H339.815V507.25H344.087V507.221C344.087 506.721 343.944 506.311 343.659 505.99C343.374 505.67 342.917 505.51 342.288 505.51C341.628 505.51 341.128 505.729 340.788 506.166C340.448 506.604 340.278 507.145 340.278 507.789V507.977C340.278 508.621 340.456 509.162 340.811 509.6C341.171 510.037 341.723 510.256 342.47 510.256C342.923 510.256 343.313 510.17 343.641 509.998C343.97 509.822 344.233 509.615 344.432 509.377L345.159 509.975C344.94 510.268 344.6 510.541 344.139 510.795C343.682 511.049 343.126 511.176 342.47 511.176C341.395 511.176 340.573 510.879 340.003 510.285C339.432 509.688 339.147 508.918 339.147 507.977ZM280.582 523.977V523.789C280.582 522.848 280.877 522.08 281.466 521.486C282.06 520.889 282.853 520.59 283.845 520.59C284.834 520.59 285.625 520.889 286.218 521.486C286.812 522.08 287.109 522.848 287.109 523.789V523.977C287.109 524.918 286.812 525.688 286.218 526.285C285.625 526.879 284.834 527.176 283.845 527.176C282.853 527.176 282.06 526.879 281.466 526.285C280.877 525.688 280.582 524.918 280.582 523.977ZM281.73 523.789V523.977C281.73 524.617 281.908 525.156 282.263 525.594C282.619 526.031 283.146 526.25 283.845 526.25C284.545 526.25 285.07 526.031 285.421 525.594C285.777 525.156 285.955 524.617 285.955 523.977V523.789C285.955 523.145 285.777 522.605 285.421 522.172C285.07 521.734 284.545 521.516 283.845 521.516C283.146 521.516 282.619 521.734 282.263 522.172C281.908 522.605 281.73 523.145 281.73 523.789ZM288.058 521.65V520.766H293.624V521.65H291.404V527H290.279V521.65H288.058ZM294.954 527V520.766H298.077C298.788 520.766 299.343 520.904 299.741 521.182C300.144 521.455 300.345 521.871 300.345 522.43C300.345 522.777 300.241 523.068 300.034 523.303C299.827 523.537 299.55 523.695 299.202 523.777V523.795C299.624 523.857 299.956 524.012 300.198 524.258C300.441 524.5 300.562 524.811 300.562 525.189C300.562 525.76 300.351 526.205 299.929 526.525C299.507 526.842 298.948 527 298.253 527H294.954ZM296.079 523.391H298.077C298.48 523.391 298.769 523.311 298.944 523.15C299.12 522.99 299.208 522.77 299.208 522.488C299.208 522.215 299.12 522.008 298.944 521.867C298.769 521.727 298.48 521.654 298.077 521.65H296.079V523.391ZM296.079 526.115H298.253C298.659 526.115 298.956 526.031 299.144 525.863C299.335 525.695 299.431 525.469 299.431 525.184C299.431 524.906 299.337 524.686 299.15 524.521C298.962 524.354 298.663 524.27 298.253 524.27H296.079V526.115ZM301.903 523.977V523.789C301.903 522.848 302.188 522.08 302.759 521.486C303.333 520.889 304.091 520.59 305.032 520.59C305.977 520.59 306.704 520.869 307.212 521.428C307.72 521.982 307.974 522.734 307.974 523.684V524.146H302.571V523.25H306.843V523.221C306.843 522.721 306.7 522.311 306.415 521.99C306.13 521.67 305.673 521.51 305.044 521.51C304.384 521.51 303.884 521.729 303.544 522.166C303.204 522.604 303.034 523.145 303.034 523.789V523.977C303.034 524.621 303.212 525.162 303.567 525.6C303.927 526.037 304.479 526.256 305.225 526.256C305.679 526.256 306.069 526.17 306.397 525.998C306.725 525.822 306.989 525.615 307.188 525.377L307.915 525.975C307.696 526.268 307.356 526.541 306.895 526.795C306.438 527.049 305.882 527.176 305.225 527.176C304.151 527.176 303.329 526.879 302.759 526.285C302.188 525.688 301.903 524.918 301.903 523.977ZM308.817 521.65V520.766H314.383V521.65H312.163V527H311.038V521.65H308.817ZM316.838 520.766V522.893H318.649C319.426 522.893 320.024 523.076 320.442 523.443C320.864 523.807 321.075 524.303 321.075 524.932C321.075 525.557 320.864 526.059 320.442 526.438C320.024 526.812 319.426 527 318.649 527H315.713V520.766H316.838ZM318.643 523.783H316.838V526.115H318.643C319.123 526.115 319.459 526.004 319.651 525.781C319.846 525.559 319.944 525.275 319.944 524.932C319.944 524.596 319.846 524.32 319.651 524.105C319.459 523.891 319.123 523.783 318.643 523.783ZM321.924 527V520.766H323.049V527H321.924Z" fill="#04101C"/>
</g>
<rect x="248.5" y="17.5" width="67" height="67" rx="11.5" fill="#F9FBFF"/>
<rect x="248.5" y="17.5" width="67" height="67" rx="11.5" stroke="#ECECEC"/>
<path d="M275.355 39H270.409C267.473 39 265 41.25 265 44.1V49.2C265 52.05 267.473 54.3 270.409 54.3H273.964C274.891 54.3 275.509 53.7 275.509 52.8C275.509 51.9 274.891 51.3 273.964 51.3H270.409C269.173 51.3 268.091 50.4 268.091 49.2V44.1C268.091 42.9 269.173 42 270.409 42H275.355C276.591 42 277.673 42.9 277.673 44.1V56.55C277.673 58.5 276.127 60 274.118 60H271.645C270.718 60 270.1 60.6 270.1 61.5C270.1 62.4 270.718 63 271.645 63H274.118C277.827 63 280.764 60.15 280.764 56.55V44.1C280.764 41.25 278.291 39 275.355 39Z" fill="#ECECEC"/>
<path d="M293.591 39H288.645C285.709 39 283.236 41.25 283.236 44.1V49.2C283.236 52.05 285.709 54.3 288.645 54.3H292.2C293.127 54.3 293.745 53.7 293.745 52.8C293.745 51.9 293.127 51.3 292.2 51.3H288.645C287.409 51.3 286.327 50.4 286.327 49.2V44.1C286.327 42.9 287.409 42 288.645 42H293.591C294.827 42 295.909 42.9 295.909 44.1V56.55C295.909 58.5 294.364 60 292.355 60H289.882C288.955 60 288.336 60.6 288.336 61.5C288.336 62.4 288.955 63 289.882 63H292.355C296.064 63 299 60.15 299 56.55V44.1C299 41.25 296.527 39 293.591 39Z" fill="#ECECEC"/>
<path d="M198 52L248 52" stroke="#ECECEC"/>
<path d="M315 192L392 192" stroke="#ECECEC"/>
<path d="M275 205L275 287" stroke="#ECECEC"/>
<path d="M292 205V231.907C292 240.744 299.163 247.907 308 247.907H381C389.837 247.907 397 255.07 397 263.907V287" stroke="#ECECEC"/>
<path d="M419 -62V-50.0058C419 -41.1693 411.837 -34.0058 403 -34.0058H355C346.163 -34.0058 339 -26.8424 339 -18.0058V150C339 158.837 331.837 166 323 166H314.5" stroke="#ECECEC"/>
<path d="M315 180L361.019 180C369.817 180 376.93 172.868 376.93 164.045L376.93 73" stroke="#ECECEC"/>
<path d="M26 9L26 -60.0002" stroke="#ECECEC"/>
<path d="M60.0001 9.99983L60.0003 3.49914C60.0006 -5.3372 67.164 -12.5003 76.0003 -12.5003L310.999 -12.5002C319.836 -12.5002 326.999 -5.3368 326.999 3.49976L326.999 139C326.999 145.903 321.403 151.5 314.499 151.5V151.5" stroke="#ECECEC"/>
<path d="M112 355L112 437" stroke="url(#paint2_linear_928_43985)" stroke-width="2"/>
<path d="M124 355L124 413.025C124 419.01 129.114 423.109 136.582 423.109L269.418 423.109C276.886 423.109 282 427.208 282 433.193L282 437.042" stroke="url(#paint3_linear_928_43985)" stroke-width="2"/>
<path d="M130 52L80 52" stroke="#ECECEC"/>
<path d="M12 52L-31 52" stroke="#ECECEC"/>
<path d="M12 64H7.8374C-0.999156 64 -8.1626 71.1634 -8.1626 80V100.136C-8.1626 108.973 -15.326 116.136 -24.1626 116.136H-96C-104.837 116.136 -112 123.3 -112 132.136V138" stroke="#ECECEC"/>
<path d="M32 77L32 138" stroke="#ECECEC"/>
<path d="M80.0004 58.0003L95.9999 58.0003C104.836 58.0003 112 65.1638 112 74.0003L112 287.001" stroke="url(#paint4_linear_928_43985)" stroke-width="2"/>
<path d="M80 64V64C88.8366 64 96 71.1634 96 80L96 251.349C96 260.185 88.8366 267.349 80 267.349H10C1.16344 267.349 -6 274.512 -6 283.349V290" stroke="#ECECEC"/>
<path d="M164 17L164 -55" stroke="#ECECEC"/>
<path d="M164 85L164 137" stroke="#ECECEC"/>
<g filter="url(#filter2_d_928_43985)">
<rect x="77" y="287" width="130" height="110" rx="12" fill="white"/>
<path d="M156.061 319.679C153.853 316.703 151.254 313.984 148.266 311.914C146.318 310.49 143.59 310.749 141.771 312.561L137.354 316.961C135.665 318.644 135.405 321.362 136.704 323.303C136.834 323.433 136.964 323.692 137.224 323.821L129.039 331.975C128.39 332.622 128 333.528 128 334.564V338.706C128 339.094 128.13 339.353 128.39 339.612C128.65 339.871 128.909 340 129.299 340H133.456C134.496 340 135.405 339.612 136.055 338.965L144.239 330.81C144.499 330.94 144.629 331.069 144.889 331.199C146.837 332.493 149.566 332.234 151.254 330.552L155.671 326.151C157.23 324.339 157.49 321.621 156.061 319.679ZM153.593 324.339L149.176 328.74C148.266 329.646 146.967 329.775 146.058 329.128C145.538 328.74 145.149 328.481 144.629 328.092C144.109 327.704 143.33 327.704 142.94 328.222L133.976 337.153C133.716 337.411 133.456 337.541 133.197 337.541H130.338V334.693C130.338 334.434 130.468 334.176 130.728 333.917L139.692 324.986C140.212 324.468 140.212 323.821 139.822 323.303C139.562 322.786 139.173 322.268 138.913 321.75C138.263 320.844 138.393 319.55 139.302 318.773L143.719 314.373C144.109 313.855 144.759 313.596 145.408 313.596C145.928 313.596 146.318 313.726 146.707 313.984C149.566 315.926 151.904 318.385 153.853 321.103C154.632 322.139 154.502 323.433 153.593 324.339Z" fill="url(#paint5_radial_928_43985)"/>
<path d="M147.148 318.909C146.593 318.909 146.177 319.192 145.761 319.474C144.928 320.321 144.928 321.593 145.761 322.299C146.177 322.722 146.593 322.864 147.148 322.864C147.703 322.864 148.12 322.722 148.536 322.299C148.952 321.875 149.091 321.451 149.091 320.886C149.091 320.321 148.952 319.898 148.536 319.474C148.258 319.05 147.703 318.909 147.148 318.909Z" fill="url(#paint6_radial_928_43985)"/>
<path d="M98.8586 356.951V356.518C98.8586 355.182 99.2258 354.145 99.9602 353.406C100.695 352.664 101.636 352.293 102.784 352.293C103.937 352.293 104.88 352.664 105.614 353.406C106.349 354.145 106.716 355.182 106.716 356.518V356.951C106.716 358.287 106.349 359.326 105.614 360.068C104.88 360.807 103.937 361.176 102.784 361.176C101.636 361.176 100.695 360.807 99.9602 360.068C99.2258 359.326 98.8586 358.287 98.8586 356.951ZM100.036 356.951C100.036 357.967 100.286 358.76 100.786 359.33C101.29 359.896 101.958 360.18 102.79 360.18C103.618 360.18 104.284 359.896 104.788 359.33C105.292 358.76 105.544 357.967 105.544 356.951V356.518C105.544 355.502 105.292 354.711 104.788 354.145C104.284 353.574 103.618 353.289 102.79 353.289C101.958 353.289 101.29 353.574 100.786 354.145C100.286 354.711 100.036 355.502 100.036 356.518V356.951ZM109.065 357.977C109.065 358.629 109.249 359.16 109.616 359.57C109.987 359.98 110.597 360.207 111.444 360.25V355.516C110.597 355.559 109.987 355.785 109.616 356.195C109.249 356.605 109.065 357.137 109.065 357.789V357.977ZM114.954 357.789C114.954 357.137 114.769 356.605 114.397 356.195C114.03 355.785 113.421 355.559 112.569 355.516V360.25C113.421 360.207 114.03 359.98 114.397 359.57C114.769 359.16 114.954 358.629 114.954 357.977V357.789ZM111.444 361.176C110.319 361.137 109.45 360.834 108.837 360.268C108.224 359.697 107.917 358.934 107.917 357.977V357.789C107.917 356.832 108.224 356.07 108.837 355.504C109.45 354.934 110.319 354.629 111.444 354.59V352H112.569V354.59C113.698 354.629 114.569 354.934 115.183 355.504C115.796 356.07 116.102 356.832 116.102 357.789V357.977C116.102 358.934 115.796 359.697 115.183 360.268C114.569 360.834 113.698 361.137 112.569 361.176V363.438H111.444V361.176ZM117.749 361V354.766H118.862V358.738C118.862 358.855 118.86 358.988 118.856 359.137C118.856 359.285 118.854 359.42 118.85 359.541H118.897C118.952 359.436 119.012 359.324 119.079 359.207C119.145 359.09 119.221 358.973 119.307 358.855L122.243 354.766H123.374V361H122.255V357.033C122.255 356.912 122.257 356.777 122.26 356.629C122.264 356.477 122.27 356.34 122.278 356.219H122.214C122.163 356.32 122.104 356.432 122.038 356.553C121.971 356.674 121.897 356.793 121.815 356.91L118.88 361H117.749ZM130.762 362.582V361H125.383V354.766H126.508V360.115H129.731V354.766H130.856V360.115H131.793V362.582H130.762ZM133.053 361V354.766H134.166V358.738C134.166 358.855 134.164 358.988 134.16 359.137C134.16 359.285 134.158 359.42 134.155 359.541H134.201C134.256 359.436 134.317 359.324 134.383 359.207C134.449 359.09 134.526 358.973 134.612 358.855L137.547 354.766H138.678V361H137.559V357.033C137.559 356.912 137.561 356.777 137.565 356.629C137.569 356.477 137.574 356.34 137.582 356.219H137.518C137.467 356.32 137.408 356.432 137.342 356.553C137.276 356.674 137.201 356.793 137.119 356.91L134.184 361H133.053ZM140.336 359.166C140.336 358.529 140.609 358.035 141.156 357.684C141.707 357.332 142.42 357.156 143.295 357.156H144.965V356.711C144.965 356.336 144.848 356.037 144.613 355.814C144.383 355.592 143.988 355.48 143.43 355.48C142.875 355.48 142.475 355.576 142.229 355.768C141.982 355.955 141.859 356.182 141.859 356.447V356.477H140.734V356.447C140.734 355.936 140.979 355.498 141.467 355.135C141.955 354.771 142.619 354.59 143.459 354.59C144.295 354.59 144.941 354.77 145.398 355.129C145.859 355.484 146.09 356.012 146.09 356.711V359.594C146.09 359.848 146.111 360.088 146.154 360.314C146.197 360.537 146.258 360.734 146.336 360.906V361H145.252C145.189 360.902 145.133 360.773 145.082 360.613C145.031 360.453 145 360.295 144.988 360.139C144.824 360.4 144.551 360.629 144.168 360.824C143.785 361.02 143.295 361.117 142.697 361.117C142.025 361.117 141.463 360.949 141.01 360.613C140.561 360.277 140.336 359.795 140.336 359.166ZM141.461 359.107C141.461 359.459 141.582 359.732 141.824 359.928C142.066 360.123 142.445 360.221 142.961 360.221C143.477 360.221 143.939 360.072 144.35 359.775C144.76 359.479 144.965 359.164 144.965 358.832V357.953H143.424C142.783 357.953 142.295 358.057 141.959 358.264C141.627 358.467 141.461 358.748 141.461 359.107ZM149.717 355.65L149.611 358.135C149.564 359.186 149.42 359.947 149.177 360.42C148.939 360.893 148.527 361.129 147.941 361.129C147.797 361.129 147.67 361.119 147.56 361.1C147.451 361.084 147.359 361.059 147.285 361.023V360.057C147.351 360.084 147.42 360.104 147.49 360.115C147.564 360.127 147.648 360.133 147.742 360.133C148.039 360.133 148.244 359.98 148.357 359.676C148.474 359.367 148.549 358.803 148.58 357.982L148.72 354.766H153.531V361H152.406V355.65H149.717ZM156.671 354.766V356.893H158.482C159.259 356.893 159.857 357.076 160.275 357.443C160.697 357.807 160.908 358.303 160.908 358.932C160.908 359.557 160.697 360.059 160.275 360.438C159.857 360.812 159.259 361 158.482 361H155.546V354.766H156.671ZM158.476 357.783H156.671V360.115H158.476C158.957 360.115 159.292 360.004 159.484 359.781C159.679 359.559 159.777 359.275 159.777 358.932C159.777 358.596 159.679 358.32 159.484 358.105C159.292 357.891 158.957 357.783 158.476 357.783ZM162.408 354.766H163.533V357.379H166.837V354.766H167.962V361H166.837V358.27H163.533V361H162.408V354.766ZM171.097 354.766V356.893H172.907C173.685 356.893 174.282 357.076 174.7 357.443C175.122 357.807 175.333 358.303 175.333 358.932C175.333 359.557 175.122 360.059 174.7 360.438C174.282 360.812 173.685 361 172.907 361H169.972V354.766H171.097ZM172.901 357.783H171.097V360.115H172.901C173.382 360.115 173.718 360.004 173.909 359.781C174.105 359.559 174.202 359.275 174.202 358.932C174.202 358.596 174.105 358.32 173.909 358.105C173.718 357.891 173.382 357.783 172.901 357.783ZM176.183 361V354.766H177.308V361H176.183ZM179.317 361V354.766H180.43V358.738C180.43 358.855 180.429 358.988 180.425 359.137C180.425 359.285 180.423 359.42 180.419 359.541H180.466C180.52 359.436 180.581 359.324 180.647 359.207C180.714 359.09 180.79 358.973 180.876 358.855L183.811 354.766H184.942V361H183.823V357.033C183.823 356.912 183.825 356.777 183.829 356.629C183.833 356.477 183.839 356.34 183.846 356.219H183.782C183.731 356.32 183.673 356.432 183.606 356.553C183.54 356.674 183.466 356.793 183.384 356.91L180.448 361H179.317ZM182.13 352.867C182.423 352.867 182.663 352.789 182.85 352.633C183.038 352.473 183.198 352.213 183.331 351.854L184.192 352.357C183.997 352.834 183.72 353.184 183.36 353.406C183.001 353.629 182.591 353.74 182.13 353.74C181.665 353.74 181.255 353.631 180.899 353.412C180.544 353.189 180.264 352.838 180.061 352.357L180.929 351.842C181.061 352.213 181.22 352.477 181.403 352.633C181.591 352.789 181.833 352.867 182.13 352.867ZM96.2514 370.766H101.753V377H100.628V371.65H97.3764V377H96.2514V370.766ZM103.769 379.438V370.766H104.788L104.841 371.621H104.864C105.052 371.352 105.335 371.123 105.714 370.936C106.093 370.744 106.536 370.648 107.044 370.648C107.919 370.648 108.618 370.945 109.142 371.539C109.669 372.129 109.933 372.879 109.933 373.789V373.977C109.933 374.883 109.669 375.633 109.142 376.227C108.618 376.82 107.919 377.117 107.044 377.117C106.536 377.117 106.105 377.035 105.749 376.871C105.394 376.707 105.109 376.49 104.894 376.221V379.438H103.769ZM104.894 375.084C105.034 375.373 105.267 375.631 105.591 375.857C105.915 376.08 106.31 376.191 106.775 376.191C107.466 376.191 107.972 375.98 108.292 375.559C108.616 375.133 108.779 374.605 108.779 373.977V373.789C108.779 373.156 108.616 372.629 108.292 372.207C107.972 371.785 107.466 371.574 106.775 371.574C106.31 371.574 105.915 371.688 105.591 371.914C105.271 372.137 105.038 372.393 104.894 372.682V375.084ZM111.21 373.977V373.789C111.21 372.848 111.495 372.08 112.065 371.486C112.64 370.889 113.397 370.59 114.339 370.59C115.284 370.59 116.011 370.869 116.519 371.428C117.026 371.982 117.28 372.734 117.28 373.684V374.146H111.878V373.25H116.149V373.221C116.149 372.721 116.007 372.311 115.722 371.99C115.436 371.67 114.979 371.51 114.351 371.51C113.69 371.51 113.19 371.729 112.851 372.166C112.511 372.604 112.341 373.145 112.341 373.789V373.977C112.341 374.621 112.519 375.162 112.874 375.6C113.233 376.037 113.786 376.256 114.532 376.256C114.985 376.256 115.376 376.17 115.704 375.998C116.032 375.822 116.296 375.615 116.495 375.377L117.222 375.975C117.003 376.268 116.663 376.541 116.202 376.795C115.745 377.049 115.188 377.176 114.532 377.176C113.458 377.176 112.636 376.879 112.065 376.285C111.495 375.688 111.21 374.918 111.21 373.977ZM124.048 378.582V377H119.026V378.582H117.995V376.115H125.085V378.582H124.048ZM120.245 371.65L120.151 373.766C120.12 374.484 120.075 375.014 120.016 375.354C119.962 375.689 119.88 375.975 119.77 376.209H118.604C118.745 376.021 118.856 375.752 118.938 375.4C119.024 375.045 119.085 374.453 119.12 373.625L119.249 370.766H124.147V377H123.016V371.65H120.245ZM125.975 373.977V373.789C125.975 372.848 126.258 372.08 126.825 371.486C127.395 370.889 128.178 370.59 129.174 370.59C130.096 370.59 130.795 370.814 131.272 371.264C131.752 371.709 131.993 372.209 131.993 372.764V372.793H130.879V372.758C130.879 372.426 130.745 372.135 130.475 371.885C130.209 371.635 129.776 371.51 129.174 371.51C128.471 371.51 127.954 371.729 127.622 372.166C127.29 372.604 127.124 373.145 127.124 373.789V373.977C127.124 374.621 127.29 375.162 127.622 375.6C127.954 376.033 128.471 376.25 129.174 376.25C129.776 376.25 130.209 376.127 130.475 375.881C130.745 375.635 130.879 375.342 130.879 375.002V374.973H131.993V375.002C131.993 375.553 131.752 376.053 131.272 376.502C130.795 376.951 130.096 377.176 129.174 377.176C128.178 377.176 127.395 376.879 126.825 376.285C126.258 375.688 125.975 374.918 125.975 373.977ZM132.748 371.65V370.766H138.315V371.65H136.094V377H134.969V371.65H132.748ZM139.293 375.166C139.293 374.529 139.566 374.035 140.113 373.684C140.664 373.332 141.377 373.156 142.252 373.156H143.922V372.711C143.922 372.336 143.805 372.037 143.57 371.814C143.34 371.592 142.945 371.48 142.387 371.48C141.832 371.48 141.432 371.576 141.186 371.768C140.939 371.955 140.816 372.182 140.816 372.447V372.477H139.691V372.447C139.691 371.936 139.936 371.498 140.424 371.135C140.912 370.771 141.576 370.59 142.416 370.59C143.252 370.59 143.898 370.77 144.355 371.129C144.816 371.484 145.047 372.012 145.047 372.711V375.594C145.047 375.848 145.068 376.088 145.111 376.314C145.154 376.537 145.215 376.734 145.293 376.906V377H144.209C144.146 376.902 144.09 376.773 144.039 376.613C143.988 376.453 143.957 376.295 143.945 376.139C143.781 376.4 143.508 376.629 143.125 376.824C142.742 377.02 142.252 377.117 141.654 377.117C140.982 377.117 140.42 376.949 139.967 376.613C139.518 376.277 139.293 375.795 139.293 375.166ZM140.418 375.107C140.418 375.459 140.539 375.732 140.781 375.928C141.023 376.123 141.402 376.221 141.918 376.221C142.434 376.221 142.896 376.072 143.307 375.775C143.717 375.479 143.922 375.164 143.922 374.832V373.953H142.381C141.74 373.953 141.252 374.057 140.916 374.264C140.584 374.467 140.418 374.748 140.418 375.107ZM147.045 377V370.766H150.168C150.879 370.766 151.433 370.904 151.832 371.182C152.234 371.455 152.435 371.871 152.435 372.43C152.435 372.777 152.332 373.068 152.125 373.303C151.918 373.537 151.64 373.695 151.293 373.777V373.795C151.715 373.857 152.047 374.012 152.289 374.258C152.531 374.5 152.652 374.811 152.652 375.189C152.652 375.76 152.441 376.205 152.019 376.525C151.597 376.842 151.039 377 150.344 377H147.045ZM148.17 373.391H150.168C150.57 373.391 150.859 373.311 151.035 373.15C151.211 372.99 151.299 372.77 151.299 372.488C151.299 372.215 151.211 372.008 151.035 371.867C150.859 371.727 150.57 371.654 150.168 371.65H148.17V373.391ZM148.17 376.115H150.344C150.75 376.115 151.047 376.031 151.234 375.863C151.426 375.695 151.521 375.469 151.521 375.184C151.521 374.906 151.428 374.686 151.24 374.521C151.053 374.354 150.754 374.27 150.344 374.27H148.17V376.115ZM154.363 377V370.766H155.476V374.738C155.476 374.855 155.474 374.988 155.47 375.137C155.47 375.285 155.468 375.42 155.464 375.541H155.511C155.566 375.436 155.626 375.324 155.693 375.207C155.759 375.09 155.835 374.973 155.921 374.855L158.857 370.766H159.988V377H158.869V373.033C158.869 372.912 158.871 372.777 158.875 372.629C158.878 372.477 158.884 372.34 158.892 372.219H158.828C158.777 372.32 158.718 372.432 158.652 372.553C158.585 372.674 158.511 372.793 158.429 372.91L155.494 377H154.363ZM161.306 371.65V370.766H166.872V371.65H164.652V377H163.527V371.65H161.306ZM167.833 373.977V373.789C167.833 372.848 168.118 372.08 168.689 371.486C169.263 370.889 170.021 370.59 170.962 370.59C171.907 370.59 172.634 370.869 173.142 371.428C173.649 371.982 173.903 372.734 173.903 373.684V374.146H168.501V373.25H172.773V373.221C172.773 372.721 172.63 372.311 172.345 371.99C172.06 371.67 171.603 371.51 170.974 371.51C170.314 371.51 169.814 371.729 169.474 372.166C169.134 372.604 168.964 373.145 168.964 373.789V373.977C168.964 374.621 169.142 375.162 169.497 375.6C169.856 376.037 170.409 376.256 171.155 376.256C171.608 376.256 171.999 376.17 172.327 375.998C172.655 375.822 172.919 375.615 173.118 375.377L173.845 375.975C173.626 376.268 173.286 376.541 172.825 376.795C172.368 377.049 171.812 377.176 171.155 377.176C170.081 377.176 169.259 376.879 168.689 376.285C168.118 375.688 167.833 374.918 167.833 373.977ZM177.067 371.65L176.962 374.135C176.915 375.186 176.77 375.947 176.528 376.42C176.29 376.893 175.878 377.129 175.292 377.129C175.147 377.129 175.02 377.119 174.911 377.1C174.802 377.084 174.71 377.059 174.636 377.023V376.057C174.702 376.084 174.77 376.104 174.841 376.115C174.915 376.127 174.999 376.133 175.093 376.133C175.389 376.133 175.595 375.98 175.708 375.676C175.825 375.367 175.899 374.803 175.93 373.982L176.071 370.766H180.882V377H179.757V371.65H177.067ZM184.022 370.766V372.893H185.833C186.61 372.893 187.208 373.076 187.626 373.443C188.047 373.807 188.258 374.303 188.258 374.932C188.258 375.557 188.047 376.059 187.626 376.438C187.208 376.812 186.61 377 185.833 377H182.897V370.766H184.022ZM185.827 373.783H184.022V376.115H185.827C186.307 376.115 186.643 376.004 186.835 375.781C187.03 375.559 187.128 375.275 187.128 374.932C187.128 374.596 187.03 374.32 186.835 374.105C186.643 373.891 186.307 373.783 185.827 373.783Z" fill="#04101C"/>
</g>
<g filter="url(#filter3_d_928_43985)">
<rect x="12" y="9" width="68" height="94" rx="12" fill="white"/>
<path d="M56.9647 55.6H54C53.5059 53.8 51.9 52.6 49.9235 52.6C47.5765 52.6 45.6 54.52 45.6 56.8C45.6 59.08 47.5765 61 49.9235 61C51.9 61 53.5059 59.8 54 58H56.9647C57.7059 58 58.2 57.4 58.2 56.8C58.2 56.08 57.7059 55.6 56.9647 55.6ZM49.9235 58.6C48.9353 58.6 48.0706 57.76 48.0706 56.8C48.0706 55.84 48.9353 55 49.9235 55C50.9118 55 51.7765 55.84 51.7765 56.8C51.7765 57.76 50.9118 58.6 49.9235 58.6Z" fill="url(#paint7_radial_928_43985)"/>
<path d="M43.0085 55.4H34.1915C33.4766 55.4 33 56.1 33 56.8C33 57.64 33.5957 58.2 34.1915 58.2H43.0085C43.7234 58.2 44.2 57.5 44.2 56.8C44.2 55.96 43.6043 55.4 43.0085 55.4Z" fill="url(#paint8_radial_928_43985)"/>
<path d="M34.1915 38.6H43.0085C43.7234 38.6 44.2 37.9 44.2 37.2C44.2 36.5 43.6043 35.8 43.0085 35.8H34.1915C33.4766 35.8 33 36.5 33 37.2C33 37.9 33.5957 38.6 34.1915 38.6Z" fill="url(#paint9_radial_928_43985)"/>
<path d="M49.9235 41.4C51.9 41.4 53.5059 40.2 54 38.4H56.9647C57.7059 38.4 58.2 37.8 58.2 37.2C58.2 36.6 57.5824 36 56.9647 36H54C53.5059 34.2 51.9 33 49.9235 33C47.5765 33 45.6 34.92 45.6 37.2C45.6 39.48 47.5765 41.4 49.9235 41.4ZM49.9235 35.4C50.9118 35.4 51.7765 36.24 51.7765 37.2C51.7765 38.16 50.9118 39 49.9235 39C48.9353 39 48.0706 38.16 48.0706 37.2C48.0706 36.24 48.9353 35.4 49.9235 35.4Z" fill="url(#paint10_radial_928_43985)"/>
<path d="M34.2353 48.2H37.2C37.6941 49.88 39.3 51.2 41.2765 51.2C43.6235 51.2 45.6 49.28 45.6 47C45.6 44.72 43.6235 42.8 41.2765 42.8C39.3 42.8 37.6941 44 37.2 45.8H34.2353C33.4941 45.8 33 46.4 33 47C33 47.6 33.6176 48.2 34.2353 48.2ZM41.2765 45.2C42.2647 45.2 43.1294 46.04 43.1294 47C43.1294 47.96 42.2647 48.8 41.2765 48.8C40.2882 48.8 39.4235 47.96 39.4235 47C39.4235 46.04 40.2882 45.2 41.2765 45.2Z" fill="url(#paint11_radial_928_43985)"/>
<path d="M56.9957 45.6H48.2043C47.4817 45.6 47 46.3 47 47C47 47.7 47.6022 48.4 48.2043 48.4H56.9957C57.7183 48.4 58.2 47.7 58.2 47C58.2 46.3 57.7183 45.6 56.9957 45.6Z" fill="url(#paint12_radial_928_43985)"/>
<path d="M32.2717 78.9512V78.5176C32.2717 77.1816 32.6389 76.1445 33.3733 75.4062C34.1077 74.6641 35.0491 74.293 36.1975 74.293C37.3498 74.293 38.2932 74.6641 39.0276 75.4062C39.762 76.1445 40.1291 77.1816 40.1291 78.5176V78.9512C40.1291 80.2871 39.762 81.3262 39.0276 82.0684C38.2932 82.8066 37.3498 83.1758 36.1975 83.1758C35.0491 83.1758 34.1077 82.8066 33.3733 82.0684C32.6389 81.3262 32.2717 80.2871 32.2717 78.9512ZM33.4495 78.9512C33.4495 79.9668 33.6995 80.7598 34.1995 81.3301C34.7034 81.8965 35.3713 82.1797 36.2034 82.1797C37.0315 82.1797 37.6975 81.8965 38.2014 81.3301C38.7053 80.7598 38.9573 79.9668 38.9573 78.9512V78.5176C38.9573 77.502 38.7053 76.7109 38.2014 76.1445C37.6975 75.5742 37.0315 75.2891 36.2034 75.2891C35.3713 75.2891 34.7034 75.5742 34.1995 76.1445C33.6995 76.7109 33.4495 77.502 33.4495 78.5176V78.9512ZM42.0742 83V74.4688H45.1035C46.0957 74.4688 46.8633 74.6973 47.4062 75.1543C47.9492 75.6113 48.2207 76.2246 48.2207 76.9941C48.2207 77.7637 47.9492 78.3828 47.4062 78.8516C46.8633 79.3203 46.0957 79.5547 45.1035 79.5547H43.2402V83H42.0742ZM43.2402 78.6055H45.1035C45.834 78.6055 46.3418 78.4512 46.627 78.1426C46.9121 77.8301 47.0547 77.4473 47.0547 76.9941C47.0547 76.541 46.9121 76.166 46.627 75.8691C46.3418 75.5684 45.834 75.418 45.1035 75.418H43.2402V78.6055ZM47.3652 83L45.127 79.0684L46.3223 78.9219L48.6953 83H47.3652ZM50.2009 83V74.4688H51.7244L54.4959 80.8848C54.5466 81.002 54.5955 81.125 54.6423 81.2539C54.6931 81.3789 54.738 81.4961 54.7771 81.6055H54.824C54.8591 81.4961 54.9002 81.3789 54.947 81.2539C54.9939 81.125 55.0427 81.002 55.0935 80.8848L57.8474 74.4688H59.4002V83H58.2752V76.7305C58.2752 76.6133 58.2771 76.4824 58.281 76.3379C58.2888 76.1895 58.3005 76.0566 58.3162 75.9395H58.2634C58.2322 76.0566 58.1892 76.1895 58.1345 76.3379C58.0837 76.4824 58.033 76.6133 57.9822 76.7305L55.2986 83H54.2615L51.5603 76.7305C51.5095 76.6133 51.4587 76.4824 51.408 76.3379C51.3611 76.1895 51.324 76.0566 51.2966 75.9395H51.2439C51.2556 76.0566 51.2654 76.1895 51.2732 76.3379C51.2849 76.4824 51.2908 76.6133 51.2908 76.7305V83H50.2009Z" fill="#04101C"/>
</g>
<defs>
<filter id="filter0_d_928_43985" x="68" y="429" width="143" height="114" filterUnits="userSpaceOnUse" color-interpolation-filters="sRGB">
<feFlood flood-opacity="0" result="BackgroundImageFix"/>
<feColorMatrix in="SourceAlpha" type="matrix" values="0 0 0 0 0 0 0 0 0 0 0 0 0 0 0 0 0 0 127 0" result="hardAlpha"/>
<feOffset dx="1" dy="2"/>
<feGaussianBlur stdDeviation="5"/>
<feComposite in2="hardAlpha" operator="out"/>
<feColorMatrix type="matrix" values="0 0 0 0 0.00780001 0 0 0 0 0.045344 0 0 0 0 0.0800001 0 0 0 0.04 0"/>
<feBlend mode="normal" in2="BackgroundImageFix" result="effect1_dropShadow_928_43985"/>
<feBlend mode="normal" in="SourceGraphic" in2="effect1_dropShadow_928_43985" result="shape"/>
</filter>
<filter id="filter1_d_928_43985" x="231" y="429" width="144" height="130" filterUnits="userSpaceOnUse" color-interpolation-filters="sRGB">
<feFlood flood-opacity="0" result="BackgroundImageFix"/>
<feColorMatrix in="SourceAlpha" type="matrix" values="0 0 0 0 0 0 0 0 0 0 0 0 0 0 0 0 0 0 127 0" result="hardAlpha"/>
<feOffset dx="1" dy="2"/>
<feGaussianBlur stdDeviation="5"/>
<feComposite in2="hardAlpha" operator="out"/>
<feColorMatrix type="matrix" values="0 0 0 0 0.00780001 0 0 0 0 0.045344 0 0 0 0 0.0800001 0 0 0 0.04 0"/>
<feBlend mode="normal" in2="BackgroundImageFix" result="effect1_dropShadow_928_43985"/>
<feBlend mode="normal" in="SourceGraphic" in2="effect1_dropShadow_928_43985" result="shape"/>
</filter>
<filter id="filter2_d_928_43985" x="68" y="279" width="150" height="130" filterUnits="userSpaceOnUse" color-interpolation-filters="sRGB">
<feFlood flood-opacity="0" result="BackgroundImageFix"/>
<feColorMatrix in="SourceAlpha" type="matrix" values="0 0 0 0 0 0 0 0 0 0 0 0 0 0 0 0 0 0 127 0" result="hardAlpha"/>
<feOffset dx="1" dy="2"/>
<feGaussianBlur stdDeviation="5"/>
<feComposite in2="hardAlpha" operator="out"/>
<feColorMatrix type="matrix" values="0 0 0 0 0.00780001 0 0 0 0 0.045344 0 0 0 0 0.0800001 0 0 0 0.04 0"/>
<feBlend mode="normal" in2="BackgroundImageFix" result="effect1_dropShadow_928_43985"/>
<feBlend mode="normal" in="SourceGraphic" in2="effect1_dropShadow_928_43985" result="shape"/>
</filter>
<filter id="filter3_d_928_43985" x="3" y="1" width="88" height="114" filterUnits="userSpaceOnUse" color-interpolation-filters="sRGB">
<feFlood flood-opacity="0" result="BackgroundImageFix"/>
<feColorMatrix in="SourceAlpha" type="matrix" values="0 0 0 0 0 0 0 0 0 0 0 0 0 0 0 0 0 0 127 0" result="hardAlpha"/>
<feOffset dx="1" dy="2"/>
<feGaussianBlur stdDeviation="5"/>
<feComposite in2="hardAlpha" operator="out"/>
<feColorMatrix type="matrix" values="0 0 0 0 0.00780001 0 0 0 0 0.045344 0 0 0 0 0.0800001 0 0 0 0.04 0"/>
<feBlend mode="normal" in2="BackgroundImageFix" result="effect1_dropShadow_928_43985"/>
<feBlend mode="normal" in="SourceGraphic" in2="effect1_dropShadow_928_43985" result="shape"/>
</filter>
<radialGradient id="paint0_radial_928_43985" cx="0" cy="0" r="1" gradientUnits="userSpaceOnUse" gradientTransform="translate(138.5 475) rotate(97.3264) scale(20.1646 15.3148)">
<stop offset="0.055" stop-color="#7A73FF"/>
<stop offset="0.65" stop-color="#67DDFA"/>
<stop offset="1" stop-color="#4AFCF1"/>
</radialGradient>
<radialGradient id="paint1_radial_928_43985" cx="0" cy="0" r="1" gradientUnits="userSpaceOnUse" gradientTransform="translate(302 475) rotate(99.7276) scale(17.7553)">
<stop offset="0.055" stop-color="#7A73FF"/>
<stop offset="0.65" stop-color="#67DDFA"/>
<stop offset="1" stop-color="#4AFCF1"/>
</radialGradient>
<linearGradient id="paint2_linear_928_43985" x1="113" y1="483.125" x2="106.212" y2="482.885" gradientUnits="userSpaceOnUse">
<stop offset="0.338542" stop-color="#7A73FF"/>
<stop offset="0.734375" stop-color="#75CDFF"/>
<stop offset="1" stop-color="#4AFCF1"/>
</linearGradient>
<linearGradient id="paint3_linear_928_43985" x1="397.668" y1="411.844" x2="286.522" y2="561.229" gradientUnits="userSpaceOnUse">
<stop offset="0.338542" stop-color="#7A73FF"/>
<stop offset="0.734375" stop-color="#75CDFF"/>
<stop offset="1" stop-color="#4AFCF1"/>
</linearGradient>
<linearGradient id="paint4_linear_928_43985" x1="278.499" y1="370.121" x2="-40.726" y2="231.804" gradientUnits="userSpaceOnUse">
<stop offset="0.338542" stop-color="#7A73FF"/>
<stop offset="0.734375" stop-color="#75CDFF"/>
<stop offset="1" stop-color="#4AFCF1"/>
</linearGradient>
<radialGradient id="paint5_radial_928_43985" cx="0" cy="0" r="1" gradientUnits="userSpaceOnUse" gradientTransform="translate(142.5 325.5) rotate(99.7276) scale(18.3894 18.3894)">
<stop offset="0.055" stop-color="#7A73FF"/>
<stop offset="0.65" stop-color="#67DDFA"/>
<stop offset="1" stop-color="#4AFCF1"/>
</radialGradient>
<radialGradient id="paint6_radial_928_43985" cx="0" cy="0" r="1" gradientUnits="userSpaceOnUse" gradientTransform="translate(142.5 325.5) rotate(99.7276) scale(18.3894 18.3894)">
<stop offset="0.055" stop-color="#7A73FF"/>
<stop offset="0.65" stop-color="#67DDFA"/>
<stop offset="1" stop-color="#4AFCF1"/>
</radialGradient>
<radialGradient id="paint7_radial_928_43985" cx="0" cy="0" r="1" gradientUnits="userSpaceOnUse" gradientTransform="translate(45.6 47) rotate(98.7708) scale(17.7071 16.0233)">
<stop offset="0.055" stop-color="#7A73FF"/>
<stop offset="0.65" stop-color="#67DDFA"/>
<stop offset="1" stop-color="#4AFCF1"/>
</radialGradient>
<radialGradient id="paint8_radial_928_43985" cx="0" cy="0" r="1" gradientUnits="userSpaceOnUse" gradientTransform="translate(45.6 47) rotate(98.7708) scale(17.7071 16.0233)">
<stop offset="0.055" stop-color="#7A73FF"/>
<stop offset="0.65" stop-color="#67DDFA"/>
<stop offset="1" stop-color="#4AFCF1"/>
</radialGradient>
<radialGradient id="paint9_radial_928_43985" cx="0" cy="0" r="1" gradientUnits="userSpaceOnUse" gradientTransform="translate(45.6 47) rotate(98.7708) scale(17.7071 16.0233)">
<stop offset="0.055" stop-color="#7A73FF"/>
<stop offset="0.65" stop-color="#67DDFA"/>
<stop offset="1" stop-color="#4AFCF1"/>
</radialGradient>
<radialGradient id="paint10_radial_928_43985" cx="0" cy="0" r="1" gradientUnits="userSpaceOnUse" gradientTransform="translate(45.6 47) rotate(98.7708) scale(17.7071 16.0233)">
<stop offset="0.055" stop-color="#7A73FF"/>
<stop offset="0.65" stop-color="#67DDFA"/>
<stop offset="1" stop-color="#4AFCF1"/>
</radialGradient>
<radialGradient id="paint11_radial_928_43985" cx="0" cy="0" r="1" gradientUnits="userSpaceOnUse" gradientTransform="translate(45.6 47) rotate(98.7708) scale(17.7071 16.0233)">
<stop offset="0.055" stop-color="#7A73FF"/>
<stop offset="0.65" stop-color="#67DDFA"/>
<stop offset="1" stop-color="#4AFCF1"/>
</radialGradient>
<radialGradient id="paint12_radial_928_43985" cx="0" cy="0" r="1" gradientUnits="userSpaceOnUse" gradientTransform="translate(45.6 47) rotate(98.7708) scale(17.7071 16.0233)">
<stop offset="0.055" stop-color="#7A73FF"/>
<stop offset="0.65" stop-color="#67DDFA"/>
<stop offset="1" stop-color="#4AFCF1"/>
</radialGradient>
</defs>
</svg>
