<svg width="342" height="482" viewBox="0 0 342 482" fill="none" xmlns="http://www.w3.org/2000/svg">
<g clip-path="url(#clip0_928_56947)">
<g filter="url(#filter0_d_928_56947)">
<rect x="126" y="202" width="88" height="90" rx="12" fill="white"/>
<path fill-rule="evenodd" clip-rule="evenodd" d="M170 256C178.837 256 186 248.837 186 240C186 234.866 183.582 230.297 179.823 227.37L177.181 225.698C175.022 224.612 172.582 224 170 224C161.163 224 154 231.163 154 240C154 248.837 161.163 256 170 256ZM177.181 225.698V233.292C175.317 231.202 172.622 229.889 169.625 229.889C163.999 229.889 159.437 234.517 159.437 240.226C159.437 245.935 163.999 250.563 169.625 250.563C172.622 250.563 175.317 249.25 177.181 247.16L177.107 249.311C177.097 249.614 177.339 249.864 177.642 249.864H179.358C179.654 249.864 179.893 249.624 179.892 249.328L179.823 227.37L177.181 225.698ZM177.606 240.226C177.606 244.525 174.166 248.01 169.922 248.01C165.679 248.01 162.239 244.525 162.239 240.226C162.239 235.927 165.679 232.441 169.922 232.441C174.166 232.441 177.606 235.927 177.606 240.226Z" fill="url(#paint0_radial_928_56947)"/>
<path d="M144.513 268H147.556C150.733 268 152.071 269.269 152.071 272C152.071 274.731 150.733 276 147.556 276H144.513C144.234 276 144 275.771 144 275.486V268.537C144 268.24 144.223 268 144.513 268ZM147.5 269.577H146.051V274.423H147.5C149.496 274.423 150.02 273.714 150.02 272C150.02 270.286 149.496 269.577 147.5 269.577Z" fill="#04101C"/>
<path d="M152.541 275.486L153.913 270.171C154.37 268.4 155.941 268 157.524 268H160.456C160.724 268 160.924 268.24 160.924 268.514V275.486C160.924 275.771 160.69 276 160.412 276H159.386C159.096 276 158.873 275.771 158.873 275.474V274.069H155.005L154.637 275.474C154.559 275.771 154.28 276 153.991 276H152.92C152.631 276 152.463 275.771 152.541 275.486ZM155.886 270.697L155.406 272.491H158.873V269.577H157.324C156.621 269.577 156.064 270.011 155.886 270.697Z" fill="#04101C"/>
<path d="M164.815 275.486V273.143L161.905 268.526C161.738 268.263 161.816 268 162.095 268H163.131C163.577 268 163.89 268.229 164.079 268.526L165.84 271.314L167.602 268.526C167.791 268.229 168.103 268 168.549 268H169.586C169.865 268 169.943 268.263 169.775 268.526L166.866 273.143V275.486C166.866 275.771 166.632 276 166.353 276H165.328C165.049 276 164.815 275.771 164.815 275.486Z" fill="#04101C"/>
<path d="M172.23 276H171.271C170.993 276 170.759 275.76 170.759 275.474V268.526C170.759 268.24 170.981 268 171.26 268H172.865C173.133 268 173.445 268.263 173.612 268.526L176.901 273.714V268.514C176.901 268.229 177.135 268 177.414 268H178.35C178.64 268 178.863 268.229 178.863 268.526V275.474C178.863 275.76 178.64 276 178.35 276H176.544C176.254 276 175.931 275.76 175.753 275.474L172.743 270.686V275.474C172.743 275.76 172.509 276 172.23 276Z" fill="#04101C"/>
<path d="M187.214 268C187.493 268 187.727 268.229 187.727 268.526V269.051C187.727 269.349 187.493 269.577 187.214 269.577H182.477V271.2H186.557C186.835 271.2 187.069 271.44 187.069 271.726V272.251C187.069 272.537 186.835 272.777 186.557 272.777H182.477V274.423H187.203C187.482 274.423 187.705 274.651 187.705 274.937V275.474C187.705 275.76 187.482 276 187.192 276H180.938C180.648 276 180.426 275.76 180.426 275.463V268.514C180.426 268.229 180.66 268 180.938 268H187.214Z" fill="#04101C"/>
<path d="M188.576 268H195.487C195.777 268 196 268.229 196 268.526V269.051C196 269.349 195.777 269.577 195.487 269.577H193.057V275.486C193.057 275.771 192.823 276 192.544 276H191.519C191.24 276 191.006 275.771 191.006 275.486V269.577H188.576C188.286 269.577 188.063 269.349 188.063 269.051V268.526C188.063 268.229 188.286 268 188.576 268Z" fill="#04101C"/>
</g>
<g filter="url(#filter1_d_928_56947)">
<rect x="125" y="66" width="90" height="94" rx="12" fill="white"/>
<path d="M176.409 110.045C175.864 110.045 175.455 109.773 175.182 109.364L173.546 106.5C172.864 105 171.501 103.636 170.001 102.818L167.137 101.182C166.728 101.045 166.455 100.5 166.455 100.091C166.455 99.5454 166.728 99.1363 167.137 98.8636L170.001 97.2273C171.501 96.4091 172.864 95.1818 173.682 93.5454L175.319 90.6818C175.455 90.2727 176 90 176.409 90C176.955 90 177.364 90.2727 177.637 90.6818L179.273 93.5454C180.091 95.0454 181.455 96.4091 182.955 97.2273L185.818 98.8636C186.227 99.1363 186.5 99.5454 186.5 100.091C186.5 100.636 186.227 101.045 185.818 101.318L182.955 102.955C181.455 103.773 180.091 105.136 179.273 106.636L177.637 109.5C177.364 109.773 176.955 110.045 176.409 110.045ZM170.682 100.091L171.364 100.5C173.41 101.591 175.046 103.227 176.137 105.273L176.546 105.955L176.955 105.273C178.046 103.227 179.682 101.591 181.727 100.5L182.409 100.091L181.727 99.6818C179.682 98.5909 178.046 96.9545 176.955 94.9091L176.546 94.2273L176.137 94.9091C175.046 96.9545 173.41 98.5909 171.364 99.6818L170.682 100.091Z" fill="url(#paint1_radial_928_56947)"/>
<path d="M164 120C163.454 120 163.045 119.727 162.773 119.318L161.954 117.682C161.273 116.318 160.182 115.227 158.818 114.545L157.182 113.727C156.773 113.455 156.5 112.909 156.5 112.5C156.5 111.955 156.773 111.545 157.182 111.273L158.818 110.455C160.182 109.773 161.273 108.682 161.954 107.318L162.773 105.682C163.318 104.864 164.682 104.864 165.227 105.682L166.045 107.318C166.727 108.682 167.818 109.773 169.181 110.455L170.818 111.273C171.227 111.545 171.499 111.955 171.499 112.5C171.499 113.045 171.227 113.455 170.818 113.727L169.318 114.545C167.954 115.227 166.863 116.318 166.181 117.682L165.363 119.318C164.954 119.727 164.545 120 164 120ZM160.727 112.5C162.091 113.318 163.318 114.545 164.136 115.909C164.954 114.545 166.181 113.318 167.545 112.5C166.045 111.545 164.954 110.455 164 109.091C163.182 110.455 162.091 111.545 160.727 112.5Z" fill="url(#paint2_radial_928_56947)"/>
<path d="M144.296 140V131.469H147.372C148.395 131.469 149.18 131.705 149.727 132.178C150.278 132.646 150.553 133.277 150.553 134.07C150.553 134.859 150.278 135.494 149.727 135.975C149.18 136.451 148.395 136.689 147.372 136.689H145.462V140H144.296ZM145.462 135.734H147.372C148.118 135.734 148.639 135.574 148.936 135.254C149.237 134.934 149.387 134.539 149.387 134.07C149.387 133.598 149.237 133.207 148.936 132.898C148.639 132.586 148.118 132.43 147.372 132.43H145.462V135.734ZM151.42 136.977V136.789C151.42 135.848 151.706 135.08 152.276 134.486C152.85 133.889 153.608 133.59 154.549 133.59C155.495 133.59 156.221 133.869 156.729 134.428C157.237 134.982 157.491 135.734 157.491 136.684V137.146H152.088V136.25H156.36V136.221C156.36 135.721 156.217 135.311 155.932 134.99C155.647 134.67 155.19 134.51 154.561 134.51C153.901 134.51 153.401 134.729 153.061 135.166C152.721 135.604 152.551 136.145 152.551 136.789V136.977C152.551 137.621 152.729 138.162 153.084 138.6C153.444 139.037 153.997 139.256 154.743 139.256C155.196 139.256 155.586 139.17 155.915 138.998C156.243 138.822 156.506 138.615 156.706 138.377L157.432 138.975C157.213 139.268 156.874 139.541 156.413 139.795C155.956 140.049 155.399 140.176 154.743 140.176C153.668 140.176 152.846 139.879 152.276 139.285C151.706 138.688 151.42 137.918 151.42 136.977ZM163.438 140L160.737 137.146L161.428 136.414L164.873 140H163.438ZM159.582 136.385H160.813L163.227 133.766H164.557L161.276 137.27H159.582V136.385ZM160.145 133.766V140H159.026V133.766H160.145ZM167.574 134.65L167.469 137.135C167.422 138.186 167.277 138.947 167.035 139.42C166.797 139.893 166.385 140.129 165.799 140.129C165.654 140.129 165.527 140.119 165.418 140.1C165.309 140.084 165.217 140.059 165.143 140.023V139.057C165.209 139.084 165.277 139.104 165.348 139.115C165.422 139.127 165.506 139.133 165.6 139.133C165.896 139.133 166.102 138.98 166.215 138.676C166.332 138.367 166.406 137.803 166.438 136.982L166.578 133.766H171.389V140H170.264V134.65H167.574ZM173.052 138.166C173.052 137.529 173.326 137.035 173.873 136.684C174.424 136.332 175.136 136.156 176.011 136.156H177.681V135.711C177.681 135.336 177.564 135.037 177.33 134.814C177.099 134.592 176.705 134.48 176.146 134.48C175.592 134.48 175.191 134.576 174.945 134.768C174.699 134.955 174.576 135.182 174.576 135.447V135.477H173.451V135.447C173.451 134.936 173.695 134.498 174.183 134.135C174.672 133.771 175.336 133.59 176.176 133.59C177.011 133.59 177.658 133.77 178.115 134.129C178.576 134.484 178.806 135.012 178.806 135.711V138.594C178.806 138.848 178.828 139.088 178.871 139.314C178.914 139.537 178.974 139.734 179.052 139.906V140H177.969C177.906 139.902 177.849 139.773 177.799 139.613C177.748 139.453 177.717 139.295 177.705 139.139C177.541 139.4 177.267 139.629 176.885 139.824C176.502 140.02 176.011 140.117 175.414 140.117C174.742 140.117 174.179 139.949 173.726 139.613C173.277 139.277 173.052 138.795 173.052 138.166ZM174.177 138.107C174.177 138.459 174.299 138.732 174.541 138.928C174.783 139.123 175.162 139.221 175.677 139.221C176.193 139.221 176.656 139.072 177.066 138.775C177.476 138.479 177.681 138.164 177.681 137.832V136.953H176.14C175.5 136.953 175.011 137.057 174.676 137.264C174.344 137.467 174.177 137.748 174.177 138.107ZM180.804 140V133.766H182.357L184.32 138.084C184.425 138.318 184.492 138.479 184.519 138.564C184.55 138.646 184.576 138.734 184.595 138.828H184.66C184.679 138.734 184.703 138.646 184.73 138.564C184.757 138.479 184.824 138.322 184.929 138.096L186.904 133.766H188.427V140H187.337V135.734C187.337 135.504 187.339 135.338 187.343 135.236C187.351 135.135 187.361 135.043 187.373 134.961H187.326C187.306 135.039 187.281 135.127 187.25 135.225C187.218 135.322 187.154 135.479 187.056 135.693L185.087 140H184.097L182.123 135.676C182.041 135.488 181.982 135.342 181.947 135.236C181.912 135.131 181.886 135.039 181.871 134.961H181.812C181.82 135.043 181.828 135.135 181.835 135.236C181.843 135.334 181.847 135.488 181.847 135.699V140H180.804ZM190.091 138.166C190.091 137.529 190.365 137.035 190.911 136.684C191.462 136.332 192.175 136.156 193.05 136.156H194.72V135.711C194.72 135.336 194.603 135.037 194.368 134.814C194.138 134.592 193.743 134.48 193.185 134.48C192.63 134.48 192.23 134.576 191.984 134.768C191.738 134.955 191.615 135.182 191.615 135.447V135.477H190.49V135.447C190.49 134.936 190.734 134.498 191.222 134.135C191.71 133.771 192.374 133.59 193.214 133.59C194.05 133.59 194.697 133.77 195.154 134.129C195.615 134.484 195.845 135.012 195.845 135.711V138.594C195.845 138.848 195.866 139.088 195.909 139.314C195.952 139.537 196.013 139.734 196.091 139.906V140H195.007C194.945 139.902 194.888 139.773 194.837 139.613C194.786 139.453 194.755 139.295 194.743 139.139C194.579 139.4 194.306 139.629 193.923 139.824C193.54 140.02 193.05 140.117 192.452 140.117C191.781 140.117 191.218 139.949 190.765 139.613C190.316 139.277 190.091 138.795 190.091 138.166ZM191.216 138.107C191.216 138.459 191.337 138.732 191.579 138.928C191.822 139.123 192.2 139.221 192.716 139.221C193.232 139.221 193.695 139.072 194.105 138.775C194.515 138.479 194.72 138.164 194.72 137.832V136.953H193.179C192.538 136.953 192.05 137.057 191.714 137.264C191.382 137.467 191.216 137.748 191.216 138.107Z" fill="#04101C"/>
</g>
<rect x="-23.5" y="67.5" width="67" height="67" rx="11.5" fill="#F9FBFF"/>
<rect x="-23.5" y="67.5" width="67" height="67" rx="11.5" stroke="#ECECEC"/>
<path d="M20.7318 87.4328C20.1549 86.8557 19.2895 86.8557 18.7125 87.4328C18.1356 88.01 18.1356 88.8756 18.7125 89.4527C21.3088 92.0498 22.7512 95.5124 22.7512 99.2637C22.7512 103.015 21.3088 106.478 18.7125 109.075C16.1162 111.672 12.6546 113.114 8.90439 113.114C5.73117 113.114 2.55796 111.96 0.105927 109.94L1.98101 107.92C4.00033 109.507 6.45236 110.229 8.76015 110.229C11.6449 110.229 14.3854 109.219 16.549 107.055C20.8761 102.726 20.8761 95.6567 16.549 91.4726C12.2218 87.1443 5.15422 87.1443 0.97135 91.4726C-2.92305 95.3682 -3.35576 101.572 -0.0383101 105.9L-3.06729 109.075C-3.64424 109.652 -3.64424 110.517 -3.06729 111.095C0.105927 114.269 4.2888 116 8.76015 116C13.2315 116 17.4144 114.269 20.5876 111.095C23.7608 107.92 25.4917 103.736 25.4917 99.2637C25.6359 94.791 23.905 90.607 20.7318 87.4328ZM3.13491 93.4925C4.72151 91.9055 6.88507 91.0398 8.90439 91.0398C11.0679 91.0398 13.0873 91.9055 14.6739 93.4925C17.8471 96.6667 17.8471 101.861 14.6739 105.035C11.5007 108.209 6.30812 108.209 3.13491 105.035C-0.0383101 101.861 -0.0383101 96.6667 3.13491 93.4925Z" fill="#ECECEC"/>
<rect x="-12.5" y="333.5" width="67" height="67" rx="11.5" fill="#F9FBFF"/>
<rect x="-12.5" y="333.5" width="67" height="67" rx="11.5" stroke="#ECECEC"/>
<path fill-rule="evenodd" clip-rule="evenodd" d="M18.916 353.491C20.3877 352.836 22.033 352.836 23.5047 353.491L23.5271 353.502L31.3957 357.188C31.4058 357.193 31.4158 357.197 31.4257 357.202C33.1885 358.085 34.2332 360.025 33.8887 362.105C33.2345 366.165 31.2534 374.169 23.9099 380.053L23.8963 380.064C22.2941 381.312 20.1266 381.312 18.5245 380.064L18.5107 380.053C11.1654 374.168 9.18523 366.161 8.53152 362.102C8.52686 362.073 8.5232 362.044 8.52054 362.015C8.35751 360.218 9.15847 358.102 11.1537 357.187L18.8864 353.505C18.8962 353.5 18.906 353.496 18.916 353.491ZM19.9648 355.811L12.2389 359.489L12.2191 359.499C11.4407 359.853 10.9776 360.763 11.0522 361.744C11.6749 365.577 13.513 372.782 20.0949 378.061C20.7743 378.586 21.6464 378.586 22.3258 378.061C28.9348 372.761 30.7609 365.517 31.3761 361.697L31.3771 361.691C31.5376 360.726 31.0657 359.876 30.299 359.485L22.4592 355.812C21.6538 355.457 20.7704 355.457 19.9648 355.811Z" fill="#ECECEC"/>
<path fill-rule="evenodd" clip-rule="evenodd" d="M27.0799 360.89C27.6428 361.311 27.7578 362.108 27.3368 362.671L21.6259 370.308C21.3868 370.627 21.0115 370.816 20.6122 370.818C20.2129 370.82 19.836 370.634 19.5941 370.316L16.396 366.116C15.9701 365.557 16.0783 364.759 16.6375 364.333C17.1967 363.907 17.9953 364.015 18.4211 364.574L20.5975 367.433L25.2984 361.147C25.7194 360.584 26.517 360.469 27.0799 360.89Z" fill="#ECECEC"/>
<g filter="url(#filter2_d_928_56947)">
<rect x="18" y="200" width="68" height="94" rx="12" fill="white"/>
<path d="M62.9647 246.6H60C59.5059 244.8 57.9 243.6 55.9235 243.6C53.5765 243.6 51.6 245.52 51.6 247.8C51.6 250.08 53.5765 252 55.9235 252C57.9 252 59.5059 250.8 60 249H62.9647C63.7059 249 64.2 248.4 64.2 247.8C64.2 247.08 63.7059 246.6 62.9647 246.6ZM55.9235 249.6C54.9353 249.6 54.0706 248.76 54.0706 247.8C54.0706 246.84 54.9353 246 55.9235 246C56.9118 246 57.7765 246.84 57.7765 247.8C57.7765 248.76 56.9118 249.6 55.9235 249.6Z" fill="url(#paint3_radial_928_56947)"/>
<path d="M49.0085 246.4H40.1915C39.4766 246.4 39 247.1 39 247.8C39 248.64 39.5957 249.2 40.1915 249.2H49.0085C49.7234 249.2 50.2 248.5 50.2 247.8C50.2 246.96 49.6043 246.4 49.0085 246.4Z" fill="url(#paint4_radial_928_56947)"/>
<path d="M40.1915 229.6H49.0085C49.7234 229.6 50.2 228.9 50.2 228.2C50.2 227.5 49.6043 226.8 49.0085 226.8H40.1915C39.4766 226.8 39 227.5 39 228.2C39 228.9 39.5957 229.6 40.1915 229.6Z" fill="url(#paint5_radial_928_56947)"/>
<path d="M55.9235 232.4C57.9 232.4 59.5059 231.2 60 229.4H62.9647C63.7059 229.4 64.2 228.8 64.2 228.2C64.2 227.6 63.5824 227 62.9647 227H60C59.5059 225.2 57.9 224 55.9235 224C53.5765 224 51.6 225.92 51.6 228.2C51.6 230.48 53.5765 232.4 55.9235 232.4ZM55.9235 226.4C56.9118 226.4 57.7765 227.24 57.7765 228.2C57.7765 229.16 56.9118 230 55.9235 230C54.9353 230 54.0706 229.16 54.0706 228.2C54.0706 227.24 54.9353 226.4 55.9235 226.4Z" fill="url(#paint6_radial_928_56947)"/>
<path d="M40.2353 239.2H43.2C43.6941 240.88 45.3 242.2 47.2765 242.2C49.6235 242.2 51.6 240.28 51.6 238C51.6 235.72 49.6235 233.8 47.2765 233.8C45.3 233.8 43.6941 235 43.2 236.8H40.2353C39.4941 236.8 39 237.4 39 238C39 238.6 39.6176 239.2 40.2353 239.2ZM47.2765 236.2C48.2647 236.2 49.1294 237.04 49.1294 238C49.1294 238.96 48.2647 239.8 47.2765 239.8C46.2882 239.8 45.4235 238.96 45.4235 238C45.4235 237.04 46.2882 236.2 47.2765 236.2Z" fill="url(#paint7_radial_928_56947)"/>
<path d="M62.9957 236.6H54.2043C53.4817 236.6 53 237.3 53 238C53 238.7 53.6022 239.4 54.2043 239.4H62.9957C63.7183 239.4 64.2 238.7 64.2 238C64.2 237.3 63.7183 236.6 62.9957 236.6Z" fill="url(#paint8_radial_928_56947)"/>
<path d="M38.2717 269.951V269.518C38.2717 268.182 38.6389 267.145 39.3733 266.406C40.1077 265.664 41.0491 265.293 42.1975 265.293C43.3498 265.293 44.2932 265.664 45.0276 266.406C45.762 267.145 46.1291 268.182 46.1291 269.518V269.951C46.1291 271.287 45.762 272.326 45.0276 273.068C44.2932 273.807 43.3498 274.176 42.1975 274.176C41.0491 274.176 40.1077 273.807 39.3733 273.068C38.6389 272.326 38.2717 271.287 38.2717 269.951ZM39.4495 269.951C39.4495 270.967 39.6995 271.76 40.1995 272.33C40.7034 272.896 41.3713 273.18 42.2034 273.18C43.0315 273.18 43.6975 272.896 44.2014 272.33C44.7053 271.76 44.9573 270.967 44.9573 269.951V269.518C44.9573 268.502 44.7053 267.711 44.2014 267.145C43.6975 266.574 43.0315 266.289 42.2034 266.289C41.3713 266.289 40.7034 266.574 40.1995 267.145C39.6995 267.711 39.4495 268.502 39.4495 269.518V269.951ZM48.0742 274V265.469H51.1035C52.0957 265.469 52.8633 265.697 53.4062 266.154C53.9492 266.611 54.2207 267.225 54.2207 267.994C54.2207 268.764 53.9492 269.383 53.4062 269.852C52.8633 270.32 52.0957 270.555 51.1035 270.555H49.2402V274H48.0742ZM49.2402 269.605H51.1035C51.834 269.605 52.3418 269.451 52.627 269.143C52.9121 268.83 53.0547 268.447 53.0547 267.994C53.0547 267.541 52.9121 267.166 52.627 266.869C52.3418 266.568 51.834 266.418 51.1035 266.418H49.2402V269.605ZM53.3652 274L51.127 270.068L52.3223 269.922L54.6953 274H53.3652ZM56.2009 274V265.469H57.7244L60.4959 271.885C60.5466 272.002 60.5955 272.125 60.6423 272.254C60.6931 272.379 60.738 272.496 60.7771 272.605H60.824C60.8591 272.496 60.9002 272.379 60.947 272.254C60.9939 272.125 61.0427 272.002 61.0935 271.885L63.8474 265.469H65.4002V274H64.2752V267.73C64.2752 267.613 64.2771 267.482 64.281 267.338C64.2888 267.189 64.3005 267.057 64.3162 266.939H64.2634C64.2322 267.057 64.1892 267.189 64.1345 267.338C64.0837 267.482 64.033 267.613 63.9822 267.73L61.2986 274H60.2615L57.5603 267.73C57.5095 267.613 57.4587 267.482 57.408 267.338C57.3611 267.189 57.324 267.057 57.2966 266.939H57.2439C57.2556 267.057 57.2654 267.189 57.2732 267.338C57.2849 267.482 57.2908 267.613 57.2908 267.73V274H56.2009Z" fill="#04101C"/>
</g>
<rect x="254.5" y="67.5" width="67" height="67" rx="11.5" fill="#F9FBFF"/>
<rect x="254.5" y="67.5" width="67" height="67" rx="11.5" stroke="#ECECEC"/>
<path d="M300.6 89.8H275.4C274.56 89.8 274 89.24 274 88.4C274 87.56 274.56 87 275.4 87H300.6C301.44 87 302 87.56 302 88.4C302 89.24 301.44 89.8 300.6 89.8Z" fill="#ECECEC"/>
<path d="M300.6 106.6H288C287.16 106.6 286.6 106.04 286.6 105.2C286.6 104.36 287.16 103.8 288 103.8H300.6C301.44 103.8 302 104.36 302 105.2C302 106.04 301.44 106.6 300.6 106.6Z" fill="#ECECEC"/>
<path d="M300.6 98.2H288C287.16 98.2 286.6 97.64 286.6 96.8C286.6 95.96 287.16 95.4 288 95.4H300.6C301.44 95.4 302 95.96 302 96.8C302 97.64 301.44 98.2 300.6 98.2Z" fill="#ECECEC"/>
<path d="M300.6 115H275.4C274.56 115 274 114.44 274 113.6C274 112.76 274.56 112.2 275.4 112.2H300.6C301.44 112.2 302 112.76 302 113.6C302 114.44 301.44 115 300.6 115Z" fill="#ECECEC"/>
<path d="M276.52 108.14C276.1 108.14 275.68 108 275.4 107.86C274.56 107.44 274 106.6 274 105.62V96.38C274 95.4 274.56 94.56 275.4 94.14C276.24 93.72 277.22 93.86 278.06 94.42L284.22 99.04C284.78 99.46 285.2 100.16 285.2 101C285.2 101.84 284.78 102.54 284.22 103.1L278.06 107.72C277.64 108 277.08 108.14 276.52 108.14ZM276.8 96.94V105.06L282.26 101L276.8 96.94Z" fill="#ECECEC"/>
<rect x="253.5" y="332.5" width="67" height="67" rx="11.5" fill="#F9FBFF"/>
<rect x="253.5" y="332.5" width="67" height="67" rx="11.5" stroke="#ECECEC"/>
<path d="M281.372 363.484C280.804 362.924 279.952 362.924 279.384 363.484C278.816 364.044 278.816 364.884 279.384 365.443L285.206 371.602C285.49 371.882 285.916 372.022 286.2 372.022C286.626 372.022 287.052 371.882 287.194 371.462L301.109 354.246C301.535 353.686 301.535 352.706 300.825 352.287C300.399 351.867 299.547 351.867 298.979 352.566L296.139 356.066C293.583 353.546 289.892 352.007 286.2 352.007C278.39 352.007 272 358.305 272 366.003C272 373.701 278.39 380 286.2 380C294.009 380 300.399 373.701 300.399 366.003C300.399 364.744 300.257 363.484 299.831 362.224C299.547 361.524 298.837 361.104 298.127 361.244C297.417 361.384 296.991 362.224 297.133 362.924C297.417 363.904 297.559 365.024 297.559 366.003C297.559 372.162 292.447 377.201 286.2 377.201C279.952 377.201 274.84 372.162 274.84 366.003C274.84 359.845 279.952 354.806 286.2 354.806C289.324 354.806 292.164 356.066 294.435 358.305L286.2 368.523L281.372 363.484Z" fill="#ECECEC"/>
<g filter="url(#filter3_d_928_56947)">
<rect x="136" y="332" width="68" height="94" rx="12" fill="white"/>
<path fill-rule="evenodd" clip-rule="evenodd" d="M178.03 356.487C179.293 357.178 180.2 358.549 180.2 360.2V374.48C180.2 377.822 176.499 379.802 173.778 377.859C173.748 377.838 173.718 377.814 173.689 377.79L172.196 376.53C172.174 376.512 172.153 376.493 172.133 376.474C170.985 375.381 169.554 374.7 167.982 374.449V379.94C167.982 382.161 166.358 384 164.138 384C161.873 384 160.295 381.972 160.295 379.94V374.183C157.276 373.494 155 370.636 155 367.34C155 365.484 155.655 363.697 157.056 362.413C158.188 361.258 159.741 360.34 161.695 360.34H166.541C168.689 360.21 170.681 359.475 172.185 358.298L173.634 356.939C173.662 356.913 173.691 356.887 173.722 356.863C175.081 355.785 176.746 355.785 178.03 356.487ZM175.5 359.028L174.056 360.382C174.028 360.408 173.999 360.433 173.968 360.457C171.956 362.053 169.366 362.983 166.662 363.138C166.635 363.139 166.609 363.14 166.582 363.14H161.695C160.68 363.14 159.8 363.605 159.034 364.395C159.013 364.417 158.99 364.439 158.967 364.46C158.22 365.134 157.8 366.132 157.8 367.34C157.8 369.711 159.68 371.54 161.695 371.54C162.468 371.54 163.095 372.167 163.095 372.94V379.94C163.095 380.709 163.688 381.2 164.138 381.2C164.634 381.2 165.182 380.799 165.182 379.94V372.94C165.182 372.167 165.809 371.54 166.582 371.54C169.337 371.54 171.988 372.486 174.032 374.416L175.443 375.607C176.251 376.141 177.4 375.6 177.4 374.48V360.2C177.4 359.611 177.085 359.162 176.686 358.943C176.318 358.742 175.895 358.736 175.5 359.028Z" fill="url(#paint9_radial_928_56947)"/>
<path fill-rule="evenodd" clip-rule="evenodd" d="M184.4 363C185.173 363 185.8 363.627 185.8 364.4V370C185.8 370.773 185.173 371.4 184.4 371.4C183.627 371.4 183 370.773 183 370V364.4C183 363.627 183.627 363 184.4 363Z" fill="url(#paint10_radial_928_56947)"/>
<path d="M155.211 403.656V403.586H156.371V403.65C156.371 404.162 156.565 404.545 156.951 404.799C157.342 405.053 157.889 405.18 158.592 405.18C159.291 405.18 159.826 405.051 160.198 404.793C160.573 404.531 160.76 404.188 160.76 403.762C160.76 403.379 160.586 403.074 160.239 402.848C159.895 402.617 159.207 402.371 158.176 402.109C157.133 401.844 156.408 401.531 156.002 401.172C155.6 400.812 155.399 400.299 155.399 399.631C155.399 398.963 155.674 398.406 156.225 397.961C156.78 397.516 157.547 397.293 158.528 397.293C159.504 397.293 160.281 397.531 160.86 398.008C161.438 398.484 161.727 399.076 161.727 399.783V399.848H160.567V399.783C160.567 399.334 160.395 398.973 160.051 398.699C159.711 398.426 159.203 398.289 158.528 398.289C157.852 398.289 157.352 398.406 157.028 398.641C156.707 398.871 156.547 399.186 156.547 399.584C156.547 399.951 156.709 400.242 157.033 400.457C157.362 400.668 158.02 400.896 159.008 401.143C160.043 401.404 160.785 401.729 161.235 402.115C161.684 402.502 161.908 403.049 161.908 403.756C161.908 404.463 161.61 405.043 161.012 405.496C160.418 405.949 159.612 406.176 158.592 406.176C157.569 406.176 156.748 405.951 156.131 405.502C155.518 405.049 155.211 404.434 155.211 403.656ZM163.648 406V397.469H165.172L167.943 403.885C167.994 404.002 168.043 404.125 168.09 404.254C168.141 404.379 168.186 404.496 168.225 404.605H168.271C168.307 404.496 168.348 404.379 168.395 404.254C168.441 404.125 168.49 404.002 168.541 403.885L171.295 397.469H172.848V406H171.723V399.73C171.723 399.613 171.725 399.482 171.729 399.338C171.736 399.189 171.748 399.057 171.764 398.939H171.711C171.68 399.057 171.637 399.189 171.582 399.338C171.531 399.482 171.48 399.613 171.43 399.73L168.746 406H167.709L165.008 399.73C164.957 399.613 164.906 399.482 164.855 399.338C164.809 399.189 164.771 399.057 164.744 398.939H164.691C164.703 399.057 164.713 399.189 164.721 399.338C164.732 399.482 164.738 399.613 164.738 399.73V406H163.648ZM175.115 406V397.469H176.638L179.41 403.885C179.461 404.002 179.51 404.125 179.556 404.254C179.607 404.379 179.652 404.496 179.691 404.605H179.738C179.773 404.496 179.814 404.379 179.861 404.254C179.908 404.125 179.957 404.002 180.008 403.885L182.761 397.469H184.314V406H183.189V399.73C183.189 399.613 183.191 399.482 183.195 399.338C183.203 399.189 183.215 399.057 183.23 398.939H183.177C183.146 399.057 183.103 399.189 183.049 399.338C182.998 399.482 182.947 399.613 182.896 399.73L180.213 406H179.176L176.474 399.73C176.424 399.613 176.373 399.482 176.322 399.338C176.275 399.189 176.238 399.057 176.211 398.939H176.158C176.17 399.057 176.179 399.189 176.187 399.338C176.199 399.482 176.205 399.613 176.205 399.73V406H175.115Z" fill="#04101C"/>
</g>
<g filter="url(#filter4_d_928_56947)">
<rect x="254" y="200" width="68" height="94" rx="12" fill="white"/>
<path d="M281.355 226H276.409C273.473 226 271 228.25 271 231.1V236.2C271 239.05 273.473 241.3 276.409 241.3H279.964C280.891 241.3 281.509 240.7 281.509 239.8C281.509 238.9 280.891 238.3 279.964 238.3H276.409C275.173 238.3 274.091 237.4 274.091 236.2V231.1C274.091 229.9 275.173 229 276.409 229H281.355C282.591 229 283.673 229.9 283.673 231.1V243.55C283.673 245.5 282.127 247 280.118 247H277.645C276.718 247 276.1 247.6 276.1 248.5C276.1 249.4 276.718 250 277.645 250H280.118C283.827 250 286.764 247.15 286.764 243.55V231.1C286.764 228.25 284.291 226 281.355 226Z" fill="url(#paint11_radial_928_56947)"/>
<path d="M299.591 226H294.645C291.709 226 289.236 228.25 289.236 231.1V236.2C289.236 239.05 291.709 241.3 294.645 241.3H298.2C299.127 241.3 299.745 240.7 299.745 239.8C299.745 238.9 299.127 238.3 298.2 238.3H294.645C293.409 238.3 292.327 237.4 292.327 236.2V231.1C292.327 229.9 293.409 229 294.645 229H299.591C300.827 229 301.909 229.9 301.909 231.1V243.55C301.909 245.5 300.364 247 298.355 247H295.882C294.955 247 294.336 247.6 294.336 248.5C294.336 249.4 294.955 250 295.882 250H298.355C302.064 250 305 247.15 305 243.55V231.1C305 228.25 302.527 226 299.591 226Z" fill="url(#paint12_radial_928_56947)"/>
<path d="M274.301 269.951V269.518C274.301 268.182 274.666 267.145 275.397 266.406C276.131 265.664 277.051 265.293 278.156 265.293C279.25 265.293 280.1 265.568 280.705 266.119C281.311 266.666 281.639 267.344 281.69 268.152L281.696 268.211H280.53L280.524 268.152C280.496 267.637 280.287 267.197 279.897 266.834C279.51 266.471 278.93 266.289 278.156 266.289C277.375 266.289 276.733 266.566 276.229 267.121C275.729 267.672 275.479 268.471 275.479 269.518V269.951C275.479 270.971 275.729 271.764 276.229 272.33C276.733 272.896 277.375 273.18 278.156 273.18C278.93 273.18 279.504 272.994 279.879 272.623C280.258 272.248 280.473 271.812 280.524 271.316L280.53 271.258H281.696L281.69 271.316C281.608 272.113 281.274 272.789 280.688 273.344C280.102 273.898 279.258 274.176 278.156 274.176C277.051 274.176 276.131 273.809 275.397 273.074C274.666 272.336 274.301 271.295 274.301 269.951ZM283.189 274V265.469H284.713L287.484 271.885C287.535 272.002 287.584 272.125 287.631 272.254C287.682 272.379 287.727 272.496 287.766 272.605H287.812C287.848 272.496 287.889 272.379 287.936 272.254C287.982 272.125 288.031 272.002 288.082 271.885L290.836 265.469H292.389V274H291.264V267.73C291.264 267.613 291.266 267.482 291.27 267.338C291.277 267.189 291.289 267.057 291.305 266.939H291.252C291.221 267.057 291.178 267.189 291.123 267.338C291.072 267.482 291.021 267.613 290.971 267.73L288.287 274H287.25L284.549 267.73C284.498 267.613 284.447 267.482 284.396 267.338C284.35 267.189 284.312 267.057 284.285 266.939H284.232C284.244 267.057 284.254 267.189 284.262 267.338C284.273 267.482 284.279 267.613 284.279 267.73V274H283.189ZM301.359 274H300.199V267.789C300.199 267.672 300.201 267.541 300.205 267.396C300.209 267.252 300.215 267.121 300.222 267.004H300.176C300.121 267.102 300.058 267.207 299.988 267.32C299.922 267.434 299.849 267.553 299.771 267.678L295.605 274H294.375V265.469H295.541V271.65C295.541 271.768 295.539 271.906 295.535 272.066C295.531 272.223 295.525 272.359 295.517 272.477H295.57C295.617 272.379 295.676 272.27 295.746 272.148C295.82 272.027 295.896 271.906 295.974 271.785L300.135 265.469H301.359V274Z" fill="#04101C"/>
</g>
<path d="M214 247H254" stroke="url(#paint13_linear_928_56947)" stroke-width="2"/>
<path d="M321 391L398 391" stroke="#ECECEC"/>
<path d="M281 400V482" stroke="#ECECEC"/>
<path d="M298 401V428.953C298 437.79 305.163 444.953 314 444.953H387C395.837 444.953 403 452.117 403 460.953V485" stroke="#ECECEC"/>
<path d="M320.5 366H330C338.837 366 346 358.837 346 350V177.994C346 169.158 353.163 161.994 362 161.994H430C438.837 161.994 446 154.831 446 145.994V134" stroke="#ECECEC"/>
<path d="M321 379L367 379C375.837 379 383 371.837 383 363L383 268" stroke="#ECECEC"/>
<path d="M215 114H254" stroke="#ECECEC"/>
<path d="M52 200L52 108C52 103.582 48.4183 100 44 100V100" stroke="#ECECEC"/>
<path d="M320.5 350.5V350.5C327.403 350.5 332.999 344.904 332.999 338L332.999 198.5C332.999 189.664 325.836 182.5 316.999 182.5L82.0002 182.5C73.1639 182.5 66.0005 189.663 66.0002 198.499L66.0001 200" stroke="#ECECEC"/>
<path d="M5 67L5 1.90735e-06" stroke="#ECECEC"/>
<path d="M133 0V0C133 6.62742 127.627 12 121 12L35 12C26.1634 12 19 19.1634 19 28V67" stroke="#ECECEC"/>
<path d="M215 100.499L219.5 100.499C228.336 100.499 235.5 93.3357 235.5 84.4992L235.501 9.44569e-06" stroke="#ECECEC"/>
<path d="M126 247H86" stroke="url(#paint14_linear_928_56947)" stroke-width="2"/>
<path d="M18 247H-22" stroke="#ECECEC"/>
<path d="M18 267H13.8374C5.00084 267 -2.1626 274.163 -2.1626 283V297.5C-2.1626 306.337 -9.32605 313.5 -18.1626 313.5H-90C-98.8366 313.5 -106 320.663 -106 329.5V333" stroke="#ECECEC"/>
<path d="M38 294V333" stroke="#ECECEC"/>
<path d="M85.9999 259L101.999 259C110.836 259 117.999 266.163 117.999 275L117.999 482" stroke="#ECECEC"/>
<path d="M86 271V271C94.8366 271 102 278.163 102 287V447.551C102 456.388 94.8366 463.551 86 463.551H16C7.16344 463.551 0 470.715 0 479.551V485" stroke="#ECECEC"/>
<path d="M170 202V160" stroke="url(#paint15_linear_928_56947)" stroke-width="2"/>
<path d="M170 292L170 332" stroke="url(#paint16_linear_928_56947)" stroke-width="2"/>
</g>
<defs>
<filter id="filter0_d_928_56947" x="117" y="194" width="108" height="110" filterUnits="userSpaceOnUse" color-interpolation-filters="sRGB">
<feFlood flood-opacity="0" result="BackgroundImageFix"/>
<feColorMatrix in="SourceAlpha" type="matrix" values="0 0 0 0 0 0 0 0 0 0 0 0 0 0 0 0 0 0 127 0" result="hardAlpha"/>
<feOffset dx="1" dy="2"/>
<feGaussianBlur stdDeviation="5"/>
<feComposite in2="hardAlpha" operator="out"/>
<feColorMatrix type="matrix" values="0 0 0 0 0.00780001 0 0 0 0 0.045344 0 0 0 0 0.0800001 0 0 0 0.04 0"/>
<feBlend mode="normal" in2="BackgroundImageFix" result="effect1_dropShadow_928_56947"/>
<feBlend mode="normal" in="SourceGraphic" in2="effect1_dropShadow_928_56947" result="shape"/>
</filter>
<filter id="filter1_d_928_56947" x="116" y="58" width="110" height="114" filterUnits="userSpaceOnUse" color-interpolation-filters="sRGB">
<feFlood flood-opacity="0" result="BackgroundImageFix"/>
<feColorMatrix in="SourceAlpha" type="matrix" values="0 0 0 0 0 0 0 0 0 0 0 0 0 0 0 0 0 0 127 0" result="hardAlpha"/>
<feOffset dx="1" dy="2"/>
<feGaussianBlur stdDeviation="5"/>
<feComposite in2="hardAlpha" operator="out"/>
<feColorMatrix type="matrix" values="0 0 0 0 0.00780001 0 0 0 0 0.045344 0 0 0 0 0.0800001 0 0 0 0.04 0"/>
<feBlend mode="normal" in2="BackgroundImageFix" result="effect1_dropShadow_928_56947"/>
<feBlend mode="normal" in="SourceGraphic" in2="effect1_dropShadow_928_56947" result="shape"/>
</filter>
<filter id="filter2_d_928_56947" x="9" y="192" width="88" height="114" filterUnits="userSpaceOnUse" color-interpolation-filters="sRGB">
<feFlood flood-opacity="0" result="BackgroundImageFix"/>
<feColorMatrix in="SourceAlpha" type="matrix" values="0 0 0 0 0 0 0 0 0 0 0 0 0 0 0 0 0 0 127 0" result="hardAlpha"/>
<feOffset dx="1" dy="2"/>
<feGaussianBlur stdDeviation="5"/>
<feComposite in2="hardAlpha" operator="out"/>
<feColorMatrix type="matrix" values="0 0 0 0 0.00780001 0 0 0 0 0.045344 0 0 0 0 0.0800001 0 0 0 0.04 0"/>
<feBlend mode="normal" in2="BackgroundImageFix" result="effect1_dropShadow_928_56947"/>
<feBlend mode="normal" in="SourceGraphic" in2="effect1_dropShadow_928_56947" result="shape"/>
</filter>
<filter id="filter3_d_928_56947" x="127" y="324" width="88" height="114" filterUnits="userSpaceOnUse" color-interpolation-filters="sRGB">
<feFlood flood-opacity="0" result="BackgroundImageFix"/>
<feColorMatrix in="SourceAlpha" type="matrix" values="0 0 0 0 0 0 0 0 0 0 0 0 0 0 0 0 0 0 127 0" result="hardAlpha"/>
<feOffset dx="1" dy="2"/>
<feGaussianBlur stdDeviation="5"/>
<feComposite in2="hardAlpha" operator="out"/>
<feColorMatrix type="matrix" values="0 0 0 0 0.00780001 0 0 0 0 0.045344 0 0 0 0 0.0800001 0 0 0 0.04 0"/>
<feBlend mode="normal" in2="BackgroundImageFix" result="effect1_dropShadow_928_56947"/>
<feBlend mode="normal" in="SourceGraphic" in2="effect1_dropShadow_928_56947" result="shape"/>
</filter>
<filter id="filter4_d_928_56947" x="245" y="192" width="88" height="114" filterUnits="userSpaceOnUse" color-interpolation-filters="sRGB">
<feFlood flood-opacity="0" result="BackgroundImageFix"/>
<feColorMatrix in="SourceAlpha" type="matrix" values="0 0 0 0 0 0 0 0 0 0 0 0 0 0 0 0 0 0 127 0" result="hardAlpha"/>
<feOffset dx="1" dy="2"/>
<feGaussianBlur stdDeviation="5"/>
<feComposite in2="hardAlpha" operator="out"/>
<feColorMatrix type="matrix" values="0 0 0 0 0.00780001 0 0 0 0 0.045344 0 0 0 0 0.0800001 0 0 0 0.04 0"/>
<feBlend mode="normal" in2="BackgroundImageFix" result="effect1_dropShadow_928_56947"/>
<feBlend mode="normal" in="SourceGraphic" in2="effect1_dropShadow_928_56947" result="shape"/>
</filter>
<radialGradient id="paint0_radial_928_56947" cx="0" cy="0" r="1" gradientUnits="userSpaceOnUse" gradientTransform="translate(182 224) rotate(120.7) scale(37.2156)">
<stop offset="0.338542" stop-color="#7A73FF"/>
<stop offset="0.722638" stop-color="#75CDFF"/>
<stop offset="1" stop-color="#4AFCF1"/>
</radialGradient>
<radialGradient id="paint1_radial_928_56947" cx="0" cy="0" r="1" gradientUnits="userSpaceOnUse" gradientTransform="translate(171.5 105) rotate(99.7276) scale(19.0235)">
<stop offset="0.055" stop-color="#7A73FF"/>
<stop offset="0.65" stop-color="#67DDFA"/>
<stop offset="1" stop-color="#4AFCF1"/>
</radialGradient>
<radialGradient id="paint2_radial_928_56947" cx="0" cy="0" r="1" gradientUnits="userSpaceOnUse" gradientTransform="translate(171.5 105) rotate(99.7276) scale(19.0235)">
<stop offset="0.055" stop-color="#7A73FF"/>
<stop offset="0.65" stop-color="#67DDFA"/>
<stop offset="1" stop-color="#4AFCF1"/>
</radialGradient>
<radialGradient id="paint3_radial_928_56947" cx="0" cy="0" r="1" gradientUnits="userSpaceOnUse" gradientTransform="translate(51.6 238) rotate(98.7708) scale(17.7071 16.0233)">
<stop offset="0.055" stop-color="#7A73FF"/>
<stop offset="0.65" stop-color="#67DDFA"/>
<stop offset="1" stop-color="#4AFCF1"/>
</radialGradient>
<radialGradient id="paint4_radial_928_56947" cx="0" cy="0" r="1" gradientUnits="userSpaceOnUse" gradientTransform="translate(51.6 238) rotate(98.7708) scale(17.7071 16.0233)">
<stop offset="0.055" stop-color="#7A73FF"/>
<stop offset="0.65" stop-color="#67DDFA"/>
<stop offset="1" stop-color="#4AFCF1"/>
</radialGradient>
<radialGradient id="paint5_radial_928_56947" cx="0" cy="0" r="1" gradientUnits="userSpaceOnUse" gradientTransform="translate(51.6 238) rotate(98.7708) scale(17.7071 16.0233)">
<stop offset="0.055" stop-color="#7A73FF"/>
<stop offset="0.65" stop-color="#67DDFA"/>
<stop offset="1" stop-color="#4AFCF1"/>
</radialGradient>
<radialGradient id="paint6_radial_928_56947" cx="0" cy="0" r="1" gradientUnits="userSpaceOnUse" gradientTransform="translate(51.6 238) rotate(98.7708) scale(17.7071 16.0233)">
<stop offset="0.055" stop-color="#7A73FF"/>
<stop offset="0.65" stop-color="#67DDFA"/>
<stop offset="1" stop-color="#4AFCF1"/>
</radialGradient>
<radialGradient id="paint7_radial_928_56947" cx="0" cy="0" r="1" gradientUnits="userSpaceOnUse" gradientTransform="translate(51.6 238) rotate(98.7708) scale(17.7071 16.0233)">
<stop offset="0.055" stop-color="#7A73FF"/>
<stop offset="0.65" stop-color="#67DDFA"/>
<stop offset="1" stop-color="#4AFCF1"/>
</radialGradient>
<radialGradient id="paint8_radial_928_56947" cx="0" cy="0" r="1" gradientUnits="userSpaceOnUse" gradientTransform="translate(51.6 238) rotate(98.7708) scale(17.7071 16.0233)">
<stop offset="0.055" stop-color="#7A73FF"/>
<stop offset="0.65" stop-color="#67DDFA"/>
<stop offset="1" stop-color="#4AFCF1"/>
</radialGradient>
<radialGradient id="paint9_radial_928_56947" cx="0" cy="0" r="1" gradientUnits="userSpaceOnUse" gradientTransform="translate(170.4 370) rotate(100.679) scale(17.8084 19.4727)">
<stop offset="0.055" stop-color="#7A73FF"/>
<stop offset="0.65" stop-color="#67DDFA"/>
<stop offset="1" stop-color="#4AFCF1"/>
</radialGradient>
<radialGradient id="paint10_radial_928_56947" cx="0" cy="0" r="1" gradientUnits="userSpaceOnUse" gradientTransform="translate(170.4 370) rotate(100.679) scale(17.8084 19.4727)">
<stop offset="0.055" stop-color="#7A73FF"/>
<stop offset="0.65" stop-color="#67DDFA"/>
<stop offset="1" stop-color="#4AFCF1"/>
</radialGradient>
<radialGradient id="paint11_radial_928_56947" cx="0" cy="0" r="1" gradientUnits="userSpaceOnUse" gradientTransform="translate(288 238) rotate(103.65) scale(15.436 21.2566)">
<stop offset="0.055" stop-color="#7A73FF"/>
<stop offset="0.65" stop-color="#67DDFA"/>
<stop offset="1" stop-color="#4AFCF1"/>
</radialGradient>
<radialGradient id="paint12_radial_928_56947" cx="0" cy="0" r="1" gradientUnits="userSpaceOnUse" gradientTransform="translate(288 238) rotate(103.65) scale(15.436 21.2566)">
<stop offset="0.055" stop-color="#7A73FF"/>
<stop offset="0.65" stop-color="#67DDFA"/>
<stop offset="1" stop-color="#4AFCF1"/>
</radialGradient>
<linearGradient id="paint13_linear_928_56947" x1="276.5" y1="246" x2="276.01" y2="252.761" gradientUnits="userSpaceOnUse">
<stop offset="0.338542" stop-color="#7A73FF"/>
<stop offset="0.734375" stop-color="#75CDFF"/>
<stop offset="1" stop-color="#4AFCF1"/>
</linearGradient>
<linearGradient id="paint14_linear_928_56947" x1="63.5" y1="246" x2="63.9899" y2="252.761" gradientUnits="userSpaceOnUse">
<stop offset="0.338542" stop-color="#7A73FF"/>
<stop offset="0.734375" stop-color="#75CDFF"/>
<stop offset="1" stop-color="#4AFCF1"/>
</linearGradient>
<linearGradient id="paint15_linear_928_56947" x1="169" y1="136.375" x2="175.764" y2="136.842" gradientUnits="userSpaceOnUse">
<stop offset="0.338542" stop-color="#7A73FF"/>
<stop offset="0.734375" stop-color="#75CDFF"/>
<stop offset="1" stop-color="#4AFCF1"/>
</linearGradient>
<linearGradient id="paint16_linear_928_56947" x1="169" y1="354.5" x2="175.761" y2="354.01" gradientUnits="userSpaceOnUse">
<stop offset="0.338542" stop-color="#7A73FF"/>
<stop offset="0.734375" stop-color="#75CDFF"/>
<stop offset="1" stop-color="#4AFCF1"/>
</linearGradient>
<clipPath id="clip0_928_56947">
<rect width="522" height="482" fill="white" transform="translate(-90)"/>
</clipPath>
</defs>
</svg>
