<svg width="342" height="482" viewBox="0 0 342 482" fill="none" xmlns="http://www.w3.org/2000/svg">
<rect x="228.5" y="319.5" width="67" height="67" rx="11.5" fill="#F9FBFF"/>
<rect x="228.5" y="319.5" width="67" height="67" rx="11.5" stroke="#ECECEC"/>
<path fill-rule="evenodd" clip-rule="evenodd" d="M262 369C270.837 369 278 361.837 278 353C278 347.866 275.582 343.297 271.823 340.37L269.181 338.698C267.022 337.612 264.582 337 262 337C253.163 337 246 344.163 246 353C246 361.837 253.163 369 262 369ZM269.181 338.698V346.292C267.317 344.202 264.622 342.889 261.625 342.889C255.999 342.889 251.437 347.517 251.437 353.226C251.437 358.935 255.999 363.563 261.625 363.563C264.622 363.563 267.317 362.25 269.181 360.16L269.107 362.311C269.097 362.614 269.339 362.864 269.642 362.864H271.358C271.654 362.864 271.893 362.624 271.892 362.328L271.823 340.37L269.181 338.698ZM269.606 353.226C269.606 357.525 266.166 361.01 261.922 361.01C257.679 361.01 254.239 357.525 254.239 353.226C254.239 348.927 257.679 345.441 261.922 345.441C266.166 345.441 269.606 348.927 269.606 353.226Z" fill="#ECECEC"/>
<rect x="228.5" y="179.5" width="67" height="67" rx="11.5" fill="#F9FBFF"/>
<rect x="228.5" y="179.5" width="67" height="67" rx="11.5" stroke="#ECECEC"/>
<path d="M268.409 219.045C267.864 219.045 267.455 218.773 267.182 218.364L265.546 215.5C264.864 214 263.501 212.636 262.001 211.818L259.137 210.182C258.728 210.045 258.455 209.5 258.455 209.091C258.455 208.545 258.728 208.136 259.137 207.864L262.001 206.227C263.501 205.409 264.864 204.182 265.682 202.545L267.319 199.682C267.455 199.273 268 199 268.409 199C268.955 199 269.364 199.273 269.637 199.682L271.273 202.545C272.091 204.045 273.455 205.409 274.955 206.227L277.818 207.864C278.227 208.136 278.5 208.545 278.5 209.091C278.5 209.636 278.227 210.045 277.818 210.318L274.955 211.955C273.455 212.773 272.091 214.136 271.273 215.636L269.637 218.5C269.364 218.773 268.955 219.045 268.409 219.045ZM262.682 209.091L263.364 209.5C265.41 210.591 267.046 212.227 268.137 214.273L268.546 214.955L268.955 214.273C270.046 212.227 271.682 210.591 273.727 209.5L274.409 209.091L273.727 208.682C271.682 207.591 270.046 205.955 268.955 203.909L268.546 203.227L268.137 203.909C267.046 205.955 265.41 207.591 263.364 208.682L262.682 209.091Z" fill="#ECECEC"/>
<path d="M256 229C255.454 229 255.045 228.727 254.773 228.318L253.954 226.682C253.273 225.318 252.182 224.227 250.818 223.545L249.182 222.727C248.773 222.455 248.5 221.909 248.5 221.5C248.5 220.955 248.773 220.545 249.182 220.273L250.818 219.455C252.182 218.773 253.273 217.682 253.954 216.318L254.773 214.682C255.318 213.864 256.682 213.864 257.227 214.682L258.045 216.318C258.727 217.682 259.818 218.773 261.181 219.455L262.818 220.273C263.227 220.545 263.499 220.955 263.499 221.5C263.499 222.045 263.227 222.455 262.818 222.727L261.318 223.545C259.954 224.227 258.863 225.318 258.181 226.682L257.363 228.318C256.954 228.727 256.545 229 256 229ZM252.727 221.5C254.091 222.318 255.318 223.545 256.136 224.909C256.954 223.545 258.181 222.318 259.545 221.5C258.045 220.545 256.954 219.455 256 218.091C255.182 219.455 254.091 220.545 252.727 221.5Z" fill="#ECECEC"/>
<g filter="url(#filter0_d_936_43187)">
<rect x="68" y="174" width="113" height="94" rx="12" fill="white"/>
<path d="M135.232 198.433C134.655 197.856 133.789 197.856 133.213 198.433C132.636 199.01 132.636 199.876 133.213 200.453C135.809 203.05 137.251 206.512 137.251 210.264C137.251 214.015 135.809 217.478 133.213 220.075C130.616 222.672 127.155 224.114 123.404 224.114C120.231 224.114 117.058 222.96 114.606 220.94L116.481 218.92C118.5 220.507 120.952 221.229 123.26 221.229C126.145 221.229 128.885 220.219 131.049 218.055C135.376 213.726 135.376 206.657 131.049 202.473C126.722 198.144 119.654 198.144 115.471 202.473C111.577 206.368 111.144 212.572 114.462 216.9L111.433 220.075C110.856 220.652 110.856 221.517 111.433 222.095C114.606 225.269 118.789 227 123.26 227C127.732 227 131.914 225.269 135.088 222.095C138.261 218.92 139.992 214.736 139.992 210.264C140.136 205.791 138.405 201.607 135.232 198.433ZM117.635 204.493C119.222 202.905 121.385 202.04 123.404 202.04C125.568 202.04 127.587 202.905 129.174 204.493C132.347 207.667 132.347 212.861 129.174 216.035C126.001 219.209 120.808 219.209 117.635 216.035C114.462 212.861 114.462 207.667 117.635 204.493Z" fill="url(#paint0_radial_936_43187)"/>
<path d="M87.1329 248V239.469H88.6563L91.4278 245.885C91.4786 246.002 91.5274 246.125 91.5743 246.254C91.6251 246.379 91.67 246.496 91.7091 246.605H91.7559C91.7911 246.496 91.8321 246.379 91.879 246.254C91.9259 246.125 91.9747 246.002 92.0255 245.885L94.7794 239.469H96.3321V248H95.2071V241.73C95.2071 241.613 95.2091 241.482 95.213 241.338C95.2208 241.189 95.2325 241.057 95.2481 240.939H95.1954C95.1641 241.057 95.1212 241.189 95.0665 241.338C95.0157 241.482 94.9649 241.613 94.9141 241.73L92.2305 248H91.1934L88.4923 241.73C88.4415 241.613 88.3907 241.482 88.3399 241.338C88.293 241.189 88.2559 241.057 88.2286 240.939H88.1759C88.1876 241.057 88.1973 241.189 88.2052 241.338C88.2169 241.482 88.2227 241.613 88.2227 241.73V248H87.1329ZM97.8202 244.977V244.789C97.8202 243.848 98.1151 243.08 98.7049 242.486C99.2987 241.889 100.092 241.59 101.084 241.59C102.072 241.59 102.863 241.889 103.457 242.486C104.051 243.08 104.347 243.848 104.347 244.789V244.977C104.347 245.918 104.051 246.688 103.457 247.285C102.863 247.879 102.072 248.176 101.084 248.176C100.092 248.176 99.2987 247.879 98.7049 247.285C98.1151 246.688 97.8202 245.918 97.8202 244.977ZM98.9686 244.789V244.977C98.9686 245.617 99.1463 246.156 99.5018 246.594C99.8573 247.031 100.385 247.25 101.084 247.25C101.783 247.25 102.308 247.031 102.66 246.594C103.015 246.156 103.193 245.617 103.193 244.977V244.789C103.193 244.145 103.015 243.605 102.66 243.172C102.308 242.734 101.783 242.516 101.084 242.516C100.385 242.516 99.8573 242.734 99.5018 243.172C99.1463 243.605 98.9686 244.145 98.9686 244.789ZM105.988 241.766H107.113V244.379H110.418V241.766H111.543V248H110.418V245.27H107.113V248H105.988V241.766ZM113.552 248V241.766H114.665V245.738C114.665 245.855 114.663 245.988 114.66 246.137C114.66 246.285 114.658 246.42 114.654 246.541H114.701C114.755 246.436 114.816 246.324 114.882 246.207C114.949 246.09 115.025 245.973 115.111 245.855L118.046 241.766H119.177V248H118.058V244.033C118.058 243.912 118.06 243.777 118.064 243.629C118.068 243.477 118.074 243.34 118.081 243.219H118.017C117.966 243.32 117.908 243.432 117.841 243.553C117.775 243.674 117.701 243.793 117.619 243.91L114.683 248H113.552ZM120.495 242.65V241.766H126.062V242.65H123.841V248H122.716V242.65H120.495ZM127.022 244.977V244.789C127.022 243.848 127.317 243.08 127.907 242.486C128.501 241.889 129.294 241.59 130.286 241.59C131.274 241.59 132.065 241.889 132.659 242.486C133.253 243.08 133.55 243.848 133.55 244.789V244.977C133.55 245.918 133.253 246.688 132.659 247.285C132.065 247.879 131.274 248.176 130.286 248.176C129.294 248.176 128.501 247.879 127.907 247.285C127.317 246.688 127.022 245.918 127.022 244.977ZM128.171 244.789V244.977C128.171 245.617 128.349 246.156 128.704 246.594C129.059 247.031 129.587 247.25 130.286 247.25C130.985 247.25 131.511 247.031 131.862 246.594C132.218 246.156 132.395 245.617 132.395 244.977V244.789C132.395 244.145 132.218 243.605 131.862 243.172C131.511 242.734 130.985 242.516 130.286 242.516C129.587 242.516 129.059 242.734 128.704 243.172C128.349 243.605 128.171 244.145 128.171 244.789ZM135.19 250.438V241.766H136.21L136.262 242.621H136.286C136.473 242.352 136.756 242.123 137.135 241.936C137.514 241.744 137.958 241.648 138.465 241.648C139.34 241.648 140.04 241.945 140.563 242.539C141.09 243.129 141.354 243.879 141.354 244.789V244.977C141.354 245.883 141.09 246.633 140.563 247.227C140.04 247.82 139.34 248.117 138.465 248.117C137.958 248.117 137.526 248.035 137.171 247.871C136.815 247.707 136.53 247.49 136.315 247.221V250.438H135.19ZM136.315 246.084C136.456 246.373 136.688 246.631 137.012 246.857C137.337 247.08 137.731 247.191 138.196 247.191C138.887 247.191 139.393 246.98 139.714 246.559C140.038 246.133 140.2 245.605 140.2 244.977V244.789C140.2 244.156 140.038 243.629 139.714 243.207C139.393 242.785 138.887 242.574 138.196 242.574C137.731 242.574 137.337 242.688 137.012 242.914C136.692 243.137 136.46 243.393 136.315 243.682V246.084ZM143 248V241.766H144.114V245.738C144.114 245.855 144.112 245.988 144.108 246.137C144.108 246.285 144.106 246.42 144.102 246.541H144.149C144.204 246.436 144.264 246.324 144.33 246.207C144.397 246.09 144.473 245.973 144.559 245.855L147.495 241.766H148.625V248H147.506V244.033C147.506 243.912 147.508 243.777 147.512 243.629C147.516 243.477 147.522 243.34 147.53 243.219H147.465C147.414 243.32 147.356 243.432 147.289 243.553C147.223 243.674 147.149 243.793 147.067 243.91L144.131 248H143ZM150.635 241.766H151.76V244.379H155.065V241.766H156.19V248H155.065V245.27H151.76V248H150.635V241.766ZM158.199 241.766H162.676V242.65H159.324V248H158.199V241.766Z" fill="#04101C"/>
</g>
<rect x="-0.5" y="307.5" width="67" height="67" rx="11.5" fill="#F9FBFF"/>
<rect x="-0.5" y="307.5" width="67" height="67" rx="11.5" stroke="#ECECEC"/>
<path d="M45.8537 328.617C44.0298 326.793 40.9431 326.512 37.2952 327.775C36.0325 328.196 34.7698 328.898 33.507 329.599C28.4561 326.652 23.6858 326.091 21.1604 328.617C18.4946 331.143 19.1961 335.914 22.1425 340.967C19.0558 346.159 18.6349 350.93 21.1604 353.316C22.1425 354.439 23.6858 355 25.5098 355C27.8949 355 30.701 354.018 33.507 352.334C36.3131 354.018 39.1192 355 41.5043 355C43.3282 355 44.7313 354.439 45.8537 353.456C48.3792 350.93 47.8179 346.159 44.8716 341.107C47.9582 335.774 48.3792 331.003 45.8537 328.617ZM38.137 330.441C40.8028 329.459 42.767 329.599 43.8895 330.582C45.1522 331.845 44.8716 334.932 43.1879 338.3C42.2058 337.037 41.2237 335.774 39.961 334.511C38.6982 333.248 37.4355 332.266 36.1728 331.283C36.8743 331.003 37.5758 330.582 38.137 330.441ZM23.1246 351.351C21.8619 350.088 22.1425 347.001 23.8261 343.633C24.8083 344.896 25.7904 346.159 27.0531 347.422C28.3158 348.685 29.5786 349.808 30.8413 350.65C27.3337 352.474 24.3873 352.614 23.1246 351.351ZM43.8895 351.351C42.6267 352.614 39.6804 352.334 36.0325 350.65C37.2952 349.667 38.5579 348.545 39.8207 347.422C40.3819 346.861 40.9431 346.299 41.364 345.738C41.9252 345.177 41.7849 344.335 41.2237 343.773C40.6625 343.212 39.8207 343.352 39.2595 343.914C38.8386 344.475 38.2773 344.896 37.8564 345.457C36.4534 346.861 34.9101 348.124 33.507 349.106C32.104 348.124 30.5607 346.861 29.1576 345.457C22.9843 339.282 21.0201 332.687 23.1246 330.582C23.5455 330.02 24.3873 329.74 25.5098 329.74C26.9128 329.74 28.877 330.301 30.8413 331.283C29.5786 332.266 28.3158 333.388 27.0531 334.511C26.4919 335.213 25.7904 335.914 25.2292 336.616C24.6679 337.177 24.8083 338.019 25.3695 338.581C25.9307 339.142 26.9128 339.002 27.3337 338.44C27.8949 337.739 28.4561 337.177 29.0173 336.616C30.4204 335.213 31.9637 333.95 33.3667 332.967C34.7698 333.95 36.3131 335.213 37.8564 336.616C44.0298 342.651 45.994 349.246 43.8895 351.351Z" fill="#ECECEC"/>
<path d="M33.5 343.24C34.7371 343.24 35.74 342.237 35.74 341C35.74 339.763 34.7371 338.76 33.5 338.76C32.2629 338.76 31.26 339.763 31.26 341C31.26 342.237 32.2629 343.24 33.5 343.24Z" fill="#ECECEC"/>
<rect x="-63.5" y="440.5" width="67" height="67" rx="11.5" fill="#F9FBFF"/>
<rect x="-63.5" y="440.5" width="67" height="67" rx="11.5" stroke="#ECECEC"/>
<rect x="79.5" y="440.5" width="67" height="67" rx="11.5" fill="#F9FBFF"/>
<rect x="79.5" y="440.5" width="67" height="67" rx="11.5" stroke="#ECECEC"/>
<path fill-rule="evenodd" clip-rule="evenodd" d="M110.916 460.491C112.388 459.836 114.033 459.836 115.505 460.491L115.527 460.502L123.396 464.188C123.406 464.193 123.416 464.197 123.426 464.202C125.189 465.085 126.233 467.025 125.889 469.105C125.234 473.165 123.253 481.169 115.91 487.053L115.896 487.064C114.294 488.312 112.127 488.312 110.524 487.064L110.511 487.053C103.165 481.168 101.185 473.161 100.532 469.102C100.527 469.073 100.523 469.044 100.521 469.015C100.358 467.218 101.158 465.102 103.154 464.187L110.886 460.505C110.896 460.5 110.906 460.496 110.916 460.491ZM111.965 462.811L104.239 466.489L104.219 466.499C103.441 466.853 102.978 467.763 103.052 468.744C103.675 472.577 105.513 479.782 112.095 485.061C112.774 485.586 113.646 485.586 114.326 485.061C120.935 479.761 122.761 472.517 123.376 468.697L123.377 468.691C123.538 467.726 123.066 466.876 122.299 466.485L114.459 462.812C113.654 462.457 112.77 462.457 111.965 462.811Z" fill="#ECECEC"/>
<path fill-rule="evenodd" clip-rule="evenodd" d="M119.08 467.89C119.643 468.311 119.758 469.108 119.337 469.671L113.626 477.308C113.387 477.627 113.011 477.816 112.612 477.818C112.213 477.82 111.836 477.634 111.594 477.316L108.396 473.116C107.97 472.557 108.078 471.759 108.638 471.333C109.197 470.907 109.995 471.015 110.421 471.574L112.598 474.433L117.298 468.147C117.719 467.584 118.517 467.469 119.08 467.89Z" fill="#ECECEC"/>
<g filter="url(#filter1_d_936_43187)">
<rect x="110" y="311" width="68" height="94" rx="12" fill="white"/>
<path d="M154.965 357.6H152C151.506 355.8 149.9 354.6 147.924 354.6C145.576 354.6 143.6 356.52 143.6 358.8C143.6 361.08 145.576 363 147.924 363C149.9 363 151.506 361.8 152 360H154.965C155.706 360 156.2 359.4 156.2 358.8C156.2 358.08 155.706 357.6 154.965 357.6ZM147.924 360.6C146.935 360.6 146.071 359.76 146.071 358.8C146.071 357.84 146.935 357 147.924 357C148.912 357 149.776 357.84 149.776 358.8C149.776 359.76 148.912 360.6 147.924 360.6Z" fill="url(#paint1_radial_936_43187)"/>
<path d="M141.009 357.4H132.191C131.477 357.4 131 358.1 131 358.8C131 359.64 131.596 360.2 132.191 360.2H141.009C141.723 360.2 142.2 359.5 142.2 358.8C142.2 357.96 141.604 357.4 141.009 357.4Z" fill="url(#paint2_radial_936_43187)"/>
<path d="M132.191 340.6H141.009C141.723 340.6 142.2 339.9 142.2 339.2C142.2 338.5 141.604 337.8 141.009 337.8H132.191C131.477 337.8 131 338.5 131 339.2C131 339.9 131.596 340.6 132.191 340.6Z" fill="url(#paint3_radial_936_43187)"/>
<path d="M147.924 343.4C149.9 343.4 151.506 342.2 152 340.4H154.965C155.706 340.4 156.2 339.8 156.2 339.2C156.2 338.6 155.582 338 154.965 338H152C151.506 336.2 149.9 335 147.924 335C145.576 335 143.6 336.92 143.6 339.2C143.6 341.48 145.576 343.4 147.924 343.4ZM147.924 337.4C148.912 337.4 149.776 338.24 149.776 339.2C149.776 340.16 148.912 341 147.924 341C146.935 341 146.071 340.16 146.071 339.2C146.071 338.24 146.935 337.4 147.924 337.4Z" fill="url(#paint4_radial_936_43187)"/>
<path d="M132.235 350.2H135.2C135.694 351.88 137.3 353.2 139.276 353.2C141.624 353.2 143.6 351.28 143.6 349C143.6 346.72 141.624 344.8 139.276 344.8C137.3 344.8 135.694 346 135.2 347.8H132.235C131.494 347.8 131 348.4 131 349C131 349.6 131.618 350.2 132.235 350.2ZM139.276 347.2C140.265 347.2 141.129 348.04 141.129 349C141.129 349.96 140.265 350.8 139.276 350.8C138.288 350.8 137.424 349.96 137.424 349C137.424 348.04 138.288 347.2 139.276 347.2Z" fill="url(#paint5_radial_936_43187)"/>
<path d="M154.996 347.6H146.204C145.482 347.6 145 348.3 145 349C145 349.7 145.602 350.4 146.204 350.4H154.996C155.718 350.4 156.2 349.7 156.2 349C156.2 348.3 155.718 347.6 154.996 347.6Z" fill="url(#paint6_radial_936_43187)"/>
<path d="M130.272 380.951V380.518C130.272 379.182 130.639 378.145 131.373 377.406C132.108 376.664 133.049 376.293 134.198 376.293C135.35 376.293 136.293 376.664 137.028 377.406C137.762 378.145 138.129 379.182 138.129 380.518V380.951C138.129 382.287 137.762 383.326 137.028 384.068C136.293 384.807 135.35 385.176 134.198 385.176C133.049 385.176 132.108 384.807 131.373 384.068C130.639 383.326 130.272 382.287 130.272 380.951ZM131.449 380.951C131.449 381.967 131.699 382.76 132.199 383.33C132.703 383.896 133.371 384.18 134.203 384.18C135.031 384.18 135.698 383.896 136.201 383.33C136.705 382.76 136.957 381.967 136.957 380.951V380.518C136.957 379.502 136.705 378.711 136.201 378.145C135.698 377.574 135.031 377.289 134.203 377.289C133.371 377.289 132.703 377.574 132.199 378.145C131.699 378.711 131.449 379.502 131.449 380.518V380.951ZM140.074 385V376.469H143.104C144.096 376.469 144.863 376.697 145.406 377.154C145.949 377.611 146.221 378.225 146.221 378.994C146.221 379.764 145.949 380.383 145.406 380.852C144.863 381.32 144.096 381.555 143.104 381.555H141.24V385H140.074ZM141.24 380.605H143.104C143.834 380.605 144.342 380.451 144.627 380.143C144.912 379.83 145.055 379.447 145.055 378.994C145.055 378.541 144.912 378.166 144.627 377.869C144.342 377.568 143.834 377.418 143.104 377.418H141.24V380.605ZM145.365 385L143.127 381.068L144.322 380.922L146.695 385H145.365ZM148.201 385V376.469H149.724L152.496 382.885C152.547 383.002 152.595 383.125 152.642 383.254C152.693 383.379 152.738 383.496 152.777 383.605H152.824C152.859 383.496 152.9 383.379 152.947 383.254C152.994 383.125 153.043 383.002 153.094 382.885L155.847 376.469H157.4V385H156.275V378.73C156.275 378.613 156.277 378.482 156.281 378.338C156.289 378.189 156.301 378.057 156.316 377.939H156.263C156.232 378.057 156.189 378.189 156.135 378.338C156.084 378.482 156.033 378.613 155.982 378.73L153.299 385H152.261L149.56 378.73C149.51 378.613 149.459 378.482 149.408 378.338C149.361 378.189 149.324 378.057 149.297 377.939H149.244C149.256 378.057 149.265 378.189 149.273 378.338C149.285 378.482 149.291 378.613 149.291 378.73V385H148.201Z" fill="#04101C"/>
</g>
<rect x="297.5" y="39.5" width="67" height="67" rx="11.5" fill="#F9FBFF"/>
<rect x="297.5" y="39.5" width="67" height="67" rx="11.5" stroke="#ECECEC"/>
<path d="M331 59C323.3 59 317 65.3 317 73C317 80.7 323.3 87 331 87C338.7 87 345 80.7 345 73C345 65.3 338.7 59 331 59ZM331 84.2C324.84 84.2 319.8 79.16 319.8 73C319.8 66.84 324.84 61.8 331 61.8C337.16 61.8 342.2 66.84 342.2 73C342.2 79.16 337.16 84.2 331 84.2Z" fill="#ECECEC"/>
<path d="M338.7 77.76C337.72 76.78 336.6 76.08 335.34 75.52C336.32 74.4 337.02 73 337.02 71.32C337.02 67.96 334.36 65.3 331 65.3C327.64 65.3 324.98 67.96 324.98 71.32C324.98 73 325.68 74.4 326.66 75.52C325.4 76.08 324.28 76.78 323.3 77.76C322.74 78.32 322.74 79.16 323.3 79.72C323.58 80 324 80.14 324.28 80.14C324.7 80.14 324.98 80 325.26 79.72C326.8 78.18 328.76 77.34 331 77.34C333.1 77.34 335.2 78.18 336.74 79.72C337.3 80.28 338.14 80.28 338.7 79.72C339.26 79.16 339.26 78.32 338.7 77.76ZM327.78 71.32C327.78 69.5 329.18 68.1 331 68.1C332.82 68.1 334.22 69.5 334.22 71.32C334.22 73.14 332.82 74.54 331 74.54C329.18 74.54 327.78 73.14 327.78 71.32Z" fill="#ECECEC"/>
<rect x="228.5" y="438.5" width="67" height="67" rx="11.5" fill="#F9FBFF"/>
<rect x="228.5" y="438.5" width="67" height="67" rx="11.5" stroke="#ECECEC"/>
<path fill-rule="evenodd" clip-rule="evenodd" d="M270.03 458.487C271.293 459.178 272.2 460.549 272.2 462.2V476.48C272.2 479.822 268.499 481.802 265.778 479.859C265.748 479.838 265.718 479.814 265.689 479.79L264.196 478.53C264.174 478.512 264.153 478.493 264.133 478.474C262.985 477.381 261.554 476.7 259.982 476.449V481.94C259.982 484.161 258.358 486 256.138 486C253.873 486 252.295 483.972 252.295 481.94V476.183C249.276 475.494 247 472.636 247 469.34C247 467.484 247.655 465.697 249.056 464.413C250.188 463.258 251.741 462.34 253.695 462.34H258.541C260.689 462.21 262.681 461.475 264.185 460.298L265.634 458.939C265.662 458.913 265.691 458.887 265.722 458.863C267.081 457.785 268.746 457.785 270.03 458.487ZM267.5 461.028L266.056 462.382C266.028 462.408 265.999 462.433 265.968 462.457C263.956 464.053 261.366 464.983 258.662 465.138C258.635 465.139 258.609 465.14 258.582 465.14H253.695C252.68 465.14 251.8 465.605 251.034 466.395C251.013 466.417 250.99 466.439 250.967 466.46C250.22 467.134 249.8 468.132 249.8 469.34C249.8 471.711 251.68 473.54 253.695 473.54C254.468 473.54 255.095 474.167 255.095 474.94V481.94C255.095 482.709 255.688 483.2 256.138 483.2C256.634 483.2 257.182 482.799 257.182 481.94V474.94C257.182 474.167 257.809 473.54 258.582 473.54C261.337 473.54 263.988 474.486 266.032 476.416L267.443 477.607C268.251 478.141 269.4 477.6 269.4 476.48V462.2C269.4 461.611 269.085 461.162 268.686 460.943C268.318 460.742 267.895 460.736 267.5 461.028Z" fill="#ECECEC"/>
<path fill-rule="evenodd" clip-rule="evenodd" d="M276.4 465C277.173 465 277.8 465.627 277.8 466.4V472C277.8 472.773 277.173 473.4 276.4 473.4C275.627 473.4 275 472.773 275 472V466.4C275 465.627 275.627 465 276.4 465Z" fill="#ECECEC"/>
<g filter="url(#filter2_d_936_43187)">
<rect x="68" y="13" width="81" height="94" rx="12" fill="white"/>
<path d="M123.696 51C123.696 47.9804 122.049 45.2353 119.578 43.8627C119.578 43.7255 119.578 43.451 119.578 43.1765C119.578 39.7451 116.833 37 113.402 37C111.48 37 109.696 37.9608 108.598 39.3333C107.5 37.9608 105.716 37 103.794 37C100.363 37 97.6176 39.7451 97.6176 43.1765C97.6176 43.451 97.6176 43.5882 97.6176 43.8627C95.1471 45.2353 93.5 47.9804 93.5 51C93.5 54.0196 95.1471 56.7647 97.6176 58.1373C97.6176 58.4118 97.6176 58.549 97.6176 58.8235C97.6176 62.2549 100.363 65 103.794 65C105.716 65 107.5 64.0392 108.598 62.6667C109.696 64.0392 111.48 65 113.402 65C116.833 65 119.578 62.2549 119.578 58.8235C119.578 58.549 119.578 58.4118 119.578 58.1373C122.049 56.6275 123.696 54.0196 123.696 51ZM117.52 56.0784C116.833 56.3529 116.559 57.0392 116.696 57.7255C116.833 58 116.833 58.4118 116.833 58.6863C116.833 60.6078 115.324 62.1176 113.402 62.1176C111.618 62.1176 110.108 60.7451 109.971 58.8235C109.971 58.6863 109.971 58.6863 109.833 58.549V58.4118C109.833 58.2745 109.696 58.1373 109.696 58.1373C109.696 58.1373 109.696 58 109.559 58C109.422 57.8627 109.422 57.8627 109.284 57.7255C109.284 57.7255 109.147 57.7255 109.147 57.5882C109.01 57.5882 108.873 57.5882 108.873 57.451H108.735H108.598C108.461 57.451 108.461 57.451 108.324 57.5882C108.186 57.5882 108.186 57.7255 108.049 57.7255C107.912 57.7255 107.912 57.8627 107.775 57.8627L107.637 58C107.637 58.1373 107.5 58.1373 107.5 58.2745V58.4118C107.5 58.549 107.363 58.549 107.363 58.6863C107.225 60.4706 105.716 61.9804 103.931 61.9804C102.01 61.9804 100.5 60.4706 100.5 58.549C100.5 58.1373 100.5 57.8627 100.637 57.5882C100.912 56.902 100.5 56.2157 99.8137 55.9412C97.6176 55.2549 96.2451 53.1961 96.2451 51C96.2451 48.8039 97.6176 46.7451 99.6765 45.9216C100.363 45.6471 100.775 44.8235 100.5 44.1373C100.363 43.8627 100.363 43.5882 100.363 43.1765C100.363 41.2549 101.873 39.7451 103.794 39.7451C105.716 39.7451 107.225 41.2549 107.225 43.1765V54.4314C107.225 55.2549 107.775 55.8039 108.598 55.8039C109.422 55.8039 109.971 55.2549 109.971 54.4314V43.1765C109.971 41.2549 111.48 39.7451 113.402 39.7451C115.324 39.7451 116.833 41.2549 116.833 43.1765C116.833 43.5882 116.833 43.8627 116.696 44.1373C116.422 44.8235 116.833 45.5098 117.52 45.7843C119.578 46.7451 120.951 48.6667 120.951 51C120.951 53.1961 119.578 55.2549 117.52 56.0784Z" fill="url(#paint7_radial_936_43187)"/>
<path d="M87.5035 87V78.4688H90.5797C91.6031 78.4688 92.3883 78.7051 92.9352 79.1777C93.4859 79.6465 93.7613 80.2773 93.7613 81.0703C93.7613 81.8594 93.4859 82.4941 92.9352 82.9746C92.3883 83.4512 91.6031 83.6895 90.5797 83.6895H88.6695V87H87.5035ZM88.6695 82.7344H90.5797C91.3258 82.7344 91.8473 82.5742 92.1441 82.2539C92.4449 81.9336 92.5953 81.5391 92.5953 81.0703C92.5953 80.5977 92.4449 80.207 92.1441 79.8984C91.8473 79.5859 91.3258 79.4297 90.5797 79.4297H88.6695V82.7344ZM94.4466 89.4375V88.4824C94.5638 88.5137 94.6908 88.5391 94.8275 88.5586C94.9681 88.5781 95.1029 88.5879 95.2318 88.5879C95.5482 88.5879 95.8138 88.5 96.0287 88.3242C96.2474 88.1484 96.4955 87.6953 96.7728 86.9648V86.959L94.1771 80.7656H95.308L96.972 84.873C97.0345 85.0293 97.0912 85.1816 97.142 85.3301C97.1966 85.4785 97.2435 85.623 97.2826 85.7637H97.3177C97.3568 85.623 97.4037 85.4785 97.4584 85.3301C97.513 85.1816 97.5697 85.0293 97.6283 84.873L99.2162 80.7656H100.312L97.4525 87.8203C97.2259 88.3672 96.9369 88.793 96.5853 89.0977C96.2377 89.4023 95.8099 89.5547 95.3021 89.5547C95.1302 89.5547 94.9759 89.5449 94.8392 89.5254C94.7025 89.5059 94.5716 89.4766 94.4466 89.4375ZM102.409 82.4707C102.409 82.9785 102.528 83.332 102.767 83.5312C103.005 83.7305 103.386 83.8301 103.909 83.8301C104.312 83.8301 104.677 83.8027 105.005 83.748C105.337 83.6895 105.691 83.6094 106.066 83.5078V84.4043C105.714 84.4941 105.364 84.5703 105.017 84.6328C104.669 84.6914 104.239 84.7207 103.728 84.7207C102.892 84.7207 102.275 84.5332 101.876 84.1582C101.482 83.7793 101.284 83.2168 101.284 82.4707V80.7656H102.409V82.4707ZM106.622 80.7656V87H105.503V80.7656H106.622ZM108.638 80.7656H109.763V83.3789H113.067V80.7656H114.192V87H113.067V84.2695H109.763V87H108.638V80.7656ZM115.833 83.9766V83.7891C115.833 82.8477 116.128 82.0801 116.717 81.4863C117.311 80.8887 118.104 80.5898 119.096 80.5898C120.085 80.5898 120.876 80.8887 121.469 81.4863C122.063 82.0801 122.36 82.8477 122.36 83.7891V83.9766C122.36 84.918 122.063 85.6875 121.469 86.2852C120.876 86.8789 120.085 87.1758 119.096 87.1758C118.104 87.1758 117.311 86.8789 116.717 86.2852C116.128 85.6875 115.833 84.918 115.833 83.9766ZM116.981 83.7891V83.9766C116.981 84.6172 117.159 85.1562 117.514 85.5938C117.87 86.0312 118.397 86.25 119.096 86.25C119.796 86.25 120.321 86.0312 120.672 85.5938C121.028 85.1562 121.206 84.6172 121.206 83.9766V83.7891C121.206 83.1445 121.028 82.6055 120.672 82.1719C120.321 81.7344 119.796 81.5156 119.096 81.5156C118.397 81.5156 117.87 81.7344 117.514 82.1719C117.159 82.6055 116.981 83.1445 116.981 83.7891ZM124 87V80.7656H125.114V84.7383C125.114 84.8555 125.112 84.9883 125.108 85.1367C125.108 85.2852 125.106 85.4199 125.102 85.541H125.149C125.204 85.4355 125.264 85.3242 125.33 85.207C125.397 85.0898 125.473 84.9727 125.559 84.8555L128.495 80.7656H129.625V87H128.506V83.0332C128.506 82.9121 128.508 82.7773 128.512 82.6289C128.516 82.4766 128.522 82.3398 128.53 82.2188H128.465C128.414 82.3203 128.356 82.4316 128.289 82.5527C128.223 82.6738 128.149 82.793 128.067 82.9102L125.131 87H124ZM126.813 78.8672C127.106 78.8672 127.346 78.7891 127.534 78.6328C127.721 78.4727 127.881 78.2129 128.014 77.8535L128.875 78.3574C128.68 78.834 128.403 79.1836 128.043 79.4062C127.684 79.6289 127.274 79.7402 126.813 79.7402C126.348 79.7402 125.938 79.6309 125.582 79.4121C125.227 79.1895 124.948 78.8379 124.745 78.3574L125.612 77.8418C125.745 78.2129 125.903 78.4766 126.086 78.6328C126.274 78.7891 126.516 78.8672 126.813 78.8672Z" fill="#04101C"/>
</g>
<g filter="url(#filter3_d_936_43187)">
<rect x="189" y="13" width="68" height="94" rx="12" fill="white"/>
<path d="M236.227 53.1636H232.918V48.8364H236.227C236.991 48.8364 237.5 48.3273 237.5 47.5636C237.5 46.8 236.991 46.2909 236.227 46.2909H232.918V45.2727C232.918 43.2364 231.264 41.7091 229.355 41.7091H228.336V38.2727C228.336 37.5091 227.827 37 227.064 37C226.3 37 225.791 37.5091 225.791 38.2727V41.5818H221.336V38.2727C221.336 37.5091 220.827 37 220.064 37C219.3 37 218.791 37.5091 218.791 38.2727V41.5818H217.773C215.736 41.5818 214.209 43.2364 214.209 45.1455V46.1636H210.773C210.009 46.1636 209.5 46.6727 209.5 47.4364C209.5 48.2 210.009 48.7091 210.773 48.7091H214.082V53.1636H210.773C210.009 53.1636 209.5 53.6727 209.5 54.4364C209.5 55.2 210.009 55.7091 210.773 55.7091H214.082V56.7273C214.082 58.7636 215.736 60.2909 217.645 60.2909H218.664V63.7273C218.664 64.4909 219.173 65 219.936 65C220.7 65 221.209 64.4909 221.209 63.7273V60.4182H225.664V63.7273C225.664 64.4909 226.173 65 226.936 65C227.7 65 228.209 64.4909 228.209 63.7273V60.4182H229.227C231.264 60.4182 232.791 58.7636 232.791 56.8545V55.8364H236.227C236.991 55.8364 237.5 55.3273 237.5 54.5636C237.5 53.8 236.991 53.1636 236.227 53.1636ZM230.373 56.7273C230.373 57.3636 229.864 57.7455 229.355 57.7455H217.773C217.136 57.7455 216.755 57.2364 216.755 56.7273V45.2727C216.627 44.6364 217.136 44.1273 217.773 44.1273H229.355C229.991 44.1273 230.373 44.6364 230.373 45.1455V56.7273Z" fill="url(#paint8_radial_936_43187)"/>
<path d="M208.402 87L211.894 78.4102H213.031L216.523 87H215.292L212.779 80.6016C212.712 80.4414 212.654 80.2891 212.603 80.1445C212.556 80 212.513 79.8535 212.474 79.7051H212.41C212.37 79.8535 212.326 80 212.275 80.1445C212.228 80.2891 212.171 80.4414 212.105 80.6016L209.574 87H208.402ZM209.872 84.7969L210.253 83.8359L214.648 83.8418L215.023 84.8027L209.872 84.7969ZM217.401 87V80.7656H220.525C221.235 80.7656 221.79 80.9043 222.189 81.1816C222.591 81.4551 222.792 81.8711 222.792 82.4297C222.792 82.7773 222.689 83.0684 222.482 83.3027C222.275 83.5371 221.997 83.6953 221.65 83.7773V83.7949C222.071 83.8574 222.403 84.0117 222.646 84.2578C222.888 84.5 223.009 84.8105 223.009 85.1895C223.009 85.7598 222.798 86.2051 222.376 86.5254C221.954 86.8418 221.396 87 220.7 87H217.401ZM218.526 83.3906H220.525C220.927 83.3906 221.216 83.3105 221.392 83.1504C221.568 82.9902 221.655 82.7695 221.655 82.4883C221.655 82.2148 221.568 82.0078 221.392 81.8672C221.216 81.7266 220.927 81.6543 220.525 81.6504H218.526V83.3906ZM218.526 86.1152H220.7C221.107 86.1152 221.403 86.0312 221.591 85.8633C221.782 85.6953 221.878 85.4688 221.878 85.1836C221.878 84.9062 221.784 84.6855 221.597 84.5215C221.409 84.3535 221.11 84.2695 220.7 84.2695H218.526V86.1152ZM224.028 81.6504V80.7656H229.595V81.6504H227.374V87H226.249V81.6504H224.028ZM230.555 83.9766V83.7891C230.555 82.8477 230.85 82.0801 231.44 81.4863C232.034 80.8887 232.827 80.5898 233.819 80.5898C234.807 80.5898 235.598 80.8887 236.192 81.4863C236.786 82.0801 237.083 82.8477 237.083 83.7891V83.9766C237.083 84.918 236.786 85.6875 236.192 86.2852C235.598 86.8789 234.807 87.1758 233.819 87.1758C232.827 87.1758 232.034 86.8789 231.44 86.2852C230.85 85.6875 230.555 84.918 230.555 83.9766ZM231.704 83.7891V83.9766C231.704 84.6172 231.881 85.1562 232.237 85.5938C232.592 86.0312 233.12 86.25 233.819 86.25C234.518 86.25 235.044 86.0312 235.395 85.5938C235.751 85.1562 235.928 84.6172 235.928 83.9766V83.7891C235.928 83.1445 235.751 82.6055 235.395 82.1719C235.044 81.7344 234.518 81.5156 233.819 81.5156C233.12 81.5156 232.592 81.7344 232.237 82.1719C231.881 82.6055 231.704 83.1445 231.704 83.7891Z" fill="#04101C"/>
</g>
<path d="M296 354L346 354" stroke="#ECECEC"/>
<path d="M296 221L346 221" stroke="#ECECEC"/>
<path d="M144 311L144 268" stroke="url(#paint9_linear_936_43187)" stroke-width="2"/>
<path d="M158 312L158 305.5C158.001 296.663 165.164 289.5 174 289.5L408.999 289.5C417.836 289.5 424.999 296.664 424.999 305.5L424.999 441C424.999 447.904 419.403 453.5 412.499 453.5V453.5" stroke="#ECECEC"/>
<path d="M15 307L15 224C15 215.163 7.83656 208 -0.999999 208L-8 208" stroke="#ECECEC"/>
<path d="M97 174L97 107" stroke="url(#paint10_linear_936_43187)" stroke-width="2"/>
<path d="M225 107V107C225 113.627 219.627 119 213 119H127C118.163 119 111 126.163 111 135V174" stroke="url(#paint11_linear_936_43187)" stroke-width="2"/>
<path d="M-9 75H33C41.8366 75 49 82.1635 49 91L49 307" stroke="#ECECEC"/>
<path d="M296.001 207.499L311.5 207.499C320.336 207.499 327.5 200.336 327.5 191.499L327.501 107" stroke="#ECECEC"/>
<path d="M228 354H178" stroke="#ECECEC"/>
<path d="M110 354L67 354" stroke="#ECECEC"/>
<path d="M110 366H105.837C97.0008 366 89.8374 373.163 89.8374 382V402.136C89.8374 410.973 82.674 418.136 73.8374 418.136H2C-6.83655 418.136 -14 425.3 -14 434.136V440" stroke="#ECECEC"/>
<path d="M130 379L130 440" stroke="#ECECEC"/>
<path d="M178 360L193.999 360C202.836 360 209.999 367.163 209.999 376L209.999 589" stroke="#ECECEC"/>
<path d="M178 366V366C186.837 366 194 373.163 194 382V553.349C194 562.185 186.837 569.349 178 569.349H108C99.1634 569.349 92 576.512 92 585.349V592" stroke="#ECECEC"/>
<path d="M262 319L262 247" stroke="#ECECEC"/>
<path d="M262 387L262 439" stroke="#ECECEC"/>
<defs>
<filter id="filter0_d_936_43187" x="59" y="166" width="133" height="114" filterUnits="userSpaceOnUse" color-interpolation-filters="sRGB">
<feFlood flood-opacity="0" result="BackgroundImageFix"/>
<feColorMatrix in="SourceAlpha" type="matrix" values="0 0 0 0 0 0 0 0 0 0 0 0 0 0 0 0 0 0 127 0" result="hardAlpha"/>
<feOffset dx="1" dy="2"/>
<feGaussianBlur stdDeviation="5"/>
<feComposite in2="hardAlpha" operator="out"/>
<feColorMatrix type="matrix" values="0 0 0 0 0.00780001 0 0 0 0 0.045344 0 0 0 0 0.0800001 0 0 0 0.04 0"/>
<feBlend mode="normal" in2="BackgroundImageFix" result="effect1_dropShadow_936_43187"/>
<feBlend mode="normal" in="SourceGraphic" in2="effect1_dropShadow_936_43187" result="shape"/>
</filter>
<filter id="filter1_d_936_43187" x="101" y="303" width="88" height="114" filterUnits="userSpaceOnUse" color-interpolation-filters="sRGB">
<feFlood flood-opacity="0" result="BackgroundImageFix"/>
<feColorMatrix in="SourceAlpha" type="matrix" values="0 0 0 0 0 0 0 0 0 0 0 0 0 0 0 0 0 0 127 0" result="hardAlpha"/>
<feOffset dx="1" dy="2"/>
<feGaussianBlur stdDeviation="5"/>
<feComposite in2="hardAlpha" operator="out"/>
<feColorMatrix type="matrix" values="0 0 0 0 0.00780001 0 0 0 0 0.045344 0 0 0 0 0.0800001 0 0 0 0.04 0"/>
<feBlend mode="normal" in2="BackgroundImageFix" result="effect1_dropShadow_936_43187"/>
<feBlend mode="normal" in="SourceGraphic" in2="effect1_dropShadow_936_43187" result="shape"/>
</filter>
<filter id="filter2_d_936_43187" x="59" y="5" width="101" height="114" filterUnits="userSpaceOnUse" color-interpolation-filters="sRGB">
<feFlood flood-opacity="0" result="BackgroundImageFix"/>
<feColorMatrix in="SourceAlpha" type="matrix" values="0 0 0 0 0 0 0 0 0 0 0 0 0 0 0 0 0 0 127 0" result="hardAlpha"/>
<feOffset dx="1" dy="2"/>
<feGaussianBlur stdDeviation="5"/>
<feComposite in2="hardAlpha" operator="out"/>
<feColorMatrix type="matrix" values="0 0 0 0 0.00780001 0 0 0 0 0.045344 0 0 0 0 0.0800001 0 0 0 0.04 0"/>
<feBlend mode="normal" in2="BackgroundImageFix" result="effect1_dropShadow_936_43187"/>
<feBlend mode="normal" in="SourceGraphic" in2="effect1_dropShadow_936_43187" result="shape"/>
</filter>
<filter id="filter3_d_936_43187" x="180" y="5" width="88" height="114" filterUnits="userSpaceOnUse" color-interpolation-filters="sRGB">
<feFlood flood-opacity="0" result="BackgroundImageFix"/>
<feColorMatrix in="SourceAlpha" type="matrix" values="0 0 0 0 0 0 0 0 0 0 0 0 0 0 0 0 0 0 127 0" result="hardAlpha"/>
<feOffset dx="1" dy="2"/>
<feGaussianBlur stdDeviation="5"/>
<feComposite in2="hardAlpha" operator="out"/>
<feColorMatrix type="matrix" values="0 0 0 0 0.00780001 0 0 0 0 0.045344 0 0 0 0 0.0800001 0 0 0 0.04 0"/>
<feBlend mode="normal" in2="BackgroundImageFix" result="effect1_dropShadow_936_43187"/>
<feBlend mode="normal" in="SourceGraphic" in2="effect1_dropShadow_936_43187" result="shape"/>
</filter>
<radialGradient id="paint0_radial_936_43187" cx="0" cy="0" r="1" gradientUnits="userSpaceOnUse" gradientTransform="translate(125.5 212.5) rotate(99.7276) scale(18.3894)">
<stop offset="0.055" stop-color="#7A73FF"/>
<stop offset="0.65" stop-color="#67DDFA"/>
<stop offset="1" stop-color="#4AFCF1"/>
</radialGradient>
<radialGradient id="paint1_radial_936_43187" cx="0" cy="0" r="1" gradientUnits="userSpaceOnUse" gradientTransform="translate(143.6 349) rotate(98.7708) scale(17.7071 16.0233)">
<stop offset="0.055" stop-color="#7A73FF"/>
<stop offset="0.65" stop-color="#67DDFA"/>
<stop offset="1" stop-color="#4AFCF1"/>
</radialGradient>
<radialGradient id="paint2_radial_936_43187" cx="0" cy="0" r="1" gradientUnits="userSpaceOnUse" gradientTransform="translate(143.6 349) rotate(98.7708) scale(17.7071 16.0233)">
<stop offset="0.055" stop-color="#7A73FF"/>
<stop offset="0.65" stop-color="#67DDFA"/>
<stop offset="1" stop-color="#4AFCF1"/>
</radialGradient>
<radialGradient id="paint3_radial_936_43187" cx="0" cy="0" r="1" gradientUnits="userSpaceOnUse" gradientTransform="translate(143.6 349) rotate(98.7708) scale(17.7071 16.0233)">
<stop offset="0.055" stop-color="#7A73FF"/>
<stop offset="0.65" stop-color="#67DDFA"/>
<stop offset="1" stop-color="#4AFCF1"/>
</radialGradient>
<radialGradient id="paint4_radial_936_43187" cx="0" cy="0" r="1" gradientUnits="userSpaceOnUse" gradientTransform="translate(143.6 349) rotate(98.7708) scale(17.7071 16.0233)">
<stop offset="0.055" stop-color="#7A73FF"/>
<stop offset="0.65" stop-color="#67DDFA"/>
<stop offset="1" stop-color="#4AFCF1"/>
</radialGradient>
<radialGradient id="paint5_radial_936_43187" cx="0" cy="0" r="1" gradientUnits="userSpaceOnUse" gradientTransform="translate(143.6 349) rotate(98.7708) scale(17.7071 16.0233)">
<stop offset="0.055" stop-color="#7A73FF"/>
<stop offset="0.65" stop-color="#67DDFA"/>
<stop offset="1" stop-color="#4AFCF1"/>
</radialGradient>
<radialGradient id="paint6_radial_936_43187" cx="0" cy="0" r="1" gradientUnits="userSpaceOnUse" gradientTransform="translate(143.6 349) rotate(98.7708) scale(17.7071 16.0233)">
<stop offset="0.055" stop-color="#7A73FF"/>
<stop offset="0.65" stop-color="#67DDFA"/>
<stop offset="1" stop-color="#4AFCF1"/>
</radialGradient>
<radialGradient id="paint7_radial_936_43187" cx="0" cy="0" r="1" gradientUnits="userSpaceOnUse" gradientTransform="translate(108.598 51) rotate(100.474) scale(17.7965 19.1035)">
<stop offset="0.055" stop-color="#7A73FF"/>
<stop offset="0.65" stop-color="#67DDFA"/>
<stop offset="1" stop-color="#4AFCF1"/>
</radialGradient>
<radialGradient id="paint8_radial_936_43187" cx="0" cy="0" r="1" gradientUnits="userSpaceOnUse" gradientTransform="translate(223.5 51) rotate(99.7276) scale(17.7553)">
<stop offset="0.055" stop-color="#7A73FF"/>
<stop offset="0.65" stop-color="#67DDFA"/>
<stop offset="1" stop-color="#4AFCF1"/>
</radialGradient>
<linearGradient id="paint9_linear_936_43187" x1="135.241" y1="244.513" x2="157.697" y2="247.861" gradientUnits="userSpaceOnUse">
<stop offset="0.338542" stop-color="#7A73FF"/>
<stop offset="0.734375" stop-color="#75CDFF"/>
<stop offset="1" stop-color="#4AFCF1"/>
</linearGradient>
<linearGradient id="paint10_linear_936_43187" x1="96" y1="69.3125" x2="102.784" y2="69.6059" gradientUnits="userSpaceOnUse">
<stop offset="0.338542" stop-color="#7A73FF"/>
<stop offset="0.734375" stop-color="#75CDFF"/>
<stop offset="1" stop-color="#4AFCF1"/>
</linearGradient>
<linearGradient id="paint11_linear_936_43187" x1="46.875" y1="241" x2="245.695" y2="124.272" gradientUnits="userSpaceOnUse">
<stop offset="0.338542" stop-color="#7A73FF"/>
<stop offset="0.734375" stop-color="#75CDFF"/>
<stop offset="1" stop-color="#4AFCF1"/>
</linearGradient>
</defs>
</svg>
