<svg width="380" height="482" viewBox="0 0 380 482" fill="none" xmlns="http://www.w3.org/2000/svg">
<g clip-path="url(#clip0_928_56949)">
<rect x="266.5" y="113.5" width="67" height="67" rx="11.5" fill="#F9FBFF"/>
<rect x="266.5" y="113.5" width="67" height="67" rx="11.5" stroke="#ECECEC"/>
<path fill-rule="evenodd" clip-rule="evenodd" d="M300 163C308.837 163 316 155.837 316 147C316 141.866 313.582 137.297 309.823 134.37L307.181 132.698C305.022 131.612 302.582 131 300 131C291.163 131 284 138.163 284 147C284 155.837 291.163 163 300 163ZM307.181 132.698V140.292C305.317 138.202 302.622 136.889 299.625 136.889C293.999 136.889 289.437 141.517 289.437 147.226C289.437 152.935 293.999 157.563 299.625 157.563C302.622 157.563 305.317 156.25 307.181 154.16L307.107 156.311C307.097 156.614 307.339 156.864 307.642 156.864H309.358C309.654 156.864 309.893 156.624 309.892 156.328L309.823 134.37L307.181 132.698ZM307.606 147.226C307.606 151.525 304.166 155.01 299.922 155.01C295.679 155.01 292.239 151.525 292.239 147.226C292.239 142.927 295.679 139.441 299.922 139.441C304.166 139.441 307.606 142.927 307.606 147.226Z" fill="#ECECEC"/>
<rect x="266.5" y="-26.5" width="67" height="67" rx="11.5" fill="#F9FBFF"/>
<rect x="266.5" y="-26.5" width="67" height="67" rx="11.5" stroke="#ECECEC"/>
<path d="M306.409 13.0454C305.864 13.0454 305.455 12.7727 305.182 12.3636L303.546 9.49996C302.864 7.99997 301.501 6.63633 300.001 5.81815L297.137 4.18179C296.728 4.04543 296.455 3.49998 296.455 3.09089C296.455 2.54543 296.728 2.13634 297.137 1.86362L300.001 0.227257C301.501 -0.590923 302.864 -1.81819 303.682 -3.45455L305.319 -6.31818C305.455 -6.72727 306 -7 306.409 -7C306.955 -7 307.364 -6.72727 307.637 -6.31818L309.273 -3.45455C310.091 -1.95456 311.455 -0.590923 312.955 0.227257L315.818 1.86362C316.227 2.13634 316.5 2.54543 316.5 3.09089C316.5 3.63634 316.227 4.04543 315.818 4.31816L312.955 5.95452C311.455 6.7727 310.091 8.13633 309.273 9.63633L307.637 12.5C307.364 12.7727 306.955 13.0454 306.409 13.0454ZM300.682 3.09089L301.364 3.49998C303.41 4.59088 305.046 6.22724 306.137 8.27269L306.546 8.95451L306.955 8.27269C308.046 6.22724 309.682 4.59088 311.727 3.49998L312.409 3.09089L311.727 2.6818C309.682 1.59089 308.046 -0.0454702 306.955 -2.09092L306.546 -2.77274L306.137 -2.09092C305.046 -0.0454702 303.41 1.59089 301.364 2.6818L300.682 3.09089Z" fill="#ECECEC"/>
<path d="M294 23C293.454 23 293.045 22.7273 292.773 22.3182L291.954 20.6818C291.273 19.3182 290.182 18.2273 288.818 17.5455L287.182 16.7273C286.773 16.4546 286.5 15.9091 286.5 15.5C286.5 14.9546 286.773 14.5455 287.182 14.2727L288.818 13.4546C290.182 12.7727 291.273 11.6818 291.954 10.3182L292.773 8.68185C293.318 7.86367 294.682 7.86367 295.227 8.68185L296.045 10.3182C296.727 11.6818 297.818 12.7727 299.181 13.4546L300.818 14.2727C301.227 14.5455 301.499 14.9546 301.499 15.5C301.499 16.0455 301.227 16.4546 300.818 16.7273L299.318 17.5455C297.954 18.2273 296.863 19.3182 296.181 20.6818L295.363 22.3182C294.954 22.7273 294.545 23 294 23ZM290.727 15.5C292.091 16.3182 293.318 17.5455 294.136 18.9091C294.954 17.5455 296.181 16.3182 297.545 15.5C296.045 14.5455 294.954 13.4546 294 12.0909C293.182 13.4546 292.091 14.5455 290.727 15.5Z" fill="#ECECEC"/>
<g filter="url(#filter0_d_928_56949)">
<rect x="117" y="234" width="99" height="110" rx="12" fill="white"/>
<path fill-rule="evenodd" clip-rule="evenodd" d="M164.416 258.491C165.888 257.836 167.533 257.836 169.005 258.491L169.027 258.502L176.896 262.188C176.906 262.193 176.916 262.197 176.926 262.202C178.689 263.085 179.733 265.025 179.389 267.105C178.734 271.165 176.753 279.169 169.41 285.053L169.396 285.064C167.794 286.312 165.627 286.312 164.024 285.064L164.011 285.053C156.665 279.168 154.685 271.161 154.032 267.102C154.027 267.073 154.023 267.044 154.021 267.015C153.858 265.218 154.658 263.102 156.654 262.187L164.386 258.505C164.396 258.5 164.406 258.496 164.416 258.491ZM165.465 260.811L157.739 264.489L157.719 264.499C156.941 264.853 156.478 265.763 156.552 266.744C157.175 270.577 159.013 277.782 165.595 283.061C166.274 283.586 167.146 283.586 167.826 283.061C174.435 277.761 176.261 270.517 176.876 266.697L176.877 266.691C177.038 265.726 176.566 264.876 175.799 264.485L167.959 260.812C167.154 260.457 166.27 260.457 165.465 260.811Z" fill="url(#paint0_radial_928_56949)"/>
<path fill-rule="evenodd" clip-rule="evenodd" d="M172.58 265.89C173.143 266.311 173.258 267.108 172.837 267.671L167.126 275.308C166.887 275.627 166.511 275.816 166.112 275.818C165.713 275.82 165.336 275.634 165.094 275.316L161.896 271.116C161.47 270.557 161.578 269.759 162.138 269.333C162.697 268.907 163.495 269.015 163.921 269.574L166.098 272.433L170.798 266.147C171.219 265.584 172.017 265.469 172.58 265.89Z" fill="url(#paint1_radial_928_56949)"/>
<path d="M150.542 303.951V303.518C150.542 302.182 150.91 301.145 151.644 300.406C152.378 299.664 153.32 299.293 154.468 299.293C155.62 299.293 156.564 299.664 157.298 300.406C158.033 301.145 158.4 302.182 158.4 303.518V303.951C158.4 305.287 158.033 306.326 157.298 307.068C156.564 307.807 155.62 308.176 154.468 308.176C153.32 308.176 152.378 307.807 151.644 307.068C150.91 306.326 150.542 305.287 150.542 303.951ZM151.72 303.951C151.72 304.967 151.97 305.76 152.47 306.33C152.974 306.896 153.642 307.18 154.474 307.18C155.302 307.18 155.968 306.896 156.472 306.33C156.976 305.76 157.228 304.967 157.228 303.951V303.518C157.228 302.502 156.976 301.711 156.472 301.145C155.968 300.574 155.302 300.289 154.474 300.289C153.642 300.289 152.974 300.574 152.47 301.145C151.97 301.711 151.72 302.502 151.72 303.518V303.951ZM160.345 308V299.469H163.374C164.366 299.469 165.134 299.697 165.677 300.154C166.22 300.611 166.491 301.225 166.491 301.994C166.491 302.764 166.22 303.383 165.677 303.852C165.134 304.32 164.366 304.555 163.374 304.555H161.511V308H160.345ZM161.511 303.605H163.374C164.105 303.605 164.612 303.451 164.898 303.143C165.183 302.83 165.325 302.447 165.325 301.994C165.325 301.541 165.183 301.166 164.898 300.869C164.612 300.568 164.105 300.418 163.374 300.418H161.511V303.605ZM165.636 308L163.398 304.068L164.593 303.922L166.966 308H165.636ZM168.472 308V299.469H169.995L172.766 305.885C172.817 306.002 172.866 306.125 172.913 306.254C172.964 306.379 173.009 306.496 173.048 306.605H173.095C173.13 306.496 173.171 306.379 173.218 306.254C173.265 306.125 173.313 306.002 173.364 305.885L176.118 299.469H177.671V308H176.546V301.73C176.546 301.613 176.548 301.482 176.552 301.338C176.559 301.189 176.571 301.057 176.587 300.939H176.534C176.503 301.057 176.46 301.189 176.405 301.338C176.354 301.482 176.304 301.613 176.253 301.73L173.569 308H172.532L169.831 301.73C169.78 301.613 169.729 301.482 169.679 301.338C169.632 301.189 169.595 301.057 169.567 300.939H169.515C169.526 301.057 169.536 301.189 169.544 301.338C169.556 301.482 169.561 301.613 169.561 301.73V308H168.472ZM179.294 304.824V303.793H182.762V304.824H179.294ZM135.827 320.977V320.789C135.827 319.848 136.11 319.08 136.677 318.486C137.247 317.889 138.03 317.59 139.026 317.59C139.948 317.59 140.647 317.814 141.124 318.264C141.604 318.709 141.845 319.209 141.845 319.764V319.793H140.731V319.758C140.731 319.426 140.597 319.135 140.327 318.885C140.061 318.635 139.628 318.51 139.026 318.51C138.323 318.51 137.806 318.729 137.474 319.166C137.142 319.604 136.976 320.145 136.976 320.789V320.977C136.976 321.621 137.142 322.162 137.474 322.6C137.806 323.033 138.323 323.25 139.026 323.25C139.628 323.25 140.061 323.127 140.327 322.881C140.597 322.635 140.731 322.342 140.731 322.002V321.973H141.845V322.002C141.845 322.553 141.604 323.053 141.124 323.502C140.647 323.951 139.948 324.176 139.026 324.176C138.03 324.176 137.247 323.879 136.677 323.285C136.11 322.688 135.827 321.918 135.827 320.977ZM142.6 318.65V317.766H148.167V318.65H145.946V324H144.821V318.65H142.6ZM149.497 326.438V317.766H150.516L150.569 318.621H150.592C150.78 318.352 151.063 318.123 151.442 317.936C151.821 317.744 152.264 317.648 152.772 317.648C153.647 317.648 154.346 317.945 154.87 318.539C155.397 319.129 155.661 319.879 155.661 320.789V320.977C155.661 321.883 155.397 322.633 154.87 323.227C154.346 323.82 153.647 324.117 152.772 324.117C152.264 324.117 151.833 324.035 151.477 323.871C151.122 323.707 150.836 323.49 150.622 323.221V326.438H149.497ZM150.622 322.084C150.762 322.373 150.995 322.631 151.319 322.857C151.643 323.08 152.038 323.191 152.502 323.191C153.194 323.191 153.7 322.98 154.02 322.559C154.344 322.133 154.506 321.605 154.506 320.977V320.789C154.506 320.156 154.344 319.629 154.02 319.207C153.7 318.785 153.194 318.574 152.502 318.574C152.038 318.574 151.643 318.688 151.319 318.914C150.999 319.137 150.766 319.393 150.622 319.682V322.084ZM156.955 322.166C156.955 321.529 157.229 321.035 157.776 320.684C158.326 320.332 159.039 320.156 159.914 320.156H161.584V319.711C161.584 319.336 161.467 319.037 161.233 318.814C161.002 318.592 160.608 318.48 160.049 318.48C159.494 318.48 159.094 318.576 158.848 318.768C158.602 318.955 158.479 319.182 158.479 319.447V319.477H157.354V319.447C157.354 318.936 157.598 318.498 158.086 318.135C158.574 317.771 159.239 317.59 160.078 317.59C160.914 317.59 161.561 317.77 162.018 318.129C162.479 318.484 162.709 319.012 162.709 319.711V322.594C162.709 322.848 162.731 323.088 162.774 323.314C162.817 323.537 162.877 323.734 162.955 323.906V324H161.871C161.809 323.902 161.752 323.773 161.701 323.613C161.651 323.453 161.619 323.295 161.608 323.139C161.444 323.4 161.17 323.629 160.787 323.824C160.405 324.02 159.914 324.117 159.317 324.117C158.645 324.117 158.082 323.949 157.629 323.613C157.18 323.277 156.955 322.795 156.955 322.166ZM158.08 322.107C158.08 322.459 158.201 322.732 158.444 322.928C158.686 323.123 159.065 323.221 159.58 323.221C160.096 323.221 160.559 323.072 160.969 322.775C161.379 322.479 161.584 322.164 161.584 321.832V320.953H160.043C159.403 320.953 158.914 321.057 158.578 321.264C158.246 321.467 158.08 321.748 158.08 322.107ZM164.016 318.65V317.766H169.582V318.65H167.361V324H166.236V318.65H164.016ZM170.543 320.977V320.789C170.543 319.848 170.828 319.08 171.398 318.486C171.972 317.889 172.73 317.59 173.672 317.59C174.617 317.59 175.344 317.869 175.851 318.428C176.359 318.982 176.613 319.734 176.613 320.684V321.146H171.211V320.25H175.482V320.221C175.482 319.721 175.34 319.311 175.054 318.99C174.769 318.67 174.312 318.51 173.683 318.51C173.023 318.51 172.523 318.729 172.183 319.166C171.844 319.604 171.674 320.145 171.674 320.789V320.977C171.674 321.621 171.851 322.162 172.207 322.6C172.566 323.037 173.119 323.256 173.865 323.256C174.318 323.256 174.709 323.17 175.037 322.998C175.365 322.822 175.629 322.615 175.828 322.377L176.554 322.975C176.336 323.268 175.996 323.541 175.535 323.795C175.078 324.049 174.521 324.176 173.865 324.176C172.791 324.176 171.969 323.879 171.398 323.285C170.828 322.688 170.543 321.918 170.543 320.977ZM178.148 317.766H182.625V318.65H179.273V324H178.148V317.766ZM183.954 324V317.766H185.068V321.738C185.068 321.855 185.066 321.988 185.062 322.137C185.062 322.285 185.06 322.42 185.056 322.541H185.103C185.158 322.436 185.218 322.324 185.284 322.207C185.351 322.09 185.427 321.973 185.513 321.855L188.449 317.766H189.579V324H188.46V320.033C188.46 319.912 188.462 319.777 188.466 319.629C188.47 319.477 188.476 319.34 188.484 319.219H188.419C188.368 319.32 188.31 319.432 188.243 319.553C188.177 319.674 188.103 319.793 188.021 319.91L185.085 324H183.954ZM192.433 324H191.185L193.189 321.34L194.319 321.439L192.433 324ZM195.673 324V321.75H193.915L193.786 321.68C193.021 321.68 192.433 321.508 192.022 321.164C191.612 320.816 191.407 320.35 191.407 319.764C191.407 319.158 191.614 318.674 192.028 318.311C192.442 317.947 193.036 317.766 193.81 317.766H196.804V324H195.673ZM193.815 320.859H195.673V318.65H193.815C193.347 318.65 193.017 318.756 192.825 318.967C192.638 319.178 192.544 319.443 192.544 319.764C192.544 320.088 192.638 320.352 192.825 320.555C193.013 320.758 193.343 320.859 193.815 320.859Z" fill="#04101C"/>
</g>
<g filter="url(#filter1_d_928_56949)">
<rect x="148" y="101" width="68" height="94" rx="12" fill="white"/>
<path d="M192.965 147.6H190C189.506 145.8 187.9 144.6 185.924 144.6C183.576 144.6 181.6 146.52 181.6 148.8C181.6 151.08 183.576 153 185.924 153C187.9 153 189.506 151.8 190 150H192.965C193.706 150 194.2 149.4 194.2 148.8C194.2 148.08 193.706 147.6 192.965 147.6ZM185.924 150.6C184.935 150.6 184.071 149.76 184.071 148.8C184.071 147.84 184.935 147 185.924 147C186.912 147 187.776 147.84 187.776 148.8C187.776 149.76 186.912 150.6 185.924 150.6Z" fill="url(#paint2_radial_928_56949)"/>
<path d="M179.009 147.4H170.191C169.477 147.4 169 148.1 169 148.8C169 149.64 169.596 150.2 170.191 150.2H179.009C179.723 150.2 180.2 149.5 180.2 148.8C180.2 147.96 179.604 147.4 179.009 147.4Z" fill="url(#paint3_radial_928_56949)"/>
<path d="M170.191 130.6H179.009C179.723 130.6 180.2 129.9 180.2 129.2C180.2 128.5 179.604 127.8 179.009 127.8H170.191C169.477 127.8 169 128.5 169 129.2C169 129.9 169.596 130.6 170.191 130.6Z" fill="url(#paint4_radial_928_56949)"/>
<path d="M185.924 133.4C187.9 133.4 189.506 132.2 190 130.4H192.965C193.706 130.4 194.2 129.8 194.2 129.2C194.2 128.6 193.582 128 192.965 128H190C189.506 126.2 187.9 125 185.924 125C183.576 125 181.6 126.92 181.6 129.2C181.6 131.48 183.576 133.4 185.924 133.4ZM185.924 127.4C186.912 127.4 187.776 128.24 187.776 129.2C187.776 130.16 186.912 131 185.924 131C184.935 131 184.071 130.16 184.071 129.2C184.071 128.24 184.935 127.4 185.924 127.4Z" fill="url(#paint5_radial_928_56949)"/>
<path d="M170.235 140.2H173.2C173.694 141.88 175.3 143.2 177.276 143.2C179.624 143.2 181.6 141.28 181.6 139C181.6 136.72 179.624 134.8 177.276 134.8C175.3 134.8 173.694 136 173.2 137.8H170.235C169.494 137.8 169 138.4 169 139C169 139.6 169.618 140.2 170.235 140.2ZM177.276 137.2C178.265 137.2 179.129 138.04 179.129 139C179.129 139.96 178.265 140.8 177.276 140.8C176.288 140.8 175.424 139.96 175.424 139C175.424 138.04 176.288 137.2 177.276 137.2Z" fill="url(#paint6_radial_928_56949)"/>
<path d="M192.996 137.6H184.204C183.482 137.6 183 138.3 183 139C183 139.7 183.602 140.4 184.204 140.4H192.996C193.718 140.4 194.2 139.7 194.2 139C194.2 138.3 193.718 137.6 192.996 137.6Z" fill="url(#paint7_radial_928_56949)"/>
<path d="M168.272 170.951V170.518C168.272 169.182 168.639 168.145 169.373 167.406C170.108 166.664 171.049 166.293 172.198 166.293C173.35 166.293 174.293 166.664 175.028 167.406C175.762 168.145 176.129 169.182 176.129 170.518V170.951C176.129 172.287 175.762 173.326 175.028 174.068C174.293 174.807 173.35 175.176 172.198 175.176C171.049 175.176 170.108 174.807 169.373 174.068C168.639 173.326 168.272 172.287 168.272 170.951ZM169.449 170.951C169.449 171.967 169.699 172.76 170.199 173.33C170.703 173.896 171.371 174.18 172.203 174.18C173.031 174.18 173.698 173.896 174.201 173.33C174.705 172.76 174.957 171.967 174.957 170.951V170.518C174.957 169.502 174.705 168.711 174.201 168.145C173.698 167.574 173.031 167.289 172.203 167.289C171.371 167.289 170.703 167.574 170.199 168.145C169.699 168.711 169.449 169.502 169.449 170.518V170.951ZM178.074 175V166.469H181.104C182.096 166.469 182.863 166.697 183.406 167.154C183.949 167.611 184.221 168.225 184.221 168.994C184.221 169.764 183.949 170.383 183.406 170.852C182.863 171.32 182.096 171.555 181.104 171.555H179.24V175H178.074ZM179.24 170.605H181.104C181.834 170.605 182.342 170.451 182.627 170.143C182.912 169.83 183.055 169.447 183.055 168.994C183.055 168.541 182.912 168.166 182.627 167.869C182.342 167.568 181.834 167.418 181.104 167.418H179.24V170.605ZM183.365 175L181.127 171.068L182.322 170.922L184.695 175H183.365ZM186.201 175V166.469H187.724L190.496 172.885C190.547 173.002 190.595 173.125 190.642 173.254C190.693 173.379 190.738 173.496 190.777 173.605H190.824C190.859 173.496 190.9 173.379 190.947 173.254C190.994 173.125 191.043 173.002 191.094 172.885L193.847 166.469H195.4V175H194.275V168.73C194.275 168.613 194.277 168.482 194.281 168.338C194.289 168.189 194.301 168.057 194.316 167.939H194.263C194.232 168.057 194.189 168.189 194.135 168.338C194.084 168.482 194.033 168.613 193.982 168.73L191.299 175H190.261L187.56 168.73C187.51 168.613 187.459 168.482 187.408 168.338C187.361 168.189 187.324 168.057 187.297 167.939H187.244C187.256 168.057 187.265 168.189 187.273 168.338C187.285 168.482 187.291 168.613 187.291 168.73V175H186.201Z" fill="#04101C"/>
</g>
<rect x="-37.5" y="-31.5" width="67" height="67" rx="11.5" fill="#F9FBFF"/>
<rect x="-37.5" y="-31.5" width="67" height="67" rx="11.5" stroke="#ECECEC"/>
<path d="M0.799999 9.14C0.799999 8.3 0.24 7.74 -0.6 7.74H-14.74C-15.86 7.74 -16.7 6.9 -16.7 5.78V-1.78C-16.7 -2.9 -15.86 -3.74 -14.74 -3.74H-0.6C0.24 -3.74 0.799999 -4.3 0.799999 -5.14C0.799999 -5.98 0.24 -6.54 -0.6 -6.54H-14.74C-17.4 -6.54 -19.5 -4.44 -19.5 -1.78V5.78C-19.5 8.44 -17.4 10.54 -14.74 10.54H-0.6C0.1 10.54 0.799999 9.98 0.799999 9.14Z" fill="#ECECEC"/>
<path d="M6.54 -6.54H5.28V-9.2H7.38C8.22 -9.2 8.78 -9.76 8.78 -10.6C8.78 -11.44 8.22 -12 7.38 -12H0.52C-0.32 -12 -0.879999 -11.44 -0.879999 -10.6C-0.879999 -9.76 -0.32 -9.2 0.52 -9.2H2.62V13.2H0.52C-0.32 13.2 -0.879999 13.76 -0.879999 14.6C-0.879999 15.44 -0.32 16 0.52 16H7.38C8.22 16 8.78 15.44 8.78 14.6C8.78 13.76 8.22 13.2 7.38 13.2H5.28V10.54H6.54C9.2 10.54 11.3 8.44 11.3 5.78V-1.78C11.3 -4.44 9.2 -6.54 6.54 -6.54ZM8.5 5.78C8.5 6.9 7.66 7.74 6.54 7.74H5.28V-3.74H6.54C7.66 -3.74 8.5 -2.9 8.5 -1.78V5.78Z" fill="#ECECEC"/>
<rect x="-55.5" y="383.5" width="67" height="67" rx="11.5" fill="#F9FBFF"/>
<rect x="-55.5" y="383.5" width="67" height="67" rx="11.5" stroke="#ECECEC"/>
<rect x="266.5" y="232.5" width="67" height="67" rx="11.5" fill="#F9FBFF"/>
<rect x="266.5" y="232.5" width="67" height="67" rx="11.5" stroke="#ECECEC"/>
<path fill-rule="evenodd" clip-rule="evenodd" d="M308.03 252.487C309.293 253.178 310.2 254.549 310.2 256.2V270.48C310.2 273.822 306.499 275.802 303.778 273.859C303.748 273.838 303.718 273.814 303.689 273.79L302.196 272.53C302.174 272.512 302.153 272.493 302.133 272.474C300.985 271.381 299.554 270.7 297.982 270.449V275.94C297.982 278.161 296.358 280 294.138 280C291.873 280 290.295 277.972 290.295 275.94V270.183C287.276 269.494 285 266.636 285 263.34C285 261.484 285.655 259.697 287.056 258.413C288.188 257.258 289.741 256.34 291.695 256.34H296.541C298.689 256.21 300.681 255.475 302.185 254.298L303.634 252.939C303.662 252.913 303.691 252.887 303.722 252.863C305.081 251.785 306.746 251.785 308.03 252.487ZM305.5 255.028L304.056 256.382C304.028 256.408 303.999 256.433 303.968 256.457C301.956 258.053 299.366 258.983 296.662 259.138C296.635 259.139 296.609 259.14 296.582 259.14H291.695C290.68 259.14 289.8 259.605 289.034 260.395C289.013 260.417 288.99 260.439 288.967 260.46C288.22 261.134 287.8 262.132 287.8 263.34C287.8 265.711 289.68 267.54 291.695 267.54C292.468 267.54 293.095 268.167 293.095 268.94V275.94C293.095 276.709 293.688 277.2 294.138 277.2C294.634 277.2 295.182 276.799 295.182 275.94V268.94C295.182 268.167 295.809 267.54 296.582 267.54C299.337 267.54 301.988 268.486 304.032 270.416L305.443 271.607C306.251 272.141 307.4 271.6 307.4 270.48V256.2C307.4 255.611 307.085 255.162 306.686 254.943C306.318 254.742 305.895 254.736 305.5 255.028Z" fill="#ECECEC"/>
<path fill-rule="evenodd" clip-rule="evenodd" d="M314.4 259C315.173 259 315.8 259.627 315.8 260.4V266C315.8 266.773 315.173 267.4 314.4 267.4C313.627 267.4 313 266.773 313 266V260.4C313 259.627 313.627 259 314.4 259Z" fill="#ECECEC"/>
<path d="M334 148L384 148" stroke="#ECECEC"/>
<path d="M334 15L384 15" stroke="#ECECEC"/>
<path d="M182 101L182 14.5C182 9.52948 177.97 5.50005 173 5.50005V5.50005" stroke="#ECECEC"/>
<path d="M196 101L196 99.4992C196.001 90.663 203.164 83.4999 212 83.4999L446.999 83.5C455.836 83.5 462.999 90.6635 462.999 99.5L462.999 243.001C462.999 249.628 457.627 255 451 255V255" stroke="#ECECEC"/>
<path d="M53 101L53 18C53 9.16344 45.8366 1.99999 37 1.99999L30 1.99999" stroke="#ECECEC"/>
<path d="M129 454L129 533" stroke="#ECECEC"/>
<path d="M248 451L248 533" stroke="#ECECEC"/>
<path d="M260 450.5L260 512.416C260 519.142 265.582 523.925 273.433 523.925L406.593 523.925C413.26 523.925 418 527.986 418 533.698V533.698" stroke="#ECECEC"/>
<path d="M281 418L347.5 418C356.337 418 363.5 425.163 363.5 434L363.5 481.5C363.5 490.337 370.664 497.5 379.5 497.5L572 497.5C580.837 497.5 588 504.663 588 513.5L588 533" stroke="#ECECEC"/>
<path d="M110 454L110 497.676C110 506.513 102.837 513.676 94 513.676L39 513.676C30.1634 513.676 23 520.84 23 529.676L23 532" stroke="#ECECEC"/>
<path d="M29 -131H71C79.8366 -131 87 -123.837 87 -115L87 101" stroke="#ECECEC"/>
<path d="M334.001 1.49912L349.5 1.49912C358.336 1.49912 365.5 -5.66419 365.5 -14.5007L365.501 -98.9999" stroke="#ECECEC"/>
<path d="M266 148H216" stroke="#ECECEC"/>
<path d="M148 148H105" stroke="#ECECEC"/>
<path d="M148 168H143.837C135.001 168 127.837 175.163 127.837 184V198.5C127.837 207.337 120.674 214.5 111.837 214.5H40C31.1634 214.5 24 221.663 24 230.5V234" stroke="#ECECEC"/>
<path d="M168 195V234" stroke="url(#paint8_linear_928_56949)" stroke-width="2"/>
<path d="M216 160L231.999 160C240.836 160 247.999 167.163 247.999 176L247.999 383" stroke="#ECECEC"/>
<path d="M216 172V172C224.837 172 232 179.163 232 188V348.551C232 357.388 224.837 364.551 216 364.551H146C137.163 364.551 130 371.715 130 380.551V386" stroke="#ECECEC"/>
<path d="M300 113L300 41" stroke="#ECECEC"/>
<path d="M300 181L300 233" stroke="#ECECEC"/>
<rect x="85.5" y="386.5" width="67" height="67" rx="11.5" fill="#F9FBFF"/>
<rect x="85.5" y="386.5" width="67" height="67" rx="11.5" stroke="#ECECEC"/>
<path d="M108.02 434C107.32 434 106.76 433.72 106.2 433.3C105.5 432.6 105.36 431.62 105.64 430.78L107.04 426.44C106.06 424.48 105.5 422.24 105.5 420C105.5 412.3 111.8 406 119.5 406C127.2 406 133.5 412.3 133.5 420C133.5 427.7 127.2 434 119.5 434C117.26 434 115.02 433.44 113.06 432.46L108.72 433.86C108.58 434 108.3 434 108.02 434ZM113.9 429.66C115.58 430.64 117.54 431.2 119.5 431.2C125.66 431.2 130.7 426.16 130.7 420C130.7 413.84 125.66 408.8 119.5 408.8C113.34 408.8 108.3 413.84 108.3 420C108.3 421.96 108.86 423.92 109.84 425.6C109.98 425.88 110.12 426.3 109.98 426.72L108.58 431.06L112.92 429.66C112.92 429.66 113.763 429.592 113.9 429.66Z" fill="#ECECEC"/>
<path d="M119.5 422.24C120.737 422.24 121.74 421.237 121.74 420C121.74 418.763 120.737 417.76 119.5 417.76C118.263 417.76 117.26 418.763 117.26 420C117.26 421.237 118.263 422.24 119.5 422.24Z" fill="#ECECEC"/>
<path d="M112.64 422.24C113.877 422.24 114.88 421.237 114.88 420C114.88 418.763 113.877 417.76 112.64 417.76C111.403 417.76 110.4 418.763 110.4 420C110.4 421.237 111.403 422.24 112.64 422.24Z" fill="#ECECEC"/>
<path d="M126.36 422.24C127.597 422.24 128.6 421.237 128.6 420C128.6 418.763 127.597 417.76 126.36 417.76C125.123 417.76 124.12 418.763 124.12 420C124.12 421.237 125.123 422.24 126.36 422.24Z" fill="#ECECEC"/>
<rect x="213.5" y="383.5" width="67" height="67" rx="11.5" fill="#F9FBFF"/>
<rect x="213.5" y="383.5" width="67" height="67" rx="11.5" stroke="#ECECEC"/>
<path d="M261.061 411.679C258.853 408.703 256.254 405.984 253.266 403.914C251.318 402.49 248.59 402.749 246.771 404.561L242.354 408.961C240.665 410.644 240.405 413.362 241.704 415.303C241.834 415.433 241.964 415.692 242.224 415.821L234.039 423.975C233.39 424.622 233 425.528 233 426.564V430.706C233 431.094 233.13 431.353 233.39 431.612C233.65 431.871 233.909 432 234.299 432H238.456C239.496 432 240.405 431.612 241.055 430.965L249.239 422.81C249.499 422.94 249.629 423.069 249.889 423.199C251.837 424.493 254.566 424.234 256.254 422.552L260.671 418.151C262.23 416.339 262.49 413.621 261.061 411.679ZM258.593 416.339L254.176 420.74C253.266 421.646 251.967 421.775 251.058 421.128C250.538 420.74 250.149 420.481 249.629 420.092C249.109 419.704 248.33 419.704 247.94 420.222L238.976 429.153C238.716 429.411 238.456 429.541 238.197 429.541H235.338V426.693C235.338 426.434 235.468 426.176 235.728 425.917L244.692 416.986C245.212 416.468 245.212 415.821 244.822 415.303C244.562 414.786 244.173 414.268 243.913 413.75C243.263 412.844 243.393 411.55 244.302 410.773L248.719 406.373C249.109 405.855 249.759 405.596 250.408 405.596C250.928 405.596 251.318 405.726 251.707 405.984C254.566 407.926 256.904 410.385 258.853 413.103C259.632 414.139 259.502 415.433 258.593 416.339Z" fill="#ECECEC"/>
<path d="M252.148 410.909C251.593 410.909 251.177 411.192 250.761 411.474C249.928 412.321 249.928 413.593 250.761 414.299C251.177 414.722 251.593 414.864 252.148 414.864C252.703 414.864 253.12 414.722 253.536 414.299C253.952 413.875 254.091 413.451 254.091 412.886C254.091 412.321 253.952 411.898 253.536 411.474C253.258 411.05 252.703 410.909 252.148 410.909Z" fill="#ECECEC"/>
<rect x="37.5" y="101.5" width="67" height="67" rx="11.5" fill="#F9FBFF"/>
<rect x="37.5" y="101.5" width="67" height="67" rx="11.5" stroke="#ECECEC"/>
<path d="M83.8537 122.617C82.0298 120.793 78.9431 120.512 75.2952 121.775C74.0325 122.196 72.7698 122.898 71.507 123.599C66.4561 120.652 61.6858 120.091 59.1604 122.617C56.4946 125.143 57.1961 129.914 60.1425 134.967C57.0558 140.159 56.6349 144.93 59.1604 147.316C60.1425 148.439 61.6858 149 63.5098 149C65.8949 149 68.701 148.018 71.507 146.334C74.3131 148.018 77.1192 149 79.5043 149C81.3282 149 82.7313 148.439 83.8537 147.456C86.3792 144.93 85.8179 140.159 82.8716 135.107C85.9582 129.774 86.3792 125.003 83.8537 122.617ZM76.137 124.441C78.8028 123.459 80.767 123.599 81.8895 124.582C83.1522 125.845 82.8716 128.932 81.1879 132.3C80.2058 131.037 79.2237 129.774 77.961 128.511C76.6982 127.248 75.4355 126.266 74.1728 125.283C74.8743 125.003 75.5758 124.582 76.137 124.441ZM61.1246 145.351C59.8619 144.088 60.1425 141.001 61.8261 137.633C62.8083 138.896 63.7904 140.159 65.0531 141.422C66.3158 142.685 67.5786 143.808 68.8413 144.65C65.3337 146.474 62.3873 146.614 61.1246 145.351ZM81.8895 145.351C80.6267 146.614 77.6804 146.334 74.0325 144.65C75.2952 143.667 76.5579 142.545 77.8207 141.422C78.3819 140.861 78.9431 140.299 79.364 139.738C79.9252 139.177 79.7849 138.335 79.2237 137.773C78.6625 137.212 77.8207 137.352 77.2595 137.914C76.8386 138.475 76.2773 138.896 75.8564 139.457C74.4534 140.861 72.9101 142.124 71.507 143.106C70.104 142.124 68.5607 140.861 67.1576 139.457C60.9843 133.282 59.0201 126.687 61.1246 124.582C61.5455 124.02 62.3873 123.74 63.5098 123.74C64.9128 123.74 66.877 124.301 68.8413 125.283C67.5786 126.266 66.3158 127.388 65.0531 128.511C64.4919 129.213 63.7904 129.914 63.2292 130.616C62.6679 131.177 62.8083 132.019 63.3695 132.581C63.9307 133.142 64.9128 133.002 65.3337 132.44C65.8949 131.739 66.4561 131.177 67.0173 130.616C68.4204 129.213 69.9637 127.95 71.3667 126.967C72.7698 127.95 74.3131 129.213 75.8564 130.616C82.0298 136.651 83.994 143.246 81.8895 145.351Z" fill="#ECECEC"/>
<path d="M71.5 137.24C72.7371 137.24 73.74 136.237 73.74 135C73.74 133.763 72.7371 132.76 71.5 132.76C70.2629 132.76 69.26 133.763 69.26 135C69.26 136.237 70.2629 137.24 71.5 137.24Z" fill="#ECECEC"/>
<rect x="106.5" y="-31.5" width="67" height="67" rx="11.5" fill="#F9FBFF"/>
<rect x="106.5" y="-31.5" width="67" height="67" rx="11.5" stroke="#ECECEC"/>
<path d="M150.732 -11.5672C150.155 -12.1443 149.289 -12.1443 148.713 -11.5672C148.136 -10.99 148.136 -10.1244 148.713 -9.54726C151.309 -6.95025 152.751 -3.48756 152.751 0.263681C152.751 4.01493 151.309 7.47761 148.713 10.0746C146.116 12.6716 142.655 14.1144 138.904 14.1144C135.731 14.1144 132.558 12.9602 130.106 10.9403L131.981 8.9204C134 10.5075 136.452 11.2289 138.76 11.2289C141.645 11.2289 144.385 10.2189 146.549 8.05473C150.876 3.72637 150.876 -3.34328 146.549 -7.52736C142.222 -11.8557 135.154 -11.8557 130.971 -7.52736C127.077 -3.63184 126.644 2.57214 129.962 6.9005L126.933 10.0746C126.356 10.6517 126.356 11.5174 126.933 12.0945C130.106 15.2687 134.289 17 138.76 17C143.232 17 147.414 15.2687 150.588 12.0945C153.761 8.9204 155.492 4.73632 155.492 0.263681C155.636 -4.20896 153.905 -8.39303 150.732 -11.5672ZM133.135 -5.50746C134.722 -7.09453 136.885 -7.9602 138.904 -7.9602C141.068 -7.9602 143.087 -7.09453 144.674 -5.50746C147.847 -2.33333 147.847 2.8607 144.674 6.03483C141.501 9.20896 136.308 9.20896 133.135 6.03483C129.962 2.8607 129.962 -2.33333 133.135 -5.50746Z" fill="#ECECEC"/>
<rect x="-25.5" y="234.5" width="67" height="67" rx="11.5" fill="#F9FBFF"/>
<rect x="-25.5" y="234.5" width="67" height="67" rx="11.5" stroke="#ECECEC"/>
<path fill-rule="evenodd" clip-rule="evenodd" d="M-5.45126 260.284C-7.70837 258.023 -6.08782 254 -2.82129 254H17.8254C21.0919 254 22.7124 258.023 20.4554 260.284C20.454 260.286 20.4527 260.287 20.4513 260.288L12.3012 268.548V275.769C12.3012 276.929 11.7378 278.159 10.6558 278.83L6.65787 281.575L6.64131 281.586C5.75089 282.179 4.72596 282.077 3.98935 281.643C3.26786 281.217 2.7029 280.408 2.7029 279.415V268.548L-5.45126 260.284ZM-3.61997 257.364C-3.76897 257.725 -3.7009 258.075 -3.4686 258.307L-3.46136 258.314L5.09942 266.99C5.35795 267.252 5.5029 267.605 5.5029 267.973V278.972L9.10158 276.501C9.12537 276.484 9.14966 276.469 9.17442 276.454C9.32385 276.365 9.50119 276.103 9.50119 275.769V267.973C9.50119 267.605 9.64614 267.252 9.90467 266.99L18.4727 258.307C18.705 258.075 18.7731 257.725 18.6241 257.364C18.4781 257.01 18.1867 256.8 17.8254 256.8H-2.82129C-3.18265 256.8 -3.47399 257.01 -3.61997 257.364Z" fill="#ECECEC"/>
</g>
<defs>
<filter id="filter0_d_928_56949" x="108" y="226" width="119" height="130" filterUnits="userSpaceOnUse" color-interpolation-filters="sRGB">
<feFlood flood-opacity="0" result="BackgroundImageFix"/>
<feColorMatrix in="SourceAlpha" type="matrix" values="0 0 0 0 0 0 0 0 0 0 0 0 0 0 0 0 0 0 127 0" result="hardAlpha"/>
<feOffset dx="1" dy="2"/>
<feGaussianBlur stdDeviation="5"/>
<feComposite in2="hardAlpha" operator="out"/>
<feColorMatrix type="matrix" values="0 0 0 0 0.00780001 0 0 0 0 0.045344 0 0 0 0 0.0800001 0 0 0 0.04 0"/>
<feBlend mode="normal" in2="BackgroundImageFix" result="effect1_dropShadow_928_56949"/>
<feBlend mode="normal" in="SourceGraphic" in2="effect1_dropShadow_928_56949" result="shape"/>
</filter>
<filter id="filter1_d_928_56949" x="139" y="93" width="88" height="114" filterUnits="userSpaceOnUse" color-interpolation-filters="sRGB">
<feFlood flood-opacity="0" result="BackgroundImageFix"/>
<feColorMatrix in="SourceAlpha" type="matrix" values="0 0 0 0 0 0 0 0 0 0 0 0 0 0 0 0 0 0 127 0" result="hardAlpha"/>
<feOffset dx="1" dy="2"/>
<feGaussianBlur stdDeviation="5"/>
<feComposite in2="hardAlpha" operator="out"/>
<feColorMatrix type="matrix" values="0 0 0 0 0.00780001 0 0 0 0 0.045344 0 0 0 0 0.0800001 0 0 0 0.04 0"/>
<feBlend mode="normal" in2="BackgroundImageFix" result="effect1_dropShadow_928_56949"/>
<feBlend mode="normal" in="SourceGraphic" in2="effect1_dropShadow_928_56949" result="shape"/>
</filter>
<radialGradient id="paint0_radial_928_56949" cx="0" cy="0" r="1" gradientUnits="userSpaceOnUse" gradientTransform="translate(166.727 272) rotate(98.8578) scale(17.7112 16.181)">
<stop offset="0.055" stop-color="#7A73FF"/>
<stop offset="0.65" stop-color="#67DDFA"/>
<stop offset="1" stop-color="#4AFCF1"/>
</radialGradient>
<radialGradient id="paint1_radial_928_56949" cx="0" cy="0" r="1" gradientUnits="userSpaceOnUse" gradientTransform="translate(166.727 272) rotate(98.8578) scale(17.7112 16.181)">
<stop offset="0.055" stop-color="#7A73FF"/>
<stop offset="0.65" stop-color="#67DDFA"/>
<stop offset="1" stop-color="#4AFCF1"/>
</radialGradient>
<radialGradient id="paint2_radial_928_56949" cx="0" cy="0" r="1" gradientUnits="userSpaceOnUse" gradientTransform="translate(181.6 139) rotate(98.7708) scale(17.7071 16.0233)">
<stop offset="0.055" stop-color="#7A73FF"/>
<stop offset="0.65" stop-color="#67DDFA"/>
<stop offset="1" stop-color="#4AFCF1"/>
</radialGradient>
<radialGradient id="paint3_radial_928_56949" cx="0" cy="0" r="1" gradientUnits="userSpaceOnUse" gradientTransform="translate(181.6 139) rotate(98.7708) scale(17.7071 16.0233)">
<stop offset="0.055" stop-color="#7A73FF"/>
<stop offset="0.65" stop-color="#67DDFA"/>
<stop offset="1" stop-color="#4AFCF1"/>
</radialGradient>
<radialGradient id="paint4_radial_928_56949" cx="0" cy="0" r="1" gradientUnits="userSpaceOnUse" gradientTransform="translate(181.6 139) rotate(98.7708) scale(17.7071 16.0233)">
<stop offset="0.055" stop-color="#7A73FF"/>
<stop offset="0.65" stop-color="#67DDFA"/>
<stop offset="1" stop-color="#4AFCF1"/>
</radialGradient>
<radialGradient id="paint5_radial_928_56949" cx="0" cy="0" r="1" gradientUnits="userSpaceOnUse" gradientTransform="translate(181.6 139) rotate(98.7708) scale(17.7071 16.0233)">
<stop offset="0.055" stop-color="#7A73FF"/>
<stop offset="0.65" stop-color="#67DDFA"/>
<stop offset="1" stop-color="#4AFCF1"/>
</radialGradient>
<radialGradient id="paint6_radial_928_56949" cx="0" cy="0" r="1" gradientUnits="userSpaceOnUse" gradientTransform="translate(181.6 139) rotate(98.7708) scale(17.7071 16.0233)">
<stop offset="0.055" stop-color="#7A73FF"/>
<stop offset="0.65" stop-color="#67DDFA"/>
<stop offset="1" stop-color="#4AFCF1"/>
</radialGradient>
<radialGradient id="paint7_radial_928_56949" cx="0" cy="0" r="1" gradientUnits="userSpaceOnUse" gradientTransform="translate(181.6 139) rotate(98.7708) scale(17.7071 16.0233)">
<stop offset="0.055" stop-color="#7A73FF"/>
<stop offset="0.65" stop-color="#67DDFA"/>
<stop offset="1" stop-color="#4AFCF1"/>
</radialGradient>
<linearGradient id="paint8_linear_928_56949" x1="169" y1="255.937" x2="162.241" y2="255.435" gradientUnits="userSpaceOnUse">
<stop offset="0.338542" stop-color="#7A73FF"/>
<stop offset="0.734375" stop-color="#75CDFF"/>
<stop offset="1" stop-color="#4AFCF1"/>
</linearGradient>
<clipPath id="clip0_928_56949">
<rect width="390" height="482" fill="white" transform="translate(-8)"/>
</clipPath>
</defs>
</svg>
