<svg width="380" height="529" viewBox="0 0 380 529" fill="none" xmlns="http://www.w3.org/2000/svg">
<g clip-path="url(#clip0_936_43192)">
<rect x="252.5" y="11.5" width="67" height="67" rx="11.5" fill="#F9FBFF"/>
<rect x="252.5" y="11.5" width="67" height="67" rx="11.5" stroke="#ECECEC"/>
<path fill-rule="evenodd" clip-rule="evenodd" d="M286 61C294.837 61 302 53.8366 302 45C302 39.8664 299.582 35.2975 295.823 32.3697L293.181 30.6982C291.022 29.6117 288.582 29 286 29C277.163 29 270 36.1634 270 45C270 53.8366 277.163 61 286 61ZM293.181 30.6982V38.2921C291.317 36.2021 288.622 34.889 285.625 34.889C279.999 34.889 275.437 39.517 275.437 45.2258C275.437 50.9347 279.999 55.5627 285.625 55.5627C288.622 55.5627 291.317 54.2496 293.181 52.1596L293.107 54.3112C293.097 54.6136 293.339 54.8644 293.642 54.8644H295.358C295.654 54.8644 295.893 54.6239 295.892 54.3279L295.823 32.3697L293.181 30.6982ZM293.606 45.2258C293.606 49.5251 290.166 53.0104 285.922 53.0104C281.679 53.0104 278.239 49.5251 278.239 45.2258C278.239 40.9266 281.679 37.4413 285.922 37.4413C290.166 37.4413 293.606 40.9266 293.606 45.2258Z" fill="#ECECEC"/>
<rect x="23.5" y="-0.5" width="67" height="67" rx="11.5" fill="#F9FBFF"/>
<rect x="23.5" y="-0.5" width="67" height="67" rx="11.5" stroke="#ECECEC"/>
<path d="M69.8537 20.617C68.0298 18.7927 64.9431 18.512 61.2952 19.775C60.0325 20.196 58.7698 20.8977 57.507 21.5994C52.4561 18.6524 47.6858 18.091 45.1604 20.617C42.4946 23.1431 43.1961 27.9145 46.1425 32.9665C43.0558 38.1589 42.6349 42.9303 45.1604 45.316C46.1425 46.4387 47.6858 47 49.5098 47C51.8949 47 54.701 46.0177 57.507 44.3336C60.3131 46.0177 63.1192 47 65.5043 47C67.3282 47 68.7313 46.4387 69.8537 45.4563C72.3792 42.9303 71.8179 38.1589 68.8716 33.1068C71.9582 27.7741 72.3792 23.0027 69.8537 20.617ZM62.137 22.4414C64.8028 21.459 66.767 21.5994 67.8895 22.5817C69.1522 23.8447 68.8716 26.9321 67.1879 30.3001C66.2058 29.0371 65.2237 27.7741 63.961 26.5111C62.6982 25.2481 61.4355 24.2657 60.1728 23.2834C60.8743 23.0027 61.5758 22.5817 62.137 22.4414ZM47.1246 43.3513C45.8619 42.0883 46.1425 39.0009 47.8261 35.6329C48.8083 36.8959 49.7904 38.1589 51.0531 39.4219C52.3158 40.6849 53.5786 41.8076 54.8413 42.6496C51.3337 44.474 48.3873 44.6143 47.1246 43.3513ZM67.8895 43.3513C66.6267 44.6143 63.6804 44.3336 60.0325 42.6496C61.2952 41.6673 62.5579 40.5446 63.8207 39.4219C64.3819 38.8606 64.9431 38.2992 65.364 37.7379C65.9252 37.1766 65.7849 36.3345 65.2237 35.7732C64.6625 35.2119 63.8207 35.3522 63.2595 35.9135C62.8386 36.4749 62.2773 36.8959 61.8564 37.4572C60.4534 38.8606 58.9101 40.1236 57.507 41.1059C56.104 40.1236 54.5607 38.8606 53.1576 37.4572C46.9843 31.2825 45.0201 24.6868 47.1246 22.5817C47.5455 22.0204 48.3873 21.7397 49.5098 21.7397C50.9128 21.7397 52.877 22.3011 54.8413 23.2834C53.5786 24.2657 52.3158 25.3884 51.0531 26.5111C50.4919 27.2128 49.7904 27.9145 49.2292 28.6161C48.6679 29.1775 48.8083 30.0195 49.3695 30.5808C49.9307 31.1422 50.9128 31.0018 51.3337 30.4405C51.8949 29.7388 52.4561 29.1775 53.0173 28.6161C54.4204 27.2128 55.9637 25.9498 57.3667 24.9674C58.7698 25.9498 60.3131 27.2128 61.8564 28.6161C68.0298 34.6505 69.994 41.2463 67.8895 43.3513Z" fill="#ECECEC"/>
<path d="M57.5 35.24C58.7371 35.24 59.74 34.2371 59.74 33C59.74 31.7629 58.7371 30.76 57.5 30.76C56.2629 30.76 55.26 31.7629 55.26 33C55.26 34.2371 56.2629 35.24 57.5 35.24Z" fill="#ECECEC"/>
<rect x="-39.5" y="132.5" width="67" height="67" rx="11.5" fill="#F9FBFF"/>
<rect x="-39.5" y="132.5" width="67" height="67" rx="11.5" stroke="#ECECEC"/>
<path fill-rule="evenodd" clip-rule="evenodd" d="M-19.4513 158.284C-21.7084 156.023 -20.0878 152 -16.8213 152H3.82538C7.09189 152 8.71245 156.023 6.45538 158.284C6.45403 158.286 6.45268 158.287 6.45132 158.288L-1.69881 166.548V173.769C-1.69881 174.929 -2.2622 176.159 -3.3442 176.83L-7.34213 179.575L-7.35869 179.586C-8.24911 180.179 -9.27404 180.077 -10.0107 179.643C-10.7321 179.217 -11.2971 178.408 -11.2971 177.415V166.548L-19.4513 158.284ZM-17.62 155.364C-17.769 155.725 -17.7009 156.075 -17.4686 156.307L-17.4614 156.314L-8.90058 164.99C-8.64205 165.252 -8.4971 165.605 -8.4971 165.973V176.972L-4.89842 174.501C-4.87463 174.484 -4.85034 174.469 -4.82558 174.454C-4.67615 174.365 -4.49881 174.103 -4.49881 173.769V165.973C-4.49881 165.605 -4.35386 165.252 -4.09533 164.99L4.47266 156.307C4.70496 156.075 4.77306 155.725 4.62406 155.364C4.47808 155.01 4.18674 154.8 3.82538 154.8H-16.8213C-17.1826 154.8 -17.474 155.01 -17.62 155.364Z" fill="#ECECEC"/>
<rect x="103.5" y="132.5" width="67" height="67" rx="11.5" fill="#F9FBFF"/>
<rect x="103.5" y="132.5" width="67" height="67" rx="11.5" stroke="#ECECEC"/>
<path fill-rule="evenodd" clip-rule="evenodd" d="M134.916 152.491C136.388 151.836 138.033 151.836 139.505 152.491L139.527 152.502L147.396 156.188C147.406 156.193 147.416 156.197 147.426 156.202C149.189 157.085 150.233 159.025 149.889 161.105C149.234 165.165 147.253 173.169 139.91 179.053L139.896 179.064C138.294 180.312 136.127 180.312 134.524 179.064L134.511 179.053C127.165 173.168 125.185 165.161 124.532 161.102C124.527 161.073 124.523 161.044 124.521 161.015C124.358 159.218 125.158 157.102 127.154 156.187L134.886 152.505C134.896 152.5 134.906 152.496 134.916 152.491ZM135.965 154.811L128.239 158.489L128.219 158.499C127.441 158.853 126.978 159.763 127.052 160.744C127.675 164.577 129.513 171.782 136.095 177.061C136.774 177.586 137.646 177.586 138.326 177.061C144.935 171.761 146.761 164.517 147.376 160.697L147.377 160.691C147.538 159.726 147.066 158.876 146.299 158.485L138.459 154.812C137.654 154.457 136.77 154.457 135.965 154.811Z" fill="#ECECEC"/>
<path fill-rule="evenodd" clip-rule="evenodd" d="M143.08 159.89C143.643 160.311 143.758 161.108 143.337 161.671L137.626 169.308C137.387 169.627 137.011 169.816 136.612 169.818C136.213 169.82 135.836 169.634 135.594 169.316L132.396 165.116C131.97 164.557 132.078 163.759 132.638 163.333C133.197 162.907 133.995 163.015 134.421 163.574L136.598 166.433L141.298 160.147C141.719 159.584 142.517 159.469 143.08 159.89Z" fill="#ECECEC"/>
<g filter="url(#filter0_d_936_43192)">
<rect x="134" y="3" width="68" height="94" rx="12" fill="white"/>
<path d="M178.965 49.6H176C175.506 47.8 173.9 46.6 171.924 46.6C169.576 46.6 167.6 48.52 167.6 50.8C167.6 53.08 169.576 55 171.924 55C173.9 55 175.506 53.8 176 52H178.965C179.706 52 180.2 51.4 180.2 50.8C180.2 50.08 179.706 49.6 178.965 49.6ZM171.924 52.6C170.935 52.6 170.071 51.76 170.071 50.8C170.071 49.84 170.935 49 171.924 49C172.912 49 173.776 49.84 173.776 50.8C173.776 51.76 172.912 52.6 171.924 52.6Z" fill="url(#paint0_radial_936_43192)"/>
<path d="M165.009 49.4H156.191C155.477 49.4 155 50.1 155 50.8C155 51.64 155.596 52.2 156.191 52.2H165.009C165.723 52.2 166.2 51.5 166.2 50.8C166.2 49.96 165.604 49.4 165.009 49.4Z" fill="url(#paint1_radial_936_43192)"/>
<path d="M156.191 32.6H165.009C165.723 32.6 166.2 31.9 166.2 31.2C166.2 30.5 165.604 29.8 165.009 29.8H156.191C155.477 29.8 155 30.5 155 31.2C155 31.9 155.596 32.6 156.191 32.6Z" fill="url(#paint2_radial_936_43192)"/>
<path d="M171.924 35.4C173.9 35.4 175.506 34.2 176 32.4H178.965C179.706 32.4 180.2 31.8 180.2 31.2C180.2 30.6 179.582 30 178.965 30H176C175.506 28.2 173.9 27 171.924 27C169.576 27 167.6 28.92 167.6 31.2C167.6 33.48 169.576 35.4 171.924 35.4ZM171.924 29.4C172.912 29.4 173.776 30.24 173.776 31.2C173.776 32.16 172.912 33 171.924 33C170.935 33 170.071 32.16 170.071 31.2C170.071 30.24 170.935 29.4 171.924 29.4Z" fill="url(#paint3_radial_936_43192)"/>
<path d="M156.235 42.2H159.2C159.694 43.88 161.3 45.2 163.276 45.2C165.624 45.2 167.6 43.28 167.6 41C167.6 38.72 165.624 36.8 163.276 36.8C161.3 36.8 159.694 38 159.2 39.8H156.235C155.494 39.8 155 40.4 155 41C155 41.6 155.618 42.2 156.235 42.2ZM163.276 39.2C164.265 39.2 165.129 40.04 165.129 41C165.129 41.96 164.265 42.8 163.276 42.8C162.288 42.8 161.424 41.96 161.424 41C161.424 40.04 162.288 39.2 163.276 39.2Z" fill="url(#paint4_radial_936_43192)"/>
<path d="M178.996 39.6H170.204C169.482 39.6 169 40.3 169 41C169 41.7 169.602 42.4 170.204 42.4H178.996C179.718 42.4 180.2 41.7 180.2 41C180.2 40.3 179.718 39.6 178.996 39.6Z" fill="url(#paint5_radial_936_43192)"/>
<path d="M154.272 72.9512V72.5176C154.272 71.1816 154.639 70.1445 155.373 69.4062C156.108 68.6641 157.049 68.293 158.198 68.293C159.35 68.293 160.293 68.6641 161.028 69.4062C161.762 70.1445 162.129 71.1816 162.129 72.5176V72.9512C162.129 74.2871 161.762 75.3262 161.028 76.0684C160.293 76.8066 159.35 77.1758 158.198 77.1758C157.049 77.1758 156.108 76.8066 155.373 76.0684C154.639 75.3262 154.272 74.2871 154.272 72.9512ZM155.449 72.9512C155.449 73.9668 155.699 74.7598 156.199 75.3301C156.703 75.8965 157.371 76.1797 158.203 76.1797C159.031 76.1797 159.698 75.8965 160.201 75.3301C160.705 74.7598 160.957 73.9668 160.957 72.9512V72.5176C160.957 71.502 160.705 70.7109 160.201 70.1445C159.698 69.5742 159.031 69.2891 158.203 69.2891C157.371 69.2891 156.703 69.5742 156.199 70.1445C155.699 70.7109 155.449 71.502 155.449 72.5176V72.9512ZM164.074 77V68.4688H167.104C168.096 68.4688 168.863 68.6973 169.406 69.1543C169.949 69.6113 170.221 70.2246 170.221 70.9941C170.221 71.7637 169.949 72.3828 169.406 72.8516C168.863 73.3203 168.096 73.5547 167.104 73.5547H165.24V77H164.074ZM165.24 72.6055H167.104C167.834 72.6055 168.342 72.4512 168.627 72.1426C168.912 71.8301 169.055 71.4473 169.055 70.9941C169.055 70.541 168.912 70.166 168.627 69.8691C168.342 69.5684 167.834 69.418 167.104 69.418H165.24V72.6055ZM169.365 77L167.127 73.0684L168.322 72.9219L170.695 77H169.365ZM172.201 77V68.4688H173.724L176.496 74.8848C176.547 75.002 176.595 75.125 176.642 75.2539C176.693 75.3789 176.738 75.4961 176.777 75.6055H176.824C176.859 75.4961 176.9 75.3789 176.947 75.2539C176.994 75.125 177.043 75.002 177.094 74.8848L179.847 68.4688H181.4V77H180.275V70.7305C180.275 70.6133 180.277 70.4824 180.281 70.3379C180.289 70.1895 180.301 70.0566 180.316 69.9395H180.263C180.232 70.0566 180.189 70.1895 180.135 70.3379C180.084 70.4824 180.033 70.6133 179.982 70.7305L177.299 77H176.261L173.56 70.7305C173.51 70.6133 173.459 70.4824 173.408 70.3379C173.361 70.1895 173.324 70.0566 173.297 69.9395H173.244C173.256 70.0566 173.265 70.1895 173.273 70.3379C173.285 70.4824 173.291 70.6133 173.291 70.7305V77H172.201Z" fill="#04101C"/>
</g>
<rect x="-23.5" y="431.5" width="67" height="67" rx="11.5" fill="#F9FBFF"/>
<rect x="-23.5" y="431.5" width="67" height="67" rx="11.5" stroke="#ECECEC"/>
<path d="M24.6526 461.021C21.7053 458.516 16.8421 455.421 10.2105 455.421C9.47368 455.421 8.73684 455.421 8.29474 455.568C7.41053 455.716 6.82105 456.453 6.96842 457.337C7.11579 458.074 7.85263 458.663 8.58947 458.663C9.03158 458.663 9.62105 458.516 10.2105 458.516C15.9579 458.516 20.2316 461.168 22.7368 463.379C23.1789 463.674 23.4737 464.263 23.4737 465C23.4737 465.737 23.1789 466.179 22.7368 466.621C21.8526 467.358 20.8211 468.095 19.7895 468.684C19.0526 469.126 18.9053 470.011 19.2 470.747C19.4947 471.189 19.9368 471.484 20.5263 471.484C20.8211 471.484 20.9684 471.484 21.2632 471.337C22.4421 470.6 23.6211 469.863 24.6526 468.979C25.8316 467.947 26.4211 466.621 26.4211 465.147C26.4211 463.379 25.8316 462.053 24.6526 461.021Z" fill="#ECECEC"/>
<path d="M-1.28421 451.442C-1.87368 450.853 -2.75789 450.853 -3.34737 451.442C-3.93684 452.032 -3.93684 452.916 -3.34737 453.505L0.778947 457.632C-1.28421 458.811 -3.05263 460.137 -4.23158 461.021C-5.41053 462.053 -6 463.379 -6 465C-6 466.621 -5.41053 467.947 -4.23158 468.832C-1.28421 471.337 3.57895 474.432 10.2105 474.432C12.4211 474.432 14.4842 474.137 16.5474 473.4L21.7053 478.558C22 478.853 22.4421 479 22.7368 479C23.0316 479 23.4737 478.853 23.7684 478.558C24.3579 477.968 24.3579 477.084 23.7684 476.495L-1.28421 451.442ZM10.2105 471.337C4.46316 471.337 0.189474 468.684 -2.31579 466.474C-2.75789 466.179 -3.05263 465.589 -3.05263 465C-3.05263 464.411 -2.75789 463.821 -2.31579 463.379C-1.13684 462.347 0.778947 461.021 3.13684 459.989L6.96842 463.821C6.82105 464.116 6.82105 464.558 6.82105 465C6.82105 466.916 8.29474 468.389 10.2105 468.389C10.6526 468.389 10.9474 468.242 11.3895 468.242L14.1895 471.042C12.8632 471.189 11.5368 471.337 10.2105 471.337Z" fill="#ECECEC"/>
<rect x="369.5" y="281.5" width="67" height="67" rx="11.5" fill="#F9FBFF"/>
<rect x="369.5" y="281.5" width="67" height="67" rx="11.5" stroke="#ECECEC"/>
<g filter="url(#filter1_d_936_43192)">
<rect x="84" y="431" width="75" height="94" rx="12" fill="white"/>
<path d="M129.928 472.134C127.002 472.134 124.495 474.502 124.495 477.567C124.495 480.493 126.863 483 129.928 483C132.853 483 135.361 480.632 135.361 477.567C135.361 474.502 132.993 472.134 129.928 472.134ZM129.928 480.075C128.535 480.075 127.281 478.96 127.281 477.428C127.281 476.035 128.396 474.781 129.928 474.781C131.321 474.781 132.575 475.896 132.575 477.428C132.575 478.96 131.46 480.075 129.928 480.075Z" fill="url(#paint6_radial_936_43192)"/>
<path d="M119.619 466.701C119.759 466.701 120.037 466.701 120.177 466.562L125.749 463.776C126.724 465.03 128.256 465.866 129.928 465.866C132.993 465.726 135.361 463.358 135.361 460.433C135.361 457.507 132.993 455 129.928 455C127.002 455 124.495 457.368 124.495 460.433C124.495 460.711 124.495 460.99 124.634 461.269L118.923 464.055C118.226 464.473 117.948 465.308 118.366 465.866C118.505 466.423 119.062 466.701 119.619 466.701ZM129.928 457.786C131.321 457.786 132.575 458.9 132.575 460.433C132.575 461.826 131.46 463.08 129.928 463.08C128.535 463.08 127.281 461.965 127.281 460.433C127.42 458.9 128.535 457.786 129.928 457.786Z" fill="url(#paint7_radial_936_43192)"/>
<path d="M123.799 473.109L118.087 470.323C118.226 469.905 118.226 469.488 118.226 468.93C118.226 466.005 115.858 463.498 112.794 463.498C109.729 463.498 107.5 466.005 107.5 468.93C107.5 471.856 109.868 474.363 112.933 474.363C114.465 474.363 115.858 473.806 116.833 472.692L122.684 475.617C122.823 475.756 123.102 475.756 123.241 475.756C123.799 475.756 124.216 475.478 124.495 474.92C124.774 474.363 124.495 473.527 123.799 473.109ZM112.933 471.577C111.4 471.577 110.286 470.323 110.286 468.93C110.286 467.537 111.4 466.284 112.933 466.284C114.326 466.284 115.58 467.398 115.58 468.93C115.44 470.323 114.326 471.577 112.933 471.577Z" fill="url(#paint8_radial_936_43192)"/>
<path d="M102.648 502.656V502.586H103.808V502.65C103.808 503.162 104.001 503.545 104.388 503.799C104.779 504.053 105.326 504.18 106.029 504.18C106.728 504.18 107.263 504.051 107.634 503.793C108.009 503.531 108.197 503.188 108.197 502.762C108.197 502.379 108.023 502.074 107.675 501.848C107.331 501.617 106.644 501.371 105.613 501.109C104.57 500.844 103.845 500.531 103.439 500.172C103.036 499.812 102.835 499.299 102.835 498.631C102.835 497.963 103.111 497.406 103.661 496.961C104.216 496.516 104.984 496.293 105.964 496.293C106.941 496.293 107.718 496.531 108.296 497.008C108.874 497.484 109.163 498.076 109.163 498.783V498.848H108.003V498.783C108.003 498.334 107.831 497.973 107.488 497.699C107.148 497.426 106.64 497.289 105.964 497.289C105.288 497.289 104.788 497.406 104.464 497.641C104.144 497.871 103.984 498.186 103.984 498.584C103.984 498.951 104.146 499.242 104.47 499.457C104.798 499.668 105.456 499.896 106.445 500.143C107.48 500.404 108.222 500.729 108.671 501.115C109.12 501.502 109.345 502.049 109.345 502.756C109.345 503.463 109.046 504.043 108.449 504.496C107.855 504.949 107.048 505.176 106.029 505.176C105.005 505.176 104.185 504.951 103.568 504.502C102.954 504.049 102.648 503.434 102.648 502.656ZM111.085 505V496.469H112.609L115.38 502.885C115.431 503.002 115.48 503.125 115.526 503.254C115.577 503.379 115.622 503.496 115.661 503.605H115.708C115.743 503.496 115.784 503.379 115.831 503.254C115.878 503.125 115.927 503.002 115.978 502.885L118.732 496.469H120.284V505H119.159V498.73C119.159 498.613 119.161 498.482 119.165 498.338C119.173 498.189 119.185 498.057 119.2 497.939H119.148C119.116 498.057 119.073 498.189 119.019 498.338C118.968 498.482 118.917 498.613 118.866 498.73L116.183 505H115.146L112.444 498.73C112.394 498.613 112.343 498.482 112.292 498.338C112.245 498.189 112.208 498.057 112.181 497.939H112.128C112.14 498.057 112.15 498.189 112.157 498.338C112.169 498.482 112.175 498.613 112.175 498.73V505H111.085ZM122.552 505V496.469H125.581C126.573 496.469 127.341 496.697 127.884 497.154C128.427 497.611 128.698 498.225 128.698 498.994C128.698 499.764 128.427 500.383 127.884 500.852C127.341 501.32 126.573 501.555 125.581 501.555H123.718V505H122.552ZM123.718 500.605H125.581C126.311 500.605 126.819 500.451 127.104 500.143C127.39 499.83 127.532 499.447 127.532 498.994C127.532 498.541 127.39 498.166 127.104 497.869C126.819 497.568 126.311 497.418 125.581 497.418H123.718V500.605ZM127.843 505L125.604 501.068L126.8 500.922L129.173 505H127.843ZM130.678 505V496.469H132.202L134.973 502.885C135.024 503.002 135.073 503.125 135.12 503.254C135.171 503.379 135.215 503.496 135.255 503.605H135.301C135.337 503.496 135.378 503.379 135.424 503.254C135.471 503.125 135.52 503.002 135.571 502.885L138.325 496.469H139.878V505H138.753V498.73C138.753 498.613 138.755 498.482 138.758 498.338C138.766 498.189 138.778 498.057 138.794 497.939H138.741C138.71 498.057 138.667 498.189 138.612 498.338C138.561 498.482 138.51 498.613 138.46 498.73L135.776 505H134.739L132.038 498.73C131.987 498.613 131.936 498.482 131.885 498.338C131.839 498.189 131.801 498.057 131.774 497.939H131.721C131.733 498.057 131.743 498.189 131.751 498.338C131.762 498.482 131.768 498.613 131.768 498.73V505H130.678Z" fill="#04101C"/>
</g>
<g filter="url(#filter2_d_936_43192)">
<rect x="71" y="284" width="88" height="94" rx="12" fill="white"/>
<path d="M104.02 336C103.32 336 102.76 335.72 102.2 335.3C101.5 334.6 101.36 333.62 101.64 332.78L103.04 328.44C102.06 326.48 101.5 324.24 101.5 322C101.5 314.3 107.8 308 115.5 308C123.2 308 129.5 314.3 129.5 322C129.5 329.7 123.2 336 115.5 336C113.26 336 111.02 335.44 109.06 334.46L104.72 335.86C104.58 336 104.3 336 104.02 336ZM109.9 331.66C111.58 332.64 113.54 333.2 115.5 333.2C121.66 333.2 126.7 328.16 126.7 322C126.7 315.84 121.66 310.8 115.5 310.8C109.34 310.8 104.3 315.84 104.3 322C104.3 323.96 104.86 325.92 105.84 327.6C105.98 327.88 106.12 328.3 105.98 328.72L104.58 333.06L108.92 331.66C108.92 331.66 109.763 331.592 109.9 331.66Z" fill="url(#paint9_radial_936_43192)"/>
<path d="M115.5 324.24C116.737 324.24 117.74 323.237 117.74 322C117.74 320.763 116.737 319.76 115.5 319.76C114.263 319.76 113.26 320.763 113.26 322C113.26 323.237 114.263 324.24 115.5 324.24Z" fill="url(#paint10_radial_936_43192)"/>
<path d="M108.64 324.24C109.877 324.24 110.88 323.237 110.88 322C110.88 320.763 109.877 319.76 108.64 319.76C107.403 319.76 106.4 320.763 106.4 322C106.4 323.237 107.403 324.24 108.64 324.24Z" fill="url(#paint11_radial_936_43192)"/>
<path d="M122.36 324.24C123.597 324.24 124.6 323.237 124.6 322C124.6 320.763 123.597 319.76 122.36 319.76C121.123 319.76 120.12 320.763 120.12 322C120.12 323.237 121.123 324.24 122.36 324.24Z" fill="url(#paint12_radial_936_43192)"/>
<path d="M89.7058 353.951V353.518C89.7058 352.182 90.071 351.145 90.8015 350.406C91.5359 349.664 92.4558 349.293 93.5613 349.293C94.655 349.293 95.5046 349.568 96.1101 350.119C96.7155 350.666 97.0437 351.344 97.0945 352.152L97.1003 352.211H95.9343L95.9284 352.152C95.9011 351.637 95.6921 351.197 95.3015 350.834C94.9148 350.471 94.3347 350.289 93.5613 350.289C92.78 350.289 92.1374 350.566 91.6335 351.121C91.1335 351.672 90.8835 352.471 90.8835 353.518V353.951C90.8835 354.971 91.1335 355.764 91.6335 356.33C92.1374 356.896 92.78 357.18 93.5613 357.18C94.3347 357.18 94.9089 356.994 95.2839 356.623C95.6628 356.248 95.8777 355.812 95.9284 355.316L95.9343 355.258H97.1003L97.0945 355.316C97.0124 356.113 96.6784 356.789 96.0925 357.344C95.5066 357.898 94.6628 358.176 93.5613 358.176C92.4558 358.176 91.5359 357.809 90.8015 357.074C90.071 356.336 89.7058 355.295 89.7058 353.951ZM98.0962 354.977V354.789C98.0962 353.848 98.3911 353.08 98.9809 352.486C99.5747 351.889 100.368 351.59 101.36 351.59C102.348 351.59 103.139 351.889 103.733 352.486C104.327 353.08 104.624 353.848 104.624 354.789V354.977C104.624 355.918 104.327 356.688 103.733 357.285C103.139 357.879 102.348 358.176 101.36 358.176C100.368 358.176 99.5747 357.879 98.9809 357.285C98.3911 356.688 98.0962 355.918 98.0962 354.977ZM99.2446 354.789V354.977C99.2446 355.617 99.4223 356.156 99.7778 356.594C100.133 357.031 100.661 357.25 101.36 357.25C102.059 357.25 102.584 357.031 102.936 356.594C103.291 356.156 103.469 355.617 103.469 354.977V354.789C103.469 354.145 103.291 353.605 102.936 353.172C102.584 352.734 102.059 352.516 101.36 352.516C100.661 352.516 100.133 352.734 99.7778 353.172C99.4223 353.605 99.2446 354.145 99.2446 354.789ZM111.643 359.582V358H106.264V351.766H107.389V357.115H110.612V351.766H111.737V357.115H112.674V359.582H111.643ZM113.564 354.977V354.789C113.564 353.848 113.848 353.08 114.414 352.486C114.984 351.889 115.768 351.59 116.764 351.59C117.686 351.59 118.385 351.814 118.861 352.264C119.342 352.709 119.582 353.209 119.582 353.764V353.793H118.469V353.758C118.469 353.426 118.334 353.135 118.064 352.885C117.799 352.635 117.365 352.51 116.764 352.51C116.061 352.51 115.543 352.729 115.211 353.166C114.879 353.604 114.713 354.145 114.713 354.789V354.977C114.713 355.621 114.879 356.162 115.211 356.6C115.543 357.033 116.061 357.25 116.764 357.25C117.365 357.25 117.799 357.127 118.064 356.881C118.334 356.635 118.469 356.342 118.469 356.002V355.973H119.582V356.002C119.582 356.553 119.342 357.053 118.861 357.502C118.385 357.951 117.686 358.176 116.764 358.176C115.768 358.176 114.984 357.879 114.414 357.285C113.848 356.688 113.564 355.918 113.564 354.977ZM120.66 354.977V354.789C120.66 353.848 120.945 353.08 121.515 352.486C122.09 351.889 122.847 351.59 123.789 351.59C124.734 351.59 125.461 351.869 125.969 352.428C126.476 352.982 126.73 353.734 126.73 354.684V355.146H121.328V354.25H125.599V354.221C125.599 353.721 125.457 353.311 125.172 352.99C124.886 352.67 124.429 352.51 123.801 352.51C123.14 352.51 122.64 352.729 122.301 353.166C121.961 353.604 121.791 354.145 121.791 354.789V354.977C121.791 355.621 121.969 356.162 122.324 356.6C122.683 357.037 123.236 357.256 123.982 357.256C124.435 357.256 124.826 357.17 125.154 356.998C125.482 356.822 125.746 356.615 125.945 356.377L126.672 356.975C126.453 357.268 126.113 357.541 125.652 357.795C125.195 358.049 124.638 358.176 123.982 358.176C122.908 358.176 122.086 357.879 121.515 357.285C120.945 356.688 120.66 355.918 120.66 354.977ZM127.574 352.65V351.766H133.14V352.65H130.919V358H129.794V352.65H127.574ZM134.47 358V351.766H135.583V355.738C135.583 355.855 135.581 355.988 135.577 356.137C135.577 356.285 135.575 356.42 135.572 356.541H135.618C135.673 356.436 135.734 356.324 135.8 356.207C135.866 356.09 135.943 355.973 136.029 355.855L138.964 351.766H140.095V358H138.976V354.033C138.976 353.912 138.978 353.777 138.982 353.629C138.986 353.477 138.991 353.34 138.999 353.219H138.935C138.884 353.32 138.825 353.432 138.759 353.553C138.693 353.674 138.618 353.793 138.536 353.91L135.601 358H134.47Z" fill="#04101C"/>
</g>
<rect x="199.5" y="281.5" width="67" height="67" rx="11.5" fill="#F9FBFF"/>
<rect x="199.5" y="281.5" width="67" height="67" rx="11.5" stroke="#ECECEC"/>
<path d="M247.061 309.679C244.853 306.703 242.254 303.984 239.266 301.914C237.318 300.49 234.59 300.749 232.771 302.561L228.354 306.961C226.665 308.644 226.405 311.362 227.704 313.303C227.834 313.433 227.964 313.692 228.224 313.821L220.039 321.975C219.39 322.622 219 323.528 219 324.564V328.706C219 329.094 219.13 329.353 219.39 329.612C219.65 329.871 219.909 330 220.299 330H224.456C225.496 330 226.405 329.612 227.055 328.965L235.239 320.81C235.499 320.94 235.629 321.069 235.889 321.199C237.837 322.493 240.566 322.234 242.254 320.552L246.671 316.151C248.23 314.339 248.49 311.621 247.061 309.679ZM244.593 314.339L240.176 318.74C239.266 319.646 237.967 319.775 237.058 319.128C236.538 318.74 236.149 318.481 235.629 318.092C235.109 317.704 234.33 317.704 233.94 318.222L224.976 327.153C224.716 327.411 224.456 327.541 224.197 327.541H221.338V324.693C221.338 324.434 221.468 324.176 221.728 323.917L230.692 314.986C231.212 314.468 231.212 313.821 230.822 313.303C230.562 312.786 230.173 312.268 229.913 311.75C229.263 310.844 229.393 309.55 230.302 308.773L234.719 304.373C235.109 303.855 235.759 303.596 236.408 303.596C236.928 303.596 237.318 303.726 237.707 303.984C240.566 305.926 242.904 308.385 244.853 311.103C245.632 312.139 245.502 313.433 244.593 314.339Z" fill="#ECECEC"/>
<path d="M238.148 308.909C237.593 308.909 237.177 309.192 236.761 309.474C235.928 310.321 235.928 311.593 236.761 312.299C237.177 312.722 237.593 312.864 238.148 312.864C238.703 312.864 239.12 312.722 239.536 312.299C239.952 311.875 240.091 311.451 240.091 310.886C240.091 310.321 239.952 309.898 239.536 309.474C239.258 309.05 238.703 308.909 238.148 308.909Z" fill="#ECECEC"/>
<rect x="369.5" y="131.5" width="67" height="67" rx="11.5" fill="#F9FBFF"/>
<rect x="369.5" y="131.5" width="67" height="67" rx="11.5" stroke="#ECECEC"/>
<rect x="252.5" y="130.5" width="67" height="67" rx="11.5" fill="#F9FBFF"/>
<rect x="252.5" y="130.5" width="67" height="67" rx="11.5" stroke="#ECECEC"/>
<path fill-rule="evenodd" clip-rule="evenodd" d="M294.03 150.487C295.293 151.178 296.2 152.549 296.2 154.2V168.48C296.2 171.822 292.499 173.802 289.778 171.859C289.748 171.838 289.718 171.814 289.689 171.79L288.196 170.53C288.174 170.512 288.153 170.493 288.133 170.474C286.985 169.381 285.554 168.7 283.982 168.449V173.94C283.982 176.161 282.358 178 280.138 178C277.873 178 276.295 175.972 276.295 173.94V168.183C273.276 167.494 271 164.636 271 161.34C271 159.484 271.655 157.697 273.056 156.413C274.188 155.258 275.741 154.34 277.695 154.34H282.541C284.689 154.21 286.681 153.475 288.185 152.298L289.634 150.939C289.662 150.913 289.691 150.887 289.722 150.863C291.081 149.785 292.746 149.785 294.03 150.487ZM291.5 153.028L290.056 154.382C290.028 154.408 289.999 154.433 289.968 154.457C287.956 156.053 285.366 156.983 282.662 157.138C282.635 157.139 282.609 157.14 282.582 157.14H277.695C276.68 157.14 275.8 157.605 275.034 158.395C275.013 158.417 274.99 158.439 274.967 158.46C274.22 159.134 273.8 160.132 273.8 161.34C273.8 163.711 275.68 165.54 277.695 165.54C278.468 165.54 279.095 166.167 279.095 166.94V173.94C279.095 174.709 279.688 175.2 280.138 175.2C280.634 175.2 281.182 174.799 281.182 173.94V166.94C281.182 166.167 281.809 165.54 282.582 165.54C285.337 165.54 287.988 166.486 290.032 168.416L291.443 169.607C292.251 170.141 293.4 169.6 293.4 168.48V154.2C293.4 153.611 293.085 153.162 292.686 152.943C292.318 152.742 291.895 152.736 291.5 153.028Z" fill="#ECECEC"/>
<path fill-rule="evenodd" clip-rule="evenodd" d="M300.4 157C301.173 157 301.8 157.627 301.8 158.4V164C301.8 164.773 301.173 165.4 300.4 165.4C299.627 165.4 299 164.773 299 164V158.4C299 157.627 299.627 157 300.4 157Z" fill="#ECECEC"/>
<rect x="199.5" y="431.5" width="67" height="67" rx="11.5" fill="#F9FBFF"/>
<rect x="199.5" y="431.5" width="67" height="67" rx="11.5" stroke="#ECECEC"/>
<path d="M227.726 481C227.274 481 226.822 480.854 226.37 480.708C225.165 480.124 224.562 478.955 224.863 477.787L226.671 469.315H223.959C222.754 469.315 221.699 468.585 221.247 467.562C220.795 466.54 220.945 465.371 221.85 464.641L236.164 449.888C237.068 449.012 238.575 448.72 239.63 449.304C240.835 449.888 241.438 451.057 241.137 452.225L239.329 460.697H242.041C243.246 460.697 244.301 461.427 244.753 462.45C245.205 463.472 245.055 464.641 244.15 465.371L229.836 480.124C229.233 480.708 228.48 481 227.726 481ZM228.48 466.247C228.932 466.247 229.384 466.394 229.685 466.832C229.986 467.27 230.137 467.562 229.986 468L228.028 477.933L242.041 463.472H237.671C237.219 463.472 236.767 463.326 236.466 462.888C236.164 462.596 236.014 462.158 236.164 461.719L238.123 451.787L224.11 466.394L228.48 466.247Z" fill="#ECECEC"/>
<rect x="362.5" y="431.5" width="67" height="67" rx="11.5" fill="#F9FBFF"/>
<rect x="362.5" y="431.5" width="67" height="67" rx="11.5" stroke="#ECECEC"/>
<rect x="370.5" y="11.5" width="67" height="67" rx="11.5" fill="#F9FBFF"/>
<rect x="370.5" y="11.5" width="67" height="67" rx="11.5" stroke="#ECECEC"/>
<path d="M320 46L370 46" stroke="#ECECEC"/>
<path d="M148 3L148 -66.0002" stroke="#ECECEC"/>
<path d="M182 3.99983L182 -2.50086C182.001 -11.3372 189.164 -18.5003 198 -18.5003L432.999 -18.5002C441.836 -18.5002 448.999 -11.3368 448.999 -2.50024L448.999 133C448.999 139.903 443.403 145.5 436.499 145.5V145.5" stroke="#ECECEC"/>
<path d="M115 378L115 431" stroke="url(#paint13_linear_936_43192)" stroke-width="2"/>
<path d="M234 349L234 431" stroke="#ECECEC"/>
<path d="M246 348.801L246 385.843C246 394.915 253.36 402.399 262.283 402.399L387.717 402.399C396.64 402.399 404 409.882 404 418.955L404 431" stroke="#ECECEC"/>
<path d="M267 316L333.5 316C342.337 316 349.5 323.163 349.5 332L349.5 362.5C349.5 371.336 356.664 378.5 365.5 378.5L558 378.5C566.837 378.5 574 385.663 574 394.5L574 431" stroke="#ECECEC"/>
<path d="M96 378L96 396.324C96 405.16 88.8366 412.324 80 412.324L25 412.324C16.1634 412.324 9 419.487 9 428.324L9 431" stroke="#ECECEC"/>
<path d="M252 46L202 46" stroke="#ECECEC"/>
<path d="M134 46L91 46" stroke="#ECECEC"/>
<path d="M134 58H129.837C121.001 58 113.837 65.1634 113.837 74V94.1364C113.837 102.973 106.674 110.136 97.8374 110.136H26C17.1634 110.136 10 117.3 10 126.136V132" stroke="#ECECEC"/>
<path d="M154 71L154 132" stroke="#ECECEC"/>
<path d="M202 52.0003L217.999 52.0003C226.836 52.0003 233.999 59.1638 233.999 68.0003L233.999 281.001" stroke="#ECECEC"/>
<path d="M202 58V58C210.837 58 218 65.1634 218 74V245.349C218 254.185 210.837 261.349 202 261.349H132C123.163 261.349 116 268.512 116 277.349V284" stroke="url(#paint14_linear_936_43192)" stroke-width="2"/>
<path d="M286 11L286 -61" stroke="#ECECEC"/>
<path d="M286 79L286 131" stroke="#ECECEC"/>
</g>
<defs>
<filter id="filter0_d_936_43192" x="125" y="-5" width="88" height="114" filterUnits="userSpaceOnUse" color-interpolation-filters="sRGB">
<feFlood flood-opacity="0" result="BackgroundImageFix"/>
<feColorMatrix in="SourceAlpha" type="matrix" values="0 0 0 0 0 0 0 0 0 0 0 0 0 0 0 0 0 0 127 0" result="hardAlpha"/>
<feOffset dx="1" dy="2"/>
<feGaussianBlur stdDeviation="5"/>
<feComposite in2="hardAlpha" operator="out"/>
<feColorMatrix type="matrix" values="0 0 0 0 0.00780001 0 0 0 0 0.045344 0 0 0 0 0.0800001 0 0 0 0.04 0"/>
<feBlend mode="normal" in2="BackgroundImageFix" result="effect1_dropShadow_936_43192"/>
<feBlend mode="normal" in="SourceGraphic" in2="effect1_dropShadow_936_43192" result="shape"/>
</filter>
<filter id="filter1_d_936_43192" x="75" y="423" width="95" height="114" filterUnits="userSpaceOnUse" color-interpolation-filters="sRGB">
<feFlood flood-opacity="0" result="BackgroundImageFix"/>
<feColorMatrix in="SourceAlpha" type="matrix" values="0 0 0 0 0 0 0 0 0 0 0 0 0 0 0 0 0 0 127 0" result="hardAlpha"/>
<feOffset dx="1" dy="2"/>
<feGaussianBlur stdDeviation="5"/>
<feComposite in2="hardAlpha" operator="out"/>
<feColorMatrix type="matrix" values="0 0 0 0 0.00780001 0 0 0 0 0.045344 0 0 0 0 0.0800001 0 0 0 0.04 0"/>
<feBlend mode="normal" in2="BackgroundImageFix" result="effect1_dropShadow_936_43192"/>
<feBlend mode="normal" in="SourceGraphic" in2="effect1_dropShadow_936_43192" result="shape"/>
</filter>
<filter id="filter2_d_936_43192" x="62" y="276" width="108" height="114" filterUnits="userSpaceOnUse" color-interpolation-filters="sRGB">
<feFlood flood-opacity="0" result="BackgroundImageFix"/>
<feColorMatrix in="SourceAlpha" type="matrix" values="0 0 0 0 0 0 0 0 0 0 0 0 0 0 0 0 0 0 127 0" result="hardAlpha"/>
<feOffset dx="1" dy="2"/>
<feGaussianBlur stdDeviation="5"/>
<feComposite in2="hardAlpha" operator="out"/>
<feColorMatrix type="matrix" values="0 0 0 0 0.00780001 0 0 0 0 0.045344 0 0 0 0 0.0800001 0 0 0 0.04 0"/>
<feBlend mode="normal" in2="BackgroundImageFix" result="effect1_dropShadow_936_43192"/>
<feBlend mode="normal" in="SourceGraphic" in2="effect1_dropShadow_936_43192" result="shape"/>
</filter>
<radialGradient id="paint0_radial_936_43192" cx="0" cy="0" r="1" gradientUnits="userSpaceOnUse" gradientTransform="translate(167.6 41) rotate(98.7708) scale(17.7071 16.0233)">
<stop offset="0.055" stop-color="#7A73FF"/>
<stop offset="0.65" stop-color="#67DDFA"/>
<stop offset="1" stop-color="#4AFCF1"/>
</radialGradient>
<radialGradient id="paint1_radial_936_43192" cx="0" cy="0" r="1" gradientUnits="userSpaceOnUse" gradientTransform="translate(167.6 41) rotate(98.7708) scale(17.7071 16.0233)">
<stop offset="0.055" stop-color="#7A73FF"/>
<stop offset="0.65" stop-color="#67DDFA"/>
<stop offset="1" stop-color="#4AFCF1"/>
</radialGradient>
<radialGradient id="paint2_radial_936_43192" cx="0" cy="0" r="1" gradientUnits="userSpaceOnUse" gradientTransform="translate(167.6 41) rotate(98.7708) scale(17.7071 16.0233)">
<stop offset="0.055" stop-color="#7A73FF"/>
<stop offset="0.65" stop-color="#67DDFA"/>
<stop offset="1" stop-color="#4AFCF1"/>
</radialGradient>
<radialGradient id="paint3_radial_936_43192" cx="0" cy="0" r="1" gradientUnits="userSpaceOnUse" gradientTransform="translate(167.6 41) rotate(98.7708) scale(17.7071 16.0233)">
<stop offset="0.055" stop-color="#7A73FF"/>
<stop offset="0.65" stop-color="#67DDFA"/>
<stop offset="1" stop-color="#4AFCF1"/>
</radialGradient>
<radialGradient id="paint4_radial_936_43192" cx="0" cy="0" r="1" gradientUnits="userSpaceOnUse" gradientTransform="translate(167.6 41) rotate(98.7708) scale(17.7071 16.0233)">
<stop offset="0.055" stop-color="#7A73FF"/>
<stop offset="0.65" stop-color="#67DDFA"/>
<stop offset="1" stop-color="#4AFCF1"/>
</radialGradient>
<radialGradient id="paint5_radial_936_43192" cx="0" cy="0" r="1" gradientUnits="userSpaceOnUse" gradientTransform="translate(167.6 41) rotate(98.7708) scale(17.7071 16.0233)">
<stop offset="0.055" stop-color="#7A73FF"/>
<stop offset="0.65" stop-color="#67DDFA"/>
<stop offset="1" stop-color="#4AFCF1"/>
</radialGradient>
<radialGradient id="paint6_radial_936_43192" cx="0" cy="0" r="1" gradientUnits="userSpaceOnUse" gradientTransform="translate(121.43 469) rotate(99.6801) scale(17.7528 17.6694)">
<stop offset="0.055" stop-color="#7A73FF"/>
<stop offset="0.65" stop-color="#67DDFA"/>
<stop offset="1" stop-color="#4AFCF1"/>
</radialGradient>
<radialGradient id="paint7_radial_936_43192" cx="0" cy="0" r="1" gradientUnits="userSpaceOnUse" gradientTransform="translate(121.43 469) rotate(99.6801) scale(17.7528 17.6694)">
<stop offset="0.055" stop-color="#7A73FF"/>
<stop offset="0.65" stop-color="#67DDFA"/>
<stop offset="1" stop-color="#4AFCF1"/>
</radialGradient>
<radialGradient id="paint8_radial_936_43192" cx="0" cy="0" r="1" gradientUnits="userSpaceOnUse" gradientTransform="translate(121.43 469) rotate(99.6801) scale(17.7528 17.6694)">
<stop offset="0.055" stop-color="#7A73FF"/>
<stop offset="0.65" stop-color="#67DDFA"/>
<stop offset="1" stop-color="#4AFCF1"/>
</radialGradient>
<radialGradient id="paint9_radial_936_43192" cx="0" cy="0" r="1" gradientUnits="userSpaceOnUse" gradientTransform="translate(115.5 322) rotate(99.7276) scale(17.7553)">
<stop offset="0.055" stop-color="#7A73FF"/>
<stop offset="0.65" stop-color="#67DDFA"/>
<stop offset="1" stop-color="#4AFCF1"/>
</radialGradient>
<radialGradient id="paint10_radial_936_43192" cx="0" cy="0" r="1" gradientUnits="userSpaceOnUse" gradientTransform="translate(115.5 322) rotate(99.7276) scale(17.7553)">
<stop offset="0.055" stop-color="#7A73FF"/>
<stop offset="0.65" stop-color="#67DDFA"/>
<stop offset="1" stop-color="#4AFCF1"/>
</radialGradient>
<radialGradient id="paint11_radial_936_43192" cx="0" cy="0" r="1" gradientUnits="userSpaceOnUse" gradientTransform="translate(115.5 322) rotate(99.7276) scale(17.7553)">
<stop offset="0.055" stop-color="#7A73FF"/>
<stop offset="0.65" stop-color="#67DDFA"/>
<stop offset="1" stop-color="#4AFCF1"/>
</radialGradient>
<radialGradient id="paint12_radial_936_43192" cx="0" cy="0" r="1" gradientUnits="userSpaceOnUse" gradientTransform="translate(115.5 322) rotate(99.7276) scale(17.7553)">
<stop offset="0.055" stop-color="#7A73FF"/>
<stop offset="0.65" stop-color="#67DDFA"/>
<stop offset="1" stop-color="#4AFCF1"/>
</radialGradient>
<linearGradient id="paint13_linear_936_43192" x1="116" y1="460.812" x2="109.224" y2="460.442" gradientUnits="userSpaceOnUse">
<stop offset="0.338542" stop-color="#7A73FF"/>
<stop offset="0.734375" stop-color="#75CDFF"/>
<stop offset="1" stop-color="#4AFCF1"/>
</linearGradient>
<linearGradient id="paint14_linear_936_43192" x1="320" y1="411.125" x2="64.2676" y2="76.6281" gradientUnits="userSpaceOnUse">
<stop offset="0.338542" stop-color="#7A73FF"/>
<stop offset="0.734375" stop-color="#75CDFF"/>
<stop offset="1" stop-color="#4AFCF1"/>
</linearGradient>
<clipPath id="clip0_936_43192">
<rect width="788" height="529" fill="white" transform="translate(-207)"/>
</clipPath>
</defs>
</svg>
