<svg width="380" height="482" viewBox="0 0 380 482" fill="none" xmlns="http://www.w3.org/2000/svg">
<g clip-path="url(#clip0_936_43189)">
<rect x="136.5" y="178.5" width="67" height="67" rx="11.5" fill="#F9FBFF"/>
<rect x="136.5" y="178.5" width="67" height="67" rx="11.5" stroke="#ECECEC"/>
<path fill-rule="evenodd" clip-rule="evenodd" d="M170 228C178.837 228 186 220.837 186 212C186 206.866 183.582 202.297 179.823 199.37L177.181 197.698C175.022 196.612 172.582 196 170 196C161.163 196 154 203.163 154 212C154 220.837 161.163 228 170 228ZM177.181 197.698V205.292C175.317 203.202 172.622 201.889 169.625 201.889C163.999 201.889 159.437 206.517 159.437 212.226C159.437 217.935 163.999 222.563 169.625 222.563C172.622 222.563 175.317 221.25 177.181 219.16L177.107 221.311C177.097 221.614 177.339 221.864 177.642 221.864H179.358C179.654 221.864 179.893 221.624 179.892 221.328L179.823 199.37L177.181 197.698ZM177.606 212.226C177.606 216.525 174.166 220.01 169.922 220.01C165.679 220.01 162.239 216.525 162.239 212.226C162.239 207.927 165.679 204.441 169.922 204.441C174.166 204.441 177.606 207.927 177.606 212.226Z" fill="#ECECEC"/>
<rect x="136.5" y="38.5" width="67" height="67" rx="11.5" fill="#F9FBFF"/>
<rect x="136.5" y="38.5" width="67" height="67" rx="11.5" stroke="#ECECEC"/>
<path d="M176.409 78.0454C175.864 78.0454 175.455 77.7727 175.182 77.3636L173.546 74.5C172.864 73 171.501 71.6363 170.001 70.8182L167.137 69.1818C166.728 69.0454 166.455 68.5 166.455 68.0909C166.455 67.5454 166.728 67.1363 167.137 66.8636L170.001 65.2273C171.501 64.4091 172.864 63.1818 173.682 61.5454L175.319 58.6818C175.455 58.2727 176 58 176.409 58C176.955 58 177.364 58.2727 177.637 58.6818L179.273 61.5454C180.091 63.0454 181.455 64.4091 182.955 65.2273L185.818 66.8636C186.227 67.1363 186.5 67.5454 186.5 68.0909C186.5 68.6363 186.227 69.0454 185.818 69.3182L182.955 70.9545C181.455 71.7727 180.091 73.1363 179.273 74.6363L177.637 77.5C177.364 77.7727 176.955 78.0454 176.409 78.0454ZM170.682 68.0909L171.364 68.5C173.41 69.5909 175.046 71.2272 176.137 73.2727L176.546 73.9545L176.955 73.2727C178.046 71.2272 179.682 69.5909 181.727 68.5L182.409 68.0909L181.727 67.6818C179.682 66.5909 178.046 64.9545 176.955 62.9091L176.546 62.2273L176.137 62.9091C175.046 64.9545 173.41 66.5909 171.364 67.6818L170.682 68.0909Z" fill="#ECECEC"/>
<path d="M164 88C163.454 88 163.045 87.7273 162.773 87.3182L161.954 85.6818C161.273 84.3182 160.182 83.2273 158.818 82.5455L157.182 81.7273C156.773 81.4546 156.5 80.9091 156.5 80.5C156.5 79.9546 156.773 79.5455 157.182 79.2727L158.818 78.4546C160.182 77.7727 161.273 76.6818 161.954 75.3182L162.773 73.6818C163.318 72.8637 164.682 72.8637 165.227 73.6818L166.045 75.3182C166.727 76.6818 167.818 77.7727 169.181 78.4546L170.818 79.2727C171.227 79.5455 171.499 79.9546 171.499 80.5C171.499 81.0455 171.227 81.4546 170.818 81.7273L169.318 82.5455C167.954 83.2273 166.863 84.3182 166.181 85.6818L165.363 87.3182C164.954 87.7273 164.545 88 164 88ZM160.727 80.5C162.091 81.3182 163.318 82.5455 164.136 83.9091C164.954 82.5455 166.181 81.3182 167.545 80.5C166.045 79.5455 164.954 78.4546 164 77.0909C163.182 78.4546 162.091 79.5455 160.727 80.5Z" fill="#ECECEC"/>
<rect x="-23.5" y="33.5" width="67" height="67" rx="11.5" fill="#F9FBFF"/>
<rect x="-23.5" y="33.5" width="67" height="67" rx="11.5" stroke="#ECECEC"/>
<path d="M20.7318 53.4328C20.1549 52.8557 19.2895 52.8557 18.7125 53.4328C18.1356 54.01 18.1356 54.8756 18.7125 55.4527C21.3088 58.0498 22.7512 61.5124 22.7512 65.2637C22.7512 69.0149 21.3088 72.4776 18.7125 75.0746C16.1162 77.6716 12.6546 79.1144 8.90439 79.1144C5.73117 79.1144 2.55796 77.9602 0.105927 75.9403L1.98101 73.9204C4.00033 75.5075 6.45236 76.2289 8.76015 76.2289C11.6449 76.2289 14.3854 75.2189 16.549 73.0547C20.8761 68.7264 20.8761 61.6567 16.549 57.4726C12.2218 53.1443 5.15422 53.1443 0.97135 57.4726C-2.92305 61.3682 -3.35576 67.5721 -0.0383101 71.9005L-3.06729 75.0746C-3.64424 75.6517 -3.64424 76.5174 -3.06729 77.0945C0.105927 80.2687 4.2888 82 8.76015 82C13.2315 82 17.4144 80.2687 20.5876 77.0945C23.7608 73.9204 25.4917 69.7363 25.4917 65.2637C25.6359 60.791 23.905 56.607 20.7318 53.4328ZM3.13491 59.4925C4.72151 57.9055 6.88507 57.0398 8.90439 57.0398C11.0679 57.0398 13.0873 57.9055 14.6739 59.4925C17.8471 62.6667 17.8471 67.8607 14.6739 71.0348C11.5007 74.209 6.30812 74.209 3.13491 71.0348C-0.0383101 67.8607 -0.0383101 62.6667 3.13491 59.4925Z" fill="#ECECEC"/>
<rect x="-12.5" y="299.5" width="67" height="67" rx="11.5" fill="#F9FBFF"/>
<rect x="-12.5" y="299.5" width="67" height="67" rx="11.5" stroke="#ECECEC"/>
<path fill-rule="evenodd" clip-rule="evenodd" d="M18.916 319.491C20.3877 318.836 22.033 318.836 23.5047 319.491L23.5271 319.502L31.3957 323.188C31.4058 323.193 31.4158 323.197 31.4257 323.202C33.1885 324.085 34.2332 326.025 33.8887 328.105C33.2345 332.165 31.2534 340.169 23.9099 346.053L23.8963 346.064C22.2941 347.312 20.1266 347.312 18.5245 346.064L18.5107 346.053C11.1654 340.168 9.18523 332.161 8.53152 328.102C8.52686 328.073 8.5232 328.044 8.52054 328.015C8.35751 326.218 9.15847 324.102 11.1537 323.187L18.8864 319.505C18.8962 319.5 18.906 319.496 18.916 319.491ZM19.9648 321.811L12.2389 325.489L12.2191 325.499C11.4407 325.853 10.9776 326.763 11.0522 327.744C11.6749 331.577 13.513 338.782 20.0949 344.061C20.7743 344.586 21.6464 344.586 22.3258 344.061C28.9348 338.761 30.7609 331.517 31.3761 327.697L31.3771 327.691C31.5376 326.726 31.0657 325.876 30.299 325.485L22.4592 321.812C21.6538 321.457 20.7704 321.457 19.9648 321.811Z" fill="#ECECEC"/>
<path fill-rule="evenodd" clip-rule="evenodd" d="M27.0799 326.89C27.6428 327.311 27.7578 328.108 27.3368 328.671L21.6259 336.308C21.3868 336.627 21.0115 336.816 20.6122 336.818C20.2129 336.82 19.836 336.634 19.5941 336.316L16.396 332.116C15.9701 331.557 16.0783 330.759 16.6375 330.333C17.1967 329.907 17.9953 330.015 18.4211 330.574L20.5975 333.433L25.2984 327.147C25.7194 326.584 26.517 326.469 27.0799 326.89Z" fill="#ECECEC"/>
<g filter="url(#filter0_d_936_43189)">
<rect x="18" y="166" width="68" height="94" rx="12" fill="white"/>
<path d="M62.9647 212.6H60C59.5059 210.8 57.9 209.6 55.9235 209.6C53.5765 209.6 51.6 211.52 51.6 213.8C51.6 216.08 53.5765 218 55.9235 218C57.9 218 59.5059 216.8 60 215H62.9647C63.7059 215 64.2 214.4 64.2 213.8C64.2 213.08 63.7059 212.6 62.9647 212.6ZM55.9235 215.6C54.9353 215.6 54.0706 214.76 54.0706 213.8C54.0706 212.84 54.9353 212 55.9235 212C56.9118 212 57.7765 212.84 57.7765 213.8C57.7765 214.76 56.9118 215.6 55.9235 215.6Z" fill="url(#paint0_radial_936_43189)"/>
<path d="M49.0085 212.4H40.1915C39.4766 212.4 39 213.1 39 213.8C39 214.64 39.5957 215.2 40.1915 215.2H49.0085C49.7234 215.2 50.2 214.5 50.2 213.8C50.2 212.96 49.6043 212.4 49.0085 212.4Z" fill="url(#paint1_radial_936_43189)"/>
<path d="M40.1915 195.6H49.0085C49.7234 195.6 50.2 194.9 50.2 194.2C50.2 193.5 49.6043 192.8 49.0085 192.8H40.1915C39.4766 192.8 39 193.5 39 194.2C39 194.9 39.5957 195.6 40.1915 195.6Z" fill="url(#paint2_radial_936_43189)"/>
<path d="M55.9235 198.4C57.9 198.4 59.5059 197.2 60 195.4H62.9647C63.7059 195.4 64.2 194.8 64.2 194.2C64.2 193.6 63.5824 193 62.9647 193H60C59.5059 191.2 57.9 190 55.9235 190C53.5765 190 51.6 191.92 51.6 194.2C51.6 196.48 53.5765 198.4 55.9235 198.4ZM55.9235 192.4C56.9118 192.4 57.7765 193.24 57.7765 194.2C57.7765 195.16 56.9118 196 55.9235 196C54.9353 196 54.0706 195.16 54.0706 194.2C54.0706 193.24 54.9353 192.4 55.9235 192.4Z" fill="url(#paint3_radial_936_43189)"/>
<path d="M40.2353 205.2H43.2C43.6941 206.88 45.3 208.2 47.2765 208.2C49.6235 208.2 51.6 206.28 51.6 204C51.6 201.72 49.6235 199.8 47.2765 199.8C45.3 199.8 43.6941 201 43.2 202.8H40.2353C39.4941 202.8 39 203.4 39 204C39 204.6 39.6176 205.2 40.2353 205.2ZM47.2765 202.2C48.2647 202.2 49.1294 203.04 49.1294 204C49.1294 204.96 48.2647 205.8 47.2765 205.8C46.2882 205.8 45.4235 204.96 45.4235 204C45.4235 203.04 46.2882 202.2 47.2765 202.2Z" fill="url(#paint4_radial_936_43189)"/>
<path d="M62.9957 202.6H54.2043C53.4817 202.6 53 203.3 53 204C53 204.7 53.6022 205.4 54.2043 205.4H62.9957C63.7183 205.4 64.2 204.7 64.2 204C64.2 203.3 63.7183 202.6 62.9957 202.6Z" fill="url(#paint5_radial_936_43189)"/>
<path d="M38.2717 235.951V235.518C38.2717 234.182 38.6389 233.145 39.3733 232.406C40.1077 231.664 41.0491 231.293 42.1975 231.293C43.3498 231.293 44.2932 231.664 45.0276 232.406C45.762 233.145 46.1291 234.182 46.1291 235.518V235.951C46.1291 237.287 45.762 238.326 45.0276 239.068C44.2932 239.807 43.3498 240.176 42.1975 240.176C41.0491 240.176 40.1077 239.807 39.3733 239.068C38.6389 238.326 38.2717 237.287 38.2717 235.951ZM39.4495 235.951C39.4495 236.967 39.6995 237.76 40.1995 238.33C40.7034 238.896 41.3713 239.18 42.2034 239.18C43.0315 239.18 43.6975 238.896 44.2014 238.33C44.7053 237.76 44.9573 236.967 44.9573 235.951V235.518C44.9573 234.502 44.7053 233.711 44.2014 233.145C43.6975 232.574 43.0315 232.289 42.2034 232.289C41.3713 232.289 40.7034 232.574 40.1995 233.145C39.6995 233.711 39.4495 234.502 39.4495 235.518V235.951ZM48.0742 240V231.469H51.1035C52.0957 231.469 52.8633 231.697 53.4062 232.154C53.9492 232.611 54.2207 233.225 54.2207 233.994C54.2207 234.764 53.9492 235.383 53.4062 235.852C52.8633 236.32 52.0957 236.555 51.1035 236.555H49.2402V240H48.0742ZM49.2402 235.605H51.1035C51.834 235.605 52.3418 235.451 52.627 235.143C52.9121 234.83 53.0547 234.447 53.0547 233.994C53.0547 233.541 52.9121 233.166 52.627 232.869C52.3418 232.568 51.834 232.418 51.1035 232.418H49.2402V235.605ZM53.3652 240L51.127 236.068L52.3223 235.922L54.6953 240H53.3652ZM56.2009 240V231.469H57.7244L60.4959 237.885C60.5466 238.002 60.5955 238.125 60.6423 238.254C60.6931 238.379 60.738 238.496 60.7771 238.605H60.824C60.8591 238.496 60.9002 238.379 60.947 238.254C60.9939 238.125 61.0427 238.002 61.0935 237.885L63.8474 231.469H65.4002V240H64.2752V233.73C64.2752 233.613 64.2771 233.482 64.281 233.338C64.2888 233.189 64.3005 233.057 64.3162 232.939H64.2634C64.2322 233.057 64.1892 233.189 64.1345 233.338C64.0837 233.482 64.033 233.613 63.9822 233.73L61.2986 240H60.2615L57.5603 233.73C57.5095 233.613 57.4587 233.482 57.408 233.338C57.3611 233.189 57.324 233.057 57.2966 232.939H57.2439C57.2556 233.057 57.2654 233.189 57.2732 233.338C57.2849 233.482 57.2908 233.613 57.2908 233.73V240H56.2009Z" fill="#04101C"/>
</g>
<rect x="254.5" y="39.5" width="67" height="67" rx="11.5" fill="#F9FBFF"/>
<rect x="254.5" y="39.5" width="67" height="67" rx="11.5" stroke="#ECECEC"/>
<path d="M300.6 61.8H275.4C274.56 61.8 274 61.24 274 60.4C274 59.56 274.56 59 275.4 59H300.6C301.44 59 302 59.56 302 60.4C302 61.24 301.44 61.8 300.6 61.8Z" fill="#ECECEC"/>
<path d="M300.6 78.6H288C287.16 78.6 286.6 78.04 286.6 77.2C286.6 76.36 287.16 75.8 288 75.8H300.6C301.44 75.8 302 76.36 302 77.2C302 78.04 301.44 78.6 300.6 78.6Z" fill="#ECECEC"/>
<path d="M300.6 70.2H288C287.16 70.2 286.6 69.64 286.6 68.8C286.6 67.96 287.16 67.4 288 67.4H300.6C301.44 67.4 302 67.96 302 68.8C302 69.64 301.44 70.2 300.6 70.2Z" fill="#ECECEC"/>
<path d="M300.6 87H275.4C274.56 87 274 86.44 274 85.6C274 84.76 274.56 84.2 275.4 84.2H300.6C301.44 84.2 302 84.76 302 85.6C302 86.44 301.44 87 300.6 87Z" fill="#ECECEC"/>
<path d="M276.52 80.14C276.1 80.14 275.68 80 275.4 79.86C274.56 79.44 274 78.6 274 77.62V68.38C274 67.4 274.56 66.56 275.4 66.14C276.24 65.72 277.22 65.86 278.06 66.42L284.22 71.04C284.78 71.46 285.2 72.16 285.2 73C285.2 73.84 284.78 74.54 284.22 75.1L278.06 79.72C277.64 80 277.08 80.14 276.52 80.14ZM276.8 68.94V77.06L282.26 73L276.8 68.94Z" fill="#ECECEC"/>
<rect x="253.5" y="448.5" width="67" height="67" rx="11.5" fill="#F9FBFF"/>
<rect x="253.5" y="448.5" width="67" height="67" rx="11.5" stroke="#ECECEC"/>
<path fill-rule="evenodd" clip-rule="evenodd" d="M285.758 468.043C292.547 467.477 298.266 472.585 298.409 479.171L298.409 479.199C298.409 481.501 297.688 483.653 296.41 485.5L296.397 485.518L289.937 494.519C289.925 494.536 289.911 494.554 289.898 494.571C288.413 496.429 285.492 496.543 284.066 494.513L277.604 485.51C275.919 483.122 275.034 480.107 275.75 476.916C276.632 472.131 280.804 468.609 285.719 468.047C285.732 468.045 285.745 468.044 285.758 468.043ZM285.989 470.578C282.055 471.036 278.896 473.836 278.249 477.398C278.246 477.416 278.242 477.434 278.238 477.452C277.699 479.827 278.332 482.124 279.681 484.039L286.147 493.047C286.491 493.54 287.35 493.655 287.892 493.003L294.323 484.043C295.318 482.601 295.861 480.958 295.864 479.213C295.746 474.149 291.346 470.142 285.989 470.578Z" fill="#ECECEC"/>
<path fill-rule="evenodd" clip-rule="evenodd" d="M286.955 476.782C285.619 476.782 284.537 477.864 284.537 479.2C284.537 480.536 285.619 481.618 286.955 481.618C288.29 481.618 289.373 480.536 289.373 479.2C289.373 477.864 288.29 476.782 286.955 476.782ZM281.991 479.2C281.991 476.459 284.214 474.236 286.955 474.236C289.696 474.236 291.918 476.459 291.918 479.2C291.918 481.941 289.696 484.164 286.955 484.164C284.214 484.164 281.991 481.941 281.991 479.2Z" fill="#ECECEC"/>
<path fill-rule="evenodd" clip-rule="evenodd" d="M286.955 476.782C285.619 476.782 284.537 477.864 284.537 479.2C284.537 480.536 285.619 481.618 286.955 481.618C288.29 481.618 289.373 480.536 289.373 479.2C289.373 477.864 288.29 476.782 286.955 476.782ZM281.991 479.2C281.991 476.459 284.214 474.236 286.955 474.236C289.696 474.236 291.918 476.459 291.918 479.2C291.918 481.941 289.696 484.164 286.955 484.164C284.214 484.164 281.991 481.941 281.991 479.2Z" fill="#ECECEC"/>
<path fill-rule="evenodd" clip-rule="evenodd" d="M286.955 476.782C285.619 476.782 284.537 477.864 284.537 479.2C284.537 480.536 285.619 481.618 286.955 481.618C288.29 481.618 289.373 480.536 289.373 479.2C289.373 477.864 288.29 476.782 286.955 476.782ZM281.991 479.2C281.991 476.459 284.214 474.236 286.955 474.236C289.696 474.236 291.918 476.459 291.918 479.2C291.918 481.941 289.696 484.164 286.955 484.164C284.214 484.164 281.991 481.941 281.991 479.2Z" fill="#ECECEC"/>
<rect x="368.5" y="448.5" width="67" height="67" rx="11.5" fill="#F9FBFF"/>
<rect x="368.5" y="448.5" width="67" height="67" rx="11.5" stroke="#ECECEC"/>
<rect x="362.5" y="166.5" width="67" height="67" rx="11.5" fill="#F9FBFF"/>
<rect x="362.5" y="166.5" width="67" height="67" rx="11.5" stroke="#ECECEC"/>
<path d="M386.115 194.95C386.115 191.801 388.763 189.315 392.073 189.315C393.065 189.315 393.727 188.652 393.727 187.657C393.727 186.663 393.065 186 392.073 186C386.943 186 382.806 189.978 382.806 194.95V195.945C382.806 197.436 381.813 198.928 380.158 199.425C379.496 199.591 379 200.254 379 200.917C379 201.58 379.496 202.243 380.158 202.575C381.813 203.072 382.806 204.398 382.806 206.055V207.05C382.806 212.022 386.943 216 392.073 216C393.065 216 393.727 215.337 393.727 214.343C393.727 213.348 393.065 212.685 392.073 212.685C388.763 212.685 386.115 210.199 386.115 207.05V205.89C386.115 203.901 385.288 202.077 383.964 200.917C385.288 199.591 386.115 197.768 386.115 195.945V194.95Z" fill="#ECECEC"/>
<path d="M413.842 199.333C412.187 198.833 411.194 197.5 411.194 195.833V195C411.194 190 407.057 186 401.927 186C400.935 186 400.273 186.667 400.273 187.667C400.273 188.667 400.935 189.333 401.927 189.333C405.237 189.333 407.885 191.833 407.885 195V196C407.885 198 408.712 199.833 410.036 201C408.712 202.333 407.885 204.167 407.885 206V207C407.885 210.167 405.237 212.667 401.927 212.667C400.935 212.667 400.273 213.333 400.273 214.333C400.273 215.333 400.935 216 401.927 216C407.057 216 411.194 212 411.194 207V206C411.194 204.5 412.187 203 413.842 202.5C414.504 202.333 415 201.667 415 201C415 200.333 414.504 199.667 413.842 199.333Z" fill="#ECECEC"/>
<rect x="-44.5" y="451.5" width="67" height="67" rx="11.5" fill="#F9FBFF"/>
<rect x="-44.5" y="451.5" width="67" height="67" rx="11.5" stroke="#ECECEC"/>
<path d="M-21.98 499C-22.68 499 -23.24 498.72 -23.8 498.3C-24.5 497.6 -24.64 496.62 -24.36 495.78L-22.96 491.44C-23.94 489.48 -24.5 487.24 -24.5 485C-24.5 477.3 -18.2 471 -10.5 471C-2.8 471 3.5 477.3 3.5 485C3.5 492.7 -2.8 499 -10.5 499C-12.74 499 -14.98 498.44 -16.94 497.46L-21.28 498.86C-21.42 499 -21.7 499 -21.98 499ZM-16.1 494.66C-14.42 495.64 -12.46 496.2 -10.5 496.2C-4.34 496.2 0.699999 491.16 0.699999 485C0.699999 478.84 -4.34 473.8 -10.5 473.8C-16.66 473.8 -21.7 478.84 -21.7 485C-21.7 486.96 -21.14 488.92 -20.16 490.6C-20.02 490.88 -19.88 491.3 -20.02 491.72L-21.42 496.06L-17.08 494.66C-17.08 494.66 -16.2369 494.592 -16.1 494.66Z" fill="#ECECEC"/>
<path d="M-10.5 487.24C-9.26288 487.24 -8.26 486.237 -8.26 485C-8.26 483.763 -9.26288 482.76 -10.5 482.76C-11.7371 482.76 -12.74 483.763 -12.74 485C-12.74 486.237 -11.7371 487.24 -10.5 487.24Z" fill="#ECECEC"/>
<path d="M-17.36 487.24C-16.1229 487.24 -15.12 486.237 -15.12 485C-15.12 483.763 -16.1229 482.76 -17.36 482.76C-18.5971 482.76 -19.6 483.763 -19.6 485C-19.6 486.237 -18.5971 487.24 -17.36 487.24Z" fill="#ECECEC"/>
<path d="M-3.64 487.24C-2.40288 487.24 -1.4 486.237 -1.4 485C-1.4 483.763 -2.40288 482.76 -3.64 482.76C-4.87712 482.76 -5.88 483.763 -5.88 485C-5.88 486.237 -4.87712 487.24 -3.64 487.24Z" fill="#ECECEC"/>
<rect x="83.5" y="448.5" width="67" height="67" rx="11.5" fill="#F9FBFF"/>
<rect x="83.5" y="448.5" width="67" height="67" rx="11.5" stroke="#ECECEC"/>
<path d="M131.061 476.679C128.853 473.703 126.254 470.984 123.266 468.914C121.318 467.49 118.59 467.749 116.771 469.561L112.354 473.961C110.665 475.644 110.405 478.362 111.704 480.303C111.834 480.433 111.964 480.692 112.224 480.821L104.039 488.975C103.39 489.622 103 490.528 103 491.564V495.706C103 496.094 103.13 496.353 103.39 496.612C103.65 496.871 103.909 497 104.299 497H108.456C109.496 497 110.405 496.612 111.055 495.965L119.239 487.81C119.499 487.94 119.629 488.069 119.889 488.199C121.837 489.493 124.566 489.234 126.254 487.552L130.671 483.151C132.23 481.339 132.49 478.621 131.061 476.679ZM128.593 481.339L124.176 485.74C123.266 486.646 121.967 486.775 121.058 486.128C120.538 485.74 120.149 485.481 119.629 485.092C119.109 484.704 118.33 484.704 117.94 485.222L108.976 494.153C108.716 494.411 108.456 494.541 108.197 494.541H105.338V491.693C105.338 491.434 105.468 491.176 105.728 490.917L114.692 481.986C115.212 481.468 115.212 480.821 114.822 480.303C114.562 479.786 114.173 479.268 113.913 478.75C113.263 477.844 113.393 476.55 114.302 475.773L118.719 471.373C119.109 470.855 119.759 470.596 120.408 470.596C120.928 470.596 121.318 470.726 121.707 470.984C124.566 472.926 126.904 475.385 128.853 478.103C129.632 479.139 129.502 480.433 128.593 481.339Z" fill="#ECECEC"/>
<path d="M122.148 475.909C121.593 475.909 121.177 476.192 120.761 476.474C119.928 477.321 119.928 478.593 120.761 479.299C121.177 479.722 121.593 479.864 122.148 479.864C122.703 479.864 123.12 479.722 123.536 479.299C123.952 478.875 124.091 478.451 124.091 477.886C124.091 477.321 123.952 476.898 123.536 476.474C123.258 476.05 122.703 475.909 122.148 475.909Z" fill="#ECECEC"/>
<g filter="url(#filter1_d_936_43189)">
<rect x="253" y="298" width="105" height="110" rx="12" fill="white"/>
<path d="M299.872 333.484C299.304 332.924 298.452 332.924 297.884 333.484C297.316 334.044 297.316 334.884 297.884 335.443L303.706 341.602C303.99 341.882 304.416 342.022 304.7 342.022C305.126 342.022 305.552 341.882 305.694 341.462L319.609 324.246C320.035 323.686 320.035 322.706 319.325 322.287C318.899 321.867 318.047 321.867 317.479 322.566L314.639 326.066C312.083 323.546 308.392 322.007 304.7 322.007C296.89 322.007 290.5 328.305 290.5 336.003C290.5 343.701 296.89 350 304.7 350C312.509 350 318.899 343.701 318.899 336.003C318.899 334.744 318.757 333.484 318.331 332.224C318.047 331.524 317.337 331.104 316.627 331.244C315.917 331.384 315.491 332.224 315.633 332.924C315.917 333.904 316.059 335.024 316.059 336.003C316.059 342.162 310.947 347.201 304.7 347.201C298.452 347.201 293.34 342.162 293.34 336.003C293.34 329.845 298.452 324.806 304.7 324.806C307.824 324.806 310.664 326.066 312.935 328.305L304.7 338.523L299.872 333.484Z" fill="url(#paint6_radial_936_43189)"/>
<path d="M282.031 367.951V367.518C282.031 366.182 282.398 365.145 283.132 364.406C283.867 363.664 284.808 363.293 285.957 363.293C287.109 363.293 288.052 363.664 288.787 364.406C289.521 365.145 289.888 366.182 289.888 367.518V367.951C289.888 369.287 289.521 370.326 288.787 371.068C288.052 371.807 287.109 372.176 285.957 372.176C284.808 372.176 283.867 371.807 283.132 371.068C282.398 370.326 282.031 369.287 282.031 367.951ZM283.209 367.951C283.209 368.967 283.459 369.76 283.959 370.33C284.462 370.896 285.13 371.18 285.962 371.18C286.791 371.18 287.457 370.896 287.961 370.33C288.464 369.76 288.716 368.967 288.716 367.951V367.518C288.716 366.502 288.464 365.711 287.961 365.145C287.457 364.574 286.791 364.289 285.962 364.289C285.13 364.289 284.462 364.574 283.959 365.145C283.459 365.711 283.209 366.502 283.209 367.518V367.951ZM290.767 366.65V365.766H296.333V366.65H294.113V372H292.988V366.65H290.767ZM300.165 372.176C299.157 372.176 298.413 371.963 297.933 371.537C297.456 371.111 297.218 370.607 297.218 370.025V369.996H298.308V370.025C298.308 370.35 298.442 370.635 298.712 370.881C298.985 371.127 299.466 371.25 300.153 371.25C300.743 371.25 301.187 371.154 301.484 370.963C301.78 370.771 301.929 370.508 301.929 370.172C301.929 369.887 301.817 369.666 301.595 369.51C301.376 369.35 301.028 369.27 300.552 369.27H299.169V368.391H300.446C300.888 368.391 301.212 368.311 301.419 368.15C301.626 367.99 301.73 367.77 301.73 367.488C301.73 367.172 301.605 366.93 301.355 366.762C301.109 366.594 300.737 366.51 300.241 366.51C299.616 366.51 299.159 366.629 298.87 366.867C298.581 367.105 298.437 367.396 298.437 367.74V367.77H297.347V367.74C297.347 367.123 297.593 366.611 298.085 366.205C298.577 365.795 299.294 365.59 300.235 365.59C301.091 365.59 301.743 365.75 302.192 366.07C302.642 366.391 302.866 366.832 302.866 367.395C302.866 367.734 302.753 368.029 302.526 368.279C302.304 368.525 301.999 368.691 301.612 368.777V368.795C302.062 368.857 302.415 369.01 302.673 369.252C302.935 369.49 303.066 369.805 303.066 370.195C303.066 370.812 302.802 371.297 302.275 371.648C301.747 372 301.044 372.176 300.165 372.176ZM305.895 365.766V367.893H307.706C308.483 367.893 309.081 368.076 309.499 368.443C309.921 368.807 310.132 369.303 310.132 369.932C310.132 370.557 309.921 371.059 309.499 371.438C309.081 371.812 308.483 372 307.706 372H304.77V365.766H305.895ZM307.7 368.783H305.895V371.115H307.7C308.181 371.115 308.516 371.004 308.708 370.781C308.903 370.559 309.001 370.275 309.001 369.932C309.001 369.596 308.903 369.32 308.708 369.105C308.516 368.891 308.181 368.783 307.7 368.783ZM310.981 372V365.766H312.106V372H310.981ZM314.116 372V365.766H317.239C317.95 365.766 318.505 365.904 318.903 366.182C319.305 366.455 319.506 366.871 319.506 367.43C319.506 367.777 319.403 368.068 319.196 368.303C318.989 368.537 318.712 368.695 318.364 368.777V368.795C318.786 368.857 319.118 369.012 319.36 369.258C319.602 369.5 319.723 369.811 319.723 370.189C319.723 370.76 319.512 371.205 319.09 371.525C318.669 371.842 318.11 372 317.415 372H314.116ZM315.241 368.391H317.239C317.641 368.391 317.93 368.311 318.106 368.15C318.282 367.99 318.37 367.77 318.37 367.488C318.37 367.215 318.282 367.008 318.106 366.867C317.93 366.727 317.641 366.654 317.239 366.65H315.241V368.391ZM315.241 371.115H317.415C317.821 371.115 318.118 371.031 318.305 370.863C318.497 370.695 318.592 370.469 318.592 370.184C318.592 369.906 318.499 369.686 318.311 369.521C318.124 369.354 317.825 369.27 317.415 369.27H315.241V371.115ZM322.559 365.766V367.893H324.37C325.147 367.893 325.745 368.076 326.162 368.443C326.584 368.807 326.795 369.303 326.795 369.932C326.795 370.557 326.584 371.059 326.162 371.438C325.745 371.812 325.147 372 324.37 372H321.434V365.766H322.559ZM324.364 368.783H322.559V371.115H324.364C324.844 371.115 325.18 371.004 325.371 370.781C325.567 370.559 325.664 370.275 325.664 369.932C325.664 369.596 325.567 369.32 325.371 369.105C325.18 368.891 324.844 368.783 324.364 368.783ZM327.645 372V365.766H328.77V372H327.645ZM272.34 388V381.766H273.453V385.738C273.453 385.855 273.451 385.988 273.447 386.137C273.447 386.285 273.445 386.42 273.441 386.541H273.488C273.543 386.436 273.604 386.324 273.67 386.207C273.736 386.09 273.813 385.973 273.899 385.855L276.834 381.766H277.965V388H276.846V384.033C276.846 383.912 276.848 383.777 276.852 383.629C276.856 383.477 276.861 383.34 276.869 383.219H276.805C276.754 383.32 276.695 383.432 276.629 383.553C276.563 383.674 276.488 383.793 276.406 383.91L273.471 388H272.34ZM283.144 390.438V381.766H284.164L284.216 382.621H284.24C284.427 382.352 284.711 382.123 285.089 381.936C285.468 381.744 285.912 381.648 286.42 381.648C287.295 381.648 287.994 381.945 288.517 382.539C289.045 383.129 289.308 383.879 289.308 384.789V384.977C289.308 385.883 289.045 386.633 288.517 387.227C287.994 387.82 287.295 388.117 286.42 388.117C285.912 388.117 285.48 388.035 285.125 387.871C284.769 387.707 284.484 387.49 284.269 387.221V390.438H283.144ZM284.269 386.084C284.41 386.373 284.642 386.631 284.966 386.857C285.291 387.08 285.685 387.191 286.15 387.191C286.841 387.191 287.347 386.98 287.668 386.559C287.992 386.133 288.154 385.605 288.154 384.977V384.789C288.154 384.156 287.992 383.629 287.668 383.207C287.347 382.785 286.841 382.574 286.15 382.574C285.685 382.574 285.291 382.688 284.966 382.914C284.646 383.137 284.414 383.393 284.269 383.682V386.084ZM290.585 384.977V384.789C290.585 383.848 290.87 383.08 291.441 382.486C292.015 381.889 292.773 381.59 293.714 381.59C294.66 381.59 295.386 381.869 295.894 382.428C296.402 382.982 296.656 383.734 296.656 384.684V385.146H291.253V384.25H295.525V384.221C295.525 383.721 295.382 383.311 295.097 382.99C294.812 382.67 294.355 382.51 293.726 382.51C293.066 382.51 292.566 382.729 292.226 383.166C291.886 383.604 291.716 384.145 291.716 384.789V384.977C291.716 385.621 291.894 386.162 292.249 386.6C292.609 387.037 293.161 387.256 293.908 387.256C294.361 387.256 294.751 387.17 295.079 386.998C295.408 386.822 295.671 386.615 295.87 386.377L296.597 386.975C296.378 387.268 296.038 387.541 295.577 387.795C295.12 388.049 294.564 388.176 293.908 388.176C292.833 388.176 292.011 387.879 291.441 387.285C290.87 386.688 290.585 385.918 290.585 384.977ZM298.191 388V381.766H299.304V385.738C299.304 385.855 299.302 385.988 299.298 386.137C299.298 386.285 299.296 386.42 299.292 386.541H299.339C299.394 386.436 299.454 386.324 299.521 386.207C299.587 386.09 299.663 385.973 299.749 385.855L302.685 381.766H303.816V388H302.696V384.033C302.696 383.912 302.698 383.777 302.702 383.629C302.706 383.477 302.712 383.34 302.72 383.219H302.655C302.605 383.32 302.546 383.432 302.48 383.553C302.413 383.674 302.339 383.793 302.257 383.91L299.321 388H298.191ZM301.003 379.867C301.296 379.867 301.536 379.789 301.724 379.633C301.911 379.473 302.071 379.213 302.204 378.854L303.066 379.357C302.87 379.834 302.593 380.184 302.234 380.406C301.874 380.629 301.464 380.74 301.003 380.74C300.538 380.74 300.128 380.631 299.773 380.412C299.417 380.189 299.138 379.838 298.935 379.357L299.802 378.842C299.935 379.213 300.093 379.477 300.276 379.633C300.464 379.789 300.706 379.867 301.003 379.867ZM305.134 382.65V381.766H310.7V382.65H308.479V388H307.354V382.65H305.134ZM312.03 388V381.766H313.143V385.738C313.143 385.855 313.141 385.988 313.137 386.137C313.137 386.285 313.135 386.42 313.131 386.541H313.178C313.233 386.436 313.294 386.324 313.36 386.207C313.426 386.09 313.503 385.973 313.589 385.855L316.524 381.766H317.655V388H316.536V384.033C316.536 383.912 316.538 383.777 316.542 383.629C316.546 383.477 316.551 383.34 316.559 383.219H316.495C316.444 383.32 316.385 383.432 316.319 383.553C316.253 383.674 316.178 383.793 316.096 383.91L313.161 388H312.03ZM319.664 381.766H320.789V384.379H324.094V381.766H325.219V388H324.094V385.27H320.789V388H319.664V381.766ZM327.229 381.766H331.705V382.65H328.354V388H327.229V381.766ZM333.035 388V381.766H334.148V385.738C334.148 385.855 334.146 385.988 334.142 386.137C334.142 386.285 334.141 386.42 334.137 386.541H334.184C334.238 386.436 334.299 386.324 334.365 386.207C334.432 386.09 334.508 385.973 334.594 385.855L337.529 381.766H338.66V388H337.541V384.033C337.541 383.912 337.543 383.777 337.547 383.629C337.551 383.477 337.557 383.34 337.564 383.219H337.5C337.449 383.32 337.391 383.432 337.324 383.553C337.258 383.674 337.184 383.793 337.101 383.91L334.166 388H333.035Z" fill="#04101C"/>
</g>
<rect x="136.5" y="297.5" width="67" height="67" rx="11.5" fill="#F9FBFF"/>
<rect x="136.5" y="297.5" width="67" height="67" rx="11.5" stroke="#ECECEC"/>
<path fill-rule="evenodd" clip-rule="evenodd" d="M178.03 317.487C179.293 318.178 180.2 319.549 180.2 321.2V335.48C180.2 338.822 176.499 340.802 173.778 338.859C173.748 338.838 173.718 338.814 173.689 338.79L172.196 337.53C172.174 337.512 172.153 337.493 172.133 337.474C170.985 336.381 169.554 335.7 167.982 335.449V340.94C167.982 343.161 166.358 345 164.138 345C161.873 345 160.295 342.972 160.295 340.94V335.183C157.276 334.494 155 331.636 155 328.34C155 326.484 155.655 324.697 157.056 323.413C158.188 322.258 159.741 321.34 161.695 321.34H166.541C168.689 321.21 170.681 320.475 172.185 319.298L173.634 317.939C173.662 317.913 173.691 317.887 173.722 317.863C175.081 316.785 176.746 316.785 178.03 317.487ZM175.5 320.028L174.056 321.382C174.028 321.408 173.999 321.433 173.968 321.457C171.956 323.053 169.366 323.983 166.662 324.138C166.635 324.139 166.609 324.14 166.582 324.14H161.695C160.68 324.14 159.8 324.605 159.034 325.395C159.013 325.417 158.99 325.439 158.967 325.46C158.22 326.134 157.8 327.132 157.8 328.34C157.8 330.711 159.68 332.54 161.695 332.54C162.468 332.54 163.095 333.167 163.095 333.94V340.94C163.095 341.709 163.688 342.2 164.138 342.2C164.634 342.2 165.182 341.799 165.182 340.94V333.94C165.182 333.167 165.809 332.54 166.582 332.54C169.337 332.54 171.988 333.486 174.032 335.416L175.443 336.607C176.251 337.141 177.4 336.6 177.4 335.48V321.2C177.4 320.611 177.085 320.162 176.686 319.943C176.318 319.742 175.895 319.736 175.5 320.028Z" fill="#ECECEC"/>
<path fill-rule="evenodd" clip-rule="evenodd" d="M184.4 324C185.173 324 185.8 324.627 185.8 325.4V331C185.8 331.773 185.173 332.4 184.4 332.4C183.627 332.4 183 331.773 183 331V325.4C183 324.627 183.627 324 184.4 324Z" fill="#ECECEC"/>
<rect x="254.5" y="178.5" width="67" height="67" rx="11.5" fill="#F9FBFF"/>
<rect x="254.5" y="178.5" width="67" height="67" rx="11.5" stroke="#ECECEC"/>
<path d="M281.355 200H276.409C273.473 200 271 202.25 271 205.1V210.2C271 213.05 273.473 215.3 276.409 215.3H279.964C280.891 215.3 281.509 214.7 281.509 213.8C281.509 212.9 280.891 212.3 279.964 212.3H276.409C275.173 212.3 274.091 211.4 274.091 210.2V205.1C274.091 203.9 275.173 203 276.409 203H281.355C282.591 203 283.673 203.9 283.673 205.1V217.55C283.673 219.5 282.127 221 280.118 221H277.645C276.718 221 276.1 221.6 276.1 222.5C276.1 223.4 276.718 224 277.645 224H280.118C283.827 224 286.764 221.15 286.764 217.55V205.1C286.764 202.25 284.291 200 281.355 200Z" fill="#ECECEC"/>
<path d="M299.591 200H294.645C291.709 200 289.236 202.25 289.236 205.1V210.2C289.236 213.05 291.709 215.3 294.645 215.3H298.2C299.127 215.3 299.745 214.7 299.745 213.8C299.745 212.9 299.127 212.3 298.2 212.3H294.645C293.409 212.3 292.327 211.4 292.327 210.2V205.1C292.327 203.9 293.409 203 294.645 203H299.591C300.827 203 301.909 203.9 301.909 205.1V217.55C301.909 219.5 300.364 221 298.355 221H295.882C294.955 221 294.336 221.6 294.336 222.5C294.336 223.4 294.955 224 295.882 224H298.355C302.064 224 305 221.15 305 217.55V205.1C305 202.25 302.527 200 299.591 200Z" fill="#ECECEC"/>
<path d="M204 213L254 213" stroke="#ECECEC"/>
<path d="M358 356L399 356" stroke="#ECECEC"/>
<path d="M281 408L281 448" stroke="#ECECEC"/>
<path d="M298 408V412.93C298 421.767 305.163 428.93 314 428.93H387C395.837 428.93 403 436.094 403 444.93V448" stroke="#ECECEC"/>
<path d="M425 99V110.994C425 119.831 417.837 126.994 409 126.994H361C352.163 126.994 345 134.158 345 142.994V298" stroke="#ECECEC"/>
<path d="M358.268 344L381.096 344C387.178 344 391.367 338.802 391.367 331.256L391.367 233" stroke="#ECECEC"/>
<path d="M204 80L254 80" stroke="#ECECEC"/>
<path d="M52 166L52 127" stroke="#ECECEC" stroke-width="2"/>
<path d="M66.0001 166L66.0002 164.499C66.0005 155.663 73.1639 148.5 82.0002 148.5L316.999 148.5C325.836 148.5 332.999 155.664 332.999 164.5L332.999 298" stroke="url(#paint7_linear_936_43189)" stroke-width="2"/>
<path d="M213 483L217.5 483C226.337 483 233.5 490.163 233.5 499L233.5 546.5C233.5 555.336 240.664 562.5 249.5 562.5L442 562.5C450.837 562.5 458 569.663 458 578.5L458 598" stroke="#ECECEC"/>
<path d="M5 33L5 -34" stroke="#ECECEC"/>
<path d="M133 -34V-34C133 -27.3726 127.627 -22 121 -22L35 -22C26.1634 -22 19 -14.8366 19 -6V33" stroke="#ECECEC"/>
<path d="M204.001 66.4991L219.5 66.4991C228.336 66.4991 235.5 59.3358 235.5 50.4993L235.501 -33.9999" stroke="#ECECEC"/>
<path d="M136 213H86" stroke="#ECECEC"/>
<path d="M18 213H-22" stroke="#ECECEC"/>
<path d="M18 233H13.8374C5.00084 233 -2.1626 240.163 -2.1626 249V263.5C-2.1626 272.337 -9.32605 279.5 -18.1626 279.5H-90C-98.8366 279.5 -106 286.663 -106 295.5V299" stroke="#ECECEC" stroke-width="2"/>
<path d="M38 260V299" stroke="#ECECEC" stroke-width="2"/>
<path d="M85.9999 225L101.999 225C110.836 225 117.999 232.163 117.999 241L117.999 448" stroke="#ECECEC"/>
<path d="M86 237V237C94.8366 237 102 244.163 102 253V413.551C102 422.388 94.8366 429.551 86 429.551H16C7.16344 429.551 0 436.715 0 445.551V451" stroke="#ECECEC"/>
<path d="M170 178L170 106" stroke="#ECECEC"/>
<path d="M170 246L170 298" stroke="#ECECEC"/>
</g>
<defs>
<filter id="filter0_d_936_43189" x="9" y="158" width="88" height="114" filterUnits="userSpaceOnUse" color-interpolation-filters="sRGB">
<feFlood flood-opacity="0" result="BackgroundImageFix"/>
<feColorMatrix in="SourceAlpha" type="matrix" values="0 0 0 0 0 0 0 0 0 0 0 0 0 0 0 0 0 0 127 0" result="hardAlpha"/>
<feOffset dx="1" dy="2"/>
<feGaussianBlur stdDeviation="5"/>
<feComposite in2="hardAlpha" operator="out"/>
<feColorMatrix type="matrix" values="0 0 0 0 0.00780001 0 0 0 0 0.045344 0 0 0 0 0.0800001 0 0 0 0.04 0"/>
<feBlend mode="normal" in2="BackgroundImageFix" result="effect1_dropShadow_936_43189"/>
<feBlend mode="normal" in="SourceGraphic" in2="effect1_dropShadow_936_43189" result="shape"/>
</filter>
<filter id="filter1_d_936_43189" x="244" y="290" width="125" height="130" filterUnits="userSpaceOnUse" color-interpolation-filters="sRGB">
<feFlood flood-opacity="0" result="BackgroundImageFix"/>
<feColorMatrix in="SourceAlpha" type="matrix" values="0 0 0 0 0 0 0 0 0 0 0 0 0 0 0 0 0 0 127 0" result="hardAlpha"/>
<feOffset dx="1" dy="2"/>
<feGaussianBlur stdDeviation="5"/>
<feComposite in2="hardAlpha" operator="out"/>
<feColorMatrix type="matrix" values="0 0 0 0 0.00780001 0 0 0 0 0.045344 0 0 0 0 0.0800001 0 0 0 0.04 0"/>
<feBlend mode="normal" in2="BackgroundImageFix" result="effect1_dropShadow_936_43189"/>
<feBlend mode="normal" in="SourceGraphic" in2="effect1_dropShadow_936_43189" result="shape"/>
</filter>
<radialGradient id="paint0_radial_936_43189" cx="0" cy="0" r="1" gradientUnits="userSpaceOnUse" gradientTransform="translate(51.6 204) rotate(98.7708) scale(17.7071 16.0233)">
<stop offset="0.055" stop-color="#7A73FF"/>
<stop offset="0.65" stop-color="#67DDFA"/>
<stop offset="1" stop-color="#4AFCF1"/>
</radialGradient>
<radialGradient id="paint1_radial_936_43189" cx="0" cy="0" r="1" gradientUnits="userSpaceOnUse" gradientTransform="translate(51.6 204) rotate(98.7708) scale(17.7071 16.0233)">
<stop offset="0.055" stop-color="#7A73FF"/>
<stop offset="0.65" stop-color="#67DDFA"/>
<stop offset="1" stop-color="#4AFCF1"/>
</radialGradient>
<radialGradient id="paint2_radial_936_43189" cx="0" cy="0" r="1" gradientUnits="userSpaceOnUse" gradientTransform="translate(51.6 204) rotate(98.7708) scale(17.7071 16.0233)">
<stop offset="0.055" stop-color="#7A73FF"/>
<stop offset="0.65" stop-color="#67DDFA"/>
<stop offset="1" stop-color="#4AFCF1"/>
</radialGradient>
<radialGradient id="paint3_radial_936_43189" cx="0" cy="0" r="1" gradientUnits="userSpaceOnUse" gradientTransform="translate(51.6 204) rotate(98.7708) scale(17.7071 16.0233)">
<stop offset="0.055" stop-color="#7A73FF"/>
<stop offset="0.65" stop-color="#67DDFA"/>
<stop offset="1" stop-color="#4AFCF1"/>
</radialGradient>
<radialGradient id="paint4_radial_936_43189" cx="0" cy="0" r="1" gradientUnits="userSpaceOnUse" gradientTransform="translate(51.6 204) rotate(98.7708) scale(17.7071 16.0233)">
<stop offset="0.055" stop-color="#7A73FF"/>
<stop offset="0.65" stop-color="#67DDFA"/>
<stop offset="1" stop-color="#4AFCF1"/>
</radialGradient>
<radialGradient id="paint5_radial_936_43189" cx="0" cy="0" r="1" gradientUnits="userSpaceOnUse" gradientTransform="translate(51.6 204) rotate(98.7708) scale(17.7071 16.0233)">
<stop offset="0.055" stop-color="#7A73FF"/>
<stop offset="0.65" stop-color="#67DDFA"/>
<stop offset="1" stop-color="#4AFCF1"/>
</radialGradient>
<radialGradient id="paint6_radial_936_43189" cx="0" cy="0" r="1" gradientUnits="userSpaceOnUse" gradientTransform="translate(305.2 336) rotate(100.204) scale(17.7812 18.6158)">
<stop offset="0.055" stop-color="#7A73FF"/>
<stop offset="0.65" stop-color="#67DDFA"/>
<stop offset="1" stop-color="#4AFCF1"/>
</radialGradient>
<linearGradient id="paint7_linear_936_43189" x1="605.892" y1="133.914" x2="54.7148" y2="249.929" gradientUnits="userSpaceOnUse">
<stop offset="0.338542" stop-color="#7A73FF"/>
<stop offset="0.734375" stop-color="#75CDFF"/>
<stop offset="1" stop-color="#4AFCF1"/>
</linearGradient>
<clipPath id="clip0_936_43189">
<rect width="788" height="482" fill="white" transform="translate(-207)"/>
</clipPath>
</defs>
</svg>
