<svg width="342" height="477" viewBox="0 0 342 477" fill="none" xmlns="http://www.w3.org/2000/svg">
<rect x="228.5" y="314.5" width="67" height="67" rx="11.5" fill="#F9FBFF"/>
<rect x="228.5" y="314.5" width="67" height="67" rx="11.5" stroke="#ECECEC"/>
<path fill-rule="evenodd" clip-rule="evenodd" d="M262 364C270.837 364 278 356.837 278 348C278 342.866 275.582 338.297 271.823 335.37L269.181 333.698C267.022 332.612 264.582 332 262 332C253.163 332 246 339.163 246 348C246 356.837 253.163 364 262 364ZM269.181 333.698V341.292C267.317 339.202 264.622 337.889 261.625 337.889C255.999 337.889 251.437 342.517 251.437 348.226C251.437 353.935 255.999 358.563 261.625 358.563C264.622 358.563 267.317 357.25 269.181 355.16L269.107 357.311C269.097 357.614 269.339 357.864 269.642 357.864H271.358C271.654 357.864 271.893 357.624 271.892 357.328L271.823 335.37L269.181 333.698ZM269.606 348.226C269.606 352.525 266.166 356.01 261.922 356.01C257.679 356.01 254.239 352.525 254.239 348.226C254.239 343.927 257.679 340.441 261.922 340.441C266.166 340.441 269.606 343.927 269.606 348.226Z" fill="#ECECEC"/>
<rect x="228.5" y="174.5" width="67" height="67" rx="11.5" fill="#F9FBFF"/>
<rect x="228.5" y="174.5" width="67" height="67" rx="11.5" stroke="#ECECEC"/>
<path d="M268.409 214.045C267.864 214.045 267.455 213.773 267.182 213.364L265.546 210.5C264.864 209 263.501 207.636 262.001 206.818L259.137 205.182C258.728 205.045 258.455 204.5 258.455 204.091C258.455 203.545 258.728 203.136 259.137 202.864L262.001 201.227C263.501 200.409 264.864 199.182 265.682 197.545L267.319 194.682C267.455 194.273 268 194 268.409 194C268.955 194 269.364 194.273 269.637 194.682L271.273 197.545C272.091 199.045 273.455 200.409 274.955 201.227L277.818 202.864C278.227 203.136 278.5 203.545 278.5 204.091C278.5 204.636 278.227 205.045 277.818 205.318L274.955 206.955C273.455 207.773 272.091 209.136 271.273 210.636L269.637 213.5C269.364 213.773 268.955 214.045 268.409 214.045ZM262.682 204.091L263.364 204.5C265.41 205.591 267.046 207.227 268.137 209.273L268.546 209.955L268.955 209.273C270.046 207.227 271.682 205.591 273.727 204.5L274.409 204.091L273.727 203.682C271.682 202.591 270.046 200.955 268.955 198.909L268.546 198.227L268.137 198.909C267.046 200.955 265.41 202.591 263.364 203.682L262.682 204.091Z" fill="#ECECEC"/>
<path d="M256 224C255.454 224 255.045 223.727 254.773 223.318L253.954 221.682C253.273 220.318 252.182 219.227 250.818 218.545L249.182 217.727C248.773 217.455 248.5 216.909 248.5 216.5C248.5 215.955 248.773 215.545 249.182 215.273L250.818 214.455C252.182 213.773 253.273 212.682 253.954 211.318L254.773 209.682C255.318 208.864 256.682 208.864 257.227 209.682L258.045 211.318C258.727 212.682 259.818 213.773 261.181 214.455L262.818 215.273C263.227 215.545 263.499 215.955 263.499 216.5C263.499 217.045 263.227 217.455 262.818 217.727L261.318 218.545C259.954 219.227 258.863 220.318 258.181 221.682L257.363 223.318C256.954 223.727 256.545 224 256 224ZM252.727 216.5C254.091 217.318 255.318 218.545 256.136 219.909C256.954 218.545 258.181 217.318 259.545 216.5C258.045 215.545 256.954 214.455 256 213.091C255.182 214.455 254.091 215.545 252.727 216.5Z" fill="#ECECEC"/>
<rect x="-0.5" y="302.5" width="67" height="67" rx="11.5" fill="#F9FBFF"/>
<rect x="-0.5" y="302.5" width="67" height="67" rx="11.5" stroke="#ECECEC"/>
<path d="M45.8537 323.617C44.0298 321.793 40.9431 321.512 37.2952 322.775C36.0325 323.196 34.7698 323.898 33.507 324.599C28.4561 321.652 23.6858 321.091 21.1604 323.617C18.4946 326.143 19.1961 330.914 22.1425 335.967C19.0558 341.159 18.6349 345.93 21.1604 348.316C22.1425 349.439 23.6858 350 25.5098 350C27.8949 350 30.701 349.018 33.507 347.334C36.3131 349.018 39.1192 350 41.5043 350C43.3282 350 44.7313 349.439 45.8537 348.456C48.3792 345.93 47.8179 341.159 44.8716 336.107C47.9582 330.774 48.3792 326.003 45.8537 323.617ZM38.137 325.441C40.8028 324.459 42.767 324.599 43.8895 325.582C45.1522 326.845 44.8716 329.932 43.1879 333.3C42.2058 332.037 41.2237 330.774 39.961 329.511C38.6982 328.248 37.4355 327.266 36.1728 326.283C36.8743 326.003 37.5758 325.582 38.137 325.441ZM23.1246 346.351C21.8619 345.088 22.1425 342.001 23.8261 338.633C24.8083 339.896 25.7904 341.159 27.0531 342.422C28.3158 343.685 29.5786 344.808 30.8413 345.65C27.3337 347.474 24.3873 347.614 23.1246 346.351ZM43.8895 346.351C42.6267 347.614 39.6804 347.334 36.0325 345.65C37.2952 344.667 38.5579 343.545 39.8207 342.422C40.3819 341.861 40.9431 341.299 41.364 340.738C41.9252 340.177 41.7849 339.335 41.2237 338.773C40.6625 338.212 39.8207 338.352 39.2595 338.914C38.8386 339.475 38.2773 339.896 37.8564 340.457C36.4534 341.861 34.9101 343.124 33.507 344.106C32.104 343.124 30.5607 341.861 29.1576 340.457C22.9843 334.282 21.0201 327.687 23.1246 325.582C23.5455 325.02 24.3873 324.74 25.5098 324.74C26.9128 324.74 28.877 325.301 30.8413 326.283C29.5786 327.266 28.3158 328.388 27.0531 329.511C26.4919 330.213 25.7904 330.914 25.2292 331.616C24.6679 332.177 24.8083 333.019 25.3695 333.581C25.9307 334.142 26.9128 334.002 27.3337 333.44C27.8949 332.739 28.4561 332.177 29.0173 331.616C30.4204 330.213 31.9637 328.95 33.3667 327.967C34.7698 328.95 36.3131 330.213 37.8564 331.616C44.0298 337.651 45.994 344.246 43.8895 346.351Z" fill="#ECECEC"/>
<path d="M33.5 338.24C34.7371 338.24 35.74 337.237 35.74 336C35.74 334.763 34.7371 333.76 33.5 333.76C32.2629 333.76 31.26 334.763 31.26 336C31.26 337.237 32.2629 338.24 33.5 338.24Z" fill="#ECECEC"/>
<rect x="-63.5" y="435.5" width="67" height="67" rx="11.5" fill="#F9FBFF"/>
<rect x="-63.5" y="435.5" width="67" height="67" rx="11.5" stroke="#ECECEC"/>
<rect x="79.5" y="435.5" width="67" height="67" rx="11.5" fill="#F9FBFF"/>
<rect x="79.5" y="435.5" width="67" height="67" rx="11.5" stroke="#ECECEC"/>
<path fill-rule="evenodd" clip-rule="evenodd" d="M110.916 455.491C112.388 454.836 114.033 454.836 115.505 455.491L115.527 455.502L123.396 459.188C123.406 459.193 123.416 459.197 123.426 459.202C125.189 460.085 126.233 462.025 125.889 464.105C125.234 468.165 123.253 476.169 115.91 482.053L115.896 482.064C114.294 483.312 112.127 483.312 110.524 482.064L110.511 482.053C103.165 476.168 101.185 468.161 100.532 464.102C100.527 464.073 100.523 464.044 100.521 464.015C100.358 462.218 101.158 460.102 103.154 459.187L110.886 455.505C110.896 455.5 110.906 455.496 110.916 455.491ZM111.965 457.811L104.239 461.489L104.219 461.499C103.441 461.853 102.978 462.763 103.052 463.744C103.675 467.577 105.513 474.782 112.095 480.061C112.774 480.586 113.646 480.586 114.326 480.061C120.935 474.761 122.761 467.517 123.376 463.697L123.377 463.691C123.538 462.726 123.066 461.876 122.299 461.485L114.459 457.812C113.654 457.457 112.77 457.457 111.965 457.811Z" fill="#ECECEC"/>
<path fill-rule="evenodd" clip-rule="evenodd" d="M119.08 462.89C119.643 463.311 119.758 464.108 119.337 464.671L113.626 472.308C113.387 472.627 113.011 472.816 112.612 472.818C112.213 472.82 111.836 472.634 111.594 472.316L108.396 468.116C107.97 467.557 108.078 466.759 108.638 466.333C109.197 465.907 109.995 466.015 110.421 466.574L112.598 469.433L117.298 463.147C117.719 462.584 118.517 462.469 119.08 462.89Z" fill="#ECECEC"/>
<rect x="297.5" y="34.5" width="67" height="67" rx="11.5" fill="#F9FBFF"/>
<rect x="297.5" y="34.5" width="67" height="67" rx="11.5" stroke="#ECECEC"/>
<path d="M331 54C323.3 54 317 60.3 317 68C317 75.7 323.3 82 331 82C338.7 82 345 75.7 345 68C345 60.3 338.7 54 331 54ZM331 79.2C324.84 79.2 319.8 74.16 319.8 68C319.8 61.84 324.84 56.8 331 56.8C337.16 56.8 342.2 61.84 342.2 68C342.2 74.16 337.16 79.2 331 79.2Z" fill="#ECECEC"/>
<path d="M338.7 72.76C337.72 71.78 336.6 71.08 335.34 70.52C336.32 69.4 337.02 68 337.02 66.32C337.02 62.96 334.36 60.3 331 60.3C327.64 60.3 324.98 62.96 324.98 66.32C324.98 68 325.68 69.4 326.66 70.52C325.4 71.08 324.28 71.78 323.3 72.76C322.74 73.32 322.74 74.16 323.3 74.72C323.58 75 324 75.14 324.28 75.14C324.7 75.14 324.98 75 325.26 74.72C326.8 73.18 328.76 72.34 331 72.34C333.1 72.34 335.2 73.18 336.74 74.72C337.3 75.28 338.14 75.28 338.7 74.72C339.26 74.16 339.26 73.32 338.7 72.76ZM327.78 66.32C327.78 64.5 329.18 63.1 331 63.1C332.82 63.1 334.22 64.5 334.22 66.32C334.22 68.14 332.82 69.54 331 69.54C329.18 69.54 327.78 68.14 327.78 66.32Z" fill="#ECECEC"/>
<rect x="228.5" y="433.5" width="67" height="67" rx="11.5" fill="#F9FBFF"/>
<rect x="228.5" y="433.5" width="67" height="67" rx="11.5" stroke="#ECECEC"/>
<path fill-rule="evenodd" clip-rule="evenodd" d="M270.03 453.487C271.293 454.178 272.2 455.549 272.2 457.2V471.48C272.2 474.822 268.499 476.802 265.778 474.859C265.748 474.838 265.718 474.814 265.689 474.79L264.196 473.53C264.174 473.512 264.153 473.493 264.133 473.474C262.985 472.381 261.554 471.7 259.982 471.449V476.94C259.982 479.161 258.358 481 256.138 481C253.873 481 252.295 478.972 252.295 476.94V471.183C249.276 470.494 247 467.636 247 464.34C247 462.484 247.655 460.697 249.056 459.413C250.188 458.258 251.741 457.34 253.695 457.34H258.541C260.689 457.21 262.681 456.475 264.185 455.298L265.634 453.939C265.662 453.913 265.691 453.887 265.722 453.863C267.081 452.785 268.746 452.785 270.03 453.487ZM267.5 456.028L266.056 457.382C266.028 457.408 265.999 457.433 265.968 457.457C263.956 459.053 261.366 459.983 258.662 460.138C258.635 460.139 258.609 460.14 258.582 460.14H253.695C252.68 460.14 251.8 460.605 251.034 461.395C251.013 461.417 250.99 461.439 250.967 461.46C250.22 462.134 249.8 463.132 249.8 464.34C249.8 466.711 251.68 468.54 253.695 468.54C254.468 468.54 255.095 469.167 255.095 469.94V476.94C255.095 477.709 255.688 478.2 256.138 478.2C256.634 478.2 257.182 477.799 257.182 476.94V469.94C257.182 469.167 257.809 468.54 258.582 468.54C261.337 468.54 263.988 469.486 266.032 471.416L267.443 472.607C268.251 473.141 269.4 472.6 269.4 471.48V457.2C269.4 456.611 269.085 456.162 268.686 455.943C268.318 455.742 267.895 455.736 267.5 456.028Z" fill="#ECECEC"/>
<path fill-rule="evenodd" clip-rule="evenodd" d="M276.4 460C277.173 460 277.8 460.627 277.8 461.4V467C277.8 467.773 277.173 468.4 276.4 468.4C275.627 468.4 275 467.773 275 467V461.4C275 460.627 275.627 460 276.4 460Z" fill="#ECECEC"/>
<g filter="url(#filter0_d_928_43929)">
<rect x="68" y="8" width="81" height="94" rx="12" fill="white"/>
<path d="M123.696 46C123.696 42.9804 122.049 40.2353 119.578 38.8627C119.578 38.7255 119.578 38.451 119.578 38.1765C119.578 34.7451 116.833 32 113.402 32C111.48 32 109.696 32.9608 108.598 34.3333C107.5 32.9608 105.716 32 103.794 32C100.363 32 97.6176 34.7451 97.6176 38.1765C97.6176 38.451 97.6176 38.5882 97.6176 38.8627C95.1471 40.2353 93.5 42.9804 93.5 46C93.5 49.0196 95.1471 51.7647 97.6176 53.1373C97.6176 53.4118 97.6176 53.549 97.6176 53.8235C97.6176 57.2549 100.363 60 103.794 60C105.716 60 107.5 59.0392 108.598 57.6667C109.696 59.0392 111.48 60 113.402 60C116.833 60 119.578 57.2549 119.578 53.8235C119.578 53.549 119.578 53.4118 119.578 53.1373C122.049 51.6275 123.696 49.0196 123.696 46ZM117.52 51.0784C116.833 51.3529 116.559 52.0392 116.696 52.7255C116.833 53 116.833 53.4118 116.833 53.6863C116.833 55.6078 115.324 57.1176 113.402 57.1176C111.618 57.1176 110.108 55.7451 109.971 53.8235C109.971 53.6863 109.971 53.6863 109.833 53.549V53.4118C109.833 53.2745 109.696 53.1373 109.696 53.1373C109.696 53.1373 109.696 53 109.559 53C109.422 52.8627 109.422 52.8627 109.284 52.7255C109.284 52.7255 109.147 52.7255 109.147 52.5882C109.01 52.5882 108.873 52.5882 108.873 52.451H108.735H108.598C108.461 52.451 108.461 52.451 108.324 52.5882C108.186 52.5882 108.186 52.7255 108.049 52.7255C107.912 52.7255 107.912 52.8627 107.775 52.8627L107.637 53C107.637 53.1373 107.5 53.1373 107.5 53.2745V53.4118C107.5 53.549 107.363 53.549 107.363 53.6863C107.225 55.4706 105.716 56.9804 103.931 56.9804C102.01 56.9804 100.5 55.4706 100.5 53.549C100.5 53.1373 100.5 52.8627 100.637 52.5882C100.912 51.902 100.5 51.2157 99.8137 50.9412C97.6176 50.2549 96.2451 48.1961 96.2451 46C96.2451 43.8039 97.6176 41.7451 99.6765 40.9216C100.363 40.6471 100.775 39.8235 100.5 39.1373C100.363 38.8627 100.363 38.5882 100.363 38.1765C100.363 36.2549 101.873 34.7451 103.794 34.7451C105.716 34.7451 107.225 36.2549 107.225 38.1765V49.4314C107.225 50.2549 107.775 50.8039 108.598 50.8039C109.422 50.8039 109.971 50.2549 109.971 49.4314V38.1765C109.971 36.2549 111.48 34.7451 113.402 34.7451C115.324 34.7451 116.833 36.2549 116.833 38.1765C116.833 38.5882 116.833 38.8627 116.696 39.1373C116.422 39.8235 116.833 40.5098 117.52 40.7843C119.578 41.7451 120.951 43.6667 120.951 46C120.951 48.1961 119.578 50.2549 117.52 51.0784Z" fill="url(#paint0_radial_928_43929)"/>
<path d="M87.5035 82V73.4688H90.5797C91.6031 73.4688 92.3883 73.7051 92.9352 74.1777C93.4859 74.6465 93.7613 75.2773 93.7613 76.0703C93.7613 76.8594 93.4859 77.4941 92.9352 77.9746C92.3883 78.4512 91.6031 78.6895 90.5797 78.6895H88.6695V82H87.5035ZM88.6695 77.7344H90.5797C91.3258 77.7344 91.8473 77.5742 92.1441 77.2539C92.4449 76.9336 92.5953 76.5391 92.5953 76.0703C92.5953 75.5977 92.4449 75.207 92.1441 74.8984C91.8473 74.5859 91.3258 74.4297 90.5797 74.4297H88.6695V77.7344ZM94.4466 84.4375V83.4824C94.5638 83.5137 94.6908 83.5391 94.8275 83.5586C94.9681 83.5781 95.1029 83.5879 95.2318 83.5879C95.5482 83.5879 95.8138 83.5 96.0287 83.3242C96.2474 83.1484 96.4955 82.6953 96.7728 81.9648V81.959L94.1771 75.7656H95.308L96.972 79.873C97.0345 80.0293 97.0912 80.1816 97.142 80.3301C97.1966 80.4785 97.2435 80.623 97.2826 80.7637H97.3177C97.3568 80.623 97.4037 80.4785 97.4584 80.3301C97.513 80.1816 97.5697 80.0293 97.6283 79.873L99.2162 75.7656H100.312L97.4525 82.8203C97.2259 83.3672 96.9369 83.793 96.5853 84.0977C96.2377 84.4023 95.8099 84.5547 95.3021 84.5547C95.1302 84.5547 94.9759 84.5449 94.8392 84.5254C94.7025 84.5059 94.5716 84.4766 94.4466 84.4375ZM102.409 77.4707C102.409 77.9785 102.528 78.332 102.767 78.5312C103.005 78.7305 103.386 78.8301 103.909 78.8301C104.312 78.8301 104.677 78.8027 105.005 78.748C105.337 78.6895 105.691 78.6094 106.066 78.5078V79.4043C105.714 79.4941 105.364 79.5703 105.017 79.6328C104.669 79.6914 104.239 79.7207 103.728 79.7207C102.892 79.7207 102.275 79.5332 101.876 79.1582C101.482 78.7793 101.284 78.2168 101.284 77.4707V75.7656H102.409V77.4707ZM106.622 75.7656V82H105.503V75.7656H106.622ZM108.638 75.7656H109.763V78.3789H113.067V75.7656H114.192V82H113.067V79.2695H109.763V82H108.638V75.7656ZM115.833 78.9766V78.7891C115.833 77.8477 116.128 77.0801 116.717 76.4863C117.311 75.8887 118.104 75.5898 119.096 75.5898C120.085 75.5898 120.876 75.8887 121.469 76.4863C122.063 77.0801 122.36 77.8477 122.36 78.7891V78.9766C122.36 79.918 122.063 80.6875 121.469 81.2852C120.876 81.8789 120.085 82.1758 119.096 82.1758C118.104 82.1758 117.311 81.8789 116.717 81.2852C116.128 80.6875 115.833 79.918 115.833 78.9766ZM116.981 78.7891V78.9766C116.981 79.6172 117.159 80.1562 117.514 80.5938C117.87 81.0312 118.397 81.25 119.096 81.25C119.796 81.25 120.321 81.0312 120.672 80.5938C121.028 80.1562 121.206 79.6172 121.206 78.9766V78.7891C121.206 78.1445 121.028 77.6055 120.672 77.1719C120.321 76.7344 119.796 76.5156 119.096 76.5156C118.397 76.5156 117.87 76.7344 117.514 77.1719C117.159 77.6055 116.981 78.1445 116.981 78.7891ZM124 82V75.7656H125.114V79.7383C125.114 79.8555 125.112 79.9883 125.108 80.1367C125.108 80.2852 125.106 80.4199 125.102 80.541H125.149C125.204 80.4355 125.264 80.3242 125.33 80.207C125.397 80.0898 125.473 79.9727 125.559 79.8555L128.495 75.7656H129.625V82H128.506V78.0332C128.506 77.9121 128.508 77.7773 128.512 77.6289C128.516 77.4766 128.522 77.3398 128.53 77.2188H128.465C128.414 77.3203 128.356 77.4316 128.289 77.5527C128.223 77.6738 128.149 77.793 128.067 77.9102L125.131 82H124ZM126.813 73.8672C127.106 73.8672 127.346 73.7891 127.534 73.6328C127.721 73.4727 127.881 73.2129 128.014 72.8535L128.875 73.3574C128.68 73.834 128.403 74.1836 128.043 74.4062C127.684 74.6289 127.274 74.7402 126.813 74.7402C126.348 74.7402 125.938 74.6309 125.582 74.4121C125.227 74.1895 124.948 73.8379 124.745 73.3574L125.612 72.8418C125.745 73.2129 125.903 73.4766 126.086 73.6328C126.274 73.7891 126.516 73.8672 126.813 73.8672Z" fill="#04101C"/>
</g>
<g filter="url(#filter1_d_928_43929)">
<rect x="189" y="8" width="68" height="94" rx="12" fill="white"/>
<path d="M236.227 48.1636H232.918V43.8364H236.227C236.991 43.8364 237.5 43.3273 237.5 42.5636C237.5 41.8 236.991 41.2909 236.227 41.2909H232.918V40.2727C232.918 38.2364 231.264 36.7091 229.355 36.7091H228.336V33.2727C228.336 32.5091 227.827 32 227.064 32C226.3 32 225.791 32.5091 225.791 33.2727V36.5818H221.336V33.2727C221.336 32.5091 220.827 32 220.064 32C219.3 32 218.791 32.5091 218.791 33.2727V36.5818H217.773C215.736 36.5818 214.209 38.2364 214.209 40.1455V41.1636H210.773C210.009 41.1636 209.5 41.6727 209.5 42.4364C209.5 43.2 210.009 43.7091 210.773 43.7091H214.082V48.1636H210.773C210.009 48.1636 209.5 48.6727 209.5 49.4364C209.5 50.2 210.009 50.7091 210.773 50.7091H214.082V51.7273C214.082 53.7636 215.736 55.2909 217.645 55.2909H218.664V58.7273C218.664 59.4909 219.173 60 219.936 60C220.7 60 221.209 59.4909 221.209 58.7273V55.4182H225.664V58.7273C225.664 59.4909 226.173 60 226.936 60C227.7 60 228.209 59.4909 228.209 58.7273V55.4182H229.227C231.264 55.4182 232.791 53.7636 232.791 51.8545V50.8364H236.227C236.991 50.8364 237.5 50.3273 237.5 49.5636C237.5 48.8 236.991 48.1636 236.227 48.1636ZM230.373 51.7273C230.373 52.3636 229.864 52.7455 229.355 52.7455H217.773C217.136 52.7455 216.755 52.2364 216.755 51.7273V40.2727C216.627 39.6364 217.136 39.1273 217.773 39.1273H229.355C229.991 39.1273 230.373 39.6364 230.373 40.1455V51.7273Z" fill="url(#paint1_radial_928_43929)"/>
<path d="M208.402 82L211.894 73.4102H213.031L216.523 82H215.292L212.779 75.6016C212.712 75.4414 212.654 75.2891 212.603 75.1445C212.556 75 212.513 74.8535 212.474 74.7051H212.41C212.37 74.8535 212.326 75 212.275 75.1445C212.228 75.2891 212.171 75.4414 212.105 75.6016L209.574 82H208.402ZM209.872 79.7969L210.253 78.8359L214.648 78.8418L215.023 79.8027L209.872 79.7969ZM217.401 82V75.7656H220.525C221.235 75.7656 221.79 75.9043 222.189 76.1816C222.591 76.4551 222.792 76.8711 222.792 77.4297C222.792 77.7773 222.689 78.0684 222.482 78.3027C222.275 78.5371 221.997 78.6953 221.65 78.7773V78.7949C222.071 78.8574 222.403 79.0117 222.646 79.2578C222.888 79.5 223.009 79.8105 223.009 80.1895C223.009 80.7598 222.798 81.2051 222.376 81.5254C221.954 81.8418 221.396 82 220.7 82H217.401ZM218.526 78.3906H220.525C220.927 78.3906 221.216 78.3105 221.392 78.1504C221.568 77.9902 221.655 77.7695 221.655 77.4883C221.655 77.2148 221.568 77.0078 221.392 76.8672C221.216 76.7266 220.927 76.6543 220.525 76.6504H218.526V78.3906ZM218.526 81.1152H220.7C221.107 81.1152 221.403 81.0312 221.591 80.8633C221.782 80.6953 221.878 80.4688 221.878 80.1836C221.878 79.9062 221.784 79.6855 221.597 79.5215C221.409 79.3535 221.11 79.2695 220.7 79.2695H218.526V81.1152ZM224.028 76.6504V75.7656H229.595V76.6504H227.374V82H226.249V76.6504H224.028ZM230.555 78.9766V78.7891C230.555 77.8477 230.85 77.0801 231.44 76.4863C232.034 75.8887 232.827 75.5898 233.819 75.5898C234.807 75.5898 235.598 75.8887 236.192 76.4863C236.786 77.0801 237.083 77.8477 237.083 78.7891V78.9766C237.083 79.918 236.786 80.6875 236.192 81.2852C235.598 81.8789 234.807 82.1758 233.819 82.1758C232.827 82.1758 232.034 81.8789 231.44 81.2852C230.85 80.6875 230.555 79.918 230.555 78.9766ZM231.704 78.7891V78.9766C231.704 79.6172 231.881 80.1562 232.237 80.5938C232.592 81.0312 233.12 81.25 233.819 81.25C234.518 81.25 235.044 81.0312 235.395 80.5938C235.751 80.1562 235.928 79.6172 235.928 78.9766V78.7891C235.928 78.1445 235.751 77.6055 235.395 77.1719C235.044 76.7344 234.518 76.5156 233.819 76.5156C233.12 76.5156 232.592 76.7344 232.237 77.1719C231.881 77.6055 231.704 78.1445 231.704 78.7891Z" fill="#04101C"/>
</g>
<path d="M296 349L346 349" stroke="#ECECEC"/>
<path d="M296 216L346 216" stroke="#ECECEC"/>
<path d="M144 306L144 265C144 256.164 136.841 249 128.005 249C119.23 249 108.45 249 100 249L100 237" stroke="url(#paint2_linear_928_43929)" stroke-width="2"/>
<path d="M158 307L158 300.5C158.001 291.663 165.164 284.5 174 284.5L408.999 284.5C417.836 284.5 424.999 291.664 424.999 300.5L424.999 436C424.999 442.904 419.403 448.5 412.499 448.5V448.5" stroke="#ECECEC"/>
<path d="M15 302L15 219C15 210.163 7.83656 203 -0.999999 203L-8 203" stroke="#ECECEC"/>
<path d="M97 169L97 102" stroke="url(#paint3_linear_928_43929)" stroke-width="2"/>
<path d="M225 102V102C225 108.627 219.627 114 213 114H127C118.163 114 111 121.163 111 130V169" stroke="url(#paint4_linear_928_43929)" stroke-width="2"/>
<path d="M-9 70H33C41.8366 70 49 77.1635 49 86L49 302" stroke="#ECECEC"/>
<path d="M296.001 202.499L311.5 202.499C320.336 202.499 327.5 195.336 327.5 186.499L327.501 102" stroke="#ECECEC"/>
<path d="M228 349H178" stroke="#ECECEC"/>
<path d="M110 349L67 349" stroke="#ECECEC"/>
<path d="M110 361H105.837C97.0008 361 89.8374 368.163 89.8374 377V397.136C89.8374 405.973 82.674 413.136 73.8374 413.136H2C-6.83655 413.136 -14 420.3 -14 429.136V435" stroke="#ECECEC"/>
<path d="M130 374L130 435" stroke="#ECECEC"/>
<path d="M178 355L193.999 355C202.836 355 209.999 362.163 209.999 371L209.999 584" stroke="#ECECEC"/>
<path d="M178 361V361C186.837 361 194 368.163 194 377V548.349C194 557.185 186.837 564.349 178 564.349H108C99.1634 564.349 92 571.512 92 580.349V587" stroke="#ECECEC"/>
<path d="M262 314L262 242" stroke="#ECECEC"/>
<path d="M262 382L262 434" stroke="#ECECEC"/>
<g filter="url(#filter2_d_928_43929)">
<rect x="68" y="169" width="113" height="94" rx="12" fill="white"/>
<path d="M135.232 193.433C134.655 192.856 133.789 192.856 133.213 193.433C132.636 194.01 132.636 194.876 133.213 195.453C135.809 198.05 137.251 201.512 137.251 205.264C137.251 209.015 135.809 212.478 133.213 215.075C130.616 217.672 127.155 219.114 123.404 219.114C120.231 219.114 117.058 217.96 114.606 215.94L116.481 213.92C118.5 215.507 120.952 216.229 123.26 216.229C126.145 216.229 128.885 215.219 131.049 213.055C135.376 208.726 135.376 201.657 131.049 197.473C126.722 193.144 119.654 193.144 115.471 197.473C111.577 201.368 111.144 207.572 114.462 211.9L111.433 215.075C110.856 215.652 110.856 216.517 111.433 217.095C114.606 220.269 118.789 222 123.26 222C127.732 222 131.914 220.269 135.088 217.095C138.261 213.92 139.992 209.736 139.992 205.264C140.136 200.791 138.405 196.607 135.232 193.433ZM117.635 199.493C119.222 197.905 121.385 197.04 123.404 197.04C125.568 197.04 127.587 197.905 129.174 199.493C132.347 202.667 132.347 207.861 129.174 211.035C126.001 214.209 120.808 214.209 117.635 211.035C114.462 207.861 114.462 202.667 117.635 199.493Z" fill="url(#paint5_radial_928_43929)"/>
<path d="M87.1329 243V234.469H88.6563L91.4278 240.885C91.4786 241.002 91.5274 241.125 91.5743 241.254C91.6251 241.379 91.67 241.496 91.7091 241.605H91.7559C91.7911 241.496 91.8321 241.379 91.879 241.254C91.9259 241.125 91.9747 241.002 92.0255 240.885L94.7794 234.469H96.3321V243H95.2071V236.73C95.2071 236.613 95.2091 236.482 95.213 236.338C95.2208 236.189 95.2325 236.057 95.2481 235.939H95.1954C95.1641 236.057 95.1212 236.189 95.0665 236.338C95.0157 236.482 94.9649 236.613 94.9141 236.73L92.2305 243H91.1934L88.4923 236.73C88.4415 236.613 88.3907 236.482 88.3399 236.338C88.293 236.189 88.2559 236.057 88.2286 235.939H88.1759C88.1876 236.057 88.1973 236.189 88.2052 236.338C88.2169 236.482 88.2227 236.613 88.2227 236.73V243H87.1329ZM97.8202 239.977V239.789C97.8202 238.848 98.1151 238.08 98.7049 237.486C99.2987 236.889 100.092 236.59 101.084 236.59C102.072 236.59 102.863 236.889 103.457 237.486C104.051 238.08 104.347 238.848 104.347 239.789V239.977C104.347 240.918 104.051 241.688 103.457 242.285C102.863 242.879 102.072 243.176 101.084 243.176C100.092 243.176 99.2987 242.879 98.7049 242.285C98.1151 241.688 97.8202 240.918 97.8202 239.977ZM98.9686 239.789V239.977C98.9686 240.617 99.1463 241.156 99.5018 241.594C99.8573 242.031 100.385 242.25 101.084 242.25C101.783 242.25 102.308 242.031 102.66 241.594C103.015 241.156 103.193 240.617 103.193 239.977V239.789C103.193 239.145 103.015 238.605 102.66 238.172C102.308 237.734 101.783 237.516 101.084 237.516C100.385 237.516 99.8573 237.734 99.5018 238.172C99.1463 238.605 98.9686 239.145 98.9686 239.789ZM105.988 236.766H107.113V239.379H110.418V236.766H111.543V243H110.418V240.27H107.113V243H105.988V236.766ZM113.552 243V236.766H114.665V240.738C114.665 240.855 114.663 240.988 114.66 241.137C114.66 241.285 114.658 241.42 114.654 241.541H114.701C114.755 241.436 114.816 241.324 114.882 241.207C114.949 241.09 115.025 240.973 115.111 240.855L118.046 236.766H119.177V243H118.058V239.033C118.058 238.912 118.06 238.777 118.064 238.629C118.068 238.477 118.074 238.34 118.081 238.219H118.017C117.966 238.32 117.908 238.432 117.841 238.553C117.775 238.674 117.701 238.793 117.619 238.91L114.683 243H113.552ZM120.495 237.65V236.766H126.062V237.65H123.841V243H122.716V237.65H120.495ZM127.022 239.977V239.789C127.022 238.848 127.317 238.08 127.907 237.486C128.501 236.889 129.294 236.59 130.286 236.59C131.274 236.59 132.065 236.889 132.659 237.486C133.253 238.08 133.55 238.848 133.55 239.789V239.977C133.55 240.918 133.253 241.688 132.659 242.285C132.065 242.879 131.274 243.176 130.286 243.176C129.294 243.176 128.501 242.879 127.907 242.285C127.317 241.688 127.022 240.918 127.022 239.977ZM128.171 239.789V239.977C128.171 240.617 128.349 241.156 128.704 241.594C129.059 242.031 129.587 242.25 130.286 242.25C130.985 242.25 131.511 242.031 131.862 241.594C132.218 241.156 132.395 240.617 132.395 239.977V239.789C132.395 239.145 132.218 238.605 131.862 238.172C131.511 237.734 130.985 237.516 130.286 237.516C129.587 237.516 129.059 237.734 128.704 238.172C128.349 238.605 128.171 239.145 128.171 239.789ZM135.19 245.438V236.766H136.21L136.262 237.621H136.286C136.473 237.352 136.756 237.123 137.135 236.936C137.514 236.744 137.958 236.648 138.465 236.648C139.34 236.648 140.04 236.945 140.563 237.539C141.09 238.129 141.354 238.879 141.354 239.789V239.977C141.354 240.883 141.09 241.633 140.563 242.227C140.04 242.82 139.34 243.117 138.465 243.117C137.958 243.117 137.526 243.035 137.171 242.871C136.815 242.707 136.53 242.49 136.315 242.221V245.438H135.19ZM136.315 241.084C136.456 241.373 136.688 241.631 137.012 241.857C137.337 242.08 137.731 242.191 138.196 242.191C138.887 242.191 139.393 241.98 139.714 241.559C140.038 241.133 140.2 240.605 140.2 239.977V239.789C140.2 239.156 140.038 238.629 139.714 238.207C139.393 237.785 138.887 237.574 138.196 237.574C137.731 237.574 137.337 237.688 137.012 237.914C136.692 238.137 136.46 238.393 136.315 238.682V241.084ZM143 243V236.766H144.114V240.738C144.114 240.855 144.112 240.988 144.108 241.137C144.108 241.285 144.106 241.42 144.102 241.541H144.149C144.204 241.436 144.264 241.324 144.33 241.207C144.397 241.09 144.473 240.973 144.559 240.855L147.495 236.766H148.625V243H147.506V239.033C147.506 238.912 147.508 238.777 147.512 238.629C147.516 238.477 147.522 238.34 147.53 238.219H147.465C147.414 238.32 147.356 238.432 147.289 238.553C147.223 238.674 147.149 238.793 147.067 238.91L144.131 243H143ZM150.635 236.766H151.76V239.379H155.065V236.766H156.19V243H155.065V240.27H151.76V243H150.635V236.766ZM158.199 236.766H162.676V237.65H159.324V243H158.199V236.766Z" fill="#04101C"/>
</g>
<g filter="url(#filter3_d_928_43929)">
<rect x="110" y="306" width="68" height="94" rx="12" fill="white"/>
<path d="M154.965 352.6H152C151.506 350.8 149.9 349.6 147.924 349.6C145.576 349.6 143.6 351.52 143.6 353.8C143.6 356.08 145.576 358 147.924 358C149.9 358 151.506 356.8 152 355H154.965C155.706 355 156.2 354.4 156.2 353.8C156.2 353.08 155.706 352.6 154.965 352.6ZM147.924 355.6C146.935 355.6 146.071 354.76 146.071 353.8C146.071 352.84 146.935 352 147.924 352C148.912 352 149.776 352.84 149.776 353.8C149.776 354.76 148.912 355.6 147.924 355.6Z" fill="url(#paint6_radial_928_43929)"/>
<path d="M141.009 352.4H132.191C131.477 352.4 131 353.1 131 353.8C131 354.64 131.596 355.2 132.191 355.2H141.009C141.723 355.2 142.2 354.5 142.2 353.8C142.2 352.96 141.604 352.4 141.009 352.4Z" fill="url(#paint7_radial_928_43929)"/>
<path d="M132.191 335.6H141.009C141.723 335.6 142.2 334.9 142.2 334.2C142.2 333.5 141.604 332.8 141.009 332.8H132.191C131.477 332.8 131 333.5 131 334.2C131 334.9 131.596 335.6 132.191 335.6Z" fill="url(#paint8_radial_928_43929)"/>
<path d="M147.924 338.4C149.9 338.4 151.506 337.2 152 335.4H154.965C155.706 335.4 156.2 334.8 156.2 334.2C156.2 333.6 155.582 333 154.965 333H152C151.506 331.2 149.9 330 147.924 330C145.576 330 143.6 331.92 143.6 334.2C143.6 336.48 145.576 338.4 147.924 338.4ZM147.924 332.4C148.912 332.4 149.776 333.24 149.776 334.2C149.776 335.16 148.912 336 147.924 336C146.935 336 146.071 335.16 146.071 334.2C146.071 333.24 146.935 332.4 147.924 332.4Z" fill="url(#paint9_radial_928_43929)"/>
<path d="M132.235 345.2H135.2C135.694 346.88 137.3 348.2 139.276 348.2C141.624 348.2 143.6 346.28 143.6 344C143.6 341.72 141.624 339.8 139.276 339.8C137.3 339.8 135.694 341 135.2 342.8H132.235C131.494 342.8 131 343.4 131 344C131 344.6 131.618 345.2 132.235 345.2ZM139.276 342.2C140.265 342.2 141.129 343.04 141.129 344C141.129 344.96 140.265 345.8 139.276 345.8C138.288 345.8 137.424 344.96 137.424 344C137.424 343.04 138.288 342.2 139.276 342.2Z" fill="url(#paint10_radial_928_43929)"/>
<path d="M154.996 342.6H146.204C145.482 342.6 145 343.3 145 344C145 344.7 145.602 345.4 146.204 345.4H154.996C155.718 345.4 156.2 344.7 156.2 344C156.2 343.3 155.718 342.6 154.996 342.6Z" fill="url(#paint11_radial_928_43929)"/>
<path d="M130.272 375.951V375.518C130.272 374.182 130.639 373.145 131.373 372.406C132.108 371.664 133.049 371.293 134.198 371.293C135.35 371.293 136.293 371.664 137.028 372.406C137.762 373.145 138.129 374.182 138.129 375.518V375.951C138.129 377.287 137.762 378.326 137.028 379.068C136.293 379.807 135.35 380.176 134.198 380.176C133.049 380.176 132.108 379.807 131.373 379.068C130.639 378.326 130.272 377.287 130.272 375.951ZM131.449 375.951C131.449 376.967 131.699 377.76 132.199 378.33C132.703 378.896 133.371 379.18 134.203 379.18C135.031 379.18 135.698 378.896 136.201 378.33C136.705 377.76 136.957 376.967 136.957 375.951V375.518C136.957 374.502 136.705 373.711 136.201 373.145C135.698 372.574 135.031 372.289 134.203 372.289C133.371 372.289 132.703 372.574 132.199 373.145C131.699 373.711 131.449 374.502 131.449 375.518V375.951ZM140.074 380V371.469H143.104C144.096 371.469 144.863 371.697 145.406 372.154C145.949 372.611 146.221 373.225 146.221 373.994C146.221 374.764 145.949 375.383 145.406 375.852C144.863 376.32 144.096 376.555 143.104 376.555H141.24V380H140.074ZM141.24 375.605H143.104C143.834 375.605 144.342 375.451 144.627 375.143C144.912 374.83 145.055 374.447 145.055 373.994C145.055 373.541 144.912 373.166 144.627 372.869C144.342 372.568 143.834 372.418 143.104 372.418H141.24V375.605ZM145.365 380L143.127 376.068L144.322 375.922L146.695 380H145.365ZM148.201 380V371.469H149.724L152.496 377.885C152.547 378.002 152.595 378.125 152.642 378.254C152.693 378.379 152.738 378.496 152.777 378.605H152.824C152.859 378.496 152.9 378.379 152.947 378.254C152.994 378.125 153.043 378.002 153.094 377.885L155.847 371.469H157.4V380H156.275V373.73C156.275 373.613 156.277 373.482 156.281 373.338C156.289 373.189 156.301 373.057 156.316 372.939H156.263C156.232 373.057 156.189 373.189 156.135 373.338C156.084 373.482 156.033 373.613 155.982 373.73L153.299 380H152.261L149.56 373.73C149.51 373.613 149.459 373.482 149.408 373.338C149.361 373.189 149.324 373.057 149.297 372.939H149.244C149.256 373.057 149.265 373.189 149.273 373.338C149.285 373.482 149.291 373.613 149.291 373.73V380H148.201Z" fill="#04101C"/>
</g>
<defs>
<filter id="filter0_d_928_43929" x="59" y="0" width="101" height="114" filterUnits="userSpaceOnUse" color-interpolation-filters="sRGB">
<feFlood flood-opacity="0" result="BackgroundImageFix"/>
<feColorMatrix in="SourceAlpha" type="matrix" values="0 0 0 0 0 0 0 0 0 0 0 0 0 0 0 0 0 0 127 0" result="hardAlpha"/>
<feOffset dx="1" dy="2"/>
<feGaussianBlur stdDeviation="5"/>
<feComposite in2="hardAlpha" operator="out"/>
<feColorMatrix type="matrix" values="0 0 0 0 0.00780001 0 0 0 0 0.045344 0 0 0 0 0.0800001 0 0 0 0.04 0"/>
<feBlend mode="normal" in2="BackgroundImageFix" result="effect1_dropShadow_928_43929"/>
<feBlend mode="normal" in="SourceGraphic" in2="effect1_dropShadow_928_43929" result="shape"/>
</filter>
<filter id="filter1_d_928_43929" x="180" y="0" width="88" height="114" filterUnits="userSpaceOnUse" color-interpolation-filters="sRGB">
<feFlood flood-opacity="0" result="BackgroundImageFix"/>
<feColorMatrix in="SourceAlpha" type="matrix" values="0 0 0 0 0 0 0 0 0 0 0 0 0 0 0 0 0 0 127 0" result="hardAlpha"/>
<feOffset dx="1" dy="2"/>
<feGaussianBlur stdDeviation="5"/>
<feComposite in2="hardAlpha" operator="out"/>
<feColorMatrix type="matrix" values="0 0 0 0 0.00780001 0 0 0 0 0.045344 0 0 0 0 0.0800001 0 0 0 0.04 0"/>
<feBlend mode="normal" in2="BackgroundImageFix" result="effect1_dropShadow_928_43929"/>
<feBlend mode="normal" in="SourceGraphic" in2="effect1_dropShadow_928_43929" result="shape"/>
</filter>
<filter id="filter2_d_928_43929" x="59" y="161" width="133" height="114" filterUnits="userSpaceOnUse" color-interpolation-filters="sRGB">
<feFlood flood-opacity="0" result="BackgroundImageFix"/>
<feColorMatrix in="SourceAlpha" type="matrix" values="0 0 0 0 0 0 0 0 0 0 0 0 0 0 0 0 0 0 127 0" result="hardAlpha"/>
<feOffset dx="1" dy="2"/>
<feGaussianBlur stdDeviation="5"/>
<feComposite in2="hardAlpha" operator="out"/>
<feColorMatrix type="matrix" values="0 0 0 0 0.00780001 0 0 0 0 0.045344 0 0 0 0 0.0800001 0 0 0 0.04 0"/>
<feBlend mode="normal" in2="BackgroundImageFix" result="effect1_dropShadow_928_43929"/>
<feBlend mode="normal" in="SourceGraphic" in2="effect1_dropShadow_928_43929" result="shape"/>
</filter>
<filter id="filter3_d_928_43929" x="101" y="298" width="88" height="114" filterUnits="userSpaceOnUse" color-interpolation-filters="sRGB">
<feFlood flood-opacity="0" result="BackgroundImageFix"/>
<feColorMatrix in="SourceAlpha" type="matrix" values="0 0 0 0 0 0 0 0 0 0 0 0 0 0 0 0 0 0 127 0" result="hardAlpha"/>
<feOffset dx="1" dy="2"/>
<feGaussianBlur stdDeviation="5"/>
<feComposite in2="hardAlpha" operator="out"/>
<feColorMatrix type="matrix" values="0 0 0 0 0.00780001 0 0 0 0 0.045344 0 0 0 0 0.0800001 0 0 0 0.04 0"/>
<feBlend mode="normal" in2="BackgroundImageFix" result="effect1_dropShadow_928_43929"/>
<feBlend mode="normal" in="SourceGraphic" in2="effect1_dropShadow_928_43929" result="shape"/>
</filter>
<radialGradient id="paint0_radial_928_43929" cx="0" cy="0" r="1" gradientUnits="userSpaceOnUse" gradientTransform="translate(108.598 46) rotate(100.474) scale(17.7965 19.1035)">
<stop offset="0.055" stop-color="#7A73FF"/>
<stop offset="0.65" stop-color="#67DDFA"/>
<stop offset="1" stop-color="#4AFCF1"/>
</radialGradient>
<radialGradient id="paint1_radial_928_43929" cx="0" cy="0" r="1" gradientUnits="userSpaceOnUse" gradientTransform="translate(223.5 46) rotate(99.7276) scale(17.7553)">
<stop offset="0.055" stop-color="#7A73FF"/>
<stop offset="0.65" stop-color="#67DDFA"/>
<stop offset="1" stop-color="#4AFCF1"/>
</radialGradient>
<linearGradient id="paint2_linear_928_43929" x1="52.0837" y1="200.041" x2="134.919" y2="321.923" gradientUnits="userSpaceOnUse">
<stop offset="0.338542" stop-color="#7A73FF"/>
<stop offset="0.734375" stop-color="#75CDFF"/>
<stop offset="1" stop-color="#4AFCF1"/>
</linearGradient>
<linearGradient id="paint3_linear_928_43929" x1="96" y1="64.3125" x2="102.784" y2="64.6059" gradientUnits="userSpaceOnUse">
<stop offset="0.338542" stop-color="#7A73FF"/>
<stop offset="0.734375" stop-color="#75CDFF"/>
<stop offset="1" stop-color="#4AFCF1"/>
</linearGradient>
<linearGradient id="paint4_linear_928_43929" x1="46.875" y1="236" x2="245.695" y2="119.272" gradientUnits="userSpaceOnUse">
<stop offset="0.338542" stop-color="#7A73FF"/>
<stop offset="0.734375" stop-color="#75CDFF"/>
<stop offset="1" stop-color="#4AFCF1"/>
</linearGradient>
<radialGradient id="paint5_radial_928_43929" cx="0" cy="0" r="1" gradientUnits="userSpaceOnUse" gradientTransform="translate(125.5 207.5) rotate(99.7276) scale(18.3894)">
<stop offset="0.055" stop-color="#7A73FF"/>
<stop offset="0.65" stop-color="#67DDFA"/>
<stop offset="1" stop-color="#4AFCF1"/>
</radialGradient>
<radialGradient id="paint6_radial_928_43929" cx="0" cy="0" r="1" gradientUnits="userSpaceOnUse" gradientTransform="translate(143.6 344) rotate(98.7708) scale(17.7071 16.0233)">
<stop offset="0.055" stop-color="#7A73FF"/>
<stop offset="0.65" stop-color="#67DDFA"/>
<stop offset="1" stop-color="#4AFCF1"/>
</radialGradient>
<radialGradient id="paint7_radial_928_43929" cx="0" cy="0" r="1" gradientUnits="userSpaceOnUse" gradientTransform="translate(143.6 344) rotate(98.7708) scale(17.7071 16.0233)">
<stop offset="0.055" stop-color="#7A73FF"/>
<stop offset="0.65" stop-color="#67DDFA"/>
<stop offset="1" stop-color="#4AFCF1"/>
</radialGradient>
<radialGradient id="paint8_radial_928_43929" cx="0" cy="0" r="1" gradientUnits="userSpaceOnUse" gradientTransform="translate(143.6 344) rotate(98.7708) scale(17.7071 16.0233)">
<stop offset="0.055" stop-color="#7A73FF"/>
<stop offset="0.65" stop-color="#67DDFA"/>
<stop offset="1" stop-color="#4AFCF1"/>
</radialGradient>
<radialGradient id="paint9_radial_928_43929" cx="0" cy="0" r="1" gradientUnits="userSpaceOnUse" gradientTransform="translate(143.6 344) rotate(98.7708) scale(17.7071 16.0233)">
<stop offset="0.055" stop-color="#7A73FF"/>
<stop offset="0.65" stop-color="#67DDFA"/>
<stop offset="1" stop-color="#4AFCF1"/>
</radialGradient>
<radialGradient id="paint10_radial_928_43929" cx="0" cy="0" r="1" gradientUnits="userSpaceOnUse" gradientTransform="translate(143.6 344) rotate(98.7708) scale(17.7071 16.0233)">
<stop offset="0.055" stop-color="#7A73FF"/>
<stop offset="0.65" stop-color="#67DDFA"/>
<stop offset="1" stop-color="#4AFCF1"/>
</radialGradient>
<radialGradient id="paint11_radial_928_43929" cx="0" cy="0" r="1" gradientUnits="userSpaceOnUse" gradientTransform="translate(143.6 344) rotate(98.7708) scale(17.7071 16.0233)">
<stop offset="0.055" stop-color="#7A73FF"/>
<stop offset="0.65" stop-color="#67DDFA"/>
<stop offset="1" stop-color="#4AFCF1"/>
</radialGradient>
</defs>
</svg>
