<svg width="380" height="582" viewBox="0 0 380 582" fill="none" xmlns="http://www.w3.org/2000/svg">
<g clip-path="url(#clip0_936_43194)">
<rect x="187.5" y="17.5" width="67" height="67" rx="11.5" fill="#F9FBFF"/>
<rect x="187.5" y="17.5" width="67" height="67" rx="11.5" stroke="#ECECEC"/>
<path fill-rule="evenodd" clip-rule="evenodd" d="M221 67C229.837 67 237 59.8366 237 51C237 45.8664 234.582 41.2975 230.823 38.3697L228.181 36.6982C226.022 35.6117 223.582 35 221 35C212.163 35 205 42.1634 205 51C205 59.8366 212.163 67 221 67ZM228.181 36.6982V44.2921C226.317 42.2021 223.622 40.889 220.625 40.889C214.999 40.889 210.437 45.517 210.437 51.2258C210.437 56.9347 214.999 61.5627 220.625 61.5627C223.622 61.5627 226.317 60.2496 228.181 58.1596L228.107 60.3112C228.097 60.6136 228.339 60.8644 228.642 60.8644H230.358C230.654 60.8644 230.893 60.6239 230.892 60.3279L230.823 38.3697L228.181 36.6982ZM228.606 51.2258C228.606 55.5251 225.166 59.0104 220.922 59.0104C216.679 59.0104 213.239 55.5251 213.239 51.2258C213.239 46.9266 216.679 43.4413 220.922 43.4413C225.166 43.4413 228.606 46.9266 228.606 51.2258Z" fill="#ECECEC"/>
<rect x="-41.5" y="5.5" width="67" height="67" rx="11.5" fill="#F9FBFF"/>
<rect x="-41.5" y="5.5" width="67" height="67" rx="11.5" stroke="#ECECEC"/>
<path d="M4.8537 26.617C3.02976 24.7927 -0.0569057 24.512 -3.70478 25.775C-4.96751 26.196 -6.23024 26.8977 -7.49296 27.5994C-12.5439 24.6524 -17.3142 24.091 -19.8396 26.617C-22.5054 29.1431 -21.8039 33.9145 -18.8575 38.9665C-21.9442 44.1589 -22.3651 48.9303 -19.8396 51.316C-18.8575 52.4387 -17.3142 53 -15.4902 53C-13.1051 53 -10.299 52.0177 -7.49296 50.3336C-4.6869 52.0177 -1.88084 53 0.504307 53C2.32825 53 3.73127 52.4387 4.8537 51.4563C7.37915 48.9303 6.81794 44.1589 3.87158 39.1068C6.95824 33.7741 7.37915 29.0027 4.8537 26.617ZM-2.86296 28.4414C-0.197208 27.459 1.76703 27.5994 2.88946 28.5817C4.15218 29.8447 3.87158 32.9321 2.18794 36.3001C1.20582 35.0371 0.223701 33.7741 -1.03903 32.5111C-2.30175 31.2481 -3.56448 30.2657 -4.82721 29.2834C-4.12569 29.0027 -3.42418 28.5817 -2.86296 28.4414ZM-17.8754 49.3513C-19.1381 48.0883 -18.8575 45.0009 -17.1739 41.6329C-16.1917 42.8959 -15.2096 44.1589 -13.9469 45.4219C-12.6842 46.6849 -11.4214 47.8076 -10.1587 48.6496C-13.6663 50.474 -16.6127 50.6143 -17.8754 49.3513ZM2.88946 49.3513C1.62673 50.6143 -1.31963 50.3336 -4.96751 48.6496C-3.70478 47.6673 -2.44206 46.5446 -1.17933 45.4219C-0.618118 44.8606 -0.0569038 44.2992 0.364004 43.7379C0.925215 43.1766 0.784912 42.3345 0.223701 41.7732C-0.337511 41.2119 -1.17933 41.3522 -1.74054 41.9135C-2.16145 42.4749 -2.72266 42.8959 -3.14357 43.4572C-4.5466 44.8606 -6.08993 46.1236 -7.49296 47.1059C-8.89599 46.1236 -10.4393 44.8606 -11.8424 43.4572C-18.0157 37.2825 -19.9799 30.6868 -17.8754 28.5817C-17.4545 28.0204 -16.6127 27.7397 -15.4902 27.7397C-14.0872 27.7397 -12.123 28.3011 -10.1587 29.2834C-11.4214 30.2657 -12.6842 31.3884 -13.9469 32.5111C-14.5081 33.2128 -15.2096 33.9145 -15.7708 34.6161C-16.3321 35.1775 -16.1917 36.0195 -15.6305 36.5808C-15.0693 37.1422 -14.0872 37.0018 -13.6663 36.4405C-13.1051 35.7388 -12.5439 35.1775 -11.9827 34.6161C-10.5796 33.2128 -9.0363 31.9498 -7.63327 30.9674C-6.23024 31.9498 -4.6869 33.2128 -3.14357 34.6161C3.02976 40.6505 4.994 47.2463 2.88946 49.3513Z" fill="#ECECEC"/>
<path d="M-7.49999 41.24C-6.26287 41.24 -5.25999 40.2371 -5.25999 39C-5.25999 37.7629 -6.26287 36.76 -7.49999 36.76C-8.73711 36.76 -9.73999 37.7629 -9.73999 39C-9.73999 40.2371 -8.73711 41.24 -7.49999 41.24Z" fill="#ECECEC"/>
<rect x="38.5" y="138.5" width="67" height="67" rx="11.5" fill="#F9FBFF"/>
<rect x="38.5" y="138.5" width="67" height="67" rx="11.5" stroke="#ECECEC"/>
<path fill-rule="evenodd" clip-rule="evenodd" d="M69.916 158.491C71.3877 157.836 73.033 157.836 74.5047 158.491L74.5271 158.502L82.3957 162.188C82.4058 162.193 82.4158 162.197 82.4257 162.202C84.1885 163.085 85.2332 165.025 84.8887 167.105C84.2345 171.165 82.2534 179.169 74.9099 185.053L74.8963 185.064C73.2941 186.312 71.1266 186.312 69.5245 185.064L69.5107 185.053C62.1654 179.168 60.1852 171.161 59.5315 167.102C59.5269 167.073 59.5232 167.044 59.5205 167.015C59.3575 165.218 60.1585 163.102 62.1537 162.187L69.8864 158.505C69.8962 158.5 69.906 158.496 69.916 158.491ZM70.9648 160.811L63.2389 164.489L63.2191 164.499C62.4407 164.853 61.9776 165.763 62.0522 166.744C62.6749 170.577 64.513 177.782 71.0949 183.061C71.7743 183.586 72.6464 183.586 73.3258 183.061C79.9348 177.761 81.7609 170.517 82.3761 166.697L82.3771 166.691C82.5376 165.726 82.0657 164.876 81.299 164.485L73.4592 160.812C72.6538 160.457 71.7704 160.457 70.9648 160.811Z" fill="#ECECEC"/>
<path fill-rule="evenodd" clip-rule="evenodd" d="M78.0799 165.89C78.6428 166.311 78.7578 167.108 78.3368 167.671L72.6259 175.308C72.3868 175.627 72.0115 175.816 71.6122 175.818C71.2129 175.82 70.836 175.634 70.5941 175.316L67.396 171.116C66.9701 170.557 67.0783 169.759 67.6375 169.333C68.1967 168.907 68.9953 169.015 69.4211 169.574L71.5975 172.433L76.2984 166.147C76.7194 165.584 77.517 165.469 78.0799 165.89Z" fill="#ECECEC"/>
<g filter="url(#filter0_d_936_43194)">
<rect x="69" y="9" width="68" height="94" rx="12" fill="white"/>
<path d="M113.965 55.6H111C110.506 53.8 108.9 52.6 106.924 52.6C104.576 52.6 102.6 54.52 102.6 56.8C102.6 59.08 104.576 61 106.924 61C108.9 61 110.506 59.8 111 58H113.965C114.706 58 115.2 57.4 115.2 56.8C115.2 56.08 114.706 55.6 113.965 55.6ZM106.924 58.6C105.935 58.6 105.071 57.76 105.071 56.8C105.071 55.84 105.935 55 106.924 55C107.912 55 108.776 55.84 108.776 56.8C108.776 57.76 107.912 58.6 106.924 58.6Z" fill="url(#paint0_radial_936_43194)"/>
<path d="M100.009 55.4H91.1915C90.4766 55.4 90 56.1 90 56.8C90 57.64 90.5957 58.2 91.1915 58.2H100.009C100.723 58.2 101.2 57.5 101.2 56.8C101.2 55.96 100.604 55.4 100.009 55.4Z" fill="url(#paint1_radial_936_43194)"/>
<path d="M91.1915 38.6H100.009C100.723 38.6 101.2 37.9 101.2 37.2C101.2 36.5 100.604 35.8 100.009 35.8H91.1915C90.4766 35.8 90 36.5 90 37.2C90 37.9 90.5957 38.6 91.1915 38.6Z" fill="url(#paint2_radial_936_43194)"/>
<path d="M106.924 41.4C108.9 41.4 110.506 40.2 111 38.4H113.965C114.706 38.4 115.2 37.8 115.2 37.2C115.2 36.6 114.582 36 113.965 36H111C110.506 34.2 108.9 33 106.924 33C104.576 33 102.6 34.92 102.6 37.2C102.6 39.48 104.576 41.4 106.924 41.4ZM106.924 35.4C107.912 35.4 108.776 36.24 108.776 37.2C108.776 38.16 107.912 39 106.924 39C105.935 39 105.071 38.16 105.071 37.2C105.071 36.24 105.935 35.4 106.924 35.4Z" fill="url(#paint3_radial_936_43194)"/>
<path d="M91.2353 48.2H94.2C94.6941 49.88 96.3 51.2 98.2765 51.2C100.624 51.2 102.6 49.28 102.6 47C102.6 44.72 100.624 42.8 98.2765 42.8C96.3 42.8 94.6941 44 94.2 45.8H91.2353C90.4941 45.8 90 46.4 90 47C90 47.6 90.6176 48.2 91.2353 48.2ZM98.2765 45.2C99.2647 45.2 100.129 46.04 100.129 47C100.129 47.96 99.2647 48.8 98.2765 48.8C97.2882 48.8 96.4235 47.96 96.4235 47C96.4235 46.04 97.2882 45.2 98.2765 45.2Z" fill="url(#paint4_radial_936_43194)"/>
<path d="M113.996 45.6H105.204C104.482 45.6 104 46.3 104 47C104 47.7 104.602 48.4 105.204 48.4H113.996C114.718 48.4 115.2 47.7 115.2 47C115.2 46.3 114.718 45.6 113.996 45.6Z" fill="url(#paint5_radial_936_43194)"/>
<path d="M89.2717 78.9512V78.5176C89.2717 77.1816 89.6389 76.1445 90.3733 75.4062C91.1077 74.6641 92.0491 74.293 93.1975 74.293C94.3498 74.293 95.2932 74.6641 96.0276 75.4062C96.762 76.1445 97.1291 77.1816 97.1291 78.5176V78.9512C97.1291 80.2871 96.762 81.3262 96.0276 82.0684C95.2932 82.8066 94.3498 83.1758 93.1975 83.1758C92.0491 83.1758 91.1077 82.8066 90.3733 82.0684C89.6389 81.3262 89.2717 80.2871 89.2717 78.9512ZM90.4495 78.9512C90.4495 79.9668 90.6995 80.7598 91.1995 81.3301C91.7034 81.8965 92.3713 82.1797 93.2034 82.1797C94.0315 82.1797 94.6975 81.8965 95.2014 81.3301C95.7053 80.7598 95.9573 79.9668 95.9573 78.9512V78.5176C95.9573 77.502 95.7053 76.7109 95.2014 76.1445C94.6975 75.5742 94.0315 75.2891 93.2034 75.2891C92.3713 75.2891 91.7034 75.5742 91.1995 76.1445C90.6995 76.7109 90.4495 77.502 90.4495 78.5176V78.9512ZM99.0742 83V74.4688H102.104C103.096 74.4688 103.863 74.6973 104.406 75.1543C104.949 75.6113 105.221 76.2246 105.221 76.9941C105.221 77.7637 104.949 78.3828 104.406 78.8516C103.863 79.3203 103.096 79.5547 102.104 79.5547H100.24V83H99.0742ZM100.24 78.6055H102.104C102.834 78.6055 103.342 78.4512 103.627 78.1426C103.912 77.8301 104.055 77.4473 104.055 76.9941C104.055 76.541 103.912 76.166 103.627 75.8691C103.342 75.5684 102.834 75.418 102.104 75.418H100.24V78.6055ZM104.365 83L102.127 79.0684L103.322 78.9219L105.695 83H104.365ZM107.201 83V74.4688H108.724L111.496 80.8848C111.547 81.002 111.595 81.125 111.642 81.2539C111.693 81.3789 111.738 81.4961 111.777 81.6055H111.824C111.859 81.4961 111.9 81.3789 111.947 81.2539C111.994 81.125 112.043 81.002 112.094 80.8848L114.847 74.4688H116.4V83H115.275V76.7305C115.275 76.6133 115.277 76.4824 115.281 76.3379C115.289 76.1895 115.301 76.0566 115.316 75.9395H115.263C115.232 76.0566 115.189 76.1895 115.135 76.3379C115.084 76.4824 115.033 76.6133 114.982 76.7305L112.299 83H111.261L108.56 76.7305C108.51 76.6133 108.459 76.4824 108.408 76.3379C108.361 76.1895 108.324 76.0566 108.297 75.9395H108.244C108.256 76.0566 108.265 76.1895 108.273 76.3379C108.285 76.4824 108.291 76.6133 108.291 76.7305V83H107.201Z" fill="#04101C"/>
</g>
<rect x="304.5" y="287.5" width="67" height="67" rx="11.5" fill="#F9FBFF"/>
<rect x="304.5" y="287.5" width="67" height="67" rx="11.5" stroke="#ECECEC"/>
<path fill-rule="evenodd" clip-rule="evenodd" d="M336.758 307.043C343.547 306.477 349.266 311.585 349.409 318.171L349.409 318.199C349.409 320.501 348.688 322.653 347.41 324.5L347.397 324.518L340.937 333.519C340.925 333.536 340.911 333.554 340.898 333.571C339.413 335.429 336.492 335.543 335.066 333.513L328.604 324.51C326.919 322.122 326.034 319.107 326.75 315.916C327.632 311.131 331.804 307.609 336.719 307.047C336.732 307.045 336.745 307.044 336.758 307.043ZM336.989 309.578C333.055 310.036 329.896 312.836 329.249 316.398C329.246 316.416 329.242 316.434 329.238 316.452C328.699 318.827 329.332 321.124 330.681 323.039L337.147 332.047C337.491 332.54 338.35 332.655 338.892 332.003L345.323 323.043C346.318 321.601 346.861 319.958 346.864 318.213C346.746 313.149 342.346 309.142 336.989 309.578Z" fill="#ECECEC"/>
<path fill-rule="evenodd" clip-rule="evenodd" d="M337.955 315.782C336.619 315.782 335.537 316.864 335.537 318.2C335.537 319.536 336.619 320.618 337.955 320.618C339.29 320.618 340.373 319.536 340.373 318.2C340.373 316.864 339.29 315.782 337.955 315.782ZM332.991 318.2C332.991 315.459 335.214 313.236 337.955 313.236C340.696 313.236 342.918 315.459 342.918 318.2C342.918 320.941 340.696 323.164 337.955 323.164C335.214 323.164 332.991 320.941 332.991 318.2Z" fill="#ECECEC"/>
<path fill-rule="evenodd" clip-rule="evenodd" d="M337.955 315.782C336.619 315.782 335.537 316.864 335.537 318.2C335.537 319.536 336.619 320.618 337.955 320.618C339.29 320.618 340.373 319.536 340.373 318.2C340.373 316.864 339.29 315.782 337.955 315.782ZM332.991 318.2C332.991 315.459 335.214 313.236 337.955 313.236C340.696 313.236 342.918 315.459 342.918 318.2C342.918 320.941 340.696 323.164 337.955 323.164C335.214 323.164 332.991 320.941 332.991 318.2Z" fill="#ECECEC"/>
<path fill-rule="evenodd" clip-rule="evenodd" d="M337.955 315.782C336.619 315.782 335.537 316.864 335.537 318.2C335.537 319.536 336.619 320.618 337.955 320.618C339.29 320.618 340.373 319.536 340.373 318.2C340.373 316.864 339.29 315.782 337.955 315.782ZM332.991 318.2C332.991 315.459 335.214 313.236 337.955 313.236C340.696 313.236 342.918 315.459 342.918 318.2C342.918 320.941 340.696 323.164 337.955 323.164C335.214 323.164 332.991 320.941 332.991 318.2Z" fill="#ECECEC"/>
<rect x="19.5" y="437.5" width="67" height="67" rx="11.5" fill="#F9FBFF"/>
<rect x="19.5" y="437.5" width="67" height="67" rx="11.5" stroke="#ECECEC"/>
<path d="M61.4279 474.134C58.5025 474.134 55.995 476.502 55.995 479.567C55.995 482.493 58.3632 485 61.4279 485C64.3532 485 66.8607 482.632 66.8607 479.567C66.8607 476.502 64.4925 474.134 61.4279 474.134ZM61.4279 482.075C60.0348 482.075 58.7811 480.96 58.7811 479.428C58.7811 478.035 59.8955 476.781 61.4279 476.781C62.8209 476.781 64.0746 477.896 64.0746 479.428C64.0746 480.96 62.9602 482.075 61.4279 482.075Z" fill="#ECECEC"/>
<path d="M51.1194 468.701C51.2587 468.701 51.5373 468.701 51.6766 468.562L57.2488 465.776C58.2239 467.03 59.7562 467.866 61.4279 467.866C64.4925 467.726 66.8607 465.358 66.8607 462.433C66.8607 459.507 64.4925 457 61.4279 457C58.5025 457 55.995 459.368 55.995 462.433C55.995 462.711 55.995 462.99 56.1343 463.269L50.4229 466.055C49.7264 466.473 49.4478 467.308 49.8657 467.866C50.005 468.423 50.5622 468.701 51.1194 468.701ZM61.4279 459.786C62.8209 459.786 64.0746 460.9 64.0746 462.433C64.0746 463.826 62.9602 465.08 61.4279 465.08C60.0348 465.08 58.7811 463.965 58.7811 462.433C58.9204 460.9 60.0348 459.786 61.4279 459.786Z" fill="#ECECEC"/>
<path d="M55.2985 475.109L49.5871 472.323C49.7264 471.905 49.7264 471.488 49.7264 470.93C49.7264 468.005 47.3582 465.498 44.2935 465.498C41.2289 465.498 39 468.005 39 470.93C39 473.856 41.3682 476.363 44.4328 476.363C45.9652 476.363 47.3582 475.806 48.3333 474.692L54.1841 477.617C54.3234 477.756 54.602 477.756 54.7413 477.756C55.2985 477.756 55.7164 477.478 55.995 476.92C56.2736 476.363 55.995 475.527 55.2985 475.109ZM44.4328 473.577C42.9005 473.577 41.7861 472.323 41.7861 470.93C41.7861 469.537 42.9005 468.284 44.4328 468.284C45.8259 468.284 47.0796 469.398 47.0796 470.93C46.9403 472.323 45.8259 473.577 44.4328 473.577Z" fill="#ECECEC"/>
<rect x="6.5" y="290.5" width="67" height="67" rx="11.5" fill="#F9FBFF"/>
<rect x="6.5" y="290.5" width="67" height="67" rx="11.5" stroke="#ECECEC"/>
<path d="M29.02 338C28.32 338 27.76 337.72 27.2 337.3C26.5 336.6 26.36 335.62 26.64 334.78L28.04 330.44C27.06 328.48 26.5 326.24 26.5 324C26.5 316.3 32.8 310 40.5 310C48.2 310 54.5 316.3 54.5 324C54.5 331.7 48.2 338 40.5 338C38.26 338 36.02 337.44 34.06 336.46L29.72 337.86C29.58 338 29.3 338 29.02 338ZM34.9 333.66C36.58 334.64 38.54 335.2 40.5 335.2C46.66 335.2 51.7 330.16 51.7 324C51.7 317.84 46.66 312.8 40.5 312.8C34.34 312.8 29.3 317.84 29.3 324C29.3 325.96 29.86 327.92 30.84 329.6C30.98 329.88 31.12 330.3 30.98 330.72L29.58 335.06L33.92 333.66C33.92 333.66 34.7631 333.592 34.9 333.66Z" fill="#ECECEC"/>
<path d="M40.5 326.24C41.7371 326.24 42.74 325.237 42.74 324C42.74 322.763 41.7371 321.76 40.5 321.76C39.2629 321.76 38.26 322.763 38.26 324C38.26 325.237 39.2629 326.24 40.5 326.24Z" fill="#ECECEC"/>
<path d="M33.64 326.24C34.8771 326.24 35.88 325.237 35.88 324C35.88 322.763 34.8771 321.76 33.64 321.76C32.4029 321.76 31.4 322.763 31.4 324C31.4 325.237 32.4029 326.24 33.64 326.24Z" fill="#ECECEC"/>
<path d="M47.36 326.24C48.5971 326.24 49.6 325.237 49.6 324C49.6 322.763 48.5971 321.76 47.36 321.76C46.1229 321.76 45.12 322.763 45.12 324C45.12 325.237 46.1229 326.24 47.36 326.24Z" fill="#ECECEC"/>
<g filter="url(#filter1_d_936_43194)">
<rect x="134" y="287" width="130" height="110" rx="12" fill="white"/>
<path d="M213.061 319.679C210.853 316.703 208.254 313.984 205.266 311.914C203.318 310.49 200.59 310.749 198.771 312.561L194.354 316.961C192.665 318.644 192.405 321.362 193.704 323.303C193.834 323.433 193.964 323.692 194.224 323.821L186.039 331.975C185.39 332.622 185 333.528 185 334.564V338.706C185 339.094 185.13 339.353 185.39 339.612C185.65 339.871 185.909 340 186.299 340H190.456C191.496 340 192.405 339.612 193.055 338.965L201.239 330.81C201.499 330.94 201.629 331.069 201.889 331.199C203.837 332.493 206.566 332.234 208.254 330.552L212.671 326.151C214.23 324.339 214.49 321.621 213.061 319.679ZM210.593 324.339L206.176 328.74C205.266 329.646 203.967 329.775 203.058 329.128C202.538 328.74 202.149 328.481 201.629 328.092C201.109 327.704 200.33 327.704 199.94 328.222L190.976 337.153C190.716 337.411 190.456 337.541 190.197 337.541H187.338V334.693C187.338 334.434 187.468 334.176 187.728 333.917L196.692 324.986C197.212 324.468 197.212 323.821 196.822 323.303C196.562 322.786 196.173 322.268 195.913 321.75C195.263 320.844 195.393 319.55 196.302 318.773L200.719 314.373C201.109 313.855 201.759 313.596 202.408 313.596C202.928 313.596 203.318 313.726 203.707 313.984C206.566 315.926 208.904 318.385 210.853 321.103C211.632 322.139 211.502 323.433 210.593 324.339Z" fill="url(#paint6_radial_936_43194)"/>
<path d="M204.148 318.909C203.593 318.909 203.177 319.192 202.761 319.474C201.928 320.321 201.928 321.593 202.761 322.299C203.177 322.722 203.593 322.864 204.148 322.864C204.703 322.864 205.12 322.722 205.536 322.299C205.952 321.875 206.091 321.451 206.091 320.886C206.091 320.321 205.952 319.898 205.536 319.474C205.258 319.05 204.703 318.909 204.148 318.909Z" fill="url(#paint7_radial_936_43194)"/>
<path d="M155.859 356.951V356.518C155.859 355.182 156.226 354.145 156.96 353.406C157.695 352.664 158.636 352.293 159.784 352.293C160.937 352.293 161.88 352.664 162.614 353.406C163.349 354.145 163.716 355.182 163.716 356.518V356.951C163.716 358.287 163.349 359.326 162.614 360.068C161.88 360.807 160.937 361.176 159.784 361.176C158.636 361.176 157.695 360.807 156.96 360.068C156.226 359.326 155.859 358.287 155.859 356.951ZM157.036 356.951C157.036 357.967 157.286 358.76 157.786 359.33C158.29 359.896 158.958 360.18 159.79 360.18C160.618 360.18 161.284 359.896 161.788 359.33C162.292 358.76 162.544 357.967 162.544 356.951V356.518C162.544 355.502 162.292 354.711 161.788 354.145C161.284 353.574 160.618 353.289 159.79 353.289C158.958 353.289 158.29 353.574 157.786 354.145C157.286 354.711 157.036 355.502 157.036 356.518V356.951ZM166.065 357.977C166.065 358.629 166.249 359.16 166.616 359.57C166.987 359.98 167.597 360.207 168.444 360.25V355.516C167.597 355.559 166.987 355.785 166.616 356.195C166.249 356.605 166.065 357.137 166.065 357.789V357.977ZM171.954 357.789C171.954 357.137 171.769 356.605 171.397 356.195C171.03 355.785 170.421 355.559 169.569 355.516V360.25C170.421 360.207 171.03 359.98 171.397 359.57C171.769 359.16 171.954 358.629 171.954 357.977V357.789ZM168.444 361.176C167.319 361.137 166.45 360.834 165.837 360.268C165.224 359.697 164.917 358.934 164.917 357.977V357.789C164.917 356.832 165.224 356.07 165.837 355.504C166.45 354.934 167.319 354.629 168.444 354.59V352H169.569V354.59C170.698 354.629 171.569 354.934 172.183 355.504C172.796 356.07 173.102 356.832 173.102 357.789V357.977C173.102 358.934 172.796 359.697 172.183 360.268C171.569 360.834 170.698 361.137 169.569 361.176V363.438H168.444V361.176ZM174.749 361V354.766H175.862V358.738C175.862 358.855 175.86 358.988 175.856 359.137C175.856 359.285 175.854 359.42 175.85 359.541H175.897C175.952 359.436 176.012 359.324 176.079 359.207C176.145 359.09 176.221 358.973 176.307 358.855L179.243 354.766H180.374V361H179.255V357.033C179.255 356.912 179.257 356.777 179.26 356.629C179.264 356.477 179.27 356.34 179.278 356.219H179.214C179.163 356.32 179.104 356.432 179.038 356.553C178.971 356.674 178.897 356.793 178.815 356.91L175.88 361H174.749ZM187.762 362.582V361H182.383V354.766H183.508V360.115H186.731V354.766H187.856V360.115H188.793V362.582H187.762ZM190.053 361V354.766H191.166V358.738C191.166 358.855 191.164 358.988 191.16 359.137C191.16 359.285 191.158 359.42 191.155 359.541H191.201C191.256 359.436 191.317 359.324 191.383 359.207C191.449 359.09 191.526 358.973 191.612 358.855L194.547 354.766H195.678V361H194.559V357.033C194.559 356.912 194.561 356.777 194.565 356.629C194.569 356.477 194.574 356.34 194.582 356.219H194.518C194.467 356.32 194.408 356.432 194.342 356.553C194.276 356.674 194.201 356.793 194.119 356.91L191.184 361H190.053ZM197.336 359.166C197.336 358.529 197.609 358.035 198.156 357.684C198.707 357.332 199.42 357.156 200.295 357.156H201.965V356.711C201.965 356.336 201.848 356.037 201.613 355.814C201.383 355.592 200.988 355.48 200.43 355.48C199.875 355.48 199.475 355.576 199.229 355.768C198.982 355.955 198.859 356.182 198.859 356.447V356.477H197.734V356.447C197.734 355.936 197.979 355.498 198.467 355.135C198.955 354.771 199.619 354.59 200.459 354.59C201.295 354.59 201.941 354.77 202.398 355.129C202.859 355.484 203.09 356.012 203.09 356.711V359.594C203.09 359.848 203.111 360.088 203.154 360.314C203.197 360.537 203.258 360.734 203.336 360.906V361H202.252C202.189 360.902 202.133 360.773 202.082 360.613C202.031 360.453 202 360.295 201.988 360.139C201.824 360.4 201.551 360.629 201.168 360.824C200.785 361.02 200.295 361.117 199.697 361.117C199.025 361.117 198.463 360.949 198.01 360.613C197.561 360.277 197.336 359.795 197.336 359.166ZM198.461 359.107C198.461 359.459 198.582 359.732 198.824 359.928C199.066 360.123 199.445 360.221 199.961 360.221C200.477 360.221 200.939 360.072 201.35 359.775C201.76 359.479 201.965 359.164 201.965 358.832V357.953H200.424C199.783 357.953 199.295 358.057 198.959 358.264C198.627 358.467 198.461 358.748 198.461 359.107ZM206.717 355.65L206.611 358.135C206.564 359.186 206.42 359.947 206.177 360.42C205.939 360.893 205.527 361.129 204.941 361.129C204.797 361.129 204.67 361.119 204.56 361.1C204.451 361.084 204.359 361.059 204.285 361.023V360.057C204.351 360.084 204.42 360.104 204.49 360.115C204.564 360.127 204.648 360.133 204.742 360.133C205.039 360.133 205.244 359.98 205.357 359.676C205.474 359.367 205.549 358.803 205.58 357.982L205.72 354.766H210.531V361H209.406V355.65H206.717ZM213.671 354.766V356.893H215.482C216.259 356.893 216.857 357.076 217.275 357.443C217.697 357.807 217.908 358.303 217.908 358.932C217.908 359.557 217.697 360.059 217.275 360.438C216.857 360.812 216.259 361 215.482 361H212.546V354.766H213.671ZM215.476 357.783H213.671V360.115H215.476C215.957 360.115 216.292 360.004 216.484 359.781C216.679 359.559 216.777 359.275 216.777 358.932C216.777 358.596 216.679 358.32 216.484 358.105C216.292 357.891 215.957 357.783 215.476 357.783ZM219.408 354.766H220.533V357.379H223.837V354.766H224.962V361H223.837V358.27H220.533V361H219.408V354.766ZM228.097 354.766V356.893H229.907C230.685 356.893 231.282 357.076 231.7 357.443C232.122 357.807 232.333 358.303 232.333 358.932C232.333 359.557 232.122 360.059 231.7 360.438C231.282 360.812 230.685 361 229.907 361H226.972V354.766H228.097ZM229.901 357.783H228.097V360.115H229.901C230.382 360.115 230.718 360.004 230.909 359.781C231.105 359.559 231.202 359.275 231.202 358.932C231.202 358.596 231.105 358.32 230.909 358.105C230.718 357.891 230.382 357.783 229.901 357.783ZM233.183 361V354.766H234.308V361H233.183ZM236.317 361V354.766H237.43V358.738C237.43 358.855 237.429 358.988 237.425 359.137C237.425 359.285 237.423 359.42 237.419 359.541H237.466C237.52 359.436 237.581 359.324 237.647 359.207C237.714 359.09 237.79 358.973 237.876 358.855L240.811 354.766H241.942V361H240.823V357.033C240.823 356.912 240.825 356.777 240.829 356.629C240.833 356.477 240.839 356.34 240.846 356.219H240.782C240.731 356.32 240.673 356.432 240.606 356.553C240.54 356.674 240.466 356.793 240.384 356.91L237.448 361H236.317ZM239.13 352.867C239.423 352.867 239.663 352.789 239.85 352.633C240.038 352.473 240.198 352.213 240.331 351.854L241.192 352.357C240.997 352.834 240.72 353.184 240.36 353.406C240.001 353.629 239.591 353.74 239.13 353.74C238.665 353.74 238.255 353.631 237.899 353.412C237.544 353.189 237.264 352.838 237.061 352.357L237.929 351.842C238.061 352.213 238.22 352.477 238.403 352.633C238.591 352.789 238.833 352.867 239.13 352.867ZM153.251 370.766H158.753V377H157.628V371.65H154.376V377H153.251V370.766ZM160.769 379.438V370.766H161.788L161.841 371.621H161.864C162.052 371.352 162.335 371.123 162.714 370.936C163.093 370.744 163.536 370.648 164.044 370.648C164.919 370.648 165.618 370.945 166.142 371.539C166.669 372.129 166.933 372.879 166.933 373.789V373.977C166.933 374.883 166.669 375.633 166.142 376.227C165.618 376.82 164.919 377.117 164.044 377.117C163.536 377.117 163.105 377.035 162.749 376.871C162.394 376.707 162.109 376.49 161.894 376.221V379.438H160.769ZM161.894 375.084C162.034 375.373 162.267 375.631 162.591 375.857C162.915 376.08 163.31 376.191 163.775 376.191C164.466 376.191 164.972 375.98 165.292 375.559C165.616 375.133 165.779 374.605 165.779 373.977V373.789C165.779 373.156 165.616 372.629 165.292 372.207C164.972 371.785 164.466 371.574 163.775 371.574C163.31 371.574 162.915 371.688 162.591 371.914C162.271 372.137 162.038 372.393 161.894 372.682V375.084ZM168.21 373.977V373.789C168.21 372.848 168.495 372.08 169.065 371.486C169.64 370.889 170.397 370.59 171.339 370.59C172.284 370.59 173.011 370.869 173.519 371.428C174.026 371.982 174.28 372.734 174.28 373.684V374.146H168.878V373.25H173.149V373.221C173.149 372.721 173.007 372.311 172.722 371.99C172.436 371.67 171.979 371.51 171.351 371.51C170.69 371.51 170.19 371.729 169.851 372.166C169.511 372.604 169.341 373.145 169.341 373.789V373.977C169.341 374.621 169.519 375.162 169.874 375.6C170.233 376.037 170.786 376.256 171.532 376.256C171.985 376.256 172.376 376.17 172.704 375.998C173.032 375.822 173.296 375.615 173.495 375.377L174.222 375.975C174.003 376.268 173.663 376.541 173.202 376.795C172.745 377.049 172.188 377.176 171.532 377.176C170.458 377.176 169.636 376.879 169.065 376.285C168.495 375.688 168.21 374.918 168.21 373.977ZM181.048 378.582V377H176.026V378.582H174.995V376.115H182.085V378.582H181.048ZM177.245 371.65L177.151 373.766C177.12 374.484 177.075 375.014 177.016 375.354C176.962 375.689 176.88 375.975 176.77 376.209H175.604C175.745 376.021 175.856 375.752 175.938 375.4C176.024 375.045 176.085 374.453 176.12 373.625L176.249 370.766H181.147V377H180.016V371.65H177.245ZM182.975 373.977V373.789C182.975 372.848 183.258 372.08 183.825 371.486C184.395 370.889 185.178 370.59 186.174 370.59C187.096 370.59 187.795 370.814 188.272 371.264C188.752 371.709 188.993 372.209 188.993 372.764V372.793H187.879V372.758C187.879 372.426 187.745 372.135 187.475 371.885C187.209 371.635 186.776 371.51 186.174 371.51C185.471 371.51 184.954 371.729 184.622 372.166C184.29 372.604 184.124 373.145 184.124 373.789V373.977C184.124 374.621 184.29 375.162 184.622 375.6C184.954 376.033 185.471 376.25 186.174 376.25C186.776 376.25 187.209 376.127 187.475 375.881C187.745 375.635 187.879 375.342 187.879 375.002V374.973H188.993V375.002C188.993 375.553 188.752 376.053 188.272 376.502C187.795 376.951 187.096 377.176 186.174 377.176C185.178 377.176 184.395 376.879 183.825 376.285C183.258 375.688 182.975 374.918 182.975 373.977ZM189.748 371.65V370.766H195.315V371.65H193.094V377H191.969V371.65H189.748ZM196.293 375.166C196.293 374.529 196.566 374.035 197.113 373.684C197.664 373.332 198.377 373.156 199.252 373.156H200.922V372.711C200.922 372.336 200.805 372.037 200.57 371.814C200.34 371.592 199.945 371.48 199.387 371.48C198.832 371.48 198.432 371.576 198.186 371.768C197.939 371.955 197.816 372.182 197.816 372.447V372.477H196.691V372.447C196.691 371.936 196.936 371.498 197.424 371.135C197.912 370.771 198.576 370.59 199.416 370.59C200.252 370.59 200.898 370.77 201.355 371.129C201.816 371.484 202.047 372.012 202.047 372.711V375.594C202.047 375.848 202.068 376.088 202.111 376.314C202.154 376.537 202.215 376.734 202.293 376.906V377H201.209C201.146 376.902 201.09 376.773 201.039 376.613C200.988 376.453 200.957 376.295 200.945 376.139C200.781 376.4 200.508 376.629 200.125 376.824C199.742 377.02 199.252 377.117 198.654 377.117C197.982 377.117 197.42 376.949 196.967 376.613C196.518 376.277 196.293 375.795 196.293 375.166ZM197.418 375.107C197.418 375.459 197.539 375.732 197.781 375.928C198.023 376.123 198.402 376.221 198.918 376.221C199.434 376.221 199.896 376.072 200.307 375.775C200.717 375.479 200.922 375.164 200.922 374.832V373.953H199.381C198.74 373.953 198.252 374.057 197.916 374.264C197.584 374.467 197.418 374.748 197.418 375.107ZM204.045 377V370.766H207.168C207.879 370.766 208.433 370.904 208.832 371.182C209.234 371.455 209.435 371.871 209.435 372.43C209.435 372.777 209.332 373.068 209.125 373.303C208.918 373.537 208.64 373.695 208.293 373.777V373.795C208.715 373.857 209.047 374.012 209.289 374.258C209.531 374.5 209.652 374.811 209.652 375.189C209.652 375.76 209.441 376.205 209.019 376.525C208.597 376.842 208.039 377 207.344 377H204.045ZM205.17 373.391H207.168C207.57 373.391 207.859 373.311 208.035 373.15C208.211 372.99 208.299 372.77 208.299 372.488C208.299 372.215 208.211 372.008 208.035 371.867C207.859 371.727 207.57 371.654 207.168 371.65H205.17V373.391ZM205.17 376.115H207.344C207.75 376.115 208.047 376.031 208.234 375.863C208.426 375.695 208.521 375.469 208.521 375.184C208.521 374.906 208.428 374.686 208.24 374.521C208.053 374.354 207.754 374.27 207.344 374.27H205.17V376.115ZM211.363 377V370.766H212.476V374.738C212.476 374.855 212.474 374.988 212.47 375.137C212.47 375.285 212.468 375.42 212.464 375.541H212.511C212.566 375.436 212.626 375.324 212.693 375.207C212.759 375.09 212.835 374.973 212.921 374.855L215.857 370.766H216.988V377H215.869V373.033C215.869 372.912 215.871 372.777 215.875 372.629C215.878 372.477 215.884 372.34 215.892 372.219H215.828C215.777 372.32 215.718 372.432 215.652 372.553C215.585 372.674 215.511 372.793 215.429 372.91L212.494 377H211.363ZM218.306 371.65V370.766H223.872V371.65H221.652V377H220.527V371.65H218.306ZM224.833 373.977V373.789C224.833 372.848 225.118 372.08 225.689 371.486C226.263 370.889 227.021 370.59 227.962 370.59C228.907 370.59 229.634 370.869 230.142 371.428C230.649 371.982 230.903 372.734 230.903 373.684V374.146H225.501V373.25H229.773V373.221C229.773 372.721 229.63 372.311 229.345 371.99C229.06 371.67 228.603 371.51 227.974 371.51C227.314 371.51 226.814 371.729 226.474 372.166C226.134 372.604 225.964 373.145 225.964 373.789V373.977C225.964 374.621 226.142 375.162 226.497 375.6C226.856 376.037 227.409 376.256 228.155 376.256C228.608 376.256 228.999 376.17 229.327 375.998C229.655 375.822 229.919 375.615 230.118 375.377L230.845 375.975C230.626 376.268 230.286 376.541 229.825 376.795C229.368 377.049 228.812 377.176 228.155 377.176C227.081 377.176 226.259 376.879 225.689 376.285C225.118 375.688 224.833 374.918 224.833 373.977ZM234.067 371.65L233.962 374.135C233.915 375.186 233.77 375.947 233.528 376.42C233.29 376.893 232.878 377.129 232.292 377.129C232.147 377.129 232.02 377.119 231.911 377.1C231.802 377.084 231.71 377.059 231.636 377.023V376.057C231.702 376.084 231.77 376.104 231.841 376.115C231.915 376.127 231.999 376.133 232.093 376.133C232.389 376.133 232.595 375.98 232.708 375.676C232.825 375.367 232.899 374.803 232.93 373.982L233.071 370.766H237.882V377H236.757V371.65H234.067ZM241.022 370.766V372.893H242.833C243.61 372.893 244.208 373.076 244.626 373.443C245.047 373.807 245.258 374.303 245.258 374.932C245.258 375.557 245.047 376.059 244.626 376.438C244.208 376.812 243.61 377 242.833 377H239.897V370.766H241.022ZM242.827 373.783H241.022V376.115H242.827C243.307 376.115 243.643 376.004 243.835 375.781C244.03 375.559 244.128 375.275 244.128 374.932C244.128 374.596 244.03 374.32 243.835 374.105C243.643 373.891 243.307 373.783 242.827 373.783Z" fill="#04101C"/>
</g>
<rect x="304.5" y="137.5" width="67" height="67" rx="11.5" fill="#F9FBFF"/>
<rect x="304.5" y="137.5" width="67" height="67" rx="11.5" stroke="#ECECEC"/>
<path d="M332.372 168.484C331.804 167.924 330.952 167.924 330.384 168.484C329.816 169.044 329.816 169.884 330.384 170.443L336.206 176.602C336.49 176.882 336.916 177.022 337.2 177.022C337.626 177.022 338.052 176.882 338.194 176.462L352.109 159.246C352.535 158.686 352.535 157.706 351.825 157.287C351.399 156.867 350.547 156.867 349.979 157.566L347.139 161.066C344.583 158.546 340.892 157.007 337.2 157.007C329.39 157.007 323 163.305 323 171.003C323 178.701 329.39 185 337.2 185C345.009 185 351.399 178.701 351.399 171.003C351.399 169.744 351.257 168.484 350.831 167.224C350.547 166.524 349.837 166.104 349.127 166.244C348.417 166.384 347.991 167.224 348.133 167.924C348.417 168.904 348.559 170.024 348.559 171.003C348.559 177.162 343.447 182.201 337.2 182.201C330.952 182.201 325.84 177.162 325.84 171.003C325.84 164.845 330.952 159.806 337.2 159.806C340.324 159.806 343.164 161.066 345.435 163.305L337.2 173.523L332.372 168.484Z" fill="#ECECEC"/>
<rect x="187.5" y="136.5" width="67" height="67" rx="11.5" fill="#F9FBFF"/>
<rect x="187.5" y="136.5" width="67" height="67" rx="11.5" stroke="#ECECEC"/>
<path fill-rule="evenodd" clip-rule="evenodd" d="M229.03 156.487C230.293 157.178 231.2 158.549 231.2 160.2V174.48C231.2 177.822 227.499 179.802 224.778 177.859C224.748 177.838 224.718 177.814 224.689 177.79L223.196 176.53C223.174 176.512 223.153 176.493 223.133 176.474C221.985 175.381 220.554 174.7 218.982 174.449V179.94C218.982 182.161 217.358 184 215.138 184C212.873 184 211.295 181.972 211.295 179.94V174.183C208.276 173.494 206 170.636 206 167.34C206 165.484 206.655 163.697 208.056 162.413C209.188 161.258 210.741 160.34 212.695 160.34H217.541C219.689 160.21 221.681 159.475 223.185 158.298L224.634 156.939C224.662 156.913 224.691 156.887 224.722 156.863C226.081 155.785 227.746 155.785 229.03 156.487ZM226.5 159.028L225.056 160.382C225.028 160.408 224.999 160.433 224.968 160.457C222.956 162.053 220.366 162.983 217.662 163.138C217.635 163.139 217.609 163.14 217.582 163.14H212.695C211.68 163.14 210.8 163.605 210.034 164.395C210.013 164.417 209.99 164.439 209.967 164.46C209.22 165.134 208.8 166.132 208.8 167.34C208.8 169.711 210.68 171.54 212.695 171.54C213.468 171.54 214.095 172.167 214.095 172.94V179.94C214.095 180.709 214.688 181.2 215.138 181.2C215.634 181.2 216.182 180.799 216.182 179.94V172.94C216.182 172.167 216.809 171.54 217.582 171.54C220.337 171.54 222.988 172.486 225.032 174.416L226.443 175.607C227.251 176.141 228.4 175.6 228.4 174.48V160.2C228.4 159.611 228.085 159.162 227.686 158.943C227.318 158.742 226.895 158.736 226.5 159.028Z" fill="#ECECEC"/>
<path fill-rule="evenodd" clip-rule="evenodd" d="M235.4 163C236.173 163 236.8 163.627 236.8 164.4V170C236.8 170.773 236.173 171.4 235.4 171.4C234.627 171.4 234 170.773 234 170V164.4C234 163.627 234.627 163 235.4 163Z" fill="#ECECEC"/>
<g filter="url(#filter2_d_936_43194)">
<rect x="134" y="437" width="123" height="94" rx="12" fill="white"/>
<path d="M190.226 491C189.774 491 189.322 490.854 188.87 490.708C187.665 490.124 187.062 488.955 187.363 487.787L189.171 479.315H186.459C185.254 479.315 184.199 478.585 183.747 477.562C183.295 476.54 183.445 475.371 184.35 474.641L198.664 459.888C199.568 459.012 201.075 458.72 202.13 459.304C203.335 459.888 203.938 461.057 203.637 462.225L201.829 470.697H204.541C205.746 470.697 206.801 471.427 207.253 472.45C207.705 473.472 207.555 474.641 206.65 475.371L192.336 490.124C191.733 490.708 190.98 491 190.226 491ZM190.98 476.247C191.432 476.247 191.884 476.394 192.185 476.832C192.486 477.27 192.637 477.562 192.486 478L190.528 487.933L204.541 473.472H200.171C199.719 473.472 199.267 473.326 198.966 472.888C198.664 472.596 198.514 472.158 198.664 471.719L200.623 461.787L186.61 476.394L190.98 476.247Z" fill="url(#paint8_radial_936_43194)"/>
<path d="M152.016 511L155.508 502.41H156.645L160.137 511H158.907L156.393 504.602C156.326 504.441 156.268 504.289 156.217 504.145C156.17 504 156.127 503.854 156.088 503.705H156.024C155.985 503.854 155.94 504 155.889 504.145C155.842 504.289 155.785 504.441 155.719 504.602L153.188 511H152.016ZM153.487 508.797L153.868 507.836L158.262 507.842L158.637 508.803L153.487 508.797ZM165.428 511L162.727 508.146L163.418 507.414L166.863 511H165.428ZM161.572 507.385H162.803L165.217 504.766H166.547L163.266 508.27H161.572V507.385ZM162.135 504.766V511H161.016V504.766H162.135ZM167.244 505.65V504.766H172.81V505.65H170.59V511H169.465V505.65H167.244ZM173.589 513.438V512.482C173.707 512.514 173.834 512.539 173.97 512.559C174.111 512.578 174.246 512.588 174.375 512.588C174.691 512.588 174.957 512.5 175.171 512.324C175.39 512.148 175.638 511.695 175.916 510.965V510.959L173.32 504.766H174.451L176.115 508.873C176.177 509.029 176.234 509.182 176.285 509.33C176.339 509.479 176.386 509.623 176.425 509.764H176.461C176.5 509.623 176.546 509.479 176.601 509.33C176.656 509.182 176.712 509.029 176.771 508.873L178.359 504.766H179.455L176.595 511.82C176.369 512.367 176.08 512.793 175.728 513.098C175.38 513.402 174.953 513.555 174.445 513.555C174.273 513.555 174.119 513.545 173.982 513.525C173.845 513.506 173.714 513.477 173.589 513.438ZM180.228 509.166C180.228 508.529 180.501 508.035 181.048 507.684C181.599 507.332 182.312 507.156 183.187 507.156H184.857V506.711C184.857 506.336 184.74 506.037 184.505 505.814C184.275 505.592 183.88 505.48 183.322 505.48C182.767 505.48 182.367 505.576 182.12 505.768C181.874 505.955 181.751 506.182 181.751 506.447V506.477H180.626V506.447C180.626 505.936 180.87 505.498 181.359 505.135C181.847 504.771 182.511 504.59 183.351 504.59C184.187 504.59 184.833 504.77 185.29 505.129C185.751 505.484 185.982 506.012 185.982 506.711V509.594C185.982 509.848 186.003 510.088 186.046 510.314C186.089 510.537 186.15 510.734 186.228 510.906V511H185.144C185.081 510.902 185.025 510.773 184.974 510.613C184.923 510.453 184.892 510.295 184.88 510.139C184.716 510.4 184.443 510.629 184.06 510.824C183.677 511.02 183.187 511.117 182.589 511.117C181.917 511.117 181.355 510.949 180.902 510.613C180.452 510.277 180.228 509.795 180.228 509.166ZM181.353 509.107C181.353 509.459 181.474 509.732 181.716 509.928C181.958 510.123 182.337 510.221 182.853 510.221C183.369 510.221 183.831 510.072 184.242 509.775C184.652 509.479 184.857 509.164 184.857 508.832V507.953H183.316C182.675 507.953 182.187 508.057 181.851 508.264C181.519 508.467 181.353 508.748 181.353 509.107ZM189.609 505.65L189.503 508.135C189.456 509.186 189.312 509.947 189.069 510.42C188.831 510.893 188.419 511.129 187.833 511.129C187.689 511.129 187.562 511.119 187.452 511.1C187.343 511.084 187.251 511.059 187.177 511.023V510.057C187.243 510.084 187.312 510.104 187.382 510.115C187.456 510.127 187.54 510.133 187.634 510.133C187.931 510.133 188.136 509.98 188.249 509.676C188.366 509.367 188.441 508.803 188.472 507.982L188.612 504.766H193.423V511H192.298V505.65H189.609ZM195.438 511V504.766H196.552V508.738C196.552 508.855 196.55 508.988 196.546 509.137C196.546 509.285 196.544 509.42 196.54 509.541H196.587C196.641 509.436 196.702 509.324 196.768 509.207C196.835 509.09 196.911 508.973 196.997 508.855L199.932 504.766H201.063V511H199.944V507.033C199.944 506.912 199.946 506.777 199.95 506.629C199.954 506.477 199.96 506.34 199.968 506.219H199.903C199.852 506.32 199.794 506.432 199.727 506.553C199.661 506.674 199.587 506.793 199.505 506.91L196.569 511H195.438ZM205.575 511.176C204.567 511.176 203.823 510.963 203.342 510.537C202.866 510.111 202.628 509.607 202.628 509.025V508.996H203.717V509.025C203.717 509.35 203.852 509.635 204.122 509.881C204.395 510.127 204.876 510.25 205.563 510.25C206.153 510.25 206.596 510.154 206.893 509.963C207.19 509.771 207.339 509.508 207.339 509.172C207.339 508.887 207.227 508.666 207.005 508.51C206.786 508.35 206.438 508.27 205.962 508.27H204.579V507.391H205.856C206.298 507.391 206.622 507.311 206.829 507.15C207.036 506.99 207.139 506.77 207.139 506.488C207.139 506.172 207.014 505.93 206.764 505.762C206.518 505.594 206.147 505.51 205.651 505.51C205.026 505.51 204.569 505.629 204.28 505.867C203.991 506.105 203.846 506.396 203.846 506.74V506.77H202.756V506.74C202.756 506.123 203.003 505.611 203.495 505.205C203.987 504.795 204.704 504.59 205.645 504.59C206.501 504.59 207.153 504.75 207.602 505.07C208.051 505.391 208.276 505.832 208.276 506.395C208.276 506.734 208.163 507.029 207.936 507.279C207.714 507.525 207.409 507.691 207.022 507.777V507.795C207.471 507.857 207.825 508.01 208.083 508.252C208.344 508.49 208.475 508.805 208.475 509.195C208.475 509.812 208.212 510.297 207.684 510.648C207.157 511 206.454 511.176 205.575 511.176ZM209.829 509.166C209.829 508.529 210.102 508.035 210.649 507.684C211.2 507.332 211.912 507.156 212.787 507.156H214.457V506.711C214.457 506.336 214.34 506.037 214.106 505.814C213.875 505.592 213.481 505.48 212.922 505.48C212.368 505.48 211.967 505.576 211.721 505.768C211.475 505.955 211.352 506.182 211.352 506.447V506.477H210.227V506.447C210.227 505.936 210.471 505.498 210.959 505.135C211.448 504.771 212.112 504.59 212.952 504.59C213.787 504.59 214.434 504.77 214.891 505.129C215.352 505.484 215.582 506.012 215.582 506.711V509.594C215.582 509.848 215.604 510.088 215.647 510.314C215.69 510.537 215.75 510.734 215.829 510.906V511H214.745C214.682 510.902 214.625 510.773 214.575 510.613C214.524 510.453 214.493 510.295 214.481 510.139C214.317 510.4 214.043 510.629 213.661 510.824C213.278 511.02 212.787 511.117 212.19 511.117C211.518 511.117 210.955 510.949 210.502 510.613C210.053 510.277 209.829 509.795 209.829 509.166ZM210.954 509.107C210.954 509.459 211.075 509.732 211.317 509.928C211.559 510.123 211.938 510.221 212.454 510.221C212.969 510.221 213.432 510.072 213.842 509.775C214.252 509.479 214.457 509.164 214.457 508.832V507.953H212.916C212.276 507.953 211.787 508.057 211.452 508.264C211.12 508.467 210.954 508.748 210.954 509.107ZM222.959 512.582V511H217.58V504.766H218.705V510.115H221.928V504.766H223.053V510.115H223.99V512.582H222.959ZM225.25 511V504.766H226.363V508.738C226.363 508.855 226.361 508.988 226.357 509.137C226.357 509.285 226.355 509.42 226.351 509.541H226.398C226.453 509.436 226.514 509.324 226.58 509.207C226.646 509.09 226.723 508.973 226.809 508.855L229.744 504.766H230.875V511H229.756V507.033C229.756 506.912 229.758 506.777 229.762 506.629C229.766 506.477 229.771 506.34 229.779 506.219H229.715C229.664 506.32 229.605 506.432 229.539 506.553C229.473 506.674 229.398 506.793 229.316 506.91L226.381 511H225.25ZM233.728 511H232.48L234.484 508.34L235.615 508.439L233.728 511ZM236.968 511V508.75H235.211L235.082 508.68C234.316 508.68 233.728 508.508 233.318 508.164C232.908 507.816 232.703 507.35 232.703 506.764C232.703 506.158 232.91 505.674 233.324 505.311C233.738 504.947 234.332 504.766 235.105 504.766H238.099V511H236.968ZM235.111 507.859H236.968V505.65H235.111C234.642 505.65 234.312 505.756 234.121 505.967C233.933 506.178 233.84 506.443 233.84 506.764C233.84 507.088 233.933 507.352 234.121 507.555C234.308 507.758 234.638 507.859 235.111 507.859Z" fill="#04101C"/>
</g>
<g filter="url(#filter3_d_936_43194)">
<rect x="297" y="437" width="124" height="110" rx="12" fill="white"/>
<path d="M352.665 489C351.966 489 351.266 488.72 350.567 488.3C349.448 487.46 348.748 486.06 349.028 484.66L349.867 479.2L346.09 475.28C345.111 474.3 344.691 472.76 345.251 471.36C345.67 469.96 346.79 469.12 348.189 468.84L353.505 468L355.883 463.1C356.443 461.84 357.702 461 359.101 461C360.5 461 361.759 461.84 362.458 463.1L364.697 468L369.873 468.84C371.272 468.98 372.391 469.96 372.811 471.36C373.231 472.76 372.951 474.16 371.972 475.28L368.194 479.2L369.034 484.66C369.314 486.06 368.754 487.6 367.495 488.3C366.376 489.14 364.977 489.14 363.718 488.58L359.101 485.92L354.484 488.44C353.925 488.86 353.365 489 352.665 489ZM359.101 463.8C358.961 463.8 358.541 463.8 358.401 464.36L355.743 469.96C355.463 470.38 355.044 470.66 354.624 470.66L348.608 471.64C348.189 471.64 348.049 472.06 347.909 472.2C347.909 472.34 347.769 472.76 348.189 473.18L352.525 477.52C352.805 477.8 352.945 478.22 352.945 478.78L351.966 484.94C351.826 485.5 352.246 485.78 352.386 485.92C352.525 486.06 352.805 486.2 353.225 485.92L358.541 482.98C358.961 482.7 359.521 482.7 359.94 482.98L365.256 485.92C365.676 486.06 365.956 485.92 366.096 485.92C366.236 485.78 366.516 485.5 366.516 484.94L365.536 478.78C365.396 478.36 365.536 477.94 365.956 477.52L370.293 473.18C370.433 472.9 370.293 472.34 370.293 472.2C370.293 472.06 370.013 471.64 369.593 471.64L363.578 470.8C363.158 470.8 362.738 470.38 362.458 469.96L359.8 464.36C359.66 463.8 359.241 463.8 359.101 463.8Z" fill="url(#paint9_radial_936_43194)"/>
<path d="M316.058 506.951V506.518C316.058 505.182 316.425 504.145 317.159 503.406C317.894 502.664 318.835 502.293 319.984 502.293C321.136 502.293 322.079 502.664 322.814 503.406C323.548 504.145 323.915 505.182 323.915 506.518V506.951C323.915 508.287 323.548 509.326 322.814 510.068C322.079 510.807 321.136 511.176 319.984 511.176C318.835 511.176 317.894 510.807 317.159 510.068C316.425 509.326 316.058 508.287 316.058 506.951ZM317.236 506.951C317.236 507.967 317.486 508.76 317.986 509.33C318.489 509.896 319.157 510.18 319.989 510.18C320.818 510.18 321.484 509.896 321.987 509.33C322.491 508.76 322.743 507.967 322.743 506.951V506.518C322.743 505.502 322.491 504.711 321.987 504.145C321.484 503.574 320.818 503.289 319.989 503.289C319.157 503.289 318.489 503.574 317.986 504.145C317.486 504.711 317.236 505.502 317.236 506.518V506.951ZM326.265 507.977C326.265 508.629 326.448 509.16 326.815 509.57C327.186 509.98 327.796 510.207 328.644 510.25V505.516C327.796 505.559 327.186 505.785 326.815 506.195C326.448 506.605 326.265 507.137 326.265 507.789V507.977ZM332.153 507.789C332.153 507.137 331.968 506.605 331.597 506.195C331.229 505.785 330.62 505.559 329.769 505.516V510.25C330.62 510.207 331.229 509.98 331.597 509.57C331.968 509.16 332.153 508.629 332.153 507.977V507.789ZM328.644 511.176C327.519 511.137 326.649 510.834 326.036 510.268C325.423 509.697 325.116 508.934 325.116 507.977V507.789C325.116 506.832 325.423 506.07 326.036 505.504C326.649 504.934 327.519 504.629 328.644 504.59V502H329.769V504.59C330.897 504.629 331.769 504.934 332.382 505.504C332.995 506.07 333.302 506.832 333.302 507.789V507.977C333.302 508.934 332.995 509.697 332.382 510.268C331.769 510.834 330.897 511.137 329.769 511.176V513.438H328.644V511.176ZM334.948 511V504.766H336.061V508.738C336.061 508.855 336.059 508.988 336.055 509.137C336.055 509.285 336.053 509.42 336.05 509.541H336.096C336.151 509.436 336.212 509.324 336.278 509.207C336.344 509.09 336.421 508.973 336.507 508.855L339.442 504.766H340.573V511H339.454V507.033C339.454 506.912 339.456 506.777 339.46 506.629C339.464 506.477 339.469 506.34 339.477 506.219H339.413C339.362 506.32 339.303 506.432 339.237 506.553C339.171 506.674 339.096 506.793 339.014 506.91L336.079 511H334.948ZM347.961 512.582V511H342.582V504.766H343.707V510.115H346.93V504.766H348.055V510.115H348.993V512.582H347.961ZM350.252 511V504.766H351.365V508.738C351.365 508.855 351.364 508.988 351.36 509.137C351.36 509.285 351.358 509.42 351.354 509.541H351.401C351.455 509.436 351.516 509.324 351.582 509.207C351.649 509.09 351.725 508.973 351.811 508.855L354.746 504.766H355.877V511H354.758V507.033C354.758 506.912 354.76 506.777 354.764 506.629C354.768 506.477 354.774 506.34 354.781 506.219H354.717C354.666 506.32 354.608 506.432 354.541 506.553C354.475 506.674 354.401 506.793 354.319 506.91L351.383 511H350.252ZM357.535 509.166C357.535 508.529 357.809 508.035 358.355 507.684C358.906 507.332 359.619 507.156 360.494 507.156H362.164V506.711C362.164 506.336 362.047 506.037 361.812 505.814C361.582 505.592 361.188 505.48 360.629 505.48C360.074 505.48 359.674 505.576 359.428 505.768C359.182 505.955 359.059 506.182 359.059 506.447V506.477H357.934V506.447C357.934 505.936 358.178 505.498 358.666 505.135C359.154 504.771 359.818 504.59 360.658 504.59C361.494 504.59 362.141 504.77 362.598 505.129C363.059 505.484 363.289 506.012 363.289 506.711V509.594C363.289 509.848 363.311 510.088 363.354 510.314C363.396 510.537 363.457 510.734 363.535 510.906V511H362.451C362.389 510.902 362.332 510.773 362.281 510.613C362.23 510.453 362.199 510.295 362.188 510.139C362.023 510.4 361.75 510.629 361.367 510.824C360.984 511.02 360.494 511.117 359.896 511.117C359.225 511.117 358.662 510.949 358.209 510.613C357.76 510.277 357.535 509.795 357.535 509.166ZM358.66 509.107C358.66 509.459 358.781 509.732 359.023 509.928C359.266 510.123 359.645 510.221 360.16 510.221C360.676 510.221 361.139 510.072 361.549 509.775C361.959 509.479 362.164 509.164 362.164 508.832V507.953H360.623C359.982 507.953 359.494 508.057 359.158 508.264C358.826 508.467 358.66 508.748 358.66 509.107ZM366.916 505.65L366.81 508.135C366.763 509.186 366.619 509.947 366.377 510.42C366.138 510.893 365.726 511.129 365.14 511.129C364.996 511.129 364.869 511.119 364.76 511.1C364.65 511.084 364.558 511.059 364.484 511.023V510.057C364.551 510.084 364.619 510.104 364.689 510.115C364.763 510.127 364.847 510.133 364.941 510.133C365.238 510.133 365.443 509.98 365.556 509.676C365.674 509.367 365.748 508.803 365.779 507.982L365.92 504.766H370.73V511H369.605V505.65H366.916ZM373.871 504.766V506.893H375.681C376.459 506.893 377.056 507.076 377.474 507.443C377.896 507.807 378.107 508.303 378.107 508.932C378.107 509.557 377.896 510.059 377.474 510.438C377.056 510.812 376.459 511 375.681 511H372.746V504.766H373.871ZM375.675 507.783H373.871V510.115H375.675C376.156 510.115 376.492 510.004 376.683 509.781C376.878 509.559 376.976 509.275 376.976 508.932C376.976 508.596 376.878 508.32 376.683 508.105C376.492 507.891 376.156 507.783 375.675 507.783ZM379.607 504.766H380.732V507.379H384.036V504.766H385.161V511H384.036V508.27H380.732V511H379.607V504.766ZM388.296 504.766V506.893H390.106C390.884 506.893 391.481 507.076 391.899 507.443C392.321 507.807 392.532 508.303 392.532 508.932C392.532 509.557 392.321 510.059 391.899 510.438C391.481 510.812 390.884 511 390.106 511H387.171V504.766H388.296ZM390.101 507.783H388.296V510.115H390.101C390.581 510.115 390.917 510.004 391.108 509.781C391.304 509.559 391.401 509.275 391.401 508.932C391.401 508.596 391.304 508.32 391.108 508.105C390.917 507.891 390.581 507.783 390.101 507.783ZM393.382 511V504.766H394.507V511H393.382ZM396.147 507.977V507.789C396.147 506.848 396.432 506.08 397.003 505.486C397.577 504.889 398.335 504.59 399.276 504.59C400.221 504.59 400.948 504.869 401.456 505.428C401.964 505.982 402.218 506.734 402.218 507.684V508.146H396.815V507.25H401.087V507.221C401.087 506.721 400.944 506.311 400.659 505.99C400.374 505.67 399.917 505.51 399.288 505.51C398.628 505.51 398.128 505.729 397.788 506.166C397.448 506.604 397.278 507.145 397.278 507.789V507.977C397.278 508.621 397.456 509.162 397.811 509.6C398.171 510.037 398.723 510.256 399.47 510.256C399.923 510.256 400.313 510.17 400.641 509.998C400.97 509.822 401.233 509.615 401.432 509.377L402.159 509.975C401.94 510.268 401.6 510.541 401.139 510.795C400.682 511.049 400.126 511.176 399.47 511.176C398.395 511.176 397.573 510.879 397.003 510.285C396.432 509.688 396.147 508.918 396.147 507.977ZM337.582 523.977V523.789C337.582 522.848 337.877 522.08 338.466 521.486C339.06 520.889 339.853 520.59 340.845 520.59C341.834 520.59 342.625 520.889 343.218 521.486C343.812 522.08 344.109 522.848 344.109 523.789V523.977C344.109 524.918 343.812 525.688 343.218 526.285C342.625 526.879 341.834 527.176 340.845 527.176C339.853 527.176 339.06 526.879 338.466 526.285C337.877 525.688 337.582 524.918 337.582 523.977ZM338.73 523.789V523.977C338.73 524.617 338.908 525.156 339.263 525.594C339.619 526.031 340.146 526.25 340.845 526.25C341.545 526.25 342.07 526.031 342.421 525.594C342.777 525.156 342.955 524.617 342.955 523.977V523.789C342.955 523.145 342.777 522.605 342.421 522.172C342.07 521.734 341.545 521.516 340.845 521.516C340.146 521.516 339.619 521.734 339.263 522.172C338.908 522.605 338.73 523.145 338.73 523.789ZM345.058 521.65V520.766H350.624V521.65H348.404V527H347.279V521.65H345.058ZM351.954 527V520.766H355.077C355.788 520.766 356.343 520.904 356.741 521.182C357.144 521.455 357.345 521.871 357.345 522.43C357.345 522.777 357.241 523.068 357.034 523.303C356.827 523.537 356.55 523.695 356.202 523.777V523.795C356.624 523.857 356.956 524.012 357.198 524.258C357.441 524.5 357.562 524.811 357.562 525.189C357.562 525.76 357.351 526.205 356.929 526.525C356.507 526.842 355.948 527 355.253 527H351.954ZM353.079 523.391H355.077C355.48 523.391 355.769 523.311 355.944 523.15C356.12 522.99 356.208 522.77 356.208 522.488C356.208 522.215 356.12 522.008 355.944 521.867C355.769 521.727 355.48 521.654 355.077 521.65H353.079V523.391ZM353.079 526.115H355.253C355.659 526.115 355.956 526.031 356.144 525.863C356.335 525.695 356.431 525.469 356.431 525.184C356.431 524.906 356.337 524.686 356.15 524.521C355.962 524.354 355.663 524.27 355.253 524.27H353.079V526.115ZM358.903 523.977V523.789C358.903 522.848 359.188 522.08 359.759 521.486C360.333 520.889 361.091 520.59 362.032 520.59C362.977 520.59 363.704 520.869 364.212 521.428C364.72 521.982 364.974 522.734 364.974 523.684V524.146H359.571V523.25H363.843V523.221C363.843 522.721 363.7 522.311 363.415 521.99C363.13 521.67 362.673 521.51 362.044 521.51C361.384 521.51 360.884 521.729 360.544 522.166C360.204 522.604 360.034 523.145 360.034 523.789V523.977C360.034 524.621 360.212 525.162 360.567 525.6C360.927 526.037 361.479 526.256 362.225 526.256C362.679 526.256 363.069 526.17 363.397 525.998C363.725 525.822 363.989 525.615 364.188 525.377L364.915 525.975C364.696 526.268 364.356 526.541 363.895 526.795C363.438 527.049 362.882 527.176 362.225 527.176C361.151 527.176 360.329 526.879 359.759 526.285C359.188 525.688 358.903 524.918 358.903 523.977ZM365.817 521.65V520.766H371.383V521.65H369.163V527H368.038V521.65H365.817ZM373.838 520.766V522.893H375.649C376.426 522.893 377.024 523.076 377.442 523.443C377.864 523.807 378.075 524.303 378.075 524.932C378.075 525.557 377.864 526.059 377.442 526.438C377.024 526.812 376.426 527 375.649 527H372.713V520.766H373.838ZM375.643 523.783H373.838V526.115H375.643C376.123 526.115 376.459 526.004 376.651 525.781C376.846 525.559 376.944 525.275 376.944 524.932C376.944 524.596 376.846 524.32 376.651 524.105C376.459 523.891 376.123 523.783 375.643 523.783ZM378.924 527V520.766H380.049V527H378.924Z" fill="#04101C"/>
</g>
<rect x="305.5" y="17.5" width="67" height="67" rx="11.5" fill="#F9FBFF"/>
<rect x="305.5" y="17.5" width="67" height="67" rx="11.5" stroke="#ECECEC"/>
<path d="M332.355 39H327.409C324.473 39 322 41.25 322 44.1V49.2C322 52.05 324.473 54.3 327.409 54.3H330.964C331.891 54.3 332.509 53.7 332.509 52.8C332.509 51.9 331.891 51.3 330.964 51.3H327.409C326.173 51.3 325.091 50.4 325.091 49.2V44.1C325.091 42.9 326.173 42 327.409 42H332.355C333.591 42 334.673 42.9 334.673 44.1V56.55C334.673 58.5 333.127 60 331.118 60H328.645C327.718 60 327.1 60.6 327.1 61.5C327.1 62.4 327.718 63 328.645 63H331.118C334.827 63 337.764 60.15 337.764 56.55V44.1C337.764 41.25 335.291 39 332.355 39Z" fill="#ECECEC"/>
<path d="M350.591 39H345.645C342.709 39 340.236 41.25 340.236 44.1V49.2C340.236 52.05 342.709 54.3 345.645 54.3H349.2C350.127 54.3 350.745 53.7 350.745 52.8C350.745 51.9 350.127 51.3 349.2 51.3H345.645C344.409 51.3 343.327 50.4 343.327 49.2V44.1C343.327 42.9 344.409 42 345.645 42H350.591C351.827 42 352.909 42.9 352.909 44.1V56.55C352.909 58.5 351.364 60 349.355 60H346.882C345.955 60 345.336 60.6 345.336 61.5C345.336 62.4 345.955 63 346.882 63H349.355C353.064 63 356 60.15 356 56.55V44.1C356 41.25 353.527 39 350.591 39Z" fill="#ECECEC"/>
<path d="M255 52L305 52" stroke="#ECECEC"/>
<path d="M372 192L449 192" stroke="#ECECEC"/>
<path d="M332 205L332 287" stroke="#ECECEC"/>
<path d="M349 205V231.907C349 240.744 356.163 247.907 365 247.907H438C446.837 247.907 454 255.07 454 263.907V287" stroke="#ECECEC"/>
<path d="M476 -62V-50.0058C476 -41.1693 468.837 -34.0058 460 -34.0058H412C403.163 -34.0058 396 -26.8424 396 -18.0058V150C396 158.837 388.837 166 380 166H371.5" stroke="#ECECEC"/>
<path d="M372 180L418.019 180C426.817 180 433.93 172.868 433.93 164.045L433.93 73" stroke="#ECECEC"/>
<path d="M83 9L83 -60.0002" stroke="#ECECEC"/>
<path d="M117 9.99983L117 3.49914C117.001 -5.3372 124.164 -12.5003 133 -12.5003L367.999 -12.5002C376.836 -12.5002 383.999 -5.3368 383.999 3.49976L383.999 139C383.999 145.903 378.403 151.5 371.499 151.5V151.5" stroke="#ECECEC"/>
<path d="M50 358L50 437" stroke="#ECECEC"/>
<path d="M169 397L169 437" stroke="url(#paint10_linear_936_43194)" stroke-width="2"/>
<path d="M181 397L181 413.025C181 419.01 186.114 423.109 193.582 423.109L326.418 423.109C333.886 423.109 339 427.208 339 433.193L339 437.042" stroke="url(#paint11_linear_936_43194)" stroke-width="2"/>
<path d="M264 322L268.501 322C277.337 322 284.501 329.164 284.501 338L284.501 368.501C284.501 377.337 291.664 384.501 300.501 384.501L493.001 384.5C501.837 384.5 509.001 391.664 509.001 400.5L509 437" stroke="url(#paint12_linear_936_43194)" stroke-width="2"/>
<path d="M31 358L31 393.162C31 401.998 23.8366 409.162 15 409.162L-40 409.162C-48.8366 409.162 -56 416.325 -56 425.162L-56 437" stroke="#ECECEC"/>
<path d="M-50 -227H-8C0.836553 -227 8 -219.837 8 -211L8 5" stroke="#ECECEC"/>
<path d="M187 52L137 52" stroke="#ECECEC"/>
<path d="M69 52L26 52" stroke="#ECECEC"/>
<path d="M69 64H64.8374C56.0008 64 48.8374 71.1634 48.8374 80V100.136C48.8374 108.973 41.674 116.136 32.8374 116.136H-39C-47.8366 116.136 -55 123.3 -55 132.136V138" stroke="#ECECEC"/>
<path d="M89 77L89 138" stroke="#ECECEC"/>
<path d="M137 58.0003L153 58.0003C161.836 58.0003 169 65.1638 169 74.0003L169 287.001" stroke="url(#paint13_linear_936_43194)" stroke-width="2"/>
<path d="M137 64V64C145.837 64 153 71.1634 153 80V251.349C153 260.185 145.837 267.349 137 267.349H67C58.1634 267.349 51 274.512 51 283.349V290" stroke="#ECECEC"/>
<path d="M221 17L221 -55" stroke="#ECECEC"/>
<path d="M221 85L221 137" stroke="#ECECEC"/>
</g>
<defs>
<filter id="filter0_d_936_43194" x="60" y="1" width="88" height="114" filterUnits="userSpaceOnUse" color-interpolation-filters="sRGB">
<feFlood flood-opacity="0" result="BackgroundImageFix"/>
<feColorMatrix in="SourceAlpha" type="matrix" values="0 0 0 0 0 0 0 0 0 0 0 0 0 0 0 0 0 0 127 0" result="hardAlpha"/>
<feOffset dx="1" dy="2"/>
<feGaussianBlur stdDeviation="5"/>
<feComposite in2="hardAlpha" operator="out"/>
<feColorMatrix type="matrix" values="0 0 0 0 0.00780001 0 0 0 0 0.045344 0 0 0 0 0.0800001 0 0 0 0.04 0"/>
<feBlend mode="normal" in2="BackgroundImageFix" result="effect1_dropShadow_936_43194"/>
<feBlend mode="normal" in="SourceGraphic" in2="effect1_dropShadow_936_43194" result="shape"/>
</filter>
<filter id="filter1_d_936_43194" x="125" y="279" width="150" height="130" filterUnits="userSpaceOnUse" color-interpolation-filters="sRGB">
<feFlood flood-opacity="0" result="BackgroundImageFix"/>
<feColorMatrix in="SourceAlpha" type="matrix" values="0 0 0 0 0 0 0 0 0 0 0 0 0 0 0 0 0 0 127 0" result="hardAlpha"/>
<feOffset dx="1" dy="2"/>
<feGaussianBlur stdDeviation="5"/>
<feComposite in2="hardAlpha" operator="out"/>
<feColorMatrix type="matrix" values="0 0 0 0 0.00780001 0 0 0 0 0.045344 0 0 0 0 0.0800001 0 0 0 0.04 0"/>
<feBlend mode="normal" in2="BackgroundImageFix" result="effect1_dropShadow_936_43194"/>
<feBlend mode="normal" in="SourceGraphic" in2="effect1_dropShadow_936_43194" result="shape"/>
</filter>
<filter id="filter2_d_936_43194" x="125" y="429" width="143" height="114" filterUnits="userSpaceOnUse" color-interpolation-filters="sRGB">
<feFlood flood-opacity="0" result="BackgroundImageFix"/>
<feColorMatrix in="SourceAlpha" type="matrix" values="0 0 0 0 0 0 0 0 0 0 0 0 0 0 0 0 0 0 127 0" result="hardAlpha"/>
<feOffset dx="1" dy="2"/>
<feGaussianBlur stdDeviation="5"/>
<feComposite in2="hardAlpha" operator="out"/>
<feColorMatrix type="matrix" values="0 0 0 0 0.00780001 0 0 0 0 0.045344 0 0 0 0 0.0800001 0 0 0 0.04 0"/>
<feBlend mode="normal" in2="BackgroundImageFix" result="effect1_dropShadow_936_43194"/>
<feBlend mode="normal" in="SourceGraphic" in2="effect1_dropShadow_936_43194" result="shape"/>
</filter>
<filter id="filter3_d_936_43194" x="288" y="429" width="144" height="130" filterUnits="userSpaceOnUse" color-interpolation-filters="sRGB">
<feFlood flood-opacity="0" result="BackgroundImageFix"/>
<feColorMatrix in="SourceAlpha" type="matrix" values="0 0 0 0 0 0 0 0 0 0 0 0 0 0 0 0 0 0 127 0" result="hardAlpha"/>
<feOffset dx="1" dy="2"/>
<feGaussianBlur stdDeviation="5"/>
<feComposite in2="hardAlpha" operator="out"/>
<feColorMatrix type="matrix" values="0 0 0 0 0.00780001 0 0 0 0 0.045344 0 0 0 0 0.0800001 0 0 0 0.04 0"/>
<feBlend mode="normal" in2="BackgroundImageFix" result="effect1_dropShadow_936_43194"/>
<feBlend mode="normal" in="SourceGraphic" in2="effect1_dropShadow_936_43194" result="shape"/>
</filter>
<radialGradient id="paint0_radial_936_43194" cx="0" cy="0" r="1" gradientUnits="userSpaceOnUse" gradientTransform="translate(102.6 47) rotate(98.7708) scale(17.7071 16.0233)">
<stop offset="0.055" stop-color="#7A73FF"/>
<stop offset="0.65" stop-color="#67DDFA"/>
<stop offset="1" stop-color="#4AFCF1"/>
</radialGradient>
<radialGradient id="paint1_radial_936_43194" cx="0" cy="0" r="1" gradientUnits="userSpaceOnUse" gradientTransform="translate(102.6 47) rotate(98.7708) scale(17.7071 16.0233)">
<stop offset="0.055" stop-color="#7A73FF"/>
<stop offset="0.65" stop-color="#67DDFA"/>
<stop offset="1" stop-color="#4AFCF1"/>
</radialGradient>
<radialGradient id="paint2_radial_936_43194" cx="0" cy="0" r="1" gradientUnits="userSpaceOnUse" gradientTransform="translate(102.6 47) rotate(98.7708) scale(17.7071 16.0233)">
<stop offset="0.055" stop-color="#7A73FF"/>
<stop offset="0.65" stop-color="#67DDFA"/>
<stop offset="1" stop-color="#4AFCF1"/>
</radialGradient>
<radialGradient id="paint3_radial_936_43194" cx="0" cy="0" r="1" gradientUnits="userSpaceOnUse" gradientTransform="translate(102.6 47) rotate(98.7708) scale(17.7071 16.0233)">
<stop offset="0.055" stop-color="#7A73FF"/>
<stop offset="0.65" stop-color="#67DDFA"/>
<stop offset="1" stop-color="#4AFCF1"/>
</radialGradient>
<radialGradient id="paint4_radial_936_43194" cx="0" cy="0" r="1" gradientUnits="userSpaceOnUse" gradientTransform="translate(102.6 47) rotate(98.7708) scale(17.7071 16.0233)">
<stop offset="0.055" stop-color="#7A73FF"/>
<stop offset="0.65" stop-color="#67DDFA"/>
<stop offset="1" stop-color="#4AFCF1"/>
</radialGradient>
<radialGradient id="paint5_radial_936_43194" cx="0" cy="0" r="1" gradientUnits="userSpaceOnUse" gradientTransform="translate(102.6 47) rotate(98.7708) scale(17.7071 16.0233)">
<stop offset="0.055" stop-color="#7A73FF"/>
<stop offset="0.65" stop-color="#67DDFA"/>
<stop offset="1" stop-color="#4AFCF1"/>
</radialGradient>
<radialGradient id="paint6_radial_936_43194" cx="0" cy="0" r="1" gradientUnits="userSpaceOnUse" gradientTransform="translate(199.5 325.5) rotate(99.7276) scale(18.3894 18.3894)">
<stop offset="0.055" stop-color="#7A73FF"/>
<stop offset="0.65" stop-color="#67DDFA"/>
<stop offset="1" stop-color="#4AFCF1"/>
</radialGradient>
<radialGradient id="paint7_radial_936_43194" cx="0" cy="0" r="1" gradientUnits="userSpaceOnUse" gradientTransform="translate(199.5 325.5) rotate(99.7276) scale(18.3894 18.3894)">
<stop offset="0.055" stop-color="#7A73FF"/>
<stop offset="0.65" stop-color="#67DDFA"/>
<stop offset="1" stop-color="#4AFCF1"/>
</radialGradient>
<radialGradient id="paint8_radial_936_43194" cx="0" cy="0" r="1" gradientUnits="userSpaceOnUse" gradientTransform="translate(195.5 475) rotate(97.3264) scale(20.1646 15.3148)">
<stop offset="0.055" stop-color="#7A73FF"/>
<stop offset="0.65" stop-color="#67DDFA"/>
<stop offset="1" stop-color="#4AFCF1"/>
</radialGradient>
<radialGradient id="paint9_radial_936_43194" cx="0" cy="0" r="1" gradientUnits="userSpaceOnUse" gradientTransform="translate(359 475) rotate(99.7276) scale(17.7553)">
<stop offset="0.055" stop-color="#7A73FF"/>
<stop offset="0.65" stop-color="#67DDFA"/>
<stop offset="1" stop-color="#4AFCF1"/>
</radialGradient>
<linearGradient id="paint10_linear_936_43194" x1="170" y1="459.5" x2="163.239" y2="459.01" gradientUnits="userSpaceOnUse">
<stop offset="0.338542" stop-color="#7A73FF"/>
<stop offset="0.734375" stop-color="#75CDFF"/>
<stop offset="1" stop-color="#4AFCF1"/>
</linearGradient>
<linearGradient id="paint11_linear_936_43194" x1="454.668" y1="411.844" x2="343.522" y2="561.228" gradientUnits="userSpaceOnUse">
<stop offset="0.338542" stop-color="#7A73FF"/>
<stop offset="0.734375" stop-color="#75CDFF"/>
<stop offset="1" stop-color="#4AFCF1"/>
</linearGradient>
<linearGradient id="paint12_linear_936_43194" x1="697.644" y1="370.597" x2="329.529" y2="564.227" gradientUnits="userSpaceOnUse">
<stop offset="0.338542" stop-color="#7A73FF"/>
<stop offset="0.734375" stop-color="#75CDFF"/>
<stop offset="1" stop-color="#4AFCF1"/>
</linearGradient>
<linearGradient id="paint13_linear_936_43194" x1="335.499" y1="370.121" x2="16.274" y2="231.804" gradientUnits="userSpaceOnUse">
<stop offset="0.338542" stop-color="#7A73FF"/>
<stop offset="0.734375" stop-color="#75CDFF"/>
<stop offset="1" stop-color="#4AFCF1"/>
</linearGradient>
<clipPath id="clip0_936_43194">
<rect width="788" height="582" fill="white" transform="translate(-207)"/>
</clipPath>
</defs>
</svg>
