<svg width="380" height="482" viewBox="0 0 380 482" fill="none" xmlns="http://www.w3.org/2000/svg">
<g clip-path="url(#clip0_936_43191)">
<rect x="254.5" y="51.5" width="67" height="67" rx="11.5" fill="#F9FBFF"/>
<rect x="254.5" y="51.5" width="67" height="67" rx="11.5" stroke="#ECECEC"/>
<path fill-rule="evenodd" clip-rule="evenodd" d="M288 101C296.837 101 304 93.8366 304 85C304 79.8664 301.582 75.2975 297.823 72.3697L295.181 70.6982C293.022 69.6117 290.582 69 288 69C279.163 69 272 76.1634 272 85C272 93.8366 279.163 101 288 101ZM295.181 70.6982V78.2921C293.317 76.2021 290.622 74.889 287.625 74.889C281.999 74.889 277.437 79.517 277.437 85.2258C277.437 90.9347 281.999 95.5627 287.625 95.5627C290.622 95.5627 293.317 94.2496 295.181 92.1596L295.107 94.3112C295.097 94.6136 295.339 94.8644 295.642 94.8644H297.358C297.654 94.8644 297.893 94.6239 297.892 94.3279L297.823 72.3697L295.181 70.6982ZM295.606 85.2258C295.606 89.5251 292.166 93.0104 287.922 93.0104C283.679 93.0104 280.239 89.5251 280.239 85.2258C280.239 80.9266 283.679 77.4413 287.922 77.4413C292.166 77.4413 295.606 80.9266 295.606 85.2258Z" fill="#ECECEC"/>
<rect x="105.5" y="172.5" width="67" height="67" rx="11.5" fill="#F9FBFF"/>
<rect x="105.5" y="172.5" width="67" height="67" rx="11.5" stroke="#ECECEC"/>
<path fill-rule="evenodd" clip-rule="evenodd" d="M136.916 192.491C138.388 191.836 140.033 191.836 141.505 192.491L141.527 192.502L149.396 196.188C149.406 196.193 149.416 196.197 149.426 196.202C151.189 197.085 152.233 199.025 151.889 201.105C151.234 205.165 149.253 213.169 141.91 219.053L141.896 219.064C140.294 220.312 138.127 220.312 136.524 219.064L136.511 219.053C129.165 213.168 127.185 205.161 126.532 201.102C126.527 201.073 126.523 201.044 126.521 201.015C126.358 199.218 127.158 197.102 129.154 196.187L136.886 192.505C136.896 192.5 136.906 192.496 136.916 192.491ZM137.965 194.811L130.239 198.489L130.219 198.499C129.441 198.853 128.978 199.763 129.052 200.744C129.675 204.577 131.513 211.782 138.095 217.061C138.774 217.586 139.646 217.586 140.326 217.061C146.935 211.761 148.761 204.517 149.376 200.697L149.377 200.691C149.538 199.726 149.066 198.876 148.299 198.485L140.459 194.812C139.654 194.457 138.77 194.457 137.965 194.811Z" fill="#ECECEC"/>
<path fill-rule="evenodd" clip-rule="evenodd" d="M145.08 199.89C145.643 200.311 145.758 201.108 145.337 201.671L139.626 209.308C139.387 209.627 139.011 209.816 138.612 209.818C138.213 209.82 137.836 209.634 137.594 209.316L134.396 205.116C133.97 204.557 134.078 203.759 134.638 203.333C135.197 202.907 135.995 203.015 136.421 203.574L138.598 206.433L143.298 200.147C143.719 199.584 144.517 199.469 145.08 199.89Z" fill="#ECECEC"/>
<g filter="url(#filter0_d_936_43191)">
<rect x="136" y="39" width="68" height="94" rx="12" fill="white"/>
<path d="M180.965 85.6H178C177.506 83.8 175.9 82.6 173.924 82.6C171.576 82.6 169.6 84.52 169.6 86.8C169.6 89.08 171.576 91 173.924 91C175.9 91 177.506 89.8 178 88H180.965C181.706 88 182.2 87.4 182.2 86.8C182.2 86.08 181.706 85.6 180.965 85.6ZM173.924 88.6C172.935 88.6 172.071 87.76 172.071 86.8C172.071 85.84 172.935 85 173.924 85C174.912 85 175.776 85.84 175.776 86.8C175.776 87.76 174.912 88.6 173.924 88.6Z" fill="url(#paint0_radial_936_43191)"/>
<path d="M167.009 85.4H158.191C157.477 85.4 157 86.1 157 86.8C157 87.64 157.596 88.2 158.191 88.2H167.009C167.723 88.2 168.2 87.5 168.2 86.8C168.2 85.96 167.604 85.4 167.009 85.4Z" fill="url(#paint1_radial_936_43191)"/>
<path d="M158.191 68.6H167.009C167.723 68.6 168.2 67.9 168.2 67.2C168.2 66.5 167.604 65.8 167.009 65.8H158.191C157.477 65.8 157 66.5 157 67.2C157 67.9 157.596 68.6 158.191 68.6Z" fill="url(#paint2_radial_936_43191)"/>
<path d="M173.924 71.4C175.9 71.4 177.506 70.2 178 68.4H180.965C181.706 68.4 182.2 67.8 182.2 67.2C182.2 66.6 181.582 66 180.965 66H178C177.506 64.2 175.9 63 173.924 63C171.576 63 169.6 64.92 169.6 67.2C169.6 69.48 171.576 71.4 173.924 71.4ZM173.924 65.4C174.912 65.4 175.776 66.24 175.776 67.2C175.776 68.16 174.912 69 173.924 69C172.935 69 172.071 68.16 172.071 67.2C172.071 66.24 172.935 65.4 173.924 65.4Z" fill="url(#paint3_radial_936_43191)"/>
<path d="M158.235 78.2H161.2C161.694 79.88 163.3 81.2 165.276 81.2C167.624 81.2 169.6 79.28 169.6 77C169.6 74.72 167.624 72.8 165.276 72.8C163.3 72.8 161.694 74 161.2 75.8H158.235C157.494 75.8 157 76.4 157 77C157 77.6 157.618 78.2 158.235 78.2ZM165.276 75.2C166.265 75.2 167.129 76.04 167.129 77C167.129 77.96 166.265 78.8 165.276 78.8C164.288 78.8 163.424 77.96 163.424 77C163.424 76.04 164.288 75.2 165.276 75.2Z" fill="url(#paint4_radial_936_43191)"/>
<path d="M180.996 75.6H172.204C171.482 75.6 171 76.3 171 77C171 77.7 171.602 78.4 172.204 78.4H180.996C181.718 78.4 182.2 77.7 182.2 77C182.2 76.3 181.718 75.6 180.996 75.6Z" fill="url(#paint5_radial_936_43191)"/>
<path d="M156.272 108.951V108.518C156.272 107.182 156.639 106.145 157.373 105.406C158.108 104.664 159.049 104.293 160.198 104.293C161.35 104.293 162.293 104.664 163.028 105.406C163.762 106.145 164.129 107.182 164.129 108.518V108.951C164.129 110.287 163.762 111.326 163.028 112.068C162.293 112.807 161.35 113.176 160.198 113.176C159.049 113.176 158.108 112.807 157.373 112.068C156.639 111.326 156.272 110.287 156.272 108.951ZM157.449 108.951C157.449 109.967 157.699 110.76 158.199 111.33C158.703 111.896 159.371 112.18 160.203 112.18C161.031 112.18 161.698 111.896 162.201 111.33C162.705 110.76 162.957 109.967 162.957 108.951V108.518C162.957 107.502 162.705 106.711 162.201 106.145C161.698 105.574 161.031 105.289 160.203 105.289C159.371 105.289 158.703 105.574 158.199 106.145C157.699 106.711 157.449 107.502 157.449 108.518V108.951ZM166.074 113V104.469H169.104C170.096 104.469 170.863 104.697 171.406 105.154C171.949 105.611 172.221 106.225 172.221 106.994C172.221 107.764 171.949 108.383 171.406 108.852C170.863 109.32 170.096 109.555 169.104 109.555H167.24V113H166.074ZM167.24 108.605H169.104C169.834 108.605 170.342 108.451 170.627 108.143C170.912 107.83 171.055 107.447 171.055 106.994C171.055 106.541 170.912 106.166 170.627 105.869C170.342 105.568 169.834 105.418 169.104 105.418H167.24V108.605ZM171.365 113L169.127 109.068L170.322 108.922L172.695 113H171.365ZM174.201 113V104.469H175.724L178.496 110.885C178.547 111.002 178.595 111.125 178.642 111.254C178.693 111.379 178.738 111.496 178.777 111.605H178.824C178.859 111.496 178.9 111.379 178.947 111.254C178.994 111.125 179.043 111.002 179.094 110.885L181.847 104.469H183.4V113H182.275V106.73C182.275 106.613 182.277 106.482 182.281 106.338C182.289 106.189 182.301 106.057 182.316 105.939H182.263C182.232 106.057 182.189 106.189 182.135 106.338C182.084 106.482 182.033 106.613 181.982 106.73L179.299 113H178.261L175.56 106.73C175.51 106.613 175.459 106.482 175.408 106.338C175.361 106.189 175.324 106.057 175.297 105.939H175.244C175.256 106.057 175.265 106.189 175.273 106.338C175.285 106.482 175.291 106.613 175.291 106.73V113H174.201Z" fill="#04101C"/>
</g>
<rect x="-21.5" y="471.5" width="67" height="67" rx="11.5" fill="#F9FBFF"/>
<rect x="-21.5" y="471.5" width="67" height="67" rx="11.5" stroke="#ECECEC"/>
<rect x="371.5" y="321.5" width="67" height="67" rx="11.5" fill="#F9FBFF"/>
<rect x="371.5" y="321.5" width="67" height="67" rx="11.5" stroke="#ECECEC"/>
<rect x="86.5" y="471.5" width="67" height="67" rx="11.5" fill="#F9FBFF"/>
<rect x="86.5" y="471.5" width="67" height="67" rx="11.5" stroke="#ECECEC"/>
<rect x="254.5" y="170.5" width="67" height="67" rx="11.5" fill="#F9FBFF"/>
<rect x="254.5" y="170.5" width="67" height="67" rx="11.5" stroke="#ECECEC"/>
<path fill-rule="evenodd" clip-rule="evenodd" d="M296.03 190.487C297.293 191.178 298.2 192.549 298.2 194.2V208.48C298.2 211.822 294.499 213.802 291.778 211.859C291.748 211.838 291.718 211.814 291.689 211.79L290.196 210.53C290.174 210.512 290.153 210.493 290.133 210.474C288.985 209.381 287.554 208.7 285.982 208.449V213.94C285.982 216.161 284.358 218 282.138 218C279.873 218 278.295 215.972 278.295 213.94V208.183C275.276 207.494 273 204.636 273 201.34C273 199.484 273.655 197.697 275.056 196.413C276.188 195.258 277.741 194.34 279.695 194.34H284.541C286.689 194.21 288.681 193.475 290.185 192.298L291.634 190.939C291.662 190.913 291.691 190.887 291.722 190.863C293.081 189.785 294.746 189.785 296.03 190.487ZM293.5 193.028L292.056 194.382C292.028 194.408 291.999 194.433 291.968 194.457C289.956 196.053 287.366 196.983 284.662 197.138C284.635 197.139 284.609 197.14 284.582 197.14H279.695C278.68 197.14 277.8 197.605 277.034 198.395C277.013 198.417 276.99 198.439 276.967 198.46C276.22 199.134 275.8 200.132 275.8 201.34C275.8 203.711 277.68 205.54 279.695 205.54C280.468 205.54 281.095 206.167 281.095 206.94V213.94C281.095 214.709 281.688 215.2 282.138 215.2C282.634 215.2 283.182 214.799 283.182 213.94V206.94C283.182 206.167 283.809 205.54 284.582 205.54C287.337 205.54 289.988 206.486 292.032 208.416L293.443 209.607C294.251 210.141 295.4 209.6 295.4 208.48V194.2C295.4 193.611 295.085 193.162 294.686 192.943C294.318 192.742 293.895 192.736 293.5 193.028Z" fill="#ECECEC"/>
<path fill-rule="evenodd" clip-rule="evenodd" d="M302.4 197C303.173 197 303.8 197.627 303.8 198.4V204C303.8 204.773 303.173 205.4 302.4 205.4C301.627 205.4 301 204.773 301 204V198.4C301 197.627 301.627 197 302.4 197Z" fill="#ECECEC"/>
<rect x="201.5" y="471.5" width="67" height="67" rx="11.5" fill="#F9FBFF"/>
<rect x="201.5" y="471.5" width="67" height="67" rx="11.5" stroke="#ECECEC"/>
<rect x="364.5" y="471.5" width="67" height="67" rx="11.5" fill="#F9FBFF"/>
<rect x="364.5" y="471.5" width="67" height="67" rx="11.5" stroke="#ECECEC"/>
<rect x="372.5" y="51.5" width="67" height="67" rx="11.5" fill="#F9FBFF"/>
<rect x="372.5" y="51.5" width="67" height="67" rx="11.5" stroke="#ECECEC"/>
<path d="M322 86L372 86" stroke="#ECECEC"/>
<path d="M170 39.0003L170 -47.4997C170 -52.4703 165.97 -56.4997 161 -56.4997V-56.4997" stroke="#ECECEC" stroke-width="2"/>
<path d="M184 38.9998L184 37.499C184.001 28.6627 191.164 21.4997 200 21.4997L434.999 21.4998C443.836 21.4998 450.999 28.6632 450.999 37.4998L450.999 181.001C450.999 187.628 445.627 193 439 193V193" stroke="#ECECEC" stroke-width="2"/>
<path d="M41 39L41 -44C41 -52.8366 33.8366 -60 25 -60L18 -60" stroke="#ECECEC"/>
<path d="M117 392L117 471" stroke="#ECECEC"/>
<path d="M236 389L236 471" stroke="#ECECEC"/>
<path d="M248 388.5L248 450.416C248 457.142 253.582 461.925 261.433 461.925L394.593 461.925C401.26 461.925 406 465.986 406 471.698V471.698" stroke="#ECECEC"/>
<path d="M269 356L335.5 356C344.337 356 351.5 363.163 351.5 372L351.5 419.5C351.5 428.337 358.664 435.5 367.5 435.5L560 435.5C568.837 435.5 576 442.663 576 451.5L576 471" stroke="#ECECEC"/>
<path d="M98 392L98 435.676C98 444.513 90.8366 451.676 82 451.676L27 451.676C18.1634 451.676 11 458.84 11 467.676L11 470" stroke="#ECECEC"/>
<path d="M17 -193H59C67.8366 -193 75 -185.837 75 -177L75 39" stroke="#ECECEC"/>
<path d="M254 86H204" stroke="#ECECEC"/>
<path d="M136 86H93" stroke="#ECECEC" stroke-width="2"/>
<path d="M136 106H131.837C123.001 106 115.837 113.163 115.837 122V136.5C115.837 145.337 108.674 152.5 99.8374 152.5H28C19.1634 152.5 12 159.663 12 168.5V172" stroke="#ECECEC" stroke-width="2"/>
<path d="M156 133V172" stroke="#ECECEC" stroke-width="2"/>
<path d="M204 98.0003L219.999 98.0003C228.836 98.0003 235.999 105.164 235.999 114L235.999 321.001" stroke="#ECECEC"/>
<path d="M204 110V110C212.837 110 220 117.163 220 126V286.551C220 295.388 212.837 302.551 204 302.551H134C125.163 302.551 118 309.715 118 318.551V324" stroke="url(#paint6_linear_936_43191)" stroke-width="2"/>
<path d="M288 51L288 -21" stroke="#ECECEC"/>
<path d="M288 119L288 171" stroke="#ECECEC"/>
<g filter="url(#filter1_d_936_43191)">
<rect x="73" y="324" width="88" height="94" rx="12" fill="white"/>
<path d="M106.02 376C105.32 376 104.76 375.72 104.2 375.3C103.5 374.6 103.36 373.62 103.64 372.78L105.04 368.44C104.06 366.48 103.5 364.24 103.5 362C103.5 354.3 109.8 348 117.5 348C125.2 348 131.5 354.3 131.5 362C131.5 369.7 125.2 376 117.5 376C115.26 376 113.02 375.44 111.06 374.46L106.72 375.86C106.58 376 106.3 376 106.02 376ZM111.9 371.66C113.58 372.64 115.54 373.2 117.5 373.2C123.66 373.2 128.7 368.16 128.7 362C128.7 355.84 123.66 350.8 117.5 350.8C111.34 350.8 106.3 355.84 106.3 362C106.3 363.96 106.86 365.92 107.84 367.6C107.98 367.88 108.12 368.3 107.98 368.72L106.58 373.06L110.92 371.66C110.92 371.66 111.763 371.592 111.9 371.66Z" fill="url(#paint7_radial_936_43191)"/>
<path d="M117.5 364.24C118.737 364.24 119.74 363.237 119.74 362C119.74 360.763 118.737 359.76 117.5 359.76C116.263 359.76 115.26 360.763 115.26 362C115.26 363.237 116.263 364.24 117.5 364.24Z" fill="url(#paint8_radial_936_43191)"/>
<path d="M110.64 364.24C111.877 364.24 112.88 363.237 112.88 362C112.88 360.763 111.877 359.76 110.64 359.76C109.403 359.76 108.4 360.763 108.4 362C108.4 363.237 109.403 364.24 110.64 364.24Z" fill="url(#paint9_radial_936_43191)"/>
<path d="M124.36 364.24C125.597 364.24 126.6 363.237 126.6 362C126.6 360.763 125.597 359.76 124.36 359.76C123.123 359.76 122.12 360.763 122.12 362C122.12 363.237 123.123 364.24 124.36 364.24Z" fill="url(#paint10_radial_936_43191)"/>
<path d="M91.7058 393.951V393.518C91.7058 392.182 92.071 391.145 92.8015 390.406C93.5359 389.664 94.4558 389.293 95.5613 389.293C96.655 389.293 97.5046 389.568 98.1101 390.119C98.7155 390.666 99.0437 391.344 99.0945 392.152L99.1003 392.211H97.9343L97.9284 392.152C97.9011 391.637 97.6921 391.197 97.3015 390.834C96.9148 390.471 96.3347 390.289 95.5613 390.289C94.78 390.289 94.1374 390.566 93.6335 391.121C93.1335 391.672 92.8835 392.471 92.8835 393.518V393.951C92.8835 394.971 93.1335 395.764 93.6335 396.33C94.1374 396.896 94.78 397.18 95.5613 397.18C96.3347 397.18 96.9089 396.994 97.2839 396.623C97.6628 396.248 97.8777 395.812 97.9284 395.316L97.9343 395.258H99.1003L99.0945 395.316C99.0124 396.113 98.6784 396.789 98.0925 397.344C97.5066 397.898 96.6628 398.176 95.5613 398.176C94.4558 398.176 93.5359 397.809 92.8015 397.074C92.071 396.336 91.7058 395.295 91.7058 393.951ZM100.096 394.977V394.789C100.096 393.848 100.391 393.08 100.981 392.486C101.575 391.889 102.368 391.59 103.36 391.59C104.348 391.59 105.139 391.889 105.733 392.486C106.327 393.08 106.624 393.848 106.624 394.789V394.977C106.624 395.918 106.327 396.688 105.733 397.285C105.139 397.879 104.348 398.176 103.36 398.176C102.368 398.176 101.575 397.879 100.981 397.285C100.391 396.688 100.096 395.918 100.096 394.977ZM101.245 394.789V394.977C101.245 395.617 101.422 396.156 101.778 396.594C102.133 397.031 102.661 397.25 103.36 397.25C104.059 397.25 104.584 397.031 104.936 396.594C105.291 396.156 105.469 395.617 105.469 394.977V394.789C105.469 394.145 105.291 393.605 104.936 393.172C104.584 392.734 104.059 392.516 103.36 392.516C102.661 392.516 102.133 392.734 101.778 393.172C101.422 393.605 101.245 394.145 101.245 394.789ZM113.643 399.582V398H108.264V391.766H109.389V397.115H112.612V391.766H113.737V397.115H114.674V399.582H113.643ZM115.564 394.977V394.789C115.564 393.848 115.848 393.08 116.414 392.486C116.984 391.889 117.768 391.59 118.764 391.59C119.686 391.59 120.385 391.814 120.861 392.264C121.342 392.709 121.582 393.209 121.582 393.764V393.793H120.469V393.758C120.469 393.426 120.334 393.135 120.064 392.885C119.799 392.635 119.365 392.51 118.764 392.51C118.061 392.51 117.543 392.729 117.211 393.166C116.879 393.604 116.713 394.145 116.713 394.789V394.977C116.713 395.621 116.879 396.162 117.211 396.6C117.543 397.033 118.061 397.25 118.764 397.25C119.365 397.25 119.799 397.127 120.064 396.881C120.334 396.635 120.469 396.342 120.469 396.002V395.973H121.582V396.002C121.582 396.553 121.342 397.053 120.861 397.502C120.385 397.951 119.686 398.176 118.764 398.176C117.768 398.176 116.984 397.879 116.414 397.285C115.848 396.688 115.564 395.918 115.564 394.977ZM122.66 394.977V394.789C122.66 393.848 122.945 393.08 123.515 392.486C124.09 391.889 124.847 391.59 125.789 391.59C126.734 391.59 127.461 391.869 127.969 392.428C128.476 392.982 128.73 393.734 128.73 394.684V395.146H123.328V394.25H127.599V394.221C127.599 393.721 127.457 393.311 127.172 392.99C126.886 392.67 126.429 392.51 125.801 392.51C125.14 392.51 124.64 392.729 124.301 393.166C123.961 393.604 123.791 394.145 123.791 394.789V394.977C123.791 395.621 123.969 396.162 124.324 396.6C124.683 397.037 125.236 397.256 125.982 397.256C126.435 397.256 126.826 397.17 127.154 396.998C127.482 396.822 127.746 396.615 127.945 396.377L128.672 396.975C128.453 397.268 128.113 397.541 127.652 397.795C127.195 398.049 126.638 398.176 125.982 398.176C124.908 398.176 124.086 397.879 123.515 397.285C122.945 396.688 122.66 395.918 122.66 394.977ZM129.574 392.65V391.766H135.14V392.65H132.919V398H131.794V392.65H129.574ZM136.47 398V391.766H137.583V395.738C137.583 395.855 137.581 395.988 137.577 396.137C137.577 396.285 137.575 396.42 137.572 396.541H137.618C137.673 396.436 137.734 396.324 137.8 396.207C137.866 396.09 137.943 395.973 138.029 395.855L140.964 391.766H142.095V398H140.976V394.033C140.976 393.912 140.978 393.777 140.982 393.629C140.986 393.477 140.991 393.34 140.999 393.219H140.935C140.884 393.32 140.825 393.432 140.759 393.553C140.693 393.674 140.618 393.793 140.536 393.91L137.601 398H136.47Z" fill="#04101C"/>
</g>
<rect x="201.5" y="321.5" width="67" height="67" rx="11.5" fill="#F9FBFF"/>
<rect x="201.5" y="321.5" width="67" height="67" rx="11.5" stroke="#ECECEC"/>
<path d="M249.061 349.679C246.853 346.703 244.254 343.984 241.266 341.914C239.318 340.49 236.59 340.749 234.771 342.561L230.354 346.961C228.665 348.644 228.405 351.362 229.704 353.303C229.834 353.433 229.964 353.692 230.224 353.821L222.039 361.975C221.39 362.622 221 363.528 221 364.564V368.706C221 369.094 221.13 369.353 221.39 369.612C221.65 369.871 221.909 370 222.299 370H226.456C227.496 370 228.405 369.612 229.055 368.965L237.239 360.81C237.499 360.94 237.629 361.069 237.889 361.199C239.837 362.493 242.566 362.234 244.254 360.552L248.671 356.151C250.23 354.339 250.49 351.621 249.061 349.679ZM246.593 354.339L242.176 358.74C241.266 359.646 239.967 359.775 239.058 359.128C238.538 358.74 238.149 358.481 237.629 358.092C237.109 357.704 236.33 357.704 235.94 358.222L226.976 367.153C226.716 367.411 226.456 367.541 226.197 367.541H223.338V364.693C223.338 364.434 223.468 364.176 223.728 363.917L232.692 354.986C233.212 354.468 233.212 353.821 232.822 353.303C232.562 352.786 232.173 352.268 231.913 351.75C231.263 350.844 231.393 349.55 232.302 348.773L236.719 344.373C237.109 343.855 237.759 343.596 238.408 343.596C238.928 343.596 239.318 343.726 239.707 343.984C242.566 345.926 244.904 348.385 246.853 351.103C247.632 352.139 247.502 353.433 246.593 354.339Z" fill="#ECECEC"/>
<path d="M240.148 348.909C239.593 348.909 239.177 349.192 238.761 349.474C237.928 350.321 237.928 351.593 238.761 352.299C239.177 352.722 239.593 352.864 240.148 352.864C240.703 352.864 241.12 352.722 241.536 352.299C241.952 351.875 242.091 351.451 242.091 350.886C242.091 350.321 241.952 349.898 241.536 349.474C241.258 349.05 240.703 348.909 240.148 348.909Z" fill="#ECECEC"/>
<rect x="25.5" y="39.5" width="67" height="67" rx="11.5" fill="#F9FBFF"/>
<rect x="25.5" y="39.5" width="67" height="67" rx="11.5" stroke="#ECECEC"/>
<path d="M71.8537 60.617C70.0298 58.7927 66.9431 58.512 63.2952 59.775C62.0325 60.196 60.7698 60.8977 59.507 61.5994C54.4561 58.6524 49.6858 58.091 47.1604 60.617C44.4946 63.1431 45.1961 67.9145 48.1425 72.9665C45.0558 78.1589 44.6349 82.9303 47.1604 85.316C48.1425 86.4387 49.6858 87 51.5098 87C53.8949 87 56.701 86.0177 59.507 84.3336C62.3131 86.0177 65.1192 87 67.5043 87C69.3282 87 70.7313 86.4387 71.8537 85.4563C74.3792 82.9303 73.8179 78.1589 70.8716 73.1068C73.9582 67.7741 74.3792 63.0027 71.8537 60.617ZM64.137 62.4414C66.8028 61.459 68.767 61.5994 69.8895 62.5817C71.1522 63.8447 70.8716 66.9321 69.1879 70.3001C68.2058 69.0371 67.2237 67.7741 65.961 66.5111C64.6982 65.2481 63.4355 64.2657 62.1728 63.2834C62.8743 63.0027 63.5758 62.5817 64.137 62.4414ZM49.1246 83.3513C47.8619 82.0883 48.1425 79.0009 49.8261 75.6329C50.8083 76.8959 51.7904 78.1589 53.0531 79.4219C54.3158 80.6849 55.5786 81.8076 56.8413 82.6496C53.3337 84.474 50.3873 84.6143 49.1246 83.3513ZM69.8895 83.3513C68.6267 84.6143 65.6804 84.3336 62.0325 82.6496C63.2952 81.6673 64.5579 80.5446 65.8207 79.4219C66.3819 78.8606 66.9431 78.2992 67.364 77.7379C67.9252 77.1766 67.7849 76.3345 67.2237 75.7732C66.6625 75.2119 65.8207 75.3522 65.2595 75.9135C64.8386 76.4749 64.2773 76.8959 63.8564 77.4572C62.4534 78.8606 60.9101 80.1236 59.507 81.1059C58.104 80.1236 56.5607 78.8606 55.1576 77.4572C48.9843 71.2825 47.0201 64.6868 49.1246 62.5817C49.5455 62.0204 50.3873 61.7397 51.5098 61.7397C52.9128 61.7397 54.877 62.3011 56.8413 63.2834C55.5786 64.2657 54.3158 65.3884 53.0531 66.5111C52.4919 67.2128 51.7904 67.9145 51.2292 68.6161C50.6679 69.1775 50.8083 70.0195 51.3695 70.5808C51.9307 71.1422 52.9128 71.0018 53.3337 70.4405C53.8949 69.7388 54.4561 69.1775 55.0173 68.6161C56.4204 67.2128 57.9637 65.9498 59.3667 64.9674C60.7698 65.9498 62.3131 67.2128 63.8564 68.6161C70.0298 74.6505 71.994 81.2463 69.8895 83.3513Z" fill="#ECECEC"/>
<path d="M59.5 75.24C60.7371 75.24 61.74 74.2371 61.74 73C61.74 71.7629 60.7371 70.76 59.5 70.76C58.2629 70.76 57.26 71.7629 57.26 73C57.26 74.2371 58.2629 75.24 59.5 75.24Z" fill="#ECECEC"/>
<rect x="371.5" y="171.5" width="67" height="67" rx="11.5" fill="#F9FBFF"/>
<rect x="371.5" y="171.5" width="67" height="67" rx="11.5" stroke="#ECECEC"/>
<rect x="-37.5" y="172.5" width="67" height="67" rx="11.5" fill="#F9FBFF"/>
<rect x="-37.5" y="172.5" width="67" height="67" rx="11.5" stroke="#ECECEC"/>
<path fill-rule="evenodd" clip-rule="evenodd" d="M-17.4513 198.284C-19.7084 196.023 -18.0878 192 -14.8213 192H5.82538C9.09189 192 10.7124 196.023 8.45538 198.284C8.45403 198.286 8.45268 198.287 8.45132 198.288L0.301188 206.548V213.769C0.301188 214.929 -0.262203 216.159 -1.3442 216.83L-5.34213 219.575L-5.35869 219.586C-6.24911 220.179 -7.27404 220.077 -8.01065 219.643C-8.73214 219.217 -9.2971 218.408 -9.2971 217.415V206.548L-17.4513 198.284ZM-15.62 195.364C-15.769 195.725 -15.7009 196.075 -15.4686 196.307L-15.4614 196.314L-6.90058 204.99C-6.64205 205.252 -6.4971 205.605 -6.4971 205.973V216.972L-2.89842 214.501C-2.87463 214.484 -2.85034 214.469 -2.82558 214.454C-2.67615 214.365 -2.49881 214.103 -2.49881 213.769V205.973C-2.49881 205.605 -2.35386 205.252 -2.09533 204.99L6.47266 196.307C6.70496 196.075 6.77306 195.725 6.62406 195.364C6.47808 195.01 6.18674 194.8 5.82538 194.8H-14.8213C-15.1826 194.8 -15.474 195.01 -15.62 195.364Z" fill="#ECECEC"/>
</g>
<defs>
<filter id="filter0_d_936_43191" x="127" y="31" width="88" height="114" filterUnits="userSpaceOnUse" color-interpolation-filters="sRGB">
<feFlood flood-opacity="0" result="BackgroundImageFix"/>
<feColorMatrix in="SourceAlpha" type="matrix" values="0 0 0 0 0 0 0 0 0 0 0 0 0 0 0 0 0 0 127 0" result="hardAlpha"/>
<feOffset dx="1" dy="2"/>
<feGaussianBlur stdDeviation="5"/>
<feComposite in2="hardAlpha" operator="out"/>
<feColorMatrix type="matrix" values="0 0 0 0 0.00780001 0 0 0 0 0.045344 0 0 0 0 0.0800001 0 0 0 0.04 0"/>
<feBlend mode="normal" in2="BackgroundImageFix" result="effect1_dropShadow_936_43191"/>
<feBlend mode="normal" in="SourceGraphic" in2="effect1_dropShadow_936_43191" result="shape"/>
</filter>
<filter id="filter1_d_936_43191" x="64" y="316" width="108" height="114" filterUnits="userSpaceOnUse" color-interpolation-filters="sRGB">
<feFlood flood-opacity="0" result="BackgroundImageFix"/>
<feColorMatrix in="SourceAlpha" type="matrix" values="0 0 0 0 0 0 0 0 0 0 0 0 0 0 0 0 0 0 127 0" result="hardAlpha"/>
<feOffset dx="1" dy="2"/>
<feGaussianBlur stdDeviation="5"/>
<feComposite in2="hardAlpha" operator="out"/>
<feColorMatrix type="matrix" values="0 0 0 0 0.00780001 0 0 0 0 0.045344 0 0 0 0 0.0800001 0 0 0 0.04 0"/>
<feBlend mode="normal" in2="BackgroundImageFix" result="effect1_dropShadow_936_43191"/>
<feBlend mode="normal" in="SourceGraphic" in2="effect1_dropShadow_936_43191" result="shape"/>
</filter>
<radialGradient id="paint0_radial_936_43191" cx="0" cy="0" r="1" gradientUnits="userSpaceOnUse" gradientTransform="translate(169.6 77) rotate(98.7708) scale(17.7071 16.0233)">
<stop offset="0.055" stop-color="#7A73FF"/>
<stop offset="0.65" stop-color="#67DDFA"/>
<stop offset="1" stop-color="#4AFCF1"/>
</radialGradient>
<radialGradient id="paint1_radial_936_43191" cx="0" cy="0" r="1" gradientUnits="userSpaceOnUse" gradientTransform="translate(169.6 77) rotate(98.7708) scale(17.7071 16.0233)">
<stop offset="0.055" stop-color="#7A73FF"/>
<stop offset="0.65" stop-color="#67DDFA"/>
<stop offset="1" stop-color="#4AFCF1"/>
</radialGradient>
<radialGradient id="paint2_radial_936_43191" cx="0" cy="0" r="1" gradientUnits="userSpaceOnUse" gradientTransform="translate(169.6 77) rotate(98.7708) scale(17.7071 16.0233)">
<stop offset="0.055" stop-color="#7A73FF"/>
<stop offset="0.65" stop-color="#67DDFA"/>
<stop offset="1" stop-color="#4AFCF1"/>
</radialGradient>
<radialGradient id="paint3_radial_936_43191" cx="0" cy="0" r="1" gradientUnits="userSpaceOnUse" gradientTransform="translate(169.6 77) rotate(98.7708) scale(17.7071 16.0233)">
<stop offset="0.055" stop-color="#7A73FF"/>
<stop offset="0.65" stop-color="#67DDFA"/>
<stop offset="1" stop-color="#4AFCF1"/>
</radialGradient>
<radialGradient id="paint4_radial_936_43191" cx="0" cy="0" r="1" gradientUnits="userSpaceOnUse" gradientTransform="translate(169.6 77) rotate(98.7708) scale(17.7071 16.0233)">
<stop offset="0.055" stop-color="#7A73FF"/>
<stop offset="0.65" stop-color="#67DDFA"/>
<stop offset="1" stop-color="#4AFCF1"/>
</radialGradient>
<radialGradient id="paint5_radial_936_43191" cx="0" cy="0" r="1" gradientUnits="userSpaceOnUse" gradientTransform="translate(169.6 77) rotate(98.7708) scale(17.7071 16.0233)">
<stop offset="0.055" stop-color="#7A73FF"/>
<stop offset="0.65" stop-color="#67DDFA"/>
<stop offset="1" stop-color="#4AFCF1"/>
</radialGradient>
<linearGradient id="paint6_linear_936_43191" x1="322" y1="444.375" x2="83.6134" y2="115.082" gradientUnits="userSpaceOnUse">
<stop offset="0.338542" stop-color="#7A73FF"/>
<stop offset="0.734375" stop-color="#75CDFF"/>
<stop offset="1" stop-color="#4AFCF1"/>
</linearGradient>
<radialGradient id="paint7_radial_936_43191" cx="0" cy="0" r="1" gradientUnits="userSpaceOnUse" gradientTransform="translate(117.5 362) rotate(99.7276) scale(17.7553)">
<stop offset="0.055" stop-color="#7A73FF"/>
<stop offset="0.65" stop-color="#67DDFA"/>
<stop offset="1" stop-color="#4AFCF1"/>
</radialGradient>
<radialGradient id="paint8_radial_936_43191" cx="0" cy="0" r="1" gradientUnits="userSpaceOnUse" gradientTransform="translate(117.5 362) rotate(99.7276) scale(17.7553)">
<stop offset="0.055" stop-color="#7A73FF"/>
<stop offset="0.65" stop-color="#67DDFA"/>
<stop offset="1" stop-color="#4AFCF1"/>
</radialGradient>
<radialGradient id="paint9_radial_936_43191" cx="0" cy="0" r="1" gradientUnits="userSpaceOnUse" gradientTransform="translate(117.5 362) rotate(99.7276) scale(17.7553)">
<stop offset="0.055" stop-color="#7A73FF"/>
<stop offset="0.65" stop-color="#67DDFA"/>
<stop offset="1" stop-color="#4AFCF1"/>
</radialGradient>
<radialGradient id="paint10_radial_936_43191" cx="0" cy="0" r="1" gradientUnits="userSpaceOnUse" gradientTransform="translate(117.5 362) rotate(99.7276) scale(17.7553)">
<stop offset="0.055" stop-color="#7A73FF"/>
<stop offset="0.65" stop-color="#67DDFA"/>
<stop offset="1" stop-color="#4AFCF1"/>
</radialGradient>
<clipPath id="clip0_936_43191">
<rect width="390" height="482" fill="white" transform="translate(-8)"/>
</clipPath>
</defs>
</svg>
