<svg width="380" height="540" viewBox="0 0 380 540" fill="none" xmlns="http://www.w3.org/2000/svg">
<rect x="343.5" y="17.5" width="67" height="67" rx="11.5" fill="#F9FBFF"/>
<rect x="343.5" y="17.5" width="67" height="67" rx="11.5" stroke="#ECECEC"/>
<path fill-rule="evenodd" clip-rule="evenodd" d="M377 67C385.837 67 393 59.8366 393 51C393 45.8664 390.582 41.2975 386.823 38.3697L384.181 36.6982C382.022 35.6117 379.582 35 377 35C368.163 35 361 42.1634 361 51C361 59.8366 368.163 67 377 67ZM384.181 36.6982V44.2921C382.317 42.2021 379.622 40.889 376.625 40.889C370.999 40.889 366.437 45.517 366.437 51.2258C366.437 56.9347 370.999 61.5627 376.625 61.5627C379.622 61.5627 382.317 60.2496 384.181 58.1596L384.107 60.3112C384.097 60.6136 384.339 60.8644 384.642 60.8644H386.358C386.654 60.8644 386.893 60.6239 386.892 60.3279L386.823 38.3697L384.181 36.6982ZM384.606 51.2258C384.606 55.5251 381.166 59.0104 376.922 59.0104C372.679 59.0104 369.239 55.5251 369.239 51.2258C369.239 46.9266 372.679 43.4413 376.922 43.4413C381.166 43.4413 384.606 46.9266 384.606 51.2258Z" fill="#ECECEC"/>
<rect x="114.5" y="5.5" width="67" height="67" rx="11.5" fill="#F9FBFF"/>
<rect x="114.5" y="5.5" width="67" height="67" rx="11.5" stroke="#ECECEC"/>
<path d="M160.854 26.617C159.03 24.7927 155.943 24.512 152.295 25.775C151.032 26.196 149.77 26.8977 148.507 27.5994C143.456 24.6524 138.686 24.091 136.16 26.617C133.495 29.1431 134.196 33.9145 137.142 38.9665C134.056 44.1589 133.635 48.9303 136.16 51.316C137.142 52.4387 138.686 53 140.51 53C142.895 53 145.701 52.0177 148.507 50.3336C151.313 52.0177 154.119 53 156.504 53C158.328 53 159.731 52.4387 160.854 51.4563C163.379 48.9303 162.818 44.1589 159.872 39.1068C162.958 33.7741 163.379 29.0027 160.854 26.617ZM153.137 28.4414C155.803 27.459 157.767 27.5994 158.889 28.5817C160.152 29.8447 159.872 32.9321 158.188 36.3001C157.206 35.0371 156.224 33.7741 154.961 32.5111C153.698 31.2481 152.436 30.2657 151.173 29.2834C151.874 29.0027 152.576 28.5817 153.137 28.4414ZM138.125 49.3513C136.862 48.0883 137.142 45.0009 138.826 41.6329C139.808 42.8959 140.79 44.1589 142.053 45.4219C143.316 46.6849 144.579 47.8076 145.841 48.6496C142.334 50.474 139.387 50.6143 138.125 49.3513ZM158.889 49.3513C157.627 50.6143 154.68 50.3336 151.032 48.6496C152.295 47.6673 153.558 46.5446 154.821 45.4219C155.382 44.8606 155.943 44.2992 156.364 43.7379C156.925 43.1766 156.785 42.3345 156.224 41.7732C155.662 41.2119 154.821 41.3522 154.259 41.9135C153.839 42.4749 153.277 42.8959 152.856 43.4572C151.453 44.8606 149.91 46.1236 148.507 47.1059C147.104 46.1236 145.561 44.8606 144.158 43.4572C137.984 37.2825 136.02 30.6868 138.125 28.5817C138.546 28.0204 139.387 27.7397 140.51 27.7397C141.913 27.7397 143.877 28.3011 145.841 29.2834C144.579 30.2657 143.316 31.3884 142.053 32.5111C141.492 33.2128 140.79 33.9145 140.229 34.6161C139.668 35.1775 139.808 36.0195 140.369 36.5808C140.931 37.1422 141.913 37.0018 142.334 36.4405C142.895 35.7388 143.456 35.1775 144.017 34.6161C145.42 33.2128 146.964 31.9498 148.367 30.9674C149.77 31.9498 151.313 33.2128 152.856 34.6161C159.03 40.6505 160.994 47.2463 158.889 49.3513Z" fill="#ECECEC"/>
<path d="M148.5 41.24C149.737 41.24 150.74 40.2371 150.74 39C150.74 37.7629 149.737 36.76 148.5 36.76C147.263 36.76 146.26 37.7629 146.26 39C146.26 40.2371 147.263 41.24 148.5 41.24Z" fill="#ECECEC"/>
<rect x="51.5" y="138.5" width="67" height="67" rx="11.5" fill="#F9FBFF"/>
<rect x="51.5" y="138.5" width="67" height="67" rx="11.5" stroke="#ECECEC"/>
<path fill-rule="evenodd" clip-rule="evenodd" d="M71.5487 164.284C69.2916 162.023 70.9122 158 74.1787 158H94.8254C98.0919 158 99.7124 162.023 97.4554 164.284C97.454 164.286 97.4527 164.287 97.4513 164.288L89.3012 172.548V179.769C89.3012 180.929 88.7378 182.159 87.6558 182.83L83.6579 185.575L83.6413 185.586C82.7509 186.179 81.726 186.077 80.9893 185.643C80.2679 185.217 79.7029 184.408 79.7029 183.415V172.548L71.5487 164.284ZM73.38 161.364C73.231 161.725 73.2991 162.075 73.5314 162.307L73.5386 162.314L82.0994 170.99C82.3579 171.252 82.5029 171.605 82.5029 171.973V182.972L86.1016 180.501C86.1254 180.484 86.1497 180.469 86.1744 180.454C86.3239 180.365 86.5012 180.103 86.5012 179.769V171.973C86.5012 171.605 86.6461 171.252 86.9047 170.99L95.4727 162.307C95.705 162.075 95.7731 161.725 95.6241 161.364C95.4781 161.01 95.1867 160.8 94.8254 160.8H74.1787C73.8174 160.8 73.526 161.01 73.38 161.364Z" fill="#ECECEC"/>
<rect x="194.5" y="138.5" width="67" height="67" rx="11.5" fill="#F9FBFF"/>
<rect x="194.5" y="138.5" width="67" height="67" rx="11.5" stroke="#ECECEC"/>
<path fill-rule="evenodd" clip-rule="evenodd" d="M225.916 158.491C227.388 157.836 229.033 157.836 230.505 158.491L230.527 158.502L238.396 162.188C238.406 162.193 238.416 162.197 238.426 162.202C240.189 163.085 241.233 165.025 240.889 167.105C240.234 171.165 238.253 179.169 230.91 185.053L230.896 185.064C229.294 186.312 227.127 186.312 225.524 185.064L225.511 185.053C218.165 179.168 216.185 171.161 215.532 167.102C215.527 167.073 215.523 167.044 215.521 167.015C215.358 165.218 216.158 163.102 218.154 162.187L225.886 158.505C225.896 158.5 225.906 158.496 225.916 158.491ZM226.965 160.811L219.239 164.489L219.219 164.499C218.441 164.853 217.978 165.763 218.052 166.744C218.675 170.577 220.513 177.782 227.095 183.061C227.774 183.586 228.646 183.586 229.326 183.061C235.935 177.761 237.761 170.517 238.376 166.697L238.377 166.691C238.538 165.726 238.066 164.876 237.299 164.485L229.459 160.812C228.654 160.457 227.77 160.457 226.965 160.811Z" fill="#ECECEC"/>
<path fill-rule="evenodd" clip-rule="evenodd" d="M234.08 165.89C234.643 166.311 234.758 167.108 234.337 167.671L228.626 175.308C228.387 175.627 228.011 175.816 227.612 175.818C227.213 175.82 226.836 175.634 226.594 175.316L223.396 171.116C222.97 170.557 223.078 169.759 223.638 169.333C224.197 168.907 224.995 169.015 225.421 169.574L227.598 172.433L232.298 166.147C232.719 165.584 233.517 165.469 234.08 165.89Z" fill="#ECECEC"/>
<g filter="url(#filter0_d_928_43977)">
<rect x="67" y="437" width="68" height="94" rx="12" fill="white"/>
<path d="M115.653 471.021C112.705 468.516 107.842 465.421 101.211 465.421C100.474 465.421 99.7368 465.421 99.2947 465.568C98.4105 465.716 97.8211 466.453 97.9684 467.337C98.1158 468.074 98.8526 468.663 99.5895 468.663C100.032 468.663 100.621 468.516 101.211 468.516C106.958 468.516 111.232 471.168 113.737 473.379C114.179 473.674 114.474 474.263 114.474 475C114.474 475.737 114.179 476.179 113.737 476.621C112.853 477.358 111.821 478.095 110.789 478.684C110.053 479.126 109.905 480.011 110.2 480.747C110.495 481.189 110.937 481.484 111.526 481.484C111.821 481.484 111.968 481.484 112.263 481.337C113.442 480.6 114.621 479.863 115.653 478.979C116.832 477.947 117.421 476.621 117.421 475.147C117.421 473.379 116.832 472.053 115.653 471.021Z" fill="url(#paint0_radial_928_43977)"/>
<path d="M89.7158 461.442C89.1263 460.853 88.2421 460.853 87.6526 461.442C87.0632 462.032 87.0632 462.916 87.6526 463.505L91.7789 467.632C89.7158 468.811 87.9474 470.137 86.7684 471.021C85.5895 472.053 85 473.379 85 475C85 476.621 85.5895 477.947 86.7684 478.832C89.7158 481.337 94.5789 484.432 101.211 484.432C103.421 484.432 105.484 484.137 107.547 483.4L112.705 488.558C113 488.853 113.442 489 113.737 489C114.032 489 114.474 488.853 114.768 488.558C115.358 487.968 115.358 487.084 114.768 486.495L89.7158 461.442ZM101.211 481.337C95.4632 481.337 91.1895 478.684 88.6842 476.474C88.2421 476.179 87.9474 475.589 87.9474 475C87.9474 474.411 88.2421 473.821 88.6842 473.379C89.8632 472.347 91.7789 471.021 94.1368 469.989L97.9684 473.821C97.8211 474.116 97.8211 474.558 97.8211 475C97.8211 476.916 99.2947 478.389 101.211 478.389C101.653 478.389 101.947 478.242 102.389 478.242L105.189 481.042C103.863 481.189 102.537 481.337 101.211 481.337Z" fill="url(#paint1_radial_928_43977)"/>
<path d="M91.7042 511V502.469H92.8702V506.119H97.6691V502.469H98.8292V511H97.6691V507.08H92.8702V511H91.7042ZM101.097 511V502.469H102.62L105.391 508.885C105.442 509.002 105.491 509.125 105.538 509.254C105.589 509.379 105.634 509.496 105.673 509.605H105.72C105.755 509.496 105.796 509.379 105.843 509.254C105.89 509.125 105.938 509.002 105.989 508.885L108.743 502.469H110.296V511H109.171V504.73C109.171 504.613 109.173 504.482 109.177 504.338C109.184 504.189 109.196 504.057 109.212 503.939H109.159C109.128 504.057 109.085 504.189 109.03 504.338C108.979 504.482 108.929 504.613 108.878 504.73L106.194 511H105.157L102.456 504.73C102.405 504.613 102.354 504.482 102.304 504.338C102.257 504.189 102.22 504.057 102.192 503.939H102.14C102.151 504.057 102.161 504.189 102.169 504.338C102.181 504.482 102.186 504.613 102.186 504.73V511H101.097Z" fill="#04101C"/>
</g>
<rect x="175.5" y="437.5" width="67" height="67" rx="11.5" fill="#F9FBFF"/>
<rect x="175.5" y="437.5" width="67" height="67" rx="11.5" stroke="#ECECEC"/>
<path d="M217.428 474.134C214.502 474.134 211.995 476.502 211.995 479.567C211.995 482.493 214.363 485 217.428 485C220.353 485 222.861 482.632 222.861 479.567C222.861 476.502 220.493 474.134 217.428 474.134ZM217.428 482.075C216.035 482.075 214.781 480.96 214.781 479.428C214.781 478.035 215.896 476.781 217.428 476.781C218.821 476.781 220.075 477.896 220.075 479.428C220.075 480.96 218.96 482.075 217.428 482.075Z" fill="#ECECEC"/>
<path d="M207.119 468.701C207.259 468.701 207.537 468.701 207.677 468.562L213.249 465.776C214.224 467.03 215.756 467.866 217.428 467.866C220.493 467.726 222.861 465.358 222.861 462.433C222.861 459.507 220.493 457 217.428 457C214.502 457 211.995 459.368 211.995 462.433C211.995 462.711 211.995 462.99 212.134 463.269L206.423 466.055C205.726 466.473 205.448 467.308 205.866 467.866C206.005 468.423 206.562 468.701 207.119 468.701ZM217.428 459.786C218.821 459.786 220.075 460.9 220.075 462.433C220.075 463.826 218.96 465.08 217.428 465.08C216.035 465.08 214.781 463.965 214.781 462.433C214.92 460.9 216.035 459.786 217.428 459.786Z" fill="#ECECEC"/>
<path d="M211.299 475.109L205.587 472.323C205.726 471.905 205.726 471.488 205.726 470.93C205.726 468.005 203.358 465.498 200.294 465.498C197.229 465.498 195 468.005 195 470.93C195 473.856 197.368 476.363 200.433 476.363C201.965 476.363 203.358 475.806 204.333 474.692L210.184 477.617C210.323 477.756 210.602 477.756 210.741 477.756C211.299 477.756 211.716 477.478 211.995 476.92C212.274 476.363 211.995 475.527 211.299 475.109ZM200.433 473.577C198.9 473.577 197.786 472.323 197.786 470.93C197.786 469.537 198.9 468.284 200.433 468.284C201.826 468.284 203.08 469.398 203.08 470.93C202.94 472.323 201.826 473.577 200.433 473.577Z" fill="#ECECEC"/>
<rect x="21.5" y="287.5" width="67" height="67" rx="11.5" fill="#F9FBFF"/>
<rect x="21.5" y="287.5" width="67" height="67" rx="11.5" stroke="#ECECEC"/>
<path d="M54.3883 332.97H46.1293C45.4048 332.97 44.6803 332.537 44.3906 331.96C43.9559 331.383 43.9559 330.806 44.2457 330.085C45.9844 326.045 49.8966 323.303 54.3883 323.303C58.8801 323.303 62.6474 319.552 62.6474 315.08C62.6474 310.607 58.8801 307 54.2434 307C49.7517 307 45.9844 310.751 45.9844 315.224C45.9844 317.821 47.1436 320.129 49.0272 321.572C45.6946 322.871 42.7967 325.612 41.3477 329.075C40.7682 330.517 40.9131 332.249 41.7824 333.547C42.7967 334.99 44.2457 335.856 45.9844 335.856H54.2434C55.1128 335.856 55.6924 335.279 55.6924 334.413C55.6924 333.547 55.1128 332.97 54.3883 332.97ZM48.8823 315.224C48.8823 312.338 51.3455 309.886 54.2434 309.886C57.1414 309.886 59.6046 312.338 59.6046 315.224C59.6046 318.109 57.1414 320.562 54.2434 320.562C51.3455 320.562 48.8823 318.109 48.8823 315.224Z" fill="#ECECEC"/>
<path d="M69.4575 322.582C68.733 322.149 67.8636 322.294 67.4289 323.015L61.3433 331.96L59.025 328.93C58.5903 328.353 57.576 328.209 56.9965 328.642C56.4169 329.075 56.272 330.085 56.7067 330.662L60.3291 335.423C60.6188 335.856 61.0535 336 61.4882 336C61.9229 336 62.3576 335.711 62.6474 335.423L69.7473 324.746C70.1819 323.881 70.037 323.015 69.4575 322.582Z" fill="#ECECEC"/>
<rect x="290.5" y="287.5" width="67" height="67" rx="11.5" fill="#F9FBFF"/>
<rect x="290.5" y="287.5" width="67" height="67" rx="11.5" stroke="#ECECEC"/>
<path d="M338.061 315.679C335.853 312.703 333.254 309.984 330.266 307.914C328.318 306.49 325.59 306.749 323.771 308.561L319.354 312.961C317.665 314.644 317.405 317.362 318.704 319.303C318.834 319.433 318.964 319.692 319.224 319.821L311.039 327.975C310.39 328.622 310 329.528 310 330.564V334.706C310 335.094 310.13 335.353 310.39 335.612C310.65 335.871 310.909 336 311.299 336H315.456C316.496 336 317.405 335.612 318.055 334.965L326.239 326.81C326.499 326.94 326.629 327.069 326.889 327.199C328.837 328.493 331.566 328.234 333.254 326.552L337.671 322.151C339.23 320.339 339.49 317.621 338.061 315.679ZM335.593 320.339L331.176 324.74C330.266 325.646 328.967 325.775 328.058 325.128C327.538 324.74 327.149 324.481 326.629 324.092C326.109 323.704 325.33 323.704 324.94 324.222L315.976 333.153C315.716 333.411 315.456 333.541 315.197 333.541H312.338V330.693C312.338 330.434 312.468 330.176 312.728 329.917L321.692 320.986C322.212 320.468 322.212 319.821 321.822 319.303C321.562 318.786 321.173 318.268 320.913 317.75C320.263 316.844 320.393 315.55 321.302 314.773L325.719 310.373C326.109 309.855 326.759 309.596 327.408 309.596C327.928 309.596 328.318 309.726 328.707 309.984C331.566 311.926 333.904 314.385 335.853 317.103C336.632 318.139 336.502 319.433 335.593 320.339Z" fill="#ECECEC"/>
<path d="M329.148 314.909C328.593 314.909 328.177 315.192 327.761 315.474C326.928 316.321 326.928 317.593 327.761 318.299C328.177 318.722 328.593 318.864 329.148 318.864C329.703 318.864 330.12 318.722 330.536 318.299C330.952 317.875 331.091 317.451 331.091 316.886C331.091 316.321 330.952 315.898 330.536 315.474C330.258 315.05 329.703 314.909 329.148 314.909Z" fill="#ECECEC"/>
<rect x="343.5" y="136.5" width="67" height="67" rx="11.5" fill="#F9FBFF"/>
<rect x="343.5" y="136.5" width="67" height="67" rx="11.5" stroke="#ECECEC"/>
<path fill-rule="evenodd" clip-rule="evenodd" d="M385.03 156.487C386.293 157.178 387.2 158.549 387.2 160.2V174.48C387.2 177.822 383.499 179.802 380.778 177.859C380.748 177.838 380.718 177.814 380.689 177.79L379.196 176.53C379.174 176.512 379.153 176.493 379.133 176.474C377.985 175.381 376.554 174.7 374.982 174.449V179.94C374.982 182.161 373.358 184 371.138 184C368.873 184 367.295 181.972 367.295 179.94V174.183C364.276 173.494 362 170.636 362 167.34C362 165.484 362.655 163.697 364.056 162.413C365.188 161.258 366.741 160.34 368.695 160.34H373.541C375.689 160.21 377.681 159.475 379.185 158.298L380.634 156.939C380.662 156.913 380.691 156.887 380.722 156.863C382.081 155.785 383.746 155.785 385.03 156.487ZM382.5 159.028L381.056 160.382C381.028 160.408 380.999 160.433 380.968 160.457C378.956 162.053 376.366 162.983 373.662 163.138C373.635 163.139 373.609 163.14 373.582 163.14H368.695C367.68 163.14 366.8 163.605 366.034 164.395C366.013 164.417 365.99 164.439 365.967 164.46C365.22 165.134 364.8 166.132 364.8 167.34C364.8 169.711 366.68 171.54 368.695 171.54C369.468 171.54 370.095 172.167 370.095 172.94V179.94C370.095 180.709 370.688 181.2 371.138 181.2C371.634 181.2 372.182 180.799 372.182 179.94V172.94C372.182 172.167 372.809 171.54 373.582 171.54C376.337 171.54 378.988 172.486 381.032 174.416L382.443 175.607C383.251 176.141 384.4 175.6 384.4 174.48V160.2C384.4 159.611 384.085 159.162 383.686 158.943C383.318 158.742 382.895 158.736 382.5 159.028Z" fill="#ECECEC"/>
<path fill-rule="evenodd" clip-rule="evenodd" d="M391.4 163C392.173 163 392.8 163.627 392.8 164.4V170C392.8 170.773 392.173 171.4 391.4 171.4C390.627 171.4 390 170.773 390 170V164.4C390 163.627 390.627 163 391.4 163Z" fill="#ECECEC"/>
<rect x="290.5" y="437.5" width="67" height="67" rx="11.5" fill="#F9FBFF"/>
<rect x="290.5" y="437.5" width="67" height="67" rx="11.5" stroke="#ECECEC"/>
<path d="M318.726 487C318.274 487 317.822 486.854 317.37 486.708C316.165 486.124 315.562 484.955 315.863 483.787L317.671 475.315H314.959C313.754 475.315 312.699 474.585 312.247 473.562C311.795 472.54 311.945 471.371 312.85 470.641L327.164 455.888C328.068 455.012 329.575 454.72 330.63 455.304C331.835 455.888 332.438 457.057 332.137 458.225L330.329 466.697H333.041C334.246 466.697 335.301 467.427 335.753 468.45C336.205 469.472 336.055 470.641 335.15 471.371L320.836 486.124C320.233 486.708 319.48 487 318.726 487ZM319.48 472.247C319.932 472.247 320.384 472.394 320.685 472.832C320.986 473.27 321.137 473.562 320.986 474L319.028 483.933L333.041 469.472H328.671C328.219 469.472 327.767 469.326 327.466 468.888C327.164 468.596 327.014 468.158 327.164 467.719L329.123 457.787L315.11 472.394L319.48 472.247Z" fill="#ECECEC"/>
<rect x="-26.5" y="5.5" width="67" height="67" rx="11.5" fill="#F9FBFF"/>
<rect x="-26.5" y="5.5" width="67" height="67" rx="11.5" stroke="#ECECEC"/>
<path d="M2.92727 36.2C3.69091 36.2 4.2 35.6909 4.2 34.9273C4.2 33.4 5.47273 32.1273 7 32.1273C8.52727 32.1273 9.8 33.4 9.8 34.9273C9.8 35.6909 10.3091 36.2 11.0727 36.2C11.8364 36.2 12.3455 35.6909 12.3455 34.9273C12.3455 32 9.92727 29.5818 7 29.5818C4.07273 29.5818 1.65455 32 1.65455 34.9273C1.65455 35.5636 2.29091 36.2 2.92727 36.2Z" fill="#ECECEC"/>
<path d="M19.7273 37.7273H-5.72727C-6.49091 37.7273 -7 38.2364 -7 39C-7 39.7636 -6.49091 40.2727 -5.72727 40.2727H0.763636C0 41.0364 -0.636364 41.9273 -1.01818 42.9455C-1.4 43.9636 -1.27273 45.1091 -0.763636 46C-0.127273 46.8909 0.890909 47.5273 2.03636 47.5273H11.7091C12.8545 47.5273 13.8727 47.0182 14.5091 46C15.1455 45.1091 15.2727 43.9636 14.7636 42.9455C14.3818 41.9273 13.7455 41.0364 12.9818 40.2727H19.7273C20.4909 40.2727 21 39.7636 21 39C21 38.2364 20.4909 37.7273 19.7273 37.7273ZM12.6 43.9636C12.7273 44.2182 12.6 44.4727 12.4727 44.6C12.3455 44.8545 12.0909 44.9818 11.7091 44.9818H2.16364C1.90909 44.9818 1.65454 44.8545 1.4 44.6C1.27273 44.4727 1.14545 44.2182 1.27273 43.9636C2.03636 42.0545 3.81818 40.6545 5.85455 40.2727H7.89091C10.0545 40.6545 11.8364 42.0545 12.6 43.9636Z" fill="#ECECEC"/>
<path d="M19.7273 43.4545C18.9636 43.4545 18.4545 43.9636 18.4545 44.7273V47.0182C18.4545 48.9273 16.9273 50.3273 15.1455 50.3273H12.8545C12.0909 50.3273 11.5818 50.8364 11.5818 51.6C11.5818 52.3636 12.0909 52.8727 12.8545 52.8727H15.1455C18.4545 52.8727 21 50.2 21 47.0182V44.7273C21 44.0909 20.4909 43.4545 19.7273 43.4545Z" fill="#ECECEC"/>
<path d="M1.27273 50.4545H-1.14545C-2.92727 50.4545 -4.45455 48.9273 -4.45455 47.1455V44.8545C-4.45455 44.0909 -4.96364 43.5818 -5.72727 43.5818C-6.49091 43.5818 -7 44.0909 -7 44.8545V47.1455C-7 50.3273 -4.32727 53 -1.14545 53H1.14545C1.90909 53 2.41818 52.4909 2.41818 51.7273C2.41818 50.9636 1.90909 50.4545 1.27273 50.4545Z" fill="#ECECEC"/>
<path d="M-5.72727 34.5455C-4.96364 34.5455 -4.45455 34.0364 -4.45455 33.2727V30.8545C-4.45455 29.0727 -2.92727 27.5455 -1.14545 27.5455H1.14545C1.90909 27.5455 2.41818 27.0364 2.41818 26.2727C2.41818 25.5091 1.90909 25 1.27273 25H-1.14545C-4.32727 25 -7 27.6727 -7 30.8545V33.1455C-7 33.9091 -6.49091 34.5455 -5.72727 34.5455Z" fill="#ECECEC"/>
<path d="M15.1455 25H12.8545C12.0909 25 11.5818 25.5091 11.5818 26.2727C11.5818 27.0364 12.0909 27.5455 12.8545 27.5455H15.1455C16.9273 27.5455 18.4545 29.0727 18.4545 30.8545V33.1455C18.4545 33.9091 18.9636 34.4182 19.7273 34.4182C20.4909 34.4182 21 33.9091 21 33.1455V30.8545C21 27.6727 18.3273 25 15.1455 25Z" fill="#ECECEC"/>
<path d="M239 9L239 -60.0002" stroke="#ECECEC"/>
<path d="M273 9.99983L273 3.49914C273.001 -5.3372 280.164 -12.5003 289 -12.5003L523.999 -12.5002C532.836 -12.5002 539.999 -5.3368 539.999 3.49976L539.999 139C539.999 145.903 534.403 151.5 527.499 151.5V151.5" stroke="#ECECEC"/>
<path d="M130 5L130 -78C130 -86.8366 122.837 -94 114 -94L107 -94" stroke="#ECECEC"/>
<path d="M69 206L69 287" stroke="#ECECEC"/>
<path d="M206 358L206 437" stroke="#ECECEC" stroke-width="2"/>
<path d="M325 355L325 437" stroke="#ECECEC"/>
<path d="M337 354.801L337 391.843C337 400.915 344.36 408.399 353.283 408.399L478.717 408.399C487.64 408.399 495 415.882 495 424.955L495 437" stroke="#ECECEC"/>
<path d="M358 322L424.5 322C433.337 322 440.5 329.163 440.5 338L440.5 368.5C440.5 377.336 447.664 384.5 456.5 384.5L649 384.5C657.837 384.5 665 391.663 665 400.5L665 437" stroke="#ECECEC"/>
<path d="M187 358L187 402.324C187 411.16 179.837 418.324 171 418.324L116 418.324C107.163 418.324 100 425.487 100 434.324L100 437" stroke="url(#paint2_linear_928_43977)" stroke-width="2"/>
<path d="M69 138V56C69 47.1634 61.8366 40 53 40H40.5" stroke="#ECECEC"/>
<path d="M106 -227H148C156.837 -227 164 -219.837 164 -211V5" stroke="#ECECEC"/>
<path d="M343 52L293 52" stroke="#ECECEC"/>
<path d="M225 52L182 52" stroke="#ECECEC"/>
<path d="M225 64H220.837C212.001 64 204.837 71.1634 204.837 80V100.136C204.837 108.973 197.674 116.136 188.837 116.136H117C108.163 116.136 101 123.3 101 132.136V138" stroke="#ECECEC"/>
<path d="M245 77L245 138" stroke="#ECECEC"/>
<path d="M293 58.0003L308.999 58.0003C317.836 58.0003 324.999 65.1638 324.999 74.0003L324.999 287.001" stroke="#ECECEC"/>
<path d="M293 64V64C301.837 64 309 71.1634 309 80V251.349C309 260.185 301.837 267.349 293 267.349H223C214.163 267.349 207 274.512 207 283.349V290" stroke="url(#paint3_linear_928_43977)" stroke-width="2"/>
<path d="M377 17L377 -55" stroke="#ECECEC"/>
<path d="M377 85L377 137" stroke="#ECECEC"/>
<g filter="url(#filter1_d_928_43977)">
<rect x="162" y="290" width="88" height="94" rx="12" fill="white"/>
<path d="M195.02 342C194.32 342 193.76 341.72 193.2 341.3C192.5 340.6 192.36 339.62 192.64 338.78L194.04 334.44C193.06 332.48 192.5 330.24 192.5 328C192.5 320.3 198.8 314 206.5 314C214.2 314 220.5 320.3 220.5 328C220.5 335.7 214.2 342 206.5 342C204.26 342 202.02 341.44 200.06 340.46L195.72 341.86C195.58 342 195.3 342 195.02 342ZM200.9 337.66C202.58 338.64 204.54 339.2 206.5 339.2C212.66 339.2 217.7 334.16 217.7 328C217.7 321.84 212.66 316.8 206.5 316.8C200.34 316.8 195.3 321.84 195.3 328C195.3 329.96 195.86 331.92 196.84 333.6C196.98 333.88 197.12 334.3 196.98 334.72L195.58 339.06L199.92 337.66C199.92 337.66 200.763 337.592 200.9 337.66Z" fill="url(#paint4_radial_928_43977)"/>
<path d="M206.5 330.24C207.737 330.24 208.74 329.237 208.74 328C208.74 326.763 207.737 325.76 206.5 325.76C205.263 325.76 204.26 326.763 204.26 328C204.26 329.237 205.263 330.24 206.5 330.24Z" fill="url(#paint5_radial_928_43977)"/>
<path d="M199.64 330.24C200.877 330.24 201.88 329.237 201.88 328C201.88 326.763 200.877 325.76 199.64 325.76C198.403 325.76 197.4 326.763 197.4 328C197.4 329.237 198.403 330.24 199.64 330.24Z" fill="url(#paint6_radial_928_43977)"/>
<path d="M213.36 330.24C214.597 330.24 215.6 329.237 215.6 328C215.6 326.763 214.597 325.76 213.36 325.76C212.123 325.76 211.12 326.763 211.12 328C211.12 329.237 212.123 330.24 213.36 330.24Z" fill="url(#paint7_radial_928_43977)"/>
<path d="M180.706 359.951V359.518C180.706 358.182 181.071 357.145 181.801 356.406C182.536 355.664 183.456 355.293 184.561 355.293C185.655 355.293 186.505 355.568 187.11 356.119C187.716 356.666 188.044 357.344 188.094 358.152L188.1 358.211H186.934L186.928 358.152C186.901 357.637 186.692 357.197 186.301 356.834C185.915 356.471 185.335 356.289 184.561 356.289C183.78 356.289 183.137 356.566 182.634 357.121C182.134 357.672 181.884 358.471 181.884 359.518V359.951C181.884 360.971 182.134 361.764 182.634 362.33C183.137 362.896 183.78 363.18 184.561 363.18C185.335 363.18 185.909 362.994 186.284 362.623C186.663 362.248 186.878 361.812 186.928 361.316L186.934 361.258H188.1L188.094 361.316C188.012 362.113 187.678 362.789 187.093 363.344C186.507 363.898 185.663 364.176 184.561 364.176C183.456 364.176 182.536 363.809 181.801 363.074C181.071 362.336 180.706 361.295 180.706 359.951ZM189.096 360.977V360.789C189.096 359.848 189.391 359.08 189.981 358.486C190.575 357.889 191.368 357.59 192.36 357.59C193.348 357.59 194.139 357.889 194.733 358.486C195.327 359.08 195.624 359.848 195.624 360.789V360.977C195.624 361.918 195.327 362.688 194.733 363.285C194.139 363.879 193.348 364.176 192.36 364.176C191.368 364.176 190.575 363.879 189.981 363.285C189.391 362.688 189.096 361.918 189.096 360.977ZM190.245 360.789V360.977C190.245 361.617 190.422 362.156 190.778 362.594C191.133 363.031 191.661 363.25 192.36 363.25C193.059 363.25 193.584 363.031 193.936 362.594C194.291 362.156 194.469 361.617 194.469 360.977V360.789C194.469 360.145 194.291 359.605 193.936 359.172C193.584 358.734 193.059 358.516 192.36 358.516C191.661 358.516 191.133 358.734 190.778 359.172C190.422 359.605 190.245 360.145 190.245 360.789ZM202.643 365.582V364H197.264V357.766H198.389V363.115H201.612V357.766H202.737V363.115H203.674V365.582H202.643ZM204.564 360.977V360.789C204.564 359.848 204.848 359.08 205.414 358.486C205.984 357.889 206.768 357.59 207.764 357.59C208.686 357.59 209.385 357.814 209.861 358.264C210.342 358.709 210.582 359.209 210.582 359.764V359.793H209.469V359.758C209.469 359.426 209.334 359.135 209.064 358.885C208.799 358.635 208.365 358.51 207.764 358.51C207.061 358.51 206.543 358.729 206.211 359.166C205.879 359.604 205.713 360.145 205.713 360.789V360.977C205.713 361.621 205.879 362.162 206.211 362.6C206.543 363.033 207.061 363.25 207.764 363.25C208.365 363.25 208.799 363.127 209.064 362.881C209.334 362.635 209.469 362.342 209.469 362.002V361.973H210.582V362.002C210.582 362.553 210.342 363.053 209.861 363.502C209.385 363.951 208.686 364.176 207.764 364.176C206.768 364.176 205.984 363.879 205.414 363.285C204.848 362.688 204.564 361.918 204.564 360.977ZM211.66 360.977V360.789C211.66 359.848 211.945 359.08 212.515 358.486C213.09 357.889 213.847 357.59 214.789 357.59C215.734 357.59 216.461 357.869 216.969 358.428C217.476 358.982 217.73 359.734 217.73 360.684V361.146H212.328V360.25H216.599V360.221C216.599 359.721 216.457 359.311 216.172 358.99C215.886 358.67 215.429 358.51 214.801 358.51C214.14 358.51 213.64 358.729 213.301 359.166C212.961 359.604 212.791 360.145 212.791 360.789V360.977C212.791 361.621 212.969 362.162 213.324 362.6C213.683 363.037 214.236 363.256 214.982 363.256C215.435 363.256 215.826 363.17 216.154 362.998C216.482 362.822 216.746 362.615 216.945 362.377L217.672 362.975C217.453 363.268 217.113 363.541 216.652 363.795C216.195 364.049 215.638 364.176 214.982 364.176C213.908 364.176 213.086 363.879 212.515 363.285C211.945 362.688 211.66 361.918 211.66 360.977ZM218.574 358.65V357.766H224.14V358.65H221.919V364H220.794V358.65H218.574ZM225.47 364V357.766H226.583V361.738C226.583 361.855 226.581 361.988 226.577 362.137C226.577 362.285 226.575 362.42 226.572 362.541H226.618C226.673 362.436 226.734 362.324 226.8 362.207C226.866 362.09 226.943 361.973 227.029 361.855L229.964 357.766H231.095V364H229.976V360.033C229.976 359.912 229.978 359.777 229.982 359.629C229.986 359.477 229.991 359.34 229.999 359.219H229.935C229.884 359.32 229.825 359.432 229.759 359.553C229.693 359.674 229.618 359.793 229.536 359.91L226.601 364H225.47Z" fill="#04101C"/>
</g>
<g filter="url(#filter2_d_928_43977)">
<rect x="225" y="9" width="68" height="94" rx="12" fill="white"/>
<path d="M269.965 55.6H267C266.506 53.8 264.9 52.6 262.924 52.6C260.576 52.6 258.6 54.52 258.6 56.8C258.6 59.08 260.576 61 262.924 61C264.9 61 266.506 59.8 267 58H269.965C270.706 58 271.2 57.4 271.2 56.8C271.2 56.08 270.706 55.6 269.965 55.6ZM262.924 58.6C261.935 58.6 261.071 57.76 261.071 56.8C261.071 55.84 261.935 55 262.924 55C263.912 55 264.776 55.84 264.776 56.8C264.776 57.76 263.912 58.6 262.924 58.6Z" fill="url(#paint8_radial_928_43977)"/>
<path d="M256.009 55.4H247.191C246.477 55.4 246 56.1 246 56.8C246 57.64 246.596 58.2 247.191 58.2H256.009C256.723 58.2 257.2 57.5 257.2 56.8C257.2 55.96 256.604 55.4 256.009 55.4Z" fill="url(#paint9_radial_928_43977)"/>
<path d="M247.191 38.6H256.009C256.723 38.6 257.2 37.9 257.2 37.2C257.2 36.5 256.604 35.8 256.009 35.8H247.191C246.477 35.8 246 36.5 246 37.2C246 37.9 246.596 38.6 247.191 38.6Z" fill="url(#paint10_radial_928_43977)"/>
<path d="M262.924 41.4C264.9 41.4 266.506 40.2 267 38.4H269.965C270.706 38.4 271.2 37.8 271.2 37.2C271.2 36.6 270.582 36 269.965 36H267C266.506 34.2 264.9 33 262.924 33C260.576 33 258.6 34.92 258.6 37.2C258.6 39.48 260.576 41.4 262.924 41.4ZM262.924 35.4C263.912 35.4 264.776 36.24 264.776 37.2C264.776 38.16 263.912 39 262.924 39C261.935 39 261.071 38.16 261.071 37.2C261.071 36.24 261.935 35.4 262.924 35.4Z" fill="url(#paint11_radial_928_43977)"/>
<path d="M247.235 48.2H250.2C250.694 49.88 252.3 51.2 254.276 51.2C256.624 51.2 258.6 49.28 258.6 47C258.6 44.72 256.624 42.8 254.276 42.8C252.3 42.8 250.694 44 250.2 45.8H247.235C246.494 45.8 246 46.4 246 47C246 47.6 246.618 48.2 247.235 48.2ZM254.276 45.2C255.265 45.2 256.129 46.04 256.129 47C256.129 47.96 255.265 48.8 254.276 48.8C253.288 48.8 252.424 47.96 252.424 47C252.424 46.04 253.288 45.2 254.276 45.2Z" fill="url(#paint12_radial_928_43977)"/>
<path d="M269.996 45.6H261.204C260.482 45.6 260 46.3 260 47C260 47.7 260.602 48.4 261.204 48.4H269.996C270.718 48.4 271.2 47.7 271.2 47C271.2 46.3 270.718 45.6 269.996 45.6Z" fill="url(#paint13_radial_928_43977)"/>
<path d="M245.272 78.9512V78.5176C245.272 77.1816 245.639 76.1445 246.373 75.4062C247.108 74.6641 248.049 74.293 249.198 74.293C250.35 74.293 251.293 74.6641 252.028 75.4062C252.762 76.1445 253.129 77.1816 253.129 78.5176V78.9512C253.129 80.2871 252.762 81.3262 252.028 82.0684C251.293 82.8066 250.35 83.1758 249.198 83.1758C248.049 83.1758 247.108 82.8066 246.373 82.0684C245.639 81.3262 245.272 80.2871 245.272 78.9512ZM246.449 78.9512C246.449 79.9668 246.699 80.7598 247.199 81.3301C247.703 81.8965 248.371 82.1797 249.203 82.1797C250.031 82.1797 250.698 81.8965 251.201 81.3301C251.705 80.7598 251.957 79.9668 251.957 78.9512V78.5176C251.957 77.502 251.705 76.7109 251.201 76.1445C250.698 75.5742 250.031 75.2891 249.203 75.2891C248.371 75.2891 247.703 75.5742 247.199 76.1445C246.699 76.7109 246.449 77.502 246.449 78.5176V78.9512ZM255.074 83V74.4688H258.104C259.096 74.4688 259.863 74.6973 260.406 75.1543C260.949 75.6113 261.221 76.2246 261.221 76.9941C261.221 77.7637 260.949 78.3828 260.406 78.8516C259.863 79.3203 259.096 79.5547 258.104 79.5547H256.24V83H255.074ZM256.24 78.6055H258.104C258.834 78.6055 259.342 78.4512 259.627 78.1426C259.912 77.8301 260.055 77.4473 260.055 76.9941C260.055 76.541 259.912 76.166 259.627 75.8691C259.342 75.5684 258.834 75.418 258.104 75.418H256.24V78.6055ZM260.365 83L258.127 79.0684L259.322 78.9219L261.695 83H260.365ZM263.201 83V74.4688H264.724L267.496 80.8848C267.547 81.002 267.595 81.125 267.642 81.2539C267.693 81.3789 267.738 81.4961 267.777 81.6055H267.824C267.859 81.4961 267.9 81.3789 267.947 81.2539C267.994 81.125 268.043 81.002 268.094 80.8848L270.847 74.4688H272.4V83H271.275V76.7305C271.275 76.6133 271.277 76.4824 271.281 76.3379C271.289 76.1895 271.301 76.0566 271.316 75.9395H271.263C271.232 76.0566 271.189 76.1895 271.135 76.3379C271.084 76.4824 271.033 76.6133 270.982 76.7305L268.299 83H267.261L264.56 76.7305C264.51 76.6133 264.459 76.4824 264.408 76.3379C264.361 76.1895 264.324 76.0566 264.297 75.9395H264.244C264.256 76.0566 264.265 76.1895 264.273 76.3379C264.285 76.4824 264.291 76.6133 264.291 76.7305V83H263.201Z" fill="#04101C"/>
</g>
<defs>
<filter id="filter0_d_928_43977" x="58" y="429" width="88" height="114" filterUnits="userSpaceOnUse" color-interpolation-filters="sRGB">
<feFlood flood-opacity="0" result="BackgroundImageFix"/>
<feColorMatrix in="SourceAlpha" type="matrix" values="0 0 0 0 0 0 0 0 0 0 0 0 0 0 0 0 0 0 127 0" result="hardAlpha"/>
<feOffset dx="1" dy="2"/>
<feGaussianBlur stdDeviation="5"/>
<feComposite in2="hardAlpha" operator="out"/>
<feColorMatrix type="matrix" values="0 0 0 0 0.00780001 0 0 0 0 0.045344 0 0 0 0 0.0800001 0 0 0 0.04 0"/>
<feBlend mode="normal" in2="BackgroundImageFix" result="effect1_dropShadow_928_43977"/>
<feBlend mode="normal" in="SourceGraphic" in2="effect1_dropShadow_928_43977" result="shape"/>
</filter>
<filter id="filter1_d_928_43977" x="153" y="282" width="108" height="114" filterUnits="userSpaceOnUse" color-interpolation-filters="sRGB">
<feFlood flood-opacity="0" result="BackgroundImageFix"/>
<feColorMatrix in="SourceAlpha" type="matrix" values="0 0 0 0 0 0 0 0 0 0 0 0 0 0 0 0 0 0 127 0" result="hardAlpha"/>
<feOffset dx="1" dy="2"/>
<feGaussianBlur stdDeviation="5"/>
<feComposite in2="hardAlpha" operator="out"/>
<feColorMatrix type="matrix" values="0 0 0 0 0.00780001 0 0 0 0 0.045344 0 0 0 0 0.0800001 0 0 0 0.04 0"/>
<feBlend mode="normal" in2="BackgroundImageFix" result="effect1_dropShadow_928_43977"/>
<feBlend mode="normal" in="SourceGraphic" in2="effect1_dropShadow_928_43977" result="shape"/>
</filter>
<filter id="filter2_d_928_43977" x="216" y="1" width="88" height="114" filterUnits="userSpaceOnUse" color-interpolation-filters="sRGB">
<feFlood flood-opacity="0" result="BackgroundImageFix"/>
<feColorMatrix in="SourceAlpha" type="matrix" values="0 0 0 0 0 0 0 0 0 0 0 0 0 0 0 0 0 0 127 0" result="hardAlpha"/>
<feOffset dx="1" dy="2"/>
<feGaussianBlur stdDeviation="5"/>
<feComposite in2="hardAlpha" operator="out"/>
<feColorMatrix type="matrix" values="0 0 0 0 0.00780001 0 0 0 0 0.045344 0 0 0 0 0.0800001 0 0 0 0.04 0"/>
<feBlend mode="normal" in2="BackgroundImageFix" result="effect1_dropShadow_928_43977"/>
<feBlend mode="normal" in="SourceGraphic" in2="effect1_dropShadow_928_43977" result="shape"/>
</filter>
<radialGradient id="paint0_radial_928_43977" cx="0" cy="0" r="1" gradientUnits="userSpaceOnUse" gradientTransform="translate(101.211 475) rotate(101.227) scale(17.8414 20.4595)">
<stop offset="0.055" stop-color="#7A73FF"/>
<stop offset="0.65" stop-color="#67DDFA"/>
<stop offset="1" stop-color="#4AFCF1"/>
</radialGradient>
<radialGradient id="paint1_radial_928_43977" cx="0" cy="0" r="1" gradientUnits="userSpaceOnUse" gradientTransform="translate(101.211 475) rotate(101.227) scale(17.8414 20.4595)">
<stop offset="0.055" stop-color="#7A73FF"/>
<stop offset="0.65" stop-color="#67DDFA"/>
<stop offset="1" stop-color="#4AFCF1"/>
</radialGradient>
<linearGradient id="paint2_linear_928_43977" x1="274" y1="481.438" x2="221.14" y2="312.73" gradientUnits="userSpaceOnUse">
<stop offset="0.338542" stop-color="#7A73FF"/>
<stop offset="0.734375" stop-color="#75CDFF"/>
<stop offset="1" stop-color="#4AFCF1"/>
</linearGradient>
<linearGradient id="paint3_linear_928_43977" x1="411" y1="417.125" x2="155.268" y2="82.6281" gradientUnits="userSpaceOnUse">
<stop offset="0.338542" stop-color="#7A73FF"/>
<stop offset="0.734375" stop-color="#75CDFF"/>
<stop offset="1" stop-color="#4AFCF1"/>
</linearGradient>
<radialGradient id="paint4_radial_928_43977" cx="0" cy="0" r="1" gradientUnits="userSpaceOnUse" gradientTransform="translate(206.5 328) rotate(99.7276) scale(17.7553)">
<stop offset="0.055" stop-color="#7A73FF"/>
<stop offset="0.65" stop-color="#67DDFA"/>
<stop offset="1" stop-color="#4AFCF1"/>
</radialGradient>
<radialGradient id="paint5_radial_928_43977" cx="0" cy="0" r="1" gradientUnits="userSpaceOnUse" gradientTransform="translate(206.5 328) rotate(99.7276) scale(17.7553)">
<stop offset="0.055" stop-color="#7A73FF"/>
<stop offset="0.65" stop-color="#67DDFA"/>
<stop offset="1" stop-color="#4AFCF1"/>
</radialGradient>
<radialGradient id="paint6_radial_928_43977" cx="0" cy="0" r="1" gradientUnits="userSpaceOnUse" gradientTransform="translate(206.5 328) rotate(99.7276) scale(17.7553)">
<stop offset="0.055" stop-color="#7A73FF"/>
<stop offset="0.65" stop-color="#67DDFA"/>
<stop offset="1" stop-color="#4AFCF1"/>
</radialGradient>
<radialGradient id="paint7_radial_928_43977" cx="0" cy="0" r="1" gradientUnits="userSpaceOnUse" gradientTransform="translate(206.5 328) rotate(99.7276) scale(17.7553)">
<stop offset="0.055" stop-color="#7A73FF"/>
<stop offset="0.65" stop-color="#67DDFA"/>
<stop offset="1" stop-color="#4AFCF1"/>
</radialGradient>
<radialGradient id="paint8_radial_928_43977" cx="0" cy="0" r="1" gradientUnits="userSpaceOnUse" gradientTransform="translate(258.6 47) rotate(98.7708) scale(17.7071 16.0233)">
<stop offset="0.055" stop-color="#7A73FF"/>
<stop offset="0.65" stop-color="#67DDFA"/>
<stop offset="1" stop-color="#4AFCF1"/>
</radialGradient>
<radialGradient id="paint9_radial_928_43977" cx="0" cy="0" r="1" gradientUnits="userSpaceOnUse" gradientTransform="translate(258.6 47) rotate(98.7708) scale(17.7071 16.0233)">
<stop offset="0.055" stop-color="#7A73FF"/>
<stop offset="0.65" stop-color="#67DDFA"/>
<stop offset="1" stop-color="#4AFCF1"/>
</radialGradient>
<radialGradient id="paint10_radial_928_43977" cx="0" cy="0" r="1" gradientUnits="userSpaceOnUse" gradientTransform="translate(258.6 47) rotate(98.7708) scale(17.7071 16.0233)">
<stop offset="0.055" stop-color="#7A73FF"/>
<stop offset="0.65" stop-color="#67DDFA"/>
<stop offset="1" stop-color="#4AFCF1"/>
</radialGradient>
<radialGradient id="paint11_radial_928_43977" cx="0" cy="0" r="1" gradientUnits="userSpaceOnUse" gradientTransform="translate(258.6 47) rotate(98.7708) scale(17.7071 16.0233)">
<stop offset="0.055" stop-color="#7A73FF"/>
<stop offset="0.65" stop-color="#67DDFA"/>
<stop offset="1" stop-color="#4AFCF1"/>
</radialGradient>
<radialGradient id="paint12_radial_928_43977" cx="0" cy="0" r="1" gradientUnits="userSpaceOnUse" gradientTransform="translate(258.6 47) rotate(98.7708) scale(17.7071 16.0233)">
<stop offset="0.055" stop-color="#7A73FF"/>
<stop offset="0.65" stop-color="#67DDFA"/>
<stop offset="1" stop-color="#4AFCF1"/>
</radialGradient>
<radialGradient id="paint13_radial_928_43977" cx="0" cy="0" r="1" gradientUnits="userSpaceOnUse" gradientTransform="translate(258.6 47) rotate(98.7708) scale(17.7071 16.0233)">
<stop offset="0.055" stop-color="#7A73FF"/>
<stop offset="0.65" stop-color="#67DDFA"/>
<stop offset="1" stop-color="#4AFCF1"/>
</radialGradient>
</defs>
</svg>
