<svg width="380" height="482" viewBox="0 0 380 482" fill="none" xmlns="http://www.w3.org/2000/svg">
<g clip-path="url(#clip0_936_43188)">
<rect x="358.5" y="183.5" width="67" height="67" rx="11.5" fill="#F9FBFF"/>
<rect x="358.5" y="183.5" width="67" height="67" rx="11.5" stroke="#ECECEC"/>
<path fill-rule="evenodd" clip-rule="evenodd" d="M392 233C400.837 233 408 225.837 408 217C408 211.866 405.582 207.297 401.823 204.37L399.181 202.698C397.022 201.612 394.582 201 392 201C383.163 201 376 208.163 376 217C376 225.837 383.163 233 392 233ZM399.181 202.698V210.292C397.317 208.202 394.622 206.889 391.625 206.889C385.999 206.889 381.437 211.517 381.437 217.226C381.437 222.935 385.999 227.563 391.625 227.563C394.622 227.563 397.317 226.25 399.181 224.16L399.107 226.311C399.097 226.614 399.339 226.864 399.642 226.864H401.358C401.654 226.864 401.893 226.624 401.892 226.328L401.823 204.37L399.181 202.698ZM399.606 217.226C399.606 221.525 396.166 225.01 391.922 225.01C387.679 225.01 384.239 221.525 384.239 217.226C384.239 212.927 387.679 209.441 391.922 209.441C396.166 209.441 399.606 212.927 399.606 217.226Z" fill="#ECECEC"/>
<rect x="358.5" y="43.5" width="67" height="67" rx="11.5" fill="#F9FBFF"/>
<rect x="358.5" y="43.5" width="67" height="67" rx="11.5" stroke="#ECECEC"/>
<path d="M398.409 83.0454C397.864 83.0454 397.455 82.7727 397.182 82.3636L395.546 79.5C394.864 78 393.501 76.6363 392.001 75.8182L389.137 74.1818C388.728 74.0454 388.455 73.5 388.455 73.0909C388.455 72.5454 388.728 72.1363 389.137 71.8636L392.001 70.2273C393.501 69.4091 394.864 68.1818 395.682 66.5454L397.319 63.6818C397.455 63.2727 398 63 398.409 63C398.955 63 399.364 63.2727 399.637 63.6818L401.273 66.5454C402.091 68.0454 403.455 69.4091 404.955 70.2273L407.818 71.8636C408.227 72.1363 408.5 72.5454 408.5 73.0909C408.5 73.6363 408.227 74.0454 407.818 74.3182L404.955 75.9545C403.455 76.7727 402.091 78.1363 401.273 79.6363L399.637 82.5C399.364 82.7727 398.955 83.0454 398.409 83.0454ZM392.682 73.0909L393.364 73.5C395.41 74.5909 397.046 76.2272 398.137 78.2727L398.546 78.9545L398.955 78.2727C400.046 76.2272 401.682 74.5909 403.727 73.5L404.409 73.0909L403.727 72.6818C401.682 71.5909 400.046 69.9545 398.955 67.9091L398.546 67.2273L398.137 67.9091C397.046 69.9545 395.41 71.5909 393.364 72.6818L392.682 73.0909Z" fill="#ECECEC"/>
<path d="M386 93C385.454 93 385.045 92.7273 384.773 92.3182L383.954 90.6818C383.273 89.3182 382.182 88.2273 380.818 87.5455L379.182 86.7273C378.773 86.4546 378.5 85.9091 378.5 85.5C378.5 84.9546 378.773 84.5455 379.182 84.2727L380.818 83.4546C382.182 82.7727 383.273 81.6818 383.954 80.3182L384.773 78.6818C385.318 77.8637 386.682 77.8637 387.227 78.6818L388.045 80.3182C388.727 81.6818 389.818 82.7727 391.181 83.4546L392.818 84.2727C393.227 84.5455 393.499 84.9546 393.499 85.5C393.499 86.0455 393.227 86.4546 392.818 86.7273L391.318 87.5455C389.954 88.2273 388.863 89.3182 388.181 90.6818L387.363 92.3182C386.954 92.7273 386.545 93 386 93ZM382.727 85.5C384.091 86.3182 385.318 87.5455 386.136 88.9091C386.954 87.5455 388.181 86.3182 389.545 85.5C388.045 84.5455 386.954 83.4546 386 82.0909C385.182 83.4546 384.091 84.5455 382.727 85.5Z" fill="#ECECEC"/>
<rect x="198.5" y="38.5" width="67" height="67" rx="11.5" fill="#F9FBFF"/>
<rect x="198.5" y="38.5" width="67" height="67" rx="11.5" stroke="#ECECEC"/>
<path d="M242.732 58.4328C242.155 57.8557 241.289 57.8557 240.713 58.4328C240.136 59.01 240.136 59.8756 240.713 60.4527C243.309 63.0498 244.751 66.5124 244.751 70.2637C244.751 74.0149 243.309 77.4776 240.713 80.0746C238.116 82.6716 234.655 84.1144 230.904 84.1144C227.731 84.1144 224.558 82.9602 222.106 80.9403L223.981 78.9204C226 80.5075 228.452 81.2289 230.76 81.2289C233.645 81.2289 236.385 80.2189 238.549 78.0547C242.876 73.7264 242.876 66.6567 238.549 62.4726C234.222 58.1443 227.154 58.1443 222.971 62.4726C219.077 66.3682 218.644 72.5721 221.962 76.9005L218.933 80.0746C218.356 80.6517 218.356 81.5174 218.933 82.0945C222.106 85.2687 226.289 87 230.76 87C235.232 87 239.414 85.2687 242.588 82.0945C245.761 78.9204 247.492 74.7363 247.492 70.2637C247.636 65.791 245.905 61.607 242.732 58.4328ZM225.135 64.4925C226.722 62.9055 228.885 62.0398 230.904 62.0398C233.068 62.0398 235.087 62.9055 236.674 64.4925C239.847 67.6667 239.847 72.8607 236.674 76.0348C233.501 79.209 228.308 79.209 225.135 76.0348C221.962 72.8607 221.962 67.6667 225.135 64.4925Z" fill="#ECECEC"/>
<rect x="129.5" y="171.5" width="67" height="67" rx="11.5" fill="#F9FBFF"/>
<rect x="129.5" y="171.5" width="67" height="67" rx="11.5" stroke="#ECECEC"/>
<path d="M175.854 192.617C174.03 190.793 170.943 190.512 167.295 191.775C166.032 192.196 164.77 192.898 163.507 193.599C158.456 190.652 153.686 190.091 151.16 192.617C148.495 195.143 149.196 199.914 152.142 204.967C149.056 210.159 148.635 214.93 151.16 217.316C152.142 218.439 153.686 219 155.51 219C157.895 219 160.701 218.018 163.507 216.334C166.313 218.018 169.119 219 171.504 219C173.328 219 174.731 218.439 175.854 217.456C178.379 214.93 177.818 210.159 174.872 205.107C177.958 199.774 178.379 195.003 175.854 192.617ZM168.137 194.441C170.803 193.459 172.767 193.599 173.889 194.582C175.152 195.845 174.872 198.932 173.188 202.3C172.206 201.037 171.224 199.774 169.961 198.511C168.698 197.248 167.436 196.266 166.173 195.283C166.874 195.003 167.576 194.582 168.137 194.441ZM153.125 215.351C151.862 214.088 152.142 211.001 153.826 207.633C154.808 208.896 155.79 210.159 157.053 211.422C158.316 212.685 159.579 213.808 160.841 214.65C157.334 216.474 154.387 216.614 153.125 215.351ZM173.889 215.351C172.627 216.614 169.68 216.334 166.032 214.65C167.295 213.667 168.558 212.545 169.821 211.422C170.382 210.861 170.943 210.299 171.364 209.738C171.925 209.177 171.785 208.335 171.224 207.773C170.662 207.212 169.821 207.352 169.259 207.914C168.839 208.475 168.277 208.896 167.856 209.457C166.453 210.861 164.91 212.124 163.507 213.106C162.104 212.124 160.561 210.861 159.158 209.457C152.984 203.282 151.02 196.687 153.125 194.582C153.546 194.02 154.387 193.74 155.51 193.74C156.913 193.74 158.877 194.301 160.841 195.283C159.579 196.266 158.316 197.388 157.053 198.511C156.492 199.213 155.79 199.914 155.229 200.616C154.668 201.177 154.808 202.019 155.369 202.581C155.931 203.142 156.913 203.002 157.334 202.44C157.895 201.739 158.456 201.177 159.017 200.616C160.42 199.213 161.964 197.95 163.367 196.967C164.77 197.95 166.313 199.213 167.856 200.616C174.03 206.651 175.994 213.246 173.889 215.351Z" fill="#ECECEC"/>
<path d="M163.5 207.24C164.737 207.24 165.74 206.237 165.74 205C165.74 203.763 164.737 202.76 163.5 202.76C162.263 202.76 161.26 203.763 161.26 205C161.26 206.237 162.263 207.24 163.5 207.24Z" fill="#ECECEC"/>
<g filter="url(#filter0_d_936_43188)">
<rect x="66" y="304" width="103" height="94" rx="12" fill="white"/>
<path fill-rule="evenodd" clip-rule="evenodd" d="M104.049 334.284C101.792 332.023 103.412 328 106.679 328H127.325C130.592 328 132.212 332.023 129.955 334.284C129.954 334.286 129.953 334.287 129.951 334.288L121.801 342.548V349.769C121.801 350.929 121.238 352.159 120.156 352.83L116.158 355.575L116.141 355.586C115.251 356.179 114.226 356.077 113.489 355.643C112.768 355.217 112.203 354.408 112.203 353.415V342.548L104.049 334.284ZM105.88 331.364C105.731 331.725 105.799 332.075 106.031 332.307L106.039 332.314L114.599 340.99C114.858 341.252 115.003 341.605 115.003 341.973V352.972L118.602 350.501C118.625 350.484 118.65 350.469 118.674 350.454C118.824 350.365 119.001 350.103 119.001 349.769V341.973C119.001 341.605 119.146 341.252 119.405 340.99L127.973 332.307C128.205 332.075 128.273 331.725 128.124 331.364C127.978 331.01 127.687 330.8 127.325 330.8H106.679C106.317 330.8 106.026 331.01 105.88 331.364Z" fill="url(#paint0_radial_936_43188)"/>
<path d="M84.4541 378L87.9463 369.41H89.083L92.5752 378H91.3447L88.831 371.602C88.7646 371.441 88.706 371.289 88.6552 371.145C88.6084 371 88.5654 370.854 88.5263 370.705H88.4619C88.4228 370.854 88.3779 371 88.3271 371.145C88.2802 371.289 88.2236 371.441 88.1572 371.602L85.6259 378H84.4541ZM85.9248 375.797L86.3056 374.836L90.7002 374.842L91.0752 375.803L85.9248 375.797ZM93.4538 371.766H94.5788V374.379H97.8835V371.766H99.0085V378H97.8835V375.27H94.5788V378H93.4538V371.766ZM100.666 376.166C100.666 375.529 100.94 375.035 101.487 374.684C102.038 374.332 102.75 374.156 103.625 374.156H105.295V373.711C105.295 373.336 105.178 373.037 104.944 372.814C104.713 372.592 104.319 372.48 103.76 372.48C103.206 372.48 102.805 372.576 102.559 372.768C102.313 372.955 102.19 373.182 102.19 373.447V373.477H101.065V373.447C101.065 372.936 101.309 372.498 101.797 372.135C102.286 371.771 102.95 371.59 103.79 371.59C104.625 371.59 105.272 371.77 105.729 372.129C106.19 372.484 106.42 373.012 106.42 373.711V376.594C106.42 376.848 106.442 377.088 106.485 377.314C106.528 377.537 106.588 377.734 106.666 377.906V378H105.583C105.52 377.902 105.463 377.773 105.413 377.613C105.362 377.453 105.331 377.295 105.319 377.139C105.155 377.4 104.881 377.629 104.499 377.824C104.116 378.02 103.625 378.117 103.028 378.117C102.356 378.117 101.793 377.949 101.34 377.613C100.891 377.277 100.666 376.795 100.666 376.166ZM101.791 376.107C101.791 376.459 101.913 376.732 102.155 376.928C102.397 377.123 102.776 377.221 103.291 377.221C103.807 377.221 104.27 377.072 104.68 376.775C105.09 376.479 105.295 376.164 105.295 375.832V374.953H103.754C103.114 374.953 102.625 375.057 102.29 375.264C101.958 375.467 101.791 375.748 101.791 376.107ZM110.047 372.65L109.942 375.135C109.895 376.186 109.75 376.947 109.508 377.42C109.27 377.893 108.858 378.129 108.272 378.129C108.127 378.129 108 378.119 107.891 378.1C107.781 378.084 107.69 378.059 107.615 378.023V377.057C107.682 377.084 107.75 377.104 107.821 377.115C107.895 377.127 107.979 377.133 108.073 377.133C108.369 377.133 108.574 376.98 108.688 376.676C108.805 376.367 108.879 375.803 108.91 374.982L109.051 371.766H113.862V378H112.737V372.65H110.047ZM115.877 378V371.766H116.99V375.738C116.99 375.855 116.988 375.988 116.984 376.137C116.984 376.285 116.982 376.42 116.979 376.541H117.025C117.08 376.436 117.141 376.324 117.207 376.207C117.273 376.09 117.35 375.973 117.436 375.855L120.371 371.766H121.502V378H120.383V374.033C120.383 373.912 120.385 373.777 120.389 373.629C120.393 373.477 120.398 373.34 120.406 373.219H120.342C120.291 373.32 120.232 373.432 120.166 373.553C120.1 373.674 120.025 373.793 119.943 373.91L117.008 378H115.877ZM122.82 372.65V371.766H128.386V372.65H126.166V378H125.041V372.65H122.82ZM129.716 378V371.766H130.83V375.738C130.83 375.855 130.828 375.988 130.824 376.137C130.824 376.285 130.822 376.42 130.818 376.541H130.865C130.919 376.436 130.98 376.324 131.046 376.207C131.113 376.09 131.189 375.973 131.275 375.855L134.21 371.766H135.341V378H134.222V374.033C134.222 373.912 134.224 373.777 134.228 373.629C134.232 373.477 134.238 373.34 134.246 373.219H134.181C134.13 373.32 134.072 373.432 134.005 373.553C133.939 373.674 133.865 373.793 133.783 373.91L130.847 378H129.716ZM141.763 378L139.062 375.146L139.753 374.414L143.199 378H141.763ZM137.908 374.385H139.138L141.552 371.766H142.882L139.601 375.27H137.908V374.385ZM138.47 371.766V378H137.351V371.766H138.47ZM143.919 376.166C143.919 375.529 144.192 375.035 144.739 374.684C145.29 374.332 146.003 374.156 146.878 374.156H148.548V373.711C148.548 373.336 148.431 373.037 148.196 372.814C147.966 372.592 147.571 372.48 147.013 372.48C146.458 372.48 146.058 372.576 145.812 372.768C145.565 372.955 145.442 373.182 145.442 373.447V373.477H144.317V373.447C144.317 372.936 144.562 372.498 145.05 372.135C145.538 371.771 146.202 371.59 147.042 371.59C147.878 371.59 148.524 371.77 148.981 372.129C149.442 372.484 149.673 373.012 149.673 373.711V376.594C149.673 376.848 149.694 377.088 149.737 377.314C149.78 377.537 149.841 377.734 149.919 377.906V378H148.835C148.772 377.902 148.716 377.773 148.665 377.613C148.614 377.453 148.583 377.295 148.571 377.139C148.407 377.4 148.134 377.629 147.751 377.824C147.368 378.02 146.878 378.117 146.28 378.117C145.608 378.117 145.046 377.949 144.593 377.613C144.144 377.277 143.919 376.795 143.919 376.166ZM145.044 376.107C145.044 376.459 145.165 376.732 145.407 376.928C145.649 377.123 146.028 377.221 146.544 377.221C147.06 377.221 147.522 377.072 147.933 376.775C148.343 376.479 148.548 376.164 148.548 375.832V374.953H147.007C146.366 374.953 145.878 375.057 145.542 375.264C145.21 375.467 145.044 375.748 145.044 376.107Z" fill="#04101C"/>
</g>
<rect x="209.5" y="304.5" width="67" height="67" rx="11.5" fill="#F9FBFF"/>
<rect x="209.5" y="304.5" width="67" height="67" rx="11.5" stroke="#ECECEC"/>
<path fill-rule="evenodd" clip-rule="evenodd" d="M240.916 324.491C242.388 323.836 244.033 323.836 245.505 324.491L245.527 324.502L253.396 328.188C253.406 328.193 253.416 328.197 253.426 328.202C255.189 329.085 256.233 331.025 255.889 333.105C255.234 337.165 253.253 345.169 245.91 351.053L245.896 351.064C244.294 352.312 242.127 352.312 240.524 351.064L240.511 351.053C233.165 345.168 231.185 337.161 230.532 333.102C230.527 333.073 230.523 333.044 230.521 333.015C230.358 331.218 231.158 329.102 233.154 328.187L240.886 324.505C240.896 324.5 240.906 324.496 240.916 324.491ZM241.965 326.811L234.239 330.489L234.219 330.499C233.441 330.853 232.978 331.763 233.052 332.744C233.675 336.577 235.513 343.782 242.095 349.061C242.774 349.586 243.646 349.586 244.326 349.061C250.935 343.761 252.761 336.517 253.376 332.697L253.377 332.691C253.538 331.726 253.066 330.876 252.299 330.485L244.459 326.812C243.654 326.457 242.77 326.457 241.965 326.811Z" fill="#ECECEC"/>
<path fill-rule="evenodd" clip-rule="evenodd" d="M249.08 331.89C249.643 332.311 249.758 333.108 249.337 333.671L243.626 341.308C243.387 341.627 243.011 341.816 242.612 341.818C242.213 341.82 241.836 341.634 241.594 341.316L238.396 337.116C237.97 336.557 238.078 335.759 238.638 335.333C239.197 334.907 239.995 335.015 240.421 335.574L242.598 338.433L247.298 332.147C247.719 331.584 248.517 331.469 249.08 331.89Z" fill="#ECECEC"/>
<g filter="url(#filter1_d_936_43188)">
<rect x="240" y="171" width="68" height="94" rx="12" fill="white"/>
<path d="M284.965 217.6H282C281.506 215.8 279.9 214.6 277.924 214.6C275.576 214.6 273.6 216.52 273.6 218.8C273.6 221.08 275.576 223 277.924 223C279.9 223 281.506 221.8 282 220H284.965C285.706 220 286.2 219.4 286.2 218.8C286.2 218.08 285.706 217.6 284.965 217.6ZM277.924 220.6C276.935 220.6 276.071 219.76 276.071 218.8C276.071 217.84 276.935 217 277.924 217C278.912 217 279.776 217.84 279.776 218.8C279.776 219.76 278.912 220.6 277.924 220.6Z" fill="url(#paint1_radial_936_43188)"/>
<path d="M271.009 217.4H262.191C261.477 217.4 261 218.1 261 218.8C261 219.64 261.596 220.2 262.191 220.2H271.009C271.723 220.2 272.2 219.5 272.2 218.8C272.2 217.96 271.604 217.4 271.009 217.4Z" fill="url(#paint2_radial_936_43188)"/>
<path d="M262.191 200.6H271.009C271.723 200.6 272.2 199.9 272.2 199.2C272.2 198.5 271.604 197.8 271.009 197.8H262.191C261.477 197.8 261 198.5 261 199.2C261 199.9 261.596 200.6 262.191 200.6Z" fill="url(#paint3_radial_936_43188)"/>
<path d="M277.924 203.4C279.9 203.4 281.506 202.2 282 200.4H284.965C285.706 200.4 286.2 199.8 286.2 199.2C286.2 198.6 285.582 198 284.965 198H282C281.506 196.2 279.9 195 277.924 195C275.576 195 273.6 196.92 273.6 199.2C273.6 201.48 275.576 203.4 277.924 203.4ZM277.924 197.4C278.912 197.4 279.776 198.24 279.776 199.2C279.776 200.16 278.912 201 277.924 201C276.935 201 276.071 200.16 276.071 199.2C276.071 198.24 276.935 197.4 277.924 197.4Z" fill="url(#paint4_radial_936_43188)"/>
<path d="M262.235 210.2H265.2C265.694 211.88 267.3 213.2 269.276 213.2C271.624 213.2 273.6 211.28 273.6 209C273.6 206.72 271.624 204.8 269.276 204.8C267.3 204.8 265.694 206 265.2 207.8H262.235C261.494 207.8 261 208.4 261 209C261 209.6 261.618 210.2 262.235 210.2ZM269.276 207.2C270.265 207.2 271.129 208.04 271.129 209C271.129 209.96 270.265 210.8 269.276 210.8C268.288 210.8 267.424 209.96 267.424 209C267.424 208.04 268.288 207.2 269.276 207.2Z" fill="url(#paint5_radial_936_43188)"/>
<path d="M284.996 207.6H276.204C275.482 207.6 275 208.3 275 209C275 209.7 275.602 210.4 276.204 210.4H284.996C285.718 210.4 286.2 209.7 286.2 209C286.2 208.3 285.718 207.6 284.996 207.6Z" fill="url(#paint6_radial_936_43188)"/>
<path d="M260.272 240.951V240.518C260.272 239.182 260.639 238.145 261.373 237.406C262.108 236.664 263.049 236.293 264.198 236.293C265.35 236.293 266.293 236.664 267.028 237.406C267.762 238.145 268.129 239.182 268.129 240.518V240.951C268.129 242.287 267.762 243.326 267.028 244.068C266.293 244.807 265.35 245.176 264.198 245.176C263.049 245.176 262.108 244.807 261.373 244.068C260.639 243.326 260.272 242.287 260.272 240.951ZM261.449 240.951C261.449 241.967 261.699 242.76 262.199 243.33C262.703 243.896 263.371 244.18 264.203 244.18C265.031 244.18 265.698 243.896 266.201 243.33C266.705 242.76 266.957 241.967 266.957 240.951V240.518C266.957 239.502 266.705 238.711 266.201 238.145C265.698 237.574 265.031 237.289 264.203 237.289C263.371 237.289 262.703 237.574 262.199 238.145C261.699 238.711 261.449 239.502 261.449 240.518V240.951ZM270.074 245V236.469H273.104C274.096 236.469 274.863 236.697 275.406 237.154C275.949 237.611 276.221 238.225 276.221 238.994C276.221 239.764 275.949 240.383 275.406 240.852C274.863 241.32 274.096 241.555 273.104 241.555H271.24V245H270.074ZM271.24 240.605H273.104C273.834 240.605 274.342 240.451 274.627 240.143C274.912 239.83 275.055 239.447 275.055 238.994C275.055 238.541 274.912 238.166 274.627 237.869C274.342 237.568 273.834 237.418 273.104 237.418H271.24V240.605ZM275.365 245L273.127 241.068L274.322 240.922L276.695 245H275.365ZM278.201 245V236.469H279.724L282.496 242.885C282.547 243.002 282.595 243.125 282.642 243.254C282.693 243.379 282.738 243.496 282.777 243.605H282.824C282.859 243.496 282.9 243.379 282.947 243.254C282.994 243.125 283.043 243.002 283.094 242.885L285.847 236.469H287.4V245H286.275V238.73C286.275 238.613 286.277 238.482 286.281 238.338C286.289 238.189 286.301 238.057 286.316 237.939H286.263C286.232 238.057 286.189 238.189 286.135 238.338C286.084 238.482 286.033 238.613 285.982 238.73L283.299 245H282.261L279.56 238.73C279.51 238.613 279.459 238.482 279.408 238.338C279.361 238.189 279.324 238.057 279.297 237.939H279.244C279.256 238.057 279.265 238.189 279.273 238.338C279.285 238.482 279.291 238.613 279.291 238.73V245H278.201Z" fill="#04101C"/>
</g>
<rect x="54.5" y="38.5" width="67" height="67" rx="11.5" fill="#F9FBFF"/>
<rect x="54.5" y="38.5" width="67" height="67" rx="11.5" stroke="#ECECEC"/>
<path d="M92.8 79.14C92.8 78.3 92.24 77.74 91.4 77.74H77.26C76.14 77.74 75.3 76.9 75.3 75.78V68.22C75.3 67.1 76.14 66.26 77.26 66.26H91.4C92.24 66.26 92.8 65.7 92.8 64.86C92.8 64.02 92.24 63.46 91.4 63.46H77.26C74.6 63.46 72.5 65.56 72.5 68.22V75.78C72.5 78.44 74.6 80.54 77.26 80.54H91.4C92.1 80.54 92.8 79.98 92.8 79.14Z" fill="#ECECEC"/>
<path d="M98.54 63.46H97.28V60.8H99.38C100.22 60.8 100.78 60.24 100.78 59.4C100.78 58.56 100.22 58 99.38 58H92.52C91.68 58 91.12 58.56 91.12 59.4C91.12 60.24 91.68 60.8 92.52 60.8H94.62V83.2H92.52C91.68 83.2 91.12 83.76 91.12 84.6C91.12 85.44 91.68 86 92.52 86H99.38C100.22 86 100.78 85.44 100.78 84.6C100.78 83.76 100.22 83.2 99.38 83.2H97.28V80.54H98.54C101.2 80.54 103.3 78.44 103.3 75.78V68.22C103.3 65.56 101.2 63.46 98.54 63.46ZM100.5 75.78C100.5 76.9 99.66 77.74 98.54 77.74H97.28V66.26H98.54C99.66 66.26 100.5 67.1 100.5 68.22V75.78Z" fill="#ECECEC"/>
<rect x="36.5" y="453.5" width="67" height="67" rx="11.5" fill="#F9FBFF"/>
<rect x="36.5" y="453.5" width="67" height="67" rx="11.5" stroke="#ECECEC"/>
<path d="M69.3883 498.97H61.1293C60.4048 498.97 59.6803 498.537 59.3906 497.96C58.9559 497.383 58.9559 496.806 59.2457 496.085C60.9844 492.045 64.8966 489.303 69.3883 489.303C73.8801 489.303 77.6474 485.552 77.6474 481.08C77.6474 476.607 73.8801 473 69.2434 473C64.7517 473 60.9844 476.751 60.9844 481.224C60.9844 483.821 62.1436 486.129 64.0272 487.572C60.6946 488.871 57.7967 491.612 56.3477 495.075C55.7682 496.517 55.9131 498.249 56.7824 499.547C57.7967 500.99 59.2457 501.856 60.9844 501.856H69.2434C70.1128 501.856 70.6924 501.279 70.6924 500.413C70.6924 499.547 70.1128 498.97 69.3883 498.97ZM63.8823 481.224C63.8823 478.338 66.3455 475.886 69.2434 475.886C72.1414 475.886 74.6046 478.338 74.6046 481.224C74.6046 484.109 72.1414 486.562 69.2434 486.562C66.3455 486.562 63.8823 484.109 63.8823 481.224Z" fill="#ECECEC"/>
<path d="M84.4575 488.582C83.733 488.149 82.8636 488.294 82.4289 489.015L76.3433 497.96L74.025 494.93C73.5903 494.353 72.576 494.209 71.9965 494.642C71.4169 495.075 71.272 496.085 71.7067 496.662L75.3291 501.423C75.6188 501.856 76.0535 502 76.4882 502C76.9229 502 77.3576 501.711 77.6474 501.423L84.7473 490.746C85.1819 489.881 85.037 489.015 84.4575 488.582Z" fill="#ECECEC"/>
<rect x="177.5" y="456.5" width="67" height="67" rx="11.5" fill="#F9FBFF"/>
<rect x="177.5" y="456.5" width="67" height="67" rx="11.5" stroke="#ECECEC"/>
<path d="M200.02 504C199.32 504 198.76 503.72 198.2 503.3C197.5 502.6 197.36 501.62 197.64 500.78L199.04 496.44C198.06 494.48 197.5 492.24 197.5 490C197.5 482.3 203.8 476 211.5 476C219.2 476 225.5 482.3 225.5 490C225.5 497.7 219.2 504 211.5 504C209.26 504 207.02 503.44 205.06 502.46L200.72 503.86C200.58 504 200.3 504 200.02 504ZM205.9 499.66C207.58 500.64 209.54 501.2 211.5 501.2C217.66 501.2 222.7 496.16 222.7 490C222.7 483.84 217.66 478.8 211.5 478.8C205.34 478.8 200.3 483.84 200.3 490C200.3 491.96 200.86 493.92 201.84 495.6C201.98 495.88 202.12 496.3 201.98 496.72L200.58 501.06L204.92 499.66C204.92 499.66 205.763 499.592 205.9 499.66Z" fill="#ECECEC"/>
<path d="M211.5 492.24C212.737 492.24 213.74 491.237 213.74 490C213.74 488.763 212.737 487.76 211.5 487.76C210.263 487.76 209.26 488.763 209.26 490C209.26 491.237 210.263 492.24 211.5 492.24Z" fill="#ECECEC"/>
<path d="M204.64 492.24C205.877 492.24 206.88 491.237 206.88 490C206.88 488.763 205.877 487.76 204.64 487.76C203.403 487.76 202.4 488.763 202.4 490C202.4 491.237 203.403 492.24 204.64 492.24Z" fill="#ECECEC"/>
<path d="M218.36 492.24C219.597 492.24 220.6 491.237 220.6 490C220.6 488.763 219.597 487.76 218.36 487.76C217.123 487.76 216.12 488.763 216.12 490C216.12 491.237 217.123 492.24 218.36 492.24Z" fill="#ECECEC"/>
<rect x="305.5" y="453.5" width="67" height="67" rx="11.5" fill="#F9FBFF"/>
<rect x="305.5" y="453.5" width="67" height="67" rx="11.5" stroke="#ECECEC"/>
<path d="M353.061 481.679C350.853 478.703 348.254 475.984 345.266 473.914C343.318 472.49 340.59 472.749 338.771 474.561L334.354 478.961C332.665 480.644 332.405 483.362 333.704 485.303C333.834 485.433 333.964 485.692 334.224 485.821L326.039 493.975C325.39 494.622 325 495.528 325 496.564V500.706C325 501.094 325.13 501.353 325.39 501.612C325.65 501.871 325.909 502 326.299 502H330.456C331.496 502 332.405 501.612 333.055 500.965L341.239 492.81C341.499 492.94 341.629 493.069 341.889 493.199C343.837 494.493 346.566 494.234 348.254 492.552L352.671 488.151C354.23 486.339 354.49 483.621 353.061 481.679ZM350.593 486.339L346.176 490.74C345.266 491.646 343.967 491.775 343.058 491.128C342.538 490.74 342.149 490.481 341.629 490.092C341.109 489.704 340.33 489.704 339.94 490.222L330.976 499.153C330.716 499.411 330.456 499.541 330.197 499.541H327.338V496.693C327.338 496.434 327.468 496.176 327.728 495.917L336.692 486.986C337.212 486.468 337.212 485.821 336.822 485.303C336.562 484.786 336.173 484.268 335.913 483.75C335.263 482.844 335.393 481.55 336.302 480.773L340.719 476.373C341.109 475.855 341.759 475.596 342.408 475.596C342.928 475.596 343.318 475.726 343.707 475.984C346.566 477.926 348.904 480.385 350.853 483.103C351.632 484.139 351.502 485.433 350.593 486.339Z" fill="#ECECEC"/>
<path d="M344.148 480.909C343.593 480.909 343.177 481.192 342.761 481.474C341.928 482.321 341.928 483.593 342.761 484.299C343.177 484.722 343.593 484.864 344.148 484.864C344.703 484.864 345.12 484.722 345.536 484.299C345.952 483.875 346.091 483.451 346.091 482.886C346.091 482.321 345.952 481.898 345.536 481.474C345.258 481.05 344.703 480.909 344.148 480.909Z" fill="#ECECEC"/>
<rect x="358.5" y="302.5" width="67" height="67" rx="11.5" fill="#F9FBFF"/>
<rect x="358.5" y="302.5" width="67" height="67" rx="11.5" stroke="#ECECEC"/>
<path fill-rule="evenodd" clip-rule="evenodd" d="M400.03 322.487C401.293 323.178 402.2 324.549 402.2 326.2V340.48C402.2 343.822 398.499 345.802 395.778 343.859C395.748 343.838 395.718 343.814 395.689 343.79L394.196 342.53C394.174 342.512 394.153 342.493 394.133 342.474C392.985 341.381 391.554 340.7 389.982 340.449V345.94C389.982 348.161 388.358 350 386.138 350C383.873 350 382.295 347.972 382.295 345.94V340.183C379.276 339.494 377 336.636 377 333.34C377 331.484 377.655 329.697 379.056 328.413C380.188 327.258 381.741 326.34 383.695 326.34H388.541C390.689 326.21 392.681 325.475 394.185 324.298L395.634 322.939C395.662 322.913 395.691 322.887 395.722 322.863C397.081 321.785 398.746 321.785 400.03 322.487ZM397.5 325.028L396.056 326.382C396.028 326.408 395.999 326.433 395.968 326.457C393.956 328.053 391.366 328.983 388.662 329.138C388.635 329.139 388.609 329.14 388.582 329.14H383.695C382.68 329.14 381.8 329.605 381.034 330.395C381.013 330.417 380.99 330.439 380.967 330.46C380.22 331.134 379.8 332.132 379.8 333.34C379.8 335.711 381.68 337.54 383.695 337.54C384.468 337.54 385.095 338.167 385.095 338.94V345.94C385.095 346.709 385.688 347.2 386.138 347.2C386.634 347.2 387.182 346.799 387.182 345.94V338.94C387.182 338.167 387.809 337.54 388.582 337.54C391.337 337.54 393.988 338.486 396.032 340.416L397.443 341.607C398.251 342.141 399.4 341.6 399.4 340.48V326.2C399.4 325.611 399.085 325.162 398.686 324.943C398.318 324.742 397.895 324.736 397.5 325.028Z" fill="#ECECEC"/>
<path fill-rule="evenodd" clip-rule="evenodd" d="M406.4 329C407.173 329 407.8 329.627 407.8 330.4V336C407.8 336.773 407.173 337.4 406.4 337.4C405.627 337.4 405 336.773 405 336V330.4C405 329.627 405.627 329 406.4 329Z" fill="#ECECEC"/>
<rect x="-21.5" y="171.5" width="67" height="67" rx="11.5" fill="#F9FBFF"/>
<rect x="-21.5" y="171.5" width="67" height="67" rx="11.5" stroke="#ECECEC"/>
<path d="M7.92727 202.2C8.69091 202.2 9.2 201.691 9.2 200.927C9.2 199.4 10.4727 198.127 12 198.127C13.5273 198.127 14.8 199.4 14.8 200.927C14.8 201.691 15.3091 202.2 16.0727 202.2C16.8364 202.2 17.3455 201.691 17.3455 200.927C17.3455 198 14.9273 195.582 12 195.582C9.07273 195.582 6.65455 198 6.65455 200.927C6.65455 201.564 7.29091 202.2 7.92727 202.2Z" fill="#ECECEC"/>
<path d="M24.7273 203.727H-0.727273C-1.49091 203.727 -2 204.236 -2 205C-2 205.764 -1.49091 206.273 -0.727273 206.273H5.76364C5 207.036 4.36364 207.927 3.98182 208.945C3.6 209.964 3.72727 211.109 4.23636 212C4.87273 212.891 5.89091 213.527 7.03636 213.527H16.7091C17.8545 213.527 18.8727 213.018 19.5091 212C20.1455 211.109 20.2727 209.964 19.7636 208.945C19.3818 207.927 18.7455 207.036 17.9818 206.273H24.7273C25.4909 206.273 26 205.764 26 205C26 204.236 25.4909 203.727 24.7273 203.727ZM17.6 209.964C17.7273 210.218 17.6 210.473 17.4727 210.6C17.3455 210.855 17.0909 210.982 16.7091 210.982H7.16364C6.90909 210.982 6.65454 210.855 6.4 210.6C6.27273 210.473 6.14545 210.218 6.27273 209.964C7.03636 208.055 8.81818 206.655 10.8545 206.273H12.8909C15.0545 206.655 16.8364 208.055 17.6 209.964Z" fill="#ECECEC"/>
<path d="M24.7273 209.455C23.9636 209.455 23.4545 209.964 23.4545 210.727V213.018C23.4545 214.927 21.9273 216.327 20.1455 216.327H17.8545C17.0909 216.327 16.5818 216.836 16.5818 217.6C16.5818 218.364 17.0909 218.873 17.8545 218.873H20.1455C23.4545 218.873 26 216.2 26 213.018V210.727C26 210.091 25.4909 209.455 24.7273 209.455Z" fill="#ECECEC"/>
<path d="M6.27273 216.455H3.85455C2.07273 216.455 0.545455 214.927 0.545455 213.145V210.855C0.545455 210.091 0.0363636 209.582 -0.727273 209.582C-1.49091 209.582 -2 210.091 -2 210.855V213.145C-2 216.327 0.672727 219 3.85455 219H6.14545C6.90909 219 7.41818 218.491 7.41818 217.727C7.41818 216.964 6.90909 216.455 6.27273 216.455Z" fill="#ECECEC"/>
<path d="M-0.727273 200.545C0.0363636 200.545 0.545455 200.036 0.545455 199.273V196.855C0.545455 195.073 2.07273 193.545 3.85455 193.545H6.14545C6.90909 193.545 7.41818 193.036 7.41818 192.273C7.41818 191.509 6.90909 191 6.27273 191H3.85455C0.672727 191 -2 193.673 -2 196.855V199.145C-2 199.909 -1.49091 200.545 -0.727273 200.545Z" fill="#ECECEC"/>
<path d="M20.1455 191H17.8545C17.0909 191 16.5818 191.509 16.5818 192.273C16.5818 193.036 17.0909 193.545 17.8545 193.545H20.1455C21.9273 193.545 23.4545 195.073 23.4545 196.855V199.145C23.4545 199.909 23.9636 200.418 24.7273 200.418C25.4909 200.418 26 199.909 26 199.145V196.855C26 193.673 23.3273 191 20.1455 191Z" fill="#ECECEC"/>
<path d="M274 171L274 132" stroke="#ECECEC" stroke-width="2"/>
<path d="M288 171L288 169.499C288.001 160.663 295.164 153.5 304 153.5L538.999 153.5C547.836 153.5 554.999 160.664 554.999 169.5L554.999 303" stroke="#ECECEC"/>
<path d="M145 171L145 88C145 79.1634 137.837 72 129 72L122 72" stroke="#ECECEC"/>
<path d="M84 398L84 453" stroke="#ECECEC"/>
<path d="M84 304V223C84 214.163 76.8366 207 68 207H46" stroke="#ECECEC"/>
<path d="M227 38L227 -29" stroke="#ECECEC"/>
<path d="M355 -29V-29C355 -22.3726 349.627 -17 343 -17L257 -17C248.163 -17 241 -9.83656 241 -1V38" stroke="#ECECEC"/>
<path d="M121 -61H163C171.837 -61 179 -53.8365 179 -45V171" stroke="#ECECEC"/>
<path d="M358 218H308" stroke="#ECECEC"/>
<path d="M240 218H200" stroke="#ECECEC"/>
<path d="M240 238H235.837C227.001 238 219.837 245.163 219.837 254V268.5C219.837 277.337 212.674 284.5 203.837 284.5H132C123.163 284.5 116 291.663 116 300.5V304" stroke="url(#paint7_linear_936_43188)" stroke-width="2"/>
<path d="M260 265V304" stroke="#ECECEC" stroke-width="2"/>
<path d="M308 230L323.999 230C332.836 230 339.999 237.163 339.999 246L339.999 453" stroke="#ECECEC"/>
<path d="M308 242V242C316.837 242 324 249.163 324 258V418.551C324 427.388 316.837 434.551 308 434.551H238C229.163 434.551 222 441.715 222 450.551V456" stroke="#ECECEC"/>
</g>
<defs>
<filter id="filter0_d_936_43188" x="57" y="296" width="123" height="114" filterUnits="userSpaceOnUse" color-interpolation-filters="sRGB">
<feFlood flood-opacity="0" result="BackgroundImageFix"/>
<feColorMatrix in="SourceAlpha" type="matrix" values="0 0 0 0 0 0 0 0 0 0 0 0 0 0 0 0 0 0 127 0" result="hardAlpha"/>
<feOffset dx="1" dy="2"/>
<feGaussianBlur stdDeviation="5"/>
<feComposite in2="hardAlpha" operator="out"/>
<feColorMatrix type="matrix" values="0 0 0 0 0.00780001 0 0 0 0 0.045344 0 0 0 0 0.0800001 0 0 0 0.04 0"/>
<feBlend mode="normal" in2="BackgroundImageFix" result="effect1_dropShadow_936_43188"/>
<feBlend mode="normal" in="SourceGraphic" in2="effect1_dropShadow_936_43188" result="shape"/>
</filter>
<filter id="filter1_d_936_43188" x="231" y="163" width="88" height="114" filterUnits="userSpaceOnUse" color-interpolation-filters="sRGB">
<feFlood flood-opacity="0" result="BackgroundImageFix"/>
<feColorMatrix in="SourceAlpha" type="matrix" values="0 0 0 0 0 0 0 0 0 0 0 0 0 0 0 0 0 0 127 0" result="hardAlpha"/>
<feOffset dx="1" dy="2"/>
<feGaussianBlur stdDeviation="5"/>
<feComposite in2="hardAlpha" operator="out"/>
<feColorMatrix type="matrix" values="0 0 0 0 0.00780001 0 0 0 0 0.045344 0 0 0 0 0.0800001 0 0 0 0.04 0"/>
<feBlend mode="normal" in2="BackgroundImageFix" result="effect1_dropShadow_936_43188"/>
<feBlend mode="normal" in="SourceGraphic" in2="effect1_dropShadow_936_43188" result="shape"/>
</filter>
<radialGradient id="paint0_radial_936_43188" cx="0" cy="0" r="1" gradientUnits="userSpaceOnUse" gradientTransform="translate(117.002 342) rotate(99.729) scale(17.7554 17.7578)">
<stop offset="0.055" stop-color="#7A73FF"/>
<stop offset="0.65" stop-color="#67DDFA"/>
<stop offset="1" stop-color="#4AFCF1"/>
</radialGradient>
<radialGradient id="paint1_radial_936_43188" cx="0" cy="0" r="1" gradientUnits="userSpaceOnUse" gradientTransform="translate(273.6 209) rotate(98.7708) scale(17.7071 16.0233)">
<stop offset="0.055" stop-color="#7A73FF"/>
<stop offset="0.65" stop-color="#67DDFA"/>
<stop offset="1" stop-color="#4AFCF1"/>
</radialGradient>
<radialGradient id="paint2_radial_936_43188" cx="0" cy="0" r="1" gradientUnits="userSpaceOnUse" gradientTransform="translate(273.6 209) rotate(98.7708) scale(17.7071 16.0233)">
<stop offset="0.055" stop-color="#7A73FF"/>
<stop offset="0.65" stop-color="#67DDFA"/>
<stop offset="1" stop-color="#4AFCF1"/>
</radialGradient>
<radialGradient id="paint3_radial_936_43188" cx="0" cy="0" r="1" gradientUnits="userSpaceOnUse" gradientTransform="translate(273.6 209) rotate(98.7708) scale(17.7071 16.0233)">
<stop offset="0.055" stop-color="#7A73FF"/>
<stop offset="0.65" stop-color="#67DDFA"/>
<stop offset="1" stop-color="#4AFCF1"/>
</radialGradient>
<radialGradient id="paint4_radial_936_43188" cx="0" cy="0" r="1" gradientUnits="userSpaceOnUse" gradientTransform="translate(273.6 209) rotate(98.7708) scale(17.7071 16.0233)">
<stop offset="0.055" stop-color="#7A73FF"/>
<stop offset="0.65" stop-color="#67DDFA"/>
<stop offset="1" stop-color="#4AFCF1"/>
</radialGradient>
<radialGradient id="paint5_radial_936_43188" cx="0" cy="0" r="1" gradientUnits="userSpaceOnUse" gradientTransform="translate(273.6 209) rotate(98.7708) scale(17.7071 16.0233)">
<stop offset="0.055" stop-color="#7A73FF"/>
<stop offset="0.65" stop-color="#67DDFA"/>
<stop offset="1" stop-color="#4AFCF1"/>
</radialGradient>
<radialGradient id="paint6_radial_936_43188" cx="0" cy="0" r="1" gradientUnits="userSpaceOnUse" gradientTransform="translate(273.6 209) rotate(98.7708) scale(17.7071 16.0233)">
<stop offset="0.055" stop-color="#7A73FF"/>
<stop offset="0.65" stop-color="#67DDFA"/>
<stop offset="1" stop-color="#4AFCF1"/>
</radialGradient>
<linearGradient id="paint7_linear_936_43188" x1="46.25" y1="172" x2="251.002" y2="304.737" gradientUnits="userSpaceOnUse">
<stop offset="0.338542" stop-color="#7A73FF"/>
<stop offset="0.734375" stop-color="#75CDFF"/>
<stop offset="1" stop-color="#4AFCF1"/>
</linearGradient>
<clipPath id="clip0_936_43188">
<rect width="788" height="482" fill="white" transform="translate(-207)"/>
</clipPath>
</defs>
</svg>
