<svg width="980" height="508" viewBox="0 0 980 508" fill="none" xmlns="http://www.w3.org/2000/svg">
<path d="M-2 507.76V333C295.914 112.163 658.169 88.3703 980 0V173.598C651.557 306.583 317.001 317.624 -2 507.76Z" fill="url(#paint0_radial_493_82067)"/>
<path d="M-2 507.76V333C295.914 112.163 658.169 88.3703 980 0V173.598C651.557 306.583 317.001 317.624 -2 507.76Z" fill="url(#paint1_radial_493_82067)"/>
<path d="M-2 507.76V333C295.914 112.163 658.169 88.3703 980 0V173.598C651.557 306.583 317.001 317.624 -2 507.76Z" fill="url(#paint2_radial_493_82067)"/>
<path d="M-2 507.76V333C295.914 112.163 658.169 88.3703 980 0V173.598C651.557 306.583 317.001 317.624 -2 507.76Z" fill="url(#paint3_radial_493_82067)"/>
<defs>
<radialGradient id="paint0_radial_493_82067" cx="0" cy="0" r="1" gradientUnits="userSpaceOnUse" gradientTransform="translate(371.721 487.828) rotate(86.3942) scale(633.493 788.157)">
<stop offset="0.662802" stop-color="#762DEE"/>
<stop offset="1" stop-color="#762DEE" stop-opacity="0"/>
</radialGradient>
<radialGradient id="paint1_radial_493_82067" cx="0" cy="0" r="1" gradientUnits="userSpaceOnUse" gradientTransform="translate(489 394.049) rotate(89.9562) scale(733.504 913.973)">
<stop stop-color="#209DB7"/>
<stop offset="0.460519" stop-color="#209DB7" stop-opacity="0"/>
</radialGradient>
<radialGradient id="paint2_radial_493_82067" cx="0" cy="0" r="1" gradientUnits="userSpaceOnUse" gradientTransform="translate(863.282 766.084) rotate(-134.777) scale(277.246 279.581)">
<stop stop-color="#FFDC62"/>
<stop offset="1" stop-color="#FFDC62" stop-opacity="0"/>
</radialGradient>
<radialGradient id="paint3_radial_493_82067" cx="0" cy="0" r="1" gradientUnits="userSpaceOnUse" gradientTransform="translate(802.118 155.858) rotate(123.211) scale(828.818 913.647)">
<stop offset="0.227079" stop-color="#209DB7"/>
<stop offset="0.810258" stop-color="#209DB7" stop-opacity="0"/>
</radialGradient>
</defs>
</svg>
