<svg width="1443px" height="507px" viewBox="0 0 1440 701" fill="none" xmlns="http://www.w3.org/2000/svg" id="svg1125" preserveAspectRatio="xMidYMid" xmlns:svg="http://www.w3.org/2000/svg" xmlns:xlink="http://www.w3.org/1999/xlink" >
    <g transform="matrix(1 0 0 1 1.8967158125306014 -1.2827919510468178)" style="" id="g5084">
    <path d="M0 507.76V333C437.77 112.163 970.086 88.3703 1443 0V173.598C960.369 306.583 468.756 317.624 0 507.76Z" fill="url(#paint0_radial_33_30452)"/>
    <path d="M0 507.76V333C437.77 112.163 970.086 88.3703 1443 0V173.598C960.369 306.583 468.756 317.624 0 507.76Z" fill="url(#paint1_radial_33_30452)"/>
    <path d="M0 507.76V333C437.77 112.163 970.086 88.3703 1443 0V173.598C960.369 306.583 468.756 317.624 0 507.76Z" fill="url(#paint2_radial_33_30452)"/>
    <path d="M0 507.76V333C437.77 112.163 970.086 88.3703 1443 0V173.598C960.369 306.583 468.756 317.624 0 507.76Z" fill="url(#paint3_radial_33_30452)"/>
    <defs>
        <radialGradient id="paint0_radial_33_30452" cx="0" cy="0" r="1" gradientUnits="userSpaceOnUse" gradientTransform="translate(1.59529 -63.3069) rotate(28.9906) scale(1265.93 1553.79)">
            <stop offset="0.310885" stop-color="#209DB7"/>
            <stop offset="0.505769" stop-color="#209DB7" stop-opacity="0"/>
        </radialGradient>
        <radialGradient id="paint1_radial_33_30452" cx="0" cy="0" r="1" gradientUnits="userSpaceOnUse" gradientTransform="translate(432.023 400.486) rotate(-33.0514) scale(413.059 524.934)">
            <stop stop-color="#FFDC62"/>
            <stop offset="1" stop-color="#FFDC62" stop-opacity="0"/>
        </radialGradient>
        <radialGradient id="paint2_radial_33_30452" cx="0" cy="0" r="1" gradientUnits="userSpaceOnUse" gradientTransform="translate(1098.91 74.8817) rotate(154.374) scale(1080.63 1014.84)">
            <stop offset="0.298581" stop-color="#762DEE"/>
            <stop offset="1" stop-color="#762DEE" stop-opacity="0"/>
        </radialGradient>
        <radialGradient id="paint3_radial_33_30452" cx="0" cy="0" r="1" gradientUnits="userSpaceOnUse" gradientTransform="translate(35.5906 508.18) rotate(66.543) scale(342.431 527.53)">
            <stop offset="0.227079" stop-color="#209DB7"/>
            <stop offset="0.547505" stop-color="#209DB7" stop-opacity="0"/>
        </radialGradient>
    </defs>
</g>
    <g id="g9528">
        <path d="M0 507.76V333C437.77 112.163 970.086 88.3703 1443 0V173.598C960.369 306.583 468.756 317.624 0 507.76Z" fill="url(#paint0_radial_33_31296)"/>
        <path d="M0 507.76V333C437.77 112.163 970.086 88.3703 1443 0V173.598C960.369 306.583 468.756 317.624 0 507.76Z" fill="url(#paint1_radial_33_31296)"/>
        <path d="M0 507.76V333C437.77 112.163 970.086 88.3703 1443 0V173.598C960.369 306.583 468.756 317.624 0 507.76Z" fill="url(#paint2_radial_33_31296)"/>
        <path d="M0 507.76V333C437.77 112.163 970.086 88.3703 1443 0V173.598C960.369 306.583 468.756 317.624 0 507.76Z" fill="url(#paint3_radial_33_31296)"/>
        <defs>
            <radialGradient id="paint0_radial_33_31296" cx="0" cy="0" r="1" gradientUnits="userSpaceOnUse" gradientTransform="translate(136.784 88.3426) rotate(27.6464) scale(1135.34 2020.82)">
                <stop offset="0.657391" stop-color="#209DB7"/>
                <stop offset="1" stop-color="#209DB7" stop-opacity="0"/>
            </radialGradient>
            <radialGradient id="paint1_radial_33_31296" cx="0" cy="0" r="1" gradientUnits="userSpaceOnUse" gradientTransform="translate(1213.52 379.452) rotate(-93.6747) scale(733.679 1403.61)">
                <stop stop-color="#FFDC62"/>
                <stop offset="1" stop-color="#FFDC62" stop-opacity="0"/>
            </radialGradient>
            <radialGradient id="paint2_radial_33_31296" cx="0" cy="0" r="1" gradientUnits="userSpaceOnUse" gradientTransform="translate(605.5 292.088) rotate(135.723) scale(687.173 845.732)">
                <stop stop-color="#762DEE"/>
                <stop offset="0.58" stop-color="#762DEE" stop-opacity="0"/>
            </radialGradient>
            <radialGradient id="paint3_radial_33_31296" cx="0" cy="0" r="1" gradientUnits="userSpaceOnUse" gradientTransform="translate(1123.34 468.216) rotate(162.505) scale(638.329 813.907)">
                <stop offset="0.227079" stop-color="#81F9F2"/>
                <stop offset="0.547505" stop-color="#81F9F2" stop-opacity="0"/>
            </radialGradient>
        </defs>
        <animate attributeName="opacity" values="1;0" calcMode="spline" keyTimes="0;1" keySplines="0 0 1 1" dur="5s"  begin="5s; animate8920.end" repeatCount="1" additive="replace" accumulate="none" fill="freeze" id="animate6529"/><animate attributeName="opacity" values="0;1" calcMode="spline" keyTimes="0;1" keySplines="0 0 1 1" dur="5s" begin="animate6529.end;" repeatCount="1" additive="replace" accumulate="none" fill="freeze" id="animate8920"/></g>
    <g id="g2956" style="fill: rgb(0, 0, 0); fill-opacity: 1; opacity: 1;">
        <path d="M0 507.76V333C437.77 112.163 970.086 88.3703 1443 0V173.598C960.369 306.583 468.756 317.624 0 507.76Z" fill="url(#paint0_radial_33_30454)"/>
        <path d="M0 507.76V333C437.77 112.163 970.086 88.3703 1443 0V173.598C960.369 306.583 468.756 317.624 0 507.76Z" fill="url(#paint1_radial_33_30454)"/>
        <path d="M0 507.76V333C437.77 112.163 970.086 88.3703 1443 0V173.598C960.369 306.583 468.756 317.624 0 507.76Z" fill="url(#paint2_radial_33_30454)"/>
        <path d="M0 507.76V333C437.77 112.163 970.086 88.3703 1443 0V173.598C960.369 306.583 468.756 317.624 0 507.76Z" fill="url(#paint3_radial_33_30454)"/>
        <defs>
            <radialGradient id="paint0_radial_33_30454" cx="0" cy="0" r="1" gradientUnits="userSpaceOnUse" gradientTransform="translate(549.165 487.828) rotate(84.7096) scale(634.944 1155.51)">
                <stop offset="0.662802" stop-color="#762DEE"/>
                <stop offset="1" stop-color="#762DEE" stop-opacity="0"/>
            </radialGradient>
            <radialGradient id="paint1_radial_33_30454" cx="0" cy="0" r="1" gradientUnits="userSpaceOnUse" gradientTransform="translate(721.5 394.049) rotate(89.9356) scale(733.504 1343.04)">
                <stop stop-color="#209DB7"/>
                <stop offset="0.460519" stop-color="#209DB7" stop-opacity="0"/>
            </radialGradient>
            <radialGradient id="paint2_radial_33_30454" cx="0" cy="0" r="1" gradientUnits="userSpaceOnUse" gradientTransform="translate(1271.49 766.084) rotate(-145.556) scale(347.955 327.344)">
                <stop stop-color="#FFDC62"/>
                <stop offset="1" stop-color="#FFDC62" stop-opacity="0"/>
            </radialGradient>
            <radialGradient id="paint3_radial_33_30454" cx="0" cy="0" r="1" gradientUnits="userSpaceOnUse" gradientTransform="translate(1181.61 155.858) rotate(133.89) scale(962.21 1156.44)">
                <stop offset="0.227079" stop-color="#209DB7"/>
                <stop offset="0.810258" stop-color="#209DB7" stop-opacity="0"/>
            </radialGradient>
        </defs>
        <animate attributeType="auto" attributeName="opacity" values="1;0" calcMode="spline" keyTimes="0;1" keySplines="0 0 1 1" dur="5s" begin="0s;animate4897.end" repeatCount="1" additive="replace" accumulate="none" fill="freeze" id="animate3982"/><animate attributeName="opacity" values="0;1" calcMode="spline" keyTimes="0;1" keySplines="0 0 1 1" dur="3s" begin="animate3982.end+5s" repeatCount="1" additive="replace" accumulate="none" fill="freeze" id="animate4897"></animate>
    </g>
    </svg>