<svg width="32" height="33" viewBox="0 0 32 33" fill="none" xmlns="http://www.w3.org/2000/svg">
<path d="M8.61222 22.6931C8.99233 22.9257 9.398 22.8316 9.6824 22.5635C9.95788 22.3039 10.1265 21.8838 10.1265 21.4112C10.1265 20.8775 9.89914 20.3444 9.48214 20.1108L6.5929 18.492C6.28103 18.3173 6.08574 17.8806 6.08574 17.3798C6.08574 16.879 6.28103 16.4423 6.5929 16.2676L9.48982 14.6446C9.90218 14.4136 10.1265 13.8868 10.1265 13.3603C10.1265 12.8938 9.96009 12.4789 9.68783 12.2223C9.40664 11.9573 9.00518 11.8641 8.62906 12.0942L2.47586 15.8594C2.01006 16.1445 1.75 16.7594 1.75 17.3862V17.4114C1.75 18.0382 2.01006 18.6531 2.47586 18.9382L8.61222 22.6931ZM12.4086 25.9195C12.2847 26.3364 12.3286 26.7763 12.4872 27.1188C12.643 27.4551 12.9405 27.75 13.3474 27.75C13.8074 27.75 14.1505 27.3669 14.2862 26.9099L19.5823 9.08053C19.7061 8.66363 19.6623 8.22366 19.5037 7.8812C19.3479 7.5449 19.0504 7.25 18.6435 7.25C18.1835 7.25 17.8404 7.63307 17.7047 8.09008L12.4086 25.9195ZM21.8735 21.4373C21.8735 21.9038 22.0399 22.3187 22.3122 22.5753C22.5934 22.8403 22.9948 22.9335 23.3709 22.7034L29.5241 18.9382C29.9899 18.6531 30.25 18.0382 30.25 17.4114V17.3862C30.25 16.7594 29.9899 16.1445 29.5241 15.8594L23.3878 12.1045C23.0077 11.8719 22.602 11.966 22.3176 12.2341C22.0421 12.4937 21.8735 12.9138 21.8735 13.3864C21.8735 13.9201 22.1009 14.4532 22.5179 14.6868L25.4071 16.3056C25.719 16.4803 25.9143 16.917 25.9143 17.4178C25.9143 17.9186 25.719 18.3553 25.4071 18.53L22.5102 20.153C22.0978 20.384 21.8735 20.9108 21.8735 21.4373Z" fill="url(#paint0_radial_1239_33980)" stroke="url(#paint1_radial_1239_33980)" stroke-width="0.5"/>
<defs>
<radialGradient id="paint0_radial_1239_33980" cx="0" cy="0" r="1" gradientUnits="userSpaceOnUse" gradientTransform="translate(16 17.5) rotate(103.496) scale(12.855 17.5169)">
<stop offset="0.338542" stop-color="#7A73FF"/>
<stop offset="0.734375" stop-color="#75CDFF"/>
<stop offset="1" stop-color="#4AFCF1"/>
</radialGradient>
<radialGradient id="paint1_radial_1239_33980" cx="0" cy="0" r="1" gradientUnits="userSpaceOnUse" gradientTransform="translate(16 17.5) rotate(103.496) scale(12.855 17.5169)">
<stop offset="0.338542" stop-color="#7A73FF"/>
<stop offset="0.734375" stop-color="#75CDFF"/>
<stop offset="1" stop-color="#4AFCF1"/>
</radialGradient>
</defs>
</svg>
