<svg width="347" height="380" viewBox="0 0 347 380" fill="none" xmlns="http://www.w3.org/2000/svg">
<g filter="url(#filter0_dd_493_83193)">
<rect x="59" y="8" width="83" height="94" rx="12" fill="white"/>
<path fill-rule="evenodd" clip-rule="evenodd" d="M94.9318 31C94.7631 31 94.5943 31.0646 94.4658 31.1931C94.2088 31.4501 94.2088 31.868 94.4658 32.1251L96.1934 33.8526C94.232 35.2919 92.9545 37.6077 92.9545 40.2273V52.0909C92.9545 52.8185 93.5451 53.4091 94.2727 53.4091H95.5909V58.0227C95.5909 59.1142 96.4767 60 97.5682 60C98.6596 60 99.5455 59.1142 99.5455 58.0227V53.4091H102.182V58.0227C102.182 59.1142 103.068 60 104.159 60C105.251 60 106.136 59.1142 106.136 58.0227V53.4091H107.455C108.182 53.4091 108.773 52.8185 108.773 52.0909V40.2273C108.773 37.6077 107.495 35.2919 105.534 33.8526L107.261 32.1251C107.518 31.8667 107.518 31.4515 107.261 31.1931C107.004 30.936 106.587 30.936 106.329 31.1931L104.375 33.1472C103.316 32.6208 102.127 32.3182 100.864 32.3182C99.6006 32.3182 98.411 32.6208 97.3519 33.1472L95.3978 31.1931C95.2693 31.0646 95.1005 31 94.9318 31ZM100.864 34.9545C103.772 34.9545 106.136 37.3194 106.136 40.2273H95.5909C95.5909 37.3194 97.9557 34.9545 100.864 34.9545ZM98.2273 37.5909V38.9091H99.5455V37.5909H98.2273ZM102.182 37.5909V38.9091H103.5V37.5909H102.182ZM106.136 42.8636V50.7727H99.5455H95.5909V42.8636H106.136Z" fill="url(#paint0_radial_493_83193)"/>
<path d="M90.3182 41.5455C89.5905 41.5455 89 42.136 89 42.8636V50.7727C89 51.5004 89.5905 52.0909 90.3182 52.0909C91.0458 52.0909 91.6364 51.5004 91.6364 50.7727V42.8636C91.6364 42.136 91.0458 41.5455 90.3182 41.5455Z" fill="url(#paint1_radial_493_83193)"/>
<path d="M111.409 41.5455C110.681 41.5455 110.091 42.136 110.091 42.8636V50.7727C110.091 51.5004 110.681 52.0909 111.409 52.0909C112.137 52.0909 112.727 51.5004 112.727 50.7727V42.8636C112.727 42.136 112.137 41.5455 111.409 41.5455Z" fill="url(#paint2_radial_493_83193)"/>
<path d="M77.0339 82L80.5261 73.4102H81.6628L85.155 82H83.9245L81.4109 75.6016C81.3445 75.4414 81.2859 75.2891 81.2351 75.1445C81.1882 75 81.1452 74.8535 81.1062 74.7051H81.0417C81.0027 74.8535 80.9577 75 80.907 75.1445C80.8601 75.2891 80.8034 75.4414 80.737 75.6016L78.2058 82H77.0339ZM78.5046 79.7969L78.8855 78.8359L83.28 78.8418L83.655 79.8027L78.5046 79.7969ZM86.2798 82V75.7656H87.2993L87.352 76.6621H87.3813C87.6548 76.3301 87.977 76.0781 88.3481 75.9062C88.7231 75.7344 89.1391 75.6484 89.5962 75.6484C90.2954 75.6484 90.852 75.8418 91.2661 76.2285C91.6841 76.6113 91.893 77.2559 91.893 78.1621V82H90.7622V78.1504C90.7622 77.5957 90.6294 77.1992 90.3638 76.9609C90.0981 76.7188 89.7212 76.5977 89.2329 76.5977C88.8188 76.5977 88.4555 76.7012 88.143 76.9082C87.8345 77.1152 87.5884 77.3828 87.4048 77.7109V82H86.2798ZM93.4748 78.9766V78.7891C93.4748 77.8789 93.7366 77.1289 94.26 76.5391C94.7873 75.9453 95.4885 75.6484 96.3635 75.6484C96.8713 75.6484 97.303 75.7305 97.6584 75.8945C98.0139 76.0586 98.2991 76.2754 98.5139 76.5449V73H99.6389V82H98.6194L98.5666 81.1445H98.5373C98.3538 81.4141 98.0725 81.6445 97.6936 81.8359C97.3147 82.0234 96.8713 82.1172 96.3635 82.1172C95.4885 82.1172 94.7873 81.8203 94.26 81.2266C93.7366 80.6328 93.4748 79.8828 93.4748 78.9766ZM94.6233 78.9766C94.6233 79.6094 94.7834 80.1367 95.1038 80.5586C95.428 80.9805 95.9358 81.1914 96.6272 81.1914C97.092 81.1914 97.4866 81.0801 97.8108 80.8574C98.135 80.6309 98.3694 80.373 98.5139 80.084V77.6816C98.3694 77.3926 98.135 77.1367 97.8108 76.9141C97.4866 76.6875 97.092 76.5742 96.6272 76.5742C95.9358 76.5742 95.428 76.7852 95.1038 77.207C94.7834 77.6289 94.6233 78.1562 94.6233 78.7891V78.9766ZM101.654 82V75.7656H102.674L102.727 76.627H102.75C102.938 76.3496 103.182 76.1074 103.482 75.9004C103.783 75.6934 104.143 75.5898 104.561 75.5898C104.658 75.5898 104.758 75.5996 104.859 75.6191C104.965 75.6387 105.039 75.6562 105.082 75.6719V76.7207C104.996 76.7051 104.904 76.6934 104.807 76.6855C104.713 76.6777 104.609 76.6738 104.496 76.6738C104.078 76.6738 103.723 76.7734 103.43 76.9727C103.137 77.168 102.92 77.4121 102.779 77.7051V82H101.654ZM105.885 78.9766V78.7891C105.885 77.8477 106.179 77.0801 106.769 76.4863C107.363 75.8887 108.156 75.5898 109.148 75.5898C110.136 75.5898 110.927 75.8887 111.521 76.4863C112.115 77.0801 112.412 77.8477 112.412 78.7891V78.9766C112.412 79.918 112.115 80.6875 111.521 81.2852C110.927 81.8789 110.136 82.1758 109.148 82.1758C108.156 82.1758 107.363 81.8789 106.769 81.2852C106.179 80.6875 105.885 79.918 105.885 78.9766ZM107.033 78.7891V78.9766C107.033 79.6172 107.211 80.1562 107.566 80.5938C107.922 81.0312 108.449 81.25 109.148 81.25C109.847 81.25 110.373 81.0312 110.724 80.5938C111.08 80.1562 111.258 79.6172 111.258 78.9766V78.7891C111.258 78.1445 111.08 77.6055 110.724 77.1719C110.373 76.7344 109.847 76.5156 109.148 76.5156C108.449 76.5156 107.922 76.7344 107.566 77.1719C107.211 77.6055 107.033 78.1445 107.033 78.7891ZM114.099 82V75.7656H115.224V82H114.099ZM113.964 73.9375C113.964 73.7461 114.023 73.5879 114.14 73.4629C114.261 73.334 114.435 73.2695 114.662 73.2695C114.888 73.2695 115.06 73.334 115.177 73.4629C115.298 73.5918 115.359 73.75 115.359 73.9375C115.359 74.1289 115.298 74.2891 115.177 74.418C115.056 74.5469 114.884 74.6113 114.662 74.6113C114.439 74.6113 114.267 74.5469 114.146 74.418C114.025 74.2891 113.964 74.1289 113.964 73.9375ZM116.911 78.9766V78.7891C116.911 77.8789 117.173 77.1289 117.697 76.5391C118.224 75.9453 118.925 75.6484 119.8 75.6484C120.308 75.6484 120.74 75.7305 121.095 75.8945C121.45 76.0586 121.736 76.2754 121.95 76.5449V73H123.075V82H122.056L122.003 81.1445H121.974C121.79 81.4141 121.509 81.6445 121.13 81.8359C120.751 82.0234 120.308 82.1172 119.8 82.1172C118.925 82.1172 118.224 81.8203 117.697 81.2266C117.173 80.6328 116.911 79.8828 116.911 78.9766ZM118.06 78.9766C118.06 79.6094 118.22 80.1367 118.54 80.5586C118.865 80.9805 119.372 81.1914 120.064 81.1914C120.529 81.1914 120.923 81.0801 121.247 80.8574C121.572 80.6309 121.806 80.373 121.95 80.084V77.6816C121.806 77.3926 121.572 77.1367 121.247 76.9141C120.923 76.6875 120.529 76.5742 120.064 76.5742C119.372 76.5742 118.865 76.7852 118.54 77.207C118.22 77.6289 118.06 78.1562 118.06 78.7891V78.9766Z" fill="#04101C"/>
</g>
<g filter="url(#filter1_dd_493_83193)">
<rect x="102" y="141" width="68" height="94" rx="12" fill="white"/>
<path d="M128.612 185.193C128.992 185.426 129.398 185.332 129.682 185.064C129.958 184.804 130.127 184.384 130.127 183.911C130.127 183.377 129.899 182.844 129.482 182.611L126.593 180.992C126.281 180.817 126.086 180.381 126.086 179.88C126.086 179.379 126.281 178.942 126.593 178.768L129.49 177.145C129.902 176.914 130.127 176.387 130.127 175.86C130.127 175.394 129.96 174.979 129.688 174.722C129.407 174.457 129.005 174.364 128.629 174.594L122.476 178.359C122.01 178.644 121.75 179.259 121.75 179.886V179.911C121.75 180.538 122.01 181.153 122.476 181.438L128.612 185.193ZM132.409 188.419C132.285 188.836 132.329 189.276 132.487 189.619C132.643 189.955 132.941 190.25 133.347 190.25C133.807 190.25 134.15 189.867 134.286 189.41L139.582 171.581C139.706 171.164 139.662 170.724 139.504 170.381C139.348 170.045 139.05 169.75 138.643 169.75C138.183 169.75 137.84 170.133 137.705 170.59L132.409 188.419ZM141.873 183.937C141.873 184.404 142.04 184.819 142.312 185.075C142.593 185.34 142.995 185.434 143.371 185.203L149.524 181.438C149.99 181.153 150.25 180.538 150.25 179.911V179.886C150.25 179.259 149.99 178.644 149.524 178.359L143.388 174.605C143.008 174.372 142.602 174.466 142.318 174.734C142.042 174.994 141.873 175.414 141.873 175.886C141.873 176.42 142.101 176.953 142.518 177.187L145.407 178.806C145.719 178.98 145.914 179.417 145.914 179.918C145.914 180.419 145.719 180.855 145.407 181.03L142.51 182.653C142.098 182.884 141.873 183.411 141.873 183.937Z" fill="url(#paint3_radial_493_83193)" stroke="url(#paint4_radial_493_83193)" stroke-width="0.5"/>
<path d="M131.62 215V206.469H132.78V215H131.62ZM134.116 207.43V206.469H141.288V207.43H138.282V215H137.122V207.43H134.116Z" fill="#04101C"/>
</g>
<path d="M121 141V102" stroke="url(#paint5_linear_493_83193)"/>
<path d="M263 188H170" stroke="url(#paint6_linear_493_83193)"/>
<path d="M170 200L186 200C194.836 200 202 207.164 202 216L202 277" stroke="url(#paint7_linear_493_83193)"/>
<path d="M101.642 200L85.6427 200C76.8061 200 69.6426 207.164 69.6426 216L69.6426 277" stroke="url(#paint8_linear_493_83193)"/>
<path d="M170 176.335L186 176.335C194.836 176.335 202 169.171 202 160.335L202 99.335" stroke="url(#paint9_linear_493_83193)"/>
<g filter="url(#filter2_dd_493_83193)">
<rect x="192" y="274" width="110" height="94" rx="12" fill="white"/>
<path d="M261.061 306.679C258.853 303.703 256.254 300.984 253.266 298.914C251.318 297.49 248.59 297.749 246.771 299.561L242.354 303.961C240.665 305.644 240.405 308.362 241.704 310.303C241.834 310.433 241.964 310.692 242.224 310.821L234.039 318.975C233.39 319.622 233 320.528 233 321.564V325.706C233 326.094 233.13 326.353 233.39 326.612C233.65 326.871 233.909 327 234.299 327H238.456C239.496 327 240.405 326.612 241.055 325.965L249.239 317.81C249.499 317.94 249.629 318.069 249.889 318.199C251.837 319.493 254.566 319.234 256.254 317.552L260.671 313.151C262.23 311.339 262.49 308.621 261.061 306.679ZM258.593 311.339L254.176 315.74C253.266 316.646 251.967 316.775 251.058 316.128C250.538 315.74 250.149 315.481 249.629 315.092C249.109 314.704 248.33 314.704 247.94 315.222L238.976 324.153C238.716 324.411 238.456 324.541 238.197 324.541H235.338V321.693C235.338 321.434 235.468 321.176 235.728 320.917L244.692 311.986C245.212 311.468 245.212 310.821 244.822 310.303C244.562 309.786 244.173 309.268 243.913 308.75C243.263 307.844 243.393 306.55 244.302 305.773L248.719 301.373C249.109 300.855 249.759 300.596 250.408 300.596C250.928 300.596 251.318 300.726 251.707 300.984C254.566 302.926 256.904 305.385 258.853 308.103C259.632 309.139 259.502 310.433 258.593 311.339Z" fill="url(#paint10_radial_493_83193)"/>
<path d="M252.148 305.909C251.593 305.909 251.177 306.192 250.761 306.474C249.928 307.321 249.928 308.593 250.761 309.299C251.177 309.722 251.593 309.864 252.148 309.864C252.703 309.864 253.12 309.722 253.536 309.299C253.952 308.875 254.091 308.451 254.091 307.886C254.091 307.321 253.952 306.898 253.536 306.474C253.258 306.05 252.703 305.909 252.148 305.909Z" fill="url(#paint11_radial_493_83193)"/>
<path d="M211.373 348V339.469H214.449C215.473 339.469 216.258 339.705 216.805 340.178C217.356 340.646 217.631 341.277 217.631 342.07C217.631 342.859 217.356 343.494 216.805 343.975C216.258 344.451 215.473 344.689 214.449 344.689H212.539V348H211.373ZM212.539 343.734H214.449C215.195 343.734 215.717 343.574 216.014 343.254C216.315 342.934 216.465 342.539 216.465 342.07C216.465 341.598 216.315 341.207 216.014 340.898C215.717 340.586 215.195 340.43 214.449 340.43H212.539V343.734ZM218.515 346.166C218.515 345.529 218.789 345.035 219.336 344.684C219.887 344.332 220.599 344.156 221.474 344.156H223.144V343.711C223.144 343.336 223.027 343.037 222.793 342.814C222.562 342.592 222.168 342.48 221.609 342.48C221.055 342.48 220.654 342.576 220.408 342.768C220.162 342.955 220.039 343.182 220.039 343.447V343.477H218.914V343.447C218.914 342.936 219.158 342.498 219.646 342.135C220.135 341.771 220.799 341.59 221.639 341.59C222.474 341.59 223.121 341.77 223.578 342.129C224.039 342.484 224.269 343.012 224.269 343.711V346.594C224.269 346.848 224.291 347.088 224.334 347.314C224.377 347.537 224.437 347.734 224.515 347.906V348H223.431C223.369 347.902 223.312 347.773 223.262 347.613C223.211 347.453 223.18 347.295 223.168 347.139C223.004 347.4 222.73 347.629 222.347 347.824C221.965 348.02 221.474 348.117 220.877 348.117C220.205 348.117 219.642 347.949 219.189 347.613C218.74 347.277 218.515 346.795 218.515 346.166ZM219.64 346.107C219.64 346.459 219.762 346.732 220.004 346.928C220.246 347.123 220.625 347.221 221.14 347.221C221.656 347.221 222.119 347.072 222.529 346.775C222.939 346.479 223.144 346.164 223.144 345.832V344.953H221.603C220.963 344.953 220.474 345.057 220.139 345.264C219.806 345.467 219.64 345.748 219.64 346.107ZM228.769 348.176C227.761 348.176 227.017 347.963 226.537 347.537C226.06 347.111 225.822 346.607 225.822 346.025V345.996H226.912V346.025C226.912 346.35 227.046 346.635 227.316 346.881C227.589 347.127 228.07 347.25 228.757 347.25C229.347 347.25 229.791 347.154 230.087 346.963C230.384 346.771 230.533 346.508 230.533 346.172C230.533 345.887 230.421 345.666 230.199 345.51C229.98 345.35 229.632 345.27 229.156 345.27H227.773V344.391H229.05C229.492 344.391 229.816 344.311 230.023 344.15C230.23 343.99 230.334 343.77 230.334 343.488C230.334 343.172 230.209 342.93 229.959 342.762C229.712 342.594 229.341 342.51 228.845 342.51C228.22 342.51 227.763 342.629 227.474 342.867C227.185 343.105 227.041 343.396 227.041 343.74V343.77H225.951V343.74C225.951 343.123 226.197 342.611 226.689 342.205C227.181 341.795 227.898 341.59 228.839 341.59C229.695 341.59 230.347 341.75 230.796 342.07C231.246 342.391 231.47 342.832 231.47 343.395C231.47 343.734 231.357 344.029 231.13 344.279C230.908 344.525 230.603 344.691 230.216 344.777V344.795C230.666 344.857 231.019 345.01 231.277 345.252C231.539 345.49 231.67 345.805 231.67 346.195C231.67 346.812 231.406 347.297 230.879 347.648C230.351 348 229.648 348.176 228.769 348.176ZM233.374 350.438V341.766H234.394L234.447 342.621H234.47C234.658 342.352 234.941 342.123 235.32 341.936C235.699 341.744 236.142 341.648 236.65 341.648C237.525 341.648 238.224 341.945 238.747 342.539C239.275 343.129 239.538 343.879 239.538 344.789V344.977C239.538 345.883 239.275 346.633 238.747 347.227C238.224 347.82 237.525 348.117 236.65 348.117C236.142 348.117 235.71 348.035 235.355 347.871C234.999 347.707 234.714 347.49 234.499 347.221V350.438H233.374ZM234.499 346.084C234.64 346.373 234.872 346.631 235.197 346.857C235.521 347.08 235.915 347.191 236.38 347.191C237.072 347.191 237.577 346.98 237.898 346.559C238.222 346.133 238.384 345.605 238.384 344.977V344.789C238.384 344.156 238.222 343.629 237.898 343.207C237.577 342.785 237.072 342.574 236.38 342.574C235.915 342.574 235.521 342.688 235.197 342.914C234.876 343.137 234.644 343.393 234.499 343.682V346.084ZM240.833 346.166C240.833 345.529 241.107 345.035 241.653 344.684C242.204 344.332 242.917 344.156 243.792 344.156H245.462V343.711C245.462 343.336 245.345 343.037 245.11 342.814C244.88 342.592 244.485 342.48 243.927 342.48C243.372 342.48 242.972 342.576 242.726 342.768C242.48 342.955 242.357 343.182 242.357 343.447V343.477H241.232V343.447C241.232 342.936 241.476 342.498 241.964 342.135C242.452 341.771 243.116 341.59 243.956 341.59C244.792 341.59 245.439 341.77 245.896 342.129C246.357 342.484 246.587 343.012 246.587 343.711V346.594C246.587 346.848 246.609 347.088 246.651 347.314C246.694 347.537 246.755 347.734 246.833 347.906V348H245.749C245.687 347.902 245.63 347.773 245.579 347.613C245.528 347.453 245.497 347.295 245.485 347.139C245.321 347.4 245.048 347.629 244.665 347.824C244.282 348.02 243.792 348.117 243.194 348.117C242.523 348.117 241.96 347.949 241.507 347.613C241.058 347.277 240.833 346.795 240.833 346.166ZM241.958 346.107C241.958 346.459 242.079 346.732 242.321 346.928C242.564 347.123 242.942 347.221 243.458 347.221C243.974 347.221 244.437 347.072 244.847 346.775C245.257 346.479 245.462 346.164 245.462 345.832V344.953H243.921C243.28 344.953 242.792 345.057 242.456 345.264C242.124 345.467 241.958 345.748 241.958 346.107ZM249.411 344.93V345.117C249.411 345.715 249.589 346.221 249.944 346.635C250.3 347.045 250.829 347.25 251.532 347.25C252.231 347.25 252.759 347.045 253.114 346.635C253.47 346.221 253.647 345.715 253.647 345.117V344.93C253.647 344.332 253.47 343.828 253.114 343.418C252.763 343.004 252.235 342.797 251.532 342.797C250.829 342.797 250.3 343.004 249.944 343.418C249.589 343.828 249.411 344.332 249.411 344.93ZM251.784 341.871C252.698 341.871 253.429 342.158 253.975 342.732C254.522 343.307 254.796 344.039 254.796 344.93V345.117C254.796 346.023 254.499 346.76 253.905 347.326C253.315 347.893 252.522 348.176 251.526 348.176C250.503 348.176 249.702 347.889 249.124 347.314C248.546 346.74 248.257 345.811 248.257 344.525V344.291C248.257 342.857 248.513 341.748 249.024 340.963C249.54 340.174 250.454 339.693 251.766 339.521C252.548 339.42 253.001 339.334 253.126 339.264C253.255 339.193 253.327 339.105 253.343 339H254.333C254.29 339.43 254.114 339.766 253.806 340.008C253.501 340.246 252.878 340.418 251.936 340.523C250.89 340.641 250.175 340.941 249.792 341.426C249.413 341.91 249.198 342.529 249.147 343.283H249.212C249.411 342.842 249.731 342.496 250.173 342.246C250.614 341.996 251.151 341.871 251.784 341.871ZM256.073 344.977V344.789C256.073 343.848 256.368 343.08 256.958 342.486C257.551 341.889 258.344 341.59 259.337 341.59C260.325 341.59 261.116 341.889 261.71 342.486C262.303 343.08 262.6 343.848 262.6 344.789V344.977C262.6 345.918 262.303 346.688 261.71 347.285C261.116 347.879 260.325 348.176 259.337 348.176C258.344 348.176 257.551 347.879 256.958 347.285C256.368 346.688 256.073 345.918 256.073 344.977ZM257.221 344.789V344.977C257.221 345.617 257.399 346.156 257.755 346.594C258.11 347.031 258.637 347.25 259.337 347.25C260.036 347.25 260.561 347.031 260.913 346.594C261.268 346.156 261.446 345.617 261.446 344.977V344.789C261.446 344.145 261.268 343.605 260.913 343.172C260.561 342.734 260.036 342.516 259.337 342.516C258.637 342.516 258.11 342.734 257.755 343.172C257.399 343.605 257.221 344.145 257.221 344.789ZM263.549 342.65V341.766H269.116V342.65H266.895V348H265.77V342.65H263.549ZM274.858 348L272.156 345.146L272.848 344.414L276.293 348H274.858ZM271.002 344.385H272.233L274.647 341.766H275.977L272.695 345.27H271.002V344.385ZM271.565 341.766V348H270.445V341.766H271.565ZM277.014 346.166C277.014 345.529 277.287 345.035 277.834 344.684C278.385 344.332 279.098 344.156 279.973 344.156H281.643V343.711C281.643 343.336 281.525 343.037 281.291 342.814C281.06 342.592 280.666 342.48 280.107 342.48C279.553 342.48 279.152 342.576 278.906 342.768C278.66 342.955 278.537 343.182 278.537 343.447V343.477H277.412V343.447C277.412 342.936 277.656 342.498 278.144 342.135C278.633 341.771 279.297 341.59 280.137 341.59C280.973 341.59 281.619 341.77 282.076 342.129C282.537 342.484 282.768 343.012 282.768 343.711V346.594C282.768 346.848 282.789 347.088 282.832 347.314C282.875 347.537 282.935 347.734 283.014 347.906V348H281.93C281.867 347.902 281.81 347.773 281.76 347.613C281.709 347.453 281.678 347.295 281.666 347.139C281.502 347.4 281.228 347.629 280.846 347.824C280.463 348.02 279.973 348.117 279.375 348.117C278.703 348.117 278.141 347.949 277.687 347.613C277.238 347.277 277.014 346.795 277.014 346.166ZM278.139 346.107C278.139 346.459 278.26 346.732 278.502 346.928C278.744 347.123 279.123 347.221 279.639 347.221C280.154 347.221 280.617 347.072 281.027 346.775C281.437 346.479 281.643 346.164 281.643 345.832V344.953H280.101C279.461 344.953 278.973 345.057 278.637 345.264C278.305 345.467 278.139 345.748 278.139 346.107Z" fill="#04101C"/>
</g>
<g filter="url(#filter3_dd_493_83193)">
<rect x="14" y="274" width="68" height="94" rx="12" fill="white"/>
<path d="M40.666 300.569L53.1793 306.826L50.5287 308.417L40.666 304.033V300.569ZM38.666 297.333V305.333L50.666 310.666L57.3327 306.666L38.666 297.333ZM55.3327 312.828V316.097L48.7953 319.366L55.3327 312.828ZM57.3327 308L38.666 326.666L57.3327 317.333V308ZM40.666 310.666L41.646 311.401L40.666 314.342V310.666ZM38.666 306.666V326.666L43.9993 310.666L38.666 306.666Z" fill="url(#paint12_radial_493_83193)"/>
<path d="M34.5998 343.951V343.518C34.5998 342.182 34.9651 341.145 35.6955 340.406C36.4299 339.664 37.3498 339.293 38.4553 339.293C39.5491 339.293 40.3987 339.568 41.0041 340.119C41.6096 340.666 41.9377 341.344 41.9885 342.152L41.9944 342.211H40.8284L40.8225 342.152C40.7952 341.637 40.5862 341.197 40.1955 340.834C39.8088 340.471 39.2288 340.289 38.4553 340.289C37.6741 340.289 37.0315 340.566 36.5276 341.121C36.0276 341.672 35.7776 342.471 35.7776 343.518V343.951C35.7776 344.971 36.0276 345.764 36.5276 346.33C37.0315 346.896 37.6741 347.18 38.4553 347.18C39.2288 347.18 39.803 346.994 40.178 346.623C40.5569 346.248 40.7717 345.812 40.8225 345.316L40.8284 345.258H41.9944L41.9885 345.316C41.9065 346.113 41.5725 346.789 40.9866 347.344C40.4006 347.898 39.5569 348.176 38.4553 348.176C37.3498 348.176 36.4299 347.809 35.6955 347.074C34.9651 346.336 34.5998 345.295 34.5998 343.951ZM43.7461 348V339.469H46.7754C47.7676 339.469 48.5352 339.697 49.0781 340.154C49.6211 340.611 49.8926 341.225 49.8926 341.994C49.8926 342.764 49.6211 343.383 49.0781 343.852C48.5352 344.32 47.7676 344.555 46.7754 344.555H44.9121V348H43.7461ZM44.9121 343.605H46.7754C47.5059 343.605 48.0137 343.451 48.2988 343.143C48.584 342.83 48.7266 342.447 48.7266 341.994C48.7266 341.541 48.584 341.166 48.2988 340.869C48.0137 340.568 47.5059 340.418 46.7754 340.418H44.9121V343.605ZM49.0371 348L46.7988 344.068L47.9941 343.922L50.3672 348H49.0371ZM51.8728 348V339.469H53.3962L56.1677 345.885C56.2185 346.002 56.2673 346.125 56.3142 346.254C56.365 346.379 56.4099 346.496 56.449 346.605H56.4959C56.531 346.496 56.572 346.379 56.6189 346.254C56.6658 346.125 56.7146 346.002 56.7654 345.885L59.5193 339.469H61.072V348H59.947V341.73C59.947 341.613 59.949 341.482 59.9529 341.338C59.9607 341.189 59.9724 341.057 59.988 340.939H59.9353C59.9041 341.057 59.8611 341.189 59.8064 341.338C59.7556 341.482 59.7048 341.613 59.6541 341.73L56.9705 348H55.9334L53.2322 341.73C53.1814 341.613 53.1306 341.482 53.0798 341.338C53.033 341.189 52.9959 341.057 52.9685 340.939H52.9158C52.9275 341.057 52.9373 341.189 52.9451 341.338C52.9568 341.482 52.9627 341.613 52.9627 341.73V348H51.8728Z" fill="#04101C"/>
</g>
<g filter="url(#filter4_dd_493_83193)">
<rect x="174" y="8" width="115" height="94" rx="12" fill="white"/>
<g clip-path="url(#clip0_493_83193)">
<path d="M220.834 40.6663H226.167V35.333H220.834V40.6663ZM228.834 56.6663H234.167V51.333H228.834V56.6663ZM220.834 56.6663H226.167V51.333H220.834V56.6663ZM220.834 48.6663H226.167V43.333H220.834V48.6663ZM228.834 48.6663H234.167V43.333H228.834V48.6663ZM236.834 35.333V40.6663H242.167V35.333H236.834ZM228.834 40.6663H234.167V35.333H228.834V40.6663ZM236.834 48.6663H242.167V43.333H236.834V48.6663ZM236.834 56.6663H242.167V51.333H236.834V56.6663Z" fill="url(#paint13_radial_493_83193)"/>
</g>
<path d="M193.078 82V73.4688H199.875V82H198.715V74.4297H194.244V82H193.078ZM202.025 84.4375V75.7656H203.045L203.097 76.6211H203.121C203.308 76.3516 203.592 76.123 203.971 75.9355C204.349 75.7441 204.793 75.6484 205.301 75.6484C206.176 75.6484 206.875 75.9453 207.398 76.5391C207.926 77.1289 208.189 77.8789 208.189 78.7891V78.9766C208.189 79.8828 207.926 80.6328 207.398 81.2266C206.875 81.8203 206.176 82.1172 205.301 82.1172C204.793 82.1172 204.361 82.0352 204.006 81.8711C203.65 81.707 203.365 81.4902 203.15 81.2207V84.4375H202.025ZM203.15 80.084C203.291 80.373 203.523 80.6309 203.847 80.8574C204.172 81.0801 204.566 81.1914 205.031 81.1914C205.722 81.1914 206.228 80.9805 206.549 80.5586C206.873 80.1328 207.035 79.6055 207.035 78.9766V78.7891C207.035 78.1562 206.873 77.6289 206.549 77.207C206.228 76.7852 205.722 76.5742 205.031 76.5742C204.566 76.5742 204.172 76.6875 203.847 76.9141C203.527 77.1367 203.295 77.3926 203.15 77.6816V80.084ZM209.836 82V75.7656H210.949V79.7383C210.949 79.8555 210.947 79.9883 210.943 80.1367C210.943 80.2852 210.941 80.4199 210.937 80.541H210.984C211.039 80.4355 211.099 80.3242 211.166 80.207C211.232 80.0898 211.308 79.9727 211.394 79.8555L214.33 75.7656H215.461V82H214.341V78.0332C214.341 77.9121 214.343 77.7773 214.347 77.6289C214.351 77.4766 214.357 77.3398 214.365 77.2188H214.3C214.25 77.3203 214.191 77.4316 214.125 77.5527C214.058 77.6738 213.984 77.793 213.902 77.9102L210.966 82H209.836ZM219.099 76.6504L218.994 79.1348C218.947 80.1855 218.802 80.9473 218.56 81.4199C218.322 81.8926 217.91 82.1289 217.324 82.1289C217.179 82.1289 217.052 82.1191 216.943 82.0996C216.833 82.084 216.742 82.0586 216.667 82.0234V81.0566C216.734 81.084 216.802 81.1035 216.872 81.1152C216.947 81.127 217.031 81.1328 217.124 81.1328C217.421 81.1328 217.626 80.9805 217.74 80.6758C217.857 80.3672 217.931 79.8027 217.962 78.9824L218.103 75.7656H222.913V82H221.788V76.6504H219.099ZM224.56 78.9766V78.7891C224.56 77.8477 224.855 77.0801 225.444 76.4863C226.038 75.8887 226.831 75.5898 227.823 75.5898C228.812 75.5898 229.603 75.8887 230.196 76.4863C230.79 77.0801 231.087 77.8477 231.087 78.7891V78.9766C231.087 79.918 230.79 80.6875 230.196 81.2852C229.603 81.8789 228.812 82.1758 227.823 82.1758C226.831 82.1758 226.038 81.8789 225.444 81.2852C224.855 80.6875 224.56 79.918 224.56 78.9766ZM225.708 78.7891V78.9766C225.708 79.6172 225.886 80.1562 226.241 80.5938C226.597 81.0312 227.124 81.25 227.823 81.25C228.523 81.25 229.048 81.0312 229.4 80.5938C229.755 80.1562 229.933 79.6172 229.933 78.9766V78.7891C229.933 78.1445 229.755 77.6055 229.4 77.1719C229.048 76.7344 228.523 76.5156 227.823 76.5156C227.124 76.5156 226.597 76.7344 226.241 77.1719C225.886 77.6055 225.708 78.1445 225.708 78.7891ZM237.099 82H235.985V75.7656H237.099V82ZM240.028 82L237.602 79.1934L238.317 78.4727L241.388 82H240.028ZM236.548 78.3848H237.643L239.841 75.7656H241.106L238.136 79.2637H236.548V78.3848ZM233.05 82H231.731L234.796 78.4844L235.464 79.2051L233.05 82ZM236.548 78.3848V79.2637H234.919L231.96 75.7656H233.255L235.44 78.3848H236.548ZM242.032 78.9766V78.7891C242.032 77.8477 242.317 77.0801 242.887 76.4863C243.462 75.8887 244.219 75.5898 245.161 75.5898C246.106 75.5898 246.833 75.8691 247.34 76.4277C247.848 76.9824 248.102 77.7344 248.102 78.6836V79.1465H242.7V78.25H246.971V78.2207C246.971 77.7207 246.829 77.3105 246.544 76.9902C246.258 76.6699 245.801 76.5098 245.172 76.5098C244.512 76.5098 244.012 76.7285 243.672 77.166C243.333 77.6035 243.163 78.1445 243.163 78.7891V78.9766C243.163 79.6211 243.34 80.1621 243.696 80.5996C244.055 81.0371 244.608 81.2559 245.354 81.2559C245.807 81.2559 246.198 81.1699 246.526 80.998C246.854 80.8223 247.118 80.6152 247.317 80.377L248.044 80.9746C247.825 81.2676 247.485 81.541 247.024 81.7949C246.567 82.0488 246.01 82.1758 245.354 82.1758C244.28 82.1758 243.458 81.8789 242.887 81.2852C242.317 80.6875 242.032 79.918 242.032 78.9766ZM249.637 75.7656H250.762V78.3789H254.067V75.7656H255.192V82H254.067V79.2695H250.762V82H249.637V75.7656ZM257.201 82V75.7656H258.315V79.7383C258.315 79.8555 258.313 79.9883 258.309 80.1367C258.309 80.2852 258.307 80.4199 258.303 80.541H258.35C258.404 80.4355 258.465 80.3242 258.531 80.207C258.598 80.0898 258.674 79.9727 258.76 79.8555L261.695 75.7656H262.826V82H261.707V78.0332C261.707 77.9121 261.709 77.7773 261.713 77.6289C261.717 77.4766 261.723 77.3398 261.731 77.2188H261.666C261.615 77.3203 261.557 77.4316 261.49 77.5527C261.424 77.6738 261.35 77.793 261.268 77.9102L258.332 82H257.201ZM265.68 82H264.432L266.435 79.3398L267.566 79.4395L265.68 82ZM268.92 82V79.75H267.162L267.033 79.6797C266.268 79.6797 265.68 79.5078 265.269 79.1641C264.859 78.8164 264.654 78.3496 264.654 77.7637C264.654 77.1582 264.861 76.6738 265.275 76.3105C265.689 75.9473 266.283 75.7656 267.057 75.7656H270.051V82H268.92ZM267.062 78.8594H268.92V76.6504H267.062C266.594 76.6504 266.264 76.7559 266.072 76.9668C265.885 77.1777 265.791 77.4434 265.791 77.7637C265.791 78.0879 265.885 78.3516 266.072 78.5547C266.26 78.7578 266.59 78.8594 267.062 78.8594Z" fill="#04101C"/>
</g>
<g filter="url(#filter5_dd_493_83193)">
<rect x="261" y="137" width="75" height="94" rx="12" fill="white"/>
<g clip-path="url(#clip1_493_83193)">
<path d="M309.166 164.333H287.833C286.366 164.333 285.179 165.533 285.179 167L285.166 183C285.166 184.466 286.366 185.666 287.833 185.666H309.166C310.633 185.666 311.833 184.466 311.833 183V167C311.833 165.533 310.633 164.333 309.166 164.333ZM287.833 171H301.833V175.666H287.833V171ZM287.833 178.333H301.833V183H287.833V178.333ZM309.166 183H304.499V171H309.166V183Z" fill="url(#paint14_radial_493_83193)"/>
</g>
<path d="M279.733 206.951V206.518C279.733 205.182 280.098 204.145 280.829 203.406C281.563 202.664 282.483 202.293 283.588 202.293C284.682 202.293 285.532 202.568 286.137 203.119C286.743 203.666 287.071 204.344 287.122 205.152L287.127 205.211H285.961L285.956 205.152C285.928 204.637 285.719 204.197 285.329 203.834C284.942 203.471 284.362 203.289 283.588 203.289C282.807 203.289 282.165 203.566 281.661 204.121C281.161 204.672 280.911 205.471 280.911 206.518V206.951C280.911 207.971 281.161 208.764 281.661 209.33C282.165 209.896 282.807 210.18 283.588 210.18C284.362 210.18 284.936 209.994 285.311 209.623C285.69 209.248 285.905 208.812 285.956 208.316L285.961 208.258H287.127L287.122 208.316C287.04 209.113 286.706 209.789 286.12 210.344C285.534 210.898 284.69 211.176 283.588 211.176C282.483 211.176 281.563 210.809 280.829 210.074C280.098 209.336 279.733 208.295 279.733 206.951ZM288.141 209.166C288.141 208.529 288.414 208.035 288.961 207.684C289.512 207.332 290.225 207.156 291.1 207.156H292.77V206.711C292.77 206.336 292.653 206.037 292.418 205.814C292.188 205.592 291.793 205.48 291.235 205.48C290.68 205.48 290.28 205.576 290.033 205.768C289.787 205.955 289.664 206.182 289.664 206.447V206.477H288.539V206.447C288.539 205.936 288.783 205.498 289.272 205.135C289.76 204.771 290.424 204.59 291.264 204.59C292.1 204.59 292.746 204.77 293.203 205.129C293.664 205.484 293.895 206.012 293.895 206.711V209.594C293.895 209.848 293.916 210.088 293.959 210.314C294.002 210.537 294.063 210.734 294.141 210.906V211H293.057C292.994 210.902 292.938 210.773 292.887 210.613C292.836 210.453 292.805 210.295 292.793 210.139C292.629 210.4 292.356 210.629 291.973 210.824C291.59 211.02 291.1 211.117 290.502 211.117C289.83 211.117 289.268 210.949 288.815 210.613C288.365 210.277 288.141 209.795 288.141 209.166ZM289.266 209.107C289.266 209.459 289.387 209.732 289.629 209.928C289.871 210.123 290.25 210.221 290.766 210.221C291.281 210.221 291.744 210.072 292.155 209.775C292.565 209.479 292.77 209.164 292.77 208.832V207.953H291.229C290.588 207.953 290.1 208.057 289.764 208.264C289.432 208.467 289.266 208.748 289.266 209.107ZM295.893 211V204.766H297.006V208.738C297.006 208.855 297.004 208.988 297 209.137C297 209.285 296.998 209.42 296.994 209.541H297.041C297.096 209.436 297.156 209.324 297.223 209.207C297.289 209.09 297.365 208.973 297.451 208.855L300.387 204.766H301.518V211H300.398V207.033C300.398 206.912 300.4 206.777 300.404 206.629C300.408 206.477 300.414 206.34 300.422 206.219H300.357C300.307 206.32 300.248 206.432 300.182 206.553C300.115 206.674 300.041 206.793 299.959 206.91L297.023 211H295.893ZM298.705 202.867C298.998 202.867 299.238 202.789 299.426 202.633C299.613 202.473 299.773 202.213 299.906 201.854L300.768 202.357C300.572 202.834 300.295 203.184 299.936 203.406C299.576 203.629 299.166 203.74 298.705 203.74C298.24 203.74 297.83 203.631 297.475 203.412C297.119 203.189 296.84 202.838 296.637 202.357L297.504 201.842C297.637 202.213 297.795 202.477 297.979 202.633C298.166 202.789 298.408 202.867 298.705 202.867ZM302.836 205.65V204.766H308.402V205.65H306.181V211H305.056V205.65H302.836ZM310.857 204.766V206.893H312.667C313.445 206.893 314.042 207.076 314.46 207.443C314.882 207.807 315.093 208.303 315.093 208.932C315.093 209.557 314.882 210.059 314.46 210.438C314.042 210.812 313.445 211 312.667 211H309.732V204.766H310.857ZM312.662 207.783H310.857V210.115H312.662C313.142 210.115 313.478 210.004 313.669 209.781C313.865 209.559 313.962 209.275 313.962 208.932C313.962 208.596 313.865 208.32 313.669 208.105C313.478 207.891 313.142 207.783 312.662 207.783ZM315.943 211V204.766H317.068V211H315.943Z" fill="#04101C"/>
</g>
<defs>
<filter id="filter0_dd_493_83193" x="50" y="0" width="103" height="114" filterUnits="userSpaceOnUse" color-interpolation-filters="sRGB">
<feFlood flood-opacity="0" result="BackgroundImageFix"/>
<feColorMatrix in="SourceAlpha" type="matrix" values="0 0 0 0 0 0 0 0 0 0 0 0 0 0 0 0 0 0 127 0" result="hardAlpha"/>
<feOffset dx="1" dy="2"/>
<feGaussianBlur stdDeviation="5"/>
<feComposite in2="hardAlpha" operator="out"/>
<feColorMatrix type="matrix" values="0 0 0 0 0.00780001 0 0 0 0 0.045344 0 0 0 0 0.0800001 0 0 0 0.08 0"/>
<feBlend mode="normal" in2="BackgroundImageFix" result="effect1_dropShadow_493_83193"/>
<feColorMatrix in="SourceAlpha" type="matrix" values="0 0 0 0 0 0 0 0 0 0 0 0 0 0 0 0 0 0 127 0" result="hardAlpha"/>
<feOffset dx="1" dy="2"/>
<feGaussianBlur stdDeviation="5"/>
<feComposite in2="hardAlpha" operator="out"/>
<feColorMatrix type="matrix" values="0 0 0 0 0.00780001 0 0 0 0 0.045344 0 0 0 0 0.0800001 0 0 0 0.08 0"/>
<feBlend mode="normal" in2="effect1_dropShadow_493_83193" result="effect2_dropShadow_493_83193"/>
<feBlend mode="normal" in="SourceGraphic" in2="effect2_dropShadow_493_83193" result="shape"/>
</filter>
<filter id="filter1_dd_493_83193" x="93" y="133" width="88" height="114" filterUnits="userSpaceOnUse" color-interpolation-filters="sRGB">
<feFlood flood-opacity="0" result="BackgroundImageFix"/>
<feColorMatrix in="SourceAlpha" type="matrix" values="0 0 0 0 0 0 0 0 0 0 0 0 0 0 0 0 0 0 127 0" result="hardAlpha"/>
<feOffset dx="1" dy="2"/>
<feGaussianBlur stdDeviation="5"/>
<feComposite in2="hardAlpha" operator="out"/>
<feColorMatrix type="matrix" values="0 0 0 0 0.00780001 0 0 0 0 0.045344 0 0 0 0 0.0800001 0 0 0 0.08 0"/>
<feBlend mode="normal" in2="BackgroundImageFix" result="effect1_dropShadow_493_83193"/>
<feColorMatrix in="SourceAlpha" type="matrix" values="0 0 0 0 0 0 0 0 0 0 0 0 0 0 0 0 0 0 127 0" result="hardAlpha"/>
<feOffset dx="1" dy="2"/>
<feGaussianBlur stdDeviation="5"/>
<feComposite in2="hardAlpha" operator="out"/>
<feColorMatrix type="matrix" values="0 0 0 0 0.00780001 0 0 0 0 0.045344 0 0 0 0 0.0800001 0 0 0 0.08 0"/>
<feBlend mode="normal" in2="effect1_dropShadow_493_83193" result="effect2_dropShadow_493_83193"/>
<feBlend mode="normal" in="SourceGraphic" in2="effect2_dropShadow_493_83193" result="shape"/>
</filter>
<filter id="filter2_dd_493_83193" x="183" y="266" width="130" height="114" filterUnits="userSpaceOnUse" color-interpolation-filters="sRGB">
<feFlood flood-opacity="0" result="BackgroundImageFix"/>
<feColorMatrix in="SourceAlpha" type="matrix" values="0 0 0 0 0 0 0 0 0 0 0 0 0 0 0 0 0 0 127 0" result="hardAlpha"/>
<feOffset dx="1" dy="2"/>
<feGaussianBlur stdDeviation="5"/>
<feComposite in2="hardAlpha" operator="out"/>
<feColorMatrix type="matrix" values="0 0 0 0 0.00780001 0 0 0 0 0.045344 0 0 0 0 0.0800001 0 0 0 0.08 0"/>
<feBlend mode="normal" in2="BackgroundImageFix" result="effect1_dropShadow_493_83193"/>
<feColorMatrix in="SourceAlpha" type="matrix" values="0 0 0 0 0 0 0 0 0 0 0 0 0 0 0 0 0 0 127 0" result="hardAlpha"/>
<feOffset dx="1" dy="2"/>
<feGaussianBlur stdDeviation="5"/>
<feComposite in2="hardAlpha" operator="out"/>
<feColorMatrix type="matrix" values="0 0 0 0 0.00780001 0 0 0 0 0.045344 0 0 0 0 0.0800001 0 0 0 0.08 0"/>
<feBlend mode="normal" in2="effect1_dropShadow_493_83193" result="effect2_dropShadow_493_83193"/>
<feBlend mode="normal" in="SourceGraphic" in2="effect2_dropShadow_493_83193" result="shape"/>
</filter>
<filter id="filter3_dd_493_83193" x="5" y="266" width="88" height="114" filterUnits="userSpaceOnUse" color-interpolation-filters="sRGB">
<feFlood flood-opacity="0" result="BackgroundImageFix"/>
<feColorMatrix in="SourceAlpha" type="matrix" values="0 0 0 0 0 0 0 0 0 0 0 0 0 0 0 0 0 0 127 0" result="hardAlpha"/>
<feOffset dx="1" dy="2"/>
<feGaussianBlur stdDeviation="5"/>
<feComposite in2="hardAlpha" operator="out"/>
<feColorMatrix type="matrix" values="0 0 0 0 0.00780001 0 0 0 0 0.045344 0 0 0 0 0.0800001 0 0 0 0.08 0"/>
<feBlend mode="normal" in2="BackgroundImageFix" result="effect1_dropShadow_493_83193"/>
<feColorMatrix in="SourceAlpha" type="matrix" values="0 0 0 0 0 0 0 0 0 0 0 0 0 0 0 0 0 0 127 0" result="hardAlpha"/>
<feOffset dx="1" dy="2"/>
<feGaussianBlur stdDeviation="5"/>
<feComposite in2="hardAlpha" operator="out"/>
<feColorMatrix type="matrix" values="0 0 0 0 0.00780001 0 0 0 0 0.045344 0 0 0 0 0.0800001 0 0 0 0.08 0"/>
<feBlend mode="normal" in2="effect1_dropShadow_493_83193" result="effect2_dropShadow_493_83193"/>
<feBlend mode="normal" in="SourceGraphic" in2="effect2_dropShadow_493_83193" result="shape"/>
</filter>
<filter id="filter4_dd_493_83193" x="165" y="0" width="135" height="114" filterUnits="userSpaceOnUse" color-interpolation-filters="sRGB">
<feFlood flood-opacity="0" result="BackgroundImageFix"/>
<feColorMatrix in="SourceAlpha" type="matrix" values="0 0 0 0 0 0 0 0 0 0 0 0 0 0 0 0 0 0 127 0" result="hardAlpha"/>
<feOffset dx="1" dy="2"/>
<feGaussianBlur stdDeviation="5"/>
<feComposite in2="hardAlpha" operator="out"/>
<feColorMatrix type="matrix" values="0 0 0 0 0.00780001 0 0 0 0 0.045344 0 0 0 0 0.0800001 0 0 0 0.08 0"/>
<feBlend mode="normal" in2="BackgroundImageFix" result="effect1_dropShadow_493_83193"/>
<feColorMatrix in="SourceAlpha" type="matrix" values="0 0 0 0 0 0 0 0 0 0 0 0 0 0 0 0 0 0 127 0" result="hardAlpha"/>
<feOffset dx="1" dy="2"/>
<feGaussianBlur stdDeviation="5"/>
<feComposite in2="hardAlpha" operator="out"/>
<feColorMatrix type="matrix" values="0 0 0 0 0.00780001 0 0 0 0 0.045344 0 0 0 0 0.0800001 0 0 0 0.08 0"/>
<feBlend mode="normal" in2="effect1_dropShadow_493_83193" result="effect2_dropShadow_493_83193"/>
<feBlend mode="normal" in="SourceGraphic" in2="effect2_dropShadow_493_83193" result="shape"/>
</filter>
<filter id="filter5_dd_493_83193" x="252" y="129" width="95" height="114" filterUnits="userSpaceOnUse" color-interpolation-filters="sRGB">
<feFlood flood-opacity="0" result="BackgroundImageFix"/>
<feColorMatrix in="SourceAlpha" type="matrix" values="0 0 0 0 0 0 0 0 0 0 0 0 0 0 0 0 0 0 127 0" result="hardAlpha"/>
<feOffset dx="1" dy="2"/>
<feGaussianBlur stdDeviation="5"/>
<feComposite in2="hardAlpha" operator="out"/>
<feColorMatrix type="matrix" values="0 0 0 0 0.00780001 0 0 0 0 0.045344 0 0 0 0 0.0800001 0 0 0 0.08 0"/>
<feBlend mode="normal" in2="BackgroundImageFix" result="effect1_dropShadow_493_83193"/>
<feColorMatrix in="SourceAlpha" type="matrix" values="0 0 0 0 0 0 0 0 0 0 0 0 0 0 0 0 0 0 127 0" result="hardAlpha"/>
<feOffset dx="1" dy="2"/>
<feGaussianBlur stdDeviation="5"/>
<feComposite in2="hardAlpha" operator="out"/>
<feColorMatrix type="matrix" values="0 0 0 0 0.00780001 0 0 0 0 0.045344 0 0 0 0 0.0800001 0 0 0 0.08 0"/>
<feBlend mode="normal" in2="effect1_dropShadow_493_83193" result="effect2_dropShadow_493_83193"/>
<feBlend mode="normal" in="SourceGraphic" in2="effect2_dropShadow_493_83193" result="shape"/>
</filter>
<radialGradient id="paint0_radial_493_83193" cx="0" cy="0" r="1" gradientUnits="userSpaceOnUse" gradientTransform="translate(100.864 45.5) rotate(97.9842) scale(18.3024 15.1174)">
<stop offset="0.338542" stop-color="#7A73FF"/>
<stop offset="0.734375" stop-color="#75CDFF"/>
<stop offset="1" stop-color="#4AFCF1"/>
</radialGradient>
<radialGradient id="paint1_radial_493_83193" cx="0" cy="0" r="1" gradientUnits="userSpaceOnUse" gradientTransform="translate(100.864 45.5) rotate(97.9842) scale(18.3024 15.1174)">
<stop offset="0.338542" stop-color="#7A73FF"/>
<stop offset="0.734375" stop-color="#75CDFF"/>
<stop offset="1" stop-color="#4AFCF1"/>
</radialGradient>
<radialGradient id="paint2_radial_493_83193" cx="0" cy="0" r="1" gradientUnits="userSpaceOnUse" gradientTransform="translate(100.864 45.5) rotate(97.9842) scale(18.3024 15.1174)">
<stop offset="0.338542" stop-color="#7A73FF"/>
<stop offset="0.734375" stop-color="#75CDFF"/>
<stop offset="1" stop-color="#4AFCF1"/>
</radialGradient>
<radialGradient id="paint3_radial_493_83193" cx="0" cy="0" r="1" gradientUnits="userSpaceOnUse" gradientTransform="translate(136 180) rotate(103.496) scale(12.855 17.5169)">
<stop offset="0.338542" stop-color="#7A73FF"/>
<stop offset="0.734375" stop-color="#75CDFF"/>
<stop offset="1" stop-color="#4AFCF1"/>
</radialGradient>
<radialGradient id="paint4_radial_493_83193" cx="0" cy="0" r="1" gradientUnits="userSpaceOnUse" gradientTransform="translate(136 180) rotate(103.496) scale(12.855 17.5169)">
<stop offset="0.338542" stop-color="#7A73FF"/>
<stop offset="0.734375" stop-color="#75CDFF"/>
<stop offset="1" stop-color="#4AFCF1"/>
</radialGradient>
<linearGradient id="paint5_linear_493_83193" x1="120" y1="80.0625" x2="126.759" y2="80.5648" gradientUnits="userSpaceOnUse">
<stop offset="0.338542" stop-color="#7A73FF"/>
<stop offset="0.734375" stop-color="#75CDFF"/>
<stop offset="1" stop-color="#4AFCF1"/>
</linearGradient>
<linearGradient id="paint6_linear_493_83193" x1="117.688" y1="189" x2="117.899" y2="182.21" gradientUnits="userSpaceOnUse">
<stop offset="0.338542" stop-color="#7A73FF"/>
<stop offset="0.734375" stop-color="#75CDFF"/>
<stop offset="1" stop-color="#4AFCF1"/>
</linearGradient>
<linearGradient id="paint7_linear_493_83193" x1="266.606" y1="305.972" x2="143.279" y2="235.408" gradientUnits="userSpaceOnUse">
<stop offset="0.338542" stop-color="#7A73FF"/>
<stop offset="0.734375" stop-color="#75CDFF"/>
<stop offset="1" stop-color="#4AFCF1"/>
</linearGradient>
<linearGradient id="paint8_linear_493_83193" x1="5.03641" y1="305.972" x2="128.364" y2="235.408" gradientUnits="userSpaceOnUse">
<stop offset="0.338542" stop-color="#7A73FF"/>
<stop offset="0.734375" stop-color="#75CDFF"/>
<stop offset="1" stop-color="#4AFCF1"/>
</linearGradient>
<linearGradient id="paint9_linear_493_83193" x1="266.606" y1="70.3631" x2="143.279" y2="140.927" gradientUnits="userSpaceOnUse">
<stop offset="0.338542" stop-color="#7A73FF"/>
<stop offset="0.734375" stop-color="#75CDFF"/>
<stop offset="1" stop-color="#4AFCF1"/>
</linearGradient>
<radialGradient id="paint10_radial_493_83193" cx="0" cy="0" r="1" gradientUnits="userSpaceOnUse" gradientTransform="translate(247.5 312.5) rotate(99.7276) scale(18.3894 18.3894)">
<stop offset="0.338542" stop-color="#7A73FF"/>
<stop offset="0.734375" stop-color="#75CDFF"/>
<stop offset="1" stop-color="#4AFCF1"/>
</radialGradient>
<radialGradient id="paint11_radial_493_83193" cx="0" cy="0" r="1" gradientUnits="userSpaceOnUse" gradientTransform="translate(247.5 312.5) rotate(99.7276) scale(18.3894 18.3894)">
<stop offset="0.338542" stop-color="#7A73FF"/>
<stop offset="0.734375" stop-color="#75CDFF"/>
<stop offset="1" stop-color="#4AFCF1"/>
</radialGradient>
<radialGradient id="paint12_radial_493_83193" cx="0" cy="0" r="1" gradientUnits="userSpaceOnUse" gradientTransform="translate(47.9993 312) rotate(96.2258) scale(18.4421 11.9387)">
<stop offset="0.338542" stop-color="#7A73FF"/>
<stop offset="0.734375" stop-color="#75CDFF"/>
<stop offset="1" stop-color="#4AFCF1"/>
</radialGradient>
<radialGradient id="paint13_radial_493_83193" cx="0" cy="0" r="1" gradientUnits="userSpaceOnUse" gradientTransform="translate(231.501 45.9997) rotate(99.7276) scale(13.5278)">
<stop offset="0.338542" stop-color="#7A73FF"/>
<stop offset="0.734375" stop-color="#75CDFF"/>
<stop offset="1" stop-color="#4AFCF1"/>
</radialGradient>
<radialGradient id="paint14_radial_493_83193" cx="0" cy="0" r="1" gradientUnits="userSpaceOnUse" gradientTransform="translate(298.499 175) rotate(102.095) scale(13.636 16.7756)">
<stop offset="0.338542" stop-color="#7A73FF"/>
<stop offset="0.734375" stop-color="#75CDFF"/>
<stop offset="1" stop-color="#4AFCF1"/>
</radialGradient>
<clipPath id="clip0_493_83193">
<rect width="32" height="32" fill="white" transform="translate(215.5 30)"/>
</clipPath>
<clipPath id="clip1_493_83193">
<rect width="32" height="32" fill="white" transform="translate(282.5 159)"/>
</clipPath>
</defs>
</svg>
