<svg width="553" height="314" viewBox="0 0 553 314" fill="none" xmlns="http://www.w3.org/2000/svg">
<g filter="url(#filter0_dd_443_66726)">
<rect x="122" y="53.4521" width="130" height="110" rx="12" fill="white"/>
<path d="M201.061 86.1316C198.853 83.1547 196.254 80.4366 193.266 78.3657C191.318 76.942 188.59 77.2008 186.771 79.0129L182.354 83.4135C180.665 85.0961 180.405 87.8142 181.704 89.7556C181.834 89.885 181.964 90.1439 182.224 90.2733L174.039 98.4275C173.39 99.0746 173 99.9806 173 101.016V105.158C173 105.546 173.13 105.805 173.39 106.064C173.65 106.323 173.909 106.452 174.299 106.452H178.456C179.496 106.452 180.405 106.064 181.055 105.417L189.239 97.2626C189.499 97.392 189.629 97.5214 189.889 97.6509C191.837 98.9452 194.566 98.6863 196.254 97.0037L200.671 92.6031C202.23 90.7911 202.49 88.073 201.061 86.1316ZM198.593 90.7911L194.176 95.1917C193.266 96.0977 191.967 96.2271 191.058 95.58C190.538 95.1917 190.149 94.9328 189.629 94.5445C189.109 94.1562 188.33 94.1562 187.94 94.674L178.976 103.605C178.716 103.864 178.456 103.993 178.197 103.993H175.338V101.145C175.338 100.887 175.468 100.628 175.728 100.369L184.692 91.4382C185.212 90.9205 185.212 90.2733 184.822 89.7556C184.562 89.2379 184.173 88.7202 183.913 88.2024C183.263 87.2964 183.393 86.0021 184.302 85.2255L188.719 80.8249C189.109 80.3072 189.759 80.0483 190.408 80.0483C190.928 80.0483 191.318 80.1777 191.707 80.4366C194.566 82.3781 196.904 84.8372 198.853 87.5553C199.632 88.5907 199.502 89.885 198.593 90.7911Z" fill="url(#paint0_radial_443_66726)"/>
<path d="M192.148 85.3612C191.593 85.3612 191.177 85.6437 190.761 85.9262C189.928 86.7736 189.928 88.0447 190.761 88.7509C191.177 89.1746 191.593 89.3158 192.148 89.3158C192.703 89.3158 193.12 89.1746 193.536 88.7509C193.952 88.3271 194.091 87.9034 194.091 87.3385C194.091 86.7736 193.952 86.3499 193.536 85.9262C193.258 85.5025 192.703 85.3612 192.148 85.3612Z" fill="url(#paint1_radial_443_66726)"/>
<path d="M143.859 123.403V122.97C143.859 121.634 144.226 120.597 144.96 119.858C145.695 119.116 146.636 118.745 147.784 118.745C148.937 118.745 149.88 119.116 150.614 119.858C151.349 120.597 151.716 121.634 151.716 122.97V123.403C151.716 124.739 151.349 125.778 150.614 126.521C149.88 127.259 148.937 127.628 147.784 127.628C146.636 127.628 145.695 127.259 144.96 126.521C144.226 125.778 143.859 124.739 143.859 123.403ZM145.036 123.403C145.036 124.419 145.286 125.212 145.786 125.782C146.29 126.349 146.958 126.632 147.79 126.632C148.618 126.632 149.284 126.349 149.788 125.782C150.292 125.212 150.544 124.419 150.544 123.403V122.97C150.544 121.954 150.292 121.163 149.788 120.597C149.284 120.026 148.618 119.741 147.79 119.741C146.958 119.741 146.29 120.026 145.786 120.597C145.286 121.163 145.036 121.954 145.036 122.97V123.403ZM154.065 124.429C154.065 125.081 154.249 125.612 154.616 126.022C154.987 126.433 155.597 126.659 156.444 126.702V121.968C155.597 122.011 154.987 122.237 154.616 122.647C154.249 123.058 154.065 123.589 154.065 124.241V124.429ZM159.954 124.241C159.954 123.589 159.769 123.058 159.397 122.647C159.03 122.237 158.421 122.011 157.569 121.968V126.702C158.421 126.659 159.03 126.433 159.397 126.022C159.769 125.612 159.954 125.081 159.954 124.429V124.241ZM156.444 127.628C155.319 127.589 154.45 127.286 153.837 126.72C153.224 126.149 152.917 125.386 152.917 124.429V124.241C152.917 123.284 153.224 122.522 153.837 121.956C154.45 121.386 155.319 121.081 156.444 121.042V118.452H157.569V121.042C158.698 121.081 159.569 121.386 160.183 121.956C160.796 122.522 161.102 123.284 161.102 124.241V124.429C161.102 125.386 160.796 126.149 160.183 126.72C159.569 127.286 158.698 127.589 157.569 127.628V129.89H156.444V127.628ZM162.749 127.452V121.218H163.862V125.19C163.862 125.308 163.86 125.44 163.856 125.589C163.856 125.737 163.854 125.872 163.85 125.993H163.897C163.952 125.888 164.012 125.776 164.079 125.659C164.145 125.542 164.221 125.425 164.307 125.308L167.243 121.218H168.374V127.452H167.255V123.485C167.255 123.364 167.257 123.229 167.26 123.081C167.264 122.929 167.27 122.792 167.278 122.671H167.214C167.163 122.772 167.104 122.884 167.038 123.005C166.971 123.126 166.897 123.245 166.815 123.362L163.88 127.452H162.749ZM175.762 129.034V127.452H170.383V121.218H171.508V126.567H174.731V121.218H175.856V126.567H176.793V129.034H175.762ZM178.053 127.452V121.218H179.166V125.19C179.166 125.308 179.164 125.44 179.16 125.589C179.16 125.737 179.158 125.872 179.155 125.993H179.201C179.256 125.888 179.317 125.776 179.383 125.659C179.449 125.542 179.526 125.425 179.612 125.308L182.547 121.218H183.678V127.452H182.559V123.485C182.559 123.364 182.561 123.229 182.565 123.081C182.569 122.929 182.574 122.792 182.582 122.671H182.518C182.467 122.772 182.408 122.884 182.342 123.005C182.276 123.126 182.201 123.245 182.119 123.362L179.184 127.452H178.053ZM185.336 125.618C185.336 124.981 185.609 124.487 186.156 124.136C186.707 123.784 187.42 123.608 188.295 123.608H189.965V123.163C189.965 122.788 189.848 122.489 189.613 122.267C189.383 122.044 188.988 121.933 188.43 121.933C187.875 121.933 187.475 122.028 187.229 122.22C186.982 122.407 186.859 122.634 186.859 122.899V122.929H185.734V122.899C185.734 122.388 185.979 121.95 186.467 121.587C186.955 121.224 187.619 121.042 188.459 121.042C189.295 121.042 189.941 121.222 190.398 121.581C190.859 121.937 191.09 122.464 191.09 123.163V126.046C191.09 126.3 191.111 126.54 191.154 126.767C191.197 126.989 191.258 127.187 191.336 127.358V127.452H190.252C190.189 127.354 190.133 127.226 190.082 127.065C190.031 126.905 190 126.747 189.988 126.591C189.824 126.853 189.551 127.081 189.168 127.276C188.785 127.472 188.295 127.569 187.697 127.569C187.025 127.569 186.463 127.401 186.01 127.065C185.561 126.729 185.336 126.247 185.336 125.618ZM186.461 125.56C186.461 125.911 186.582 126.185 186.824 126.38C187.066 126.575 187.445 126.673 187.961 126.673C188.477 126.673 188.939 126.524 189.35 126.228C189.76 125.931 189.965 125.616 189.965 125.284V124.405H188.424C187.783 124.405 187.295 124.509 186.959 124.716C186.627 124.919 186.461 125.2 186.461 125.56ZM194.717 122.103L194.611 124.587C194.564 125.638 194.42 126.399 194.177 126.872C193.939 127.345 193.527 127.581 192.941 127.581C192.797 127.581 192.67 127.571 192.56 127.552C192.451 127.536 192.359 127.511 192.285 127.476V126.509C192.351 126.536 192.42 126.556 192.49 126.567C192.564 126.579 192.648 126.585 192.742 126.585C193.039 126.585 193.244 126.433 193.357 126.128C193.474 125.819 193.549 125.255 193.58 124.435L193.72 121.218H198.531V127.452H197.406V122.103H194.717ZM201.671 121.218V123.345H203.482C204.259 123.345 204.857 123.528 205.275 123.896C205.697 124.259 205.908 124.755 205.908 125.384C205.908 126.009 205.697 126.511 205.275 126.89C204.857 127.265 204.259 127.452 203.482 127.452H200.546V121.218H201.671ZM203.476 124.235H201.671V126.567H203.476C203.957 126.567 204.292 126.456 204.484 126.233C204.679 126.011 204.777 125.728 204.777 125.384C204.777 125.048 204.679 124.772 204.484 124.558C204.292 124.343 203.957 124.235 203.476 124.235ZM207.408 121.218H208.533V123.831H211.837V121.218H212.962V127.452H211.837V124.722H208.533V127.452H207.408V121.218ZM216.097 121.218V123.345H217.907C218.685 123.345 219.282 123.528 219.7 123.896C220.122 124.259 220.333 124.755 220.333 125.384C220.333 126.009 220.122 126.511 219.7 126.89C219.282 127.265 218.685 127.452 217.907 127.452H214.972V121.218H216.097ZM217.901 124.235H216.097V126.567H217.901C218.382 126.567 218.718 126.456 218.909 126.233C219.105 126.011 219.202 125.728 219.202 125.384C219.202 125.048 219.105 124.772 218.909 124.558C218.718 124.343 218.382 124.235 217.901 124.235ZM221.183 127.452V121.218H222.308V127.452H221.183ZM224.317 127.452V121.218H225.43V125.19C225.43 125.308 225.429 125.44 225.425 125.589C225.425 125.737 225.423 125.872 225.419 125.993H225.466C225.52 125.888 225.581 125.776 225.647 125.659C225.714 125.542 225.79 125.425 225.876 125.308L228.811 121.218H229.942V127.452H228.823V123.485C228.823 123.364 228.825 123.229 228.829 123.081C228.833 122.929 228.839 122.792 228.846 122.671H228.782C228.731 122.772 228.673 122.884 228.606 123.005C228.54 123.126 228.466 123.245 228.384 123.362L225.448 127.452H224.317ZM227.13 119.319C227.423 119.319 227.663 119.241 227.85 119.085C228.038 118.925 228.198 118.665 228.331 118.306L229.192 118.81C228.997 119.286 228.72 119.636 228.36 119.858C228.001 120.081 227.591 120.192 227.13 120.192C226.665 120.192 226.255 120.083 225.899 119.864C225.544 119.642 225.264 119.29 225.061 118.81L225.929 118.294C226.061 118.665 226.22 118.929 226.403 119.085C226.591 119.241 226.833 119.319 227.13 119.319ZM141.251 137.218H146.753V143.452H145.628V138.103H142.376V143.452H141.251V137.218ZM148.769 145.89V137.218H149.788L149.841 138.073H149.864C150.052 137.804 150.335 137.575 150.714 137.388C151.093 137.196 151.536 137.101 152.044 137.101C152.919 137.101 153.618 137.397 154.142 137.991C154.669 138.581 154.933 139.331 154.933 140.241V140.429C154.933 141.335 154.669 142.085 154.142 142.679C153.618 143.272 152.919 143.569 152.044 143.569C151.536 143.569 151.105 143.487 150.749 143.323C150.394 143.159 150.109 142.942 149.894 142.673V145.89H148.769ZM149.894 141.536C150.034 141.825 150.267 142.083 150.591 142.31C150.915 142.532 151.31 142.644 151.775 142.644C152.466 142.644 152.972 142.433 153.292 142.011C153.616 141.585 153.779 141.058 153.779 140.429V140.241C153.779 139.608 153.616 139.081 153.292 138.659C152.972 138.237 152.466 138.026 151.775 138.026C151.31 138.026 150.915 138.14 150.591 138.366C150.271 138.589 150.038 138.845 149.894 139.134V141.536ZM156.21 140.429V140.241C156.21 139.3 156.495 138.532 157.065 137.938C157.64 137.341 158.397 137.042 159.339 137.042C160.284 137.042 161.011 137.321 161.519 137.88C162.026 138.435 162.28 139.187 162.28 140.136V140.599H156.878V139.702H161.149V139.673C161.149 139.173 161.007 138.763 160.722 138.442C160.436 138.122 159.979 137.962 159.351 137.962C158.69 137.962 158.19 138.181 157.851 138.618C157.511 139.056 157.341 139.597 157.341 140.241V140.429C157.341 141.073 157.519 141.614 157.874 142.052C158.233 142.489 158.786 142.708 159.532 142.708C159.985 142.708 160.376 142.622 160.704 142.45C161.032 142.274 161.296 142.067 161.495 141.829L162.222 142.427C162.003 142.72 161.663 142.993 161.202 143.247C160.745 143.501 160.188 143.628 159.532 143.628C158.458 143.628 157.636 143.331 157.065 142.737C156.495 142.14 156.21 141.37 156.21 140.429ZM169.048 145.034V143.452H164.026V145.034H162.995V142.567H170.085V145.034H169.048ZM165.245 138.103L165.151 140.218C165.12 140.937 165.075 141.466 165.016 141.806C164.962 142.142 164.88 142.427 164.77 142.661H163.604C163.745 142.474 163.856 142.204 163.938 141.853C164.024 141.497 164.085 140.905 164.12 140.077L164.249 137.218H169.147V143.452H168.016V138.103H165.245ZM170.975 140.429V140.241C170.975 139.3 171.258 138.532 171.825 137.938C172.395 137.341 173.178 137.042 174.174 137.042C175.096 137.042 175.795 137.267 176.272 137.716C176.752 138.161 176.993 138.661 176.993 139.216V139.245H175.879V139.21C175.879 138.878 175.745 138.587 175.475 138.337C175.209 138.087 174.776 137.962 174.174 137.962C173.471 137.962 172.954 138.181 172.622 138.618C172.29 139.056 172.124 139.597 172.124 140.241V140.429C172.124 141.073 172.29 141.614 172.622 142.052C172.954 142.485 173.471 142.702 174.174 142.702C174.776 142.702 175.209 142.579 175.475 142.333C175.745 142.087 175.879 141.794 175.879 141.454V141.425H176.993V141.454C176.993 142.005 176.752 142.505 176.272 142.954C175.795 143.403 175.096 143.628 174.174 143.628C173.178 143.628 172.395 143.331 171.825 142.737C171.258 142.14 170.975 141.37 170.975 140.429ZM177.748 138.103V137.218H183.315V138.103H181.094V143.452H179.969V138.103H177.748ZM184.293 141.618C184.293 140.981 184.566 140.487 185.113 140.136C185.664 139.784 186.377 139.608 187.252 139.608H188.922V139.163C188.922 138.788 188.805 138.489 188.57 138.267C188.34 138.044 187.945 137.933 187.387 137.933C186.832 137.933 186.432 138.028 186.186 138.22C185.939 138.407 185.816 138.634 185.816 138.899V138.929H184.691V138.899C184.691 138.388 184.936 137.95 185.424 137.587C185.912 137.224 186.576 137.042 187.416 137.042C188.252 137.042 188.898 137.222 189.355 137.581C189.816 137.937 190.047 138.464 190.047 139.163V142.046C190.047 142.3 190.068 142.54 190.111 142.767C190.154 142.989 190.215 143.187 190.293 143.358V143.452H189.209C189.146 143.354 189.09 143.226 189.039 143.065C188.988 142.905 188.957 142.747 188.945 142.591C188.781 142.853 188.508 143.081 188.125 143.276C187.742 143.472 187.252 143.569 186.654 143.569C185.982 143.569 185.42 143.401 184.967 143.065C184.518 142.729 184.293 142.247 184.293 141.618ZM185.418 141.56C185.418 141.911 185.539 142.185 185.781 142.38C186.023 142.575 186.402 142.673 186.918 142.673C187.434 142.673 187.896 142.524 188.307 142.228C188.717 141.931 188.922 141.616 188.922 141.284V140.405H187.381C186.74 140.405 186.252 140.509 185.916 140.716C185.584 140.919 185.418 141.2 185.418 141.56ZM192.045 143.452V137.218H195.168C195.879 137.218 196.433 137.356 196.832 137.634C197.234 137.907 197.435 138.323 197.435 138.882C197.435 139.229 197.332 139.521 197.125 139.755C196.918 139.989 196.64 140.147 196.293 140.229V140.247C196.715 140.31 197.047 140.464 197.289 140.71C197.531 140.952 197.652 141.263 197.652 141.642C197.652 142.212 197.441 142.657 197.019 142.978C196.597 143.294 196.039 143.452 195.344 143.452H192.045ZM193.17 139.843H195.168C195.57 139.843 195.859 139.763 196.035 139.603C196.211 139.442 196.299 139.222 196.299 138.94C196.299 138.667 196.211 138.46 196.035 138.319C195.859 138.179 195.57 138.106 195.168 138.103H193.17V139.843ZM193.17 142.567H195.344C195.75 142.567 196.047 142.483 196.234 142.315C196.426 142.147 196.521 141.921 196.521 141.636C196.521 141.358 196.428 141.138 196.24 140.974C196.053 140.806 195.754 140.722 195.344 140.722H193.17V142.567ZM199.363 143.452V137.218H200.476V141.19C200.476 141.308 200.474 141.44 200.47 141.589C200.47 141.737 200.468 141.872 200.464 141.993H200.511C200.566 141.888 200.626 141.776 200.693 141.659C200.759 141.542 200.835 141.425 200.921 141.308L203.857 137.218H204.988V143.452H203.869V139.485C203.869 139.364 203.871 139.229 203.875 139.081C203.878 138.929 203.884 138.792 203.892 138.671H203.828C203.777 138.772 203.718 138.884 203.652 139.005C203.585 139.126 203.511 139.245 203.429 139.362L200.494 143.452H199.363ZM206.306 138.103V137.218H211.872V138.103H209.652V143.452H208.527V138.103H206.306ZM212.833 140.429V140.241C212.833 139.3 213.118 138.532 213.689 137.938C214.263 137.341 215.021 137.042 215.962 137.042C216.907 137.042 217.634 137.321 218.142 137.88C218.649 138.435 218.903 139.187 218.903 140.136V140.599H213.501V139.702H217.773V139.673C217.773 139.173 217.63 138.763 217.345 138.442C217.06 138.122 216.603 137.962 215.974 137.962C215.314 137.962 214.814 138.181 214.474 138.618C214.134 139.056 213.964 139.597 213.964 140.241V140.429C213.964 141.073 214.142 141.614 214.497 142.052C214.856 142.489 215.409 142.708 216.155 142.708C216.608 142.708 216.999 142.622 217.327 142.45C217.655 142.274 217.919 142.067 218.118 141.829L218.845 142.427C218.626 142.72 218.286 142.993 217.825 143.247C217.368 143.501 216.812 143.628 216.155 143.628C215.081 143.628 214.259 143.331 213.689 142.737C213.118 142.14 212.833 141.37 212.833 140.429ZM222.067 138.103L221.962 140.587C221.915 141.638 221.77 142.399 221.528 142.872C221.29 143.345 220.878 143.581 220.292 143.581C220.147 143.581 220.02 143.571 219.911 143.552C219.802 143.536 219.71 143.511 219.636 143.476V142.509C219.702 142.536 219.77 142.556 219.841 142.567C219.915 142.579 219.999 142.585 220.093 142.585C220.389 142.585 220.595 142.433 220.708 142.128C220.825 141.819 220.899 141.255 220.93 140.435L221.071 137.218H225.882V143.452H224.757V138.103H222.067ZM229.022 137.218V139.345H230.833C231.61 139.345 232.208 139.528 232.626 139.896C233.047 140.259 233.258 140.755 233.258 141.384C233.258 142.009 233.047 142.511 232.626 142.89C232.208 143.265 231.61 143.452 230.833 143.452H227.897V137.218H229.022ZM230.827 140.235H229.022V142.567H230.827C231.307 142.567 231.643 142.456 231.835 142.233C232.03 142.011 232.128 141.728 232.128 141.384C232.128 141.048 232.03 140.772 231.835 140.558C231.643 140.343 231.307 140.235 230.827 140.235Z" fill="#04101C"/>
</g>
<path d="M157 163.452L157 203.452" stroke="url(#paint2_linear_443_66726)" stroke-width="2"/>
<path d="M169.001 163.453L169.001 166.983C169.001 172.969 174.115 177.068 181.583 177.068L314.419 177.068C321.887 177.068 327.001 181.166 327.001 187.152L327.001 191" stroke="url(#paint3_linear_443_66726)" stroke-width="2"/>
<path d="M251.998 88.4521L256.499 88.4522C265.335 88.4524 272.499 95.6158 272.499 104.452L272.499 134.953C272.499 143.789 279.662 150.953 288.499 150.953L480.999 150.953C489.835 150.953 496.999 158.116 496.999 166.953L496.998 203.453" stroke="url(#paint4_linear_443_66726)" stroke-width="2"/>
<path d="M53.9998 68.9502L53.9995 44.9524C53.9995 36.1157 61.163 28.9522 69.9997 28.9522L141.003 28.9527C149.839 28.9528 157.002 36.1161 157.003 44.9525L157.003 53.4557" stroke="url(#paint5_linear_443_66726)" stroke-width="2"/>
<g filter="url(#filter1_dd_443_66726)">
<rect x="8" y="61.4521" width="68" height="94" rx="12" fill="white"/>
<path d="M52.9647 108.052H50C49.5059 106.252 47.9 105.052 45.9235 105.052C43.5765 105.052 41.6 106.972 41.6 109.252C41.6 111.532 43.5765 113.452 45.9235 113.452C47.9 113.452 49.5059 112.252 50 110.452H52.9647C53.7059 110.452 54.2 109.852 54.2 109.252C54.2 108.532 53.7059 108.052 52.9647 108.052ZM45.9235 111.052C44.9353 111.052 44.0706 110.212 44.0706 109.252C44.0706 108.292 44.9353 107.452 45.9235 107.452C46.9118 107.452 47.7765 108.292 47.7765 109.252C47.7765 110.212 46.9118 111.052 45.9235 111.052Z" fill="url(#paint6_radial_443_66726)"/>
<path d="M39.0085 107.852H30.1915C29.4766 107.852 29 108.552 29 109.252C29 110.092 29.5957 110.652 30.1915 110.652H39.0085C39.7234 110.652 40.2 109.952 40.2 109.252C40.2 108.412 39.6043 107.852 39.0085 107.852Z" fill="url(#paint7_radial_443_66726)"/>
<path d="M30.1915 91.0521H39.0085C39.7234 91.0521 40.2 90.3521 40.2 89.6521C40.2 88.9521 39.6043 88.2521 39.0085 88.2521H30.1915C29.4766 88.2521 29 88.9521 29 89.6521C29 90.3521 29.5957 91.0521 30.1915 91.0521Z" fill="url(#paint8_radial_443_66726)"/>
<path d="M45.9235 93.8521C47.9 93.8521 49.5059 92.6521 50 90.8521H52.9647C53.7059 90.8521 54.2 90.2521 54.2 89.6521C54.2 89.0521 53.5824 88.4521 52.9647 88.4521H50C49.5059 86.6521 47.9 85.4521 45.9235 85.4521C43.5765 85.4521 41.6 87.3721 41.6 89.6521C41.6 91.9321 43.5765 93.8521 45.9235 93.8521ZM45.9235 87.8521C46.9118 87.8521 47.7765 88.6921 47.7765 89.6521C47.7765 90.6121 46.9118 91.4521 45.9235 91.4521C44.9353 91.4521 44.0706 90.6121 44.0706 89.6521C44.0706 88.6921 44.9353 87.8521 45.9235 87.8521Z" fill="url(#paint9_radial_443_66726)"/>
<path d="M30.2353 100.652H33.2C33.6941 102.332 35.3 103.652 37.2765 103.652C39.6235 103.652 41.6 101.732 41.6 99.4521C41.6 97.1721 39.6235 95.2521 37.2765 95.2521C35.3 95.2521 33.6941 96.4521 33.2 98.2521H30.2353C29.4941 98.2521 29 98.8521 29 99.4521C29 100.052 29.6176 100.652 30.2353 100.652ZM37.2765 97.6521C38.2647 97.6521 39.1294 98.4921 39.1294 99.4521C39.1294 100.412 38.2647 101.252 37.2765 101.252C36.2882 101.252 35.4235 100.412 35.4235 99.4521C35.4235 98.4921 36.2882 97.6521 37.2765 97.6521Z" fill="url(#paint10_radial_443_66726)"/>
<path d="M52.9957 98.0521H44.2043C43.4817 98.0521 43 98.7521 43 99.4521C43 100.152 43.6022 100.852 44.2043 100.852H52.9957C53.7183 100.852 54.2 100.152 54.2 99.4521C54.2 98.7521 53.7183 98.0521 52.9957 98.0521Z" fill="url(#paint11_radial_443_66726)"/>
<path d="M28.2717 131.403V130.97C28.2717 129.634 28.6389 128.597 29.3733 127.858C30.1077 127.116 31.0491 126.745 32.1975 126.745C33.3498 126.745 34.2932 127.116 35.0276 127.858C35.762 128.597 36.1291 129.634 36.1291 130.97V131.403C36.1291 132.739 35.762 133.778 35.0276 134.521C34.2932 135.259 33.3498 135.628 32.1975 135.628C31.0491 135.628 30.1077 135.259 29.3733 134.521C28.6389 133.778 28.2717 132.739 28.2717 131.403ZM29.4495 131.403C29.4495 132.419 29.6995 133.212 30.1995 133.782C30.7034 134.349 31.3713 134.632 32.2034 134.632C33.0315 134.632 33.6975 134.349 34.2014 133.782C34.7053 133.212 34.9573 132.419 34.9573 131.403V130.97C34.9573 129.954 34.7053 129.163 34.2014 128.597C33.6975 128.026 33.0315 127.741 32.2034 127.741C31.3713 127.741 30.7034 128.026 30.1995 128.597C29.6995 129.163 29.4495 129.954 29.4495 130.97V131.403ZM38.0742 135.452V126.921H41.1035C42.0957 126.921 42.8633 127.149 43.4062 127.606C43.9492 128.063 44.2207 128.677 44.2207 129.446C44.2207 130.216 43.9492 130.835 43.4062 131.304C42.8633 131.772 42.0957 132.007 41.1035 132.007H39.2402V135.452H38.0742ZM39.2402 131.058H41.1035C41.834 131.058 42.3418 130.903 42.627 130.595C42.9121 130.282 43.0547 129.899 43.0547 129.446C43.0547 128.993 42.9121 128.618 42.627 128.321C42.3418 128.021 41.834 127.87 41.1035 127.87H39.2402V131.058ZM43.3652 135.452L41.127 131.521L42.3223 131.374L44.6953 135.452H43.3652ZM46.2009 135.452V126.921H47.7244L50.4959 133.337C50.5466 133.454 50.5955 133.577 50.6423 133.706C50.6931 133.831 50.738 133.948 50.7771 134.058H50.824C50.8591 133.948 50.9002 133.831 50.947 133.706C50.9939 133.577 51.0427 133.454 51.0935 133.337L53.8474 126.921H55.4002V135.452H54.2752V129.183C54.2752 129.065 54.2771 128.935 54.281 128.79C54.2888 128.642 54.3005 128.509 54.3162 128.392H54.2634C54.2322 128.509 54.1892 128.642 54.1345 128.79C54.0837 128.935 54.033 129.065 53.9822 129.183L51.2986 135.452H50.2615L47.5603 129.183C47.5095 129.065 47.4587 128.935 47.408 128.79C47.3611 128.642 47.324 128.509 47.2966 128.392H47.2439C47.2556 128.509 47.2654 128.642 47.2732 128.79C47.2849 128.935 47.2908 129.065 47.2908 129.183V135.452H46.2009Z" fill="#04101C"/>
</g>
<g filter="url(#filter2_dd_443_66726)">
<rect x="122" y="192" width="123" height="94" rx="12" fill="white"/>
<path d="M178.226 246C177.774 246 177.322 245.854 176.87 245.708C175.665 245.124 175.062 243.955 175.363 242.787L177.171 234.315H174.459C173.254 234.315 172.199 233.585 171.747 232.562C171.295 231.54 171.445 230.371 172.35 229.641L186.664 214.888C187.568 214.012 189.075 213.72 190.13 214.304C191.335 214.888 191.938 216.057 191.637 217.225L189.829 225.697H192.541C193.746 225.697 194.801 226.427 195.253 227.45C195.705 228.472 195.555 229.641 194.65 230.371L180.336 245.124C179.733 245.708 178.98 246 178.226 246ZM178.98 231.247C179.432 231.247 179.884 231.394 180.185 231.832C180.486 232.27 180.637 232.562 180.486 233L178.528 242.933L192.541 228.472H188.171C187.719 228.472 187.267 228.326 186.966 227.888C186.664 227.596 186.514 227.158 186.664 226.719L188.623 216.787L174.61 231.394L178.98 231.247Z" fill="url(#paint12_radial_443_66726)"/>
<path d="M140.016 266L143.508 257.41H144.645L148.137 266H146.907L144.393 259.602C144.326 259.441 144.268 259.289 144.217 259.145C144.17 259 144.127 258.854 144.088 258.705H144.024C143.985 258.854 143.94 259 143.889 259.145C143.842 259.289 143.785 259.441 143.719 259.602L141.188 266H140.016ZM141.487 263.797L141.868 262.836L146.262 262.842L146.637 263.803L141.487 263.797ZM153.428 266L150.727 263.146L151.418 262.414L154.863 266H153.428ZM149.572 262.385H150.803L153.217 259.766H154.547L151.266 263.27H149.572V262.385ZM150.135 259.766V266H149.016V259.766H150.135ZM155.244 260.65V259.766H160.81V260.65H158.59V266H157.465V260.65H155.244ZM161.589 268.438V267.482C161.707 267.514 161.834 267.539 161.97 267.559C162.111 267.578 162.246 267.588 162.375 267.588C162.691 267.588 162.957 267.5 163.171 267.324C163.39 267.148 163.638 266.695 163.916 265.965V265.959L161.32 259.766H162.451L164.115 263.873C164.177 264.029 164.234 264.182 164.285 264.33C164.339 264.479 164.386 264.623 164.425 264.764H164.461C164.5 264.623 164.546 264.479 164.601 264.33C164.656 264.182 164.712 264.029 164.771 263.873L166.359 259.766H167.455L164.595 266.82C164.369 267.367 164.08 267.793 163.728 268.098C163.38 268.402 162.953 268.555 162.445 268.555C162.273 268.555 162.119 268.545 161.982 268.525C161.845 268.506 161.714 268.477 161.589 268.438ZM168.228 264.166C168.228 263.529 168.501 263.035 169.048 262.684C169.599 262.332 170.312 262.156 171.187 262.156H172.857V261.711C172.857 261.336 172.74 261.037 172.505 260.814C172.275 260.592 171.88 260.48 171.322 260.48C170.767 260.48 170.367 260.576 170.12 260.768C169.874 260.955 169.751 261.182 169.751 261.447V261.477H168.626V261.447C168.626 260.936 168.87 260.498 169.359 260.135C169.847 259.771 170.511 259.59 171.351 259.59C172.187 259.59 172.833 259.77 173.29 260.129C173.751 260.484 173.982 261.012 173.982 261.711V264.594C173.982 264.848 174.003 265.088 174.046 265.314C174.089 265.537 174.15 265.734 174.228 265.906V266H173.144C173.081 265.902 173.025 265.773 172.974 265.613C172.923 265.453 172.892 265.295 172.88 265.139C172.716 265.4 172.443 265.629 172.06 265.824C171.677 266.02 171.187 266.117 170.589 266.117C169.917 266.117 169.355 265.949 168.902 265.613C168.452 265.277 168.228 264.795 168.228 264.166ZM169.353 264.107C169.353 264.459 169.474 264.732 169.716 264.928C169.958 265.123 170.337 265.221 170.853 265.221C171.369 265.221 171.831 265.072 172.242 264.775C172.652 264.479 172.857 264.164 172.857 263.832V262.953H171.316C170.675 262.953 170.187 263.057 169.851 263.264C169.519 263.467 169.353 263.748 169.353 264.107ZM177.609 260.65L177.503 263.135C177.456 264.186 177.312 264.947 177.069 265.42C176.831 265.893 176.419 266.129 175.833 266.129C175.689 266.129 175.562 266.119 175.452 266.1C175.343 266.084 175.251 266.059 175.177 266.023V265.057C175.243 265.084 175.312 265.104 175.382 265.115C175.456 265.127 175.54 265.133 175.634 265.133C175.931 265.133 176.136 264.98 176.249 264.676C176.366 264.367 176.441 263.803 176.472 262.982L176.612 259.766H181.423V266H180.298V260.65H177.609ZM183.438 266V259.766H184.552V263.738C184.552 263.855 184.55 263.988 184.546 264.137C184.546 264.285 184.544 264.42 184.54 264.541H184.587C184.641 264.436 184.702 264.324 184.768 264.207C184.835 264.09 184.911 263.973 184.997 263.855L187.932 259.766H189.063V266H187.944V262.033C187.944 261.912 187.946 261.777 187.95 261.629C187.954 261.477 187.96 261.34 187.968 261.219H187.903C187.852 261.32 187.794 261.432 187.727 261.553C187.661 261.674 187.587 261.793 187.505 261.91L184.569 266H183.438ZM193.575 266.176C192.567 266.176 191.823 265.963 191.342 265.537C190.866 265.111 190.628 264.607 190.628 264.025V263.996H191.717V264.025C191.717 264.35 191.852 264.635 192.122 264.881C192.395 265.127 192.876 265.25 193.563 265.25C194.153 265.25 194.596 265.154 194.893 264.963C195.19 264.771 195.339 264.508 195.339 264.172C195.339 263.887 195.227 263.666 195.005 263.51C194.786 263.35 194.438 263.27 193.962 263.27H192.579V262.391H193.856C194.298 262.391 194.622 262.311 194.829 262.15C195.036 261.99 195.139 261.77 195.139 261.488C195.139 261.172 195.014 260.93 194.764 260.762C194.518 260.594 194.147 260.51 193.651 260.51C193.026 260.51 192.569 260.629 192.28 260.867C191.991 261.105 191.846 261.396 191.846 261.74V261.77H190.756V261.74C190.756 261.123 191.003 260.611 191.495 260.205C191.987 259.795 192.704 259.59 193.645 259.59C194.501 259.59 195.153 259.75 195.602 260.07C196.051 260.391 196.276 260.832 196.276 261.395C196.276 261.734 196.163 262.029 195.936 262.279C195.714 262.525 195.409 262.691 195.022 262.777V262.795C195.471 262.857 195.825 263.01 196.083 263.252C196.344 263.49 196.475 263.805 196.475 264.195C196.475 264.812 196.212 265.297 195.684 265.648C195.157 266 194.454 266.176 193.575 266.176ZM197.829 264.166C197.829 263.529 198.102 263.035 198.649 262.684C199.2 262.332 199.912 262.156 200.787 262.156H202.457V261.711C202.457 261.336 202.34 261.037 202.106 260.814C201.875 260.592 201.481 260.48 200.922 260.48C200.368 260.48 199.967 260.576 199.721 260.768C199.475 260.955 199.352 261.182 199.352 261.447V261.477H198.227V261.447C198.227 260.936 198.471 260.498 198.959 260.135C199.448 259.771 200.112 259.59 200.952 259.59C201.787 259.59 202.434 259.77 202.891 260.129C203.352 260.484 203.582 261.012 203.582 261.711V264.594C203.582 264.848 203.604 265.088 203.647 265.314C203.69 265.537 203.75 265.734 203.829 265.906V266H202.745C202.682 265.902 202.625 265.773 202.575 265.613C202.524 265.453 202.493 265.295 202.481 265.139C202.317 265.4 202.043 265.629 201.661 265.824C201.278 266.02 200.787 266.117 200.19 266.117C199.518 266.117 198.955 265.949 198.502 265.613C198.053 265.277 197.829 264.795 197.829 264.166ZM198.954 264.107C198.954 264.459 199.075 264.732 199.317 264.928C199.559 265.123 199.938 265.221 200.454 265.221C200.969 265.221 201.432 265.072 201.842 264.775C202.252 264.479 202.457 264.164 202.457 263.832V262.953H200.916C200.276 262.953 199.787 263.057 199.452 263.264C199.12 263.467 198.954 263.748 198.954 264.107ZM210.959 267.582V266H205.58V259.766H206.705V265.115H209.928V259.766H211.053V265.115H211.99V267.582H210.959ZM213.25 266V259.766H214.363V263.738C214.363 263.855 214.361 263.988 214.357 264.137C214.357 264.285 214.355 264.42 214.351 264.541H214.398C214.453 264.436 214.514 264.324 214.58 264.207C214.646 264.09 214.723 263.973 214.809 263.855L217.744 259.766H218.875V266H217.756V262.033C217.756 261.912 217.758 261.777 217.762 261.629C217.766 261.477 217.771 261.34 217.779 261.219H217.715C217.664 261.32 217.605 261.432 217.539 261.553C217.473 261.674 217.398 261.793 217.316 261.91L214.381 266H213.25ZM221.728 266H220.48L222.484 263.34L223.615 263.439L221.728 266ZM224.968 266V263.75H223.211L223.082 263.68C222.316 263.68 221.728 263.508 221.318 263.164C220.908 262.816 220.703 262.35 220.703 261.764C220.703 261.158 220.91 260.674 221.324 260.311C221.738 259.947 222.332 259.766 223.105 259.766H226.099V266H224.968ZM223.111 262.859H224.968V260.65H223.111C222.642 260.65 222.312 260.756 222.121 260.967C221.933 261.178 221.84 261.443 221.84 261.764C221.84 262.088 221.933 262.352 222.121 262.555C222.308 262.758 222.638 262.859 223.111 262.859Z" fill="#04101C"/>
</g>
<g filter="url(#filter3_dd_443_66726)">
<rect x="449" y="192" width="96" height="110" rx="12" fill="white"/>
<path d="M503.45 217C500.9 217 498.65 218.052 497 220.006C495.35 218.052 493.1 217 490.55 217C485.9 217 482 220.908 482 225.566C482 225.867 482 226.168 482 226.468C482.6 233.532 490.1 239.393 494.45 242.249C495.2 242.699 496.1 243 497 243C497.9 243 498.8 242.699 499.55 242.249C503.9 239.393 511.4 233.532 512 226.618C512 226.318 512 226.017 512 225.717C512 220.908 508.1 217 503.45 217ZM509 226.168C508.55 232.179 501.05 237.59 497.9 239.543C497.3 239.844 496.7 239.844 496.1 239.543C492.95 237.439 485.6 232.029 485 226.017C485 226.017 485 225.717 485 225.566C485 222.561 487.55 220.006 490.55 220.006C492.8 220.006 494.75 221.358 495.65 223.312C495.8 223.913 496.4 224.214 497 224.214C497.6 224.214 498.2 223.913 498.35 223.312C499.25 221.358 501.2 220.006 503.45 220.006C506.45 220.006 509 222.561 509 225.566C509 225.717 509 226.017 509 226.168Z" fill="url(#paint13_radial_443_66726)"/>
<path d="M468.211 265.004C468.312 265.035 468.426 265.061 468.551 265.08C468.68 265.1 468.812 265.109 468.949 265.109C469.328 265.109 469.627 265.014 469.846 264.822C470.068 264.631 470.299 264.301 470.537 263.832L467.244 257.469H468.568L470.736 261.805C470.826 261.98 470.896 262.125 470.947 262.238C470.998 262.352 471.053 262.477 471.111 262.613H471.152C471.211 262.477 471.264 262.352 471.31 262.238C471.357 262.125 471.422 261.98 471.504 261.805L473.508 257.469H474.709L471.709 263.773C471.295 264.648 470.9 265.266 470.525 265.625C470.154 265.98 469.662 266.158 469.049 266.158C468.83 266.158 468.662 266.148 468.545 266.129C468.428 266.109 468.316 266.08 468.211 266.041V265.004ZM481.142 267.582V266H476.121V267.582H475.089V265.115H482.179V267.582H481.142ZM477.339 260.65L477.246 262.766C477.214 263.484 477.17 264.014 477.111 264.354C477.056 264.689 476.974 264.975 476.865 265.209H475.699C475.839 265.021 475.951 264.752 476.033 264.4C476.119 264.045 476.179 263.453 476.214 262.625L476.343 259.766H481.242V266H480.111V260.65H477.339ZM483.087 264.166C483.087 263.529 483.361 263.035 483.908 262.684C484.458 262.332 485.171 262.156 486.046 262.156H487.716V261.711C487.716 261.336 487.599 261.037 487.365 260.814C487.134 260.592 486.74 260.48 486.181 260.48C485.626 260.48 485.226 260.576 484.98 260.768C484.734 260.955 484.611 261.182 484.611 261.447V261.477H483.486V261.447C483.486 260.936 483.73 260.498 484.218 260.135C484.706 259.771 485.37 259.59 486.21 259.59C487.046 259.59 487.693 259.77 488.15 260.129C488.611 260.484 488.841 261.012 488.841 261.711V264.594C488.841 264.848 488.863 265.088 488.906 265.314C488.949 265.537 489.009 265.734 489.087 265.906V266H488.003C487.941 265.902 487.884 265.773 487.833 265.613C487.783 265.453 487.751 265.295 487.74 265.139C487.576 265.4 487.302 265.629 486.919 265.824C486.536 266.02 486.046 266.117 485.449 266.117C484.777 266.117 484.214 265.949 483.761 265.613C483.312 265.277 483.087 264.795 483.087 264.166ZM484.212 264.107C484.212 264.459 484.333 264.732 484.576 264.928C484.818 265.123 485.197 265.221 485.712 265.221C486.228 265.221 486.691 265.072 487.101 264.775C487.511 264.479 487.716 264.164 487.716 263.832V262.953H486.175C485.535 262.953 485.046 263.057 484.71 263.264C484.378 263.467 484.212 263.748 484.212 264.107ZM492.468 260.65L492.362 263.135C492.316 264.186 492.171 264.947 491.929 265.42C491.691 265.893 491.278 266.129 490.692 266.129C490.548 266.129 490.421 266.119 490.312 266.1C490.202 266.084 490.11 266.059 490.036 266.023V265.057C490.103 265.084 490.171 265.104 490.241 265.115C490.316 265.127 490.4 265.133 490.493 265.133C490.79 265.133 490.995 264.98 491.109 264.676C491.226 264.367 491.3 263.803 491.331 262.982L491.472 259.766H496.282V266H495.157V260.65H492.468ZM497.929 262.977V262.789C497.929 261.848 498.214 261.08 498.784 260.486C499.358 259.889 500.116 259.59 501.057 259.59C502.003 259.59 502.729 259.869 503.237 260.428C503.745 260.982 503.999 261.734 503.999 262.684V263.146H498.597V262.25H502.868V262.221C502.868 261.721 502.725 261.311 502.44 260.99C502.155 260.67 501.698 260.51 501.069 260.51C500.409 260.51 499.909 260.729 499.569 261.166C499.229 261.604 499.059 262.145 499.059 262.789V262.977C499.059 263.621 499.237 264.162 499.593 264.6C499.952 265.037 500.505 265.256 501.251 265.256C501.704 265.256 502.095 265.17 502.423 264.998C502.751 264.822 503.015 264.615 503.214 264.377L503.94 264.975C503.722 265.268 503.382 265.541 502.921 265.795C502.464 266.049 501.907 266.176 501.251 266.176C500.177 266.176 499.354 265.879 498.784 265.285C498.214 264.688 497.929 263.918 497.929 262.977ZM505.534 259.766H506.659V262.379H509.964V259.766H511.089V266H509.964V263.27H506.659V266H505.534V259.766ZM513.098 266V259.766H514.211V263.738C514.211 263.855 514.209 263.988 514.205 264.137C514.205 264.285 514.204 264.42 514.2 264.541H514.246C514.301 264.436 514.362 264.324 514.428 264.207C514.495 264.09 514.571 263.973 514.657 263.855L517.592 259.766H518.723V266H517.604V262.033C517.604 261.912 517.606 261.777 517.61 261.629C517.614 261.477 517.62 261.34 517.627 261.219H517.563C517.512 261.32 517.454 261.432 517.387 261.553C517.321 261.674 517.246 261.793 517.164 261.91L514.229 266H513.098ZM520.363 262.977V262.789C520.363 261.848 520.649 261.08 521.219 260.486C521.793 259.889 522.551 259.59 523.492 259.59C524.438 259.59 525.164 259.869 525.672 260.428C526.18 260.982 526.434 261.734 526.434 262.684V263.146H521.031V262.25H525.303V262.221C525.303 261.721 525.16 261.311 524.875 260.99C524.59 260.67 524.133 260.51 523.504 260.51C522.844 260.51 522.344 260.729 522.004 261.166C521.664 261.604 521.494 262.145 521.494 262.789V262.977C521.494 263.621 521.672 264.162 522.028 264.6C522.387 265.037 522.94 265.256 523.686 265.256C524.139 265.256 524.529 265.17 524.858 264.998C525.186 264.822 525.449 264.615 525.649 264.377L526.375 264.975C526.156 265.268 525.817 265.541 525.356 265.795C524.899 266.049 524.342 266.176 523.686 266.176C522.611 266.176 521.789 265.879 521.219 265.285C520.649 264.688 520.363 263.918 520.363 262.977ZM469.722 275.766H470.847V278.379H474.152V275.766H475.277V282H474.152V279.27H470.847V282H469.722V275.766ZM476.918 278.977V278.789C476.918 277.848 477.203 277.08 477.773 276.486C478.347 275.889 479.105 275.59 480.046 275.59C480.992 275.59 481.718 275.869 482.226 276.428C482.734 276.982 482.988 277.734 482.988 278.684V279.146H477.586V278.25H481.857V278.221C481.857 277.721 481.714 277.311 481.429 276.99C481.144 276.67 480.687 276.51 480.058 276.51C479.398 276.51 478.898 276.729 478.558 277.166C478.218 277.604 478.048 278.145 478.048 278.789V278.977C478.048 279.621 478.226 280.162 478.582 280.6C478.941 281.037 479.494 281.256 480.24 281.256C480.693 281.256 481.084 281.17 481.412 280.998C481.74 280.822 482.004 280.615 482.203 280.377L482.929 280.975C482.711 281.268 482.371 281.541 481.91 281.795C481.453 282.049 480.896 282.176 480.24 282.176C479.166 282.176 478.343 281.879 477.773 281.285C477.203 280.688 476.918 279.918 476.918 278.977ZM484.523 275.766H488.999V276.65H485.648V282H484.523V275.766ZM489.978 280.166C489.978 279.529 490.251 279.035 490.798 278.684C491.349 278.332 492.062 278.156 492.937 278.156H494.607V277.711C494.607 277.336 494.489 277.037 494.255 276.814C494.025 276.592 493.63 276.48 493.071 276.48C492.517 276.48 492.116 276.576 491.87 276.768C491.624 276.955 491.501 277.182 491.501 277.447V277.477H490.376V277.447C490.376 276.936 490.62 276.498 491.109 276.135C491.597 275.771 492.261 275.59 493.101 275.59C493.937 275.59 494.583 275.77 495.04 276.129C495.501 276.484 495.732 277.012 495.732 277.711V280.594C495.732 280.848 495.753 281.088 495.796 281.314C495.839 281.537 495.9 281.734 495.978 281.906V282H494.894C494.831 281.902 494.775 281.773 494.724 281.613C494.673 281.453 494.642 281.295 494.63 281.139C494.466 281.4 494.192 281.629 493.81 281.824C493.427 282.02 492.937 282.117 492.339 282.117C491.667 282.117 491.105 281.949 490.651 281.613C490.202 281.277 489.978 280.795 489.978 280.166ZM491.103 280.107C491.103 280.459 491.224 280.732 491.466 280.928C491.708 281.123 492.087 281.221 492.603 281.221C493.118 281.221 493.581 281.072 493.991 280.775C494.401 280.479 494.607 280.164 494.607 279.832V278.953H493.066C492.425 278.953 491.937 279.057 491.601 279.264C491.269 279.467 491.103 279.748 491.103 280.107ZM497.038 276.65V275.766H502.604V276.65H500.384V282H499.259V276.65H497.038ZM503.934 282V275.766H505.048V279.738C505.048 279.855 505.046 279.988 505.042 280.137C505.042 280.285 505.04 280.42 505.036 280.541H505.083C505.137 280.436 505.198 280.324 505.264 280.207C505.331 280.09 505.407 279.973 505.493 279.855L508.428 275.766H509.559V282H508.44V278.033C508.44 277.912 508.442 277.777 508.446 277.629C508.45 277.477 508.456 277.34 508.464 277.219H508.399C508.348 277.32 508.29 277.432 508.223 277.553C508.157 277.674 508.083 277.793 508.001 277.91L505.065 282H503.934ZM511.569 282V275.766H514.692C515.403 275.766 515.957 275.904 516.356 276.182C516.758 276.455 516.959 276.871 516.959 277.43C516.959 277.777 516.856 278.068 516.649 278.303C516.442 278.537 516.164 278.695 515.817 278.777V278.795C516.239 278.857 516.571 279.012 516.813 279.258C517.055 279.5 517.176 279.811 517.176 280.189C517.176 280.76 516.965 281.205 516.543 281.525C516.121 281.842 515.563 282 514.868 282H511.569ZM512.694 278.391H514.692C515.094 278.391 515.383 278.311 515.559 278.15C515.735 277.99 515.823 277.77 515.823 277.488C515.823 277.215 515.735 277.008 515.559 276.867C515.383 276.727 515.094 276.654 514.692 276.65H512.694V278.391ZM512.694 281.115H514.868C515.274 281.115 515.571 281.031 515.758 280.863C515.95 280.695 516.045 280.469 516.045 280.184C516.045 279.906 515.952 279.686 515.764 279.521C515.577 279.354 515.278 279.27 514.868 279.27H512.694V281.115ZM518.535 280.166C518.535 279.529 518.809 279.035 519.356 278.684C519.906 278.332 520.619 278.156 521.494 278.156H523.164V277.711C523.164 277.336 523.047 277.037 522.813 276.814C522.582 276.592 522.188 276.48 521.629 276.48C521.074 276.48 520.674 276.576 520.428 276.768C520.182 276.955 520.059 277.182 520.059 277.447V277.477H518.934V277.447C518.934 276.936 519.178 276.498 519.666 276.135C520.154 275.771 520.819 275.59 521.658 275.59C522.494 275.59 523.141 275.77 523.598 276.129C524.059 276.484 524.289 277.012 524.289 277.711V280.594C524.289 280.848 524.311 281.088 524.354 281.314C524.397 281.537 524.457 281.734 524.535 281.906V282H523.451C523.389 281.902 523.332 281.773 523.281 281.613C523.231 281.453 523.199 281.295 523.188 281.139C523.024 281.4 522.75 281.629 522.367 281.824C521.985 282.02 521.494 282.117 520.897 282.117C520.225 282.117 519.662 281.949 519.209 281.613C518.76 281.277 518.535 280.795 518.535 280.166ZM519.66 280.107C519.66 280.459 519.781 280.732 520.024 280.928C520.266 281.123 520.645 281.221 521.16 281.221C521.676 281.221 522.139 281.072 522.549 280.775C522.959 280.479 523.164 280.164 523.164 279.832V278.953H521.623C520.983 278.953 520.494 279.057 520.158 279.264C519.826 279.467 519.66 279.748 519.66 280.107Z" fill="#04101C"/>
</g>
<g filter="url(#filter4_dd_443_66726)">
<rect x="285" y="192" width="124" height="110" rx="12" fill="white"/>
<path d="M340.665 244C339.966 244 339.266 243.72 338.567 243.3C337.448 242.46 336.748 241.06 337.028 239.66L337.867 234.2L334.09 230.28C333.111 229.3 332.691 227.76 333.251 226.36C333.67 224.96 334.79 224.12 336.189 223.84L341.505 223L343.883 218.1C344.443 216.84 345.702 216 347.101 216C348.5 216 349.759 216.84 350.458 218.1L352.697 223L357.873 223.84C359.272 223.98 360.391 224.96 360.811 226.36C361.231 227.76 360.951 229.16 359.972 230.28L356.194 234.2L357.034 239.66C357.314 241.06 356.754 242.6 355.495 243.3C354.376 244.14 352.977 244.14 351.718 243.58L347.101 240.92L342.484 243.44C341.925 243.86 341.365 244 340.665 244ZM347.101 218.8C346.961 218.8 346.541 218.8 346.401 219.36L343.743 224.96C343.463 225.38 343.044 225.66 342.624 225.66L336.608 226.64C336.189 226.64 336.049 227.06 335.909 227.2C335.909 227.34 335.769 227.76 336.189 228.18L340.525 232.52C340.805 232.8 340.945 233.22 340.945 233.78L339.966 239.94C339.826 240.5 340.246 240.78 340.386 240.92C340.525 241.06 340.805 241.2 341.225 240.92L346.541 237.98C346.961 237.7 347.521 237.7 347.94 237.98L353.256 240.92C353.676 241.06 353.956 240.92 354.096 240.92C354.236 240.78 354.516 240.5 354.516 239.94L353.536 233.78C353.396 233.36 353.536 232.94 353.956 232.52L358.293 228.18C358.433 227.9 358.293 227.34 358.293 227.2C358.293 227.06 358.013 226.64 357.593 226.64L351.578 225.8C351.158 225.8 350.738 225.38 350.458 224.96L347.8 219.36C347.66 218.8 347.241 218.8 347.101 218.8Z" fill="url(#paint14_radial_443_66726)"/>
<path d="M304.058 261.951V261.518C304.058 260.182 304.425 259.145 305.159 258.406C305.894 257.664 306.835 257.293 307.984 257.293C309.136 257.293 310.079 257.664 310.814 258.406C311.548 259.145 311.915 260.182 311.915 261.518V261.951C311.915 263.287 311.548 264.326 310.814 265.068C310.079 265.807 309.136 266.176 307.984 266.176C306.835 266.176 305.894 265.807 305.159 265.068C304.425 264.326 304.058 263.287 304.058 261.951ZM305.236 261.951C305.236 262.967 305.486 263.76 305.986 264.33C306.489 264.896 307.157 265.18 307.989 265.18C308.818 265.18 309.484 264.896 309.987 264.33C310.491 263.76 310.743 262.967 310.743 261.951V261.518C310.743 260.502 310.491 259.711 309.987 259.145C309.484 258.574 308.818 258.289 307.989 258.289C307.157 258.289 306.489 258.574 305.986 259.145C305.486 259.711 305.236 260.502 305.236 261.518V261.951ZM314.265 262.977C314.265 263.629 314.448 264.16 314.815 264.57C315.186 264.98 315.796 265.207 316.644 265.25V260.516C315.796 260.559 315.186 260.785 314.815 261.195C314.448 261.605 314.265 262.137 314.265 262.789V262.977ZM320.153 262.789C320.153 262.137 319.968 261.605 319.597 261.195C319.229 260.785 318.62 260.559 317.769 260.516V265.25C318.62 265.207 319.229 264.98 319.597 264.57C319.968 264.16 320.153 263.629 320.153 262.977V262.789ZM316.644 266.176C315.519 266.137 314.649 265.834 314.036 265.268C313.423 264.697 313.116 263.934 313.116 262.977V262.789C313.116 261.832 313.423 261.07 314.036 260.504C314.649 259.934 315.519 259.629 316.644 259.59V257H317.769V259.59C318.897 259.629 319.769 259.934 320.382 260.504C320.995 261.07 321.302 261.832 321.302 262.789V262.977C321.302 263.934 320.995 264.697 320.382 265.268C319.769 265.834 318.897 266.137 317.769 266.176V268.438H316.644V266.176ZM322.948 266V259.766H324.061V263.738C324.061 263.855 324.059 263.988 324.055 264.137C324.055 264.285 324.053 264.42 324.05 264.541H324.096C324.151 264.436 324.212 264.324 324.278 264.207C324.344 264.09 324.421 263.973 324.507 263.855L327.442 259.766H328.573V266H327.454V262.033C327.454 261.912 327.456 261.777 327.46 261.629C327.464 261.477 327.469 261.34 327.477 261.219H327.413C327.362 261.32 327.303 261.432 327.237 261.553C327.171 261.674 327.096 261.793 327.014 261.91L324.079 266H322.948ZM335.961 267.582V266H330.582V259.766H331.707V265.115H334.93V259.766H336.055V265.115H336.993V267.582H335.961ZM338.252 266V259.766H339.365V263.738C339.365 263.855 339.364 263.988 339.36 264.137C339.36 264.285 339.358 264.42 339.354 264.541H339.401C339.455 264.436 339.516 264.324 339.582 264.207C339.649 264.09 339.725 263.973 339.811 263.855L342.746 259.766H343.877V266H342.758V262.033C342.758 261.912 342.76 261.777 342.764 261.629C342.768 261.477 342.774 261.34 342.781 261.219H342.717C342.666 261.32 342.608 261.432 342.541 261.553C342.475 261.674 342.401 261.793 342.319 261.91L339.383 266H338.252ZM345.535 264.166C345.535 263.529 345.809 263.035 346.355 262.684C346.906 262.332 347.619 262.156 348.494 262.156H350.164V261.711C350.164 261.336 350.047 261.037 349.812 260.814C349.582 260.592 349.188 260.48 348.629 260.48C348.074 260.48 347.674 260.576 347.428 260.768C347.182 260.955 347.059 261.182 347.059 261.447V261.477H345.934V261.447C345.934 260.936 346.178 260.498 346.666 260.135C347.154 259.771 347.818 259.59 348.658 259.59C349.494 259.59 350.141 259.77 350.598 260.129C351.059 260.484 351.289 261.012 351.289 261.711V264.594C351.289 264.848 351.311 265.088 351.354 265.314C351.396 265.537 351.457 265.734 351.535 265.906V266H350.451C350.389 265.902 350.332 265.773 350.281 265.613C350.23 265.453 350.199 265.295 350.188 265.139C350.023 265.4 349.75 265.629 349.367 265.824C348.984 266.02 348.494 266.117 347.896 266.117C347.225 266.117 346.662 265.949 346.209 265.613C345.76 265.277 345.535 264.795 345.535 264.166ZM346.66 264.107C346.66 264.459 346.781 264.732 347.023 264.928C347.266 265.123 347.645 265.221 348.16 265.221C348.676 265.221 349.139 265.072 349.549 264.775C349.959 264.479 350.164 264.164 350.164 263.832V262.953H348.623C347.982 262.953 347.494 263.057 347.158 263.264C346.826 263.467 346.66 263.748 346.66 264.107ZM354.916 260.65L354.81 263.135C354.763 264.186 354.619 264.947 354.377 265.42C354.138 265.893 353.726 266.129 353.14 266.129C352.996 266.129 352.869 266.119 352.76 266.1C352.65 266.084 352.558 266.059 352.484 266.023V265.057C352.551 265.084 352.619 265.104 352.689 265.115C352.763 265.127 352.847 265.133 352.941 265.133C353.238 265.133 353.443 264.98 353.556 264.676C353.674 264.367 353.748 263.803 353.779 262.982L353.92 259.766H358.73V266H357.605V260.65H354.916ZM361.871 259.766V261.893H363.681C364.459 261.893 365.056 262.076 365.474 262.443C365.896 262.807 366.107 263.303 366.107 263.932C366.107 264.557 365.896 265.059 365.474 265.438C365.056 265.812 364.459 266 363.681 266H360.746V259.766H361.871ZM363.675 262.783H361.871V265.115H363.675C364.156 265.115 364.492 265.004 364.683 264.781C364.878 264.559 364.976 264.275 364.976 263.932C364.976 263.596 364.878 263.32 364.683 263.105C364.492 262.891 364.156 262.783 363.675 262.783ZM367.607 259.766H368.732V262.379H372.036V259.766H373.161V266H372.036V263.27H368.732V266H367.607V259.766ZM376.296 259.766V261.893H378.106C378.884 261.893 379.481 262.076 379.899 262.443C380.321 262.807 380.532 263.303 380.532 263.932C380.532 264.557 380.321 265.059 379.899 265.438C379.481 265.812 378.884 266 378.106 266H375.171V259.766H376.296ZM378.101 262.783H376.296V265.115H378.101C378.581 265.115 378.917 265.004 379.108 264.781C379.304 264.559 379.401 264.275 379.401 263.932C379.401 263.596 379.304 263.32 379.108 263.105C378.917 262.891 378.581 262.783 378.101 262.783ZM381.382 266V259.766H382.507V266H381.382ZM384.147 262.977V262.789C384.147 261.848 384.432 261.08 385.003 260.486C385.577 259.889 386.335 259.59 387.276 259.59C388.221 259.59 388.948 259.869 389.456 260.428C389.964 260.982 390.218 261.734 390.218 262.684V263.146H384.815V262.25H389.087V262.221C389.087 261.721 388.944 261.311 388.659 260.99C388.374 260.67 387.917 260.51 387.288 260.51C386.628 260.51 386.128 260.729 385.788 261.166C385.448 261.604 385.278 262.145 385.278 262.789V262.977C385.278 263.621 385.456 264.162 385.811 264.6C386.171 265.037 386.723 265.256 387.47 265.256C387.923 265.256 388.313 265.17 388.641 264.998C388.97 264.822 389.233 264.615 389.432 264.377L390.159 264.975C389.94 265.268 389.6 265.541 389.139 265.795C388.682 266.049 388.126 266.176 387.47 266.176C386.395 266.176 385.573 265.879 385.003 265.285C384.432 264.688 384.147 263.918 384.147 262.977ZM325.582 278.977V278.789C325.582 277.848 325.877 277.08 326.466 276.486C327.06 275.889 327.853 275.59 328.845 275.59C329.834 275.59 330.625 275.889 331.218 276.486C331.812 277.08 332.109 277.848 332.109 278.789V278.977C332.109 279.918 331.812 280.688 331.218 281.285C330.625 281.879 329.834 282.176 328.845 282.176C327.853 282.176 327.06 281.879 326.466 281.285C325.877 280.688 325.582 279.918 325.582 278.977ZM326.73 278.789V278.977C326.73 279.617 326.908 280.156 327.263 280.594C327.619 281.031 328.146 281.25 328.845 281.25C329.545 281.25 330.07 281.031 330.421 280.594C330.777 280.156 330.955 279.617 330.955 278.977V278.789C330.955 278.145 330.777 277.605 330.421 277.172C330.07 276.734 329.545 276.516 328.845 276.516C328.146 276.516 327.619 276.734 327.263 277.172C326.908 277.605 326.73 278.145 326.73 278.789ZM333.058 276.65V275.766H338.624V276.65H336.404V282H335.279V276.65H333.058ZM339.954 282V275.766H343.077C343.788 275.766 344.343 275.904 344.741 276.182C345.144 276.455 345.345 276.871 345.345 277.43C345.345 277.777 345.241 278.068 345.034 278.303C344.827 278.537 344.55 278.695 344.202 278.777V278.795C344.624 278.857 344.956 279.012 345.198 279.258C345.441 279.5 345.562 279.811 345.562 280.189C345.562 280.76 345.351 281.205 344.929 281.525C344.507 281.842 343.948 282 343.253 282H339.954ZM341.079 278.391H343.077C343.48 278.391 343.769 278.311 343.944 278.15C344.12 277.99 344.208 277.77 344.208 277.488C344.208 277.215 344.12 277.008 343.944 276.867C343.769 276.727 343.48 276.654 343.077 276.65H341.079V278.391ZM341.079 281.115H343.253C343.659 281.115 343.956 281.031 344.144 280.863C344.335 280.695 344.431 280.469 344.431 280.184C344.431 279.906 344.337 279.686 344.15 279.521C343.962 279.354 343.663 279.27 343.253 279.27H341.079V281.115ZM346.903 278.977V278.789C346.903 277.848 347.188 277.08 347.759 276.486C348.333 275.889 349.091 275.59 350.032 275.59C350.977 275.59 351.704 275.869 352.212 276.428C352.72 276.982 352.974 277.734 352.974 278.684V279.146H347.571V278.25H351.843V278.221C351.843 277.721 351.7 277.311 351.415 276.99C351.13 276.67 350.673 276.51 350.044 276.51C349.384 276.51 348.884 276.729 348.544 277.166C348.204 277.604 348.034 278.145 348.034 278.789V278.977C348.034 279.621 348.212 280.162 348.567 280.6C348.927 281.037 349.479 281.256 350.225 281.256C350.679 281.256 351.069 281.17 351.397 280.998C351.725 280.822 351.989 280.615 352.188 280.377L352.915 280.975C352.696 281.268 352.356 281.541 351.895 281.795C351.438 282.049 350.882 282.176 350.225 282.176C349.151 282.176 348.329 281.879 347.759 281.285C347.188 280.688 346.903 279.918 346.903 278.977ZM353.817 276.65V275.766H359.383V276.65H357.163V282H356.038V276.65H353.817ZM361.838 275.766V277.893H363.649C364.426 277.893 365.024 278.076 365.442 278.443C365.864 278.807 366.075 279.303 366.075 279.932C366.075 280.557 365.864 281.059 365.442 281.438C365.024 281.812 364.426 282 363.649 282H360.713V275.766H361.838ZM363.643 278.783H361.838V281.115H363.643C364.123 281.115 364.459 281.004 364.651 280.781C364.846 280.559 364.944 280.275 364.944 279.932C364.944 279.596 364.846 279.32 364.651 279.105C364.459 278.891 364.123 278.783 363.643 278.783ZM366.924 282V275.766H368.049V282H366.924Z" fill="#04101C"/>
</g>
<defs>
<filter id="filter0_dd_443_66726" x="114" y="48.9521" width="146" height="126.5" filterUnits="userSpaceOnUse" color-interpolation-filters="sRGB">
<feFlood flood-opacity="0" result="BackgroundImageFix"/>
<feColorMatrix in="SourceAlpha" type="matrix" values="0 0 0 0 0 0 0 0 0 0 0 0 0 0 0 0 0 0 127 0" result="hardAlpha"/>
<feOffset dy="4"/>
<feGaussianBlur stdDeviation="4"/>
<feComposite in2="hardAlpha" operator="out"/>
<feColorMatrix type="matrix" values="0 0 0 0 0 0 0 0 0 0 0 0 0 0 0 0 0 0 0.08 0"/>
<feBlend mode="normal" in2="BackgroundImageFix" result="effect1_dropShadow_443_66726"/>
<feColorMatrix in="SourceAlpha" type="matrix" values="0 0 0 0 0 0 0 0 0 0 0 0 0 0 0 0 0 0 127 0" result="hardAlpha"/>
<feOffset dy="-0.5"/>
<feGaussianBlur stdDeviation="2"/>
<feComposite in2="hardAlpha" operator="out"/>
<feColorMatrix type="matrix" values="0 0 0 0 0 0 0 0 0 0 0 0 0 0 0 0 0 0 0.05 0"/>
<feBlend mode="normal" in2="effect1_dropShadow_443_66726" result="effect2_dropShadow_443_66726"/>
<feBlend mode="normal" in="SourceGraphic" in2="effect2_dropShadow_443_66726" result="shape"/>
</filter>
<filter id="filter1_dd_443_66726" x="0" y="56.9521" width="84" height="110.5" filterUnits="userSpaceOnUse" color-interpolation-filters="sRGB">
<feFlood flood-opacity="0" result="BackgroundImageFix"/>
<feColorMatrix in="SourceAlpha" type="matrix" values="0 0 0 0 0 0 0 0 0 0 0 0 0 0 0 0 0 0 127 0" result="hardAlpha"/>
<feOffset dy="4"/>
<feGaussianBlur stdDeviation="4"/>
<feComposite in2="hardAlpha" operator="out"/>
<feColorMatrix type="matrix" values="0 0 0 0 0 0 0 0 0 0 0 0 0 0 0 0 0 0 0.08 0"/>
<feBlend mode="normal" in2="BackgroundImageFix" result="effect1_dropShadow_443_66726"/>
<feColorMatrix in="SourceAlpha" type="matrix" values="0 0 0 0 0 0 0 0 0 0 0 0 0 0 0 0 0 0 127 0" result="hardAlpha"/>
<feOffset dy="-0.5"/>
<feGaussianBlur stdDeviation="2"/>
<feComposite in2="hardAlpha" operator="out"/>
<feColorMatrix type="matrix" values="0 0 0 0 0 0 0 0 0 0 0 0 0 0 0 0 0 0 0.05 0"/>
<feBlend mode="normal" in2="effect1_dropShadow_443_66726" result="effect2_dropShadow_443_66726"/>
<feBlend mode="normal" in="SourceGraphic" in2="effect2_dropShadow_443_66726" result="shape"/>
</filter>
<filter id="filter2_dd_443_66726" x="114" y="187.5" width="139" height="110.5" filterUnits="userSpaceOnUse" color-interpolation-filters="sRGB">
<feFlood flood-opacity="0" result="BackgroundImageFix"/>
<feColorMatrix in="SourceAlpha" type="matrix" values="0 0 0 0 0 0 0 0 0 0 0 0 0 0 0 0 0 0 127 0" result="hardAlpha"/>
<feOffset dy="4"/>
<feGaussianBlur stdDeviation="4"/>
<feComposite in2="hardAlpha" operator="out"/>
<feColorMatrix type="matrix" values="0 0 0 0 0 0 0 0 0 0 0 0 0 0 0 0 0 0 0.08 0"/>
<feBlend mode="normal" in2="BackgroundImageFix" result="effect1_dropShadow_443_66726"/>
<feColorMatrix in="SourceAlpha" type="matrix" values="0 0 0 0 0 0 0 0 0 0 0 0 0 0 0 0 0 0 127 0" result="hardAlpha"/>
<feOffset dy="-0.5"/>
<feGaussianBlur stdDeviation="2"/>
<feComposite in2="hardAlpha" operator="out"/>
<feColorMatrix type="matrix" values="0 0 0 0 0 0 0 0 0 0 0 0 0 0 0 0 0 0 0.05 0"/>
<feBlend mode="normal" in2="effect1_dropShadow_443_66726" result="effect2_dropShadow_443_66726"/>
<feBlend mode="normal" in="SourceGraphic" in2="effect2_dropShadow_443_66726" result="shape"/>
</filter>
<filter id="filter3_dd_443_66726" x="441" y="187.5" width="112" height="126.5" filterUnits="userSpaceOnUse" color-interpolation-filters="sRGB">
<feFlood flood-opacity="0" result="BackgroundImageFix"/>
<feColorMatrix in="SourceAlpha" type="matrix" values="0 0 0 0 0 0 0 0 0 0 0 0 0 0 0 0 0 0 127 0" result="hardAlpha"/>
<feOffset dy="4"/>
<feGaussianBlur stdDeviation="4"/>
<feComposite in2="hardAlpha" operator="out"/>
<feColorMatrix type="matrix" values="0 0 0 0 0 0 0 0 0 0 0 0 0 0 0 0 0 0 0.08 0"/>
<feBlend mode="normal" in2="BackgroundImageFix" result="effect1_dropShadow_443_66726"/>
<feColorMatrix in="SourceAlpha" type="matrix" values="0 0 0 0 0 0 0 0 0 0 0 0 0 0 0 0 0 0 127 0" result="hardAlpha"/>
<feOffset dy="-0.5"/>
<feGaussianBlur stdDeviation="2"/>
<feComposite in2="hardAlpha" operator="out"/>
<feColorMatrix type="matrix" values="0 0 0 0 0 0 0 0 0 0 0 0 0 0 0 0 0 0 0.05 0"/>
<feBlend mode="normal" in2="effect1_dropShadow_443_66726" result="effect2_dropShadow_443_66726"/>
<feBlend mode="normal" in="SourceGraphic" in2="effect2_dropShadow_443_66726" result="shape"/>
</filter>
<filter id="filter4_dd_443_66726" x="277" y="187.5" width="140" height="126.5" filterUnits="userSpaceOnUse" color-interpolation-filters="sRGB">
<feFlood flood-opacity="0" result="BackgroundImageFix"/>
<feColorMatrix in="SourceAlpha" type="matrix" values="0 0 0 0 0 0 0 0 0 0 0 0 0 0 0 0 0 0 127 0" result="hardAlpha"/>
<feOffset dy="4"/>
<feGaussianBlur stdDeviation="4"/>
<feComposite in2="hardAlpha" operator="out"/>
<feColorMatrix type="matrix" values="0 0 0 0 0 0 0 0 0 0 0 0 0 0 0 0 0 0 0.08 0"/>
<feBlend mode="normal" in2="BackgroundImageFix" result="effect1_dropShadow_443_66726"/>
<feColorMatrix in="SourceAlpha" type="matrix" values="0 0 0 0 0 0 0 0 0 0 0 0 0 0 0 0 0 0 127 0" result="hardAlpha"/>
<feOffset dy="-0.5"/>
<feGaussianBlur stdDeviation="2"/>
<feComposite in2="hardAlpha" operator="out"/>
<feColorMatrix type="matrix" values="0 0 0 0 0 0 0 0 0 0 0 0 0 0 0 0 0 0 0.05 0"/>
<feBlend mode="normal" in2="effect1_dropShadow_443_66726" result="effect2_dropShadow_443_66726"/>
<feBlend mode="normal" in="SourceGraphic" in2="effect2_dropShadow_443_66726" result="shape"/>
</filter>
<radialGradient id="paint0_radial_443_66726" cx="0" cy="0" r="1" gradientUnits="userSpaceOnUse" gradientTransform="translate(187.5 91.9521) rotate(99.7276) scale(18.3894 18.3894)">
<stop offset="0.055" stop-color="#7A73FF"/>
<stop offset="0.65" stop-color="#67DDFA"/>
<stop offset="1" stop-color="#4AFCF1"/>
</radialGradient>
<radialGradient id="paint1_radial_443_66726" cx="0" cy="0" r="1" gradientUnits="userSpaceOnUse" gradientTransform="translate(187.5 91.9521) rotate(99.7276) scale(18.3894 18.3894)">
<stop offset="0.055" stop-color="#7A73FF"/>
<stop offset="0.65" stop-color="#67DDFA"/>
<stop offset="1" stop-color="#4AFCF1"/>
</radialGradient>
<linearGradient id="paint2_linear_443_66726" x1="158" y1="225.952" x2="151.239" y2="225.462" gradientUnits="userSpaceOnUse">
<stop offset="0.338542" stop-color="#7A73FF"/>
<stop offset="0.734375" stop-color="#75CDFF"/>
<stop offset="1" stop-color="#4AFCF1"/>
</linearGradient>
<linearGradient id="paint3_linear_443_66726" x1="442.669" y1="178.296" x2="331.523" y2="327.681" gradientUnits="userSpaceOnUse">
<stop offset="0.338542" stop-color="#7A73FF"/>
<stop offset="0.734375" stop-color="#75CDFF"/>
<stop offset="1" stop-color="#4AFCF1"/>
</linearGradient>
<linearGradient id="paint4_linear_443_66726" x1="685.642" y1="137.049" x2="317.527" y2="330.679" gradientUnits="userSpaceOnUse">
<stop offset="0.338542" stop-color="#7A73FF"/>
<stop offset="0.734375" stop-color="#75CDFF"/>
<stop offset="1" stop-color="#4AFCF1"/>
</linearGradient>
<linearGradient id="paint5_linear_443_66726" x1="323.499" y1="136.573" x2="4.27402" y2="-1.74382" gradientUnits="userSpaceOnUse">
<stop offset="0.338542" stop-color="#7A73FF"/>
<stop offset="0.734375" stop-color="#75CDFF"/>
<stop offset="1" stop-color="#4AFCF1"/>
</linearGradient>
<radialGradient id="paint6_radial_443_66726" cx="0" cy="0" r="1" gradientUnits="userSpaceOnUse" gradientTransform="translate(41.6 99.4521) rotate(98.7708) scale(17.7071 16.0233)">
<stop offset="0.055" stop-color="#7A73FF"/>
<stop offset="0.65" stop-color="#67DDFA"/>
<stop offset="1" stop-color="#4AFCF1"/>
</radialGradient>
<radialGradient id="paint7_radial_443_66726" cx="0" cy="0" r="1" gradientUnits="userSpaceOnUse" gradientTransform="translate(41.6 99.4521) rotate(98.7708) scale(17.7071 16.0233)">
<stop offset="0.055" stop-color="#7A73FF"/>
<stop offset="0.65" stop-color="#67DDFA"/>
<stop offset="1" stop-color="#4AFCF1"/>
</radialGradient>
<radialGradient id="paint8_radial_443_66726" cx="0" cy="0" r="1" gradientUnits="userSpaceOnUse" gradientTransform="translate(41.6 99.4521) rotate(98.7708) scale(17.7071 16.0233)">
<stop offset="0.055" stop-color="#7A73FF"/>
<stop offset="0.65" stop-color="#67DDFA"/>
<stop offset="1" stop-color="#4AFCF1"/>
</radialGradient>
<radialGradient id="paint9_radial_443_66726" cx="0" cy="0" r="1" gradientUnits="userSpaceOnUse" gradientTransform="translate(41.6 99.4521) rotate(98.7708) scale(17.7071 16.0233)">
<stop offset="0.055" stop-color="#7A73FF"/>
<stop offset="0.65" stop-color="#67DDFA"/>
<stop offset="1" stop-color="#4AFCF1"/>
</radialGradient>
<radialGradient id="paint10_radial_443_66726" cx="0" cy="0" r="1" gradientUnits="userSpaceOnUse" gradientTransform="translate(41.6 99.4521) rotate(98.7708) scale(17.7071 16.0233)">
<stop offset="0.055" stop-color="#7A73FF"/>
<stop offset="0.65" stop-color="#67DDFA"/>
<stop offset="1" stop-color="#4AFCF1"/>
</radialGradient>
<radialGradient id="paint11_radial_443_66726" cx="0" cy="0" r="1" gradientUnits="userSpaceOnUse" gradientTransform="translate(41.6 99.4521) rotate(98.7708) scale(17.7071 16.0233)">
<stop offset="0.055" stop-color="#7A73FF"/>
<stop offset="0.65" stop-color="#67DDFA"/>
<stop offset="1" stop-color="#4AFCF1"/>
</radialGradient>
<radialGradient id="paint12_radial_443_66726" cx="0" cy="0" r="1" gradientUnits="userSpaceOnUse" gradientTransform="translate(183.5 230) rotate(97.3264) scale(20.1646 15.3148)">
<stop offset="0.055" stop-color="#7A73FF"/>
<stop offset="0.65" stop-color="#67DDFA"/>
<stop offset="1" stop-color="#4AFCF1"/>
</radialGradient>
<radialGradient id="paint13_radial_443_66726" cx="0" cy="0" r="1" gradientUnits="userSpaceOnUse" gradientTransform="translate(497 230) rotate(101.189) scale(16.5648 18.9342)">
<stop offset="0.055" stop-color="#7A73FF"/>
<stop offset="0.65" stop-color="#67DDFA"/>
<stop offset="1" stop-color="#4AFCF1"/>
</radialGradient>
<radialGradient id="paint14_radial_443_66726" cx="0" cy="0" r="1" gradientUnits="userSpaceOnUse" gradientTransform="translate(347 230) rotate(99.7276) scale(17.7553)">
<stop offset="0.055" stop-color="#7A73FF"/>
<stop offset="0.65" stop-color="#67DDFA"/>
<stop offset="1" stop-color="#4AFCF1"/>
</radialGradient>
</defs>
</svg>
