<svg width="325" height="300" viewBox="0 0 325 300" fill="none" xmlns="http://www.w3.org/2000/svg">
<g filter="url(#filter0_dd_1066_44893)">
<rect x="166" y="67" width="99" height="110" rx="12" fill="white"/>
<path fill-rule="evenodd" clip-rule="evenodd" d="M213.416 91.4913C214.888 90.8362 216.533 90.8362 218.005 91.4913L218.027 91.5015L225.896 95.1878C225.906 95.1925 225.916 95.1974 225.926 95.2024C227.689 96.0852 228.733 98.0251 228.389 100.105C227.734 104.165 225.753 112.169 218.41 118.053L218.396 118.064C216.794 119.312 214.627 119.312 213.024 118.064L213.011 118.053C205.665 112.168 203.685 104.161 203.032 100.102C203.027 100.073 203.023 100.044 203.021 100.015C202.858 98.2184 203.658 96.1015 205.654 95.1869L213.386 91.505C213.396 91.5003 213.406 91.4958 213.416 91.4913ZM214.465 93.8107L206.739 97.4895L206.719 97.4987C205.941 97.8531 205.478 98.7626 205.552 99.7444C206.175 103.577 208.013 110.782 214.595 116.061C215.274 116.586 216.146 116.586 216.826 116.061C223.435 110.761 225.261 103.517 225.876 99.6972L225.877 99.6906C226.038 98.7265 225.566 97.8758 224.799 97.485L216.959 93.8122C216.154 93.457 215.27 93.4565 214.465 93.8107Z" fill="url(#paint0_radial_1066_44893)"/>
<path fill-rule="evenodd" clip-rule="evenodd" d="M221.58 98.8899C222.143 99.3108 222.258 100.108 221.837 100.671L216.126 108.308C215.887 108.627 215.511 108.816 215.112 108.818C214.713 108.82 214.336 108.634 214.094 108.316L210.896 104.116C210.47 103.557 210.578 102.759 211.138 102.333C211.697 101.907 212.495 102.015 212.921 102.574L215.098 105.433L219.798 99.1468C220.219 98.5839 221.017 98.4689 221.58 98.8899Z" fill="url(#paint1_radial_1066_44893)"/>
<path d="M199.542 136.951V136.518C199.542 135.182 199.91 134.145 200.644 133.406C201.378 132.664 202.32 132.293 203.468 132.293C204.62 132.293 205.564 132.664 206.298 133.406C207.033 134.145 207.4 135.182 207.4 136.518V136.951C207.4 138.287 207.033 139.326 206.298 140.068C205.564 140.807 204.62 141.176 203.468 141.176C202.32 141.176 201.378 140.807 200.644 140.068C199.91 139.326 199.542 138.287 199.542 136.951ZM200.72 136.951C200.72 137.967 200.97 138.76 201.47 139.33C201.974 139.896 202.642 140.18 203.474 140.18C204.302 140.18 204.968 139.896 205.472 139.33C205.976 138.76 206.228 137.967 206.228 136.951V136.518C206.228 135.502 205.976 134.711 205.472 134.145C204.968 133.574 204.302 133.289 203.474 133.289C202.642 133.289 201.974 133.574 201.47 134.145C200.97 134.711 200.72 135.502 200.72 136.518V136.951ZM209.345 141V132.469H212.374C213.366 132.469 214.134 132.697 214.677 133.154C215.22 133.611 215.491 134.225 215.491 134.994C215.491 135.764 215.22 136.383 214.677 136.852C214.134 137.32 213.366 137.555 212.374 137.555H210.511V141H209.345ZM210.511 136.605H212.374C213.105 136.605 213.612 136.451 213.898 136.143C214.183 135.83 214.325 135.447 214.325 134.994C214.325 134.541 214.183 134.166 213.898 133.869C213.612 133.568 213.105 133.418 212.374 133.418H210.511V136.605ZM214.636 141L212.398 137.068L213.593 136.922L215.966 141H214.636ZM217.472 141V132.469H218.995L221.766 138.885C221.817 139.002 221.866 139.125 221.913 139.254C221.964 139.379 222.009 139.496 222.048 139.605H222.095C222.13 139.496 222.171 139.379 222.218 139.254C222.265 139.125 222.313 139.002 222.364 138.885L225.118 132.469H226.671V141H225.546V134.73C225.546 134.613 225.548 134.482 225.552 134.338C225.559 134.189 225.571 134.057 225.587 133.939H225.534C225.503 134.057 225.46 134.189 225.405 134.338C225.354 134.482 225.304 134.613 225.253 134.73L222.569 141H221.532L218.831 134.73C218.78 134.613 218.729 134.482 218.679 134.338C218.632 134.189 218.595 134.057 218.567 133.939H218.515C218.526 134.057 218.536 134.189 218.544 134.338C218.556 134.482 218.561 134.613 218.561 134.73V141H217.472ZM228.294 137.824V136.793H231.762V137.824H228.294ZM184.827 153.977V153.789C184.827 152.848 185.11 152.08 185.677 151.486C186.247 150.889 187.03 150.59 188.026 150.59C188.948 150.59 189.647 150.814 190.124 151.264C190.604 151.709 190.845 152.209 190.845 152.764V152.793H189.731V152.758C189.731 152.426 189.597 152.135 189.327 151.885C189.061 151.635 188.628 151.51 188.026 151.51C187.323 151.51 186.806 151.729 186.474 152.166C186.142 152.604 185.976 153.145 185.976 153.789V153.977C185.976 154.621 186.142 155.162 186.474 155.6C186.806 156.033 187.323 156.25 188.026 156.25C188.628 156.25 189.061 156.127 189.327 155.881C189.597 155.635 189.731 155.342 189.731 155.002V154.973H190.845V155.002C190.845 155.553 190.604 156.053 190.124 156.502C189.647 156.951 188.948 157.176 188.026 157.176C187.03 157.176 186.247 156.879 185.677 156.285C185.11 155.688 184.827 154.918 184.827 153.977ZM191.6 151.65V150.766H197.167V151.65H194.946V157H193.821V151.65H191.6ZM198.497 159.438V150.766H199.516L199.569 151.621H199.592C199.78 151.352 200.063 151.123 200.442 150.936C200.821 150.744 201.264 150.648 201.772 150.648C202.647 150.648 203.346 150.945 203.87 151.539C204.397 152.129 204.661 152.879 204.661 153.789V153.977C204.661 154.883 204.397 155.633 203.87 156.227C203.346 156.82 202.647 157.117 201.772 157.117C201.264 157.117 200.833 157.035 200.477 156.871C200.122 156.707 199.836 156.49 199.622 156.221V159.438H198.497ZM199.622 155.084C199.762 155.373 199.995 155.631 200.319 155.857C200.643 156.08 201.038 156.191 201.502 156.191C202.194 156.191 202.7 155.98 203.02 155.559C203.344 155.133 203.506 154.605 203.506 153.977V153.789C203.506 153.156 203.344 152.629 203.02 152.207C202.7 151.785 202.194 151.574 201.502 151.574C201.038 151.574 200.643 151.688 200.319 151.914C199.999 152.137 199.766 152.393 199.622 152.682V155.084ZM205.955 155.166C205.955 154.529 206.229 154.035 206.776 153.684C207.326 153.332 208.039 153.156 208.914 153.156H210.584V152.711C210.584 152.336 210.467 152.037 210.233 151.814C210.002 151.592 209.608 151.48 209.049 151.48C208.494 151.48 208.094 151.576 207.848 151.768C207.602 151.955 207.479 152.182 207.479 152.447V152.477H206.354V152.447C206.354 151.936 206.598 151.498 207.086 151.135C207.574 150.771 208.239 150.59 209.078 150.59C209.914 150.59 210.561 150.77 211.018 151.129C211.479 151.484 211.709 152.012 211.709 152.711V155.594C211.709 155.848 211.731 156.088 211.774 156.314C211.817 156.537 211.877 156.734 211.955 156.906V157H210.871C210.809 156.902 210.752 156.773 210.701 156.613C210.651 156.453 210.619 156.295 210.608 156.139C210.444 156.4 210.17 156.629 209.787 156.824C209.405 157.02 208.914 157.117 208.317 157.117C207.645 157.117 207.082 156.949 206.629 156.613C206.18 156.277 205.955 155.795 205.955 155.166ZM207.08 155.107C207.08 155.459 207.201 155.732 207.444 155.928C207.686 156.123 208.065 156.221 208.58 156.221C209.096 156.221 209.559 156.072 209.969 155.775C210.379 155.479 210.584 155.164 210.584 154.832V153.953H209.043C208.403 153.953 207.914 154.057 207.578 154.264C207.246 154.467 207.08 154.748 207.08 155.107ZM213.016 151.65V150.766H218.582V151.65H216.361V157H215.236V151.65H213.016ZM219.543 153.977V153.789C219.543 152.848 219.828 152.08 220.398 151.486C220.972 150.889 221.73 150.59 222.672 150.59C223.617 150.59 224.344 150.869 224.851 151.428C225.359 151.982 225.613 152.734 225.613 153.684V154.146H220.211V153.25H224.482V153.221C224.482 152.721 224.34 152.311 224.054 151.99C223.769 151.67 223.312 151.51 222.683 151.51C222.023 151.51 221.523 151.729 221.183 152.166C220.844 152.604 220.674 153.145 220.674 153.789V153.977C220.674 154.621 220.851 155.162 221.207 155.6C221.566 156.037 222.119 156.256 222.865 156.256C223.318 156.256 223.709 156.17 224.037 155.998C224.365 155.822 224.629 155.615 224.828 155.377L225.554 155.975C225.336 156.268 224.996 156.541 224.535 156.795C224.078 157.049 223.521 157.176 222.865 157.176C221.791 157.176 220.969 156.879 220.398 156.285C219.828 155.688 219.543 154.918 219.543 153.977ZM227.148 150.766H231.625V151.65H228.273V157H227.148V150.766ZM232.954 157V150.766H234.068V154.738C234.068 154.855 234.066 154.988 234.062 155.137C234.062 155.285 234.06 155.42 234.056 155.541H234.103C234.158 155.436 234.218 155.324 234.284 155.207C234.351 155.09 234.427 154.973 234.513 154.855L237.449 150.766H238.579V157H237.46V153.033C237.46 152.912 237.462 152.777 237.466 152.629C237.47 152.477 237.476 152.34 237.484 152.219H237.419C237.368 152.32 237.31 152.432 237.243 152.553C237.177 152.674 237.103 152.793 237.021 152.91L234.085 157H232.954ZM241.433 157H240.185L242.189 154.34L243.319 154.439L241.433 157ZM244.673 157V154.75H242.915L242.786 154.68C242.021 154.68 241.433 154.508 241.022 154.164C240.612 153.816 240.407 153.35 240.407 152.764C240.407 152.158 240.614 151.674 241.028 151.311C241.442 150.947 242.036 150.766 242.81 150.766H245.804V157H244.673ZM242.815 153.859H244.673V151.65H242.815C242.347 151.65 242.017 151.756 241.825 151.967C241.638 152.178 241.544 152.443 241.544 152.764C241.544 153.088 241.638 153.352 241.825 153.555C242.013 153.758 242.343 153.859 242.815 153.859Z" fill="#04101C"/>
</g>
<g filter="url(#filter1_dd_1066_44893)">
<rect x="59" y="68" width="68" height="94" rx="12" fill="white"/>
<path d="M103.965 114.6H101C100.506 112.8 98.9 111.6 96.9235 111.6C94.5765 111.6 92.6 113.52 92.6 115.8C92.6 118.08 94.5765 120 96.9235 120C98.9 120 100.506 118.8 101 117H103.965C104.706 117 105.2 116.4 105.2 115.8C105.2 115.08 104.706 114.6 103.965 114.6ZM96.9235 117.6C95.9353 117.6 95.0706 116.76 95.0706 115.8C95.0706 114.84 95.9353 114 96.9235 114C97.9118 114 98.7765 114.84 98.7765 115.8C98.7765 116.76 97.9118 117.6 96.9235 117.6Z" fill="url(#paint2_radial_1066_44893)"/>
<path d="M90.0085 114.4H81.1915C80.4766 114.4 80 115.1 80 115.8C80 116.64 80.5957 117.2 81.1915 117.2H90.0085C90.7234 117.2 91.2 116.5 91.2 115.8C91.2 114.96 90.6043 114.4 90.0085 114.4Z" fill="url(#paint3_radial_1066_44893)"/>
<path d="M81.1915 97.6H90.0085C90.7234 97.6 91.2 96.9 91.2 96.2C91.2 95.5 90.6043 94.8 90.0085 94.8H81.1915C80.4766 94.8 80 95.5 80 96.2C80 96.9 80.5957 97.6 81.1915 97.6Z" fill="url(#paint4_radial_1066_44893)"/>
<path d="M96.9235 100.4C98.9 100.4 100.506 99.2 101 97.4H103.965C104.706 97.4 105.2 96.8 105.2 96.2C105.2 95.6 104.582 95 103.965 95H101C100.506 93.2 98.9 92 96.9235 92C94.5765 92 92.6 93.92 92.6 96.2C92.6 98.48 94.5765 100.4 96.9235 100.4ZM96.9235 94.4C97.9118 94.4 98.7765 95.24 98.7765 96.2C98.7765 97.16 97.9118 98 96.9235 98C95.9353 98 95.0706 97.16 95.0706 96.2C95.0706 95.24 95.9353 94.4 96.9235 94.4Z" fill="url(#paint5_radial_1066_44893)"/>
<path d="M81.2353 107.2H84.2C84.6941 108.88 86.3 110.2 88.2765 110.2C90.6235 110.2 92.6 108.28 92.6 106C92.6 103.72 90.6235 101.8 88.2765 101.8C86.3 101.8 84.6941 103 84.2 104.8H81.2353C80.4941 104.8 80 105.4 80 106C80 106.6 80.6176 107.2 81.2353 107.2ZM88.2765 104.2C89.2647 104.2 90.1294 105.04 90.1294 106C90.1294 106.96 89.2647 107.8 88.2765 107.8C87.2882 107.8 86.4235 106.96 86.4235 106C86.4235 105.04 87.2882 104.2 88.2765 104.2Z" fill="url(#paint6_radial_1066_44893)"/>
<path d="M103.996 104.6H95.2043C94.4817 104.6 94 105.3 94 106C94 106.7 94.6022 107.4 95.2043 107.4H103.996C104.718 107.4 105.2 106.7 105.2 106C105.2 105.3 104.718 104.6 103.996 104.6Z" fill="url(#paint7_radial_1066_44893)"/>
<path d="M79.2717 137.951V137.518C79.2717 136.182 79.6389 135.145 80.3733 134.406C81.1077 133.664 82.0491 133.293 83.1975 133.293C84.3498 133.293 85.2932 133.664 86.0276 134.406C86.762 135.145 87.1291 136.182 87.1291 137.518V137.951C87.1291 139.287 86.762 140.326 86.0276 141.068C85.2932 141.807 84.3498 142.176 83.1975 142.176C82.0491 142.176 81.1077 141.807 80.3733 141.068C79.6389 140.326 79.2717 139.287 79.2717 137.951ZM80.4495 137.951C80.4495 138.967 80.6995 139.76 81.1995 140.33C81.7034 140.896 82.3713 141.18 83.2034 141.18C84.0315 141.18 84.6975 140.896 85.2014 140.33C85.7053 139.76 85.9573 138.967 85.9573 137.951V137.518C85.9573 136.502 85.7053 135.711 85.2014 135.145C84.6975 134.574 84.0315 134.289 83.2034 134.289C82.3713 134.289 81.7034 134.574 81.1995 135.145C80.6995 135.711 80.4495 136.502 80.4495 137.518V137.951ZM89.0742 142V133.469H92.1035C93.0957 133.469 93.8633 133.697 94.4062 134.154C94.9492 134.611 95.2207 135.225 95.2207 135.994C95.2207 136.764 94.9492 137.383 94.4062 137.852C93.8633 138.32 93.0957 138.555 92.1035 138.555H90.2402V142H89.0742ZM90.2402 137.605H92.1035C92.834 137.605 93.3418 137.451 93.627 137.143C93.9121 136.83 94.0547 136.447 94.0547 135.994C94.0547 135.541 93.9121 135.166 93.627 134.869C93.3418 134.568 92.834 134.418 92.1035 134.418H90.2402V137.605ZM94.3652 142L92.127 138.068L93.3223 137.922L95.6953 142H94.3652ZM97.2009 142V133.469H98.7244L101.496 139.885C101.547 140.002 101.595 140.125 101.642 140.254C101.693 140.379 101.738 140.496 101.777 140.605H101.824C101.859 140.496 101.9 140.379 101.947 140.254C101.994 140.125 102.043 140.002 102.094 139.885L104.847 133.469H106.4V142H105.275V135.73C105.275 135.613 105.277 135.482 105.281 135.338C105.289 135.189 105.301 135.057 105.316 134.939H105.263C105.232 135.057 105.189 135.189 105.135 135.338C105.084 135.482 105.033 135.613 104.982 135.73L102.299 142H101.261L98.5603 135.73C98.5095 135.613 98.4587 135.482 98.408 135.338C98.3611 135.189 98.324 135.057 98.2966 134.939H98.2439C98.2556 135.057 98.2654 135.189 98.2732 135.338C98.2849 135.482 98.2908 135.613 98.2908 135.73V142H97.2009Z" fill="#04101C"/>
</g>
<path d="M127 122L166 122" stroke="url(#paint8_linear_1066_44893)" stroke-width="2"/>
<defs>
<filter id="filter0_dd_1066_44893" x="158" y="62.5" width="115" height="126.5" filterUnits="userSpaceOnUse" color-interpolation-filters="sRGB">
<feFlood flood-opacity="0" result="BackgroundImageFix"/>
<feColorMatrix in="SourceAlpha" type="matrix" values="0 0 0 0 0 0 0 0 0 0 0 0 0 0 0 0 0 0 127 0" result="hardAlpha"/>
<feOffset dy="4"/>
<feGaussianBlur stdDeviation="4"/>
<feComposite in2="hardAlpha" operator="out"/>
<feColorMatrix type="matrix" values="0 0 0 0 0 0 0 0 0 0 0 0 0 0 0 0 0 0 0.08 0"/>
<feBlend mode="normal" in2="BackgroundImageFix" result="effect1_dropShadow_1066_44893"/>
<feColorMatrix in="SourceAlpha" type="matrix" values="0 0 0 0 0 0 0 0 0 0 0 0 0 0 0 0 0 0 127 0" result="hardAlpha"/>
<feOffset dy="-0.5"/>
<feGaussianBlur stdDeviation="2"/>
<feComposite in2="hardAlpha" operator="out"/>
<feColorMatrix type="matrix" values="0 0 0 0 0 0 0 0 0 0 0 0 0 0 0 0 0 0 0.05 0"/>
<feBlend mode="normal" in2="effect1_dropShadow_1066_44893" result="effect2_dropShadow_1066_44893"/>
<feBlend mode="normal" in="SourceGraphic" in2="effect2_dropShadow_1066_44893" result="shape"/>
</filter>
<filter id="filter1_dd_1066_44893" x="51" y="63.5" width="84" height="110.5" filterUnits="userSpaceOnUse" color-interpolation-filters="sRGB">
<feFlood flood-opacity="0" result="BackgroundImageFix"/>
<feColorMatrix in="SourceAlpha" type="matrix" values="0 0 0 0 0 0 0 0 0 0 0 0 0 0 0 0 0 0 127 0" result="hardAlpha"/>
<feOffset dy="4"/>
<feGaussianBlur stdDeviation="4"/>
<feComposite in2="hardAlpha" operator="out"/>
<feColorMatrix type="matrix" values="0 0 0 0 0 0 0 0 0 0 0 0 0 0 0 0 0 0 0.08 0"/>
<feBlend mode="normal" in2="BackgroundImageFix" result="effect1_dropShadow_1066_44893"/>
<feColorMatrix in="SourceAlpha" type="matrix" values="0 0 0 0 0 0 0 0 0 0 0 0 0 0 0 0 0 0 127 0" result="hardAlpha"/>
<feOffset dy="-0.5"/>
<feGaussianBlur stdDeviation="2"/>
<feComposite in2="hardAlpha" operator="out"/>
<feColorMatrix type="matrix" values="0 0 0 0 0 0 0 0 0 0 0 0 0 0 0 0 0 0 0.05 0"/>
<feBlend mode="normal" in2="effect1_dropShadow_1066_44893" result="effect2_dropShadow_1066_44893"/>
<feBlend mode="normal" in="SourceGraphic" in2="effect2_dropShadow_1066_44893" result="shape"/>
</filter>
<radialGradient id="paint0_radial_1066_44893" cx="0" cy="0" r="1" gradientUnits="userSpaceOnUse" gradientTransform="translate(215.727 105) rotate(98.8578) scale(17.7112 16.181)">
<stop offset="0.055" stop-color="#7A73FF"/>
<stop offset="0.65" stop-color="#67DDFA"/>
<stop offset="1" stop-color="#4AFCF1"/>
</radialGradient>
<radialGradient id="paint1_radial_1066_44893" cx="0" cy="0" r="1" gradientUnits="userSpaceOnUse" gradientTransform="translate(215.727 105) rotate(98.8578) scale(17.7112 16.181)">
<stop offset="0.055" stop-color="#7A73FF"/>
<stop offset="0.65" stop-color="#67DDFA"/>
<stop offset="1" stop-color="#4AFCF1"/>
</radialGradient>
<radialGradient id="paint2_radial_1066_44893" cx="0" cy="0" r="1" gradientUnits="userSpaceOnUse" gradientTransform="translate(92.6 106) rotate(98.7708) scale(17.7071 16.0233)">
<stop offset="0.055" stop-color="#7A73FF"/>
<stop offset="0.65" stop-color="#67DDFA"/>
<stop offset="1" stop-color="#4AFCF1"/>
</radialGradient>
<radialGradient id="paint3_radial_1066_44893" cx="0" cy="0" r="1" gradientUnits="userSpaceOnUse" gradientTransform="translate(92.6 106) rotate(98.7708) scale(17.7071 16.0233)">
<stop offset="0.055" stop-color="#7A73FF"/>
<stop offset="0.65" stop-color="#67DDFA"/>
<stop offset="1" stop-color="#4AFCF1"/>
</radialGradient>
<radialGradient id="paint4_radial_1066_44893" cx="0" cy="0" r="1" gradientUnits="userSpaceOnUse" gradientTransform="translate(92.6 106) rotate(98.7708) scale(17.7071 16.0233)">
<stop offset="0.055" stop-color="#7A73FF"/>
<stop offset="0.65" stop-color="#67DDFA"/>
<stop offset="1" stop-color="#4AFCF1"/>
</radialGradient>
<radialGradient id="paint5_radial_1066_44893" cx="0" cy="0" r="1" gradientUnits="userSpaceOnUse" gradientTransform="translate(92.6 106) rotate(98.7708) scale(17.7071 16.0233)">
<stop offset="0.055" stop-color="#7A73FF"/>
<stop offset="0.65" stop-color="#67DDFA"/>
<stop offset="1" stop-color="#4AFCF1"/>
</radialGradient>
<radialGradient id="paint6_radial_1066_44893" cx="0" cy="0" r="1" gradientUnits="userSpaceOnUse" gradientTransform="translate(92.6 106) rotate(98.7708) scale(17.7071 16.0233)">
<stop offset="0.055" stop-color="#7A73FF"/>
<stop offset="0.65" stop-color="#67DDFA"/>
<stop offset="1" stop-color="#4AFCF1"/>
</radialGradient>
<radialGradient id="paint7_radial_1066_44893" cx="0" cy="0" r="1" gradientUnits="userSpaceOnUse" gradientTransform="translate(92.6 106) rotate(98.7708) scale(17.7071 16.0233)">
<stop offset="0.055" stop-color="#7A73FF"/>
<stop offset="0.65" stop-color="#67DDFA"/>
<stop offset="1" stop-color="#4AFCF1"/>
</radialGradient>
<linearGradient id="paint8_linear_1066_44893" x1="200.687" y1="121" x2="200.303" y2="127.775" gradientUnits="userSpaceOnUse">
<stop offset="0.338542" stop-color="#7A73FF"/>
<stop offset="0.734375" stop-color="#75CDFF"/>
<stop offset="1" stop-color="#4AFCF1"/>
</linearGradient>
</defs>
</svg>
