<svg width="524" height="125" viewBox="0 0 524 125" fill="none" xmlns="http://www.w3.org/2000/svg">
<path d="M5.50507 0H28.915C53.3539 0 63.6439 9.51429 63.6439 30C63.6439 50.4857 53.3539 60 28.915 60H5.50507C3.36131 60 1.56055 58.2857 1.56055 56.1429V4.02857C1.56055 1.8 3.27556 0 5.50507 0ZM28.4862 11.8286H17.3386V48.1714H28.4862C43.8355 48.1714 47.8658 42.8571 47.8658 30C47.8658 17.1429 43.8355 11.8286 28.4862 11.8286Z" fill="#04101C"/>
<path d="M67.2642 56.1429L77.8115 16.2857C81.3273 3 93.4181 0 105.595 0H128.147C130.205 0 131.749 1.8 131.749 3.85714V56.1429C131.749 58.2857 129.948 60 127.804 60H119.915C117.686 60 115.97 58.2857 115.97 56.0571V45.5143H86.2151L83.3853 56.0571C82.785 58.2857 80.6413 60 78.4118 60H70.1797C67.9502 60 66.6639 58.2857 67.2642 56.1429ZM92.9893 20.2286L89.3021 33.6857H115.97V11.8286H104.051C98.6489 11.8286 94.3614 15.0857 92.9893 20.2286Z" fill="#04101C"/>
<path d="M161.674 56.1429V38.5714L139.293 3.94286C138.007 1.97143 138.607 0 140.751 0H148.726C152.156 0 154.557 1.71429 156.015 3.94286L169.563 24.8571L183.112 3.94286C184.57 1.71429 186.971 0 190.401 0H198.375C200.519 0 201.119 1.97143 199.833 3.94286L177.452 38.5714V56.1429C177.452 58.2857 175.652 60 173.508 60H165.619C163.475 60 161.674 58.2857 161.674 56.1429Z" fill="#04101C"/>
<path d="M218.714 60H211.34C209.196 60 207.395 58.2 207.395 56.0571V3.94286C207.395 1.8 209.11 0 211.254 0H223.602C225.66 0 228.061 1.97143 229.347 3.94286L254.644 42.8571V3.85714C254.644 1.71429 256.445 0 258.588 0H265.791C268.021 0 269.736 1.71429 269.736 3.94286V56.0571C269.736 58.2 268.021 60 265.791 60H251.9C249.67 60 247.184 58.2 245.811 56.0571L222.659 20.1429V56.0571C222.659 58.2 220.858 60 218.714 60Z" fill="#04101C"/>
<path d="M333.979 0C336.123 0 337.924 1.71429 337.924 3.94286V7.88571C337.924 10.1143 336.123 11.8286 333.979 11.8286H297.535V24H328.92C331.064 24 332.864 25.8 332.864 27.9429V31.8857C332.864 34.0286 331.064 35.8286 328.92 35.8286H297.535V48.1714H333.893C336.037 48.1714 337.752 49.8857 337.752 52.0286V56.0571C337.752 58.2 336.037 60 333.808 60H285.702C283.472 60 281.757 58.2 281.757 55.9714V3.85714C281.757 1.71429 283.558 0 285.702 0H333.979Z" fill="#04101C"/>
<path d="M344.451 0H397.616C399.846 0 401.561 1.71429 401.561 3.94286V7.88571C401.561 10.1143 399.846 11.8286 397.616 11.8286H378.922V56.1429C378.922 58.2857 377.122 60 374.978 60H367.089C364.945 60 363.144 58.2857 363.144 56.1429V11.8286H344.451C342.221 11.8286 340.506 10.1143 340.506 7.88571V3.94286C340.506 1.71429 342.221 0 344.451 0Z" fill="#04101C"/>
<path d="M2.57812 107V84.25H6.79688L14.7188 101.344C14.875 101.677 15.0104 101.995 15.125 102.297C15.2396 102.589 15.3333 102.87 15.4062 103.141H15.5C15.5833 102.87 15.6771 102.589 15.7812 102.297C15.8958 101.995 16.0312 101.677 16.1875 101.344L24.125 84.25H28.4062V107H25.0625L25.0781 90.5781C25.0781 90.2656 25.0833 89.9375 25.0938 89.5938C25.1146 89.2396 25.1406 88.9115 25.1719 88.6094H25.0625C24.9896 88.9115 24.8906 89.2396 24.7656 89.5938C24.651 89.9479 24.5312 90.276 24.4062 90.5781L16.8125 107H13.8906L6.3125 90.5938C6.17708 90.2812 6.04688 89.9427 5.92188 89.5781C5.80729 89.2031 5.71875 88.8802 5.65625 88.6094H5.54688C5.56771 88.8802 5.58854 89.2031 5.60938 89.5781C5.63021 89.9427 5.64062 90.2812 5.64062 90.5938L5.65625 107H2.57812ZM31.9837 99.4062V98.9688C31.9837 96.5833 32.7754 94.6562 34.3587 93.1875C35.9421 91.7083 38.0254 90.9688 40.6087 90.9688C43.1921 90.9688 45.1817 91.6615 46.5775 93.0469C47.9837 94.4323 48.6869 96.3177 48.6869 98.7031V99.8906H33.9056V97.6406H45.4369V97.5312C45.4369 96.3958 45.0619 95.4427 44.3119 94.6719C43.5619 93.901 42.3275 93.5156 40.6087 93.5156C38.8379 93.5156 37.5046 94.0104 36.6087 95C35.7129 95.9792 35.265 97.2604 35.265 98.8438V99.4688C35.265 101.094 35.7337 102.406 36.6712 103.406C37.6087 104.396 39.0254 104.891 40.9212 104.891C42.2129 104.891 43.291 104.677 44.1556 104.25C45.0306 103.812 45.7129 103.292 46.2025 102.688L48.4994 104.219C47.9369 105.073 47.0202 105.823 45.7494 106.469C44.489 107.115 42.89 107.438 40.9525 107.438C38.1192 107.438 35.916 106.703 34.3431 105.234C32.7702 103.766 31.9837 101.823 31.9837 99.4062ZM52.3737 91.4219H55.6706V97.7969H64.28V91.4219H67.5769V107H64.28V100.344H55.6706V107H52.3737V91.4219ZM75.1544 107H71.4981L76.4825 100.438L79.9044 100.656L75.1544 107ZM83.545 107V101.406H78.6231L78.0919 101.266C76.1231 101.276 74.6179 100.839 73.5762 99.9531C72.545 99.0677 72.0294 97.8802 72.0294 96.3906C72.0294 94.8802 72.5502 93.6771 73.5919 92.7812C74.6335 91.875 76.1283 91.4219 78.0762 91.4219H86.8575V107H83.545ZM78.4825 99.0469H83.545V93.7656H78.4825C77.3262 93.7656 76.5137 94.0156 76.045 94.5156C75.5762 95.0156 75.3419 95.6458 75.3419 96.4062C75.3419 97.1875 75.571 97.8229 76.0294 98.3125C76.4981 98.8021 77.3158 99.0469 78.4825 99.0469ZM90.8725 99.4062V98.9688C90.8725 96.5833 91.6642 94.6562 93.2475 93.1875C94.8308 91.7083 96.9142 90.9688 99.4975 90.9688C102.081 90.9688 104.07 91.6615 105.466 93.0469C106.872 94.4323 107.576 96.3177 107.576 98.7031V99.8906H92.7944V97.6406H104.326V97.5312C104.326 96.3958 103.951 95.4427 103.201 94.6719C102.451 93.901 101.216 93.5156 99.4975 93.5156C97.7267 93.5156 96.3933 94.0104 95.4975 95C94.6017 95.9792 94.1537 97.2604 94.1537 98.8438V99.4688C94.1537 101.094 94.6225 102.406 95.56 103.406C96.4975 104.396 97.9142 104.891 99.81 104.891C101.102 104.891 102.18 104.677 103.044 104.25C103.919 103.812 104.602 103.292 105.091 102.688L107.388 104.219C106.826 105.073 105.909 105.823 104.638 106.469C103.378 107.115 101.779 107.438 99.8412 107.438C97.0079 107.438 94.8048 106.703 93.2319 105.234C91.659 103.766 90.8725 101.823 90.8725 99.4062ZM111.294 107V91.4219H115.716L120.747 101.469C121.007 102 121.184 102.391 121.278 102.641C121.382 102.891 121.471 103.146 121.544 103.406H121.653C121.726 103.146 121.815 102.891 121.919 102.641C122.023 102.391 122.205 102 122.466 101.469L127.466 91.4219H131.841V107H128.591V96.9062C128.591 96.375 128.601 95.9531 128.622 95.6406C128.643 95.3281 128.664 95.0312 128.684 94.75H128.591C128.518 95.0104 128.429 95.276 128.325 95.5469C128.231 95.8177 128.075 96.1927 127.856 96.6719L122.731 107H120.106L114.966 96.6719C114.789 96.2865 114.643 95.9375 114.528 95.625C114.414 95.3021 114.325 95.0104 114.262 94.75H114.153C114.174 95.0104 114.195 95.2969 114.216 95.6094C114.236 95.9115 114.247 96.3281 114.247 96.8594V107H111.294ZM145.355 107V91.4219H149.777L154.808 101.469C155.069 102 155.246 102.391 155.339 102.641C155.444 102.891 155.532 103.146 155.605 103.406H155.714C155.787 103.146 155.876 102.891 155.98 102.641C156.084 102.391 156.266 102 156.527 101.469L161.527 91.4219H165.902V107H162.652V96.9062C162.652 96.375 162.662 95.9531 162.683 95.6406C162.704 95.3281 162.725 95.0312 162.746 94.75H162.652C162.579 95.0104 162.49 95.276 162.386 95.5469C162.292 95.8177 162.136 96.1927 161.917 96.6719L156.792 107H154.167L149.027 96.6719C148.85 96.2865 148.704 95.9375 148.589 95.625C148.475 95.3021 148.386 95.0104 148.324 94.75H148.214C148.235 95.0104 148.256 95.2969 148.277 95.6094C148.298 95.9115 148.308 96.3281 148.308 96.8594V107H145.355ZM170.932 91.4219H174.229V97.7969H182.839V91.4219H186.136V107H182.839V100.344H174.229V107H170.932V91.4219ZM190.135 99.4062V98.9688C190.135 96.5833 190.927 94.6562 192.51 93.1875C194.093 91.7083 196.177 90.9688 198.76 90.9688C201.343 90.9688 203.333 91.6615 204.729 93.0469C206.135 94.4323 206.838 96.3177 206.838 98.7031V99.8906H192.057V97.6406H203.588V97.5312C203.588 96.3958 203.213 95.4427 202.463 94.6719C201.713 93.901 200.479 93.5156 198.76 93.5156C196.989 93.5156 195.656 94.0104 194.76 95C193.864 95.9792 193.416 97.2604 193.416 98.8438V99.4688C193.416 101.094 193.885 102.406 194.822 103.406C195.76 104.396 197.177 104.891 199.072 104.891C200.364 104.891 201.442 104.677 202.307 104.25C203.182 103.812 203.864 103.292 204.354 102.688L206.651 104.219C206.088 105.073 205.171 105.823 203.901 106.469C202.64 107.115 201.041 107.438 199.104 107.438C196.27 107.438 194.067 106.703 192.494 105.234C190.921 103.766 190.135 101.823 190.135 99.4062ZM210.525 91.4219H213.822V97.7969H222.431V91.4219H225.728V107H222.431V100.344H213.822V107H210.525V91.4219ZM230.759 107V91.4219H234.056V101.156C234.056 101.5 234.05 101.828 234.04 102.141C234.03 102.453 234.014 102.786 233.993 103.141H234.102C234.269 102.828 234.425 102.547 234.571 102.297C234.717 102.047 234.92 101.74 235.181 101.375L242.759 91.4219H246.118V107H242.821V97.2344C242.821 96.901 242.826 96.5781 242.837 96.2656C242.847 95.9531 242.863 95.6198 242.884 95.2656H242.774C242.608 95.5677 242.451 95.849 242.306 96.1094C242.16 96.3594 241.957 96.6615 241.696 97.0156L234.134 107H230.759ZM253.696 107H250.039L255.024 100.438L258.446 100.656L253.696 107ZM262.086 107V101.406H257.164L256.633 101.266C254.664 101.276 253.159 100.839 252.117 99.9531C251.086 99.0677 250.571 97.8802 250.571 96.3906C250.571 94.8802 251.091 93.6771 252.133 92.7812C253.175 91.875 254.67 91.4219 256.617 91.4219H265.399V107H262.086ZM257.024 99.0469H262.086V93.7656H257.024C255.867 93.7656 255.055 94.0156 254.586 94.5156C254.117 95.0156 253.883 95.6458 253.883 96.4062C253.883 97.1875 254.112 97.8229 254.571 98.3125C255.039 98.8021 255.857 99.0469 257.024 99.0469ZM269.851 109.984C270.383 109.37 270.778 108.745 271.039 108.109C271.299 107.474 271.429 106.724 271.429 105.859V103.312H274.539V105.859C274.539 106.943 274.294 107.922 273.804 108.797C273.325 109.682 272.7 110.432 271.929 111.047L269.851 109.984ZM287.506 102.422C287.506 100.828 288.178 99.599 289.522 98.7344C290.866 97.8594 292.72 97.4219 295.084 97.4219L299.944 97.4375V96.2188C299.944 95.2917 299.636 94.5833 299.022 94.0938C298.418 93.6042 297.386 93.3594 295.928 93.3594C294.532 93.3594 293.496 93.5729 292.819 94C292.152 94.4271 291.819 94.9948 291.819 95.7031V95.9531H288.616V95.6406C288.616 94.276 289.277 93.1562 290.6 92.2812C291.923 91.4062 293.746 90.9688 296.069 90.9688C298.402 90.9688 300.178 91.4062 301.397 92.2812C302.626 93.1562 303.241 94.5052 303.241 96.3281V103.328C303.241 103.984 303.298 104.609 303.413 105.203C303.527 105.797 303.689 106.312 303.897 106.75V107H300.694C300.538 106.74 300.397 106.411 300.272 106.016C300.157 105.609 300.079 105.182 300.038 104.734C299.61 105.411 298.855 106.005 297.772 106.516C296.699 107.016 295.334 107.266 293.678 107.266C291.793 107.266 290.293 106.849 289.178 106.016C288.064 105.182 287.506 103.984 287.506 102.422ZM290.803 102.234C290.803 103.099 291.11 103.766 291.725 104.234C292.34 104.693 293.314 104.922 294.647 104.922C296.022 104.922 297.251 104.568 298.334 103.859C299.418 103.141 299.959 102.312 299.959 101.375V99.5469L295.694 99.5312C294.048 99.5312 292.819 99.7604 292.006 100.219C291.204 100.677 290.803 101.349 290.803 102.234ZM316.724 91.4219H320.021V97.7969H328.63V91.4219H331.927V107H328.63V100.344H320.021V107H316.724V91.4219ZM335.926 99.4062V98.9688C335.926 96.5833 336.718 94.6562 338.301 93.1875C339.885 91.7083 341.968 90.9688 344.551 90.9688C347.135 90.9688 349.124 91.6615 350.52 93.0469C351.926 94.4323 352.629 96.3177 352.629 98.7031V99.8906H337.848V97.6406H349.379V97.5312C349.379 96.3958 349.004 95.4427 348.254 94.6719C347.504 93.901 346.27 93.5156 344.551 93.5156C342.78 93.5156 341.447 94.0104 340.551 95C339.655 95.9792 339.207 97.2604 339.207 98.8438V99.4688C339.207 101.094 339.676 102.406 340.614 103.406C341.551 104.396 342.968 104.891 344.864 104.891C346.155 104.891 347.234 104.677 348.098 104.25C348.973 103.812 349.655 103.292 350.145 102.688L352.442 104.219C351.879 105.073 350.963 105.823 349.692 106.469C348.431 107.115 346.832 107.438 344.895 107.438C342.062 107.438 339.859 106.703 338.286 105.234C336.713 103.766 335.926 101.823 335.926 99.4062ZM364.769 113.562V91.4219H367.862L367.956 93.5781H367.987C368.467 92.8906 369.227 92.3021 370.269 91.8125C371.31 91.3125 372.534 91.0625 373.941 91.0625C376.305 91.0625 378.18 91.7865 379.566 93.2344C380.961 94.6719 381.659 96.5781 381.659 98.9531V99.3906C381.659 101.786 380.956 103.714 379.55 105.172C378.154 106.62 376.295 107.344 373.972 107.344C372.576 107.344 371.378 107.125 370.378 106.688C369.378 106.25 368.607 105.708 368.066 105.062V113.562H364.769ZM368.066 102.094C368.409 102.771 369.019 103.391 369.894 103.953C370.769 104.505 371.836 104.781 373.097 104.781C374.889 104.781 376.206 104.297 377.05 103.328C377.894 102.349 378.316 101.057 378.316 99.4531V98.8906C378.316 97.3177 377.894 96.0521 377.05 95.0938C376.206 94.1354 374.883 93.6562 373.081 93.6562C371.852 93.6562 370.8 93.9271 369.925 94.4688C369.06 95 368.441 95.6094 368.066 96.2969V102.094ZM384.628 99.4062V98.9688C384.628 96.5833 385.419 94.6562 387.003 93.1875C388.586 91.7083 390.669 90.9688 393.253 90.9688C395.836 90.9688 397.825 91.6615 399.221 93.0469C400.628 94.4323 401.331 96.3177 401.331 98.7031V99.8906H386.549V97.6406H398.081V97.5312C398.081 96.3958 397.706 95.4427 396.956 94.6719C396.206 93.901 394.971 93.5156 393.253 93.5156C391.482 93.5156 390.148 94.0104 389.253 95C388.357 95.9792 387.909 97.2604 387.909 98.8438V99.4688C387.909 101.094 388.378 102.406 389.315 103.406C390.253 104.396 391.669 104.891 393.565 104.891C394.857 104.891 395.935 104.677 396.799 104.25C397.674 103.812 398.357 103.292 398.846 102.688L401.143 104.219C400.581 105.073 399.664 105.823 398.393 106.469C397.133 107.115 395.534 107.438 393.596 107.438C390.763 107.438 388.56 106.703 386.987 105.234C385.414 103.766 384.628 101.823 384.628 99.4062ZM405.017 107V91.4219H408.314V101.156C408.314 101.5 408.309 101.828 408.299 102.141C408.288 102.453 408.273 102.786 408.252 103.141H408.361C408.528 102.828 408.684 102.547 408.83 102.297C408.976 102.047 409.179 101.74 409.439 101.375L417.017 91.4219H420.377V107H417.08V97.2344C417.08 96.901 417.085 96.5781 417.096 96.2656C417.106 95.9531 417.122 95.6198 417.142 95.2656H417.033C416.866 95.5677 416.71 95.849 416.564 96.1094C416.419 96.3594 416.215 96.6615 415.955 97.0156L408.392 107H405.017ZM412.674 86.7812C413.413 86.7812 414.023 86.5677 414.502 86.1406C414.991 85.7135 415.408 85.0312 415.752 84.0938L418.096 85.2812C417.575 86.5729 416.851 87.526 415.924 88.1406C415.007 88.7552 413.924 89.0625 412.674 89.0625C411.434 89.0625 410.351 88.7604 409.424 88.1562C408.507 87.5417 407.788 86.5833 407.267 85.2812L409.642 84.0781C409.986 85.026 410.392 85.7135 410.861 86.1406C411.34 86.5677 411.945 86.7812 412.674 86.7812ZM423.689 93.9688V91.4219H439.064V93.9688H433.017V107H429.736V93.9688H423.689ZM442.36 107V91.4219H445.657V101.156C445.657 101.5 445.652 101.828 445.641 102.141C445.631 102.453 445.615 102.786 445.594 103.141H445.704C445.87 102.828 446.027 102.547 446.172 102.297C446.318 102.047 446.521 101.74 446.782 101.375L454.36 91.4219H457.719V107H454.422V97.2344C454.422 96.901 454.428 96.5781 454.438 96.2656C454.449 95.9531 454.464 95.6198 454.485 95.2656H454.376C454.209 95.5677 454.053 95.849 453.907 96.1094C453.761 96.3594 453.558 96.6615 453.297 97.0156L445.735 107H442.36ZM462.75 91.4219H466.047V97.7969H474.656V91.4219H477.953V107H474.656V100.344H466.047V107H462.75V91.4219ZM482.984 91.4219H495.234V93.9688H486.281V107H482.984V91.4219ZM498.592 107V91.4219H501.889V101.156C501.889 101.5 501.884 101.828 501.874 102.141C501.863 102.453 501.848 102.786 501.827 103.141H501.936C502.103 102.828 502.259 102.547 502.405 102.297C502.551 102.047 502.754 101.74 503.014 101.375L510.592 91.4219H513.952V107H510.655V97.2344C510.655 96.901 510.66 96.5781 510.671 96.2656C510.681 95.9531 510.697 95.6198 510.717 95.2656H510.608C510.441 95.5677 510.285 95.849 510.139 96.1094C509.994 96.3594 509.79 96.6615 509.53 97.0156L501.967 107H498.592Z" fill="#04101C"/>
</svg>
