<svg width="503" height="76" viewBox="0 0 503 76" fill="none" xmlns="http://www.w3.org/2000/svg">
<path d="M4.96024 0H34.3982C65.1301 0 78.0698 12.0514 78.0698 38C78.0698 63.9486 65.1301 76 34.3982 76H4.96024C2.26446 76 0 73.8286 0 71.1143V5.10286C0 2.28 2.15663 0 4.96024 0ZM33.859 14.9829H19.841V61.0171H33.859C53.1608 61.0171 58.2289 54.2857 58.2289 38C58.2289 21.7143 53.1608 14.9829 33.859 14.9829Z" fill="#04101C"/>
<path d="M82.6223 71.1143L95.8856 20.6286C100.307 3.8 115.511 0 130.823 0H159.183C161.77 0 163.711 2.28 163.711 4.88572V71.1143C163.711 73.8286 161.447 76 158.751 76H148.831C146.027 76 143.87 73.8286 143.87 71.0057V57.6514H106.453L102.895 71.0057C102.14 73.8286 99.444 76 96.6404 76H86.2886C83.485 76 81.8675 73.8286 82.6223 71.1143ZM114.972 25.6229L110.335 42.6686H143.87V14.9829H128.882C122.089 14.9829 116.697 19.1086 114.972 25.6229Z" fill="#04101C"/>
<path d="M201.343 71.1143V48.8571L173.199 4.99429C171.581 2.49714 172.336 0 175.032 0H185.06C189.374 0 192.393 2.17143 194.226 4.99429L211.263 31.4857L228.301 4.99429C230.134 2.17143 233.153 0 237.466 0H247.495C250.19 0 250.945 2.49714 249.328 4.99429L221.184 48.8571V71.1143C221.184 73.8286 218.919 76 216.224 76H206.303C203.607 76 201.343 73.8286 201.343 71.1143Z" fill="#04101C"/>
<path d="M273.071 76H263.797C261.102 76 258.837 73.72 258.837 71.0057V4.99429C258.837 2.28 260.994 0 263.69 0H279.217C281.805 0 284.824 2.49714 286.442 4.99429L318.252 54.2857V4.88572C318.252 2.17143 320.517 0 323.212 0H332.27C335.074 0 337.23 2.17143 337.23 4.99429V71.0057C337.23 73.72 335.074 76 332.27 76H314.802C311.998 76 308.871 73.72 307.146 71.0057L278.031 25.5143V71.0057C278.031 73.72 275.767 76 273.071 76Z" fill="#04101C"/>
<path d="M418.016 0C420.712 0 422.977 2.17143 422.977 4.99429V9.98857C422.977 12.8114 420.712 14.9829 418.016 14.9829H372.188V30.4H411.654C414.35 30.4 416.615 32.68 416.615 35.3943V40.3886C416.615 43.1029 414.35 45.3829 411.654 45.3829H372.188V61.0171H417.909C420.604 61.0171 422.761 63.1886 422.761 65.9029V71.0057C422.761 73.72 420.604 76 417.801 76H357.307C354.504 76 352.347 73.72 352.347 70.8971V4.88572C352.347 2.17143 354.612 0 357.307 0H418.016Z" fill="#04101C"/>
<path d="M431.184 0H498.04C500.843 0 503 2.17143 503 4.99429V9.98857C503 12.8114 500.843 14.9829 498.04 14.9829H474.533V71.1143C474.533 73.8286 472.268 76 469.572 76H459.652C456.956 76 454.692 73.8286 454.692 71.1143V14.9829H431.184C428.381 14.9829 426.224 12.8114 426.224 9.98857V4.99429C426.224 2.17143 428.381 0 431.184 0Z" fill="#04101C"/>
</svg>
