<svg width="505" height="140" viewBox="0 0 505 140" fill="none" xmlns="http://www.w3.org/2000/svg">
<path d="M5.52855 0.399994H35.0126C65.7925 0.399994 78.7525 12.388 78.7525 38.2C78.7525 64.012 65.7925 76 35.0126 76H5.52855C2.82855 76 0.560547 73.84 0.560547 71.14V5.47599C0.560547 2.668 2.72055 0.399994 5.52855 0.399994ZM34.4725 15.304H20.4325V61.096H34.4725C53.8046 61.096 58.8805 54.4 58.8805 38.2C58.8805 22 53.8046 15.304 34.4725 15.304Z" fill="#04101C"/>
<path d="M83.3122 71.14L96.5962 20.92C101.024 4.18 116.252 0.399994 131.588 0.399994H159.992C162.584 0.399994 164.528 2.668 164.528 5.26V71.14C164.528 73.84 162.26 76 159.56 76H149.624C146.816 76 144.656 73.84 144.656 71.032V57.748H107.18L103.616 71.032C102.86 73.84 100.16 76 97.3522 76H86.9842C84.1762 76 82.5562 73.84 83.3122 71.14ZM115.712 25.888L111.068 42.844H144.656V15.304H129.644C122.84 15.304 117.44 19.408 115.712 25.888Z" fill="#04101C"/>
<path d="M202.218 71.14V49L174.03 5.36799C172.41 2.88399 173.166 0.399994 175.866 0.399994H185.91C190.23 0.399994 193.254 2.56 195.09 5.36799L212.154 31.72L229.218 5.36799C231.054 2.56 234.078 0.399994 238.398 0.399994H248.442C251.142 0.399994 251.898 2.88399 250.278 5.36799L222.09 49V71.14C222.09 73.84 219.822 76 217.122 76H207.186C204.486 76 202.218 73.84 202.218 71.14Z" fill="#04101C"/>
<path d="M274.059 76H264.771C262.071 76 259.803 73.732 259.803 71.032V5.36799C259.803 2.668 261.963 0.399994 264.663 0.399994H280.215C282.807 0.399994 285.831 2.88399 287.451 5.36799L319.311 54.4V5.26C319.311 2.56 321.579 0.399994 324.279 0.399994H333.351C336.159 0.399994 338.319 2.56 338.319 5.36799V71.032C338.319 73.732 336.159 76 333.351 76H315.855C313.047 76 309.915 73.732 308.187 71.032L279.027 25.78V71.032C279.027 73.732 276.759 76 274.059 76Z" fill="#04101C"/>
<path d="M419.231 0.399994C421.931 0.399994 424.199 2.56 424.199 5.36799V10.336C424.199 13.144 421.931 15.304 419.231 15.304H373.331V30.64H412.859C415.559 30.64 417.827 32.908 417.827 35.608V40.576C417.827 43.276 415.559 45.544 412.859 45.544H373.331V61.096H419.123C421.823 61.096 423.983 63.256 423.983 65.956V71.032C423.983 73.732 421.823 76 419.015 76H358.427C355.619 76 353.459 73.732 353.459 70.924V5.26C353.459 2.56 355.727 0.399994 358.427 0.399994H419.231Z" fill="#04101C"/>
<path d="M432.42 0.399994H499.38C502.188 0.399994 504.348 2.56 504.348 5.36799V10.336C504.348 13.144 502.188 15.304 499.38 15.304H475.836V71.14C475.836 73.84 473.568 76 470.868 76H460.932C458.232 76 455.964 73.84 455.964 71.14V15.304H432.42C429.612 15.304 427.452 13.144 427.452 10.336V5.36799C427.452 2.56 429.612 0.399994 432.42 0.399994Z" fill="#04101C"/>
<path d="M2.37695 138.842V103.549H6.76953L6.8457 106.85H6.89648C7.57357 105.8 8.6569 104.895 10.1465 104.133C11.6361 103.354 13.3711 102.965 15.3516 102.965C18.7539 102.965 21.4368 104.082 23.4004 106.316C25.3639 108.551 26.3457 111.547 26.3457 115.305V116.041C26.3457 119.833 25.3555 122.871 23.375 125.156C21.3945 127.424 18.7285 128.559 15.377 128.559C13.4134 128.559 11.7207 128.22 10.2988 127.543C8.89388 126.866 7.80208 126.028 7.02344 125.029V138.842H2.37695ZM7.02344 120.662C7.53125 121.729 8.39453 122.702 9.61328 123.582C10.849 124.445 12.3639 124.877 14.1582 124.877C16.7311 124.877 18.6185 124.064 19.8203 122.439C21.0221 120.814 21.623 118.699 21.623 116.092V115.254C21.623 112.698 21.0221 110.633 19.8203 109.059C18.6185 107.467 16.7311 106.672 14.1582 106.672C12.4147 106.672 10.9167 107.095 9.66406 107.941C8.42839 108.788 7.54818 109.753 7.02344 110.836V120.662Z" fill="#04101C"/>
<path d="M29.8242 116.092V115.355C29.8242 111.632 30.9414 108.618 33.1758 106.316C35.4102 104.014 38.3639 102.863 42.0371 102.863C45.7103 102.863 48.5286 103.938 50.4922 106.088C52.4727 108.238 53.4629 111.2 53.4629 114.975V116.625H32.4902V113.375H48.8672V113.121C48.8672 111.344 48.334 109.803 47.2676 108.5C46.2012 107.18 44.4661 106.52 42.0625 106.52C39.5404 106.52 37.6445 107.324 36.375 108.932C35.1055 110.54 34.4707 112.622 34.4707 115.178V116.143C34.4707 118.783 35.1393 120.916 36.4766 122.541C37.8138 124.166 39.7943 124.979 42.418 124.979C44.2799 124.979 45.8288 124.648 47.0645 123.988C48.3001 123.311 49.2565 122.49 49.9336 121.525L53.209 123.658C52.4303 124.979 51.1439 126.146 49.3496 127.162C47.5723 128.161 45.2786 128.66 42.4688 128.66C38.457 128.66 35.3424 127.518 33.125 125.232C30.9245 122.93 29.8242 119.883 29.8242 116.092Z" fill="#04101C"/>
<path d="M58.1348 103.549H79.2344V128H74.5879V107.23H62.7812V128H58.1348V103.549Z" fill="#04101C"/>
<path d="M83.3477 138.486V134.855C83.8724 135.008 84.4056 135.126 84.9473 135.211C85.5059 135.296 86.0475 135.338 86.5723 135.338C87.9264 135.338 89.069 134.796 90 133.713C90.9479 132.63 91.9212 130.734 92.9199 128.025L92.8945 128L82.5859 103.549H87.2832L94.0625 120.23C94.2995 120.84 94.4941 121.365 94.6465 121.805C94.7988 122.245 94.9512 122.71 95.1035 123.201H95.2305C95.3828 122.71 95.5352 122.245 95.6875 121.805C95.8398 121.348 96.0345 120.814 96.2715 120.205L103.025 103.549H107.443L96.0176 131.047C94.8665 133.806 93.5885 135.829 92.1836 137.115C90.7956 138.402 89.069 139.045 87.0039 139.045C86.2591 139.045 85.599 138.994 85.0234 138.893C84.4479 138.808 83.8893 138.673 83.3477 138.486Z" fill="#04101C"/>
<path d="M108.078 107.23V103.549H129.939V107.23H121.332V128H116.686V107.23H108.078Z" fill="#04101C"/>
<path d="M132.301 120.891C132.301 118.436 133.257 116.515 135.17 115.127C137.1 113.739 139.723 113.053 143.041 113.07L149.922 113.096V110.963C149.922 109.473 149.49 108.331 148.627 107.535C147.764 106.723 146.308 106.316 144.26 106.316C142.279 106.316 140.807 106.672 139.842 107.383C138.894 108.077 138.42 109.025 138.42 110.227V110.709H133.9V110.049C133.9 108.018 134.831 106.316 136.693 104.945C138.572 103.557 141.162 102.863 144.463 102.863C147.747 102.863 150.252 103.523 151.979 104.844C153.705 106.147 154.568 108.246 154.568 111.141V122.033C154.568 123.117 154.645 124.141 154.797 125.105C154.966 126.053 155.212 126.883 155.533 127.594V128H151.039C150.785 127.577 150.565 127.035 150.379 126.375C150.21 125.715 150.091 125.021 150.023 124.293C149.414 125.359 148.356 126.307 146.85 127.137C145.343 127.966 143.422 128.381 141.086 128.381C138.395 128.381 136.253 127.738 134.662 126.451C133.088 125.165 132.301 123.311 132.301 120.891ZM136.947 120.637C136.947 122.059 137.387 123.142 138.268 123.887C139.165 124.632 140.519 125.004 142.33 125.004C144.26 125.004 146.003 124.42 147.561 123.252C149.135 122.084 149.922 120.738 149.922 119.215V116.168H143.98C141.594 116.151 139.825 116.532 138.674 117.311C137.523 118.089 136.947 119.198 136.947 120.637Z" fill="#04101C"/>
<path d="M181.889 134.703V128H161.271V103.549H165.918V124.318H177.725V103.549H182.371V124.318H186.23V134.703H181.889Z" fill="#04101C"/>
<path d="M190.115 128V103.549H194.736V119.164C194.736 119.773 194.728 120.298 194.711 120.738C194.711 121.161 194.686 121.678 194.635 122.287H194.812C195.1 121.745 195.354 121.297 195.574 120.941C195.794 120.586 196.107 120.087 196.514 119.443L207 103.549H211.85V128H207.229V112.359C207.229 111.75 207.229 111.234 207.229 110.811C207.245 110.37 207.279 109.846 207.33 109.236H207.127C206.856 109.761 206.611 110.21 206.391 110.582C206.171 110.938 205.857 111.437 205.451 112.08L194.965 128H190.115Z" fill="#04101C"/>
<path d="M216.953 116.092V115.355C216.953 111.632 218.104 108.618 220.406 106.316C222.708 104.014 225.772 102.863 229.598 102.863C233.423 102.863 236.487 104.014 238.789 106.316C241.091 108.618 242.242 111.632 242.242 115.355V116.092C242.242 119.867 241.091 122.905 238.789 125.207C236.487 127.509 233.423 128.66 229.598 128.66C225.755 128.66 222.683 127.509 220.381 125.207C218.096 122.905 216.953 119.867 216.953 116.092ZM221.676 115.305V116.168C221.676 118.741 222.344 120.848 223.682 122.49C225.036 124.132 226.999 124.953 229.572 124.953C232.179 124.953 234.151 124.132 235.488 122.49C236.826 120.848 237.494 118.741 237.494 116.168V115.305C237.494 112.749 236.826 110.658 235.488 109.033C234.151 107.408 232.179 106.596 229.572 106.596C226.999 106.596 225.036 107.408 223.682 109.033C222.344 110.658 221.676 112.749 221.676 115.305Z" fill="#04101C"/>
<path d="M247.346 103.549H251.992V113.756H264.078V103.549H268.725V128H264.078V117.412H251.992V128H247.346V103.549Z" fill="#04101C"/>
<path d="M275.479 103.549H280.125V113.756H292.211V103.549H296.857V128H292.211V117.412H280.125V128H275.479V103.549Z" fill="#04101C"/>
<path d="M301.961 116.092V115.355C301.961 111.632 303.112 108.618 305.414 106.316C307.716 104.014 310.78 102.863 314.605 102.863C318.431 102.863 321.495 104.014 323.797 106.316C326.099 108.618 327.25 111.632 327.25 115.355V116.092C327.25 119.867 326.099 122.905 323.797 125.207C321.495 127.509 318.431 128.66 314.605 128.66C310.763 128.66 307.691 127.509 305.389 125.207C303.104 122.905 301.961 119.867 301.961 116.092ZM306.684 115.305V116.168C306.684 118.741 307.352 120.848 308.689 122.49C310.044 124.132 312.007 124.953 314.58 124.953C317.187 124.953 319.159 124.132 320.496 122.49C321.833 120.848 322.502 118.741 322.502 116.168V115.305C322.502 112.749 321.833 110.658 320.496 109.033C319.159 107.408 317.187 106.596 314.58 106.596C312.007 106.596 310.044 107.408 308.689 109.033C307.352 110.658 306.684 112.749 306.684 115.305Z" fill="#04101C"/>
<path d="M330.703 116.092V115.355C330.703 111.632 331.82 108.618 334.055 106.316C336.289 104.014 339.243 102.863 342.916 102.863C346.589 102.863 349.408 103.938 351.371 106.088C353.352 108.238 354.342 111.2 354.342 114.975V116.625H333.369V113.375H349.746V113.121C349.746 111.344 349.213 109.803 348.146 108.5C347.08 107.18 345.345 106.52 342.941 106.52C340.419 106.52 338.523 107.324 337.254 108.932C335.984 110.54 335.35 112.622 335.35 115.178V116.143C335.35 118.783 336.018 120.916 337.355 122.541C338.693 124.166 340.673 124.979 343.297 124.979C345.159 124.979 346.708 124.648 347.943 123.988C349.179 123.311 350.135 122.49 350.812 121.525L354.088 123.658C353.309 124.979 352.023 126.146 350.229 127.162C348.451 128.161 346.158 128.66 343.348 128.66C339.336 128.66 336.221 127.518 334.004 125.232C331.803 122.93 330.703 119.883 330.703 116.092Z" fill="#04101C"/>
<path d="M373.969 115.584V116.295C373.969 118.868 374.637 120.958 375.975 122.566C377.312 124.158 379.275 124.953 381.865 124.953C384.472 124.953 386.444 124.158 387.781 122.566C389.118 120.958 389.787 118.868 389.787 116.295V115.584C389.787 113.062 389.118 111.014 387.781 109.439C386.444 107.848 384.48 107.053 381.891 107.053C379.284 107.053 377.312 107.848 375.975 109.439C374.637 111.014 373.969 113.062 373.969 115.584ZM382.932 103.32C386.452 103.32 389.262 104.454 391.361 106.723C393.477 108.991 394.535 111.936 394.535 115.559V116.32C394.535 120.027 393.376 123.015 391.057 125.283C388.755 127.535 385.699 128.66 381.891 128.66C378.031 128.66 374.951 127.551 372.648 125.334C370.363 123.1 369.221 119.41 369.221 114.264V112.309C369.221 106.536 370.202 102.008 372.166 98.7246C374.146 95.4408 377.803 93.4349 383.135 92.707C386.08 92.3177 387.84 91.9453 388.416 91.5898C389.008 91.2174 389.347 90.7773 389.432 90.2695H393.418C393.283 92.0977 392.605 93.4941 391.387 94.459C390.168 95.4238 387.815 96.1263 384.328 96.5664C380.13 97.0742 377.236 98.3014 375.645 100.248C374.07 102.195 373.148 105.03 372.877 108.754H373.156C374.003 107.061 375.247 105.732 376.889 104.768C378.548 103.803 380.562 103.32 382.932 103.32Z" fill="#04101C"/>
<path d="M399.639 103.549H404.285V113.756H411.598V117.412H404.285V128H399.639V103.549ZM409.287 116.092V115.355C409.287 111.632 410.413 108.618 412.664 106.316C414.932 104.014 417.954 102.863 421.729 102.863C425.486 102.863 428.491 104.014 430.742 106.316C433.01 108.618 434.145 111.632 434.145 115.355V116.092C434.145 119.867 433.01 122.905 430.742 125.207C428.491 127.509 425.486 128.66 421.729 128.66C417.954 128.66 414.932 127.509 412.664 125.207C410.413 122.905 409.287 119.867 409.287 116.092ZM414.035 115.33V116.168C414.035 118.741 414.678 120.848 415.965 122.49C417.268 124.132 419.181 124.953 421.703 124.953C424.225 124.953 426.138 124.132 427.441 122.49C428.745 120.848 429.396 118.741 429.396 116.168V115.33C429.396 112.757 428.745 110.658 427.441 109.033C426.138 107.408 424.225 106.596 421.703 106.596C419.181 106.596 417.268 107.408 415.965 109.033C414.678 110.658 414.035 112.757 414.035 115.33Z" fill="#04101C"/>
<path d="M439.248 138.842V103.549H443.641L443.717 106.85H443.768C444.445 105.8 445.528 104.895 447.018 104.133C448.507 103.354 450.242 102.965 452.223 102.965C455.625 102.965 458.308 104.082 460.271 106.316C462.235 108.551 463.217 111.547 463.217 115.305V116.041C463.217 119.833 462.227 122.871 460.246 125.156C458.266 127.424 455.6 128.559 452.248 128.559C450.285 128.559 448.592 128.22 447.17 127.543C445.765 126.866 444.673 126.028 443.895 125.029V138.842H439.248ZM443.895 120.662C444.402 121.729 445.266 122.702 446.484 123.582C447.72 124.445 449.235 124.877 451.029 124.877C453.602 124.877 455.49 124.064 456.691 122.439C457.893 120.814 458.494 118.699 458.494 116.092V115.254C458.494 112.698 457.893 110.633 456.691 109.059C455.49 107.467 453.602 106.672 451.029 106.672C449.286 106.672 447.788 107.095 446.535 107.941C445.299 108.788 444.419 109.753 443.895 110.836V120.662Z" fill="#04101C"/>
<path d="M466.695 116.092V115.355C466.695 111.632 467.846 108.618 470.148 106.316C472.451 104.014 475.514 102.863 479.34 102.863C483.165 102.863 486.229 104.014 488.531 106.316C490.833 108.618 491.984 111.632 491.984 115.355V116.092C491.984 119.867 490.833 122.905 488.531 125.207C486.229 127.509 483.165 128.66 479.34 128.66C475.497 128.66 472.425 127.509 470.123 125.207C467.838 122.905 466.695 119.867 466.695 116.092ZM471.418 115.305V116.168C471.418 118.741 472.087 120.848 473.424 122.49C474.778 124.132 476.742 124.953 479.314 124.953C481.921 124.953 483.893 124.132 485.23 122.49C486.568 120.848 487.236 118.741 487.236 116.168V115.305C487.236 112.749 486.568 110.658 485.23 109.033C483.893 107.408 481.921 106.596 479.314 106.596C476.742 106.596 474.778 107.408 473.424 109.033C472.087 110.658 471.418 112.749 471.418 115.305Z" fill="#04101C"/>
</svg>
