<svg width="64" height="64" viewBox="0 0 64 64" fill="none" xmlns="http://www.w3.org/2000/svg">
<g id="menu burger">
<g id="Vector">
<path d="M32 22.0952C33.6569 22.0952 35 20.7308 35 19.0476C35 17.3645 33.6569 16 32 16C30.3431 16 29 17.3645 29 19.0476C29 20.7308 30.3431 22.0952 32 22.0952Z" fill="#7A73FF"/>
<path d="M32 35.0476C33.6569 35.0476 35 33.6832 35 32C35 30.3168 33.6569 28.9524 32 28.9524C30.3431 28.9524 29 30.3168 29 32C29 33.6832 30.3431 35.0476 32 35.0476Z" fill="#7A73FF"/>
<path d="M32 48C33.6569 48 35 46.6355 35 44.9524C35 43.2692 33.6569 41.9048 32 41.9048C30.3431 41.9048 29 43.2692 29 44.9524C29 46.6355 30.3431 48 32 48Z" fill="#7A73FF"/>
</g>
<rect id="Rectangle 52" x="29" y="29" width="6" height="6" rx="3" fill="#7A73FF"/>
</g>
</svg>
