<svg width="40" height="40" viewBox="0 0 40 40" fill="none" xmlns="http://www.w3.org/2000/svg">
<path d="M20 16.1818C27.7568 16.1818 34 12.5455 34 8C34 3.45455 27.7568 0 20 0C12.0541 0 6 3.63636 6 8.18182C6 12.7273 12.0541 16.1818 20 16.1818ZM20 3.63636C25.8649 3.63636 30.2162 6 30.2162 8.18182C30.2162 10.3636 25.8649 12.7273 20 12.7273C14.1351 12.5455 9.78378 10.1818 9.78378 8.18182C9.78378 6.18182 14.1351 3.63636 20 3.63636Z" fill="url(#paint0_radial_339_59027)"/>
<path d="M32.2973 15.8182C31.3514 15.2727 30.2162 15.6364 29.6486 16.3636C28.7027 18.1818 24.9189 19.8182 20 19.8182C14.8919 19.8182 11.2973 18.1818 10.1622 16.3636C9.59459 15.6364 8.45946 15.2727 7.51351 15.8182C6.56757 16.3636 6.37838 17.4545 6.94595 18.3636C9.02703 21.4545 14.1351 23.4545 20 23.4545C25.8649 23.4545 30.973 21.4545 33.0541 18.3636C33.4324 17.4545 33.2432 16.3636 32.2973 15.8182Z" fill="url(#paint1_radial_339_59027)"/>
<path d="M32.2973 24C31.3514 23.4545 30.2162 23.8182 29.6486 24.5455C28.5135 26.1818 24.9189 28 19.8108 28C14.8919 28 11.1081 26.3636 9.97297 24.5455C9.40541 23.6364 8.27027 23.4545 7.32432 24C6.37838 24.5455 6.18919 25.6364 6.75676 26.5455C8.83784 29.6364 13.9459 31.6364 19.8108 31.6364C25.6757 31.6364 30.7838 29.6364 32.8649 26.5455C33.4324 25.6364 33.2432 24.5455 32.2973 24Z" fill="url(#paint2_radial_339_59027)"/>
<path d="M32.2973 32.3636C31.3514 31.8182 30.2162 32.1818 29.6486 32.9091C28.7027 34.7273 24.9189 36.3636 20 36.3636C15.0811 36.3636 11.2973 34.7273 10.1622 32.9091C9.59459 32 8.45946 31.8182 7.51351 32.3636C6.56757 32.9091 6.37838 34 6.94595 34.9091C8.83784 38 13.9459 40 20 40C25.8649 40 30.973 38 33.0541 34.9091C33.4324 34 33.2432 32.9091 32.2973 32.3636Z" fill="url(#paint3_radial_339_59027)"/>
<defs>
<radialGradient id="paint0_radial_339_59027" cx="0" cy="0" r="1" gradientUnits="userSpaceOnUse" gradientTransform="translate(20 20) rotate(96.8428) scale(25.1794 17.886)">
<stop offset="0.338542" stop-color="#7A73FF"/>
<stop offset="0.734375" stop-color="#75CDFF"/>
<stop offset="1" stop-color="#4AFCF1"/>
</radialGradient>
<radialGradient id="paint1_radial_339_59027" cx="0" cy="0" r="1" gradientUnits="userSpaceOnUse" gradientTransform="translate(20 20) rotate(96.8428) scale(25.1794 17.886)">
<stop offset="0.338542" stop-color="#7A73FF"/>
<stop offset="0.734375" stop-color="#75CDFF"/>
<stop offset="1" stop-color="#4AFCF1"/>
</radialGradient>
<radialGradient id="paint2_radial_339_59027" cx="0" cy="0" r="1" gradientUnits="userSpaceOnUse" gradientTransform="translate(20 20) rotate(96.8428) scale(25.1794 17.886)">
<stop offset="0.338542" stop-color="#7A73FF"/>
<stop offset="0.734375" stop-color="#75CDFF"/>
<stop offset="1" stop-color="#4AFCF1"/>
</radialGradient>
<radialGradient id="paint3_radial_339_59027" cx="0" cy="0" r="1" gradientUnits="userSpaceOnUse" gradientTransform="translate(20 20) rotate(96.8428) scale(25.1794 17.886)">
<stop offset="0.338542" stop-color="#7A73FF"/>
<stop offset="0.734375" stop-color="#75CDFF"/>
<stop offset="1" stop-color="#4AFCF1"/>
</radialGradient>
</defs>
</svg>
