<svg width="30" height="25" viewBox="0 0 30 25" fill="none" xmlns="http://www.w3.org/2000/svg">
<path d="M14.5293 0.502966C12.0241 0.456231 9.5155 0.961293 7.28125 2.05179C4.29025 3.47879 1.865 5.96103 0.5 8.91703C2.015 6.03203 4.53033 3.73301 7.48633 2.50101C10.4323 1.24401 13.7579 1.02909 16.8359 1.70609C19.9149 2.37309 22.7623 4.02198 24.6953 6.41898C26.6543 8.80098 27.594 11.878 27.5 14.917C27.5 14.932 27.499 14.9528 27.5 14.9678C27.51 15.5208 27.9675 15.9583 28.5195 15.9483C29.0715 15.9383 29.511 15.4807 29.5 14.9287V14.917C29.434 11.459 28.1601 7.98637 25.8301 5.44437C23.5271 2.87737 20.3254 1.27243 17.0234 0.733434C16.1989 0.596684 15.3644 0.518544 14.5293 0.502966ZM14.1699 3.30179C12.9222 3.29792 11.6805 3.47881 10.5 3.84281C12.905 3.27781 15.4541 3.46762 17.7051 4.35062C19.9541 5.23762 21.9042 6.81932 23.1582 8.82132C24.4292 10.8143 24.9759 13.2052 24.7109 15.4952C24.4709 17.7862 23.423 19.948 21.793 21.46C21.778 21.474 21.7601 21.4909 21.7461 21.5069C21.3661 21.9089 21.3851 22.5439 21.7871 22.9229C22.1891 23.3029 22.8222 23.2839 23.2012 22.8819L23.207 22.8741C25.082 20.8891 26.1226 18.2404 26.2246 15.6084C26.3536 12.9694 25.5311 10.326 23.9961 8.25101C22.4751 6.16001 20.277 4.63606 17.875 3.87406C16.6715 3.49456 15.4177 3.30567 14.1699 3.30179ZM17.5 6.91703C19.233 7.66603 20.6198 9.07301 21.3438 10.751C22.0847 12.415 22.2571 14.318 21.8711 16.044C21.4821 17.769 20.5239 19.3415 19.1719 20.3955C17.8289 21.4585 16.143 21.992 14.5 21.917C14.472 21.916 14.4372 21.916 14.4082 21.917C13.8562 21.942 13.4281 22.4119 13.4531 22.9639C13.4781 23.5159 13.948 23.942 14.5 23.917C16.627 23.829 18.6692 22.9444 20.1602 21.5264C21.6662 20.1174 22.6003 18.1889 22.8633 16.2159C23.1233 14.2349 22.7369 12.2264 21.7949 10.5244C20.8669 8.81645 19.29 7.50503 17.5 6.91703ZM18.5 11.917C19.193 12.966 19.1536 14.3132 18.9316 15.4502C18.6576 16.5982 17.8938 17.5699 16.9258 18.1299C15.9588 18.7019 14.8026 18.8482 13.7656 18.6182C12.7276 18.3902 11.8271 17.7547 11.2891 16.9287C11.2641 16.8917 11.2331 16.8505 11.2031 16.8155C10.8391 16.3975 10.2051 16.3538 9.78711 16.7178C9.36911 17.0818 9.32741 17.7158 9.69141 18.1338L9.71094 18.1553C10.7049 19.2963 12.1169 19.9885 13.5469 20.1045C14.9709 20.2245 16.4102 19.8111 17.4922 18.9561C18.5792 18.1141 19.2987 16.8472 19.4297 15.5342C19.4957 14.8722 19.4316 14.2393 19.3066 13.6143C19.1786 12.9913 18.919 12.383 18.5 11.917Z" fill="url(#paint0_radial_1239_34041)" stroke="url(#paint1_radial_1239_34041)"/>
<defs>
<radialGradient id="paint0_radial_1239_34041" cx="0" cy="0" r="1" gradientUnits="userSpaceOnUse" gradientTransform="translate(15.0001 12.209) rotate(101.985) scale(14.9625 18.251)">
<stop stop-color="#FD9BE8"/>
<stop offset="0.338542" stop-color="#7A73FF"/>
<stop offset="0.734375" stop-color="#75CDFF"/>
<stop offset="1" stop-color="#4AFCF1"/>
</radialGradient>
<radialGradient id="paint1_radial_1239_34041" cx="0" cy="0" r="1" gradientUnits="userSpaceOnUse" gradientTransform="translate(15.0001 12.209) rotate(101.985) scale(14.9625 18.251)">
<stop stop-color="#FD9BE8"/>
<stop offset="0.338542" stop-color="#7A73FF"/>
<stop offset="0.734375" stop-color="#75CDFF"/>
<stop offset="1" stop-color="#4AFCF1"/>
</radialGradient>
</defs>
</svg>
