<svg width="349" height="368" viewBox="0 0 349 368" fill="none" xmlns="http://www.w3.org/2000/svg">
<path d="M123 291.335L139 291.335C147.836 291.335 155 284.171 155 275.335L155 214.335" stroke="url(#paint0_linear_493_129919)"/>
<path d="M206 192.541L222 192.541C230.836 192.541 238 185.377 238 176.541L238 96.7061" stroke="url(#paint1_linear_493_129919)"/>
<path d="M156 140V89" stroke="url(#paint2_linear_493_129919)"/>
<path d="M137 177H105" stroke="url(#paint3_linear_493_129919)"/>
<path d="M167 219V225.5C167 234.337 174.163 241.5 183 241.5H245C253.837 241.5 261 248.663 261 257.5V262" stroke="url(#paint4_linear_493_129919)"/>
<g filter="url(#filter0_dd_493_129919)">
<rect x="55" y="10" width="116" height="88" rx="12" fill="white"/>
<g clip-path="url(#clip0_493_129919)">
<path d="M114.469 39.2294L114.469 39.2297L117.499 41.5L114.469 43.7702L114.469 43.7705L111.583 45.9368V37.0631L114.469 39.2294ZM106.615 32.1952C108.107 31.0879 109.871 30.3277 111.792 30.0427V31.4857C110.258 31.7444 108.848 32.3518 107.629 33.216L106.615 32.1952ZM102.043 39.7916C102.328 37.8713 103.088 36.1074 104.195 34.6153L105.216 35.629C104.352 36.8475 103.744 38.2576 103.486 39.7916H102.043ZM104.194 48.383C103.087 46.8913 102.328 45.1279 102.043 43.2083H103.486C103.744 44.7414 104.351 46.1507 105.216 47.3612L104.194 48.383ZM111.792 51.5143V52.9569C109.879 52.6715 108.108 51.9113 106.615 50.8046L107.629 49.7839C108.848 50.6481 110.258 51.2555 111.792 51.5143ZM125.083 41.5C125.083 47.2861 120.827 52.0965 115.269 52.954V51.5105C120.038 50.6664 123.667 46.4977 123.667 41.5C123.667 36.5022 120.038 32.3335 115.269 31.4894V30.046C120.827 30.9035 125.083 35.7138 125.083 41.5Z" fill="url(#paint5_radial_493_129919)" stroke="url(#paint6_radial_493_129919)"/>
</g>
<path d="M72.4191 78V69.4688H75.4836C76.4211 69.4688 77.1574 69.6484 77.6926 70.0078C78.2316 70.3672 78.5012 70.9414 78.5012 71.7305C78.5012 72.1992 78.3723 72.5801 78.1145 72.873C77.8566 73.166 77.5402 73.375 77.1652 73.5V73.5234C77.6262 73.6484 78.0031 73.8789 78.2961 74.2148C78.593 74.5508 78.7414 74.9922 78.7414 75.5391C78.7414 76.3281 78.4602 76.9355 77.8977 77.3613C77.3391 77.7871 76.5988 78 75.677 78H72.4191ZM73.5617 77.0449H75.677C76.3371 77.0449 76.8195 76.9102 77.1242 76.6406C77.4328 76.3711 77.5871 76.002 77.5871 75.5332C77.5871 75.0684 77.4328 74.7012 77.1242 74.4316C76.8195 74.1621 76.3371 74.0273 75.677 74.0273H73.5617V77.0449ZM73.5617 73.0898H75.4836C76.1437 73.0898 76.6184 72.9707 76.9074 72.7324C77.2004 72.4941 77.3469 72.1621 77.3469 71.7363C77.3469 71.3066 77.2004 70.9805 76.9074 70.7578C76.6184 70.5352 76.1437 70.4238 75.4836 70.4238H73.5617V73.0898ZM80.2646 78V71.7656H81.3779V75.7383C81.3779 75.8555 81.3759 75.9883 81.372 76.1367C81.372 76.2852 81.3701 76.4199 81.3662 76.541H81.413C81.4677 76.4355 81.5283 76.3242 81.5947 76.207C81.6611 76.0898 81.7373 75.9727 81.8232 75.8555L84.7587 71.7656H85.8896V78H84.7705V74.0332C84.7705 73.9121 84.7724 73.7773 84.7763 73.6289C84.7802 73.4766 84.7861 73.3398 84.7939 73.2188H84.7295C84.6787 73.3203 84.6201 73.4316 84.5537 73.5527C84.4873 73.6738 84.413 73.793 84.331 73.9102L81.3955 78H80.2646ZM93.1316 79.582V78H88.1101V79.582H87.0788V77.1152H94.1687V79.582H93.1316ZM89.3288 72.6504L89.2351 74.7656C89.2038 75.4844 89.1589 76.0137 89.1003 76.3535C89.0456 76.6895 88.9636 76.9746 88.8542 77.209H87.6882C87.8288 77.0215 87.9402 76.752 88.0222 76.4004C88.1081 76.0449 88.1687 75.4531 88.2038 74.625L88.3327 71.7656H93.2312V78H92.1003V72.6504H89.3288ZM95.0591 74.9766V74.7891C95.0591 73.8477 95.3442 73.0801 95.9145 72.4863C96.4887 71.8887 97.2466 71.5898 98.188 71.5898C99.1333 71.5898 99.8598 71.8691 100.368 72.4277C100.875 72.9824 101.129 73.7344 101.129 74.6836V75.1465H95.727V74.25H99.9985V74.2207C99.9985 73.7207 99.8559 73.3105 99.5708 72.9902C99.2856 72.6699 98.8286 72.5098 98.1997 72.5098C97.5395 72.5098 97.0395 72.7285 96.6997 73.166C96.3598 73.6035 96.1899 74.1445 96.1899 74.7891V74.9766C96.1899 75.6211 96.3677 76.1621 96.7231 76.5996C97.0825 77.0371 97.6352 77.2559 98.3813 77.2559C98.8345 77.2559 99.2251 77.1699 99.5532 76.998C99.8813 76.8223 100.145 76.6152 100.344 76.377L101.071 76.9746C100.852 77.2676 100.512 77.541 100.051 77.7949C99.5942 78.0488 99.0376 78.1758 98.3813 78.1758C97.3071 78.1758 96.4848 77.8789 95.9145 77.2852C95.3442 76.6875 95.0591 75.918 95.0591 74.9766ZM102.295 74.9766V74.7891C102.295 73.8477 102.59 73.0801 103.18 72.4863C103.774 71.8887 104.567 71.5898 105.559 71.5898C106.547 71.5898 107.338 71.8887 107.932 72.4863C108.526 73.0801 108.822 73.8477 108.822 74.7891V74.9766C108.822 75.918 108.526 76.6875 107.932 77.2852C107.338 77.8789 106.547 78.1758 105.559 78.1758C104.567 78.1758 103.774 77.8789 103.18 77.2852C102.59 76.6875 102.295 75.918 102.295 74.9766ZM103.444 74.7891V74.9766C103.444 75.6172 103.621 76.1562 103.977 76.5938C104.332 77.0312 104.86 77.25 105.559 77.25C106.258 77.25 106.783 77.0312 107.135 76.5938C107.49 76.1562 107.668 75.6172 107.668 74.9766V74.7891C107.668 74.1445 107.49 73.6055 107.135 73.1719C106.783 72.7344 106.258 72.5156 105.559 72.5156C104.86 72.5156 104.332 72.7344 103.977 73.1719C103.621 73.6055 103.444 74.1445 103.444 74.7891ZM110.463 80.4375V71.7656H111.482L111.535 72.6211H111.559C111.746 72.3516 112.029 72.123 112.408 71.9355C112.787 71.7441 113.23 71.6484 113.738 71.6484C114.613 71.6484 115.312 71.9453 115.836 72.5391C116.363 73.1289 116.627 73.8789 116.627 74.7891V74.9766C116.627 75.8828 116.363 76.6328 115.836 77.2266C115.312 77.8203 114.613 78.1172 113.738 78.1172C113.23 78.1172 112.799 78.0352 112.443 77.8711C112.088 77.707 111.803 77.4902 111.588 77.2207V80.4375H110.463ZM111.588 76.084C111.729 76.373 111.961 76.6309 112.285 76.8574C112.609 77.0801 113.004 77.1914 113.469 77.1914C114.16 77.1914 114.666 76.9805 114.986 76.5586C115.311 76.1328 115.473 75.6055 115.473 74.9766V74.7891C115.473 74.1562 115.311 73.6289 114.986 73.207C114.666 72.7852 114.16 72.5742 113.469 72.5742C113.004 72.5742 112.609 72.6875 112.285 72.9141C111.965 73.1367 111.732 73.3926 111.588 73.6816V76.084ZM117.904 74.9766V74.7891C117.904 73.8477 118.199 73.0801 118.789 72.4863C119.383 71.8887 120.176 71.5898 121.168 71.5898C122.156 71.5898 122.947 71.8887 123.541 72.4863C124.135 73.0801 124.431 73.8477 124.431 74.7891V74.9766C124.431 75.918 124.135 76.6875 123.541 77.2852C122.947 77.8789 122.156 78.1758 121.168 78.1758C120.176 78.1758 119.383 77.8789 118.789 77.2852C118.199 76.6875 117.904 75.918 117.904 74.9766ZM119.052 74.7891V74.9766C119.052 75.6172 119.23 76.1562 119.586 76.5938C119.941 77.0312 120.469 77.25 121.168 77.25C121.867 77.25 122.392 77.0312 122.744 76.5938C123.099 76.1562 123.277 75.6172 123.277 74.9766V74.7891C123.277 74.1445 123.099 73.6055 122.744 73.1719C122.392 72.7344 121.867 72.5156 121.168 72.5156C120.469 72.5156 119.941 72.7344 119.586 73.1719C119.23 73.6055 119.052 74.1445 119.052 74.7891ZM127.701 72.6504L127.595 75.1348C127.548 76.1855 127.404 76.9473 127.162 77.4199C126.923 77.8926 126.511 78.1289 125.925 78.1289C125.781 78.1289 125.654 78.1191 125.544 78.0996C125.435 78.084 125.343 78.0586 125.269 78.0234V77.0566C125.335 77.084 125.404 77.1035 125.474 77.1152C125.548 77.127 125.632 77.1328 125.726 77.1328C126.023 77.1328 126.228 76.9805 126.341 76.6758C126.459 76.3672 126.533 75.8027 126.564 74.9824L126.705 71.7656H131.515V78H130.39V72.6504H127.701ZM133.531 78V71.7656H134.644V75.7383C134.644 75.8555 134.642 75.9883 134.638 76.1367C134.638 76.2852 134.636 76.4199 134.632 76.541H134.679C134.734 76.4355 134.794 76.3242 134.861 76.207C134.927 76.0898 135.003 75.9727 135.089 75.8555L138.025 71.7656H139.156V78H138.036V74.0332C138.036 73.9121 138.038 73.7773 138.042 73.6289C138.046 73.4766 138.052 73.3398 138.06 73.2188H137.995C137.945 73.3203 137.886 73.4316 137.82 73.5527C137.753 73.6738 137.679 73.793 137.597 73.9102L134.661 78H133.531ZM145.577 78L142.876 75.1465L143.567 74.4141L147.013 78H145.577ZM141.722 74.3848H142.952L145.366 71.7656H146.696L143.415 75.2695H141.722V74.3848ZM142.284 71.7656V78H141.165V71.7656H142.284ZM148.085 78V71.7656H149.198V75.7383C149.198 75.8555 149.196 75.9883 149.192 76.1367C149.192 76.2852 149.19 76.4199 149.186 76.541H149.233C149.288 76.4355 149.348 76.3242 149.415 76.207C149.481 76.0898 149.557 75.9727 149.643 75.8555L152.579 71.7656H153.71V78H152.591V74.0332C152.591 73.9121 152.593 73.7773 152.596 73.6289C152.6 73.4766 152.606 73.3398 152.614 73.2188H152.55C152.499 73.3203 152.44 73.4316 152.374 73.5527C152.307 73.6738 152.233 73.793 152.151 73.9102L149.216 78H148.085Z" fill="#04101C"/>
</g>
<g filter="url(#filter1_dd_493_129919)">
<rect x="131" y="133" width="83" height="88" rx="12" fill="white"/>
<path d="M172.029 153.003C169.524 152.956 167.016 153.461 164.781 154.552C161.79 155.979 159.365 158.461 158 161.417C159.515 158.532 162.03 156.233 164.986 155.001C167.932 153.744 171.258 153.529 174.336 154.206C177.415 154.873 180.262 156.522 182.195 158.919C184.154 161.301 185.094 164.378 185 167.417C185 167.432 184.999 167.453 185 167.468C185.01 168.021 185.468 168.458 186.02 168.448C186.572 168.438 187.011 167.981 187 167.429V167.417C186.934 163.959 185.66 160.486 183.33 157.944C181.027 155.377 177.825 153.772 174.523 153.233C173.699 153.097 172.864 153.019 172.029 153.003ZM171.67 155.802C170.422 155.798 169.181 155.979 168 156.343C170.405 155.778 172.954 155.968 175.205 156.851C177.454 157.738 179.404 159.319 180.658 161.321C181.929 163.314 182.476 165.705 182.211 167.995C181.971 170.286 180.923 172.448 179.293 173.96C179.278 173.974 179.26 173.991 179.246 174.007C178.866 174.409 178.885 175.044 179.287 175.423C179.689 175.803 180.322 175.784 180.701 175.382L180.707 175.374C182.582 173.389 183.623 170.74 183.725 168.108C183.854 165.469 183.031 162.826 181.496 160.751C179.975 158.66 177.777 157.136 175.375 156.374C174.171 155.995 172.918 155.806 171.67 155.802ZM175 159.417C176.733 160.166 178.12 161.573 178.844 163.251C179.585 164.915 179.757 166.818 179.371 168.544C178.982 170.269 178.024 171.842 176.672 172.896C175.329 173.959 173.643 174.492 172 174.417C171.972 174.416 171.937 174.416 171.908 174.417C171.356 174.442 170.928 174.912 170.953 175.464C170.978 176.016 171.448 176.442 172 176.417C174.127 176.329 176.169 175.444 177.66 174.026C179.166 172.617 180.1 170.689 180.363 168.716C180.623 166.735 180.237 164.726 179.295 163.024C178.367 161.316 176.79 160.005 175 159.417ZM176 164.417C176.693 165.466 176.654 166.813 176.432 167.95C176.158 169.098 175.394 170.07 174.426 170.63C173.459 171.202 172.303 171.348 171.266 171.118C170.228 170.89 169.327 170.255 168.789 169.429C168.764 169.392 168.733 169.35 168.703 169.315C168.339 168.897 167.705 168.854 167.287 169.218C166.869 169.582 166.827 170.216 167.191 170.634L167.211 170.655C168.205 171.796 169.617 172.489 171.047 172.605C172.471 172.725 173.91 172.311 174.992 171.456C176.079 170.614 176.799 169.347 176.93 168.034C176.996 167.372 176.932 166.739 176.807 166.114C176.679 165.491 176.419 164.883 176 164.417Z" fill="url(#paint7_radial_493_129919)" stroke="url(#paint8_radial_493_129919)"/>
<path d="M148.099 201V192.469H149.623L152.394 198.885C152.445 199.002 152.494 199.125 152.541 199.254C152.591 199.379 152.636 199.496 152.675 199.605H152.722C152.757 199.496 152.798 199.379 152.845 199.254C152.892 199.125 152.941 199.002 152.992 198.885L155.746 192.469H157.298V201H156.173V194.73C156.173 194.613 156.175 194.482 156.179 194.338C156.187 194.189 156.199 194.057 156.214 193.939H156.162C156.13 194.057 156.087 194.189 156.033 194.338C155.982 194.482 155.931 194.613 155.88 194.73L153.197 201H152.16L149.459 194.73C149.408 194.613 149.357 194.482 149.306 194.338C149.259 194.189 149.222 194.057 149.195 193.939H149.142C149.154 194.057 149.164 194.189 149.171 194.338C149.183 194.482 149.189 194.613 149.189 194.73V201H148.099ZM158.786 197.977V197.789C158.786 196.848 159.081 196.08 159.671 195.486C160.265 194.889 161.058 194.59 162.05 194.59C163.038 194.59 163.829 194.889 164.423 195.486C165.017 196.08 165.314 196.848 165.314 197.789V197.977C165.314 198.918 165.017 199.688 164.423 200.285C163.829 200.879 163.038 201.176 162.05 201.176C161.058 201.176 160.265 200.879 159.671 200.285C159.081 199.688 158.786 198.918 158.786 197.977ZM159.935 197.789V197.977C159.935 198.617 160.113 199.156 160.468 199.594C160.824 200.031 161.351 200.25 162.05 200.25C162.749 200.25 163.275 200.031 163.626 199.594C163.982 199.156 164.16 198.617 164.16 197.977V197.789C164.16 197.145 163.982 196.605 163.626 196.172C163.275 195.734 162.749 195.516 162.05 195.516C161.351 195.516 160.824 195.734 160.468 196.172C160.113 196.605 159.935 197.145 159.935 197.789ZM166.403 203.438V202.482C166.521 202.514 166.648 202.539 166.784 202.559C166.925 202.578 167.06 202.588 167.189 202.588C167.505 202.588 167.771 202.5 167.985 202.324C168.204 202.148 168.452 201.695 168.73 200.965V200.959L166.134 194.766H167.265L168.929 198.873C168.991 199.029 169.048 199.182 169.099 199.33C169.153 199.479 169.2 199.623 169.239 199.764H169.275C169.314 199.623 169.36 199.479 169.415 199.33C169.47 199.182 169.526 199.029 169.585 198.873L171.173 194.766H172.269L169.409 201.82C169.183 202.367 168.894 202.793 168.542 203.098C168.194 203.402 167.767 203.555 167.259 203.555C167.087 203.555 166.933 203.545 166.796 203.525C166.659 203.506 166.528 203.477 166.403 203.438ZM173.393 201V194.766H174.518V200.115H177.249V194.766H178.374V200.115H181.104V194.766H182.229V201H173.393ZM183.87 197.977V197.789C183.87 196.848 184.155 196.08 184.725 195.486C185.299 194.889 186.057 194.59 186.999 194.59C187.944 194.59 188.671 194.869 189.178 195.428C189.686 195.982 189.94 196.734 189.94 197.684V198.146H184.538V197.25H188.809V197.221C188.809 196.721 188.667 196.311 188.381 195.99C188.096 195.67 187.639 195.51 187.01 195.51C186.35 195.51 185.85 195.729 185.51 196.166C185.171 196.604 185.001 197.145 185.001 197.789V197.977C185.001 198.621 185.178 199.162 185.534 199.6C185.893 200.037 186.446 200.256 187.192 200.256C187.645 200.256 188.036 200.17 188.364 199.998C188.692 199.822 188.956 199.615 189.155 199.377L189.881 199.975C189.663 200.268 189.323 200.541 188.862 200.795C188.405 201.049 187.848 201.176 187.192 201.176C186.118 201.176 185.296 200.879 184.725 200.285C184.155 199.688 183.87 198.918 183.87 197.977ZM191.475 194.766H192.6V197.379H195.905V194.766H197.03V201H195.905V198.27H192.6V201H191.475V194.766Z" fill="#04101C"/>
</g>
<g filter="url(#filter2_dd_493_129919)">
<rect x="206" y="252" width="106" height="104" rx="12" fill="white"/>
<path d="M274 281.479C274 280.018 272.962 278.799 271.583 278.519V271.208C271.583 270.579 271.101 270.056 270.475 270.004C269.854 269.946 269.288 270.389 269.184 271.009C268.714 273.828 264.809 274.833 261.312 274.833H251.646C247.981 274.833 245 277.814 245 281.479C245 283.474 245.885 285.267 247.281 286.487L251.078 296.616C251.409 297.525 252.076 298.252 252.953 298.66C253.44 298.888 253.96 299.001 254.481 299.001C254.9 299.001 255.319 298.928 255.725 298.78C256.634 298.449 257.361 297.782 257.77 296.905C258.178 296.026 258.22 295.043 257.889 294.135L255.711 288.125H261.312C264.809 288.125 268.714 289.129 269.184 291.949C269.281 292.535 269.789 292.958 270.374 292.958C270.408 292.958 270.441 292.958 270.474 292.955C271.101 292.903 271.582 292.38 271.582 291.75V284.44C272.961 284.159 274 282.941 274 281.479ZM251.646 277.25H253.453L253.417 285.708H251.647C249.315 285.708 247.418 283.811 247.418 281.479C247.418 279.147 249.314 277.25 251.646 277.25ZM255.619 294.961C255.729 295.263 255.716 295.591 255.579 295.884C255.442 296.176 255.201 296.398 254.897 296.51C254.595 296.621 254.267 296.606 253.974 296.47C253.682 296.333 253.46 296.092 253.345 295.779L250.435 288.015C250.828 288.088 251.233 288.126 251.646 288.126H253.141L255.619 294.962V294.961ZM269.167 287.761C267.37 286.438 264.672 285.708 261.312 285.708H255.833L255.869 277.25H261.311C264.67 277.25 267.369 276.52 269.165 275.197V287.76L269.167 287.761Z" fill="url(#paint9_radial_493_129919)"/>
<path d="M223.338 320V311.469H226.414C227.438 311.469 228.223 311.705 228.77 312.178C229.32 312.646 229.596 313.277 229.596 314.07C229.596 314.859 229.32 315.494 228.77 315.975C228.223 316.451 227.438 316.689 226.414 316.689H224.504V320H223.338ZM224.504 315.734H226.414C227.16 315.734 227.682 315.574 227.979 315.254C228.279 314.934 228.43 314.539 228.43 314.07C228.43 313.598 228.279 313.207 227.979 312.898C227.682 312.586 227.16 312.43 226.414 312.43H224.504V315.734ZM230.463 316.977V316.789C230.463 315.848 230.748 315.08 231.318 314.486C231.892 313.889 232.65 313.59 233.592 313.59C234.537 313.59 235.264 313.869 235.771 314.428C236.279 314.982 236.533 315.734 236.533 316.684V317.146H231.131V316.25H235.402V316.221C235.402 315.721 235.26 315.311 234.974 314.99C234.689 314.67 234.232 314.51 233.603 314.51C232.943 314.51 232.443 314.729 232.103 315.166C231.764 315.604 231.594 316.145 231.594 316.789V316.977C231.594 317.621 231.771 318.162 232.127 318.6C232.486 319.037 233.039 319.256 233.785 319.256C234.238 319.256 234.629 319.17 234.957 318.998C235.285 318.822 235.549 318.615 235.748 318.377L236.474 318.975C236.256 319.268 235.916 319.541 235.455 319.795C234.998 320.049 234.441 320.176 233.785 320.176C232.711 320.176 231.889 319.879 231.318 319.285C230.748 318.688 230.463 317.918 230.463 316.977ZM242.48 320L239.779 317.146L240.47 316.414L243.916 320H242.48ZM238.625 316.385H239.855L242.269 313.766H243.599L240.318 317.27H238.625V316.385ZM239.187 313.766V320H238.068V313.766H239.187ZM246.617 314.65L246.511 317.135C246.464 318.186 246.32 318.947 246.077 319.42C245.839 319.893 245.427 320.129 244.841 320.129C244.697 320.129 244.57 320.119 244.46 320.1C244.351 320.084 244.259 320.059 244.185 320.023V319.057C244.251 319.084 244.32 319.104 244.39 319.115C244.464 319.127 244.548 319.133 244.642 319.133C244.939 319.133 245.144 318.98 245.257 318.676C245.374 318.367 245.449 317.803 245.48 316.982L245.62 313.766H250.431V320H249.306V314.65H246.617ZM252.095 318.166C252.095 317.529 252.368 317.035 252.915 316.684C253.466 316.332 254.179 316.156 255.054 316.156H256.724V315.711C256.724 315.336 256.607 315.037 256.372 314.814C256.142 314.592 255.747 314.48 255.189 314.48C254.634 314.48 254.234 314.576 253.987 314.768C253.741 314.955 253.618 315.182 253.618 315.447V315.477H252.493V315.447C252.493 314.936 252.737 314.498 253.226 314.135C253.714 313.771 254.378 313.59 255.218 313.59C256.054 313.59 256.7 313.77 257.157 314.129C257.618 314.484 257.849 315.012 257.849 315.711V318.594C257.849 318.848 257.87 319.088 257.913 319.314C257.956 319.537 258.017 319.734 258.095 319.906V320H257.011C256.948 319.902 256.892 319.773 256.841 319.613C256.79 319.453 256.759 319.295 256.747 319.139C256.583 319.4 256.31 319.629 255.927 319.824C255.544 320.02 255.054 320.117 254.456 320.117C253.784 320.117 253.222 319.949 252.769 319.613C252.319 319.277 252.095 318.795 252.095 318.166ZM253.22 318.107C253.22 318.459 253.341 318.732 253.583 318.928C253.825 319.123 254.204 319.221 254.72 319.221C255.235 319.221 255.698 319.072 256.109 318.775C256.519 318.479 256.724 318.164 256.724 317.832V316.953H255.183C254.542 316.953 254.054 317.057 253.718 317.264C253.386 317.467 253.22 317.748 253.22 318.107ZM259.847 320V313.766H261.399L263.362 318.084C263.468 318.318 263.534 318.479 263.561 318.564C263.593 318.646 263.618 318.734 263.638 318.828H263.702C263.722 318.734 263.745 318.646 263.772 318.564C263.8 318.479 263.866 318.322 263.972 318.096L265.946 313.766H267.47V320H266.38V315.734C266.38 315.504 266.382 315.338 266.386 315.236C266.393 315.135 266.403 315.043 266.415 314.961H266.368C266.349 315.039 266.323 315.127 266.292 315.225C266.261 315.322 266.196 315.479 266.099 315.693L264.13 320H263.14L261.165 315.676C261.083 315.488 261.024 315.342 260.989 315.236C260.954 315.131 260.929 315.039 260.913 314.961H260.854C260.862 315.043 260.87 315.135 260.878 315.236C260.886 315.334 260.89 315.488 260.89 315.699V320H259.847ZM269.485 313.766H270.61V316.379H273.915V313.766H275.04V320H273.915V317.27H270.61V320H269.485V313.766ZM278.174 313.766V315.893H279.985C280.762 315.893 281.36 316.076 281.778 316.443C282.2 316.807 282.411 317.303 282.411 317.932C282.411 318.557 282.2 319.059 281.778 319.438C281.36 319.812 280.762 320 279.985 320H277.049V313.766H278.174ZM279.979 316.783H278.174V319.115H279.979C280.459 319.115 280.795 319.004 280.987 318.781C281.182 318.559 281.28 318.275 281.28 317.932C281.28 317.596 281.182 317.32 280.987 317.105C280.795 316.891 280.459 316.783 279.979 316.783ZM283.26 320V313.766H284.385V320H283.26ZM286.026 316.977V316.789C286.026 315.848 286.311 315.08 286.881 314.486C287.455 313.889 288.213 313.59 289.154 313.59C290.1 313.59 290.826 313.869 291.334 314.428C291.842 314.982 292.096 315.734 292.096 316.684V317.146H286.694V316.25H290.965V316.221C290.965 315.721 290.822 315.311 290.537 314.99C290.252 314.67 289.795 314.51 289.166 314.51C288.506 314.51 288.006 314.729 287.666 315.166C287.326 315.604 287.156 316.145 287.156 316.789V316.977C287.156 317.621 287.334 318.162 287.69 318.6C288.049 319.037 288.602 319.256 289.348 319.256C289.801 319.256 290.192 319.17 290.52 318.998C290.848 318.822 291.111 318.615 291.311 318.377L292.037 318.975C291.819 319.268 291.479 319.541 291.018 319.795C290.561 320.049 290.004 320.176 289.348 320.176C288.274 320.176 287.451 319.879 286.881 319.285C286.311 318.688 286.026 317.918 286.026 316.977ZM224.94 336V329.766H226.493L228.456 334.084C228.561 334.318 228.628 334.479 228.655 334.564C228.686 334.646 228.712 334.734 228.731 334.828H228.796C228.815 334.734 228.839 334.646 228.866 334.564C228.894 334.479 228.96 334.322 229.065 334.096L231.04 329.766H232.563V336H231.474V331.734C231.474 331.504 231.476 331.338 231.479 331.236C231.487 331.135 231.497 331.043 231.509 330.961H231.462C231.442 331.039 231.417 331.127 231.386 331.225C231.354 331.322 231.29 331.479 231.192 331.693L229.224 336H228.233L226.259 331.676C226.177 331.488 226.118 331.342 226.083 331.236C226.048 331.131 226.022 331.039 226.007 330.961H225.948C225.956 331.043 225.964 331.135 225.972 331.236C225.979 331.334 225.983 331.488 225.983 331.699V336H224.94ZM234.227 334.166C234.227 333.529 234.501 333.035 235.048 332.684C235.598 332.332 236.311 332.156 237.186 332.156H238.856V331.711C238.856 331.336 238.739 331.037 238.505 330.814C238.274 330.592 237.88 330.48 237.321 330.48C236.766 330.48 236.366 330.576 236.12 330.768C235.874 330.955 235.751 331.182 235.751 331.447V331.477H234.626V331.447C234.626 330.936 234.87 330.498 235.358 330.135C235.846 329.771 236.51 329.59 237.35 329.59C238.186 329.59 238.833 329.77 239.29 330.129C239.751 330.484 239.981 331.012 239.981 331.711V334.594C239.981 334.848 240.003 335.088 240.046 335.314C240.089 335.537 240.149 335.734 240.227 335.906V336H239.143C239.081 335.902 239.024 335.773 238.973 335.613C238.923 335.453 238.891 335.295 238.88 335.139C238.716 335.4 238.442 335.629 238.059 335.824C237.676 336.02 237.186 336.117 236.589 336.117C235.917 336.117 235.354 335.949 234.901 335.613C234.452 335.277 234.227 334.795 234.227 334.166ZM235.352 334.107C235.352 334.459 235.473 334.732 235.716 334.928C235.958 335.123 236.337 335.221 236.852 335.221C237.368 335.221 237.831 335.072 238.241 334.775C238.651 334.479 238.856 334.164 238.856 333.832V332.953H237.315C236.675 332.953 236.186 333.057 235.85 333.264C235.518 333.467 235.352 333.748 235.352 334.107ZM241.288 330.65V329.766H246.854V330.65H244.633V336H243.508V330.65H241.288ZM247.815 332.977V332.789C247.815 331.848 248.1 331.08 248.67 330.486C249.244 329.889 250.002 329.59 250.944 329.59C251.889 329.59 252.615 329.869 253.123 330.428C253.631 330.982 253.885 331.734 253.885 332.684V333.146H248.483V332.25H252.754V332.221C252.754 331.721 252.612 331.311 252.326 330.99C252.041 330.67 251.584 330.51 250.955 330.51C250.295 330.51 249.795 330.729 249.455 331.166C249.115 331.604 248.946 332.145 248.946 332.789V332.977C248.946 333.621 249.123 334.162 249.479 334.6C249.838 335.037 250.391 335.256 251.137 335.256C251.59 335.256 251.981 335.17 252.309 334.998C252.637 334.822 252.901 334.615 253.1 334.377L253.826 334.975C253.608 335.268 253.268 335.541 252.807 335.795C252.35 336.049 251.793 336.176 251.137 336.176C250.063 336.176 249.24 335.879 248.67 335.285C248.1 334.688 247.815 333.918 247.815 332.977ZM255.42 338.438V329.766H256.439L256.492 330.621H256.516C256.703 330.352 256.986 330.123 257.365 329.936C257.744 329.744 258.188 329.648 258.695 329.648C259.57 329.648 260.27 329.945 260.793 330.539C261.32 331.129 261.584 331.879 261.584 332.789V332.977C261.584 333.883 261.32 334.633 260.793 335.227C260.27 335.82 259.57 336.117 258.695 336.117C258.188 336.117 257.756 336.035 257.4 335.871C257.045 335.707 256.76 335.49 256.545 335.221V338.438H255.42ZM256.545 334.084C256.686 334.373 256.918 334.631 257.242 334.857C257.566 335.08 257.961 335.191 258.426 335.191C259.117 335.191 259.623 334.98 259.943 334.559C260.268 334.133 260.43 333.605 260.43 332.977V332.789C260.43 332.156 260.268 331.629 259.943 331.207C259.623 330.785 259.117 330.574 258.426 330.574C257.961 330.574 257.566 330.688 257.242 330.914C256.922 331.137 256.689 331.393 256.545 331.682V334.084ZM263.23 336V329.766H264.344V333.738C264.344 333.855 264.342 333.988 264.338 334.137C264.338 334.285 264.336 334.42 264.332 334.541H264.379C264.433 334.436 264.494 334.324 264.56 334.207C264.627 334.09 264.703 333.973 264.789 333.855L267.724 329.766H268.855V336H267.736V332.033C267.736 331.912 267.738 331.777 267.742 331.629C267.746 331.477 267.752 331.34 267.76 331.219H267.695C267.644 331.32 267.586 331.432 267.519 331.553C267.453 331.674 267.379 331.793 267.297 331.91L264.361 336H263.23ZM270.513 334.166C270.513 333.529 270.787 333.035 271.334 332.684C271.884 332.332 272.597 332.156 273.472 332.156H275.142V331.711C275.142 331.336 275.025 331.037 274.791 330.814C274.56 330.592 274.166 330.48 273.607 330.48C273.052 330.48 272.652 330.576 272.406 330.768C272.16 330.955 272.037 331.182 272.037 331.447V331.477H270.912V331.447C270.912 330.936 271.156 330.498 271.644 330.135C272.132 329.771 272.796 329.59 273.636 329.59C274.472 329.59 275.119 329.77 275.576 330.129C276.037 330.484 276.267 331.012 276.267 331.711V334.594C276.267 334.848 276.289 335.088 276.332 335.314C276.375 335.537 276.435 335.734 276.513 335.906V336H275.429C275.367 335.902 275.31 335.773 275.259 335.613C275.209 335.453 275.177 335.295 275.166 335.139C275.001 335.4 274.728 335.629 274.345 335.824C273.962 336.02 273.472 336.117 272.875 336.117C272.203 336.117 271.64 335.949 271.187 335.613C270.738 335.277 270.513 334.795 270.513 334.166ZM271.638 334.107C271.638 334.459 271.759 334.732 272.001 334.928C272.244 335.123 272.623 335.221 273.138 335.221C273.654 335.221 274.117 335.072 274.527 334.775C274.937 334.479 275.142 334.164 275.142 333.832V332.953H273.601C272.96 332.953 272.472 333.057 272.136 333.264C271.804 333.467 271.638 333.748 271.638 334.107ZM279.894 330.65L279.788 333.135C279.741 334.186 279.597 334.947 279.355 335.42C279.116 335.893 278.704 336.129 278.118 336.129C277.974 336.129 277.847 336.119 277.738 336.1C277.628 336.084 277.536 336.059 277.462 336.023V335.057C277.529 335.084 277.597 335.104 277.667 335.115C277.741 335.127 277.825 335.133 277.919 335.133C278.216 335.133 278.421 334.98 278.534 334.676C278.652 334.367 278.726 333.803 278.757 332.982L278.898 329.766H283.708V336H282.583V330.65H279.894ZM286.849 329.766V331.893H288.659C289.437 331.893 290.034 332.076 290.452 332.443C290.874 332.807 291.085 333.303 291.085 333.932C291.085 334.557 290.874 335.059 290.452 335.438C290.034 335.812 289.437 336 288.659 336H285.724V329.766H286.849ZM288.653 332.783H286.849V335.115H288.653C289.134 335.115 289.47 335.004 289.661 334.781C289.856 334.559 289.954 334.275 289.954 333.932C289.954 333.596 289.856 333.32 289.661 333.105C289.47 332.891 289.134 332.783 288.653 332.783ZM291.935 336V329.766H293.06V336H291.935Z" fill="#04101C"/>
</g>
<g filter="url(#filter3_dd_493_129919)">
<rect x="9" y="133" width="99" height="88" rx="12" fill="white"/>
<path d="M65.9348 178H44.5V158M65.9348 178V158M65.9348 178L73.5 171.75V153M65.9348 158H44.5M65.9348 158L73.5 153M44.5 158L52.0652 153H73.5" stroke="url(#paint10_radial_493_129919)" stroke-width="3"/>
<path d="M25.6591 198.762V198.703H26.79V198.762C26.79 199.223 26.9658 199.58 27.3173 199.834C27.6689 200.088 28.1357 200.215 28.7177 200.215C29.2959 200.215 29.7588 200.088 30.1064 199.834C30.4541 199.58 30.6279 199.184 30.6279 198.645C30.6279 198.105 30.4326 197.701 30.042 197.432C29.6552 197.158 29.1338 197.021 28.4775 197.021H27.7275V196.09H28.413C29.0185 196.09 29.4853 195.961 29.8134 195.703C30.1455 195.445 30.3115 195.086 30.3115 194.625C30.3115 194.164 30.167 193.82 29.8779 193.594C29.5927 193.367 29.206 193.254 28.7177 193.254C28.2216 193.254 27.8193 193.367 27.5107 193.594C27.2021 193.82 27.0478 194.145 27.0478 194.566V194.625H25.9111V194.566C25.9111 193.938 26.1728 193.402 26.6963 192.961C27.2236 192.516 27.8974 192.293 28.7177 192.293C29.5263 192.293 30.1884 192.506 30.7041 192.932C31.2197 193.354 31.4775 193.896 31.4775 194.561C31.4775 194.951 31.3623 195.326 31.1318 195.686C30.9013 196.041 30.54 196.316 30.0478 196.512V196.535C30.5791 196.66 31.0048 196.908 31.3252 197.279C31.6455 197.646 31.8056 198.102 31.8056 198.645C31.8056 199.434 31.5146 200.053 30.9326 200.502C30.3505 200.951 29.6123 201.176 28.7177 201.176C27.8037 201.176 27.0654 200.951 26.5029 200.502C25.9404 200.049 25.6591 199.469 25.6591 198.762ZM33.7038 201V192.469H36.4695C37.657 192.469 38.6452 192.834 39.4343 193.564C40.2273 194.291 40.6238 195.275 40.6238 196.518V196.951C40.6238 198.193 40.2273 199.18 39.4343 199.91C38.6452 200.637 37.657 201 36.4695 201H33.7038ZM34.8698 200.039H36.4695C37.3757 200.039 38.0984 199.77 38.6374 199.23C39.1765 198.688 39.446 197.928 39.446 196.951V196.518C39.446 195.541 39.1765 194.783 38.6374 194.244C38.0984 193.701 37.3757 193.43 36.4695 193.43H34.8698V200.039ZM45.6096 201V194.766H47.1623L49.1252 199.084C49.2307 199.318 49.2971 199.479 49.3245 199.564C49.3557 199.646 49.3811 199.734 49.4006 199.828H49.4651C49.4846 199.734 49.508 199.646 49.5354 199.564C49.5627 199.479 49.6291 199.322 49.7346 199.096L51.7092 194.766H53.2327V201H52.1428V196.734C52.1428 196.504 52.1448 196.338 52.1487 196.236C52.1565 196.135 52.1663 196.043 52.178 195.961H52.1311C52.1116 196.039 52.0862 196.127 52.0549 196.225C52.0237 196.322 51.9592 196.479 51.8616 196.693L49.8928 201H48.9026L46.928 196.676C46.8459 196.488 46.7873 196.342 46.7522 196.236C46.717 196.131 46.6916 196.039 46.676 195.961H46.6174C46.6252 196.043 46.633 196.135 46.6409 196.236C46.6487 196.334 46.6526 196.488 46.6526 196.699V201H45.6096ZM54.8789 197.977V197.789C54.8789 196.848 55.1738 196.08 55.7637 195.486C56.3574 194.889 57.1504 194.59 58.1426 194.59C59.1309 194.59 59.9219 194.889 60.5156 195.486C61.1094 196.08 61.4062 196.848 61.4062 197.789V197.977C61.4062 198.918 61.1094 199.688 60.5156 200.285C59.9219 200.879 59.1309 201.176 58.1426 201.176C57.1504 201.176 56.3574 200.879 55.7637 200.285C55.1738 199.688 54.8789 198.918 54.8789 197.977ZM56.0273 197.789V197.977C56.0273 198.617 56.2051 199.156 56.5605 199.594C56.916 200.031 57.4434 200.25 58.1426 200.25C58.8418 200.25 59.3672 200.031 59.7188 199.594C60.0742 199.156 60.252 198.617 60.252 197.977V197.789C60.252 197.145 60.0742 196.605 59.7188 196.172C59.3672 195.734 58.8418 195.516 58.1426 195.516C57.4434 195.516 56.916 195.734 56.5605 196.172C56.2051 196.605 56.0273 197.145 56.0273 197.789ZM68.2791 202.582V201H63.2576V202.582H62.2263V200.115H69.3162V202.582H68.2791ZM64.4763 195.65L64.3826 197.766C64.3513 198.484 64.3064 199.014 64.2478 199.354C64.1931 199.689 64.1111 199.975 64.0017 200.209H62.8357C62.9763 200.021 63.0877 199.752 63.1697 199.4C63.2556 199.045 63.3162 198.453 63.3513 197.625L63.4802 194.766H68.3787V201H67.2478V195.65H64.4763ZM70.2066 197.977V197.789C70.2066 196.848 70.4917 196.08 71.062 195.486C71.6362 194.889 72.3941 194.59 73.3355 194.59C74.2808 194.59 75.0073 194.869 75.5152 195.428C76.023 195.982 76.2769 196.734 76.2769 197.684V198.146H70.8745V197.25H75.146V197.221C75.146 196.721 75.0034 196.311 74.7183 195.99C74.4331 195.67 73.9761 195.51 73.3472 195.51C72.687 195.51 72.187 195.729 71.8472 196.166C71.5073 196.604 71.3374 197.145 71.3374 197.789V197.977C71.3374 198.621 71.5152 199.162 71.8706 199.6C72.23 200.037 72.7827 200.256 73.5288 200.256C73.982 200.256 74.3726 200.17 74.7007 199.998C75.0288 199.822 75.2925 199.615 75.4917 199.377L76.2183 199.975C75.9995 200.268 75.6597 200.541 75.1987 200.795C74.7417 201.049 74.1851 201.176 73.5288 201.176C72.4546 201.176 71.6323 200.879 71.062 200.285C70.4917 199.688 70.2066 198.918 70.2066 197.977ZM79.4407 195.65L79.3352 198.135C79.2884 199.186 79.1438 199.947 78.9016 200.42C78.6634 200.893 78.2513 201.129 77.6653 201.129C77.5208 201.129 77.3938 201.119 77.2845 201.1C77.1751 201.084 77.0833 201.059 77.0091 201.023V200.057C77.0755 200.084 77.1438 200.104 77.2141 200.115C77.2884 200.127 77.3723 200.133 77.4661 200.133C77.763 200.133 77.968 199.98 78.0813 199.676C78.1985 199.367 78.2727 198.803 78.304 197.982L78.4446 194.766H83.2552V201H82.1302V195.65H79.4407ZM85.2705 201V194.766H86.3838V198.738C86.3838 198.855 86.3819 198.988 86.378 199.137C86.378 199.285 86.376 199.42 86.3721 199.541H86.419C86.4737 199.436 86.5342 199.324 86.6006 199.207C86.667 199.09 86.7432 198.973 86.8291 198.855L89.7647 194.766H90.8955V201H89.7764V197.033C89.7764 196.912 89.7784 196.777 89.7823 196.629C89.7862 196.477 89.792 196.34 89.7998 196.219H89.7354C89.6846 196.32 89.626 196.432 89.5596 196.553C89.4932 196.674 89.419 196.793 89.337 196.91L86.4014 201H85.2705Z" fill="#04101C"/>
</g>
<g filter="url(#filter4_dd_493_129919)">
<rect x="26" y="252" width="108" height="104" rx="12" fill="white"/>
<g clip-path="url(#clip1_493_129919)">
<path d="M79.2917 270V273.625H81.7083V270H79.2917ZM71.1024 273.394L69.3937 275.102L71.9567 277.665L73.6654 275.957L71.1024 273.394ZM89.8976 273.394L87.3346 275.957L89.0433 277.665L91.6063 275.102L89.8976 273.394ZM80.5 276.042C75.8427 276.042 72.0417 279.843 72.0417 284.5C72.0417 287.844 74.0428 290.665 76.875 292.033V295.375C76.875 296.696 77.9709 297.792 79.2917 297.792H81.7083C83.0291 297.792 84.125 296.696 84.125 295.375V292.033C86.9572 290.665 88.9583 287.844 88.9583 284.5C88.9583 279.843 85.1573 276.042 80.5 276.042ZM80.5 278.458C83.8515 278.458 86.5417 281.148 86.5417 284.5C86.5417 287.139 84.8564 289.361 82.5131 290.19L81.7083 290.473V295.375H79.2917V290.473L78.4869 290.19C76.1436 289.361 74.4583 287.139 74.4583 284.5C74.4583 281.148 77.1485 278.458 80.5 278.458ZM66 283.292V285.708H69.625V283.292H66ZM91.375 283.292V285.708H95V283.292H91.375ZM71.9567 291.335L69.3937 293.898L71.1024 295.606L73.6654 293.043L71.9567 291.335ZM89.0433 291.335L87.3346 293.043L89.8976 295.606L91.6063 293.898L89.0433 291.335Z" fill="url(#paint11_radial_493_129919)"/>
</g>
<path d="M48.6505 320L44.8184 315.67L45.7911 315.178L50.0802 320H48.6505ZM43.8809 315.119H45.1759L48.4981 311.469H49.8165L45.6095 316.08H43.8809V315.119ZM43.3009 320V311.469H44.4669V320H43.3009ZM51.0877 322.438V313.766H52.1073L52.16 314.621H52.1834C52.3709 314.352 52.6541 314.123 53.033 313.936C53.412 313.744 53.8553 313.648 54.3631 313.648C55.2381 313.648 55.9373 313.945 56.4608 314.539C56.9881 315.129 57.2518 315.879 57.2518 316.789V316.977C57.2518 317.883 56.9881 318.633 56.4608 319.227C55.9373 319.82 55.2381 320.117 54.3631 320.117C53.8553 320.117 53.4237 320.035 53.0682 319.871C52.7127 319.707 52.4276 319.49 52.2127 319.221V322.438H51.0877ZM52.2127 318.084C52.3534 318.373 52.5858 318.631 52.91 318.857C53.2342 319.08 53.6287 319.191 54.0936 319.191C54.785 319.191 55.2909 318.98 55.6112 318.559C55.9354 318.133 56.0975 317.605 56.0975 316.977V316.789C56.0975 316.156 55.9354 315.629 55.6112 315.207C55.2909 314.785 54.785 314.574 54.0936 314.574C53.6287 314.574 53.2342 314.688 52.91 314.914C52.5897 315.137 52.3573 315.393 52.2127 315.682V318.084ZM58.5289 316.977V316.789C58.5289 315.848 58.8141 315.08 59.3844 314.486C59.9586 313.889 60.7164 313.59 61.6578 313.59C62.6031 313.59 63.3297 313.869 63.8375 314.428C64.3453 314.982 64.5992 315.734 64.5992 316.684V317.146H59.1969V316.25H63.4684V316.221C63.4684 315.721 63.3258 315.311 63.0406 314.99C62.7555 314.67 62.2984 314.51 61.6695 314.51C61.0094 314.51 60.5094 314.729 60.1695 315.166C59.8297 315.604 59.6598 316.145 59.6598 316.789V316.977C59.6598 317.621 59.8375 318.162 60.193 318.6C60.5523 319.037 61.1051 319.256 61.8512 319.256C62.3043 319.256 62.6949 319.17 63.023 318.998C63.3512 318.822 63.6148 318.615 63.8141 318.377L64.5406 318.975C64.3219 319.268 63.982 319.541 63.5211 319.795C63.0641 320.049 62.5074 320.176 61.8512 320.176C60.777 320.176 59.9547 319.879 59.3844 319.285C58.8141 318.688 58.5289 317.918 58.5289 316.977ZM65.7826 318.166C65.7826 317.529 66.056 317.035 66.6029 316.684C67.1537 316.332 67.8666 316.156 68.7416 316.156H70.4115V315.711C70.4115 315.336 70.2943 315.037 70.0599 314.814C69.8295 314.592 69.4349 314.48 68.8763 314.48C68.3216 314.48 67.9212 314.576 67.6752 314.768C67.4291 314.955 67.306 315.182 67.306 315.447V315.477H66.181V315.447C66.181 314.936 66.4252 314.498 66.9134 314.135C67.4017 313.771 68.0658 313.59 68.9056 313.59C69.7416 313.59 70.388 313.77 70.8451 314.129C71.306 314.484 71.5365 315.012 71.5365 315.711V318.594C71.5365 318.848 71.558 319.088 71.6009 319.314C71.6439 319.537 71.7045 319.734 71.7826 319.906V320H70.6986C70.6361 319.902 70.5795 319.773 70.5287 319.613C70.4779 319.453 70.4466 319.295 70.4349 319.139C70.2709 319.4 69.9974 319.629 69.6146 319.824C69.2318 320.02 68.7416 320.117 68.1439 320.117C67.472 320.117 66.9095 319.949 66.4564 319.613C66.0072 319.277 65.7826 318.795 65.7826 318.166ZM66.9076 318.107C66.9076 318.459 67.0287 318.732 67.2709 318.928C67.513 319.123 67.892 319.221 68.4076 319.221C68.9232 319.221 69.3861 319.072 69.7962 318.775C70.2064 318.479 70.4115 318.164 70.4115 317.832V316.953H68.8705C68.2298 316.953 67.7416 317.057 67.4056 317.264C67.0736 317.467 66.9076 317.748 66.9076 318.107ZM72.8429 314.65V313.766H78.4093V314.65H76.1886V320H75.0636V314.65H72.8429ZM79.7391 320V313.766H80.8524V317.738C80.8524 317.855 80.8505 317.988 80.8466 318.137C80.8466 318.285 80.8446 318.42 80.8407 318.541H80.8876C80.9423 318.436 81.0028 318.324 81.0692 318.207C81.1356 318.09 81.2118 317.973 81.2977 317.855L84.2333 313.766H85.3641V320H84.245V316.033C84.245 315.912 84.247 315.777 84.2509 315.629C84.2548 315.477 84.2606 315.34 84.2684 315.219H84.204C84.1532 315.32 84.0946 315.432 84.0282 315.553C83.9618 315.674 83.8876 315.793 83.8055 315.91L80.87 320H79.7391ZM87.3737 320V313.766H90.4967C91.2077 313.766 91.7623 313.904 92.1608 314.182C92.5631 314.455 92.7643 314.871 92.7643 315.43C92.7643 315.777 92.6608 316.068 92.4537 316.303C92.2467 316.537 91.9694 316.695 91.6217 316.777V316.795C92.0436 316.857 92.3756 317.012 92.6178 317.258C92.86 317.5 92.9811 317.811 92.9811 318.189C92.9811 318.76 92.7702 319.205 92.3483 319.525C91.9264 319.842 91.3678 320 90.6725 320H87.3737ZM88.4987 316.391H90.4967C90.8991 316.391 91.1881 316.311 91.3639 316.15C91.5397 315.99 91.6276 315.77 91.6276 315.488C91.6276 315.215 91.5397 315.008 91.3639 314.867C91.1881 314.727 90.8991 314.654 90.4967 314.65H88.4987V316.391ZM88.4987 319.115H90.6725C91.0787 319.115 91.3756 319.031 91.5631 318.863C91.7545 318.695 91.8502 318.469 91.8502 318.184C91.8502 317.906 91.7565 317.686 91.569 317.521C91.3815 317.354 91.0827 317.27 90.6725 317.27H88.4987V319.115ZM94.6918 313.766H95.8168V316.379H99.1215V313.766H100.246V320H99.1215V317.27H95.8168V320H94.6918V313.766ZM103.381 313.766V315.893H105.192C105.969 315.893 106.567 316.076 106.985 316.443C107.406 316.807 107.617 317.303 107.617 317.932C107.617 318.557 107.406 319.059 106.985 319.438C106.567 319.812 105.969 320 105.192 320H102.256V313.766H103.381ZM105.186 316.783H103.381V319.115H105.186C105.666 319.115 106.002 319.004 106.194 318.781C106.389 318.559 106.486 318.275 106.486 317.932C106.486 317.596 106.389 317.32 106.194 317.105C106.002 316.891 105.666 316.783 105.186 316.783ZM108.467 320V313.766H109.592V320H108.467ZM111.232 316.977V316.789C111.232 315.848 111.518 315.08 112.088 314.486C112.662 313.889 113.42 313.59 114.361 313.59C115.307 313.59 116.033 313.869 116.541 314.428C117.049 314.982 117.303 315.734 117.303 316.684V317.146H111.9V316.25H116.172V316.221C116.172 315.721 116.029 315.311 115.744 314.99C115.459 314.67 115.002 314.51 114.373 314.51C113.713 314.51 113.213 314.729 112.873 315.166C112.533 315.604 112.363 316.145 112.363 316.789V316.977C112.363 317.621 112.541 318.162 112.896 318.6C113.256 319.037 113.809 319.256 114.555 319.256C115.008 319.256 115.398 319.17 115.726 318.998C116.055 318.822 116.318 318.615 116.518 318.377L117.244 318.975C117.025 319.268 116.685 319.541 116.225 319.795C115.768 320.049 115.211 320.176 114.555 320.176C113.48 320.176 112.658 319.879 112.088 319.285C111.518 318.688 111.232 317.918 111.232 316.977ZM51.5947 336L48.8935 333.146L49.5849 332.414L53.0302 336H51.5947ZM47.7392 332.385H48.9697L51.3838 329.766H52.7138L49.4326 333.27H47.7392V332.385ZM48.3017 329.766V336H47.1826V329.766H48.3017ZM53.7331 332.977V332.789C53.7331 331.848 54.028 331.08 54.6179 330.486C55.2116 329.889 56.0046 329.59 56.9968 329.59C57.9851 329.59 58.7761 329.889 59.3698 330.486C59.9636 331.08 60.2605 331.848 60.2605 332.789V332.977C60.2605 333.918 59.9636 334.688 59.3698 335.285C58.7761 335.879 57.9851 336.176 56.9968 336.176C56.0046 336.176 55.2116 335.879 54.6179 335.285C54.028 334.688 53.7331 333.918 53.7331 332.977ZM54.8816 332.789V332.977C54.8816 333.617 55.0593 334.156 55.4148 334.594C55.7702 335.031 56.2976 335.25 56.9968 335.25C57.696 335.25 58.2214 335.031 58.573 334.594C58.9284 334.156 59.1062 333.617 59.1062 332.977V332.789C59.1062 332.145 58.9284 331.605 58.573 331.172C58.2214 330.734 57.696 330.516 56.9968 330.516C56.2976 330.516 55.7702 330.734 55.4148 331.172C55.0593 331.605 54.8816 332.145 54.8816 332.789ZM61.9009 329.766H63.0259V332.379H66.3305V329.766H67.4555V336H66.3305V333.27H63.0259V336H61.9009V329.766ZM74.844 337.582V336H69.4651V329.766H70.5901V335.115H73.8127V329.766H74.9377V335.115H75.8752V337.582H74.844ZM76.7656 332.977V332.789C76.7656 331.848 77.0508 331.08 77.6211 330.486C78.1953 329.889 78.9531 329.59 79.8945 329.59C80.8398 329.59 81.5664 329.869 82.0742 330.428C82.582 330.982 82.8359 331.734 82.8359 332.684V333.146H77.4336V332.25H81.7051V332.221C81.7051 331.721 81.5625 331.311 81.2773 330.99C80.9922 330.67 80.5352 330.51 79.9062 330.51C79.2461 330.51 78.7461 330.729 78.4062 331.166C78.0664 331.604 77.8965 332.145 77.8965 332.789V332.977C77.8965 333.621 78.0742 334.162 78.4297 334.6C78.7891 335.037 79.3418 335.256 80.0879 335.256C80.541 335.256 80.9316 335.17 81.2598 334.998C81.5879 334.822 81.8516 334.615 82.0508 334.377L82.7773 334.975C82.5586 335.268 82.2188 335.541 81.7578 335.795C81.3008 336.049 80.7441 336.176 80.0879 336.176C79.0137 336.176 78.1914 335.879 77.6211 335.285C77.0508 334.688 76.7656 333.918 76.7656 332.977ZM84.3709 329.766H89.8728V336H88.7478V330.65H85.4959V336H84.3709V329.766ZM97.2671 337.582V336H91.8882V329.766H93.0132V335.115H96.2359V329.766H97.3609V335.115H98.2984V337.582H97.2671ZM99.5579 336V329.766H100.671V333.738C100.671 333.855 100.669 333.988 100.665 334.137C100.665 334.285 100.663 334.42 100.659 334.541H100.706C100.761 334.436 100.822 334.324 100.888 334.207C100.954 334.09 101.031 333.973 101.116 333.855L104.052 329.766H105.183V336H104.064V332.033C104.064 331.912 104.066 331.777 104.07 331.629C104.074 331.477 104.079 331.34 104.087 331.219H104.023C103.972 331.32 103.913 331.432 103.847 331.553C103.781 331.674 103.706 331.793 103.624 331.91L100.689 336H99.5579ZM107.192 336V329.766H108.306V333.738C108.306 333.855 108.304 333.988 108.3 334.137C108.3 334.285 108.298 334.42 108.294 334.541H108.341C108.396 334.436 108.456 334.324 108.522 334.207C108.589 334.09 108.665 333.973 108.751 333.855L111.687 329.766H112.817V336H111.698V332.033C111.698 331.912 111.7 331.777 111.704 331.629C111.708 331.477 111.714 331.34 111.722 331.219H111.657C111.606 331.32 111.548 331.432 111.481 331.553C111.415 331.674 111.341 331.793 111.259 331.91L108.323 336H107.192Z" fill="#04101C"/>
</g>
<g filter="url(#filter5_dd_493_129919)">
<rect x="192" y="10" width="146" height="85" rx="12" fill="white"/>
<path d="M261.061 47.0129L260.191 46.3604L261.762 41.4304L257.75 39.195V38.0833H263.006L264.432 32.6458H265.604L267.03 38.0833H272.262V39.195L268.275 41.5029L269.882 46.3725L268.975 47.0008L265.036 43.9558L261.085 47.0129H261.061ZM279.5 40.5C279.5 32.5008 272.999 26 265 26C257.001 26 250.5 32.5008 250.5 40.5C250.5 48.4992 257.001 55 265 55C272.999 55 279.5 48.4992 279.5 40.5ZM275.875 40.5C275.875 46.4933 270.993 51.375 265 51.375C259.007 51.375 254.125 46.4933 254.125 40.5C254.125 34.5067 259.007 29.625 265 29.625C270.993 29.625 275.875 34.5067 275.875 40.5Z" fill="url(#paint12_radial_493_129919)"/>
<path d="M214.142 66.3516V67.459H214.4C215.685 67.459 216.662 67.7461 217.33 68.3203C218.002 68.8945 218.338 69.6797 218.338 70.6758C218.338 71.6719 218.002 72.457 217.33 73.0312C216.662 73.6016 215.685 73.8867 214.4 73.8867H214.142V75.1172H213.006V73.8867H212.748C211.459 73.8867 210.478 73.5996 209.806 73.0254C209.138 72.4512 208.804 71.666 208.804 70.6699C208.804 69.6738 209.138 68.8906 209.806 68.3203C210.478 67.7461 211.459 67.459 212.748 67.459H213.006V66.3516H214.142ZM214.4 68.3906H214.142V72.9551H214.4C215.416 72.9551 216.136 72.7617 216.562 72.375C216.988 71.9883 217.201 71.4258 217.201 70.6875C217.201 69.957 216.988 69.3926 216.562 68.9941C216.136 68.5918 215.416 68.3906 214.4 68.3906ZM212.748 68.3906C211.732 68.3906 211.011 68.584 210.586 68.9707C210.16 69.3574 209.947 69.9199 209.947 70.6582C209.947 71.3887 210.16 71.9551 210.586 72.3574C211.011 72.7559 211.732 72.9551 212.748 72.9551H213.006V68.3906H212.748ZM220.107 75V68.7656H221.22V72.7383C221.22 72.8555 221.218 72.9883 221.214 73.1367C221.214 73.2852 221.212 73.4199 221.208 73.541H221.255C221.31 73.4355 221.371 73.3242 221.437 73.207C221.503 73.0898 221.58 72.9727 221.665 72.8555L224.601 68.7656H225.732V75H224.613V71.0332C224.613 70.9121 224.615 70.7773 224.619 70.6289C224.622 70.4766 224.628 70.3398 224.636 70.2188H224.572C224.521 70.3203 224.462 70.4316 224.396 70.5527C224.33 70.6738 224.255 70.793 224.173 70.9102L221.238 75H220.107ZM227.741 77.4375V68.7656H228.761L228.814 69.6211H228.837C229.025 69.3516 229.308 69.123 229.687 68.9355C230.066 68.7441 230.509 68.6484 231.017 68.6484C231.892 68.6484 232.591 68.9453 233.114 69.5391C233.642 70.1289 233.905 70.8789 233.905 71.7891V71.9766C233.905 72.8828 233.642 73.6328 233.114 74.2266C232.591 74.8203 231.892 75.1172 231.017 75.1172C230.509 75.1172 230.077 75.0352 229.722 74.8711C229.366 74.707 229.081 74.4902 228.866 74.2207V77.4375H227.741ZM228.866 73.084C229.007 73.373 229.239 73.6309 229.564 73.8574C229.888 74.0801 230.282 74.1914 230.747 74.1914C231.439 74.1914 231.945 73.9805 232.265 73.5586C232.589 73.1328 232.751 72.6055 232.751 71.9766V71.7891C232.751 71.1562 232.589 70.6289 232.265 70.207C231.945 69.7852 231.439 69.5742 230.747 69.5742C230.282 69.5742 229.888 69.6875 229.564 69.9141C229.243 70.1367 229.011 70.3926 228.866 70.6816V73.084ZM235.552 75V68.7656H237.104L239.067 73.084C239.173 73.3184 239.239 73.4785 239.267 73.5645C239.298 73.6465 239.323 73.7344 239.343 73.8281H239.407C239.427 73.7344 239.45 73.6465 239.477 73.5645C239.505 73.4785 239.571 73.3223 239.677 73.0957L241.651 68.7656H243.175V75H242.085V70.7344C242.085 70.5039 242.087 70.3379 242.091 70.2363C242.099 70.1348 242.108 70.043 242.12 69.9609H242.073C242.054 70.0391 242.028 70.127 241.997 70.2246C241.966 70.3223 241.901 70.4785 241.804 70.6934L239.835 75H238.845L236.87 70.6758C236.788 70.4883 236.729 70.3418 236.694 70.2363C236.659 70.1309 236.634 70.0391 236.618 69.9609H236.56C236.567 70.043 236.575 70.1348 236.583 70.2363C236.591 70.334 236.595 70.4883 236.595 70.6992V75H235.552ZM244.821 71.9766V71.7891C244.821 70.8477 245.106 70.0801 245.676 69.4863C246.251 68.8887 247.009 68.5898 247.95 68.5898C248.895 68.5898 249.622 68.8691 250.13 69.4277C250.637 69.9824 250.891 70.7344 250.891 71.6836V72.1465H245.489V71.25H249.76V71.2207C249.76 70.7207 249.618 70.3105 249.333 69.9902C249.048 69.6699 248.591 69.5098 247.962 69.5098C247.301 69.5098 246.801 69.7285 246.462 70.166C246.122 70.6035 245.952 71.1445 245.952 71.7891V71.9766C245.952 72.6211 246.13 73.1621 246.485 73.5996C246.844 74.0371 247.397 74.2559 248.143 74.2559C248.596 74.2559 248.987 74.1699 249.315 73.998C249.643 73.8223 249.907 73.6152 250.106 73.377L250.833 73.9746C250.614 74.2676 250.274 74.541 249.813 74.7949C249.356 75.0488 248.8 75.1758 248.143 75.1758C247.069 75.1758 246.247 74.8789 245.676 74.2852C245.106 73.6875 244.821 72.918 244.821 71.9766ZM252.426 68.7656H253.551V71.3789H256.856V68.7656H257.981V75H256.856V72.2695H253.551V75H252.426V68.7656ZM259.99 68.7656H261.115V71.3789H264.42V68.7656H265.545V75H264.42V72.2695H261.115V75H259.99V68.7656ZM268.68 68.7656V70.8926H270.49C271.268 70.8926 271.865 71.0762 272.283 71.4434C272.705 71.8066 272.916 72.3027 272.916 72.9316C272.916 73.5566 272.705 74.0586 272.283 74.4375C271.865 74.8125 271.268 75 270.49 75H267.555V68.7656H268.68ZM270.484 71.7832H268.68V74.1152H270.484C270.965 74.1152 271.301 74.0039 271.492 73.7812C271.688 73.5586 271.785 73.2754 271.785 72.9316C271.785 72.5957 271.688 72.3203 271.492 72.1055C271.301 71.8906 270.965 71.7832 270.484 71.7832ZM273.766 75V68.7656H274.891V75H273.766ZM276.9 75V68.7656H278.013V72.7383C278.013 72.8555 278.011 72.9883 278.008 73.1367C278.008 73.2852 278.006 73.4199 278.002 73.541H278.049C278.103 73.4355 278.164 73.3242 278.23 73.207C278.297 73.0898 278.373 72.9727 278.459 72.8555L281.394 68.7656H282.525V75H281.406V71.0332C281.406 70.9121 281.408 70.7773 281.412 70.6289C281.416 70.4766 281.422 70.3398 281.429 70.2188H281.365C281.314 70.3203 281.256 70.4316 281.189 70.5527C281.123 70.6738 281.049 70.793 280.967 70.9102L278.031 75H276.9ZM279.713 66.8672C280.006 66.8672 280.246 66.7891 280.433 66.6328C280.621 66.4727 280.781 66.2129 280.914 65.8535L281.775 66.3574C281.58 66.834 281.302 67.1836 280.943 67.4062C280.584 67.6289 280.174 67.7402 279.713 67.7402C279.248 67.7402 278.838 67.6309 278.482 67.4121C278.127 67.1895 277.847 66.8379 277.644 66.3574L278.511 65.8418C278.644 66.2129 278.802 66.4766 278.986 66.6328C279.174 66.7891 279.416 66.8672 279.713 66.8672ZM287.335 71.9766V71.7891C287.335 70.8477 287.618 70.0801 288.185 69.4863C288.755 68.8887 289.538 68.5898 290.534 68.5898C291.456 68.5898 292.156 68.8145 292.632 69.2637C293.113 69.709 293.353 70.209 293.353 70.7637V70.793H292.24V70.7578C292.24 70.4258 292.105 70.1348 291.835 69.8848C291.57 69.6348 291.136 69.5098 290.534 69.5098C289.831 69.5098 289.314 69.7285 288.982 70.166C288.65 70.6035 288.484 71.1445 288.484 71.7891V71.9766C288.484 72.6211 288.65 73.1621 288.982 73.5996C289.314 74.0332 289.831 74.25 290.534 74.25C291.136 74.25 291.57 74.127 291.835 73.8809C292.105 73.6348 292.24 73.3418 292.24 73.002V72.9727H293.353V73.002C293.353 73.5527 293.113 74.0527 292.632 74.502C292.156 74.9512 291.456 75.1758 290.534 75.1758C289.538 75.1758 288.755 74.8789 288.185 74.2852C287.618 73.6875 287.335 72.918 287.335 71.9766ZM294.108 69.6504V68.7656H299.675V69.6504H297.454V75H296.329V69.6504H294.108ZM301.005 75V68.7656H302.118V72.7383C302.118 72.8555 302.116 72.9883 302.112 73.1367C302.112 73.2852 302.11 73.4199 302.106 73.541H302.153C302.208 73.4355 302.268 73.3242 302.335 73.207C302.401 73.0898 302.477 72.9727 302.563 72.8555L305.499 68.7656H306.63V75H305.511V71.0332C305.511 70.9121 305.512 70.7773 305.516 70.6289C305.52 70.4766 305.526 70.3398 305.534 70.2188H305.47C305.419 70.3203 305.36 70.4316 305.294 70.5527C305.227 70.6738 305.153 70.793 305.071 70.9102L302.136 75H301.005ZM310.268 69.6504L310.163 72.1348C310.116 73.1855 309.971 73.9473 309.729 74.4199C309.491 74.8926 309.079 75.1289 308.493 75.1289C308.348 75.1289 308.221 75.1191 308.112 75.0996C308.003 75.084 307.911 75.0586 307.836 75.0234V74.0566C307.903 74.084 307.971 74.1035 308.042 74.1152C308.116 74.127 308.2 74.1328 308.294 74.1328C308.59 74.1328 308.795 73.9805 308.909 73.6758C309.026 73.3672 309.1 72.8027 309.131 71.9824L309.272 68.7656H314.083V75H312.958V69.6504H310.268ZM317.223 68.7656V70.8926H319.034C319.811 70.8926 320.409 71.0762 320.826 71.4434C321.248 71.8066 321.459 72.3027 321.459 72.9316C321.459 73.5566 321.248 74.0586 320.826 74.4375C320.409 74.8125 319.811 75 319.034 75H316.098V68.7656H317.223ZM319.028 71.7832H317.223V74.1152H319.028C319.508 74.1152 319.844 74.0039 320.035 73.7812C320.231 73.5586 320.328 73.2754 320.328 72.9316C320.328 72.5957 320.231 72.3203 320.035 72.1055C319.844 71.8906 319.508 71.7832 319.028 71.7832Z" fill="#04101C"/>
</g>
<defs>
<filter id="filter0_dd_493_129919" x="46" y="2" width="136" height="108" filterUnits="userSpaceOnUse" color-interpolation-filters="sRGB">
<feFlood flood-opacity="0" result="BackgroundImageFix"/>
<feColorMatrix in="SourceAlpha" type="matrix" values="0 0 0 0 0 0 0 0 0 0 0 0 0 0 0 0 0 0 127 0" result="hardAlpha"/>
<feOffset dx="1" dy="2"/>
<feGaussianBlur stdDeviation="5"/>
<feComposite in2="hardAlpha" operator="out"/>
<feColorMatrix type="matrix" values="0 0 0 0 0.00780001 0 0 0 0 0.045344 0 0 0 0 0.0800001 0 0 0 0.08 0"/>
<feBlend mode="normal" in2="BackgroundImageFix" result="effect1_dropShadow_493_129919"/>
<feColorMatrix in="SourceAlpha" type="matrix" values="0 0 0 0 0 0 0 0 0 0 0 0 0 0 0 0 0 0 127 0" result="hardAlpha"/>
<feOffset dx="1" dy="2"/>
<feGaussianBlur stdDeviation="5"/>
<feComposite in2="hardAlpha" operator="out"/>
<feColorMatrix type="matrix" values="0 0 0 0 0.00780001 0 0 0 0 0.045344 0 0 0 0 0.0800001 0 0 0 0.08 0"/>
<feBlend mode="normal" in2="effect1_dropShadow_493_129919" result="effect2_dropShadow_493_129919"/>
<feBlend mode="normal" in="SourceGraphic" in2="effect2_dropShadow_493_129919" result="shape"/>
</filter>
<filter id="filter1_dd_493_129919" x="122" y="125" width="103" height="108" filterUnits="userSpaceOnUse" color-interpolation-filters="sRGB">
<feFlood flood-opacity="0" result="BackgroundImageFix"/>
<feColorMatrix in="SourceAlpha" type="matrix" values="0 0 0 0 0 0 0 0 0 0 0 0 0 0 0 0 0 0 127 0" result="hardAlpha"/>
<feOffset dx="1" dy="2"/>
<feGaussianBlur stdDeviation="5"/>
<feComposite in2="hardAlpha" operator="out"/>
<feColorMatrix type="matrix" values="0 0 0 0 0.00780001 0 0 0 0 0.045344 0 0 0 0 0.0800001 0 0 0 0.08 0"/>
<feBlend mode="normal" in2="BackgroundImageFix" result="effect1_dropShadow_493_129919"/>
<feColorMatrix in="SourceAlpha" type="matrix" values="0 0 0 0 0 0 0 0 0 0 0 0 0 0 0 0 0 0 127 0" result="hardAlpha"/>
<feOffset dx="1" dy="2"/>
<feGaussianBlur stdDeviation="5"/>
<feComposite in2="hardAlpha" operator="out"/>
<feColorMatrix type="matrix" values="0 0 0 0 0.00780001 0 0 0 0 0.045344 0 0 0 0 0.0800001 0 0 0 0.08 0"/>
<feBlend mode="normal" in2="effect1_dropShadow_493_129919" result="effect2_dropShadow_493_129919"/>
<feBlend mode="normal" in="SourceGraphic" in2="effect2_dropShadow_493_129919" result="shape"/>
</filter>
<filter id="filter2_dd_493_129919" x="197" y="244" width="126" height="124" filterUnits="userSpaceOnUse" color-interpolation-filters="sRGB">
<feFlood flood-opacity="0" result="BackgroundImageFix"/>
<feColorMatrix in="SourceAlpha" type="matrix" values="0 0 0 0 0 0 0 0 0 0 0 0 0 0 0 0 0 0 127 0" result="hardAlpha"/>
<feOffset dx="1" dy="2"/>
<feGaussianBlur stdDeviation="5"/>
<feComposite in2="hardAlpha" operator="out"/>
<feColorMatrix type="matrix" values="0 0 0 0 0.00780001 0 0 0 0 0.045344 0 0 0 0 0.0800001 0 0 0 0.08 0"/>
<feBlend mode="normal" in2="BackgroundImageFix" result="effect1_dropShadow_493_129919"/>
<feColorMatrix in="SourceAlpha" type="matrix" values="0 0 0 0 0 0 0 0 0 0 0 0 0 0 0 0 0 0 127 0" result="hardAlpha"/>
<feOffset dx="1" dy="2"/>
<feGaussianBlur stdDeviation="5"/>
<feComposite in2="hardAlpha" operator="out"/>
<feColorMatrix type="matrix" values="0 0 0 0 0.00780001 0 0 0 0 0.045344 0 0 0 0 0.0800001 0 0 0 0.08 0"/>
<feBlend mode="normal" in2="effect1_dropShadow_493_129919" result="effect2_dropShadow_493_129919"/>
<feBlend mode="normal" in="SourceGraphic" in2="effect2_dropShadow_493_129919" result="shape"/>
</filter>
<filter id="filter3_dd_493_129919" x="0" y="125" width="119" height="108" filterUnits="userSpaceOnUse" color-interpolation-filters="sRGB">
<feFlood flood-opacity="0" result="BackgroundImageFix"/>
<feColorMatrix in="SourceAlpha" type="matrix" values="0 0 0 0 0 0 0 0 0 0 0 0 0 0 0 0 0 0 127 0" result="hardAlpha"/>
<feOffset dx="1" dy="2"/>
<feGaussianBlur stdDeviation="5"/>
<feComposite in2="hardAlpha" operator="out"/>
<feColorMatrix type="matrix" values="0 0 0 0 0.00780001 0 0 0 0 0.045344 0 0 0 0 0.0800001 0 0 0 0.08 0"/>
<feBlend mode="normal" in2="BackgroundImageFix" result="effect1_dropShadow_493_129919"/>
<feColorMatrix in="SourceAlpha" type="matrix" values="0 0 0 0 0 0 0 0 0 0 0 0 0 0 0 0 0 0 127 0" result="hardAlpha"/>
<feOffset dx="1" dy="2"/>
<feGaussianBlur stdDeviation="5"/>
<feComposite in2="hardAlpha" operator="out"/>
<feColorMatrix type="matrix" values="0 0 0 0 0.00780001 0 0 0 0 0.045344 0 0 0 0 0.0800001 0 0 0 0.08 0"/>
<feBlend mode="normal" in2="effect1_dropShadow_493_129919" result="effect2_dropShadow_493_129919"/>
<feBlend mode="normal" in="SourceGraphic" in2="effect2_dropShadow_493_129919" result="shape"/>
</filter>
<filter id="filter4_dd_493_129919" x="17" y="244" width="128" height="124" filterUnits="userSpaceOnUse" color-interpolation-filters="sRGB">
<feFlood flood-opacity="0" result="BackgroundImageFix"/>
<feColorMatrix in="SourceAlpha" type="matrix" values="0 0 0 0 0 0 0 0 0 0 0 0 0 0 0 0 0 0 127 0" result="hardAlpha"/>
<feOffset dx="1" dy="2"/>
<feGaussianBlur stdDeviation="5"/>
<feComposite in2="hardAlpha" operator="out"/>
<feColorMatrix type="matrix" values="0 0 0 0 0.00780001 0 0 0 0 0.045344 0 0 0 0 0.0800001 0 0 0 0.08 0"/>
<feBlend mode="normal" in2="BackgroundImageFix" result="effect1_dropShadow_493_129919"/>
<feColorMatrix in="SourceAlpha" type="matrix" values="0 0 0 0 0 0 0 0 0 0 0 0 0 0 0 0 0 0 127 0" result="hardAlpha"/>
<feOffset dx="1" dy="2"/>
<feGaussianBlur stdDeviation="5"/>
<feComposite in2="hardAlpha" operator="out"/>
<feColorMatrix type="matrix" values="0 0 0 0 0.00780001 0 0 0 0 0.045344 0 0 0 0 0.0800001 0 0 0 0.08 0"/>
<feBlend mode="normal" in2="effect1_dropShadow_493_129919" result="effect2_dropShadow_493_129919"/>
<feBlend mode="normal" in="SourceGraphic" in2="effect2_dropShadow_493_129919" result="shape"/>
</filter>
<filter id="filter5_dd_493_129919" x="183" y="2" width="166" height="105" filterUnits="userSpaceOnUse" color-interpolation-filters="sRGB">
<feFlood flood-opacity="0" result="BackgroundImageFix"/>
<feColorMatrix in="SourceAlpha" type="matrix" values="0 0 0 0 0 0 0 0 0 0 0 0 0 0 0 0 0 0 127 0" result="hardAlpha"/>
<feOffset dx="1" dy="2"/>
<feGaussianBlur stdDeviation="5"/>
<feComposite in2="hardAlpha" operator="out"/>
<feColorMatrix type="matrix" values="0 0 0 0 0.00780001 0 0 0 0 0.045344 0 0 0 0 0.0800001 0 0 0 0.08 0"/>
<feBlend mode="normal" in2="BackgroundImageFix" result="effect1_dropShadow_493_129919"/>
<feColorMatrix in="SourceAlpha" type="matrix" values="0 0 0 0 0 0 0 0 0 0 0 0 0 0 0 0 0 0 127 0" result="hardAlpha"/>
<feOffset dx="1" dy="2"/>
<feGaussianBlur stdDeviation="5"/>
<feComposite in2="hardAlpha" operator="out"/>
<feColorMatrix type="matrix" values="0 0 0 0 0.00780001 0 0 0 0 0.045344 0 0 0 0 0.0800001 0 0 0 0.08 0"/>
<feBlend mode="normal" in2="effect1_dropShadow_493_129919" result="effect2_dropShadow_493_129919"/>
<feBlend mode="normal" in="SourceGraphic" in2="effect2_dropShadow_493_129919" result="shape"/>
</filter>
<linearGradient id="paint0_linear_493_129919" x1="219.606" y1="185.363" x2="96.2785" y2="255.927" gradientUnits="userSpaceOnUse">
<stop stop-color="#FD9BE8"/>
<stop offset="0.338542" stop-color="#7A73FF"/>
<stop offset="0.734375" stop-color="#75CDFF"/>
<stop offset="1" stop-color="#4AFCF1"/>
</linearGradient>
<linearGradient id="paint1_linear_493_129919" x1="310.878" y1="59.6848" x2="168.327" y2="123.646" gradientUnits="userSpaceOnUse">
<stop stop-color="#FD9BE8"/>
<stop offset="0.338542" stop-color="#7A73FF"/>
<stop offset="0.734375" stop-color="#75CDFF"/>
<stop offset="1" stop-color="#4AFCF1"/>
</linearGradient>
<linearGradient id="paint2_linear_493_129919" x1="155" y1="60.3125" x2="161.775" y2="60.6975" gradientUnits="userSpaceOnUse">
<stop stop-color="#FD9BE8"/>
<stop offset="0.338542" stop-color="#7A73FF"/>
<stop offset="0.734375" stop-color="#75CDFF"/>
<stop offset="1" stop-color="#4AFCF1"/>
</linearGradient>
<linearGradient id="paint3_linear_493_129919" x1="87" y1="178" x2="87.6105" y2="171.259" gradientUnits="userSpaceOnUse">
<stop stop-color="#FD9BE8"/>
<stop offset="0.338542" stop-color="#7A73FF"/>
<stop offset="0.734375" stop-color="#75CDFF"/>
<stop offset="1" stop-color="#4AFCF1"/>
</linearGradient>
<linearGradient id="paint4_linear_493_129919" x1="73" y1="286.187" x2="88.5304" y2="187.796" gradientUnits="userSpaceOnUse">
<stop stop-color="#FD9BE8"/>
<stop offset="0.338542" stop-color="#7A73FF"/>
<stop offset="0.734375" stop-color="#75CDFF"/>
<stop offset="1" stop-color="#4AFCF1"/>
</linearGradient>
<radialGradient id="paint5_radial_493_129919" cx="0" cy="0" r="1" gradientUnits="userSpaceOnUse" gradientTransform="translate(113.53 41.5) rotate(99.7516) scale(15.249 15.2851)">
<stop stop-color="#FD9BE8"/>
<stop offset="0.338542" stop-color="#7A73FF"/>
<stop offset="0.734375" stop-color="#75CDFF"/>
<stop offset="1" stop-color="#4AFCF1"/>
</radialGradient>
<radialGradient id="paint6_radial_493_129919" cx="0" cy="0" r="1" gradientUnits="userSpaceOnUse" gradientTransform="translate(113.53 41.5) rotate(99.7516) scale(15.249 15.2851)">
<stop stop-color="#FD9BE8"/>
<stop offset="0.338542" stop-color="#7A73FF"/>
<stop offset="0.734375" stop-color="#75CDFF"/>
<stop offset="1" stop-color="#4AFCF1"/>
</radialGradient>
<radialGradient id="paint7_radial_493_129919" cx="0" cy="0" r="1" gradientUnits="userSpaceOnUse" gradientTransform="translate(172.5 164.709) rotate(101.985) scale(14.9625 18.251)">
<stop stop-color="#FD9BE8"/>
<stop offset="0.338542" stop-color="#7A73FF"/>
<stop offset="0.734375" stop-color="#75CDFF"/>
<stop offset="1" stop-color="#4AFCF1"/>
</radialGradient>
<radialGradient id="paint8_radial_493_129919" cx="0" cy="0" r="1" gradientUnits="userSpaceOnUse" gradientTransform="translate(172.5 164.709) rotate(101.985) scale(14.9625 18.251)">
<stop stop-color="#FD9BE8"/>
<stop offset="0.338542" stop-color="#7A73FF"/>
<stop offset="0.734375" stop-color="#75CDFF"/>
<stop offset="1" stop-color="#4AFCF1"/>
</radialGradient>
<radialGradient id="paint9_radial_493_129919" cx="0" cy="0" r="1" gradientUnits="userSpaceOnUse" gradientTransform="translate(259.5 284.5) rotate(99.7267) scale(18.391 18.3894)">
<stop stop-color="#FD9BE8"/>
<stop offset="0.338542" stop-color="#7A73FF"/>
<stop offset="0.734375" stop-color="#75CDFF"/>
<stop offset="1" stop-color="#4AFCF1"/>
</radialGradient>
<radialGradient id="paint10_radial_493_129919" cx="0" cy="0" r="1" gradientUnits="userSpaceOnUse" gradientTransform="translate(59 165.5) rotate(101.247) scale(15.9309 18.2993)">
<stop stop-color="#FD9BE8"/>
<stop offset="0.338542" stop-color="#7A73FF"/>
<stop offset="0.734375" stop-color="#75CDFF"/>
<stop offset="1" stop-color="#4AFCF1"/>
</radialGradient>
<radialGradient id="paint11_radial_493_129919" cx="0" cy="0" r="1" gradientUnits="userSpaceOnUse" gradientTransform="translate(80.5 283.896) rotate(100.142) scale(17.6455 18.3661)">
<stop stop-color="#FD9BE8"/>
<stop offset="0.338542" stop-color="#7A73FF"/>
<stop offset="0.734375" stop-color="#75CDFF"/>
<stop offset="1" stop-color="#4AFCF1"/>
</radialGradient>
<radialGradient id="paint12_radial_493_129919" cx="0" cy="0" r="1" gradientUnits="userSpaceOnUse" gradientTransform="translate(265 40.5) rotate(99.7276) scale(18.3894)">
<stop stop-color="#FD9BE8"/>
<stop offset="0.338542" stop-color="#7A73FF"/>
<stop offset="0.734375" stop-color="#75CDFF"/>
<stop offset="1" stop-color="#4AFCF1"/>
</radialGradient>
<clipPath id="clip0_493_129919">
<rect width="29" height="29" fill="white" transform="translate(99 27)"/>
</clipPath>
<clipPath id="clip1_493_129919">
<rect width="32" height="32" fill="white" transform="translate(64 268)"/>
</clipPath>
</defs>
</svg>
