<svg width="40" height="40" viewBox="0 0 40 40" fill="none" xmlns="http://www.w3.org/2000/svg">
<path d="M40 20C40 8.96 31.04 0 20 0C8.96 0 0 8.96 0 20C0 31.04 8.96 40 20 40C31.04 40 40 31.04 40 20ZM4 20C4 11.16 11.16 4 20 4C28.84 4 36 11.16 36 20C36 28.84 28.84 36 20 36C11.16 36 4 28.84 4 20ZM28 20L20 28L17.18 25.18L20.34 22H12V18H20.34L17.16 14.82L20 12L28 20Z" fill="url(#paint0_linear_40_45174)"/>
<defs>
<linearGradient id="paint0_linear_40_45174" x1="62.5" y1="-40" x2="-21.3268" y2="-11.0753" gradientUnits="userSpaceOnUse">
<stop offset="0.338542" stop-color="#7A73FF"/>
<stop offset="0.734375" stop-color="#75CDFF"/>
<stop offset="1" stop-color="#4AFCF1"/>
</linearGradient>
</defs>
</svg>
