<svg width="419" height="533" viewBox="0 0 419 533" fill="none" xmlns="http://www.w3.org/2000/svg">
<g filter="url(#filter0_d_493_82522)">
<rect x="141" y="9" width="113" height="94" rx="12" fill="white"/>
<path d="M208.232 33.4328C207.655 32.8557 206.789 32.8557 206.213 33.4328C205.636 34.01 205.636 34.8756 206.213 35.4527C208.809 38.0498 210.251 41.5124 210.251 45.2637C210.251 49.0149 208.809 52.4776 206.213 55.0746C203.616 57.6716 200.155 59.1144 196.404 59.1144C193.231 59.1144 190.058 57.9602 187.606 55.9403L189.481 53.9204C191.5 55.5075 193.952 56.2289 196.26 56.2289C199.145 56.2289 201.885 55.2189 204.049 53.0547C208.376 48.7264 208.376 41.6567 204.049 37.4726C199.722 33.1443 192.654 33.1443 188.471 37.4726C184.577 41.3682 184.144 47.5721 187.462 51.9005L184.433 55.0746C183.856 55.6517 183.856 56.5174 184.433 57.0945C187.606 60.2687 191.789 62 196.26 62C200.732 62 204.914 60.2687 208.088 57.0945C211.261 53.9204 212.992 49.7363 212.992 45.2637C213.136 40.791 211.405 36.607 208.232 33.4328ZM190.635 39.4925C192.222 37.9055 194.385 37.0398 196.404 37.0398C198.568 37.0398 200.587 37.9055 202.174 39.4925C205.347 42.6667 205.347 47.8607 202.174 51.0348C199.001 54.209 193.808 54.209 190.635 51.0348C187.462 47.8607 187.462 42.6667 190.635 39.4925Z" fill="url(#paint0_radial_493_82522)"/>
<path d="M160.133 83V74.4688H161.656L164.428 80.8848C164.479 81.002 164.527 81.125 164.574 81.2539C164.625 81.3789 164.67 81.4961 164.709 81.6055H164.756C164.791 81.4961 164.832 81.3789 164.879 81.2539C164.926 81.125 164.975 81.002 165.025 80.8848L167.779 74.4688H169.332V83H168.207V76.7305C168.207 76.6133 168.209 76.4824 168.213 76.3379C168.221 76.1895 168.232 76.0566 168.248 75.9395H168.195C168.164 76.0566 168.121 76.1895 168.066 76.3379C168.016 76.4824 167.965 76.6133 167.914 76.7305L165.231 83H164.193L161.492 76.7305C161.441 76.6133 161.391 76.4824 161.34 76.3379C161.293 76.1895 161.256 76.0566 161.229 75.9395H161.176C161.188 76.0566 161.197 76.1895 161.205 76.3379C161.217 76.4824 161.223 76.6133 161.223 76.7305V83H160.133ZM170.82 79.9766V79.7891C170.82 78.8477 171.115 78.0801 171.705 77.4863C172.299 76.8887 173.092 76.5898 174.084 76.5898C175.072 76.5898 175.863 76.8887 176.457 77.4863C177.051 78.0801 177.347 78.8477 177.347 79.7891V79.9766C177.347 80.918 177.051 81.6875 176.457 82.2852C175.863 82.8789 175.072 83.1758 174.084 83.1758C173.092 83.1758 172.299 82.8789 171.705 82.2852C171.115 81.6875 170.82 80.918 170.82 79.9766ZM171.969 79.7891V79.9766C171.969 80.6172 172.146 81.1562 172.502 81.5938C172.857 82.0312 173.385 82.25 174.084 82.25C174.783 82.25 175.308 82.0312 175.66 81.5938C176.015 81.1562 176.193 80.6172 176.193 79.9766V79.7891C176.193 79.1445 176.015 78.6055 175.66 78.1719C175.308 77.7344 174.783 77.5156 174.084 77.5156C173.385 77.5156 172.857 77.7344 172.502 78.1719C172.146 78.6055 171.969 79.1445 171.969 79.7891ZM178.988 76.7656H180.113V79.3789H183.418V76.7656H184.543V83H183.418V80.2695H180.113V83H178.988V76.7656ZM186.552 83V76.7656H187.665V80.7383C187.665 80.8555 187.663 80.9883 187.66 81.1367C187.66 81.2852 187.658 81.4199 187.654 81.541H187.701C187.755 81.4355 187.816 81.3242 187.882 81.207C187.949 81.0898 188.025 80.9727 188.111 80.8555L191.046 76.7656H192.177V83H191.058V79.0332C191.058 78.9121 191.06 78.7773 191.064 78.6289C191.068 78.4766 191.074 78.3398 191.081 78.2188H191.017C190.966 78.3203 190.908 78.4316 190.841 78.5527C190.775 78.6738 190.701 78.793 190.619 78.9102L187.683 83H186.552ZM193.495 77.6504V76.7656H199.062V77.6504H196.841V83H195.716V77.6504H193.495ZM200.022 79.9766V79.7891C200.022 78.8477 200.317 78.0801 200.907 77.4863C201.501 76.8887 202.294 76.5898 203.286 76.5898C204.274 76.5898 205.065 76.8887 205.659 77.4863C206.253 78.0801 206.55 78.8477 206.55 79.7891V79.9766C206.55 80.918 206.253 81.6875 205.659 82.2852C205.065 82.8789 204.274 83.1758 203.286 83.1758C202.294 83.1758 201.501 82.8789 200.907 82.2852C200.317 81.6875 200.022 80.918 200.022 79.9766ZM201.171 79.7891V79.9766C201.171 80.6172 201.349 81.1562 201.704 81.5938C202.059 82.0312 202.587 82.25 203.286 82.25C203.985 82.25 204.511 82.0312 204.862 81.5938C205.218 81.1562 205.395 80.6172 205.395 79.9766V79.7891C205.395 79.1445 205.218 78.6055 204.862 78.1719C204.511 77.7344 203.985 77.5156 203.286 77.5156C202.587 77.5156 202.059 77.7344 201.704 78.1719C201.349 78.6055 201.171 79.1445 201.171 79.7891ZM208.19 85.4375V76.7656H209.21L209.262 77.6211H209.286C209.473 77.3516 209.756 77.123 210.135 76.9355C210.514 76.7441 210.958 76.6484 211.465 76.6484C212.34 76.6484 213.04 76.9453 213.563 77.5391C214.09 78.1289 214.354 78.8789 214.354 79.7891V79.9766C214.354 80.8828 214.09 81.6328 213.563 82.2266C213.04 82.8203 212.34 83.1172 211.465 83.1172C210.958 83.1172 210.526 83.0352 210.171 82.8711C209.815 82.707 209.53 82.4902 209.315 82.2207V85.4375H208.19ZM209.315 81.084C209.456 81.373 209.688 81.6309 210.012 81.8574C210.337 82.0801 210.731 82.1914 211.196 82.1914C211.887 82.1914 212.393 81.9805 212.714 81.5586C213.038 81.1328 213.2 80.6055 213.2 79.9766V79.7891C213.2 79.1562 213.038 78.6289 212.714 78.207C212.393 77.7852 211.887 77.5742 211.196 77.5742C210.731 77.5742 210.337 77.6875 210.012 77.9141C209.692 78.1367 209.46 78.3926 209.315 78.6816V81.084ZM216 83V76.7656H217.114V80.7383C217.114 80.8555 217.112 80.9883 217.108 81.1367C217.108 81.2852 217.106 81.4199 217.102 81.541H217.149C217.204 81.4355 217.264 81.3242 217.33 81.207C217.397 81.0898 217.473 80.9727 217.559 80.8555L220.495 76.7656H221.625V83H220.506V79.0332C220.506 78.9121 220.508 78.7773 220.512 78.6289C220.516 78.4766 220.522 78.3398 220.53 78.2188H220.465C220.414 78.3203 220.356 78.4316 220.289 78.5527C220.223 78.6738 220.149 78.793 220.067 78.9102L217.131 83H216ZM223.635 76.7656H224.76V79.3789H228.065V76.7656H229.19V83H228.065V80.2695H224.76V83H223.635V76.7656ZM231.199 76.7656H235.676V77.6504H232.324V83H231.199V76.7656Z" fill="#04101C"/>
</g>
<g filter="url(#filter1_d_493_82522)">
<rect x="72" y="142" width="71" height="94" rx="12" fill="white"/>
<path d="M120.354 167.617C118.53 165.793 115.443 165.512 111.795 166.775C110.532 167.196 109.27 167.898 108.007 168.599C102.956 165.652 98.1858 165.091 95.6604 167.617C92.9946 170.143 93.6961 174.914 96.6425 179.967C93.5558 185.159 93.1349 189.93 95.6604 192.316C96.6425 193.439 98.1858 194 100.01 194C102.395 194 105.201 193.018 108.007 191.334C110.813 193.018 113.619 194 116.004 194C117.828 194 119.231 193.439 120.354 192.456C122.879 189.93 122.318 185.159 119.372 180.107C122.458 174.774 122.879 170.003 120.354 167.617ZM112.637 169.441C115.303 168.459 117.267 168.599 118.389 169.582C119.652 170.845 119.372 173.932 117.688 177.3C116.706 176.037 115.724 174.774 114.461 173.511C113.198 172.248 111.936 171.266 110.673 170.283C111.374 170.003 112.076 169.582 112.637 169.441ZM97.6246 190.351C96.3619 189.088 96.6425 186.001 98.3261 182.633C99.3083 183.896 100.29 185.159 101.553 186.422C102.816 187.685 104.079 188.808 105.341 189.65C101.834 191.474 98.8873 191.614 97.6246 190.351ZM118.389 190.351C117.127 191.614 114.18 191.334 110.532 189.65C111.795 188.667 113.058 187.545 114.321 186.422C114.882 185.861 115.443 185.299 115.864 184.738C116.425 184.177 116.285 183.335 115.724 182.773C115.162 182.212 114.321 182.352 113.759 182.914C113.339 183.475 112.777 183.896 112.356 184.457C110.953 185.861 109.41 187.124 108.007 188.106C106.604 187.124 105.061 185.861 103.658 184.457C97.4843 178.282 95.5201 171.687 97.6246 169.582C98.0455 169.02 98.8873 168.74 100.01 168.74C101.413 168.74 103.377 169.301 105.341 170.283C104.079 171.266 102.816 172.388 101.553 173.511C100.992 174.213 100.29 174.914 99.7292 175.616C99.1679 176.177 99.3083 177.019 99.8695 177.581C100.431 178.142 101.413 178.002 101.834 177.44C102.395 176.739 102.956 176.177 103.517 175.616C104.92 174.213 106.464 172.95 107.867 171.967C109.27 172.95 110.813 174.213 112.356 175.616C118.53 181.651 120.494 188.246 118.389 190.351Z" fill="url(#paint1_radial_493_82522)"/>
<path d="M108 182.24C109.237 182.24 110.24 181.237 110.24 180C110.24 178.763 109.237 177.76 108 177.76C106.763 177.76 105.76 178.763 105.76 180C105.76 181.237 106.763 182.24 108 182.24Z" fill="url(#paint2_radial_493_82522)"/>
<path d="M90.6048 213.656V213.586H91.765V213.65C91.765 214.162 91.9584 214.545 92.3451 214.799C92.7357 215.053 93.2826 215.18 93.9857 215.18C94.6849 215.18 95.2201 215.051 95.5912 214.793C95.9662 214.531 96.1537 214.188 96.1537 213.762C96.1537 213.379 95.9798 213.074 95.6322 212.848C95.2884 212.617 94.6009 212.371 93.5697 212.109C92.5267 211.844 91.8021 211.531 91.3959 211.172C90.9935 210.812 90.7923 210.299 90.7923 209.631C90.7923 208.963 91.0677 208.406 91.6185 207.961C92.1732 207.516 92.9408 207.293 93.9212 207.293C94.8978 207.293 95.6752 207.531 96.2533 208.008C96.8314 208.484 97.1205 209.076 97.1205 209.783V209.848H95.9603V209.783C95.9603 209.334 95.7884 208.973 95.4447 208.699C95.1048 208.426 94.597 208.289 93.9212 208.289C93.2455 208.289 92.7455 208.406 92.4212 208.641C92.1009 208.871 91.9408 209.186 91.9408 209.584C91.9408 209.951 92.1029 210.242 92.4271 210.457C92.7552 210.668 93.4134 210.896 94.4017 211.143C95.4369 211.404 96.1791 211.729 96.6283 212.115C97.0775 212.502 97.3021 213.049 97.3021 213.756C97.3021 214.463 97.0033 215.043 96.4056 215.496C95.8119 215.949 95.0052 216.176 93.9857 216.176C92.9623 216.176 92.142 215.951 91.5248 215.502C90.9115 215.049 90.6048 214.434 90.6048 213.656ZM99.0421 216V207.469H104.866V208.43H100.208V211.119H104.286V212.08H100.208V215.039H104.931V216H99.0421ZM106.595 216V207.469H109.624C110.616 207.469 111.384 207.697 111.927 208.154C112.47 208.611 112.741 209.225 112.741 209.994C112.741 210.764 112.47 211.383 111.927 211.852C111.384 212.32 110.616 212.555 109.624 212.555H107.761V216H106.595ZM107.761 211.605H109.624C110.354 211.605 110.862 211.451 111.147 211.143C111.432 210.83 111.575 210.447 111.575 209.994C111.575 209.541 111.432 209.166 111.147 208.869C110.862 208.568 110.354 208.418 109.624 208.418H107.761V211.605ZM111.886 216L109.647 212.068L110.843 211.922L113.216 216H111.886ZM114.721 216V207.469H116.245L119.016 213.885C119.067 214.002 119.116 214.125 119.163 214.254C119.214 214.379 119.258 214.496 119.297 214.605H119.344C119.38 214.496 119.421 214.379 119.467 214.254C119.514 214.125 119.563 214.002 119.614 213.885L122.368 207.469H123.921V216H122.796V209.73C122.796 209.613 122.797 209.482 122.801 209.338C122.809 209.189 122.821 209.057 122.837 208.939H122.784C122.753 209.057 122.71 209.189 122.655 209.338C122.604 209.482 122.553 209.613 122.503 209.73L119.819 216H118.782L116.081 209.73C116.03 209.613 115.979 209.482 115.928 209.338C115.881 209.189 115.844 209.057 115.817 208.939H115.764C115.776 209.057 115.786 209.189 115.794 209.338C115.805 209.482 115.811 209.613 115.811 209.73V216H114.721Z" fill="#04101C"/>
</g>
<g filter="url(#filter2_d_493_82522)">
<rect x="9" y="275" width="103" height="94" rx="12" fill="white"/>
<path fill-rule="evenodd" clip-rule="evenodd" d="M47.0487 305.284C44.7916 303.023 46.4122 299 49.6787 299H70.3254C73.5919 299 75.2124 303.023 72.9554 305.284C72.954 305.286 72.9527 305.287 72.9513 305.288L64.8012 313.548V320.769C64.8012 321.929 64.2378 323.159 63.1558 323.83L59.1579 326.575L59.1413 326.586C58.2509 327.179 57.226 327.077 56.4893 326.643C55.7679 326.217 55.2029 325.408 55.2029 324.415V313.548L47.0487 305.284ZM48.88 302.364C48.731 302.725 48.7991 303.075 49.0314 303.307L49.0386 303.314L57.5994 311.99C57.8579 312.252 58.0029 312.605 58.0029 312.973V323.972L61.6016 321.501C61.6254 321.484 61.6497 321.469 61.6744 321.454C61.8239 321.365 62.0012 321.103 62.0012 320.769V312.973C62.0012 312.605 62.1461 312.252 62.4047 311.99L70.9727 303.307C71.205 303.075 71.2731 302.725 71.1241 302.364C70.9781 302.01 70.6867 301.8 70.3254 301.8H49.6787C49.3174 301.8 49.026 302.01 48.88 302.364Z" fill="url(#paint3_radial_493_82522)"/>
<path d="M27.4541 349L30.9463 340.41H32.083L35.5752 349H34.3447L31.831 342.602C31.7646 342.441 31.706 342.289 31.6552 342.145C31.6084 342 31.5654 341.854 31.5263 341.705H31.4619C31.4228 341.854 31.3779 342 31.3271 342.145C31.2802 342.289 31.2236 342.441 31.1572 342.602L28.6259 349H27.4541ZM28.9248 346.797L29.3056 345.836L33.7002 345.842L34.0752 346.803L28.9248 346.797ZM36.4538 342.766H37.5788V345.379H40.8835V342.766H42.0085V349H40.8835V346.27H37.5788V349H36.4538V342.766ZM43.6665 347.166C43.6665 346.529 43.9399 346.035 44.4868 345.684C45.0376 345.332 45.7505 345.156 46.6255 345.156H48.2954V344.711C48.2954 344.336 48.1782 344.037 47.9438 343.814C47.7134 343.592 47.3188 343.48 46.7602 343.48C46.2055 343.48 45.8052 343.576 45.5591 343.768C45.313 343.955 45.1899 344.182 45.1899 344.447V344.477H44.0649V344.447C44.0649 343.936 44.3091 343.498 44.7973 343.135C45.2856 342.771 45.9497 342.59 46.7895 342.59C47.6255 342.59 48.272 342.77 48.729 343.129C49.1899 343.484 49.4204 344.012 49.4204 344.711V347.594C49.4204 347.848 49.4419 348.088 49.4848 348.314C49.5278 348.537 49.5884 348.734 49.6665 348.906V349H48.5825C48.52 348.902 48.4634 348.773 48.4126 348.613C48.3618 348.453 48.3305 348.295 48.3188 348.139C48.1548 348.4 47.8813 348.629 47.4985 348.824C47.1157 349.02 46.6255 349.117 46.0278 349.117C45.3559 349.117 44.7934 348.949 44.3403 348.613C43.8911 348.277 43.6665 347.795 43.6665 347.166ZM44.7915 347.107C44.7915 347.459 44.9126 347.732 45.1548 347.928C45.397 348.123 45.7759 348.221 46.2915 348.221C46.8071 348.221 47.27 348.072 47.6802 347.775C48.0903 347.479 48.2954 347.164 48.2954 346.832V345.953H46.7544C46.1138 345.953 45.6255 346.057 45.2895 346.264C44.9575 346.467 44.7915 346.748 44.7915 347.107ZM53.0471 343.65L52.9416 346.135C52.8948 347.186 52.7502 347.947 52.508 348.42C52.2698 348.893 51.8577 349.129 51.2717 349.129C51.1272 349.129 51.0002 349.119 50.8909 349.1C50.7815 349.084 50.6897 349.059 50.6155 349.023V348.057C50.6819 348.084 50.7502 348.104 50.8205 348.115C50.8948 348.127 50.9788 348.133 51.0725 348.133C51.3694 348.133 51.5745 347.98 51.6877 347.676C51.8049 347.367 51.8791 346.803 51.9104 345.982L52.051 342.766H56.8616V349H55.7366V343.65H53.0471ZM58.877 349V342.766H59.9902V346.738C59.9902 346.855 59.9883 346.988 59.9844 347.137C59.9844 347.285 59.9824 347.42 59.9785 347.541H60.0254C60.0801 347.436 60.1406 347.324 60.207 347.207C60.2734 347.09 60.3496 346.973 60.4355 346.855L63.3711 342.766H64.502V349H63.3828V345.033C63.3828 344.912 63.3848 344.777 63.3887 344.629C63.3926 344.477 63.3984 344.34 63.4062 344.219H63.3418C63.291 344.32 63.2324 344.432 63.166 344.553C63.0996 344.674 63.0254 344.793 62.9434 344.91L60.0078 349H58.877ZM65.8201 343.65V342.766H71.3865V343.65H69.1658V349H68.0408V343.65H65.8201ZM72.7163 349V342.766H73.8296V346.738C73.8296 346.855 73.8277 346.988 73.8237 347.137C73.8237 347.285 73.8218 347.42 73.8179 347.541H73.8648C73.9195 347.436 73.98 347.324 74.0464 347.207C74.1128 347.09 74.189 346.973 74.2749 346.855L77.2105 342.766H78.3413V349H77.2222V345.033C77.2222 344.912 77.2241 344.777 77.228 344.629C77.232 344.477 77.2378 344.34 77.2456 344.219H77.1812C77.1304 344.32 77.0718 344.432 77.0054 344.553C76.939 344.674 76.8648 344.793 76.7827 344.91L73.8472 349H72.7163ZM84.763 349L82.0618 346.146L82.7532 345.414L86.1985 349H84.763ZM80.9075 345.385H82.138L84.552 342.766H85.8821L82.6009 346.27H80.9075V345.385ZM81.47 342.766V349H80.3509V342.766H81.47ZM86.919 347.166C86.919 346.529 87.1924 346.035 87.7393 345.684C88.2901 345.332 89.003 345.156 89.878 345.156H91.5479V344.711C91.5479 344.336 91.4307 344.037 91.1963 343.814C90.9659 343.592 90.5713 343.48 90.0127 343.48C89.458 343.48 89.0577 343.576 88.8116 343.768C88.5655 343.955 88.4424 344.182 88.4424 344.447V344.477H87.3174V344.447C87.3174 343.936 87.5616 343.498 88.0498 343.135C88.5381 342.771 89.2022 342.59 90.042 342.59C90.878 342.59 91.5245 342.77 91.9815 343.129C92.4424 343.484 92.6729 344.012 92.6729 344.711V347.594C92.6729 347.848 92.6944 348.088 92.7373 348.314C92.7803 348.537 92.8409 348.734 92.919 348.906V349H91.835C91.7725 348.902 91.7159 348.773 91.6651 348.613C91.6143 348.453 91.583 348.295 91.5713 348.139C91.4073 348.4 91.1338 348.629 90.751 348.824C90.3682 349.02 89.878 349.117 89.2803 349.117C88.6084 349.117 88.0459 348.949 87.5928 348.613C87.1436 348.277 86.919 347.795 86.919 347.166ZM88.044 347.107C88.044 347.459 88.1651 347.732 88.4073 347.928C88.6495 348.123 89.0284 348.221 89.544 348.221C90.0596 348.221 90.5225 348.072 90.9327 347.775C91.3428 347.479 91.5479 347.164 91.5479 346.832V345.953H90.0069C89.3662 345.953 88.878 346.057 88.542 346.264C88.21 346.467 88.044 346.748 88.044 347.107Z" fill="#04101C"/>
</g>
<g filter="url(#filter3_d_493_82522)">
<rect x="152" y="275" width="99" height="110" rx="12" fill="white"/>
<path fill-rule="evenodd" clip-rule="evenodd" d="M199.416 299.491C200.888 298.836 202.533 298.836 204.005 299.491L204.027 299.502L211.896 303.188C211.906 303.193 211.916 303.197 211.926 303.202C213.689 304.085 214.733 306.025 214.389 308.105C213.734 312.165 211.753 320.169 204.41 326.053L204.396 326.064C202.794 327.312 200.627 327.312 199.024 326.064L199.011 326.053C191.665 320.168 189.685 312.161 189.032 308.102C189.027 308.073 189.023 308.044 189.021 308.015C188.858 306.218 189.658 304.102 191.654 303.187L199.386 299.505C199.396 299.5 199.406 299.496 199.416 299.491ZM200.465 301.811L192.739 305.489L192.719 305.499C191.941 305.853 191.478 306.763 191.552 307.744C192.175 311.577 194.013 318.782 200.595 324.061C201.274 324.586 202.146 324.586 202.826 324.061C209.435 318.761 211.261 311.517 211.876 307.697L211.877 307.691C212.038 306.726 211.566 305.876 210.799 305.485L202.959 301.812C202.154 301.457 201.27 301.457 200.465 301.811Z" fill="url(#paint4_radial_493_82522)"/>
<path fill-rule="evenodd" clip-rule="evenodd" d="M207.58 306.89C208.143 307.311 208.258 308.108 207.837 308.671L202.126 316.308C201.887 316.627 201.511 316.816 201.112 316.818C200.713 316.82 200.336 316.634 200.094 316.316L196.896 312.116C196.47 311.557 196.578 310.759 197.138 310.333C197.697 309.907 198.495 310.015 198.921 310.574L201.098 313.433L205.798 307.147C206.219 306.584 207.017 306.469 207.58 306.89Z" fill="url(#paint5_radial_493_82522)"/>
<path d="M185.542 344.951V344.518C185.542 343.182 185.91 342.145 186.644 341.406C187.378 340.664 188.32 340.293 189.468 340.293C190.62 340.293 191.564 340.664 192.298 341.406C193.033 342.145 193.4 343.182 193.4 344.518V344.951C193.4 346.287 193.033 347.326 192.298 348.068C191.564 348.807 190.62 349.176 189.468 349.176C188.32 349.176 187.378 348.807 186.644 348.068C185.91 347.326 185.542 346.287 185.542 344.951ZM186.72 344.951C186.72 345.967 186.97 346.76 187.47 347.33C187.974 347.896 188.642 348.18 189.474 348.18C190.302 348.18 190.968 347.896 191.472 347.33C191.976 346.76 192.228 345.967 192.228 344.951V344.518C192.228 343.502 191.976 342.711 191.472 342.145C190.968 341.574 190.302 341.289 189.474 341.289C188.642 341.289 187.974 341.574 187.47 342.145C186.97 342.711 186.72 343.502 186.72 344.518V344.951ZM195.345 349V340.469H198.374C199.366 340.469 200.134 340.697 200.677 341.154C201.22 341.611 201.491 342.225 201.491 342.994C201.491 343.764 201.22 344.383 200.677 344.852C200.134 345.32 199.366 345.555 198.374 345.555H196.511V349H195.345ZM196.511 344.605H198.374C199.105 344.605 199.612 344.451 199.898 344.143C200.183 343.83 200.325 343.447 200.325 342.994C200.325 342.541 200.183 342.166 199.898 341.869C199.612 341.568 199.105 341.418 198.374 341.418H196.511V344.605ZM200.636 349L198.398 345.068L199.593 344.922L201.966 349H200.636ZM203.472 349V340.469H204.995L207.766 346.885C207.817 347.002 207.866 347.125 207.913 347.254C207.964 347.379 208.009 347.496 208.048 347.605H208.095C208.13 347.496 208.171 347.379 208.218 347.254C208.265 347.125 208.313 347.002 208.364 346.885L211.118 340.469H212.671V349H211.546V342.73C211.546 342.613 211.548 342.482 211.552 342.338C211.559 342.189 211.571 342.057 211.587 341.939H211.534C211.503 342.057 211.46 342.189 211.405 342.338C211.354 342.482 211.304 342.613 211.253 342.73L208.569 349H207.532L204.831 342.73C204.78 342.613 204.729 342.482 204.679 342.338C204.632 342.189 204.595 342.057 204.567 341.939H204.515C204.526 342.057 204.536 342.189 204.544 342.338C204.556 342.482 204.561 342.613 204.561 342.73V349H203.472ZM214.294 345.824V344.793H217.762V345.824H214.294ZM170.827 361.977V361.789C170.827 360.848 171.11 360.08 171.677 359.486C172.247 358.889 173.03 358.59 174.026 358.59C174.948 358.59 175.647 358.814 176.124 359.264C176.604 359.709 176.845 360.209 176.845 360.764V360.793H175.731V360.758C175.731 360.426 175.597 360.135 175.327 359.885C175.061 359.635 174.628 359.51 174.026 359.51C173.323 359.51 172.806 359.729 172.474 360.166C172.142 360.604 171.976 361.145 171.976 361.789V361.977C171.976 362.621 172.142 363.162 172.474 363.6C172.806 364.033 173.323 364.25 174.026 364.25C174.628 364.25 175.061 364.127 175.327 363.881C175.597 363.635 175.731 363.342 175.731 363.002V362.973H176.845V363.002C176.845 363.553 176.604 364.053 176.124 364.502C175.647 364.951 174.948 365.176 174.026 365.176C173.03 365.176 172.247 364.879 171.677 364.285C171.11 363.688 170.827 362.918 170.827 361.977ZM177.6 359.65V358.766H183.167V359.65H180.946V365H179.821V359.65H177.6ZM184.497 367.438V358.766H185.516L185.569 359.621H185.592C185.78 359.352 186.063 359.123 186.442 358.936C186.821 358.744 187.264 358.648 187.772 358.648C188.647 358.648 189.346 358.945 189.87 359.539C190.397 360.129 190.661 360.879 190.661 361.789V361.977C190.661 362.883 190.397 363.633 189.87 364.227C189.346 364.82 188.647 365.117 187.772 365.117C187.264 365.117 186.833 365.035 186.477 364.871C186.122 364.707 185.836 364.49 185.622 364.221V367.438H184.497ZM185.622 363.084C185.762 363.373 185.995 363.631 186.319 363.857C186.643 364.08 187.038 364.191 187.502 364.191C188.194 364.191 188.7 363.98 189.02 363.559C189.344 363.133 189.506 362.605 189.506 361.977V361.789C189.506 361.156 189.344 360.629 189.02 360.207C188.7 359.785 188.194 359.574 187.502 359.574C187.038 359.574 186.643 359.688 186.319 359.914C185.999 360.137 185.766 360.393 185.622 360.682V363.084ZM191.955 363.166C191.955 362.529 192.229 362.035 192.776 361.684C193.326 361.332 194.039 361.156 194.914 361.156H196.584V360.711C196.584 360.336 196.467 360.037 196.233 359.814C196.002 359.592 195.608 359.48 195.049 359.48C194.494 359.48 194.094 359.576 193.848 359.768C193.602 359.955 193.479 360.182 193.479 360.447V360.477H192.354V360.447C192.354 359.936 192.598 359.498 193.086 359.135C193.574 358.771 194.239 358.59 195.078 358.59C195.914 358.59 196.561 358.77 197.018 359.129C197.479 359.484 197.709 360.012 197.709 360.711V363.594C197.709 363.848 197.731 364.088 197.774 364.314C197.817 364.537 197.877 364.734 197.955 364.906V365H196.871C196.809 364.902 196.752 364.773 196.701 364.613C196.651 364.453 196.619 364.295 196.608 364.139C196.444 364.4 196.17 364.629 195.787 364.824C195.405 365.02 194.914 365.117 194.317 365.117C193.645 365.117 193.082 364.949 192.629 364.613C192.18 364.277 191.955 363.795 191.955 363.166ZM193.08 363.107C193.08 363.459 193.201 363.732 193.444 363.928C193.686 364.123 194.065 364.221 194.58 364.221C195.096 364.221 195.559 364.072 195.969 363.775C196.379 363.479 196.584 363.164 196.584 362.832V361.953H195.043C194.403 361.953 193.914 362.057 193.578 362.264C193.246 362.467 193.08 362.748 193.08 363.107ZM199.016 359.65V358.766H204.582V359.65H202.361V365H201.236V359.65H199.016ZM205.543 361.977V361.789C205.543 360.848 205.828 360.08 206.398 359.486C206.972 358.889 207.73 358.59 208.672 358.59C209.617 358.59 210.344 358.869 210.851 359.428C211.359 359.982 211.613 360.734 211.613 361.684V362.146H206.211V361.25H210.482V361.221C210.482 360.721 210.34 360.311 210.054 359.99C209.769 359.67 209.312 359.51 208.683 359.51C208.023 359.51 207.523 359.729 207.183 360.166C206.844 360.604 206.674 361.145 206.674 361.789V361.977C206.674 362.621 206.851 363.162 207.207 363.6C207.566 364.037 208.119 364.256 208.865 364.256C209.318 364.256 209.709 364.17 210.037 363.998C210.365 363.822 210.629 363.615 210.828 363.377L211.554 363.975C211.336 364.268 210.996 364.541 210.535 364.795C210.078 365.049 209.521 365.176 208.865 365.176C207.791 365.176 206.969 364.879 206.398 364.285C205.828 363.688 205.543 362.918 205.543 361.977ZM213.148 358.766H217.625V359.65H214.273V365H213.148V358.766ZM218.954 365V358.766H220.068V362.738C220.068 362.855 220.066 362.988 220.062 363.137C220.062 363.285 220.06 363.42 220.056 363.541H220.103C220.158 363.436 220.218 363.324 220.284 363.207C220.351 363.09 220.427 362.973 220.513 362.855L223.449 358.766H224.579V365H223.46V361.033C223.46 360.912 223.462 360.777 223.466 360.629C223.47 360.477 223.476 360.34 223.484 360.219H223.419C223.368 360.32 223.31 360.432 223.243 360.553C223.177 360.674 223.103 360.793 223.021 360.91L220.085 365H218.954ZM227.433 365H226.185L228.189 362.34L229.319 362.439L227.433 365ZM230.673 365V362.75H228.915L228.786 362.68C228.021 362.68 227.433 362.508 227.022 362.164C226.612 361.816 226.407 361.35 226.407 360.764C226.407 360.158 226.614 359.674 227.028 359.311C227.442 358.947 228.036 358.766 228.81 358.766H231.804V365H230.673ZM228.815 361.859H230.673V359.65H228.815C228.347 359.65 228.017 359.756 227.825 359.967C227.638 360.178 227.544 360.443 227.544 360.764C227.544 361.088 227.638 361.352 227.825 361.555C228.013 361.758 228.343 361.859 228.815 361.859Z" fill="#04101C"/>
</g>
<g filter="url(#filter4_d_493_82522)">
<rect x="183" y="142" width="68" height="94" rx="12" fill="white"/>
<path d="M227.965 188.6H225C224.506 186.8 222.9 185.6 220.924 185.6C218.576 185.6 216.6 187.52 216.6 189.8C216.6 192.08 218.576 194 220.924 194C222.9 194 224.506 192.8 225 191H227.965C228.706 191 229.2 190.4 229.2 189.8C229.2 189.08 228.706 188.6 227.965 188.6ZM220.924 191.6C219.935 191.6 219.071 190.76 219.071 189.8C219.071 188.84 219.935 188 220.924 188C221.912 188 222.776 188.84 222.776 189.8C222.776 190.76 221.912 191.6 220.924 191.6Z" fill="url(#paint6_radial_493_82522)"/>
<path d="M214.009 188.4H205.191C204.477 188.4 204 189.1 204 189.8C204 190.64 204.596 191.2 205.191 191.2H214.009C214.723 191.2 215.2 190.5 215.2 189.8C215.2 188.96 214.604 188.4 214.009 188.4Z" fill="url(#paint7_radial_493_82522)"/>
<path d="M205.191 171.6H214.009C214.723 171.6 215.2 170.9 215.2 170.2C215.2 169.5 214.604 168.8 214.009 168.8H205.191C204.477 168.8 204 169.5 204 170.2C204 170.9 204.596 171.6 205.191 171.6Z" fill="url(#paint8_radial_493_82522)"/>
<path d="M220.924 174.4C222.9 174.4 224.506 173.2 225 171.4H227.965C228.706 171.4 229.2 170.8 229.2 170.2C229.2 169.6 228.582 169 227.965 169H225C224.506 167.2 222.9 166 220.924 166C218.576 166 216.6 167.92 216.6 170.2C216.6 172.48 218.576 174.4 220.924 174.4ZM220.924 168.4C221.912 168.4 222.776 169.24 222.776 170.2C222.776 171.16 221.912 172 220.924 172C219.935 172 219.071 171.16 219.071 170.2C219.071 169.24 219.935 168.4 220.924 168.4Z" fill="url(#paint9_radial_493_82522)"/>
<path d="M205.235 181.2H208.2C208.694 182.88 210.3 184.2 212.276 184.2C214.624 184.2 216.6 182.28 216.6 180C216.6 177.72 214.624 175.8 212.276 175.8C210.3 175.8 208.694 177 208.2 178.8H205.235C204.494 178.8 204 179.4 204 180C204 180.6 204.618 181.2 205.235 181.2ZM212.276 178.2C213.265 178.2 214.129 179.04 214.129 180C214.129 180.96 213.265 181.8 212.276 181.8C211.288 181.8 210.424 180.96 210.424 180C210.424 179.04 211.288 178.2 212.276 178.2Z" fill="url(#paint10_radial_493_82522)"/>
<path d="M227.996 178.6H219.204C218.482 178.6 218 179.3 218 180C218 180.7 218.602 181.4 219.204 181.4H227.996C228.718 181.4 229.2 180.7 229.2 180C229.2 179.3 228.718 178.6 227.996 178.6Z" fill="url(#paint11_radial_493_82522)"/>
<path d="M203.272 211.951V211.518C203.272 210.182 203.639 209.145 204.373 208.406C205.108 207.664 206.049 207.293 207.198 207.293C208.35 207.293 209.293 207.664 210.028 208.406C210.762 209.145 211.129 210.182 211.129 211.518V211.951C211.129 213.287 210.762 214.326 210.028 215.068C209.293 215.807 208.35 216.176 207.198 216.176C206.049 216.176 205.108 215.807 204.373 215.068C203.639 214.326 203.272 213.287 203.272 211.951ZM204.449 211.951C204.449 212.967 204.699 213.76 205.199 214.33C205.703 214.896 206.371 215.18 207.203 215.18C208.031 215.18 208.698 214.896 209.201 214.33C209.705 213.76 209.957 212.967 209.957 211.951V211.518C209.957 210.502 209.705 209.711 209.201 209.145C208.698 208.574 208.031 208.289 207.203 208.289C206.371 208.289 205.703 208.574 205.199 209.145C204.699 209.711 204.449 210.502 204.449 211.518V211.951ZM213.074 216V207.469H216.104C217.096 207.469 217.863 207.697 218.406 208.154C218.949 208.611 219.221 209.225 219.221 209.994C219.221 210.764 218.949 211.383 218.406 211.852C217.863 212.32 217.096 212.555 216.104 212.555H214.24V216H213.074ZM214.24 211.605H216.104C216.834 211.605 217.342 211.451 217.627 211.143C217.912 210.83 218.055 210.447 218.055 209.994C218.055 209.541 217.912 209.166 217.627 208.869C217.342 208.568 216.834 208.418 216.104 208.418H214.24V211.605ZM218.365 216L216.127 212.068L217.322 211.922L219.695 216H218.365ZM221.201 216V207.469H222.724L225.496 213.885C225.547 214.002 225.595 214.125 225.642 214.254C225.693 214.379 225.738 214.496 225.777 214.605H225.824C225.859 214.496 225.9 214.379 225.947 214.254C225.994 214.125 226.043 214.002 226.094 213.885L228.847 207.469H230.4V216H229.275V209.73C229.275 209.613 229.277 209.482 229.281 209.338C229.289 209.189 229.301 209.057 229.316 208.939H229.263C229.232 209.057 229.189 209.189 229.135 209.338C229.084 209.482 229.033 209.613 228.982 209.73L226.299 216H225.261L222.56 209.73C222.51 209.613 222.459 209.482 222.408 209.338C222.361 209.189 222.324 209.057 222.297 208.939H222.244C222.256 209.057 222.265 209.189 222.273 209.338C222.285 209.482 222.291 209.613 222.291 209.73V216H221.201Z" fill="#04101C"/>
</g>
<g filter="url(#filter5_d_493_82522)">
<rect x="120" y="427" width="88" height="94" rx="12" fill="white"/>
<path d="M153.02 479C152.32 479 151.76 478.72 151.2 478.3C150.5 477.6 150.36 476.62 150.64 475.78L152.04 471.44C151.06 469.48 150.5 467.24 150.5 465C150.5 457.3 156.8 451 164.5 451C172.2 451 178.5 457.3 178.5 465C178.5 472.7 172.2 479 164.5 479C162.26 479 160.02 478.44 158.06 477.46L153.72 478.86C153.58 479 153.3 479 153.02 479ZM158.9 474.66C160.58 475.64 162.54 476.2 164.5 476.2C170.66 476.2 175.7 471.16 175.7 465C175.7 458.84 170.66 453.8 164.5 453.8C158.34 453.8 153.3 458.84 153.3 465C153.3 466.96 153.86 468.92 154.84 470.6C154.98 470.88 155.12 471.3 154.98 471.72L153.58 476.06L157.92 474.66C157.92 474.66 158.763 474.592 158.9 474.66Z" fill="url(#paint12_radial_493_82522)"/>
<path d="M164.5 467.24C165.737 467.24 166.74 466.237 166.74 465C166.74 463.763 165.737 462.76 164.5 462.76C163.263 462.76 162.26 463.763 162.26 465C162.26 466.237 163.263 467.24 164.5 467.24Z" fill="url(#paint13_radial_493_82522)"/>
<path d="M157.64 467.24C158.877 467.24 159.88 466.237 159.88 465C159.88 463.763 158.877 462.76 157.64 462.76C156.403 462.76 155.4 463.763 155.4 465C155.4 466.237 156.403 467.24 157.64 467.24Z" fill="url(#paint14_radial_493_82522)"/>
<path d="M171.36 467.24C172.597 467.24 173.6 466.237 173.6 465C173.6 463.763 172.597 462.76 171.36 462.76C170.123 462.76 169.12 463.763 169.12 465C169.12 466.237 170.123 467.24 171.36 467.24Z" fill="url(#paint15_radial_493_82522)"/>
<path d="M138.706 496.951V496.518C138.706 495.182 139.071 494.145 139.801 493.406C140.536 492.664 141.456 492.293 142.561 492.293C143.655 492.293 144.505 492.568 145.11 493.119C145.716 493.666 146.044 494.344 146.094 495.152L146.1 495.211H144.934L144.928 495.152C144.901 494.637 144.692 494.197 144.301 493.834C143.915 493.471 143.335 493.289 142.561 493.289C141.78 493.289 141.137 493.566 140.634 494.121C140.134 494.672 139.884 495.471 139.884 496.518V496.951C139.884 497.971 140.134 498.764 140.634 499.33C141.137 499.896 141.78 500.18 142.561 500.18C143.335 500.18 143.909 499.994 144.284 499.623C144.663 499.248 144.878 498.812 144.928 498.316L144.934 498.258H146.1L146.094 498.316C146.012 499.113 145.678 499.789 145.093 500.344C144.507 500.898 143.663 501.176 142.561 501.176C141.456 501.176 140.536 500.809 139.801 500.074C139.071 499.336 138.706 498.295 138.706 496.951ZM147.096 497.977V497.789C147.096 496.848 147.391 496.08 147.981 495.486C148.575 494.889 149.368 494.59 150.36 494.59C151.348 494.59 152.139 494.889 152.733 495.486C153.327 496.08 153.624 496.848 153.624 497.789V497.977C153.624 498.918 153.327 499.688 152.733 500.285C152.139 500.879 151.348 501.176 150.36 501.176C149.368 501.176 148.575 500.879 147.981 500.285C147.391 499.688 147.096 498.918 147.096 497.977ZM148.245 497.789V497.977C148.245 498.617 148.422 499.156 148.778 499.594C149.133 500.031 149.661 500.25 150.36 500.25C151.059 500.25 151.584 500.031 151.936 499.594C152.291 499.156 152.469 498.617 152.469 497.977V497.789C152.469 497.145 152.291 496.605 151.936 496.172C151.584 495.734 151.059 495.516 150.36 495.516C149.661 495.516 149.133 495.734 148.778 496.172C148.422 496.605 148.245 497.145 148.245 497.789ZM160.643 502.582V501H155.264V494.766H156.389V500.115H159.612V494.766H160.737V500.115H161.674V502.582H160.643ZM162.564 497.977V497.789C162.564 496.848 162.848 496.08 163.414 495.486C163.984 494.889 164.768 494.59 165.764 494.59C166.686 494.59 167.385 494.814 167.861 495.264C168.342 495.709 168.582 496.209 168.582 496.764V496.793H167.469V496.758C167.469 496.426 167.334 496.135 167.064 495.885C166.799 495.635 166.365 495.51 165.764 495.51C165.061 495.51 164.543 495.729 164.211 496.166C163.879 496.604 163.713 497.145 163.713 497.789V497.977C163.713 498.621 163.879 499.162 164.211 499.6C164.543 500.033 165.061 500.25 165.764 500.25C166.365 500.25 166.799 500.127 167.064 499.881C167.334 499.635 167.469 499.342 167.469 499.002V498.973H168.582V499.002C168.582 499.553 168.342 500.053 167.861 500.502C167.385 500.951 166.686 501.176 165.764 501.176C164.768 501.176 163.984 500.879 163.414 500.285C162.848 499.688 162.564 498.918 162.564 497.977ZM169.66 497.977V497.789C169.66 496.848 169.945 496.08 170.515 495.486C171.09 494.889 171.847 494.59 172.789 494.59C173.734 494.59 174.461 494.869 174.969 495.428C175.476 495.982 175.73 496.734 175.73 497.684V498.146H170.328V497.25H174.599V497.221C174.599 496.721 174.457 496.311 174.172 495.99C173.886 495.67 173.429 495.51 172.801 495.51C172.14 495.51 171.64 495.729 171.301 496.166C170.961 496.604 170.791 497.145 170.791 497.789V497.977C170.791 498.621 170.969 499.162 171.324 499.6C171.683 500.037 172.236 500.256 172.982 500.256C173.435 500.256 173.826 500.17 174.154 499.998C174.482 499.822 174.746 499.615 174.945 499.377L175.672 499.975C175.453 500.268 175.113 500.541 174.652 500.795C174.195 501.049 173.638 501.176 172.982 501.176C171.908 501.176 171.086 500.879 170.515 500.285C169.945 499.688 169.66 498.918 169.66 497.977ZM176.574 495.65V494.766H182.14V495.65H179.919V501H178.794V495.65H176.574ZM183.47 501V494.766H184.583V498.738C184.583 498.855 184.581 498.988 184.577 499.137C184.577 499.285 184.575 499.42 184.572 499.541H184.618C184.673 499.436 184.734 499.324 184.8 499.207C184.866 499.09 184.943 498.973 185.029 498.855L187.964 494.766H189.095V501H187.976V497.033C187.976 496.912 187.978 496.777 187.982 496.629C187.986 496.477 187.991 496.34 187.999 496.219H187.935C187.884 496.32 187.825 496.432 187.759 496.553C187.693 496.674 187.618 496.793 187.536 496.91L184.601 501H183.47Z" fill="#04101C"/>
</g>
<g filter="url(#filter6_d_493_82522)">
<rect x="278" y="142" width="130" height="110" rx="12" fill="white"/>
<path d="M357.061 174.679C354.853 171.703 352.254 168.984 349.266 166.914C347.318 165.49 344.59 165.749 342.771 167.561L338.354 171.961C336.665 173.644 336.405 176.362 337.704 178.303C337.834 178.433 337.964 178.692 338.224 178.821L330.039 186.975C329.39 187.622 329 188.528 329 189.564V193.706C329 194.094 329.13 194.353 329.39 194.612C329.65 194.871 329.909 195 330.299 195H334.456C335.496 195 336.405 194.612 337.055 193.965L345.239 185.81C345.499 185.94 345.629 186.069 345.889 186.199C347.837 187.493 350.566 187.234 352.254 185.552L356.671 181.151C358.23 179.339 358.49 176.621 357.061 174.679ZM354.593 179.339L350.176 183.74C349.266 184.646 347.967 184.775 347.058 184.128C346.538 183.74 346.149 183.481 345.629 183.092C345.109 182.704 344.33 182.704 343.94 183.222L334.976 192.153C334.716 192.411 334.456 192.541 334.197 192.541H331.338V189.693C331.338 189.434 331.468 189.176 331.728 188.917L340.692 179.986C341.212 179.468 341.212 178.821 340.822 178.303C340.562 177.786 340.173 177.268 339.913 176.75C339.263 175.844 339.393 174.55 340.302 173.773L344.719 169.373C345.109 168.855 345.759 168.596 346.408 168.596C346.928 168.596 347.318 168.726 347.707 168.984C350.566 170.926 352.904 173.385 354.853 176.103C355.632 177.139 355.502 178.433 354.593 179.339Z" fill="url(#paint16_radial_493_82522)"/>
<path d="M348.148 173.909C347.593 173.909 347.177 174.192 346.761 174.474C345.928 175.321 345.928 176.593 346.761 177.299C347.177 177.722 347.593 177.864 348.148 177.864C348.703 177.864 349.12 177.722 349.536 177.299C349.952 176.875 350.091 176.451 350.091 175.886C350.091 175.321 349.952 174.898 349.536 174.474C349.258 174.05 348.703 173.909 348.148 173.909Z" fill="url(#paint17_radial_493_82522)"/>
<path d="M299.859 211.951V211.518C299.859 210.182 300.226 209.145 300.96 208.406C301.695 207.664 302.636 207.293 303.784 207.293C304.937 207.293 305.88 207.664 306.614 208.406C307.349 209.145 307.716 210.182 307.716 211.518V211.951C307.716 213.287 307.349 214.326 306.614 215.068C305.88 215.807 304.937 216.176 303.784 216.176C302.636 216.176 301.695 215.807 300.96 215.068C300.226 214.326 299.859 213.287 299.859 211.951ZM301.036 211.951C301.036 212.967 301.286 213.76 301.786 214.33C302.29 214.896 302.958 215.18 303.79 215.18C304.618 215.18 305.284 214.896 305.788 214.33C306.292 213.76 306.544 212.967 306.544 211.951V211.518C306.544 210.502 306.292 209.711 305.788 209.145C305.284 208.574 304.618 208.289 303.79 208.289C302.958 208.289 302.29 208.574 301.786 209.145C301.286 209.711 301.036 210.502 301.036 211.518V211.951ZM310.065 212.977C310.065 213.629 310.249 214.16 310.616 214.57C310.987 214.98 311.597 215.207 312.444 215.25V210.516C311.597 210.559 310.987 210.785 310.616 211.195C310.249 211.605 310.065 212.137 310.065 212.789V212.977ZM315.954 212.789C315.954 212.137 315.769 211.605 315.397 211.195C315.03 210.785 314.421 210.559 313.569 210.516V215.25C314.421 215.207 315.03 214.98 315.397 214.57C315.769 214.16 315.954 213.629 315.954 212.977V212.789ZM312.444 216.176C311.319 216.137 310.45 215.834 309.837 215.268C309.224 214.697 308.917 213.934 308.917 212.977V212.789C308.917 211.832 309.224 211.07 309.837 210.504C310.45 209.934 311.319 209.629 312.444 209.59V207H313.569V209.59C314.698 209.629 315.569 209.934 316.183 210.504C316.796 211.07 317.102 211.832 317.102 212.789V212.977C317.102 213.934 316.796 214.697 316.183 215.268C315.569 215.834 314.698 216.137 313.569 216.176V218.438H312.444V216.176ZM318.749 216V209.766H319.862V213.738C319.862 213.855 319.86 213.988 319.856 214.137C319.856 214.285 319.854 214.42 319.85 214.541H319.897C319.952 214.436 320.012 214.324 320.079 214.207C320.145 214.09 320.221 213.973 320.307 213.855L323.243 209.766H324.374V216H323.255V212.033C323.255 211.912 323.257 211.777 323.26 211.629C323.264 211.477 323.27 211.34 323.278 211.219H323.214C323.163 211.32 323.104 211.432 323.038 211.553C322.971 211.674 322.897 211.793 322.815 211.91L319.88 216H318.749ZM331.762 217.582V216H326.383V209.766H327.508V215.115H330.731V209.766H331.856V215.115H332.793V217.582H331.762ZM334.053 216V209.766H335.166V213.738C335.166 213.855 335.164 213.988 335.16 214.137C335.16 214.285 335.158 214.42 335.155 214.541H335.201C335.256 214.436 335.317 214.324 335.383 214.207C335.449 214.09 335.526 213.973 335.612 213.855L338.547 209.766H339.678V216H338.559V212.033C338.559 211.912 338.561 211.777 338.565 211.629C338.569 211.477 338.574 211.34 338.582 211.219H338.518C338.467 211.32 338.408 211.432 338.342 211.553C338.276 211.674 338.201 211.793 338.119 211.91L335.184 216H334.053ZM341.336 214.166C341.336 213.529 341.609 213.035 342.156 212.684C342.707 212.332 343.42 212.156 344.295 212.156H345.965V211.711C345.965 211.336 345.848 211.037 345.613 210.814C345.383 210.592 344.988 210.48 344.43 210.48C343.875 210.48 343.475 210.576 343.229 210.768C342.982 210.955 342.859 211.182 342.859 211.447V211.477H341.734V211.447C341.734 210.936 341.979 210.498 342.467 210.135C342.955 209.771 343.619 209.59 344.459 209.59C345.295 209.59 345.941 209.77 346.398 210.129C346.859 210.484 347.09 211.012 347.09 211.711V214.594C347.09 214.848 347.111 215.088 347.154 215.314C347.197 215.537 347.258 215.734 347.336 215.906V216H346.252C346.189 215.902 346.133 215.773 346.082 215.613C346.031 215.453 346 215.295 345.988 215.139C345.824 215.4 345.551 215.629 345.168 215.824C344.785 216.02 344.295 216.117 343.697 216.117C343.025 216.117 342.463 215.949 342.01 215.613C341.561 215.277 341.336 214.795 341.336 214.166ZM342.461 214.107C342.461 214.459 342.582 214.732 342.824 214.928C343.066 215.123 343.445 215.221 343.961 215.221C344.477 215.221 344.939 215.072 345.35 214.775C345.76 214.479 345.965 214.164 345.965 213.832V212.953H344.424C343.783 212.953 343.295 213.057 342.959 213.264C342.627 213.467 342.461 213.748 342.461 214.107ZM350.717 210.65L350.611 213.135C350.564 214.186 350.42 214.947 350.177 215.42C349.939 215.893 349.527 216.129 348.941 216.129C348.797 216.129 348.67 216.119 348.56 216.1C348.451 216.084 348.359 216.059 348.285 216.023V215.057C348.351 215.084 348.42 215.104 348.49 215.115C348.564 215.127 348.648 215.133 348.742 215.133C349.039 215.133 349.244 214.98 349.357 214.676C349.474 214.367 349.549 213.803 349.58 212.982L349.72 209.766H354.531V216H353.406V210.65H350.717ZM357.671 209.766V211.893H359.482C360.259 211.893 360.857 212.076 361.275 212.443C361.697 212.807 361.908 213.303 361.908 213.932C361.908 214.557 361.697 215.059 361.275 215.438C360.857 215.812 360.259 216 359.482 216H356.546V209.766H357.671ZM359.476 212.783H357.671V215.115H359.476C359.957 215.115 360.292 215.004 360.484 214.781C360.679 214.559 360.777 214.275 360.777 213.932C360.777 213.596 360.679 213.32 360.484 213.105C360.292 212.891 359.957 212.783 359.476 212.783ZM363.408 209.766H364.533V212.379H367.837V209.766H368.962V216H367.837V213.27H364.533V216H363.408V209.766ZM372.097 209.766V211.893H373.907C374.685 211.893 375.282 212.076 375.7 212.443C376.122 212.807 376.333 213.303 376.333 213.932C376.333 214.557 376.122 215.059 375.7 215.438C375.282 215.812 374.685 216 373.907 216H370.972V209.766H372.097ZM373.901 212.783H372.097V215.115H373.901C374.382 215.115 374.718 215.004 374.909 214.781C375.105 214.559 375.202 214.275 375.202 213.932C375.202 213.596 375.105 213.32 374.909 213.105C374.718 212.891 374.382 212.783 373.901 212.783ZM377.183 216V209.766H378.308V216H377.183ZM380.317 216V209.766H381.43V213.738C381.43 213.855 381.429 213.988 381.425 214.137C381.425 214.285 381.423 214.42 381.419 214.541H381.466C381.52 214.436 381.581 214.324 381.647 214.207C381.714 214.09 381.79 213.973 381.876 213.855L384.811 209.766H385.942V216H384.823V212.033C384.823 211.912 384.825 211.777 384.829 211.629C384.833 211.477 384.839 211.34 384.846 211.219H384.782C384.731 211.32 384.673 211.432 384.606 211.553C384.54 211.674 384.466 211.793 384.384 211.91L381.448 216H380.317ZM383.13 207.867C383.423 207.867 383.663 207.789 383.85 207.633C384.038 207.473 384.198 207.213 384.331 206.854L385.192 207.357C384.997 207.834 384.72 208.184 384.36 208.406C384.001 208.629 383.591 208.74 383.13 208.74C382.665 208.74 382.255 208.631 381.899 208.412C381.544 208.189 381.264 207.838 381.061 207.357L381.929 206.842C382.061 207.213 382.22 207.477 382.403 207.633C382.591 207.789 382.833 207.867 383.13 207.867ZM297.251 225.766H302.753V232H301.628V226.65H298.376V232H297.251V225.766ZM304.769 234.438V225.766H305.788L305.841 226.621H305.864C306.052 226.352 306.335 226.123 306.714 225.936C307.093 225.744 307.536 225.648 308.044 225.648C308.919 225.648 309.618 225.945 310.142 226.539C310.669 227.129 310.933 227.879 310.933 228.789V228.977C310.933 229.883 310.669 230.633 310.142 231.227C309.618 231.82 308.919 232.117 308.044 232.117C307.536 232.117 307.105 232.035 306.749 231.871C306.394 231.707 306.109 231.49 305.894 231.221V234.438H304.769ZM305.894 230.084C306.034 230.373 306.267 230.631 306.591 230.857C306.915 231.08 307.31 231.191 307.775 231.191C308.466 231.191 308.972 230.98 309.292 230.559C309.616 230.133 309.779 229.605 309.779 228.977V228.789C309.779 228.156 309.616 227.629 309.292 227.207C308.972 226.785 308.466 226.574 307.775 226.574C307.31 226.574 306.915 226.688 306.591 226.914C306.271 227.137 306.038 227.393 305.894 227.682V230.084ZM312.21 228.977V228.789C312.21 227.848 312.495 227.08 313.065 226.486C313.64 225.889 314.397 225.59 315.339 225.59C316.284 225.59 317.011 225.869 317.519 226.428C318.026 226.982 318.28 227.734 318.28 228.684V229.146H312.878V228.25H317.149V228.221C317.149 227.721 317.007 227.311 316.722 226.99C316.436 226.67 315.979 226.51 315.351 226.51C314.69 226.51 314.19 226.729 313.851 227.166C313.511 227.604 313.341 228.145 313.341 228.789V228.977C313.341 229.621 313.519 230.162 313.874 230.6C314.233 231.037 314.786 231.256 315.532 231.256C315.985 231.256 316.376 231.17 316.704 230.998C317.032 230.822 317.296 230.615 317.495 230.377L318.222 230.975C318.003 231.268 317.663 231.541 317.202 231.795C316.745 232.049 316.188 232.176 315.532 232.176C314.458 232.176 313.636 231.879 313.065 231.285C312.495 230.688 312.21 229.918 312.21 228.977ZM325.048 233.582V232H320.026V233.582H318.995V231.115H326.085V233.582H325.048ZM321.245 226.65L321.151 228.766C321.12 229.484 321.075 230.014 321.016 230.354C320.962 230.689 320.88 230.975 320.77 231.209H319.604C319.745 231.021 319.856 230.752 319.938 230.4C320.024 230.045 320.085 229.453 320.12 228.625L320.249 225.766H325.147V232H324.016V226.65H321.245ZM326.975 228.977V228.789C326.975 227.848 327.258 227.08 327.825 226.486C328.395 225.889 329.178 225.59 330.174 225.59C331.096 225.59 331.795 225.814 332.272 226.264C332.752 226.709 332.993 227.209 332.993 227.764V227.793H331.879V227.758C331.879 227.426 331.745 227.135 331.475 226.885C331.209 226.635 330.776 226.51 330.174 226.51C329.471 226.51 328.954 226.729 328.622 227.166C328.29 227.604 328.124 228.145 328.124 228.789V228.977C328.124 229.621 328.29 230.162 328.622 230.6C328.954 231.033 329.471 231.25 330.174 231.25C330.776 231.25 331.209 231.127 331.475 230.881C331.745 230.635 331.879 230.342 331.879 230.002V229.973H332.993V230.002C332.993 230.553 332.752 231.053 332.272 231.502C331.795 231.951 331.096 232.176 330.174 232.176C329.178 232.176 328.395 231.879 327.825 231.285C327.258 230.688 326.975 229.918 326.975 228.977ZM333.748 226.65V225.766H339.315V226.65H337.094V232H335.969V226.65H333.748ZM340.293 230.166C340.293 229.529 340.566 229.035 341.113 228.684C341.664 228.332 342.377 228.156 343.252 228.156H344.922V227.711C344.922 227.336 344.805 227.037 344.57 226.814C344.34 226.592 343.945 226.48 343.387 226.48C342.832 226.48 342.432 226.576 342.186 226.768C341.939 226.955 341.816 227.182 341.816 227.447V227.477H340.691V227.447C340.691 226.936 340.936 226.498 341.424 226.135C341.912 225.771 342.576 225.59 343.416 225.59C344.252 225.59 344.898 225.77 345.355 226.129C345.816 226.484 346.047 227.012 346.047 227.711V230.594C346.047 230.848 346.068 231.088 346.111 231.314C346.154 231.537 346.215 231.734 346.293 231.906V232H345.209C345.146 231.902 345.09 231.773 345.039 231.613C344.988 231.453 344.957 231.295 344.945 231.139C344.781 231.4 344.508 231.629 344.125 231.824C343.742 232.02 343.252 232.117 342.654 232.117C341.982 232.117 341.42 231.949 340.967 231.613C340.518 231.277 340.293 230.795 340.293 230.166ZM341.418 230.107C341.418 230.459 341.539 230.732 341.781 230.928C342.023 231.123 342.402 231.221 342.918 231.221C343.434 231.221 343.896 231.072 344.307 230.775C344.717 230.479 344.922 230.164 344.922 229.832V228.953H343.381C342.74 228.953 342.252 229.057 341.916 229.264C341.584 229.467 341.418 229.748 341.418 230.107ZM348.045 232V225.766H351.168C351.879 225.766 352.433 225.904 352.832 226.182C353.234 226.455 353.435 226.871 353.435 227.43C353.435 227.777 353.332 228.068 353.125 228.303C352.918 228.537 352.64 228.695 352.293 228.777V228.795C352.715 228.857 353.047 229.012 353.289 229.258C353.531 229.5 353.652 229.811 353.652 230.189C353.652 230.76 353.441 231.205 353.019 231.525C352.597 231.842 352.039 232 351.344 232H348.045ZM349.17 228.391H351.168C351.57 228.391 351.859 228.311 352.035 228.15C352.211 227.99 352.299 227.77 352.299 227.488C352.299 227.215 352.211 227.008 352.035 226.867C351.859 226.727 351.57 226.654 351.168 226.65H349.17V228.391ZM349.17 231.115H351.344C351.75 231.115 352.047 231.031 352.234 230.863C352.426 230.695 352.521 230.469 352.521 230.184C352.521 229.906 352.428 229.686 352.24 229.521C352.053 229.354 351.754 229.27 351.344 229.27H349.17V231.115ZM355.363 232V225.766H356.476V229.738C356.476 229.855 356.474 229.988 356.47 230.137C356.47 230.285 356.468 230.42 356.464 230.541H356.511C356.566 230.436 356.626 230.324 356.693 230.207C356.759 230.09 356.835 229.973 356.921 229.855L359.857 225.766H360.988V232H359.869V228.033C359.869 227.912 359.871 227.777 359.875 227.629C359.878 227.477 359.884 227.34 359.892 227.219H359.828C359.777 227.32 359.718 227.432 359.652 227.553C359.585 227.674 359.511 227.793 359.429 227.91L356.494 232H355.363ZM362.306 226.65V225.766H367.872V226.65H365.652V232H364.527V226.65H362.306ZM368.833 228.977V228.789C368.833 227.848 369.118 227.08 369.689 226.486C370.263 225.889 371.021 225.59 371.962 225.59C372.907 225.59 373.634 225.869 374.142 226.428C374.649 226.982 374.903 227.734 374.903 228.684V229.146H369.501V228.25H373.773V228.221C373.773 227.721 373.63 227.311 373.345 226.99C373.06 226.67 372.603 226.51 371.974 226.51C371.314 226.51 370.814 226.729 370.474 227.166C370.134 227.604 369.964 228.145 369.964 228.789V228.977C369.964 229.621 370.142 230.162 370.497 230.6C370.856 231.037 371.409 231.256 372.155 231.256C372.608 231.256 372.999 231.17 373.327 230.998C373.655 230.822 373.919 230.615 374.118 230.377L374.845 230.975C374.626 231.268 374.286 231.541 373.825 231.795C373.368 232.049 372.812 232.176 372.155 232.176C371.081 232.176 370.259 231.879 369.689 231.285C369.118 230.688 368.833 229.918 368.833 228.977ZM378.067 226.65L377.962 229.135C377.915 230.186 377.77 230.947 377.528 231.42C377.29 231.893 376.878 232.129 376.292 232.129C376.147 232.129 376.02 232.119 375.911 232.1C375.802 232.084 375.71 232.059 375.636 232.023V231.057C375.702 231.084 375.77 231.104 375.841 231.115C375.915 231.127 375.999 231.133 376.093 231.133C376.389 231.133 376.595 230.98 376.708 230.676C376.825 230.367 376.899 229.803 376.93 228.982L377.071 225.766H381.882V232H380.757V226.65H378.067ZM385.022 225.766V227.893H386.833C387.61 227.893 388.208 228.076 388.626 228.443C389.047 228.807 389.258 229.303 389.258 229.932C389.258 230.557 389.047 231.059 388.626 231.438C388.208 231.812 387.61 232 386.833 232H383.897V225.766H385.022ZM386.827 228.783H385.022V231.115H386.827C387.307 231.115 387.643 231.004 387.835 230.781C388.03 230.559 388.128 230.275 388.128 229.932C388.128 229.596 388.03 229.32 387.835 229.105C387.643 228.891 387.307 228.783 386.827 228.783Z" fill="#04101C"/>
</g>
<path d="M217 142L217 103" stroke="url(#paint18_linear_493_82522)"/>
<path d="M231 142.001L231 140.5C231 131.663 238.164 124.5 247 124.5L328 124.501C336.284 124.501 343 117.785 343 109.5V109.5" stroke="url(#paint19_linear_493_82522)"/>
<path d="M183 189H143" stroke="url(#paint20_linear_493_82522)"/>
<path d="M183 209H178.837C170.001 209 162.837 216.163 162.837 225V239.5C162.837 248.337 155.674 255.5 146.837 255.5H75C66.1634 255.5 59 262.663 59 271.5V275" stroke="url(#paint21_linear_493_82522)"/>
<path d="M203 236V275" stroke="url(#paint22_linear_493_82522)"/>
<path d="M251 201L283 201" stroke="url(#paint23_linear_493_82522)"/>
<path d="M251 213V213C259.837 213 267 220.163 267 229V389.551C267 398.388 259.837 405.551 251 405.551H181C172.163 405.551 165 412.715 165 421.551V427" stroke="url(#paint24_linear_493_82522)"/>
<g filter="url(#filter7_d_493_82522)">
<rect x="287" y="8" width="105" height="110" rx="12" fill="white"/>
<path d="M333.872 43.4839C333.304 42.924 332.452 42.924 331.884 43.4839C331.316 44.0438 331.316 44.8836 331.884 45.4434L337.706 51.602C337.99 51.8819 338.416 52.0219 338.7 52.0219C339.126 52.0219 339.552 51.8819 339.694 51.462L353.609 34.2461C354.035 33.6862 354.035 32.7065 353.325 32.2866C352.899 31.8667 352.047 31.8667 351.479 32.5665L348.639 36.0657C346.083 33.5463 342.392 32.0066 338.7 32.0066C330.89 32.0066 324.5 38.3051 324.5 46.0033C324.5 53.7015 330.89 60 338.7 60C346.509 60 352.899 53.7015 352.899 46.0033C352.899 44.7436 352.757 43.4839 352.331 42.2242C352.047 41.5244 351.337 41.1045 350.627 41.2444C349.917 41.3844 349.491 42.2242 349.633 42.924C349.917 43.9038 350.059 45.0235 350.059 46.0033C350.059 52.1619 344.947 57.2007 338.7 57.2007C332.452 57.2007 327.34 52.1619 327.34 46.0033C327.34 39.8448 332.452 34.806 338.7 34.806C341.824 34.806 344.664 36.0657 346.935 38.3051L338.7 48.5227L333.872 43.4839Z" fill="url(#paint25_radial_493_82522)"/>
<path d="M316.031 77.9512V77.5176C316.031 76.1816 316.398 75.1445 317.132 74.4062C317.867 73.6641 318.808 73.293 319.957 73.293C321.109 73.293 322.052 73.6641 322.787 74.4062C323.521 75.1445 323.888 76.1816 323.888 77.5176V77.9512C323.888 79.2871 323.521 80.3262 322.787 81.0684C322.052 81.8066 321.109 82.1758 319.957 82.1758C318.808 82.1758 317.867 81.8066 317.132 81.0684C316.398 80.3262 316.031 79.2871 316.031 77.9512ZM317.209 77.9512C317.209 78.9668 317.459 79.7598 317.959 80.3301C318.462 80.8965 319.13 81.1797 319.962 81.1797C320.791 81.1797 321.457 80.8965 321.961 80.3301C322.464 79.7598 322.716 78.9668 322.716 77.9512V77.5176C322.716 76.502 322.464 75.7109 321.961 75.1445C321.457 74.5742 320.791 74.2891 319.962 74.2891C319.13 74.2891 318.462 74.5742 317.959 75.1445C317.459 75.7109 317.209 76.502 317.209 77.5176V77.9512ZM324.767 76.6504V75.7656H330.333V76.6504H328.113V82H326.988V76.6504H324.767ZM334.165 82.1758C333.157 82.1758 332.413 81.9629 331.933 81.5371C331.456 81.1113 331.218 80.6074 331.218 80.0254V79.9961H332.308V80.0254C332.308 80.3496 332.442 80.6348 332.712 80.8809C332.985 81.127 333.466 81.25 334.153 81.25C334.743 81.25 335.187 81.1543 335.484 80.9629C335.78 80.7715 335.929 80.5078 335.929 80.1719C335.929 79.8867 335.817 79.666 335.595 79.5098C335.376 79.3496 335.028 79.2695 334.552 79.2695H333.169V78.3906H334.446C334.888 78.3906 335.212 78.3105 335.419 78.1504C335.626 77.9902 335.73 77.7695 335.73 77.4883C335.73 77.1719 335.605 76.9297 335.355 76.7617C335.109 76.5938 334.737 76.5098 334.241 76.5098C333.616 76.5098 333.159 76.6289 332.87 76.8672C332.581 77.1055 332.437 77.3965 332.437 77.7402V77.7695H331.347V77.7402C331.347 77.123 331.593 76.6113 332.085 76.2051C332.577 75.7949 333.294 75.5898 334.235 75.5898C335.091 75.5898 335.743 75.75 336.192 76.0703C336.642 76.3906 336.866 76.832 336.866 77.3945C336.866 77.7344 336.753 78.0293 336.526 78.2793C336.304 78.5254 335.999 78.6914 335.612 78.7773V78.7949C336.062 78.8574 336.415 79.0098 336.673 79.252C336.935 79.4902 337.066 79.8047 337.066 80.1953C337.066 80.8125 336.802 81.2969 336.275 81.6484C335.747 82 335.044 82.1758 334.165 82.1758ZM339.895 75.7656V77.8926H341.706C342.483 77.8926 343.081 78.0762 343.499 78.4434C343.921 78.8066 344.132 79.3027 344.132 79.9316C344.132 80.5566 343.921 81.0586 343.499 81.4375C343.081 81.8125 342.483 82 341.706 82H338.77V75.7656H339.895ZM341.7 78.7832H339.895V81.1152H341.7C342.181 81.1152 342.516 81.0039 342.708 80.7812C342.903 80.5586 343.001 80.2754 343.001 79.9316C343.001 79.5957 342.903 79.3203 342.708 79.1055C342.516 78.8906 342.181 78.7832 341.7 78.7832ZM344.981 82V75.7656H346.106V82H344.981ZM348.116 82V75.7656H351.239C351.95 75.7656 352.505 75.9043 352.903 76.1816C353.305 76.4551 353.506 76.8711 353.506 77.4297C353.506 77.7773 353.403 78.0684 353.196 78.3027C352.989 78.5371 352.712 78.6953 352.364 78.7773V78.7949C352.786 78.8574 353.118 79.0117 353.36 79.2578C353.602 79.5 353.723 79.8105 353.723 80.1895C353.723 80.7598 353.512 81.2051 353.09 81.5254C352.669 81.8418 352.11 82 351.415 82H348.116ZM349.241 78.3906H351.239C351.641 78.3906 351.93 78.3105 352.106 78.1504C352.282 77.9902 352.37 77.7695 352.37 77.4883C352.37 77.2148 352.282 77.0078 352.106 76.8672C351.93 76.7266 351.641 76.6543 351.239 76.6504H349.241V78.3906ZM349.241 81.1152H351.415C351.821 81.1152 352.118 81.0312 352.305 80.8633C352.497 80.6953 352.592 80.4688 352.592 80.1836C352.592 79.9062 352.499 79.6855 352.311 79.5215C352.124 79.3535 351.825 79.2695 351.415 79.2695H349.241V81.1152ZM356.559 75.7656V77.8926H358.37C359.147 77.8926 359.745 78.0762 360.162 78.4434C360.584 78.8066 360.795 79.3027 360.795 79.9316C360.795 80.5566 360.584 81.0586 360.162 81.4375C359.745 81.8125 359.147 82 358.37 82H355.434V75.7656H356.559ZM358.364 78.7832H356.559V81.1152H358.364C358.844 81.1152 359.18 81.0039 359.371 80.7812C359.567 80.5586 359.664 80.2754 359.664 79.9316C359.664 79.5957 359.567 79.3203 359.371 79.1055C359.18 78.8906 358.844 78.7832 358.364 78.7832ZM361.645 82V75.7656H362.77V82H361.645ZM306.34 98V91.7656H307.453V95.7383C307.453 95.8555 307.451 95.9883 307.447 96.1367C307.447 96.2852 307.445 96.4199 307.441 96.541H307.488C307.543 96.4355 307.604 96.3242 307.67 96.207C307.736 96.0898 307.813 95.9727 307.899 95.8555L310.834 91.7656H311.965V98H310.846V94.0332C310.846 93.9121 310.848 93.7773 310.852 93.6289C310.856 93.4766 310.861 93.3398 310.869 93.2188H310.805C310.754 93.3203 310.695 93.4316 310.629 93.5527C310.563 93.6738 310.488 93.793 310.406 93.9102L307.471 98H306.34ZM317.144 100.438V91.7656H318.164L318.216 92.6211H318.24C318.427 92.3516 318.711 92.123 319.089 91.9355C319.468 91.7441 319.912 91.6484 320.42 91.6484C321.295 91.6484 321.994 91.9453 322.517 92.5391C323.045 93.1289 323.308 93.8789 323.308 94.7891V94.9766C323.308 95.8828 323.045 96.6328 322.517 97.2266C321.994 97.8203 321.295 98.1172 320.42 98.1172C319.912 98.1172 319.48 98.0352 319.125 97.8711C318.769 97.707 318.484 97.4902 318.269 97.2207V100.438H317.144ZM318.269 96.084C318.41 96.373 318.642 96.6309 318.966 96.8574C319.291 97.0801 319.685 97.1914 320.15 97.1914C320.841 97.1914 321.347 96.9805 321.668 96.5586C321.992 96.1328 322.154 95.6055 322.154 94.9766V94.7891C322.154 94.1562 321.992 93.6289 321.668 93.207C321.347 92.7852 320.841 92.5742 320.15 92.5742C319.685 92.5742 319.291 92.6875 318.966 92.9141C318.646 93.1367 318.414 93.3926 318.269 93.6816V96.084ZM324.585 94.9766V94.7891C324.585 93.8477 324.87 93.0801 325.441 92.4863C326.015 91.8887 326.773 91.5898 327.714 91.5898C328.66 91.5898 329.386 91.8691 329.894 92.4277C330.402 92.9824 330.656 93.7344 330.656 94.6836V95.1465H325.253V94.25H329.525V94.2207C329.525 93.7207 329.382 93.3105 329.097 92.9902C328.812 92.6699 328.355 92.5098 327.726 92.5098C327.066 92.5098 326.566 92.7285 326.226 93.166C325.886 93.6035 325.716 94.1445 325.716 94.7891V94.9766C325.716 95.6211 325.894 96.1621 326.249 96.5996C326.609 97.0371 327.161 97.2559 327.908 97.2559C328.361 97.2559 328.751 97.1699 329.079 96.998C329.408 96.8223 329.671 96.6152 329.87 96.377L330.597 96.9746C330.378 97.2676 330.038 97.541 329.577 97.7949C329.12 98.0488 328.564 98.1758 327.908 98.1758C326.833 98.1758 326.011 97.8789 325.441 97.2852C324.87 96.6875 324.585 95.918 324.585 94.9766ZM332.191 98V91.7656H333.304V95.7383C333.304 95.8555 333.302 95.9883 333.298 96.1367C333.298 96.2852 333.296 96.4199 333.292 96.541H333.339C333.394 96.4355 333.454 96.3242 333.521 96.207C333.587 96.0898 333.663 95.9727 333.749 95.8555L336.685 91.7656H337.816V98H336.696V94.0332C336.696 93.9121 336.698 93.7773 336.702 93.6289C336.706 93.4766 336.712 93.3398 336.72 93.2188H336.655C336.605 93.3203 336.546 93.4316 336.48 93.5527C336.413 93.6738 336.339 93.793 336.257 93.9102L333.321 98H332.191ZM335.003 89.8672C335.296 89.8672 335.536 89.7891 335.724 89.6328C335.911 89.4727 336.071 89.2129 336.204 88.8535L337.066 89.3574C336.87 89.834 336.593 90.1836 336.234 90.4062C335.874 90.6289 335.464 90.7402 335.003 90.7402C334.538 90.7402 334.128 90.6309 333.773 90.4121C333.417 90.1895 333.138 89.8379 332.935 89.3574L333.802 88.8418C333.935 89.2129 334.093 89.4766 334.276 89.6328C334.464 89.7891 334.706 89.8672 335.003 89.8672ZM339.134 92.6504V91.7656H344.7V92.6504H342.479V98H341.354V92.6504H339.134ZM346.03 98V91.7656H347.143V95.7383C347.143 95.8555 347.141 95.9883 347.137 96.1367C347.137 96.2852 347.135 96.4199 347.131 96.541H347.178C347.233 96.4355 347.294 96.3242 347.36 96.207C347.426 96.0898 347.503 95.9727 347.589 95.8555L350.524 91.7656H351.655V98H350.536V94.0332C350.536 93.9121 350.538 93.7773 350.542 93.6289C350.546 93.4766 350.551 93.3398 350.559 93.2188H350.495C350.444 93.3203 350.385 93.4316 350.319 93.5527C350.253 93.6738 350.178 93.793 350.096 93.9102L347.161 98H346.03ZM353.664 91.7656H354.789V94.3789H358.094V91.7656H359.219V98H358.094V95.2695H354.789V98H353.664V91.7656ZM361.229 91.7656H365.705V92.6504H362.354V98H361.229V91.7656ZM367.035 98V91.7656H368.148V95.7383C368.148 95.8555 368.146 95.9883 368.142 96.1367C368.142 96.2852 368.141 96.4199 368.137 96.541H368.184C368.238 96.4355 368.299 96.3242 368.365 96.207C368.432 96.0898 368.508 95.9727 368.594 95.8555L371.529 91.7656H372.66V98H371.541V94.0332C371.541 93.9121 371.543 93.7773 371.547 93.6289C371.551 93.4766 371.557 93.3398 371.564 93.2188H371.5C371.449 93.3203 371.391 93.4316 371.324 93.5527C371.258 93.6738 371.184 93.793 371.101 93.9102L368.166 98H367.035Z" fill="#04101C"/>
</g>
<defs>
<filter id="filter0_d_493_82522" x="132" y="1" width="133" height="114" filterUnits="userSpaceOnUse" color-interpolation-filters="sRGB">
<feFlood flood-opacity="0" result="BackgroundImageFix"/>
<feColorMatrix in="SourceAlpha" type="matrix" values="0 0 0 0 0 0 0 0 0 0 0 0 0 0 0 0 0 0 127 0" result="hardAlpha"/>
<feOffset dx="1" dy="2"/>
<feGaussianBlur stdDeviation="5"/>
<feComposite in2="hardAlpha" operator="out"/>
<feColorMatrix type="matrix" values="0 0 0 0 0.00780001 0 0 0 0 0.045344 0 0 0 0 0.0800001 0 0 0 0.04 0"/>
<feBlend mode="normal" in2="BackgroundImageFix" result="effect1_dropShadow_493_82522"/>
<feBlend mode="normal" in="SourceGraphic" in2="effect1_dropShadow_493_82522" result="shape"/>
</filter>
<filter id="filter1_d_493_82522" x="63" y="134" width="91" height="114" filterUnits="userSpaceOnUse" color-interpolation-filters="sRGB">
<feFlood flood-opacity="0" result="BackgroundImageFix"/>
<feColorMatrix in="SourceAlpha" type="matrix" values="0 0 0 0 0 0 0 0 0 0 0 0 0 0 0 0 0 0 127 0" result="hardAlpha"/>
<feOffset dx="1" dy="2"/>
<feGaussianBlur stdDeviation="5"/>
<feComposite in2="hardAlpha" operator="out"/>
<feColorMatrix type="matrix" values="0 0 0 0 0.00780001 0 0 0 0 0.045344 0 0 0 0 0.0800001 0 0 0 0.04 0"/>
<feBlend mode="normal" in2="BackgroundImageFix" result="effect1_dropShadow_493_82522"/>
<feBlend mode="normal" in="SourceGraphic" in2="effect1_dropShadow_493_82522" result="shape"/>
</filter>
<filter id="filter2_d_493_82522" x="0" y="267" width="123" height="114" filterUnits="userSpaceOnUse" color-interpolation-filters="sRGB">
<feFlood flood-opacity="0" result="BackgroundImageFix"/>
<feColorMatrix in="SourceAlpha" type="matrix" values="0 0 0 0 0 0 0 0 0 0 0 0 0 0 0 0 0 0 127 0" result="hardAlpha"/>
<feOffset dx="1" dy="2"/>
<feGaussianBlur stdDeviation="5"/>
<feComposite in2="hardAlpha" operator="out"/>
<feColorMatrix type="matrix" values="0 0 0 0 0.00780001 0 0 0 0 0.045344 0 0 0 0 0.0800001 0 0 0 0.04 0"/>
<feBlend mode="normal" in2="BackgroundImageFix" result="effect1_dropShadow_493_82522"/>
<feBlend mode="normal" in="SourceGraphic" in2="effect1_dropShadow_493_82522" result="shape"/>
</filter>
<filter id="filter3_d_493_82522" x="143" y="267" width="119" height="130" filterUnits="userSpaceOnUse" color-interpolation-filters="sRGB">
<feFlood flood-opacity="0" result="BackgroundImageFix"/>
<feColorMatrix in="SourceAlpha" type="matrix" values="0 0 0 0 0 0 0 0 0 0 0 0 0 0 0 0 0 0 127 0" result="hardAlpha"/>
<feOffset dx="1" dy="2"/>
<feGaussianBlur stdDeviation="5"/>
<feComposite in2="hardAlpha" operator="out"/>
<feColorMatrix type="matrix" values="0 0 0 0 0.00780001 0 0 0 0 0.045344 0 0 0 0 0.0800001 0 0 0 0.04 0"/>
<feBlend mode="normal" in2="BackgroundImageFix" result="effect1_dropShadow_493_82522"/>
<feBlend mode="normal" in="SourceGraphic" in2="effect1_dropShadow_493_82522" result="shape"/>
</filter>
<filter id="filter4_d_493_82522" x="174" y="134" width="88" height="114" filterUnits="userSpaceOnUse" color-interpolation-filters="sRGB">
<feFlood flood-opacity="0" result="BackgroundImageFix"/>
<feColorMatrix in="SourceAlpha" type="matrix" values="0 0 0 0 0 0 0 0 0 0 0 0 0 0 0 0 0 0 127 0" result="hardAlpha"/>
<feOffset dx="1" dy="2"/>
<feGaussianBlur stdDeviation="5"/>
<feComposite in2="hardAlpha" operator="out"/>
<feColorMatrix type="matrix" values="0 0 0 0 0.00780001 0 0 0 0 0.045344 0 0 0 0 0.0800001 0 0 0 0.04 0"/>
<feBlend mode="normal" in2="BackgroundImageFix" result="effect1_dropShadow_493_82522"/>
<feBlend mode="normal" in="SourceGraphic" in2="effect1_dropShadow_493_82522" result="shape"/>
</filter>
<filter id="filter5_d_493_82522" x="111" y="419" width="108" height="114" filterUnits="userSpaceOnUse" color-interpolation-filters="sRGB">
<feFlood flood-opacity="0" result="BackgroundImageFix"/>
<feColorMatrix in="SourceAlpha" type="matrix" values="0 0 0 0 0 0 0 0 0 0 0 0 0 0 0 0 0 0 127 0" result="hardAlpha"/>
<feOffset dx="1" dy="2"/>
<feGaussianBlur stdDeviation="5"/>
<feComposite in2="hardAlpha" operator="out"/>
<feColorMatrix type="matrix" values="0 0 0 0 0.00780001 0 0 0 0 0.045344 0 0 0 0 0.0800001 0 0 0 0.04 0"/>
<feBlend mode="normal" in2="BackgroundImageFix" result="effect1_dropShadow_493_82522"/>
<feBlend mode="normal" in="SourceGraphic" in2="effect1_dropShadow_493_82522" result="shape"/>
</filter>
<filter id="filter6_d_493_82522" x="269" y="134" width="150" height="130" filterUnits="userSpaceOnUse" color-interpolation-filters="sRGB">
<feFlood flood-opacity="0" result="BackgroundImageFix"/>
<feColorMatrix in="SourceAlpha" type="matrix" values="0 0 0 0 0 0 0 0 0 0 0 0 0 0 0 0 0 0 127 0" result="hardAlpha"/>
<feOffset dx="1" dy="2"/>
<feGaussianBlur stdDeviation="5"/>
<feComposite in2="hardAlpha" operator="out"/>
<feColorMatrix type="matrix" values="0 0 0 0 0.00780001 0 0 0 0 0.045344 0 0 0 0 0.0800001 0 0 0 0.04 0"/>
<feBlend mode="normal" in2="BackgroundImageFix" result="effect1_dropShadow_493_82522"/>
<feBlend mode="normal" in="SourceGraphic" in2="effect1_dropShadow_493_82522" result="shape"/>
</filter>
<filter id="filter7_d_493_82522" x="278" y="0" width="125" height="130" filterUnits="userSpaceOnUse" color-interpolation-filters="sRGB">
<feFlood flood-opacity="0" result="BackgroundImageFix"/>
<feColorMatrix in="SourceAlpha" type="matrix" values="0 0 0 0 0 0 0 0 0 0 0 0 0 0 0 0 0 0 127 0" result="hardAlpha"/>
<feOffset dx="1" dy="2"/>
<feGaussianBlur stdDeviation="5"/>
<feComposite in2="hardAlpha" operator="out"/>
<feColorMatrix type="matrix" values="0 0 0 0 0.00780001 0 0 0 0 0.045344 0 0 0 0 0.0800001 0 0 0 0.04 0"/>
<feBlend mode="normal" in2="BackgroundImageFix" result="effect1_dropShadow_493_82522"/>
<feBlend mode="normal" in="SourceGraphic" in2="effect1_dropShadow_493_82522" result="shape"/>
</filter>
<radialGradient id="paint0_radial_493_82522" cx="0" cy="0" r="1" gradientUnits="userSpaceOnUse" gradientTransform="translate(198.5 47.5) rotate(99.7276) scale(18.3894)">
<stop offset="0.055" stop-color="#7A73FF"/>
<stop offset="0.65" stop-color="#67DDFA"/>
<stop offset="1" stop-color="#4AFCF1"/>
</radialGradient>
<radialGradient id="paint1_radial_493_82522" cx="0" cy="0" r="1" gradientUnits="userSpaceOnUse" gradientTransform="translate(108 180) rotate(99.7276) scale(17.7553)">
<stop offset="0.055" stop-color="#7A73FF"/>
<stop offset="0.65" stop-color="#67DDFA"/>
<stop offset="1" stop-color="#4AFCF1"/>
</radialGradient>
<radialGradient id="paint2_radial_493_82522" cx="0" cy="0" r="1" gradientUnits="userSpaceOnUse" gradientTransform="translate(108 180) rotate(99.7276) scale(17.7553)">
<stop offset="0.055" stop-color="#7A73FF"/>
<stop offset="0.65" stop-color="#67DDFA"/>
<stop offset="1" stop-color="#4AFCF1"/>
</radialGradient>
<radialGradient id="paint3_radial_493_82522" cx="0" cy="0" r="1" gradientUnits="userSpaceOnUse" gradientTransform="translate(60.002 313) rotate(99.729) scale(17.7554 17.7578)">
<stop offset="0.055" stop-color="#7A73FF"/>
<stop offset="0.65" stop-color="#67DDFA"/>
<stop offset="1" stop-color="#4AFCF1"/>
</radialGradient>
<radialGradient id="paint4_radial_493_82522" cx="0" cy="0" r="1" gradientUnits="userSpaceOnUse" gradientTransform="translate(201.727 313) rotate(98.8578) scale(17.7112 16.181)">
<stop offset="0.055" stop-color="#7A73FF"/>
<stop offset="0.65" stop-color="#67DDFA"/>
<stop offset="1" stop-color="#4AFCF1"/>
</radialGradient>
<radialGradient id="paint5_radial_493_82522" cx="0" cy="0" r="1" gradientUnits="userSpaceOnUse" gradientTransform="translate(201.727 313) rotate(98.8578) scale(17.7112 16.181)">
<stop offset="0.055" stop-color="#7A73FF"/>
<stop offset="0.65" stop-color="#67DDFA"/>
<stop offset="1" stop-color="#4AFCF1"/>
</radialGradient>
<radialGradient id="paint6_radial_493_82522" cx="0" cy="0" r="1" gradientUnits="userSpaceOnUse" gradientTransform="translate(216.6 180) rotate(98.7708) scale(17.7071 16.0233)">
<stop offset="0.055" stop-color="#7A73FF"/>
<stop offset="0.65" stop-color="#67DDFA"/>
<stop offset="1" stop-color="#4AFCF1"/>
</radialGradient>
<radialGradient id="paint7_radial_493_82522" cx="0" cy="0" r="1" gradientUnits="userSpaceOnUse" gradientTransform="translate(216.6 180) rotate(98.7708) scale(17.7071 16.0233)">
<stop offset="0.055" stop-color="#7A73FF"/>
<stop offset="0.65" stop-color="#67DDFA"/>
<stop offset="1" stop-color="#4AFCF1"/>
</radialGradient>
<radialGradient id="paint8_radial_493_82522" cx="0" cy="0" r="1" gradientUnits="userSpaceOnUse" gradientTransform="translate(216.6 180) rotate(98.7708) scale(17.7071 16.0233)">
<stop offset="0.055" stop-color="#7A73FF"/>
<stop offset="0.65" stop-color="#67DDFA"/>
<stop offset="1" stop-color="#4AFCF1"/>
</radialGradient>
<radialGradient id="paint9_radial_493_82522" cx="0" cy="0" r="1" gradientUnits="userSpaceOnUse" gradientTransform="translate(216.6 180) rotate(98.7708) scale(17.7071 16.0233)">
<stop offset="0.055" stop-color="#7A73FF"/>
<stop offset="0.65" stop-color="#67DDFA"/>
<stop offset="1" stop-color="#4AFCF1"/>
</radialGradient>
<radialGradient id="paint10_radial_493_82522" cx="0" cy="0" r="1" gradientUnits="userSpaceOnUse" gradientTransform="translate(216.6 180) rotate(98.7708) scale(17.7071 16.0233)">
<stop offset="0.055" stop-color="#7A73FF"/>
<stop offset="0.65" stop-color="#67DDFA"/>
<stop offset="1" stop-color="#4AFCF1"/>
</radialGradient>
<radialGradient id="paint11_radial_493_82522" cx="0" cy="0" r="1" gradientUnits="userSpaceOnUse" gradientTransform="translate(216.6 180) rotate(98.7708) scale(17.7071 16.0233)">
<stop offset="0.055" stop-color="#7A73FF"/>
<stop offset="0.65" stop-color="#67DDFA"/>
<stop offset="1" stop-color="#4AFCF1"/>
</radialGradient>
<radialGradient id="paint12_radial_493_82522" cx="0" cy="0" r="1" gradientUnits="userSpaceOnUse" gradientTransform="translate(164.5 465) rotate(99.7276) scale(17.7553)">
<stop offset="0.055" stop-color="#7A73FF"/>
<stop offset="0.65" stop-color="#67DDFA"/>
<stop offset="1" stop-color="#4AFCF1"/>
</radialGradient>
<radialGradient id="paint13_radial_493_82522" cx="0" cy="0" r="1" gradientUnits="userSpaceOnUse" gradientTransform="translate(164.5 465) rotate(99.7276) scale(17.7553)">
<stop offset="0.055" stop-color="#7A73FF"/>
<stop offset="0.65" stop-color="#67DDFA"/>
<stop offset="1" stop-color="#4AFCF1"/>
</radialGradient>
<radialGradient id="paint14_radial_493_82522" cx="0" cy="0" r="1" gradientUnits="userSpaceOnUse" gradientTransform="translate(164.5 465) rotate(99.7276) scale(17.7553)">
<stop offset="0.055" stop-color="#7A73FF"/>
<stop offset="0.65" stop-color="#67DDFA"/>
<stop offset="1" stop-color="#4AFCF1"/>
</radialGradient>
<radialGradient id="paint15_radial_493_82522" cx="0" cy="0" r="1" gradientUnits="userSpaceOnUse" gradientTransform="translate(164.5 465) rotate(99.7276) scale(17.7553)">
<stop offset="0.055" stop-color="#7A73FF"/>
<stop offset="0.65" stop-color="#67DDFA"/>
<stop offset="1" stop-color="#4AFCF1"/>
</radialGradient>
<radialGradient id="paint16_radial_493_82522" cx="0" cy="0" r="1" gradientUnits="userSpaceOnUse" gradientTransform="translate(343.5 180.5) rotate(99.7276) scale(18.3894 18.3894)">
<stop offset="0.055" stop-color="#7A73FF"/>
<stop offset="0.65" stop-color="#67DDFA"/>
<stop offset="1" stop-color="#4AFCF1"/>
</radialGradient>
<radialGradient id="paint17_radial_493_82522" cx="0" cy="0" r="1" gradientUnits="userSpaceOnUse" gradientTransform="translate(343.5 180.5) rotate(99.7276) scale(18.3894 18.3894)">
<stop offset="0.055" stop-color="#7A73FF"/>
<stop offset="0.65" stop-color="#67DDFA"/>
<stop offset="1" stop-color="#4AFCF1"/>
</radialGradient>
<linearGradient id="paint18_linear_493_82522" x1="209.056" y1="81.698" x2="229.422" y2="84.7344" gradientUnits="userSpaceOnUse">
<stop offset="0.338542" stop-color="#7A73FF"/>
<stop offset="0.734375" stop-color="#75CDFF"/>
<stop offset="1" stop-color="#4AFCF1"/>
</linearGradient>
<linearGradient id="paint19_linear_493_82522" x1="770.891" y1="109.915" x2="219.714" y2="225.929" gradientUnits="userSpaceOnUse">
<stop offset="0.338542" stop-color="#7A73FF"/>
<stop offset="0.734375" stop-color="#75CDFF"/>
<stop offset="1" stop-color="#4AFCF1"/>
</linearGradient>
<linearGradient id="paint20_linear_493_82522" x1="120.5" y1="188" x2="120.99" y2="194.761" gradientUnits="userSpaceOnUse">
<stop offset="0.338542" stop-color="#7A73FF"/>
<stop offset="0.734375" stop-color="#75CDFF"/>
<stop offset="1" stop-color="#4AFCF1"/>
</linearGradient>
<linearGradient id="paint21_linear_493_82522" x1="-10.75" y1="143" x2="194.002" y2="275.737" gradientUnits="userSpaceOnUse">
<stop offset="0.338542" stop-color="#7A73FF"/>
<stop offset="0.734375" stop-color="#75CDFF"/>
<stop offset="1" stop-color="#4AFCF1"/>
</linearGradient>
<linearGradient id="paint22_linear_493_82522" x1="204" y1="296.937" x2="197.241" y2="296.435" gradientUnits="userSpaceOnUse">
<stop offset="0.338542" stop-color="#7A73FF"/>
<stop offset="0.734375" stop-color="#75CDFF"/>
<stop offset="1" stop-color="#4AFCF1"/>
</linearGradient>
<linearGradient id="paint23_linear_493_82522" x1="445.177" y1="505.076" x2="134.097" y2="370.49" gradientUnits="userSpaceOnUse">
<stop offset="0.338542" stop-color="#7A73FF"/>
<stop offset="0.734375" stop-color="#75CDFF"/>
<stop offset="1" stop-color="#4AFCF1"/>
</linearGradient>
<linearGradient id="paint24_linear_493_82522" x1="369" y1="547.375" x2="130.613" y2="218.082" gradientUnits="userSpaceOnUse">
<stop offset="0.338542" stop-color="#7A73FF"/>
<stop offset="0.734375" stop-color="#75CDFF"/>
<stop offset="1" stop-color="#4AFCF1"/>
</linearGradient>
<radialGradient id="paint25_radial_493_82522" cx="0" cy="0" r="1" gradientUnits="userSpaceOnUse" gradientTransform="translate(339.2 46) rotate(100.204) scale(17.7812 18.6158)">
<stop offset="0.055" stop-color="#7A73FF"/>
<stop offset="0.65" stop-color="#67DDFA"/>
<stop offset="1" stop-color="#4AFCF1"/>
</radialGradient>
</defs>
</svg>
