<svg width="46" height="45" viewBox="0 0 46 45" fill="none" xmlns="http://www.w3.org/2000/svg">
<path d="M23.0013 2.75415C12.3981 2.75415 3.72266 11.4296 3.72266 22.0328C3.72266 32.6361 12.3981 41.3115 23.0013 41.3115C33.6046 41.3115 42.28 32.6361 42.28 22.0328C42.28 11.4296 33.6046 2.75415 23.0013 2.75415ZM23.0013 37.4558C14.5187 37.4558 7.57839 30.5155 7.57839 22.0328C7.57839 13.5502 14.5187 6.60989 23.0013 6.60989C31.484 6.60989 38.4243 13.5502 38.4243 22.0328C38.4243 30.5155 31.484 37.4558 23.0013 37.4558Z" fill="url(#paint0_radial_339_59243)"/>
<path d="M33.6046 28.5876C32.2551 27.2381 30.7128 26.2742 28.9777 25.503C30.3272 23.9607 31.2912 22.0328 31.2912 19.7194C31.2912 15.0925 27.6282 11.4296 23.0013 11.4296C18.3745 11.4296 14.7115 15.0925 14.7115 19.7194C14.7115 22.0328 15.6754 23.9607 17.025 25.503C15.2899 26.2742 13.7476 27.2381 12.3981 28.5876C11.6269 29.3587 11.6269 30.5155 12.3981 31.2866C12.7836 31.6722 13.362 31.865 13.7476 31.865C14.3259 31.865 14.7115 31.6722 15.0971 31.2866C17.2177 29.166 19.9168 28.0092 23.0013 28.0092C25.8931 28.0092 28.785 29.166 30.9056 31.2866C31.6768 32.0578 32.8335 32.0578 33.6046 31.2866C34.3758 30.5155 34.3758 29.3587 33.6046 28.5876ZM18.5672 19.7194C18.5672 17.2132 20.4951 15.2853 23.0013 15.2853C25.5076 15.2853 27.4354 17.2132 27.4354 19.7194C27.4354 22.2256 25.5076 24.1535 23.0013 24.1535C20.4951 24.1535 18.5672 22.2256 18.5672 19.7194Z" fill="url(#paint1_radial_339_59243)"/>
<defs>
<radialGradient id="paint0_radial_339_59243" cx="0" cy="0" r="1" gradientUnits="userSpaceOnUse" gradientTransform="translate(23.0013 22.0328) rotate(99.7276) scale(24.4499)">
<stop offset="0.338542" stop-color="#7A73FF"/>
<stop offset="0.734375" stop-color="#75CDFF"/>
<stop offset="1" stop-color="#4AFCF1"/>
</radialGradient>
<radialGradient id="paint1_radial_339_59243" cx="0" cy="0" r="1" gradientUnits="userSpaceOnUse" gradientTransform="translate(23.0013 22.0328) rotate(99.7276) scale(24.4499)">
<stop offset="0.338542" stop-color="#7A73FF"/>
<stop offset="0.734375" stop-color="#75CDFF"/>
<stop offset="1" stop-color="#4AFCF1"/>
</radialGradient>
</defs>
</svg>
