<svg width="41" height="40" viewBox="0 0 41 40" fill="none" xmlns="http://www.w3.org/2000/svg">
<path d="M0.500002 20C0.500001 31.04 9.46 40 20.5 40C31.54 40 40.5 31.04 40.5 20C40.5 8.96 31.54 -7.83308e-07 20.5 -1.74846e-06C9.46 -2.7136e-06 0.500003 8.96 0.500002 20ZM36.5 20C36.5 28.84 29.34 36 20.5 36C11.66 36 4.5 28.84 4.5 20C4.5 11.16 11.66 4 20.5 4C29.34 4 36.5 11.16 36.5 20ZM12.5 20L20.5 12L23.32 14.82L20.16 18L28.5 18L28.5 22L20.16 22L23.34 25.18L20.5 28L12.5 20Z" fill="#514F4F" fill-opacity="0.5"/>
</svg>
