<svg width="211" height="62" viewBox="0 0 211 62" fill="none" xmlns="http://www.w3.org/2000/svg">
<rect x="0.5" y="0.5" width="210" height="61" rx="3.5" stroke="#3BD1F0"/>
<path d="M23.7236 40.8219L23.7234 40.8217C20.9024 37.2607 19.5 33.3211 19.5 28.9882V18.6275L34.3125 13.5288L49.125 18.6275V28.9882C49.125 33.3211 47.7232 37.2608 44.9034 40.8218C42.109 44.3503 38.583 46.6134 34.3125 47.6254C30.042 46.6134 26.5167 44.3503 23.7236 40.8219Z" fill="url(#paint0_linear_1481_53728)" stroke="#209DB7"/>
<path d="M22.4251 20.3911C22.4504 20.3457 22.5498 20.2373 22.79 20.0796C22.7592 20.1046 22.7298 20.1307 22.7036 20.1575C22.55 20.3145 22.4546 20.5451 22.3898 20.7318C22.3216 20.9283 22.2599 21.1622 22.2038 21.4133C22.2359 20.9382 22.3141 20.5904 22.4251 20.3911Z" stroke="#209DB7" stroke-opacity="0.8"/>
<path d="M42.4879 24.5804C42.088 24.1826 41.4419 24.1826 41.042 24.5804L31.183 34.3862L28.5205 31.7381C28.1206 31.3403 27.4745 31.3403 27.0746 31.7381C26.6716 32.1389 26.6716 32.791 27.0746 33.1918L31.183 37.278L42.4879 26.0341C42.8909 25.6333 42.8909 24.9812 42.4879 24.5804Z" fill="#209DB7"/>
<path d="M72.152 26H70.392V14.8H72.152V19.216H77.992V14.8H79.752V26H77.992V20.832H72.152V26ZM89.5886 24.656C89.7593 24.656 89.914 24.6187 90.0526 24.544V25.856C89.818 26.0267 89.482 26.112 89.0446 26.112C88.1486 26.112 87.5993 25.7387 87.3966 24.992C86.682 25.8027 85.7166 26.208 84.5006 26.208C83.658 26.208 82.954 25.9733 82.3886 25.504C81.834 25.0453 81.5566 24.4 81.5566 23.568C81.5566 22.736 81.8606 22.096 82.4686 21.648C83.066 21.1893 83.8126 20.96 84.7086 20.96C85.658 20.96 86.4953 21.1627 87.2206 21.568V21.136C87.2206 19.9947 86.4526 19.424 84.9166 19.424C84.0206 19.424 83.194 19.6587 82.4366 20.128V18.608C83.2153 18.16 84.17 17.936 85.3006 17.936C86.41 17.936 87.29 18.2027 87.9406 18.736C88.602 19.2587 88.9326 19.9947 88.9326 20.944V23.872C88.9326 24.1173 88.9913 24.3093 89.1086 24.448C89.2366 24.5867 89.3966 24.656 89.5886 24.656ZM87.2206 23.776V22.816C86.5593 22.4427 85.8606 22.256 85.1246 22.256C84.5486 22.256 84.0953 22.3627 83.7646 22.576C83.4446 22.7893 83.2846 23.088 83.2846 23.472C83.2846 23.8773 83.434 24.1867 83.7326 24.4C84.042 24.6133 84.458 24.72 84.9806 24.72C85.4073 24.72 85.8233 24.6347 86.2286 24.464C86.634 24.2827 86.9646 24.0533 87.2206 23.776ZM92.3675 28.16H90.7035V24.48H91.7275C92.1435 23.8507 92.4315 23.0773 92.5915 22.16C92.7515 21.2747 92.8422 19.936 92.8635 18.144H99.1195V24.48H100.48V28.16H98.8475V26H92.3675V28.16ZM93.5515 24.48H97.3915V19.664H94.4475C94.4475 21.7013 94.1488 23.3067 93.5515 24.48ZM101.489 22.064C101.489 20.88 101.862 19.8987 102.609 19.12C103.366 18.3307 104.337 17.936 105.521 17.936C106.332 17.936 107.02 18.1493 107.585 18.576C108.694 19.3653 109.249 20.5493 109.249 22.128V22.576H103.233C103.34 23.2373 103.654 23.7547 104.177 24.128C104.71 24.5013 105.382 24.688 106.193 24.688C107.089 24.688 107.932 24.4533 108.721 23.984V25.44C107.996 25.952 107.03 26.208 105.825 26.208C104.62 26.208 103.59 25.824 102.737 25.056C101.905 24.288 101.489 23.2907 101.489 22.064ZM103.249 21.264H107.505C107.484 20.7733 107.297 20.3413 106.945 19.968C106.582 19.584 106.081 19.392 105.441 19.392C104.833 19.392 104.326 19.5733 103.921 19.936C103.526 20.288 103.302 20.7307 103.249 21.264ZM103.121 16.512C102.929 16.32 102.833 16.0907 102.833 15.824C102.833 15.5573 102.929 15.3333 103.121 15.152C103.313 14.96 103.542 14.864 103.809 14.864C104.076 14.864 104.3 14.96 104.481 15.152C104.662 15.3333 104.753 15.5573 104.753 15.824C104.753 16.0907 104.662 16.32 104.481 16.512C104.3 16.6933 104.076 16.784 103.809 16.784C103.542 16.784 103.313 16.6933 103.121 16.512ZM106.433 16.512C106.241 16.32 106.145 16.0907 106.145 15.824C106.145 15.5573 106.241 15.3333 106.433 15.152C106.625 14.96 106.854 14.864 107.121 14.864C107.388 14.864 107.612 14.96 107.793 15.152C107.974 15.3333 108.065 15.5573 108.065 15.824C108.065 16.0907 107.974 16.32 107.793 16.512C107.612 16.6933 107.388 16.784 107.121 16.784C106.854 16.784 106.625 16.6933 106.433 16.512ZM111.904 26H109.776L113.52 21.792L110.224 18.144H112.256L115.008 21.216V18.144H116.736V21.216L119.488 18.144H121.52L118.192 21.792L121.968 26H119.824L116.736 22.496V26H115.008V22.496L111.904 26ZM125.191 26H123.463V18.144H125.191V21.216H129.175V18.144H130.903V26H129.175V22.736H125.191V26ZM140.586 24.656C140.756 24.656 140.911 24.6187 141.05 24.544V25.856C140.815 26.0267 140.479 26.112 140.042 26.112C139.146 26.112 138.596 25.7387 138.394 24.992C137.679 25.8027 136.714 26.208 135.498 26.208C134.655 26.208 133.951 25.9733 133.386 25.504C132.831 25.0453 132.554 24.4 132.554 23.568C132.554 22.736 132.858 22.096 133.466 21.648C134.063 21.1893 134.81 20.96 135.706 20.96C136.655 20.96 137.492 21.1627 138.218 21.568V21.136C138.218 19.9947 137.45 19.424 135.914 19.424C135.018 19.424 134.191 19.6587 133.434 20.128V18.608C134.212 18.16 135.167 17.936 136.298 17.936C137.407 17.936 138.287 18.2027 138.938 18.736C139.599 19.2587 139.93 19.9947 139.93 20.944V23.872C139.93 24.1173 139.988 24.3093 140.106 24.448C140.234 24.5867 140.394 24.656 140.586 24.656ZM138.218 23.776V22.816C137.556 22.4427 136.858 22.256 136.122 22.256C135.546 22.256 135.092 22.3627 134.762 22.576C134.442 22.7893 134.282 23.088 134.282 23.472C134.282 23.8773 134.431 24.1867 134.73 24.4C135.039 24.6133 135.455 24.72 135.978 24.72C136.404 24.72 136.82 24.6347 137.226 24.464C137.631 24.2827 137.962 24.0533 138.218 23.776ZM143.908 26H141.924L144.148 22.944C143.594 22.8053 143.162 22.5333 142.852 22.128C142.554 21.7227 142.404 21.2213 142.404 20.624C142.404 19.8667 142.655 19.264 143.156 18.816C143.668 18.368 144.404 18.144 145.364 18.144H149.492V26H147.764V23.296H145.86L143.908 26ZM145.604 21.904H147.764V19.536H145.604C145.146 19.536 144.788 19.6427 144.532 19.856C144.287 20.0587 144.164 20.3467 144.164 20.72C144.164 21.0933 144.287 21.3867 144.532 21.6C144.788 21.8027 145.146 21.904 145.604 21.904ZM71.96 45H70.232V37.144H71.96V40.12L75.064 37.144H77.272L73.544 40.664L77.832 45H75.464L71.96 41.448V45ZM82.3945 43.688C83.1198 43.688 83.7332 43.4373 84.2345 42.936C84.7252 42.4453 84.9705 41.8213 84.9705 41.064C84.9705 40.3173 84.7252 39.6987 84.2345 39.208C83.7332 38.7067 83.1198 38.456 82.3945 38.456C81.6585 38.456 81.0398 38.7067 80.5385 39.208C80.0478 39.6987 79.8025 40.3173 79.8025 41.064C79.8025 41.8213 80.0478 42.4453 80.5385 42.936C81.0398 43.4373 81.6585 43.688 82.3945 43.688ZM82.3945 45.208C81.1358 45.208 80.1012 44.808 79.2905 44.008C78.4798 43.208 78.0745 42.2267 78.0745 41.064C78.0745 39.912 78.4798 38.936 79.2905 38.136C80.1012 37.336 81.1358 36.936 82.3945 36.936C83.6318 36.936 84.6612 37.336 85.4825 38.136C86.2932 38.936 86.6985 39.912 86.6985 41.064C86.6985 42.216 86.2932 43.1973 85.4825 44.008C84.6612 44.808 83.6318 45.208 82.3945 45.208ZM90.1073 45H88.4433V37.144H90.1393L92.8273 40.408L95.5313 37.144H97.2273V45H95.5633V39.496L93.1633 42.392H92.4913L90.1073 39.496V45ZM101.261 45H99.5333V37.144H106.861V45H105.133V38.664H101.261V45ZM116.546 43.656C116.717 43.656 116.871 43.6187 117.01 43.544V44.856C116.775 45.0267 116.439 45.112 116.002 45.112C115.106 45.112 114.557 44.7387 114.354 43.992C113.639 44.8027 112.674 45.208 111.458 45.208C110.615 45.208 109.911 44.9733 109.346 44.504C108.791 44.0453 108.514 43.4 108.514 42.568C108.514 41.736 108.818 41.096 109.426 40.648C110.023 40.1893 110.77 39.96 111.666 39.96C112.615 39.96 113.453 40.1627 114.178 40.568V40.136C114.178 38.9947 113.41 38.424 111.874 38.424C110.978 38.424 110.151 38.6587 109.394 39.128V37.608C110.173 37.16 111.127 36.936 112.258 36.936C113.367 36.936 114.247 37.2027 114.898 37.736C115.559 38.2587 115.89 38.9947 115.89 39.944V42.872C115.89 43.1173 115.949 43.3093 116.066 43.448C116.194 43.5867 116.354 43.656 116.546 43.656ZM114.178 42.776V41.816C113.517 41.4427 112.818 41.256 112.082 41.256C111.506 41.256 111.053 41.3627 110.722 41.576C110.402 41.7893 110.242 42.088 110.242 42.472C110.242 42.8773 110.391 43.1867 110.69 43.4C110.999 43.6133 111.415 43.72 111.938 43.72C112.365 43.72 112.781 43.6347 113.186 43.464C113.591 43.2827 113.922 43.0533 114.178 42.776ZM120.285 45H118.557V37.144H120.285V40.216H124.269V37.144H125.997V45H124.269V41.736H120.285V45ZM129.919 45H128.303V37.144H130.031V42.472L134.271 37.144H135.887V45H134.159V39.656L129.919 45ZM139.502 45H137.518L139.742 41.944C139.187 41.8053 138.755 41.5333 138.446 41.128C138.147 40.7227 137.998 40.2213 137.998 39.624C137.998 38.8667 138.249 38.264 138.75 37.816C139.262 37.368 139.998 37.144 140.958 37.144H145.086V45H143.358V42.296H141.454L139.502 45ZM141.198 40.904H143.358V38.536H141.198C140.739 38.536 140.382 38.6427 140.126 38.856C139.881 39.0587 139.758 39.3467 139.758 39.72C139.758 40.0933 139.881 40.3867 140.126 40.6C140.382 40.8027 140.739 40.904 141.198 40.904Z" fill="#209DB7"/>
<defs>
<linearGradient id="paint0_linear_1481_53728" x1="34.3125" y1="13" x2="34.3125" y2="48.1389" gradientUnits="userSpaceOnUse">
<stop stop-color="#DDF5FF"/>
<stop offset="1" stop-color="white"/>
</linearGradient>
</defs>
</svg>
