<svg width="179" height="48" viewBox="0 0 179 48" fill="none" xmlns="http://www.w3.org/2000/svg">
<rect x="0.5" y="0.5" width="178" height="47" rx="3.5" stroke="#3BD1F0"/>
<path d="M20.2749 30.7384L20.2748 30.7383C18.3326 28.2866 17.3696 25.579 17.3696 22.6007V15.5019L27.5218 12.0073L37.674 15.5019V22.6007C37.674 25.579 36.7114 28.2867 34.7701 30.7383C32.8546 33.1571 30.4427 34.7093 27.5218 35.4093C24.6009 34.7093 22.1896 33.1571 20.2749 30.7384Z" fill="url(#paint0_linear_1481_70198)" stroke="#209DB7"/>
<mask id="path-3-inside-1_1481_70198" fill="white">
<path d="M33.0642 30.7018C32.0859 32.0352 28.4989 33.7018 28.4989 33.7018C28.4989 33.7018 31.6397 31.7018 32.7381 30.3685C33.8364 29.0352 35.3468 27.0352 35.3468 27.0352C35.3468 27.0352 34.0424 29.3685 33.0642 30.7018Z"/>
<path d="M18.9485 16.4518C19.4691 15.5174 25.2389 14.0352 25.2389 14.0352C25.2389 14.0352 20.0789 16.3091 19.6947 16.7018C19.3106 17.0945 19.0426 20.3685 19.0426 20.3685C19.0426 20.3685 18.428 17.3863 18.9485 16.4518Z"/>
</mask>
<path d="M28.4989 33.7018L27.9618 32.8583L28.9203 34.6087L28.4989 33.7018ZM33.0642 30.7018L33.8704 31.2934V31.2934L33.0642 30.7018ZM35.3468 27.0352L36.2196 27.5231L34.5487 26.4325L35.3468 27.0352ZM25.2389 14.0352L25.6422 14.9502L24.9901 13.0666L25.2389 14.0352ZM18.9485 16.4518L19.8221 16.9385L18.9485 16.4518ZM19.0426 20.3685L18.0631 20.5703L20.0392 20.4501L19.0426 20.3685ZM19.6947 16.7018L18.9799 16.0025L18.9799 16.0025L19.6947 16.7018ZM28.4989 33.7018C28.9203 34.6087 28.9204 34.6087 28.9205 34.6086C28.9206 34.6086 28.9207 34.6085 28.9208 34.6085C28.9211 34.6084 28.9214 34.6082 28.9217 34.6081C28.9224 34.6078 28.9233 34.6073 28.9244 34.6068C28.9266 34.6058 28.9297 34.6044 28.9336 34.6025C28.9414 34.5989 28.9525 34.5936 28.9668 34.5868C28.9955 34.5733 29.0367 34.5537 29.089 34.5285C29.1937 34.4781 29.3429 34.4052 29.5245 34.3137C29.887 34.1311 30.3824 33.8726 30.9115 33.5697C31.4383 33.2681 32.0119 32.915 32.5253 32.5425C33.0225 32.1818 33.5321 31.7545 33.8704 31.2934L32.2579 30.1103C32.1071 30.3158 31.8014 30.5968 31.3509 30.9236C30.9167 31.2386 30.4101 31.5522 29.9179 31.834C29.428 32.1144 28.9655 32.3559 28.6248 32.5275C28.4549 32.6131 28.3163 32.6808 28.2209 32.7267C28.1733 32.7497 28.1365 32.7672 28.1121 32.7787C28.0999 32.7845 28.0908 32.7888 28.0849 32.7915C28.082 32.7928 28.08 32.7938 28.0787 32.7944C28.0781 32.7947 28.0777 32.7949 28.0775 32.795C28.0774 32.795 28.0774 32.795 28.0774 32.795C28.0774 32.795 28.0774 32.795 28.0774 32.795C28.0775 32.795 28.0776 32.7949 28.4989 33.7018ZM33.8704 31.2934C34.389 30.5865 34.9797 29.6358 35.4306 28.8816C35.6585 28.5005 35.8551 28.1619 35.9949 27.9185C36.0648 27.7967 36.1206 27.6985 36.1591 27.6305C36.1784 27.5965 36.1933 27.57 36.2035 27.5518C36.2086 27.5427 36.2126 27.5357 36.2153 27.5309C36.2166 27.5285 36.2177 27.5266 36.2184 27.5253C36.2188 27.5247 36.219 27.5242 36.2193 27.5238C36.2194 27.5236 36.2194 27.5234 36.2195 27.5233C36.2195 27.5233 36.2196 27.5232 36.2196 27.5232C36.2196 27.5231 36.2196 27.5231 35.3468 27.0352C34.4739 26.5472 34.4739 26.5472 34.4739 26.5472C34.4739 26.5472 34.4739 26.5472 34.4739 26.5472C34.4739 26.5472 34.4739 26.5473 34.4738 26.5474C34.4737 26.5476 34.4735 26.5479 34.4732 26.5484C34.4727 26.5493 34.4719 26.5508 34.4707 26.5529C34.4684 26.557 34.4649 26.5632 34.4602 26.5716C34.4508 26.5882 34.4368 26.6132 34.4185 26.6455C34.3818 26.7103 34.3281 26.8048 34.2605 26.9226C34.1251 27.1584 33.9345 27.4865 33.714 27.8554C33.2681 28.6012 32.7175 29.4838 32.2579 30.1103L33.8704 31.2934ZM25.2389 14.0352C24.9901 13.0666 24.99 13.0666 24.9899 13.0667C24.9898 13.0667 24.9897 13.0667 24.9896 13.0667C24.9893 13.0668 24.989 13.0669 24.9885 13.067C24.9877 13.0672 24.9865 13.0675 24.9849 13.0679C24.9818 13.0687 24.9773 13.0699 24.9715 13.0714C24.9599 13.0744 24.9429 13.0788 24.921 13.0846C24.8771 13.096 24.8133 13.1128 24.7322 13.1345C24.5701 13.1777 24.3388 13.2403 24.0599 13.3183C23.5031 13.474 22.7519 13.6924 21.9813 13.9416C21.2157 14.1891 20.4083 14.4741 19.7481 14.7648C19.4196 14.9094 19.1028 15.0661 18.8377 15.2321C18.6113 15.3738 18.272 15.6114 18.0749 15.9652L19.8221 16.9385C19.7552 17.0586 19.7101 17.0455 19.8989 16.9273C20.0489 16.8334 20.2683 16.721 20.5539 16.5952C21.122 16.3452 21.8546 16.0844 22.5965 15.8446C23.3335 15.6063 24.0573 15.3958 24.5986 15.2444C24.8687 15.1688 25.0922 15.1084 25.2477 15.0669C25.3254 15.0462 25.3861 15.0302 25.427 15.0195C25.4474 15.0141 25.4629 15.0101 25.4732 15.0075C25.4783 15.0061 25.4821 15.0052 25.4845 15.0045C25.4858 15.0042 25.4866 15.004 25.4872 15.0039C25.4874 15.0038 25.4876 15.0037 25.4877 15.0037C25.4878 15.0037 25.4878 15.0037 25.4878 15.0037C25.4878 15.0037 25.4877 15.0037 25.2389 14.0352ZM18.0749 15.9652C17.8227 16.4179 17.7609 16.9838 17.7443 17.4201C17.7263 17.8966 17.7589 18.4084 17.8056 18.8627C17.8527 19.3215 17.9167 19.7457 17.9685 20.0538C17.9945 20.2085 18.0177 20.3354 18.0346 20.4246C18.0431 20.4692 18.05 20.5045 18.0549 20.5292C18.0573 20.5415 18.0593 20.5512 18.0606 20.5581C18.0613 20.5616 18.0619 20.5643 18.0623 20.5664C18.0625 20.5674 18.0627 20.5682 18.0628 20.5689C18.0629 20.5692 18.063 20.5695 18.063 20.5698C18.063 20.5699 18.0631 20.57 18.0631 20.5701C18.0631 20.5702 18.0631 20.5703 19.0426 20.3685C20.022 20.1666 20.022 20.1667 20.022 20.1668C20.022 20.1668 20.022 20.1669 20.022 20.167C20.022 20.167 20.022 20.167 20.022 20.167C20.022 20.1669 20.022 20.1667 20.0219 20.1663C20.0217 20.1654 20.0214 20.1639 20.021 20.1617C20.0201 20.1572 20.0186 20.1501 20.0167 20.1404C20.0128 20.1209 20.007 20.0912 19.9997 20.0525C19.985 19.9749 19.9643 19.8615 19.9408 19.722C19.8937 19.4418 19.8366 19.062 19.7951 18.6584C19.7532 18.2504 19.7298 17.8414 19.7429 17.4959C19.7494 17.3238 19.7645 17.1842 19.785 17.078C19.8067 16.9654 19.8273 16.9292 19.8221 16.9385L18.0749 15.9652ZM19.0426 20.3685C20.0392 20.4501 20.0392 20.4501 20.0392 20.4501C20.0392 20.4501 20.0392 20.4502 20.0392 20.4501C20.0392 20.4501 20.0392 20.45 20.0392 20.4499C20.0393 20.4496 20.0393 20.4492 20.0393 20.4486C20.0394 20.4473 20.0396 20.4452 20.0399 20.4424C20.0403 20.4368 20.041 20.4282 20.042 20.4167C20.044 20.3939 20.0469 20.3599 20.0508 20.3162C20.0587 20.2287 20.0703 20.1026 20.0855 19.9497C20.116 19.6433 20.1603 19.2333 20.2159 18.8138C20.2721 18.3901 20.3373 17.9759 20.4077 17.6539C20.4432 17.4913 20.4754 17.3741 20.5012 17.2999C20.5425 17.1809 20.5306 17.2774 20.4096 17.4011L18.9799 16.0025C18.7628 16.2244 18.6585 16.5092 18.6116 16.6444C18.5492 16.8243 18.4974 17.0273 18.4538 17.2269C18.3659 17.6292 18.2921 18.1071 18.2333 18.551C18.1738 18.9991 18.1271 19.4322 18.0953 19.7519C18.0794 19.9121 18.0671 20.0448 18.0588 20.1379C18.0546 20.1845 18.0514 20.2212 18.0493 20.2465C18.0482 20.2592 18.0474 20.269 18.0468 20.2758C18.0465 20.2792 18.0463 20.2818 18.0461 20.2837C18.0461 20.2846 18.046 20.2853 18.046 20.2859C18.0459 20.2862 18.0459 20.2864 18.0459 20.2865C18.0459 20.2866 18.0459 20.2867 18.0459 20.2868C18.0459 20.2868 18.0459 20.2869 19.0426 20.3685ZM20.4096 17.4011C20.3507 17.4613 20.3128 17.4797 20.3647 17.446C20.3986 17.424 20.4532 17.3911 20.5324 17.3467C20.6898 17.2584 20.9065 17.1456 21.1696 17.0142C21.6937 16.7527 22.3639 16.4366 23.0299 16.1292C23.6944 15.8225 24.3477 15.5277 24.8354 15.3093C25.0791 15.2001 25.2811 15.1102 25.4221 15.0477C25.4925 15.0164 25.5477 14.992 25.5852 14.9754C25.604 14.9671 25.6183 14.9608 25.6279 14.9565C25.6327 14.9544 25.6363 14.9528 25.6387 14.9518C25.6399 14.9512 25.6408 14.9509 25.6414 14.9506C25.6417 14.9505 25.6419 14.9504 25.642 14.9503C25.6421 14.9503 25.6421 14.9503 25.6421 14.9502C25.6422 14.9502 25.6422 14.9502 25.2389 14.0352C24.8356 13.1201 24.8356 13.1201 24.8355 13.1201C24.8355 13.1201 24.8354 13.1202 24.8353 13.1202C24.8352 13.1203 24.8349 13.1204 24.8346 13.1205C24.8339 13.1208 24.8329 13.1213 24.8316 13.1218C24.8291 13.123 24.8253 13.1246 24.8203 13.1268C24.8103 13.1312 24.7956 13.1377 24.7765 13.1462C24.7382 13.1631 24.6822 13.1879 24.6108 13.2196C24.4681 13.2829 24.264 13.3738 24.0179 13.4839C23.5261 13.7042 22.8654 14.0024 22.1918 14.3133C21.5198 14.6234 20.8279 14.9495 20.2765 15.2247C20.0018 15.3618 19.7524 15.4911 19.554 15.6023C19.4554 15.6576 19.3598 15.7139 19.2759 15.7684C19.21 15.8111 19.0868 15.8932 18.9799 16.0025L20.4096 17.4011ZM35.3468 27.0352C34.5487 26.4325 34.5488 26.4325 34.5487 26.4325C34.5487 26.4325 34.5487 26.4325 34.5487 26.4326C34.5487 26.4326 34.5486 26.4327 34.5485 26.4328C34.5484 26.433 34.5481 26.4333 34.5478 26.4338C34.5471 26.4347 34.5461 26.4361 34.5447 26.4379C34.5419 26.4416 34.5377 26.4472 34.5321 26.4546C34.521 26.4693 34.5044 26.4911 34.4829 26.5195C34.4399 26.5762 34.3771 26.6589 34.2982 26.7624C34.1405 26.9694 33.9187 27.2593 33.6629 27.5906C33.1496 28.2552 32.5051 29.0785 31.9662 29.7327L33.5099 31.0043C34.0694 30.3252 34.7293 29.4818 35.2457 28.8131C35.5048 28.4777 35.7292 28.1843 35.889 27.9746C35.9689 27.8697 36.0327 27.7858 36.0765 27.7279C36.0985 27.699 36.1155 27.6766 36.127 27.6613C36.1327 27.6537 36.1371 27.6479 36.1401 27.6439C36.1416 27.642 36.1428 27.6405 36.1435 27.6394C36.1439 27.6389 36.1442 27.6385 36.1444 27.6382C36.1445 27.6381 36.1446 27.638 36.1447 27.6379C36.1447 27.6379 36.1447 27.6379 36.1447 27.6378C36.1448 27.6378 36.1448 27.6378 35.3468 27.0352ZM31.9662 29.7327C31.5097 30.2869 30.5512 31.0523 29.6209 31.7247C29.172 32.0491 28.7555 32.3336 28.451 32.5372C28.299 32.6388 28.1755 32.7199 28.0905 32.7752C28.0481 32.8028 28.0153 32.824 27.9934 32.8381C27.9824 32.8451 27.9742 32.8504 27.9689 32.8538C27.9663 32.8555 27.9643 32.8567 27.9631 32.8575C27.9625 32.8579 27.9621 32.8581 27.9619 32.8583C27.9618 32.8583 27.9617 32.8584 27.9617 32.8584C27.9617 32.8584 27.9617 32.8584 27.9617 32.8584C27.9618 32.8584 27.9618 32.8583 28.4989 33.7018C29.0361 34.5453 29.0361 34.5453 29.0362 34.5452C29.0363 34.5452 29.0364 34.5451 29.0364 34.5451C29.0366 34.545 29.0368 34.5448 29.0371 34.5447C29.0377 34.5443 29.0384 34.5438 29.0393 34.5433C29.0411 34.5421 29.0437 34.5404 29.0471 34.5383C29.0537 34.5341 29.0633 34.5279 29.0756 34.52C29.1002 34.5041 29.136 34.481 29.1815 34.4514C29.2726 34.3921 29.403 34.3065 29.5626 34.1998C29.8814 33.9867 30.3187 33.6879 30.7924 33.3457C31.707 32.6847 32.8681 31.7834 33.5099 31.0043L31.9662 29.7327Z" fill="#209DB7" fill-opacity="0.8" mask="url(#path-3-inside-1_1481_70198)"/>
<path d="M33.2092 19.5354C32.9311 19.2587 32.4816 19.2587 32.2034 19.5354L25.3449 26.3568L23.4928 24.5146C23.2146 24.2379 22.7651 24.2379 22.4869 24.5146C22.2066 24.7934 22.2066 25.2471 22.4869 25.5259L25.3449 28.3685L33.2092 20.5467C33.4896 20.2678 33.4896 19.8142 33.2092 19.5354Z" fill="#209DB7"/>
<path d="M58.4562 19H56.6962V7.8H58.4562V12.216H64.2962V7.8H66.0562V19H64.2962V13.832H58.4562V19ZM75.8928 17.656C76.0635 17.656 76.2182 17.6187 76.3568 17.544V18.856C76.1222 19.0267 75.7862 19.112 75.3488 19.112C74.4528 19.112 73.9035 18.7387 73.7008 17.992C72.9862 18.8027 72.0208 19.208 70.8048 19.208C69.9622 19.208 69.2582 18.9733 68.6928 18.504C68.1382 18.0453 67.8608 17.4 67.8608 16.568C67.8608 15.736 68.1648 15.096 68.7728 14.648C69.3702 14.1893 70.1168 13.96 71.0128 13.96C71.9622 13.96 72.7995 14.1627 73.5248 14.568V14.136C73.5248 12.9947 72.7568 12.424 71.2208 12.424C70.3248 12.424 69.4982 12.6587 68.7408 13.128V11.608C69.5195 11.16 70.4742 10.936 71.6048 10.936C72.7142 10.936 73.5942 11.2027 74.2448 11.736C74.9062 12.2587 75.2368 12.9947 75.2368 13.944V16.872C75.2368 17.1173 75.2955 17.3093 75.4128 17.448C75.5408 17.5867 75.7008 17.656 75.8928 17.656ZM73.5248 16.776V15.816C72.8635 15.4427 72.1648 15.256 71.4288 15.256C70.8528 15.256 70.3995 15.3627 70.0688 15.576C69.7488 15.7893 69.5888 16.088 69.5888 16.472C69.5888 16.8773 69.7382 17.1867 70.0368 17.4C70.3462 17.6133 70.7622 17.72 71.2848 17.72C71.7115 17.72 72.1275 17.6347 72.5328 17.464C72.9382 17.2827 73.2688 17.0533 73.5248 16.776ZM78.6717 21.16H77.0077V17.48H78.0317C78.4477 16.8507 78.7357 16.0773 78.8957 15.16C79.0557 14.2747 79.1464 12.936 79.1677 11.144H85.4237V17.48H86.7837V21.16H85.1517V19H78.6717V21.16ZM79.8557 17.48H83.6957V12.664H80.7517C80.7517 14.7013 80.453 16.3067 79.8557 17.48ZM87.7931 15.064C87.7931 13.88 88.1664 12.8987 88.9131 12.12C89.6704 11.3307 90.6411 10.936 91.8251 10.936C92.6357 10.936 93.3237 11.1493 93.8891 11.576C94.9984 12.3653 95.5531 13.5493 95.5531 15.128V15.576H89.5371C89.6437 16.2373 89.9584 16.7547 90.4811 17.128C91.0144 17.5013 91.6864 17.688 92.4971 17.688C93.3931 17.688 94.2357 17.4533 95.0251 16.984V18.44C94.2997 18.952 93.3344 19.208 92.1291 19.208C90.9237 19.208 89.8944 18.824 89.0411 18.056C88.2091 17.288 87.7931 16.2907 87.7931 15.064ZM89.5531 14.264H93.8091C93.7877 13.7733 93.6011 13.3413 93.2491 12.968C92.8864 12.584 92.3851 12.392 91.7451 12.392C91.1371 12.392 90.6304 12.5733 90.2251 12.936C89.8304 13.288 89.6064 13.7307 89.5531 14.264ZM89.4251 9.512C89.2331 9.32 89.1371 9.09067 89.1371 8.824C89.1371 8.55733 89.2331 8.33333 89.4251 8.152C89.6171 7.96 89.8464 7.864 90.1131 7.864C90.3797 7.864 90.6037 7.96 90.7851 8.152C90.9664 8.33333 91.0571 8.55733 91.0571 8.824C91.0571 9.09067 90.9664 9.32 90.7851 9.512C90.6037 9.69333 90.3797 9.784 90.1131 9.784C89.8464 9.784 89.6171 9.69333 89.4251 9.512ZM92.7371 9.512C92.5451 9.32 92.4491 9.09067 92.4491 8.824C92.4491 8.55733 92.5451 8.33333 92.7371 8.152C92.9291 7.96 93.1584 7.864 93.4251 7.864C93.6917 7.864 93.9157 7.96 94.0971 8.152C94.2784 8.33333 94.3691 8.55733 94.3691 8.824C94.3691 9.09067 94.2784 9.32 94.0971 9.512C93.9157 9.69333 93.6917 9.784 93.4251 9.784C93.1584 9.784 92.9291 9.69333 92.7371 9.512ZM98.2086 19H96.0806L99.8246 14.792L96.5286 11.144H98.5606L101.313 14.216V11.144H103.041V14.216L105.793 11.144H107.825L104.497 14.792L108.273 19H106.129L103.041 15.496V19H101.313V15.496L98.2086 19ZM111.495 19H109.767V11.144H111.495V14.216H115.479V11.144H117.207V19H115.479V15.736H111.495V19ZM126.89 17.656C127.06 17.656 127.215 17.6187 127.354 17.544V18.856C127.119 19.0267 126.783 19.112 126.346 19.112C125.45 19.112 124.9 18.7387 124.698 17.992C123.983 18.8027 123.018 19.208 121.802 19.208C120.959 19.208 120.255 18.9733 119.69 18.504C119.135 18.0453 118.858 17.4 118.858 16.568C118.858 15.736 119.162 15.096 119.77 14.648C120.367 14.1893 121.114 13.96 122.01 13.96C122.959 13.96 123.796 14.1627 124.522 14.568V14.136C124.522 12.9947 123.754 12.424 122.218 12.424C121.322 12.424 120.495 12.6587 119.738 13.128V11.608C120.516 11.16 121.471 10.936 122.602 10.936C123.711 10.936 124.591 11.2027 125.242 11.736C125.903 12.2587 126.234 12.9947 126.234 13.944V16.872C126.234 17.1173 126.292 17.3093 126.41 17.448C126.538 17.5867 126.698 17.656 126.89 17.656ZM124.522 16.776V15.816C123.86 15.4427 123.162 15.256 122.426 15.256C121.85 15.256 121.396 15.3627 121.066 15.576C120.746 15.7893 120.586 16.088 120.586 16.472C120.586 16.8773 120.735 17.1867 121.034 17.4C121.343 17.6133 121.759 17.72 122.282 17.72C122.708 17.72 123.124 17.6347 123.53 17.464C123.935 17.2827 124.266 17.0533 124.522 16.776ZM130.213 19H128.229L130.453 15.944C129.898 15.8053 129.466 15.5333 129.157 15.128C128.858 14.7227 128.709 14.2213 128.709 13.624C128.709 12.8667 128.959 12.264 129.461 11.816C129.973 11.368 130.709 11.144 131.669 11.144H135.797V19H134.069V16.296H132.165L130.213 19ZM131.909 14.904H134.069V12.536H131.909C131.45 12.536 131.093 12.6427 130.837 12.856C130.591 13.0587 130.469 13.3467 130.469 13.72C130.469 14.0933 130.591 14.3867 130.837 14.6C131.093 14.8027 131.45 14.904 131.909 14.904ZM58.2642 38H56.5362V30.144H58.2642V33.12L61.3682 30.144H63.5762L59.8482 33.664L64.1362 38H61.7682L58.2642 34.448V38ZM68.6987 36.688C69.424 36.688 70.0374 36.4373 70.5387 35.936C71.0294 35.4453 71.2747 34.8213 71.2747 34.064C71.2747 33.3173 71.0294 32.6987 70.5387 32.208C70.0374 31.7067 69.424 31.456 68.6987 31.456C67.9627 31.456 67.344 31.7067 66.8427 32.208C66.352 32.6987 66.1067 33.3173 66.1067 34.064C66.1067 34.8213 66.352 35.4453 66.8427 35.936C67.344 36.4373 67.9627 36.688 68.6987 36.688ZM68.6987 38.208C67.44 38.208 66.4054 37.808 65.5947 37.008C64.784 36.208 64.3787 35.2267 64.3787 34.064C64.3787 32.912 64.784 31.936 65.5947 31.136C66.4054 30.336 67.44 29.936 68.6987 29.936C69.936 29.936 70.9654 30.336 71.7867 31.136C72.5974 31.936 73.0027 32.912 73.0027 34.064C73.0027 35.216 72.5974 36.1973 71.7867 37.008C70.9654 37.808 69.936 38.208 68.6987 38.208ZM76.4114 38H74.7474V30.144H76.4434L79.1314 33.408L81.8355 30.144H83.5315V38H81.8674V32.496L79.4674 35.392H78.7954L76.4114 32.496V38ZM87.5654 38H85.8374V30.144H93.1655V38H91.4374V31.664H87.5654V38ZM102.85 36.656C103.021 36.656 103.176 36.6187 103.314 36.544V37.856C103.08 38.0267 102.744 38.112 102.306 38.112C101.41 38.112 100.861 37.7387 100.658 36.992C99.9437 37.8027 98.9783 38.208 97.7623 38.208C96.9197 38.208 96.2157 37.9733 95.6503 37.504C95.0957 37.0453 94.8183 36.4 94.8183 35.568C94.8183 34.736 95.1223 34.096 95.7303 33.648C96.3277 33.1893 97.0743 32.96 97.9703 32.96C98.9197 32.96 99.757 33.1627 100.482 33.568V33.136C100.482 31.9947 99.7143 31.424 98.1783 31.424C97.2823 31.424 96.4557 31.6587 95.6983 32.128V30.608C96.477 30.16 97.4317 29.936 98.5623 29.936C99.6717 29.936 100.552 30.2027 101.202 30.736C101.864 31.2587 102.194 31.9947 102.194 32.944V35.872C102.194 36.1173 102.253 36.3093 102.37 36.448C102.498 36.5867 102.658 36.656 102.85 36.656ZM100.482 35.776V34.816C99.821 34.4427 99.1223 34.256 98.3863 34.256C97.8103 34.256 97.357 34.3627 97.0263 34.576C96.7063 34.7893 96.5463 35.088 96.5463 35.472C96.5463 35.8773 96.6957 36.1867 96.9943 36.4C97.3037 36.6133 97.7197 36.72 98.2423 36.72C98.669 36.72 99.085 36.6347 99.4903 36.464C99.8957 36.2827 100.226 36.0533 100.482 35.776ZM106.589 38H104.861V30.144H106.589V33.216H110.573V30.144H112.301V38H110.573V34.736H106.589V38ZM116.223 38H114.607V30.144H116.335V35.472L120.575 30.144H122.191V38H120.463V32.656L116.223 38ZM125.806 38H123.822L126.046 34.944C125.492 34.8053 125.06 34.5333 124.75 34.128C124.452 33.7227 124.302 33.2213 124.302 32.624C124.302 31.8667 124.553 31.264 125.054 30.816C125.566 30.368 126.302 30.144 127.262 30.144H131.39V38H129.662V35.296H127.758L125.806 38ZM127.502 33.904H129.662V31.536H127.502C127.044 31.536 126.686 31.6427 126.43 31.856C126.185 32.0587 126.062 32.3467 126.062 32.72C126.062 33.0933 126.185 33.3867 126.43 33.6C126.686 33.8027 127.044 33.904 127.502 33.904Z" fill="#209DB7"/>
<defs>
<linearGradient id="paint0_linear_1481_70198" x1="27.5218" y1="11.4785" x2="27.5218" y2="35.923" gradientUnits="userSpaceOnUse">
<stop stop-color="#DDF5FF"/>
<stop offset="1" stop-color="white"/>
</linearGradient>
</defs>
</svg>
