<svg width="239" height="272" viewBox="0 0 239 272" fill="none" xmlns="http://www.w3.org/2000/svg">
<g filter="url(#filter0_dd_443_58239)">
<rect x="8" y="166" width="113" height="94" rx="12" fill="white"/>
<path d="M75.2318 190.433C74.6549 189.856 73.7895 189.856 73.2125 190.433C72.6356 191.01 72.6356 191.876 73.2125 192.453C75.8088 195.05 77.2512 198.512 77.2512 202.264C77.2512 206.015 75.8088 209.478 73.2125 212.075C70.6162 214.672 67.1546 216.114 63.4044 216.114C60.2312 216.114 57.058 214.96 54.6059 212.94L56.481 210.92C58.5003 212.507 60.9524 213.229 63.2602 213.229C66.1449 213.229 68.8854 212.219 71.049 210.055C75.3761 205.726 75.3761 198.657 71.049 194.473C66.7218 190.144 59.6542 190.144 55.4713 194.473C51.5769 198.368 51.1442 204.572 54.4617 208.9L51.4327 212.075C50.8558 212.652 50.8558 213.517 51.4327 214.095C54.6059 217.269 58.7888 219 63.2602 219C67.7315 219 71.9144 217.269 75.0876 214.095C78.2608 210.92 79.9917 206.736 79.9917 202.264C80.1359 197.791 78.405 193.607 75.2318 190.433ZM57.6349 196.493C59.2215 194.905 61.3851 194.04 63.4044 194.04C65.5679 194.04 67.5873 194.905 69.1739 196.493C72.3471 199.667 72.3471 204.861 69.1739 208.035C66.0007 211.209 60.8081 211.209 57.6349 208.035C54.4617 204.861 54.4617 199.667 57.6349 196.493Z" fill="url(#paint0_radial_443_58239)"/>
<path d="M27.1329 240V231.469H28.6563L31.4278 237.885C31.4786 238.002 31.5274 238.125 31.5743 238.254C31.6251 238.379 31.67 238.496 31.7091 238.605H31.7559C31.7911 238.496 31.8321 238.379 31.879 238.254C31.9259 238.125 31.9747 238.002 32.0255 237.885L34.7794 231.469H36.3321V240H35.2071V233.73C35.2071 233.613 35.2091 233.482 35.213 233.338C35.2208 233.189 35.2325 233.057 35.2481 232.939H35.1954C35.1641 233.057 35.1212 233.189 35.0665 233.338C35.0157 233.482 34.9649 233.613 34.9141 233.73L32.2305 240H31.1934L28.4923 233.73C28.4415 233.613 28.3907 233.482 28.3399 233.338C28.293 233.189 28.2559 233.057 28.2286 232.939H28.1759C28.1876 233.057 28.1973 233.189 28.2052 233.338C28.2169 233.482 28.2227 233.613 28.2227 233.73V240H27.1329ZM37.8202 236.977V236.789C37.8202 235.848 38.1151 235.08 38.7049 234.486C39.2987 233.889 40.0916 233.59 41.0838 233.59C42.0721 233.59 42.8631 233.889 43.4569 234.486C44.0506 235.08 44.3475 235.848 44.3475 236.789V236.977C44.3475 237.918 44.0506 238.688 43.4569 239.285C42.8631 239.879 42.0721 240.176 41.0838 240.176C40.0916 240.176 39.2987 239.879 38.7049 239.285C38.1151 238.688 37.8202 237.918 37.8202 236.977ZM38.9686 236.789V236.977C38.9686 237.617 39.1463 238.156 39.5018 238.594C39.8573 239.031 40.3846 239.25 41.0838 239.25C41.783 239.25 42.3084 239.031 42.66 238.594C43.0155 238.156 43.1932 237.617 43.1932 236.977V236.789C43.1932 236.145 43.0155 235.605 42.66 235.172C42.3084 234.734 41.783 234.516 41.0838 234.516C40.3846 234.516 39.8573 234.734 39.5018 235.172C39.1463 235.605 38.9686 236.145 38.9686 236.789ZM45.9879 233.766H47.1129V236.379H50.4176V233.766H51.5426V240H50.4176V237.27H47.1129V240H45.9879V233.766ZM53.5521 240V233.766H54.6654V237.738C54.6654 237.855 54.6634 237.988 54.6595 238.137C54.6595 238.285 54.6576 238.42 54.6537 238.541H54.7005C54.7552 238.436 54.8158 238.324 54.8822 238.207C54.9486 238.09 55.0248 237.973 55.1107 237.855L58.0462 233.766H59.1771V240H58.058V236.033C58.058 235.912 58.0599 235.777 58.0638 235.629C58.0677 235.477 58.0736 235.34 58.0814 235.219H58.017C57.9662 235.32 57.9076 235.432 57.8412 235.553C57.7748 235.674 57.7005 235.793 57.6185 235.91L54.683 240H53.5521ZM60.4952 234.65V233.766H66.0616V234.65H63.8409V240H62.7159V234.65H60.4952ZM67.0223 236.977V236.789C67.0223 235.848 67.3173 235.08 67.9071 234.486C68.5009 233.889 69.2938 233.59 70.286 233.59C71.2743 233.59 72.0653 233.889 72.6591 234.486C73.2528 235.08 73.5497 235.848 73.5497 236.789V236.977C73.5497 237.918 73.2528 238.688 72.6591 239.285C72.0653 239.879 71.2743 240.176 70.286 240.176C69.2938 240.176 68.5009 239.879 67.9071 239.285C67.3173 238.688 67.0223 237.918 67.0223 236.977ZM68.1708 236.789V236.977C68.1708 237.617 68.3485 238.156 68.704 238.594C69.0595 239.031 69.5868 239.25 70.286 239.25C70.9852 239.25 71.5106 239.031 71.8622 238.594C72.2177 238.156 72.3954 237.617 72.3954 236.977V236.789C72.3954 236.145 72.2177 235.605 71.8622 235.172C71.5106 234.734 70.9852 234.516 70.286 234.516C69.5868 234.516 69.0595 234.734 68.704 235.172C68.3485 235.605 68.1708 236.145 68.1708 236.789ZM75.1901 242.438V233.766H76.2096L76.2623 234.621H76.2858C76.4733 234.352 76.7565 234.123 77.1354 233.936C77.5143 233.744 77.9577 233.648 78.4655 233.648C79.3405 233.648 80.0397 233.945 80.5631 234.539C81.0905 235.129 81.3541 235.879 81.3541 236.789V236.977C81.3541 237.883 81.0905 238.633 80.5631 239.227C80.0397 239.82 79.3405 240.117 78.4655 240.117C77.9577 240.117 77.526 240.035 77.1705 239.871C76.8151 239.707 76.5299 239.49 76.3151 239.221V242.438H75.1901ZM76.3151 238.084C76.4557 238.373 76.6881 238.631 77.0123 238.857C77.3366 239.08 77.7311 239.191 78.1959 239.191C78.8873 239.191 79.3932 238.98 79.7135 238.559C80.0377 238.133 80.1998 237.605 80.1998 236.977V236.789C80.1998 236.156 80.0377 235.629 79.7135 235.207C79.3932 234.785 78.8873 234.574 78.1959 234.574C77.7311 234.574 77.3366 234.688 77.0123 234.914C76.692 235.137 76.4596 235.393 76.3151 235.682V238.084ZM83.0004 240V233.766H84.1137V237.738C84.1137 237.855 84.1117 237.988 84.1078 238.137C84.1078 238.285 84.1059 238.42 84.102 238.541H84.1488C84.2035 238.436 84.2641 238.324 84.3305 238.207C84.3969 238.09 84.473 237.973 84.559 237.855L87.4945 233.766H88.6254V240H87.5062V236.033C87.5062 235.912 87.5082 235.777 87.5121 235.629C87.516 235.477 87.5219 235.34 87.5297 235.219H87.4652C87.4145 235.32 87.3559 235.432 87.2895 235.553C87.223 235.674 87.1488 235.793 87.0668 235.91L84.1312 240H83.0004ZM90.6349 233.766H91.7599V236.379H95.0646V233.766H96.1896V240H95.0646V237.27H91.7599V240H90.6349V233.766ZM98.1991 233.766H102.676V234.65H99.3241V240H98.1991V233.766Z" fill="#04101C"/>
</g>
<g filter="url(#filter1_dd_443_58239)">
<rect x="163" y="164" width="68" height="94" rx="12" fill="white"/>
<path d="M207.965 210.6H205C204.506 208.8 202.9 207.6 200.924 207.6C198.576 207.6 196.6 209.52 196.6 211.8C196.6 214.08 198.576 216 200.924 216C202.9 216 204.506 214.8 205 213H207.965C208.706 213 209.2 212.4 209.2 211.8C209.2 211.08 208.706 210.6 207.965 210.6ZM200.924 213.6C199.935 213.6 199.071 212.76 199.071 211.8C199.071 210.84 199.935 210 200.924 210C201.912 210 202.776 210.84 202.776 211.8C202.776 212.76 201.912 213.6 200.924 213.6Z" fill="url(#paint1_radial_443_58239)"/>
<path d="M194.009 210.4H185.191C184.477 210.4 184 211.1 184 211.8C184 212.64 184.596 213.2 185.191 213.2H194.009C194.723 213.2 195.2 212.5 195.2 211.8C195.2 210.96 194.604 210.4 194.009 210.4Z" fill="url(#paint2_radial_443_58239)"/>
<path d="M185.191 193.6H194.009C194.723 193.6 195.2 192.9 195.2 192.2C195.2 191.5 194.604 190.8 194.009 190.8H185.191C184.477 190.8 184 191.5 184 192.2C184 192.9 184.596 193.6 185.191 193.6Z" fill="url(#paint3_radial_443_58239)"/>
<path d="M200.924 196.4C202.9 196.4 204.506 195.2 205 193.4H207.965C208.706 193.4 209.2 192.8 209.2 192.2C209.2 191.6 208.582 191 207.965 191H205C204.506 189.2 202.9 188 200.924 188C198.576 188 196.6 189.92 196.6 192.2C196.6 194.48 198.576 196.4 200.924 196.4ZM200.924 190.4C201.912 190.4 202.776 191.24 202.776 192.2C202.776 193.16 201.912 194 200.924 194C199.935 194 199.071 193.16 199.071 192.2C199.071 191.24 199.935 190.4 200.924 190.4Z" fill="url(#paint4_radial_443_58239)"/>
<path d="M185.235 203.2H188.2C188.694 204.88 190.3 206.2 192.276 206.2C194.624 206.2 196.6 204.28 196.6 202C196.6 199.72 194.624 197.8 192.276 197.8C190.3 197.8 188.694 199 188.2 200.8H185.235C184.494 200.8 184 201.4 184 202C184 202.6 184.618 203.2 185.235 203.2ZM192.276 200.2C193.265 200.2 194.129 201.04 194.129 202C194.129 202.96 193.265 203.8 192.276 203.8C191.288 203.8 190.424 202.96 190.424 202C190.424 201.04 191.288 200.2 192.276 200.2Z" fill="url(#paint5_radial_443_58239)"/>
<path d="M207.996 200.6H199.204C198.482 200.6 198 201.3 198 202C198 202.7 198.602 203.4 199.204 203.4H207.996C208.718 203.4 209.2 202.7 209.2 202C209.2 201.3 208.718 200.6 207.996 200.6Z" fill="url(#paint6_radial_443_58239)"/>
<path d="M183.272 233.951V233.518C183.272 232.182 183.639 231.145 184.373 230.406C185.108 229.664 186.049 229.293 187.198 229.293C188.35 229.293 189.293 229.664 190.028 230.406C190.762 231.145 191.129 232.182 191.129 233.518V233.951C191.129 235.287 190.762 236.326 190.028 237.068C189.293 237.807 188.35 238.176 187.198 238.176C186.049 238.176 185.108 237.807 184.373 237.068C183.639 236.326 183.272 235.287 183.272 233.951ZM184.449 233.951C184.449 234.967 184.699 235.76 185.199 236.33C185.703 236.896 186.371 237.18 187.203 237.18C188.031 237.18 188.698 236.896 189.201 236.33C189.705 235.76 189.957 234.967 189.957 233.951V233.518C189.957 232.502 189.705 231.711 189.201 231.145C188.698 230.574 188.031 230.289 187.203 230.289C186.371 230.289 185.703 230.574 185.199 231.145C184.699 231.711 184.449 232.502 184.449 233.518V233.951ZM193.074 238V229.469H196.104C197.096 229.469 197.863 229.697 198.406 230.154C198.949 230.611 199.221 231.225 199.221 231.994C199.221 232.764 198.949 233.383 198.406 233.852C197.863 234.32 197.096 234.555 196.104 234.555H194.24V238H193.074ZM194.24 233.605H196.104C196.834 233.605 197.342 233.451 197.627 233.143C197.912 232.83 198.055 232.447 198.055 231.994C198.055 231.541 197.912 231.166 197.627 230.869C197.342 230.568 196.834 230.418 196.104 230.418H194.24V233.605ZM198.365 238L196.127 234.068L197.322 233.922L199.695 238H198.365ZM201.201 238V229.469H202.724L205.496 235.885C205.547 236.002 205.595 236.125 205.642 236.254C205.693 236.379 205.738 236.496 205.777 236.605H205.824C205.859 236.496 205.9 236.379 205.947 236.254C205.994 236.125 206.043 236.002 206.094 235.885L208.847 229.469H210.4V238H209.275V231.73C209.275 231.613 209.277 231.482 209.281 231.338C209.289 231.189 209.301 231.057 209.316 230.939H209.263C209.232 231.057 209.189 231.189 209.135 231.338C209.084 231.482 209.033 231.613 208.982 231.73L206.299 238H205.261L202.56 231.73C202.51 231.613 202.459 231.482 202.408 231.338C202.361 231.189 202.324 231.057 202.297 230.939H202.244C202.256 231.057 202.265 231.189 202.273 231.338C202.285 231.482 202.291 231.613 202.291 231.73V238H201.201Z" fill="#04101C"/>
</g>
<g filter="url(#filter2_dd_443_58239)">
<rect x="8" y="5" width="81" height="94" rx="12" fill="white"/>
<path d="M63.6961 43C63.6961 39.9804 62.049 37.2353 59.5784 35.8627C59.5784 35.7255 59.5784 35.451 59.5784 35.1765C59.5784 31.7451 56.8333 29 53.402 29C51.4804 29 49.6961 29.9608 48.598 31.3333C47.5 29.9608 45.7157 29 43.7941 29C40.3627 29 37.6176 31.7451 37.6176 35.1765C37.6176 35.451 37.6176 35.5882 37.6176 35.8627C35.1471 37.2353 33.5 39.9804 33.5 43C33.5 46.0196 35.1471 48.7647 37.6176 50.1373C37.6176 50.4118 37.6176 50.549 37.6176 50.8235C37.6176 54.2549 40.3627 57 43.7941 57C45.7157 57 47.5 56.0392 48.598 54.6667C49.6961 56.0392 51.4804 57 53.402 57C56.8333 57 59.5784 54.2549 59.5784 50.8235C59.5784 50.549 59.5784 50.4118 59.5784 50.1373C62.049 48.6275 63.6961 46.0196 63.6961 43ZM57.5196 48.0784C56.8333 48.3529 56.5588 49.0392 56.6961 49.7255C56.8333 50 56.8333 50.4118 56.8333 50.6863C56.8333 52.6078 55.3235 54.1176 53.402 54.1176C51.6176 54.1176 50.1078 52.7451 49.9706 50.8235C49.9706 50.6863 49.9706 50.6863 49.8333 50.549V50.4118C49.8333 50.2745 49.6961 50.1373 49.6961 50.1373C49.6961 50.1373 49.6961 50 49.5588 50C49.4216 49.8627 49.4216 49.8627 49.2843 49.7255C49.2843 49.7255 49.1471 49.7255 49.1471 49.5882C49.0098 49.5882 48.8725 49.5882 48.8725 49.451H48.7353H48.598C48.4608 49.451 48.4608 49.451 48.3235 49.5882C48.1863 49.5882 48.1863 49.7255 48.049 49.7255C47.9118 49.7255 47.9118 49.8627 47.7745 49.8627L47.6373 50C47.6373 50.1373 47.5 50.1373 47.5 50.2745V50.4118C47.5 50.549 47.3627 50.549 47.3627 50.6863C47.2255 52.4706 45.7157 53.9804 43.9314 53.9804C42.0098 53.9804 40.5 52.4706 40.5 50.549C40.5 50.1373 40.5 49.8627 40.6373 49.5882C40.9118 48.902 40.5 48.2157 39.8137 47.9412C37.6176 47.2549 36.2451 45.1961 36.2451 43C36.2451 40.8039 37.6176 38.7451 39.6765 37.9216C40.3627 37.6471 40.7745 36.8235 40.5 36.1373C40.3627 35.8627 40.3627 35.5882 40.3627 35.1765C40.3627 33.2549 41.8725 31.7451 43.7941 31.7451C45.7157 31.7451 47.2255 33.2549 47.2255 35.1765V46.4314C47.2255 47.2549 47.7745 47.8039 48.598 47.8039C49.4216 47.8039 49.9706 47.2549 49.9706 46.4314V35.1765C49.9706 33.2549 51.4804 31.7451 53.402 31.7451C55.3235 31.7451 56.8333 33.2549 56.8333 35.1765C56.8333 35.5882 56.8333 35.8627 56.6961 36.1373C56.4216 36.8235 56.8333 37.5098 57.5196 37.7843C59.5784 38.7451 60.951 40.6667 60.951 43C60.951 45.1961 59.5784 47.2549 57.5196 48.0784Z" fill="url(#paint7_radial_443_58239)"/>
<path d="M27.5035 79V70.4688H30.5797C31.6031 70.4688 32.3883 70.7051 32.9352 71.1777C33.4859 71.6465 33.7613 72.2773 33.7613 73.0703C33.7613 73.8594 33.4859 74.4941 32.9352 74.9746C32.3883 75.4512 31.6031 75.6895 30.5797 75.6895H28.6695V79H27.5035ZM28.6695 74.7344H30.5797C31.3258 74.7344 31.8473 74.5742 32.1441 74.2539C32.4449 73.9336 32.5953 73.5391 32.5953 73.0703C32.5953 72.5977 32.4449 72.207 32.1441 71.8984C31.8473 71.5859 31.3258 71.4297 30.5797 71.4297H28.6695V74.7344ZM34.4466 81.4375V80.4824C34.5638 80.5137 34.6908 80.5391 34.8275 80.5586C34.9681 80.5781 35.1029 80.5879 35.2318 80.5879C35.5482 80.5879 35.8138 80.5 36.0287 80.3242C36.2474 80.1484 36.4955 79.6953 36.7728 78.9648V78.959L34.1771 72.7656H35.308L36.972 76.873C37.0345 77.0293 37.0912 77.1816 37.142 77.3301C37.1966 77.4785 37.2435 77.623 37.2826 77.7637H37.3177C37.3568 77.623 37.4037 77.4785 37.4584 77.3301C37.513 77.1816 37.5697 77.0293 37.6283 76.873L39.2162 72.7656H40.3119L37.4525 79.8203C37.2259 80.3672 36.9369 80.793 36.5853 81.0977C36.2377 81.4023 35.8099 81.5547 35.3021 81.5547C35.1302 81.5547 34.9759 81.5449 34.8392 81.5254C34.7025 81.5059 34.5716 81.4766 34.4466 81.4375ZM42.4093 74.4707C42.4093 74.9785 42.5284 75.332 42.7667 75.5312C43.005 75.7305 43.3859 75.8301 43.9093 75.8301C44.3116 75.8301 44.6769 75.8027 45.005 75.748C45.337 75.6895 45.6905 75.6094 46.0655 75.5078V76.4043C45.714 76.4941 45.3644 76.5703 45.0167 76.6328C44.6691 76.6914 44.2394 76.7207 43.7277 76.7207C42.8917 76.7207 42.2745 76.5332 41.8761 76.1582C41.4816 75.7793 41.2843 75.2168 41.2843 74.4707V72.7656H42.4093V74.4707ZM46.6222 72.7656V79H45.503V72.7656H46.6222ZM48.6376 72.7656H49.7626V75.3789H53.0673V72.7656H54.1923V79H53.0673V76.2695H49.7626V79H48.6376V72.7656ZM55.8327 75.9766V75.7891C55.8327 74.8477 56.1276 74.0801 56.7174 73.4863C57.3112 72.8887 58.1041 72.5898 59.0963 72.5898C60.0846 72.5898 60.8756 72.8887 61.4694 73.4863C62.0631 74.0801 62.36 74.8477 62.36 75.7891V75.9766C62.36 76.918 62.0631 77.6875 61.4694 78.2852C60.8756 78.8789 60.0846 79.1758 59.0963 79.1758C58.1041 79.1758 57.3112 78.8789 56.7174 78.2852C56.1276 77.6875 55.8327 76.918 55.8327 75.9766ZM56.9811 75.7891V75.9766C56.9811 76.6172 57.1588 77.1562 57.5143 77.5938C57.8698 78.0312 58.3971 78.25 59.0963 78.25C59.7955 78.25 60.3209 78.0312 60.6725 77.5938C61.028 77.1562 61.2057 76.6172 61.2057 75.9766V75.7891C61.2057 75.1445 61.028 74.6055 60.6725 74.1719C60.3209 73.7344 59.7955 73.5156 59.0963 73.5156C58.3971 73.5156 57.8698 73.7344 57.5143 74.1719C57.1588 74.6055 56.9811 75.1445 56.9811 75.7891ZM64.0004 79V72.7656H65.1137V76.7383C65.1137 76.8555 65.1117 76.9883 65.1078 77.1367C65.1078 77.2852 65.1059 77.4199 65.102 77.541H65.1488C65.2035 77.4355 65.2641 77.3242 65.3305 77.207C65.3969 77.0898 65.473 76.9727 65.559 76.8555L68.4945 72.7656H69.6254V79H68.5062V75.0332C68.5062 74.9121 68.5082 74.7773 68.5121 74.6289C68.516 74.4766 68.5219 74.3398 68.5297 74.2188H68.4652C68.4145 74.3203 68.3559 74.4316 68.2895 74.5527C68.223 74.6738 68.1488 74.793 68.0668 74.9102L65.1312 79H64.0004ZM66.8129 70.8672C67.1059 70.8672 67.3461 70.7891 67.5336 70.6328C67.7211 70.4727 67.8812 70.2129 68.0141 69.8535L68.8754 70.3574C68.6801 70.834 68.4027 71.1836 68.0434 71.4062C67.684 71.6289 67.2738 71.7402 66.8129 71.7402C66.348 71.7402 65.9379 71.6309 65.5824 71.4121C65.227 71.1895 64.9477 70.8379 64.7445 70.3574L65.6117 69.8418C65.7445 70.2129 65.9027 70.4766 66.0863 70.6328C66.2738 70.7891 66.516 70.8672 66.8129 70.8672Z" fill="#04101C"/>
</g>
<g filter="url(#filter3_dd_443_58239)">
<rect x="129" y="5" width="68" height="94" rx="12" fill="white"/>
<path d="M176.227 45.1636H172.918V40.8364H176.227C176.991 40.8364 177.5 40.3273 177.5 39.5636C177.5 38.8 176.991 38.2909 176.227 38.2909H172.918V37.2727C172.918 35.2364 171.264 33.7091 169.355 33.7091H168.336V30.2727C168.336 29.5091 167.827 29 167.064 29C166.3 29 165.791 29.5091 165.791 30.2727V33.5818H161.336V30.2727C161.336 29.5091 160.827 29 160.064 29C159.3 29 158.791 29.5091 158.791 30.2727V33.5818H157.773C155.736 33.5818 154.209 35.2364 154.209 37.1455V38.1636H150.773C150.009 38.1636 149.5 38.6727 149.5 39.4364C149.5 40.2 150.009 40.7091 150.773 40.7091H154.082V45.1636H150.773C150.009 45.1636 149.5 45.6727 149.5 46.4364C149.5 47.2 150.009 47.7091 150.773 47.7091H154.082V48.7273C154.082 50.7636 155.736 52.2909 157.645 52.2909H158.664V55.7273C158.664 56.4909 159.173 57 159.936 57C160.7 57 161.209 56.4909 161.209 55.7273V52.4182H165.664V55.7273C165.664 56.4909 166.173 57 166.936 57C167.7 57 168.209 56.4909 168.209 55.7273V52.4182H169.227C171.264 52.4182 172.791 50.7636 172.791 48.8545V47.8364H176.227C176.991 47.8364 177.5 47.3273 177.5 46.5636C177.5 45.8 176.991 45.1636 176.227 45.1636ZM170.373 48.7273C170.373 49.3636 169.864 49.7455 169.355 49.7455H157.773C157.136 49.7455 156.755 49.2364 156.755 48.7273V37.2727C156.627 36.6364 157.136 36.1273 157.773 36.1273H169.355C169.991 36.1273 170.373 36.6364 170.373 37.1455V48.7273Z" fill="url(#paint8_radial_443_58239)"/>
<path d="M148.402 79L151.894 70.4102H153.031L156.523 79H155.292L152.779 72.6016C152.712 72.4414 152.654 72.2891 152.603 72.1445C152.556 72 152.513 71.8535 152.474 71.7051H152.41C152.37 71.8535 152.326 72 152.275 72.1445C152.228 72.2891 152.171 72.4414 152.105 72.6016L149.574 79H148.402ZM149.872 76.7969L150.253 75.8359L154.648 75.8418L155.023 76.8027L149.872 76.7969ZM157.401 79V72.7656H160.525C161.235 72.7656 161.79 72.9043 162.189 73.1816C162.591 73.4551 162.792 73.8711 162.792 74.4297C162.792 74.7773 162.689 75.0684 162.482 75.3027C162.275 75.5371 161.997 75.6953 161.65 75.7773V75.7949C162.071 75.8574 162.403 76.0117 162.646 76.2578C162.888 76.5 163.009 76.8105 163.009 77.1895C163.009 77.7598 162.798 78.2051 162.376 78.5254C161.954 78.8418 161.396 79 160.7 79H157.401ZM158.526 75.3906H160.525C160.927 75.3906 161.216 75.3105 161.392 75.1504C161.568 74.9902 161.655 74.7695 161.655 74.4883C161.655 74.2148 161.568 74.0078 161.392 73.8672C161.216 73.7266 160.927 73.6543 160.525 73.6504H158.526V75.3906ZM158.526 78.1152H160.7C161.107 78.1152 161.403 78.0312 161.591 77.8633C161.782 77.6953 161.878 77.4688 161.878 77.1836C161.878 76.9062 161.784 76.6855 161.597 76.5215C161.409 76.3535 161.11 76.2695 160.7 76.2695H158.526V78.1152ZM164.028 73.6504V72.7656H169.595V73.6504H167.374V79H166.249V73.6504H164.028ZM170.555 75.9766V75.7891C170.555 74.8477 170.85 74.0801 171.44 73.4863C172.034 72.8887 172.827 72.5898 173.819 72.5898C174.807 72.5898 175.598 72.8887 176.192 73.4863C176.786 74.0801 177.083 74.8477 177.083 75.7891V75.9766C177.083 76.918 176.786 77.6875 176.192 78.2852C175.598 78.8789 174.807 79.1758 173.819 79.1758C172.827 79.1758 172.034 78.8789 171.44 78.2852C170.85 77.6875 170.555 76.918 170.555 75.9766ZM171.704 75.7891V75.9766C171.704 76.6172 171.881 77.1562 172.237 77.5938C172.592 78.0312 173.12 78.25 173.819 78.25C174.518 78.25 175.044 78.0312 175.395 77.5938C175.751 77.1562 175.928 76.6172 175.928 75.9766V75.7891C175.928 75.1445 175.751 74.6055 175.395 74.1719C175.044 73.7344 174.518 73.5156 173.819 73.5156C173.12 73.5156 172.592 73.7344 172.237 74.1719C171.881 74.6055 171.704 75.1445 171.704 75.7891Z" fill="#04101C"/>
</g>
<path d="M122 211L164 211" stroke="url(#paint9_linear_443_58239)" stroke-width="2"/>
<path d="M37 166L37 99" stroke="url(#paint10_linear_443_58239)" stroke-width="2"/>
<path d="M165 99V99C165 105.627 159.627 111 153 111H67C58.1634 111 51 118.163 51 127V166" stroke="url(#paint11_linear_443_58239)" stroke-width="2"/>
<defs>
<filter id="filter0_dd_443_58239" x="0" y="161.5" width="129" height="110.5" filterUnits="userSpaceOnUse" color-interpolation-filters="sRGB">
<feFlood flood-opacity="0" result="BackgroundImageFix"/>
<feColorMatrix in="SourceAlpha" type="matrix" values="0 0 0 0 0 0 0 0 0 0 0 0 0 0 0 0 0 0 127 0" result="hardAlpha"/>
<feOffset dy="4"/>
<feGaussianBlur stdDeviation="4"/>
<feComposite in2="hardAlpha" operator="out"/>
<feColorMatrix type="matrix" values="0 0 0 0 0 0 0 0 0 0 0 0 0 0 0 0 0 0 0.08 0"/>
<feBlend mode="normal" in2="BackgroundImageFix" result="effect1_dropShadow_443_58239"/>
<feColorMatrix in="SourceAlpha" type="matrix" values="0 0 0 0 0 0 0 0 0 0 0 0 0 0 0 0 0 0 127 0" result="hardAlpha"/>
<feOffset dy="-0.5"/>
<feGaussianBlur stdDeviation="2"/>
<feComposite in2="hardAlpha" operator="out"/>
<feColorMatrix type="matrix" values="0 0 0 0 0 0 0 0 0 0 0 0 0 0 0 0 0 0 0.05 0"/>
<feBlend mode="normal" in2="effect1_dropShadow_443_58239" result="effect2_dropShadow_443_58239"/>
<feBlend mode="normal" in="SourceGraphic" in2="effect2_dropShadow_443_58239" result="shape"/>
</filter>
<filter id="filter1_dd_443_58239" x="155" y="159.5" width="84" height="110.5" filterUnits="userSpaceOnUse" color-interpolation-filters="sRGB">
<feFlood flood-opacity="0" result="BackgroundImageFix"/>
<feColorMatrix in="SourceAlpha" type="matrix" values="0 0 0 0 0 0 0 0 0 0 0 0 0 0 0 0 0 0 127 0" result="hardAlpha"/>
<feOffset dy="4"/>
<feGaussianBlur stdDeviation="4"/>
<feComposite in2="hardAlpha" operator="out"/>
<feColorMatrix type="matrix" values="0 0 0 0 0 0 0 0 0 0 0 0 0 0 0 0 0 0 0.08 0"/>
<feBlend mode="normal" in2="BackgroundImageFix" result="effect1_dropShadow_443_58239"/>
<feColorMatrix in="SourceAlpha" type="matrix" values="0 0 0 0 0 0 0 0 0 0 0 0 0 0 0 0 0 0 127 0" result="hardAlpha"/>
<feOffset dy="-0.5"/>
<feGaussianBlur stdDeviation="2"/>
<feComposite in2="hardAlpha" operator="out"/>
<feColorMatrix type="matrix" values="0 0 0 0 0 0 0 0 0 0 0 0 0 0 0 0 0 0 0.05 0"/>
<feBlend mode="normal" in2="effect1_dropShadow_443_58239" result="effect2_dropShadow_443_58239"/>
<feBlend mode="normal" in="SourceGraphic" in2="effect2_dropShadow_443_58239" result="shape"/>
</filter>
<filter id="filter2_dd_443_58239" x="0" y="0.5" width="97" height="110.5" filterUnits="userSpaceOnUse" color-interpolation-filters="sRGB">
<feFlood flood-opacity="0" result="BackgroundImageFix"/>
<feColorMatrix in="SourceAlpha" type="matrix" values="0 0 0 0 0 0 0 0 0 0 0 0 0 0 0 0 0 0 127 0" result="hardAlpha"/>
<feOffset dy="4"/>
<feGaussianBlur stdDeviation="4"/>
<feComposite in2="hardAlpha" operator="out"/>
<feColorMatrix type="matrix" values="0 0 0 0 0 0 0 0 0 0 0 0 0 0 0 0 0 0 0.08 0"/>
<feBlend mode="normal" in2="BackgroundImageFix" result="effect1_dropShadow_443_58239"/>
<feColorMatrix in="SourceAlpha" type="matrix" values="0 0 0 0 0 0 0 0 0 0 0 0 0 0 0 0 0 0 127 0" result="hardAlpha"/>
<feOffset dy="-0.5"/>
<feGaussianBlur stdDeviation="2"/>
<feComposite in2="hardAlpha" operator="out"/>
<feColorMatrix type="matrix" values="0 0 0 0 0 0 0 0 0 0 0 0 0 0 0 0 0 0 0.05 0"/>
<feBlend mode="normal" in2="effect1_dropShadow_443_58239" result="effect2_dropShadow_443_58239"/>
<feBlend mode="normal" in="SourceGraphic" in2="effect2_dropShadow_443_58239" result="shape"/>
</filter>
<filter id="filter3_dd_443_58239" x="121" y="0.5" width="84" height="110.5" filterUnits="userSpaceOnUse" color-interpolation-filters="sRGB">
<feFlood flood-opacity="0" result="BackgroundImageFix"/>
<feColorMatrix in="SourceAlpha" type="matrix" values="0 0 0 0 0 0 0 0 0 0 0 0 0 0 0 0 0 0 127 0" result="hardAlpha"/>
<feOffset dy="4"/>
<feGaussianBlur stdDeviation="4"/>
<feComposite in2="hardAlpha" operator="out"/>
<feColorMatrix type="matrix" values="0 0 0 0 0 0 0 0 0 0 0 0 0 0 0 0 0 0 0.08 0"/>
<feBlend mode="normal" in2="BackgroundImageFix" result="effect1_dropShadow_443_58239"/>
<feColorMatrix in="SourceAlpha" type="matrix" values="0 0 0 0 0 0 0 0 0 0 0 0 0 0 0 0 0 0 127 0" result="hardAlpha"/>
<feOffset dy="-0.5"/>
<feGaussianBlur stdDeviation="2"/>
<feComposite in2="hardAlpha" operator="out"/>
<feColorMatrix type="matrix" values="0 0 0 0 0 0 0 0 0 0 0 0 0 0 0 0 0 0 0.05 0"/>
<feBlend mode="normal" in2="effect1_dropShadow_443_58239" result="effect2_dropShadow_443_58239"/>
<feBlend mode="normal" in="SourceGraphic" in2="effect2_dropShadow_443_58239" result="shape"/>
</filter>
<radialGradient id="paint0_radial_443_58239" cx="0" cy="0" r="1" gradientUnits="userSpaceOnUse" gradientTransform="translate(65.5 204.5) rotate(99.7276) scale(18.3894)">
<stop offset="0.055" stop-color="#7A73FF"/>
<stop offset="0.65" stop-color="#67DDFA"/>
<stop offset="1" stop-color="#4AFCF1"/>
</radialGradient>
<radialGradient id="paint1_radial_443_58239" cx="0" cy="0" r="1" gradientUnits="userSpaceOnUse" gradientTransform="translate(196.6 202) rotate(98.7708) scale(17.7071 16.0233)">
<stop offset="0.055" stop-color="#7A73FF"/>
<stop offset="0.65" stop-color="#67DDFA"/>
<stop offset="1" stop-color="#4AFCF1"/>
</radialGradient>
<radialGradient id="paint2_radial_443_58239" cx="0" cy="0" r="1" gradientUnits="userSpaceOnUse" gradientTransform="translate(196.6 202) rotate(98.7708) scale(17.7071 16.0233)">
<stop offset="0.055" stop-color="#7A73FF"/>
<stop offset="0.65" stop-color="#67DDFA"/>
<stop offset="1" stop-color="#4AFCF1"/>
</radialGradient>
<radialGradient id="paint3_radial_443_58239" cx="0" cy="0" r="1" gradientUnits="userSpaceOnUse" gradientTransform="translate(196.6 202) rotate(98.7708) scale(17.7071 16.0233)">
<stop offset="0.055" stop-color="#7A73FF"/>
<stop offset="0.65" stop-color="#67DDFA"/>
<stop offset="1" stop-color="#4AFCF1"/>
</radialGradient>
<radialGradient id="paint4_radial_443_58239" cx="0" cy="0" r="1" gradientUnits="userSpaceOnUse" gradientTransform="translate(196.6 202) rotate(98.7708) scale(17.7071 16.0233)">
<stop offset="0.055" stop-color="#7A73FF"/>
<stop offset="0.65" stop-color="#67DDFA"/>
<stop offset="1" stop-color="#4AFCF1"/>
</radialGradient>
<radialGradient id="paint5_radial_443_58239" cx="0" cy="0" r="1" gradientUnits="userSpaceOnUse" gradientTransform="translate(196.6 202) rotate(98.7708) scale(17.7071 16.0233)">
<stop offset="0.055" stop-color="#7A73FF"/>
<stop offset="0.65" stop-color="#67DDFA"/>
<stop offset="1" stop-color="#4AFCF1"/>
</radialGradient>
<radialGradient id="paint6_radial_443_58239" cx="0" cy="0" r="1" gradientUnits="userSpaceOnUse" gradientTransform="translate(196.6 202) rotate(98.7708) scale(17.7071 16.0233)">
<stop offset="0.055" stop-color="#7A73FF"/>
<stop offset="0.65" stop-color="#67DDFA"/>
<stop offset="1" stop-color="#4AFCF1"/>
</radialGradient>
<radialGradient id="paint7_radial_443_58239" cx="0" cy="0" r="1" gradientUnits="userSpaceOnUse" gradientTransform="translate(48.598 43) rotate(100.474) scale(17.7965 19.1035)">
<stop offset="0.055" stop-color="#7A73FF"/>
<stop offset="0.65" stop-color="#67DDFA"/>
<stop offset="1" stop-color="#4AFCF1"/>
</radialGradient>
<radialGradient id="paint8_radial_443_58239" cx="0" cy="0" r="1" gradientUnits="userSpaceOnUse" gradientTransform="translate(163.5 43) rotate(99.7276) scale(17.7553)">
<stop offset="0.055" stop-color="#7A73FF"/>
<stop offset="0.65" stop-color="#67DDFA"/>
<stop offset="1" stop-color="#4AFCF1"/>
</radialGradient>
<linearGradient id="paint9_linear_443_58239" x1="188.974" y1="207.571" x2="183.846" y2="229.688" gradientUnits="userSpaceOnUse">
<stop offset="0.338542" stop-color="#7A73FF"/>
<stop offset="0.734375" stop-color="#75CDFF"/>
<stop offset="1" stop-color="#4AFCF1"/>
</linearGradient>
<linearGradient id="paint10_linear_443_58239" x1="36" y1="61.3125" x2="42.7839" y2="61.6059" gradientUnits="userSpaceOnUse">
<stop offset="0.338542" stop-color="#7A73FF"/>
<stop offset="0.734375" stop-color="#75CDFF"/>
<stop offset="1" stop-color="#4AFCF1"/>
</linearGradient>
<linearGradient id="paint11_linear_443_58239" x1="-13.125" y1="233" x2="185.695" y2="116.272" gradientUnits="userSpaceOnUse">
<stop offset="0.338542" stop-color="#7A73FF"/>
<stop offset="0.734375" stop-color="#75CDFF"/>
<stop offset="1" stop-color="#4AFCF1"/>
</linearGradient>
</defs>
</svg>
