<svg width="229" height="266" viewBox="0 0 229 266" fill="none" xmlns="http://www.w3.org/2000/svg">
<g filter="url(#filter0_d_443_65631)">
<rect x="91" y="8" width="68" height="94" rx="12" fill="white"/>
<path d="M135.965 54.6H133C132.506 52.8 130.9 51.6 128.924 51.6C126.576 51.6 124.6 53.52 124.6 55.8C124.6 58.08 126.576 60 128.924 60C130.9 60 132.506 58.8 133 57H135.965C136.706 57 137.2 56.4 137.2 55.8C137.2 55.08 136.706 54.6 135.965 54.6ZM128.924 57.6C127.935 57.6 127.071 56.76 127.071 55.8C127.071 54.84 127.935 54 128.924 54C129.912 54 130.776 54.84 130.776 55.8C130.776 56.76 129.912 57.6 128.924 57.6Z" fill="url(#paint0_radial_443_65631)"/>
<path d="M122.009 54.4H113.191C112.477 54.4 112 55.1 112 55.8C112 56.64 112.596 57.2 113.191 57.2H122.009C122.723 57.2 123.2 56.5 123.2 55.8C123.2 54.96 122.604 54.4 122.009 54.4Z" fill="url(#paint1_radial_443_65631)"/>
<path d="M113.191 37.6H122.009C122.723 37.6 123.2 36.9 123.2 36.2C123.2 35.5 122.604 34.8 122.009 34.8H113.191C112.477 34.8 112 35.5 112 36.2C112 36.9 112.596 37.6 113.191 37.6Z" fill="url(#paint2_radial_443_65631)"/>
<path d="M128.924 40.4C130.9 40.4 132.506 39.2 133 37.4H135.965C136.706 37.4 137.2 36.8 137.2 36.2C137.2 35.6 136.582 35 135.965 35H133C132.506 33.2 130.9 32 128.924 32C126.576 32 124.6 33.92 124.6 36.2C124.6 38.48 126.576 40.4 128.924 40.4ZM128.924 34.4C129.912 34.4 130.776 35.24 130.776 36.2C130.776 37.16 129.912 38 128.924 38C127.935 38 127.071 37.16 127.071 36.2C127.071 35.24 127.935 34.4 128.924 34.4Z" fill="url(#paint3_radial_443_65631)"/>
<path d="M113.235 47.2H116.2C116.694 48.88 118.3 50.2 120.276 50.2C122.624 50.2 124.6 48.28 124.6 46C124.6 43.72 122.624 41.8 120.276 41.8C118.3 41.8 116.694 43 116.2 44.8H113.235C112.494 44.8 112 45.4 112 46C112 46.6 112.618 47.2 113.235 47.2ZM120.276 44.2C121.265 44.2 122.129 45.04 122.129 46C122.129 46.96 121.265 47.8 120.276 47.8C119.288 47.8 118.424 46.96 118.424 46C118.424 45.04 119.288 44.2 120.276 44.2Z" fill="url(#paint4_radial_443_65631)"/>
<path d="M135.996 44.6H127.204C126.482 44.6 126 45.3 126 46C126 46.7 126.602 47.4 127.204 47.4H135.996C136.718 47.4 137.2 46.7 137.2 46C137.2 45.3 136.718 44.6 135.996 44.6Z" fill="url(#paint5_radial_443_65631)"/>
<path d="M111.272 77.9512V77.5176C111.272 76.1816 111.639 75.1445 112.373 74.4062C113.108 73.6641 114.049 73.293 115.198 73.293C116.35 73.293 117.293 73.6641 118.028 74.4062C118.762 75.1445 119.129 76.1816 119.129 77.5176V77.9512C119.129 79.2871 118.762 80.3262 118.028 81.0684C117.293 81.8066 116.35 82.1758 115.198 82.1758C114.049 82.1758 113.108 81.8066 112.373 81.0684C111.639 80.3262 111.272 79.2871 111.272 77.9512ZM112.449 77.9512C112.449 78.9668 112.699 79.7598 113.199 80.3301C113.703 80.8965 114.371 81.1797 115.203 81.1797C116.031 81.1797 116.698 80.8965 117.201 80.3301C117.705 79.7598 117.957 78.9668 117.957 77.9512V77.5176C117.957 76.502 117.705 75.7109 117.201 75.1445C116.698 74.5742 116.031 74.2891 115.203 74.2891C114.371 74.2891 113.703 74.5742 113.199 75.1445C112.699 75.7109 112.449 76.502 112.449 77.5176V77.9512ZM121.074 82V73.4688H124.104C125.096 73.4688 125.863 73.6973 126.406 74.1543C126.949 74.6113 127.221 75.2246 127.221 75.9941C127.221 76.7637 126.949 77.3828 126.406 77.8516C125.863 78.3203 125.096 78.5547 124.104 78.5547H122.24V82H121.074ZM122.24 77.6055H124.104C124.834 77.6055 125.342 77.4512 125.627 77.1426C125.912 76.8301 126.055 76.4473 126.055 75.9941C126.055 75.541 125.912 75.166 125.627 74.8691C125.342 74.5684 124.834 74.418 124.104 74.418H122.24V77.6055ZM126.365 82L124.127 78.0684L125.322 77.9219L127.695 82H126.365ZM129.201 82V73.4688H130.724L133.496 79.8848C133.547 80.002 133.595 80.125 133.642 80.2539C133.693 80.3789 133.738 80.4961 133.777 80.6055H133.824C133.859 80.4961 133.9 80.3789 133.947 80.2539C133.994 80.125 134.043 80.002 134.094 79.8848L136.847 73.4688H138.4V82H137.275V75.7305C137.275 75.6133 137.277 75.4824 137.281 75.3379C137.289 75.1895 137.301 75.0566 137.316 74.9395H137.263C137.232 75.0566 137.189 75.1895 137.135 75.3379C137.084 75.4824 137.033 75.6133 136.982 75.7305L134.299 82H133.261L130.56 75.7305C130.51 75.6133 130.459 75.4824 130.408 75.3379C130.361 75.1895 130.324 75.0566 130.297 74.9395H130.244C130.256 75.0566 130.265 75.1895 130.273 75.3379C130.285 75.4824 130.291 75.6133 130.291 75.7305V82H129.201Z" fill="#04101C"/>
</g>
<g filter="url(#filter1_d_443_65631)">
<rect x="130" y="160" width="88" height="94" rx="12" fill="white"/>
<path d="M163.02 212C162.32 212 161.76 211.72 161.2 211.3C160.5 210.6 160.36 209.62 160.64 208.78L162.04 204.44C161.06 202.48 160.5 200.24 160.5 198C160.5 190.3 166.8 184 174.5 184C182.2 184 188.5 190.3 188.5 198C188.5 205.7 182.2 212 174.5 212C172.26 212 170.02 211.44 168.06 210.46L163.72 211.86C163.58 212 163.3 212 163.02 212ZM168.9 207.66C170.58 208.64 172.54 209.2 174.5 209.2C180.66 209.2 185.7 204.16 185.7 198C185.7 191.84 180.66 186.8 174.5 186.8C168.34 186.8 163.3 191.84 163.3 198C163.3 199.96 163.86 201.92 164.84 203.6C164.98 203.88 165.12 204.3 164.98 204.72L163.58 209.06L167.92 207.66C167.92 207.66 168.763 207.592 168.9 207.66Z" fill="url(#paint6_radial_443_65631)"/>
<path d="M174.5 200.24C175.737 200.24 176.74 199.237 176.74 198C176.74 196.763 175.737 195.76 174.5 195.76C173.263 195.76 172.26 196.763 172.26 198C172.26 199.237 173.263 200.24 174.5 200.24Z" fill="url(#paint7_radial_443_65631)"/>
<path d="M167.64 200.24C168.877 200.24 169.88 199.237 169.88 198C169.88 196.763 168.877 195.76 167.64 195.76C166.403 195.76 165.4 196.763 165.4 198C165.4 199.237 166.403 200.24 167.64 200.24Z" fill="url(#paint8_radial_443_65631)"/>
<path d="M181.36 200.24C182.597 200.24 183.6 199.237 183.6 198C183.6 196.763 182.597 195.76 181.36 195.76C180.123 195.76 179.12 196.763 179.12 198C179.12 199.237 180.123 200.24 181.36 200.24Z" fill="url(#paint9_radial_443_65631)"/>
<path d="M148.706 229.951V229.518C148.706 228.182 149.071 227.145 149.801 226.406C150.536 225.664 151.456 225.293 152.561 225.293C153.655 225.293 154.505 225.568 155.11 226.119C155.716 226.666 156.044 227.344 156.094 228.152L156.1 228.211H154.934L154.928 228.152C154.901 227.637 154.692 227.197 154.301 226.834C153.915 226.471 153.335 226.289 152.561 226.289C151.78 226.289 151.137 226.566 150.634 227.121C150.134 227.672 149.884 228.471 149.884 229.518V229.951C149.884 230.971 150.134 231.764 150.634 232.33C151.137 232.896 151.78 233.18 152.561 233.18C153.335 233.18 153.909 232.994 154.284 232.623C154.663 232.248 154.878 231.812 154.928 231.316L154.934 231.258H156.1L156.094 231.316C156.012 232.113 155.678 232.789 155.093 233.344C154.507 233.898 153.663 234.176 152.561 234.176C151.456 234.176 150.536 233.809 149.801 233.074C149.071 232.336 148.706 231.295 148.706 229.951ZM157.096 230.977V230.789C157.096 229.848 157.391 229.08 157.981 228.486C158.575 227.889 159.368 227.59 160.36 227.59C161.348 227.59 162.139 227.889 162.733 228.486C163.327 229.08 163.624 229.848 163.624 230.789V230.977C163.624 231.918 163.327 232.688 162.733 233.285C162.139 233.879 161.348 234.176 160.36 234.176C159.368 234.176 158.575 233.879 157.981 233.285C157.391 232.688 157.096 231.918 157.096 230.977ZM158.245 230.789V230.977C158.245 231.617 158.422 232.156 158.778 232.594C159.133 233.031 159.661 233.25 160.36 233.25C161.059 233.25 161.584 233.031 161.936 232.594C162.291 232.156 162.469 231.617 162.469 230.977V230.789C162.469 230.145 162.291 229.605 161.936 229.172C161.584 228.734 161.059 228.516 160.36 228.516C159.661 228.516 159.133 228.734 158.778 229.172C158.422 229.605 158.245 230.145 158.245 230.789ZM170.643 235.582V234H165.264V227.766H166.389V233.115H169.612V227.766H170.737V233.115H171.674V235.582H170.643ZM172.564 230.977V230.789C172.564 229.848 172.848 229.08 173.414 228.486C173.984 227.889 174.768 227.59 175.764 227.59C176.686 227.59 177.385 227.814 177.861 228.264C178.342 228.709 178.582 229.209 178.582 229.764V229.793H177.469V229.758C177.469 229.426 177.334 229.135 177.064 228.885C176.799 228.635 176.365 228.51 175.764 228.51C175.061 228.51 174.543 228.729 174.211 229.166C173.879 229.604 173.713 230.145 173.713 230.789V230.977C173.713 231.621 173.879 232.162 174.211 232.6C174.543 233.033 175.061 233.25 175.764 233.25C176.365 233.25 176.799 233.127 177.064 232.881C177.334 232.635 177.469 232.342 177.469 232.002V231.973H178.582V232.002C178.582 232.553 178.342 233.053 177.861 233.502C177.385 233.951 176.686 234.176 175.764 234.176C174.768 234.176 173.984 233.879 173.414 233.285C172.848 232.688 172.564 231.918 172.564 230.977ZM179.66 230.977V230.789C179.66 229.848 179.945 229.08 180.515 228.486C181.09 227.889 181.847 227.59 182.789 227.59C183.734 227.59 184.461 227.869 184.969 228.428C185.476 228.982 185.73 229.734 185.73 230.684V231.146H180.328V230.25H184.599V230.221C184.599 229.721 184.457 229.311 184.172 228.99C183.886 228.67 183.429 228.51 182.801 228.51C182.14 228.51 181.64 228.729 181.301 229.166C180.961 229.604 180.791 230.145 180.791 230.789V230.977C180.791 231.621 180.969 232.162 181.324 232.6C181.683 233.037 182.236 233.256 182.982 233.256C183.435 233.256 183.826 233.17 184.154 232.998C184.482 232.822 184.746 232.615 184.945 232.377L185.672 232.975C185.453 233.268 185.113 233.541 184.652 233.795C184.195 234.049 183.638 234.176 182.982 234.176C181.908 234.176 181.086 233.879 180.515 233.285C179.945 232.688 179.66 231.918 179.66 230.977ZM186.574 228.65V227.766H192.14V228.65H189.919V234H188.794V228.65H186.574ZM193.47 234V227.766H194.583V231.738C194.583 231.855 194.581 231.988 194.577 232.137C194.577 232.285 194.575 232.42 194.572 232.541H194.618C194.673 232.436 194.734 232.324 194.8 232.207C194.866 232.09 194.943 231.973 195.029 231.855L197.964 227.766H199.095V234H197.976V230.033C197.976 229.912 197.978 229.777 197.982 229.629C197.986 229.477 197.991 229.34 197.999 229.219H197.935C197.884 229.32 197.825 229.432 197.759 229.553C197.693 229.674 197.618 229.793 197.536 229.91L194.601 234H193.47Z" fill="#04101C"/>
</g>
<path d="M130 207V207C130 207.001 129.999 207.001 129.999 207.001L59 207.001C50.1634 207.001 43 214.165 43 223.001L43 225.677" stroke="url(#paint10_linear_443_65631)" stroke-width="2"/>
<path d="M150.5 54.499H159C167.837 54.499 175 61.6625 175 70.499V137.349V159.999" stroke="url(#paint11_linear_443_65631)" stroke-width="2"/>
<g filter="url(#filter2_d_443_65631)">
<rect x="9" y="160" width="68" height="94" rx="12" fill="white"/>
<path d="M57.6526 194.021C54.7053 191.516 49.8421 188.421 43.2105 188.421C42.4737 188.421 41.7368 188.421 41.2947 188.568C40.4105 188.716 39.8211 189.453 39.9684 190.337C40.1158 191.074 40.8526 191.663 41.5895 191.663C42.0316 191.663 42.6211 191.516 43.2105 191.516C48.9579 191.516 53.2316 194.168 55.7368 196.379C56.1789 196.674 56.4737 197.263 56.4737 198C56.4737 198.737 56.1789 199.179 55.7368 199.621C54.8526 200.358 53.8211 201.095 52.7895 201.684C52.0526 202.126 51.9053 203.011 52.2 203.747C52.4947 204.189 52.9368 204.484 53.5263 204.484C53.8211 204.484 53.9684 204.484 54.2632 204.337C55.4421 203.6 56.6211 202.863 57.6526 201.979C58.8316 200.947 59.4211 199.621 59.4211 198.147C59.4211 196.379 58.8316 195.053 57.6526 194.021Z" fill="url(#paint12_radial_443_65631)"/>
<path d="M31.7158 184.442C31.1263 183.853 30.2421 183.853 29.6526 184.442C29.0632 185.032 29.0632 185.916 29.6526 186.505L33.7789 190.632C31.7158 191.811 29.9474 193.137 28.7684 194.021C27.5895 195.053 27 196.379 27 198C27 199.621 27.5895 200.947 28.7684 201.832C31.7158 204.337 36.5789 207.432 43.2105 207.432C45.4211 207.432 47.4842 207.137 49.5474 206.4L54.7053 211.558C55 211.853 55.4421 212 55.7368 212C56.0316 212 56.4737 211.853 56.7684 211.558C57.3579 210.968 57.3579 210.084 56.7684 209.495L31.7158 184.442ZM43.2105 204.337C37.4632 204.337 33.1895 201.684 30.6842 199.474C30.2421 199.179 29.9474 198.589 29.9474 198C29.9474 197.411 30.2421 196.821 30.6842 196.379C31.8632 195.347 33.7789 194.021 36.1368 192.989L39.9684 196.821C39.8211 197.116 39.8211 197.558 39.8211 198C39.8211 199.916 41.2947 201.389 43.2105 201.389C43.6526 201.389 43.9474 201.242 44.3895 201.242L47.1895 204.042C45.8632 204.189 44.5368 204.337 43.2105 204.337Z" fill="url(#paint13_radial_443_65631)"/>
<path d="M33.7042 234V225.469H34.8702V229.119H39.6691V225.469H40.8292V234H39.6691V230.08H34.8702V234H33.7042ZM43.0966 234V225.469H44.62L47.3915 231.885C47.4423 232.002 47.4911 232.125 47.538 232.254C47.5887 232.379 47.6337 232.496 47.6727 232.605H47.7196C47.7548 232.496 47.7958 232.379 47.8427 232.254C47.8895 232.125 47.9384 232.002 47.9891 231.885L50.743 225.469H52.2958V234H51.1708V227.73C51.1708 227.613 51.1727 227.482 51.1766 227.338C51.1845 227.189 51.1962 227.057 51.2118 226.939H51.1591C51.1278 227.057 51.0848 227.189 51.0302 227.338C50.9794 227.482 50.9286 227.613 50.8778 227.73L48.1942 234H47.1571L44.4559 227.73C44.4052 227.613 44.3544 227.482 44.3036 227.338C44.2567 227.189 44.2196 227.057 44.1923 226.939H44.1395C44.1512 227.057 44.161 227.189 44.1688 227.338C44.1805 227.482 44.1864 227.613 44.1864 227.73V234H43.0966Z" fill="#04101C"/>
</g>
<defs>
<filter id="filter0_d_443_65631" x="82" y="0" width="88" height="114" filterUnits="userSpaceOnUse" color-interpolation-filters="sRGB">
<feFlood flood-opacity="0" result="BackgroundImageFix"/>
<feColorMatrix in="SourceAlpha" type="matrix" values="0 0 0 0 0 0 0 0 0 0 0 0 0 0 0 0 0 0 127 0" result="hardAlpha"/>
<feOffset dx="1" dy="2"/>
<feGaussianBlur stdDeviation="5"/>
<feComposite in2="hardAlpha" operator="out"/>
<feColorMatrix type="matrix" values="0 0 0 0 0.00780001 0 0 0 0 0.045344 0 0 0 0 0.0800001 0 0 0 0.04 0"/>
<feBlend mode="normal" in2="BackgroundImageFix" result="effect1_dropShadow_443_65631"/>
<feBlend mode="normal" in="SourceGraphic" in2="effect1_dropShadow_443_65631" result="shape"/>
</filter>
<filter id="filter1_d_443_65631" x="121" y="152" width="108" height="114" filterUnits="userSpaceOnUse" color-interpolation-filters="sRGB">
<feFlood flood-opacity="0" result="BackgroundImageFix"/>
<feColorMatrix in="SourceAlpha" type="matrix" values="0 0 0 0 0 0 0 0 0 0 0 0 0 0 0 0 0 0 127 0" result="hardAlpha"/>
<feOffset dx="1" dy="2"/>
<feGaussianBlur stdDeviation="5"/>
<feComposite in2="hardAlpha" operator="out"/>
<feColorMatrix type="matrix" values="0 0 0 0 0.00780001 0 0 0 0 0.045344 0 0 0 0 0.0800001 0 0 0 0.04 0"/>
<feBlend mode="normal" in2="BackgroundImageFix" result="effect1_dropShadow_443_65631"/>
<feBlend mode="normal" in="SourceGraphic" in2="effect1_dropShadow_443_65631" result="shape"/>
</filter>
<filter id="filter2_d_443_65631" x="0" y="152" width="88" height="114" filterUnits="userSpaceOnUse" color-interpolation-filters="sRGB">
<feFlood flood-opacity="0" result="BackgroundImageFix"/>
<feColorMatrix in="SourceAlpha" type="matrix" values="0 0 0 0 0 0 0 0 0 0 0 0 0 0 0 0 0 0 127 0" result="hardAlpha"/>
<feOffset dx="1" dy="2"/>
<feGaussianBlur stdDeviation="5"/>
<feComposite in2="hardAlpha" operator="out"/>
<feColorMatrix type="matrix" values="0 0 0 0 0.00780001 0 0 0 0 0.045344 0 0 0 0 0.0800001 0 0 0 0.04 0"/>
<feBlend mode="normal" in2="BackgroundImageFix" result="effect1_dropShadow_443_65631"/>
<feBlend mode="normal" in="SourceGraphic" in2="effect1_dropShadow_443_65631" result="shape"/>
</filter>
<radialGradient id="paint0_radial_443_65631" cx="0" cy="0" r="1" gradientUnits="userSpaceOnUse" gradientTransform="translate(124.6 46) rotate(98.7708) scale(17.7071 16.0233)">
<stop offset="0.055" stop-color="#7A73FF"/>
<stop offset="0.65" stop-color="#67DDFA"/>
<stop offset="1" stop-color="#4AFCF1"/>
</radialGradient>
<radialGradient id="paint1_radial_443_65631" cx="0" cy="0" r="1" gradientUnits="userSpaceOnUse" gradientTransform="translate(124.6 46) rotate(98.7708) scale(17.7071 16.0233)">
<stop offset="0.055" stop-color="#7A73FF"/>
<stop offset="0.65" stop-color="#67DDFA"/>
<stop offset="1" stop-color="#4AFCF1"/>
</radialGradient>
<radialGradient id="paint2_radial_443_65631" cx="0" cy="0" r="1" gradientUnits="userSpaceOnUse" gradientTransform="translate(124.6 46) rotate(98.7708) scale(17.7071 16.0233)">
<stop offset="0.055" stop-color="#7A73FF"/>
<stop offset="0.65" stop-color="#67DDFA"/>
<stop offset="1" stop-color="#4AFCF1"/>
</radialGradient>
<radialGradient id="paint3_radial_443_65631" cx="0" cy="0" r="1" gradientUnits="userSpaceOnUse" gradientTransform="translate(124.6 46) rotate(98.7708) scale(17.7071 16.0233)">
<stop offset="0.055" stop-color="#7A73FF"/>
<stop offset="0.65" stop-color="#67DDFA"/>
<stop offset="1" stop-color="#4AFCF1"/>
</radialGradient>
<radialGradient id="paint4_radial_443_65631" cx="0" cy="0" r="1" gradientUnits="userSpaceOnUse" gradientTransform="translate(124.6 46) rotate(98.7708) scale(17.7071 16.0233)">
<stop offset="0.055" stop-color="#7A73FF"/>
<stop offset="0.65" stop-color="#67DDFA"/>
<stop offset="1" stop-color="#4AFCF1"/>
</radialGradient>
<radialGradient id="paint5_radial_443_65631" cx="0" cy="0" r="1" gradientUnits="userSpaceOnUse" gradientTransform="translate(124.6 46) rotate(98.7708) scale(17.7071 16.0233)">
<stop offset="0.055" stop-color="#7A73FF"/>
<stop offset="0.65" stop-color="#67DDFA"/>
<stop offset="1" stop-color="#4AFCF1"/>
</radialGradient>
<radialGradient id="paint6_radial_443_65631" cx="0" cy="0" r="1" gradientUnits="userSpaceOnUse" gradientTransform="translate(174.5 198) rotate(99.7276) scale(17.7553)">
<stop offset="0.055" stop-color="#7A73FF"/>
<stop offset="0.65" stop-color="#67DDFA"/>
<stop offset="1" stop-color="#4AFCF1"/>
</radialGradient>
<radialGradient id="paint7_radial_443_65631" cx="0" cy="0" r="1" gradientUnits="userSpaceOnUse" gradientTransform="translate(174.5 198) rotate(99.7276) scale(17.7553)">
<stop offset="0.055" stop-color="#7A73FF"/>
<stop offset="0.65" stop-color="#67DDFA"/>
<stop offset="1" stop-color="#4AFCF1"/>
</radialGradient>
<radialGradient id="paint8_radial_443_65631" cx="0" cy="0" r="1" gradientUnits="userSpaceOnUse" gradientTransform="translate(174.5 198) rotate(99.7276) scale(17.7553)">
<stop offset="0.055" stop-color="#7A73FF"/>
<stop offset="0.65" stop-color="#67DDFA"/>
<stop offset="1" stop-color="#4AFCF1"/>
</radialGradient>
<radialGradient id="paint9_radial_443_65631" cx="0" cy="0" r="1" gradientUnits="userSpaceOnUse" gradientTransform="translate(174.5 198) rotate(99.7276) scale(17.7553)">
<stop offset="0.055" stop-color="#7A73FF"/>
<stop offset="0.65" stop-color="#67DDFA"/>
<stop offset="1" stop-color="#4AFCF1"/>
</radialGradient>
<linearGradient id="paint10_linear_443_65631" x1="217" y1="255.488" x2="191.978" y2="136.453" gradientUnits="userSpaceOnUse">
<stop offset="0.338542" stop-color="#7A73FF"/>
<stop offset="0.734375" stop-color="#75CDFF"/>
<stop offset="1" stop-color="#4AFCF1"/>
</linearGradient>
<linearGradient id="paint11_linear_443_65631" x1="379" y1="287.125" x2="123.268" y2="-47.372" gradientUnits="userSpaceOnUse">
<stop offset="0.338542" stop-color="#7A73FF"/>
<stop offset="0.734375" stop-color="#75CDFF"/>
<stop offset="1" stop-color="#4AFCF1"/>
</linearGradient>
<radialGradient id="paint12_radial_443_65631" cx="0" cy="0" r="1" gradientUnits="userSpaceOnUse" gradientTransform="translate(43.2105 198) rotate(101.227) scale(17.8414 20.4595)">
<stop offset="0.055" stop-color="#7A73FF"/>
<stop offset="0.65" stop-color="#67DDFA"/>
<stop offset="1" stop-color="#4AFCF1"/>
</radialGradient>
<radialGradient id="paint13_radial_443_65631" cx="0" cy="0" r="1" gradientUnits="userSpaceOnUse" gradientTransform="translate(43.2105 198) rotate(101.227) scale(17.8414 20.4595)">
<stop offset="0.055" stop-color="#7A73FF"/>
<stop offset="0.65" stop-color="#67DDFA"/>
<stop offset="1" stop-color="#4AFCF1"/>
</radialGradient>
</defs>
</svg>
