<svg width="387" height="238" viewBox="0 0 387 238" fill="none" xmlns="http://www.w3.org/2000/svg">
<g filter="url(#filter0_dd_443_61088)">
<rect x="8.5" y="123.578" width="68" height="94" rx="12" fill="white"/>
<path d="M53.4647 170.178H50.5C50.0059 168.378 48.4 167.178 46.4235 167.178C44.0765 167.178 42.1 169.098 42.1 171.378C42.1 173.658 44.0765 175.578 46.4235 175.578C48.4 175.578 50.0059 174.378 50.5 172.578H53.4647C54.2059 172.578 54.7 171.978 54.7 171.378C54.7 170.658 54.2059 170.178 53.4647 170.178ZM46.4235 173.178C45.4353 173.178 44.5706 172.338 44.5706 171.378C44.5706 170.418 45.4353 169.578 46.4235 169.578C47.4118 169.578 48.2765 170.418 48.2765 171.378C48.2765 172.338 47.4118 173.178 46.4235 173.178Z" fill="url(#paint0_radial_443_61088)"/>
<path d="M39.5085 169.978H30.6915C29.9766 169.978 29.5 170.678 29.5 171.378C29.5 172.218 30.0957 172.778 30.6915 172.778H39.5085C40.2234 172.778 40.7 172.078 40.7 171.378C40.7 170.538 40.1043 169.978 39.5085 169.978Z" fill="url(#paint1_radial_443_61088)"/>
<path d="M30.6915 153.178H39.5085C40.2234 153.178 40.7 152.478 40.7 151.778C40.7 151.078 40.1043 150.378 39.5085 150.378H30.6915C29.9766 150.378 29.5 151.078 29.5 151.778C29.5 152.478 30.0957 153.178 30.6915 153.178Z" fill="url(#paint2_radial_443_61088)"/>
<path d="M46.4235 155.978C48.4 155.978 50.0059 154.778 50.5 152.978H53.4647C54.2059 152.978 54.7 152.378 54.7 151.778C54.7 151.178 54.0824 150.578 53.4647 150.578H50.5C50.0059 148.778 48.4 147.578 46.4235 147.578C44.0765 147.578 42.1 149.498 42.1 151.778C42.1 154.058 44.0765 155.978 46.4235 155.978ZM46.4235 149.978C47.4118 149.978 48.2765 150.818 48.2765 151.778C48.2765 152.738 47.4118 153.578 46.4235 153.578C45.4353 153.578 44.5706 152.738 44.5706 151.778C44.5706 150.818 45.4353 149.978 46.4235 149.978Z" fill="url(#paint3_radial_443_61088)"/>
<path d="M30.7353 162.778H33.7C34.1941 164.458 35.8 165.778 37.7765 165.778C40.1235 165.778 42.1 163.858 42.1 161.578C42.1 159.298 40.1235 157.378 37.7765 157.378C35.8 157.378 34.1941 158.578 33.7 160.378H30.7353C29.9941 160.378 29.5 160.978 29.5 161.578C29.5 162.178 30.1176 162.778 30.7353 162.778ZM37.7765 159.778C38.7647 159.778 39.6294 160.618 39.6294 161.578C39.6294 162.538 38.7647 163.378 37.7765 163.378C36.7882 163.378 35.9235 162.538 35.9235 161.578C35.9235 160.618 36.7882 159.778 37.7765 159.778Z" fill="url(#paint4_radial_443_61088)"/>
<path d="M53.4957 160.178H44.7043C43.9817 160.178 43.5 160.878 43.5 161.578C43.5 162.278 44.1022 162.978 44.7043 162.978H53.4957C54.2183 162.978 54.7 162.278 54.7 161.578C54.7 160.878 54.2183 160.178 53.4957 160.178Z" fill="url(#paint5_radial_443_61088)"/>
<path d="M28.7717 193.529V193.096C28.7717 191.76 29.1389 190.723 29.8733 189.984C30.6077 189.242 31.5491 188.871 32.6975 188.871C33.8498 188.871 34.7932 189.242 35.5276 189.984C36.262 190.723 36.6291 191.76 36.6291 193.096V193.529C36.6291 194.865 36.262 195.904 35.5276 196.646C34.7932 197.385 33.8498 197.754 32.6975 197.754C31.5491 197.754 30.6077 197.385 29.8733 196.646C29.1389 195.904 28.7717 194.865 28.7717 193.529ZM29.9495 193.529C29.9495 194.545 30.1995 195.338 30.6995 195.908C31.2034 196.475 31.8713 196.758 32.7034 196.758C33.5315 196.758 34.1975 196.475 34.7014 195.908C35.2053 195.338 35.4573 194.545 35.4573 193.529V193.096C35.4573 192.08 35.2053 191.289 34.7014 190.723C34.1975 190.152 33.5315 189.867 32.7034 189.867C31.8713 189.867 31.2034 190.152 30.6995 190.723C30.1995 191.289 29.9495 192.08 29.9495 193.096V193.529ZM38.5742 197.578V189.047H41.6035C42.5957 189.047 43.3633 189.275 43.9062 189.732C44.4492 190.189 44.7207 190.803 44.7207 191.572C44.7207 192.342 44.4492 192.961 43.9062 193.43C43.3633 193.898 42.5957 194.133 41.6035 194.133H39.7402V197.578H38.5742ZM39.7402 193.184H41.6035C42.334 193.184 42.8418 193.029 43.127 192.721C43.4121 192.408 43.5547 192.025 43.5547 191.572C43.5547 191.119 43.4121 190.744 43.127 190.447C42.8418 190.146 42.334 189.996 41.6035 189.996H39.7402V193.184ZM43.8652 197.578L41.627 193.646L42.8223 193.5L45.1953 197.578H43.8652ZM46.7009 197.578V189.047H48.2244L50.9959 195.463C51.0466 195.58 51.0955 195.703 51.1423 195.832C51.1931 195.957 51.238 196.074 51.2771 196.184H51.324C51.3591 196.074 51.4002 195.957 51.447 195.832C51.4939 195.703 51.5427 195.58 51.5935 195.463L54.3474 189.047H55.9002V197.578H54.7752V191.309C54.7752 191.191 54.7771 191.061 54.781 190.916C54.7888 190.768 54.8005 190.635 54.8162 190.518H54.7634C54.7322 190.635 54.6892 190.768 54.6345 190.916C54.5837 191.061 54.533 191.191 54.4822 191.309L51.7986 197.578H50.7615L48.0603 191.309C48.0095 191.191 47.9587 191.061 47.908 190.916C47.8611 190.768 47.824 190.635 47.7966 190.518H47.7439C47.7556 190.635 47.7654 190.768 47.7732 190.916C47.7849 191.061 47.7908 191.191 47.7908 191.309V197.578H46.7009Z" fill="#04101C"/>
</g>
<path d="M56.5006 123.579L56.5006 122.078C56.501 113.242 63.6644 106.079 72.5007 106.079L307.5 106.079C316.336 106.079 323.5 113.242 323.5 122.079L323.5 127.079" stroke="url(#paint6_linear_443_61088)" stroke-width="2"/>
<g filter="url(#filter1_dd_443_61088)">
<rect x="273.5" y="115.578" width="105" height="110" rx="12" fill="white"/>
<path d="M320.372 151.062C319.804 150.502 318.952 150.502 318.384 151.062C317.816 151.622 317.816 152.462 318.384 153.022L324.206 159.18C324.49 159.46 324.916 159.6 325.2 159.6C325.626 159.6 326.052 159.46 326.194 159.04L340.109 141.824C340.535 141.264 340.535 140.285 339.825 139.865C339.399 139.445 338.547 139.445 337.979 140.145L335.139 143.644C332.583 141.124 328.892 139.585 325.2 139.585C317.39 139.585 311 145.883 311 153.581C311 161.28 317.39 167.578 325.2 167.578C333.009 167.578 339.399 161.28 339.399 153.581C339.399 152.322 339.257 151.062 338.831 149.802C338.547 149.103 337.837 148.683 337.127 148.823C336.417 148.963 335.991 149.802 336.133 150.502C336.417 151.482 336.559 152.602 336.559 153.581C336.559 159.74 331.447 164.779 325.2 164.779C318.952 164.779 313.84 159.74 313.84 153.581C313.84 147.423 318.952 142.384 325.2 142.384C328.324 142.384 331.164 143.644 333.435 145.883L325.2 156.101L320.372 151.062Z" fill="url(#paint7_radial_443_61088)"/>
<path d="M302.531 185.529V185.096C302.531 183.76 302.898 182.723 303.632 181.984C304.367 181.242 305.308 180.871 306.457 180.871C307.609 180.871 308.552 181.242 309.287 181.984C310.021 182.723 310.388 183.76 310.388 185.096V185.529C310.388 186.865 310.021 187.904 309.287 188.646C308.552 189.385 307.609 189.754 306.457 189.754C305.308 189.754 304.367 189.385 303.632 188.646C302.898 187.904 302.531 186.865 302.531 185.529ZM303.709 185.529C303.709 186.545 303.959 187.338 304.459 187.908C304.962 188.475 305.63 188.758 306.462 188.758C307.291 188.758 307.957 188.475 308.461 187.908C308.964 187.338 309.216 186.545 309.216 185.529V185.096C309.216 184.08 308.964 183.289 308.461 182.723C307.957 182.152 307.291 181.867 306.462 181.867C305.63 181.867 304.962 182.152 304.459 182.723C303.959 183.289 303.709 184.08 303.709 185.096V185.529ZM311.267 184.229V183.344H316.833V184.229H314.613V189.578H313.488V184.229H311.267ZM320.665 189.754C319.657 189.754 318.913 189.541 318.433 189.115C317.956 188.689 317.718 188.186 317.718 187.604V187.574H318.808V187.604C318.808 187.928 318.942 188.213 319.212 188.459C319.485 188.705 319.966 188.828 320.653 188.828C321.243 188.828 321.687 188.732 321.984 188.541C322.28 188.35 322.429 188.086 322.429 187.75C322.429 187.465 322.317 187.244 322.095 187.088C321.876 186.928 321.528 186.848 321.052 186.848H319.669V185.969H320.946C321.388 185.969 321.712 185.889 321.919 185.729C322.126 185.568 322.23 185.348 322.23 185.066C322.23 184.75 322.105 184.508 321.855 184.34C321.609 184.172 321.237 184.088 320.741 184.088C320.116 184.088 319.659 184.207 319.37 184.445C319.081 184.684 318.937 184.975 318.937 185.318V185.348H317.847V185.318C317.847 184.701 318.093 184.189 318.585 183.783C319.077 183.373 319.794 183.168 320.735 183.168C321.591 183.168 322.243 183.328 322.692 183.648C323.142 183.969 323.366 184.41 323.366 184.973C323.366 185.312 323.253 185.607 323.026 185.857C322.804 186.104 322.499 186.27 322.112 186.355V186.373C322.562 186.436 322.915 186.588 323.173 186.83C323.435 187.068 323.566 187.383 323.566 187.773C323.566 188.391 323.302 188.875 322.775 189.227C322.247 189.578 321.544 189.754 320.665 189.754ZM326.395 183.344V185.471H328.206C328.983 185.471 329.581 185.654 329.999 186.021C330.421 186.385 330.632 186.881 330.632 187.51C330.632 188.135 330.421 188.637 329.999 189.016C329.581 189.391 328.983 189.578 328.206 189.578H325.27V183.344H326.395ZM328.2 186.361H326.395V188.693H328.2C328.681 188.693 329.016 188.582 329.208 188.359C329.403 188.137 329.501 187.854 329.501 187.51C329.501 187.174 329.403 186.898 329.208 186.684C329.016 186.469 328.681 186.361 328.2 186.361ZM331.481 189.578V183.344H332.606V189.578H331.481ZM334.616 189.578V183.344H337.739C338.45 183.344 339.005 183.482 339.403 183.76C339.805 184.033 340.006 184.449 340.006 185.008C340.006 185.355 339.903 185.646 339.696 185.881C339.489 186.115 339.212 186.273 338.864 186.355V186.373C339.286 186.436 339.618 186.59 339.86 186.836C340.102 187.078 340.223 187.389 340.223 187.768C340.223 188.338 340.012 188.783 339.59 189.104C339.169 189.42 338.61 189.578 337.915 189.578H334.616ZM335.741 185.969H337.739C338.141 185.969 338.43 185.889 338.606 185.729C338.782 185.568 338.87 185.348 338.87 185.066C338.87 184.793 338.782 184.586 338.606 184.445C338.43 184.305 338.141 184.232 337.739 184.229H335.741V185.969ZM335.741 188.693H337.915C338.321 188.693 338.618 188.609 338.805 188.441C338.997 188.273 339.092 188.047 339.092 187.762C339.092 187.484 338.999 187.264 338.811 187.1C338.624 186.932 338.325 186.848 337.915 186.848H335.741V188.693ZM343.059 183.344V185.471H344.87C345.647 185.471 346.245 185.654 346.662 186.021C347.084 186.385 347.295 186.881 347.295 187.51C347.295 188.135 347.084 188.637 346.662 189.016C346.245 189.391 345.647 189.578 344.87 189.578H341.934V183.344H343.059ZM344.864 186.361H343.059V188.693H344.864C345.344 188.693 345.68 188.582 345.871 188.359C346.067 188.137 346.164 187.854 346.164 187.51C346.164 187.174 346.067 186.898 345.871 186.684C345.68 186.469 345.344 186.361 344.864 186.361ZM348.145 189.578V183.344H349.27V189.578H348.145ZM292.84 205.578V199.344H293.953V203.316C293.953 203.434 293.951 203.566 293.947 203.715C293.947 203.863 293.945 203.998 293.941 204.119H293.988C294.043 204.014 294.104 203.902 294.17 203.785C294.236 203.668 294.313 203.551 294.399 203.434L297.334 199.344H298.465V205.578H297.346V201.611C297.346 201.49 297.348 201.355 297.352 201.207C297.356 201.055 297.361 200.918 297.369 200.797H297.305C297.254 200.898 297.195 201.01 297.129 201.131C297.063 201.252 296.988 201.371 296.906 201.488L293.971 205.578H292.84ZM303.644 208.016V199.344H304.664L304.716 200.199H304.74C304.927 199.93 305.211 199.701 305.589 199.514C305.968 199.322 306.412 199.227 306.92 199.227C307.795 199.227 308.494 199.523 309.017 200.117C309.545 200.707 309.808 201.457 309.808 202.367V202.555C309.808 203.461 309.545 204.211 309.017 204.805C308.494 205.398 307.795 205.695 306.92 205.695C306.412 205.695 305.98 205.613 305.625 205.449C305.269 205.285 304.984 205.068 304.769 204.799V208.016H303.644ZM304.769 203.662C304.91 203.951 305.142 204.209 305.466 204.436C305.791 204.658 306.185 204.77 306.65 204.77C307.341 204.77 307.847 204.559 308.168 204.137C308.492 203.711 308.654 203.184 308.654 202.555V202.367C308.654 201.734 308.492 201.207 308.168 200.785C307.847 200.363 307.341 200.152 306.65 200.152C306.185 200.152 305.791 200.266 305.466 200.492C305.146 200.715 304.914 200.971 304.769 201.26V203.662ZM311.085 202.555V202.367C311.085 201.426 311.37 200.658 311.941 200.064C312.515 199.467 313.273 199.168 314.214 199.168C315.16 199.168 315.886 199.447 316.394 200.006C316.902 200.561 317.156 201.312 317.156 202.262V202.725H311.753V201.828H316.025V201.799C316.025 201.299 315.882 200.889 315.597 200.568C315.312 200.248 314.855 200.088 314.226 200.088C313.566 200.088 313.066 200.307 312.726 200.744C312.386 201.182 312.216 201.723 312.216 202.367V202.555C312.216 203.199 312.394 203.74 312.749 204.178C313.109 204.615 313.661 204.834 314.408 204.834C314.861 204.834 315.251 204.748 315.579 204.576C315.908 204.4 316.171 204.193 316.37 203.955L317.097 204.553C316.878 204.846 316.538 205.119 316.077 205.373C315.62 205.627 315.064 205.754 314.408 205.754C313.333 205.754 312.511 205.457 311.941 204.863C311.37 204.266 311.085 203.496 311.085 202.555ZM318.691 205.578V199.344H319.804V203.316C319.804 203.434 319.802 203.566 319.798 203.715C319.798 203.863 319.796 203.998 319.792 204.119H319.839C319.894 204.014 319.954 203.902 320.021 203.785C320.087 203.668 320.163 203.551 320.249 203.434L323.185 199.344H324.316V205.578H323.196V201.611C323.196 201.49 323.198 201.355 323.202 201.207C323.206 201.055 323.212 200.918 323.22 200.797H323.155C323.105 200.898 323.046 201.01 322.98 201.131C322.913 201.252 322.839 201.371 322.757 201.488L319.821 205.578H318.691ZM321.503 197.445C321.796 197.445 322.036 197.367 322.224 197.211C322.411 197.051 322.571 196.791 322.704 196.432L323.566 196.936C323.37 197.412 323.093 197.762 322.734 197.984C322.374 198.207 321.964 198.318 321.503 198.318C321.038 198.318 320.628 198.209 320.273 197.99C319.917 197.768 319.638 197.416 319.435 196.936L320.302 196.42C320.435 196.791 320.593 197.055 320.776 197.211C320.964 197.367 321.206 197.445 321.503 197.445ZM325.634 200.229V199.344H331.2V200.229H328.979V205.578H327.854V200.229H325.634ZM332.53 205.578V199.344H333.643V203.316C333.643 203.434 333.641 203.566 333.637 203.715C333.637 203.863 333.635 203.998 333.631 204.119H333.678C333.733 204.014 333.794 203.902 333.86 203.785C333.926 203.668 334.003 203.551 334.089 203.434L337.024 199.344H338.155V205.578H337.036V201.611C337.036 201.49 337.038 201.355 337.042 201.207C337.046 201.055 337.051 200.918 337.059 200.797H336.995C336.944 200.898 336.885 201.01 336.819 201.131C336.753 201.252 336.678 201.371 336.596 201.488L333.661 205.578H332.53ZM340.164 199.344H341.289V201.957H344.594V199.344H345.719V205.578H344.594V202.848H341.289V205.578H340.164V199.344ZM347.729 199.344H352.205V200.229H348.854V205.578H347.729V199.344ZM353.535 205.578V199.344H354.648V203.316C354.648 203.434 354.646 203.566 354.642 203.715C354.642 203.863 354.641 203.998 354.637 204.119H354.684C354.738 204.014 354.799 203.902 354.865 203.785C354.932 203.668 355.008 203.551 355.094 203.434L358.029 199.344H359.16V205.578H358.041V201.611C358.041 201.49 358.043 201.355 358.047 201.207C358.051 201.055 358.057 200.918 358.064 200.797H358C357.949 200.898 357.891 201.01 357.824 201.131C357.758 201.252 357.684 201.371 357.601 201.488L354.666 205.578H353.535Z" fill="#04101C"/>
</g>
<defs>
<filter id="filter0_dd_443_61088" x="0.5" y="119.078" width="84" height="110.5" filterUnits="userSpaceOnUse" color-interpolation-filters="sRGB">
<feFlood flood-opacity="0" result="BackgroundImageFix"/>
<feColorMatrix in="SourceAlpha" type="matrix" values="0 0 0 0 0 0 0 0 0 0 0 0 0 0 0 0 0 0 127 0" result="hardAlpha"/>
<feOffset dy="4"/>
<feGaussianBlur stdDeviation="4"/>
<feComposite in2="hardAlpha" operator="out"/>
<feColorMatrix type="matrix" values="0 0 0 0 0 0 0 0 0 0 0 0 0 0 0 0 0 0 0.08 0"/>
<feBlend mode="normal" in2="BackgroundImageFix" result="effect1_dropShadow_443_61088"/>
<feColorMatrix in="SourceAlpha" type="matrix" values="0 0 0 0 0 0 0 0 0 0 0 0 0 0 0 0 0 0 127 0" result="hardAlpha"/>
<feOffset dy="-0.5"/>
<feGaussianBlur stdDeviation="2"/>
<feComposite in2="hardAlpha" operator="out"/>
<feColorMatrix type="matrix" values="0 0 0 0 0 0 0 0 0 0 0 0 0 0 0 0 0 0 0.05 0"/>
<feBlend mode="normal" in2="effect1_dropShadow_443_61088" result="effect2_dropShadow_443_61088"/>
<feBlend mode="normal" in="SourceGraphic" in2="effect2_dropShadow_443_61088" result="shape"/>
</filter>
<filter id="filter1_dd_443_61088" x="265.5" y="111.078" width="121" height="126.5" filterUnits="userSpaceOnUse" color-interpolation-filters="sRGB">
<feFlood flood-opacity="0" result="BackgroundImageFix"/>
<feColorMatrix in="SourceAlpha" type="matrix" values="0 0 0 0 0 0 0 0 0 0 0 0 0 0 0 0 0 0 127 0" result="hardAlpha"/>
<feOffset dy="4"/>
<feGaussianBlur stdDeviation="4"/>
<feComposite in2="hardAlpha" operator="out"/>
<feColorMatrix type="matrix" values="0 0 0 0 0 0 0 0 0 0 0 0 0 0 0 0 0 0 0.08 0"/>
<feBlend mode="normal" in2="BackgroundImageFix" result="effect1_dropShadow_443_61088"/>
<feColorMatrix in="SourceAlpha" type="matrix" values="0 0 0 0 0 0 0 0 0 0 0 0 0 0 0 0 0 0 127 0" result="hardAlpha"/>
<feOffset dy="-0.5"/>
<feGaussianBlur stdDeviation="2"/>
<feComposite in2="hardAlpha" operator="out"/>
<feColorMatrix type="matrix" values="0 0 0 0 0 0 0 0 0 0 0 0 0 0 0 0 0 0 0.05 0"/>
<feBlend mode="normal" in2="effect1_dropShadow_443_61088" result="effect2_dropShadow_443_61088"/>
<feBlend mode="normal" in="SourceGraphic" in2="effect2_dropShadow_443_61088" result="shape"/>
</filter>
<radialGradient id="paint0_radial_443_61088" cx="0" cy="0" r="1" gradientUnits="userSpaceOnUse" gradientTransform="translate(42.1 161.578) rotate(98.7708) scale(17.7071 16.0233)">
<stop offset="0.055" stop-color="#7A73FF"/>
<stop offset="0.65" stop-color="#67DDFA"/>
<stop offset="1" stop-color="#4AFCF1"/>
</radialGradient>
<radialGradient id="paint1_radial_443_61088" cx="0" cy="0" r="1" gradientUnits="userSpaceOnUse" gradientTransform="translate(42.1 161.578) rotate(98.7708) scale(17.7071 16.0233)">
<stop offset="0.055" stop-color="#7A73FF"/>
<stop offset="0.65" stop-color="#67DDFA"/>
<stop offset="1" stop-color="#4AFCF1"/>
</radialGradient>
<radialGradient id="paint2_radial_443_61088" cx="0" cy="0" r="1" gradientUnits="userSpaceOnUse" gradientTransform="translate(42.1 161.578) rotate(98.7708) scale(17.7071 16.0233)">
<stop offset="0.055" stop-color="#7A73FF"/>
<stop offset="0.65" stop-color="#67DDFA"/>
<stop offset="1" stop-color="#4AFCF1"/>
</radialGradient>
<radialGradient id="paint3_radial_443_61088" cx="0" cy="0" r="1" gradientUnits="userSpaceOnUse" gradientTransform="translate(42.1 161.578) rotate(98.7708) scale(17.7071 16.0233)">
<stop offset="0.055" stop-color="#7A73FF"/>
<stop offset="0.65" stop-color="#67DDFA"/>
<stop offset="1" stop-color="#4AFCF1"/>
</radialGradient>
<radialGradient id="paint4_radial_443_61088" cx="0" cy="0" r="1" gradientUnits="userSpaceOnUse" gradientTransform="translate(42.1 161.578) rotate(98.7708) scale(17.7071 16.0233)">
<stop offset="0.055" stop-color="#7A73FF"/>
<stop offset="0.65" stop-color="#67DDFA"/>
<stop offset="1" stop-color="#4AFCF1"/>
</radialGradient>
<radialGradient id="paint5_radial_443_61088" cx="0" cy="0" r="1" gradientUnits="userSpaceOnUse" gradientTransform="translate(42.1 161.578) rotate(98.7708) scale(17.7071 16.0233)">
<stop offset="0.055" stop-color="#7A73FF"/>
<stop offset="0.65" stop-color="#67DDFA"/>
<stop offset="1" stop-color="#4AFCF1"/>
</radialGradient>
<linearGradient id="paint6_linear_443_61088" x1="596.392" y1="91.4927" x2="45.2153" y2="207.507" gradientUnits="userSpaceOnUse">
<stop offset="0.338542" stop-color="#7A73FF"/>
<stop offset="0.734375" stop-color="#75CDFF"/>
<stop offset="1" stop-color="#4AFCF1"/>
</linearGradient>
<radialGradient id="paint7_radial_443_61088" cx="0" cy="0" r="1" gradientUnits="userSpaceOnUse" gradientTransform="translate(325.7 153.578) rotate(100.204) scale(17.7812 18.6158)">
<stop offset="0.055" stop-color="#7A73FF"/>
<stop offset="0.65" stop-color="#67DDFA"/>
<stop offset="1" stop-color="#4AFCF1"/>
</radialGradient>
</defs>
</svg>
