<svg width="347" height="325" viewBox="0 0 347 325" fill="none" xmlns="http://www.w3.org/2000/svg">
<g filter="url(#filter0_dd_443_62152)">
<rect x="9" y="140" width="104" height="94" rx="12" fill="white"/>
<path d="M65.8 185.14C65.8 184.3 65.24 183.74 64.4 183.74H50.26C49.14 183.74 48.3 182.9 48.3 181.78V174.22C48.3 173.1 49.14 172.26 50.26 172.26H64.4C65.24 172.26 65.8 171.7 65.8 170.86C65.8 170.02 65.24 169.46 64.4 169.46H50.26C47.6 169.46 45.5 171.56 45.5 174.22V181.78C45.5 184.44 47.6 186.54 50.26 186.54H64.4C65.1 186.54 65.8 185.98 65.8 185.14Z" fill="url(#paint0_radial_443_62152)"/>
<path d="M71.54 169.46H70.28V166.8H72.38C73.22 166.8 73.78 166.24 73.78 165.4C73.78 164.56 73.22 164 72.38 164H65.52C64.68 164 64.12 164.56 64.12 165.4C64.12 166.24 64.68 166.8 65.52 166.8H67.62V189.2H65.52C64.68 189.2 64.12 189.76 64.12 190.6C64.12 191.44 64.68 192 65.52 192H72.38C73.22 192 73.78 191.44 73.78 190.6C73.78 189.76 73.22 189.2 72.38 189.2H70.28V186.54H71.54C74.2 186.54 76.3 184.44 76.3 181.78V174.22C76.3 171.56 74.2 169.46 71.54 169.46ZM73.5 181.78C73.5 182.9 72.66 183.74 71.54 183.74H70.28V172.26H71.54C72.66 172.26 73.5 173.1 73.5 174.22V181.78Z" fill="url(#paint1_radial_443_62152)"/>
<path d="M28.3935 214V205.469H35.1904V214H34.0302V206.43H29.5595V214H28.3935ZM36.9714 210.977V210.789C36.9714 209.848 37.2663 209.08 37.8562 208.486C38.4499 207.889 39.2429 207.59 40.2351 207.59C41.2234 207.59 42.0144 207.889 42.6081 208.486C43.2019 209.08 43.4988 209.848 43.4988 210.789V210.977C43.4988 211.918 43.2019 212.688 42.6081 213.285C42.0144 213.879 41.2234 214.176 40.2351 214.176C39.2429 214.176 38.4499 213.879 37.8562 213.285C37.2663 212.688 36.9714 211.918 36.9714 210.977ZM38.1198 210.789V210.977C38.1198 211.617 38.2976 212.156 38.653 212.594C39.0085 213.031 39.5359 213.25 40.2351 213.25C40.9343 213.25 41.4597 213.031 41.8113 212.594C42.1667 212.156 42.3445 211.617 42.3445 210.977V210.789C42.3445 210.145 42.1667 209.605 41.8113 209.172C41.4597 208.734 40.9343 208.516 40.2351 208.516C39.5359 208.516 39.0085 208.734 38.653 209.172C38.2976 209.605 38.1198 210.145 38.1198 210.789ZM50.3716 215.582V214H45.3501V215.582H44.3188V213.115H51.4087V215.582H50.3716ZM46.5688 208.65L46.4751 210.766C46.4438 211.484 46.3989 212.014 46.3403 212.354C46.2856 212.689 46.2036 212.975 46.0942 213.209H44.9282C45.0688 213.021 45.1802 212.752 45.2622 212.4C45.3481 212.045 45.4087 211.453 45.4438 210.625L45.5727 207.766H50.4712V214H49.3403V208.65H46.5688ZM52.2991 210.977V210.789C52.2991 209.848 52.5823 209.08 53.1487 208.486C53.719 207.889 54.5022 207.59 55.4983 207.59C56.4202 207.59 57.1194 207.814 57.5959 208.264C58.0764 208.709 58.3166 209.209 58.3166 209.764V209.793H57.2034V209.758C57.2034 209.426 57.0686 209.135 56.7991 208.885C56.5334 208.635 56.0998 208.51 55.4983 208.51C54.7952 208.51 54.2776 208.729 53.9455 209.166C53.6135 209.604 53.4475 210.145 53.4475 210.789V210.977C53.4475 211.621 53.6135 212.162 53.9455 212.6C54.2776 213.033 54.7952 213.25 55.4983 213.25C56.0998 213.25 56.5334 213.127 56.7991 212.881C57.0686 212.635 57.2034 212.342 57.2034 212.002V211.973H58.3166V212.002C58.3166 212.553 58.0764 213.053 57.5959 213.502C57.1194 213.951 56.4202 214.176 55.4983 214.176C54.5022 214.176 53.719 213.879 53.1487 213.285C52.5823 212.688 52.2991 211.918 52.2991 210.977ZM64.1758 214L61.4746 211.146L62.166 210.414L65.6113 214H64.1758ZM60.3203 210.385H61.5508L63.9648 207.766H65.2949L62.0137 211.27H60.3203V210.385ZM60.8828 207.766V214H59.7637V207.766H60.8828ZM66.3318 212.166C66.3318 211.529 66.6052 211.035 67.1521 210.684C67.7029 210.332 68.4158 210.156 69.2908 210.156H70.9607V209.711C70.9607 209.336 70.8435 209.037 70.6091 208.814C70.3787 208.592 69.9841 208.48 69.4255 208.48C68.8709 208.48 68.4705 208.576 68.2244 208.768C67.9783 208.955 67.8552 209.182 67.8552 209.447V209.477H66.7302V209.447C66.7302 208.936 66.9744 208.498 67.4627 208.135C67.9509 207.771 68.615 207.59 69.4548 207.59C70.2908 207.59 70.9373 207.77 71.3943 208.129C71.8552 208.484 72.0857 209.012 72.0857 209.711V212.594C72.0857 212.848 72.1072 213.088 72.1502 213.314C72.1931 213.537 72.2537 213.734 72.3318 213.906V214H71.2478C71.1853 213.902 71.1287 213.773 71.0779 213.613C71.0271 213.453 70.9959 213.295 70.9841 213.139C70.8201 213.4 70.5466 213.629 70.1638 213.824C69.781 214.02 69.2908 214.117 68.6931 214.117C68.0213 214.117 67.4588 213.949 67.0056 213.613C66.5564 213.277 66.3318 212.795 66.3318 212.166ZM67.4568 212.107C67.4568 212.459 67.5779 212.732 67.8201 212.928C68.0623 213.123 68.4412 213.221 68.9568 213.221C69.4724 213.221 69.9353 213.072 70.3455 212.775C70.7556 212.479 70.9607 212.164 70.9607 211.832V210.953H69.4197C68.7791 210.953 68.2908 211.057 67.9548 211.264C67.6228 211.467 67.4568 211.748 67.4568 212.107ZM76.5855 214.176C75.5777 214.176 74.8335 213.963 74.353 213.537C73.8765 213.111 73.6382 212.607 73.6382 212.025V211.996H74.728V212.025C74.728 212.35 74.8628 212.635 75.1323 212.881C75.4058 213.127 75.8862 213.25 76.5737 213.25C77.1636 213.25 77.607 213.154 77.9038 212.963C78.2007 212.771 78.3491 212.508 78.3491 212.172C78.3491 211.887 78.2378 211.666 78.0152 211.51C77.7964 211.35 77.4487 211.27 76.9722 211.27H75.5894V210.391H76.8667C77.3081 210.391 77.6323 210.311 77.8394 210.15C78.0464 209.99 78.1499 209.77 78.1499 209.488C78.1499 209.172 78.0249 208.93 77.7749 208.762C77.5288 208.594 77.1577 208.51 76.6616 208.51C76.0366 208.51 75.5796 208.629 75.2905 208.867C75.0015 209.105 74.857 209.396 74.857 209.74V209.77H73.7671V209.74C73.7671 209.123 74.0132 208.611 74.5054 208.205C74.9976 207.795 75.7144 207.59 76.6558 207.59C77.5112 207.59 78.1636 207.75 78.6128 208.07C79.062 208.391 79.2866 208.832 79.2866 209.395C79.2866 209.734 79.1734 210.029 78.9468 210.279C78.7241 210.525 78.4195 210.691 78.0327 210.777V210.795C78.482 210.857 78.8355 211.01 79.0933 211.252C79.355 211.49 79.4859 211.805 79.4859 212.195C79.4859 212.812 79.2222 213.297 78.6948 213.648C78.1675 214 77.4644 214.176 76.5855 214.176ZM85.6028 214L82.9016 211.146L83.593 210.414L87.0384 214H85.6028ZM81.7473 210.385H82.9778L85.3919 207.766H86.722L83.4407 211.27H81.7473V210.385ZM82.3098 207.766V214H81.1907V207.766H82.3098ZM88.1104 214V207.766H89.2237V211.738C89.2237 211.855 89.2217 211.988 89.2178 212.137C89.2178 212.285 89.2159 212.42 89.212 212.541H89.2588C89.3135 212.436 89.3741 212.324 89.4405 212.207C89.5069 212.09 89.583 211.973 89.669 211.855L92.6045 207.766H93.7354V214H92.6162V210.033C92.6162 209.912 92.6182 209.777 92.6221 209.629C92.626 209.477 92.6319 209.34 92.6397 209.219H92.5752C92.5245 209.32 92.4659 209.432 92.3995 209.553C92.333 209.674 92.2588 209.793 92.1768 209.91L89.2412 214H88.1104Z" fill="#04101C"/>
</g>
<g filter="url(#filter1_dd_443_62152)">
<rect x="8" y="5" width="105" height="110" rx="12" fill="white"/>
<path d="M73.3229 50.1429L70.6121 47.4286C70.0414 46.8571 69.1853 46.8571 68.6147 47.4286C68.0439 48 68.0439 48.8571 68.6147 49.4286L71.3255 52.1429C71.7535 52.5714 71.7535 53.2857 71.3255 53.7143C70.8975 54.1429 70.1841 54.1429 69.756 53.7143L65.4758 49.4286C65.7611 49.1429 66.0465 49 66.3318 48.7143C68.472 46.5714 69.756 43.5714 69.756 40.5714C69.756 37.4286 68.6146 34.5714 66.3318 32.4286C61.7662 27.8571 54.4898 27.8571 49.9242 32.4286C45.3586 37 45.3586 44.2857 49.9242 48.8571C52.0643 51 55.0605 52.2857 58.0567 52.2857C59.7688 52.2857 61.4809 51.8571 62.9076 51.1429L67.6159 55.8571C68.3293 56.5714 69.4707 57 70.4694 57C71.4682 57 72.4669 56.5714 73.3229 55.8571C74.8924 54.1429 74.8924 51.5714 73.3229 50.1429ZM51.9217 46.5714C48.4975 43.1429 48.4975 37.5714 51.9217 34.2857C53.6338 32.5714 55.7739 31.7143 58.0567 31.7143C60.3395 31.7143 62.4796 32.5714 64.1917 34.2857C65.9038 36 66.7599 38.1429 66.7599 40.4286C66.7599 42.7143 65.9038 45 64.1917 46.5714C62.4796 48.1429 60.3395 49.1429 58.0567 49.1429C55.7739 49.1429 53.4911 48.2857 51.9217 46.5714Z" fill="url(#paint2_radial_443_62152)"/>
<path d="M27.5009 79V70.4688H34.2978V79H33.1377V71.4297H28.667V79H27.5009ZM36.0788 75.9766V75.7891C36.0788 74.8477 36.3738 74.0801 36.9636 73.4863C37.5573 72.8887 38.3503 72.5898 39.3425 72.5898C40.3308 72.5898 41.1218 72.8887 41.7155 73.4863C42.3093 74.0801 42.6062 74.8477 42.6062 75.7891V75.9766C42.6062 76.918 42.3093 77.6875 41.7155 78.2852C41.1218 78.8789 40.3308 79.1758 39.3425 79.1758C38.3503 79.1758 37.5573 78.8789 36.9636 78.2852C36.3738 77.6875 36.0788 76.918 36.0788 75.9766ZM37.2273 75.7891V75.9766C37.2273 76.6172 37.405 77.1562 37.7605 77.5938C38.1159 78.0312 38.6433 78.25 39.3425 78.25C40.0417 78.25 40.5671 78.0312 40.9187 77.5938C41.2741 77.1562 41.4519 76.6172 41.4519 75.9766V75.7891C41.4519 75.1445 41.2741 74.6055 40.9187 74.1719C40.5671 73.7344 40.0417 73.5156 39.3425 73.5156C38.6433 73.5156 38.1159 73.7344 37.7605 74.1719C37.405 74.6055 37.2273 75.1445 37.2273 75.7891ZM44.2466 79V72.7656H45.3598V76.7383C45.3598 76.8555 45.3579 76.9883 45.354 77.1367C45.354 77.2852 45.352 77.4199 45.3481 77.541H45.395C45.4497 77.4355 45.5102 77.3242 45.5766 77.207C45.643 77.0898 45.7192 76.9727 45.8052 76.8555L48.7407 72.7656H49.8716V79H48.7524V75.0332C48.7524 74.9121 48.7544 74.7773 48.7583 74.6289C48.7622 74.4766 48.768 74.3398 48.7759 74.2188H48.7114C48.6606 74.3203 48.602 74.4316 48.5356 74.5527C48.4692 74.6738 48.395 74.793 48.313 74.9102L45.3774 79H44.2466ZM51.512 75.9766V75.7891C51.512 74.8477 51.7952 74.0801 52.3616 73.4863C52.9319 72.8887 53.7151 72.5898 54.7112 72.5898C55.633 72.5898 56.3323 72.8145 56.8088 73.2637C57.2893 73.709 57.5295 74.209 57.5295 74.7637V74.793H56.4163V74.7578C56.4163 74.4258 56.2815 74.1348 56.012 73.8848C55.7463 73.6348 55.3127 73.5098 54.7112 73.5098C54.008 73.5098 53.4905 73.7285 53.1584 74.166C52.8264 74.6035 52.6604 75.1445 52.6604 75.7891V75.9766C52.6604 76.6211 52.8264 77.1621 53.1584 77.5996C53.4905 78.0332 54.008 78.25 54.7112 78.25C55.3127 78.25 55.7463 78.127 56.012 77.8809C56.2815 77.6348 56.4163 77.3418 56.4163 77.002V76.9727H57.5295V77.002C57.5295 77.5527 57.2893 78.0527 56.8088 78.502C56.3323 78.9512 55.633 79.1758 54.7112 79.1758C53.7151 79.1758 52.9319 78.8789 52.3616 78.2852C51.7952 77.6875 51.512 76.918 51.512 75.9766ZM63.3887 79L60.6875 76.1465L61.3789 75.4141L64.8242 79H63.3887ZM59.5332 75.3848H60.7637L63.1777 72.7656H64.5078L61.2266 76.2695H59.5332V75.3848ZM60.0957 72.7656V79H58.9766V72.7656H60.0957ZM65.5271 75.9766V75.7891C65.5271 74.8477 65.822 74.0801 66.4119 73.4863C67.0056 72.8887 67.7986 72.5898 68.7908 72.5898C69.7791 72.5898 70.5701 72.8887 71.1638 73.4863C71.7576 74.0801 72.0545 74.8477 72.0545 75.7891V75.9766C72.0545 76.918 71.7576 77.6875 71.1638 78.2852C70.5701 78.8789 69.7791 79.1758 68.7908 79.1758C67.7986 79.1758 67.0056 78.8789 66.4119 78.2852C65.822 77.6875 65.5271 76.918 65.5271 75.9766ZM66.6755 75.7891V75.9766C66.6755 76.6172 66.8533 77.1562 67.2088 77.5938C67.5642 78.0312 68.0916 78.25 68.7908 78.25C69.49 78.25 70.0154 78.0312 70.367 77.5938C70.7224 77.1562 70.9002 76.6172 70.9002 75.9766V75.7891C70.9002 75.1445 70.7224 74.6055 70.367 74.1719C70.0154 73.7344 69.49 73.5156 68.7908 73.5156C68.0916 73.5156 67.5642 73.7344 67.2088 74.1719C66.8533 74.6055 66.6755 75.1445 66.6755 75.7891ZM73.6948 79V72.7656H76.8179C77.5288 72.7656 78.0835 72.9043 78.482 73.1816C78.8843 73.4551 79.0855 73.8711 79.0855 74.4297C79.0855 74.7773 78.982 75.0684 78.7749 75.3027C78.5679 75.5371 78.2905 75.6953 77.9429 75.7773V75.7949C78.3648 75.8574 78.6968 76.0117 78.939 76.2578C79.1812 76.5 79.3023 76.8105 79.3023 77.1895C79.3023 77.7598 79.0913 78.2051 78.6695 78.5254C78.2476 78.8418 77.689 79 76.9937 79H73.6948ZM74.8198 75.3906H76.8179C77.2202 75.3906 77.5093 75.3105 77.6851 75.1504C77.8609 74.9902 77.9487 74.7695 77.9487 74.4883C77.9487 74.2148 77.8609 74.0078 77.6851 73.8672C77.5093 73.7266 77.2202 73.6543 76.8179 73.6504H74.8198V75.3906ZM74.8198 78.1152H76.9937C77.3999 78.1152 77.6968 78.0312 77.8843 77.8633C78.0757 77.6953 78.1714 77.4688 78.1714 77.1836C78.1714 76.9062 78.0777 76.6855 77.8902 76.5215C77.7027 76.3535 77.4038 76.2695 76.9937 76.2695H74.8198V78.1152ZM80.6614 77.166C80.6614 76.5293 80.9348 76.0352 81.4817 75.6836C82.0325 75.332 82.7454 75.1562 83.6204 75.1562H85.2903V74.7109C85.2903 74.3359 85.1731 74.0371 84.9388 73.8145C84.7083 73.5918 84.3138 73.4805 83.7552 73.4805C83.2005 73.4805 82.8001 73.5762 82.554 73.7676C82.3079 73.9551 82.1848 74.1816 82.1848 74.4473V74.4766H81.0598V74.4473C81.0598 73.9355 81.304 73.498 81.7923 73.1348C82.2805 72.7715 82.9446 72.5898 83.7845 72.5898C84.6204 72.5898 85.2669 72.7695 85.7239 73.1289C86.1848 73.4844 86.4153 74.0117 86.4153 74.7109V77.5938C86.4153 77.8477 86.4368 78.0879 86.4798 78.3145C86.5227 78.5371 86.5833 78.7344 86.6614 78.9062V79H85.5774C85.5149 78.9023 85.4583 78.7734 85.4075 78.6133C85.3567 78.4531 85.3255 78.2949 85.3138 78.1387C85.1497 78.4004 84.8763 78.6289 84.4934 78.8242C84.1106 79.0195 83.6204 79.1172 83.0227 79.1172C82.3509 79.1172 81.7884 78.9492 81.3352 78.6133C80.886 78.2773 80.6614 77.7949 80.6614 77.166ZM81.7864 77.1074C81.7864 77.459 81.9075 77.7324 82.1497 77.9277C82.3919 78.123 82.7708 78.2207 83.2864 78.2207C83.802 78.2207 84.2649 78.0723 84.6751 77.7754C85.0852 77.4785 85.2903 77.1641 85.2903 76.832V75.9531H83.7493C83.1087 75.9531 82.6204 76.0566 82.2845 76.2637C81.9524 76.4668 81.7864 76.748 81.7864 77.1074ZM89.2569 79H88.0088L90.0127 76.3398L91.1436 76.4395L89.2569 79ZM92.4971 79V76.75H90.7393L90.6104 76.6797C89.8448 76.6797 89.2569 76.5078 88.8467 76.1641C88.4366 75.8164 88.2315 75.3496 88.2315 74.7637C88.2315 74.1582 88.4385 73.6738 88.8526 73.3105C89.2666 72.9473 89.8604 72.7656 90.6338 72.7656H93.628V79H92.4971ZM90.6397 75.8594H92.4971V73.6504H90.6397C90.1709 73.6504 89.8409 73.7559 89.6495 73.9668C89.462 74.1777 89.3682 74.4434 89.3682 74.7637C89.3682 75.0879 89.462 75.3516 89.6495 75.5547C89.837 75.7578 90.167 75.8594 90.6397 75.8594ZM38.4078 95V88.7656H41.5309C42.2418 88.7656 42.7965 88.9043 43.1949 89.1816C43.5973 89.4551 43.7984 89.8711 43.7984 90.4297C43.7984 90.7773 43.6949 91.0684 43.4879 91.3027C43.2809 91.5371 43.0035 91.6953 42.6559 91.7773V91.7949C43.0777 91.8574 43.4098 92.0117 43.652 92.2578C43.8941 92.5 44.0152 92.8105 44.0152 93.1895C44.0152 93.7598 43.8043 94.2051 43.3824 94.5254C42.9605 94.8418 42.402 95 41.7066 95H38.4078ZM39.5328 91.3906H41.5309C41.9332 91.3906 42.2223 91.3105 42.398 91.1504C42.5738 90.9902 42.6617 90.7695 42.6617 90.4883C42.6617 90.2148 42.5738 90.0078 42.398 89.8672C42.2223 89.7266 41.9332 89.6543 41.5309 89.6504H39.5328V91.3906ZM39.5328 94.1152H41.7066C42.1129 94.1152 42.4098 94.0312 42.5973 93.8633C42.7887 93.6953 42.8844 93.4688 42.8844 93.1836C42.8844 92.9062 42.7906 92.6855 42.6031 92.5215C42.4156 92.3535 42.1168 92.2695 41.7066 92.2695H39.5328V94.1152ZM46.8509 88.7656V90.8926H48.6615C49.4388 90.8926 50.0365 91.0762 50.4545 91.4434C50.8763 91.8066 51.0873 92.3027 51.0873 92.9316C51.0873 93.5566 50.8763 94.0586 50.4545 94.4375C50.0365 94.8125 49.4388 95 48.6615 95H45.7259V88.7656H46.8509ZM48.6556 91.7832H46.8509V94.1152H48.6556C49.1361 94.1152 49.472 94.0039 49.6634 93.7812C49.8587 93.5586 49.9564 93.2754 49.9564 92.9316C49.9564 92.5957 49.8587 92.3203 49.6634 92.1055C49.472 91.8906 49.1361 91.7832 48.6556 91.7832ZM51.9369 95V88.7656H53.0619V95H51.9369ZM60.3038 96.582V95H55.2823V96.582H54.2511V94.1152H61.3409V96.582H60.3038ZM56.5011 89.6504L56.4073 91.7656C56.3761 92.4844 56.3312 93.0137 56.2726 93.3535C56.2179 93.6895 56.1359 93.9746 56.0265 94.209H54.8605C55.0011 94.0215 55.1124 93.752 55.1945 93.4004C55.2804 93.0449 55.3409 92.4531 55.3761 91.625L55.505 88.7656H60.4034V95H59.2726V89.6504H56.5011ZM62.2489 93.166C62.2489 92.5293 62.5223 92.0352 63.0692 91.6836C63.62 91.332 64.3329 91.1562 65.2079 91.1562H66.8778V90.7109C66.8778 90.3359 66.7606 90.0371 66.5262 89.8145C66.2958 89.5918 65.9012 89.4805 65.3427 89.4805C64.788 89.4805 64.3876 89.5762 64.1415 89.7676C63.8954 89.9551 63.7723 90.1816 63.7723 90.4473V90.4766H62.6473V90.4473C62.6473 89.9355 62.8915 89.498 63.3798 89.1348C63.868 88.7715 64.5321 88.5898 65.372 88.5898C66.2079 88.5898 66.8544 88.7695 67.3114 89.1289C67.7723 89.4844 68.0028 90.0117 68.0028 90.7109V93.5938C68.0028 93.8477 68.0243 94.0879 68.0673 94.3145C68.1102 94.5371 68.1708 94.7344 68.2489 94.9062V95H67.1649C67.1024 94.9023 67.0458 94.7734 66.995 94.6133C66.9442 94.4531 66.913 94.2949 66.9012 94.1387C66.7372 94.4004 66.4637 94.6289 66.0809 94.8242C65.6981 95.0195 65.2079 95.1172 64.6102 95.1172C63.9384 95.1172 63.3759 94.9492 62.9227 94.6133C62.4735 94.2773 62.2489 93.7949 62.2489 93.166ZM63.3739 93.1074C63.3739 93.459 63.495 93.7324 63.7372 93.9277C63.9794 94.123 64.3583 94.2207 64.8739 94.2207C65.3895 94.2207 65.8524 94.0723 66.2626 93.7754C66.6727 93.4785 66.8778 93.1641 66.8778 92.832V91.9531H65.3368C64.6962 91.9531 64.2079 92.0566 63.872 92.2637C63.5399 92.4668 63.3739 92.748 63.3739 93.1074ZM70.9733 90.4707C70.9733 90.9785 71.0924 91.332 71.3307 91.5312C71.569 91.7305 71.9498 91.8301 72.4733 91.8301C72.8756 91.8301 73.2409 91.8027 73.569 91.748C73.901 91.6895 74.2545 91.6094 74.6295 91.5078V92.4043C74.278 92.4941 73.9284 92.5703 73.5807 92.6328C73.233 92.6914 72.8034 92.7207 72.2916 92.7207C71.4557 92.7207 70.8385 92.5332 70.4401 92.1582C70.0455 91.7793 69.8483 91.2168 69.8483 90.4707V88.7656H70.9733V90.4707ZM75.1862 88.7656V95H74.067V88.7656H75.1862ZM76.85 93.166C76.85 92.5293 77.1234 92.0352 77.6703 91.6836C78.2211 91.332 78.934 91.1562 79.809 91.1562H81.4789V90.7109C81.4789 90.3359 81.3617 90.0371 81.1273 89.8145C80.8969 89.5918 80.5023 89.4805 79.9437 89.4805C79.3891 89.4805 78.9887 89.5762 78.7426 89.7676C78.4965 89.9551 78.3734 90.1816 78.3734 90.4473V90.4766H77.2484V90.4473C77.2484 89.9355 77.4926 89.498 77.9809 89.1348C78.4691 88.7715 79.1332 88.5898 79.973 88.5898C80.809 88.5898 81.4555 88.7695 81.9125 89.1289C82.3734 89.4844 82.6039 90.0117 82.6039 90.7109V93.5938C82.6039 93.8477 82.6254 94.0879 82.6684 94.3145C82.7113 94.5371 82.7719 94.7344 82.85 94.9062V95H81.766C81.7035 94.9023 81.6469 94.7734 81.5961 94.6133C81.5453 94.4531 81.5141 94.2949 81.5023 94.1387C81.3383 94.4004 81.0648 94.6289 80.682 94.8242C80.2992 95.0195 79.809 95.1172 79.2113 95.1172C78.5395 95.1172 77.977 94.9492 77.5238 94.6133C77.0746 94.2773 76.85 93.7949 76.85 93.166ZM77.975 93.1074C77.975 93.459 78.0961 93.7324 78.3383 93.9277C78.5805 94.123 78.9594 94.2207 79.475 94.2207C79.9906 94.2207 80.4535 94.0723 80.8637 93.7754C81.2738 93.4785 81.4789 93.1641 81.4789 92.832V91.9531H79.9379C79.2973 91.9531 78.809 92.0566 78.473 92.2637C78.141 92.4668 77.975 92.748 77.975 93.1074Z" fill="#04101C"/>
</g>
<path d="M137 273L137 190C137 181.163 129.837 174 121 174L114 174" stroke="url(#paint3_linear_443_62152)" stroke-width="2"/>
<path d="M113 41H155C163.837 41 171 48.1635 171 57V273" stroke="url(#paint4_linear_443_62152)" stroke-width="2"/>
<g filter="url(#filter2_dd_443_62152)">
<rect x="118" y="202" width="71" height="94" rx="12" fill="white"/>
<path d="M166.354 227.617C164.53 225.793 161.443 225.512 157.795 226.775C156.532 227.196 155.27 227.898 154.007 228.599C148.956 225.652 144.186 225.091 141.66 227.617C138.995 230.143 139.696 234.914 142.642 239.967C139.556 245.159 139.135 249.93 141.66 252.316C142.642 253.439 144.186 254 146.01 254C148.395 254 151.201 253.018 154.007 251.334C156.813 253.018 159.619 254 162.004 254C163.828 254 165.231 253.439 166.354 252.456C168.879 249.93 168.318 245.159 165.372 240.107C168.458 234.774 168.879 230.003 166.354 227.617ZM158.637 229.441C161.303 228.459 163.267 228.599 164.389 229.582C165.652 230.845 165.372 233.932 163.688 237.3C162.706 236.037 161.724 234.774 160.461 233.511C159.198 232.248 157.936 231.266 156.673 230.283C157.374 230.003 158.076 229.582 158.637 229.441ZM143.625 250.351C142.362 249.088 142.642 246.001 144.326 242.633C145.308 243.896 146.29 245.159 147.553 246.422C148.816 247.685 150.079 248.808 151.341 249.65C147.834 251.474 144.887 251.614 143.625 250.351ZM164.389 250.351C163.127 251.614 160.18 251.334 156.532 249.65C157.795 248.667 159.058 247.545 160.321 246.422C160.882 245.861 161.443 245.299 161.864 244.738C162.425 244.177 162.285 243.335 161.724 242.773C161.162 242.212 160.321 242.352 159.759 242.914C159.339 243.475 158.777 243.896 158.356 244.457C156.953 245.861 155.41 247.124 154.007 248.106C152.604 247.124 151.061 245.861 149.658 244.457C143.484 238.282 141.52 231.687 143.625 229.582C144.046 229.02 144.887 228.74 146.01 228.74C147.413 228.74 149.377 229.301 151.341 230.283C150.079 231.266 148.816 232.388 147.553 233.511C146.992 234.213 146.29 234.914 145.729 235.616C145.168 236.177 145.308 237.019 145.869 237.581C146.431 238.142 147.413 238.002 147.834 237.44C148.395 236.739 148.956 236.177 149.517 235.616C150.92 234.213 152.464 232.95 153.867 231.967C155.27 232.95 156.813 234.213 158.356 235.616C164.53 241.651 166.494 248.246 164.389 250.351Z" fill="url(#paint5_radial_443_62152)"/>
<path d="M154 242.24C155.237 242.24 156.24 241.237 156.24 240C156.24 238.763 155.237 237.76 154 237.76C152.763 237.76 151.76 238.763 151.76 240C151.76 241.237 152.763 242.24 154 242.24Z" fill="url(#paint6_radial_443_62152)"/>
<path d="M136.605 273.656V273.586H137.765V273.65C137.765 274.162 137.958 274.545 138.345 274.799C138.736 275.053 139.283 275.18 139.986 275.18C140.685 275.18 141.22 275.051 141.591 274.793C141.966 274.531 142.154 274.188 142.154 273.762C142.154 273.379 141.98 273.074 141.632 272.848C141.288 272.617 140.601 272.371 139.57 272.109C138.527 271.844 137.802 271.531 137.396 271.172C136.994 270.812 136.792 270.299 136.792 269.631C136.792 268.963 137.068 268.406 137.619 267.961C138.173 267.516 138.941 267.293 139.921 267.293C140.898 267.293 141.675 267.531 142.253 268.008C142.831 268.484 143.12 269.076 143.12 269.783V269.848H141.96V269.783C141.96 269.334 141.788 268.973 141.445 268.699C141.105 268.426 140.597 268.289 139.921 268.289C139.245 268.289 138.745 268.406 138.421 268.641C138.101 268.871 137.941 269.186 137.941 269.584C137.941 269.951 138.103 270.242 138.427 270.457C138.755 270.668 139.413 270.896 140.402 271.143C141.437 271.404 142.179 271.729 142.628 272.115C143.077 272.502 143.302 273.049 143.302 273.756C143.302 274.463 143.003 275.043 142.406 275.496C141.812 275.949 141.005 276.176 139.986 276.176C138.962 276.176 138.142 275.951 137.525 275.502C136.911 275.049 136.605 274.434 136.605 273.656ZM145.042 276V267.469H150.866V268.43H146.208V271.119H150.286V272.08H146.208V275.039H150.931V276H145.042ZM152.595 276V267.469H155.624C156.616 267.469 157.384 267.697 157.927 268.154C158.47 268.611 158.741 269.225 158.741 269.994C158.741 270.764 158.47 271.383 157.927 271.852C157.384 272.32 156.616 272.555 155.624 272.555H153.761V276H152.595ZM153.761 271.605H155.624C156.354 271.605 156.862 271.451 157.147 271.143C157.432 270.83 157.575 270.447 157.575 269.994C157.575 269.541 157.432 269.166 157.147 268.869C156.862 268.568 156.354 268.418 155.624 268.418H153.761V271.605ZM157.886 276L155.647 272.068L156.843 271.922L159.216 276H157.886ZM160.721 276V267.469H162.245L165.016 273.885C165.067 274.002 165.116 274.125 165.163 274.254C165.214 274.379 165.258 274.496 165.297 274.605H165.344C165.38 274.496 165.421 274.379 165.467 274.254C165.514 274.125 165.563 274.002 165.614 273.885L168.368 267.469H169.921V276H168.796V269.73C168.796 269.613 168.797 269.482 168.801 269.338C168.809 269.189 168.821 269.057 168.837 268.939H168.784C168.753 269.057 168.71 269.189 168.655 269.338C168.604 269.482 168.553 269.613 168.503 269.73L165.819 276H164.782L162.081 269.73C162.03 269.613 161.979 269.482 161.928 269.338C161.881 269.189 161.844 269.057 161.817 268.939H161.764C161.776 269.057 161.786 269.189 161.794 269.338C161.805 269.482 161.811 269.613 161.811 269.73V276H160.721Z" fill="#04101C"/>
</g>
<g filter="url(#filter3_dd_443_62152)">
<rect x="232" y="202" width="68" height="94" rx="12" fill="white"/>
<path d="M276.965 248.6H274C273.506 246.8 271.9 245.6 269.924 245.6C267.576 245.6 265.6 247.52 265.6 249.8C265.6 252.08 267.576 254 269.924 254C271.9 254 273.506 252.8 274 251H276.965C277.706 251 278.2 250.4 278.2 249.8C278.2 249.08 277.706 248.6 276.965 248.6ZM269.924 251.6C268.935 251.6 268.071 250.76 268.071 249.8C268.071 248.84 268.935 248 269.924 248C270.912 248 271.776 248.84 271.776 249.8C271.776 250.76 270.912 251.6 269.924 251.6Z" fill="url(#paint7_radial_443_62152)"/>
<path d="M263.009 248.4H254.191C253.477 248.4 253 249.1 253 249.8C253 250.64 253.596 251.2 254.191 251.2H263.009C263.723 251.2 264.2 250.5 264.2 249.8C264.2 248.96 263.604 248.4 263.009 248.4Z" fill="url(#paint8_radial_443_62152)"/>
<path d="M254.191 231.6H263.009C263.723 231.6 264.2 230.9 264.2 230.2C264.2 229.5 263.604 228.8 263.009 228.8H254.191C253.477 228.8 253 229.5 253 230.2C253 230.9 253.596 231.6 254.191 231.6Z" fill="url(#paint9_radial_443_62152)"/>
<path d="M269.924 234.4C271.9 234.4 273.506 233.2 274 231.4H276.965C277.706 231.4 278.2 230.8 278.2 230.2C278.2 229.6 277.582 229 276.965 229H274C273.506 227.2 271.9 226 269.924 226C267.576 226 265.6 227.92 265.6 230.2C265.6 232.48 267.576 234.4 269.924 234.4ZM269.924 228.4C270.912 228.4 271.776 229.24 271.776 230.2C271.776 231.16 270.912 232 269.924 232C268.935 232 268.071 231.16 268.071 230.2C268.071 229.24 268.935 228.4 269.924 228.4Z" fill="url(#paint10_radial_443_62152)"/>
<path d="M254.235 241.2H257.2C257.694 242.88 259.3 244.2 261.276 244.2C263.624 244.2 265.6 242.28 265.6 240C265.6 237.72 263.624 235.8 261.276 235.8C259.3 235.8 257.694 237 257.2 238.8H254.235C253.494 238.8 253 239.4 253 240C253 240.6 253.618 241.2 254.235 241.2ZM261.276 238.2C262.265 238.2 263.129 239.04 263.129 240C263.129 240.96 262.265 241.8 261.276 241.8C260.288 241.8 259.424 240.96 259.424 240C259.424 239.04 260.288 238.2 261.276 238.2Z" fill="url(#paint11_radial_443_62152)"/>
<path d="M276.996 238.6H268.204C267.482 238.6 267 239.3 267 240C267 240.7 267.602 241.4 268.204 241.4H276.996C277.718 241.4 278.2 240.7 278.2 240C278.2 239.3 277.718 238.6 276.996 238.6Z" fill="url(#paint12_radial_443_62152)"/>
<path d="M252.272 271.951V271.518C252.272 270.182 252.639 269.145 253.373 268.406C254.108 267.664 255.049 267.293 256.198 267.293C257.35 267.293 258.293 267.664 259.028 268.406C259.762 269.145 260.129 270.182 260.129 271.518V271.951C260.129 273.287 259.762 274.326 259.028 275.068C258.293 275.807 257.35 276.176 256.198 276.176C255.049 276.176 254.108 275.807 253.373 275.068C252.639 274.326 252.272 273.287 252.272 271.951ZM253.449 271.951C253.449 272.967 253.699 273.76 254.199 274.33C254.703 274.896 255.371 275.18 256.203 275.18C257.031 275.18 257.698 274.896 258.201 274.33C258.705 273.76 258.957 272.967 258.957 271.951V271.518C258.957 270.502 258.705 269.711 258.201 269.145C257.698 268.574 257.031 268.289 256.203 268.289C255.371 268.289 254.703 268.574 254.199 269.145C253.699 269.711 253.449 270.502 253.449 271.518V271.951ZM262.074 276V267.469H265.104C266.096 267.469 266.863 267.697 267.406 268.154C267.949 268.611 268.221 269.225 268.221 269.994C268.221 270.764 267.949 271.383 267.406 271.852C266.863 272.32 266.096 272.555 265.104 272.555H263.24V276H262.074ZM263.24 271.605H265.104C265.834 271.605 266.342 271.451 266.627 271.143C266.912 270.83 267.055 270.447 267.055 269.994C267.055 269.541 266.912 269.166 266.627 268.869C266.342 268.568 265.834 268.418 265.104 268.418H263.24V271.605ZM267.365 276L265.127 272.068L266.322 271.922L268.695 276H267.365ZM270.201 276V267.469H271.724L274.496 273.885C274.547 274.002 274.595 274.125 274.642 274.254C274.693 274.379 274.738 274.496 274.777 274.605H274.824C274.859 274.496 274.9 274.379 274.947 274.254C274.994 274.125 275.043 274.002 275.094 273.885L277.847 267.469H279.4V276H278.275V269.73C278.275 269.613 278.277 269.482 278.281 269.338C278.289 269.189 278.301 269.057 278.316 268.939H278.263C278.232 269.057 278.189 269.189 278.135 269.338C278.084 269.482 278.033 269.613 277.982 269.73L275.299 276H274.261L271.56 269.73C271.51 269.613 271.459 269.482 271.408 269.338C271.361 269.189 271.324 269.057 271.297 268.939H271.244C271.256 269.057 271.265 269.189 271.273 269.338C271.285 269.482 271.291 269.613 271.291 269.73V276H270.201Z" fill="#04101C"/>
</g>
<path d="M232 249L189 249" stroke="url(#paint13_linear_443_62152)" stroke-width="2"/>
<defs>
<filter id="filter0_dd_443_62152" x="1" y="135.5" width="120" height="110.5" filterUnits="userSpaceOnUse" color-interpolation-filters="sRGB">
<feFlood flood-opacity="0" result="BackgroundImageFix"/>
<feColorMatrix in="SourceAlpha" type="matrix" values="0 0 0 0 0 0 0 0 0 0 0 0 0 0 0 0 0 0 127 0" result="hardAlpha"/>
<feOffset dy="4"/>
<feGaussianBlur stdDeviation="4"/>
<feComposite in2="hardAlpha" operator="out"/>
<feColorMatrix type="matrix" values="0 0 0 0 0 0 0 0 0 0 0 0 0 0 0 0 0 0 0.08 0"/>
<feBlend mode="normal" in2="BackgroundImageFix" result="effect1_dropShadow_443_62152"/>
<feColorMatrix in="SourceAlpha" type="matrix" values="0 0 0 0 0 0 0 0 0 0 0 0 0 0 0 0 0 0 127 0" result="hardAlpha"/>
<feOffset dy="-0.5"/>
<feGaussianBlur stdDeviation="2"/>
<feComposite in2="hardAlpha" operator="out"/>
<feColorMatrix type="matrix" values="0 0 0 0 0 0 0 0 0 0 0 0 0 0 0 0 0 0 0.05 0"/>
<feBlend mode="normal" in2="effect1_dropShadow_443_62152" result="effect2_dropShadow_443_62152"/>
<feBlend mode="normal" in="SourceGraphic" in2="effect2_dropShadow_443_62152" result="shape"/>
</filter>
<filter id="filter1_dd_443_62152" x="0" y="0.5" width="121" height="126.5" filterUnits="userSpaceOnUse" color-interpolation-filters="sRGB">
<feFlood flood-opacity="0" result="BackgroundImageFix"/>
<feColorMatrix in="SourceAlpha" type="matrix" values="0 0 0 0 0 0 0 0 0 0 0 0 0 0 0 0 0 0 127 0" result="hardAlpha"/>
<feOffset dy="4"/>
<feGaussianBlur stdDeviation="4"/>
<feComposite in2="hardAlpha" operator="out"/>
<feColorMatrix type="matrix" values="0 0 0 0 0 0 0 0 0 0 0 0 0 0 0 0 0 0 0.08 0"/>
<feBlend mode="normal" in2="BackgroundImageFix" result="effect1_dropShadow_443_62152"/>
<feColorMatrix in="SourceAlpha" type="matrix" values="0 0 0 0 0 0 0 0 0 0 0 0 0 0 0 0 0 0 127 0" result="hardAlpha"/>
<feOffset dy="-0.5"/>
<feGaussianBlur stdDeviation="2"/>
<feComposite in2="hardAlpha" operator="out"/>
<feColorMatrix type="matrix" values="0 0 0 0 0 0 0 0 0 0 0 0 0 0 0 0 0 0 0.05 0"/>
<feBlend mode="normal" in2="effect1_dropShadow_443_62152" result="effect2_dropShadow_443_62152"/>
<feBlend mode="normal" in="SourceGraphic" in2="effect2_dropShadow_443_62152" result="shape"/>
</filter>
<filter id="filter2_dd_443_62152" x="110" y="197.5" width="87" height="110.5" filterUnits="userSpaceOnUse" color-interpolation-filters="sRGB">
<feFlood flood-opacity="0" result="BackgroundImageFix"/>
<feColorMatrix in="SourceAlpha" type="matrix" values="0 0 0 0 0 0 0 0 0 0 0 0 0 0 0 0 0 0 127 0" result="hardAlpha"/>
<feOffset dy="4"/>
<feGaussianBlur stdDeviation="4"/>
<feComposite in2="hardAlpha" operator="out"/>
<feColorMatrix type="matrix" values="0 0 0 0 0 0 0 0 0 0 0 0 0 0 0 0 0 0 0.08 0"/>
<feBlend mode="normal" in2="BackgroundImageFix" result="effect1_dropShadow_443_62152"/>
<feColorMatrix in="SourceAlpha" type="matrix" values="0 0 0 0 0 0 0 0 0 0 0 0 0 0 0 0 0 0 127 0" result="hardAlpha"/>
<feOffset dy="-0.5"/>
<feGaussianBlur stdDeviation="2"/>
<feComposite in2="hardAlpha" operator="out"/>
<feColorMatrix type="matrix" values="0 0 0 0 0 0 0 0 0 0 0 0 0 0 0 0 0 0 0.05 0"/>
<feBlend mode="normal" in2="effect1_dropShadow_443_62152" result="effect2_dropShadow_443_62152"/>
<feBlend mode="normal" in="SourceGraphic" in2="effect2_dropShadow_443_62152" result="shape"/>
</filter>
<filter id="filter3_dd_443_62152" x="224" y="197.5" width="84" height="110.5" filterUnits="userSpaceOnUse" color-interpolation-filters="sRGB">
<feFlood flood-opacity="0" result="BackgroundImageFix"/>
<feColorMatrix in="SourceAlpha" type="matrix" values="0 0 0 0 0 0 0 0 0 0 0 0 0 0 0 0 0 0 127 0" result="hardAlpha"/>
<feOffset dy="4"/>
<feGaussianBlur stdDeviation="4"/>
<feComposite in2="hardAlpha" operator="out"/>
<feColorMatrix type="matrix" values="0 0 0 0 0 0 0 0 0 0 0 0 0 0 0 0 0 0 0.08 0"/>
<feBlend mode="normal" in2="BackgroundImageFix" result="effect1_dropShadow_443_62152"/>
<feColorMatrix in="SourceAlpha" type="matrix" values="0 0 0 0 0 0 0 0 0 0 0 0 0 0 0 0 0 0 127 0" result="hardAlpha"/>
<feOffset dy="-0.5"/>
<feGaussianBlur stdDeviation="2"/>
<feComposite in2="hardAlpha" operator="out"/>
<feColorMatrix type="matrix" values="0 0 0 0 0 0 0 0 0 0 0 0 0 0 0 0 0 0 0.05 0"/>
<feBlend mode="normal" in2="effect1_dropShadow_443_62152" result="effect2_dropShadow_443_62152"/>
<feBlend mode="normal" in="SourceGraphic" in2="effect2_dropShadow_443_62152" result="shape"/>
</filter>
<radialGradient id="paint0_radial_443_62152" cx="0" cy="0" r="1" gradientUnits="userSpaceOnUse" gradientTransform="translate(60.9 178) rotate(100.679) scale(17.8084 19.4725)">
<stop offset="0.055" stop-color="#7A73FF"/>
<stop offset="0.65" stop-color="#67DDFA"/>
<stop offset="1" stop-color="#4AFCF1"/>
</radialGradient>
<radialGradient id="paint1_radial_443_62152" cx="0" cy="0" r="1" gradientUnits="userSpaceOnUse" gradientTransform="translate(60.9 178) rotate(100.679) scale(17.8084 19.4725)">
<stop offset="0.055" stop-color="#7A73FF"/>
<stop offset="0.65" stop-color="#67DDFA"/>
<stop offset="1" stop-color="#4AFCF1"/>
</radialGradient>
<radialGradient id="paint2_radial_443_62152" cx="0" cy="0" r="1" gradientUnits="userSpaceOnUse" gradientTransform="translate(60.5 43) rotate(99.7276) scale(17.7553)">
<stop offset="0.055" stop-color="#7A73FF"/>
<stop offset="0.65" stop-color="#67DDFA"/>
<stop offset="1" stop-color="#4AFCF1"/>
</radialGradient>
<linearGradient id="paint3_linear_443_62152" x1="79.2403" y1="123.382" x2="200.205" y2="166.199" gradientUnits="userSpaceOnUse">
<stop offset="0.338542" stop-color="#7A73FF"/>
<stop offset="0.734375" stop-color="#75CDFF"/>
<stop offset="1" stop-color="#4AFCF1"/>
</linearGradient>
<linearGradient id="paint4_linear_443_62152" x1="203.625" y1="505" x2="68.609" y2="493.353" gradientUnits="userSpaceOnUse">
<stop offset="0.338542" stop-color="#7A73FF"/>
<stop offset="0.734375" stop-color="#75CDFF"/>
<stop offset="1" stop-color="#4AFCF1"/>
</linearGradient>
<radialGradient id="paint5_radial_443_62152" cx="0" cy="0" r="1" gradientUnits="userSpaceOnUse" gradientTransform="translate(154 240) rotate(99.7276) scale(17.7553)">
<stop offset="0.055" stop-color="#7A73FF"/>
<stop offset="0.65" stop-color="#67DDFA"/>
<stop offset="1" stop-color="#4AFCF1"/>
</radialGradient>
<radialGradient id="paint6_radial_443_62152" cx="0" cy="0" r="1" gradientUnits="userSpaceOnUse" gradientTransform="translate(154 240) rotate(99.7276) scale(17.7553)">
<stop offset="0.055" stop-color="#7A73FF"/>
<stop offset="0.65" stop-color="#67DDFA"/>
<stop offset="1" stop-color="#4AFCF1"/>
</radialGradient>
<radialGradient id="paint7_radial_443_62152" cx="0" cy="0" r="1" gradientUnits="userSpaceOnUse" gradientTransform="translate(265.6 240) rotate(98.7708) scale(17.7071 16.0233)">
<stop offset="0.055" stop-color="#7A73FF"/>
<stop offset="0.65" stop-color="#67DDFA"/>
<stop offset="1" stop-color="#4AFCF1"/>
</radialGradient>
<radialGradient id="paint8_radial_443_62152" cx="0" cy="0" r="1" gradientUnits="userSpaceOnUse" gradientTransform="translate(265.6 240) rotate(98.7708) scale(17.7071 16.0233)">
<stop offset="0.055" stop-color="#7A73FF"/>
<stop offset="0.65" stop-color="#67DDFA"/>
<stop offset="1" stop-color="#4AFCF1"/>
</radialGradient>
<radialGradient id="paint9_radial_443_62152" cx="0" cy="0" r="1" gradientUnits="userSpaceOnUse" gradientTransform="translate(265.6 240) rotate(98.7708) scale(17.7071 16.0233)">
<stop offset="0.055" stop-color="#7A73FF"/>
<stop offset="0.65" stop-color="#67DDFA"/>
<stop offset="1" stop-color="#4AFCF1"/>
</radialGradient>
<radialGradient id="paint10_radial_443_62152" cx="0" cy="0" r="1" gradientUnits="userSpaceOnUse" gradientTransform="translate(265.6 240) rotate(98.7708) scale(17.7071 16.0233)">
<stop offset="0.055" stop-color="#7A73FF"/>
<stop offset="0.65" stop-color="#67DDFA"/>
<stop offset="1" stop-color="#4AFCF1"/>
</radialGradient>
<radialGradient id="paint11_radial_443_62152" cx="0" cy="0" r="1" gradientUnits="userSpaceOnUse" gradientTransform="translate(265.6 240) rotate(98.7708) scale(17.7071 16.0233)">
<stop offset="0.055" stop-color="#7A73FF"/>
<stop offset="0.65" stop-color="#67DDFA"/>
<stop offset="1" stop-color="#4AFCF1"/>
</radialGradient>
<radialGradient id="paint12_radial_443_62152" cx="0" cy="0" r="1" gradientUnits="userSpaceOnUse" gradientTransform="translate(265.6 240) rotate(98.7708) scale(17.7071 16.0233)">
<stop offset="0.055" stop-color="#7A73FF"/>
<stop offset="0.65" stop-color="#67DDFA"/>
<stop offset="1" stop-color="#4AFCF1"/>
</radialGradient>
<linearGradient id="paint13_linear_443_62152" x1="164.813" y1="250" x2="165.269" y2="243.234" gradientUnits="userSpaceOnUse">
<stop offset="0.338542" stop-color="#7A73FF"/>
<stop offset="0.734375" stop-color="#75CDFF"/>
<stop offset="1" stop-color="#4AFCF1"/>
</linearGradient>
</defs>
</svg>
