<svg width="340" height="414" viewBox="0 0 340 414" fill="none" xmlns="http://www.w3.org/2000/svg">
<path d="M248 347L205 347" stroke="url(#paint0_linear_493_82850)" stroke-width="2"/>
<path d="M112 68H154C162.837 68 170 75.1635 170 84V300" stroke="url(#paint1_linear_493_82850)" stroke-width="2"/>
<path d="M136 300L136 217C136 208.163 128.837 201 120 201L113 201" stroke="url(#paint2_linear_493_82850)" stroke-width="2"/>
<g filter="url(#filter0_dd_493_82850)">
<rect x="8" y="5" width="131" height="126" rx="12" fill="white"/>
<path d="M86.3229 58.1429L83.6121 55.4286C83.0414 54.8571 82.1853 54.8571 81.6147 55.4286C81.0439 56 81.0439 56.8571 81.6147 57.4286L84.3255 60.1429C84.7535 60.5714 84.7535 61.2857 84.3255 61.7143C83.8975 62.1429 83.1841 62.1429 82.756 61.7143L78.4758 57.4286C78.7611 57.1429 79.0465 57 79.3318 56.7143C81.472 54.5714 82.756 51.5714 82.756 48.5714C82.756 45.4286 81.6146 42.5714 79.3318 40.4286C74.7662 35.8571 67.4898 35.8571 62.9242 40.4286C58.3586 45 58.3586 52.2857 62.9242 56.8571C65.0643 59 68.0605 60.2857 71.0567 60.2857C72.7688 60.2857 74.4809 59.8571 75.9076 59.1429L80.6159 63.8571C81.3293 64.5714 82.4707 65 83.4694 65C84.4682 65 85.4669 64.5714 86.3229 63.8571C87.8924 62.1429 87.8924 59.5714 86.3229 58.1429ZM64.9217 54.5714C61.4975 51.1429 61.4975 45.5714 64.9217 42.2857C66.6338 40.5714 68.7739 39.7143 71.0567 39.7143C73.3395 39.7143 75.4796 40.5714 77.1917 42.2857C78.9038 44 79.7599 46.1429 79.7599 48.4286C79.7599 50.7143 78.9038 53 77.1917 54.5714C75.4796 56.1429 73.3395 57.1429 71.0567 57.1429C68.7739 57.1429 66.4911 56.2857 64.9217 54.5714Z" fill="url(#paint3_radial_493_82850)"/>
<path d="M33.3528 88V76.625H41.8606V88H40.3919V77.8359H34.8294V88H33.3528ZM44.1572 84.0391V83.7891C44.1572 82.5547 44.5061 81.5495 45.2041 80.7734C45.902 79.9922 46.8343 79.6016 48.0009 79.6016C49.1676 79.6016 50.0999 79.9922 50.7978 80.7734C51.4957 81.5495 51.8447 82.5547 51.8447 83.7891V84.0391C51.8447 85.2734 51.4957 86.2812 50.7978 87.0625C50.0999 87.8438 49.1676 88.2344 48.0009 88.2344C46.8343 88.2344 45.902 87.8438 45.2041 87.0625C44.5061 86.2812 44.1572 85.2734 44.1572 84.0391ZM45.6103 83.7891V84.0391C45.6103 84.888 45.8108 85.6042 46.2119 86.1875C46.6129 86.7708 47.2093 87.0625 48.0009 87.0625C48.7926 87.0625 49.3864 86.7708 49.7822 86.1875C50.1832 85.6042 50.3838 84.888 50.3838 84.0391V83.7891C50.3838 82.9401 50.1832 82.224 49.7822 81.6406C49.3864 81.0573 48.7926 80.7656 48.0009 80.7656C47.2093 80.7656 46.6129 81.0573 46.2119 81.6406C45.8108 82.224 45.6103 82.9401 45.6103 83.7891ZM53.9694 88V79.8281H55.3678V84.9062C55.3678 85.0625 55.3652 85.237 55.36 85.4297C55.36 85.6172 55.3574 85.7917 55.3522 85.9531H55.4303C55.5032 85.8177 55.584 85.6745 55.6725 85.5234C55.761 85.3724 55.8574 85.2161 55.9616 85.0547L59.2116 79.8281H60.6413V88H59.235V82.9375C59.235 82.776 59.2376 82.5938 59.2428 82.3906C59.2532 82.1875 59.2636 82.0052 59.2741 81.8438H59.1569C59.0944 81.9792 59.0189 82.1302 58.9303 82.2969C58.8418 82.4583 58.748 82.6198 58.6491 82.7812L55.3991 88H53.9694ZM62.7659 84.0391V83.7891C62.7659 82.5547 63.0993 81.5495 63.7659 80.7734C64.4378 79.9922 65.3571 79.6016 66.5238 79.6016C67.6123 79.6016 68.4378 79.8932 69.0003 80.4766C69.5628 81.0599 69.8441 81.7188 69.8441 82.4531V82.4922H68.4613V82.4531C68.4613 82.0052 68.3076 81.612 68.0003 81.2734C67.693 80.9349 67.2034 80.7656 66.5316 80.7656C65.7399 80.7656 65.1566 81.0573 64.7816 81.6406C64.4066 82.2188 64.2191 82.9349 64.2191 83.7891V84.0391C64.2191 84.888 64.4066 85.6042 64.7816 86.1875C65.1566 86.7708 65.7373 87.0625 66.5238 87.0625C67.2008 87.0625 67.693 86.8932 68.0003 86.5547C68.3076 86.2161 68.4613 85.8229 68.4613 85.375V85.3359H69.8441V85.375C69.8441 86.1042 69.5628 86.763 69.0003 87.3516C68.4378 87.9401 67.6123 88.2344 66.5238 88.2344C65.3571 88.2344 64.4378 87.8438 63.7659 87.0625C63.0993 86.2812 62.7659 85.2734 62.7659 84.0391ZM77.1172 88L73.8672 84.2969L74.75 83.3281L78.8672 88H77.1172ZM72.5547 83.2656H73.9375L76.9219 79.8281H78.5938L74.6094 84.3828H72.5547V83.2656ZM73.2656 79.8281V88H71.8438V79.8281H73.2656ZM79.7341 84.0391V83.7891C79.7341 82.5547 80.083 81.5495 80.7809 80.7734C81.4789 79.9922 82.4111 79.6016 83.5778 79.6016C84.7445 79.6016 85.6768 79.9922 86.3747 80.7734C87.0726 81.5495 87.4216 82.5547 87.4216 83.7891V84.0391C87.4216 85.2734 87.0726 86.2812 86.3747 87.0625C85.6768 87.8438 84.7445 88.2344 83.5778 88.2344C82.4111 88.2344 81.4789 87.8438 80.7809 87.0625C80.083 86.2812 79.7341 85.2734 79.7341 84.0391ZM81.1872 83.7891V84.0391C81.1872 84.888 81.3877 85.6042 81.7887 86.1875C82.1898 86.7708 82.7861 87.0625 83.5778 87.0625C84.3695 87.0625 84.9632 86.7708 85.3591 86.1875C85.7601 85.6042 85.9606 84.888 85.9606 84.0391V83.7891C85.9606 82.9401 85.7601 82.224 85.3591 81.6406C84.9632 81.0573 84.3695 80.7656 83.5778 80.7656C82.7861 80.7656 82.1898 81.0573 81.7887 81.6406C81.3877 82.224 81.1872 82.9401 81.1872 83.7891ZM89.5462 88V79.8281H93.0619C93.9629 79.8281 94.6712 80.0104 95.1869 80.375C95.7077 80.7344 95.9681 81.2786 95.9681 82.0078C95.9681 82.4714 95.8301 82.8568 95.5541 83.1641C95.278 83.4714 94.9108 83.6745 94.4525 83.7734V83.7969C95.015 83.8802 95.4551 84.0833 95.7728 84.4062C96.0957 84.724 96.2572 85.1328 96.2572 85.6328C96.2572 86.3776 95.9864 86.9583 95.4447 87.375C94.9082 87.7917 94.1921 88 93.2962 88H89.5462ZM90.9681 83.2891H93.0619C93.5827 83.2891 93.9577 83.1823 94.1869 82.9688C94.416 82.75 94.5306 82.4557 94.5306 82.0859C94.5306 81.7214 94.416 81.4401 94.1869 81.2422C93.9577 81.0443 93.5827 80.9453 93.0619 80.9453H90.9681V83.2891ZM90.9681 86.8828H93.2962C93.8223 86.8828 94.2077 86.7682 94.4525 86.5391C94.7025 86.3099 94.8275 86.0052 94.8275 85.625C94.8275 85.2552 94.7051 84.9583 94.4603 84.7344C94.2155 84.5104 93.8275 84.3984 93.2962 84.3984H90.9681V86.8828ZM98.1319 85.5938C98.1319 84.7708 98.4574 84.1276 99.1084 83.6641C99.7647 83.2005 100.601 82.9688 101.616 82.9688H103.476V82.3984C103.476 81.9036 103.348 81.5026 103.093 81.1953C102.838 80.888 102.397 80.7344 101.772 80.7344C101.147 80.7344 100.7 80.8646 100.429 81.125C100.163 81.3802 100.03 81.6771 100.03 82.0156V82.0625H98.6084V82.0156C98.6084 81.3698 98.8949 80.8073 99.4678 80.3281C100.046 79.8438 100.827 79.6016 101.812 79.6016C102.791 79.6016 103.549 79.8359 104.085 80.3047C104.627 80.7682 104.897 81.4661 104.897 82.3984V86.125C104.897 86.4635 104.924 86.7839 104.976 87.0859C105.028 87.3828 105.101 87.6458 105.194 87.875V88H103.819C103.746 87.8698 103.679 87.7005 103.616 87.4922C103.559 87.2839 103.522 87.0755 103.507 86.8672C103.314 87.2057 103.002 87.5052 102.569 87.7656C102.142 88.026 101.593 88.1562 100.921 88.1562C100.14 88.1562 99.4782 87.9375 98.9366 87.5C98.4001 87.0573 98.1319 86.4219 98.1319 85.5938ZM99.5537 85.5234C99.5537 85.9922 99.6892 86.3594 99.96 86.625C100.231 86.8854 100.653 87.0156 101.226 87.0156C101.799 87.0156 102.317 86.8177 102.78 86.4219C103.244 86.026 103.476 85.6068 103.476 85.1641V83.9922H101.772C101.043 83.9922 100.491 84.1302 100.116 84.4062C99.7412 84.6823 99.5537 85.0547 99.5537 85.5234ZM108.538 88H106.967L109.491 84.4766L110.913 84.6016L108.538 88ZM112.382 88V85.0078H110.483L110.342 84.9219C109.348 84.9219 108.579 84.6979 108.038 84.25C107.501 83.8021 107.233 83.1979 107.233 82.4375C107.233 81.6458 107.501 81.013 108.038 80.5391C108.579 80.0651 109.348 79.8281 110.342 79.8281H113.803V88H112.382ZM110.342 83.8906H112.382V80.9453H110.342C109.723 80.9453 109.285 81.0859 109.03 81.3672C108.78 81.6484 108.655 82.0052 108.655 82.4375C108.655 82.8646 108.78 83.2135 109.03 83.4844C109.28 83.7552 109.717 83.8906 110.342 83.8906ZM46.6453 104V95.8281H50.1609C51.062 95.8281 51.7703 96.0104 52.2859 96.375C52.8068 96.7344 53.0672 97.2786 53.0672 98.0078C53.0672 98.4714 52.9292 98.8568 52.6531 99.1641C52.3771 99.4714 52.0099 99.6745 51.5516 99.7734V99.7969C52.1141 99.8802 52.5542 100.083 52.8719 100.406C53.1948 100.724 53.3563 101.133 53.3563 101.633C53.3563 102.378 53.0854 102.958 52.5438 103.375C52.0073 103.792 51.2911 104 50.3953 104H46.6453ZM48.0672 99.2891H50.1609C50.6818 99.2891 51.0568 99.1823 51.2859 98.9688C51.5151 98.75 51.6297 98.4557 51.6297 98.0859C51.6297 97.7214 51.5151 97.4401 51.2859 97.2422C51.0568 97.0443 50.6818 96.9453 50.1609 96.9453H48.0672V99.2891ZM48.0672 102.883H50.3953C50.9214 102.883 51.3068 102.768 51.5516 102.539C51.8016 102.31 51.9266 102.005 51.9266 101.625C51.9266 101.255 51.8042 100.958 51.5594 100.734C51.3146 100.51 50.9266 100.398 50.3953 100.398H48.0672V102.883ZM57.1059 95.8281V98.6328H58.9966C60.0174 98.6328 60.8039 98.8724 61.3559 99.3516C61.908 99.8307 62.1841 100.479 62.1841 101.297C62.1841 102.115 61.908 102.771 61.3559 103.266C60.8039 103.755 60.0174 104 58.9966 104H55.6841V95.8281H57.1059ZM58.9966 99.75H57.1059V102.883H58.9966C59.6424 102.883 60.0955 102.734 60.3559 102.438C60.6216 102.135 60.7544 101.755 60.7544 101.297C60.7544 100.844 60.6216 100.474 60.3559 100.188C60.0955 99.8958 59.6424 99.75 58.9966 99.75ZM63.2778 104V95.8281H64.6997V104H63.2778ZM73.4884 106.102V104H67.5353V106.102H66.2463V102.883H74.7775V106.102H73.4884ZM69.1291 96.9453L68.9963 100.055C68.965 100.841 68.9129 101.451 68.84 101.883C68.7671 102.315 68.6629 102.695 68.5275 103.023H67.0275C67.1942 102.794 67.3348 102.448 67.4494 101.984C67.5692 101.521 67.6499 100.807 67.6916 99.8438L67.8634 95.8281H73.5744V104H72.1447V96.9453H69.1291ZM75.9491 101.594C75.9491 100.771 76.2746 100.128 76.9256 99.6641C77.5819 99.2005 78.4178 98.9688 79.4334 98.9688H81.2928V98.3984C81.2928 97.9036 81.1652 97.5026 80.91 97.1953C80.6548 96.888 80.2147 96.7344 79.5897 96.7344C78.9647 96.7344 78.5168 96.8646 78.2459 97.125C77.9803 97.3802 77.8475 97.6771 77.8475 98.0156V98.0625H76.4256V98.0156C76.4256 97.3698 76.7121 96.8073 77.285 96.3281C77.8631 95.8438 78.6444 95.6016 79.6287 95.6016C80.6079 95.6016 81.3657 95.8359 81.9022 96.3047C82.4439 96.7682 82.7147 97.4661 82.7147 98.3984V102.125C82.7147 102.464 82.7407 102.784 82.7928 103.086C82.8449 103.383 82.9178 103.646 83.0116 103.875V104H81.6366C81.5636 103.87 81.4959 103.701 81.4334 103.492C81.3761 103.284 81.3397 103.076 81.3241 102.867C81.1314 103.206 80.8189 103.505 80.3866 103.766C79.9595 104.026 79.41 104.156 78.7381 104.156C77.9569 104.156 77.2954 103.938 76.7537 103.5C76.2173 103.057 75.9491 102.422 75.9491 101.594ZM77.3709 101.523C77.3709 101.992 77.5064 102.359 77.7772 102.625C78.048 102.885 78.4699 103.016 79.0428 103.016C79.6157 103.016 80.134 102.818 80.5975 102.422C81.061 102.026 81.2928 101.607 81.2928 101.164V99.9922H79.5897C78.8605 99.9922 78.3084 100.13 77.9334 100.406C77.5584 100.682 77.3709 101.055 77.3709 101.523ZM86.5269 97.9922C86.5269 98.6745 86.6571 99.1484 86.9175 99.4141C87.1779 99.6745 87.6258 99.8047 88.2612 99.8047C88.73 99.8047 89.1493 99.7708 89.5191 99.7031C89.8941 99.6354 90.3055 99.5443 90.7534 99.4297V100.555C90.3211 100.648 89.9123 100.734 89.5269 100.812C89.1467 100.885 88.6336 100.922 87.9878 100.922C86.9826 100.922 86.2508 100.68 85.7925 100.195C85.3342 99.7109 85.105 98.9766 85.105 97.9922V95.8281H86.5269V97.9922ZM91.4722 95.8281V104H90.0425V95.8281H91.4722ZM93.6359 101.594C93.6359 100.771 93.9615 100.128 94.6125 99.6641C95.2687 99.2005 96.1047 98.9688 97.1203 98.9688H98.9797V98.3984C98.9797 97.9036 98.8521 97.5026 98.5969 97.1953C98.3417 96.888 97.9016 96.7344 97.2766 96.7344C96.6516 96.7344 96.2036 96.8646 95.9328 97.125C95.6672 97.3802 95.5344 97.6771 95.5344 98.0156V98.0625H94.1125V98.0156C94.1125 97.3698 94.399 96.8073 94.9719 96.3281C95.55 95.8438 96.3312 95.6016 97.3156 95.6016C98.2948 95.6016 99.0526 95.8359 99.5891 96.3047C100.131 96.7682 100.402 97.4661 100.402 98.3984V102.125C100.402 102.464 100.428 102.784 100.48 103.086C100.532 103.383 100.605 103.646 100.698 103.875V104H99.3234C99.2505 103.87 99.1828 103.701 99.1203 103.492C99.063 103.284 99.0266 103.076 99.0109 102.867C98.8182 103.206 98.5057 103.505 98.0734 103.766C97.6464 104.026 97.0969 104.156 96.425 104.156C95.6437 104.156 94.9823 103.938 94.4406 103.5C93.9042 103.057 93.6359 102.422 93.6359 101.594ZM95.0578 101.523C95.0578 101.992 95.1932 102.359 95.4641 102.625C95.7349 102.885 96.1568 103.016 96.7297 103.016C97.3026 103.016 97.8208 102.818 98.2844 102.422C98.7479 102.026 98.9797 101.607 98.9797 101.164V99.9922H97.2766C96.5474 99.9922 95.9953 100.13 95.6203 100.406C95.2453 100.682 95.0578 101.055 95.0578 101.523Z" fill="#04101C"/>
</g>
<g filter="url(#filter1_dd_493_82850)">
<rect x="9" y="149" width="130" height="110" rx="12" fill="white"/>
<path d="M78.8 202.14C78.8 201.3 78.24 200.74 77.4 200.74H63.26C62.14 200.74 61.3 199.9 61.3 198.78V191.22C61.3 190.1 62.14 189.26 63.26 189.26H77.4C78.24 189.26 78.8 188.7 78.8 187.86C78.8 187.02 78.24 186.46 77.4 186.46H63.26C60.6 186.46 58.5 188.56 58.5 191.22V198.78C58.5 201.44 60.6 203.54 63.26 203.54H77.4C78.1 203.54 78.8 202.98 78.8 202.14Z" fill="url(#paint4_radial_493_82850)"/>
<path d="M84.54 186.46H83.28V183.8H85.38C86.22 183.8 86.78 183.24 86.78 182.4C86.78 181.56 86.22 181 85.38 181H78.52C77.68 181 77.12 181.56 77.12 182.4C77.12 183.24 77.68 183.8 78.52 183.8H80.62V206.2H78.52C77.68 206.2 77.12 206.76 77.12 207.6C77.12 208.44 77.68 209 78.52 209H85.38C86.22 209 86.78 208.44 86.78 207.6C86.78 206.76 86.22 206.2 85.38 206.2H83.28V203.54H84.54C87.2 203.54 89.3 201.44 89.3 198.78V191.22C89.3 188.56 87.2 186.46 84.54 186.46ZM86.5 198.78C86.5 199.9 85.66 200.74 84.54 200.74H83.28V189.26H84.54C85.66 189.26 86.5 190.1 86.5 191.22V198.78Z" fill="url(#paint5_radial_493_82850)"/>
<path d="M34.3841 232V220.625H42.8919V232H41.4231V221.836H35.8606V232H34.3841ZM45.1884 228.039V227.789C45.1884 226.555 45.5374 225.549 46.2353 224.773C46.9332 223.992 47.8655 223.602 49.0322 223.602C50.1989 223.602 51.1311 223.992 51.8291 224.773C52.527 225.549 52.8759 226.555 52.8759 227.789V228.039C52.8759 229.273 52.527 230.281 51.8291 231.062C51.1311 231.844 50.1989 232.234 49.0322 232.234C47.8655 232.234 46.9332 231.844 46.2353 231.062C45.5374 230.281 45.1884 229.273 45.1884 228.039ZM46.6416 227.789V228.039C46.6416 228.888 46.8421 229.604 47.2431 230.188C47.6442 230.771 48.2405 231.062 49.0322 231.062C49.8239 231.062 50.4176 230.771 50.8134 230.188C51.2145 229.604 51.415 228.888 51.415 228.039V227.789C51.415 226.94 51.2145 226.224 50.8134 225.641C50.4176 225.057 49.8239 224.766 49.0322 224.766C48.2405 224.766 47.6442 225.057 47.2431 225.641C46.8421 226.224 46.6416 226.94 46.6416 227.789ZM61.1725 234.102V232H55.2194V234.102H53.9303V230.883H62.4616V234.102H61.1725ZM56.8131 224.945L56.6803 228.055C56.6491 228.841 56.597 229.451 56.5241 229.883C56.4511 230.315 56.347 230.695 56.2116 231.023H54.7116C54.8782 230.794 55.0189 230.448 55.1334 229.984C55.2532 229.521 55.334 228.807 55.3756 227.844L55.5475 223.828H61.2584V232H59.8288V224.945H56.8131ZM63.5941 228.039V227.789C63.5941 226.555 63.9274 225.549 64.5941 224.773C65.2659 223.992 66.1852 223.602 67.3519 223.602C68.4404 223.602 69.2659 223.893 69.8284 224.477C70.3909 225.06 70.6722 225.719 70.6722 226.453V226.492H69.2894V226.453C69.2894 226.005 69.1357 225.612 68.8284 225.273C68.5211 224.935 68.0316 224.766 67.3597 224.766C66.568 224.766 65.9847 225.057 65.6097 225.641C65.2347 226.219 65.0472 226.935 65.0472 227.789V228.039C65.0472 228.888 65.2347 229.604 65.6097 230.188C65.9847 230.771 66.5654 231.062 67.3519 231.062C68.029 231.062 68.5211 230.893 68.8284 230.555C69.1357 230.216 69.2894 229.823 69.2894 229.375V229.336H70.6722V229.375C70.6722 230.104 70.3909 230.763 69.8284 231.352C69.2659 231.94 68.4404 232.234 67.3519 232.234C66.1852 232.234 65.2659 231.844 64.5941 231.062C63.9274 230.281 63.5941 229.273 63.5941 228.039ZM77.9453 232L74.6953 228.297L75.5781 227.328L79.6953 232H77.9453ZM73.3828 227.266H74.7656L77.75 223.828H79.4219L75.4375 228.383H73.3828V227.266ZM74.0938 223.828V232H72.6719V223.828H74.0938ZM80.6012 229.594C80.6012 228.771 80.9268 228.128 81.5778 227.664C82.2341 227.201 83.07 226.969 84.0856 226.969H85.945V226.398C85.945 225.904 85.8174 225.503 85.5622 225.195C85.307 224.888 84.8669 224.734 84.2419 224.734C83.6169 224.734 83.169 224.865 82.8981 225.125C82.6325 225.38 82.4997 225.677 82.4997 226.016V226.062H81.0778V226.016C81.0778 225.37 81.3643 224.807 81.9372 224.328C82.5153 223.844 83.2966 223.602 84.2809 223.602C85.2601 223.602 86.0179 223.836 86.5544 224.305C87.096 224.768 87.3669 225.466 87.3669 226.398V230.125C87.3669 230.464 87.3929 230.784 87.445 231.086C87.4971 231.383 87.57 231.646 87.6637 231.875V232H86.2887C86.2158 231.87 86.1481 231.701 86.0856 231.492C86.0283 231.284 85.9919 231.076 85.9762 230.867C85.7835 231.206 85.471 231.505 85.0387 231.766C84.6117 232.026 84.0622 232.156 83.3903 232.156C82.6091 232.156 81.9476 231.938 81.4059 231.5C80.8695 231.057 80.6012 230.422 80.6012 229.594ZM82.0231 229.523C82.0231 229.992 82.1585 230.359 82.4294 230.625C82.7002 230.885 83.1221 231.016 83.695 231.016C84.2679 231.016 84.7861 230.818 85.2497 230.422C85.7132 230.026 85.945 229.607 85.945 229.164V227.992H84.2419C83.5127 227.992 82.9606 228.13 82.5856 228.406C82.2106 228.682 82.0231 229.055 82.0231 229.523ZM92.9369 232.234C91.7494 232.234 90.8718 231.943 90.3041 231.359C89.7416 230.771 89.4603 230.109 89.4603 229.375V229.336H90.8431V229.375C90.8431 229.807 90.9994 230.198 91.3119 230.547C91.6244 230.891 92.1686 231.062 92.9447 231.062C93.5853 231.062 94.0827 230.932 94.4369 230.672C94.791 230.411 94.9681 230.055 94.9681 229.602C94.9681 229.237 94.8457 228.945 94.6009 228.727C94.3561 228.508 93.9655 228.398 93.4291 228.398H91.9994V227.289H93.1947C93.7364 227.289 94.1244 227.182 94.3587 226.969C94.5931 226.75 94.7103 226.456 94.7103 226.086C94.7103 225.664 94.5619 225.339 94.265 225.109C93.9733 224.88 93.5619 224.766 93.0306 224.766C92.364 224.766 91.8587 224.924 91.515 225.242C91.1765 225.555 91.0072 225.956 91.0072 226.445V226.492H89.6244V226.445C89.6244 225.581 89.9212 224.891 90.515 224.375C91.114 223.859 91.9525 223.602 93.0306 223.602C94.0619 223.602 94.8379 223.815 95.3587 224.242C95.8848 224.669 96.1478 225.247 96.1478 225.977C96.1478 226.393 96.0072 226.773 95.7259 227.117C95.4499 227.456 95.0749 227.674 94.6009 227.773V227.797C95.1634 227.88 95.6035 228.078 95.9212 228.391C96.2442 228.703 96.4056 229.109 96.4056 229.609C96.4056 230.453 96.0749 231.102 95.4134 231.555C94.7572 232.008 93.9317 232.234 92.9369 232.234ZM103.999 232L100.749 228.297L101.632 227.328L105.749 232H103.999ZM99.4366 227.266H100.819L103.804 223.828H105.476L101.491 228.383H99.4366V227.266ZM100.147 223.828V232H98.7256V223.828H100.147ZM107.108 232V223.828H108.507V228.906C108.507 229.062 108.504 229.237 108.499 229.43C108.499 229.617 108.496 229.792 108.491 229.953H108.569C108.642 229.818 108.723 229.674 108.811 229.523C108.9 229.372 108.996 229.216 109.1 229.055L112.35 223.828H113.78V232H112.374V226.938C112.374 226.776 112.376 226.594 112.382 226.391C112.392 226.188 112.402 226.005 112.413 225.844H112.296C112.233 225.979 112.158 226.13 112.069 226.297C111.981 226.458 111.887 226.62 111.788 226.781L108.538 232H107.108Z" fill="#04101C"/>
</g>
<g filter="url(#filter2_dd_493_82850)">
<rect x="248" y="292" width="84" height="110" rx="12" fill="white"/>
<path d="M300.965 346.6H298C297.506 344.8 295.9 343.6 293.924 343.6C291.576 343.6 289.6 345.52 289.6 347.8C289.6 350.08 291.576 352 293.924 352C295.9 352 297.506 350.8 298 349H300.965C301.706 349 302.2 348.4 302.2 347.8C302.2 347.08 301.706 346.6 300.965 346.6ZM293.924 349.6C292.935 349.6 292.071 348.76 292.071 347.8C292.071 346.84 292.935 346 293.924 346C294.912 346 295.776 346.84 295.776 347.8C295.776 348.76 294.912 349.6 293.924 349.6Z" fill="url(#paint6_radial_493_82850)"/>
<path d="M287.009 346.4H278.191C277.477 346.4 277 347.1 277 347.8C277 348.64 277.596 349.2 278.191 349.2H287.009C287.723 349.2 288.2 348.5 288.2 347.8C288.2 346.96 287.604 346.4 287.009 346.4Z" fill="url(#paint7_radial_493_82850)"/>
<path d="M278.191 329.6H287.009C287.723 329.6 288.2 328.9 288.2 328.2C288.2 327.5 287.604 326.8 287.009 326.8H278.191C277.477 326.8 277 327.5 277 328.2C277 328.9 277.596 329.6 278.191 329.6Z" fill="url(#paint8_radial_493_82850)"/>
<path d="M293.924 332.4C295.9 332.4 297.506 331.2 298 329.4H300.965C301.706 329.4 302.2 328.8 302.2 328.2C302.2 327.6 301.582 327 300.965 327H298C297.506 325.2 295.9 324 293.924 324C291.576 324 289.6 325.92 289.6 328.2C289.6 330.48 291.576 332.4 293.924 332.4ZM293.924 326.4C294.912 326.4 295.776 327.24 295.776 328.2C295.776 329.16 294.912 330 293.924 330C292.935 330 292.071 329.16 292.071 328.2C292.071 327.24 292.935 326.4 293.924 326.4Z" fill="url(#paint9_radial_493_82850)"/>
<path d="M278.235 339.2H281.2C281.694 340.88 283.3 342.2 285.276 342.2C287.624 342.2 289.6 340.28 289.6 338C289.6 335.72 287.624 333.8 285.276 333.8C283.3 333.8 281.694 335 281.2 336.8H278.235C277.494 336.8 277 337.4 277 338C277 338.6 277.618 339.2 278.235 339.2ZM285.276 336.2C286.265 336.2 287.129 337.04 287.129 338C287.129 338.96 286.265 339.8 285.276 339.8C284.288 339.8 283.424 338.96 283.424 338C283.424 337.04 284.288 336.2 285.276 336.2Z" fill="url(#paint10_radial_493_82850)"/>
<path d="M300.996 336.6H292.204C291.482 336.6 291 337.3 291 338C291 338.7 291.602 339.4 292.204 339.4H300.996C301.718 339.4 302.2 338.7 302.2 338C302.2 337.3 301.718 336.6 300.996 336.6Z" fill="url(#paint11_radial_493_82850)"/>
<path d="M273.133 369.672V368.953C273.133 367.193 273.578 365.826 274.469 364.852C275.36 363.878 276.503 363.391 277.899 363.391C279.295 363.391 280.438 363.878 281.328 364.852C282.219 365.826 282.664 367.193 282.664 368.953V369.672C282.664 371.432 282.219 372.799 281.328 373.773C280.438 374.747 279.295 375.234 277.899 375.234C276.503 375.234 275.36 374.747 274.469 373.773C273.578 372.799 273.133 371.432 273.133 369.672ZM274.618 369.672C274.618 371.021 274.917 372.076 275.516 372.836C276.115 373.591 276.909 373.969 277.899 373.969C278.883 373.969 279.675 373.591 280.274 372.836C280.873 372.076 281.172 371.021 281.172 369.672V368.953C281.172 367.604 280.873 366.552 280.274 365.797C279.675 365.036 278.883 364.656 277.899 364.656C276.909 364.656 276.115 365.036 275.516 365.797C274.917 366.552 274.618 367.604 274.618 368.953V369.672ZM285.188 375V363.625H288.852C290.065 363.625 290.997 363.93 291.648 364.539C292.305 365.148 292.633 365.956 292.633 366.961C292.633 367.971 292.305 368.789 291.648 369.414C290.997 370.039 290.065 370.352 288.852 370.352H286.664V375H285.188ZM286.664 369.148H288.852C289.716 369.148 290.318 368.938 290.656 368.516C290.995 368.089 291.164 367.57 291.164 366.961C291.164 366.352 290.995 365.844 290.656 365.438C290.318 365.026 289.716 364.82 288.852 364.82H286.664V369.148ZM291.594 375L288.812 369.75L290.273 369.531L293.234 375H291.594ZM295.179 375V363.625H297.086L300.453 372.211C300.515 372.372 300.573 372.539 300.625 372.711C300.682 372.878 300.731 373.039 300.773 373.195H300.836C300.877 373.039 300.924 372.878 300.976 372.711C301.034 372.539 301.093 372.372 301.156 372.211L304.531 363.625H306.429V375H305.007V366.758C305.007 366.602 305.01 366.427 305.015 366.234C305.021 366.036 305.034 365.859 305.054 365.703H304.992C304.961 365.859 304.914 366.036 304.851 366.234C304.789 366.427 304.726 366.602 304.664 366.758L301.429 375H300.156L296.922 366.758C296.859 366.602 296.794 366.424 296.726 366.227C296.664 366.029 296.619 365.854 296.593 365.703H296.531C296.552 365.854 296.565 366.029 296.57 366.227C296.575 366.424 296.578 366.602 296.578 366.758V375H295.179Z" fill="#04101C"/>
</g>
<g filter="url(#filter3_dd_493_82850)">
<rect x="111" y="292" width="91" height="110" rx="12" fill="white"/>
<path d="M169.354 325.617C167.53 323.793 164.443 323.512 160.795 324.775C159.532 325.196 158.27 325.898 157.007 326.599C151.956 323.652 147.186 323.091 144.66 325.617C141.995 328.143 142.696 332.914 145.642 337.967C142.556 343.159 142.135 347.93 144.66 350.316C145.642 351.439 147.186 352 149.01 352C151.395 352 154.201 351.018 157.007 349.334C159.813 351.018 162.619 352 165.004 352C166.828 352 168.231 351.439 169.354 350.456C171.879 347.93 171.318 343.159 168.372 338.107C171.458 332.774 171.879 328.003 169.354 325.617ZM161.637 327.441C164.303 326.459 166.267 326.599 167.389 327.582C168.652 328.845 168.372 331.932 166.688 335.3C165.706 334.037 164.724 332.774 163.461 331.511C162.198 330.248 160.936 329.266 159.673 328.283C160.374 328.003 161.076 327.582 161.637 327.441ZM146.625 348.351C145.362 347.088 145.642 344.001 147.326 340.633C148.308 341.896 149.29 343.159 150.553 344.422C151.816 345.685 153.079 346.808 154.341 347.65C150.834 349.474 147.887 349.614 146.625 348.351ZM167.389 348.351C166.127 349.614 163.18 349.334 159.532 347.65C160.795 346.667 162.058 345.545 163.321 344.422C163.882 343.861 164.443 343.299 164.864 342.738C165.425 342.177 165.285 341.335 164.724 340.773C164.162 340.212 163.321 340.352 162.759 340.914C162.339 341.475 161.777 341.896 161.356 342.457C159.953 343.861 158.41 345.124 157.007 346.106C155.604 345.124 154.061 343.861 152.658 342.457C146.484 336.282 144.52 329.687 146.625 327.582C147.046 327.02 147.887 326.74 149.01 326.74C150.413 326.74 152.377 327.301 154.341 328.283C153.079 329.266 151.816 330.388 150.553 331.511C149.992 332.213 149.29 332.914 148.729 333.616C148.168 334.177 148.308 335.019 148.869 335.581C149.431 336.142 150.413 336.002 150.834 335.44C151.395 334.739 151.956 334.177 152.517 333.616C153.92 332.213 155.464 330.95 156.867 329.967C158.27 330.95 159.813 332.213 161.356 333.616C167.53 339.651 169.494 346.246 167.389 348.351Z" fill="url(#paint12_radial_493_82850)"/>
<path d="M157 340.24C158.237 340.24 159.24 339.237 159.24 338C159.24 336.763 158.237 335.76 157 335.76C155.763 335.76 154.76 336.763 154.76 338C154.76 339.237 155.763 340.24 157 340.24Z" fill="url(#paint13_radial_493_82850)"/>
<path d="M135.708 371.891V371.781H137.176V371.891C137.176 372.589 137.408 373.112 137.872 373.461C138.335 373.805 138.981 373.977 139.809 373.977C140.642 373.977 141.278 373.799 141.715 373.445C142.158 373.086 142.379 372.617 142.379 372.039C142.379 371.513 142.166 371.094 141.739 370.781C141.317 370.464 140.512 370.133 139.325 369.789C138.101 369.43 137.231 369.01 136.715 368.531C136.2 368.052 135.942 367.367 135.942 366.477C135.942 365.596 136.275 364.862 136.942 364.273C137.614 363.685 138.546 363.391 139.739 363.391C140.921 363.391 141.864 363.701 142.567 364.32C143.27 364.935 143.622 365.721 143.622 366.68V366.789H142.153V366.68C142.153 366.07 141.95 365.581 141.543 365.211C141.137 364.836 140.536 364.648 139.739 364.648C138.937 364.648 138.346 364.81 137.965 365.133C137.585 365.451 137.395 365.885 137.395 366.438C137.395 366.938 137.59 367.333 137.981 367.625C138.372 367.911 139.171 368.229 140.379 368.578C141.588 368.922 142.465 369.352 143.012 369.867C143.564 370.383 143.84 371.107 143.84 372.039C143.84 372.971 143.478 373.737 142.754 374.336C142.03 374.935 141.049 375.234 139.809 375.234C138.569 375.234 137.575 374.938 136.825 374.344C136.08 373.745 135.708 372.927 135.708 371.891ZM146.106 375V363.625H153.184V364.836H147.582V368.523H152.465V369.742H147.582V373.789H153.262V375H146.106ZM155.426 375V363.625H159.09C160.303 363.625 161.236 363.93 161.887 364.539C162.543 365.148 162.871 365.956 162.871 366.961C162.871 367.971 162.543 368.789 161.887 369.414C161.236 370.039 160.303 370.352 159.09 370.352H156.902V375H155.426ZM156.902 369.148H159.09C159.954 369.148 160.556 368.938 160.894 368.516C161.233 368.089 161.402 367.57 161.402 366.961C161.402 366.352 161.233 365.844 160.894 365.438C160.556 365.026 159.954 364.82 159.09 364.82H156.902V369.148ZM161.832 375L159.051 369.75L160.512 369.531L163.472 375H161.832ZM165.417 375V363.625H167.324L170.691 372.211C170.753 372.372 170.811 372.539 170.863 372.711C170.92 372.878 170.97 373.039 171.011 373.195H171.074C171.115 373.039 171.162 372.878 171.214 372.711C171.272 372.539 171.332 372.372 171.394 372.211L174.769 363.625H176.667V375H175.246V366.758C175.246 366.602 175.248 366.427 175.253 366.234C175.259 366.036 175.272 365.859 175.292 365.703H175.23C175.199 365.859 175.152 366.036 175.089 366.234C175.027 366.427 174.964 366.602 174.902 366.758L171.667 375H170.394L167.16 366.758C167.097 366.602 167.032 366.424 166.964 366.227C166.902 366.029 166.858 365.854 166.832 365.703H166.769C166.79 365.854 166.803 366.029 166.808 366.227C166.813 366.424 166.816 366.602 166.816 366.758V375H165.417Z" fill="#04101C"/>
</g>
<defs>
<filter id="filter0_dd_493_82850" x="0" y="0.5" width="147" height="142.5" filterUnits="userSpaceOnUse" color-interpolation-filters="sRGB">
<feFlood flood-opacity="0" result="BackgroundImageFix"/>
<feColorMatrix in="SourceAlpha" type="matrix" values="0 0 0 0 0 0 0 0 0 0 0 0 0 0 0 0 0 0 127 0" result="hardAlpha"/>
<feOffset dy="4"/>
<feGaussianBlur stdDeviation="4"/>
<feComposite in2="hardAlpha" operator="out"/>
<feColorMatrix type="matrix" values="0 0 0 0 0 0 0 0 0 0 0 0 0 0 0 0 0 0 0.08 0"/>
<feBlend mode="normal" in2="BackgroundImageFix" result="effect1_dropShadow_493_82850"/>
<feColorMatrix in="SourceAlpha" type="matrix" values="0 0 0 0 0 0 0 0 0 0 0 0 0 0 0 0 0 0 127 0" result="hardAlpha"/>
<feOffset dy="-0.5"/>
<feGaussianBlur stdDeviation="2"/>
<feComposite in2="hardAlpha" operator="out"/>
<feColorMatrix type="matrix" values="0 0 0 0 0 0 0 0 0 0 0 0 0 0 0 0 0 0 0.05 0"/>
<feBlend mode="normal" in2="effect1_dropShadow_493_82850" result="effect2_dropShadow_493_82850"/>
<feBlend mode="normal" in="SourceGraphic" in2="effect2_dropShadow_493_82850" result="shape"/>
</filter>
<filter id="filter1_dd_493_82850" x="1" y="144.5" width="146" height="126.5" filterUnits="userSpaceOnUse" color-interpolation-filters="sRGB">
<feFlood flood-opacity="0" result="BackgroundImageFix"/>
<feColorMatrix in="SourceAlpha" type="matrix" values="0 0 0 0 0 0 0 0 0 0 0 0 0 0 0 0 0 0 127 0" result="hardAlpha"/>
<feOffset dy="4"/>
<feGaussianBlur stdDeviation="4"/>
<feComposite in2="hardAlpha" operator="out"/>
<feColorMatrix type="matrix" values="0 0 0 0 0 0 0 0 0 0 0 0 0 0 0 0 0 0 0.08 0"/>
<feBlend mode="normal" in2="BackgroundImageFix" result="effect1_dropShadow_493_82850"/>
<feColorMatrix in="SourceAlpha" type="matrix" values="0 0 0 0 0 0 0 0 0 0 0 0 0 0 0 0 0 0 127 0" result="hardAlpha"/>
<feOffset dy="-0.5"/>
<feGaussianBlur stdDeviation="2"/>
<feComposite in2="hardAlpha" operator="out"/>
<feColorMatrix type="matrix" values="0 0 0 0 0 0 0 0 0 0 0 0 0 0 0 0 0 0 0.05 0"/>
<feBlend mode="normal" in2="effect1_dropShadow_493_82850" result="effect2_dropShadow_493_82850"/>
<feBlend mode="normal" in="SourceGraphic" in2="effect2_dropShadow_493_82850" result="shape"/>
</filter>
<filter id="filter2_dd_493_82850" x="240" y="287.5" width="100" height="126.5" filterUnits="userSpaceOnUse" color-interpolation-filters="sRGB">
<feFlood flood-opacity="0" result="BackgroundImageFix"/>
<feColorMatrix in="SourceAlpha" type="matrix" values="0 0 0 0 0 0 0 0 0 0 0 0 0 0 0 0 0 0 127 0" result="hardAlpha"/>
<feOffset dy="4"/>
<feGaussianBlur stdDeviation="4"/>
<feComposite in2="hardAlpha" operator="out"/>
<feColorMatrix type="matrix" values="0 0 0 0 0 0 0 0 0 0 0 0 0 0 0 0 0 0 0.08 0"/>
<feBlend mode="normal" in2="BackgroundImageFix" result="effect1_dropShadow_493_82850"/>
<feColorMatrix in="SourceAlpha" type="matrix" values="0 0 0 0 0 0 0 0 0 0 0 0 0 0 0 0 0 0 127 0" result="hardAlpha"/>
<feOffset dy="-0.5"/>
<feGaussianBlur stdDeviation="2"/>
<feComposite in2="hardAlpha" operator="out"/>
<feColorMatrix type="matrix" values="0 0 0 0 0 0 0 0 0 0 0 0 0 0 0 0 0 0 0.05 0"/>
<feBlend mode="normal" in2="effect1_dropShadow_493_82850" result="effect2_dropShadow_493_82850"/>
<feBlend mode="normal" in="SourceGraphic" in2="effect2_dropShadow_493_82850" result="shape"/>
</filter>
<filter id="filter3_dd_493_82850" x="103" y="287.5" width="107" height="126.5" filterUnits="userSpaceOnUse" color-interpolation-filters="sRGB">
<feFlood flood-opacity="0" result="BackgroundImageFix"/>
<feColorMatrix in="SourceAlpha" type="matrix" values="0 0 0 0 0 0 0 0 0 0 0 0 0 0 0 0 0 0 127 0" result="hardAlpha"/>
<feOffset dy="4"/>
<feGaussianBlur stdDeviation="4"/>
<feComposite in2="hardAlpha" operator="out"/>
<feColorMatrix type="matrix" values="0 0 0 0 0 0 0 0 0 0 0 0 0 0 0 0 0 0 0.08 0"/>
<feBlend mode="normal" in2="BackgroundImageFix" result="effect1_dropShadow_493_82850"/>
<feColorMatrix in="SourceAlpha" type="matrix" values="0 0 0 0 0 0 0 0 0 0 0 0 0 0 0 0 0 0 127 0" result="hardAlpha"/>
<feOffset dy="-0.5"/>
<feGaussianBlur stdDeviation="2"/>
<feComposite in2="hardAlpha" operator="out"/>
<feColorMatrix type="matrix" values="0 0 0 0 0 0 0 0 0 0 0 0 0 0 0 0 0 0 0.05 0"/>
<feBlend mode="normal" in2="effect1_dropShadow_493_82850" result="effect2_dropShadow_493_82850"/>
<feBlend mode="normal" in="SourceGraphic" in2="effect2_dropShadow_493_82850" result="shape"/>
</filter>
<linearGradient id="paint0_linear_493_82850" x1="180.813" y1="348" x2="181.269" y2="341.234" gradientUnits="userSpaceOnUse">
<stop offset="0.338542" stop-color="#7A73FF"/>
<stop offset="0.734375" stop-color="#75CDFF"/>
<stop offset="1" stop-color="#4AFCF1"/>
</linearGradient>
<linearGradient id="paint1_linear_493_82850" x1="202.625" y1="532" x2="67.609" y2="520.353" gradientUnits="userSpaceOnUse">
<stop offset="0.338542" stop-color="#7A73FF"/>
<stop offset="0.734375" stop-color="#75CDFF"/>
<stop offset="1" stop-color="#4AFCF1"/>
</linearGradient>
<linearGradient id="paint2_linear_493_82850" x1="78.2403" y1="150.382" x2="199.205" y2="193.199" gradientUnits="userSpaceOnUse">
<stop offset="0.338542" stop-color="#7A73FF"/>
<stop offset="0.734375" stop-color="#75CDFF"/>
<stop offset="1" stop-color="#4AFCF1"/>
</linearGradient>
<radialGradient id="paint3_radial_493_82850" cx="0" cy="0" r="1" gradientUnits="userSpaceOnUse" gradientTransform="translate(73.5 51) rotate(99.7276) scale(17.7553)">
<stop offset="0.055" stop-color="#7A73FF"/>
<stop offset="0.65" stop-color="#67DDFA"/>
<stop offset="1" stop-color="#4AFCF1"/>
</radialGradient>
<radialGradient id="paint4_radial_493_82850" cx="0" cy="0" r="1" gradientUnits="userSpaceOnUse" gradientTransform="translate(73.9 195) rotate(100.679) scale(17.8084 19.4725)">
<stop offset="0.055" stop-color="#7A73FF"/>
<stop offset="0.65" stop-color="#67DDFA"/>
<stop offset="1" stop-color="#4AFCF1"/>
</radialGradient>
<radialGradient id="paint5_radial_493_82850" cx="0" cy="0" r="1" gradientUnits="userSpaceOnUse" gradientTransform="translate(73.9 195) rotate(100.679) scale(17.8084 19.4725)">
<stop offset="0.055" stop-color="#7A73FF"/>
<stop offset="0.65" stop-color="#67DDFA"/>
<stop offset="1" stop-color="#4AFCF1"/>
</radialGradient>
<radialGradient id="paint6_radial_493_82850" cx="0" cy="0" r="1" gradientUnits="userSpaceOnUse" gradientTransform="translate(289.6 338) rotate(98.7708) scale(17.7071 16.0233)">
<stop offset="0.055" stop-color="#7A73FF"/>
<stop offset="0.65" stop-color="#67DDFA"/>
<stop offset="1" stop-color="#4AFCF1"/>
</radialGradient>
<radialGradient id="paint7_radial_493_82850" cx="0" cy="0" r="1" gradientUnits="userSpaceOnUse" gradientTransform="translate(289.6 338) rotate(98.7708) scale(17.7071 16.0233)">
<stop offset="0.055" stop-color="#7A73FF"/>
<stop offset="0.65" stop-color="#67DDFA"/>
<stop offset="1" stop-color="#4AFCF1"/>
</radialGradient>
<radialGradient id="paint8_radial_493_82850" cx="0" cy="0" r="1" gradientUnits="userSpaceOnUse" gradientTransform="translate(289.6 338) rotate(98.7708) scale(17.7071 16.0233)">
<stop offset="0.055" stop-color="#7A73FF"/>
<stop offset="0.65" stop-color="#67DDFA"/>
<stop offset="1" stop-color="#4AFCF1"/>
</radialGradient>
<radialGradient id="paint9_radial_493_82850" cx="0" cy="0" r="1" gradientUnits="userSpaceOnUse" gradientTransform="translate(289.6 338) rotate(98.7708) scale(17.7071 16.0233)">
<stop offset="0.055" stop-color="#7A73FF"/>
<stop offset="0.65" stop-color="#67DDFA"/>
<stop offset="1" stop-color="#4AFCF1"/>
</radialGradient>
<radialGradient id="paint10_radial_493_82850" cx="0" cy="0" r="1" gradientUnits="userSpaceOnUse" gradientTransform="translate(289.6 338) rotate(98.7708) scale(17.7071 16.0233)">
<stop offset="0.055" stop-color="#7A73FF"/>
<stop offset="0.65" stop-color="#67DDFA"/>
<stop offset="1" stop-color="#4AFCF1"/>
</radialGradient>
<radialGradient id="paint11_radial_493_82850" cx="0" cy="0" r="1" gradientUnits="userSpaceOnUse" gradientTransform="translate(289.6 338) rotate(98.7708) scale(17.7071 16.0233)">
<stop offset="0.055" stop-color="#7A73FF"/>
<stop offset="0.65" stop-color="#67DDFA"/>
<stop offset="1" stop-color="#4AFCF1"/>
</radialGradient>
<radialGradient id="paint12_radial_493_82850" cx="0" cy="0" r="1" gradientUnits="userSpaceOnUse" gradientTransform="translate(157 338) rotate(99.7276) scale(17.7553)">
<stop offset="0.055" stop-color="#7A73FF"/>
<stop offset="0.65" stop-color="#67DDFA"/>
<stop offset="1" stop-color="#4AFCF1"/>
</radialGradient>
<radialGradient id="paint13_radial_493_82850" cx="0" cy="0" r="1" gradientUnits="userSpaceOnUse" gradientTransform="translate(157 338) rotate(99.7276) scale(17.7553)">
<stop offset="0.055" stop-color="#7A73FF"/>
<stop offset="0.65" stop-color="#67DDFA"/>
<stop offset="1" stop-color="#4AFCF1"/>
</radialGradient>
</defs>
</svg>
