<svg width="600" height="456" viewBox="0 0 600 456" fill="none" xmlns="http://www.w3.org/2000/svg">
<g filter="url(#filter0_dd_339_56398)">
<rect x="12" y="12" width="568" height="424" rx="24" fill="white" shape-rendering="crispEdges"/>
<path d="M79.4879 331.915L77.897 326.097H78.6129L79.8288 330.836H79.8857L81.1243 326.097H81.9197L83.1584 330.836H83.2152L84.4311 326.097H85.147L83.5561 331.915H82.8288L81.5447 327.279H81.4993L80.2152 331.915H79.4879ZM87.968 326.097V331.915H87.2635V326.836H87.2294L85.8089 327.779V327.063L87.2635 326.097H87.968Z" fill="#4F4F4F"/>
<path d="M114.8 331.915L113.21 326.097H113.925L115.141 330.836H115.198L116.437 326.097H117.232L118.471 330.836H118.528L119.744 326.097H120.46L118.869 331.915H118.141L116.857 327.279H116.812L115.528 331.915H114.8ZM123.053 331.995C122.72 331.995 122.42 331.929 122.153 331.796C121.886 331.664 121.672 331.482 121.511 331.251C121.35 331.02 121.262 330.756 121.246 330.461H121.928C121.955 330.724 122.074 330.942 122.286 331.114C122.5 331.285 122.756 331.37 123.053 331.37C123.292 331.37 123.504 331.314 123.69 331.202C123.877 331.091 124.024 330.937 124.13 330.742C124.238 330.545 124.292 330.323 124.292 330.074C124.292 329.821 124.236 329.594 124.124 329.396C124.014 329.195 123.863 329.037 123.67 328.921C123.477 328.806 123.256 328.747 123.008 328.745C122.83 328.743 122.647 328.771 122.46 328.827C122.272 328.882 122.118 328.953 121.996 329.04L121.337 328.961L121.69 326.097H124.712V326.722H122.281L122.076 328.438H122.11C122.229 328.343 122.379 328.265 122.559 328.202C122.739 328.14 122.926 328.109 123.121 328.109C123.478 328.109 123.795 328.194 124.073 328.364C124.353 328.533 124.573 328.764 124.732 329.057C124.893 329.351 124.974 329.686 124.974 330.063C124.974 330.434 124.89 330.766 124.724 331.057C124.559 331.347 124.332 331.576 124.042 331.745C123.752 331.912 123.423 331.995 123.053 331.995Z" fill="#4F4F4F"/>
<path d="M151.714 331.915L150.124 326.097H150.839L152.055 330.836H152.112L153.351 326.097H154.146L155.385 330.836H155.442L156.658 326.097H157.374L155.783 331.915H155.055L153.771 327.279H153.726L152.442 331.915H151.714ZM160.001 326.018C160.24 326.02 160.479 326.065 160.717 326.154C160.956 326.243 161.174 326.391 161.371 326.597C161.568 326.802 161.726 327.081 161.845 327.435C161.964 327.789 162.024 328.234 162.024 328.768C162.024 329.285 161.975 329.744 161.876 330.146C161.78 330.545 161.64 330.882 161.456 331.157C161.274 331.432 161.053 331.64 160.791 331.782C160.532 331.924 160.238 331.995 159.911 331.995C159.585 331.995 159.294 331.931 159.038 331.802C158.785 331.671 158.576 331.49 158.413 331.259C158.252 331.026 158.149 330.756 158.104 330.449H158.797C158.859 330.717 158.983 330.937 159.169 331.111C159.357 331.284 159.604 331.37 159.911 331.37C160.359 331.37 160.714 331.174 160.973 330.782C161.234 330.39 161.365 329.836 161.365 329.12H161.32C161.214 329.279 161.088 329.416 160.942 329.532C160.796 329.647 160.634 329.736 160.456 329.799C160.278 329.861 160.089 329.893 159.888 329.893C159.554 329.893 159.249 329.81 158.97 329.646C158.694 329.479 158.472 329.251 158.305 328.961C158.141 328.669 158.058 328.336 158.058 327.961C158.058 327.605 158.138 327.279 158.297 326.984C158.458 326.686 158.683 326.449 158.973 326.273C159.265 326.097 159.607 326.012 160.001 326.018ZM160.001 326.643C159.763 326.643 159.548 326.702 159.357 326.822C159.167 326.939 159.017 327.098 158.905 327.299C158.795 327.498 158.74 327.718 158.74 327.961C158.74 328.203 158.793 328.424 158.899 328.623C159.007 328.82 159.154 328.977 159.339 329.094C159.527 329.21 159.74 329.268 159.979 329.268C160.159 329.268 160.326 329.233 160.482 329.163C160.637 329.091 160.772 328.993 160.888 328.87C161.005 328.745 161.097 328.604 161.163 328.447C161.23 328.288 161.263 328.122 161.263 327.949C161.263 327.722 161.208 327.509 161.098 327.31C160.99 327.111 160.84 326.95 160.649 326.827C160.46 326.704 160.244 326.643 160.001 326.643Z" fill="#4F4F4F"/>
<path d="M188.629 331.915L187.038 326.097H187.754L188.969 330.836H189.026L190.265 326.097H191.06L192.299 330.836H192.356L193.572 326.097H194.288L192.697 331.915H191.969L190.685 327.279H190.64L189.356 331.915H188.629ZM197.109 326.097V331.915H196.404V326.836H196.37L194.95 327.779V327.063L196.404 326.097H197.109ZM200.748 331.995C200.373 331.995 200.039 331.931 199.745 331.802C199.453 331.673 199.221 331.494 199.049 331.265C198.879 331.034 198.786 330.766 198.771 330.461H199.487C199.502 330.648 199.566 330.81 199.68 330.947C199.793 331.081 199.942 331.185 200.126 331.259C200.309 331.333 200.513 331.37 200.737 331.37C200.987 331.37 201.208 331.326 201.401 331.239C201.594 331.152 201.746 331.031 201.856 330.876C201.966 330.72 202.021 330.54 202.021 330.336C202.021 330.122 201.968 329.933 201.862 329.771C201.755 329.606 201.6 329.477 201.396 329.384C201.191 329.291 200.941 329.245 200.646 329.245H200.18V328.62H200.646C200.877 328.62 201.079 328.578 201.254 328.495C201.43 328.412 201.567 328.294 201.665 328.143C201.766 327.991 201.816 327.813 201.816 327.609C201.816 327.412 201.772 327.24 201.685 327.094C201.598 326.949 201.475 326.835 201.316 326.753C201.159 326.672 200.973 326.631 200.759 326.631C200.558 326.631 200.369 326.668 200.191 326.742C200.015 326.814 199.871 326.919 199.759 327.057C199.647 327.194 199.587 327.359 199.577 327.552H198.896C198.907 327.247 198.999 326.98 199.171 326.751C199.344 326.52 199.569 326.34 199.847 326.211C200.128 326.082 200.435 326.018 200.771 326.018C201.13 326.018 201.439 326.091 201.697 326.236C201.954 326.38 202.152 326.571 202.29 326.807C202.429 327.044 202.498 327.3 202.498 327.574C202.498 327.902 202.412 328.182 202.239 328.413C202.069 328.644 201.837 328.804 201.543 328.893V328.938C201.911 328.999 202.198 329.155 202.404 329.407C202.611 329.657 202.714 329.967 202.714 330.336C202.714 330.652 202.628 330.936 202.455 331.188C202.285 331.438 202.052 331.635 201.756 331.779C201.461 331.923 201.125 331.995 200.748 331.995Z" fill="#4F4F4F"/>
<path d="M225.539 331.915L223.948 326.097H224.664L225.88 330.836H225.936L227.175 326.097H227.971L229.209 330.836H229.266L230.482 326.097H231.198L229.607 331.915H228.88L227.596 327.279H227.55L226.266 331.915H225.539ZM234.019 326.097V331.915H233.314V326.836H233.28L231.86 327.779V327.063L233.314 326.097H234.019ZM235.874 331.915L238.476 326.768V326.722H235.476V326.097H239.203V326.756L236.613 331.915H235.874Z" fill="#4F4F4F"/>
<path d="M262.453 331.915L260.862 326.097H261.578L262.794 330.836H262.85L264.089 326.097H264.885L266.123 330.836H266.18L267.396 326.097H268.112L266.521 331.915H265.794L264.51 327.279H264.464L263.18 331.915H262.453ZM268.887 331.915V331.404L270.808 329.302C271.033 329.056 271.219 328.842 271.365 328.66C271.511 328.476 271.618 328.304 271.689 328.143C271.761 327.98 271.797 327.809 271.797 327.631C271.797 327.427 271.747 327.25 271.649 327.1C271.552 326.95 271.42 326.835 271.251 326.753C271.083 326.672 270.893 326.631 270.683 326.631C270.459 326.631 270.264 326.678 270.098 326.771C269.933 326.861 269.805 326.989 269.714 327.154C269.625 327.319 269.581 327.512 269.581 327.734H268.91C268.91 327.393 268.989 327.093 269.146 326.836C269.303 326.578 269.517 326.378 269.788 326.234C270.061 326.09 270.367 326.018 270.706 326.018C271.047 326.018 271.349 326.09 271.612 326.234C271.875 326.378 272.082 326.572 272.231 326.816C272.381 327.06 272.456 327.332 272.456 327.631C272.456 327.845 272.417 328.055 272.339 328.259C272.263 328.462 272.131 328.688 271.941 328.938C271.754 329.186 271.493 329.489 271.16 329.847L269.853 331.245V331.29H272.558V331.915H268.887ZM275.777 326.097V331.915H275.072V326.836H275.038L273.618 327.779V327.063L275.072 326.097H275.777Z" fill="#4F4F4F"/>
<path d="M299.367 331.915L297.776 326.097H298.492L299.708 330.836H299.765L301.003 326.097H301.799L303.037 330.836H303.094L304.31 326.097H305.026L303.435 331.915H302.708L301.424 327.279H301.378L300.094 331.915H299.367ZM305.801 331.915V331.404L307.722 329.302C307.947 329.056 308.133 328.842 308.279 328.66C308.425 328.476 308.533 328.304 308.603 328.143C308.675 327.98 308.711 327.809 308.711 327.631C308.711 327.427 308.661 327.25 308.563 327.1C308.466 326.95 308.334 326.835 308.165 326.753C307.997 326.672 307.807 326.631 307.597 326.631C307.373 326.631 307.178 326.678 307.012 326.771C306.847 326.861 306.719 326.989 306.628 327.154C306.539 327.319 306.495 327.512 306.495 327.734H305.824C305.824 327.393 305.903 327.093 306.06 326.836C306.217 326.578 306.431 326.378 306.702 326.234C306.975 326.09 307.281 326.018 307.62 326.018C307.961 326.018 308.263 326.09 308.526 326.234C308.789 326.378 308.996 326.572 309.145 326.816C309.295 327.06 309.37 327.332 309.37 327.631C309.37 327.845 309.331 328.055 309.253 328.259C309.177 328.462 309.045 328.688 308.855 328.938C308.668 329.186 308.408 329.489 308.074 329.847L306.767 331.245V331.29H309.472V331.915H305.801ZM312.463 331.995C312.13 331.995 311.83 331.929 311.563 331.796C311.296 331.664 311.082 331.482 310.921 331.251C310.76 331.02 310.672 330.756 310.657 330.461H311.338C311.365 330.724 311.484 330.942 311.696 331.114C311.91 331.285 312.166 331.37 312.463 331.37C312.702 331.37 312.914 331.314 313.1 331.202C313.287 331.091 313.434 330.937 313.54 330.742C313.648 330.545 313.702 330.323 313.702 330.074C313.702 329.821 313.646 329.594 313.534 329.396C313.425 329.195 313.273 329.037 313.08 328.921C312.887 328.806 312.666 328.747 312.418 328.745C312.24 328.743 312.057 328.771 311.87 328.827C311.682 328.882 311.528 328.953 311.407 329.04L310.748 328.961L311.1 326.097H314.123V326.722H311.691L311.486 328.438H311.52C311.64 328.343 311.789 328.265 311.969 328.202C312.149 328.14 312.337 328.109 312.532 328.109C312.888 328.109 313.205 328.194 313.483 328.364C313.764 328.533 313.983 328.764 314.142 329.057C314.303 329.351 314.384 329.686 314.384 330.063C314.384 330.434 314.301 330.766 314.134 331.057C313.969 331.347 313.742 331.576 313.452 331.745C313.162 331.912 312.833 331.995 312.463 331.995Z" fill="#4F4F4F"/>
<path d="M336.281 331.915L334.69 326.097H335.406L336.622 330.836H336.679L337.917 326.097H338.713L339.951 330.836H340.008L341.224 326.097H341.94L340.349 331.915H339.622L338.338 327.279H338.292L337.008 331.915H336.281ZM342.716 331.915V331.404L344.636 329.302C344.861 329.056 345.047 328.842 345.193 328.66C345.339 328.476 345.447 328.304 345.517 328.143C345.589 327.98 345.625 327.809 345.625 327.631C345.625 327.427 345.575 327.25 345.477 327.1C345.38 326.95 345.248 326.835 345.079 326.753C344.911 326.672 344.721 326.631 344.511 326.631C344.288 326.631 344.092 326.678 343.926 326.771C343.761 326.861 343.633 326.989 343.542 327.154C343.453 327.319 343.409 327.512 343.409 327.734H342.738C342.738 327.393 342.817 327.093 342.974 326.836C343.131 326.578 343.345 326.378 343.616 326.234C343.889 326.09 344.195 326.018 344.534 326.018C344.875 326.018 345.177 326.09 345.44 326.234C345.703 326.378 345.91 326.572 346.059 326.816C346.209 327.06 346.284 327.332 346.284 327.631C346.284 327.845 346.245 328.055 346.167 328.259C346.092 328.462 345.959 328.688 345.77 328.938C345.582 329.186 345.322 329.489 344.988 329.847L343.681 331.245V331.29H346.386V331.915H342.716ZM349.412 326.018C349.65 326.02 349.889 326.065 350.127 326.154C350.366 326.243 350.584 326.391 350.781 326.597C350.978 326.802 351.136 327.081 351.255 327.435C351.375 327.789 351.434 328.234 351.434 328.768C351.434 329.285 351.385 329.744 351.287 330.146C351.19 330.545 351.05 330.882 350.866 331.157C350.684 331.432 350.463 331.64 350.201 331.782C349.942 331.924 349.648 331.995 349.321 331.995C348.995 331.995 348.704 331.931 348.449 331.802C348.195 331.671 347.986 331.49 347.824 331.259C347.663 331.026 347.559 330.756 347.514 330.449H348.207C348.27 330.717 348.394 330.937 348.579 331.111C348.767 331.284 349.014 331.37 349.321 331.37C349.77 331.37 350.124 331.174 350.383 330.782C350.645 330.39 350.775 329.836 350.775 329.12H350.73C350.624 329.279 350.498 329.416 350.352 329.532C350.206 329.647 350.044 329.736 349.866 329.799C349.688 329.861 349.499 329.893 349.298 329.893C348.965 329.893 348.659 329.81 348.38 329.646C348.104 329.479 347.882 329.251 347.716 328.961C347.551 328.669 347.468 328.336 347.468 327.961C347.468 327.605 347.548 327.279 347.707 326.984C347.868 326.686 348.093 326.449 348.383 326.273C348.675 326.097 349.018 326.012 349.412 326.018ZM349.412 326.643C349.173 326.643 348.958 326.702 348.767 326.822C348.577 326.939 348.427 327.098 348.315 327.299C348.205 327.498 348.15 327.718 348.15 327.961C348.15 328.203 348.203 328.424 348.309 328.623C348.417 328.82 348.564 328.977 348.75 329.094C348.937 329.21 349.15 329.268 349.389 329.268C349.569 329.268 349.736 329.233 349.892 329.163C350.047 329.091 350.182 328.993 350.298 328.87C350.415 328.745 350.507 328.604 350.574 328.447C350.64 328.288 350.673 328.122 350.673 327.949C350.673 327.722 350.618 327.509 350.508 327.31C350.4 327.111 350.251 326.95 350.059 326.827C349.87 326.704 349.654 326.643 349.412 326.643Z" fill="#4F4F4F"/>
<path d="M373.195 331.915L371.604 326.097H372.32L373.536 330.836H373.593L374.831 326.097H375.627L376.865 330.836H376.922L378.138 326.097H378.854L377.263 331.915H376.536L375.252 327.279H375.206L373.922 331.915H373.195ZM381.596 331.995C381.221 331.995 380.886 331.931 380.593 331.802C380.301 331.673 380.069 331.494 379.897 331.265C379.726 331.034 379.633 330.766 379.618 330.461H380.334C380.349 330.648 380.414 330.81 380.527 330.947C380.641 331.081 380.79 331.185 380.973 331.259C381.157 331.333 381.361 331.37 381.584 331.37C381.834 331.37 382.056 331.326 382.249 331.239C382.442 331.152 382.594 331.031 382.703 330.876C382.813 330.72 382.868 330.54 382.868 330.336C382.868 330.122 382.815 329.933 382.709 329.771C382.603 329.606 382.448 329.477 382.243 329.384C382.039 329.291 381.789 329.245 381.493 329.245H381.027V328.62H381.493C381.724 328.62 381.927 328.578 382.101 328.495C382.277 328.412 382.415 328.294 382.513 328.143C382.614 327.991 382.664 327.813 382.664 327.609C382.664 327.412 382.62 327.24 382.533 327.094C382.446 326.949 382.323 326.835 382.164 326.753C382.007 326.672 381.821 326.631 381.607 326.631C381.406 326.631 381.217 326.668 381.039 326.742C380.863 326.814 380.719 326.919 380.607 327.057C380.495 327.194 380.435 327.359 380.425 327.552H379.743C379.755 327.247 379.846 326.98 380.019 326.751C380.191 326.52 380.417 326.34 380.695 326.211C380.975 326.082 381.283 326.018 381.618 326.018C381.978 326.018 382.287 326.091 382.544 326.236C382.802 326.38 383 326.571 383.138 326.807C383.276 327.044 383.346 327.3 383.346 327.574C383.346 327.902 383.259 328.182 383.087 328.413C382.917 328.644 382.685 328.804 382.391 328.893V328.938C382.758 328.999 383.045 329.155 383.252 329.407C383.458 329.657 383.561 329.967 383.561 330.336C383.561 330.652 383.475 330.936 383.303 331.188C383.132 331.438 382.9 331.635 382.604 331.779C382.309 331.923 381.972 331.995 381.596 331.995ZM386.689 331.995C386.314 331.995 385.98 331.931 385.686 331.802C385.395 331.673 385.163 331.494 384.99 331.265C384.82 331.034 384.727 330.766 384.712 330.461H385.428C385.443 330.648 385.507 330.81 385.621 330.947C385.735 331.081 385.883 331.185 386.067 331.259C386.251 331.333 386.454 331.37 386.678 331.37C386.928 331.37 387.15 331.326 387.343 331.239C387.536 331.152 387.687 331.031 387.797 330.876C387.907 330.72 387.962 330.54 387.962 330.336C387.962 330.122 387.909 329.933 387.803 329.771C387.697 329.606 387.542 329.477 387.337 329.384C387.132 329.291 386.882 329.245 386.587 329.245H386.121V328.62H386.587C386.818 328.62 387.021 328.578 387.195 328.495C387.371 328.412 387.508 328.294 387.607 328.143C387.707 327.991 387.757 327.813 387.757 327.609C387.757 327.412 387.714 327.24 387.627 327.094C387.54 326.949 387.417 326.835 387.257 326.753C387.1 326.672 386.915 326.631 386.701 326.631C386.5 326.631 386.31 326.668 386.132 326.742C385.956 326.814 385.812 326.919 385.701 327.057C385.589 327.194 385.528 327.359 385.519 327.552H384.837C384.848 327.247 384.94 326.98 385.113 326.751C385.285 326.52 385.51 326.34 385.789 326.211C386.069 326.082 386.377 326.018 386.712 326.018C387.072 326.018 387.381 326.091 387.638 326.236C387.896 326.38 388.094 326.571 388.232 326.807C388.37 327.044 388.439 327.3 388.439 327.574C388.439 327.902 388.353 328.182 388.181 328.413C388.01 328.644 387.778 328.804 387.485 328.893V328.938C387.852 328.999 388.139 329.155 388.346 329.407C388.552 329.657 388.655 329.967 388.655 330.336C388.655 330.652 388.569 330.936 388.397 331.188C388.226 331.438 387.993 331.635 387.698 331.779C387.402 331.923 387.066 331.995 386.689 331.995Z" fill="#4F4F4F"/>
<path d="M410.105 331.915L408.514 326.097H409.23L410.446 330.836H410.503L411.741 326.097H412.537L413.776 330.836H413.832L415.048 326.097H415.764L414.173 331.915H413.446L412.162 327.279H412.116L410.832 331.915H410.105ZM418.506 331.995C418.131 331.995 417.796 331.931 417.503 331.802C417.211 331.673 416.979 331.494 416.807 331.265C416.636 331.034 416.544 330.766 416.528 330.461H417.244C417.259 330.648 417.324 330.81 417.438 330.947C417.551 331.081 417.7 331.185 417.884 331.259C418.067 331.333 418.271 331.37 418.494 331.37C418.744 331.37 418.966 331.326 419.159 331.239C419.352 331.152 419.504 331.031 419.614 330.876C419.723 330.72 419.778 330.54 419.778 330.336C419.778 330.122 419.725 329.933 419.619 329.771C419.513 329.606 419.358 329.477 419.153 329.384C418.949 329.291 418.699 329.245 418.403 329.245H417.938V328.62H418.403C418.634 328.62 418.837 328.578 419.011 328.495C419.188 328.412 419.325 328.294 419.423 328.143C419.524 327.991 419.574 327.813 419.574 327.609C419.574 327.412 419.53 327.24 419.443 327.094C419.356 326.949 419.233 326.835 419.074 326.753C418.917 326.672 418.731 326.631 418.517 326.631C418.316 326.631 418.127 326.668 417.949 326.742C417.773 326.814 417.629 326.919 417.517 327.057C417.405 327.194 417.345 327.359 417.335 327.552H416.653C416.665 327.247 416.757 326.98 416.929 326.751C417.101 326.52 417.327 326.34 417.605 326.211C417.885 326.082 418.193 326.018 418.528 326.018C418.888 326.018 419.197 326.091 419.455 326.236C419.712 326.38 419.91 326.571 420.048 326.807C420.187 327.044 420.256 327.3 420.256 327.574C420.256 327.902 420.17 328.182 419.997 328.413C419.827 328.644 419.595 328.804 419.301 328.893V328.938C419.669 328.999 419.955 329.155 420.162 329.407C420.368 329.657 420.472 329.967 420.472 330.336C420.472 330.652 420.385 330.936 420.213 331.188C420.043 331.438 419.81 331.635 419.514 331.779C419.219 331.923 418.883 331.995 418.506 331.995ZM421.815 331.915L424.418 326.768V326.722H421.418V326.097H425.145V326.756L422.554 331.915H421.815Z" fill="#4F4F4F"/>
<path d="M447.019 331.915L445.428 326.097H446.144L447.36 330.836H447.417L448.656 326.097H449.451L450.69 330.836H450.746L451.962 326.097H452.678L451.087 331.915H450.36L449.076 327.279H449.031L447.746 331.915H447.019ZM453.044 330.722V330.143L455.601 326.097H456.021V326.995H455.737L453.805 330.052V330.097H457.249V330.722H453.044ZM455.783 331.915V330.546V330.276V326.097H456.453V331.915H455.783ZM460.281 326.097V331.915H459.576V326.836H459.542L458.121 327.779V327.063L459.576 326.097H460.281Z" fill="#4F4F4F"/>
<path d="M483.933 331.915L482.342 326.097H483.058L484.274 330.836H484.331L485.57 326.097H486.365L487.604 330.836H487.661L488.876 326.097H489.592L488.001 331.915H487.274L485.99 327.279H485.945L484.661 331.915H483.933ZM489.958 330.722V330.143L492.515 326.097H492.935V326.995H492.651L490.719 330.052V330.097H494.163V330.722H489.958ZM492.697 331.915V330.546V330.276V326.097H493.367V331.915H492.697ZM497.045 331.995C496.712 331.995 496.412 331.929 496.145 331.796C495.878 331.664 495.664 331.482 495.503 331.251C495.342 331.02 495.254 330.756 495.239 330.461H495.92C495.947 330.724 496.066 330.942 496.278 331.114C496.492 331.285 496.748 331.37 497.045 331.37C497.284 331.37 497.496 331.314 497.682 331.202C497.869 331.091 498.016 330.937 498.122 330.742C498.23 330.545 498.284 330.323 498.284 330.074C498.284 329.821 498.228 329.594 498.116 329.396C498.007 329.195 497.855 329.037 497.662 328.921C497.469 328.806 497.248 328.747 497 328.745C496.822 328.743 496.639 328.771 496.452 328.827C496.264 328.882 496.11 328.953 495.989 329.04L495.33 328.961L495.682 326.097H498.705V326.722H496.273L496.068 328.438H496.102C496.222 328.343 496.371 328.265 496.551 328.202C496.731 328.14 496.919 328.109 497.114 328.109C497.47 328.109 497.787 328.194 498.065 328.364C498.346 328.533 498.565 328.764 498.724 329.057C498.885 329.351 498.966 329.686 498.966 330.063C498.966 330.434 498.883 330.766 498.716 331.057C498.551 331.347 498.324 331.576 498.034 331.745C497.744 331.912 497.415 331.995 497.045 331.995Z" fill="#4F4F4F"/>
<path d="M520.847 331.915L519.256 326.097H519.972L521.188 330.836H521.245L522.484 326.097H523.279L524.518 330.836H524.575L525.79 326.097H526.506L524.915 331.915H524.188L522.904 327.279H522.859L521.575 331.915H520.847ZM526.872 330.722V330.143L529.429 326.097H529.849V326.995H529.565L527.634 330.052V330.097H531.077V330.722H526.872ZM529.611 331.915V330.546V330.276V326.097H530.281V331.915H529.611ZM533.994 326.018C534.232 326.02 534.471 326.065 534.71 326.154C534.948 326.243 535.166 326.391 535.363 326.597C535.56 326.802 535.718 327.081 535.837 327.435C535.957 327.789 536.016 328.234 536.016 328.768C536.016 329.285 535.967 329.744 535.869 330.146C535.772 330.545 535.632 330.882 535.448 331.157C535.266 331.432 535.045 331.64 534.783 331.782C534.524 331.924 534.23 331.995 533.903 331.995C533.577 331.995 533.286 331.931 533.031 331.802C532.777 331.671 532.568 331.49 532.406 331.259C532.245 331.026 532.141 330.756 532.096 330.449H532.789C532.852 330.717 532.976 330.937 533.161 331.111C533.349 331.284 533.596 331.37 533.903 331.37C534.352 331.37 534.706 331.174 534.965 330.782C535.227 330.39 535.357 329.836 535.357 329.12H535.312C535.206 329.279 535.08 329.416 534.934 329.532C534.788 329.647 534.626 329.736 534.448 329.799C534.27 329.861 534.081 329.893 533.88 329.893C533.547 329.893 533.241 329.81 532.962 329.646C532.686 329.479 532.464 329.251 532.298 328.961C532.133 328.669 532.05 328.336 532.05 327.961C532.05 327.605 532.13 327.279 532.289 326.984C532.45 326.686 532.675 326.449 532.965 326.273C533.257 326.097 533.6 326.012 533.994 326.018ZM533.994 326.643C533.755 326.643 533.54 326.702 533.349 326.822C533.159 326.939 533.009 327.098 532.897 327.299C532.787 327.498 532.732 327.718 532.732 327.961C532.732 328.203 532.785 328.424 532.891 328.623C532.999 328.82 533.146 328.977 533.332 329.094C533.519 329.21 533.732 329.268 533.971 329.268C534.151 329.268 534.318 329.233 534.474 329.163C534.629 329.091 534.764 328.993 534.88 328.87C534.997 328.745 535.089 328.604 535.156 328.447C535.222 328.288 535.255 328.122 535.255 327.949C535.255 327.722 535.2 327.509 535.09 327.31C534.982 327.111 534.833 326.95 534.641 326.827C534.452 326.704 534.236 326.643 533.994 326.643Z" fill="#4F4F4F"/>
<path d="M65.2882 315.652C64.8067 315.652 64.3965 315.521 64.0577 315.259C63.7189 314.995 63.4601 314.612 63.2811 314.112C63.1021 313.609 63.0126 313.002 63.0126 312.29C63.0126 311.583 63.1021 310.978 63.2811 310.478C63.4622 309.975 63.7221 309.591 64.0609 309.327C64.4018 309.061 64.8109 308.928 65.2882 308.928C65.7655 308.928 66.1735 309.061 66.5123 309.327C66.8532 309.591 67.1131 309.975 67.2921 310.478C67.4732 310.978 67.5638 311.583 67.5638 312.29C67.5638 313.002 67.4743 313.609 67.2953 314.112C67.1163 314.612 66.8574 314.995 66.5187 315.259C66.1799 315.521 65.7697 315.652 65.2882 315.652ZM65.2882 314.949C65.7655 314.949 66.1362 314.719 66.4004 314.259C66.6646 313.798 66.7967 313.142 66.7967 312.29C66.7967 311.723 66.736 311.241 66.6145 310.842C66.4952 310.444 66.3226 310.14 66.0968 309.931C65.8731 309.722 65.6035 309.618 65.2882 309.618C64.8152 309.618 64.4455 309.851 64.1792 310.318C63.9128 310.782 63.7797 311.44 63.7797 312.29C63.7797 312.857 63.8393 313.338 63.9586 313.734C64.078 314.131 64.2495 314.432 64.4732 314.639C64.6991 314.846 64.9707 314.949 65.2882 314.949Z" fill="#4F4F4F"/>
<path d="M62.8738 281.333V287.878H62.0812V282.164H62.0428L60.4448 283.225V282.419L62.0812 281.333H62.8738ZM66.8912 287.968C66.4097 287.968 65.9995 287.837 65.6607 287.575C65.322 287.31 65.0631 286.928 64.8841 286.427C64.7051 285.924 64.6156 285.317 64.6156 284.606C64.6156 283.898 64.7051 283.294 64.8841 282.793C65.0652 282.291 65.3252 281.907 65.6639 281.643C66.0048 281.377 66.4139 281.243 66.8912 281.243C67.3685 281.243 67.7765 281.377 68.1153 281.643C68.4562 281.907 68.7161 282.291 68.8951 282.793C69.0762 283.294 69.1668 283.898 69.1668 284.606C69.1668 285.317 69.0773 285.924 68.8983 286.427C68.7193 286.928 68.4605 287.31 68.1217 287.575C67.7829 287.837 67.3727 287.968 66.8912 287.968ZM66.8912 287.265C67.3685 287.265 67.7392 287.035 68.0034 286.574C68.2676 286.114 68.3997 285.458 68.3997 284.606C68.3997 284.039 68.339 283.556 68.2176 283.158C68.0982 282.759 67.9257 282.456 67.6998 282.247C67.4761 282.038 67.2065 281.934 66.8912 281.934C66.4182 281.934 66.0485 282.167 65.7822 282.634C65.5158 283.098 65.3827 283.755 65.3827 284.606C65.3827 285.172 65.4423 285.654 65.5617 286.05C65.681 286.446 65.8525 286.748 66.0762 286.955C66.3021 287.161 66.5737 287.265 66.8912 287.265Z" fill="#4F4F4F"/>
<path d="M57.7042 258.926V258.351L59.8647 255.986C60.1183 255.709 60.3271 255.468 60.4912 255.263C60.6552 255.057 60.7767 254.863 60.8555 254.682C60.9365 254.498 60.9769 254.307 60.9769 254.106C60.9769 253.876 60.9216 253.677 60.8108 253.509C60.7021 253.34 60.5529 253.21 60.3633 253.119C60.1737 253.027 59.9606 252.981 59.7241 252.981C59.4727 252.981 59.2532 253.034 59.0657 253.138C58.8804 253.24 58.7365 253.384 58.6343 253.569C58.5341 253.755 58.4841 253.972 58.4841 254.221H57.7298C57.7298 253.838 57.8182 253.501 57.9951 253.211C58.1719 252.922 58.4127 252.696 58.7174 252.534C59.0242 252.372 59.3683 252.291 59.7497 252.291C60.1332 252.291 60.473 252.372 60.7692 252.534C61.0654 252.696 61.2976 252.914 61.4659 253.189C61.6343 253.464 61.7184 253.77 61.7184 254.106C61.7184 254.347 61.6747 254.583 61.5874 254.813C61.5022 255.041 61.353 255.295 61.1399 255.576C60.929 255.856 60.636 256.196 60.261 256.599L58.7909 258.172V258.223H61.8335V258.926H57.7042ZM65.2884 259.015C64.8068 259.015 64.3967 258.884 64.0579 258.622C63.7191 258.358 63.4603 257.976 63.2813 257.475C63.1023 256.972 63.0128 256.365 63.0128 255.653C63.0128 254.946 63.1023 254.342 63.2813 253.841C63.4624 253.338 63.7223 252.955 64.0611 252.69C64.402 252.424 64.8111 252.291 65.2884 252.291C65.7657 252.291 66.1737 252.424 66.5125 252.69C66.8534 252.955 67.1133 253.338 67.2923 253.841C67.4734 254.342 67.564 254.946 67.564 255.653C67.564 256.365 67.4745 256.972 67.2955 257.475C67.1165 257.976 66.8576 258.358 66.5189 258.622C66.1801 258.884 65.7699 259.015 65.2884 259.015ZM65.2884 258.312C65.7657 258.312 66.1364 258.082 66.4006 257.622C66.6648 257.162 66.7969 256.505 66.7969 255.653C66.7969 255.086 66.7362 254.604 66.6147 254.205C66.4954 253.807 66.3228 253.503 66.097 253.295C65.8733 253.086 65.6037 252.981 65.2884 252.981C64.8154 252.981 64.4457 253.215 64.1794 253.681C63.913 254.146 63.7799 254.803 63.7799 255.653C63.7799 256.22 63.8395 256.701 63.9588 257.098C64.0782 257.494 64.2497 257.796 64.4734 258.002C64.6992 258.209 64.9709 258.312 65.2884 258.312Z" fill="#4F4F4F"/>
<path d="M59.6346 231.672C59.2127 231.672 58.8367 231.599 58.5064 231.454C58.1783 231.309 57.9173 231.108 57.7234 230.85C57.5316 230.59 57.4272 230.289 57.4102 229.946H58.2156C58.2326 230.157 58.3051 230.339 58.4329 230.492C58.5608 230.643 58.728 230.761 58.9347 230.844C59.1414 230.927 59.3704 230.968 59.6218 230.968C59.9031 230.968 60.1524 230.919 60.3697 230.821C60.587 230.723 60.7575 230.587 60.8811 230.412C61.0046 230.238 61.0664 230.035 61.0664 229.805C61.0664 229.564 61.0068 229.352 60.8875 229.169C60.7681 228.984 60.5934 228.839 60.3633 228.734C60.1332 228.63 59.8519 228.578 59.5196 228.578H58.9954V227.875H59.5196C59.7795 227.875 60.0075 227.828 60.2035 227.734C60.4017 227.64 60.5561 227.508 60.6669 227.338C60.7799 227.167 60.8363 226.967 60.8363 226.737C60.8363 226.515 60.7873 226.322 60.6893 226.158C60.5913 225.994 60.4528 225.866 60.2738 225.775C60.097 225.683 59.8882 225.637 59.6474 225.637C59.4216 225.637 59.2085 225.679 59.0082 225.762C58.81 225.843 58.6481 225.961 58.5224 226.117C58.3967 226.27 58.3285 226.456 58.3179 226.673H57.5508C57.5636 226.33 57.6669 226.029 57.8608 225.772C58.0547 225.512 58.3083 225.309 58.6215 225.164C58.9368 225.02 59.2831 224.947 59.6602 224.947C60.065 224.947 60.4123 225.029 60.7021 225.193C60.9919 225.355 61.2145 225.569 61.3701 225.836C61.5256 226.102 61.6034 226.39 61.6034 226.699C61.6034 227.067 61.5064 227.381 61.3125 227.641C61.1208 227.901 60.8598 228.081 60.5295 228.181V228.233C60.9429 228.301 61.2657 228.477 61.4979 228.76C61.7301 229.041 61.8463 229.39 61.8463 229.805C61.8463 230.161 61.7493 230.48 61.5554 230.764C61.3637 231.045 61.1016 231.267 60.7692 231.429C60.4368 231.591 60.0586 231.672 59.6346 231.672ZM65.2884 231.672C64.8068 231.672 64.3967 231.54 64.0579 231.278C63.7191 231.014 63.4603 230.632 63.2813 230.131C63.1023 229.628 63.0128 229.021 63.0128 228.309C63.0128 227.602 63.1023 226.998 63.2813 226.497C63.4624 225.994 63.7223 225.611 64.0611 225.347C64.402 225.08 64.8111 224.947 65.2884 224.947C65.7657 224.947 66.1737 225.08 66.5125 225.347C66.8534 225.611 67.1133 225.994 67.2923 226.497C67.4734 226.998 67.564 227.602 67.564 228.309C67.564 229.021 67.4745 229.628 67.2955 230.131C67.1165 230.632 66.8576 231.014 66.5189 231.278C66.1801 231.54 65.7699 231.672 65.2884 231.672ZM65.2884 230.968C65.7657 230.968 66.1364 230.738 66.4006 230.278C66.6648 229.818 66.7969 229.162 66.7969 228.309C66.7969 227.743 66.7362 227.26 66.6147 226.862C66.4954 226.463 66.3228 226.159 66.097 225.951C65.8733 225.742 65.6037 225.637 65.2884 225.637C64.8154 225.637 64.4457 225.871 64.1794 226.337C63.913 226.802 63.7799 227.459 63.7799 228.309C63.7799 228.876 63.8395 229.358 63.9588 229.754C64.0782 230.15 64.2497 230.452 64.4734 230.658C64.6992 230.865 64.9709 230.968 65.2884 230.968Z" fill="#4F4F4F"/>
<path d="M57.2256 204.504V203.852L60.102 199.301H60.575V200.311H60.2554L58.0822 203.75V203.801H61.9557V204.504H57.2256ZM60.3066 205.847V204.306V204.003V199.301H61.0608V205.847H60.3066ZM65.2884 205.936C64.8068 205.936 64.3967 205.805 64.0579 205.543C63.7191 205.279 63.4603 204.896 63.2813 204.396C63.1023 203.893 63.0128 203.286 63.0128 202.574C63.0128 201.867 63.1023 201.263 63.2813 200.762C63.4624 200.259 63.7223 199.875 64.0611 199.611C64.402 199.345 64.8111 199.212 65.2884 199.212C65.7657 199.212 66.1737 199.345 66.5125 199.611C66.8534 199.875 67.1133 200.259 67.2923 200.762C67.4734 201.263 67.564 201.867 67.564 202.574C67.564 203.286 67.4745 203.893 67.2955 204.396C67.1165 204.896 66.8576 205.279 66.5189 205.543C66.1801 205.805 65.7699 205.936 65.2884 205.936ZM65.2884 205.233C65.7657 205.233 66.1364 205.003 66.4006 204.543C66.6648 204.082 66.7969 203.426 66.7969 202.574C66.7969 202.007 66.7362 201.525 66.6147 201.126C66.4954 200.728 66.3228 200.424 66.097 200.215C65.8733 200.006 65.6037 199.902 65.2884 199.902C64.8154 199.902 64.4457 200.135 64.1794 200.602C63.913 201.066 63.7799 201.724 63.7799 202.574C63.7799 203.141 63.8395 203.622 63.9588 204.019C64.0782 204.415 64.2497 204.716 64.4734 204.923C64.6992 205.13 64.9709 205.233 65.2884 205.233Z" fill="#4F4F4F"/>
<path d="M59.7233 176.984C59.3483 176.984 59.0106 176.909 58.7102 176.76C58.4097 176.611 58.169 176.406 57.9879 176.146C57.8068 175.886 57.7077 175.59 57.6906 175.258H58.4577C58.4875 175.554 58.6217 175.799 58.8604 175.993C59.1011 176.185 59.3888 176.28 59.7233 176.28C59.9918 176.28 60.2304 176.218 60.4392 176.092C60.6502 175.966 60.8153 175.794 60.9346 175.574C61.0561 175.352 61.1168 175.102 61.1168 174.823C61.1168 174.538 61.0539 174.283 60.9282 174.059C60.8046 173.833 60.6342 173.655 60.4168 173.525C60.1995 173.395 59.9513 173.329 59.6722 173.327C59.4719 173.325 59.2663 173.356 59.0553 173.42C58.8444 173.482 58.6708 173.562 58.5344 173.66L57.7929 173.57L58.1892 170.349H61.5898V171.052H58.854L58.6239 172.982H58.6622C58.7965 172.876 58.9648 172.787 59.1672 172.717C59.3696 172.647 59.5806 172.611 59.8 172.611C60.2006 172.611 60.5575 172.707 60.8707 172.899C61.186 173.089 61.4332 173.349 61.6122 173.679C61.7933 174.009 61.8838 174.386 61.8838 174.81C61.8838 175.228 61.7901 175.601 61.6026 175.929C61.4172 176.255 61.1615 176.513 60.8355 176.702C60.5095 176.89 60.1388 176.984 59.7233 176.984ZM65.2884 176.984C64.8068 176.984 64.3967 176.852 64.0579 176.59C63.7191 176.326 63.4603 175.944 63.2813 175.443C63.1023 174.94 63.0128 174.333 63.0128 173.621C63.0128 172.914 63.1023 172.31 63.2813 171.809C63.4624 171.306 63.7223 170.923 64.0611 170.659C64.402 170.392 64.8111 170.259 65.2884 170.259C65.7657 170.259 66.1737 170.392 66.5125 170.659C66.8534 170.923 67.1133 171.306 67.2923 171.809C67.4734 172.31 67.564 172.914 67.564 173.621C67.564 174.333 67.4745 174.94 67.2955 175.443C67.1165 175.944 66.8576 176.326 66.5189 176.59C66.1801 176.852 65.7699 176.984 65.2884 176.984ZM65.2884 176.28C65.7657 176.28 66.1364 176.05 66.4006 175.59C66.6648 175.13 66.7969 174.474 66.7969 173.621C66.7969 173.055 66.7362 172.572 66.6147 172.174C66.4954 171.775 66.3228 171.471 66.097 171.263C65.8733 171.054 65.6037 170.949 65.2884 170.949C64.8154 170.949 64.4457 171.183 64.1794 171.649C63.913 172.114 63.7799 172.771 63.7799 173.621C63.7799 174.188 63.8395 174.67 63.9588 175.066C64.0782 175.462 64.2497 175.764 64.4734 175.97C64.6992 176.177 64.9709 176.28 65.2884 176.28Z" fill="#4F4F4F"/>
<path d="M58.357 123.815L61.2846 118.023V117.972H57.9096V117.269H62.1027V118.011L59.188 123.815H58.357ZM65.2884 123.904C64.8068 123.904 64.3967 123.773 64.0579 123.511C63.7191 123.247 63.4603 122.864 63.2813 122.364C63.1023 121.861 63.0128 121.253 63.0128 120.542C63.0128 119.834 63.1023 119.23 63.2813 118.73C63.4624 118.227 63.7223 117.843 64.0611 117.579C64.402 117.313 64.8111 117.18 65.2884 117.18C65.7657 117.18 66.1737 117.313 66.5125 117.579C66.8534 117.843 67.1133 118.227 67.2923 118.73C67.4734 119.23 67.564 119.834 67.564 120.542C67.564 121.253 67.4745 121.861 67.2955 122.364C67.1165 122.864 66.8576 123.247 66.5189 123.511C66.1801 123.773 65.7699 123.904 65.2884 123.904ZM65.2884 123.201C65.7657 123.201 66.1364 122.971 66.4006 122.511C66.6648 122.05 66.7969 121.394 66.7969 120.542C66.7969 119.975 66.7362 119.492 66.6147 119.094C66.4954 118.696 66.3228 118.392 66.097 118.183C65.8733 117.974 65.6037 117.87 65.2884 117.87C64.8154 117.87 64.4457 118.103 64.1794 118.57C63.913 119.034 63.7799 119.692 63.7799 120.542C63.7799 121.109 63.8395 121.59 63.9588 121.986C64.0782 122.383 64.2497 122.684 64.4734 122.891C64.6992 123.098 64.9709 123.201 65.2884 123.201Z" fill="#4F4F4F"/>
<path d="M59.7041 98.1688C59.2652 98.1688 58.8774 98.0911 58.5408 97.9355C58.2063 97.7779 57.9453 97.5616 57.7578 97.2867C57.5703 97.0097 57.4776 96.6944 57.4797 96.3407C57.4776 96.0637 57.5319 95.808 57.6427 95.5737C57.7535 95.3372 57.9048 95.1401 58.0965 94.9824C58.2904 94.8226 58.5067 94.7214 58.7453 94.6788V94.6404C58.4321 94.5595 58.1828 94.3837 57.9975 94.1131C57.8121 93.8404 57.7205 93.5303 57.7226 93.183C57.7205 92.8507 57.8046 92.5534 57.9751 92.2913C58.1455 92.0293 58.3799 91.8226 58.6782 91.6713C58.9786 91.52 59.3206 91.4444 59.7041 91.4444C60.0834 91.4444 60.4222 91.52 60.7205 91.6713C61.0188 91.8226 61.2531 92.0293 61.4236 92.2913C61.5962 92.5534 61.6835 92.8507 61.6857 93.183C61.6835 93.5303 61.5887 93.8404 61.4012 94.1131C61.2159 94.3837 60.9698 94.5595 60.6629 94.6404V94.6788C60.8994 94.7214 61.1125 94.8226 61.3021 94.9824C61.4918 95.1401 61.6431 95.3372 61.756 95.5737C61.8689 95.808 61.9264 96.0637 61.9286 96.3407C61.9264 96.6944 61.8306 97.0097 61.6409 97.2867C61.4534 97.5616 61.1924 97.7779 60.8579 97.9355C60.5255 98.0911 60.1409 98.1688 59.7041 98.1688ZM59.7041 97.4657C60.0003 97.4657 60.256 97.4178 60.4712 97.3219C60.6864 97.226 60.8526 97.0907 60.9698 96.916C61.0869 96.7413 61.1466 96.5367 61.1487 96.3024C61.1466 96.0552 61.0827 95.8368 60.957 95.6472C60.8313 95.4575 60.6597 95.3084 60.4424 95.1997C60.2272 95.0911 59.9811 95.0367 59.7041 95.0367C59.425 95.0367 59.1757 95.0911 58.9563 95.1997C58.7389 95.3084 58.5674 95.4575 58.4417 95.6472C58.3181 95.8368 58.2574 96.0552 58.2595 96.3024C58.2574 96.5367 58.3139 96.7413 58.4289 96.916C58.5461 97.0907 58.7134 97.226 58.9307 97.3219C59.148 97.4178 59.4058 97.4657 59.7041 97.4657ZM59.7041 94.3592C59.9385 94.3592 60.1462 94.3123 60.3274 94.2186C60.5106 94.1248 60.6544 93.9938 60.7588 93.8254C60.8632 93.6571 60.9165 93.46 60.9186 93.2342C60.9165 93.0126 60.8643 92.8198 60.762 92.6557C60.6597 92.4895 60.5181 92.3617 60.3369 92.2722C60.1558 92.1806 59.9449 92.1347 59.7041 92.1347C59.4591 92.1347 59.245 92.1806 59.0617 92.2722C58.8785 92.3617 58.7368 92.4895 58.6367 92.6557C58.5365 92.8198 58.4875 93.0126 58.4896 93.2342C58.4875 93.46 58.5376 93.6571 58.6399 93.8254C58.7443 93.9938 58.8881 94.1248 59.0713 94.2186C59.2546 94.3123 59.4655 94.3592 59.7041 94.3592ZM65.2884 98.1688C64.8068 98.1688 64.3967 98.0378 64.0579 97.7757C63.7191 97.5115 63.4603 97.1291 63.2813 96.6284C63.1023 96.1255 63.0128 95.5183 63.0128 94.8066C63.0128 94.0992 63.1023 93.4952 63.2813 92.9945C63.4624 92.4916 63.7223 92.1081 64.0611 91.8439C64.402 91.5776 64.8111 91.4444 65.2884 91.4444C65.7657 91.4444 66.1737 91.5776 66.5125 91.8439C66.8534 92.1081 67.1133 92.4916 67.2923 92.9945C67.4734 93.4952 67.564 94.0992 67.564 94.8066C67.564 95.5183 67.4745 96.1255 67.2955 96.6284C67.1165 97.1291 66.8576 97.5115 66.5189 97.7757C66.1801 98.0378 65.7699 98.1688 65.2884 98.1688ZM65.2884 97.4657C65.7657 97.4657 66.1364 97.2356 66.4006 96.7754C66.6648 96.3151 66.7969 95.6589 66.7969 94.8066C66.7969 94.2399 66.7362 93.7573 66.6147 93.3588C66.4954 92.9604 66.3228 92.6568 66.097 92.448C65.8733 92.2391 65.6037 92.1347 65.2884 92.1347C64.8154 92.1347 64.4457 92.3681 64.1794 92.8347C63.913 93.2992 63.7799 93.9565 63.7799 94.8066C63.7799 95.3734 63.8395 95.8549 63.9588 96.2512C64.0782 96.6475 64.2497 96.949 64.4734 97.1557C64.6992 97.3624 64.9709 97.4657 65.2884 97.4657Z" fill="#4F4F4F"/>
<path d="M59.621 62.492C59.8895 62.4941 60.158 62.5453 60.4264 62.6454C60.6949 62.7456 60.9399 62.9118 61.1615 63.144C61.3831 63.3741 61.561 63.6884 61.6953 64.0868C61.8295 64.4853 61.8966 64.9849 61.8966 65.5858C61.8966 66.1674 61.8412 66.6841 61.7304 67.1358C61.6217 67.5854 61.4641 67.9647 61.2574 68.2736C61.0529 68.5826 60.8036 68.8169 60.5095 68.9767C60.2176 69.1365 59.8874 69.2164 59.5188 69.2164C59.1523 69.2164 58.8252 69.144 58.5376 68.9991C58.2521 68.8521 58.0177 68.6486 57.8345 68.3887C57.6534 68.1266 57.5372 67.823 57.4861 67.4778H58.2659C58.3362 67.7782 58.4758 68.0265 58.6846 68.2225C58.8955 68.4164 59.1736 68.5133 59.5188 68.5133C60.0237 68.5133 60.4222 68.2928 60.7141 67.8517C61.0081 67.4107 61.1551 66.7875 61.1551 65.9821H61.104C60.9847 66.161 60.843 66.3155 60.6789 66.4455C60.5149 66.5755 60.3327 66.6756 60.1324 66.7459C59.9321 66.8162 59.719 66.8514 59.4932 66.8514C59.1182 66.8514 58.7741 66.7587 58.4609 66.5733C58.1498 66.3858 57.9005 66.1291 57.713 65.8031C57.5276 65.475 57.435 65.1 57.435 64.6781C57.435 64.2775 57.5244 63.911 57.7034 63.5787C57.8845 63.2441 58.1381 62.9778 58.4641 62.7797C58.7922 62.5815 59.1779 62.4856 59.621 62.492ZM59.621 63.1951C59.3526 63.1951 59.1107 63.2623 58.8955 63.3965C58.6825 63.5286 58.5131 63.7076 58.3874 63.9334C58.2638 64.1571 58.202 64.4054 58.202 64.6781C58.202 64.9508 58.2617 65.199 58.381 65.4228C58.5024 65.6444 58.6676 65.8212 58.8764 65.9533C59.0873 66.0833 59.327 66.1483 59.5955 66.1483C59.7979 66.1483 59.9864 66.1088 60.1612 66.03C60.3359 65.949 60.4882 65.8393 60.6182 65.7008C60.7503 65.5602 60.8536 65.4015 60.9282 65.2246C61.0028 65.0456 61.0401 64.8592 61.0401 64.6653C61.0401 64.4096 60.9783 64.1699 60.8547 63.9462C60.7333 63.7225 60.5649 63.5414 60.3497 63.4029C60.1367 63.2644 59.8938 63.1951 59.621 63.1951ZM65.2884 69.2164C64.8068 69.2164 64.3967 69.0854 64.0579 68.8233C63.7191 68.5591 63.4603 68.1767 63.2813 67.676C63.1023 67.1731 63.0128 66.5659 63.0128 65.8542C63.0128 65.1468 63.1023 64.5428 63.2813 64.0421C63.4624 63.5392 63.7223 63.1557 64.0611 62.8915C64.402 62.6252 64.8111 62.492 65.2884 62.492C65.7657 62.492 66.1737 62.6252 66.5125 62.8915C66.8534 63.1557 67.1133 63.5392 67.2923 64.0421C67.4734 64.5428 67.564 65.1468 67.564 65.8542C67.564 66.5659 67.4745 67.1731 67.2955 67.676C67.1165 68.1767 66.8576 68.5591 66.5189 68.8233C66.1801 69.0854 65.7699 69.2164 65.2884 69.2164ZM65.2884 68.5133C65.7657 68.5133 66.1364 68.2832 66.4006 67.823C66.6648 67.3627 66.7969 66.7065 66.7969 65.8542C66.7969 65.2875 66.7362 64.8049 66.6147 64.4064C66.4954 64.008 66.3228 63.7044 66.097 63.4956C65.8733 63.2868 65.6037 63.1824 65.2884 63.1824C64.8154 63.1824 64.4457 63.4157 64.1794 63.8823C63.913 64.3468 63.7799 65.0041 63.7799 65.8542C63.7799 66.421 63.8395 66.9025 63.9588 67.2988C64.0782 67.6951 64.2497 67.9966 64.4734 68.2033C64.6992 68.41 64.9709 68.5133 65.2884 68.5133Z" fill="#4F4F4F"/>
<path d="M55.646 38.4545V45H54.8534V39.2855H54.815L53.217 40.3466V39.5412L54.8534 38.4545H55.646ZM59.6634 45.0895C59.1818 45.0895 58.7717 44.9585 58.4329 44.6964C58.0941 44.4322 57.8353 44.0497 57.6563 43.549C57.4773 43.0462 57.3878 42.4389 57.3878 41.7273C57.3878 41.0199 57.4773 40.4158 57.6563 39.9151C57.8374 39.4123 58.0973 39.0288 58.4361 38.7646C58.777 38.4982 59.1861 38.3651 59.6634 38.3651C60.1407 38.3651 60.5487 38.4982 60.8875 38.7646C61.2284 39.0288 61.4883 39.4123 61.6673 39.9151C61.8484 40.4158 61.939 41.0199 61.939 41.7273C61.939 42.4389 61.8495 43.0462 61.6705 43.549C61.4915 44.0497 61.2326 44.4322 60.8939 44.6964C60.5551 44.9585 60.1449 45.0895 59.6634 45.0895ZM59.6634 44.3864C60.1407 44.3864 60.5114 44.1562 60.7756 43.696C61.0398 43.2358 61.1719 42.5795 61.1719 41.7273C61.1719 41.1605 61.1112 40.6779 60.9897 40.2795C60.8704 39.881 60.6978 39.5774 60.472 39.3686C60.2483 39.1598 59.9787 39.0554 59.6634 39.0554C59.1904 39.0554 58.8207 39.2887 58.5544 39.7553C58.288 40.2198 58.1549 40.8771 58.1549 41.7273C58.1549 42.294 58.2145 42.7756 58.3338 43.1719C58.4532 43.5682 58.6247 43.8697 58.8484 44.0763C59.0742 44.283 59.3459 44.3864 59.6634 44.3864ZM65.2884 45.0895C64.8068 45.0895 64.3967 44.9585 64.0579 44.6964C63.7191 44.4322 63.4603 44.0497 63.2813 43.549C63.1023 43.0462 63.0128 42.4389 63.0128 41.7273C63.0128 41.0199 63.1023 40.4158 63.2813 39.9151C63.4624 39.4123 63.7223 39.0288 64.0611 38.7646C64.402 38.4982 64.8111 38.3651 65.2884 38.3651C65.7657 38.3651 66.1737 38.4982 66.5125 38.7646C66.8534 39.0288 67.1133 39.4123 67.2923 39.9151C67.4734 40.4158 67.564 41.0199 67.564 41.7273C67.564 42.4389 67.4745 43.0462 67.2955 43.549C67.1165 44.0497 66.8576 44.4322 66.5189 44.6964C66.1801 44.9585 65.7699 45.0895 65.2884 45.0895ZM65.2884 44.3864C65.7657 44.3864 66.1364 44.1562 66.4006 43.696C66.6648 43.2358 66.7969 42.5795 66.7969 41.7273C66.7969 41.1605 66.7362 40.6779 66.6147 40.2795C66.4954 39.881 66.3228 39.5774 66.097 39.3686C65.8733 39.1598 65.6037 39.0554 65.2884 39.0554C64.8154 39.0554 64.4457 39.2887 64.1794 39.7553C63.913 40.2198 63.7799 40.8771 63.7799 41.7273C63.7799 42.294 63.8395 42.7756 63.9588 43.1719C64.0782 43.5682 64.2497 43.8697 64.4734 44.0763C64.6992 44.283 64.9709 44.3864 65.2884 44.3864Z" fill="#4F4F4F"/>
<path d="M59.7105 151.248C59.4421 151.244 59.1736 151.193 58.9051 151.095C58.6367 150.997 58.3916 150.832 58.17 150.599C57.9485 150.365 57.7705 150.048 57.6363 149.65C57.5021 149.249 57.435 148.747 57.435 148.142C57.435 147.562 57.4893 147.048 57.598 146.601C57.7066 146.151 57.8643 145.773 58.071 145.466C58.2776 145.158 58.5269 144.923 58.8188 144.763C59.1129 144.604 59.4442 144.524 59.8128 144.524C60.1793 144.524 60.5053 144.597 60.7908 144.744C61.0784 144.889 61.3128 145.091 61.4939 145.351C61.675 145.611 61.7922 145.911 61.8455 146.249H61.0656C60.9932 145.955 60.8526 145.711 60.6438 145.518C60.435 145.324 60.158 145.227 59.8128 145.227C59.3057 145.227 58.9062 145.447 58.6143 145.888C58.3245 146.329 58.1786 146.948 58.1764 147.745H58.2276C58.3469 147.564 58.4886 147.41 58.6526 147.282C58.8188 147.152 59.0021 147.052 59.2024 146.981C59.4026 146.911 59.6146 146.876 59.8384 146.876C60.2134 146.876 60.5564 146.97 60.8675 147.157C61.1786 147.343 61.4279 147.599 61.6154 147.927C61.8029 148.253 61.8966 148.627 61.8966 149.049C61.8966 149.454 61.8061 149.825 61.6249 150.161C61.4438 150.496 61.1892 150.762 60.8611 150.96C60.5351 151.156 60.1516 151.252 59.7105 151.248ZM59.7105 150.545C59.979 150.545 60.2198 150.478 60.4328 150.344C60.648 150.209 60.8174 150.029 60.941 149.803C61.0667 149.578 61.1296 149.326 61.1296 149.049C61.1296 148.779 61.0688 148.533 60.9474 148.311C60.8281 148.087 60.6629 147.909 60.452 147.777C60.2432 147.645 60.0046 147.579 59.7361 147.579C59.5337 147.579 59.3451 147.62 59.1704 147.7C58.9957 147.779 58.8423 147.888 58.7102 148.026C58.5802 148.165 58.4779 148.324 58.4034 148.503C58.3288 148.68 58.2915 148.866 58.2915 149.062C58.2915 149.322 58.3522 149.565 58.4737 149.791C58.5972 150.017 58.7656 150.199 58.9786 150.337C59.1938 150.476 59.4378 150.545 59.7105 150.545ZM65.2884 151.248C64.8068 151.248 64.3967 151.117 64.0579 150.855C63.7191 150.591 63.4603 150.208 63.2813 149.708C63.1023 149.205 63.0128 148.597 63.0128 147.886C63.0128 147.178 63.1023 146.574 63.2813 146.074C63.4624 145.571 63.7223 145.187 64.0611 144.923C64.402 144.657 64.8111 144.524 65.2884 144.524C65.7657 144.524 66.1737 144.657 66.5125 144.923C66.8534 145.187 67.1133 145.571 67.2923 146.074C67.4734 146.574 67.564 147.178 67.564 147.886C67.564 148.597 67.4745 149.205 67.2955 149.708C67.1165 150.208 66.8576 150.591 66.5189 150.855C66.1801 151.117 65.7699 151.248 65.2884 151.248ZM65.2884 150.545C65.7657 150.545 66.1364 150.315 66.4006 149.855C66.6648 149.394 66.7969 148.738 66.7969 147.886C66.7969 147.319 66.7362 146.836 66.6147 146.438C66.4954 146.04 66.3228 145.736 66.097 145.527C65.8733 145.318 65.6037 145.214 65.2884 145.214C64.8154 145.214 64.4457 145.447 64.1794 145.914C63.913 146.378 63.7799 147.036 63.7799 147.886C63.7799 148.453 63.8395 148.934 63.9588 149.33C64.0782 149.727 64.2497 150.028 64.4734 150.235C64.6992 150.442 64.9709 150.545 65.2884 150.545Z" fill="#4F4F4F"/>
<rect x="77.5742" y="51.1929" width="442.615" height="267.954" stroke="#BDBDBD" stroke-dasharray="1 1"/>
<path d="M77.0742 183.979H520.689" stroke="#BDBDBD" stroke-dasharray="2 2"/>
<path d="M77.0742 211.323H520.689" stroke="#BDBDBD" stroke-dasharray="2 2"/>
<path d="M77.0742 238.667H520.689" stroke="#BDBDBD" stroke-dasharray="2 2"/>
<path d="M77.0742 266.011H520.689" stroke="#BDBDBD" stroke-dasharray="2 2"/>
<path d="M77.0742 293.354H520.689" stroke="#BDBDBD" stroke-dasharray="2 2"/>
<path d="M77.0742 76.2115H520.689" stroke="#BDBDBD" stroke-dasharray="2 2"/>
<path d="M77.0742 103.555H520.689" stroke="#BDBDBD" stroke-dasharray="2 2"/>
<path d="M77.0742 130.899H520.689" stroke="#BDBDBD" stroke-dasharray="2 2"/>
<path d="M77.0742 158.243H520.689" stroke="#BDBDBD" stroke-dasharray="2 2"/>
<path d="M113.359 50.6929L113.359 319.647" stroke="#BDBDBD" stroke-dasharray="2 2"/>
<path d="M150.27 50.6929L150.27 319.647" stroke="#BDBDBD" stroke-dasharray="2 2"/>
<path d="M187.184 50.6929L187.184 319.647" stroke="#BDBDBD" stroke-dasharray="2 2"/>
<path d="M224.098 50.6929L224.098 319.647" stroke="#BDBDBD" stroke-dasharray="2 2"/>
<path d="M261.012 50.6929L261.012 319.647" stroke="#BDBDBD" stroke-dasharray="2 2"/>
<path d="M297.922 50.6929L297.922 319.647" stroke="#BDBDBD" stroke-dasharray="2 2"/>
<path d="M334.836 50.6929L334.836 319.647" stroke="#BDBDBD" stroke-dasharray="2 2"/>
<path d="M371.75 50.6929L371.75 319.647" stroke="#BDBDBD" stroke-dasharray="2 2"/>
<path d="M408.664 50.6929L408.664 319.647" stroke="#BDBDBD" stroke-dasharray="2 2"/>
<path d="M445.578 50.6929L445.578 319.647" stroke="#BDBDBD" stroke-dasharray="2 2"/>
<path d="M482.492 50.6929L482.492 319.647" stroke="#BDBDBD" stroke-dasharray="2 2"/>
<ellipse cx="105.881" cy="233.222" rx="5.68558" ry="5.81522" fill="#F94144"/>
<ellipse cx="133.166" cy="186.577" rx="5.68558" ry="5.81522" fill="#F94144"/>
<ellipse cx="160.451" cy="184.969" rx="5.68558" ry="5.81522" fill="#F94144"/>
<ellipse cx="187.736" cy="138.323" rx="5.68558" ry="5.81522" fill="#F94144"/>
<ellipse cx="351.439" cy="136.715" rx="5.68558" ry="5.81522" fill="#F94144"/>
<ellipse cx="378.721" cy="136.715" rx="5.68558" ry="5.81522" fill="#F94144"/>
<ellipse cx="406.006" cy="98.1112" rx="5.68558" ry="5.81522" fill="#F94144"/>
<ellipse cx="298.475" cy="157.625" rx="5.68558" ry="5.81522" fill="#F94144"/>
<ellipse cx="460.576" cy="88.4606" rx="5.68558" ry="5.81522" fill="#F94144"/>
<ellipse cx="5.69183" cy="5.80885" rx="5.69183" ry="5.80885" transform="matrix(-0.70633 -0.707883 0.70633 -0.707883 467.602 238.27)" fill="#F94144"/>
<ellipse cx="5.69183" cy="5.80885" rx="5.69183" ry="5.80885" transform="matrix(-0.70633 -0.707883 0.70633 -0.707883 415.395 251.919)" fill="#F94144"/>
<ellipse cx="5.69183" cy="5.80885" rx="5.69183" ry="5.80885" transform="matrix(-0.70633 -0.707883 0.70633 -0.707883 394.969 233.721)" fill="#F94144"/>
<ellipse cx="5.69183" cy="5.80885" rx="5.69183" ry="5.80885" transform="matrix(-0.70633 -0.707883 0.70633 -0.707883 342.766 247.37)" fill="#F94144"/>
<ellipse cx="5.68558" cy="5.81522" rx="5.68558" ry="5.81522" transform="matrix(-1 0 0 1 475.805 253.143)" fill="#F3722C"/>
<ellipse cx="5.68558" cy="5.81522" rx="5.68558" ry="5.81522" transform="matrix(-1 0 0 1 448.523 206.497)" fill="#F3722C"/>
<ellipse cx="5.68558" cy="5.81522" rx="5.68558" ry="5.81522" transform="matrix(-1 0 0 1 421.238 204.889)" fill="#F3722C"/>
<ellipse cx="5.68558" cy="5.81522" rx="5.68558" ry="5.81522" transform="matrix(-1 0 0 1 393.953 158.243)" fill="#F3722C"/>
<ellipse cx="5.68558" cy="5.81522" rx="5.68558" ry="5.81522" transform="matrix(-1 0 0 1 202.969 156.635)" fill="#F3722C"/>
<ellipse cx="5.68558" cy="5.81522" rx="5.68558" ry="5.81522" transform="matrix(-1 0 0 1 175.684 118.032)" fill="#F3722C"/>
<ellipse cx="5.68558" cy="5.81522" rx="5.68558" ry="5.81522" transform="matrix(-1 0 0 1 283.211 177.545)" fill="#F3722C"/>
<ellipse cx="5.69183" cy="5.80885" rx="5.69183" ry="5.80885" transform="matrix(0.70633 -0.707883 -0.70633 -0.707883 108.406 264.006)" fill="#F3722C"/>
<ellipse cx="5.69183" cy="5.80885" rx="5.69183" ry="5.80885" transform="matrix(0.70633 -0.707883 -0.70633 -0.707883 160.609 277.654)" fill="#F3722C"/>
<ellipse cx="5.69183" cy="5.80885" rx="5.69183" ry="5.80885" transform="matrix(0.70633 -0.707883 -0.70633 -0.707883 233.238 273.105)" fill="#F3722C"/>
<ellipse cx="89.834" cy="176.926" rx="5.68558" ry="5.81522" fill="#F8961E"/>
<ellipse cx="144.404" cy="128.672" rx="5.68558" ry="5.81522" fill="#F8961E"/>
<ellipse cx="5.69183" cy="5.80885" rx="5.69183" ry="5.80885" transform="matrix(-0.70633 -0.707883 0.70633 -0.707883 351.633 224.07)" fill="#F8961E"/>
<ellipse cx="5.69183" cy="5.80885" rx="5.69183" ry="5.80885" transform="matrix(-0.70633 -0.707883 0.70633 -0.707883 299.434 237.719)" fill="#F8961E"/>
<ellipse cx="5.68558" cy="5.81522" rx="5.68558" ry="5.81522" transform="matrix(-1 0 0 1 377.906 195.238)" fill="#F8961E"/>
<ellipse cx="5.68558" cy="5.81522" rx="5.68558" ry="5.81522" transform="matrix(-1 0 0 1 159.633 146.984)" fill="#F8961E"/>
<ellipse cx="5.69183" cy="5.80885" rx="5.69183" ry="5.80885" transform="matrix(0.70633 -0.707883 -0.70633 -0.707883 189.906 263.454)" fill="#F8961E"/>
<ellipse cx="162.057" cy="231.614" rx="5.68558" ry="5.81522" fill="#2D9CDB"/>
<ellipse cx="216.623" cy="183.36" rx="5.68558" ry="5.81522" fill="#2D9CDB"/>
<ellipse cx="5.69183" cy="5.80885" rx="5.69183" ry="5.80885" transform="matrix(-0.70633 -0.707883 0.70633 -0.707883 423.855 278.758)" fill="#2D9CDB"/>
<ellipse cx="5.69183" cy="5.80885" rx="5.69183" ry="5.80885" transform="matrix(-0.70633 -0.707883 0.70633 -0.707883 371.656 292.406)" fill="#2D9CDB"/>
<ellipse cx="5.68558" cy="5.81522" rx="5.68558" ry="5.81522" transform="matrix(-1 0 0 1 450.129 249.926)" fill="#2D9CDB"/>
<ellipse cx="5.68558" cy="5.81522" rx="5.68558" ry="5.81522" transform="matrix(-1 0 0 1 231.855 201.672)" fill="#2D9CDB"/>
<ellipse cx="5.69183" cy="5.80885" rx="5.69183" ry="5.80885" transform="matrix(0.70633 -0.707883 -0.70633 -0.707883 262.129 318.142)" fill="#2D9CDB"/>
<ellipse cx="5.69183" cy="5.80885" rx="5.69183" ry="5.80885" transform="matrix(-0.70633 -0.707883 0.70633 -0.707883 225.875 132.496)" fill="#F94144"/>
<ellipse cx="5.69183" cy="5.80885" rx="5.69183" ry="5.80885" transform="matrix(-0.70633 -0.707883 0.70633 -0.707883 206.582 113.161)" fill="#F94144"/>
<ellipse cx="5.69183" cy="5.80885" rx="5.69183" ry="5.80885" transform="matrix(-0.70633 -0.707883 0.70633 -0.707883 160.051 121.123)" fill="#F94144"/>
<ellipse cx="5.69183" cy="5.80885" rx="5.69183" ry="5.80885" transform="matrix(-0.70633 -0.707883 0.70633 -0.707883 278.074 155.244)" fill="#F94144"/>
<ellipse cx="5.68871" cy="5.81204" rx="5.68871" ry="5.81204" transform="matrix(-0.865549 0.500824 -0.499177 -0.8665 455.539 138.27)" fill="#43AA8B"/>
<ellipse cx="5.68871" cy="5.81204" rx="5.68871" ry="5.81204" transform="matrix(-0.865549 0.500824 -0.499177 -0.8665 314.57 221.695)" fill="#43AA8B"/>
<ellipse cx="5.68871" cy="5.81204" rx="5.68871" ry="5.81204" transform="matrix(-0.865549 0.500824 -0.499177 -0.8665 350.004 177.047)" fill="#43AA8B"/>
<ellipse cx="5.68642" cy="5.81437" rx="5.68642" ry="5.81437" transform="matrix(0.965783 0.25935 -0.258289 0.966068 193.879 151.787)" fill="#43AA8B"/>
<ellipse cx="5.68642" cy="5.81437" rx="5.68642" ry="5.81437" transform="matrix(0.965783 0.25935 -0.258289 0.966068 259.047 119.332)" fill="#43AA8B"/>
<ellipse cx="5.68871" cy="5.81204" rx="5.68871" ry="5.81204" transform="matrix(0.865549 -0.500824 -0.499177 -0.8665 187.852 207.722)" fill="#43AA8B"/>
<ellipse cx="5.68871" cy="5.81204" rx="5.68871" ry="5.81204" transform="matrix(0.865549 -0.500824 -0.499177 -0.8665 259.184 222.168)" fill="#43AA8B"/>
<ellipse cx="5.68871" cy="5.81204" rx="5.68871" ry="5.81204" transform="matrix(0.865549 -0.500824 -0.499177 -0.8665 425.387 127.857)" fill="#43AA8B"/>
<ellipse cx="5.68871" cy="5.81204" rx="5.68871" ry="5.81204" transform="matrix(0.865549 -0.500824 -0.499177 -0.8665 468.273 147.616)" fill="#43AA8B"/>
<ellipse cx="5.68642" cy="5.81437" rx="5.68642" ry="5.81437" transform="matrix(0.965783 0.25935 -0.258289 0.966068 262.992 143.953)" fill="#43AA8B"/>
<ellipse cx="5.68642" cy="5.81437" rx="5.68642" ry="5.81437" transform="matrix(0.965783 0.25935 -0.258289 0.966068 301.391 105.975)" fill="#43AA8B"/>
<ellipse cx="5.68871" cy="5.81204" rx="5.68871" ry="5.81204" transform="matrix(0.865549 -0.500824 -0.499177 -0.8665 254.625 182.087)" fill="#43AA8B"/>
<ellipse cx="5.68871" cy="5.81204" rx="5.68871" ry="5.81204" transform="matrix(0.865549 -0.500824 -0.499177 -0.8665 467.727 114.5)" fill="#43AA8B"/>
<ellipse cx="5.68642" cy="5.81437" rx="5.68642" ry="5.81437" transform="matrix(0.965783 0.25935 -0.258289 0.966068 443.945 167.318)" fill="#43AA8B"/>
<ellipse cx="5.68642" cy="5.81437" rx="5.68642" ry="5.81437" transform="matrix(0.965783 0.25935 -0.258289 0.966068 361.031 166.699)" fill="#43AA8B"/>
<ellipse cx="5.68642" cy="5.81437" rx="5.68642" ry="5.81437" transform="matrix(-0.965783 -0.25935 0.258289 -0.966068 444.746 247.712)" fill="#90BE6D"/>
<ellipse cx="5.68642" cy="5.81437" rx="5.68642" ry="5.81437" transform="matrix(-0.965783 -0.25935 0.258289 -0.966068 158.355 262.391)" fill="#90BE6D"/>
<ellipse cx="5.68642" cy="5.81437" rx="5.68642" ry="5.81437" transform="matrix(-0.965783 -0.25935 0.258289 -0.966068 277.594 232.798)" fill="#90BE6D"/>
<ellipse cx="5.68642" cy="5.81437" rx="5.68642" ry="5.81437" transform="matrix(-0.965783 -0.25935 0.258289 -0.966068 103.156 257.559)" fill="#90BE6D"/>
<ellipse cx="5.69495" cy="5.80566" rx="5.69495" ry="5.80566" transform="matrix(0.499177 0.8665 -0.865549 0.500824 185.02 104.298)" fill="#90BE6D"/>
<ellipse cx="5.69495" cy="5.80566" rx="5.69495" ry="5.80566" transform="matrix(0.499177 0.8665 -0.865549 0.500824 200.051 127.174)" fill="#90BE6D"/>
<ellipse cx="5.68642" cy="5.81437" rx="5.68642" ry="5.81437" transform="matrix(0.965783 0.25935 0.258289 -0.966068 126.984 87.4458)" fill="#90BE6D"/>
<ellipse cx="5.68642" cy="5.81437" rx="5.68642" ry="5.81437" transform="matrix(0.965783 0.25935 0.258289 -0.966068 181.539 200.343)" fill="#90BE6D"/>
<ellipse cx="5.68642" cy="5.81437" rx="5.68642" ry="5.81437" transform="matrix(0.965783 0.25935 0.258289 -0.966068 365.602 251.437)" fill="#90BE6D"/>
<ellipse cx="5.68642" cy="5.81437" rx="5.68642" ry="5.81437" transform="matrix(0.965783 0.25935 0.258289 -0.966068 381.988 295.802)" fill="#90BE6D"/>
<ellipse cx="5.68642" cy="5.81437" rx="5.68642" ry="5.81437" transform="matrix(0.965783 0.25935 0.258289 -0.966068 293.488 210.424)" fill="#90BE6D"/>
<ellipse cx="5.68871" cy="5.81204" rx="5.68871" ry="5.81204" transform="matrix(-0.865549 0.500824 0.499177 0.8665 484.672 172.253)" fill="#90BE6D"/>
<ellipse cx="5.68871" cy="5.81204" rx="5.68871" ry="5.81204" transform="matrix(-0.865549 0.500824 0.499177 0.8665 437.77 145.528)" fill="#90BE6D"/>
<ellipse cx="5.69495" cy="5.80566" rx="5.69495" ry="5.80566" transform="matrix(0.499177 0.8665 -0.865549 0.500824 292.691 233.298)" fill="#90BE6D"/>
<ellipse cx="5.69183" cy="5.80885" rx="5.69183" ry="5.80885" transform="matrix(-0.70633 -0.707883 0.70633 -0.707883 114.656 89.2767)" fill="#F94144"/>
<circle cx="40.5" cy="373.5" r="4.5" fill="#F94144"/>
<path d="M54.3125 379V367.625H58.0391C59.2839 367.625 60.237 367.94 60.8984 368.57C61.5651 369.195 61.8984 370.026 61.8984 371.062C61.8984 372.104 61.5651 372.945 60.8984 373.586C60.237 374.221 59.2839 374.539 58.0391 374.539H55.7891V379H54.3125ZM55.7891 373.32H58.0391C58.9245 373.32 59.5443 373.102 59.8984 372.664C60.2526 372.227 60.4297 371.693 60.4297 371.062C60.4297 370.438 60.2526 369.911 59.8984 369.484C59.5443 369.052 58.9245 368.836 58.0391 368.836H55.7891V373.32ZM63.4453 379V370.828H64.7344L64.7891 371.883H64.8359C65.0443 371.539 65.3177 371.24 65.6562 370.984C65.9948 370.729 66.3984 370.602 66.8672 370.602C66.9818 370.602 67.1016 370.615 67.2266 370.641C67.3516 370.661 67.4401 370.682 67.4922 370.703V372.023C67.388 372.003 67.2786 371.987 67.1641 371.977C67.0495 371.966 66.9245 371.961 66.7891 371.961C66.3255 371.961 65.9271 372.083 65.5938 372.328C65.2656 372.573 65.0234 372.88 64.8672 373.25V379H63.4453ZM68.2188 375.039V374.789C68.2188 373.555 68.5677 372.549 69.2656 371.773C69.9635 370.992 70.8958 370.602 72.0625 370.602C73.2292 370.602 74.1615 370.992 74.8594 371.773C75.5573 372.549 75.9062 373.555 75.9062 374.789V375.039C75.9062 376.273 75.5573 377.281 74.8594 378.062C74.1615 378.844 73.2292 379.234 72.0625 379.234C70.8958 379.234 69.9635 378.844 69.2656 378.062C68.5677 377.281 68.2188 376.273 68.2188 375.039ZM69.6719 374.789V375.039C69.6719 375.888 69.8724 376.604 70.2734 377.188C70.6745 377.771 71.2708 378.062 72.0625 378.062C72.8542 378.062 73.4479 377.771 73.8438 377.188C74.2448 376.604 74.4453 375.888 74.4453 375.039V374.789C74.4453 373.94 74.2448 373.224 73.8438 372.641C73.4479 372.057 72.8542 371.766 72.0625 371.766C71.2708 371.766 70.6745 372.057 70.2734 372.641C69.8724 373.224 69.6719 373.94 69.6719 374.789ZM77.2188 375.039V374.789C77.2188 373.596 77.5286 372.612 78.1484 371.836C78.7682 371.06 79.5964 370.672 80.6328 370.672C81.2005 370.672 81.6849 370.776 82.0859 370.984C82.4922 371.188 82.8125 371.456 83.0469 371.789V367.031H84.4766V379H83.1875L83.125 377.93H83.0781C82.8698 378.268 82.5521 378.557 82.125 378.797C81.6979 379.036 81.2005 379.156 80.6328 379.156C79.5964 379.156 78.7682 378.768 78.1484 377.992C77.5286 377.216 77.2188 376.232 77.2188 375.039ZM78.6719 375.039C78.6719 375.872 78.8542 376.573 79.2188 377.141C79.5833 377.703 80.1562 377.984 80.9375 377.984C81.4583 377.984 81.901 377.844 82.2656 377.562C82.6302 377.276 82.8906 376.951 83.0469 376.586V373.242C82.8906 372.878 82.6302 372.555 82.2656 372.273C81.901 371.987 81.4583 371.844 80.9375 371.844C80.1562 371.844 79.5833 372.128 79.2188 372.695C78.8542 373.258 78.6719 373.956 78.6719 374.789V375.039ZM86.6953 376.109V370.828H88.1172V376.125C88.1172 376.781 88.263 377.253 88.5547 377.539C88.8516 377.82 89.2708 377.961 89.8125 377.961C90.276 377.961 90.6823 377.836 91.0312 377.586C91.3854 377.331 91.6641 377.005 91.8672 376.609V370.828H93.2891V379H92L91.9375 377.945H91.8984C91.6016 378.32 91.2396 378.617 90.8125 378.836C90.3854 379.049 89.9115 379.156 89.3906 379.156C88.5677 379.156 87.9115 378.922 87.4219 378.453C86.9375 377.984 86.6953 377.203 86.6953 376.109ZM95.0938 375.039V374.789C95.0938 373.555 95.4271 372.549 96.0938 371.773C96.7656 370.992 97.6849 370.602 98.8516 370.602C99.9401 370.602 100.766 370.893 101.328 371.477C101.891 372.06 102.172 372.719 102.172 373.453V373.492H100.789V373.453C100.789 373.005 100.635 372.612 100.328 372.273C100.021 371.935 99.5312 371.766 98.8594 371.766C98.0677 371.766 97.4844 372.057 97.1094 372.641C96.7344 373.219 96.5469 373.935 96.5469 374.789V375.039C96.5469 375.888 96.7344 376.604 97.1094 377.188C97.4844 377.771 98.0651 378.062 98.8516 378.062C99.5286 378.062 100.021 377.893 100.328 377.555C100.635 377.216 100.789 376.823 100.789 376.375V376.336H102.172V376.375C102.172 377.104 101.891 377.763 101.328 378.352C100.766 378.94 99.9401 379.234 98.8516 379.234C97.6849 379.234 96.7656 378.844 96.0938 378.062C95.4271 377.281 95.0938 376.273 95.0938 375.039ZM102.703 371.922V370.828H107.352V371.922H102.703ZM104.164 376.969V371.484V371.258V368.766H105.586V376.969C105.586 377.344 105.659 377.609 105.805 377.766C105.956 377.922 106.188 378 106.5 378C106.646 378 106.786 377.987 106.922 377.961C107.062 377.93 107.206 377.888 107.352 377.836V379C107.216 379.062 107.042 379.117 106.828 379.164C106.615 379.211 106.378 379.234 106.117 379.234C105.523 379.234 105.049 379.055 104.695 378.695C104.341 378.331 104.164 377.755 104.164 376.969ZM115.773 379V369.234L112.906 370.438V369.008L117 367.469H117.25V379H115.773Z" fill="black"/>
<circle cx="135.5" cy="373.5" r="4.5" fill="#F3722C"/>
<path d="M149.312 379V367.625H153.039C154.284 367.625 155.237 367.94 155.898 368.57C156.565 369.195 156.898 370.026 156.898 371.062C156.898 372.104 156.565 372.945 155.898 373.586C155.237 374.221 154.284 374.539 153.039 374.539H150.789V379H149.312ZM150.789 373.32H153.039C153.924 373.32 154.544 373.102 154.898 372.664C155.253 372.227 155.43 371.693 155.43 371.062C155.43 370.438 155.253 369.911 154.898 369.484C154.544 369.052 153.924 368.836 153.039 368.836H150.789V373.32ZM158.445 379V370.828H159.734L159.789 371.883H159.836C160.044 371.539 160.318 371.24 160.656 370.984C160.995 370.729 161.398 370.602 161.867 370.602C161.982 370.602 162.102 370.615 162.227 370.641C162.352 370.661 162.44 370.682 162.492 370.703V372.023C162.388 372.003 162.279 371.987 162.164 371.977C162.049 371.966 161.924 371.961 161.789 371.961C161.326 371.961 160.927 372.083 160.594 372.328C160.266 372.573 160.023 372.88 159.867 373.25V379H158.445ZM163.219 375.039V374.789C163.219 373.555 163.568 372.549 164.266 371.773C164.964 370.992 165.896 370.602 167.062 370.602C168.229 370.602 169.161 370.992 169.859 371.773C170.557 372.549 170.906 373.555 170.906 374.789V375.039C170.906 376.273 170.557 377.281 169.859 378.062C169.161 378.844 168.229 379.234 167.062 379.234C165.896 379.234 164.964 378.844 164.266 378.062C163.568 377.281 163.219 376.273 163.219 375.039ZM164.672 374.789V375.039C164.672 375.888 164.872 376.604 165.273 377.188C165.674 377.771 166.271 378.062 167.062 378.062C167.854 378.062 168.448 377.771 168.844 377.188C169.245 376.604 169.445 375.888 169.445 375.039V374.789C169.445 373.94 169.245 373.224 168.844 372.641C168.448 372.057 167.854 371.766 167.062 371.766C166.271 371.766 165.674 372.057 165.273 372.641C164.872 373.224 164.672 373.94 164.672 374.789ZM172.219 375.039V374.789C172.219 373.596 172.529 372.612 173.148 371.836C173.768 371.06 174.596 370.672 175.633 370.672C176.201 370.672 176.685 370.776 177.086 370.984C177.492 371.188 177.812 371.456 178.047 371.789V367.031H179.477V379H178.188L178.125 377.93H178.078C177.87 378.268 177.552 378.557 177.125 378.797C176.698 379.036 176.201 379.156 175.633 379.156C174.596 379.156 173.768 378.768 173.148 377.992C172.529 377.216 172.219 376.232 172.219 375.039ZM173.672 375.039C173.672 375.872 173.854 376.573 174.219 377.141C174.583 377.703 175.156 377.984 175.938 377.984C176.458 377.984 176.901 377.844 177.266 377.562C177.63 377.276 177.891 376.951 178.047 376.586V373.242C177.891 372.878 177.63 372.555 177.266 372.273C176.901 371.987 176.458 371.844 175.938 371.844C175.156 371.844 174.583 372.128 174.219 372.695C173.854 373.258 173.672 373.956 173.672 374.789V375.039ZM181.695 376.109V370.828H183.117V376.125C183.117 376.781 183.263 377.253 183.555 377.539C183.852 377.82 184.271 377.961 184.812 377.961C185.276 377.961 185.682 377.836 186.031 377.586C186.385 377.331 186.664 377.005 186.867 376.609V370.828H188.289V379H187L186.938 377.945H186.898C186.602 378.32 186.24 378.617 185.812 378.836C185.385 379.049 184.911 379.156 184.391 379.156C183.568 379.156 182.911 378.922 182.422 378.453C181.938 377.984 181.695 377.203 181.695 376.109ZM190.094 375.039V374.789C190.094 373.555 190.427 372.549 191.094 371.773C191.766 370.992 192.685 370.602 193.852 370.602C194.94 370.602 195.766 370.893 196.328 371.477C196.891 372.06 197.172 372.719 197.172 373.453V373.492H195.789V373.453C195.789 373.005 195.635 372.612 195.328 372.273C195.021 371.935 194.531 371.766 193.859 371.766C193.068 371.766 192.484 372.057 192.109 372.641C191.734 373.219 191.547 373.935 191.547 374.789V375.039C191.547 375.888 191.734 376.604 192.109 377.188C192.484 377.771 193.065 378.062 193.852 378.062C194.529 378.062 195.021 377.893 195.328 377.555C195.635 377.216 195.789 376.823 195.789 376.375V376.336H197.172V376.375C197.172 377.104 196.891 377.763 196.328 378.352C195.766 378.94 194.94 379.234 193.852 379.234C192.685 379.234 191.766 378.844 191.094 378.062C190.427 377.281 190.094 376.273 190.094 375.039ZM197.703 371.922V370.828H202.352V371.922H197.703ZM199.164 376.969V371.484V371.258V368.766H200.586V376.969C200.586 377.344 200.659 377.609 200.805 377.766C200.956 377.922 201.188 378 201.5 378C201.646 378 201.786 377.987 201.922 377.961C202.062 377.93 202.206 377.888 202.352 377.836V379C202.216 379.062 202.042 379.117 201.828 379.164C201.615 379.211 201.378 379.234 201.117 379.234C200.523 379.234 200.049 379.055 199.695 378.695C199.341 378.331 199.164 377.755 199.164 376.969ZM207.438 379V377.93L211.477 373.531C212.013 372.964 212.419 372.456 212.695 372.008C212.977 371.56 213.117 371.076 213.117 370.555C213.117 370.023 212.94 369.568 212.586 369.188C212.232 368.802 211.742 368.609 211.117 368.609C210.492 368.609 209.964 368.815 209.531 369.227C209.104 369.633 208.891 370.203 208.891 370.938V371.016H207.438V370.938C207.438 369.896 207.789 369.044 208.492 368.383C209.201 367.721 210.076 367.391 211.117 367.391C212.148 367.391 212.982 367.695 213.617 368.305C214.253 368.914 214.57 369.638 214.57 370.477C214.57 371.211 214.365 371.88 213.953 372.484C213.542 373.083 213.036 373.701 212.438 374.336L209.258 377.727H214.883V379H207.438Z" fill="black"/>
<circle cx="230.5" cy="373.5" r="4.5" fill="#F8961E"/>
<path d="M244.312 379V367.625H248.039C249.284 367.625 250.237 367.94 250.898 368.57C251.565 369.195 251.898 370.026 251.898 371.062C251.898 372.104 251.565 372.945 250.898 373.586C250.237 374.221 249.284 374.539 248.039 374.539H245.789V379H244.312ZM245.789 373.32H248.039C248.924 373.32 249.544 373.102 249.898 372.664C250.253 372.227 250.43 371.693 250.43 371.062C250.43 370.438 250.253 369.911 249.898 369.484C249.544 369.052 248.924 368.836 248.039 368.836H245.789V373.32ZM253.445 379V370.828H254.734L254.789 371.883H254.836C255.044 371.539 255.318 371.24 255.656 370.984C255.995 370.729 256.398 370.602 256.867 370.602C256.982 370.602 257.102 370.615 257.227 370.641C257.352 370.661 257.44 370.682 257.492 370.703V372.023C257.388 372.003 257.279 371.987 257.164 371.977C257.049 371.966 256.924 371.961 256.789 371.961C256.326 371.961 255.927 372.083 255.594 372.328C255.266 372.573 255.023 372.88 254.867 373.25V379H253.445ZM258.219 375.039V374.789C258.219 373.555 258.568 372.549 259.266 371.773C259.964 370.992 260.896 370.602 262.062 370.602C263.229 370.602 264.161 370.992 264.859 371.773C265.557 372.549 265.906 373.555 265.906 374.789V375.039C265.906 376.273 265.557 377.281 264.859 378.062C264.161 378.844 263.229 379.234 262.062 379.234C260.896 379.234 259.964 378.844 259.266 378.062C258.568 377.281 258.219 376.273 258.219 375.039ZM259.672 374.789V375.039C259.672 375.888 259.872 376.604 260.273 377.188C260.674 377.771 261.271 378.062 262.062 378.062C262.854 378.062 263.448 377.771 263.844 377.188C264.245 376.604 264.445 375.888 264.445 375.039V374.789C264.445 373.94 264.245 373.224 263.844 372.641C263.448 372.057 262.854 371.766 262.062 371.766C261.271 371.766 260.674 372.057 260.273 372.641C259.872 373.224 259.672 373.94 259.672 374.789ZM267.219 375.039V374.789C267.219 373.596 267.529 372.612 268.148 371.836C268.768 371.06 269.596 370.672 270.633 370.672C271.201 370.672 271.685 370.776 272.086 370.984C272.492 371.188 272.812 371.456 273.047 371.789V367.031H274.477V379H273.188L273.125 377.93H273.078C272.87 378.268 272.552 378.557 272.125 378.797C271.698 379.036 271.201 379.156 270.633 379.156C269.596 379.156 268.768 378.768 268.148 377.992C267.529 377.216 267.219 376.232 267.219 375.039ZM268.672 375.039C268.672 375.872 268.854 376.573 269.219 377.141C269.583 377.703 270.156 377.984 270.938 377.984C271.458 377.984 271.901 377.844 272.266 377.562C272.63 377.276 272.891 376.951 273.047 376.586V373.242C272.891 372.878 272.63 372.555 272.266 372.273C271.901 371.987 271.458 371.844 270.938 371.844C270.156 371.844 269.583 372.128 269.219 372.695C268.854 373.258 268.672 373.956 268.672 374.789V375.039ZM276.695 376.109V370.828H278.117V376.125C278.117 376.781 278.263 377.253 278.555 377.539C278.852 377.82 279.271 377.961 279.812 377.961C280.276 377.961 280.682 377.836 281.031 377.586C281.385 377.331 281.664 377.005 281.867 376.609V370.828H283.289V379H282L281.938 377.945H281.898C281.602 378.32 281.24 378.617 280.812 378.836C280.385 379.049 279.911 379.156 279.391 379.156C278.568 379.156 277.911 378.922 277.422 378.453C276.938 377.984 276.695 377.203 276.695 376.109ZM285.094 375.039V374.789C285.094 373.555 285.427 372.549 286.094 371.773C286.766 370.992 287.685 370.602 288.852 370.602C289.94 370.602 290.766 370.893 291.328 371.477C291.891 372.06 292.172 372.719 292.172 373.453V373.492H290.789V373.453C290.789 373.005 290.635 372.612 290.328 372.273C290.021 371.935 289.531 371.766 288.859 371.766C288.068 371.766 287.484 372.057 287.109 372.641C286.734 373.219 286.547 373.935 286.547 374.789V375.039C286.547 375.888 286.734 376.604 287.109 377.188C287.484 377.771 288.065 378.062 288.852 378.062C289.529 378.062 290.021 377.893 290.328 377.555C290.635 377.216 290.789 376.823 290.789 376.375V376.336H292.172V376.375C292.172 377.104 291.891 377.763 291.328 378.352C290.766 378.94 289.94 379.234 288.852 379.234C287.685 379.234 286.766 378.844 286.094 378.062C285.427 377.281 285.094 376.273 285.094 375.039ZM292.703 371.922V370.828H297.352V371.922H292.703ZM294.164 376.969V371.484V371.258V368.766H295.586V376.969C295.586 377.344 295.659 377.609 295.805 377.766C295.956 377.922 296.188 378 296.5 378C296.646 378 296.786 377.987 296.922 377.961C297.062 377.93 297.206 377.888 297.352 377.836V379C297.216 379.062 297.042 379.117 296.828 379.164C296.615 379.211 296.378 379.234 296.117 379.234C295.523 379.234 295.049 379.055 294.695 378.695C294.341 378.331 294.164 377.755 294.164 376.969ZM302.203 376.031V375.953H303.633V376.031C303.633 376.667 303.841 377.156 304.258 377.5C304.674 377.844 305.227 378.016 305.914 378.016C306.602 378.016 307.151 377.844 307.562 377.5C307.974 377.151 308.18 376.609 308.18 375.875C308.18 375.141 307.948 374.589 307.484 374.219C307.021 373.849 306.398 373.664 305.617 373.664H304.703V372.477H305.539C306.253 372.477 306.805 372.302 307.195 371.953C307.591 371.604 307.789 371.112 307.789 370.477C307.789 369.846 307.62 369.378 307.281 369.07C306.943 368.763 306.487 368.609 305.914 368.609C305.305 368.609 304.823 368.766 304.469 369.078C304.115 369.385 303.938 369.828 303.938 370.406V370.484H302.516V370.406C302.516 369.568 302.828 368.857 303.453 368.273C304.083 367.685 304.904 367.391 305.914 367.391C306.893 367.391 307.695 367.672 308.32 368.234C308.951 368.792 309.266 369.513 309.266 370.398C309.266 370.935 309.12 371.443 308.828 371.922C308.542 372.396 308.099 372.76 307.5 373.016V373.047C308.151 373.214 308.674 373.544 309.07 374.039C309.466 374.529 309.664 375.141 309.664 375.875C309.664 376.917 309.31 377.737 308.602 378.336C307.898 378.935 307.003 379.234 305.914 379.234C304.768 379.234 303.862 378.935 303.195 378.336C302.534 377.737 302.203 376.969 302.203 376.031Z" fill="black"/>
<circle cx="40.5" cy="402.5" r="4.5" fill="#90BE6D"/>
<path d="M54.3125 408V396.625H58.0391C59.2839 396.625 60.237 396.94 60.8984 397.57C61.5651 398.195 61.8984 399.026 61.8984 400.062C61.8984 401.104 61.5651 401.945 60.8984 402.586C60.237 403.221 59.2839 403.539 58.0391 403.539H55.7891V408H54.3125ZM55.7891 402.32H58.0391C58.9245 402.32 59.5443 402.102 59.8984 401.664C60.2526 401.227 60.4297 400.693 60.4297 400.062C60.4297 399.438 60.2526 398.911 59.8984 398.484C59.5443 398.052 58.9245 397.836 58.0391 397.836H55.7891V402.32ZM63.4453 408V399.828H64.7344L64.7891 400.883H64.8359C65.0443 400.539 65.3177 400.24 65.6562 399.984C65.9948 399.729 66.3984 399.602 66.8672 399.602C66.9818 399.602 67.1016 399.615 67.2266 399.641C67.3516 399.661 67.4401 399.682 67.4922 399.703V401.023C67.388 401.003 67.2786 400.987 67.1641 400.977C67.0495 400.966 66.9245 400.961 66.7891 400.961C66.3255 400.961 65.9271 401.083 65.5938 401.328C65.2656 401.573 65.0234 401.88 64.8672 402.25V408H63.4453ZM68.2188 404.039V403.789C68.2188 402.555 68.5677 401.549 69.2656 400.773C69.9635 399.992 70.8958 399.602 72.0625 399.602C73.2292 399.602 74.1615 399.992 74.8594 400.773C75.5573 401.549 75.9062 402.555 75.9062 403.789V404.039C75.9062 405.273 75.5573 406.281 74.8594 407.062C74.1615 407.844 73.2292 408.234 72.0625 408.234C70.8958 408.234 69.9635 407.844 69.2656 407.062C68.5677 406.281 68.2188 405.273 68.2188 404.039ZM69.6719 403.789V404.039C69.6719 404.888 69.8724 405.604 70.2734 406.188C70.6745 406.771 71.2708 407.062 72.0625 407.062C72.8542 407.062 73.4479 406.771 73.8438 406.188C74.2448 405.604 74.4453 404.888 74.4453 404.039V403.789C74.4453 402.94 74.2448 402.224 73.8438 401.641C73.4479 401.057 72.8542 400.766 72.0625 400.766C71.2708 400.766 70.6745 401.057 70.2734 401.641C69.8724 402.224 69.6719 402.94 69.6719 403.789ZM77.2188 404.039V403.789C77.2188 402.596 77.5286 401.612 78.1484 400.836C78.7682 400.06 79.5964 399.672 80.6328 399.672C81.2005 399.672 81.6849 399.776 82.0859 399.984C82.4922 400.188 82.8125 400.456 83.0469 400.789V396.031H84.4766V408H83.1875L83.125 406.93H83.0781C82.8698 407.268 82.5521 407.557 82.125 407.797C81.6979 408.036 81.2005 408.156 80.6328 408.156C79.5964 408.156 78.7682 407.768 78.1484 406.992C77.5286 406.216 77.2188 405.232 77.2188 404.039ZM78.6719 404.039C78.6719 404.872 78.8542 405.573 79.2188 406.141C79.5833 406.703 80.1562 406.984 80.9375 406.984C81.4583 406.984 81.901 406.844 82.2656 406.562C82.6302 406.276 82.8906 405.951 83.0469 405.586V402.242C82.8906 401.878 82.6302 401.555 82.2656 401.273C81.901 400.987 81.4583 400.844 80.9375 400.844C80.1562 400.844 79.5833 401.128 79.2188 401.695C78.8542 402.258 78.6719 402.956 78.6719 403.789V404.039ZM86.6953 405.109V399.828H88.1172V405.125C88.1172 405.781 88.263 406.253 88.5547 406.539C88.8516 406.82 89.2708 406.961 89.8125 406.961C90.276 406.961 90.6823 406.836 91.0312 406.586C91.3854 406.331 91.6641 406.005 91.8672 405.609V399.828H93.2891V408H92L91.9375 406.945H91.8984C91.6016 407.32 91.2396 407.617 90.8125 407.836C90.3854 408.049 89.9115 408.156 89.3906 408.156C88.5677 408.156 87.9115 407.922 87.4219 407.453C86.9375 406.984 86.6953 406.203 86.6953 405.109ZM95.0938 404.039V403.789C95.0938 402.555 95.4271 401.549 96.0938 400.773C96.7656 399.992 97.6849 399.602 98.8516 399.602C99.9401 399.602 100.766 399.893 101.328 400.477C101.891 401.06 102.172 401.719 102.172 402.453V402.492H100.789V402.453C100.789 402.005 100.635 401.612 100.328 401.273C100.021 400.935 99.5312 400.766 98.8594 400.766C98.0677 400.766 97.4844 401.057 97.1094 401.641C96.7344 402.219 96.5469 402.935 96.5469 403.789V404.039C96.5469 404.888 96.7344 405.604 97.1094 406.188C97.4844 406.771 98.0651 407.062 98.8516 407.062C99.5286 407.062 100.021 406.893 100.328 406.555C100.635 406.216 100.789 405.823 100.789 405.375V405.336H102.172V405.375C102.172 406.104 101.891 406.763 101.328 407.352C100.766 407.94 99.9401 408.234 98.8516 408.234C97.6849 408.234 96.7656 407.844 96.0938 407.062C95.4271 406.281 95.0938 405.273 95.0938 404.039ZM102.703 400.922V399.828H107.352V400.922H102.703ZM104.164 405.969V400.484V400.258V397.766H105.586V405.969C105.586 406.344 105.659 406.609 105.805 406.766C105.956 406.922 106.188 407 106.5 407C106.646 407 106.786 406.987 106.922 406.961C107.062 406.93 107.206 406.888 107.352 406.836V408C107.216 408.062 107.042 408.117 106.828 408.164C106.615 408.211 106.378 408.234 106.117 408.234C105.523 408.234 105.049 408.055 104.695 407.695C104.341 407.331 104.164 406.755 104.164 405.969ZM117.195 408V404.891V404.5V398.992H117.102L113.648 404.109H117.586H118.172H120.164V405.328H111.969V404.352L117.258 396.625H118.578V408H117.195Z" fill="black"/>
<circle cx="135.5" cy="402.5" r="4.5" fill="#43AA8B"/>
<path d="M149.312 408V396.625H153.039C154.284 396.625 155.237 396.94 155.898 397.57C156.565 398.195 156.898 399.026 156.898 400.062C156.898 401.104 156.565 401.945 155.898 402.586C155.237 403.221 154.284 403.539 153.039 403.539H150.789V408H149.312ZM150.789 402.32H153.039C153.924 402.32 154.544 402.102 154.898 401.664C155.253 401.227 155.43 400.693 155.43 400.062C155.43 399.438 155.253 398.911 154.898 398.484C154.544 398.052 153.924 397.836 153.039 397.836H150.789V402.32ZM158.445 408V399.828H159.734L159.789 400.883H159.836C160.044 400.539 160.318 400.24 160.656 399.984C160.995 399.729 161.398 399.602 161.867 399.602C161.982 399.602 162.102 399.615 162.227 399.641C162.352 399.661 162.44 399.682 162.492 399.703V401.023C162.388 401.003 162.279 400.987 162.164 400.977C162.049 400.966 161.924 400.961 161.789 400.961C161.326 400.961 160.927 401.083 160.594 401.328C160.266 401.573 160.023 401.88 159.867 402.25V408H158.445ZM163.219 404.039V403.789C163.219 402.555 163.568 401.549 164.266 400.773C164.964 399.992 165.896 399.602 167.062 399.602C168.229 399.602 169.161 399.992 169.859 400.773C170.557 401.549 170.906 402.555 170.906 403.789V404.039C170.906 405.273 170.557 406.281 169.859 407.062C169.161 407.844 168.229 408.234 167.062 408.234C165.896 408.234 164.964 407.844 164.266 407.062C163.568 406.281 163.219 405.273 163.219 404.039ZM164.672 403.789V404.039C164.672 404.888 164.872 405.604 165.273 406.188C165.674 406.771 166.271 407.062 167.062 407.062C167.854 407.062 168.448 406.771 168.844 406.188C169.245 405.604 169.445 404.888 169.445 404.039V403.789C169.445 402.94 169.245 402.224 168.844 401.641C168.448 401.057 167.854 400.766 167.062 400.766C166.271 400.766 165.674 401.057 165.273 401.641C164.872 402.224 164.672 402.94 164.672 403.789ZM172.219 404.039V403.789C172.219 402.596 172.529 401.612 173.148 400.836C173.768 400.06 174.596 399.672 175.633 399.672C176.201 399.672 176.685 399.776 177.086 399.984C177.492 400.188 177.812 400.456 178.047 400.789V396.031H179.477V408H178.188L178.125 406.93H178.078C177.87 407.268 177.552 407.557 177.125 407.797C176.698 408.036 176.201 408.156 175.633 408.156C174.596 408.156 173.768 407.768 173.148 406.992C172.529 406.216 172.219 405.232 172.219 404.039ZM173.672 404.039C173.672 404.872 173.854 405.573 174.219 406.141C174.583 406.703 175.156 406.984 175.938 406.984C176.458 406.984 176.901 406.844 177.266 406.562C177.63 406.276 177.891 405.951 178.047 405.586V402.242C177.891 401.878 177.63 401.555 177.266 401.273C176.901 400.987 176.458 400.844 175.938 400.844C175.156 400.844 174.583 401.128 174.219 401.695C173.854 402.258 173.672 402.956 173.672 403.789V404.039ZM181.695 405.109V399.828H183.117V405.125C183.117 405.781 183.263 406.253 183.555 406.539C183.852 406.82 184.271 406.961 184.812 406.961C185.276 406.961 185.682 406.836 186.031 406.586C186.385 406.331 186.664 406.005 186.867 405.609V399.828H188.289V408H187L186.938 406.945H186.898C186.602 407.32 186.24 407.617 185.812 407.836C185.385 408.049 184.911 408.156 184.391 408.156C183.568 408.156 182.911 407.922 182.422 407.453C181.938 406.984 181.695 406.203 181.695 405.109ZM190.094 404.039V403.789C190.094 402.555 190.427 401.549 191.094 400.773C191.766 399.992 192.685 399.602 193.852 399.602C194.94 399.602 195.766 399.893 196.328 400.477C196.891 401.06 197.172 401.719 197.172 402.453V402.492H195.789V402.453C195.789 402.005 195.635 401.612 195.328 401.273C195.021 400.935 194.531 400.766 193.859 400.766C193.068 400.766 192.484 401.057 192.109 401.641C191.734 402.219 191.547 402.935 191.547 403.789V404.039C191.547 404.888 191.734 405.604 192.109 406.188C192.484 406.771 193.065 407.062 193.852 407.062C194.529 407.062 195.021 406.893 195.328 406.555C195.635 406.216 195.789 405.823 195.789 405.375V405.336H197.172V405.375C197.172 406.104 196.891 406.763 196.328 407.352C195.766 407.94 194.94 408.234 193.852 408.234C192.685 408.234 191.766 407.844 191.094 407.062C190.427 406.281 190.094 405.273 190.094 404.039ZM197.703 400.922V399.828H202.352V400.922H197.703ZM199.164 405.969V400.484V400.258V397.766H200.586V405.969C200.586 406.344 200.659 406.609 200.805 406.766C200.956 406.922 201.188 407 201.5 407C201.646 407 201.786 406.987 201.922 406.961C202.062 406.93 202.206 406.888 202.352 406.836V408C202.216 408.062 202.042 408.117 201.828 408.164C201.615 408.211 201.378 408.234 201.117 408.234C200.523 408.234 200.049 408.055 199.695 407.695C199.341 407.331 199.164 406.755 199.164 405.969ZM207.352 405.148V405.062H208.766V405.148C208.766 405.727 208.969 406.182 209.375 406.516C209.781 406.849 210.323 407.016 211 407.016C211.677 407.016 212.232 406.786 212.664 406.328C213.096 405.865 213.312 405.211 213.312 404.367C213.312 403.523 213.096 402.885 212.664 402.453C212.237 402.016 211.685 401.797 211.008 401.797C210.539 401.797 210.122 401.883 209.758 402.055C209.398 402.221 209.065 402.461 208.758 402.773L207.742 402.305L208.32 396.625H214.18V397.93H209.516L209.172 401.18C209.427 401.018 209.729 400.878 210.078 400.758C210.432 400.633 210.82 400.57 211.242 400.57C212.221 400.57 213.055 400.904 213.742 401.57C214.43 402.232 214.773 403.164 214.773 404.367C214.773 405.57 214.417 406.516 213.703 407.203C212.99 407.891 212.089 408.234 211 408.234C209.844 408.234 208.945 407.943 208.305 407.359C207.669 406.776 207.352 406.039 207.352 405.148Z" fill="black"/>
<circle cx="230.5" cy="402.5" r="4.5" fill="#2D9CDB"/>
<path d="M244.312 408V396.625H248.039C249.284 396.625 250.237 396.94 250.898 397.57C251.565 398.195 251.898 399.026 251.898 400.062C251.898 401.104 251.565 401.945 250.898 402.586C250.237 403.221 249.284 403.539 248.039 403.539H245.789V408H244.312ZM245.789 402.32H248.039C248.924 402.32 249.544 402.102 249.898 401.664C250.253 401.227 250.43 400.693 250.43 400.062C250.43 399.438 250.253 398.911 249.898 398.484C249.544 398.052 248.924 397.836 248.039 397.836H245.789V402.32ZM253.445 408V399.828H254.734L254.789 400.883H254.836C255.044 400.539 255.318 400.24 255.656 399.984C255.995 399.729 256.398 399.602 256.867 399.602C256.982 399.602 257.102 399.615 257.227 399.641C257.352 399.661 257.44 399.682 257.492 399.703V401.023C257.388 401.003 257.279 400.987 257.164 400.977C257.049 400.966 256.924 400.961 256.789 400.961C256.326 400.961 255.927 401.083 255.594 401.328C255.266 401.573 255.023 401.88 254.867 402.25V408H253.445ZM258.219 404.039V403.789C258.219 402.555 258.568 401.549 259.266 400.773C259.964 399.992 260.896 399.602 262.062 399.602C263.229 399.602 264.161 399.992 264.859 400.773C265.557 401.549 265.906 402.555 265.906 403.789V404.039C265.906 405.273 265.557 406.281 264.859 407.062C264.161 407.844 263.229 408.234 262.062 408.234C260.896 408.234 259.964 407.844 259.266 407.062C258.568 406.281 258.219 405.273 258.219 404.039ZM259.672 403.789V404.039C259.672 404.888 259.872 405.604 260.273 406.188C260.674 406.771 261.271 407.062 262.062 407.062C262.854 407.062 263.448 406.771 263.844 406.188C264.245 405.604 264.445 404.888 264.445 404.039V403.789C264.445 402.94 264.245 402.224 263.844 401.641C263.448 401.057 262.854 400.766 262.062 400.766C261.271 400.766 260.674 401.057 260.273 401.641C259.872 402.224 259.672 402.94 259.672 403.789ZM267.219 404.039V403.789C267.219 402.596 267.529 401.612 268.148 400.836C268.768 400.06 269.596 399.672 270.633 399.672C271.201 399.672 271.685 399.776 272.086 399.984C272.492 400.188 272.812 400.456 273.047 400.789V396.031H274.477V408H273.188L273.125 406.93H273.078C272.87 407.268 272.552 407.557 272.125 407.797C271.698 408.036 271.201 408.156 270.633 408.156C269.596 408.156 268.768 407.768 268.148 406.992C267.529 406.216 267.219 405.232 267.219 404.039ZM268.672 404.039C268.672 404.872 268.854 405.573 269.219 406.141C269.583 406.703 270.156 406.984 270.938 406.984C271.458 406.984 271.901 406.844 272.266 406.562C272.63 406.276 272.891 405.951 273.047 405.586V402.242C272.891 401.878 272.63 401.555 272.266 401.273C271.901 400.987 271.458 400.844 270.938 400.844C270.156 400.844 269.583 401.128 269.219 401.695C268.854 402.258 268.672 402.956 268.672 403.789V404.039ZM276.695 405.109V399.828H278.117V405.125C278.117 405.781 278.263 406.253 278.555 406.539C278.852 406.82 279.271 406.961 279.812 406.961C280.276 406.961 280.682 406.836 281.031 406.586C281.385 406.331 281.664 406.005 281.867 405.609V399.828H283.289V408H282L281.938 406.945H281.898C281.602 407.32 281.24 407.617 280.812 407.836C280.385 408.049 279.911 408.156 279.391 408.156C278.568 408.156 277.911 407.922 277.422 407.453C276.938 406.984 276.695 406.203 276.695 405.109ZM285.094 404.039V403.789C285.094 402.555 285.427 401.549 286.094 400.773C286.766 399.992 287.685 399.602 288.852 399.602C289.94 399.602 290.766 399.893 291.328 400.477C291.891 401.06 292.172 401.719 292.172 402.453V402.492H290.789V402.453C290.789 402.005 290.635 401.612 290.328 401.273C290.021 400.935 289.531 400.766 288.859 400.766C288.068 400.766 287.484 401.057 287.109 401.641C286.734 402.219 286.547 402.935 286.547 403.789V404.039C286.547 404.888 286.734 405.604 287.109 406.188C287.484 406.771 288.065 407.062 288.852 407.062C289.529 407.062 290.021 406.893 290.328 406.555C290.635 406.216 290.789 405.823 290.789 405.375V405.336H292.172V405.375C292.172 406.104 291.891 406.763 291.328 407.352C290.766 407.94 289.94 408.234 288.852 408.234C287.685 408.234 286.766 407.844 286.094 407.062C285.427 406.281 285.094 405.273 285.094 404.039ZM292.703 400.922V399.828H297.352V400.922H292.703ZM294.164 405.969V400.484V400.258V397.766H295.586V405.969C295.586 406.344 295.659 406.609 295.805 406.766C295.956 406.922 296.188 407 296.5 407C296.646 407 296.786 406.987 296.922 406.961C297.062 406.93 297.206 406.888 297.352 406.836V408C297.216 408.062 297.042 408.117 296.828 408.164C296.615 408.211 296.378 408.234 296.117 408.234C295.523 408.234 295.049 408.055 294.695 407.695C294.341 407.331 294.164 406.755 294.164 405.969ZM302.273 403.203V402.969C302.273 400.984 302.805 399.393 303.867 398.195C304.93 396.992 306.44 396.391 308.398 396.391H308.555V397.609H308.398C306.951 397.609 305.807 398.034 304.969 398.883C304.13 399.732 303.711 401.07 303.711 402.898V403.281C303.711 404.641 303.948 405.604 304.422 406.172C304.901 406.734 305.505 407.016 306.234 407.016C306.958 407.016 307.521 406.786 307.922 406.328C308.323 405.87 308.523 405.219 308.523 404.375C308.523 403.542 308.323 402.898 307.922 402.445C307.526 401.992 306.964 401.766 306.234 401.766C305.557 401.766 304.958 401.992 304.438 402.445C303.922 402.898 303.664 403.542 303.664 404.375H303.125C303.125 403.234 303.435 402.312 304.055 401.609C304.68 400.901 305.508 400.547 306.539 400.547C307.576 400.547 308.409 400.901 309.039 401.609C309.669 402.312 309.984 403.234 309.984 404.375C309.984 405.521 309.63 406.451 308.922 407.164C308.214 407.878 307.318 408.234 306.234 408.234C305.146 408.234 304.214 407.839 303.438 407.047C302.661 406.255 302.273 404.974 302.273 403.203Z" fill="black"/>
</g>
<defs>
<filter id="filter0_dd_339_56398" x="0" y="0" width="600" height="456" filterUnits="userSpaceOnUse" color-interpolation-filters="sRGB">
<feFlood flood-opacity="0" result="BackgroundImageFix"/>
<feColorMatrix in="SourceAlpha" type="matrix" values="0 0 0 0 0 0 0 0 0 0 0 0 0 0 0 0 0 0 127 0" result="hardAlpha"/>
<feOffset dx="4" dy="4"/>
<feGaussianBlur stdDeviation="8"/>
<feComposite in2="hardAlpha" operator="out"/>
<feColorMatrix type="matrix" values="0 0 0 0 0.0156863 0 0 0 0 0.0627451 0 0 0 0 0.109804 0 0 0 0.2 0"/>
<feBlend mode="normal" in2="BackgroundImageFix" result="effect1_dropShadow_339_56398"/>
<feColorMatrix in="SourceAlpha" type="matrix" values="0 0 0 0 0 0 0 0 0 0 0 0 0 0 0 0 0 0 127 0" result="hardAlpha"/>
<feOffset dy="-4"/>
<feGaussianBlur stdDeviation="4"/>
<feComposite in2="hardAlpha" operator="out"/>
<feColorMatrix type="matrix" values="0 0 0 0 0.0156863 0 0 0 0 0.0627451 0 0 0 0 0.109804 0 0 0 0.1 0"/>
<feBlend mode="normal" in2="effect1_dropShadow_339_56398" result="effect2_dropShadow_339_56398"/>
<feBlend mode="normal" in="SourceGraphic" in2="effect2_dropShadow_339_56398" result="shape"/>
</filter>
</defs>
</svg>
