<svg width="40" height="40" viewBox="0 0 40 40" fill="none" xmlns="http://www.w3.org/2000/svg">
<path d="M19.8861 0.581055C9.28283 0.581055 0.607422 9.25646 0.607422 19.8597C0.607422 30.463 9.28283 39.1384 19.8861 39.1384C30.4894 39.1384 39.1648 30.463 39.1648 19.8597C39.1648 9.25646 30.4894 0.581055 19.8861 0.581055ZM19.8861 35.2827C11.4035 35.2827 4.46316 28.3424 4.46316 19.8597C4.46316 11.3771 11.4035 4.43679 19.8861 4.43679C28.3687 4.43679 35.3091 11.3771 35.3091 19.8597C35.3091 28.3424 28.3687 35.2827 19.8861 35.2827Z" fill="url(#paint0_radial_1940_576)"/>
<path d="M30.4894 26.4145C29.1399 25.065 27.5976 24.1011 25.8625 23.3299C27.212 21.7876 28.1759 19.8597 28.1759 17.5463C28.1759 12.9194 24.513 9.25646 19.8861 9.25646C15.2592 9.25646 11.5963 12.9194 11.5963 17.5463C11.5963 19.8597 12.5602 21.7876 13.9097 23.3299C12.1746 24.1011 10.6323 25.065 9.28283 26.4145C8.51168 27.1856 8.51168 28.3424 9.28283 29.1135C9.66841 29.4991 10.2468 29.6919 10.6323 29.6919C11.2107 29.6919 11.5963 29.4991 11.9818 29.1135C14.1025 26.9929 16.8015 25.8361 19.8861 25.8361C22.7779 25.8361 25.6697 26.9929 27.7904 29.1135C28.5615 29.8847 29.7182 29.8847 30.4894 29.1135C31.2605 28.3424 31.2605 27.1856 30.4894 26.4145ZM15.452 17.5463C15.452 15.0401 17.3799 13.1122 19.8861 13.1122C22.3923 13.1122 24.3202 15.0401 24.3202 17.5463C24.3202 20.0525 22.3923 21.9804 19.8861 21.9804C17.3799 21.9804 15.452 20.0525 15.452 17.5463Z" fill="url(#paint1_radial_1940_576)"/>
<defs>
<radialGradient id="paint0_radial_1940_576" cx="0" cy="0" r="1" gradientUnits="userSpaceOnUse" gradientTransform="translate(19.8861 19.8597) rotate(99.7276) scale(24.4499)">
<stop offset="0.338542" stop-color="#7A73FF"/>
<stop offset="0.734375" stop-color="#75CDFF"/>
<stop offset="1" stop-color="#4AFCF1"/>
</radialGradient>
<radialGradient id="paint1_radial_1940_576" cx="0" cy="0" r="1" gradientUnits="userSpaceOnUse" gradientTransform="translate(19.8861 19.8597) rotate(99.7276) scale(24.4499)">
<stop offset="0.338542" stop-color="#7A73FF"/>
<stop offset="0.734375" stop-color="#75CDFF"/>
<stop offset="1" stop-color="#4AFCF1"/>
</radialGradient>
</defs>
</svg>
