<svg width="788" height="874" viewBox="0 0 788 874" fill="none" xmlns="http://www.w3.org/2000/svg">
<rect x="394.5" y="309.5" width="67" height="67" rx="11.5" fill="#F9FBFF"/>
<rect x="394.5" y="309.5" width="67" height="67" rx="11.5" stroke="#ECECEC"/>
<path fill-rule="evenodd" clip-rule="evenodd" d="M428 359C436.837 359 444 351.837 444 343C444 337.866 441.582 333.297 437.823 330.37L435.181 328.698C433.022 327.612 430.582 327 428 327C419.163 327 412 334.163 412 343C412 351.837 419.163 359 428 359ZM435.181 328.698V336.292C433.317 334.202 430.622 332.889 427.625 332.889C421.999 332.889 417.437 337.517 417.437 343.226C417.437 348.935 421.999 353.563 427.625 353.563C430.622 353.563 433.317 352.25 435.181 350.16L435.107 352.311C435.097 352.614 435.339 352.864 435.642 352.864H437.358C437.654 352.864 437.893 352.624 437.892 352.328L437.823 330.37L435.181 328.698ZM435.606 343.226C435.606 347.525 432.166 351.01 427.922 351.01C423.679 351.01 420.239 347.525 420.239 343.226C420.239 338.927 423.679 335.441 427.922 335.441C432.166 335.441 435.606 338.927 435.606 343.226Z" fill="#ECECEC"/>
<rect x="394.5" y="169.5" width="67" height="67" rx="11.5" fill="#F9FBFF"/>
<rect x="394.5" y="169.5" width="67" height="67" rx="11.5" stroke="#ECECEC"/>
<path d="M434.409 209.045C433.864 209.045 433.455 208.773 433.182 208.364L431.546 205.5C430.864 204 429.501 202.636 428.001 201.818L425.137 200.182C424.728 200.045 424.455 199.5 424.455 199.091C424.455 198.545 424.728 198.136 425.137 197.864L428.001 196.227C429.501 195.409 430.864 194.182 431.682 192.545L433.319 189.682C433.455 189.273 434 189 434.409 189C434.955 189 435.364 189.273 435.637 189.682L437.273 192.545C438.091 194.045 439.455 195.409 440.955 196.227L443.818 197.864C444.227 198.136 444.5 198.545 444.5 199.091C444.5 199.636 444.227 200.045 443.818 200.318L440.955 201.955C439.455 202.773 438.091 204.136 437.273 205.636L435.637 208.5C435.364 208.773 434.955 209.045 434.409 209.045ZM428.682 199.091L429.364 199.5C431.41 200.591 433.046 202.227 434.137 204.273L434.546 204.955L434.955 204.273C436.046 202.227 437.682 200.591 439.727 199.5L440.409 199.091L439.727 198.682C437.682 197.591 436.046 195.955 434.955 193.909L434.546 193.227L434.137 193.909C433.046 195.955 431.41 197.591 429.364 198.682L428.682 199.091Z" fill="#ECECEC"/>
<path d="M422 219C421.454 219 421.045 218.727 420.773 218.318L419.954 216.682C419.273 215.318 418.182 214.227 416.818 213.545L415.182 212.727C414.773 212.455 414.5 211.909 414.5 211.5C414.5 210.955 414.773 210.545 415.182 210.273L416.818 209.455C418.182 208.773 419.273 207.682 419.954 206.318L420.773 204.682C421.318 203.864 422.682 203.864 423.227 204.682L424.045 206.318C424.727 207.682 425.818 208.773 427.181 209.455L428.818 210.273C429.227 210.545 429.499 210.955 429.499 211.5C429.499 212.045 429.227 212.455 428.818 212.727L427.318 213.545C425.954 214.227 424.863 215.318 424.181 216.682L423.363 218.318C422.954 218.727 422.545 219 422 219ZM418.727 211.5C420.091 212.318 421.318 213.545 422.136 214.909C422.954 213.545 424.181 212.318 425.545 211.5C424.045 210.545 422.954 209.455 422 208.091C421.182 209.455 420.091 210.545 418.727 211.5Z" fill="#ECECEC"/>
<rect x="244.5" y="164.5" width="67" height="67" rx="11.5" fill="#F9FBFF"/>
<rect x="244.5" y="164.5" width="67" height="67" rx="11.5" stroke="#ECECEC"/>
<path d="M288.732 184.433C288.155 183.856 287.289 183.856 286.713 184.433C286.136 185.01 286.136 185.876 286.713 186.453C289.309 189.05 290.751 192.512 290.751 196.264C290.751 200.015 289.309 203.478 286.713 206.075C284.116 208.672 280.655 210.114 276.904 210.114C273.731 210.114 270.558 208.96 268.106 206.94L269.981 204.92C272 206.507 274.452 207.229 276.76 207.229C279.645 207.229 282.385 206.219 284.549 204.055C288.876 199.726 288.876 192.657 284.549 188.473C280.222 184.144 273.154 184.144 268.971 188.473C265.077 192.368 264.644 198.572 267.962 202.9L264.933 206.075C264.356 206.652 264.356 207.517 264.933 208.095C268.106 211.269 272.289 213 276.76 213C281.232 213 285.414 211.269 288.588 208.095C291.761 204.92 293.492 200.736 293.492 196.264C293.636 191.791 291.905 187.607 288.732 184.433ZM271.135 190.493C272.722 188.905 274.885 188.04 276.904 188.04C279.068 188.04 281.087 188.905 282.674 190.493C285.847 193.667 285.847 198.861 282.674 202.035C279.501 205.209 274.308 205.209 271.135 202.035C267.962 198.861 267.962 193.667 271.135 190.493Z" fill="#ECECEC"/>
<rect x="165.5" y="297.5" width="67" height="67" rx="11.5" fill="#F9FBFF"/>
<rect x="165.5" y="297.5" width="67" height="67" rx="11.5" stroke="#ECECEC"/>
<path d="M211.854 318.617C210.03 316.793 206.943 316.512 203.295 317.775C202.032 318.196 200.77 318.898 199.507 319.599C194.456 316.652 189.686 316.091 187.16 318.617C184.495 321.143 185.196 325.914 188.142 330.967C185.056 336.159 184.635 340.93 187.16 343.316C188.142 344.439 189.686 345 191.51 345C193.895 345 196.701 344.018 199.507 342.334C202.313 344.018 205.119 345 207.504 345C209.328 345 210.731 344.439 211.854 343.456C214.379 340.93 213.818 336.159 210.872 331.107C213.958 325.774 214.379 321.003 211.854 318.617ZM204.137 320.441C206.803 319.459 208.767 319.599 209.889 320.582C211.152 321.845 210.872 324.932 209.188 328.3C208.206 327.037 207.224 325.774 205.961 324.511C204.698 323.248 203.436 322.266 202.173 321.283C202.874 321.003 203.576 320.582 204.137 320.441ZM189.125 341.351C187.862 340.088 188.142 337.001 189.826 333.633C190.808 334.896 191.79 336.159 193.053 337.422C194.316 338.685 195.579 339.808 196.841 340.65C193.334 342.474 190.387 342.614 189.125 341.351ZM209.889 341.351C208.627 342.614 205.68 342.334 202.032 340.65C203.295 339.667 204.558 338.545 205.821 337.422C206.382 336.861 206.943 336.299 207.364 335.738C207.925 335.177 207.785 334.335 207.224 333.773C206.662 333.212 205.821 333.352 205.259 333.914C204.839 334.475 204.277 334.896 203.856 335.457C202.453 336.861 200.91 338.124 199.507 339.106C198.104 338.124 196.561 336.861 195.158 335.457C188.984 329.282 187.02 322.687 189.125 320.582C189.546 320.02 190.387 319.74 191.51 319.74C192.913 319.74 194.877 320.301 196.841 321.283C195.579 322.266 194.316 323.388 193.053 324.511C192.492 325.213 191.79 325.914 191.229 326.616C190.668 327.177 190.808 328.019 191.369 328.581C191.931 329.142 192.913 329.002 193.334 328.44C193.895 327.739 194.456 327.177 195.017 326.616C196.42 325.213 197.964 323.95 199.367 322.967C200.77 323.95 202.313 325.213 203.856 326.616C210.03 332.651 211.994 339.246 209.889 341.351Z" fill="#ECECEC"/>
<path d="M199.5 333.24C200.737 333.24 201.74 332.237 201.74 331C201.74 329.763 200.737 328.76 199.5 328.76C198.263 328.76 197.26 329.763 197.26 331C197.26 332.237 198.263 333.24 199.5 333.24Z" fill="#ECECEC"/>
<rect x="102.5" y="430.5" width="67" height="67" rx="11.5" fill="#F9FBFF"/>
<rect x="102.5" y="430.5" width="67" height="67" rx="11.5" stroke="#ECECEC"/>
<path fill-rule="evenodd" clip-rule="evenodd" d="M122.549 456.284C120.292 454.023 121.912 450 125.179 450H145.825C149.092 450 150.712 454.023 148.455 456.284C148.454 456.286 148.453 456.287 148.451 456.288L140.301 464.548V471.769C140.301 472.929 139.738 474.159 138.656 474.83L134.658 477.575L134.641 477.586C133.751 478.179 132.726 478.077 131.989 477.643C131.268 477.217 130.703 476.408 130.703 475.415V464.548L122.549 456.284ZM124.38 453.364C124.231 453.725 124.299 454.075 124.531 454.307L124.539 454.314L133.099 462.99C133.358 463.252 133.503 463.605 133.503 463.973V474.972L137.102 472.501C137.125 472.484 137.15 472.469 137.174 472.454C137.324 472.365 137.501 472.103 137.501 471.769V463.973C137.501 463.605 137.646 463.252 137.905 462.99L146.473 454.307C146.705 454.075 146.773 453.725 146.624 453.364C146.478 453.01 146.187 452.8 145.825 452.8H125.179C124.817 452.8 124.526 453.01 124.38 453.364Z" fill="#ECECEC"/>
<rect x="245.5" y="430.5" width="67" height="67" rx="11.5" fill="#F9FBFF"/>
<rect x="245.5" y="430.5" width="67" height="67" rx="11.5" stroke="#ECECEC"/>
<path fill-rule="evenodd" clip-rule="evenodd" d="M276.916 450.491C278.388 449.836 280.033 449.836 281.505 450.491L281.527 450.502L289.396 454.188C289.406 454.193 289.416 454.197 289.426 454.202C291.189 455.085 292.233 457.025 291.889 459.105C291.234 463.165 289.253 471.169 281.91 477.053L281.896 477.064C280.294 478.312 278.127 478.312 276.524 477.064L276.511 477.053C269.165 471.168 267.185 463.161 266.532 459.102C266.527 459.073 266.523 459.044 266.521 459.015C266.358 457.218 267.158 455.102 269.154 454.187L276.886 450.505C276.896 450.5 276.906 450.496 276.916 450.491ZM277.965 452.811L270.239 456.489L270.219 456.499C269.441 456.853 268.978 457.763 269.052 458.744C269.675 462.577 271.513 469.782 278.095 475.061C278.774 475.586 279.646 475.586 280.326 475.061C286.935 469.761 288.761 462.517 289.376 458.697L289.377 458.691C289.538 457.726 289.066 456.876 288.299 456.485L280.459 452.812C279.654 452.457 278.77 452.457 277.965 452.811Z" fill="#ECECEC"/>
<path fill-rule="evenodd" clip-rule="evenodd" d="M285.08 457.89C285.643 458.311 285.758 459.108 285.337 459.671L279.626 467.308C279.387 467.627 279.011 467.816 278.612 467.818C278.213 467.82 277.836 467.634 277.594 467.316L274.396 463.116C273.97 462.557 274.078 461.759 274.638 461.333C275.197 460.907 275.995 461.015 276.421 461.574L278.598 464.433L283.298 458.147C283.719 457.584 284.517 457.469 285.08 457.89Z" fill="#ECECEC"/>
<g filter="url(#filter0_d_493_113453)">
<rect x="276" y="301" width="68" height="94" rx="12" fill="white"/>
<path d="M320.965 347.6H318C317.506 345.8 315.9 344.6 313.924 344.6C311.576 344.6 309.6 346.52 309.6 348.8C309.6 351.08 311.576 353 313.924 353C315.9 353 317.506 351.8 318 350H320.965C321.706 350 322.2 349.4 322.2 348.8C322.2 348.08 321.706 347.6 320.965 347.6ZM313.924 350.6C312.935 350.6 312.071 349.76 312.071 348.8C312.071 347.84 312.935 347 313.924 347C314.912 347 315.776 347.84 315.776 348.8C315.776 349.76 314.912 350.6 313.924 350.6Z" fill="url(#paint0_radial_493_113453)"/>
<path d="M307.009 347.4H298.191C297.477 347.4 297 348.1 297 348.8C297 349.64 297.596 350.2 298.191 350.2H307.009C307.723 350.2 308.2 349.5 308.2 348.8C308.2 347.96 307.604 347.4 307.009 347.4Z" fill="url(#paint1_radial_493_113453)"/>
<path d="M298.191 330.6H307.009C307.723 330.6 308.2 329.9 308.2 329.2C308.2 328.5 307.604 327.8 307.009 327.8H298.191C297.477 327.8 297 328.5 297 329.2C297 329.9 297.596 330.6 298.191 330.6Z" fill="url(#paint2_radial_493_113453)"/>
<path d="M313.924 333.4C315.9 333.4 317.506 332.2 318 330.4H320.965C321.706 330.4 322.2 329.8 322.2 329.2C322.2 328.6 321.582 328 320.965 328H318C317.506 326.2 315.9 325 313.924 325C311.576 325 309.6 326.92 309.6 329.2C309.6 331.48 311.576 333.4 313.924 333.4ZM313.924 327.4C314.912 327.4 315.776 328.24 315.776 329.2C315.776 330.16 314.912 331 313.924 331C312.935 331 312.071 330.16 312.071 329.2C312.071 328.24 312.935 327.4 313.924 327.4Z" fill="url(#paint3_radial_493_113453)"/>
<path d="M298.235 340.2H301.2C301.694 341.88 303.3 343.2 305.276 343.2C307.624 343.2 309.6 341.28 309.6 339C309.6 336.72 307.624 334.8 305.276 334.8C303.3 334.8 301.694 336 301.2 337.8H298.235C297.494 337.8 297 338.4 297 339C297 339.6 297.618 340.2 298.235 340.2ZM305.276 337.2C306.265 337.2 307.129 338.04 307.129 339C307.129 339.96 306.265 340.8 305.276 340.8C304.288 340.8 303.424 339.96 303.424 339C303.424 338.04 304.288 337.2 305.276 337.2Z" fill="url(#paint4_radial_493_113453)"/>
<path d="M320.996 337.6H312.204C311.482 337.6 311 338.3 311 339C311 339.7 311.602 340.4 312.204 340.4H320.996C321.718 340.4 322.2 339.7 322.2 339C322.2 338.3 321.718 337.6 320.996 337.6Z" fill="url(#paint5_radial_493_113453)"/>
<path d="M296.272 370.951V370.518C296.272 369.182 296.639 368.145 297.373 367.406C298.108 366.664 299.049 366.293 300.198 366.293C301.35 366.293 302.293 366.664 303.028 367.406C303.762 368.145 304.129 369.182 304.129 370.518V370.951C304.129 372.287 303.762 373.326 303.028 374.068C302.293 374.807 301.35 375.176 300.198 375.176C299.049 375.176 298.108 374.807 297.373 374.068C296.639 373.326 296.272 372.287 296.272 370.951ZM297.449 370.951C297.449 371.967 297.699 372.76 298.199 373.33C298.703 373.896 299.371 374.18 300.203 374.18C301.031 374.18 301.698 373.896 302.201 373.33C302.705 372.76 302.957 371.967 302.957 370.951V370.518C302.957 369.502 302.705 368.711 302.201 368.145C301.698 367.574 301.031 367.289 300.203 367.289C299.371 367.289 298.703 367.574 298.199 368.145C297.699 368.711 297.449 369.502 297.449 370.518V370.951ZM306.074 375V366.469H309.104C310.096 366.469 310.863 366.697 311.406 367.154C311.949 367.611 312.221 368.225 312.221 368.994C312.221 369.764 311.949 370.383 311.406 370.852C310.863 371.32 310.096 371.555 309.104 371.555H307.24V375H306.074ZM307.24 370.605H309.104C309.834 370.605 310.342 370.451 310.627 370.143C310.912 369.83 311.055 369.447 311.055 368.994C311.055 368.541 310.912 368.166 310.627 367.869C310.342 367.568 309.834 367.418 309.104 367.418H307.24V370.605ZM311.365 375L309.127 371.068L310.322 370.922L312.695 375H311.365ZM314.201 375V366.469H315.724L318.496 372.885C318.547 373.002 318.595 373.125 318.642 373.254C318.693 373.379 318.738 373.496 318.777 373.605H318.824C318.859 373.496 318.9 373.379 318.947 373.254C318.994 373.125 319.043 373.002 319.094 372.885L321.847 366.469H323.4V375H322.275V368.73C322.275 368.613 322.277 368.482 322.281 368.338C322.289 368.189 322.301 368.057 322.316 367.939H322.263C322.232 368.057 322.189 368.189 322.135 368.338C322.084 368.482 322.033 368.613 321.982 368.73L319.299 375H318.261L315.56 368.73C315.51 368.613 315.459 368.482 315.408 368.338C315.361 368.189 315.324 368.057 315.297 367.939H315.244C315.256 368.057 315.265 368.189 315.273 368.338C315.285 368.482 315.291 368.613 315.291 368.73V375H314.201Z" fill="#04101C"/>
</g>
<rect x="118.5" y="729.5" width="67" height="67" rx="11.5" fill="#F9FBFF"/>
<rect x="118.5" y="729.5" width="67" height="67" rx="11.5" stroke="#ECECEC"/>
<path d="M166.653 759.021C163.705 756.516 158.842 753.421 152.211 753.421C151.474 753.421 150.737 753.421 150.295 753.568C149.411 753.716 148.821 754.453 148.968 755.337C149.116 756.074 149.853 756.663 150.589 756.663C151.032 756.663 151.621 756.516 152.211 756.516C157.958 756.516 162.232 759.168 164.737 761.379C165.179 761.674 165.474 762.263 165.474 763C165.474 763.737 165.179 764.179 164.737 764.621C163.853 765.358 162.821 766.095 161.789 766.684C161.053 767.126 160.905 768.011 161.2 768.747C161.495 769.189 161.937 769.484 162.526 769.484C162.821 769.484 162.968 769.484 163.263 769.337C164.442 768.6 165.621 767.863 166.653 766.979C167.832 765.947 168.421 764.621 168.421 763.147C168.421 761.379 167.832 760.053 166.653 759.021Z" fill="#ECECEC"/>
<path d="M140.716 749.442C140.126 748.853 139.242 748.853 138.653 749.442C138.063 750.032 138.063 750.916 138.653 751.505L142.779 755.632C140.716 756.811 138.947 758.137 137.768 759.021C136.589 760.053 136 761.379 136 763C136 764.621 136.589 765.947 137.768 766.832C140.716 769.337 145.579 772.432 152.211 772.432C154.421 772.432 156.484 772.137 158.547 771.4L163.705 776.558C164 776.853 164.442 777 164.737 777C165.032 777 165.474 776.853 165.768 776.558C166.358 775.968 166.358 775.084 165.768 774.495L140.716 749.442ZM152.211 769.337C146.463 769.337 142.189 766.684 139.684 764.474C139.242 764.179 138.947 763.589 138.947 763C138.947 762.411 139.242 761.821 139.684 761.379C140.863 760.347 142.779 759.021 145.137 757.989L148.968 761.821C148.821 762.116 148.821 762.558 148.821 763C148.821 764.916 150.295 766.389 152.211 766.389C152.653 766.389 152.947 766.242 153.389 766.242L156.189 769.042C154.863 769.189 153.537 769.337 152.211 769.337Z" fill="#ECECEC"/>
<rect x="90.5" y="164.5" width="67" height="67" rx="11.5" fill="#F9FBFF"/>
<rect x="90.5" y="164.5" width="67" height="67" rx="11.5" stroke="#ECECEC"/>
<path d="M128.8 205.14C128.8 204.3 128.24 203.74 127.4 203.74H113.26C112.14 203.74 111.3 202.9 111.3 201.78V194.22C111.3 193.1 112.14 192.26 113.26 192.26H127.4C128.24 192.26 128.8 191.7 128.8 190.86C128.8 190.02 128.24 189.46 127.4 189.46H113.26C110.6 189.46 108.5 191.56 108.5 194.22V201.78C108.5 204.44 110.6 206.54 113.26 206.54H127.4C128.1 206.54 128.8 205.98 128.8 205.14Z" fill="#ECECEC"/>
<path d="M134.54 189.46H133.28V186.8H135.38C136.22 186.8 136.78 186.24 136.78 185.4C136.78 184.56 136.22 184 135.38 184H128.52C127.68 184 127.12 184.56 127.12 185.4C127.12 186.24 127.68 186.8 128.52 186.8H130.62V209.2H128.52C127.68 209.2 127.12 209.76 127.12 210.6C127.12 211.44 127.68 212 128.52 212H135.38C136.22 212 136.78 211.44 136.78 210.6C136.78 209.76 136.22 209.2 135.38 209.2H133.28V206.54H134.54C137.2 206.54 139.3 204.44 139.3 201.78V194.22C139.3 191.56 137.2 189.46 134.54 189.46ZM136.5 201.78C136.5 202.9 135.66 203.74 134.54 203.74H133.28V192.26H134.54C135.66 192.26 136.5 193.1 136.5 194.22V201.78Z" fill="#ECECEC"/>
<rect x="463.5" y="29.5" width="67" height="67" rx="11.5" fill="#F9FBFF"/>
<rect x="463.5" y="29.5" width="67" height="67" rx="11.5" stroke="#ECECEC"/>
<path d="M497 49C489.3 49 483 55.3 483 63C483 70.7 489.3 77 497 77C504.7 77 511 70.7 511 63C511 55.3 504.7 49 497 49ZM497 74.2C490.84 74.2 485.8 69.16 485.8 63C485.8 56.84 490.84 51.8 497 51.8C503.16 51.8 508.2 56.84 508.2 63C508.2 69.16 503.16 74.2 497 74.2Z" fill="#ECECEC"/>
<path d="M504.7 67.76C503.72 66.78 502.6 66.08 501.34 65.52C502.32 64.4 503.02 63 503.02 61.32C503.02 57.96 500.36 55.3 497 55.3C493.64 55.3 490.98 57.96 490.98 61.32C490.98 63 491.68 64.4 492.66 65.52C491.4 66.08 490.28 66.78 489.3 67.76C488.74 68.32 488.74 69.16 489.3 69.72C489.58 70 490 70.14 490.28 70.14C490.7 70.14 490.98 70 491.26 69.72C492.8 68.18 494.76 67.34 497 67.34C499.1 67.34 501.2 68.18 502.74 69.72C503.3 70.28 504.14 70.28 504.7 69.72C505.26 69.16 505.26 68.32 504.7 67.76ZM493.78 61.32C493.78 59.5 495.18 58.1 497 58.1C498.82 58.1 500.22 59.5 500.22 61.32C500.22 63.14 498.82 64.54 497 64.54C495.18 64.54 493.78 63.14 493.78 61.32Z" fill="#ECECEC"/>
<rect x="512.5" y="170.5" width="67" height="67" rx="11.5" fill="#F9FBFF"/>
<rect x="512.5" y="170.5" width="67" height="67" rx="11.5" stroke="#ECECEC"/>
<path d="M558.6 192.8H533.4C532.56 192.8 532 192.24 532 191.4C532 190.56 532.56 190 533.4 190H558.6C559.44 190 560 190.56 560 191.4C560 192.24 559.44 192.8 558.6 192.8Z" fill="#ECECEC"/>
<path d="M558.6 209.6H546C545.16 209.6 544.6 209.04 544.6 208.2C544.6 207.36 545.16 206.8 546 206.8H558.6C559.44 206.8 560 207.36 560 208.2C560 209.04 559.44 209.6 558.6 209.6Z" fill="#ECECEC"/>
<path d="M558.6 201.2H546C545.16 201.2 544.6 200.64 544.6 199.8C544.6 198.96 545.16 198.4 546 198.4H558.6C559.44 198.4 560 198.96 560 199.8C560 200.64 559.44 201.2 558.6 201.2Z" fill="#ECECEC"/>
<path d="M558.6 218H533.4C532.56 218 532 217.44 532 216.6C532 215.76 532.56 215.2 533.4 215.2H558.6C559.44 215.2 560 215.76 560 216.6C560 217.44 559.44 218 558.6 218Z" fill="#ECECEC"/>
<path d="M534.52 211.14C534.1 211.14 533.68 211 533.4 210.86C532.56 210.44 532 209.6 532 208.62V199.38C532 198.4 532.56 197.56 533.4 197.14C534.24 196.72 535.22 196.86 536.06 197.42L542.22 202.04C542.78 202.46 543.2 203.16 543.2 204C543.2 204.84 542.78 205.54 542.22 206.1L536.06 210.72C535.64 211 535.08 211.14 534.52 211.14ZM534.8 199.94V208.06L540.26 204L534.8 199.94Z" fill="#ECECEC"/>
<rect x="656.5" y="429.5" width="67" height="67" rx="11.5" fill="#F9FBFF"/>
<rect x="656.5" y="429.5" width="67" height="67" rx="11.5" stroke="#ECECEC"/>
<path d="M694.014 478H684.851C682.156 478 680 475.818 680 473.091V452.909C680 450.182 682.156 448 684.851 448H694.149C696.844 448 699 450.182 699 452.909V473.227C698.865 475.818 696.709 478 694.014 478ZM684.851 450.727C683.638 450.727 682.695 451.682 682.695 452.909V473.227C682.695 474.318 683.638 475.273 684.851 475.273H694.149C695.362 475.273 696.305 474.318 696.305 473.091V452.909C696.17 451.682 695.227 450.727 694.014 450.727H684.851Z" fill="#ECECEC"/>
<path d="M691.184 455.227H687.681C686.872 455.227 686.333 454.682 686.333 453.864C686.333 453.045 686.872 452.5 687.681 452.5H691.319C692.128 452.5 692.667 453.045 692.667 453.864C692.667 454.682 691.993 455.227 691.184 455.227Z" fill="#ECECEC"/>
<rect x="511.5" y="579.5" width="67" height="67" rx="11.5" fill="#F9FBFF"/>
<rect x="511.5" y="579.5" width="67" height="67" rx="11.5" stroke="#ECECEC"/>
<path fill-rule="evenodd" clip-rule="evenodd" d="M543.758 599.043C550.547 598.477 556.266 603.585 556.409 610.171L556.409 610.199C556.409 612.501 555.688 614.653 554.41 616.5L554.397 616.518L547.937 625.519C547.925 625.536 547.911 625.554 547.898 625.571C546.413 627.429 543.492 627.543 542.066 625.513L535.604 616.51C533.919 614.122 533.034 611.107 533.75 607.916C534.632 603.131 538.804 599.609 543.719 599.047C543.732 599.045 543.745 599.044 543.758 599.043ZM543.989 601.578C540.055 602.036 536.896 604.836 536.249 608.398C536.246 608.416 536.242 608.434 536.238 608.452C535.699 610.827 536.332 613.124 537.681 615.039L544.147 624.047C544.491 624.54 545.35 624.655 545.892 624.003L552.323 615.043C553.318 613.601 553.861 611.958 553.864 610.213C553.746 605.149 549.346 601.142 543.989 601.578Z" fill="#ECECEC"/>
<path fill-rule="evenodd" clip-rule="evenodd" d="M544.955 607.782C543.619 607.782 542.537 608.864 542.537 610.2C542.537 611.536 543.619 612.618 544.955 612.618C546.29 612.618 547.373 611.536 547.373 610.2C547.373 608.864 546.29 607.782 544.955 607.782ZM539.991 610.2C539.991 607.459 542.214 605.236 544.955 605.236C547.696 605.236 549.918 607.459 549.918 610.2C549.918 612.941 547.696 615.164 544.955 615.164C542.214 615.164 539.991 612.941 539.991 610.2Z" fill="#ECECEC"/>
<path fill-rule="evenodd" clip-rule="evenodd" d="M544.955 607.782C543.619 607.782 542.537 608.864 542.537 610.2C542.537 611.536 543.619 612.618 544.955 612.618C546.29 612.618 547.373 611.536 547.373 610.2C547.373 608.864 546.29 607.782 544.955 607.782ZM539.991 610.2C539.991 607.459 542.214 605.236 544.955 605.236C547.696 605.236 549.918 607.459 549.918 610.2C549.918 612.941 547.696 615.164 544.955 615.164C542.214 615.164 539.991 612.941 539.991 610.2Z" fill="#ECECEC"/>
<path fill-rule="evenodd" clip-rule="evenodd" d="M544.955 607.782C543.619 607.782 542.537 608.864 542.537 610.2C542.537 611.536 543.619 612.618 544.955 612.618C546.29 612.618 547.373 611.536 547.373 610.2C547.373 608.864 546.29 607.782 544.955 607.782ZM539.991 610.2C539.991 607.459 542.214 605.236 544.955 605.236C547.696 605.236 549.918 607.459 549.918 610.2C549.918 612.941 547.696 615.164 544.955 615.164C542.214 615.164 539.991 612.941 539.991 610.2Z" fill="#ECECEC"/>
<rect x="626.5" y="579.5" width="67" height="67" rx="11.5" fill="#F9FBFF"/>
<rect x="626.5" y="579.5" width="67" height="67" rx="11.5" stroke="#ECECEC"/>
<path d="M647.9 625.6C647.06 625.6 646.5 625.04 646.5 624.2V611.6C646.5 610.76 647.06 610.2 647.9 610.2C648.74 610.2 649.3 610.76 649.3 611.6V624.2C649.3 625.04 648.74 625.6 647.9 625.6Z" fill="#ECECEC"/>
<path d="M666.486 627H654.955C652.622 627 650.7 625.04 650.7 622.66V610.9C650.7 609.36 651.249 607.96 652.21 606.7L657.701 600.4C658.525 599.56 659.76 599 661.133 599C662.643 599 663.878 599.7 664.702 600.82C665.525 602.08 665.8 603.48 665.388 604.88L664.564 607.54H670.33C671.703 607.54 672.938 608.1 673.624 609.22C674.448 610.34 674.723 611.74 674.311 613L671.428 622.94C670.742 625.46 668.82 627 666.486 627ZM654.406 608.66C653.857 609.36 653.583 610.06 653.583 610.9V622.66C653.583 623.5 654.269 624.2 655.093 624.2H666.624C667.722 624.2 668.683 623.5 668.957 622.38L671.703 612.44C671.84 612.02 671.703 611.46 671.428 611.04C671.154 610.62 670.742 610.48 670.33 610.48H662.643C662.231 610.48 661.819 610.2 661.544 609.92C661.27 609.64 661.27 609.08 661.407 608.66L662.917 604.04C663.054 603.48 663.054 602.92 662.643 602.5C662.094 601.66 660.721 601.52 660.035 602.36L654.406 608.66Z" fill="#ECECEC"/>
<rect x="620.5" y="297.5" width="67" height="67" rx="11.5" fill="#F9FBFF"/>
<rect x="620.5" y="297.5" width="67" height="67" rx="11.5" stroke="#ECECEC"/>
<path d="M644.115 325.95C644.115 322.801 646.763 320.315 650.073 320.315C651.065 320.315 651.727 319.652 651.727 318.657C651.727 317.663 651.065 317 650.073 317C644.943 317 640.806 320.978 640.806 325.95V326.945C640.806 328.436 639.813 329.928 638.158 330.425C637.496 330.591 637 331.254 637 331.917C637 332.58 637.496 333.243 638.158 333.575C639.813 334.072 640.806 335.398 640.806 337.055V338.05C640.806 343.022 644.943 347 650.073 347C651.065 347 651.727 346.337 651.727 345.343C651.727 344.348 651.065 343.685 650.073 343.685C646.763 343.685 644.115 341.199 644.115 338.05V336.89C644.115 334.901 643.288 333.077 641.964 331.917C643.288 330.591 644.115 328.768 644.115 326.945V325.95Z" fill="#ECECEC"/>
<path d="M671.842 330.333C670.187 329.833 669.194 328.5 669.194 326.833V326C669.194 321 665.057 317 659.927 317C658.935 317 658.273 317.667 658.273 318.667C658.273 319.667 658.935 320.333 659.927 320.333C663.237 320.333 665.885 322.833 665.885 326V327C665.885 329 666.712 330.833 668.036 332C666.712 333.333 665.885 335.167 665.885 337V338C665.885 341.167 663.237 343.667 659.927 343.667C658.935 343.667 658.273 344.333 658.273 345.333C658.273 346.333 658.935 347 659.927 347C665.057 347 669.194 343 669.194 338V337C669.194 335.5 670.187 334 671.842 333.5C672.504 333.333 673 332.667 673 332C673 331.333 672.504 330.667 671.842 330.333Z" fill="#ECECEC"/>
<rect x="667.5" y="163.5" width="67" height="67" rx="11.5" fill="#F9FBFF"/>
<rect x="667.5" y="163.5" width="67" height="67" rx="11.5" stroke="#ECECEC"/>
<path d="M705.496 199.937C706.425 198.836 707.045 197.421 707.045 196.006C707.045 192.547 704.257 189.874 701.005 189.874C697.753 189.874 694.966 192.547 694.966 195.849C694.966 197.421 695.585 198.836 696.514 199.78C694.501 200.881 692.953 202.453 692.023 204.654C691.559 205.755 691.714 207.17 692.333 208.27C693.107 209.371 694.346 210 695.585 210H706.27C707.509 210 708.748 209.371 709.522 208.27C710.297 207.17 710.297 205.912 709.832 204.654C709.058 202.61 707.509 200.881 705.496 199.937ZM698.063 195.849C698.063 194.277 699.457 193.019 701.005 193.019C702.554 193.019 703.947 194.277 703.947 196.006C703.947 197.736 702.554 198.836 701.005 198.836C699.457 198.836 698.063 197.579 698.063 195.849ZM707.045 206.541C706.89 206.698 706.58 206.855 706.425 206.855H695.585C695.275 206.855 695.121 206.698 694.966 206.541C694.811 206.541 694.811 206.226 694.811 205.912C695.895 203.396 698.218 201.824 701.005 201.824C703.793 201.824 706.116 203.396 707.2 205.912C707.2 206.226 707.2 206.541 707.045 206.541Z" fill="#ECECEC"/>
<path d="M693.727 198.679C693.727 197.893 693.107 197.107 692.178 197.107H687.068C687.687 195.535 689.236 194.591 690.939 194.591C693.572 194.591 695.585 192.547 695.585 189.874C695.585 187.201 693.417 185.157 690.939 185.157C688.462 185.157 686.294 187.201 686.294 189.874C686.294 190.818 686.603 191.761 687.223 192.547C685.829 193.333 684.745 194.434 684.281 195.849C683.816 196.792 683.971 197.893 684.435 198.836C685.055 199.78 685.984 200.252 687.068 200.252H692.023C692.953 200.252 693.727 199.623 693.727 198.679ZM689.391 189.874C689.391 188.931 690.165 188.302 690.939 188.302C691.714 188.302 692.488 189.088 692.488 189.874C692.488 190.818 691.714 191.447 690.939 191.447C690.165 191.447 689.391 190.66 689.391 189.874Z" fill="#ECECEC"/>
<path d="M717.73 195.849C717.11 194.434 716.026 193.176 714.788 192.39C715.252 191.604 715.717 190.66 715.717 189.717C715.717 187.201 713.549 185 711.071 185C708.593 185 706.425 187.044 706.425 189.717C706.425 192.39 708.593 194.434 711.071 194.434C712.774 194.434 714.323 195.377 714.788 197.107H709.832C708.903 197.107 708.284 197.736 708.284 198.679C708.284 199.465 708.903 200.252 709.832 200.252H714.788C715.872 200.252 716.801 199.78 717.42 198.836C718.04 197.893 718.194 196.792 717.73 195.849ZM711.071 188.302C712 188.302 712.62 189.088 712.62 189.874C712.62 190.818 711.845 191.447 711.071 191.447C710.297 191.447 709.522 190.66 709.522 189.874C709.522 188.931 710.142 188.302 711.071 188.302Z" fill="#ECECEC"/>
<g filter="url(#filter1_d_493_113453)">
<rect x="226" y="729" width="75" height="94" rx="12" fill="white"/>
<path d="M271.928 770.134C269.002 770.134 266.495 772.502 266.495 775.567C266.495 778.493 268.863 781 271.928 781C274.853 781 277.361 778.632 277.361 775.567C277.361 772.502 274.993 770.134 271.928 770.134ZM271.928 778.075C270.535 778.075 269.281 776.96 269.281 775.428C269.281 774.035 270.396 772.781 271.928 772.781C273.321 772.781 274.575 773.896 274.575 775.428C274.575 776.96 273.46 778.075 271.928 778.075Z" fill="url(#paint6_radial_493_113453)"/>
<path d="M261.619 764.701C261.759 764.701 262.037 764.701 262.177 764.562L267.749 761.776C268.724 763.03 270.256 763.866 271.928 763.866C274.993 763.726 277.361 761.358 277.361 758.433C277.361 755.507 274.993 753 271.928 753C269.002 753 266.495 755.368 266.495 758.433C266.495 758.711 266.495 758.99 266.634 759.269L260.923 762.055C260.226 762.473 259.948 763.308 260.366 763.866C260.505 764.423 261.062 764.701 261.619 764.701ZM271.928 755.786C273.321 755.786 274.575 756.9 274.575 758.433C274.575 759.826 273.46 761.08 271.928 761.08C270.535 761.08 269.281 759.965 269.281 758.433C269.42 756.9 270.535 755.786 271.928 755.786Z" fill="url(#paint7_radial_493_113453)"/>
<path d="M265.799 771.109L260.087 768.323C260.226 767.905 260.226 767.488 260.226 766.93C260.226 764.005 257.858 761.498 254.794 761.498C251.729 761.498 249.5 764.005 249.5 766.93C249.5 769.856 251.868 772.363 254.933 772.363C256.465 772.363 257.858 771.806 258.833 770.692L264.684 773.617C264.823 773.756 265.102 773.756 265.241 773.756C265.799 773.756 266.216 773.478 266.495 772.92C266.774 772.363 266.495 771.527 265.799 771.109ZM254.933 769.577C253.4 769.577 252.286 768.323 252.286 766.93C252.286 765.537 253.4 764.284 254.933 764.284C256.326 764.284 257.58 765.398 257.58 766.93C257.44 768.323 256.326 769.577 254.933 769.577Z" fill="url(#paint8_radial_493_113453)"/>
<path d="M244.648 800.656V800.586H245.808V800.65C245.808 801.162 246.001 801.545 246.388 801.799C246.779 802.053 247.326 802.18 248.029 802.18C248.728 802.18 249.263 802.051 249.634 801.793C250.009 801.531 250.197 801.188 250.197 800.762C250.197 800.379 250.023 800.074 249.675 799.848C249.331 799.617 248.644 799.371 247.613 799.109C246.57 798.844 245.845 798.531 245.439 798.172C245.036 797.812 244.835 797.299 244.835 796.631C244.835 795.963 245.111 795.406 245.661 794.961C246.216 794.516 246.984 794.293 247.964 794.293C248.941 794.293 249.718 794.531 250.296 795.008C250.874 795.484 251.163 796.076 251.163 796.783V796.848H250.003V796.783C250.003 796.334 249.831 795.973 249.488 795.699C249.148 795.426 248.64 795.289 247.964 795.289C247.288 795.289 246.788 795.406 246.464 795.641C246.144 795.871 245.984 796.186 245.984 796.584C245.984 796.951 246.146 797.242 246.47 797.457C246.798 797.668 247.456 797.896 248.445 798.143C249.48 798.404 250.222 798.729 250.671 799.115C251.12 799.502 251.345 800.049 251.345 800.756C251.345 801.463 251.046 802.043 250.449 802.496C249.855 802.949 249.048 803.176 248.029 803.176C247.005 803.176 246.185 802.951 245.568 802.502C244.954 802.049 244.648 801.434 244.648 800.656ZM253.085 803V794.469H254.609L257.38 800.885C257.431 801.002 257.48 801.125 257.526 801.254C257.577 801.379 257.622 801.496 257.661 801.605H257.708C257.743 801.496 257.784 801.379 257.831 801.254C257.878 801.125 257.927 801.002 257.978 800.885L260.732 794.469H262.284V803H261.159V796.73C261.159 796.613 261.161 796.482 261.165 796.338C261.173 796.189 261.185 796.057 261.2 795.939H261.148C261.116 796.057 261.073 796.189 261.019 796.338C260.968 796.482 260.917 796.613 260.866 796.73L258.183 803H257.146L254.444 796.73C254.394 796.613 254.343 796.482 254.292 796.338C254.245 796.189 254.208 796.057 254.181 795.939H254.128C254.14 796.057 254.15 796.189 254.157 796.338C254.169 796.482 254.175 796.613 254.175 796.73V803H253.085ZM264.552 803V794.469H267.581C268.573 794.469 269.341 794.697 269.884 795.154C270.427 795.611 270.698 796.225 270.698 796.994C270.698 797.764 270.427 798.383 269.884 798.852C269.341 799.32 268.573 799.555 267.581 799.555H265.718V803H264.552ZM265.718 798.605H267.581C268.311 798.605 268.819 798.451 269.104 798.143C269.39 797.83 269.532 797.447 269.532 796.994C269.532 796.541 269.39 796.166 269.104 795.869C268.819 795.568 268.311 795.418 267.581 795.418H265.718V798.605ZM269.843 803L267.604 799.068L268.8 798.922L271.173 803H269.843ZM272.678 803V794.469H274.202L276.973 800.885C277.024 801.002 277.073 801.125 277.12 801.254C277.171 801.379 277.215 801.496 277.255 801.605H277.301C277.337 801.496 277.378 801.379 277.424 801.254C277.471 801.125 277.52 801.002 277.571 800.885L280.325 794.469H281.878V803H280.753V796.73C280.753 796.613 280.755 796.482 280.758 796.338C280.766 796.189 280.778 796.057 280.794 795.939H280.741C280.71 796.057 280.667 796.189 280.612 796.338C280.561 796.482 280.51 796.613 280.46 796.73L277.776 803H276.739L274.038 796.73C273.987 796.613 273.936 796.482 273.885 796.338C273.839 796.189 273.801 796.057 273.774 795.939H273.721C273.733 796.057 273.743 796.189 273.751 796.338C273.762 796.482 273.768 796.613 273.768 796.73V803H272.678Z" fill="#04101C"/>
</g>
<rect x="72.5" y="579.5" width="67" height="67" rx="11.5" fill="#F9FBFF"/>
<rect x="72.5" y="579.5" width="67" height="67" rx="11.5" stroke="#ECECEC"/>
<path d="M105.388 624.97H97.1293C96.4048 624.97 95.6803 624.537 95.3906 623.96C94.9559 623.383 94.9559 622.806 95.2457 622.085C96.9844 618.045 100.897 615.303 105.388 615.303C109.88 615.303 113.647 611.552 113.647 607.08C113.647 602.607 109.88 599 105.243 599C100.752 599 96.9844 602.751 96.9844 607.224C96.9844 609.821 98.1436 612.129 100.027 613.572C96.6946 614.871 93.7967 617.612 92.3477 621.075C91.7682 622.517 91.9131 624.249 92.7824 625.547C93.7967 626.99 95.2457 627.856 96.9844 627.856H105.243C106.113 627.856 106.692 627.279 106.692 626.413C106.692 625.547 106.113 624.97 105.388 624.97ZM99.8823 607.224C99.8823 604.338 102.346 601.886 105.243 601.886C108.141 601.886 110.605 604.338 110.605 607.224C110.605 610.109 108.141 612.562 105.243 612.562C102.346 612.562 99.8823 610.109 99.8823 607.224Z" fill="#ECECEC"/>
<path d="M120.457 614.582C119.733 614.149 118.864 614.294 118.429 615.015L112.343 623.96L110.025 620.93C109.59 620.353 108.576 620.209 107.996 620.642C107.417 621.075 107.272 622.085 107.707 622.662L111.329 627.423C111.619 627.856 112.054 628 112.488 628C112.923 628 113.358 627.711 113.647 627.423L120.747 616.746C121.182 615.881 121.037 615.015 120.457 614.582Z" fill="#ECECEC"/>
<rect x="89.5" y="29.5" width="67" height="67" rx="11.5" fill="#F9FBFF"/>
<rect x="89.5" y="29.5" width="67" height="67" rx="11.5" stroke="#ECECEC"/>
<path d="M135.823 70.1429L133.112 67.4286C132.541 66.8571 131.685 66.8571 131.115 67.4286C130.544 68 130.544 68.8571 131.115 69.4286L133.825 72.1429C134.254 72.5714 134.254 73.2857 133.825 73.7143C133.397 74.1429 132.684 74.1429 132.256 73.7143L127.976 69.4286C128.261 69.1429 128.546 69 128.832 68.7143C130.972 66.5714 132.256 63.5714 132.256 60.5714C132.256 57.4286 131.115 54.5714 128.832 52.4286C124.266 47.8571 116.99 47.8571 112.424 52.4286C107.859 57 107.859 64.2857 112.424 68.8571C114.564 71 117.561 72.2857 120.557 72.2857C122.269 72.2857 123.981 71.8571 125.408 71.1429L130.116 75.8571C130.829 76.5714 131.971 77 132.969 77C133.968 77 134.967 76.5714 135.823 75.8571C137.392 74.1429 137.392 71.5714 135.823 70.1429ZM114.422 66.5714C110.997 63.1429 110.997 57.5714 114.422 54.2857C116.134 52.5714 118.274 51.7143 120.557 51.7143C122.839 51.7143 124.98 52.5714 126.692 54.2857C128.404 56 129.26 58.1429 129.26 60.4286C129.26 62.7143 128.404 65 126.692 66.5714C124.98 68.1429 122.839 69.1429 120.557 69.1429C118.274 69.1429 115.991 68.2857 114.422 66.5714Z" fill="#ECECEC"/>
<g filter="url(#filter2_d_493_113453)">
<rect x="213" y="582" width="88" height="94" rx="12" fill="white"/>
<path d="M246.02 634C245.32 634 244.76 633.72 244.2 633.3C243.5 632.6 243.36 631.62 243.64 630.78L245.04 626.44C244.06 624.48 243.5 622.24 243.5 620C243.5 612.3 249.8 606 257.5 606C265.2 606 271.5 612.3 271.5 620C271.5 627.7 265.2 634 257.5 634C255.26 634 253.02 633.44 251.06 632.46L246.72 633.86C246.58 634 246.3 634 246.02 634ZM251.9 629.66C253.58 630.64 255.54 631.2 257.5 631.2C263.66 631.2 268.7 626.16 268.7 620C268.7 613.84 263.66 608.8 257.5 608.8C251.34 608.8 246.3 613.84 246.3 620C246.3 621.96 246.86 623.92 247.84 625.6C247.98 625.88 248.12 626.3 247.98 626.72L246.58 631.06L250.92 629.66C250.92 629.66 251.763 629.592 251.9 629.66Z" fill="url(#paint9_radial_493_113453)"/>
<path d="M257.5 622.24C258.737 622.24 259.74 621.237 259.74 620C259.74 618.763 258.737 617.76 257.5 617.76C256.263 617.76 255.26 618.763 255.26 620C255.26 621.237 256.263 622.24 257.5 622.24Z" fill="url(#paint10_radial_493_113453)"/>
<path d="M250.64 622.24C251.877 622.24 252.88 621.237 252.88 620C252.88 618.763 251.877 617.76 250.64 617.76C249.403 617.76 248.4 618.763 248.4 620C248.4 621.237 249.403 622.24 250.64 622.24Z" fill="url(#paint11_radial_493_113453)"/>
<path d="M264.36 622.24C265.597 622.24 266.6 621.237 266.6 620C266.6 618.763 265.597 617.76 264.36 617.76C263.123 617.76 262.12 618.763 262.12 620C262.12 621.237 263.123 622.24 264.36 622.24Z" fill="url(#paint12_radial_493_113453)"/>
<path d="M231.706 651.951V651.518C231.706 650.182 232.071 649.145 232.801 648.406C233.536 647.664 234.456 647.293 235.561 647.293C236.655 647.293 237.505 647.568 238.11 648.119C238.716 648.666 239.044 649.344 239.094 650.152L239.1 650.211H237.934L237.928 650.152C237.901 649.637 237.692 649.197 237.301 648.834C236.915 648.471 236.335 648.289 235.561 648.289C234.78 648.289 234.137 648.566 233.634 649.121C233.134 649.672 232.884 650.471 232.884 651.518V651.951C232.884 652.971 233.134 653.764 233.634 654.33C234.137 654.896 234.78 655.18 235.561 655.18C236.335 655.18 236.909 654.994 237.284 654.623C237.663 654.248 237.878 653.812 237.928 653.316L237.934 653.258H239.1L239.094 653.316C239.012 654.113 238.678 654.789 238.093 655.344C237.507 655.898 236.663 656.176 235.561 656.176C234.456 656.176 233.536 655.809 232.801 655.074C232.071 654.336 231.706 653.295 231.706 651.951ZM240.096 652.977V652.789C240.096 651.848 240.391 651.08 240.981 650.486C241.575 649.889 242.368 649.59 243.36 649.59C244.348 649.59 245.139 649.889 245.733 650.486C246.327 651.08 246.624 651.848 246.624 652.789V652.977C246.624 653.918 246.327 654.688 245.733 655.285C245.139 655.879 244.348 656.176 243.36 656.176C242.368 656.176 241.575 655.879 240.981 655.285C240.391 654.688 240.096 653.918 240.096 652.977ZM241.245 652.789V652.977C241.245 653.617 241.422 654.156 241.778 654.594C242.133 655.031 242.661 655.25 243.36 655.25C244.059 655.25 244.584 655.031 244.936 654.594C245.291 654.156 245.469 653.617 245.469 652.977V652.789C245.469 652.145 245.291 651.605 244.936 651.172C244.584 650.734 244.059 650.516 243.36 650.516C242.661 650.516 242.133 650.734 241.778 651.172C241.422 651.605 241.245 652.145 241.245 652.789ZM253.643 657.582V656H248.264V649.766H249.389V655.115H252.612V649.766H253.737V655.115H254.674V657.582H253.643ZM255.564 652.977V652.789C255.564 651.848 255.848 651.08 256.414 650.486C256.984 649.889 257.768 649.59 258.764 649.59C259.686 649.59 260.385 649.814 260.861 650.264C261.342 650.709 261.582 651.209 261.582 651.764V651.793H260.469V651.758C260.469 651.426 260.334 651.135 260.064 650.885C259.799 650.635 259.365 650.51 258.764 650.51C258.061 650.51 257.543 650.729 257.211 651.166C256.879 651.604 256.713 652.145 256.713 652.789V652.977C256.713 653.621 256.879 654.162 257.211 654.6C257.543 655.033 258.061 655.25 258.764 655.25C259.365 655.25 259.799 655.127 260.064 654.881C260.334 654.635 260.469 654.342 260.469 654.002V653.973H261.582V654.002C261.582 654.553 261.342 655.053 260.861 655.502C260.385 655.951 259.686 656.176 258.764 656.176C257.768 656.176 256.984 655.879 256.414 655.285C255.848 654.688 255.564 653.918 255.564 652.977ZM262.66 652.977V652.789C262.66 651.848 262.945 651.08 263.515 650.486C264.09 649.889 264.847 649.59 265.789 649.59C266.734 649.59 267.461 649.869 267.969 650.428C268.476 650.982 268.73 651.734 268.73 652.684V653.146H263.328V652.25H267.599V652.221C267.599 651.721 267.457 651.311 267.172 650.99C266.886 650.67 266.429 650.51 265.801 650.51C265.14 650.51 264.64 650.729 264.301 651.166C263.961 651.604 263.791 652.145 263.791 652.789V652.977C263.791 653.621 263.969 654.162 264.324 654.6C264.683 655.037 265.236 655.256 265.982 655.256C266.435 655.256 266.826 655.17 267.154 654.998C267.482 654.822 267.746 654.615 267.945 654.377L268.672 654.975C268.453 655.268 268.113 655.541 267.652 655.795C267.195 656.049 266.638 656.176 265.982 656.176C264.908 656.176 264.086 655.879 263.515 655.285C262.945 654.688 262.66 653.918 262.66 652.977ZM269.574 650.65V649.766H275.14V650.65H272.919V656H271.794V650.65H269.574ZM276.47 656V649.766H277.583V653.738C277.583 653.855 277.581 653.988 277.577 654.137C277.577 654.285 277.575 654.42 277.572 654.541H277.618C277.673 654.436 277.734 654.324 277.8 654.207C277.866 654.09 277.943 653.973 278.029 653.855L280.964 649.766H282.095V656H280.976V652.033C280.976 651.912 280.978 651.777 280.982 651.629C280.986 651.477 280.991 651.34 280.999 651.219H280.935C280.884 651.32 280.825 651.432 280.759 651.553C280.693 651.674 280.618 651.793 280.536 651.91L277.601 656H276.47Z" fill="#04101C"/>
</g>
<rect x="341.5" y="579.5" width="67" height="67" rx="11.5" fill="#F9FBFF"/>
<rect x="341.5" y="579.5" width="67" height="67" rx="11.5" stroke="#ECECEC"/>
<path d="M389.061 607.679C386.853 604.703 384.254 601.984 381.266 599.914C379.318 598.49 376.59 598.749 374.771 600.561L370.354 604.961C368.665 606.644 368.405 609.362 369.704 611.303C369.834 611.433 369.964 611.692 370.224 611.821L362.039 619.975C361.39 620.622 361 621.528 361 622.564V626.706C361 627.094 361.13 627.353 361.39 627.612C361.65 627.871 361.909 628 362.299 628H366.456C367.496 628 368.405 627.612 369.055 626.965L377.239 618.81C377.499 618.94 377.629 619.069 377.889 619.199C379.837 620.493 382.566 620.234 384.254 618.552L388.671 614.151C390.23 612.339 390.49 609.621 389.061 607.679ZM386.593 612.339L382.176 616.74C381.266 617.646 379.967 617.775 379.058 617.128C378.538 616.74 378.149 616.481 377.629 616.092C377.109 615.704 376.33 615.704 375.94 616.222L366.976 625.153C366.716 625.411 366.456 625.541 366.197 625.541H363.338V622.693C363.338 622.434 363.468 622.176 363.728 621.917L372.692 612.986C373.212 612.468 373.212 611.821 372.822 611.303C372.562 610.786 372.173 610.268 371.913 609.75C371.263 608.844 371.393 607.55 372.302 606.773L376.719 602.373C377.109 601.855 377.759 601.596 378.408 601.596C378.928 601.596 379.318 601.726 379.707 601.984C382.566 603.926 384.904 606.385 386.853 609.103C387.632 610.139 387.502 611.433 386.593 612.339Z" fill="#ECECEC"/>
<path d="M380.148 606.909C379.593 606.909 379.177 607.192 378.761 607.474C377.928 608.321 377.928 609.593 378.761 610.299C379.177 610.722 379.593 610.864 380.148 610.864C380.703 610.864 381.12 610.722 381.536 610.299C381.952 609.875 382.091 609.451 382.091 608.886C382.091 608.321 381.952 607.898 381.536 607.474C381.258 607.05 380.703 606.909 380.148 606.909Z" fill="#ECECEC"/>
<rect x="511.5" y="429.5" width="67" height="67" rx="11.5" fill="#F9FBFF"/>
<rect x="511.5" y="429.5" width="67" height="67" rx="11.5" stroke="#ECECEC"/>
<path d="M539.372 460.484C538.804 459.924 537.952 459.924 537.384 460.484C536.816 461.044 536.816 461.884 537.384 462.443L543.206 468.602C543.49 468.882 543.916 469.022 544.2 469.022C544.626 469.022 545.052 468.882 545.194 468.462L559.109 451.246C559.535 450.686 559.535 449.706 558.825 449.287C558.399 448.867 557.547 448.867 556.979 449.566L554.139 453.066C551.583 450.546 547.892 449.007 544.2 449.007C536.39 449.007 530 455.305 530 463.003C530 470.701 536.39 477 544.2 477C552.009 477 558.399 470.701 558.399 463.003C558.399 461.744 558.257 460.484 557.831 459.224C557.547 458.524 556.837 458.104 556.127 458.244C555.417 458.384 554.991 459.224 555.133 459.924C555.417 460.904 555.559 462.024 555.559 463.003C555.559 469.162 550.447 474.201 544.2 474.201C537.952 474.201 532.84 469.162 532.84 463.003C532.84 456.845 537.952 451.806 544.2 451.806C547.324 451.806 550.164 453.066 552.435 455.305L544.2 465.523L539.372 460.484Z" fill="#ECECEC"/>
<rect x="394.5" y="428.5" width="67" height="67" rx="11.5" fill="#F9FBFF"/>
<rect x="394.5" y="428.5" width="67" height="67" rx="11.5" stroke="#ECECEC"/>
<path fill-rule="evenodd" clip-rule="evenodd" d="M436.03 448.487C437.293 449.178 438.2 450.549 438.2 452.2V466.48C438.2 469.822 434.499 471.802 431.778 469.859C431.748 469.838 431.718 469.814 431.689 469.79L430.196 468.53C430.174 468.512 430.153 468.493 430.133 468.474C428.985 467.381 427.554 466.7 425.982 466.449V471.94C425.982 474.161 424.358 476 422.138 476C419.873 476 418.295 473.972 418.295 471.94V466.183C415.276 465.494 413 462.636 413 459.34C413 457.484 413.655 455.697 415.056 454.413C416.188 453.258 417.741 452.34 419.695 452.34H424.541C426.689 452.21 428.681 451.475 430.185 450.298L431.634 448.939C431.662 448.913 431.691 448.887 431.722 448.863C433.081 447.785 434.746 447.785 436.03 448.487ZM433.5 451.028L432.056 452.382C432.028 452.408 431.999 452.433 431.968 452.457C429.956 454.053 427.366 454.983 424.662 455.138C424.635 455.139 424.609 455.14 424.582 455.14H419.695C418.68 455.14 417.8 455.605 417.034 456.395C417.013 456.417 416.99 456.439 416.967 456.46C416.22 457.134 415.8 458.132 415.8 459.34C415.8 461.711 417.68 463.54 419.695 463.54C420.468 463.54 421.095 464.167 421.095 464.94V471.94C421.095 472.709 421.688 473.2 422.138 473.2C422.634 473.2 423.182 472.799 423.182 471.94V464.94C423.182 464.167 423.809 463.54 424.582 463.54C427.337 463.54 429.988 464.486 432.032 466.416L433.443 467.607C434.251 468.141 435.4 467.6 435.4 466.48V452.2C435.4 451.611 435.085 451.162 434.686 450.943C434.318 450.742 433.895 450.736 433.5 451.028Z" fill="#ECECEC"/>
<path fill-rule="evenodd" clip-rule="evenodd" d="M442.4 455C443.173 455 443.8 455.627 443.8 456.4V462C443.8 462.773 443.173 463.4 442.4 463.4C441.627 463.4 441 462.773 441 462V456.4C441 455.627 441.627 455 442.4 455Z" fill="#ECECEC"/>
<rect x="341.5" y="729.5" width="67" height="67" rx="11.5" fill="#F9FBFF"/>
<rect x="341.5" y="729.5" width="67" height="67" rx="11.5" stroke="#ECECEC"/>
<path d="M369.726 779C369.274 779 368.822 778.854 368.37 778.708C367.165 778.124 366.562 776.955 366.863 775.787L368.671 767.315H365.959C364.754 767.315 363.699 766.585 363.247 765.562C362.795 764.54 362.945 763.371 363.85 762.641L378.164 747.888C379.068 747.012 380.575 746.72 381.63 747.304C382.835 747.888 383.438 749.057 383.137 750.225L381.329 758.697H384.041C385.246 758.697 386.301 759.427 386.753 760.45C387.205 761.472 387.055 762.641 386.15 763.371L371.836 778.124C371.233 778.708 370.48 779 369.726 779ZM370.48 764.247C370.932 764.247 371.384 764.394 371.685 764.832C371.986 765.27 372.137 765.562 371.986 766L370.028 775.933L384.041 761.472H379.671C379.219 761.472 378.767 761.326 378.466 760.888C378.164 760.596 378.014 760.158 378.164 759.719L380.123 749.787L366.11 764.394L370.48 764.247Z" fill="#ECECEC"/>
<rect x="668.5" y="729.5" width="67" height="67" rx="11.5" fill="#F9FBFF"/>
<rect x="668.5" y="729.5" width="67" height="67" rx="11.5" stroke="#ECECEC"/>
<path d="M708.45 750C705.9 750 703.65 751.052 702 753.006C700.35 751.052 698.1 750 695.55 750C690.9 750 687 753.908 687 758.566C687 758.867 687 759.168 687 759.468C687.6 766.532 695.1 772.393 699.45 775.249C700.2 775.699 701.1 776 702 776C702.9 776 703.8 775.699 704.55 775.249C708.9 772.393 716.4 766.532 717 759.618C717 759.318 717 759.017 717 758.717C717 753.908 713.1 750 708.45 750ZM714 759.168C713.55 765.179 706.05 770.59 702.9 772.543C702.3 772.844 701.7 772.844 701.1 772.543C697.95 770.439 690.6 765.029 690 759.017C690 759.017 690 758.717 690 758.566C690 755.561 692.55 753.006 695.55 753.006C697.8 753.006 699.75 754.358 700.65 756.312C700.8 756.913 701.4 757.214 702 757.214C702.6 757.214 703.2 756.913 703.35 756.312C704.25 754.358 706.2 753.006 708.45 753.006C711.45 753.006 714 755.561 714 758.566C714 758.717 714 759.017 714 759.168Z" fill="#ECECEC"/>
<rect x="504.5" y="729.5" width="67" height="67" rx="11.5" fill="#F9FBFF"/>
<rect x="504.5" y="729.5" width="67" height="67" rx="11.5" stroke="#ECECEC"/>
<path d="M531.665 777C530.966 777 530.266 776.72 529.567 776.3C528.448 775.46 527.748 774.06 528.028 772.66L528.867 767.2L525.09 763.28C524.111 762.3 523.691 760.76 524.251 759.36C524.67 757.96 525.79 757.12 527.189 756.84L532.505 756L534.883 751.1C535.443 749.84 536.702 749 538.101 749C539.5 749 540.759 749.84 541.458 751.1L543.697 756L548.873 756.84C550.272 756.98 551.391 757.96 551.811 759.36C552.231 760.76 551.951 762.16 550.972 763.28L547.194 767.2L548.034 772.66C548.314 774.06 547.754 775.6 546.495 776.3C545.376 777.14 543.977 777.14 542.718 776.58L538.101 773.92L533.484 776.44C532.925 776.86 532.365 777 531.665 777ZM538.101 751.8C537.961 751.8 537.541 751.8 537.401 752.36L534.743 757.96C534.463 758.38 534.044 758.66 533.624 758.66L527.608 759.64C527.189 759.64 527.049 760.06 526.909 760.2C526.909 760.34 526.769 760.76 527.189 761.18L531.525 765.52C531.805 765.8 531.945 766.22 531.945 766.78L530.966 772.94C530.826 773.5 531.246 773.78 531.386 773.92C531.525 774.06 531.805 774.2 532.225 773.92L537.541 770.98C537.961 770.7 538.521 770.7 538.94 770.98L544.256 773.92C544.676 774.06 544.956 773.92 545.096 773.92C545.236 773.78 545.516 773.5 545.516 772.94L544.536 766.78C544.396 766.36 544.536 765.94 544.956 765.52L549.293 761.18C549.433 760.9 549.293 760.34 549.293 760.2C549.293 760.06 549.013 759.64 548.593 759.64L542.578 758.8C542.158 758.8 541.738 758.38 541.458 757.96L538.8 752.36C538.66 751.8 538.241 751.8 538.101 751.8Z" fill="#ECECEC"/>
<rect x="512.5" y="309.5" width="67" height="67" rx="11.5" fill="#F9FBFF"/>
<rect x="512.5" y="309.5" width="67" height="67" rx="11.5" stroke="#ECECEC"/>
<path d="M539.355 331H534.409C531.473 331 529 333.25 529 336.1V341.2C529 344.05 531.473 346.3 534.409 346.3H537.964C538.891 346.3 539.509 345.7 539.509 344.8C539.509 343.9 538.891 343.3 537.964 343.3H534.409C533.173 343.3 532.091 342.4 532.091 341.2V336.1C532.091 334.9 533.173 334 534.409 334H539.355C540.591 334 541.673 334.9 541.673 336.1V348.55C541.673 350.5 540.127 352 538.118 352H535.645C534.718 352 534.1 352.6 534.1 353.5C534.1 354.4 534.718 355 535.645 355H538.118C541.827 355 544.764 352.15 544.764 348.55V336.1C544.764 333.25 542.291 331 539.355 331Z" fill="#ECECEC"/>
<path d="M557.591 331H552.645C549.709 331 547.236 333.25 547.236 336.1V341.2C547.236 344.05 549.709 346.3 552.645 346.3H556.2C557.127 346.3 557.745 345.7 557.745 344.8C557.745 343.9 557.127 343.3 556.2 343.3H552.645C551.409 343.3 550.327 342.4 550.327 341.2V336.1C550.327 334.9 551.409 334 552.645 334H557.591C558.827 334 559.909 334.9 559.909 336.1V348.55C559.909 350.5 558.364 352 556.355 352H553.882C552.955 352 552.336 352.6 552.336 353.5C552.336 354.4 552.955 355 553.882 355H556.355C560.064 355 563 352.15 563 348.55V336.1C563 333.25 560.527 331 557.591 331Z" fill="#ECECEC"/>
<rect x="234.5" y="29.5" width="67" height="67" rx="11.5" fill="#F9FBFF"/>
<rect x="234.5" y="29.5" width="67" height="67" rx="11.5" stroke="#ECECEC"/>
<path d="M283.196 63C283.196 59.9804 281.549 57.2353 279.078 55.8627C279.078 55.7255 279.078 55.451 279.078 55.1765C279.078 51.7451 276.333 49 272.902 49C270.98 49 269.196 49.9608 268.098 51.3333C267 49.9608 265.216 49 263.294 49C259.863 49 257.118 51.7451 257.118 55.1765C257.118 55.451 257.118 55.5882 257.118 55.8627C254.647 57.2353 253 59.9804 253 63C253 66.0196 254.647 68.7647 257.118 70.1373C257.118 70.4118 257.118 70.549 257.118 70.8235C257.118 74.2549 259.863 77 263.294 77C265.216 77 267 76.0392 268.098 74.6667C269.196 76.0392 270.98 77 272.902 77C276.333 77 279.078 74.2549 279.078 70.8235C279.078 70.549 279.078 70.4118 279.078 70.1373C281.549 68.6275 283.196 66.0196 283.196 63ZM277.02 68.0784C276.333 68.3529 276.059 69.0392 276.196 69.7255C276.333 70 276.333 70.4118 276.333 70.6863C276.333 72.6078 274.824 74.1176 272.902 74.1176C271.118 74.1176 269.608 72.7451 269.471 70.8235C269.471 70.6863 269.471 70.6863 269.333 70.549V70.4118C269.333 70.2745 269.196 70.1373 269.196 70.1373C269.196 70.1373 269.196 70 269.059 70C268.922 69.8627 268.922 69.8627 268.784 69.7255C268.784 69.7255 268.647 69.7255 268.647 69.5882C268.51 69.5882 268.373 69.5882 268.373 69.451H268.235H268.098C267.961 69.451 267.961 69.451 267.824 69.5882C267.686 69.5882 267.686 69.7255 267.549 69.7255C267.412 69.7255 267.412 69.8627 267.275 69.8627L267.137 70C267.137 70.1373 267 70.1373 267 70.2745V70.4118C267 70.549 266.863 70.549 266.863 70.6863C266.725 72.4706 265.216 73.9804 263.431 73.9804C261.51 73.9804 260 72.4706 260 70.549C260 70.1373 260 69.8627 260.137 69.5882C260.412 68.902 260 68.2157 259.314 67.9412C257.118 67.2549 255.745 65.1961 255.745 63C255.745 60.8039 257.118 58.7451 259.176 57.9216C259.863 57.6471 260.275 56.8235 260 56.1373C259.863 55.8627 259.863 55.5882 259.863 55.1765C259.863 53.2549 261.373 51.7451 263.294 51.7451C265.216 51.7451 266.725 53.2549 266.725 55.1765V66.4314C266.725 67.2549 267.275 67.8039 268.098 67.8039C268.922 67.8039 269.471 67.2549 269.471 66.4314V55.1765C269.471 53.2549 270.98 51.7451 272.902 51.7451C274.824 51.7451 276.333 53.2549 276.333 55.1765C276.333 55.5882 276.333 55.8627 276.196 56.1373C275.922 56.8235 276.333 57.5098 277.02 57.7843C279.078 58.7451 280.451 60.6667 280.451 63C280.451 65.1961 279.078 67.2549 277.02 68.0784Z" fill="#ECECEC"/>
<rect x="355.5" y="29.5" width="67" height="67" rx="11.5" fill="#F9FBFF"/>
<rect x="355.5" y="29.5" width="67" height="67" rx="11.5" stroke="#ECECEC"/>
<path d="M402.227 65.1636H398.918V60.8364H402.227C402.991 60.8364 403.5 60.3273 403.5 59.5636C403.5 58.8 402.991 58.2909 402.227 58.2909H398.918V57.2727C398.918 55.2364 397.264 53.7091 395.355 53.7091H394.336V50.2727C394.336 49.5091 393.827 49 393.064 49C392.3 49 391.791 49.5091 391.791 50.2727V53.5818H387.336V50.2727C387.336 49.5091 386.827 49 386.064 49C385.3 49 384.791 49.5091 384.791 50.2727V53.5818H383.773C381.736 53.5818 380.209 55.2364 380.209 57.1455V58.1636H376.773C376.009 58.1636 375.5 58.6727 375.5 59.4364C375.5 60.2 376.009 60.7091 376.773 60.7091H380.082V65.1636H376.773C376.009 65.1636 375.5 65.6727 375.5 66.4364C375.5 67.2 376.009 67.7091 376.773 67.7091H380.082V68.7273C380.082 70.7636 381.736 72.2909 383.645 72.2909H384.664V75.7273C384.664 76.4909 385.173 77 385.936 77C386.7 77 387.209 76.4909 387.209 75.7273V72.4182H391.664V75.7273C391.664 76.4909 392.173 77 392.936 77C393.7 77 394.209 76.4909 394.209 75.7273V72.4182H395.227C397.264 72.4182 398.791 70.7636 398.791 68.8545V67.8364H402.227C402.991 67.8364 403.5 67.3273 403.5 66.5636C403.5 65.8 402.991 65.1636 402.227 65.1636ZM396.373 68.7273C396.373 69.3636 395.864 69.7455 395.355 69.7455H383.773C383.136 69.7455 382.755 69.2364 382.755 68.7273V57.2727C382.627 56.6364 383.136 56.1273 383.773 56.1273H395.355C395.991 56.1273 396.373 56.6364 396.373 57.1455V68.7273Z" fill="#ECECEC"/>
<rect x="24.5" y="297.5" width="67" height="67" rx="11.5" fill="#F9FBFF"/>
<rect x="24.5" y="297.5" width="67" height="67" rx="11.5" stroke="#ECECEC"/>
<path d="M53.9273 328.2C54.6909 328.2 55.2 327.691 55.2 326.927C55.2 325.4 56.4727 324.127 58 324.127C59.5273 324.127 60.8 325.4 60.8 326.927C60.8 327.691 61.3091 328.2 62.0727 328.2C62.8364 328.2 63.3455 327.691 63.3455 326.927C63.3455 324 60.9273 321.582 58 321.582C55.0727 321.582 52.6545 324 52.6545 326.927C52.6545 327.564 53.2909 328.2 53.9273 328.2Z" fill="#ECECEC"/>
<path d="M70.7273 329.727H45.2727C44.5091 329.727 44 330.236 44 331C44 331.764 44.5091 332.273 45.2727 332.273H51.7636C51 333.036 50.3636 333.927 49.9818 334.945C49.6 335.964 49.7273 337.109 50.2364 338C50.8727 338.891 51.8909 339.527 53.0364 339.527H62.7091C63.8545 339.527 64.8727 339.018 65.5091 338C66.1455 337.109 66.2727 335.964 65.7636 334.945C65.3818 333.927 64.7455 333.036 63.9818 332.273H70.7273C71.4909 332.273 72 331.764 72 331C72 330.236 71.4909 329.727 70.7273 329.727ZM63.6 335.964C63.7273 336.218 63.6 336.473 63.4727 336.6C63.3455 336.855 63.0909 336.982 62.7091 336.982H53.1636C52.9091 336.982 52.6545 336.855 52.4 336.6C52.2727 336.473 52.1455 336.218 52.2727 335.964C53.0364 334.055 54.8182 332.655 56.8545 332.273H58.8909C61.0545 332.655 62.8364 334.055 63.6 335.964Z" fill="#ECECEC"/>
<path d="M70.7273 335.455C69.9636 335.455 69.4545 335.964 69.4545 336.727V339.018C69.4545 340.927 67.9273 342.327 66.1455 342.327H63.8545C63.0909 342.327 62.5818 342.836 62.5818 343.6C62.5818 344.364 63.0909 344.873 63.8545 344.873H66.1455C69.4545 344.873 72 342.2 72 339.018V336.727C72 336.091 71.4909 335.455 70.7273 335.455Z" fill="#ECECEC"/>
<path d="M52.2727 342.455H49.8545C48.0727 342.455 46.5455 340.927 46.5455 339.145V336.855C46.5455 336.091 46.0364 335.582 45.2727 335.582C44.5091 335.582 44 336.091 44 336.855V339.145C44 342.327 46.6727 345 49.8545 345H52.1455C52.9091 345 53.4182 344.491 53.4182 343.727C53.4182 342.964 52.9091 342.455 52.2727 342.455Z" fill="#ECECEC"/>
<path d="M45.2727 326.545C46.0364 326.545 46.5455 326.036 46.5455 325.273V322.855C46.5455 321.073 48.0727 319.545 49.8545 319.545H52.1455C52.9091 319.545 53.4182 319.036 53.4182 318.273C53.4182 317.509 52.9091 317 52.2727 317H49.8545C46.6727 317 44 319.673 44 322.855V325.145C44 325.909 44.5091 326.545 45.2727 326.545Z" fill="#ECECEC"/>
<path d="M66.1455 317H63.8545C63.0909 317 62.5818 317.509 62.5818 318.273C62.5818 319.036 63.0909 319.545 63.8545 319.545H66.1455C67.9273 319.545 69.4545 321.073 69.4545 322.855V325.145C69.4545 325.909 69.9636 326.418 70.7273 326.418C71.4909 326.418 72 325.909 72 325.145V322.855C72 319.673 69.3273 317 66.1455 317Z" fill="#ECECEC"/>
<path d="M462 344L512 344" stroke="#ECECEC"/>
<path d="M579 484L656 484" stroke="#ECECEC"/>
<path d="M539 497L539 579" stroke="#ECECEC"/>
<path d="M556 497V523.907C556 532.744 563.163 539.907 572 539.907H645C653.837 539.907 661 547.07 661 555.907V579" stroke="#ECECEC"/>
<path d="M683 230V241.994C683 250.831 675.837 257.994 667 257.994H619C610.163 257.994 603 265.158 603 273.994V442C603 450.837 595.837 458 587 458H578.5" stroke="#ECECEC"/>
<path d="M579 472L625.019 472C633.817 472 640.93 464.868 640.93 456.045L640.93 365" stroke="#ECECEC"/>
<path d="M462 211L512 211" stroke="#ECECEC"/>
<path d="M290 301L290 232" stroke="#ECECEC"/>
<path d="M324 302L324 295.5C324.001 286.663 331.164 279.5 340 279.5L574.999 279.5C583.836 279.5 590.999 286.664 590.999 295.5L590.999 431C590.999 437.904 585.403 443.5 578.499 443.5V443.5" stroke="#ECECEC"/>
<path d="M181 297L181 214C181 205.163 173.837 198 165 198L158 198" stroke="#ECECEC"/>
<path d="M120 498L120 579" stroke="#ECECEC"/>
<path d="M257 676L257 729" stroke="url(#paint13_linear_493_113453)" stroke-width="2"/>
<path d="M376 647L376 729" stroke="#ECECEC"/>
<path d="M388 646.8L388 683.842C388 692.915 395.36 700.398 404.283 700.398L529.717 700.398C538.64 700.398 546 707.882 546 716.954L546 729" stroke="#ECECEC"/>
<path d="M409 614L475.501 614C484.337 614 491.501 621.164 491.501 630L491.501 660.5C491.501 669.337 498.664 676.5 507.501 676.5L700.001 676.5C708.837 676.5 716.001 683.664 716.001 692.5L716 729" stroke="#ECECEC"/>
<path d="M238 676L238 694.324C238 703.16 230.837 710.324 222 710.324L167 710.324C158.163 710.324 151 717.487 151 726.324L151 729" stroke="#ECECEC"/>
<path d="M120 430V348C120 339.163 112.837 332 104 332H91.5" stroke="#ECECEC"/>
<path d="M263 164L263 97" stroke="#ECECEC"/>
<path d="M391 97V97C391 103.627 385.627 109 379 109H293C284.163 109 277 116.163 277 125V164" stroke="#ECECEC"/>
<path d="M157 65H199C207.837 65 215 72.1635 215 81V297" stroke="#ECECEC"/>
<path d="M462.001 197.499L477.5 197.499C486.336 197.499 493.5 190.336 493.5 181.499L493.501 97.0001" stroke="#ECECEC"/>
<path d="M394 344H344" stroke="#ECECEC"/>
<path d="M276 344L233 344" stroke="#ECECEC"/>
<path d="M276 356H271.837C263.001 356 255.837 363.163 255.837 372V392.136C255.837 400.973 248.674 408.136 239.837 408.136H168C159.163 408.136 152 415.3 152 424.136V430" stroke="#ECECEC"/>
<path d="M296 369L296 430" stroke="#ECECEC"/>
<path d="M344 350L360 350C368.836 350 376 357.163 376 366L376 579" stroke="#ECECEC"/>
<path d="M344 356V356C352.837 356 360 363.163 360 372V543.349C360 552.185 352.837 559.349 344 559.349H274C265.163 559.349 258 566.512 258 575.349V582" stroke="url(#paint14_linear_493_113453)" stroke-width="2"/>
<path d="M428 309L428 237" stroke="#ECECEC"/>
<path d="M428 377L428 429" stroke="#ECECEC"/>
<defs>
<filter id="filter0_d_493_113453" x="267" y="293" width="88" height="114" filterUnits="userSpaceOnUse" color-interpolation-filters="sRGB">
<feFlood flood-opacity="0" result="BackgroundImageFix"/>
<feColorMatrix in="SourceAlpha" type="matrix" values="0 0 0 0 0 0 0 0 0 0 0 0 0 0 0 0 0 0 127 0" result="hardAlpha"/>
<feOffset dx="1" dy="2"/>
<feGaussianBlur stdDeviation="5"/>
<feComposite in2="hardAlpha" operator="out"/>
<feColorMatrix type="matrix" values="0 0 0 0 0.00780001 0 0 0 0 0.045344 0 0 0 0 0.0800001 0 0 0 0.04 0"/>
<feBlend mode="normal" in2="BackgroundImageFix" result="effect1_dropShadow_493_113453"/>
<feBlend mode="normal" in="SourceGraphic" in2="effect1_dropShadow_493_113453" result="shape"/>
</filter>
<filter id="filter1_d_493_113453" x="217" y="721" width="95" height="114" filterUnits="userSpaceOnUse" color-interpolation-filters="sRGB">
<feFlood flood-opacity="0" result="BackgroundImageFix"/>
<feColorMatrix in="SourceAlpha" type="matrix" values="0 0 0 0 0 0 0 0 0 0 0 0 0 0 0 0 0 0 127 0" result="hardAlpha"/>
<feOffset dx="1" dy="2"/>
<feGaussianBlur stdDeviation="5"/>
<feComposite in2="hardAlpha" operator="out"/>
<feColorMatrix type="matrix" values="0 0 0 0 0.00780001 0 0 0 0 0.045344 0 0 0 0 0.0800001 0 0 0 0.04 0"/>
<feBlend mode="normal" in2="BackgroundImageFix" result="effect1_dropShadow_493_113453"/>
<feBlend mode="normal" in="SourceGraphic" in2="effect1_dropShadow_493_113453" result="shape"/>
</filter>
<filter id="filter2_d_493_113453" x="204" y="574" width="108" height="114" filterUnits="userSpaceOnUse" color-interpolation-filters="sRGB">
<feFlood flood-opacity="0" result="BackgroundImageFix"/>
<feColorMatrix in="SourceAlpha" type="matrix" values="0 0 0 0 0 0 0 0 0 0 0 0 0 0 0 0 0 0 127 0" result="hardAlpha"/>
<feOffset dx="1" dy="2"/>
<feGaussianBlur stdDeviation="5"/>
<feComposite in2="hardAlpha" operator="out"/>
<feColorMatrix type="matrix" values="0 0 0 0 0.00780001 0 0 0 0 0.045344 0 0 0 0 0.0800001 0 0 0 0.04 0"/>
<feBlend mode="normal" in2="BackgroundImageFix" result="effect1_dropShadow_493_113453"/>
<feBlend mode="normal" in="SourceGraphic" in2="effect1_dropShadow_493_113453" result="shape"/>
</filter>
<radialGradient id="paint0_radial_493_113453" cx="0" cy="0" r="1" gradientUnits="userSpaceOnUse" gradientTransform="translate(309.6 339) rotate(98.7708) scale(17.7071 16.0233)">
<stop offset="0.055" stop-color="#7A73FF"/>
<stop offset="0.65" stop-color="#67DDFA"/>
<stop offset="1" stop-color="#4AFCF1"/>
</radialGradient>
<radialGradient id="paint1_radial_493_113453" cx="0" cy="0" r="1" gradientUnits="userSpaceOnUse" gradientTransform="translate(309.6 339) rotate(98.7708) scale(17.7071 16.0233)">
<stop offset="0.055" stop-color="#7A73FF"/>
<stop offset="0.65" stop-color="#67DDFA"/>
<stop offset="1" stop-color="#4AFCF1"/>
</radialGradient>
<radialGradient id="paint2_radial_493_113453" cx="0" cy="0" r="1" gradientUnits="userSpaceOnUse" gradientTransform="translate(309.6 339) rotate(98.7708) scale(17.7071 16.0233)">
<stop offset="0.055" stop-color="#7A73FF"/>
<stop offset="0.65" stop-color="#67DDFA"/>
<stop offset="1" stop-color="#4AFCF1"/>
</radialGradient>
<radialGradient id="paint3_radial_493_113453" cx="0" cy="0" r="1" gradientUnits="userSpaceOnUse" gradientTransform="translate(309.6 339) rotate(98.7708) scale(17.7071 16.0233)">
<stop offset="0.055" stop-color="#7A73FF"/>
<stop offset="0.65" stop-color="#67DDFA"/>
<stop offset="1" stop-color="#4AFCF1"/>
</radialGradient>
<radialGradient id="paint4_radial_493_113453" cx="0" cy="0" r="1" gradientUnits="userSpaceOnUse" gradientTransform="translate(309.6 339) rotate(98.7708) scale(17.7071 16.0233)">
<stop offset="0.055" stop-color="#7A73FF"/>
<stop offset="0.65" stop-color="#67DDFA"/>
<stop offset="1" stop-color="#4AFCF1"/>
</radialGradient>
<radialGradient id="paint5_radial_493_113453" cx="0" cy="0" r="1" gradientUnits="userSpaceOnUse" gradientTransform="translate(309.6 339) rotate(98.7708) scale(17.7071 16.0233)">
<stop offset="0.055" stop-color="#7A73FF"/>
<stop offset="0.65" stop-color="#67DDFA"/>
<stop offset="1" stop-color="#4AFCF1"/>
</radialGradient>
<radialGradient id="paint6_radial_493_113453" cx="0" cy="0" r="1" gradientUnits="userSpaceOnUse" gradientTransform="translate(263.43 767) rotate(99.6801) scale(17.7528 17.6694)">
<stop offset="0.055" stop-color="#7A73FF"/>
<stop offset="0.65" stop-color="#67DDFA"/>
<stop offset="1" stop-color="#4AFCF1"/>
</radialGradient>
<radialGradient id="paint7_radial_493_113453" cx="0" cy="0" r="1" gradientUnits="userSpaceOnUse" gradientTransform="translate(263.43 767) rotate(99.6801) scale(17.7528 17.6694)">
<stop offset="0.055" stop-color="#7A73FF"/>
<stop offset="0.65" stop-color="#67DDFA"/>
<stop offset="1" stop-color="#4AFCF1"/>
</radialGradient>
<radialGradient id="paint8_radial_493_113453" cx="0" cy="0" r="1" gradientUnits="userSpaceOnUse" gradientTransform="translate(263.43 767) rotate(99.6801) scale(17.7528 17.6694)">
<stop offset="0.055" stop-color="#7A73FF"/>
<stop offset="0.65" stop-color="#67DDFA"/>
<stop offset="1" stop-color="#4AFCF1"/>
</radialGradient>
<radialGradient id="paint9_radial_493_113453" cx="0" cy="0" r="1" gradientUnits="userSpaceOnUse" gradientTransform="translate(257.5 620) rotate(99.7276) scale(17.7553)">
<stop offset="0.055" stop-color="#7A73FF"/>
<stop offset="0.65" stop-color="#67DDFA"/>
<stop offset="1" stop-color="#4AFCF1"/>
</radialGradient>
<radialGradient id="paint10_radial_493_113453" cx="0" cy="0" r="1" gradientUnits="userSpaceOnUse" gradientTransform="translate(257.5 620) rotate(99.7276) scale(17.7553)">
<stop offset="0.055" stop-color="#7A73FF"/>
<stop offset="0.65" stop-color="#67DDFA"/>
<stop offset="1" stop-color="#4AFCF1"/>
</radialGradient>
<radialGradient id="paint11_radial_493_113453" cx="0" cy="0" r="1" gradientUnits="userSpaceOnUse" gradientTransform="translate(257.5 620) rotate(99.7276) scale(17.7553)">
<stop offset="0.055" stop-color="#7A73FF"/>
<stop offset="0.65" stop-color="#67DDFA"/>
<stop offset="1" stop-color="#4AFCF1"/>
</radialGradient>
<radialGradient id="paint12_radial_493_113453" cx="0" cy="0" r="1" gradientUnits="userSpaceOnUse" gradientTransform="translate(257.5 620) rotate(99.7276) scale(17.7553)">
<stop offset="0.055" stop-color="#7A73FF"/>
<stop offset="0.65" stop-color="#67DDFA"/>
<stop offset="1" stop-color="#4AFCF1"/>
</radialGradient>
<linearGradient id="paint13_linear_493_113453" x1="258" y1="758.812" x2="251.224" y2="758.442" gradientUnits="userSpaceOnUse">
<stop offset="0.338542" stop-color="#7A73FF"/>
<stop offset="0.734375" stop-color="#75CDFF"/>
<stop offset="1" stop-color="#4AFCF1"/>
</linearGradient>
<linearGradient id="paint14_linear_493_113453" x1="462" y1="709.125" x2="206.268" y2="374.628" gradientUnits="userSpaceOnUse">
<stop offset="0.338542" stop-color="#7A73FF"/>
<stop offset="0.734375" stop-color="#75CDFF"/>
<stop offset="1" stop-color="#4AFCF1"/>
</linearGradient>
</defs>
</svg>
