<svg width="788" height="874" viewBox="0 0 788 874" fill="none" xmlns="http://www.w3.org/2000/svg">
<rect x="394.5" y="309.5" width="67" height="67" rx="11.5" fill="#F9FBFF"/>
<rect x="394.5" y="309.5" width="67" height="67" rx="11.5" stroke="#ECECEC"/>
<path fill-rule="evenodd" clip-rule="evenodd" d="M428 359C436.837 359 444 351.837 444 343C444 337.866 441.582 333.297 437.823 330.37L435.181 328.698C433.022 327.612 430.582 327 428 327C419.163 327 412 334.163 412 343C412 351.837 419.163 359 428 359ZM435.181 328.698V336.292C433.317 334.202 430.622 332.889 427.625 332.889C421.999 332.889 417.437 337.517 417.437 343.226C417.437 348.935 421.999 353.563 427.625 353.563C430.622 353.563 433.317 352.25 435.181 350.16L435.107 352.311C435.097 352.614 435.339 352.864 435.642 352.864H437.358C437.654 352.864 437.893 352.624 437.892 352.328L437.823 330.37L435.181 328.698ZM435.606 343.226C435.606 347.525 432.166 351.01 427.922 351.01C423.679 351.01 420.239 347.525 420.239 343.226C420.239 338.927 423.679 335.441 427.922 335.441C432.166 335.441 435.606 338.927 435.606 343.226Z" fill="#ECECEC"/>
<rect x="394.5" y="169.5" width="67" height="67" rx="11.5" fill="#F9FBFF"/>
<rect x="394.5" y="169.5" width="67" height="67" rx="11.5" stroke="#ECECEC"/>
<path d="M434.409 209.045C433.864 209.045 433.455 208.773 433.182 208.364L431.546 205.5C430.864 204 429.501 202.636 428.001 201.818L425.137 200.182C424.728 200.045 424.455 199.5 424.455 199.091C424.455 198.545 424.728 198.136 425.137 197.864L428.001 196.227C429.501 195.409 430.864 194.182 431.682 192.545L433.319 189.682C433.455 189.273 434 189 434.409 189C434.955 189 435.364 189.273 435.637 189.682L437.273 192.545C438.091 194.045 439.455 195.409 440.955 196.227L443.818 197.864C444.227 198.136 444.5 198.545 444.5 199.091C444.5 199.636 444.227 200.045 443.818 200.318L440.955 201.955C439.455 202.773 438.091 204.136 437.273 205.636L435.637 208.5C435.364 208.773 434.955 209.045 434.409 209.045ZM428.682 199.091L429.364 199.5C431.41 200.591 433.046 202.227 434.137 204.273L434.546 204.955L434.955 204.273C436.046 202.227 437.682 200.591 439.727 199.5L440.409 199.091L439.727 198.682C437.682 197.591 436.046 195.955 434.955 193.909L434.546 193.227L434.137 193.909C433.046 195.955 431.41 197.591 429.364 198.682L428.682 199.091Z" fill="#ECECEC"/>
<path d="M422 219C421.454 219 421.045 218.727 420.773 218.318L419.954 216.682C419.273 215.318 418.182 214.227 416.818 213.545L415.182 212.727C414.773 212.455 414.5 211.909 414.5 211.5C414.5 210.955 414.773 210.545 415.182 210.273L416.818 209.455C418.182 208.773 419.273 207.682 419.954 206.318L420.773 204.682C421.318 203.864 422.682 203.864 423.227 204.682L424.045 206.318C424.727 207.682 425.818 208.773 427.181 209.455L428.818 210.273C429.227 210.545 429.499 210.955 429.499 211.5C429.499 212.045 429.227 212.455 428.818 212.727L427.318 213.545C425.954 214.227 424.863 215.318 424.181 216.682L423.363 218.318C422.954 218.727 422.545 219 422 219ZM418.727 211.5C420.091 212.318 421.318 213.545 422.136 214.909C422.954 213.545 424.181 212.318 425.545 211.5C424.045 210.545 422.954 209.455 422 208.091C421.182 209.455 420.091 210.545 418.727 211.5Z" fill="#ECECEC"/>
<rect x="244.5" y="164.5" width="67" height="67" rx="11.5" fill="#F9FBFF"/>
<rect x="244.5" y="164.5" width="67" height="67" rx="11.5" stroke="#ECECEC"/>
<path d="M288.732 184.433C288.155 183.856 287.289 183.856 286.713 184.433C286.136 185.01 286.136 185.876 286.713 186.453C289.309 189.05 290.751 192.512 290.751 196.264C290.751 200.015 289.309 203.478 286.713 206.075C284.116 208.672 280.655 210.114 276.904 210.114C273.731 210.114 270.558 208.96 268.106 206.94L269.981 204.92C272 206.507 274.452 207.229 276.76 207.229C279.645 207.229 282.385 206.219 284.549 204.055C288.876 199.726 288.876 192.657 284.549 188.473C280.222 184.144 273.154 184.144 268.971 188.473C265.077 192.368 264.644 198.572 267.962 202.9L264.933 206.075C264.356 206.652 264.356 207.517 264.933 208.095C268.106 211.269 272.289 213 276.76 213C281.232 213 285.414 211.269 288.588 208.095C291.761 204.92 293.492 200.736 293.492 196.264C293.636 191.791 291.905 187.607 288.732 184.433ZM271.135 190.493C272.722 188.905 274.885 188.04 276.904 188.04C279.068 188.04 281.087 188.905 282.674 190.493C285.847 193.667 285.847 198.861 282.674 202.035C279.501 205.209 274.308 205.209 271.135 202.035C267.962 198.861 267.962 193.667 271.135 190.493Z" fill="#ECECEC"/>
<rect x="102.5" y="430.5" width="67" height="67" rx="11.5" fill="#F9FBFF"/>
<rect x="102.5" y="430.5" width="67" height="67" rx="11.5" stroke="#ECECEC"/>
<path fill-rule="evenodd" clip-rule="evenodd" d="M122.549 456.284C120.292 454.023 121.912 450 125.179 450H145.825C149.092 450 150.712 454.023 148.455 456.284C148.454 456.286 148.453 456.287 148.451 456.288L140.301 464.548V471.769C140.301 472.929 139.738 474.159 138.656 474.83L134.658 477.575L134.641 477.586C133.751 478.179 132.726 478.077 131.989 477.643C131.268 477.217 130.703 476.408 130.703 475.415V464.548L122.549 456.284ZM124.38 453.364C124.231 453.725 124.299 454.075 124.531 454.307L124.539 454.314L133.099 462.99C133.358 463.252 133.503 463.605 133.503 463.973V474.972L137.102 472.501C137.125 472.484 137.15 472.469 137.174 472.454C137.324 472.365 137.501 472.103 137.501 471.769V463.973C137.501 463.605 137.646 463.252 137.905 462.99L146.473 454.307C146.705 454.075 146.773 453.725 146.624 453.364C146.478 453.01 146.187 452.8 145.825 452.8H125.179C124.817 452.8 124.526 453.01 124.38 453.364Z" fill="#ECECEC"/>
<rect x="245.5" y="430.5" width="67" height="67" rx="11.5" fill="#F9FBFF"/>
<rect x="245.5" y="430.5" width="67" height="67" rx="11.5" stroke="#ECECEC"/>
<path fill-rule="evenodd" clip-rule="evenodd" d="M276.916 450.491C278.388 449.836 280.033 449.836 281.505 450.491L281.527 450.502L289.396 454.188C289.406 454.193 289.416 454.197 289.426 454.202C291.189 455.085 292.233 457.025 291.889 459.105C291.234 463.165 289.253 471.169 281.91 477.053L281.896 477.064C280.294 478.312 278.127 478.312 276.524 477.064L276.511 477.053C269.165 471.168 267.185 463.161 266.532 459.102C266.527 459.073 266.523 459.044 266.521 459.015C266.358 457.218 267.158 455.102 269.154 454.187L276.886 450.505C276.896 450.5 276.906 450.496 276.916 450.491ZM277.965 452.811L270.239 456.489L270.219 456.499C269.441 456.853 268.978 457.763 269.052 458.744C269.675 462.577 271.513 469.782 278.095 475.061C278.774 475.586 279.646 475.586 280.326 475.061C286.935 469.761 288.761 462.517 289.376 458.697L289.377 458.691C289.538 457.726 289.066 456.876 288.299 456.485L280.459 452.812C279.654 452.457 278.77 452.457 277.965 452.811Z" fill="#ECECEC"/>
<path fill-rule="evenodd" clip-rule="evenodd" d="M285.08 457.89C285.643 458.311 285.758 459.108 285.337 459.671L279.626 467.308C279.387 467.627 279.011 467.816 278.612 467.818C278.213 467.82 277.836 467.634 277.594 467.316L274.396 463.116C273.97 462.557 274.078 461.759 274.638 461.333C275.197 460.907 275.995 461.015 276.421 461.574L278.598 464.433L283.298 458.147C283.719 457.584 284.517 457.469 285.08 457.89Z" fill="#ECECEC"/>
<rect x="118.5" y="729.5" width="67" height="67" rx="11.5" fill="#F9FBFF"/>
<rect x="118.5" y="729.5" width="67" height="67" rx="11.5" stroke="#ECECEC"/>
<path d="M166.653 759.021C163.705 756.516 158.842 753.421 152.211 753.421C151.474 753.421 150.737 753.421 150.295 753.568C149.411 753.716 148.821 754.453 148.968 755.337C149.116 756.074 149.853 756.663 150.589 756.663C151.032 756.663 151.621 756.516 152.211 756.516C157.958 756.516 162.232 759.168 164.737 761.379C165.179 761.674 165.474 762.263 165.474 763C165.474 763.737 165.179 764.179 164.737 764.621C163.853 765.358 162.821 766.095 161.789 766.684C161.053 767.126 160.905 768.011 161.2 768.747C161.495 769.189 161.937 769.484 162.526 769.484C162.821 769.484 162.968 769.484 163.263 769.337C164.442 768.6 165.621 767.863 166.653 766.979C167.832 765.947 168.421 764.621 168.421 763.147C168.421 761.379 167.832 760.053 166.653 759.021Z" fill="#ECECEC"/>
<path d="M140.716 749.442C140.126 748.853 139.242 748.853 138.653 749.442C138.063 750.032 138.063 750.916 138.653 751.505L142.779 755.632C140.716 756.811 138.947 758.137 137.768 759.021C136.589 760.053 136 761.379 136 763C136 764.621 136.589 765.947 137.768 766.832C140.716 769.337 145.579 772.432 152.211 772.432C154.421 772.432 156.484 772.137 158.547 771.4L163.705 776.558C164 776.853 164.442 777 164.737 777C165.032 777 165.474 776.853 165.768 776.558C166.358 775.968 166.358 775.084 165.768 774.495L140.716 749.442ZM152.211 769.337C146.463 769.337 142.189 766.684 139.684 764.474C139.242 764.179 138.947 763.589 138.947 763C138.947 762.411 139.242 761.821 139.684 761.379C140.863 760.347 142.779 759.021 145.137 757.989L148.968 761.821C148.821 762.116 148.821 762.558 148.821 763C148.821 764.916 150.295 766.389 152.211 766.389C152.653 766.389 152.947 766.242 153.389 766.242L156.189 769.042C154.863 769.189 153.537 769.337 152.211 769.337Z" fill="#ECECEC"/>
<rect x="463.5" y="29.5" width="67" height="67" rx="11.5" fill="#F9FBFF"/>
<rect x="463.5" y="29.5" width="67" height="67" rx="11.5" stroke="#ECECEC"/>
<path d="M497 49C489.3 49 483 55.3 483 63C483 70.7 489.3 77 497 77C504.7 77 511 70.7 511 63C511 55.3 504.7 49 497 49ZM497 74.2C490.84 74.2 485.8 69.16 485.8 63C485.8 56.84 490.84 51.8 497 51.8C503.16 51.8 508.2 56.84 508.2 63C508.2 69.16 503.16 74.2 497 74.2Z" fill="#ECECEC"/>
<path d="M504.7 67.76C503.72 66.78 502.6 66.08 501.34 65.52C502.32 64.4 503.02 63 503.02 61.32C503.02 57.96 500.36 55.3 497 55.3C493.64 55.3 490.98 57.96 490.98 61.32C490.98 63 491.68 64.4 492.66 65.52C491.4 66.08 490.28 66.78 489.3 67.76C488.74 68.32 488.74 69.16 489.3 69.72C489.58 70 490 70.14 490.28 70.14C490.7 70.14 490.98 70 491.26 69.72C492.8 68.18 494.76 67.34 497 67.34C499.1 67.34 501.2 68.18 502.74 69.72C503.3 70.28 504.14 70.28 504.7 69.72C505.26 69.16 505.26 68.32 504.7 67.76ZM493.78 61.32C493.78 59.5 495.18 58.1 497 58.1C498.82 58.1 500.22 59.5 500.22 61.32C500.22 63.14 498.82 64.54 497 64.54C495.18 64.54 493.78 63.14 493.78 61.32Z" fill="#ECECEC"/>
<rect x="512.5" y="170.5" width="67" height="67" rx="11.5" fill="#F9FBFF"/>
<rect x="512.5" y="170.5" width="67" height="67" rx="11.5" stroke="#ECECEC"/>
<path d="M558.6 192.8H533.4C532.56 192.8 532 192.24 532 191.4C532 190.56 532.56 190 533.4 190H558.6C559.44 190 560 190.56 560 191.4C560 192.24 559.44 192.8 558.6 192.8Z" fill="#ECECEC"/>
<path d="M558.6 209.6H546C545.16 209.6 544.6 209.04 544.6 208.2C544.6 207.36 545.16 206.8 546 206.8H558.6C559.44 206.8 560 207.36 560 208.2C560 209.04 559.44 209.6 558.6 209.6Z" fill="#ECECEC"/>
<path d="M558.6 201.2H546C545.16 201.2 544.6 200.64 544.6 199.8C544.6 198.96 545.16 198.4 546 198.4H558.6C559.44 198.4 560 198.96 560 199.8C560 200.64 559.44 201.2 558.6 201.2Z" fill="#ECECEC"/>
<path d="M558.6 218H533.4C532.56 218 532 217.44 532 216.6C532 215.76 532.56 215.2 533.4 215.2H558.6C559.44 215.2 560 215.76 560 216.6C560 217.44 559.44 218 558.6 218Z" fill="#ECECEC"/>
<path d="M534.52 211.14C534.1 211.14 533.68 211 533.4 210.86C532.56 210.44 532 209.6 532 208.62V199.38C532 198.4 532.56 197.56 533.4 197.14C534.24 196.72 535.22 196.86 536.06 197.42L542.22 202.04C542.78 202.46 543.2 203.16 543.2 204C543.2 204.84 542.78 205.54 542.22 206.1L536.06 210.72C535.64 211 535.08 211.14 534.52 211.14ZM534.8 199.94V208.06L540.26 204L534.8 199.94Z" fill="#ECECEC"/>
<rect x="656.5" y="429.5" width="67" height="67" rx="11.5" fill="#F9FBFF"/>
<rect x="656.5" y="429.5" width="67" height="67" rx="11.5" stroke="#ECECEC"/>
<path d="M694.014 478H684.851C682.156 478 680 475.818 680 473.091V452.909C680 450.182 682.156 448 684.851 448H694.149C696.844 448 699 450.182 699 452.909V473.227C698.865 475.818 696.709 478 694.014 478ZM684.851 450.727C683.638 450.727 682.695 451.682 682.695 452.909V473.227C682.695 474.318 683.638 475.273 684.851 475.273H694.149C695.362 475.273 696.305 474.318 696.305 473.091V452.909C696.17 451.682 695.227 450.727 694.014 450.727H684.851Z" fill="#ECECEC"/>
<path d="M691.184 455.227H687.681C686.872 455.227 686.333 454.682 686.333 453.864C686.333 453.045 686.872 452.5 687.681 452.5H691.319C692.128 452.5 692.667 453.045 692.667 453.864C692.667 454.682 691.993 455.227 691.184 455.227Z" fill="#ECECEC"/>
<rect x="511.5" y="579.5" width="67" height="67" rx="11.5" fill="#F9FBFF"/>
<rect x="511.5" y="579.5" width="67" height="67" rx="11.5" stroke="#ECECEC"/>
<path fill-rule="evenodd" clip-rule="evenodd" d="M543.758 599.043C550.547 598.477 556.266 603.585 556.409 610.171L556.409 610.199C556.409 612.501 555.688 614.653 554.41 616.5L554.397 616.518L547.937 625.519C547.925 625.536 547.911 625.554 547.898 625.571C546.413 627.429 543.492 627.543 542.066 625.513L535.604 616.51C533.919 614.122 533.034 611.107 533.75 607.916C534.632 603.131 538.804 599.609 543.719 599.047C543.732 599.045 543.745 599.044 543.758 599.043ZM543.989 601.578C540.055 602.036 536.896 604.836 536.249 608.398C536.246 608.416 536.242 608.434 536.238 608.452C535.699 610.827 536.332 613.124 537.681 615.039L544.147 624.047C544.491 624.54 545.35 624.655 545.892 624.003L552.323 615.043C553.318 613.601 553.861 611.958 553.864 610.213C553.746 605.149 549.346 601.142 543.989 601.578Z" fill="#ECECEC"/>
<path fill-rule="evenodd" clip-rule="evenodd" d="M544.955 607.782C543.619 607.782 542.537 608.864 542.537 610.2C542.537 611.536 543.619 612.618 544.955 612.618C546.29 612.618 547.373 611.536 547.373 610.2C547.373 608.864 546.29 607.782 544.955 607.782ZM539.991 610.2C539.991 607.459 542.214 605.236 544.955 605.236C547.696 605.236 549.918 607.459 549.918 610.2C549.918 612.941 547.696 615.164 544.955 615.164C542.214 615.164 539.991 612.941 539.991 610.2Z" fill="#ECECEC"/>
<path fill-rule="evenodd" clip-rule="evenodd" d="M544.955 607.782C543.619 607.782 542.537 608.864 542.537 610.2C542.537 611.536 543.619 612.618 544.955 612.618C546.29 612.618 547.373 611.536 547.373 610.2C547.373 608.864 546.29 607.782 544.955 607.782ZM539.991 610.2C539.991 607.459 542.214 605.236 544.955 605.236C547.696 605.236 549.918 607.459 549.918 610.2C549.918 612.941 547.696 615.164 544.955 615.164C542.214 615.164 539.991 612.941 539.991 610.2Z" fill="#ECECEC"/>
<path fill-rule="evenodd" clip-rule="evenodd" d="M544.955 607.782C543.619 607.782 542.537 608.864 542.537 610.2C542.537 611.536 543.619 612.618 544.955 612.618C546.29 612.618 547.373 611.536 547.373 610.2C547.373 608.864 546.29 607.782 544.955 607.782ZM539.991 610.2C539.991 607.459 542.214 605.236 544.955 605.236C547.696 605.236 549.918 607.459 549.918 610.2C549.918 612.941 547.696 615.164 544.955 615.164C542.214 615.164 539.991 612.941 539.991 610.2Z" fill="#ECECEC"/>
<rect x="626.5" y="579.5" width="67" height="67" rx="11.5" fill="#F9FBFF"/>
<rect x="626.5" y="579.5" width="67" height="67" rx="11.5" stroke="#ECECEC"/>
<path d="M647.9 625.6C647.06 625.6 646.5 625.04 646.5 624.2V611.6C646.5 610.76 647.06 610.2 647.9 610.2C648.74 610.2 649.3 610.76 649.3 611.6V624.2C649.3 625.04 648.74 625.6 647.9 625.6Z" fill="#ECECEC"/>
<path d="M666.486 627H654.955C652.622 627 650.7 625.04 650.7 622.66V610.9C650.7 609.36 651.249 607.96 652.21 606.7L657.701 600.4C658.525 599.56 659.76 599 661.133 599C662.643 599 663.878 599.7 664.702 600.82C665.525 602.08 665.8 603.48 665.388 604.88L664.564 607.54H670.33C671.703 607.54 672.938 608.1 673.624 609.22C674.448 610.34 674.723 611.74 674.311 613L671.428 622.94C670.742 625.46 668.82 627 666.486 627ZM654.406 608.66C653.857 609.36 653.583 610.06 653.583 610.9V622.66C653.583 623.5 654.269 624.2 655.093 624.2H666.624C667.722 624.2 668.683 623.5 668.957 622.38L671.703 612.44C671.84 612.02 671.703 611.46 671.428 611.04C671.154 610.62 670.742 610.48 670.33 610.48H662.643C662.231 610.48 661.819 610.2 661.544 609.92C661.27 609.64 661.27 609.08 661.407 608.66L662.917 604.04C663.054 603.48 663.054 602.92 662.643 602.5C662.094 601.66 660.721 601.52 660.035 602.36L654.406 608.66Z" fill="#ECECEC"/>
<rect x="620.5" y="297.5" width="67" height="67" rx="11.5" fill="#F9FBFF"/>
<rect x="620.5" y="297.5" width="67" height="67" rx="11.5" stroke="#ECECEC"/>
<path d="M644.115 325.95C644.115 322.801 646.763 320.315 650.073 320.315C651.065 320.315 651.727 319.652 651.727 318.657C651.727 317.663 651.065 317 650.073 317C644.943 317 640.806 320.978 640.806 325.95V326.945C640.806 328.436 639.813 329.928 638.158 330.425C637.496 330.591 637 331.254 637 331.917C637 332.58 637.496 333.243 638.158 333.575C639.813 334.072 640.806 335.398 640.806 337.055V338.05C640.806 343.022 644.943 347 650.073 347C651.065 347 651.727 346.337 651.727 345.343C651.727 344.348 651.065 343.685 650.073 343.685C646.763 343.685 644.115 341.199 644.115 338.05V336.89C644.115 334.901 643.288 333.077 641.964 331.917C643.288 330.591 644.115 328.768 644.115 326.945V325.95Z" fill="#ECECEC"/>
<path d="M671.842 330.333C670.187 329.833 669.194 328.5 669.194 326.833V326C669.194 321 665.057 317 659.927 317C658.935 317 658.273 317.667 658.273 318.667C658.273 319.667 658.935 320.333 659.927 320.333C663.237 320.333 665.885 322.833 665.885 326V327C665.885 329 666.712 330.833 668.036 332C666.712 333.333 665.885 335.167 665.885 337V338C665.885 341.167 663.237 343.667 659.927 343.667C658.935 343.667 658.273 344.333 658.273 345.333C658.273 346.333 658.935 347 659.927 347C665.057 347 669.194 343 669.194 338V337C669.194 335.5 670.187 334 671.842 333.5C672.504 333.333 673 332.667 673 332C673 331.333 672.504 330.667 671.842 330.333Z" fill="#ECECEC"/>
<rect x="667.5" y="163.5" width="67" height="67" rx="11.5" fill="#F9FBFF"/>
<rect x="667.5" y="163.5" width="67" height="67" rx="11.5" stroke="#ECECEC"/>
<path d="M705.496 199.937C706.425 198.836 707.045 197.421 707.045 196.006C707.045 192.547 704.257 189.874 701.005 189.874C697.753 189.874 694.966 192.547 694.966 195.849C694.966 197.421 695.585 198.836 696.514 199.78C694.501 200.881 692.953 202.453 692.023 204.654C691.559 205.755 691.714 207.17 692.333 208.27C693.107 209.371 694.346 210 695.585 210H706.27C707.509 210 708.748 209.371 709.522 208.27C710.297 207.17 710.297 205.912 709.832 204.654C709.058 202.61 707.509 200.881 705.496 199.937ZM698.063 195.849C698.063 194.277 699.457 193.019 701.005 193.019C702.554 193.019 703.947 194.277 703.947 196.006C703.947 197.736 702.554 198.836 701.005 198.836C699.457 198.836 698.063 197.579 698.063 195.849ZM707.045 206.541C706.89 206.698 706.58 206.855 706.425 206.855H695.585C695.275 206.855 695.121 206.698 694.966 206.541C694.811 206.541 694.811 206.226 694.811 205.912C695.895 203.396 698.218 201.824 701.005 201.824C703.793 201.824 706.116 203.396 707.2 205.912C707.2 206.226 707.2 206.541 707.045 206.541Z" fill="#ECECEC"/>
<path d="M693.727 198.679C693.727 197.893 693.107 197.107 692.178 197.107H687.068C687.687 195.535 689.236 194.591 690.939 194.591C693.572 194.591 695.585 192.547 695.585 189.874C695.585 187.201 693.417 185.157 690.939 185.157C688.462 185.157 686.294 187.201 686.294 189.874C686.294 190.818 686.603 191.761 687.223 192.547C685.829 193.333 684.745 194.434 684.281 195.849C683.816 196.792 683.971 197.893 684.435 198.836C685.055 199.78 685.984 200.252 687.068 200.252H692.023C692.953 200.252 693.727 199.623 693.727 198.679ZM689.391 189.874C689.391 188.931 690.165 188.302 690.939 188.302C691.714 188.302 692.488 189.088 692.488 189.874C692.488 190.818 691.714 191.447 690.939 191.447C690.165 191.447 689.391 190.66 689.391 189.874Z" fill="#ECECEC"/>
<path d="M717.73 195.849C717.11 194.434 716.026 193.176 714.788 192.39C715.252 191.604 715.717 190.66 715.717 189.717C715.717 187.201 713.549 185 711.071 185C708.593 185 706.425 187.044 706.425 189.717C706.425 192.39 708.593 194.434 711.071 194.434C712.774 194.434 714.323 195.377 714.788 197.107H709.832C708.903 197.107 708.284 197.736 708.284 198.679C708.284 199.465 708.903 200.252 709.832 200.252H714.788C715.872 200.252 716.801 199.78 717.42 198.836C718.04 197.893 718.194 196.792 717.73 195.849ZM711.071 188.302C712 188.302 712.62 189.088 712.62 189.874C712.62 190.818 711.845 191.447 711.071 191.447C710.297 191.447 709.522 190.66 709.522 189.874C709.522 188.931 710.142 188.302 711.071 188.302Z" fill="#ECECEC"/>
<rect x="226.5" y="729.5" width="67" height="67" rx="11.5" fill="#F9FBFF"/>
<rect x="226.5" y="729.5" width="67" height="67" rx="11.5" stroke="#ECECEC"/>
<path d="M268.428 766.134C265.502 766.134 262.995 768.502 262.995 771.567C262.995 774.493 265.363 777 268.428 777C271.353 777 273.861 774.632 273.861 771.567C273.861 768.502 271.493 766.134 268.428 766.134ZM268.428 774.075C267.035 774.075 265.781 772.96 265.781 771.428C265.781 770.035 266.896 768.781 268.428 768.781C269.821 768.781 271.075 769.896 271.075 771.428C271.075 772.96 269.96 774.075 268.428 774.075Z" fill="#ECECEC"/>
<path d="M258.119 760.701C258.259 760.701 258.537 760.701 258.677 760.562L264.249 757.776C265.224 759.03 266.756 759.866 268.428 759.866C271.493 759.726 273.861 757.358 273.861 754.433C273.861 751.507 271.493 749 268.428 749C265.502 749 262.995 751.368 262.995 754.433C262.995 754.711 262.995 754.99 263.134 755.269L257.423 758.055C256.726 758.473 256.448 759.308 256.866 759.866C257.005 760.423 257.562 760.701 258.119 760.701ZM268.428 751.786C269.821 751.786 271.075 752.9 271.075 754.433C271.075 755.826 269.96 757.08 268.428 757.08C267.035 757.08 265.781 755.965 265.781 754.433C265.92 752.9 267.035 751.786 268.428 751.786Z" fill="#ECECEC"/>
<path d="M262.299 767.109L256.587 764.323C256.726 763.905 256.726 763.488 256.726 762.93C256.726 760.005 254.358 757.498 251.294 757.498C248.229 757.498 246 760.005 246 762.93C246 765.856 248.368 768.363 251.433 768.363C252.965 768.363 254.358 767.806 255.333 766.692L261.184 769.617C261.323 769.756 261.602 769.756 261.741 769.756C262.299 769.756 262.716 769.478 262.995 768.92C263.274 768.363 262.995 767.527 262.299 767.109ZM251.433 765.577C249.9 765.577 248.786 764.323 248.786 762.93C248.786 761.537 249.9 760.284 251.433 760.284C252.826 760.284 254.08 761.398 254.08 762.93C253.94 764.323 252.826 765.577 251.433 765.577Z" fill="#ECECEC"/>
<rect x="72.5" y="579.5" width="67" height="67" rx="11.5" fill="#F9FBFF"/>
<rect x="72.5" y="579.5" width="67" height="67" rx="11.5" stroke="#ECECEC"/>
<path d="M105.388 624.97H97.1293C96.4048 624.97 95.6803 624.537 95.3906 623.96C94.9559 623.383 94.9559 622.806 95.2457 622.085C96.9844 618.045 100.897 615.303 105.388 615.303C109.88 615.303 113.647 611.552 113.647 607.08C113.647 602.607 109.88 599 105.243 599C100.752 599 96.9844 602.751 96.9844 607.224C96.9844 609.821 98.1436 612.129 100.027 613.572C96.6946 614.871 93.7967 617.612 92.3477 621.075C91.7682 622.517 91.9131 624.249 92.7824 625.547C93.7967 626.99 95.2457 627.856 96.9844 627.856H105.243C106.113 627.856 106.692 627.279 106.692 626.413C106.692 625.547 106.113 624.97 105.388 624.97ZM99.8823 607.224C99.8823 604.338 102.346 601.886 105.243 601.886C108.141 601.886 110.605 604.338 110.605 607.224C110.605 610.109 108.141 612.562 105.243 612.562C102.346 612.562 99.8823 610.109 99.8823 607.224Z" fill="#ECECEC"/>
<path d="M120.457 614.582C119.733 614.149 118.864 614.294 118.429 615.015L112.343 623.96L110.025 620.93C109.59 620.353 108.576 620.209 107.996 620.642C107.417 621.075 107.272 622.085 107.707 622.662L111.329 627.423C111.619 627.856 112.054 628 112.488 628C112.923 628 113.358 627.711 113.647 627.423L120.747 616.746C121.182 615.881 121.037 615.015 120.457 614.582Z" fill="#ECECEC"/>
<rect x="213.5" y="582.5" width="67" height="67" rx="11.5" fill="#F9FBFF"/>
<rect x="213.5" y="582.5" width="67" height="67" rx="11.5" stroke="#ECECEC"/>
<path d="M236.02 630C235.32 630 234.76 629.72 234.2 629.3C233.5 628.6 233.36 627.62 233.64 626.78L235.04 622.44C234.06 620.48 233.5 618.24 233.5 616C233.5 608.3 239.8 602 247.5 602C255.2 602 261.5 608.3 261.5 616C261.5 623.7 255.2 630 247.5 630C245.26 630 243.02 629.44 241.06 628.46L236.72 629.86C236.58 630 236.3 630 236.02 630ZM241.9 625.66C243.58 626.64 245.54 627.2 247.5 627.2C253.66 627.2 258.7 622.16 258.7 616C258.7 609.84 253.66 604.8 247.5 604.8C241.34 604.8 236.3 609.84 236.3 616C236.3 617.96 236.86 619.92 237.84 621.6C237.98 621.88 238.12 622.3 237.98 622.72L236.58 627.06L240.92 625.66C240.92 625.66 241.763 625.592 241.9 625.66Z" fill="#ECECEC"/>
<path d="M247.5 618.24C248.737 618.24 249.74 617.237 249.74 616C249.74 614.763 248.737 613.76 247.5 613.76C246.263 613.76 245.26 614.763 245.26 616C245.26 617.237 246.263 618.24 247.5 618.24Z" fill="#ECECEC"/>
<path d="M240.64 618.24C241.877 618.24 242.88 617.237 242.88 616C242.88 614.763 241.877 613.76 240.64 613.76C239.403 613.76 238.4 614.763 238.4 616C238.4 617.237 239.403 618.24 240.64 618.24Z" fill="#ECECEC"/>
<path d="M254.36 618.24C255.597 618.24 256.6 617.237 256.6 616C256.6 614.763 255.597 613.76 254.36 613.76C253.123 613.76 252.12 614.763 252.12 616C252.12 617.237 253.123 618.24 254.36 618.24Z" fill="#ECECEC"/>
<rect x="341.5" y="579.5" width="67" height="67" rx="11.5" fill="#F9FBFF"/>
<rect x="341.5" y="579.5" width="67" height="67" rx="11.5" stroke="#ECECEC"/>
<path d="M389.061 607.679C386.853 604.703 384.254 601.984 381.266 599.914C379.318 598.49 376.59 598.749 374.771 600.561L370.354 604.961C368.665 606.644 368.405 609.362 369.704 611.303C369.834 611.433 369.964 611.692 370.224 611.821L362.039 619.975C361.39 620.622 361 621.528 361 622.564V626.706C361 627.094 361.13 627.353 361.39 627.612C361.65 627.871 361.909 628 362.299 628H366.456C367.496 628 368.405 627.612 369.055 626.965L377.239 618.81C377.499 618.94 377.629 619.069 377.889 619.199C379.837 620.493 382.566 620.234 384.254 618.552L388.671 614.151C390.23 612.339 390.49 609.621 389.061 607.679ZM386.593 612.339L382.176 616.74C381.266 617.646 379.967 617.775 379.058 617.128C378.538 616.74 378.149 616.481 377.629 616.092C377.109 615.704 376.33 615.704 375.94 616.222L366.976 625.153C366.716 625.411 366.456 625.541 366.197 625.541H363.338V622.693C363.338 622.434 363.468 622.176 363.728 621.917L372.692 612.986C373.212 612.468 373.212 611.821 372.822 611.303C372.562 610.786 372.173 610.268 371.913 609.75C371.263 608.844 371.393 607.55 372.302 606.773L376.719 602.373C377.109 601.855 377.759 601.596 378.408 601.596C378.928 601.596 379.318 601.726 379.707 601.984C382.566 603.926 384.904 606.385 386.853 609.103C387.632 610.139 387.502 611.433 386.593 612.339Z" fill="#ECECEC"/>
<path d="M380.148 606.909C379.593 606.909 379.177 607.192 378.761 607.474C377.928 608.321 377.928 609.593 378.761 610.299C379.177 610.722 379.593 610.864 380.148 610.864C380.703 610.864 381.12 610.722 381.536 610.299C381.952 609.875 382.091 609.451 382.091 608.886C382.091 608.321 381.952 607.898 381.536 607.474C381.258 607.05 380.703 606.909 380.148 606.909Z" fill="#ECECEC"/>
<rect x="511.5" y="429.5" width="67" height="67" rx="11.5" fill="#F9FBFF"/>
<rect x="511.5" y="429.5" width="67" height="67" rx="11.5" stroke="#ECECEC"/>
<path d="M539.372 460.484C538.804 459.924 537.952 459.924 537.384 460.484C536.816 461.044 536.816 461.884 537.384 462.443L543.206 468.602C543.49 468.882 543.916 469.022 544.2 469.022C544.626 469.022 545.052 468.882 545.194 468.462L559.109 451.246C559.535 450.686 559.535 449.706 558.825 449.287C558.399 448.867 557.547 448.867 556.979 449.566L554.139 453.066C551.583 450.546 547.892 449.007 544.2 449.007C536.39 449.007 530 455.305 530 463.003C530 470.701 536.39 477 544.2 477C552.009 477 558.399 470.701 558.399 463.003C558.399 461.744 558.257 460.484 557.831 459.224C557.547 458.524 556.837 458.104 556.127 458.244C555.417 458.384 554.991 459.224 555.133 459.924C555.417 460.904 555.559 462.024 555.559 463.003C555.559 469.162 550.447 474.201 544.2 474.201C537.952 474.201 532.84 469.162 532.84 463.003C532.84 456.845 537.952 451.806 544.2 451.806C547.324 451.806 550.164 453.066 552.435 455.305L544.2 465.523L539.372 460.484Z" fill="#ECECEC"/>
<rect x="394.5" y="428.5" width="67" height="67" rx="11.5" fill="#F9FBFF"/>
<rect x="394.5" y="428.5" width="67" height="67" rx="11.5" stroke="#ECECEC"/>
<path fill-rule="evenodd" clip-rule="evenodd" d="M436.03 448.487C437.293 449.178 438.2 450.549 438.2 452.2V466.48C438.2 469.822 434.499 471.802 431.778 469.859C431.748 469.838 431.718 469.814 431.689 469.79L430.196 468.53C430.174 468.512 430.153 468.493 430.133 468.474C428.985 467.381 427.554 466.7 425.982 466.449V471.94C425.982 474.161 424.358 476 422.138 476C419.873 476 418.295 473.972 418.295 471.94V466.183C415.276 465.494 413 462.636 413 459.34C413 457.484 413.655 455.697 415.056 454.413C416.188 453.258 417.741 452.34 419.695 452.34H424.541C426.689 452.21 428.681 451.475 430.185 450.298L431.634 448.939C431.662 448.913 431.691 448.887 431.722 448.863C433.081 447.785 434.746 447.785 436.03 448.487ZM433.5 451.028L432.056 452.382C432.028 452.408 431.999 452.433 431.968 452.457C429.956 454.053 427.366 454.983 424.662 455.138C424.635 455.139 424.609 455.14 424.582 455.14H419.695C418.68 455.14 417.8 455.605 417.034 456.395C417.013 456.417 416.99 456.439 416.967 456.46C416.22 457.134 415.8 458.132 415.8 459.34C415.8 461.711 417.68 463.54 419.695 463.54C420.468 463.54 421.095 464.167 421.095 464.94V471.94C421.095 472.709 421.688 473.2 422.138 473.2C422.634 473.2 423.182 472.799 423.182 471.94V464.94C423.182 464.167 423.809 463.54 424.582 463.54C427.337 463.54 429.988 464.486 432.032 466.416L433.443 467.607C434.251 468.141 435.4 467.6 435.4 466.48V452.2C435.4 451.611 435.085 451.162 434.686 450.943C434.318 450.742 433.895 450.736 433.5 451.028Z" fill="#ECECEC"/>
<path fill-rule="evenodd" clip-rule="evenodd" d="M442.4 455C443.173 455 443.8 455.627 443.8 456.4V462C443.8 462.773 443.173 463.4 442.4 463.4C441.627 463.4 441 462.773 441 462V456.4C441 455.627 441.627 455 442.4 455Z" fill="#ECECEC"/>
<rect x="341.5" y="729.5" width="67" height="67" rx="11.5" fill="#F9FBFF"/>
<rect x="341.5" y="729.5" width="67" height="67" rx="11.5" stroke="#ECECEC"/>
<path d="M369.726 779C369.274 779 368.822 778.854 368.37 778.708C367.165 778.124 366.562 776.955 366.863 775.787L368.671 767.315H365.959C364.754 767.315 363.699 766.585 363.247 765.562C362.795 764.54 362.945 763.371 363.85 762.641L378.164 747.888C379.068 747.012 380.575 746.72 381.63 747.304C382.835 747.888 383.438 749.057 383.137 750.225L381.329 758.697H384.041C385.246 758.697 386.301 759.427 386.753 760.45C387.205 761.472 387.055 762.641 386.15 763.371L371.836 778.124C371.233 778.708 370.48 779 369.726 779ZM370.48 764.247C370.932 764.247 371.384 764.394 371.685 764.832C371.986 765.27 372.137 765.562 371.986 766L370.028 775.933L384.041 761.472H379.671C379.219 761.472 378.767 761.326 378.466 760.888C378.164 760.596 378.014 760.158 378.164 759.719L380.123 749.787L366.11 764.394L370.48 764.247Z" fill="#ECECEC"/>
<rect x="668.5" y="729.5" width="67" height="67" rx="11.5" fill="#F9FBFF"/>
<rect x="668.5" y="729.5" width="67" height="67" rx="11.5" stroke="#ECECEC"/>
<path d="M708.45 750C705.9 750 703.65 751.052 702 753.006C700.35 751.052 698.1 750 695.55 750C690.9 750 687 753.908 687 758.566C687 758.867 687 759.168 687 759.468C687.6 766.532 695.1 772.393 699.45 775.249C700.2 775.699 701.1 776 702 776C702.9 776 703.8 775.699 704.55 775.249C708.9 772.393 716.4 766.532 717 759.618C717 759.318 717 759.017 717 758.717C717 753.908 713.1 750 708.45 750ZM714 759.168C713.55 765.179 706.05 770.59 702.9 772.543C702.3 772.844 701.7 772.844 701.1 772.543C697.95 770.439 690.6 765.029 690 759.017C690 759.017 690 758.717 690 758.566C690 755.561 692.55 753.006 695.55 753.006C697.8 753.006 699.75 754.358 700.65 756.312C700.8 756.913 701.4 757.214 702 757.214C702.6 757.214 703.2 756.913 703.35 756.312C704.25 754.358 706.2 753.006 708.45 753.006C711.45 753.006 714 755.561 714 758.566C714 758.717 714 759.017 714 759.168Z" fill="#ECECEC"/>
<rect x="504.5" y="729.5" width="67" height="67" rx="11.5" fill="#F9FBFF"/>
<rect x="504.5" y="729.5" width="67" height="67" rx="11.5" stroke="#ECECEC"/>
<path d="M531.665 777C530.966 777 530.266 776.72 529.567 776.3C528.448 775.46 527.748 774.06 528.028 772.66L528.867 767.2L525.09 763.28C524.111 762.3 523.691 760.76 524.251 759.36C524.67 757.96 525.79 757.12 527.189 756.84L532.505 756L534.883 751.1C535.443 749.84 536.702 749 538.101 749C539.5 749 540.759 749.84 541.458 751.1L543.697 756L548.873 756.84C550.272 756.98 551.391 757.96 551.811 759.36C552.231 760.76 551.951 762.16 550.972 763.28L547.194 767.2L548.034 772.66C548.314 774.06 547.754 775.6 546.495 776.3C545.376 777.14 543.977 777.14 542.718 776.58L538.101 773.92L533.484 776.44C532.925 776.86 532.365 777 531.665 777ZM538.101 751.8C537.961 751.8 537.541 751.8 537.401 752.36L534.743 757.96C534.463 758.38 534.044 758.66 533.624 758.66L527.608 759.64C527.189 759.64 527.049 760.06 526.909 760.2C526.909 760.34 526.769 760.76 527.189 761.18L531.525 765.52C531.805 765.8 531.945 766.22 531.945 766.78L530.966 772.94C530.826 773.5 531.246 773.78 531.386 773.92C531.525 774.06 531.805 774.2 532.225 773.92L537.541 770.98C537.961 770.7 538.521 770.7 538.94 770.98L544.256 773.92C544.676 774.06 544.956 773.92 545.096 773.92C545.236 773.78 545.516 773.5 545.516 772.94L544.536 766.78C544.396 766.36 544.536 765.94 544.956 765.52L549.293 761.18C549.433 760.9 549.293 760.34 549.293 760.2C549.293 760.06 549.013 759.64 548.593 759.64L542.578 758.8C542.158 758.8 541.738 758.38 541.458 757.96L538.8 752.36C538.66 751.8 538.241 751.8 538.101 751.8Z" fill="#ECECEC"/>
<rect x="512.5" y="309.5" width="67" height="67" rx="11.5" fill="#F9FBFF"/>
<rect x="512.5" y="309.5" width="67" height="67" rx="11.5" stroke="#ECECEC"/>
<path d="M539.355 331H534.409C531.473 331 529 333.25 529 336.1V341.2C529 344.05 531.473 346.3 534.409 346.3H537.964C538.891 346.3 539.509 345.7 539.509 344.8C539.509 343.9 538.891 343.3 537.964 343.3H534.409C533.173 343.3 532.091 342.4 532.091 341.2V336.1C532.091 334.9 533.173 334 534.409 334H539.355C540.591 334 541.673 334.9 541.673 336.1V348.55C541.673 350.5 540.127 352 538.118 352H535.645C534.718 352 534.1 352.6 534.1 353.5C534.1 354.4 534.718 355 535.645 355H538.118C541.827 355 544.764 352.15 544.764 348.55V336.1C544.764 333.25 542.291 331 539.355 331Z" fill="#ECECEC"/>
<path d="M557.591 331H552.645C549.709 331 547.236 333.25 547.236 336.1V341.2C547.236 344.05 549.709 346.3 552.645 346.3H556.2C557.127 346.3 557.745 345.7 557.745 344.8C557.745 343.9 557.127 343.3 556.2 343.3H552.645C551.409 343.3 550.327 342.4 550.327 341.2V336.1C550.327 334.9 551.409 334 552.645 334H557.591C558.827 334 559.909 334.9 559.909 336.1V348.55C559.909 350.5 558.364 352 556.355 352H553.882C552.955 352 552.336 352.6 552.336 353.5C552.336 354.4 552.955 355 553.882 355H556.355C560.064 355 563 352.15 563 348.55V336.1C563 333.25 560.527 331 557.591 331Z" fill="#ECECEC"/>
<rect x="234.5" y="29.5" width="67" height="67" rx="11.5" fill="#F9FBFF"/>
<rect x="234.5" y="29.5" width="67" height="67" rx="11.5" stroke="#ECECEC"/>
<path d="M283.196 63C283.196 59.9804 281.549 57.2353 279.078 55.8627C279.078 55.7255 279.078 55.451 279.078 55.1765C279.078 51.7451 276.333 49 272.902 49C270.98 49 269.196 49.9608 268.098 51.3333C267 49.9608 265.216 49 263.294 49C259.863 49 257.118 51.7451 257.118 55.1765C257.118 55.451 257.118 55.5882 257.118 55.8627C254.647 57.2353 253 59.9804 253 63C253 66.0196 254.647 68.7647 257.118 70.1373C257.118 70.4118 257.118 70.549 257.118 70.8235C257.118 74.2549 259.863 77 263.294 77C265.216 77 267 76.0392 268.098 74.6667C269.196 76.0392 270.98 77 272.902 77C276.333 77 279.078 74.2549 279.078 70.8235C279.078 70.549 279.078 70.4118 279.078 70.1373C281.549 68.6275 283.196 66.0196 283.196 63ZM277.02 68.0784C276.333 68.3529 276.059 69.0392 276.196 69.7255C276.333 70 276.333 70.4118 276.333 70.6863C276.333 72.6078 274.824 74.1176 272.902 74.1176C271.118 74.1176 269.608 72.7451 269.471 70.8235C269.471 70.6863 269.471 70.6863 269.333 70.549V70.4118C269.333 70.2745 269.196 70.1373 269.196 70.1373C269.196 70.1373 269.196 70 269.059 70C268.922 69.8627 268.922 69.8627 268.784 69.7255C268.784 69.7255 268.647 69.7255 268.647 69.5882C268.51 69.5882 268.373 69.5882 268.373 69.451H268.235H268.098C267.961 69.451 267.961 69.451 267.824 69.5882C267.686 69.5882 267.686 69.7255 267.549 69.7255C267.412 69.7255 267.412 69.8627 267.275 69.8627L267.137 70C267.137 70.1373 267 70.1373 267 70.2745V70.4118C267 70.549 266.863 70.549 266.863 70.6863C266.725 72.4706 265.216 73.9804 263.431 73.9804C261.51 73.9804 260 72.4706 260 70.549C260 70.1373 260 69.8627 260.137 69.5882C260.412 68.902 260 68.2157 259.314 67.9412C257.118 67.2549 255.745 65.1961 255.745 63C255.745 60.8039 257.118 58.7451 259.176 57.9216C259.863 57.6471 260.275 56.8235 260 56.1373C259.863 55.8627 259.863 55.5882 259.863 55.1765C259.863 53.2549 261.373 51.7451 263.294 51.7451C265.216 51.7451 266.725 53.2549 266.725 55.1765V66.4314C266.725 67.2549 267.275 67.8039 268.098 67.8039C268.922 67.8039 269.471 67.2549 269.471 66.4314V55.1765C269.471 53.2549 270.98 51.7451 272.902 51.7451C274.824 51.7451 276.333 53.2549 276.333 55.1765C276.333 55.5882 276.333 55.8627 276.196 56.1373C275.922 56.8235 276.333 57.5098 277.02 57.7843C279.078 58.7451 280.451 60.6667 280.451 63C280.451 65.1961 279.078 67.2549 277.02 68.0784Z" fill="#ECECEC"/>
<rect x="355.5" y="29.5" width="67" height="67" rx="11.5" fill="#F9FBFF"/>
<rect x="355.5" y="29.5" width="67" height="67" rx="11.5" stroke="#ECECEC"/>
<path d="M402.227 65.1636H398.918V60.8364H402.227C402.991 60.8364 403.5 60.3273 403.5 59.5636C403.5 58.8 402.991 58.2909 402.227 58.2909H398.918V57.2727C398.918 55.2364 397.264 53.7091 395.355 53.7091H394.336V50.2727C394.336 49.5091 393.827 49 393.064 49C392.3 49 391.791 49.5091 391.791 50.2727V53.5818H387.336V50.2727C387.336 49.5091 386.827 49 386.064 49C385.3 49 384.791 49.5091 384.791 50.2727V53.5818H383.773C381.736 53.5818 380.209 55.2364 380.209 57.1455V58.1636H376.773C376.009 58.1636 375.5 58.6727 375.5 59.4364C375.5 60.2 376.009 60.7091 376.773 60.7091H380.082V65.1636H376.773C376.009 65.1636 375.5 65.6727 375.5 66.4364C375.5 67.2 376.009 67.7091 376.773 67.7091H380.082V68.7273C380.082 70.7636 381.736 72.2909 383.645 72.2909H384.664V75.7273C384.664 76.4909 385.173 77 385.936 77C386.7 77 387.209 76.4909 387.209 75.7273V72.4182H391.664V75.7273C391.664 76.4909 392.173 77 392.936 77C393.7 77 394.209 76.4909 394.209 75.7273V72.4182H395.227C397.264 72.4182 398.791 70.7636 398.791 68.8545V67.8364H402.227C402.991 67.8364 403.5 67.3273 403.5 66.5636C403.5 65.8 402.991 65.1636 402.227 65.1636ZM396.373 68.7273C396.373 69.3636 395.864 69.7455 395.355 69.7455H383.773C383.136 69.7455 382.755 69.2364 382.755 68.7273V57.2727C382.627 56.6364 383.136 56.1273 383.773 56.1273H395.355C395.991 56.1273 396.373 56.6364 396.373 57.1455V68.7273Z" fill="#ECECEC"/>
<rect x="14.5" y="297.5" width="67" height="67" rx="11.5" fill="#F9FBFF"/>
<rect x="14.5" y="297.5" width="67" height="67" rx="11.5" stroke="#ECECEC"/>
<path d="M43.9273 328.2C44.6909 328.2 45.2 327.691 45.2 326.927C45.2 325.4 46.4727 324.127 48 324.127C49.5273 324.127 50.8 325.4 50.8 326.927C50.8 327.691 51.3091 328.2 52.0727 328.2C52.8364 328.2 53.3455 327.691 53.3455 326.927C53.3455 324 50.9273 321.582 48 321.582C45.0727 321.582 42.6545 324 42.6545 326.927C42.6545 327.564 43.2909 328.2 43.9273 328.2Z" fill="#ECECEC"/>
<path d="M60.7273 329.727H35.2727C34.5091 329.727 34 330.236 34 331C34 331.764 34.5091 332.273 35.2727 332.273H41.7636C41 333.036 40.3636 333.927 39.9818 334.945C39.6 335.964 39.7273 337.109 40.2364 338C40.8727 338.891 41.8909 339.527 43.0364 339.527H52.7091C53.8545 339.527 54.8727 339.018 55.5091 338C56.1455 337.109 56.2727 335.964 55.7636 334.945C55.3818 333.927 54.7455 333.036 53.9818 332.273H60.7273C61.4909 332.273 62 331.764 62 331C62 330.236 61.4909 329.727 60.7273 329.727ZM53.6 335.964C53.7273 336.218 53.6 336.473 53.4727 336.6C53.3455 336.855 53.0909 336.982 52.7091 336.982H43.1636C42.9091 336.982 42.6545 336.855 42.4 336.6C42.2727 336.473 42.1455 336.218 42.2727 335.964C43.0364 334.055 44.8182 332.655 46.8545 332.273H48.8909C51.0545 332.655 52.8364 334.055 53.6 335.964Z" fill="#ECECEC"/>
<path d="M60.7273 335.455C59.9636 335.455 59.4545 335.964 59.4545 336.727V339.018C59.4545 340.927 57.9273 342.327 56.1455 342.327H53.8545C53.0909 342.327 52.5818 342.836 52.5818 343.6C52.5818 344.364 53.0909 344.873 53.8545 344.873H56.1455C59.4545 344.873 62 342.2 62 339.018V336.727C62 336.091 61.4909 335.455 60.7273 335.455Z" fill="#ECECEC"/>
<path d="M42.2727 342.455H39.8545C38.0727 342.455 36.5455 340.927 36.5455 339.145V336.855C36.5455 336.091 36.0364 335.582 35.2727 335.582C34.5091 335.582 34 336.091 34 336.855V339.145C34 342.327 36.6727 345 39.8545 345H42.1455C42.9091 345 43.4182 344.491 43.4182 343.727C43.4182 342.964 42.9091 342.455 42.2727 342.455Z" fill="#ECECEC"/>
<path d="M35.2727 326.545C36.0364 326.545 36.5455 326.036 36.5455 325.273V322.855C36.5455 321.073 38.0727 319.545 39.8545 319.545H42.1455C42.9091 319.545 43.4182 319.036 43.4182 318.273C43.4182 317.509 42.9091 317 42.2727 317H39.8545C36.6727 317 34 319.673 34 322.855V325.145C34 325.909 34.5091 326.545 35.2727 326.545Z" fill="#ECECEC"/>
<path d="M56.1455 317H53.8545C53.0909 317 52.5818 317.509 52.5818 318.273C52.5818 319.036 53.0909 319.545 53.8545 319.545H56.1455C57.9273 319.545 59.4545 321.073 59.4545 322.855V325.145C59.4545 325.909 59.9636 326.418 60.7273 326.418C61.4909 326.418 62 325.909 62 325.145V322.855C62 319.673 59.3273 317 56.1455 317Z" fill="#ECECEC"/>
<path d="M462 344L512 344" stroke="#ECECEC"/>
<path d="M579 484L656 484" stroke="#ECECEC"/>
<path d="M539 497L539 579" stroke="#ECECEC"/>
<path d="M556 497V523.907C556 532.744 563.163 539.907 572 539.907H645C653.837 539.907 661 547.07 661 555.907V579" stroke="#ECECEC"/>
<path d="M683 230V241.994C683 250.831 675.837 257.994 667 257.994H619C610.163 257.994 603 265.158 603 273.994V442C603 450.837 595.837 458 587 458H578.5" stroke="#ECECEC"/>
<path d="M579 472L625.019 472C633.817 472 640.93 464.868 640.93 456.045L640.93 365" stroke="#ECECEC"/>
<path d="M462 211L512 211" stroke="#ECECEC"/>
<path d="M290 301L290 232" stroke="#ECECEC"/>
<path d="M324 302L324 295.499C324.001 286.663 331.164 279.5 340 279.5L574.999 279.5C583.836 279.5 590.999 286.663 590.999 295.5L590.999 431C590.999 437.903 585.403 443.5 578.499 443.5V443.5" stroke="#ECECEC"/>
<path d="M181 297L181 214C181 205.163 173.837 198 165 198L121 198" stroke="url(#paint0_linear_493_113437)" stroke-width="2"/>
<path d="M120 498L120 579" stroke="#ECECEC"/>
<path d="M257 650L257 729" stroke="#ECECEC"/>
<path d="M376 647L376 729" stroke="#ECECEC"/>
<path d="M388 646.8L388 683.842C388 692.915 395.36 700.398 404.283 700.398L529.717 700.398C538.64 700.398 546 707.882 546 716.954L546 729" stroke="#ECECEC"/>
<path d="M409 614L475.501 614C484.337 614 491.501 621.164 491.501 630L491.501 660.5C491.501 669.337 498.664 676.5 507.501 676.5L700.001 676.5C708.837 676.5 716.001 683.664 716.001 692.5L716 729" stroke="#ECECEC"/>
<path d="M238 650L238 685.162C238 693.998 230.837 701.162 222 701.162L167 701.162C158.163 701.162 151 708.325 151 717.162L151 729" stroke="#ECECEC"/>
<path d="M120 430V349C120 340.163 112.837 333 104 333H82" stroke="#ECECEC"/>
<path d="M263 164L263 97" stroke="#ECECEC"/>
<path d="M391 97V97C391 103.627 385.627 109 379 109H293C284.163 109 277 116.163 277 125V164" stroke="#ECECEC"/>
<path d="M120 65H199C207.837 65 215 72.1634 215 81V297" stroke="url(#paint1_linear_493_113437)" stroke-width="2"/>
<path d="M462.001 197.499L477.5 197.499C486.336 197.499 493.5 190.336 493.5 181.499L493.501 97.0001" stroke="#ECECEC"/>
<path d="M394 344H344" stroke="#ECECEC"/>
<path d="M276 344L230 344" stroke="url(#paint2_linear_493_113437)" stroke-width="2"/>
<path d="M276 356H271.837C263.001 356 255.837 363.163 255.837 372V392.136C255.837 400.973 248.674 408.136 239.837 408.136H168C159.163 408.136 152 415.3 152 424.136V430" stroke="#ECECEC"/>
<path d="M296 369L296 430" stroke="#ECECEC"/>
<path d="M344 350L360 350C368.836 350 376 357.163 376 366L376 579" stroke="#ECECEC"/>
<path d="M344 356V356C352.837 356 360 363.163 360 372V543.349C360 552.185 352.837 559.349 344 559.349H274C265.163 559.349 258 566.512 258 575.349V582" stroke="#ECECEC"/>
<path d="M428 309L428 237" stroke="#ECECEC"/>
<path d="M428 377L428 429" stroke="#ECECEC"/>
<g filter="url(#filter0_d_493_113437)">
<rect x="53" y="164" width="104" height="94" rx="12" fill="white"/>
<path d="M109.8 209.14C109.8 208.3 109.24 207.74 108.4 207.74H94.26C93.14 207.74 92.3 206.9 92.3 205.78V198.22C92.3 197.1 93.14 196.26 94.26 196.26H108.4C109.24 196.26 109.8 195.7 109.8 194.86C109.8 194.02 109.24 193.46 108.4 193.46H94.26C91.6 193.46 89.5 195.56 89.5 198.22V205.78C89.5 208.44 91.6 210.54 94.26 210.54H108.4C109.1 210.54 109.8 209.98 109.8 209.14Z" fill="url(#paint3_radial_493_113437)"/>
<path d="M115.54 193.46H114.28V190.8H116.38C117.22 190.8 117.78 190.24 117.78 189.4C117.78 188.56 117.22 188 116.38 188H109.52C108.68 188 108.12 188.56 108.12 189.4C108.12 190.24 108.68 190.8 109.52 190.8H111.62V213.2H109.52C108.68 213.2 108.12 213.76 108.12 214.6C108.12 215.44 108.68 216 109.52 216H116.38C117.22 216 117.78 215.44 117.78 214.6C117.78 213.76 117.22 213.2 116.38 213.2H114.28V210.54H115.54C118.2 210.54 120.3 208.44 120.3 205.78V198.22C120.3 195.56 118.2 193.46 115.54 193.46ZM117.5 205.78C117.5 206.9 116.66 207.74 115.54 207.74H114.28V196.26H115.54C116.66 196.26 117.5 197.1 117.5 198.22V205.78Z" fill="url(#paint4_radial_493_113437)"/>
<path d="M72.3935 238V229.469H79.1904V238H78.0302V230.43H73.5595V238H72.3935ZM80.9714 234.977V234.789C80.9714 233.848 81.2663 233.08 81.8562 232.486C82.4499 231.889 83.2429 231.59 84.2351 231.59C85.2234 231.59 86.0144 231.889 86.6081 232.486C87.2019 233.08 87.4988 233.848 87.4988 234.789V234.977C87.4988 235.918 87.2019 236.688 86.6081 237.285C86.0144 237.879 85.2234 238.176 84.2351 238.176C83.2429 238.176 82.4499 237.879 81.8562 237.285C81.2663 236.688 80.9714 235.918 80.9714 234.977ZM82.1198 234.789V234.977C82.1198 235.617 82.2976 236.156 82.653 236.594C83.0085 237.031 83.5359 237.25 84.2351 237.25C84.9343 237.25 85.4597 237.031 85.8113 236.594C86.1667 236.156 86.3445 235.617 86.3445 234.977V234.789C86.3445 234.145 86.1667 233.605 85.8113 233.172C85.4597 232.734 84.9343 232.516 84.2351 232.516C83.5359 232.516 83.0085 232.734 82.653 233.172C82.2976 233.605 82.1198 234.145 82.1198 234.789ZM94.3716 239.582V238H89.3501V239.582H88.3188V237.115H95.4087V239.582H94.3716ZM90.5688 232.65L90.4751 234.766C90.4438 235.484 90.3989 236.014 90.3403 236.354C90.2856 236.689 90.2036 236.975 90.0942 237.209H88.9282C89.0688 237.021 89.1802 236.752 89.2622 236.4C89.3481 236.045 89.4087 235.453 89.4438 234.625L89.5727 231.766H94.4712V238H93.3403V232.65H90.5688ZM96.2991 234.977V234.789C96.2991 233.848 96.5823 233.08 97.1487 232.486C97.719 231.889 98.5022 231.59 99.4983 231.59C100.42 231.59 101.119 231.814 101.596 232.264C102.076 232.709 102.317 233.209 102.317 233.764V233.793H101.203V233.758C101.203 233.426 101.069 233.135 100.799 232.885C100.533 232.635 100.1 232.51 99.4983 232.51C98.7952 232.51 98.2776 232.729 97.9455 233.166C97.6135 233.604 97.4475 234.145 97.4475 234.789V234.977C97.4475 235.621 97.6135 236.162 97.9455 236.6C98.2776 237.033 98.7952 237.25 99.4983 237.25C100.1 237.25 100.533 237.127 100.799 236.881C101.069 236.635 101.203 236.342 101.203 236.002V235.973H102.317V236.002C102.317 236.553 102.076 237.053 101.596 237.502C101.119 237.951 100.42 238.176 99.4983 238.176C98.5022 238.176 97.719 237.879 97.1487 237.285C96.5823 236.688 96.2991 235.918 96.2991 234.977ZM108.176 238L105.475 235.146L106.166 234.414L109.611 238H108.176ZM104.32 234.385H105.551L107.965 231.766H109.295L106.014 235.27H104.32V234.385ZM104.883 231.766V238H103.764V231.766H104.883ZM110.332 236.166C110.332 235.529 110.605 235.035 111.152 234.684C111.703 234.332 112.416 234.156 113.291 234.156H114.961V233.711C114.961 233.336 114.844 233.037 114.609 232.814C114.379 232.592 113.984 232.48 113.426 232.48C112.871 232.48 112.47 232.576 112.224 232.768C111.978 232.955 111.855 233.182 111.855 233.447V233.477H110.73V233.447C110.73 232.936 110.974 232.498 111.463 232.135C111.951 231.771 112.615 231.59 113.455 231.59C114.291 231.59 114.937 231.77 115.394 232.129C115.855 232.484 116.086 233.012 116.086 233.711V236.594C116.086 236.848 116.107 237.088 116.15 237.314C116.193 237.537 116.254 237.734 116.332 237.906V238H115.248C115.185 237.902 115.129 237.773 115.078 237.613C115.027 237.453 114.996 237.295 114.984 237.139C114.82 237.4 114.547 237.629 114.164 237.824C113.781 238.02 113.291 238.117 112.693 238.117C112.021 238.117 111.459 237.949 111.006 237.613C110.556 237.277 110.332 236.795 110.332 236.166ZM111.457 236.107C111.457 236.459 111.578 236.732 111.82 236.928C112.062 237.123 112.441 237.221 112.957 237.221C113.472 237.221 113.935 237.072 114.345 236.775C114.756 236.479 114.961 236.164 114.961 235.832V234.953H113.42C112.779 234.953 112.291 235.057 111.955 235.264C111.623 235.467 111.457 235.748 111.457 236.107ZM120.585 238.176C119.578 238.176 118.834 237.963 118.353 237.537C117.876 237.111 117.638 236.607 117.638 236.025V235.996H118.728V236.025C118.728 236.35 118.863 236.635 119.132 236.881C119.406 237.127 119.886 237.25 120.574 237.25C121.164 237.25 121.607 237.154 121.904 236.963C122.201 236.771 122.349 236.508 122.349 236.172C122.349 235.887 122.238 235.666 122.015 235.51C121.796 235.35 121.449 235.27 120.972 235.27H119.589V234.391H120.867C121.308 234.391 121.632 234.311 121.839 234.15C122.046 233.99 122.15 233.77 122.15 233.488C122.15 233.172 122.025 232.93 121.775 232.762C121.529 232.594 121.158 232.51 120.662 232.51C120.037 232.51 119.58 232.629 119.291 232.867C119.001 233.105 118.857 233.396 118.857 233.74V233.77H117.767V233.74C117.767 233.123 118.013 232.611 118.505 232.205C118.998 231.795 119.714 231.59 120.656 231.59C121.511 231.59 122.164 231.75 122.613 232.07C123.062 232.391 123.287 232.832 123.287 233.395C123.287 233.734 123.173 234.029 122.947 234.279C122.724 234.525 122.419 234.691 122.033 234.777V234.795C122.482 234.857 122.835 235.01 123.093 235.252C123.355 235.49 123.486 235.805 123.486 236.195C123.486 236.812 123.222 237.297 122.695 237.648C122.167 238 121.464 238.176 120.585 238.176ZM129.603 238L126.902 235.146L127.593 234.414L131.038 238H129.603ZM125.747 234.385H126.978L129.392 231.766H130.722L127.441 235.27H125.747V234.385ZM126.31 231.766V238H125.191V231.766H126.31ZM132.11 238V231.766H133.224V235.738C133.224 235.855 133.222 235.988 133.218 236.137C133.218 236.285 133.216 236.42 133.212 236.541H133.259C133.314 236.436 133.374 236.324 133.44 236.207C133.507 236.09 133.583 235.973 133.669 235.855L136.605 231.766H137.735V238H136.616V234.033C136.616 233.912 136.618 233.777 136.622 233.629C136.626 233.477 136.632 233.34 136.64 233.219H136.575C136.524 233.32 136.466 233.432 136.399 233.553C136.333 233.674 136.259 233.793 136.177 233.91L133.241 238H132.11Z" fill="#04101C"/>
</g>
<g filter="url(#filter1_d_493_113437)">
<rect x="52" y="29" width="105" height="110" rx="12" fill="white"/>
<path d="M117.323 74.1429L114.612 71.4286C114.041 70.8571 113.185 70.8571 112.615 71.4286C112.044 72 112.044 72.8571 112.615 73.4286L115.325 76.1429C115.754 76.5714 115.754 77.2857 115.325 77.7143C114.897 78.1429 114.184 78.1429 113.756 77.7143L109.476 73.4286C109.761 73.1429 110.046 73 110.332 72.7143C112.472 70.5714 113.756 67.5714 113.756 64.5714C113.756 61.4286 112.615 58.5714 110.332 56.4286C105.766 51.8571 98.4898 51.8571 93.9242 56.4286C89.3586 61 89.3586 68.2857 93.9242 72.8571C96.0643 75 99.0605 76.2857 102.057 76.2857C103.769 76.2857 105.481 75.8571 106.908 75.1429L111.616 79.8571C112.329 80.5714 113.471 81 114.469 81C115.468 81 116.467 80.5714 117.323 79.8571C118.892 78.1429 118.892 75.5714 117.323 74.1429ZM95.9217 70.5714C92.4975 67.1429 92.4975 61.5714 95.9217 58.2857C97.6338 56.5714 99.7739 55.7143 102.057 55.7143C104.339 55.7143 106.48 56.5714 108.192 58.2857C109.904 60 110.76 62.1429 110.76 64.4286C110.76 66.7143 109.904 69 108.192 70.5714C106.48 72.1429 104.339 73.1429 102.057 73.1429C99.7739 73.1429 97.4911 72.2857 95.9217 70.5714Z" fill="url(#paint5_radial_493_113437)"/>
<path d="M71.5009 103V94.4688H78.2978V103H77.1377V95.4297H72.667V103H71.5009ZM80.0788 99.9766V99.7891C80.0788 98.8477 80.3738 98.0801 80.9636 97.4863C81.5573 96.8887 82.3503 96.5898 83.3425 96.5898C84.3308 96.5898 85.1218 96.8887 85.7155 97.4863C86.3093 98.0801 86.6062 98.8477 86.6062 99.7891V99.9766C86.6062 100.918 86.3093 101.688 85.7155 102.285C85.1218 102.879 84.3308 103.176 83.3425 103.176C82.3503 103.176 81.5573 102.879 80.9636 102.285C80.3738 101.688 80.0788 100.918 80.0788 99.9766ZM81.2273 99.7891V99.9766C81.2273 100.617 81.405 101.156 81.7605 101.594C82.1159 102.031 82.6433 102.25 83.3425 102.25C84.0417 102.25 84.5671 102.031 84.9187 101.594C85.2741 101.156 85.4519 100.617 85.4519 99.9766V99.7891C85.4519 99.1445 85.2741 98.6055 84.9187 98.1719C84.5671 97.7344 84.0417 97.5156 83.3425 97.5156C82.6433 97.5156 82.1159 97.7344 81.7605 98.1719C81.405 98.6055 81.2273 99.1445 81.2273 99.7891ZM88.2466 103V96.7656H89.3598V100.738C89.3598 100.855 89.3579 100.988 89.354 101.137C89.354 101.285 89.352 101.42 89.3481 101.541H89.395C89.4497 101.436 89.5102 101.324 89.5766 101.207C89.643 101.09 89.7192 100.973 89.8052 100.855L92.7407 96.7656H93.8716V103H92.7524V99.0332C92.7524 98.9121 92.7544 98.7773 92.7583 98.6289C92.7622 98.4766 92.768 98.3398 92.7759 98.2188H92.7114C92.6606 98.3203 92.602 98.4316 92.5356 98.5527C92.4692 98.6738 92.395 98.793 92.313 98.9102L89.3774 103H88.2466ZM95.512 99.9766V99.7891C95.512 98.8477 95.7952 98.0801 96.3616 97.4863C96.9319 96.8887 97.7151 96.5898 98.7112 96.5898C99.633 96.5898 100.332 96.8145 100.809 97.2637C101.289 97.709 101.53 98.209 101.53 98.7637V98.793H100.416V98.7578C100.416 98.4258 100.281 98.1348 100.012 97.8848C99.7463 97.6348 99.3127 97.5098 98.7112 97.5098C98.008 97.5098 97.4905 97.7285 97.1584 98.166C96.8264 98.6035 96.6604 99.1445 96.6604 99.7891V99.9766C96.6604 100.621 96.8264 101.162 97.1584 101.6C97.4905 102.033 98.008 102.25 98.7112 102.25C99.3127 102.25 99.7463 102.127 100.012 101.881C100.281 101.635 100.416 101.342 100.416 101.002V100.973H101.53V101.002C101.53 101.553 101.289 102.053 100.809 102.502C100.332 102.951 99.633 103.176 98.7112 103.176C97.7151 103.176 96.9319 102.879 96.3616 102.285C95.7952 101.688 95.512 100.918 95.512 99.9766ZM107.389 103L104.688 100.146L105.379 99.4141L108.824 103H107.389ZM103.533 99.3848H104.764L107.178 96.7656H108.508L105.227 100.27H103.533V99.3848ZM104.096 96.7656V103H102.977V96.7656H104.096ZM109.527 99.9766V99.7891C109.527 98.8477 109.822 98.0801 110.412 97.4863C111.006 96.8887 111.799 96.5898 112.791 96.5898C113.779 96.5898 114.57 96.8887 115.164 97.4863C115.758 98.0801 116.054 98.8477 116.054 99.7891V99.9766C116.054 100.918 115.758 101.688 115.164 102.285C114.57 102.879 113.779 103.176 112.791 103.176C111.799 103.176 111.006 102.879 110.412 102.285C109.822 101.688 109.527 100.918 109.527 99.9766ZM110.676 99.7891V99.9766C110.676 100.617 110.853 101.156 111.209 101.594C111.564 102.031 112.092 102.25 112.791 102.25C113.49 102.25 114.015 102.031 114.367 101.594C114.722 101.156 114.9 100.617 114.9 99.9766V99.7891C114.9 99.1445 114.722 98.6055 114.367 98.1719C114.015 97.7344 113.49 97.5156 112.791 97.5156C112.092 97.5156 111.564 97.7344 111.209 98.1719C110.853 98.6055 110.676 99.1445 110.676 99.7891ZM117.695 103V96.7656H120.818C121.529 96.7656 122.084 96.9043 122.482 97.1816C122.884 97.4551 123.085 97.8711 123.085 98.4297C123.085 98.7773 122.982 99.0684 122.775 99.3027C122.568 99.5371 122.291 99.6953 121.943 99.7773V99.7949C122.365 99.8574 122.697 100.012 122.939 100.258C123.181 100.5 123.302 100.811 123.302 101.189C123.302 101.76 123.091 102.205 122.669 102.525C122.248 102.842 121.689 103 120.994 103H117.695ZM118.82 99.3906H120.818C121.22 99.3906 121.509 99.3105 121.685 99.1504C121.861 98.9902 121.949 98.7695 121.949 98.4883C121.949 98.2148 121.861 98.0078 121.685 97.8672C121.509 97.7266 121.22 97.6543 120.818 97.6504H118.82V99.3906ZM118.82 102.115H120.994C121.4 102.115 121.697 102.031 121.884 101.863C122.076 101.695 122.171 101.469 122.171 101.184C122.171 100.906 122.078 100.686 121.89 100.521C121.703 100.354 121.404 100.27 120.994 100.27H118.82V102.115ZM124.661 101.166C124.661 100.529 124.935 100.035 125.482 99.6836C126.033 99.332 126.745 99.1562 127.62 99.1562H129.29V98.7109C129.29 98.3359 129.173 98.0371 128.939 97.8145C128.708 97.5918 128.314 97.4805 127.755 97.4805C127.2 97.4805 126.8 97.5762 126.554 97.7676C126.308 97.9551 126.185 98.1816 126.185 98.4473V98.4766H125.06V98.4473C125.06 97.9355 125.304 97.498 125.792 97.1348C126.281 96.7715 126.945 96.5898 127.784 96.5898C128.62 96.5898 129.267 96.7695 129.724 97.1289C130.185 97.4844 130.415 98.0117 130.415 98.7109V101.594C130.415 101.848 130.437 102.088 130.48 102.314C130.523 102.537 130.583 102.734 130.661 102.906V103H129.577C129.515 102.902 129.458 102.773 129.408 102.613C129.357 102.453 129.325 102.295 129.314 102.139C129.15 102.4 128.876 102.629 128.493 102.824C128.111 103.02 127.62 103.117 127.023 103.117C126.351 103.117 125.788 102.949 125.335 102.613C124.886 102.277 124.661 101.795 124.661 101.166ZM125.786 101.107C125.786 101.459 125.908 101.732 126.15 101.928C126.392 102.123 126.771 102.221 127.286 102.221C127.802 102.221 128.265 102.072 128.675 101.775C129.085 101.479 129.29 101.164 129.29 100.832V99.9531H127.749C127.109 99.9531 126.62 100.057 126.284 100.264C125.952 100.467 125.786 100.748 125.786 101.107ZM133.257 103H132.009L134.013 100.34L135.144 100.439L133.257 103ZM136.497 103V100.75H134.739L134.61 100.68C133.845 100.68 133.257 100.508 132.847 100.164C132.437 99.8164 132.231 99.3496 132.231 98.7637C132.231 98.1582 132.439 97.6738 132.853 97.3105C133.267 96.9473 133.86 96.7656 134.634 96.7656H137.628V103H136.497ZM134.64 99.8594H136.497V97.6504H134.64C134.171 97.6504 133.841 97.7559 133.649 97.9668C133.462 98.1777 133.368 98.4434 133.368 98.7637C133.368 99.0879 133.462 99.3516 133.649 99.5547C133.837 99.7578 134.167 99.8594 134.64 99.8594ZM82.4078 119V112.766H85.5309C86.2418 112.766 86.7965 112.904 87.1949 113.182C87.5973 113.455 87.7984 113.871 87.7984 114.43C87.7984 114.777 87.6949 115.068 87.4879 115.303C87.2809 115.537 87.0035 115.695 86.6559 115.777V115.795C87.0777 115.857 87.4098 116.012 87.652 116.258C87.8941 116.5 88.0152 116.811 88.0152 117.189C88.0152 117.76 87.8043 118.205 87.3824 118.525C86.9605 118.842 86.402 119 85.7066 119H82.4078ZM83.5328 115.391H85.5309C85.9332 115.391 86.2223 115.311 86.398 115.15C86.5738 114.99 86.6617 114.77 86.6617 114.488C86.6617 114.215 86.5738 114.008 86.398 113.867C86.2223 113.727 85.9332 113.654 85.5309 113.65H83.5328V115.391ZM83.5328 118.115H85.7066C86.1129 118.115 86.4098 118.031 86.5973 117.863C86.7887 117.695 86.8844 117.469 86.8844 117.184C86.8844 116.906 86.7906 116.686 86.6031 116.521C86.4156 116.354 86.1168 116.27 85.7066 116.27H83.5328V118.115ZM90.8509 112.766V114.893H92.6615C93.4388 114.893 94.0365 115.076 94.4545 115.443C94.8763 115.807 95.0873 116.303 95.0873 116.932C95.0873 117.557 94.8763 118.059 94.4545 118.438C94.0365 118.812 93.4388 119 92.6615 119H89.7259V112.766H90.8509ZM92.6556 115.783H90.8509V118.115H92.6556C93.1361 118.115 93.472 118.004 93.6634 117.781C93.8587 117.559 93.9564 117.275 93.9564 116.932C93.9564 116.596 93.8587 116.32 93.6634 116.105C93.472 115.891 93.1361 115.783 92.6556 115.783ZM95.9369 119V112.766H97.0619V119H95.9369ZM104.304 120.582V119H99.2823V120.582H98.2511V118.115H105.341V120.582H104.304ZM100.501 113.65L100.407 115.766C100.376 116.484 100.331 117.014 100.273 117.354C100.218 117.689 100.136 117.975 100.026 118.209H98.8605C99.0011 118.021 99.1124 117.752 99.1945 117.4C99.2804 117.045 99.3409 116.453 99.3761 115.625L99.505 112.766H104.403V119H103.273V113.65H100.501ZM106.249 117.166C106.249 116.529 106.522 116.035 107.069 115.684C107.62 115.332 108.333 115.156 109.208 115.156H110.878V114.711C110.878 114.336 110.761 114.037 110.526 113.814C110.296 113.592 109.901 113.48 109.343 113.48C108.788 113.48 108.388 113.576 108.141 113.768C107.895 113.955 107.772 114.182 107.772 114.447V114.477H106.647V114.447C106.647 113.936 106.891 113.498 107.38 113.135C107.868 112.771 108.532 112.59 109.372 112.59C110.208 112.59 110.854 112.77 111.311 113.129C111.772 113.484 112.003 114.012 112.003 114.711V117.594C112.003 117.848 112.024 118.088 112.067 118.314C112.11 118.537 112.171 118.734 112.249 118.906V119H111.165C111.102 118.902 111.046 118.773 110.995 118.613C110.944 118.453 110.913 118.295 110.901 118.139C110.737 118.4 110.464 118.629 110.081 118.824C109.698 119.02 109.208 119.117 108.61 119.117C107.938 119.117 107.376 118.949 106.923 118.613C106.474 118.277 106.249 117.795 106.249 117.166ZM107.374 117.107C107.374 117.459 107.495 117.732 107.737 117.928C107.979 118.123 108.358 118.221 108.874 118.221C109.39 118.221 109.852 118.072 110.263 117.775C110.673 117.479 110.878 117.164 110.878 116.832V115.953H109.337C108.696 115.953 108.208 116.057 107.872 116.264C107.54 116.467 107.374 116.748 107.374 117.107ZM114.973 114.471C114.973 114.979 115.092 115.332 115.331 115.531C115.569 115.73 115.95 115.83 116.473 115.83C116.876 115.83 117.241 115.803 117.569 115.748C117.901 115.689 118.255 115.609 118.63 115.508V116.404C118.278 116.494 117.928 116.57 117.581 116.633C117.233 116.691 116.803 116.721 116.292 116.721C115.456 116.721 114.839 116.533 114.44 116.158C114.046 115.779 113.848 115.217 113.848 114.471V112.766H114.973V114.471ZM119.186 112.766V119H118.067V112.766H119.186ZM120.85 117.166C120.85 116.529 121.123 116.035 121.67 115.684C122.221 115.332 122.934 115.156 123.809 115.156H125.479V114.711C125.479 114.336 125.362 114.037 125.127 113.814C124.897 113.592 124.502 113.48 123.944 113.48C123.389 113.48 122.989 113.576 122.743 113.768C122.496 113.955 122.373 114.182 122.373 114.447V114.477H121.248V114.447C121.248 113.936 121.493 113.498 121.981 113.135C122.469 112.771 123.133 112.59 123.973 112.59C124.809 112.59 125.455 112.77 125.912 113.129C126.373 113.484 126.604 114.012 126.604 114.711V117.594C126.604 117.848 126.625 118.088 126.668 118.314C126.711 118.537 126.772 118.734 126.85 118.906V119H125.766C125.704 118.902 125.647 118.773 125.596 118.613C125.545 118.453 125.514 118.295 125.502 118.139C125.338 118.4 125.065 118.629 124.682 118.824C124.299 119.02 123.809 119.117 123.211 119.117C122.539 119.117 121.977 118.949 121.524 118.613C121.075 118.277 120.85 117.795 120.85 117.166ZM121.975 117.107C121.975 117.459 122.096 117.732 122.338 117.928C122.58 118.123 122.959 118.221 123.475 118.221C123.991 118.221 124.454 118.072 124.864 117.775C125.274 117.479 125.479 117.164 125.479 116.832V115.953H123.938C123.297 115.953 122.809 116.057 122.473 116.264C122.141 116.467 121.975 116.748 121.975 117.107Z" fill="#04101C"/>
</g>
<g filter="url(#filter2_d_493_113437)">
<rect x="276" y="301" width="68" height="94" rx="12" fill="white"/>
<path d="M320.965 347.6H318C317.506 345.8 315.9 344.6 313.924 344.6C311.576 344.6 309.6 346.52 309.6 348.8C309.6 351.08 311.576 353 313.924 353C315.9 353 317.506 351.8 318 350H320.965C321.706 350 322.2 349.4 322.2 348.8C322.2 348.08 321.706 347.6 320.965 347.6ZM313.924 350.6C312.935 350.6 312.071 349.76 312.071 348.8C312.071 347.84 312.935 347 313.924 347C314.912 347 315.776 347.84 315.776 348.8C315.776 349.76 314.912 350.6 313.924 350.6Z" fill="url(#paint6_radial_493_113437)"/>
<path d="M307.009 347.4H298.191C297.477 347.4 297 348.1 297 348.8C297 349.64 297.596 350.2 298.191 350.2H307.009C307.723 350.2 308.2 349.5 308.2 348.8C308.2 347.96 307.604 347.4 307.009 347.4Z" fill="url(#paint7_radial_493_113437)"/>
<path d="M298.191 330.6H307.009C307.723 330.6 308.2 329.9 308.2 329.2C308.2 328.5 307.604 327.8 307.009 327.8H298.191C297.477 327.8 297 328.5 297 329.2C297 329.9 297.596 330.6 298.191 330.6Z" fill="url(#paint8_radial_493_113437)"/>
<path d="M313.924 333.4C315.9 333.4 317.506 332.2 318 330.4H320.965C321.706 330.4 322.2 329.8 322.2 329.2C322.2 328.6 321.582 328 320.965 328H318C317.506 326.2 315.9 325 313.924 325C311.576 325 309.6 326.92 309.6 329.2C309.6 331.48 311.576 333.4 313.924 333.4ZM313.924 327.4C314.912 327.4 315.776 328.24 315.776 329.2C315.776 330.16 314.912 331 313.924 331C312.935 331 312.071 330.16 312.071 329.2C312.071 328.24 312.935 327.4 313.924 327.4Z" fill="url(#paint9_radial_493_113437)"/>
<path d="M298.235 340.2H301.2C301.694 341.88 303.3 343.2 305.276 343.2C307.624 343.2 309.6 341.28 309.6 339C309.6 336.72 307.624 334.8 305.276 334.8C303.3 334.8 301.694 336 301.2 337.8H298.235C297.494 337.8 297 338.4 297 339C297 339.6 297.618 340.2 298.235 340.2ZM305.276 337.2C306.265 337.2 307.129 338.04 307.129 339C307.129 339.96 306.265 340.8 305.276 340.8C304.288 340.8 303.424 339.96 303.424 339C303.424 338.04 304.288 337.2 305.276 337.2Z" fill="url(#paint10_radial_493_113437)"/>
<path d="M320.996 337.6H312.204C311.482 337.6 311 338.3 311 339C311 339.7 311.602 340.4 312.204 340.4H320.996C321.718 340.4 322.2 339.7 322.2 339C322.2 338.3 321.718 337.6 320.996 337.6Z" fill="url(#paint11_radial_493_113437)"/>
<path d="M296.272 370.951V370.518C296.272 369.182 296.639 368.145 297.373 367.406C298.108 366.664 299.049 366.293 300.198 366.293C301.35 366.293 302.293 366.664 303.028 367.406C303.762 368.145 304.129 369.182 304.129 370.518V370.951C304.129 372.287 303.762 373.326 303.028 374.068C302.293 374.807 301.35 375.176 300.198 375.176C299.049 375.176 298.108 374.807 297.373 374.068C296.639 373.326 296.272 372.287 296.272 370.951ZM297.449 370.951C297.449 371.967 297.699 372.76 298.199 373.33C298.703 373.896 299.371 374.18 300.203 374.18C301.031 374.18 301.698 373.896 302.201 373.33C302.705 372.76 302.957 371.967 302.957 370.951V370.518C302.957 369.502 302.705 368.711 302.201 368.145C301.698 367.574 301.031 367.289 300.203 367.289C299.371 367.289 298.703 367.574 298.199 368.145C297.699 368.711 297.449 369.502 297.449 370.518V370.951ZM306.074 375V366.469H309.104C310.096 366.469 310.863 366.697 311.406 367.154C311.949 367.611 312.221 368.225 312.221 368.994C312.221 369.764 311.949 370.383 311.406 370.852C310.863 371.32 310.096 371.555 309.104 371.555H307.24V375H306.074ZM307.24 370.605H309.104C309.834 370.605 310.342 370.451 310.627 370.143C310.912 369.83 311.055 369.447 311.055 368.994C311.055 368.541 310.912 368.166 310.627 367.869C310.342 367.568 309.834 367.418 309.104 367.418H307.24V370.605ZM311.365 375L309.127 371.068L310.322 370.922L312.695 375H311.365ZM314.201 375V366.469H315.724L318.496 372.885C318.547 373.002 318.595 373.125 318.642 373.254C318.693 373.379 318.738 373.496 318.777 373.605H318.824C318.859 373.496 318.9 373.379 318.947 373.254C318.994 373.125 319.043 373.002 319.094 372.885L321.847 366.469H323.4V375H322.275V368.73C322.275 368.613 322.277 368.482 322.281 368.338C322.289 368.189 322.301 368.057 322.316 367.939H322.263C322.232 368.057 322.189 368.189 322.135 368.338C322.084 368.482 322.033 368.613 321.982 368.73L319.299 375H318.261L315.56 368.73C315.51 368.613 315.459 368.482 315.408 368.338C315.361 368.189 315.324 368.057 315.297 367.939H315.244C315.256 368.057 315.265 368.189 315.273 368.338C315.285 368.482 315.291 368.613 315.291 368.73V375H314.201Z" fill="#04101C"/>
</g>
<g filter="url(#filter3_d_493_113437)">
<rect x="162" y="297" width="71" height="94" rx="12" fill="white"/>
<path d="M210.354 322.617C208.53 320.793 205.443 320.512 201.795 321.775C200.532 322.196 199.27 322.898 198.007 323.599C192.956 320.652 188.186 320.091 185.66 322.617C182.995 325.143 183.696 329.914 186.642 334.967C183.556 340.159 183.135 344.93 185.66 347.316C186.642 348.439 188.186 349 190.01 349C192.395 349 195.201 348.018 198.007 346.334C200.813 348.018 203.619 349 206.004 349C207.828 349 209.231 348.439 210.354 347.456C212.879 344.93 212.318 340.159 209.372 335.107C212.458 329.774 212.879 325.003 210.354 322.617ZM202.637 324.441C205.303 323.459 207.267 323.599 208.389 324.582C209.652 325.845 209.372 328.932 207.688 332.3C206.706 331.037 205.724 329.774 204.461 328.511C203.198 327.248 201.936 326.266 200.673 325.283C201.374 325.003 202.076 324.582 202.637 324.441ZM187.625 345.351C186.362 344.088 186.642 341.001 188.326 337.633C189.308 338.896 190.29 340.159 191.553 341.422C192.816 342.685 194.079 343.808 195.341 344.65C191.834 346.474 188.887 346.614 187.625 345.351ZM208.389 345.351C207.127 346.614 204.18 346.334 200.532 344.65C201.795 343.667 203.058 342.545 204.321 341.422C204.882 340.861 205.443 340.299 205.864 339.738C206.425 339.177 206.285 338.335 205.724 337.773C205.162 337.212 204.321 337.352 203.759 337.914C203.339 338.475 202.777 338.896 202.356 339.457C200.953 340.861 199.41 342.124 198.007 343.106C196.604 342.124 195.061 340.861 193.658 339.457C187.484 333.282 185.52 326.687 187.625 324.582C188.046 324.02 188.887 323.74 190.01 323.74C191.413 323.74 193.377 324.301 195.341 325.283C194.079 326.266 192.816 327.388 191.553 328.511C190.992 329.213 190.29 329.914 189.729 330.616C189.168 331.177 189.308 332.019 189.869 332.581C190.431 333.142 191.413 333.002 191.834 332.44C192.395 331.739 192.956 331.177 193.517 330.616C194.92 329.213 196.464 327.95 197.867 326.967C199.27 327.95 200.813 329.213 202.356 330.616C208.53 336.651 210.494 343.246 208.389 345.351Z" fill="url(#paint12_radial_493_113437)"/>
<path d="M198 337.24C199.237 337.24 200.24 336.237 200.24 335C200.24 333.763 199.237 332.76 198 332.76C196.763 332.76 195.76 333.763 195.76 335C195.76 336.237 196.763 337.24 198 337.24Z" fill="url(#paint13_radial_493_113437)"/>
<path d="M180.605 368.656V368.586H181.765V368.65C181.765 369.162 181.958 369.545 182.345 369.799C182.736 370.053 183.283 370.18 183.986 370.18C184.685 370.18 185.22 370.051 185.591 369.793C185.966 369.531 186.154 369.188 186.154 368.762C186.154 368.379 185.98 368.074 185.632 367.848C185.288 367.617 184.601 367.371 183.57 367.109C182.527 366.844 181.802 366.531 181.396 366.172C180.994 365.812 180.792 365.299 180.792 364.631C180.792 363.963 181.068 363.406 181.619 362.961C182.173 362.516 182.941 362.293 183.921 362.293C184.898 362.293 185.675 362.531 186.253 363.008C186.831 363.484 187.12 364.076 187.12 364.783V364.848H185.96V364.783C185.96 364.334 185.788 363.973 185.445 363.699C185.105 363.426 184.597 363.289 183.921 363.289C183.245 363.289 182.745 363.406 182.421 363.641C182.101 363.871 181.941 364.186 181.941 364.584C181.941 364.951 182.103 365.242 182.427 365.457C182.755 365.668 183.413 365.896 184.402 366.143C185.437 366.404 186.179 366.729 186.628 367.115C187.077 367.502 187.302 368.049 187.302 368.756C187.302 369.463 187.003 370.043 186.406 370.496C185.812 370.949 185.005 371.176 183.986 371.176C182.962 371.176 182.142 370.951 181.525 370.502C180.911 370.049 180.605 369.434 180.605 368.656ZM189.042 371V362.469H194.866V363.43H190.208V366.119H194.286V367.08H190.208V370.039H194.931V371H189.042ZM196.595 371V362.469H199.624C200.616 362.469 201.384 362.697 201.927 363.154C202.47 363.611 202.741 364.225 202.741 364.994C202.741 365.764 202.47 366.383 201.927 366.852C201.384 367.32 200.616 367.555 199.624 367.555H197.761V371H196.595ZM197.761 366.605H199.624C200.354 366.605 200.862 366.451 201.147 366.143C201.432 365.83 201.575 365.447 201.575 364.994C201.575 364.541 201.432 364.166 201.147 363.869C200.862 363.568 200.354 363.418 199.624 363.418H197.761V366.605ZM201.886 371L199.647 367.068L200.843 366.922L203.216 371H201.886ZM204.721 371V362.469H206.245L209.016 368.885C209.067 369.002 209.116 369.125 209.163 369.254C209.214 369.379 209.258 369.496 209.297 369.605H209.344C209.38 369.496 209.421 369.379 209.467 369.254C209.514 369.125 209.563 369.002 209.614 368.885L212.368 362.469H213.921V371H212.796V364.73C212.796 364.613 212.797 364.482 212.801 364.338C212.809 364.189 212.821 364.057 212.837 363.939H212.784C212.753 364.057 212.71 364.189 212.655 364.338C212.604 364.482 212.553 364.613 212.503 364.73L209.819 371H208.782L206.081 364.73C206.03 364.613 205.979 364.482 205.928 364.338C205.881 364.189 205.844 364.057 205.817 363.939H205.764C205.776 364.057 205.786 364.189 205.794 364.338C205.805 364.482 205.811 364.613 205.811 364.73V371H204.721Z" fill="#04101C"/>
</g>
<defs>
<filter id="filter0_d_493_113437" x="44" y="156" width="124" height="114" filterUnits="userSpaceOnUse" color-interpolation-filters="sRGB">
<feFlood flood-opacity="0" result="BackgroundImageFix"/>
<feColorMatrix in="SourceAlpha" type="matrix" values="0 0 0 0 0 0 0 0 0 0 0 0 0 0 0 0 0 0 127 0" result="hardAlpha"/>
<feOffset dx="1" dy="2"/>
<feGaussianBlur stdDeviation="5"/>
<feComposite in2="hardAlpha" operator="out"/>
<feColorMatrix type="matrix" values="0 0 0 0 0.00780001 0 0 0 0 0.045344 0 0 0 0 0.0800001 0 0 0 0.04 0"/>
<feBlend mode="normal" in2="BackgroundImageFix" result="effect1_dropShadow_493_113437"/>
<feBlend mode="normal" in="SourceGraphic" in2="effect1_dropShadow_493_113437" result="shape"/>
</filter>
<filter id="filter1_d_493_113437" x="43" y="21" width="125" height="130" filterUnits="userSpaceOnUse" color-interpolation-filters="sRGB">
<feFlood flood-opacity="0" result="BackgroundImageFix"/>
<feColorMatrix in="SourceAlpha" type="matrix" values="0 0 0 0 0 0 0 0 0 0 0 0 0 0 0 0 0 0 127 0" result="hardAlpha"/>
<feOffset dx="1" dy="2"/>
<feGaussianBlur stdDeviation="5"/>
<feComposite in2="hardAlpha" operator="out"/>
<feColorMatrix type="matrix" values="0 0 0 0 0.00780001 0 0 0 0 0.045344 0 0 0 0 0.0800001 0 0 0 0.04 0"/>
<feBlend mode="normal" in2="BackgroundImageFix" result="effect1_dropShadow_493_113437"/>
<feBlend mode="normal" in="SourceGraphic" in2="effect1_dropShadow_493_113437" result="shape"/>
</filter>
<filter id="filter2_d_493_113437" x="267" y="293" width="88" height="114" filterUnits="userSpaceOnUse" color-interpolation-filters="sRGB">
<feFlood flood-opacity="0" result="BackgroundImageFix"/>
<feColorMatrix in="SourceAlpha" type="matrix" values="0 0 0 0 0 0 0 0 0 0 0 0 0 0 0 0 0 0 127 0" result="hardAlpha"/>
<feOffset dx="1" dy="2"/>
<feGaussianBlur stdDeviation="5"/>
<feComposite in2="hardAlpha" operator="out"/>
<feColorMatrix type="matrix" values="0 0 0 0 0.00780001 0 0 0 0 0.045344 0 0 0 0 0.0800001 0 0 0 0.04 0"/>
<feBlend mode="normal" in2="BackgroundImageFix" result="effect1_dropShadow_493_113437"/>
<feBlend mode="normal" in="SourceGraphic" in2="effect1_dropShadow_493_113437" result="shape"/>
</filter>
<filter id="filter3_d_493_113437" x="153" y="289" width="91" height="114" filterUnits="userSpaceOnUse" color-interpolation-filters="sRGB">
<feFlood flood-opacity="0" result="BackgroundImageFix"/>
<feColorMatrix in="SourceAlpha" type="matrix" values="0 0 0 0 0 0 0 0 0 0 0 0 0 0 0 0 0 0 127 0" result="hardAlpha"/>
<feOffset dx="1" dy="2"/>
<feGaussianBlur stdDeviation="5"/>
<feComposite in2="hardAlpha" operator="out"/>
<feColorMatrix type="matrix" values="0 0 0 0 0.00780001 0 0 0 0 0.045344 0 0 0 0 0.0800001 0 0 0 0.04 0"/>
<feBlend mode="normal" in2="BackgroundImageFix" result="effect1_dropShadow_493_113437"/>
<feBlend mode="normal" in="SourceGraphic" in2="effect1_dropShadow_493_113437" result="shape"/>
</filter>
<linearGradient id="paint0_linear_493_113437" x1="123.24" y1="147.382" x2="244.204" y2="190.199" gradientUnits="userSpaceOnUse">
<stop offset="0.338542" stop-color="#7A73FF"/>
<stop offset="0.734375" stop-color="#75CDFF"/>
<stop offset="1" stop-color="#4AFCF1"/>
</linearGradient>
<linearGradient id="paint1_linear_493_113437" x1="247.625" y1="529" x2="112.609" y2="517.353" gradientUnits="userSpaceOnUse">
<stop offset="0.338542" stop-color="#7A73FF"/>
<stop offset="0.734375" stop-color="#75CDFF"/>
<stop offset="1" stop-color="#4AFCF1"/>
</linearGradient>
<linearGradient id="paint2_linear_493_113437" x1="204.125" y1="345" x2="204.552" y2="338.23" gradientUnits="userSpaceOnUse">
<stop offset="0.338542" stop-color="#7A73FF"/>
<stop offset="0.734375" stop-color="#75CDFF"/>
<stop offset="1" stop-color="#4AFCF1"/>
</linearGradient>
<radialGradient id="paint3_radial_493_113437" cx="0" cy="0" r="1" gradientUnits="userSpaceOnUse" gradientTransform="translate(104.9 202) rotate(100.679) scale(17.8084 19.4725)">
<stop offset="0.055" stop-color="#7A73FF"/>
<stop offset="0.65" stop-color="#67DDFA"/>
<stop offset="1" stop-color="#4AFCF1"/>
</radialGradient>
<radialGradient id="paint4_radial_493_113437" cx="0" cy="0" r="1" gradientUnits="userSpaceOnUse" gradientTransform="translate(104.9 202) rotate(100.679) scale(17.8084 19.4725)">
<stop offset="0.055" stop-color="#7A73FF"/>
<stop offset="0.65" stop-color="#67DDFA"/>
<stop offset="1" stop-color="#4AFCF1"/>
</radialGradient>
<radialGradient id="paint5_radial_493_113437" cx="0" cy="0" r="1" gradientUnits="userSpaceOnUse" gradientTransform="translate(104.5 67) rotate(99.7276) scale(17.7553)">
<stop offset="0.055" stop-color="#7A73FF"/>
<stop offset="0.65" stop-color="#67DDFA"/>
<stop offset="1" stop-color="#4AFCF1"/>
</radialGradient>
<radialGradient id="paint6_radial_493_113437" cx="0" cy="0" r="1" gradientUnits="userSpaceOnUse" gradientTransform="translate(309.6 339) rotate(98.7708) scale(17.7071 16.0233)">
<stop offset="0.055" stop-color="#7A73FF"/>
<stop offset="0.65" stop-color="#67DDFA"/>
<stop offset="1" stop-color="#4AFCF1"/>
</radialGradient>
<radialGradient id="paint7_radial_493_113437" cx="0" cy="0" r="1" gradientUnits="userSpaceOnUse" gradientTransform="translate(309.6 339) rotate(98.7708) scale(17.7071 16.0233)">
<stop offset="0.055" stop-color="#7A73FF"/>
<stop offset="0.65" stop-color="#67DDFA"/>
<stop offset="1" stop-color="#4AFCF1"/>
</radialGradient>
<radialGradient id="paint8_radial_493_113437" cx="0" cy="0" r="1" gradientUnits="userSpaceOnUse" gradientTransform="translate(309.6 339) rotate(98.7708) scale(17.7071 16.0233)">
<stop offset="0.055" stop-color="#7A73FF"/>
<stop offset="0.65" stop-color="#67DDFA"/>
<stop offset="1" stop-color="#4AFCF1"/>
</radialGradient>
<radialGradient id="paint9_radial_493_113437" cx="0" cy="0" r="1" gradientUnits="userSpaceOnUse" gradientTransform="translate(309.6 339) rotate(98.7708) scale(17.7071 16.0233)">
<stop offset="0.055" stop-color="#7A73FF"/>
<stop offset="0.65" stop-color="#67DDFA"/>
<stop offset="1" stop-color="#4AFCF1"/>
</radialGradient>
<radialGradient id="paint10_radial_493_113437" cx="0" cy="0" r="1" gradientUnits="userSpaceOnUse" gradientTransform="translate(309.6 339) rotate(98.7708) scale(17.7071 16.0233)">
<stop offset="0.055" stop-color="#7A73FF"/>
<stop offset="0.65" stop-color="#67DDFA"/>
<stop offset="1" stop-color="#4AFCF1"/>
</radialGradient>
<radialGradient id="paint11_radial_493_113437" cx="0" cy="0" r="1" gradientUnits="userSpaceOnUse" gradientTransform="translate(309.6 339) rotate(98.7708) scale(17.7071 16.0233)">
<stop offset="0.055" stop-color="#7A73FF"/>
<stop offset="0.65" stop-color="#67DDFA"/>
<stop offset="1" stop-color="#4AFCF1"/>
</radialGradient>
<radialGradient id="paint12_radial_493_113437" cx="0" cy="0" r="1" gradientUnits="userSpaceOnUse" gradientTransform="translate(198 335) rotate(99.7276) scale(17.7553)">
<stop offset="0.055" stop-color="#7A73FF"/>
<stop offset="0.65" stop-color="#67DDFA"/>
<stop offset="1" stop-color="#4AFCF1"/>
</radialGradient>
<radialGradient id="paint13_radial_493_113437" cx="0" cy="0" r="1" gradientUnits="userSpaceOnUse" gradientTransform="translate(198 335) rotate(99.7276) scale(17.7553)">
<stop offset="0.055" stop-color="#7A73FF"/>
<stop offset="0.65" stop-color="#67DDFA"/>
<stop offset="1" stop-color="#4AFCF1"/>
</radialGradient>
</defs>
</svg>
