<svg width="788" height="874" viewBox="0 0 788 874" fill="none" xmlns="http://www.w3.org/2000/svg">
<g filter="url(#filter0_d_493_113477)">
<rect x="382" y="299" width="88" height="90" rx="12" fill="white"/>
<path fill-rule="evenodd" clip-rule="evenodd" d="M426 353C434.837 353 442 345.837 442 337C442 331.866 439.582 327.297 435.823 324.37L433.181 322.698C431.022 321.612 428.582 321 426 321C417.163 321 410 328.163 410 337C410 345.837 417.163 353 426 353ZM433.181 322.698V330.292C431.317 328.202 428.622 326.889 425.625 326.889C419.999 326.889 415.437 331.517 415.437 337.226C415.437 342.935 419.999 347.563 425.625 347.563C428.622 347.563 431.317 346.25 433.181 344.16L433.107 346.311C433.097 346.614 433.339 346.864 433.642 346.864H435.358C435.654 346.864 435.893 346.624 435.892 346.328L435.823 324.37L433.181 322.698ZM433.606 337.226C433.606 341.525 430.166 345.01 425.922 345.01C421.679 345.01 418.239 341.525 418.239 337.226C418.239 332.927 421.679 329.441 425.922 329.441C430.166 329.441 433.606 332.927 433.606 337.226Z" fill="url(#paint0_radial_493_113477)"/>
<path d="M400.513 365H403.556C406.733 365 408.071 366.269 408.071 369C408.071 371.731 406.733 373 403.556 373H400.513C400.234 373 400 372.771 400 372.486V365.537C400 365.24 400.223 365 400.513 365ZM403.5 366.577H402.051V371.423H403.5C405.496 371.423 406.02 370.714 406.02 369C406.02 367.286 405.496 366.577 403.5 366.577Z" fill="#04101C"/>
<path d="M408.541 372.486L409.913 367.171C410.37 365.4 411.941 365 413.524 365H416.456C416.724 365 416.924 365.24 416.924 365.514V372.486C416.924 372.771 416.69 373 416.412 373H415.386C415.096 373 414.873 372.771 414.873 372.474V371.069H411.005L410.637 372.474C410.559 372.771 410.28 373 409.991 373H408.92C408.631 373 408.463 372.771 408.541 372.486ZM411.886 367.697L411.406 369.491H414.873V366.577H413.324C412.621 366.577 412.064 367.011 411.886 367.697Z" fill="#04101C"/>
<path d="M420.815 372.486V370.143L417.905 365.526C417.738 365.263 417.816 365 418.095 365H419.131C419.577 365 419.89 365.229 420.079 365.526L421.84 368.314L423.602 365.526C423.791 365.229 424.103 365 424.549 365H425.586C425.865 365 425.943 365.263 425.775 365.526L422.866 370.143V372.486C422.866 372.771 422.632 373 422.353 373H421.328C421.049 373 420.815 372.771 420.815 372.486Z" fill="#04101C"/>
<path d="M428.23 373H427.271C426.993 373 426.759 372.76 426.759 372.474V365.526C426.759 365.24 426.981 365 427.26 365H428.865C429.133 365 429.445 365.263 429.612 365.526L432.901 370.714V365.514C432.901 365.229 433.135 365 433.414 365H434.35C434.64 365 434.863 365.229 434.863 365.526V372.474C434.863 372.76 434.64 373 434.35 373H432.544C432.254 373 431.931 372.76 431.753 372.474L428.743 367.686V372.474C428.743 372.76 428.509 373 428.23 373Z" fill="#04101C"/>
<path d="M443.214 365C443.493 365 443.727 365.229 443.727 365.526V366.051C443.727 366.349 443.493 366.577 443.214 366.577H438.477V368.2H442.557C442.835 368.2 443.069 368.44 443.069 368.726V369.251C443.069 369.537 442.835 369.777 442.557 369.777H438.477V371.423H443.203C443.482 371.423 443.705 371.651 443.705 371.937V372.474C443.705 372.76 443.482 373 443.192 373H436.938C436.648 373 436.426 372.76 436.426 372.463V365.514C436.426 365.229 436.66 365 436.938 365H443.214Z" fill="#04101C"/>
<path d="M444.576 365H451.487C451.777 365 452 365.229 452 365.526V366.051C452 366.349 451.777 366.577 451.487 366.577H449.057V372.486C449.057 372.771 448.823 373 448.544 373H447.519C447.24 373 447.006 372.771 447.006 372.486V366.577H444.576C444.286 366.577 444.063 366.349 444.063 366.051V365.526C444.063 365.229 444.286 365 444.576 365Z" fill="#04101C"/>
</g>
<rect x="394.5" y="176.5" width="67" height="67" rx="11.5" fill="#F9FBFF"/>
<rect x="394.5" y="176.5" width="67" height="67" rx="11.5" stroke="#ECECEC"/>
<path d="M434.409 216.045C433.864 216.045 433.455 215.773 433.182 215.364L431.546 212.5C430.864 211 429.501 209.636 428.001 208.818L425.137 207.182C424.728 207.045 424.455 206.5 424.455 206.091C424.455 205.545 424.728 205.136 425.137 204.864L428.001 203.227C429.501 202.409 430.864 201.182 431.682 199.545L433.319 196.682C433.455 196.273 434 196 434.409 196C434.955 196 435.364 196.273 435.637 196.682L437.273 199.545C438.091 201.045 439.455 202.409 440.955 203.227L443.818 204.864C444.227 205.136 444.5 205.545 444.5 206.091C444.5 206.636 444.227 207.045 443.818 207.318L440.955 208.955C439.455 209.773 438.091 211.136 437.273 212.636L435.637 215.5C435.364 215.773 434.955 216.045 434.409 216.045ZM428.682 206.091L429.364 206.5C431.41 207.591 433.046 209.227 434.137 211.273L434.546 211.955L434.955 211.273C436.046 209.227 437.682 207.591 439.727 206.5L440.409 206.091L439.727 205.682C437.682 204.591 436.046 202.955 434.955 200.909L434.546 200.227L434.137 200.909C433.046 202.955 431.41 204.591 429.364 205.682L428.682 206.091Z" fill="#ECECEC"/>
<path d="M422 226C421.454 226 421.045 225.727 420.773 225.318L419.954 223.682C419.273 222.318 418.182 221.227 416.818 220.545L415.182 219.727C414.773 219.455 414.5 218.909 414.5 218.5C414.5 217.955 414.773 217.545 415.182 217.273L416.818 216.455C418.182 215.773 419.273 214.682 419.954 213.318L420.773 211.682C421.318 210.864 422.682 210.864 423.227 211.682L424.045 213.318C424.727 214.682 425.818 215.773 427.181 216.455L428.818 217.273C429.227 217.545 429.499 217.955 429.499 218.5C429.499 219.045 429.227 219.455 428.818 219.727L427.318 220.545C425.954 221.227 424.863 222.318 424.181 223.682L423.363 225.318C422.954 225.727 422.545 226 422 226ZM418.727 218.5C420.091 219.318 421.318 220.545 422.136 221.909C422.954 220.545 424.181 219.318 425.545 218.5C424.045 217.545 422.954 216.455 422 215.091C421.182 216.455 420.091 217.545 418.727 218.5Z" fill="#ECECEC"/>
<rect x="232.5" y="164.5" width="67" height="67" rx="11.5" fill="#F9FBFF"/>
<rect x="232.5" y="164.5" width="67" height="67" rx="11.5" stroke="#ECECEC"/>
<path d="M276.732 184.433C276.155 183.856 275.289 183.856 274.713 184.433C274.136 185.01 274.136 185.876 274.713 186.453C277.309 189.05 278.751 192.512 278.751 196.264C278.751 200.015 277.309 203.478 274.713 206.075C272.116 208.672 268.655 210.114 264.904 210.114C261.731 210.114 258.558 208.96 256.106 206.94L257.981 204.92C260 206.507 262.452 207.229 264.76 207.229C267.645 207.229 270.385 206.219 272.549 204.055C276.876 199.726 276.876 192.657 272.549 188.473C268.222 184.144 261.154 184.144 256.971 188.473C253.077 192.368 252.644 198.572 255.962 202.9L252.933 206.075C252.356 206.652 252.356 207.517 252.933 208.095C256.106 211.269 260.289 213 264.76 213C269.232 213 273.414 211.269 276.588 208.095C279.761 204.92 281.492 200.736 281.492 196.264C281.636 191.791 279.905 187.607 276.732 184.433ZM259.135 190.493C260.722 188.905 262.885 188.04 264.904 188.04C267.068 188.04 269.087 188.905 270.674 190.493C273.847 193.667 273.847 198.861 270.674 202.035C267.501 205.209 262.308 205.209 259.135 202.035C255.962 198.861 255.962 193.667 259.135 190.493Z" fill="#ECECEC"/>
<rect x="163.5" y="297.5" width="67" height="67" rx="11.5" fill="#F9FBFF"/>
<rect x="163.5" y="297.5" width="67" height="67" rx="11.5" stroke="#ECECEC"/>
<path d="M209.854 318.617C208.03 316.793 204.943 316.512 201.295 317.775C200.032 318.196 198.77 318.898 197.507 319.599C192.456 316.652 187.686 316.091 185.16 318.617C182.495 321.143 183.196 325.914 186.142 330.967C183.056 336.159 182.635 340.93 185.16 343.316C186.142 344.439 187.686 345 189.51 345C191.895 345 194.701 344.018 197.507 342.334C200.313 344.018 203.119 345 205.504 345C207.328 345 208.731 344.439 209.854 343.456C212.379 340.93 211.818 336.159 208.872 331.107C211.958 325.774 212.379 321.003 209.854 318.617ZM202.137 320.441C204.803 319.459 206.767 319.599 207.889 320.582C209.152 321.845 208.872 324.932 207.188 328.3C206.206 327.037 205.224 325.774 203.961 324.511C202.698 323.248 201.436 322.266 200.173 321.283C200.874 321.003 201.576 320.582 202.137 320.441ZM187.125 341.351C185.862 340.088 186.142 337.001 187.826 333.633C188.808 334.896 189.79 336.159 191.053 337.422C192.316 338.685 193.579 339.808 194.841 340.65C191.334 342.474 188.387 342.614 187.125 341.351ZM207.889 341.351C206.627 342.614 203.68 342.334 200.032 340.65C201.295 339.667 202.558 338.545 203.821 337.422C204.382 336.861 204.943 336.299 205.364 335.738C205.925 335.177 205.785 334.335 205.224 333.773C204.662 333.212 203.821 333.352 203.259 333.914C202.839 334.475 202.277 334.896 201.856 335.457C200.453 336.861 198.91 338.124 197.507 339.106C196.104 338.124 194.561 336.861 193.158 335.457C186.984 329.282 185.02 322.687 187.125 320.582C187.546 320.02 188.387 319.74 189.51 319.74C190.913 319.74 192.877 320.301 194.841 321.283C193.579 322.266 192.316 323.388 191.053 324.511C190.492 325.213 189.79 325.914 189.229 326.616C188.668 327.177 188.808 328.019 189.369 328.581C189.931 329.142 190.913 329.002 191.334 328.44C191.895 327.739 192.456 327.177 193.017 326.616C194.42 325.213 195.964 323.95 197.367 322.967C198.77 323.95 200.313 325.213 201.856 326.616C208.03 332.651 209.994 339.246 207.889 341.351Z" fill="#ECECEC"/>
<path d="M197.5 333.24C198.737 333.24 199.74 332.237 199.74 331C199.74 329.763 198.737 328.76 197.5 328.76C196.263 328.76 195.26 329.763 195.26 331C195.26 332.237 196.263 333.24 197.5 333.24Z" fill="#ECECEC"/>
<rect x="100.5" y="430.5" width="67" height="67" rx="11.5" fill="#F9FBFF"/>
<rect x="100.5" y="430.5" width="67" height="67" rx="11.5" stroke="#ECECEC"/>
<path fill-rule="evenodd" clip-rule="evenodd" d="M120.549 456.284C118.292 454.023 119.912 450 123.179 450H143.825C147.092 450 148.712 454.023 146.455 456.284C146.454 456.286 146.453 456.287 146.451 456.288L138.301 464.548V471.769C138.301 472.929 137.738 474.159 136.656 474.83L132.658 477.575L132.641 477.586C131.751 478.179 130.726 478.077 129.989 477.643C129.268 477.217 128.703 476.408 128.703 475.415V464.548L120.549 456.284ZM122.38 453.364C122.231 453.725 122.299 454.075 122.531 454.307L122.539 454.314L131.099 462.99C131.358 463.252 131.503 463.605 131.503 463.973V474.972L135.102 472.501C135.125 472.484 135.15 472.469 135.174 472.454C135.324 472.365 135.501 472.103 135.501 471.769V463.973C135.501 463.605 135.646 463.252 135.905 462.99L144.473 454.307C144.705 454.075 144.773 453.725 144.624 453.364C144.478 453.01 144.187 452.8 143.825 452.8H123.179C122.817 452.8 122.526 453.01 122.38 453.364Z" fill="#ECECEC"/>
<rect x="243.5" y="430.5" width="67" height="67" rx="11.5" fill="#F9FBFF"/>
<rect x="243.5" y="430.5" width="67" height="67" rx="11.5" stroke="#ECECEC"/>
<path fill-rule="evenodd" clip-rule="evenodd" d="M274.916 450.491C276.388 449.836 278.033 449.836 279.505 450.491L279.527 450.502L287.396 454.188C287.406 454.193 287.416 454.197 287.426 454.202C289.189 455.085 290.233 457.025 289.889 459.105C289.234 463.165 287.253 471.169 279.91 477.053L279.896 477.064C278.294 478.312 276.127 478.312 274.524 477.064L274.511 477.053C267.165 471.168 265.185 463.161 264.532 459.102C264.527 459.073 264.523 459.044 264.521 459.015C264.358 457.218 265.158 455.102 267.154 454.187L274.886 450.505C274.896 450.5 274.906 450.496 274.916 450.491ZM275.965 452.811L268.239 456.489L268.219 456.499C267.441 456.853 266.978 457.763 267.052 458.744C267.675 462.577 269.513 469.782 276.095 475.061C276.774 475.586 277.646 475.586 278.326 475.061C284.935 469.761 286.761 462.517 287.376 458.697L287.377 458.691C287.538 457.726 287.066 456.876 286.299 456.485L278.459 452.812C277.654 452.457 276.77 452.457 275.965 452.811Z" fill="#ECECEC"/>
<path fill-rule="evenodd" clip-rule="evenodd" d="M283.08 457.89C283.643 458.311 283.758 459.108 283.337 459.671L277.626 467.308C277.387 467.627 277.011 467.816 276.612 467.818C276.213 467.82 275.836 467.634 275.594 467.316L272.396 463.116C271.97 462.557 272.078 461.759 272.638 461.333C273.197 460.907 273.995 461.015 274.421 461.574L276.598 464.433L281.298 458.147C281.719 457.584 282.517 457.469 283.08 457.89Z" fill="#ECECEC"/>
<rect x="274.5" y="297.5" width="67" height="67" rx="11.5" fill="#F9FBFF"/>
<rect x="274.5" y="297.5" width="67" height="67" rx="11.5" stroke="#ECECEC"/>
<path d="M318.965 339.6H316C315.506 337.8 313.9 336.6 311.924 336.6C309.576 336.6 307.6 338.52 307.6 340.8C307.6 343.08 309.576 345 311.924 345C313.9 345 315.506 343.8 316 342H318.965C319.706 342 320.2 341.4 320.2 340.8C320.2 340.08 319.706 339.6 318.965 339.6ZM311.924 342.6C310.935 342.6 310.071 341.76 310.071 340.8C310.071 339.84 310.935 339 311.924 339C312.912 339 313.776 339.84 313.776 340.8C313.776 341.76 312.912 342.6 311.924 342.6Z" fill="#ECECEC"/>
<path d="M305.009 339.4H296.191C295.477 339.4 295 340.1 295 340.8C295 341.64 295.596 342.2 296.191 342.2H305.009C305.723 342.2 306.2 341.5 306.2 340.8C306.2 339.96 305.604 339.4 305.009 339.4Z" fill="#ECECEC"/>
<path d="M296.191 322.6H305.009C305.723 322.6 306.2 321.9 306.2 321.2C306.2 320.5 305.604 319.8 305.009 319.8H296.191C295.477 319.8 295 320.5 295 321.2C295 321.9 295.596 322.6 296.191 322.6Z" fill="#ECECEC"/>
<path d="M311.924 325.4C313.9 325.4 315.506 324.2 316 322.4H318.965C319.706 322.4 320.2 321.8 320.2 321.2C320.2 320.6 319.582 320 318.965 320H316C315.506 318.2 313.9 317 311.924 317C309.576 317 307.6 318.92 307.6 321.2C307.6 323.48 309.576 325.4 311.924 325.4ZM311.924 319.4C312.912 319.4 313.776 320.24 313.776 321.2C313.776 322.16 312.912 323 311.924 323C310.935 323 310.071 322.16 310.071 321.2C310.071 320.24 310.935 319.4 311.924 319.4Z" fill="#ECECEC"/>
<path d="M296.235 332.2H299.2C299.694 333.88 301.3 335.2 303.276 335.2C305.624 335.2 307.6 333.28 307.6 331C307.6 328.72 305.624 326.8 303.276 326.8C301.3 326.8 299.694 328 299.2 329.8H296.235C295.494 329.8 295 330.4 295 331C295 331.6 295.618 332.2 296.235 332.2ZM303.276 329.2C304.265 329.2 305.129 330.04 305.129 331C305.129 331.96 304.265 332.8 303.276 332.8C302.288 332.8 301.424 331.96 301.424 331C301.424 330.04 302.288 329.2 303.276 329.2Z" fill="#ECECEC"/>
<path d="M318.996 329.6H310.204C309.482 329.6 309 330.3 309 331C309 331.7 309.602 332.4 310.204 332.4H318.996C319.718 332.4 320.2 331.7 320.2 331C320.2 330.3 319.718 329.6 318.996 329.6Z" fill="#ECECEC"/>
<rect x="116.5" y="729.5" width="67" height="67" rx="11.5" fill="#F9FBFF"/>
<rect x="116.5" y="729.5" width="67" height="67" rx="11.5" stroke="#ECECEC"/>
<path d="M164.653 759.021C161.705 756.516 156.842 753.421 150.211 753.421C149.474 753.421 148.737 753.421 148.295 753.568C147.411 753.716 146.821 754.453 146.968 755.337C147.116 756.074 147.853 756.663 148.589 756.663C149.032 756.663 149.621 756.516 150.211 756.516C155.958 756.516 160.232 759.168 162.737 761.379C163.179 761.674 163.474 762.263 163.474 763C163.474 763.737 163.179 764.179 162.737 764.621C161.853 765.358 160.821 766.095 159.789 766.684C159.053 767.126 158.905 768.011 159.2 768.747C159.495 769.189 159.937 769.484 160.526 769.484C160.821 769.484 160.968 769.484 161.263 769.337C162.442 768.6 163.621 767.863 164.653 766.979C165.832 765.947 166.421 764.621 166.421 763.147C166.421 761.379 165.832 760.053 164.653 759.021Z" fill="#ECECEC"/>
<path d="M138.716 749.442C138.126 748.853 137.242 748.853 136.653 749.442C136.063 750.032 136.063 750.916 136.653 751.505L140.779 755.632C138.716 756.811 136.947 758.137 135.768 759.021C134.589 760.053 134 761.379 134 763C134 764.621 134.589 765.947 135.768 766.832C138.716 769.337 143.579 772.432 150.211 772.432C152.421 772.432 154.484 772.137 156.547 771.4L161.705 776.558C162 776.853 162.442 777 162.737 777C163.032 777 163.474 776.853 163.768 776.558C164.358 775.968 164.358 775.084 163.768 774.495L138.716 749.442ZM150.211 769.337C144.463 769.337 140.189 766.684 137.684 764.474C137.242 764.179 136.947 763.589 136.947 763C136.947 762.411 137.242 761.821 137.684 761.379C138.863 760.347 140.779 759.021 143.137 757.989L146.968 761.821C146.821 762.116 146.821 762.558 146.821 763C146.821 764.916 148.295 766.389 150.211 766.389C150.653 766.389 150.947 766.242 151.389 766.242L154.189 769.042C152.863 769.189 151.537 769.337 150.211 769.337Z" fill="#ECECEC"/>
<rect x="88.5" y="164.5" width="67" height="67" rx="11.5" fill="#F9FBFF"/>
<rect x="88.5" y="164.5" width="67" height="67" rx="11.5" stroke="#ECECEC"/>
<path d="M126.8 205.14C126.8 204.3 126.24 203.74 125.4 203.74H111.26C110.14 203.74 109.3 202.9 109.3 201.78V194.22C109.3 193.1 110.14 192.26 111.26 192.26H125.4C126.24 192.26 126.8 191.7 126.8 190.86C126.8 190.02 126.24 189.46 125.4 189.46H111.26C108.6 189.46 106.5 191.56 106.5 194.22V201.78C106.5 204.44 108.6 206.54 111.26 206.54H125.4C126.1 206.54 126.8 205.98 126.8 205.14Z" fill="#ECECEC"/>
<path d="M132.54 189.46H131.28V186.8H133.38C134.22 186.8 134.78 186.24 134.78 185.4C134.78 184.56 134.22 184 133.38 184H126.52C125.68 184 125.12 184.56 125.12 185.4C125.12 186.24 125.68 186.8 126.52 186.8H128.62V209.2H126.52C125.68 209.2 125.12 209.76 125.12 210.6C125.12 211.44 125.68 212 126.52 212H133.38C134.22 212 134.78 211.44 134.78 210.6C134.78 209.76 134.22 209.2 133.38 209.2H131.28V206.54H132.54C135.2 206.54 137.3 204.44 137.3 201.78V194.22C137.3 191.56 135.2 189.46 132.54 189.46ZM134.5 201.78C134.5 202.9 133.66 203.74 132.54 203.74H131.28V192.26H132.54C133.66 192.26 134.5 193.1 134.5 194.22V201.78Z" fill="#ECECEC"/>
<rect x="463.5" y="29.5" width="67" height="67" rx="11.5" fill="#F9FBFF"/>
<rect x="463.5" y="29.5" width="67" height="67" rx="11.5" stroke="#ECECEC"/>
<path d="M497 49C489.3 49 483 55.3 483 63C483 70.7 489.3 77 497 77C504.7 77 511 70.7 511 63C511 55.3 504.7 49 497 49ZM497 74.2C490.84 74.2 485.8 69.16 485.8 63C485.8 56.84 490.84 51.8 497 51.8C503.16 51.8 508.2 56.84 508.2 63C508.2 69.16 503.16 74.2 497 74.2Z" fill="#ECECEC"/>
<path d="M504.7 67.76C503.72 66.78 502.6 66.08 501.34 65.52C502.32 64.4 503.02 63 503.02 61.32C503.02 57.96 500.36 55.3 497 55.3C493.64 55.3 490.98 57.96 490.98 61.32C490.98 63 491.68 64.4 492.66 65.52C491.4 66.08 490.28 66.78 489.3 67.76C488.74 68.32 488.74 69.16 489.3 69.72C489.58 70 490 70.14 490.28 70.14C490.7 70.14 490.98 70 491.26 69.72C492.8 68.18 494.76 67.34 497 67.34C499.1 67.34 501.2 68.18 502.74 69.72C503.3 70.28 504.14 70.28 504.7 69.72C505.26 69.16 505.26 68.32 504.7 67.76ZM493.78 61.32C493.78 59.5 495.18 58.1 497 58.1C498.82 58.1 500.22 59.5 500.22 61.32C500.22 63.14 498.82 64.54 497 64.54C495.18 64.54 493.78 63.14 493.78 61.32Z" fill="#ECECEC"/>
<rect x="510.5" y="164.5" width="67" height="67" rx="11.5" fill="#F9FBFF"/>
<rect x="510.5" y="164.5" width="67" height="67" rx="11.5" stroke="#ECECEC"/>
<path d="M556.6 186.8H531.4C530.56 186.8 530 186.24 530 185.4C530 184.56 530.56 184 531.4 184H556.6C557.44 184 558 184.56 558 185.4C558 186.24 557.44 186.8 556.6 186.8Z" fill="#ECECEC"/>
<path d="M556.6 203.6H544C543.16 203.6 542.6 203.04 542.6 202.2C542.6 201.36 543.16 200.8 544 200.8H556.6C557.44 200.8 558 201.36 558 202.2C558 203.04 557.44 203.6 556.6 203.6Z" fill="#ECECEC"/>
<path d="M556.6 195.2H544C543.16 195.2 542.6 194.64 542.6 193.8C542.6 192.96 543.16 192.4 544 192.4H556.6C557.44 192.4 558 192.96 558 193.8C558 194.64 557.44 195.2 556.6 195.2Z" fill="#ECECEC"/>
<path d="M556.6 212H531.4C530.56 212 530 211.44 530 210.6C530 209.76 530.56 209.2 531.4 209.2H556.6C557.44 209.2 558 209.76 558 210.6C558 211.44 557.44 212 556.6 212Z" fill="#ECECEC"/>
<path d="M532.52 205.14C532.1 205.14 531.68 205 531.4 204.86C530.56 204.44 530 203.6 530 202.62V193.38C530 192.4 530.56 191.56 531.4 191.14C532.24 190.72 533.22 190.86 534.06 191.42L540.22 196.04C540.78 196.46 541.2 197.16 541.2 198C541.2 198.84 540.78 199.54 540.22 200.1L534.06 204.72C533.64 205 533.08 205.14 532.52 205.14ZM532.8 193.94V202.06L538.26 198L532.8 193.94Z" fill="#ECECEC"/>
<rect x="654.5" y="429.5" width="67" height="67" rx="11.5" fill="#F9FBFF"/>
<rect x="654.5" y="429.5" width="67" height="67" rx="11.5" stroke="#ECECEC"/>
<path d="M692.014 478H682.851C680.156 478 678 475.818 678 473.091V452.909C678 450.182 680.156 448 682.851 448H692.149C694.844 448 697 450.182 697 452.909V473.227C696.865 475.818 694.709 478 692.014 478ZM682.851 450.727C681.638 450.727 680.695 451.682 680.695 452.909V473.227C680.695 474.318 681.638 475.273 682.851 475.273H692.149C693.362 475.273 694.305 474.318 694.305 473.091V452.909C694.17 451.682 693.227 450.727 692.014 450.727H682.851Z" fill="#ECECEC"/>
<path d="M689.184 455.227H685.681C684.872 455.227 684.333 454.682 684.333 453.864C684.333 453.045 684.872 452.5 685.681 452.5H689.319C690.128 452.5 690.667 453.045 690.667 453.864C690.667 454.682 689.993 455.227 689.184 455.227Z" fill="#ECECEC"/>
<rect x="509.5" y="579.5" width="67" height="67" rx="11.5" fill="#F9FBFF"/>
<rect x="509.5" y="579.5" width="67" height="67" rx="11.5" stroke="#ECECEC"/>
<path fill-rule="evenodd" clip-rule="evenodd" d="M541.758 599.043C548.547 598.477 554.266 603.585 554.409 610.171L554.409 610.199C554.409 612.501 553.688 614.653 552.41 616.5L552.397 616.518L545.937 625.519C545.925 625.536 545.911 625.554 545.898 625.571C544.413 627.429 541.492 627.543 540.066 625.513L533.604 616.51C531.919 614.122 531.034 611.107 531.75 607.916C532.632 603.131 536.804 599.609 541.719 599.047C541.732 599.045 541.745 599.044 541.758 599.043ZM541.989 601.578C538.055 602.036 534.896 604.836 534.249 608.398C534.246 608.416 534.242 608.434 534.238 608.452C533.699 610.827 534.332 613.124 535.681 615.039L542.147 624.047C542.491 624.54 543.35 624.655 543.892 624.003L550.323 615.043C551.318 613.601 551.861 611.958 551.864 610.213C551.746 605.149 547.346 601.142 541.989 601.578Z" fill="#ECECEC"/>
<path fill-rule="evenodd" clip-rule="evenodd" d="M542.955 607.782C541.619 607.782 540.537 608.864 540.537 610.2C540.537 611.536 541.619 612.618 542.955 612.618C544.29 612.618 545.373 611.536 545.373 610.2C545.373 608.864 544.29 607.782 542.955 607.782ZM537.991 610.2C537.991 607.459 540.214 605.236 542.955 605.236C545.696 605.236 547.918 607.459 547.918 610.2C547.918 612.941 545.696 615.164 542.955 615.164C540.214 615.164 537.991 612.941 537.991 610.2Z" fill="#ECECEC"/>
<path fill-rule="evenodd" clip-rule="evenodd" d="M542.955 607.782C541.619 607.782 540.537 608.864 540.537 610.2C540.537 611.536 541.619 612.618 542.955 612.618C544.29 612.618 545.373 611.536 545.373 610.2C545.373 608.864 544.29 607.782 542.955 607.782ZM537.991 610.2C537.991 607.459 540.214 605.236 542.955 605.236C545.696 605.236 547.918 607.459 547.918 610.2C547.918 612.941 545.696 615.164 542.955 615.164C540.214 615.164 537.991 612.941 537.991 610.2Z" fill="#ECECEC"/>
<path fill-rule="evenodd" clip-rule="evenodd" d="M542.955 607.782C541.619 607.782 540.537 608.864 540.537 610.2C540.537 611.536 541.619 612.618 542.955 612.618C544.29 612.618 545.373 611.536 545.373 610.2C545.373 608.864 544.29 607.782 542.955 607.782ZM537.991 610.2C537.991 607.459 540.214 605.236 542.955 605.236C545.696 605.236 547.918 607.459 547.918 610.2C547.918 612.941 545.696 615.164 542.955 615.164C540.214 615.164 537.991 612.941 537.991 610.2Z" fill="#ECECEC"/>
<rect x="624.5" y="582.5" width="67" height="67" rx="11.5" fill="#F9FBFF"/>
<rect x="624.5" y="582.5" width="67" height="67" rx="11.5" stroke="#ECECEC"/>
<path d="M645.9 628.6C645.06 628.6 644.5 628.04 644.5 627.2V614.6C644.5 613.76 645.06 613.2 645.9 613.2C646.74 613.2 647.3 613.76 647.3 614.6V627.2C647.3 628.04 646.74 628.6 645.9 628.6Z" fill="#ECECEC"/>
<path d="M664.486 630H652.955C650.622 630 648.7 628.04 648.7 625.66V613.9C648.7 612.36 649.249 610.96 650.21 609.7L655.701 603.4C656.525 602.56 657.76 602 659.133 602C660.643 602 661.878 602.7 662.702 603.82C663.525 605.08 663.8 606.48 663.388 607.88L662.564 610.54H668.33C669.703 610.54 670.938 611.1 671.624 612.22C672.448 613.34 672.723 614.74 672.311 616L669.428 625.94C668.742 628.46 666.82 630 664.486 630ZM652.406 611.66C651.857 612.36 651.583 613.06 651.583 613.9V625.66C651.583 626.5 652.269 627.2 653.093 627.2H664.624C665.722 627.2 666.683 626.5 666.957 625.38L669.703 615.44C669.84 615.02 669.703 614.46 669.428 614.04C669.154 613.62 668.742 613.48 668.33 613.48H660.643C660.231 613.48 659.819 613.2 659.544 612.92C659.27 612.64 659.27 612.08 659.407 611.66L660.917 607.04C661.054 606.48 661.054 605.92 660.643 605.5C660.094 604.66 658.721 604.52 658.035 605.36L652.406 611.66Z" fill="#ECECEC"/>
<rect x="618.5" y="297.5" width="67" height="67" rx="11.5" fill="#F9FBFF"/>
<rect x="618.5" y="297.5" width="67" height="67" rx="11.5" stroke="#ECECEC"/>
<path d="M642.115 325.95C642.115 322.801 644.763 320.315 648.073 320.315C649.065 320.315 649.727 319.652 649.727 318.657C649.727 317.663 649.065 317 648.073 317C642.943 317 638.806 320.978 638.806 325.95V326.945C638.806 328.436 637.813 329.928 636.158 330.425C635.496 330.591 635 331.254 635 331.917C635 332.58 635.496 333.243 636.158 333.575C637.813 334.072 638.806 335.398 638.806 337.055V338.05C638.806 343.022 642.943 347 648.073 347C649.065 347 649.727 346.337 649.727 345.343C649.727 344.348 649.065 343.685 648.073 343.685C644.763 343.685 642.115 341.199 642.115 338.05V336.89C642.115 334.901 641.288 333.077 639.964 331.917C641.288 330.591 642.115 328.768 642.115 326.945V325.95Z" fill="#ECECEC"/>
<path d="M669.842 330.333C668.187 329.833 667.194 328.5 667.194 326.833V326C667.194 321 663.057 317 657.927 317C656.935 317 656.273 317.667 656.273 318.667C656.273 319.667 656.935 320.333 657.927 320.333C661.237 320.333 663.885 322.833 663.885 326V327C663.885 329 664.712 330.833 666.036 332C664.712 333.333 663.885 335.167 663.885 337V338C663.885 341.167 661.237 343.667 657.927 343.667C656.935 343.667 656.273 344.333 656.273 345.333C656.273 346.333 656.935 347 657.927 347C663.057 347 667.194 343 667.194 338V337C667.194 335.5 668.187 334 669.842 333.5C670.504 333.333 671 332.667 671 332C671 331.333 670.504 330.667 669.842 330.333Z" fill="#ECECEC"/>
<rect x="665.5" y="163.5" width="67" height="67" rx="11.5" fill="#F9FBFF"/>
<rect x="665.5" y="163.5" width="67" height="67" rx="11.5" stroke="#ECECEC"/>
<path d="M703.496 199.937C704.425 198.836 705.045 197.421 705.045 196.006C705.045 192.547 702.257 189.874 699.005 189.874C695.753 189.874 692.966 192.547 692.966 195.849C692.966 197.421 693.585 198.836 694.514 199.78C692.501 200.881 690.953 202.453 690.023 204.654C689.559 205.755 689.714 207.17 690.333 208.27C691.107 209.371 692.346 210 693.585 210H704.27C705.509 210 706.748 209.371 707.522 208.27C708.297 207.17 708.297 205.912 707.832 204.654C707.058 202.61 705.509 200.881 703.496 199.937ZM696.063 195.849C696.063 194.277 697.457 193.019 699.005 193.019C700.554 193.019 701.947 194.277 701.947 196.006C701.947 197.736 700.554 198.836 699.005 198.836C697.457 198.836 696.063 197.579 696.063 195.849ZM705.045 206.541C704.89 206.698 704.58 206.855 704.425 206.855H693.585C693.275 206.855 693.121 206.698 692.966 206.541C692.811 206.541 692.811 206.226 692.811 205.912C693.895 203.396 696.218 201.824 699.005 201.824C701.793 201.824 704.116 203.396 705.2 205.912C705.2 206.226 705.2 206.541 705.045 206.541Z" fill="#ECECEC"/>
<path d="M691.727 198.679C691.727 197.893 691.107 197.107 690.178 197.107H685.068C685.687 195.535 687.236 194.591 688.939 194.591C691.572 194.591 693.585 192.547 693.585 189.874C693.585 187.201 691.417 185.157 688.939 185.157C686.462 185.157 684.294 187.201 684.294 189.874C684.294 190.818 684.603 191.761 685.223 192.547C683.829 193.333 682.745 194.434 682.281 195.849C681.816 196.792 681.971 197.893 682.435 198.836C683.055 199.78 683.984 200.252 685.068 200.252H690.023C690.953 200.252 691.727 199.623 691.727 198.679ZM687.391 189.874C687.391 188.931 688.165 188.302 688.939 188.302C689.714 188.302 690.488 189.088 690.488 189.874C690.488 190.818 689.714 191.447 688.939 191.447C688.165 191.447 687.391 190.66 687.391 189.874Z" fill="#ECECEC"/>
<path d="M715.73 195.849C715.11 194.434 714.026 193.176 712.788 192.39C713.252 191.604 713.717 190.66 713.717 189.717C713.717 187.201 711.549 185 709.071 185C706.593 185 704.425 187.044 704.425 189.717C704.425 192.39 706.593 194.434 709.071 194.434C710.774 194.434 712.323 195.377 712.788 197.107H707.832C706.903 197.107 706.284 197.736 706.284 198.679C706.284 199.465 706.903 200.252 707.832 200.252H712.788C713.872 200.252 714.801 199.78 715.42 198.836C716.04 197.893 716.194 196.792 715.73 195.849ZM709.071 188.302C710 188.302 710.62 189.088 710.62 189.874C710.62 190.818 709.845 191.447 709.071 191.447C708.297 191.447 707.522 190.66 707.522 189.874C707.522 188.931 708.142 188.302 709.071 188.302Z" fill="#ECECEC"/>
<rect x="224.5" y="729.5" width="67" height="67" rx="11.5" fill="#F9FBFF"/>
<rect x="224.5" y="729.5" width="67" height="67" rx="11.5" stroke="#ECECEC"/>
<path d="M266.428 766.134C263.502 766.134 260.995 768.502 260.995 771.567C260.995 774.493 263.363 777 266.428 777C269.353 777 271.861 774.632 271.861 771.567C271.861 768.502 269.493 766.134 266.428 766.134ZM266.428 774.075C265.035 774.075 263.781 772.96 263.781 771.428C263.781 770.035 264.896 768.781 266.428 768.781C267.821 768.781 269.075 769.896 269.075 771.428C269.075 772.96 267.96 774.075 266.428 774.075Z" fill="#ECECEC"/>
<path d="M256.119 760.701C256.259 760.701 256.537 760.701 256.677 760.562L262.249 757.776C263.224 759.03 264.756 759.866 266.428 759.866C269.493 759.726 271.861 757.358 271.861 754.433C271.861 751.507 269.493 749 266.428 749C263.502 749 260.995 751.368 260.995 754.433C260.995 754.711 260.995 754.99 261.134 755.269L255.423 758.055C254.726 758.473 254.448 759.308 254.866 759.866C255.005 760.423 255.562 760.701 256.119 760.701ZM266.428 751.786C267.821 751.786 269.075 752.9 269.075 754.433C269.075 755.826 267.96 757.08 266.428 757.08C265.035 757.08 263.781 755.965 263.781 754.433C263.92 752.9 265.035 751.786 266.428 751.786Z" fill="#ECECEC"/>
<path d="M260.299 767.109L254.587 764.323C254.726 763.905 254.726 763.488 254.726 762.93C254.726 760.005 252.358 757.498 249.294 757.498C246.229 757.498 244 760.005 244 762.93C244 765.856 246.368 768.363 249.433 768.363C250.965 768.363 252.358 767.806 253.333 766.692L259.184 769.617C259.323 769.756 259.602 769.756 259.741 769.756C260.299 769.756 260.716 769.478 260.995 768.92C261.274 768.363 260.995 767.527 260.299 767.109ZM249.433 765.577C247.9 765.577 246.786 764.323 246.786 762.93C246.786 761.537 247.9 760.284 249.433 760.284C250.826 760.284 252.08 761.398 252.08 762.93C251.94 764.323 250.826 765.577 249.433 765.577Z" fill="#ECECEC"/>
<rect x="70.5" y="579.5" width="67" height="67" rx="11.5" fill="#F9FBFF"/>
<rect x="70.5" y="579.5" width="67" height="67" rx="11.5" stroke="#ECECEC"/>
<path d="M103.388 624.97H95.1293C94.4048 624.97 93.6803 624.537 93.3906 623.96C92.9559 623.383 92.9559 622.806 93.2457 622.085C94.9844 618.045 98.8966 615.303 103.388 615.303C107.88 615.303 111.647 611.552 111.647 607.08C111.647 602.607 107.88 599 103.243 599C98.7517 599 94.9844 602.751 94.9844 607.224C94.9844 609.821 96.1436 612.129 98.0272 613.572C94.6946 614.871 91.7967 617.612 90.3477 621.075C89.7682 622.517 89.9131 624.249 90.7824 625.547C91.7967 626.99 93.2457 627.856 94.9844 627.856H103.243C104.113 627.856 104.692 627.279 104.692 626.413C104.692 625.547 104.113 624.97 103.388 624.97ZM97.8823 607.224C97.8823 604.338 100.346 601.886 103.243 601.886C106.141 601.886 108.605 604.338 108.605 607.224C108.605 610.109 106.141 612.562 103.243 612.562C100.346 612.562 97.8823 610.109 97.8823 607.224Z" fill="#ECECEC"/>
<path d="M118.457 614.582C117.733 614.149 116.864 614.294 116.429 615.015L110.343 623.96L108.025 620.93C107.59 620.353 106.576 620.209 105.996 620.642C105.417 621.075 105.272 622.085 105.707 622.662L109.329 627.423C109.619 627.856 110.054 628 110.488 628C110.923 628 111.358 627.711 111.647 627.423L118.747 616.746C119.182 615.881 119.037 615.015 118.457 614.582Z" fill="#ECECEC"/>
<rect x="89.5" y="29.5" width="67" height="67" rx="11.5" fill="#F9FBFF"/>
<rect x="89.5" y="29.5" width="67" height="67" rx="11.5" stroke="#ECECEC"/>
<path d="M135.823 70.1429L133.112 67.4286C132.541 66.8571 131.685 66.8571 131.115 67.4286C130.544 68 130.544 68.8571 131.115 69.4286L133.825 72.1429C134.254 72.5714 134.254 73.2857 133.825 73.7143C133.397 74.1429 132.684 74.1429 132.256 73.7143L127.976 69.4286C128.261 69.1429 128.546 69 128.832 68.7143C130.972 66.5714 132.256 63.5714 132.256 60.5714C132.256 57.4286 131.115 54.5714 128.832 52.4286C124.266 47.8571 116.99 47.8571 112.424 52.4286C107.859 57 107.859 64.2857 112.424 68.8571C114.564 71 117.561 72.2857 120.557 72.2857C122.269 72.2857 123.981 71.8571 125.408 71.1429L130.116 75.8571C130.829 76.5714 131.971 77 132.969 77C133.968 77 134.967 76.5714 135.823 75.8571C137.392 74.1429 137.392 71.5714 135.823 70.1429ZM114.422 66.5714C110.997 63.1429 110.997 57.5714 114.422 54.2857C116.134 52.5714 118.274 51.7143 120.557 51.7143C122.839 51.7143 124.98 52.5714 126.692 54.2857C128.404 56 129.26 58.1429 129.26 60.4286C129.26 62.7143 128.404 65 126.692 66.5714C124.98 68.1429 122.839 69.1429 120.557 69.1429C118.274 69.1429 115.991 68.2857 114.422 66.5714Z" fill="#ECECEC"/>
<rect x="211.5" y="582.5" width="67" height="67" rx="11.5" fill="#F9FBFF"/>
<rect x="211.5" y="582.5" width="67" height="67" rx="11.5" stroke="#ECECEC"/>
<path d="M234.02 630C233.32 630 232.76 629.72 232.2 629.3C231.5 628.6 231.36 627.62 231.64 626.78L233.04 622.44C232.06 620.48 231.5 618.24 231.5 616C231.5 608.3 237.8 602 245.5 602C253.2 602 259.5 608.3 259.5 616C259.5 623.7 253.2 630 245.5 630C243.26 630 241.02 629.44 239.06 628.46L234.72 629.86C234.58 630 234.3 630 234.02 630ZM239.9 625.66C241.58 626.64 243.54 627.2 245.5 627.2C251.66 627.2 256.7 622.16 256.7 616C256.7 609.84 251.66 604.8 245.5 604.8C239.34 604.8 234.3 609.84 234.3 616C234.3 617.96 234.86 619.92 235.84 621.6C235.98 621.88 236.12 622.3 235.98 622.72L234.58 627.06L238.92 625.66C238.92 625.66 239.763 625.592 239.9 625.66Z" fill="#ECECEC"/>
<path d="M245.5 618.24C246.737 618.24 247.74 617.237 247.74 616C247.74 614.763 246.737 613.76 245.5 613.76C244.263 613.76 243.26 614.763 243.26 616C243.26 617.237 244.263 618.24 245.5 618.24Z" fill="#ECECEC"/>
<path d="M238.64 618.24C239.877 618.24 240.88 617.237 240.88 616C240.88 614.763 239.877 613.76 238.64 613.76C237.403 613.76 236.4 614.763 236.4 616C236.4 617.237 237.403 618.24 238.64 618.24Z" fill="#ECECEC"/>
<path d="M252.36 618.24C253.597 618.24 254.6 617.237 254.6 616C254.6 614.763 253.597 613.76 252.36 613.76C251.123 613.76 250.12 614.763 250.12 616C250.12 617.237 251.123 618.24 252.36 618.24Z" fill="#ECECEC"/>
<rect x="339.5" y="579.5" width="67" height="67" rx="11.5" fill="#F9FBFF"/>
<rect x="339.5" y="579.5" width="67" height="67" rx="11.5" stroke="#ECECEC"/>
<path d="M387.061 607.679C384.853 604.703 382.254 601.984 379.266 599.914C377.318 598.49 374.59 598.749 372.771 600.561L368.354 604.961C366.665 606.644 366.405 609.362 367.704 611.303C367.834 611.433 367.964 611.692 368.224 611.821L360.039 619.975C359.39 620.622 359 621.528 359 622.564V626.706C359 627.094 359.13 627.353 359.39 627.612C359.65 627.871 359.909 628 360.299 628H364.456C365.496 628 366.405 627.612 367.055 626.965L375.239 618.81C375.499 618.94 375.629 619.069 375.889 619.199C377.837 620.493 380.566 620.234 382.254 618.552L386.671 614.151C388.23 612.339 388.49 609.621 387.061 607.679ZM384.593 612.339L380.176 616.74C379.266 617.646 377.967 617.775 377.058 617.128C376.538 616.74 376.149 616.481 375.629 616.092C375.109 615.704 374.33 615.704 373.94 616.222L364.976 625.153C364.716 625.411 364.456 625.541 364.197 625.541H361.338V622.693C361.338 622.434 361.468 622.176 361.728 621.917L370.692 612.986C371.212 612.468 371.212 611.821 370.822 611.303C370.562 610.786 370.173 610.268 369.913 609.75C369.263 608.844 369.393 607.55 370.302 606.773L374.719 602.373C375.109 601.855 375.759 601.596 376.408 601.596C376.928 601.596 377.318 601.726 377.707 601.984C380.566 603.926 382.904 606.385 384.853 609.103C385.632 610.139 385.502 611.433 384.593 612.339Z" fill="#ECECEC"/>
<path d="M378.148 606.909C377.593 606.909 377.177 607.192 376.761 607.474C375.928 608.321 375.928 609.593 376.761 610.299C377.177 610.722 377.593 610.864 378.148 610.864C378.703 610.864 379.12 610.722 379.536 610.299C379.952 609.875 380.091 609.451 380.091 608.886C380.091 608.321 379.952 607.898 379.536 607.474C379.258 607.05 378.703 606.909 378.148 606.909Z" fill="#ECECEC"/>
<rect x="509.5" y="429.5" width="67" height="67" rx="11.5" fill="#F9FBFF"/>
<rect x="509.5" y="429.5" width="67" height="67" rx="11.5" stroke="#ECECEC"/>
<path d="M537.372 460.484C536.804 459.924 535.952 459.924 535.384 460.484C534.816 461.044 534.816 461.884 535.384 462.443L541.206 468.602C541.49 468.882 541.916 469.022 542.2 469.022C542.626 469.022 543.052 468.882 543.194 468.462L557.109 451.246C557.535 450.686 557.535 449.706 556.825 449.287C556.399 448.867 555.547 448.867 554.979 449.566L552.139 453.066C549.583 450.546 545.892 449.007 542.2 449.007C534.39 449.007 528 455.305 528 463.003C528 470.701 534.39 477 542.2 477C550.009 477 556.399 470.701 556.399 463.003C556.399 461.744 556.257 460.484 555.831 459.224C555.547 458.524 554.837 458.104 554.127 458.244C553.417 458.384 552.991 459.224 553.133 459.924C553.417 460.904 553.559 462.024 553.559 463.003C553.559 469.162 548.447 474.201 542.2 474.201C535.952 474.201 530.84 469.162 530.84 463.003C530.84 456.845 535.952 451.806 542.2 451.806C545.324 451.806 548.164 453.066 550.435 455.305L542.2 465.523L537.372 460.484Z" fill="#ECECEC"/>
<g filter="url(#filter1_d_493_113477)">
<rect x="392" y="429" width="68" height="94" rx="12" fill="white"/>
<path fill-rule="evenodd" clip-rule="evenodd" d="M434.03 453.487C435.293 454.178 436.2 455.549 436.2 457.2V471.48C436.2 474.822 432.499 476.802 429.778 474.859C429.748 474.838 429.718 474.814 429.689 474.79L428.196 473.53C428.174 473.512 428.153 473.493 428.133 473.474C426.985 472.381 425.554 471.7 423.982 471.449V476.94C423.982 479.161 422.358 481 420.138 481C417.873 481 416.295 478.972 416.295 476.94V471.183C413.276 470.494 411 467.636 411 464.34C411 462.484 411.655 460.697 413.056 459.413C414.188 458.258 415.741 457.34 417.695 457.34H422.541C424.689 457.21 426.681 456.475 428.185 455.298L429.634 453.939C429.662 453.913 429.691 453.887 429.722 453.863C431.081 452.785 432.746 452.785 434.03 453.487ZM431.5 456.028L430.056 457.382C430.028 457.408 429.999 457.433 429.968 457.457C427.956 459.053 425.366 459.983 422.662 460.138C422.635 460.139 422.609 460.14 422.582 460.14H417.695C416.68 460.14 415.8 460.605 415.034 461.395C415.013 461.417 414.99 461.439 414.967 461.46C414.22 462.134 413.8 463.132 413.8 464.34C413.8 466.711 415.68 468.54 417.695 468.54C418.468 468.54 419.095 469.167 419.095 469.94V476.94C419.095 477.709 419.688 478.2 420.138 478.2C420.634 478.2 421.182 477.799 421.182 476.94V469.94C421.182 469.167 421.809 468.54 422.582 468.54C425.337 468.54 427.988 469.486 430.032 471.416L431.443 472.607C432.251 473.141 433.4 472.6 433.4 471.48V457.2C433.4 456.611 433.085 456.162 432.686 455.943C432.318 455.742 431.895 455.736 431.5 456.028Z" fill="url(#paint1_radial_493_113477)"/>
<path fill-rule="evenodd" clip-rule="evenodd" d="M440.4 460C441.173 460 441.8 460.627 441.8 461.4V467C441.8 467.773 441.173 468.4 440.4 468.4C439.627 468.4 439 467.773 439 467V461.4C439 460.627 439.627 460 440.4 460Z" fill="url(#paint2_radial_493_113477)"/>
<path d="M411.211 500.656V500.586H412.371V500.65C412.371 501.162 412.565 501.545 412.951 501.799C413.342 502.053 413.889 502.18 414.592 502.18C415.291 502.18 415.826 502.051 416.198 501.793C416.573 501.531 416.76 501.188 416.76 500.762C416.76 500.379 416.586 500.074 416.239 499.848C415.895 499.617 415.207 499.371 414.176 499.109C413.133 498.844 412.408 498.531 412.002 498.172C411.6 497.812 411.399 497.299 411.399 496.631C411.399 495.963 411.674 495.406 412.225 494.961C412.78 494.516 413.547 494.293 414.528 494.293C415.504 494.293 416.281 494.531 416.86 495.008C417.438 495.484 417.727 496.076 417.727 496.783V496.848H416.567V496.783C416.567 496.334 416.395 495.973 416.051 495.699C415.711 495.426 415.203 495.289 414.528 495.289C413.852 495.289 413.352 495.406 413.028 495.641C412.707 495.871 412.547 496.186 412.547 496.584C412.547 496.951 412.709 497.242 413.033 497.457C413.362 497.668 414.02 497.896 415.008 498.143C416.043 498.404 416.785 498.729 417.235 499.115C417.684 499.502 417.908 500.049 417.908 500.756C417.908 501.463 417.61 502.043 417.012 502.496C416.418 502.949 415.612 503.176 414.592 503.176C413.569 503.176 412.748 502.951 412.131 502.502C411.518 502.049 411.211 501.434 411.211 500.656ZM419.648 503V494.469H421.172L423.943 500.885C423.994 501.002 424.043 501.125 424.09 501.254C424.141 501.379 424.186 501.496 424.225 501.605H424.271C424.307 501.496 424.348 501.379 424.395 501.254C424.441 501.125 424.49 501.002 424.541 500.885L427.295 494.469H428.848V503H427.723V496.73C427.723 496.613 427.725 496.482 427.729 496.338C427.736 496.189 427.748 496.057 427.764 495.939H427.711C427.68 496.057 427.637 496.189 427.582 496.338C427.531 496.482 427.48 496.613 427.43 496.73L424.746 503H423.709L421.008 496.73C420.957 496.613 420.906 496.482 420.855 496.338C420.809 496.189 420.771 496.057 420.744 495.939H420.691C420.703 496.057 420.713 496.189 420.721 496.338C420.732 496.482 420.738 496.613 420.738 496.73V503H419.648ZM431.115 503V494.469H432.638L435.41 500.885C435.461 501.002 435.51 501.125 435.556 501.254C435.607 501.379 435.652 501.496 435.691 501.605H435.738C435.773 501.496 435.814 501.379 435.861 501.254C435.908 501.125 435.957 501.002 436.008 500.885L438.761 494.469H440.314V503H439.189V496.73C439.189 496.613 439.191 496.482 439.195 496.338C439.203 496.189 439.215 496.057 439.23 495.939H439.177C439.146 496.057 439.103 496.189 439.049 496.338C438.998 496.482 438.947 496.613 438.896 496.73L436.213 503H435.176L432.474 496.73C432.424 496.613 432.373 496.482 432.322 496.338C432.275 496.189 432.238 496.057 432.211 495.939H432.158C432.17 496.057 432.179 496.189 432.187 496.338C432.199 496.482 432.205 496.613 432.205 496.73V503H431.115Z" fill="#04101C"/>
</g>
<rect x="339.5" y="729.5" width="67" height="67" rx="11.5" fill="#F9FBFF"/>
<rect x="339.5" y="729.5" width="67" height="67" rx="11.5" stroke="#ECECEC"/>
<path d="M367.726 779C367.274 779 366.822 778.854 366.37 778.708C365.165 778.124 364.562 776.955 364.863 775.787L366.671 767.315H363.959C362.754 767.315 361.699 766.585 361.247 765.562C360.795 764.54 360.945 763.371 361.85 762.641L376.164 747.888C377.068 747.012 378.575 746.72 379.63 747.304C380.835 747.888 381.438 749.057 381.137 750.225L379.329 758.697H382.041C383.246 758.697 384.301 759.427 384.753 760.45C385.205 761.472 385.055 762.641 384.15 763.371L369.836 778.124C369.233 778.708 368.48 779 367.726 779ZM368.48 764.247C368.932 764.247 369.384 764.394 369.685 764.832C369.986 765.27 370.137 765.562 369.986 766L368.028 775.933L382.041 761.472H377.671C377.219 761.472 376.767 761.326 376.466 760.888C376.164 760.596 376.014 760.158 376.164 759.719L378.123 749.787L364.11 764.394L368.48 764.247Z" fill="#ECECEC"/>
<rect x="666.5" y="729.5" width="67" height="67" rx="11.5" fill="#F9FBFF"/>
<rect x="666.5" y="729.5" width="67" height="67" rx="11.5" stroke="#ECECEC"/>
<path d="M706.45 750C703.9 750 701.65 751.052 700 753.006C698.35 751.052 696.1 750 693.55 750C688.9 750 685 753.908 685 758.566C685 758.867 685 759.168 685 759.468C685.6 766.532 693.1 772.393 697.45 775.249C698.2 775.699 699.1 776 700 776C700.9 776 701.8 775.699 702.55 775.249C706.9 772.393 714.4 766.532 715 759.618C715 759.318 715 759.017 715 758.717C715 753.908 711.1 750 706.45 750ZM712 759.168C711.55 765.179 704.05 770.59 700.9 772.543C700.3 772.844 699.7 772.844 699.1 772.543C695.95 770.439 688.6 765.029 688 759.017C688 759.017 688 758.717 688 758.566C688 755.561 690.55 753.006 693.55 753.006C695.8 753.006 697.75 754.358 698.65 756.312C698.8 756.913 699.4 757.214 700 757.214C700.6 757.214 701.2 756.913 701.35 756.312C702.25 754.358 704.2 753.006 706.45 753.006C709.45 753.006 712 755.561 712 758.566C712 758.717 712 759.017 712 759.168Z" fill="#ECECEC"/>
<rect x="502.5" y="729.5" width="67" height="67" rx="11.5" fill="#F9FBFF"/>
<rect x="502.5" y="729.5" width="67" height="67" rx="11.5" stroke="#ECECEC"/>
<path d="M529.665 777C528.966 777 528.266 776.72 527.567 776.3C526.448 775.46 525.748 774.06 526.028 772.66L526.867 767.2L523.09 763.28C522.111 762.3 521.691 760.76 522.251 759.36C522.67 757.96 523.79 757.12 525.189 756.84L530.505 756L532.883 751.1C533.443 749.84 534.702 749 536.101 749C537.5 749 538.759 749.84 539.458 751.1L541.697 756L546.873 756.84C548.272 756.98 549.391 757.96 549.811 759.36C550.231 760.76 549.951 762.16 548.972 763.28L545.194 767.2L546.034 772.66C546.314 774.06 545.754 775.6 544.495 776.3C543.376 777.14 541.977 777.14 540.718 776.58L536.101 773.92L531.484 776.44C530.925 776.86 530.365 777 529.665 777ZM536.101 751.8C535.961 751.8 535.541 751.8 535.401 752.36L532.743 757.96C532.463 758.38 532.044 758.66 531.624 758.66L525.608 759.64C525.189 759.64 525.049 760.06 524.909 760.2C524.909 760.34 524.769 760.76 525.189 761.18L529.525 765.52C529.805 765.8 529.945 766.22 529.945 766.78L528.966 772.94C528.826 773.5 529.246 773.78 529.386 773.92C529.525 774.06 529.805 774.2 530.225 773.92L535.541 770.98C535.961 770.7 536.521 770.7 536.94 770.98L542.256 773.92C542.676 774.06 542.956 773.92 543.096 773.92C543.236 773.78 543.516 773.5 543.516 772.94L542.536 766.78C542.396 766.36 542.536 765.94 542.956 765.52L547.293 761.18C547.433 760.9 547.293 760.34 547.293 760.2C547.293 760.06 547.013 759.64 546.593 759.64L540.578 758.8C540.158 758.8 539.738 758.38 539.458 757.96L536.8 752.36C536.66 751.8 536.241 751.8 536.101 751.8Z" fill="#ECECEC"/>
<rect x="510.5" y="297.5" width="67" height="67" rx="11.5" fill="#F9FBFF"/>
<rect x="510.5" y="297.5" width="67" height="67" rx="11.5" stroke="#ECECEC"/>
<path d="M537.355 319H532.409C529.473 319 527 321.25 527 324.1V329.2C527 332.05 529.473 334.3 532.409 334.3H535.964C536.891 334.3 537.509 333.7 537.509 332.8C537.509 331.9 536.891 331.3 535.964 331.3H532.409C531.173 331.3 530.091 330.4 530.091 329.2V324.1C530.091 322.9 531.173 322 532.409 322H537.355C538.591 322 539.673 322.9 539.673 324.1V336.55C539.673 338.5 538.127 340 536.118 340H533.645C532.718 340 532.1 340.6 532.1 341.5C532.1 342.4 532.718 343 533.645 343H536.118C539.827 343 542.764 340.15 542.764 336.55V324.1C542.764 321.25 540.291 319 537.355 319Z" fill="#ECECEC"/>
<path d="M555.591 319H550.645C547.709 319 545.236 321.25 545.236 324.1V329.2C545.236 332.05 547.709 334.3 550.645 334.3H554.2C555.127 334.3 555.745 333.7 555.745 332.8C555.745 331.9 555.127 331.3 554.2 331.3H550.645C549.409 331.3 548.327 330.4 548.327 329.2V324.1C548.327 322.9 549.409 322 550.645 322H555.591C556.827 322 557.909 322.9 557.909 324.1V336.55C557.909 338.5 556.364 340 554.355 340H551.882C550.955 340 550.336 340.6 550.336 341.5C550.336 342.4 550.955 343 551.882 343H554.355C558.064 343 561 340.15 561 336.55V324.1C561 321.25 558.527 319 555.591 319Z" fill="#ECECEC"/>
<rect x="234.5" y="29.5" width="67" height="67" rx="11.5" fill="#F9FBFF"/>
<rect x="234.5" y="29.5" width="67" height="67" rx="11.5" stroke="#ECECEC"/>
<path d="M283.196 63C283.196 59.9804 281.549 57.2353 279.078 55.8627C279.078 55.7255 279.078 55.451 279.078 55.1765C279.078 51.7451 276.333 49 272.902 49C270.98 49 269.196 49.9608 268.098 51.3333C267 49.9608 265.216 49 263.294 49C259.863 49 257.118 51.7451 257.118 55.1765C257.118 55.451 257.118 55.5882 257.118 55.8627C254.647 57.2353 253 59.9804 253 63C253 66.0196 254.647 68.7647 257.118 70.1373C257.118 70.4118 257.118 70.549 257.118 70.8235C257.118 74.2549 259.863 77 263.294 77C265.216 77 267 76.0392 268.098 74.6667C269.196 76.0392 270.98 77 272.902 77C276.333 77 279.078 74.2549 279.078 70.8235C279.078 70.549 279.078 70.4118 279.078 70.1373C281.549 68.6275 283.196 66.0196 283.196 63ZM277.02 68.0784C276.333 68.3529 276.059 69.0392 276.196 69.7255C276.333 70 276.333 70.4118 276.333 70.6863C276.333 72.6078 274.824 74.1176 272.902 74.1176C271.118 74.1176 269.608 72.7451 269.471 70.8235C269.471 70.6863 269.471 70.6863 269.333 70.549V70.4118C269.333 70.2745 269.196 70.1373 269.196 70.1373C269.196 70.1373 269.196 70 269.059 70C268.922 69.8627 268.922 69.8627 268.784 69.7255C268.784 69.7255 268.647 69.7255 268.647 69.5882C268.51 69.5882 268.373 69.5882 268.373 69.451H268.235H268.098C267.961 69.451 267.961 69.451 267.824 69.5882C267.686 69.5882 267.686 69.7255 267.549 69.7255C267.412 69.7255 267.412 69.8627 267.275 69.8627L267.137 70C267.137 70.1373 267 70.1373 267 70.2745V70.4118C267 70.549 266.863 70.549 266.863 70.6863C266.725 72.4706 265.216 73.9804 263.431 73.9804C261.51 73.9804 260 72.4706 260 70.549C260 70.1373 260 69.8627 260.137 69.5882C260.412 68.902 260 68.2157 259.314 67.9412C257.118 67.2549 255.745 65.1961 255.745 63C255.745 60.8039 257.118 58.7451 259.176 57.9216C259.863 57.6471 260.275 56.8235 260 56.1373C259.863 55.8627 259.863 55.5882 259.863 55.1765C259.863 53.2549 261.373 51.7451 263.294 51.7451C265.216 51.7451 266.725 53.2549 266.725 55.1765V66.4314C266.725 67.2549 267.275 67.8039 268.098 67.8039C268.922 67.8039 269.471 67.2549 269.471 66.4314V55.1765C269.471 53.2549 270.98 51.7451 272.902 51.7451C274.824 51.7451 276.333 53.2549 276.333 55.1765C276.333 55.5882 276.333 55.8627 276.196 56.1373C275.922 56.8235 276.333 57.5098 277.02 57.7843C279.078 58.7451 280.451 60.6667 280.451 63C280.451 65.1961 279.078 67.2549 277.02 68.0784Z" fill="#ECECEC"/>
<rect x="355.5" y="29.5" width="67" height="67" rx="11.5" fill="#F9FBFF"/>
<rect x="355.5" y="29.5" width="67" height="67" rx="11.5" stroke="#ECECEC"/>
<path d="M402.227 65.1636H398.918V60.8364H402.227C402.991 60.8364 403.5 60.3273 403.5 59.5636C403.5 58.8 402.991 58.2909 402.227 58.2909H398.918V57.2727C398.918 55.2364 397.264 53.7091 395.355 53.7091H394.336V50.2727C394.336 49.5091 393.827 49 393.064 49C392.3 49 391.791 49.5091 391.791 50.2727V53.5818H387.336V50.2727C387.336 49.5091 386.827 49 386.064 49C385.3 49 384.791 49.5091 384.791 50.2727V53.5818H383.773C381.736 53.5818 380.209 55.2364 380.209 57.1455V58.1636H376.773C376.009 58.1636 375.5 58.6727 375.5 59.4364C375.5 60.2 376.009 60.7091 376.773 60.7091H380.082V65.1636H376.773C376.009 65.1636 375.5 65.6727 375.5 66.4364C375.5 67.2 376.009 67.7091 376.773 67.7091H380.082V68.7273C380.082 70.7636 381.736 72.2909 383.645 72.2909H384.664V75.7273C384.664 76.4909 385.173 77 385.936 77C386.7 77 387.209 76.4909 387.209 75.7273V72.4182H391.664V75.7273C391.664 76.4909 392.173 77 392.936 77C393.7 77 394.209 76.4909 394.209 75.7273V72.4182H395.227C397.264 72.4182 398.791 70.7636 398.791 68.8545V67.8364H402.227C402.991 67.8364 403.5 67.3273 403.5 66.5636C403.5 65.8 402.991 65.1636 402.227 65.1636ZM396.373 68.7273C396.373 69.3636 395.864 69.7455 395.355 69.7455H383.773C383.136 69.7455 382.755 69.2364 382.755 68.7273V57.2727C382.627 56.6364 383.136 56.1273 383.773 56.1273H395.355C395.991 56.1273 396.373 56.6364 396.373 57.1455V68.7273Z" fill="#ECECEC"/>
<rect x="12.5" y="297.5" width="67" height="67" rx="11.5" fill="#F9FBFF"/>
<rect x="12.5" y="297.5" width="67" height="67" rx="11.5" stroke="#ECECEC"/>
<path d="M41.9273 328.2C42.6909 328.2 43.2 327.691 43.2 326.927C43.2 325.4 44.4727 324.127 46 324.127C47.5273 324.127 48.8 325.4 48.8 326.927C48.8 327.691 49.3091 328.2 50.0727 328.2C50.8364 328.2 51.3455 327.691 51.3455 326.927C51.3455 324 48.9273 321.582 46 321.582C43.0727 321.582 40.6545 324 40.6545 326.927C40.6545 327.564 41.2909 328.2 41.9273 328.2Z" fill="#ECECEC"/>
<path d="M58.7273 329.727H33.2727C32.5091 329.727 32 330.236 32 331C32 331.764 32.5091 332.273 33.2727 332.273H39.7636C39 333.036 38.3636 333.927 37.9818 334.945C37.6 335.964 37.7273 337.109 38.2364 338C38.8727 338.891 39.8909 339.527 41.0364 339.527H50.7091C51.8545 339.527 52.8727 339.018 53.5091 338C54.1455 337.109 54.2727 335.964 53.7636 334.945C53.3818 333.927 52.7455 333.036 51.9818 332.273H58.7273C59.4909 332.273 60 331.764 60 331C60 330.236 59.4909 329.727 58.7273 329.727ZM51.6 335.964C51.7273 336.218 51.6 336.473 51.4727 336.6C51.3455 336.855 51.0909 336.982 50.7091 336.982H41.1636C40.9091 336.982 40.6545 336.855 40.4 336.6C40.2727 336.473 40.1455 336.218 40.2727 335.964C41.0364 334.055 42.8182 332.655 44.8545 332.273H46.8909C49.0545 332.655 50.8364 334.055 51.6 335.964Z" fill="#ECECEC"/>
<path d="M58.7273 335.455C57.9636 335.455 57.4545 335.964 57.4545 336.727V339.018C57.4545 340.927 55.9273 342.327 54.1455 342.327H51.8545C51.0909 342.327 50.5818 342.836 50.5818 343.6C50.5818 344.364 51.0909 344.873 51.8545 344.873H54.1455C57.4545 344.873 60 342.2 60 339.018V336.727C60 336.091 59.4909 335.455 58.7273 335.455Z" fill="#ECECEC"/>
<path d="M40.2727 342.455H37.8545C36.0727 342.455 34.5455 340.927 34.5455 339.145V336.855C34.5455 336.091 34.0364 335.582 33.2727 335.582C32.5091 335.582 32 336.091 32 336.855V339.145C32 342.327 34.6727 345 37.8545 345H40.1455C40.9091 345 41.4182 344.491 41.4182 343.727C41.4182 342.964 40.9091 342.455 40.2727 342.455Z" fill="#ECECEC"/>
<path d="M33.2727 326.545C34.0364 326.545 34.5455 326.036 34.5455 325.273V322.855C34.5455 321.073 36.0727 319.545 37.8545 319.545H40.1455C40.9091 319.545 41.4182 319.036 41.4182 318.273C41.4182 317.509 40.9091 317 40.2727 317H37.8545C34.6727 317 32 319.673 32 322.855V325.145C32 325.909 32.5091 326.545 33.2727 326.545Z" fill="#ECECEC"/>
<path d="M54.1455 317H51.8545C51.0909 317 50.5818 317.509 50.5818 318.273C50.5818 319.036 51.0909 319.545 51.8545 319.545H54.1455C55.9273 319.545 57.4545 321.073 57.4545 322.855V325.145C57.4545 325.909 57.9636 326.418 58.7273 326.418C59.4909 326.418 60 325.909 60 325.145V322.855C60 319.673 57.3273 317 54.1455 317Z" fill="#ECECEC"/>
<path d="M470 344H510" stroke="#ECECEC"/>
<path d="M577 488L654 488" stroke="#ECECEC"/>
<path d="M537 497V579" stroke="#ECECEC"/>
<path d="M554 498V525.953C554 534.79 561.163 541.953 570 541.953H643C651.837 541.953 659 549.117 659 557.953V582" stroke="#ECECEC"/>
<path d="M576.5 463H586C594.837 463 602 455.837 602 447V274.994C602 266.158 609.163 258.994 618 258.994H686C694.837 258.994 702 251.831 702 242.994V231" stroke="#ECECEC"/>
<path d="M577 476L623 476C631.837 476 639 468.837 639 460L639 365" stroke="#ECECEC"/>
<path d="M460 211H508" stroke="#ECECEC"/>
<path d="M308 297L308 205C308 200.582 304.418 197 300 197V197" stroke="#ECECEC"/>
<path d="M576.5 447.5V447.5C583.403 447.5 588.999 441.903 588.999 435L588.999 295.5C588.999 286.663 581.836 279.5 572.999 279.5L338 279.5C329.164 279.5 322.001 286.663 322 295.499L322 297" stroke="#ECECEC"/>
<path d="M179 297L179 214C179 205.163 171.837 198 163 198L156 198" stroke="#ECECEC"/>
<path d="M118 498L118 579" stroke="#ECECEC"/>
<path d="M255 650L255 729" stroke="#ECECEC"/>
<path d="M363 646L363 728" stroke="#ECECEC"/>
<path d="M386 647L386 697C386 705.837 393.163 713 402 713L528 713C536.837 713 544 720.164 544 729V729" stroke="#ECECEC"/>
<path d="M408 614L413.5 614C422.337 614 429.5 621.163 429.5 630L429.5 677.5C429.5 686.336 436.664 693.5 445.5 693.5L698 693.5C706.837 693.5 714 700.663 714 709.5L714 729" stroke="#ECECEC"/>
<path d="M236 650L236 684.514C236 693.351 228.837 700.514 220 700.514L165 700.514C156.163 700.514 149 707.678 149 716.514L149 728" stroke="#ECECEC"/>
<path d="M118 430V349C118 340.163 110.837 333 102 333H80" stroke="#ECECEC"/>
<path d="M261 164L261 97" stroke="#ECECEC"/>
<path d="M389 97V97C389 103.627 383.627 109 377 109H291C282.163 109 275 116.163 275 125V164" stroke="#ECECEC"/>
<path d="M155 65H197C205.837 65 213 72.1635 213 81V297" stroke="#ECECEC"/>
<path d="M460 197.499L469.814 197.499C478.376 197.499 484.935 191.435 484.935 183.517L484.937 97.0004" stroke="#ECECEC"/>
<path d="M382 344H342" stroke="#ECECEC"/>
<path d="M274 344L231 344" stroke="#ECECEC"/>
<path d="M274 353H269.837C261.001 353 253.837 360.163 253.837 369V391.25C253.837 400.087 246.674 407.25 237.837 407.25H166C157.163 407.25 150 414.413 150 423.25V430" stroke="#ECECEC"/>
<path d="M294 365L294 430" stroke="#ECECEC"/>
<path d="M342 353L348 353C356.836 353 364 360.164 364 369L364 579" stroke="#ECECEC"/>
<path d="M256 582V576.551C256 567.715 263.163 560.551 272 560.551H311C319.837 560.551 327 553.388 327 544.551V365" stroke="#ECECEC"/>
<path d="M426 299V244" stroke="#ECECEC"/>
<path d="M426 389L426 429" stroke="url(#paint3_linear_493_113477)" stroke-width="2"/>
<defs>
<filter id="filter0_d_493_113477" x="373" y="291" width="108" height="110" filterUnits="userSpaceOnUse" color-interpolation-filters="sRGB">
<feFlood flood-opacity="0" result="BackgroundImageFix"/>
<feColorMatrix in="SourceAlpha" type="matrix" values="0 0 0 0 0 0 0 0 0 0 0 0 0 0 0 0 0 0 127 0" result="hardAlpha"/>
<feOffset dx="1" dy="2"/>
<feGaussianBlur stdDeviation="5"/>
<feComposite in2="hardAlpha" operator="out"/>
<feColorMatrix type="matrix" values="0 0 0 0 0.00780001 0 0 0 0 0.045344 0 0 0 0 0.0800001 0 0 0 0.04 0"/>
<feBlend mode="normal" in2="BackgroundImageFix" result="effect1_dropShadow_493_113477"/>
<feBlend mode="normal" in="SourceGraphic" in2="effect1_dropShadow_493_113477" result="shape"/>
</filter>
<filter id="filter1_d_493_113477" x="383" y="421" width="88" height="114" filterUnits="userSpaceOnUse" color-interpolation-filters="sRGB">
<feFlood flood-opacity="0" result="BackgroundImageFix"/>
<feColorMatrix in="SourceAlpha" type="matrix" values="0 0 0 0 0 0 0 0 0 0 0 0 0 0 0 0 0 0 127 0" result="hardAlpha"/>
<feOffset dx="1" dy="2"/>
<feGaussianBlur stdDeviation="5"/>
<feComposite in2="hardAlpha" operator="out"/>
<feColorMatrix type="matrix" values="0 0 0 0 0.00780001 0 0 0 0 0.045344 0 0 0 0 0.0800001 0 0 0 0.04 0"/>
<feBlend mode="normal" in2="BackgroundImageFix" result="effect1_dropShadow_493_113477"/>
<feBlend mode="normal" in="SourceGraphic" in2="effect1_dropShadow_493_113477" result="shape"/>
</filter>
<radialGradient id="paint0_radial_493_113477" cx="0" cy="0" r="1" gradientUnits="userSpaceOnUse" gradientTransform="translate(438 321) rotate(120.7) scale(37.2156)">
<stop offset="0.338542" stop-color="#7A73FF"/>
<stop offset="0.722638" stop-color="#75CDFF"/>
<stop offset="1" stop-color="#4AFCF1"/>
</radialGradient>
<radialGradient id="paint1_radial_493_113477" cx="0" cy="0" r="1" gradientUnits="userSpaceOnUse" gradientTransform="translate(426.4 467) rotate(100.679) scale(17.8084 19.4727)">
<stop offset="0.055" stop-color="#7A73FF"/>
<stop offset="0.65" stop-color="#67DDFA"/>
<stop offset="1" stop-color="#4AFCF1"/>
</radialGradient>
<radialGradient id="paint2_radial_493_113477" cx="0" cy="0" r="1" gradientUnits="userSpaceOnUse" gradientTransform="translate(426.4 467) rotate(100.679) scale(17.8084 19.4727)">
<stop offset="0.055" stop-color="#7A73FF"/>
<stop offset="0.65" stop-color="#67DDFA"/>
<stop offset="1" stop-color="#4AFCF1"/>
</radialGradient>
<linearGradient id="paint3_linear_493_113477" x1="425" y1="451.5" x2="431.761" y2="451.01" gradientUnits="userSpaceOnUse">
<stop offset="0.338542" stop-color="#7A73FF"/>
<stop offset="0.734375" stop-color="#75CDFF"/>
<stop offset="1" stop-color="#4AFCF1"/>
</linearGradient>
</defs>
</svg>
