<svg width="788" height="874" viewBox="0 0 788 874" fill="none" xmlns="http://www.w3.org/2000/svg">
<rect x="394.5" y="309.5" width="67" height="67" rx="11.5" fill="#F9FBFF"/>
<rect x="394.5" y="309.5" width="67" height="67" rx="11.5" stroke="#ECECEC"/>
<path fill-rule="evenodd" clip-rule="evenodd" d="M428 359C436.837 359 444 351.837 444 343C444 337.866 441.582 333.297 437.823 330.37L435.181 328.698C433.022 327.612 430.582 327 428 327C419.163 327 412 334.163 412 343C412 351.837 419.163 359 428 359ZM435.181 328.698V336.292C433.317 334.202 430.622 332.889 427.625 332.889C421.999 332.889 417.437 337.517 417.437 343.226C417.437 348.935 421.999 353.563 427.625 353.563C430.622 353.563 433.317 352.25 435.181 350.16L435.107 352.311C435.097 352.614 435.339 352.864 435.642 352.864H437.358C437.654 352.864 437.893 352.624 437.892 352.328L437.823 330.37L435.181 328.698ZM435.606 343.226C435.606 347.525 432.166 351.01 427.922 351.01C423.679 351.01 420.239 347.525 420.239 343.226C420.239 338.927 423.679 335.441 427.922 335.441C432.166 335.441 435.606 338.927 435.606 343.226Z" fill="#ECECEC"/>
<rect x="394.5" y="169.5" width="67" height="67" rx="11.5" fill="#F9FBFF"/>
<rect x="394.5" y="169.5" width="67" height="67" rx="11.5" stroke="#ECECEC"/>
<path d="M434.409 209.045C433.864 209.045 433.455 208.773 433.182 208.364L431.546 205.5C430.864 204 429.501 202.636 428.001 201.818L425.137 200.182C424.728 200.045 424.455 199.5 424.455 199.091C424.455 198.545 424.728 198.136 425.137 197.864L428.001 196.227C429.501 195.409 430.864 194.182 431.682 192.545L433.319 189.682C433.455 189.273 434 189 434.409 189C434.955 189 435.364 189.273 435.637 189.682L437.273 192.545C438.091 194.045 439.455 195.409 440.955 196.227L443.818 197.864C444.227 198.136 444.5 198.545 444.5 199.091C444.5 199.636 444.227 200.045 443.818 200.318L440.955 201.955C439.455 202.773 438.091 204.136 437.273 205.636L435.637 208.5C435.364 208.773 434.955 209.045 434.409 209.045ZM428.682 199.091L429.364 199.5C431.41 200.591 433.046 202.227 434.137 204.273L434.546 204.955L434.955 204.273C436.046 202.227 437.682 200.591 439.727 199.5L440.409 199.091L439.727 198.682C437.682 197.591 436.046 195.955 434.955 193.909L434.546 193.227L434.137 193.909C433.046 195.955 431.41 197.591 429.364 198.682L428.682 199.091Z" fill="#ECECEC"/>
<path d="M422 219C421.454 219 421.045 218.727 420.773 218.318L419.954 216.682C419.273 215.318 418.182 214.227 416.818 213.545L415.182 212.727C414.773 212.455 414.5 211.909 414.5 211.5C414.5 210.955 414.773 210.545 415.182 210.273L416.818 209.455C418.182 208.773 419.273 207.682 419.954 206.318L420.773 204.682C421.318 203.864 422.682 203.864 423.227 204.682L424.045 206.318C424.727 207.682 425.818 208.773 427.181 209.455L428.818 210.273C429.227 210.545 429.499 210.955 429.499 211.5C429.499 212.045 429.227 212.455 428.818 212.727L427.318 213.545C425.954 214.227 424.863 215.318 424.181 216.682L423.363 218.318C422.954 218.727 422.545 219 422 219ZM418.727 211.5C420.091 212.318 421.318 213.545 422.136 214.909C422.954 213.545 424.181 212.318 425.545 211.5C424.045 210.545 422.954 209.455 422 208.091C421.182 209.455 420.091 210.545 418.727 211.5Z" fill="#ECECEC"/>
<rect x="102.5" y="430.5" width="67" height="67" rx="11.5" fill="#F9FBFF"/>
<rect x="102.5" y="430.5" width="67" height="67" rx="11.5" stroke="#ECECEC"/>
<path fill-rule="evenodd" clip-rule="evenodd" d="M122.549 456.284C120.292 454.023 121.912 450 125.179 450H145.825C149.092 450 150.712 454.023 148.455 456.284C148.454 456.286 148.453 456.287 148.451 456.288L140.301 464.548V471.769C140.301 472.929 139.738 474.159 138.656 474.83L134.658 477.575L134.641 477.586C133.751 478.179 132.726 478.077 131.989 477.643C131.268 477.217 130.703 476.408 130.703 475.415V464.548L122.549 456.284ZM124.38 453.364C124.231 453.725 124.299 454.075 124.531 454.307L124.539 454.314L133.099 462.99C133.358 463.252 133.503 463.605 133.503 463.973V474.972L137.102 472.501C137.125 472.484 137.15 472.469 137.174 472.454C137.324 472.365 137.501 472.103 137.501 471.769V463.973C137.501 463.605 137.646 463.252 137.905 462.99L146.473 454.307C146.705 454.075 146.773 453.725 146.624 453.364C146.478 453.01 146.187 452.8 145.825 452.8H125.179C124.817 452.8 124.526 453.01 124.38 453.364Z" fill="#ECECEC"/>
<g filter="url(#filter0_d_493_113405)">
<rect x="245" y="430" width="99" height="110" rx="12" fill="white"/>
<path fill-rule="evenodd" clip-rule="evenodd" d="M292.416 454.491C293.888 453.836 295.533 453.836 297.005 454.491L297.027 454.502L304.896 458.188C304.906 458.193 304.916 458.197 304.926 458.202C306.689 459.085 307.733 461.025 307.389 463.105C306.734 467.165 304.753 475.169 297.41 481.053L297.396 481.064C295.794 482.312 293.627 482.312 292.024 481.064L292.011 481.053C284.665 475.168 282.685 467.161 282.032 463.102C282.027 463.073 282.023 463.044 282.021 463.015C281.858 461.218 282.658 459.102 284.654 458.187L292.386 454.505C292.396 454.5 292.406 454.496 292.416 454.491ZM293.465 456.811L285.739 460.489L285.719 460.499C284.941 460.853 284.478 461.763 284.552 462.744C285.175 466.577 287.013 473.782 293.595 479.061C294.274 479.586 295.146 479.586 295.826 479.061C302.435 473.761 304.261 466.517 304.876 462.697L304.877 462.691C305.038 461.726 304.566 460.876 303.799 460.485L295.959 456.812C295.154 456.457 294.27 456.457 293.465 456.811Z" fill="url(#paint0_radial_493_113405)"/>
<path fill-rule="evenodd" clip-rule="evenodd" d="M300.58 461.89C301.143 462.311 301.258 463.108 300.837 463.671L295.126 471.308C294.887 471.627 294.511 471.816 294.112 471.818C293.713 471.82 293.336 471.634 293.094 471.316L289.896 467.116C289.47 466.557 289.578 465.759 290.138 465.333C290.697 464.907 291.495 465.015 291.921 465.574L294.098 468.433L298.798 462.147C299.219 461.584 300.017 461.469 300.58 461.89Z" fill="url(#paint1_radial_493_113405)"/>
<path d="M278.542 499.951V499.518C278.542 498.182 278.91 497.145 279.644 496.406C280.378 495.664 281.32 495.293 282.468 495.293C283.62 495.293 284.564 495.664 285.298 496.406C286.033 497.145 286.4 498.182 286.4 499.518V499.951C286.4 501.287 286.033 502.326 285.298 503.068C284.564 503.807 283.62 504.176 282.468 504.176C281.32 504.176 280.378 503.807 279.644 503.068C278.91 502.326 278.542 501.287 278.542 499.951ZM279.72 499.951C279.72 500.967 279.97 501.76 280.47 502.33C280.974 502.896 281.642 503.18 282.474 503.18C283.302 503.18 283.968 502.896 284.472 502.33C284.976 501.76 285.228 500.967 285.228 499.951V499.518C285.228 498.502 284.976 497.711 284.472 497.145C283.968 496.574 283.302 496.289 282.474 496.289C281.642 496.289 280.974 496.574 280.47 497.145C279.97 497.711 279.72 498.502 279.72 499.518V499.951ZM288.345 504V495.469H291.374C292.366 495.469 293.134 495.697 293.677 496.154C294.22 496.611 294.491 497.225 294.491 497.994C294.491 498.764 294.22 499.383 293.677 499.852C293.134 500.32 292.366 500.555 291.374 500.555H289.511V504H288.345ZM289.511 499.605H291.374C292.105 499.605 292.612 499.451 292.898 499.143C293.183 498.83 293.325 498.447 293.325 497.994C293.325 497.541 293.183 497.166 292.898 496.869C292.612 496.568 292.105 496.418 291.374 496.418H289.511V499.605ZM293.636 504L291.398 500.068L292.593 499.922L294.966 504H293.636ZM296.472 504V495.469H297.995L300.766 501.885C300.817 502.002 300.866 502.125 300.913 502.254C300.964 502.379 301.009 502.496 301.048 502.605H301.095C301.13 502.496 301.171 502.379 301.218 502.254C301.265 502.125 301.313 502.002 301.364 501.885L304.118 495.469H305.671V504H304.546V497.73C304.546 497.613 304.548 497.482 304.552 497.338C304.559 497.189 304.571 497.057 304.587 496.939H304.534C304.503 497.057 304.46 497.189 304.405 497.338C304.354 497.482 304.304 497.613 304.253 497.73L301.569 504H300.532L297.831 497.73C297.78 497.613 297.729 497.482 297.679 497.338C297.632 497.189 297.595 497.057 297.567 496.939H297.515C297.526 497.057 297.536 497.189 297.544 497.338C297.556 497.482 297.561 497.613 297.561 497.73V504H296.472ZM307.294 500.824V499.793H310.762V500.824H307.294ZM263.827 516.977V516.789C263.827 515.848 264.11 515.08 264.677 514.486C265.247 513.889 266.03 513.59 267.026 513.59C267.948 513.59 268.647 513.814 269.124 514.264C269.604 514.709 269.845 515.209 269.845 515.764V515.793H268.731V515.758C268.731 515.426 268.597 515.135 268.327 514.885C268.061 514.635 267.628 514.51 267.026 514.51C266.323 514.51 265.806 514.729 265.474 515.166C265.142 515.604 264.976 516.145 264.976 516.789V516.977C264.976 517.621 265.142 518.162 265.474 518.6C265.806 519.033 266.323 519.25 267.026 519.25C267.628 519.25 268.061 519.127 268.327 518.881C268.597 518.635 268.731 518.342 268.731 518.002V517.973H269.845V518.002C269.845 518.553 269.604 519.053 269.124 519.502C268.647 519.951 267.948 520.176 267.026 520.176C266.03 520.176 265.247 519.879 264.677 519.285C264.11 518.688 263.827 517.918 263.827 516.977ZM270.6 514.65V513.766H276.167V514.65H273.946V520H272.821V514.65H270.6ZM277.497 522.438V513.766H278.516L278.569 514.621H278.592C278.78 514.352 279.063 514.123 279.442 513.936C279.821 513.744 280.264 513.648 280.772 513.648C281.647 513.648 282.346 513.945 282.87 514.539C283.397 515.129 283.661 515.879 283.661 516.789V516.977C283.661 517.883 283.397 518.633 282.87 519.227C282.346 519.82 281.647 520.117 280.772 520.117C280.264 520.117 279.833 520.035 279.477 519.871C279.122 519.707 278.836 519.49 278.622 519.221V522.438H277.497ZM278.622 518.084C278.762 518.373 278.995 518.631 279.319 518.857C279.643 519.08 280.038 519.191 280.502 519.191C281.194 519.191 281.7 518.98 282.02 518.559C282.344 518.133 282.506 517.605 282.506 516.977V516.789C282.506 516.156 282.344 515.629 282.02 515.207C281.7 514.785 281.194 514.574 280.502 514.574C280.038 514.574 279.643 514.688 279.319 514.914C278.999 515.137 278.766 515.393 278.622 515.682V518.084ZM284.955 518.166C284.955 517.529 285.229 517.035 285.776 516.684C286.326 516.332 287.039 516.156 287.914 516.156H289.584V515.711C289.584 515.336 289.467 515.037 289.233 514.814C289.002 514.592 288.608 514.48 288.049 514.48C287.494 514.48 287.094 514.576 286.848 514.768C286.602 514.955 286.479 515.182 286.479 515.447V515.477H285.354V515.447C285.354 514.936 285.598 514.498 286.086 514.135C286.574 513.771 287.239 513.59 288.078 513.59C288.914 513.59 289.561 513.77 290.018 514.129C290.479 514.484 290.709 515.012 290.709 515.711V518.594C290.709 518.848 290.731 519.088 290.774 519.314C290.817 519.537 290.877 519.734 290.955 519.906V520H289.871C289.809 519.902 289.752 519.773 289.701 519.613C289.651 519.453 289.619 519.295 289.608 519.139C289.444 519.4 289.17 519.629 288.787 519.824C288.405 520.02 287.914 520.117 287.317 520.117C286.645 520.117 286.082 519.949 285.629 519.613C285.18 519.277 284.955 518.795 284.955 518.166ZM286.08 518.107C286.08 518.459 286.201 518.732 286.444 518.928C286.686 519.123 287.065 519.221 287.58 519.221C288.096 519.221 288.559 519.072 288.969 518.775C289.379 518.479 289.584 518.164 289.584 517.832V516.953H288.043C287.403 516.953 286.914 517.057 286.578 517.264C286.246 517.467 286.08 517.748 286.08 518.107ZM292.016 514.65V513.766H297.582V514.65H295.361V520H294.236V514.65H292.016ZM298.543 516.977V516.789C298.543 515.848 298.828 515.08 299.398 514.486C299.972 513.889 300.73 513.59 301.672 513.59C302.617 513.59 303.344 513.869 303.851 514.428C304.359 514.982 304.613 515.734 304.613 516.684V517.146H299.211V516.25H303.482V516.221C303.482 515.721 303.34 515.311 303.054 514.99C302.769 514.67 302.312 514.51 301.683 514.51C301.023 514.51 300.523 514.729 300.183 515.166C299.844 515.604 299.674 516.145 299.674 516.789V516.977C299.674 517.621 299.851 518.162 300.207 518.6C300.566 519.037 301.119 519.256 301.865 519.256C302.318 519.256 302.709 519.17 303.037 518.998C303.365 518.822 303.629 518.615 303.828 518.377L304.554 518.975C304.336 519.268 303.996 519.541 303.535 519.795C303.078 520.049 302.521 520.176 301.865 520.176C300.791 520.176 299.969 519.879 299.398 519.285C298.828 518.688 298.543 517.918 298.543 516.977ZM306.148 513.766H310.625V514.65H307.273V520H306.148V513.766ZM311.954 520V513.766H313.068V517.738C313.068 517.855 313.066 517.988 313.062 518.137C313.062 518.285 313.06 518.42 313.056 518.541H313.103C313.158 518.436 313.218 518.324 313.284 518.207C313.351 518.09 313.427 517.973 313.513 517.855L316.449 513.766H317.579V520H316.46V516.033C316.46 515.912 316.462 515.777 316.466 515.629C316.47 515.477 316.476 515.34 316.484 515.219H316.419C316.368 515.32 316.31 515.432 316.243 515.553C316.177 515.674 316.103 515.793 316.021 515.91L313.085 520H311.954ZM320.433 520H319.185L321.189 517.34L322.319 517.439L320.433 520ZM323.673 520V517.75H321.915L321.786 517.68C321.021 517.68 320.433 517.508 320.022 517.164C319.612 516.816 319.407 516.35 319.407 515.764C319.407 515.158 319.614 514.674 320.028 514.311C320.442 513.947 321.036 513.766 321.81 513.766H324.804V520H323.673ZM321.815 516.859H323.673V514.65H321.815C321.347 514.65 321.017 514.756 320.825 514.967C320.638 515.178 320.544 515.443 320.544 515.764C320.544 516.088 320.638 516.352 320.825 516.555C321.013 516.758 321.343 516.859 321.815 516.859Z" fill="#04101C"/>
</g>
<g filter="url(#filter1_d_493_113405)">
<rect x="276" y="297" width="68" height="94" rx="12" fill="white"/>
<path d="M320.965 343.6H318C317.506 341.8 315.9 340.6 313.924 340.6C311.576 340.6 309.6 342.52 309.6 344.8C309.6 347.08 311.576 349 313.924 349C315.9 349 317.506 347.8 318 346H320.965C321.706 346 322.2 345.4 322.2 344.8C322.2 344.08 321.706 343.6 320.965 343.6ZM313.924 346.6C312.935 346.6 312.071 345.76 312.071 344.8C312.071 343.84 312.935 343 313.924 343C314.912 343 315.776 343.84 315.776 344.8C315.776 345.76 314.912 346.6 313.924 346.6Z" fill="url(#paint2_radial_493_113405)"/>
<path d="M307.009 343.4H298.191C297.477 343.4 297 344.1 297 344.8C297 345.64 297.596 346.2 298.191 346.2H307.009C307.723 346.2 308.2 345.5 308.2 344.8C308.2 343.96 307.604 343.4 307.009 343.4Z" fill="url(#paint3_radial_493_113405)"/>
<path d="M298.191 326.6H307.009C307.723 326.6 308.2 325.9 308.2 325.2C308.2 324.5 307.604 323.8 307.009 323.8H298.191C297.477 323.8 297 324.5 297 325.2C297 325.9 297.596 326.6 298.191 326.6Z" fill="url(#paint4_radial_493_113405)"/>
<path d="M313.924 329.4C315.9 329.4 317.506 328.2 318 326.4H320.965C321.706 326.4 322.2 325.8 322.2 325.2C322.2 324.6 321.582 324 320.965 324H318C317.506 322.2 315.9 321 313.924 321C311.576 321 309.6 322.92 309.6 325.2C309.6 327.48 311.576 329.4 313.924 329.4ZM313.924 323.4C314.912 323.4 315.776 324.24 315.776 325.2C315.776 326.16 314.912 327 313.924 327C312.935 327 312.071 326.16 312.071 325.2C312.071 324.24 312.935 323.4 313.924 323.4Z" fill="url(#paint5_radial_493_113405)"/>
<path d="M298.235 336.2H301.2C301.694 337.88 303.3 339.2 305.276 339.2C307.624 339.2 309.6 337.28 309.6 335C309.6 332.72 307.624 330.8 305.276 330.8C303.3 330.8 301.694 332 301.2 333.8H298.235C297.494 333.8 297 334.4 297 335C297 335.6 297.618 336.2 298.235 336.2ZM305.276 333.2C306.265 333.2 307.129 334.04 307.129 335C307.129 335.96 306.265 336.8 305.276 336.8C304.288 336.8 303.424 335.96 303.424 335C303.424 334.04 304.288 333.2 305.276 333.2Z" fill="url(#paint6_radial_493_113405)"/>
<path d="M320.996 333.6H312.204C311.482 333.6 311 334.3 311 335C311 335.7 311.602 336.4 312.204 336.4H320.996C321.718 336.4 322.2 335.7 322.2 335C322.2 334.3 321.718 333.6 320.996 333.6Z" fill="url(#paint7_radial_493_113405)"/>
<path d="M296.272 366.951V366.518C296.272 365.182 296.639 364.145 297.373 363.406C298.108 362.664 299.049 362.293 300.198 362.293C301.35 362.293 302.293 362.664 303.028 363.406C303.762 364.145 304.129 365.182 304.129 366.518V366.951C304.129 368.287 303.762 369.326 303.028 370.068C302.293 370.807 301.35 371.176 300.198 371.176C299.049 371.176 298.108 370.807 297.373 370.068C296.639 369.326 296.272 368.287 296.272 366.951ZM297.449 366.951C297.449 367.967 297.699 368.76 298.199 369.33C298.703 369.896 299.371 370.18 300.203 370.18C301.031 370.18 301.698 369.896 302.201 369.33C302.705 368.76 302.957 367.967 302.957 366.951V366.518C302.957 365.502 302.705 364.711 302.201 364.145C301.698 363.574 301.031 363.289 300.203 363.289C299.371 363.289 298.703 363.574 298.199 364.145C297.699 364.711 297.449 365.502 297.449 366.518V366.951ZM306.074 371V362.469H309.104C310.096 362.469 310.863 362.697 311.406 363.154C311.949 363.611 312.221 364.225 312.221 364.994C312.221 365.764 311.949 366.383 311.406 366.852C310.863 367.32 310.096 367.555 309.104 367.555H307.24V371H306.074ZM307.24 366.605H309.104C309.834 366.605 310.342 366.451 310.627 366.143C310.912 365.83 311.055 365.447 311.055 364.994C311.055 364.541 310.912 364.166 310.627 363.869C310.342 363.568 309.834 363.418 309.104 363.418H307.24V366.605ZM311.365 371L309.127 367.068L310.322 366.922L312.695 371H311.365ZM314.201 371V362.469H315.724L318.496 368.885C318.547 369.002 318.595 369.125 318.642 369.254C318.693 369.379 318.738 369.496 318.777 369.605H318.824C318.859 369.496 318.9 369.379 318.947 369.254C318.994 369.125 319.043 369.002 319.094 368.885L321.847 362.469H323.4V371H322.275V364.73C322.275 364.613 322.277 364.482 322.281 364.338C322.289 364.189 322.301 364.057 322.316 363.939H322.263C322.232 364.057 322.189 364.189 322.135 364.338C322.084 364.482 322.033 364.613 321.982 364.73L319.299 371H318.261L315.56 364.73C315.51 364.613 315.459 364.482 315.408 364.338C315.361 364.189 315.324 364.057 315.297 363.939H315.244C315.256 364.057 315.265 364.189 315.273 364.338C315.285 364.482 315.291 364.613 315.291 364.73V371H314.201Z" fill="#04101C"/>
</g>
<rect x="118.5" y="729.5" width="67" height="67" rx="11.5" fill="#F9FBFF"/>
<rect x="118.5" y="729.5" width="67" height="67" rx="11.5" stroke="#ECECEC"/>
<path d="M166.653 759.021C163.705 756.516 158.842 753.421 152.211 753.421C151.474 753.421 150.737 753.421 150.295 753.568C149.411 753.716 148.821 754.453 148.968 755.337C149.116 756.074 149.853 756.663 150.589 756.663C151.032 756.663 151.621 756.516 152.211 756.516C157.958 756.516 162.232 759.168 164.737 761.379C165.179 761.674 165.474 762.263 165.474 763C165.474 763.737 165.179 764.179 164.737 764.621C163.853 765.358 162.821 766.095 161.789 766.684C161.053 767.126 160.905 768.011 161.2 768.747C161.495 769.189 161.937 769.484 162.526 769.484C162.821 769.484 162.968 769.484 163.263 769.337C164.442 768.6 165.621 767.863 166.653 766.979C167.832 765.947 168.421 764.621 168.421 763.147C168.421 761.379 167.832 760.053 166.653 759.021Z" fill="#ECECEC"/>
<path d="M140.716 749.442C140.126 748.853 139.242 748.853 138.653 749.442C138.063 750.032 138.063 750.916 138.653 751.505L142.779 755.632C140.716 756.811 138.947 758.137 137.768 759.021C136.589 760.053 136 761.379 136 763C136 764.621 136.589 765.947 137.768 766.832C140.716 769.337 145.579 772.432 152.211 772.432C154.421 772.432 156.484 772.137 158.547 771.4L163.705 776.558C164 776.853 164.442 777 164.737 777C165.032 777 165.474 776.853 165.768 776.558C166.358 775.968 166.358 775.084 165.768 774.495L140.716 749.442ZM152.211 769.337C146.463 769.337 142.189 766.684 139.684 764.474C139.242 764.179 138.947 763.589 138.947 763C138.947 762.411 139.242 761.821 139.684 761.379C140.863 760.347 142.779 759.021 145.137 757.989L148.968 761.821C148.821 762.116 148.821 762.558 148.821 763C148.821 764.916 150.295 766.389 152.211 766.389C152.653 766.389 152.947 766.242 153.389 766.242L156.189 769.042C154.863 769.189 153.537 769.337 152.211 769.337Z" fill="#ECECEC"/>
<rect x="90.5" y="164.5" width="67" height="67" rx="11.5" fill="#F9FBFF"/>
<rect x="90.5" y="164.5" width="67" height="67" rx="11.5" stroke="#ECECEC"/>
<path d="M128.8 205.14C128.8 204.3 128.24 203.74 127.4 203.74H113.26C112.14 203.74 111.3 202.9 111.3 201.78V194.22C111.3 193.1 112.14 192.26 113.26 192.26H127.4C128.24 192.26 128.8 191.7 128.8 190.86C128.8 190.02 128.24 189.46 127.4 189.46H113.26C110.6 189.46 108.5 191.56 108.5 194.22V201.78C108.5 204.44 110.6 206.54 113.26 206.54H127.4C128.1 206.54 128.8 205.98 128.8 205.14Z" fill="#ECECEC"/>
<path d="M134.54 189.46H133.28V186.8H135.38C136.22 186.8 136.78 186.24 136.78 185.4C136.78 184.56 136.22 184 135.38 184H128.52C127.68 184 127.12 184.56 127.12 185.4C127.12 186.24 127.68 186.8 128.52 186.8H130.62V209.2H128.52C127.68 209.2 127.12 209.76 127.12 210.6C127.12 211.44 127.68 212 128.52 212H135.38C136.22 212 136.78 211.44 136.78 210.6C136.78 209.76 136.22 209.2 135.38 209.2H133.28V206.54H134.54C137.2 206.54 139.3 204.44 139.3 201.78V194.22C139.3 191.56 137.2 189.46 134.54 189.46ZM136.5 201.78C136.5 202.9 135.66 203.74 134.54 203.74H133.28V192.26H134.54C135.66 192.26 136.5 193.1 136.5 194.22V201.78Z" fill="#ECECEC"/>
<rect x="463.5" y="29.5" width="67" height="67" rx="11.5" fill="#F9FBFF"/>
<rect x="463.5" y="29.5" width="67" height="67" rx="11.5" stroke="#ECECEC"/>
<path d="M497 49C489.3 49 483 55.3 483 63C483 70.7 489.3 77 497 77C504.7 77 511 70.7 511 63C511 55.3 504.7 49 497 49ZM497 74.2C490.84 74.2 485.8 69.16 485.8 63C485.8 56.84 490.84 51.8 497 51.8C503.16 51.8 508.2 56.84 508.2 63C508.2 69.16 503.16 74.2 497 74.2Z" fill="#ECECEC"/>
<path d="M504.7 67.76C503.72 66.78 502.6 66.08 501.34 65.52C502.32 64.4 503.02 63 503.02 61.32C503.02 57.96 500.36 55.3 497 55.3C493.64 55.3 490.98 57.96 490.98 61.32C490.98 63 491.68 64.4 492.66 65.52C491.4 66.08 490.28 66.78 489.3 67.76C488.74 68.32 488.74 69.16 489.3 69.72C489.58 70 490 70.14 490.28 70.14C490.7 70.14 490.98 70 491.26 69.72C492.8 68.18 494.76 67.34 497 67.34C499.1 67.34 501.2 68.18 502.74 69.72C503.3 70.28 504.14 70.28 504.7 69.72C505.26 69.16 505.26 68.32 504.7 67.76ZM493.78 61.32C493.78 59.5 495.18 58.1 497 58.1C498.82 58.1 500.22 59.5 500.22 61.32C500.22 63.14 498.82 64.54 497 64.54C495.18 64.54 493.78 63.14 493.78 61.32Z" fill="#ECECEC"/>
<rect x="512.5" y="170.5" width="67" height="67" rx="11.5" fill="#F9FBFF"/>
<rect x="512.5" y="170.5" width="67" height="67" rx="11.5" stroke="#ECECEC"/>
<path d="M558.6 192.8H533.4C532.56 192.8 532 192.24 532 191.4C532 190.56 532.56 190 533.4 190H558.6C559.44 190 560 190.56 560 191.4C560 192.24 559.44 192.8 558.6 192.8Z" fill="#ECECEC"/>
<path d="M558.6 209.6H546C545.16 209.6 544.6 209.04 544.6 208.2C544.6 207.36 545.16 206.8 546 206.8H558.6C559.44 206.8 560 207.36 560 208.2C560 209.04 559.44 209.6 558.6 209.6Z" fill="#ECECEC"/>
<path d="M558.6 201.2H546C545.16 201.2 544.6 200.64 544.6 199.8C544.6 198.96 545.16 198.4 546 198.4H558.6C559.44 198.4 560 198.96 560 199.8C560 200.64 559.44 201.2 558.6 201.2Z" fill="#ECECEC"/>
<path d="M558.6 218H533.4C532.56 218 532 217.44 532 216.6C532 215.76 532.56 215.2 533.4 215.2H558.6C559.44 215.2 560 215.76 560 216.6C560 217.44 559.44 218 558.6 218Z" fill="#ECECEC"/>
<path d="M534.52 211.14C534.1 211.14 533.68 211 533.4 210.86C532.56 210.44 532 209.6 532 208.62V199.38C532 198.4 532.56 197.56 533.4 197.14C534.24 196.72 535.22 196.86 536.06 197.42L542.22 202.04C542.78 202.46 543.2 203.16 543.2 204C543.2 204.84 542.78 205.54 542.22 206.1L536.06 210.72C535.64 211 535.08 211.14 534.52 211.14ZM534.8 199.94V208.06L540.26 204L534.8 199.94Z" fill="#ECECEC"/>
<rect x="656.5" y="429.5" width="67" height="67" rx="11.5" fill="#F9FBFF"/>
<rect x="656.5" y="429.5" width="67" height="67" rx="11.5" stroke="#ECECEC"/>
<path d="M694.014 478H684.851C682.156 478 680 475.818 680 473.091V452.909C680 450.182 682.156 448 684.851 448H694.149C696.844 448 699 450.182 699 452.909V473.227C698.865 475.818 696.709 478 694.014 478ZM684.851 450.727C683.638 450.727 682.695 451.682 682.695 452.909V473.227C682.695 474.318 683.638 475.273 684.851 475.273H694.149C695.362 475.273 696.305 474.318 696.305 473.091V452.909C696.17 451.682 695.227 450.727 694.014 450.727H684.851Z" fill="#ECECEC"/>
<path d="M691.184 455.227H687.681C686.872 455.227 686.333 454.682 686.333 453.864C686.333 453.045 686.872 452.5 687.681 452.5H691.319C692.128 452.5 692.667 453.045 692.667 453.864C692.667 454.682 691.993 455.227 691.184 455.227Z" fill="#ECECEC"/>
<rect x="511.5" y="579.5" width="67" height="67" rx="11.5" fill="#F9FBFF"/>
<rect x="511.5" y="579.5" width="67" height="67" rx="11.5" stroke="#ECECEC"/>
<path fill-rule="evenodd" clip-rule="evenodd" d="M543.758 599.043C550.547 598.477 556.266 603.585 556.409 610.171L556.409 610.199C556.409 612.501 555.688 614.653 554.41 616.5L554.397 616.518L547.937 625.519C547.925 625.536 547.911 625.554 547.898 625.571C546.413 627.429 543.492 627.543 542.066 625.513L535.604 616.51C533.919 614.122 533.034 611.107 533.75 607.916C534.632 603.131 538.804 599.609 543.719 599.047C543.732 599.045 543.745 599.044 543.758 599.043ZM543.989 601.578C540.055 602.036 536.896 604.836 536.249 608.398C536.246 608.416 536.242 608.434 536.238 608.452C535.699 610.827 536.332 613.124 537.681 615.039L544.147 624.047C544.491 624.54 545.35 624.655 545.892 624.003L552.323 615.043C553.318 613.601 553.861 611.958 553.864 610.213C553.746 605.149 549.346 601.142 543.989 601.578Z" fill="#ECECEC"/>
<path fill-rule="evenodd" clip-rule="evenodd" d="M544.955 607.782C543.619 607.782 542.537 608.864 542.537 610.2C542.537 611.536 543.619 612.618 544.955 612.618C546.29 612.618 547.373 611.536 547.373 610.2C547.373 608.864 546.29 607.782 544.955 607.782ZM539.991 610.2C539.991 607.459 542.214 605.236 544.955 605.236C547.696 605.236 549.918 607.459 549.918 610.2C549.918 612.941 547.696 615.164 544.955 615.164C542.214 615.164 539.991 612.941 539.991 610.2Z" fill="#ECECEC"/>
<path fill-rule="evenodd" clip-rule="evenodd" d="M544.955 607.782C543.619 607.782 542.537 608.864 542.537 610.2C542.537 611.536 543.619 612.618 544.955 612.618C546.29 612.618 547.373 611.536 547.373 610.2C547.373 608.864 546.29 607.782 544.955 607.782ZM539.991 610.2C539.991 607.459 542.214 605.236 544.955 605.236C547.696 605.236 549.918 607.459 549.918 610.2C549.918 612.941 547.696 615.164 544.955 615.164C542.214 615.164 539.991 612.941 539.991 610.2Z" fill="#ECECEC"/>
<path fill-rule="evenodd" clip-rule="evenodd" d="M544.955 607.782C543.619 607.782 542.537 608.864 542.537 610.2C542.537 611.536 543.619 612.618 544.955 612.618C546.29 612.618 547.373 611.536 547.373 610.2C547.373 608.864 546.29 607.782 544.955 607.782ZM539.991 610.2C539.991 607.459 542.214 605.236 544.955 605.236C547.696 605.236 549.918 607.459 549.918 610.2C549.918 612.941 547.696 615.164 544.955 615.164C542.214 615.164 539.991 612.941 539.991 610.2Z" fill="#ECECEC"/>
<rect x="626.5" y="579.5" width="67" height="67" rx="11.5" fill="#F9FBFF"/>
<rect x="626.5" y="579.5" width="67" height="67" rx="11.5" stroke="#ECECEC"/>
<path d="M647.9 625.6C647.06 625.6 646.5 625.04 646.5 624.2V611.6C646.5 610.76 647.06 610.2 647.9 610.2C648.74 610.2 649.3 610.76 649.3 611.6V624.2C649.3 625.04 648.74 625.6 647.9 625.6Z" fill="#ECECEC"/>
<path d="M666.486 627H654.955C652.622 627 650.7 625.04 650.7 622.66V610.9C650.7 609.36 651.249 607.96 652.21 606.7L657.701 600.4C658.525 599.56 659.76 599 661.133 599C662.643 599 663.878 599.7 664.702 600.82C665.525 602.08 665.8 603.48 665.388 604.88L664.564 607.54H670.33C671.703 607.54 672.938 608.1 673.624 609.22C674.448 610.34 674.723 611.74 674.311 613L671.428 622.94C670.742 625.46 668.82 627 666.486 627ZM654.406 608.66C653.857 609.36 653.583 610.06 653.583 610.9V622.66C653.583 623.5 654.269 624.2 655.093 624.2H666.624C667.722 624.2 668.683 623.5 668.957 622.38L671.703 612.44C671.84 612.02 671.703 611.46 671.428 611.04C671.154 610.62 670.742 610.48 670.33 610.48H662.643C662.231 610.48 661.819 610.2 661.544 609.92C661.27 609.64 661.27 609.08 661.407 608.66L662.917 604.04C663.054 603.48 663.054 602.92 662.643 602.5C662.094 601.66 660.721 601.52 660.035 602.36L654.406 608.66Z" fill="#ECECEC"/>
<rect x="620.5" y="297.5" width="67" height="67" rx="11.5" fill="#F9FBFF"/>
<rect x="620.5" y="297.5" width="67" height="67" rx="11.5" stroke="#ECECEC"/>
<path d="M644.115 325.95C644.115 322.801 646.763 320.315 650.073 320.315C651.065 320.315 651.727 319.652 651.727 318.657C651.727 317.663 651.065 317 650.073 317C644.943 317 640.806 320.978 640.806 325.95V326.945C640.806 328.436 639.813 329.928 638.158 330.425C637.496 330.591 637 331.254 637 331.917C637 332.58 637.496 333.243 638.158 333.575C639.813 334.072 640.806 335.398 640.806 337.055V338.05C640.806 343.022 644.943 347 650.073 347C651.065 347 651.727 346.337 651.727 345.343C651.727 344.348 651.065 343.685 650.073 343.685C646.763 343.685 644.115 341.199 644.115 338.05V336.89C644.115 334.901 643.288 333.077 641.964 331.917C643.288 330.591 644.115 328.768 644.115 326.945V325.95Z" fill="#ECECEC"/>
<path d="M671.842 330.333C670.187 329.833 669.194 328.5 669.194 326.833V326C669.194 321 665.057 317 659.927 317C658.935 317 658.273 317.667 658.273 318.667C658.273 319.667 658.935 320.333 659.927 320.333C663.237 320.333 665.885 322.833 665.885 326V327C665.885 329 666.712 330.833 668.036 332C666.712 333.333 665.885 335.167 665.885 337V338C665.885 341.167 663.237 343.667 659.927 343.667C658.935 343.667 658.273 344.333 658.273 345.333C658.273 346.333 658.935 347 659.927 347C665.057 347 669.194 343 669.194 338V337C669.194 335.5 670.187 334 671.842 333.5C672.504 333.333 673 332.667 673 332C673 331.333 672.504 330.667 671.842 330.333Z" fill="#ECECEC"/>
<rect x="667.5" y="163.5" width="67" height="67" rx="11.5" fill="#F9FBFF"/>
<rect x="667.5" y="163.5" width="67" height="67" rx="11.5" stroke="#ECECEC"/>
<path d="M705.496 199.937C706.425 198.836 707.045 197.421 707.045 196.006C707.045 192.547 704.257 189.874 701.005 189.874C697.753 189.874 694.966 192.547 694.966 195.849C694.966 197.421 695.585 198.836 696.514 199.78C694.501 200.881 692.953 202.453 692.023 204.654C691.559 205.755 691.714 207.17 692.333 208.27C693.107 209.371 694.346 210 695.585 210H706.27C707.509 210 708.748 209.371 709.522 208.27C710.297 207.17 710.297 205.912 709.832 204.654C709.058 202.61 707.509 200.881 705.496 199.937ZM698.063 195.849C698.063 194.277 699.457 193.019 701.005 193.019C702.554 193.019 703.947 194.277 703.947 196.006C703.947 197.736 702.554 198.836 701.005 198.836C699.457 198.836 698.063 197.579 698.063 195.849ZM707.045 206.541C706.89 206.698 706.58 206.855 706.425 206.855H695.585C695.275 206.855 695.121 206.698 694.966 206.541C694.811 206.541 694.811 206.226 694.811 205.912C695.895 203.396 698.218 201.824 701.005 201.824C703.793 201.824 706.116 203.396 707.2 205.912C707.2 206.226 707.2 206.541 707.045 206.541Z" fill="#ECECEC"/>
<path d="M693.727 198.679C693.727 197.893 693.107 197.107 692.178 197.107H687.068C687.687 195.535 689.236 194.591 690.939 194.591C693.572 194.591 695.585 192.547 695.585 189.874C695.585 187.201 693.417 185.157 690.939 185.157C688.462 185.157 686.294 187.201 686.294 189.874C686.294 190.818 686.603 191.761 687.223 192.547C685.829 193.333 684.745 194.434 684.281 195.849C683.816 196.792 683.971 197.893 684.435 198.836C685.055 199.78 685.984 200.252 687.068 200.252H692.023C692.953 200.252 693.727 199.623 693.727 198.679ZM689.391 189.874C689.391 188.931 690.165 188.302 690.939 188.302C691.714 188.302 692.488 189.088 692.488 189.874C692.488 190.818 691.714 191.447 690.939 191.447C690.165 191.447 689.391 190.66 689.391 189.874Z" fill="#ECECEC"/>
<path d="M717.73 195.849C717.11 194.434 716.026 193.176 714.788 192.39C715.252 191.604 715.717 190.66 715.717 189.717C715.717 187.201 713.549 185 711.071 185C708.593 185 706.425 187.044 706.425 189.717C706.425 192.39 708.593 194.434 711.071 194.434C712.774 194.434 714.323 195.377 714.788 197.107H709.832C708.903 197.107 708.284 197.736 708.284 198.679C708.284 199.465 708.903 200.252 709.832 200.252H714.788C715.872 200.252 716.801 199.78 717.42 198.836C718.04 197.893 718.194 196.792 717.73 195.849ZM711.071 188.302C712 188.302 712.62 189.088 712.62 189.874C712.62 190.818 711.845 191.447 711.071 191.447C710.297 191.447 709.522 190.66 709.522 189.874C709.522 188.931 710.142 188.302 711.071 188.302Z" fill="#ECECEC"/>
<rect x="226.5" y="729.5" width="67" height="67" rx="11.5" fill="#F9FBFF"/>
<rect x="226.5" y="729.5" width="67" height="67" rx="11.5" stroke="#ECECEC"/>
<path d="M268.428 766.134C265.502 766.134 262.995 768.502 262.995 771.567C262.995 774.493 265.363 777 268.428 777C271.353 777 273.861 774.632 273.861 771.567C273.861 768.502 271.493 766.134 268.428 766.134ZM268.428 774.075C267.035 774.075 265.781 772.96 265.781 771.428C265.781 770.035 266.896 768.781 268.428 768.781C269.821 768.781 271.075 769.896 271.075 771.428C271.075 772.96 269.96 774.075 268.428 774.075Z" fill="#ECECEC"/>
<path d="M258.119 760.701C258.259 760.701 258.537 760.701 258.677 760.562L264.249 757.776C265.224 759.03 266.756 759.866 268.428 759.866C271.493 759.726 273.861 757.358 273.861 754.433C273.861 751.507 271.493 749 268.428 749C265.502 749 262.995 751.368 262.995 754.433C262.995 754.711 262.995 754.99 263.134 755.269L257.423 758.055C256.726 758.473 256.448 759.308 256.866 759.866C257.005 760.423 257.562 760.701 258.119 760.701ZM268.428 751.786C269.821 751.786 271.075 752.9 271.075 754.433C271.075 755.826 269.96 757.08 268.428 757.08C267.035 757.08 265.781 755.965 265.781 754.433C265.92 752.9 267.035 751.786 268.428 751.786Z" fill="#ECECEC"/>
<path d="M262.299 767.109L256.587 764.323C256.726 763.905 256.726 763.488 256.726 762.93C256.726 760.005 254.358 757.498 251.294 757.498C248.229 757.498 246 760.005 246 762.93C246 765.856 248.368 768.363 251.433 768.363C252.965 768.363 254.358 767.806 255.333 766.692L261.184 769.617C261.323 769.756 261.602 769.756 261.741 769.756C262.299 769.756 262.716 769.478 262.995 768.92C263.274 768.363 262.995 767.527 262.299 767.109ZM251.433 765.577C249.9 765.577 248.786 764.323 248.786 762.93C248.786 761.537 249.9 760.284 251.433 760.284C252.826 760.284 254.08 761.398 254.08 762.93C253.94 764.323 252.826 765.577 251.433 765.577Z" fill="#ECECEC"/>
<rect x="72.5" y="579.5" width="67" height="67" rx="11.5" fill="#F9FBFF"/>
<rect x="72.5" y="579.5" width="67" height="67" rx="11.5" stroke="#ECECEC"/>
<path d="M105.388 624.97H97.1293C96.4048 624.97 95.6803 624.537 95.3906 623.96C94.9559 623.383 94.9559 622.806 95.2457 622.085C96.9844 618.045 100.897 615.303 105.388 615.303C109.88 615.303 113.647 611.552 113.647 607.08C113.647 602.607 109.88 599 105.243 599C100.752 599 96.9844 602.751 96.9844 607.224C96.9844 609.821 98.1436 612.129 100.027 613.572C96.6946 614.871 93.7967 617.612 92.3477 621.075C91.7682 622.517 91.9131 624.249 92.7824 625.547C93.7967 626.99 95.2457 627.856 96.9844 627.856H105.243C106.113 627.856 106.692 627.279 106.692 626.413C106.692 625.547 106.113 624.97 105.388 624.97ZM99.8823 607.224C99.8823 604.338 102.346 601.886 105.243 601.886C108.141 601.886 110.605 604.338 110.605 607.224C110.605 610.109 108.141 612.562 105.243 612.562C102.346 612.562 99.8823 610.109 99.8823 607.224Z" fill="#ECECEC"/>
<path d="M120.457 614.582C119.733 614.149 118.864 614.294 118.429 615.015L112.343 623.96L110.025 620.93C109.59 620.353 108.576 620.209 107.996 620.642C107.417 621.075 107.272 622.085 107.707 622.662L111.329 627.423C111.619 627.856 112.054 628 112.488 628C112.923 628 113.358 627.711 113.647 627.423L120.747 616.746C121.182 615.881 121.037 615.015 120.457 614.582Z" fill="#ECECEC"/>
<rect x="89.5" y="29.5" width="67" height="67" rx="11.5" fill="#F9FBFF"/>
<rect x="89.5" y="29.5" width="67" height="67" rx="11.5" stroke="#ECECEC"/>
<path d="M135.823 70.1429L133.112 67.4286C132.541 66.8571 131.685 66.8571 131.115 67.4286C130.544 68 130.544 68.8571 131.115 69.4286L133.825 72.1429C134.254 72.5714 134.254 73.2857 133.825 73.7143C133.397 74.1429 132.684 74.1429 132.256 73.7143L127.976 69.4286C128.261 69.1429 128.546 69 128.832 68.7143C130.972 66.5714 132.256 63.5714 132.256 60.5714C132.256 57.4286 131.115 54.5714 128.832 52.4286C124.266 47.8571 116.99 47.8571 112.424 52.4286C107.859 57 107.859 64.2857 112.424 68.8571C114.564 71 117.561 72.2857 120.557 72.2857C122.269 72.2857 123.981 71.8571 125.408 71.1429L130.116 75.8571C130.829 76.5714 131.971 77 132.969 77C133.968 77 134.967 76.5714 135.823 75.8571C137.392 74.1429 137.392 71.5714 135.823 70.1429ZM114.422 66.5714C110.997 63.1429 110.997 57.5714 114.422 54.2857C116.134 52.5714 118.274 51.7143 120.557 51.7143C122.839 51.7143 124.98 52.5714 126.692 54.2857C128.404 56 129.26 58.1429 129.26 60.4286C129.26 62.7143 128.404 65 126.692 66.5714C124.98 68.1429 122.839 69.1429 120.557 69.1429C118.274 69.1429 115.991 68.2857 114.422 66.5714Z" fill="#ECECEC"/>
<rect x="394.5" y="428.5" width="67" height="67" rx="11.5" fill="#F9FBFF"/>
<rect x="394.5" y="428.5" width="67" height="67" rx="11.5" stroke="#ECECEC"/>
<path fill-rule="evenodd" clip-rule="evenodd" d="M436.03 448.487C437.293 449.178 438.2 450.549 438.2 452.2V466.48C438.2 469.822 434.499 471.802 431.778 469.859C431.748 469.838 431.718 469.814 431.689 469.79L430.196 468.53C430.174 468.512 430.153 468.493 430.133 468.474C428.985 467.381 427.554 466.7 425.982 466.449V471.94C425.982 474.161 424.358 476 422.138 476C419.873 476 418.295 473.972 418.295 471.94V466.183C415.276 465.494 413 462.636 413 459.34C413 457.484 413.655 455.697 415.056 454.413C416.188 453.258 417.741 452.34 419.695 452.34H424.541C426.689 452.21 428.681 451.475 430.185 450.298L431.634 448.939C431.662 448.913 431.691 448.887 431.722 448.863C433.081 447.785 434.746 447.785 436.03 448.487ZM433.5 451.028L432.056 452.382C432.028 452.408 431.999 452.433 431.968 452.457C429.956 454.053 427.366 454.983 424.662 455.138C424.635 455.139 424.609 455.14 424.582 455.14H419.695C418.68 455.14 417.8 455.605 417.034 456.395C417.013 456.417 416.99 456.439 416.967 456.46C416.22 457.134 415.8 458.132 415.8 459.34C415.8 461.711 417.68 463.54 419.695 463.54C420.468 463.54 421.095 464.167 421.095 464.94V471.94C421.095 472.709 421.688 473.2 422.138 473.2C422.634 473.2 423.182 472.799 423.182 471.94V464.94C423.182 464.167 423.809 463.54 424.582 463.54C427.337 463.54 429.988 464.486 432.032 466.416L433.443 467.607C434.251 468.141 435.4 467.6 435.4 466.48V452.2C435.4 451.611 435.085 451.162 434.686 450.943C434.318 450.742 433.895 450.736 433.5 451.028Z" fill="#ECECEC"/>
<path fill-rule="evenodd" clip-rule="evenodd" d="M442.4 455C443.173 455 443.8 455.627 443.8 456.4V462C443.8 462.773 443.173 463.4 442.4 463.4C441.627 463.4 441 462.773 441 462V456.4C441 455.627 441.627 455 442.4 455Z" fill="#ECECEC"/>
<rect x="341.5" y="729.5" width="67" height="67" rx="11.5" fill="#F9FBFF"/>
<rect x="341.5" y="729.5" width="67" height="67" rx="11.5" stroke="#ECECEC"/>
<path d="M369.726 779C369.274 779 368.822 778.854 368.37 778.708C367.165 778.124 366.562 776.955 366.863 775.787L368.671 767.315H365.959C364.754 767.315 363.699 766.585 363.247 765.562C362.795 764.54 362.945 763.371 363.85 762.641L378.164 747.888C379.068 747.012 380.575 746.72 381.63 747.304C382.835 747.888 383.438 749.057 383.137 750.225L381.329 758.697H384.041C385.246 758.697 386.301 759.427 386.753 760.45C387.205 761.472 387.055 762.641 386.15 763.371L371.836 778.124C371.233 778.708 370.48 779 369.726 779ZM370.48 764.247C370.932 764.247 371.384 764.394 371.685 764.832C371.986 765.27 372.137 765.562 371.986 766L370.028 775.933L384.041 761.472H379.671C379.219 761.472 378.767 761.326 378.466 760.888C378.164 760.596 378.014 760.158 378.164 759.719L380.123 749.787L366.11 764.394L370.48 764.247Z" fill="#ECECEC"/>
<rect x="668.5" y="729.5" width="67" height="67" rx="11.5" fill="#F9FBFF"/>
<rect x="668.5" y="729.5" width="67" height="67" rx="11.5" stroke="#ECECEC"/>
<path d="M708.45 750C705.9 750 703.65 751.052 702 753.006C700.35 751.052 698.1 750 695.55 750C690.9 750 687 753.908 687 758.566C687 758.867 687 759.168 687 759.468C687.6 766.532 695.1 772.393 699.45 775.249C700.2 775.699 701.1 776 702 776C702.9 776 703.8 775.699 704.55 775.249C708.9 772.393 716.4 766.532 717 759.618C717 759.318 717 759.017 717 758.717C717 753.908 713.1 750 708.45 750ZM714 759.168C713.55 765.179 706.05 770.59 702.9 772.543C702.3 772.844 701.7 772.844 701.1 772.543C697.95 770.439 690.6 765.029 690 759.017C690 759.017 690 758.717 690 758.566C690 755.561 692.55 753.006 695.55 753.006C697.8 753.006 699.75 754.358 700.65 756.312C700.8 756.913 701.4 757.214 702 757.214C702.6 757.214 703.2 756.913 703.35 756.312C704.25 754.358 706.2 753.006 708.45 753.006C711.45 753.006 714 755.561 714 758.566C714 758.717 714 759.017 714 759.168Z" fill="#ECECEC"/>
<rect x="504.5" y="729.5" width="67" height="67" rx="11.5" fill="#F9FBFF"/>
<rect x="504.5" y="729.5" width="67" height="67" rx="11.5" stroke="#ECECEC"/>
<path d="M531.665 777C530.966 777 530.266 776.72 529.567 776.3C528.448 775.46 527.748 774.06 528.028 772.66L528.867 767.2L525.09 763.28C524.111 762.3 523.691 760.76 524.251 759.36C524.67 757.96 525.79 757.12 527.189 756.84L532.505 756L534.883 751.1C535.443 749.84 536.702 749 538.101 749C539.5 749 540.759 749.84 541.458 751.1L543.697 756L548.873 756.84C550.272 756.98 551.391 757.96 551.811 759.36C552.231 760.76 551.951 762.16 550.972 763.28L547.194 767.2L548.034 772.66C548.314 774.06 547.754 775.6 546.495 776.3C545.376 777.14 543.977 777.14 542.718 776.58L538.101 773.92L533.484 776.44C532.925 776.86 532.365 777 531.665 777ZM538.101 751.8C537.961 751.8 537.541 751.8 537.401 752.36L534.743 757.96C534.463 758.38 534.044 758.66 533.624 758.66L527.608 759.64C527.189 759.64 527.049 760.06 526.909 760.2C526.909 760.34 526.769 760.76 527.189 761.18L531.525 765.52C531.805 765.8 531.945 766.22 531.945 766.78L530.966 772.94C530.826 773.5 531.246 773.78 531.386 773.92C531.525 774.06 531.805 774.2 532.225 773.92L537.541 770.98C537.961 770.7 538.521 770.7 538.94 770.98L544.256 773.92C544.676 774.06 544.956 773.92 545.096 773.92C545.236 773.78 545.516 773.5 545.516 772.94L544.536 766.78C544.396 766.36 544.536 765.94 544.956 765.52L549.293 761.18C549.433 760.9 549.293 760.34 549.293 760.2C549.293 760.06 549.013 759.64 548.593 759.64L542.578 758.8C542.158 758.8 541.738 758.38 541.458 757.96L538.8 752.36C538.66 751.8 538.241 751.8 538.101 751.8Z" fill="#ECECEC"/>
<rect x="512.5" y="309.5" width="67" height="67" rx="11.5" fill="#F9FBFF"/>
<rect x="512.5" y="309.5" width="67" height="67" rx="11.5" stroke="#ECECEC"/>
<path d="M539.355 331H534.409C531.473 331 529 333.25 529 336.1V341.2C529 344.05 531.473 346.3 534.409 346.3H537.964C538.891 346.3 539.509 345.7 539.509 344.8C539.509 343.9 538.891 343.3 537.964 343.3H534.409C533.173 343.3 532.091 342.4 532.091 341.2V336.1C532.091 334.9 533.173 334 534.409 334H539.355C540.591 334 541.673 334.9 541.673 336.1V348.55C541.673 350.5 540.127 352 538.118 352H535.645C534.718 352 534.1 352.6 534.1 353.5C534.1 354.4 534.718 355 535.645 355H538.118C541.827 355 544.764 352.15 544.764 348.55V336.1C544.764 333.25 542.291 331 539.355 331Z" fill="#ECECEC"/>
<path d="M557.591 331H552.645C549.709 331 547.236 333.25 547.236 336.1V341.2C547.236 344.05 549.709 346.3 552.645 346.3H556.2C557.127 346.3 557.745 345.7 557.745 344.8C557.745 343.9 557.127 343.3 556.2 343.3H552.645C551.409 343.3 550.327 342.4 550.327 341.2V336.1C550.327 334.9 551.409 334 552.645 334H557.591C558.827 334 559.909 334.9 559.909 336.1V348.55C559.909 350.5 558.364 352 556.355 352H553.882C552.955 352 552.336 352.6 552.336 353.5C552.336 354.4 552.955 355 553.882 355H556.355C560.064 355 563 352.15 563 348.55V336.1C563 333.25 560.527 331 557.591 331Z" fill="#ECECEC"/>
<rect x="234.5" y="29.5" width="67" height="67" rx="11.5" fill="#F9FBFF"/>
<rect x="234.5" y="29.5" width="67" height="67" rx="11.5" stroke="#ECECEC"/>
<path d="M283.196 63C283.196 59.9804 281.549 57.2353 279.078 55.8627C279.078 55.7255 279.078 55.451 279.078 55.1765C279.078 51.7451 276.333 49 272.902 49C270.98 49 269.196 49.9608 268.098 51.3333C267 49.9608 265.216 49 263.294 49C259.863 49 257.118 51.7451 257.118 55.1765C257.118 55.451 257.118 55.5882 257.118 55.8627C254.647 57.2353 253 59.9804 253 63C253 66.0196 254.647 68.7647 257.118 70.1373C257.118 70.4118 257.118 70.549 257.118 70.8235C257.118 74.2549 259.863 77 263.294 77C265.216 77 267 76.0392 268.098 74.6667C269.196 76.0392 270.98 77 272.902 77C276.333 77 279.078 74.2549 279.078 70.8235C279.078 70.549 279.078 70.4118 279.078 70.1373C281.549 68.6275 283.196 66.0196 283.196 63ZM277.02 68.0784C276.333 68.3529 276.059 69.0392 276.196 69.7255C276.333 70 276.333 70.4118 276.333 70.6863C276.333 72.6078 274.824 74.1176 272.902 74.1176C271.118 74.1176 269.608 72.7451 269.471 70.8235C269.471 70.6863 269.471 70.6863 269.333 70.549V70.4118C269.333 70.2745 269.196 70.1373 269.196 70.1373C269.196 70.1373 269.196 70 269.059 70C268.922 69.8627 268.922 69.8627 268.784 69.7255C268.784 69.7255 268.647 69.7255 268.647 69.5882C268.51 69.5882 268.373 69.5882 268.373 69.451H268.235H268.098C267.961 69.451 267.961 69.451 267.824 69.5882C267.686 69.5882 267.686 69.7255 267.549 69.7255C267.412 69.7255 267.412 69.8627 267.275 69.8627L267.137 70C267.137 70.1373 267 70.1373 267 70.2745V70.4118C267 70.549 266.863 70.549 266.863 70.6863C266.725 72.4706 265.216 73.9804 263.431 73.9804C261.51 73.9804 260 72.4706 260 70.549C260 70.1373 260 69.8627 260.137 69.5882C260.412 68.902 260 68.2157 259.314 67.9412C257.118 67.2549 255.745 65.1961 255.745 63C255.745 60.8039 257.118 58.7451 259.176 57.9216C259.863 57.6471 260.275 56.8235 260 56.1373C259.863 55.8627 259.863 55.5882 259.863 55.1765C259.863 53.2549 261.373 51.7451 263.294 51.7451C265.216 51.7451 266.725 53.2549 266.725 55.1765V66.4314C266.725 67.2549 267.275 67.8039 268.098 67.8039C268.922 67.8039 269.471 67.2549 269.471 66.4314V55.1765C269.471 53.2549 270.98 51.7451 272.902 51.7451C274.824 51.7451 276.333 53.2549 276.333 55.1765C276.333 55.5882 276.333 55.8627 276.196 56.1373C275.922 56.8235 276.333 57.5098 277.02 57.7843C279.078 58.7451 280.451 60.6667 280.451 63C280.451 65.1961 279.078 67.2549 277.02 68.0784Z" fill="#ECECEC"/>
<rect x="355.5" y="29.5" width="67" height="67" rx="11.5" fill="#F9FBFF"/>
<rect x="355.5" y="29.5" width="67" height="67" rx="11.5" stroke="#ECECEC"/>
<path d="M402.227 65.1636H398.918V60.8364H402.227C402.991 60.8364 403.5 60.3273 403.5 59.5636C403.5 58.8 402.991 58.2909 402.227 58.2909H398.918V57.2727C398.918 55.2364 397.264 53.7091 395.355 53.7091H394.336V50.2727C394.336 49.5091 393.827 49 393.064 49C392.3 49 391.791 49.5091 391.791 50.2727V53.5818H387.336V50.2727C387.336 49.5091 386.827 49 386.064 49C385.3 49 384.791 49.5091 384.791 50.2727V53.5818H383.773C381.736 53.5818 380.209 55.2364 380.209 57.1455V58.1636H376.773C376.009 58.1636 375.5 58.6727 375.5 59.4364C375.5 60.2 376.009 60.7091 376.773 60.7091H380.082V65.1636H376.773C376.009 65.1636 375.5 65.6727 375.5 66.4364C375.5 67.2 376.009 67.7091 376.773 67.7091H380.082V68.7273C380.082 70.7636 381.736 72.2909 383.645 72.2909H384.664V75.7273C384.664 76.4909 385.173 77 385.936 77C386.7 77 387.209 76.4909 387.209 75.7273V72.4182H391.664V75.7273C391.664 76.4909 392.173 77 392.936 77C393.7 77 394.209 76.4909 394.209 75.7273V72.4182H395.227C397.264 72.4182 398.791 70.7636 398.791 68.8545V67.8364H402.227C402.991 67.8364 403.5 67.3273 403.5 66.5636C403.5 65.8 402.991 65.1636 402.227 65.1636ZM396.373 68.7273C396.373 69.3636 395.864 69.7455 395.355 69.7455H383.773C383.136 69.7455 382.755 69.2364 382.755 68.7273V57.2727C382.627 56.6364 383.136 56.1273 383.773 56.1273H395.355C395.991 56.1273 396.373 56.6364 396.373 57.1455V68.7273Z" fill="#ECECEC"/>
<rect x="14.5" y="297.5" width="67" height="67" rx="11.5" fill="#F9FBFF"/>
<rect x="14.5" y="297.5" width="67" height="67" rx="11.5" stroke="#ECECEC"/>
<path d="M43.9273 328.2C44.6909 328.2 45.2 327.691 45.2 326.927C45.2 325.4 46.4727 324.127 48 324.127C49.5273 324.127 50.8 325.4 50.8 326.927C50.8 327.691 51.3091 328.2 52.0727 328.2C52.8364 328.2 53.3455 327.691 53.3455 326.927C53.3455 324 50.9273 321.582 48 321.582C45.0727 321.582 42.6545 324 42.6545 326.927C42.6545 327.564 43.2909 328.2 43.9273 328.2Z" fill="#ECECEC"/>
<path d="M60.7273 329.727H35.2727C34.5091 329.727 34 330.236 34 331C34 331.764 34.5091 332.273 35.2727 332.273H41.7636C41 333.036 40.3636 333.927 39.9818 334.945C39.6 335.964 39.7273 337.109 40.2364 338C40.8727 338.891 41.8909 339.527 43.0364 339.527H52.7091C53.8545 339.527 54.8727 339.018 55.5091 338C56.1455 337.109 56.2727 335.964 55.7636 334.945C55.3818 333.927 54.7455 333.036 53.9818 332.273H60.7273C61.4909 332.273 62 331.764 62 331C62 330.236 61.4909 329.727 60.7273 329.727ZM53.6 335.964C53.7273 336.218 53.6 336.473 53.4727 336.6C53.3455 336.855 53.0909 336.982 52.7091 336.982H43.1636C42.9091 336.982 42.6545 336.855 42.4 336.6C42.2727 336.473 42.1455 336.218 42.2727 335.964C43.0364 334.055 44.8182 332.655 46.8545 332.273H48.8909C51.0545 332.655 52.8364 334.055 53.6 335.964Z" fill="#ECECEC"/>
<path d="M60.7273 335.455C59.9636 335.455 59.4545 335.964 59.4545 336.727V339.018C59.4545 340.927 57.9273 342.327 56.1455 342.327H53.8545C53.0909 342.327 52.5818 342.836 52.5818 343.6C52.5818 344.364 53.0909 344.873 53.8545 344.873H56.1455C59.4545 344.873 62 342.2 62 339.018V336.727C62 336.091 61.4909 335.455 60.7273 335.455Z" fill="#ECECEC"/>
<path d="M42.2727 342.455H39.8545C38.0727 342.455 36.5455 340.927 36.5455 339.145V336.855C36.5455 336.091 36.0364 335.582 35.2727 335.582C34.5091 335.582 34 336.091 34 336.855V339.145C34 342.327 36.6727 345 39.8545 345H42.1455C42.9091 345 43.4182 344.491 43.4182 343.727C43.4182 342.964 42.9091 342.455 42.2727 342.455Z" fill="#ECECEC"/>
<path d="M35.2727 326.545C36.0364 326.545 36.5455 326.036 36.5455 325.273V322.855C36.5455 321.073 38.0727 319.545 39.8545 319.545H42.1455C42.9091 319.545 43.4182 319.036 43.4182 318.273C43.4182 317.509 42.9091 317 42.2727 317H39.8545C36.6727 317 34 319.673 34 322.855V325.145C34 325.909 34.5091 326.545 35.2727 326.545Z" fill="#ECECEC"/>
<path d="M56.1455 317H53.8545C53.0909 317 52.5818 317.509 52.5818 318.273C52.5818 319.036 53.0909 319.545 53.8545 319.545H56.1455C57.9273 319.545 59.4545 321.073 59.4545 322.855V325.145C59.4545 325.909 59.9636 326.418 60.7273 326.418C61.4909 326.418 62 325.909 62 325.145V322.855C62 319.673 59.3273 317 56.1455 317Z" fill="#ECECEC"/>
<path d="M462 344L512 344" stroke="#ECECEC"/>
<path d="M578 487L657 487" stroke="#ECECEC"/>
<path d="M539 497L539 579" stroke="#ECECEC"/>
<path d="M556 496.5L556 543.93C556 552.767 563.163 559.93 572 559.93H645C653.837 559.93 661 567.094 661 575.93V579" stroke="#ECECEC"/>
<path d="M683 230V241.994C683 250.831 675.837 257.994 667 257.994H619C610.163 257.994 603 265.158 603 273.994V444C603 452.837 595.837 460 587 460H578.5" stroke="#ECECEC"/>
<path d="M579 475L639.096 475C645.178 475 649.367 469.802 649.367 462.256L649.367 364" stroke="#ECECEC"/>
<path d="M462 211L512 211" stroke="#ECECEC"/>
<path d="M310 297L310 210.5C310 205.529 305.971 201.5 301 201.5V201.5" stroke="#ECECEC"/>
<path d="M324 297L324 295.499C324.001 286.663 331.164 279.5 340 279.5L574.999 279.5C583.836 279.5 590.999 286.663 590.999 295.5L590.999 439.001C590.999 445.628 585.627 451 579 451V451" stroke="#ECECEC"/>
<path d="M181 297L181 214C181 205.163 173.837 198 165 198L158 198" stroke="#ECECEC"/>
<path d="M120 524L120 579" stroke="#ECECEC"/>
<path d="M257 650L257 729" stroke="#ECECEC"/>
<path d="M376 647L376 729" stroke="#ECECEC"/>
<path d="M388 646.5L388 708.416C388 715.142 393.582 719.925 401.433 719.925L534.593 719.925C541.26 719.925 546 723.986 546 729.698V729.698" stroke="#ECECEC"/>
<path d="M409 614L475.5 614C484.337 614 491.5 621.163 491.5 630L491.5 677.5C491.5 686.337 498.664 693.5 507.5 693.5L700 693.5C708.837 693.5 716 700.663 716 709.5L716 729" stroke="#ECECEC"/>
<path d="M238 650L238 693.676C238 702.513 230.837 709.676 222 709.676L167 709.676C158.163 709.676 151 716.84 151 725.676L151 728" stroke="#ECECEC"/>
<path d="M120 430V349C120 340.163 112.837 333 104 333H82" stroke="#ECECEC"/>
<path d="M263 164L263 97" stroke="#ECECEC"/>
<path d="M391 97V97C391 103.627 385.627 109 379 109H293C284.163 109 277 116.163 277 125V164" stroke="#ECECEC"/>
<path d="M157 65H199C207.837 65 215 72.1635 215 81V297" stroke="#ECECEC"/>
<path d="M462.001 197.499L477.5 197.499C486.336 197.499 493.5 190.336 493.5 181.499L493.501 97" stroke="#ECECEC"/>
<path d="M394 344H344" stroke="#ECECEC"/>
<path d="M276 344H233" stroke="#ECECEC"/>
<path d="M276 364H271.837C263.001 364 255.837 371.163 255.837 380V394.5C255.837 403.337 248.674 410.5 239.837 410.5H168C159.163 410.5 152 417.663 152 426.5V430" stroke="#ECECEC"/>
<path d="M296 391V430" stroke="url(#paint8_linear_493_113405)" stroke-width="2"/>
<path d="M344 356L360 356C368.836 356 376 363.163 376 372L376 579" stroke="#ECECEC"/>
<path d="M344 368V368C352.837 368 360 375.163 360 384V544.551C360 553.388 352.837 560.551 344 560.551H274C265.163 560.551 258 567.715 258 576.551V582" stroke="#ECECEC"/>
<path d="M428 309L428 237" stroke="#ECECEC"/>
<path d="M428 377L428 429" stroke="#ECECEC"/>
<rect x="213.5" y="582.5" width="67" height="67" rx="11.5" fill="#F9FBFF"/>
<rect x="213.5" y="582.5" width="67" height="67" rx="11.5" stroke="#ECECEC"/>
<path d="M236.02 630C235.32 630 234.76 629.72 234.2 629.3C233.5 628.6 233.36 627.62 233.64 626.78L235.04 622.44C234.06 620.48 233.5 618.24 233.5 616C233.5 608.3 239.8 602 247.5 602C255.2 602 261.5 608.3 261.5 616C261.5 623.7 255.2 630 247.5 630C245.26 630 243.02 629.44 241.06 628.46L236.72 629.86C236.58 630 236.3 630 236.02 630ZM241.9 625.66C243.58 626.64 245.54 627.2 247.5 627.2C253.66 627.2 258.7 622.16 258.7 616C258.7 609.84 253.66 604.8 247.5 604.8C241.34 604.8 236.3 609.84 236.3 616C236.3 617.96 236.86 619.92 237.84 621.6C237.98 621.88 238.12 622.3 237.98 622.72L236.58 627.06L240.92 625.66C240.92 625.66 241.763 625.592 241.9 625.66Z" fill="#ECECEC"/>
<path d="M247.5 618.24C248.737 618.24 249.74 617.237 249.74 616C249.74 614.763 248.737 613.76 247.5 613.76C246.263 613.76 245.26 614.763 245.26 616C245.26 617.237 246.263 618.24 247.5 618.24Z" fill="#ECECEC"/>
<path d="M240.64 618.24C241.877 618.24 242.88 617.237 242.88 616C242.88 614.763 241.877 613.76 240.64 613.76C239.403 613.76 238.4 614.763 238.4 616C238.4 617.237 239.403 618.24 240.64 618.24Z" fill="#ECECEC"/>
<path d="M254.36 618.24C255.597 618.24 256.6 617.237 256.6 616C256.6 614.763 255.597 613.76 254.36 613.76C253.123 613.76 252.12 614.763 252.12 616C252.12 617.237 253.123 618.24 254.36 618.24Z" fill="#ECECEC"/>
<rect x="341.5" y="579.5" width="67" height="67" rx="11.5" fill="#F9FBFF"/>
<rect x="341.5" y="579.5" width="67" height="67" rx="11.5" stroke="#ECECEC"/>
<path d="M389.061 607.679C386.853 604.703 384.254 601.984 381.266 599.914C379.318 598.49 376.59 598.749 374.771 600.561L370.354 604.961C368.665 606.644 368.405 609.362 369.704 611.303C369.834 611.433 369.964 611.692 370.224 611.821L362.039 619.975C361.39 620.622 361 621.528 361 622.564V626.706C361 627.094 361.13 627.353 361.39 627.612C361.65 627.871 361.909 628 362.299 628H366.456C367.496 628 368.405 627.612 369.055 626.965L377.239 618.81C377.499 618.94 377.629 619.069 377.889 619.199C379.837 620.493 382.566 620.234 384.254 618.552L388.671 614.151C390.23 612.339 390.49 609.621 389.061 607.679ZM386.593 612.339L382.176 616.74C381.266 617.646 379.967 617.775 379.058 617.128C378.538 616.74 378.149 616.481 377.629 616.092C377.109 615.704 376.33 615.704 375.94 616.222L366.976 625.153C366.716 625.411 366.456 625.541 366.197 625.541H363.338V622.693C363.338 622.434 363.468 622.176 363.728 621.917L372.692 612.986C373.212 612.468 373.212 611.821 372.822 611.303C372.562 610.786 372.173 610.268 371.913 609.75C371.263 608.844 371.393 607.55 372.302 606.773L376.719 602.373C377.109 601.855 377.759 601.596 378.408 601.596C378.928 601.596 379.318 601.726 379.707 601.984C382.566 603.926 384.904 606.385 386.853 609.103C387.632 610.139 387.502 611.433 386.593 612.339Z" fill="#ECECEC"/>
<path d="M380.148 606.909C379.593 606.909 379.177 607.192 378.761 607.474C377.928 608.321 377.928 609.593 378.761 610.299C379.177 610.722 379.593 610.864 380.148 610.864C380.703 610.864 381.12 610.722 381.536 610.299C381.952 609.875 382.091 609.451 382.091 608.886C382.091 608.321 381.952 607.898 381.536 607.474C381.258 607.05 380.703 606.909 380.148 606.909Z" fill="#ECECEC"/>
<rect x="165.5" y="297.5" width="67" height="67" rx="11.5" fill="#F9FBFF"/>
<rect x="165.5" y="297.5" width="67" height="67" rx="11.5" stroke="#ECECEC"/>
<path d="M211.854 318.617C210.03 316.793 206.943 316.512 203.295 317.775C202.032 318.196 200.77 318.898 199.507 319.599C194.456 316.652 189.686 316.091 187.16 318.617C184.495 321.143 185.196 325.914 188.142 330.967C185.056 336.159 184.635 340.93 187.16 343.316C188.142 344.439 189.686 345 191.51 345C193.895 345 196.701 344.018 199.507 342.334C202.313 344.018 205.119 345 207.504 345C209.328 345 210.731 344.439 211.854 343.456C214.379 340.93 213.818 336.159 210.872 331.107C213.958 325.774 214.379 321.003 211.854 318.617ZM204.137 320.441C206.803 319.459 208.767 319.599 209.889 320.582C211.152 321.845 210.872 324.932 209.188 328.3C208.206 327.037 207.224 325.774 205.961 324.511C204.698 323.248 203.436 322.266 202.173 321.283C202.874 321.003 203.576 320.582 204.137 320.441ZM189.125 341.351C187.862 340.088 188.142 337.001 189.826 333.633C190.808 334.896 191.79 336.159 193.053 337.422C194.316 338.685 195.579 339.808 196.841 340.65C193.334 342.474 190.387 342.614 189.125 341.351ZM209.889 341.351C208.627 342.614 205.68 342.334 202.032 340.65C203.295 339.667 204.558 338.545 205.821 337.422C206.382 336.861 206.943 336.299 207.364 335.738C207.925 335.177 207.785 334.335 207.224 333.773C206.662 333.212 205.821 333.352 205.259 333.914C204.839 334.475 204.277 334.896 203.856 335.457C202.453 336.861 200.91 338.124 199.507 339.106C198.104 338.124 196.561 336.861 195.158 335.457C188.984 329.282 187.02 322.687 189.125 320.582C189.546 320.02 190.387 319.74 191.51 319.74C192.913 319.74 194.877 320.301 196.841 321.283C195.579 322.266 194.316 323.388 193.053 324.511C192.492 325.213 191.79 325.914 191.229 326.616C190.668 327.177 190.808 328.019 191.369 328.581C191.931 329.142 192.913 329.002 193.334 328.44C193.895 327.739 194.456 327.177 195.017 326.616C196.42 325.213 197.964 323.95 199.367 322.967C200.77 323.95 202.313 325.213 203.856 326.616C210.03 332.651 211.994 339.246 209.889 341.351Z" fill="#ECECEC"/>
<path d="M199.5 333.24C200.737 333.24 201.74 332.237 201.74 331C201.74 329.763 200.737 328.76 199.5 328.76C198.263 328.76 197.26 329.763 197.26 331C197.26 332.237 198.263 333.24 199.5 333.24Z" fill="#ECECEC"/>
<rect x="511.5" y="429.5" width="67" height="67" rx="11.5" fill="#F9FBFF"/>
<rect x="511.5" y="429.5" width="67" height="67" rx="11.5" stroke="#ECECEC"/>
<path d="M539.372 460.484C538.804 459.924 537.952 459.924 537.384 460.484C536.816 461.044 536.816 461.884 537.384 462.443L543.206 468.602C543.49 468.882 543.916 469.022 544.2 469.022C544.626 469.022 545.052 468.882 545.194 468.462L559.109 451.246C559.535 450.686 559.535 449.706 558.825 449.287C558.399 448.867 557.547 448.867 556.979 449.566L554.139 453.066C551.583 450.546 547.892 449.007 544.2 449.007C536.39 449.007 530 455.305 530 463.003C530 470.701 536.39 477 544.2 477C552.009 477 558.399 470.701 558.399 463.003C558.399 461.744 558.257 460.484 557.831 459.224C557.547 458.524 556.837 458.104 556.127 458.244C555.417 458.384 554.991 459.224 555.133 459.924C555.417 460.904 555.559 462.024 555.559 463.003C555.559 469.162 550.447 474.201 544.2 474.201C537.952 474.201 532.84 469.162 532.84 463.003C532.84 456.845 537.952 451.806 544.2 451.806C547.324 451.806 550.164 453.066 552.435 455.305L544.2 465.523L539.372 460.484Z" fill="#ECECEC"/>
<rect x="234.5" y="164.5" width="67" height="67" rx="11.5" fill="#F9FBFF"/>
<rect x="234.5" y="164.5" width="67" height="67" rx="11.5" stroke="#ECECEC"/>
<path d="M278.732 184.433C278.155 183.856 277.289 183.856 276.713 184.433C276.136 185.01 276.136 185.876 276.713 186.453C279.309 189.05 280.751 192.512 280.751 196.264C280.751 200.015 279.309 203.478 276.713 206.075C274.116 208.672 270.655 210.114 266.904 210.114C263.731 210.114 260.558 208.96 258.106 206.94L259.981 204.92C262 206.507 264.452 207.229 266.76 207.229C269.645 207.229 272.385 206.219 274.549 204.055C278.876 199.726 278.876 192.657 274.549 188.473C270.222 184.144 263.154 184.144 258.971 188.473C255.077 192.368 254.644 198.572 257.962 202.9L254.933 206.075C254.356 206.652 254.356 207.517 254.933 208.095C258.106 211.269 262.289 213 266.76 213C271.232 213 275.414 211.269 278.588 208.095C281.761 204.92 283.492 200.736 283.492 196.264C283.636 191.791 281.905 187.607 278.732 184.433ZM261.135 190.493C262.722 188.905 264.885 188.04 266.904 188.04C269.068 188.04 271.087 188.905 272.674 190.493C275.847 193.667 275.847 198.861 272.674 202.035C269.501 205.209 264.308 205.209 261.135 202.035C257.962 198.861 257.962 193.667 261.135 190.493Z" fill="#ECECEC"/>
<defs>
<filter id="filter0_d_493_113405" x="236" y="422" width="119" height="130" filterUnits="userSpaceOnUse" color-interpolation-filters="sRGB">
<feFlood flood-opacity="0" result="BackgroundImageFix"/>
<feColorMatrix in="SourceAlpha" type="matrix" values="0 0 0 0 0 0 0 0 0 0 0 0 0 0 0 0 0 0 127 0" result="hardAlpha"/>
<feOffset dx="1" dy="2"/>
<feGaussianBlur stdDeviation="5"/>
<feComposite in2="hardAlpha" operator="out"/>
<feColorMatrix type="matrix" values="0 0 0 0 0.00780001 0 0 0 0 0.045344 0 0 0 0 0.0800001 0 0 0 0.04 0"/>
<feBlend mode="normal" in2="BackgroundImageFix" result="effect1_dropShadow_493_113405"/>
<feBlend mode="normal" in="SourceGraphic" in2="effect1_dropShadow_493_113405" result="shape"/>
</filter>
<filter id="filter1_d_493_113405" x="267" y="289" width="88" height="114" filterUnits="userSpaceOnUse" color-interpolation-filters="sRGB">
<feFlood flood-opacity="0" result="BackgroundImageFix"/>
<feColorMatrix in="SourceAlpha" type="matrix" values="0 0 0 0 0 0 0 0 0 0 0 0 0 0 0 0 0 0 127 0" result="hardAlpha"/>
<feOffset dx="1" dy="2"/>
<feGaussianBlur stdDeviation="5"/>
<feComposite in2="hardAlpha" operator="out"/>
<feColorMatrix type="matrix" values="0 0 0 0 0.00780001 0 0 0 0 0.045344 0 0 0 0 0.0800001 0 0 0 0.04 0"/>
<feBlend mode="normal" in2="BackgroundImageFix" result="effect1_dropShadow_493_113405"/>
<feBlend mode="normal" in="SourceGraphic" in2="effect1_dropShadow_493_113405" result="shape"/>
</filter>
<radialGradient id="paint0_radial_493_113405" cx="0" cy="0" r="1" gradientUnits="userSpaceOnUse" gradientTransform="translate(294.727 468) rotate(98.8578) scale(17.7112 16.181)">
<stop offset="0.055" stop-color="#7A73FF"/>
<stop offset="0.65" stop-color="#67DDFA"/>
<stop offset="1" stop-color="#4AFCF1"/>
</radialGradient>
<radialGradient id="paint1_radial_493_113405" cx="0" cy="0" r="1" gradientUnits="userSpaceOnUse" gradientTransform="translate(294.727 468) rotate(98.8578) scale(17.7112 16.181)">
<stop offset="0.055" stop-color="#7A73FF"/>
<stop offset="0.65" stop-color="#67DDFA"/>
<stop offset="1" stop-color="#4AFCF1"/>
</radialGradient>
<radialGradient id="paint2_radial_493_113405" cx="0" cy="0" r="1" gradientUnits="userSpaceOnUse" gradientTransform="translate(309.6 335) rotate(98.7708) scale(17.7071 16.0233)">
<stop offset="0.055" stop-color="#7A73FF"/>
<stop offset="0.65" stop-color="#67DDFA"/>
<stop offset="1" stop-color="#4AFCF1"/>
</radialGradient>
<radialGradient id="paint3_radial_493_113405" cx="0" cy="0" r="1" gradientUnits="userSpaceOnUse" gradientTransform="translate(309.6 335) rotate(98.7708) scale(17.7071 16.0233)">
<stop offset="0.055" stop-color="#7A73FF"/>
<stop offset="0.65" stop-color="#67DDFA"/>
<stop offset="1" stop-color="#4AFCF1"/>
</radialGradient>
<radialGradient id="paint4_radial_493_113405" cx="0" cy="0" r="1" gradientUnits="userSpaceOnUse" gradientTransform="translate(309.6 335) rotate(98.7708) scale(17.7071 16.0233)">
<stop offset="0.055" stop-color="#7A73FF"/>
<stop offset="0.65" stop-color="#67DDFA"/>
<stop offset="1" stop-color="#4AFCF1"/>
</radialGradient>
<radialGradient id="paint5_radial_493_113405" cx="0" cy="0" r="1" gradientUnits="userSpaceOnUse" gradientTransform="translate(309.6 335) rotate(98.7708) scale(17.7071 16.0233)">
<stop offset="0.055" stop-color="#7A73FF"/>
<stop offset="0.65" stop-color="#67DDFA"/>
<stop offset="1" stop-color="#4AFCF1"/>
</radialGradient>
<radialGradient id="paint6_radial_493_113405" cx="0" cy="0" r="1" gradientUnits="userSpaceOnUse" gradientTransform="translate(309.6 335) rotate(98.7708) scale(17.7071 16.0233)">
<stop offset="0.055" stop-color="#7A73FF"/>
<stop offset="0.65" stop-color="#67DDFA"/>
<stop offset="1" stop-color="#4AFCF1"/>
</radialGradient>
<radialGradient id="paint7_radial_493_113405" cx="0" cy="0" r="1" gradientUnits="userSpaceOnUse" gradientTransform="translate(309.6 335) rotate(98.7708) scale(17.7071 16.0233)">
<stop offset="0.055" stop-color="#7A73FF"/>
<stop offset="0.65" stop-color="#67DDFA"/>
<stop offset="1" stop-color="#4AFCF1"/>
</radialGradient>
<linearGradient id="paint8_linear_493_113405" x1="297" y1="451.937" x2="290.241" y2="451.435" gradientUnits="userSpaceOnUse">
<stop offset="0.338542" stop-color="#7A73FF"/>
<stop offset="0.734375" stop-color="#75CDFF"/>
<stop offset="1" stop-color="#4AFCF1"/>
</linearGradient>
</defs>
</svg>
