<svg width="788" height="879" viewBox="0 0 788 879" fill="none" xmlns="http://www.w3.org/2000/svg">
<rect x="394.5" y="314.5" width="67" height="67" rx="11.5" fill="#F9FBFF"/>
<rect x="394.5" y="314.5" width="67" height="67" rx="11.5" stroke="#ECECEC"/>
<path fill-rule="evenodd" clip-rule="evenodd" d="M428 364C436.837 364 444 356.837 444 348C444 342.866 441.582 338.297 437.823 335.37L435.181 333.698C433.022 332.612 430.582 332 428 332C419.163 332 412 339.163 412 348C412 356.837 419.163 364 428 364ZM435.181 333.698V341.292C433.317 339.202 430.622 337.889 427.625 337.889C421.999 337.889 417.437 342.517 417.437 348.226C417.437 353.935 421.999 358.563 427.625 358.563C430.622 358.563 433.317 357.25 435.181 355.16L435.107 357.311C435.097 357.614 435.339 357.864 435.642 357.864H437.358C437.654 357.864 437.893 357.624 437.892 357.328L437.823 335.37L435.181 333.698ZM435.606 348.226C435.606 352.525 432.166 356.01 427.922 356.01C423.679 356.01 420.239 352.525 420.239 348.226C420.239 343.927 423.679 340.441 427.922 340.441C432.166 340.441 435.606 343.927 435.606 348.226Z" fill="#ECECEC"/>
<rect x="394.5" y="174.5" width="67" height="67" rx="11.5" fill="#F9FBFF"/>
<rect x="394.5" y="174.5" width="67" height="67" rx="11.5" stroke="#ECECEC"/>
<path d="M434.409 214.045C433.864 214.045 433.455 213.773 433.182 213.364L431.546 210.5C430.864 209 429.501 207.636 428.001 206.818L425.137 205.182C424.728 205.045 424.455 204.5 424.455 204.091C424.455 203.545 424.728 203.136 425.137 202.864L428.001 201.227C429.501 200.409 430.864 199.182 431.682 197.545L433.319 194.682C433.455 194.273 434 194 434.409 194C434.955 194 435.364 194.273 435.637 194.682L437.273 197.545C438.091 199.045 439.455 200.409 440.955 201.227L443.818 202.864C444.227 203.136 444.5 203.545 444.5 204.091C444.5 204.636 444.227 205.045 443.818 205.318L440.955 206.955C439.455 207.773 438.091 209.136 437.273 210.636L435.637 213.5C435.364 213.773 434.955 214.045 434.409 214.045ZM428.682 204.091L429.364 204.5C431.41 205.591 433.046 207.227 434.137 209.273L434.546 209.955L434.955 209.273C436.046 207.227 437.682 205.591 439.727 204.5L440.409 204.091L439.727 203.682C437.682 202.591 436.046 200.955 434.955 198.909L434.546 198.227L434.137 198.909C433.046 200.955 431.41 202.591 429.364 203.682L428.682 204.091Z" fill="#ECECEC"/>
<path d="M422 224C421.454 224 421.045 223.727 420.773 223.318L419.954 221.682C419.273 220.318 418.182 219.227 416.818 218.545L415.182 217.727C414.773 217.455 414.5 216.909 414.5 216.5C414.5 215.955 414.773 215.545 415.182 215.273L416.818 214.455C418.182 213.773 419.273 212.682 419.954 211.318L420.773 209.682C421.318 208.864 422.682 208.864 423.227 209.682L424.045 211.318C424.727 212.682 425.818 213.773 427.181 214.455L428.818 215.273C429.227 215.545 429.499 215.955 429.499 216.5C429.499 217.045 429.227 217.455 428.818 217.727L427.318 218.545C425.954 219.227 424.863 220.318 424.181 221.682L423.363 223.318C422.954 223.727 422.545 224 422 224ZM418.727 216.5C420.091 217.318 421.318 218.545 422.136 219.909C422.954 218.545 424.181 217.318 425.545 216.5C424.045 215.545 422.954 214.455 422 213.091C421.182 214.455 420.091 215.545 418.727 216.5Z" fill="#ECECEC"/>
<rect x="165.5" y="302.5" width="67" height="67" rx="11.5" fill="#F9FBFF"/>
<rect x="165.5" y="302.5" width="67" height="67" rx="11.5" stroke="#ECECEC"/>
<path d="M211.854 323.617C210.03 321.793 206.943 321.512 203.295 322.775C202.032 323.196 200.77 323.898 199.507 324.599C194.456 321.652 189.686 321.091 187.16 323.617C184.495 326.143 185.196 330.914 188.142 335.967C185.056 341.159 184.635 345.93 187.16 348.316C188.142 349.439 189.686 350 191.51 350C193.895 350 196.701 349.018 199.507 347.334C202.313 349.018 205.119 350 207.504 350C209.328 350 210.731 349.439 211.854 348.456C214.379 345.93 213.818 341.159 210.872 336.107C213.958 330.774 214.379 326.003 211.854 323.617ZM204.137 325.441C206.803 324.459 208.767 324.599 209.889 325.582C211.152 326.845 210.872 329.932 209.188 333.3C208.206 332.037 207.224 330.774 205.961 329.511C204.698 328.248 203.436 327.266 202.173 326.283C202.874 326.003 203.576 325.582 204.137 325.441ZM189.125 346.351C187.862 345.088 188.142 342.001 189.826 338.633C190.808 339.896 191.79 341.159 193.053 342.422C194.316 343.685 195.579 344.808 196.841 345.65C193.334 347.474 190.387 347.614 189.125 346.351ZM209.889 346.351C208.627 347.614 205.68 347.334 202.032 345.65C203.295 344.667 204.558 343.545 205.821 342.422C206.382 341.861 206.943 341.299 207.364 340.738C207.925 340.177 207.785 339.335 207.224 338.773C206.662 338.212 205.821 338.352 205.259 338.914C204.839 339.475 204.277 339.896 203.856 340.457C202.453 341.861 200.91 343.124 199.507 344.106C198.104 343.124 196.561 341.861 195.158 340.457C188.984 334.282 187.02 327.687 189.125 325.582C189.546 325.02 190.387 324.74 191.51 324.74C192.913 324.74 194.877 325.301 196.841 326.283C195.579 327.266 194.316 328.388 193.053 329.511C192.492 330.213 191.79 330.914 191.229 331.616C190.668 332.177 190.808 333.019 191.369 333.581C191.931 334.142 192.913 334.002 193.334 333.44C193.895 332.739 194.456 332.177 195.017 331.616C196.42 330.213 197.964 328.95 199.367 327.967C200.77 328.95 202.313 330.213 203.856 331.616C210.03 337.651 211.994 344.246 209.889 346.351Z" fill="#ECECEC"/>
<path d="M199.5 338.24C200.737 338.24 201.74 337.237 201.74 336C201.74 334.763 200.737 333.76 199.5 333.76C198.263 333.76 197.26 334.763 197.26 336C197.26 337.237 198.263 338.24 199.5 338.24Z" fill="#ECECEC"/>
<rect x="102.5" y="435.5" width="67" height="67" rx="11.5" fill="#F9FBFF"/>
<rect x="102.5" y="435.5" width="67" height="67" rx="11.5" stroke="#ECECEC"/>
<path fill-rule="evenodd" clip-rule="evenodd" d="M122.549 461.284C120.292 459.023 121.912 455 125.179 455H145.825C149.092 455 150.712 459.023 148.455 461.284C148.454 461.286 148.453 461.287 148.451 461.288L140.301 469.548V476.769C140.301 477.929 139.738 479.159 138.656 479.83L134.658 482.575L134.641 482.586C133.751 483.179 132.726 483.077 131.989 482.643C131.268 482.217 130.703 481.408 130.703 480.415V469.548L122.549 461.284ZM124.38 458.364C124.231 458.725 124.299 459.075 124.531 459.307L124.539 459.314L133.099 467.99C133.358 468.252 133.503 468.605 133.503 468.973V479.972L137.102 477.501C137.125 477.484 137.15 477.469 137.174 477.454C137.324 477.365 137.501 477.103 137.501 476.769V468.973C137.501 468.605 137.646 468.252 137.905 467.99L146.473 459.307C146.705 459.075 146.773 458.725 146.624 458.364C146.478 458.01 146.187 457.8 145.825 457.8H125.179C124.817 457.8 124.526 458.01 124.38 458.364Z" fill="#ECECEC"/>
<rect x="245.5" y="435.5" width="67" height="67" rx="11.5" fill="#F9FBFF"/>
<rect x="245.5" y="435.5" width="67" height="67" rx="11.5" stroke="#ECECEC"/>
<path fill-rule="evenodd" clip-rule="evenodd" d="M276.916 455.491C278.388 454.836 280.033 454.836 281.505 455.491L281.527 455.502L289.396 459.188C289.406 459.193 289.416 459.197 289.426 459.202C291.189 460.085 292.233 462.025 291.889 464.105C291.234 468.165 289.253 476.169 281.91 482.053L281.896 482.064C280.294 483.312 278.127 483.312 276.524 482.064L276.511 482.053C269.165 476.168 267.185 468.161 266.532 464.102C266.527 464.073 266.523 464.044 266.521 464.015C266.358 462.218 267.158 460.102 269.154 459.187L276.886 455.505C276.896 455.5 276.906 455.496 276.916 455.491ZM277.965 457.811L270.239 461.489L270.219 461.499C269.441 461.853 268.978 462.763 269.052 463.744C269.675 467.577 271.513 474.782 278.095 480.061C278.774 480.586 279.646 480.586 280.326 480.061C286.935 474.761 288.761 467.517 289.376 463.697L289.377 463.691C289.538 462.726 289.066 461.876 288.299 461.485L280.459 457.812C279.654 457.457 278.77 457.457 277.965 457.811Z" fill="#ECECEC"/>
<path fill-rule="evenodd" clip-rule="evenodd" d="M285.08 462.89C285.643 463.311 285.758 464.108 285.337 464.671L279.626 472.308C279.387 472.627 279.011 472.816 278.612 472.818C278.213 472.82 277.836 472.634 277.594 472.316L274.396 468.116C273.97 467.557 274.078 466.759 274.638 466.333C275.197 465.907 275.995 466.015 276.421 466.574L278.598 469.433L283.298 463.147C283.719 462.584 284.517 462.469 285.08 462.89Z" fill="#ECECEC"/>
<rect x="118.5" y="734.5" width="67" height="67" rx="11.5" fill="#F9FBFF"/>
<rect x="118.5" y="734.5" width="67" height="67" rx="11.5" stroke="#ECECEC"/>
<path d="M166.653 764.021C163.705 761.516 158.842 758.421 152.211 758.421C151.474 758.421 150.737 758.421 150.295 758.568C149.411 758.716 148.821 759.453 148.968 760.337C149.116 761.074 149.853 761.663 150.589 761.663C151.032 761.663 151.621 761.516 152.211 761.516C157.958 761.516 162.232 764.168 164.737 766.379C165.179 766.674 165.474 767.263 165.474 768C165.474 768.737 165.179 769.179 164.737 769.621C163.853 770.358 162.821 771.095 161.789 771.684C161.053 772.126 160.905 773.011 161.2 773.747C161.495 774.189 161.937 774.484 162.526 774.484C162.821 774.484 162.968 774.484 163.263 774.337C164.442 773.6 165.621 772.863 166.653 771.979C167.832 770.947 168.421 769.621 168.421 768.147C168.421 766.379 167.832 765.053 166.653 764.021Z" fill="#ECECEC"/>
<path d="M140.716 754.442C140.126 753.853 139.242 753.853 138.653 754.442C138.063 755.032 138.063 755.916 138.653 756.505L142.779 760.632C140.716 761.811 138.947 763.137 137.768 764.021C136.589 765.053 136 766.379 136 768C136 769.621 136.589 770.947 137.768 771.832C140.716 774.337 145.579 777.432 152.211 777.432C154.421 777.432 156.484 777.137 158.547 776.4L163.705 781.558C164 781.853 164.442 782 164.737 782C165.032 782 165.474 781.853 165.768 781.558C166.358 780.968 166.358 780.084 165.768 779.495L140.716 754.442ZM152.211 774.337C146.463 774.337 142.189 771.684 139.684 769.474C139.242 769.179 138.947 768.589 138.947 768C138.947 767.411 139.242 766.821 139.684 766.379C140.863 765.347 142.779 764.021 145.137 762.989L148.968 766.821C148.821 767.116 148.821 767.558 148.821 768C148.821 769.916 150.295 771.389 152.211 771.389C152.653 771.389 152.947 771.242 153.389 771.242L156.189 774.042C154.863 774.189 153.537 774.337 152.211 774.337Z" fill="#ECECEC"/>
<rect x="90.5" y="169.5" width="67" height="67" rx="11.5" fill="#F9FBFF"/>
<rect x="90.5" y="169.5" width="67" height="67" rx="11.5" stroke="#ECECEC"/>
<path d="M128.8 210.14C128.8 209.3 128.24 208.74 127.4 208.74H113.26C112.14 208.74 111.3 207.9 111.3 206.78V199.22C111.3 198.1 112.14 197.26 113.26 197.26H127.4C128.24 197.26 128.8 196.7 128.8 195.86C128.8 195.02 128.24 194.46 127.4 194.46H113.26C110.6 194.46 108.5 196.56 108.5 199.22V206.78C108.5 209.44 110.6 211.54 113.26 211.54H127.4C128.1 211.54 128.8 210.98 128.8 210.14Z" fill="#ECECEC"/>
<path d="M134.54 194.46H133.28V191.8H135.38C136.22 191.8 136.78 191.24 136.78 190.4C136.78 189.56 136.22 189 135.38 189H128.52C127.68 189 127.12 189.56 127.12 190.4C127.12 191.24 127.68 191.8 128.52 191.8H130.62V214.2H128.52C127.68 214.2 127.12 214.76 127.12 215.6C127.12 216.44 127.68 217 128.52 217H135.38C136.22 217 136.78 216.44 136.78 215.6C136.78 214.76 136.22 214.2 135.38 214.2H133.28V211.54H134.54C137.2 211.54 139.3 209.44 139.3 206.78V199.22C139.3 196.56 137.2 194.46 134.54 194.46ZM136.5 206.78C136.5 207.9 135.66 208.74 134.54 208.74H133.28V197.26H134.54C135.66 197.26 136.5 198.1 136.5 199.22V206.78Z" fill="#ECECEC"/>
<rect x="463.5" y="34.5" width="67" height="67" rx="11.5" fill="#F9FBFF"/>
<rect x="463.5" y="34.5" width="67" height="67" rx="11.5" stroke="#ECECEC"/>
<path d="M497 54C489.3 54 483 60.3 483 68C483 75.7 489.3 82 497 82C504.7 82 511 75.7 511 68C511 60.3 504.7 54 497 54ZM497 79.2C490.84 79.2 485.8 74.16 485.8 68C485.8 61.84 490.84 56.8 497 56.8C503.16 56.8 508.2 61.84 508.2 68C508.2 74.16 503.16 79.2 497 79.2Z" fill="#ECECEC"/>
<path d="M504.7 72.76C503.72 71.78 502.6 71.08 501.34 70.52C502.32 69.4 503.02 68 503.02 66.32C503.02 62.96 500.36 60.3 497 60.3C493.64 60.3 490.98 62.96 490.98 66.32C490.98 68 491.68 69.4 492.66 70.52C491.4 71.08 490.28 71.78 489.3 72.76C488.74 73.32 488.74 74.16 489.3 74.72C489.58 75 490 75.14 490.28 75.14C490.7 75.14 490.98 75 491.26 74.72C492.8 73.18 494.76 72.34 497 72.34C499.1 72.34 501.2 73.18 502.74 74.72C503.3 75.28 504.14 75.28 504.7 74.72C505.26 74.16 505.26 73.32 504.7 72.76ZM493.78 66.32C493.78 64.5 495.18 63.1 497 63.1C498.82 63.1 500.22 64.5 500.22 66.32C500.22 68.14 498.82 69.54 497 69.54C495.18 69.54 493.78 68.14 493.78 66.32Z" fill="#ECECEC"/>
<rect x="512.5" y="175.5" width="67" height="67" rx="11.5" fill="#F9FBFF"/>
<rect x="512.5" y="175.5" width="67" height="67" rx="11.5" stroke="#ECECEC"/>
<path d="M558.6 197.8H533.4C532.56 197.8 532 197.24 532 196.4C532 195.56 532.56 195 533.4 195H558.6C559.44 195 560 195.56 560 196.4C560 197.24 559.44 197.8 558.6 197.8Z" fill="#ECECEC"/>
<path d="M558.6 214.6H546C545.16 214.6 544.6 214.04 544.6 213.2C544.6 212.36 545.16 211.8 546 211.8H558.6C559.44 211.8 560 212.36 560 213.2C560 214.04 559.44 214.6 558.6 214.6Z" fill="#ECECEC"/>
<path d="M558.6 206.2H546C545.16 206.2 544.6 205.64 544.6 204.8C544.6 203.96 545.16 203.4 546 203.4H558.6C559.44 203.4 560 203.96 560 204.8C560 205.64 559.44 206.2 558.6 206.2Z" fill="#ECECEC"/>
<path d="M558.6 223H533.4C532.56 223 532 222.44 532 221.6C532 220.76 532.56 220.2 533.4 220.2H558.6C559.44 220.2 560 220.76 560 221.6C560 222.44 559.44 223 558.6 223Z" fill="#ECECEC"/>
<path d="M534.52 216.14C534.1 216.14 533.68 216 533.4 215.86C532.56 215.44 532 214.6 532 213.62V204.38C532 203.4 532.56 202.56 533.4 202.14C534.24 201.72 535.22 201.86 536.06 202.42L542.22 207.04C542.78 207.46 543.2 208.16 543.2 209C543.2 209.84 542.78 210.54 542.22 211.1L536.06 215.72C535.64 216 535.08 216.14 534.52 216.14ZM534.8 204.94V213.06L540.26 209L534.8 204.94Z" fill="#ECECEC"/>
<rect x="656.5" y="434.5" width="67" height="67" rx="11.5" fill="#F9FBFF"/>
<rect x="656.5" y="434.5" width="67" height="67" rx="11.5" stroke="#ECECEC"/>
<path d="M694.014 483H684.851C682.156 483 680 480.818 680 478.091V457.909C680 455.182 682.156 453 684.851 453H694.149C696.844 453 699 455.182 699 457.909V478.227C698.865 480.818 696.709 483 694.014 483ZM684.851 455.727C683.638 455.727 682.695 456.682 682.695 457.909V478.227C682.695 479.318 683.638 480.273 684.851 480.273H694.149C695.362 480.273 696.305 479.318 696.305 478.091V457.909C696.17 456.682 695.227 455.727 694.014 455.727H684.851Z" fill="#ECECEC"/>
<path d="M691.184 460.227H687.681C686.872 460.227 686.333 459.682 686.333 458.864C686.333 458.045 686.872 457.5 687.681 457.5H691.319C692.128 457.5 692.667 458.045 692.667 458.864C692.667 459.682 691.993 460.227 691.184 460.227Z" fill="#ECECEC"/>
<rect x="511.5" y="584.5" width="67" height="67" rx="11.5" fill="#F9FBFF"/>
<rect x="511.5" y="584.5" width="67" height="67" rx="11.5" stroke="#ECECEC"/>
<path fill-rule="evenodd" clip-rule="evenodd" d="M543.758 604.043C550.547 603.477 556.266 608.585 556.409 615.171L556.409 615.199C556.409 617.501 555.688 619.653 554.41 621.5L554.397 621.518L547.937 630.519C547.925 630.536 547.911 630.554 547.898 630.571C546.413 632.429 543.492 632.543 542.066 630.513L535.604 621.51C533.919 619.122 533.034 616.107 533.75 612.916C534.632 608.131 538.804 604.609 543.719 604.047C543.732 604.045 543.745 604.044 543.758 604.043ZM543.989 606.578C540.055 607.036 536.896 609.836 536.249 613.398C536.246 613.416 536.242 613.434 536.238 613.452C535.699 615.827 536.332 618.124 537.681 620.039L544.147 629.047C544.491 629.54 545.35 629.655 545.892 629.003L552.323 620.043C553.318 618.601 553.861 616.958 553.864 615.213C553.746 610.149 549.346 606.142 543.989 606.578Z" fill="#ECECEC"/>
<path fill-rule="evenodd" clip-rule="evenodd" d="M544.955 612.782C543.619 612.782 542.537 613.864 542.537 615.2C542.537 616.536 543.619 617.618 544.955 617.618C546.29 617.618 547.373 616.536 547.373 615.2C547.373 613.864 546.29 612.782 544.955 612.782ZM539.991 615.2C539.991 612.459 542.214 610.236 544.955 610.236C547.696 610.236 549.918 612.459 549.918 615.2C549.918 617.941 547.696 620.164 544.955 620.164C542.214 620.164 539.991 617.941 539.991 615.2Z" fill="#ECECEC"/>
<path fill-rule="evenodd" clip-rule="evenodd" d="M544.955 612.782C543.619 612.782 542.537 613.864 542.537 615.2C542.537 616.536 543.619 617.618 544.955 617.618C546.29 617.618 547.373 616.536 547.373 615.2C547.373 613.864 546.29 612.782 544.955 612.782ZM539.991 615.2C539.991 612.459 542.214 610.236 544.955 610.236C547.696 610.236 549.918 612.459 549.918 615.2C549.918 617.941 547.696 620.164 544.955 620.164C542.214 620.164 539.991 617.941 539.991 615.2Z" fill="#ECECEC"/>
<path fill-rule="evenodd" clip-rule="evenodd" d="M544.955 612.782C543.619 612.782 542.537 613.864 542.537 615.2C542.537 616.536 543.619 617.618 544.955 617.618C546.29 617.618 547.373 616.536 547.373 615.2C547.373 613.864 546.29 612.782 544.955 612.782ZM539.991 615.2C539.991 612.459 542.214 610.236 544.955 610.236C547.696 610.236 549.918 612.459 549.918 615.2C549.918 617.941 547.696 620.164 544.955 620.164C542.214 620.164 539.991 617.941 539.991 615.2Z" fill="#ECECEC"/>
<rect x="626.5" y="584.5" width="67" height="67" rx="11.5" fill="#F9FBFF"/>
<rect x="626.5" y="584.5" width="67" height="67" rx="11.5" stroke="#ECECEC"/>
<path d="M647.9 630.6C647.06 630.6 646.5 630.04 646.5 629.2V616.6C646.5 615.76 647.06 615.2 647.9 615.2C648.74 615.2 649.3 615.76 649.3 616.6V629.2C649.3 630.04 648.74 630.6 647.9 630.6Z" fill="#ECECEC"/>
<path d="M666.486 632H654.955C652.622 632 650.7 630.04 650.7 627.66V615.9C650.7 614.36 651.249 612.96 652.21 611.7L657.701 605.4C658.525 604.56 659.76 604 661.133 604C662.643 604 663.878 604.7 664.702 605.82C665.525 607.08 665.8 608.48 665.388 609.88L664.564 612.54H670.33C671.703 612.54 672.938 613.1 673.624 614.22C674.448 615.34 674.723 616.74 674.311 618L671.428 627.94C670.742 630.46 668.82 632 666.486 632ZM654.406 613.66C653.857 614.36 653.583 615.06 653.583 615.9V627.66C653.583 628.5 654.269 629.2 655.093 629.2H666.624C667.722 629.2 668.683 628.5 668.957 627.38L671.703 617.44C671.84 617.02 671.703 616.46 671.428 616.04C671.154 615.62 670.742 615.48 670.33 615.48H662.643C662.231 615.48 661.819 615.2 661.544 614.92C661.27 614.64 661.27 614.08 661.407 613.66L662.917 609.04C663.054 608.48 663.054 607.92 662.643 607.5C662.094 606.66 660.721 606.52 660.035 607.36L654.406 613.66Z" fill="#ECECEC"/>
<rect x="620.5" y="302.5" width="67" height="67" rx="11.5" fill="#F9FBFF"/>
<rect x="620.5" y="302.5" width="67" height="67" rx="11.5" stroke="#ECECEC"/>
<path d="M644.115 330.95C644.115 327.801 646.763 325.315 650.073 325.315C651.065 325.315 651.727 324.652 651.727 323.657C651.727 322.663 651.065 322 650.073 322C644.943 322 640.806 325.978 640.806 330.95V331.945C640.806 333.436 639.813 334.928 638.158 335.425C637.496 335.591 637 336.254 637 336.917C637 337.58 637.496 338.243 638.158 338.575C639.813 339.072 640.806 340.398 640.806 342.055V343.05C640.806 348.022 644.943 352 650.073 352C651.065 352 651.727 351.337 651.727 350.343C651.727 349.348 651.065 348.685 650.073 348.685C646.763 348.685 644.115 346.199 644.115 343.05V341.89C644.115 339.901 643.288 338.077 641.964 336.917C643.288 335.591 644.115 333.768 644.115 331.945V330.95Z" fill="#ECECEC"/>
<path d="M671.842 335.333C670.187 334.833 669.194 333.5 669.194 331.833V331C669.194 326 665.057 322 659.927 322C658.935 322 658.273 322.667 658.273 323.667C658.273 324.667 658.935 325.333 659.927 325.333C663.237 325.333 665.885 327.833 665.885 331V332C665.885 334 666.712 335.833 668.036 337C666.712 338.333 665.885 340.167 665.885 342V343C665.885 346.167 663.237 348.667 659.927 348.667C658.935 348.667 658.273 349.333 658.273 350.333C658.273 351.333 658.935 352 659.927 352C665.057 352 669.194 348 669.194 343V342C669.194 340.5 670.187 339 671.842 338.5C672.504 338.333 673 337.667 673 337C673 336.333 672.504 335.667 671.842 335.333Z" fill="#ECECEC"/>
<rect x="667.5" y="168.5" width="67" height="67" rx="11.5" fill="#F9FBFF"/>
<rect x="667.5" y="168.5" width="67" height="67" rx="11.5" stroke="#ECECEC"/>
<path d="M705.496 204.937C706.425 203.836 707.045 202.421 707.045 201.006C707.045 197.547 704.257 194.874 701.005 194.874C697.753 194.874 694.966 197.547 694.966 200.849C694.966 202.421 695.585 203.836 696.514 204.78C694.501 205.881 692.953 207.453 692.023 209.654C691.559 210.755 691.714 212.17 692.333 213.27C693.107 214.371 694.346 215 695.585 215H706.27C707.509 215 708.748 214.371 709.522 213.27C710.297 212.17 710.297 210.912 709.832 209.654C709.058 207.61 707.509 205.881 705.496 204.937ZM698.063 200.849C698.063 199.277 699.457 198.019 701.005 198.019C702.554 198.019 703.947 199.277 703.947 201.006C703.947 202.736 702.554 203.836 701.005 203.836C699.457 203.836 698.063 202.579 698.063 200.849ZM707.045 211.541C706.89 211.698 706.58 211.855 706.425 211.855H695.585C695.275 211.855 695.121 211.698 694.966 211.541C694.811 211.541 694.811 211.226 694.811 210.912C695.895 208.396 698.218 206.824 701.005 206.824C703.793 206.824 706.116 208.396 707.2 210.912C707.2 211.226 707.2 211.541 707.045 211.541Z" fill="#ECECEC"/>
<path d="M693.727 203.679C693.727 202.893 693.107 202.107 692.178 202.107H687.068C687.687 200.535 689.236 199.591 690.939 199.591C693.572 199.591 695.585 197.547 695.585 194.874C695.585 192.201 693.417 190.157 690.939 190.157C688.462 190.157 686.294 192.201 686.294 194.874C686.294 195.818 686.603 196.761 687.223 197.547C685.829 198.333 684.745 199.434 684.281 200.849C683.816 201.792 683.971 202.893 684.435 203.836C685.055 204.78 685.984 205.252 687.068 205.252H692.023C692.953 205.252 693.727 204.623 693.727 203.679ZM689.391 194.874C689.391 193.931 690.165 193.302 690.939 193.302C691.714 193.302 692.488 194.088 692.488 194.874C692.488 195.818 691.714 196.447 690.939 196.447C690.165 196.447 689.391 195.66 689.391 194.874Z" fill="#ECECEC"/>
<path d="M717.73 200.849C717.11 199.434 716.026 198.176 714.788 197.39C715.252 196.604 715.717 195.66 715.717 194.717C715.717 192.201 713.549 190 711.071 190C708.593 190 706.425 192.044 706.425 194.717C706.425 197.39 708.593 199.434 711.071 199.434C712.774 199.434 714.323 200.377 714.788 202.107H709.832C708.903 202.107 708.284 202.736 708.284 203.679C708.284 204.465 708.903 205.252 709.832 205.252H714.788C715.872 205.252 716.801 204.78 717.42 203.836C718.04 202.893 718.194 201.792 717.73 200.849ZM711.071 193.302C712 193.302 712.62 194.088 712.62 194.874C712.62 195.818 711.845 196.447 711.071 196.447C710.297 196.447 709.522 195.66 709.522 194.874C709.522 193.931 710.142 193.302 711.071 193.302Z" fill="#ECECEC"/>
<rect x="226.5" y="734.5" width="67" height="67" rx="11.5" fill="#F9FBFF"/>
<rect x="226.5" y="734.5" width="67" height="67" rx="11.5" stroke="#ECECEC"/>
<path d="M268.428 771.134C265.502 771.134 262.995 773.502 262.995 776.567C262.995 779.493 265.363 782 268.428 782C271.353 782 273.861 779.632 273.861 776.567C273.861 773.502 271.493 771.134 268.428 771.134ZM268.428 779.075C267.035 779.075 265.781 777.96 265.781 776.428C265.781 775.035 266.896 773.781 268.428 773.781C269.821 773.781 271.075 774.896 271.075 776.428C271.075 777.96 269.96 779.075 268.428 779.075Z" fill="#ECECEC"/>
<path d="M258.119 765.701C258.259 765.701 258.537 765.701 258.677 765.562L264.249 762.776C265.224 764.03 266.756 764.866 268.428 764.866C271.493 764.726 273.861 762.358 273.861 759.433C273.861 756.507 271.493 754 268.428 754C265.502 754 262.995 756.368 262.995 759.433C262.995 759.711 262.995 759.99 263.134 760.269L257.423 763.055C256.726 763.473 256.448 764.308 256.866 764.866C257.005 765.423 257.562 765.701 258.119 765.701ZM268.428 756.786C269.821 756.786 271.075 757.9 271.075 759.433C271.075 760.826 269.96 762.08 268.428 762.08C267.035 762.08 265.781 760.965 265.781 759.433C265.92 757.9 267.035 756.786 268.428 756.786Z" fill="#ECECEC"/>
<path d="M262.299 772.109L256.587 769.323C256.726 768.905 256.726 768.488 256.726 767.93C256.726 765.005 254.358 762.498 251.294 762.498C248.229 762.498 246 765.005 246 767.93C246 770.856 248.368 773.363 251.433 773.363C252.965 773.363 254.358 772.806 255.333 771.692L261.184 774.617C261.323 774.756 261.602 774.756 261.741 774.756C262.299 774.756 262.716 774.478 262.995 773.92C263.274 773.363 262.995 772.527 262.299 772.109ZM251.433 770.577C249.9 770.577 248.786 769.323 248.786 767.93C248.786 766.537 249.9 765.284 251.433 765.284C252.826 765.284 254.08 766.398 254.08 767.93C253.94 769.323 252.826 770.577 251.433 770.577Z" fill="#ECECEC"/>
<rect x="72.5" y="584.5" width="67" height="67" rx="11.5" fill="#F9FBFF"/>
<rect x="72.5" y="584.5" width="67" height="67" rx="11.5" stroke="#ECECEC"/>
<path d="M105.388 629.97H97.1293C96.4048 629.97 95.6803 629.537 95.3906 628.96C94.9559 628.383 94.9559 627.806 95.2457 627.085C96.9844 623.045 100.897 620.303 105.388 620.303C109.88 620.303 113.647 616.552 113.647 612.08C113.647 607.607 109.88 604 105.243 604C100.752 604 96.9844 607.751 96.9844 612.224C96.9844 614.821 98.1436 617.129 100.027 618.572C96.6946 619.871 93.7967 622.612 92.3477 626.075C91.7682 627.517 91.9131 629.249 92.7824 630.547C93.7967 631.99 95.2457 632.856 96.9844 632.856H105.243C106.113 632.856 106.692 632.279 106.692 631.413C106.692 630.547 106.113 629.97 105.388 629.97ZM99.8823 612.224C99.8823 609.338 102.346 606.886 105.243 606.886C108.141 606.886 110.605 609.338 110.605 612.224C110.605 615.109 108.141 617.562 105.243 617.562C102.346 617.562 99.8823 615.109 99.8823 612.224Z" fill="#ECECEC"/>
<path d="M120.457 619.582C119.733 619.149 118.864 619.294 118.429 620.015L112.343 628.96L110.025 625.93C109.59 625.353 108.576 625.209 107.996 625.642C107.417 626.075 107.272 627.085 107.707 627.662L111.329 632.423C111.619 632.856 112.054 633 112.488 633C112.923 633 113.358 632.711 113.647 632.423L120.747 621.746C121.182 620.881 121.037 620.015 120.457 619.582Z" fill="#ECECEC"/>
<rect x="89.5" y="34.5" width="67" height="67" rx="11.5" fill="#F9FBFF"/>
<rect x="89.5" y="34.5" width="67" height="67" rx="11.5" stroke="#ECECEC"/>
<path d="M135.823 75.1429L133.112 72.4286C132.541 71.8571 131.685 71.8571 131.115 72.4286C130.544 73 130.544 73.8571 131.115 74.4286L133.825 77.1429C134.254 77.5714 134.254 78.2857 133.825 78.7143C133.397 79.1429 132.684 79.1429 132.256 78.7143L127.976 74.4286C128.261 74.1429 128.546 74 128.832 73.7143C130.972 71.5714 132.256 68.5714 132.256 65.5714C132.256 62.4286 131.115 59.5714 128.832 57.4286C124.266 52.8571 116.99 52.8571 112.424 57.4286C107.859 62 107.859 69.2857 112.424 73.8571C114.564 76 117.561 77.2857 120.557 77.2857C122.269 77.2857 123.981 76.8571 125.408 76.1429L130.116 80.8571C130.829 81.5714 131.971 82 132.969 82C133.968 82 134.967 81.5714 135.823 80.8571C137.392 79.1429 137.392 76.5714 135.823 75.1429ZM114.422 71.5714C110.997 68.1429 110.997 62.5714 114.422 59.2857C116.134 57.5714 118.274 56.7143 120.557 56.7143C122.839 56.7143 124.98 57.5714 126.692 59.2857C128.404 61 129.26 63.1429 129.26 65.4286C129.26 67.7143 128.404 70 126.692 71.5714C124.98 73.1429 122.839 74.1429 120.557 74.1429C118.274 74.1429 115.991 73.2857 114.422 71.5714Z" fill="#ECECEC"/>
<rect x="213.5" y="587.5" width="67" height="67" rx="11.5" fill="#F9FBFF"/>
<rect x="213.5" y="587.5" width="67" height="67" rx="11.5" stroke="#ECECEC"/>
<path d="M236.02 635C235.32 635 234.76 634.72 234.2 634.3C233.5 633.6 233.36 632.62 233.64 631.78L235.04 627.44C234.06 625.48 233.5 623.24 233.5 621C233.5 613.3 239.8 607 247.5 607C255.2 607 261.5 613.3 261.5 621C261.5 628.7 255.2 635 247.5 635C245.26 635 243.02 634.44 241.06 633.46L236.72 634.86C236.58 635 236.3 635 236.02 635ZM241.9 630.66C243.58 631.64 245.54 632.2 247.5 632.2C253.66 632.2 258.7 627.16 258.7 621C258.7 614.84 253.66 609.8 247.5 609.8C241.34 609.8 236.3 614.84 236.3 621C236.3 622.96 236.86 624.92 237.84 626.6C237.98 626.88 238.12 627.3 237.98 627.72L236.58 632.06L240.92 630.66C240.92 630.66 241.763 630.592 241.9 630.66Z" fill="#ECECEC"/>
<path d="M247.5 623.24C248.737 623.24 249.74 622.237 249.74 621C249.74 619.763 248.737 618.76 247.5 618.76C246.263 618.76 245.26 619.763 245.26 621C245.26 622.237 246.263 623.24 247.5 623.24Z" fill="#ECECEC"/>
<path d="M240.64 623.24C241.877 623.24 242.88 622.237 242.88 621C242.88 619.763 241.877 618.76 240.64 618.76C239.403 618.76 238.4 619.763 238.4 621C238.4 622.237 239.403 623.24 240.64 623.24Z" fill="#ECECEC"/>
<path d="M254.36 623.24C255.597 623.24 256.6 622.237 256.6 621C256.6 619.763 255.597 618.76 254.36 618.76C253.123 618.76 252.12 619.763 252.12 621C252.12 622.237 253.123 623.24 254.36 623.24Z" fill="#ECECEC"/>
<rect x="341.5" y="584.5" width="67" height="67" rx="11.5" fill="#F9FBFF"/>
<rect x="341.5" y="584.5" width="67" height="67" rx="11.5" stroke="#ECECEC"/>
<path d="M389.061 612.679C386.853 609.703 384.254 606.984 381.266 604.914C379.318 603.49 376.59 603.749 374.771 605.561L370.354 609.961C368.665 611.644 368.405 614.362 369.704 616.303C369.834 616.433 369.964 616.692 370.224 616.821L362.039 624.975C361.39 625.622 361 626.528 361 627.564V631.706C361 632.094 361.13 632.353 361.39 632.612C361.65 632.871 361.909 633 362.299 633H366.456C367.496 633 368.405 632.612 369.055 631.965L377.239 623.81C377.499 623.94 377.629 624.069 377.889 624.199C379.837 625.493 382.566 625.234 384.254 623.552L388.671 619.151C390.23 617.339 390.49 614.621 389.061 612.679ZM386.593 617.339L382.176 621.74C381.266 622.646 379.967 622.775 379.058 622.128C378.538 621.74 378.149 621.481 377.629 621.092C377.109 620.704 376.33 620.704 375.94 621.222L366.976 630.153C366.716 630.411 366.456 630.541 366.197 630.541H363.338V627.693C363.338 627.434 363.468 627.176 363.728 626.917L372.692 617.986C373.212 617.468 373.212 616.821 372.822 616.303C372.562 615.786 372.173 615.268 371.913 614.75C371.263 613.844 371.393 612.55 372.302 611.773L376.719 607.373C377.109 606.855 377.759 606.596 378.408 606.596C378.928 606.596 379.318 606.726 379.707 606.984C382.566 608.926 384.904 611.385 386.853 614.103C387.632 615.139 387.502 616.433 386.593 617.339Z" fill="#ECECEC"/>
<path d="M380.148 611.909C379.593 611.909 379.177 612.192 378.761 612.474C377.928 613.321 377.928 614.593 378.761 615.299C379.177 615.722 379.593 615.864 380.148 615.864C380.703 615.864 381.12 615.722 381.536 615.299C381.952 614.875 382.091 614.451 382.091 613.886C382.091 613.321 381.952 612.898 381.536 612.474C381.258 612.05 380.703 611.909 380.148 611.909Z" fill="#ECECEC"/>
<rect x="511.5" y="434.5" width="67" height="67" rx="11.5" fill="#F9FBFF"/>
<rect x="511.5" y="434.5" width="67" height="67" rx="11.5" stroke="#ECECEC"/>
<path d="M539.372 465.484C538.804 464.924 537.952 464.924 537.384 465.484C536.816 466.044 536.816 466.884 537.384 467.443L543.206 473.602C543.49 473.882 543.916 474.022 544.2 474.022C544.626 474.022 545.052 473.882 545.194 473.462L559.109 456.246C559.535 455.686 559.535 454.706 558.825 454.287C558.399 453.867 557.547 453.867 556.979 454.566L554.139 458.066C551.583 455.546 547.892 454.007 544.2 454.007C536.39 454.007 530 460.305 530 468.003C530 475.701 536.39 482 544.2 482C552.009 482 558.399 475.701 558.399 468.003C558.399 466.744 558.257 465.484 557.831 464.224C557.547 463.524 556.837 463.104 556.127 463.244C555.417 463.384 554.991 464.224 555.133 464.924C555.417 465.904 555.559 467.024 555.559 468.003C555.559 474.162 550.447 479.201 544.2 479.201C537.952 479.201 532.84 474.162 532.84 468.003C532.84 461.845 537.952 456.806 544.2 456.806C547.324 456.806 550.164 458.066 552.435 460.305L544.2 470.523L539.372 465.484Z" fill="#ECECEC"/>
<rect x="394.5" y="433.5" width="67" height="67" rx="11.5" fill="#F9FBFF"/>
<rect x="394.5" y="433.5" width="67" height="67" rx="11.5" stroke="#ECECEC"/>
<path fill-rule="evenodd" clip-rule="evenodd" d="M436.03 453.487C437.293 454.178 438.2 455.549 438.2 457.2V471.48C438.2 474.822 434.499 476.802 431.778 474.859C431.748 474.838 431.718 474.814 431.689 474.79L430.196 473.53C430.174 473.512 430.153 473.493 430.133 473.474C428.985 472.381 427.554 471.7 425.982 471.449V476.94C425.982 479.161 424.358 481 422.138 481C419.873 481 418.295 478.972 418.295 476.94V471.183C415.276 470.494 413 467.636 413 464.34C413 462.484 413.655 460.697 415.056 459.413C416.188 458.258 417.741 457.34 419.695 457.34H424.541C426.689 457.21 428.681 456.475 430.185 455.298L431.634 453.939C431.662 453.913 431.691 453.887 431.722 453.863C433.081 452.785 434.746 452.785 436.03 453.487ZM433.5 456.028L432.056 457.382C432.028 457.408 431.999 457.433 431.968 457.457C429.956 459.053 427.366 459.983 424.662 460.138C424.635 460.139 424.609 460.14 424.582 460.14H419.695C418.68 460.14 417.8 460.605 417.034 461.395C417.013 461.417 416.99 461.439 416.967 461.46C416.22 462.134 415.8 463.132 415.8 464.34C415.8 466.711 417.68 468.54 419.695 468.54C420.468 468.54 421.095 469.167 421.095 469.94V476.94C421.095 477.709 421.688 478.2 422.138 478.2C422.634 478.2 423.182 477.799 423.182 476.94V469.94C423.182 469.167 423.809 468.54 424.582 468.54C427.337 468.54 429.988 469.486 432.032 471.416L433.443 472.607C434.251 473.141 435.4 472.6 435.4 471.48V457.2C435.4 456.611 435.085 456.162 434.686 455.943C434.318 455.742 433.895 455.736 433.5 456.028Z" fill="#ECECEC"/>
<path fill-rule="evenodd" clip-rule="evenodd" d="M442.4 460C443.173 460 443.8 460.627 443.8 461.4V467C443.8 467.773 443.173 468.4 442.4 468.4C441.627 468.4 441 467.773 441 467V461.4C441 460.627 441.627 460 442.4 460Z" fill="#ECECEC"/>
<rect x="341.5" y="734.5" width="67" height="67" rx="11.5" fill="#F9FBFF"/>
<rect x="341.5" y="734.5" width="67" height="67" rx="11.5" stroke="#ECECEC"/>
<path d="M369.726 784C369.274 784 368.822 783.854 368.37 783.708C367.165 783.124 366.562 781.955 366.863 780.787L368.671 772.315H365.959C364.754 772.315 363.699 771.585 363.247 770.562C362.795 769.54 362.945 768.371 363.85 767.641L378.164 752.888C379.068 752.012 380.575 751.72 381.63 752.304C382.835 752.888 383.438 754.057 383.137 755.225L381.329 763.697H384.041C385.246 763.697 386.301 764.427 386.753 765.45C387.205 766.472 387.055 767.641 386.15 768.371L371.836 783.124C371.233 783.708 370.48 784 369.726 784ZM370.48 769.247C370.932 769.247 371.384 769.394 371.685 769.832C371.986 770.27 372.137 770.562 371.986 771L370.028 780.933L384.041 766.472H379.671C379.219 766.472 378.767 766.326 378.466 765.888C378.164 765.596 378.014 765.158 378.164 764.719L380.123 754.787L366.11 769.394L370.48 769.247Z" fill="#ECECEC"/>
<rect x="668.5" y="734.5" width="67" height="67" rx="11.5" fill="#F9FBFF"/>
<rect x="668.5" y="734.5" width="67" height="67" rx="11.5" stroke="#ECECEC"/>
<path d="M708.45 755C705.9 755 703.65 756.052 702 758.006C700.35 756.052 698.1 755 695.55 755C690.9 755 687 758.908 687 763.566C687 763.867 687 764.168 687 764.468C687.6 771.532 695.1 777.393 699.45 780.249C700.2 780.699 701.1 781 702 781C702.9 781 703.8 780.699 704.55 780.249C708.9 777.393 716.4 771.532 717 764.618C717 764.318 717 764.017 717 763.717C717 758.908 713.1 755 708.45 755ZM714 764.168C713.55 770.179 706.05 775.59 702.9 777.543C702.3 777.844 701.7 777.844 701.1 777.543C697.95 775.439 690.6 770.029 690 764.017C690 764.017 690 763.717 690 763.566C690 760.561 692.55 758.006 695.55 758.006C697.8 758.006 699.75 759.358 700.65 761.312C700.8 761.913 701.4 762.214 702 762.214C702.6 762.214 703.2 761.913 703.35 761.312C704.25 759.358 706.2 758.006 708.45 758.006C711.45 758.006 714 760.561 714 763.566C714 763.717 714 764.017 714 764.168Z" fill="#ECECEC"/>
<rect x="504.5" y="734.5" width="67" height="67" rx="11.5" fill="#F9FBFF"/>
<rect x="504.5" y="734.5" width="67" height="67" rx="11.5" stroke="#ECECEC"/>
<path d="M531.665 782C530.966 782 530.266 781.72 529.567 781.3C528.448 780.46 527.748 779.06 528.028 777.66L528.867 772.2L525.09 768.28C524.111 767.3 523.691 765.76 524.251 764.36C524.67 762.96 525.79 762.12 527.189 761.84L532.505 761L534.883 756.1C535.443 754.84 536.702 754 538.101 754C539.5 754 540.759 754.84 541.458 756.1L543.697 761L548.873 761.84C550.272 761.98 551.391 762.96 551.811 764.36C552.231 765.76 551.951 767.16 550.972 768.28L547.194 772.2L548.034 777.66C548.314 779.06 547.754 780.6 546.495 781.3C545.376 782.14 543.977 782.14 542.718 781.58L538.101 778.92L533.484 781.44C532.925 781.86 532.365 782 531.665 782ZM538.101 756.8C537.961 756.8 537.541 756.8 537.401 757.36L534.743 762.96C534.463 763.38 534.044 763.66 533.624 763.66L527.608 764.64C527.189 764.64 527.049 765.06 526.909 765.2C526.909 765.34 526.769 765.76 527.189 766.18L531.525 770.52C531.805 770.8 531.945 771.22 531.945 771.78L530.966 777.94C530.826 778.5 531.246 778.78 531.386 778.92C531.525 779.06 531.805 779.2 532.225 778.92L537.541 775.98C537.961 775.7 538.521 775.7 538.94 775.98L544.256 778.92C544.676 779.06 544.956 778.92 545.096 778.92C545.236 778.78 545.516 778.5 545.516 777.94L544.536 771.78C544.396 771.36 544.536 770.94 544.956 770.52L549.293 766.18C549.433 765.9 549.293 765.34 549.293 765.2C549.293 765.06 549.013 764.64 548.593 764.64L542.578 763.8C542.158 763.8 541.738 763.38 541.458 762.96L538.8 757.36C538.66 756.8 538.241 756.8 538.101 756.8Z" fill="#ECECEC"/>
<rect x="512.5" y="314.5" width="67" height="67" rx="11.5" fill="#F9FBFF"/>
<rect x="512.5" y="314.5" width="67" height="67" rx="11.5" stroke="#ECECEC"/>
<path d="M539.355 336H534.409C531.473 336 529 338.25 529 341.1V346.2C529 349.05 531.473 351.3 534.409 351.3H537.964C538.891 351.3 539.509 350.7 539.509 349.8C539.509 348.9 538.891 348.3 537.964 348.3H534.409C533.173 348.3 532.091 347.4 532.091 346.2V341.1C532.091 339.9 533.173 339 534.409 339H539.355C540.591 339 541.673 339.9 541.673 341.1V353.55C541.673 355.5 540.127 357 538.118 357H535.645C534.718 357 534.1 357.6 534.1 358.5C534.1 359.4 534.718 360 535.645 360H538.118C541.827 360 544.764 357.15 544.764 353.55V341.1C544.764 338.25 542.291 336 539.355 336Z" fill="#ECECEC"/>
<path d="M557.591 336H552.645C549.709 336 547.236 338.25 547.236 341.1V346.2C547.236 349.05 549.709 351.3 552.645 351.3H556.2C557.127 351.3 557.745 350.7 557.745 349.8C557.745 348.9 557.127 348.3 556.2 348.3H552.645C551.409 348.3 550.327 347.4 550.327 346.2V341.1C550.327 339.9 551.409 339 552.645 339H557.591C558.827 339 559.909 339.9 559.909 341.1V353.55C559.909 355.5 558.364 357 556.355 357H553.882C552.955 357 552.336 357.6 552.336 358.5C552.336 359.4 552.955 360 553.882 360H556.355C560.064 360 563 357.15 563 353.55V341.1C563 338.25 560.527 336 557.591 336Z" fill="#ECECEC"/>
<g filter="url(#filter0_d_493_113413)">
<rect x="234" y="8" width="81" height="94" rx="12" fill="white"/>
<path d="M289.696 46C289.696 42.9804 288.049 40.2353 285.578 38.8627C285.578 38.7255 285.578 38.451 285.578 38.1765C285.578 34.7451 282.833 32 279.402 32C277.48 32 275.696 32.9608 274.598 34.3333C273.5 32.9608 271.716 32 269.794 32C266.363 32 263.618 34.7451 263.618 38.1765C263.618 38.451 263.618 38.5882 263.618 38.8627C261.147 40.2353 259.5 42.9804 259.5 46C259.5 49.0196 261.147 51.7647 263.618 53.1373C263.618 53.4118 263.618 53.549 263.618 53.8235C263.618 57.2549 266.363 60 269.794 60C271.716 60 273.5 59.0392 274.598 57.6667C275.696 59.0392 277.48 60 279.402 60C282.833 60 285.578 57.2549 285.578 53.8235C285.578 53.549 285.578 53.4118 285.578 53.1373C288.049 51.6275 289.696 49.0196 289.696 46ZM283.52 51.0784C282.833 51.3529 282.559 52.0392 282.696 52.7255C282.833 53 282.833 53.4118 282.833 53.6863C282.833 55.6078 281.324 57.1176 279.402 57.1176C277.618 57.1176 276.108 55.7451 275.971 53.8235C275.971 53.6863 275.971 53.6863 275.833 53.549V53.4118C275.833 53.2745 275.696 53.1373 275.696 53.1373C275.696 53.1373 275.696 53 275.559 53C275.422 52.8627 275.422 52.8627 275.284 52.7255C275.284 52.7255 275.147 52.7255 275.147 52.5882C275.01 52.5882 274.873 52.5882 274.873 52.451H274.735H274.598C274.461 52.451 274.461 52.451 274.324 52.5882C274.186 52.5882 274.186 52.7255 274.049 52.7255C273.912 52.7255 273.912 52.8627 273.775 52.8627L273.637 53C273.637 53.1373 273.5 53.1373 273.5 53.2745V53.4118C273.5 53.549 273.363 53.549 273.363 53.6863C273.225 55.4706 271.716 56.9804 269.931 56.9804C268.01 56.9804 266.5 55.4706 266.5 53.549C266.5 53.1373 266.5 52.8627 266.637 52.5882C266.912 51.902 266.5 51.2157 265.814 50.9412C263.618 50.2549 262.245 48.1961 262.245 46C262.245 43.8039 263.618 41.7451 265.676 40.9216C266.363 40.6471 266.775 39.8235 266.5 39.1373C266.363 38.8627 266.363 38.5882 266.363 38.1765C266.363 36.2549 267.873 34.7451 269.794 34.7451C271.716 34.7451 273.225 36.2549 273.225 38.1765V49.4314C273.225 50.2549 273.775 50.8039 274.598 50.8039C275.422 50.8039 275.971 50.2549 275.971 49.4314V38.1765C275.971 36.2549 277.48 34.7451 279.402 34.7451C281.324 34.7451 282.833 36.2549 282.833 38.1765C282.833 38.5882 282.833 38.8627 282.696 39.1373C282.422 39.8235 282.833 40.5098 283.52 40.7843C285.578 41.7451 286.951 43.6667 286.951 46C286.951 48.1961 285.578 50.2549 283.52 51.0784Z" fill="url(#paint0_radial_493_113413)"/>
<path d="M253.504 82V73.4688H256.58C257.603 73.4688 258.388 73.7051 258.935 74.1777C259.486 74.6465 259.761 75.2773 259.761 76.0703C259.761 76.8594 259.486 77.4941 258.935 77.9746C258.388 78.4512 257.603 78.6895 256.58 78.6895H254.67V82H253.504ZM254.67 77.7344H256.58C257.326 77.7344 257.847 77.5742 258.144 77.2539C258.445 76.9336 258.595 76.5391 258.595 76.0703C258.595 75.5977 258.445 75.207 258.144 74.8984C257.847 74.5859 257.326 74.4297 256.58 74.4297H254.67V77.7344ZM260.447 84.4375V83.4824C260.564 83.5137 260.691 83.5391 260.827 83.5586C260.968 83.5781 261.103 83.5879 261.232 83.5879C261.548 83.5879 261.814 83.5 262.029 83.3242C262.247 83.1484 262.495 82.6953 262.773 81.9648V81.959L260.177 75.7656H261.308L262.972 79.873C263.035 80.0293 263.091 80.1816 263.142 80.3301C263.197 80.4785 263.244 80.623 263.283 80.7637H263.318C263.357 80.623 263.404 80.4785 263.458 80.3301C263.513 80.1816 263.57 80.0293 263.628 79.873L265.216 75.7656H266.312L263.452 82.8203C263.226 83.3672 262.937 83.793 262.585 84.0977C262.238 84.4023 261.81 84.5547 261.302 84.5547C261.13 84.5547 260.976 84.5449 260.839 84.5254C260.702 84.5059 260.572 84.4766 260.447 84.4375ZM268.409 77.4707C268.409 77.9785 268.528 78.332 268.767 78.5312C269.005 78.7305 269.386 78.8301 269.909 78.8301C270.312 78.8301 270.677 78.8027 271.005 78.748C271.337 78.6895 271.691 78.6094 272.066 78.5078V79.4043C271.714 79.4941 271.364 79.5703 271.017 79.6328C270.669 79.6914 270.239 79.7207 269.728 79.7207C268.892 79.7207 268.275 79.5332 267.876 79.1582C267.482 78.7793 267.284 78.2168 267.284 77.4707V75.7656H268.409V77.4707ZM272.622 75.7656V82H271.503V75.7656H272.622ZM274.638 75.7656H275.763V78.3789H279.067V75.7656H280.192V82H279.067V79.2695H275.763V82H274.638V75.7656ZM281.833 78.9766V78.7891C281.833 77.8477 282.128 77.0801 282.717 76.4863C283.311 75.8887 284.104 75.5898 285.096 75.5898C286.085 75.5898 286.876 75.8887 287.469 76.4863C288.063 77.0801 288.36 77.8477 288.36 78.7891V78.9766C288.36 79.918 288.063 80.6875 287.469 81.2852C286.876 81.8789 286.085 82.1758 285.096 82.1758C284.104 82.1758 283.311 81.8789 282.717 81.2852C282.128 80.6875 281.833 79.918 281.833 78.9766ZM282.981 78.7891V78.9766C282.981 79.6172 283.159 80.1562 283.514 80.5938C283.87 81.0312 284.397 81.25 285.096 81.25C285.796 81.25 286.321 81.0312 286.672 80.5938C287.028 80.1562 287.206 79.6172 287.206 78.9766V78.7891C287.206 78.1445 287.028 77.6055 286.672 77.1719C286.321 76.7344 285.796 76.5156 285.096 76.5156C284.397 76.5156 283.87 76.7344 283.514 77.1719C283.159 77.6055 282.981 78.1445 282.981 78.7891ZM290 82V75.7656H291.114V79.7383C291.114 79.8555 291.112 79.9883 291.108 80.1367C291.108 80.2852 291.106 80.4199 291.102 80.541H291.149C291.204 80.4355 291.264 80.3242 291.33 80.207C291.397 80.0898 291.473 79.9727 291.559 79.8555L294.495 75.7656H295.625V82H294.506V78.0332C294.506 77.9121 294.508 77.7773 294.512 77.6289C294.516 77.4766 294.522 77.3398 294.53 77.2188H294.465C294.414 77.3203 294.356 77.4316 294.289 77.5527C294.223 77.6738 294.149 77.793 294.067 77.9102L291.131 82H290ZM292.813 73.8672C293.106 73.8672 293.346 73.7891 293.534 73.6328C293.721 73.4727 293.881 73.2129 294.014 72.8535L294.875 73.3574C294.68 73.834 294.403 74.1836 294.043 74.4062C293.684 74.6289 293.274 74.7402 292.813 74.7402C292.348 74.7402 291.938 74.6309 291.582 74.4121C291.227 74.1895 290.948 73.8379 290.745 73.3574L291.612 72.8418C291.745 73.2129 291.903 73.4766 292.086 73.6328C292.274 73.7891 292.516 73.8672 292.813 73.8672Z" fill="#04101C"/>
</g>
<g filter="url(#filter1_d_493_113413)">
<rect x="355" y="8" width="68" height="94" rx="12" fill="white"/>
<path d="M402.227 48.1636H398.918V43.8364H402.227C402.991 43.8364 403.5 43.3273 403.5 42.5636C403.5 41.8 402.991 41.2909 402.227 41.2909H398.918V40.2727C398.918 38.2364 397.264 36.7091 395.355 36.7091H394.336V33.2727C394.336 32.5091 393.827 32 393.064 32C392.3 32 391.791 32.5091 391.791 33.2727V36.5818H387.336V33.2727C387.336 32.5091 386.827 32 386.064 32C385.3 32 384.791 32.5091 384.791 33.2727V36.5818H383.773C381.736 36.5818 380.209 38.2364 380.209 40.1455V41.1636H376.773C376.009 41.1636 375.5 41.6727 375.5 42.4364C375.5 43.2 376.009 43.7091 376.773 43.7091H380.082V48.1636H376.773C376.009 48.1636 375.5 48.6727 375.5 49.4364C375.5 50.2 376.009 50.7091 376.773 50.7091H380.082V51.7273C380.082 53.7636 381.736 55.2909 383.645 55.2909H384.664V58.7273C384.664 59.4909 385.173 60 385.936 60C386.7 60 387.209 59.4909 387.209 58.7273V55.4182H391.664V58.7273C391.664 59.4909 392.173 60 392.936 60C393.7 60 394.209 59.4909 394.209 58.7273V55.4182H395.227C397.264 55.4182 398.791 53.7636 398.791 51.8545V50.8364H402.227C402.991 50.8364 403.5 50.3273 403.5 49.5636C403.5 48.8 402.991 48.1636 402.227 48.1636ZM396.373 51.7273C396.373 52.3636 395.864 52.7455 395.355 52.7455H383.773C383.136 52.7455 382.755 52.2364 382.755 51.7273V40.2727C382.627 39.6364 383.136 39.1273 383.773 39.1273H395.355C395.991 39.1273 396.373 39.6364 396.373 40.1455V51.7273Z" fill="url(#paint1_radial_493_113413)"/>
<path d="M374.402 82L377.894 73.4102H379.031L382.523 82H381.292L378.779 75.6016C378.712 75.4414 378.654 75.2891 378.603 75.1445C378.556 75 378.513 74.8535 378.474 74.7051H378.41C378.37 74.8535 378.326 75 378.275 75.1445C378.228 75.2891 378.171 75.4414 378.105 75.6016L375.574 82H374.402ZM375.872 79.7969L376.253 78.8359L380.648 78.8418L381.023 79.8027L375.872 79.7969ZM383.401 82V75.7656H386.525C387.235 75.7656 387.79 75.9043 388.189 76.1816C388.591 76.4551 388.792 76.8711 388.792 77.4297C388.792 77.7773 388.689 78.0684 388.482 78.3027C388.275 78.5371 387.997 78.6953 387.65 78.7773V78.7949C388.071 78.8574 388.403 79.0117 388.646 79.2578C388.888 79.5 389.009 79.8105 389.009 80.1895C389.009 80.7598 388.798 81.2051 388.376 81.5254C387.954 81.8418 387.396 82 386.7 82H383.401ZM384.526 78.3906H386.525C386.927 78.3906 387.216 78.3105 387.392 78.1504C387.568 77.9902 387.655 77.7695 387.655 77.4883C387.655 77.2148 387.568 77.0078 387.392 76.8672C387.216 76.7266 386.927 76.6543 386.525 76.6504H384.526V78.3906ZM384.526 81.1152H386.7C387.107 81.1152 387.403 81.0312 387.591 80.8633C387.782 80.6953 387.878 80.4688 387.878 80.1836C387.878 79.9062 387.784 79.6855 387.597 79.5215C387.409 79.3535 387.11 79.2695 386.7 79.2695H384.526V81.1152ZM390.028 76.6504V75.7656H395.595V76.6504H393.374V82H392.249V76.6504H390.028ZM396.555 78.9766V78.7891C396.555 77.8477 396.85 77.0801 397.44 76.4863C398.034 75.8887 398.827 75.5898 399.819 75.5898C400.807 75.5898 401.598 75.8887 402.192 76.4863C402.786 77.0801 403.083 77.8477 403.083 78.7891V78.9766C403.083 79.918 402.786 80.6875 402.192 81.2852C401.598 81.8789 400.807 82.1758 399.819 82.1758C398.827 82.1758 398.034 81.8789 397.44 81.2852C396.85 80.6875 396.555 79.918 396.555 78.9766ZM397.704 78.7891V78.9766C397.704 79.6172 397.881 80.1562 398.237 80.5938C398.592 81.0312 399.12 81.25 399.819 81.25C400.518 81.25 401.044 81.0312 401.395 80.5938C401.751 80.1562 401.928 79.6172 401.928 78.9766V78.7891C401.928 78.1445 401.751 77.6055 401.395 77.1719C401.044 76.7344 400.518 76.5156 399.819 76.5156C399.12 76.5156 398.592 76.7344 398.237 77.1719C397.881 77.6055 397.704 78.1445 397.704 78.7891Z" fill="#04101C"/>
</g>
<rect x="14.5" y="302.5" width="67" height="67" rx="11.5" fill="#F9FBFF"/>
<rect x="14.5" y="302.5" width="67" height="67" rx="11.5" stroke="#ECECEC"/>
<path d="M43.9273 333.2C44.6909 333.2 45.2 332.691 45.2 331.927C45.2 330.4 46.4727 329.127 48 329.127C49.5273 329.127 50.8 330.4 50.8 331.927C50.8 332.691 51.3091 333.2 52.0727 333.2C52.8364 333.2 53.3455 332.691 53.3455 331.927C53.3455 329 50.9273 326.582 48 326.582C45.0727 326.582 42.6545 329 42.6545 331.927C42.6545 332.564 43.2909 333.2 43.9273 333.2Z" fill="#ECECEC"/>
<path d="M60.7273 334.727H35.2727C34.5091 334.727 34 335.236 34 336C34 336.764 34.5091 337.273 35.2727 337.273H41.7636C41 338.036 40.3636 338.927 39.9818 339.945C39.6 340.964 39.7273 342.109 40.2364 343C40.8727 343.891 41.8909 344.527 43.0364 344.527H52.7091C53.8545 344.527 54.8727 344.018 55.5091 343C56.1455 342.109 56.2727 340.964 55.7636 339.945C55.3818 338.927 54.7455 338.036 53.9818 337.273H60.7273C61.4909 337.273 62 336.764 62 336C62 335.236 61.4909 334.727 60.7273 334.727ZM53.6 340.964C53.7273 341.218 53.6 341.473 53.4727 341.6C53.3455 341.855 53.0909 341.982 52.7091 341.982H43.1636C42.9091 341.982 42.6545 341.855 42.4 341.6C42.2727 341.473 42.1455 341.218 42.2727 340.964C43.0364 339.055 44.8182 337.655 46.8545 337.273H48.8909C51.0545 337.655 52.8364 339.055 53.6 340.964Z" fill="#ECECEC"/>
<path d="M60.7273 340.455C59.9636 340.455 59.4545 340.964 59.4545 341.727V344.018C59.4545 345.927 57.9273 347.327 56.1455 347.327H53.8545C53.0909 347.327 52.5818 347.836 52.5818 348.6C52.5818 349.364 53.0909 349.873 53.8545 349.873H56.1455C59.4545 349.873 62 347.2 62 344.018V341.727C62 341.091 61.4909 340.455 60.7273 340.455Z" fill="#ECECEC"/>
<path d="M42.2727 347.455H39.8545C38.0727 347.455 36.5455 345.927 36.5455 344.145V341.855C36.5455 341.091 36.0364 340.582 35.2727 340.582C34.5091 340.582 34 341.091 34 341.855V344.145C34 347.327 36.6727 350 39.8545 350H42.1455C42.9091 350 43.4182 349.491 43.4182 348.727C43.4182 347.964 42.9091 347.455 42.2727 347.455Z" fill="#ECECEC"/>
<path d="M35.2727 331.545C36.0364 331.545 36.5455 331.036 36.5455 330.273V327.855C36.5455 326.073 38.0727 324.545 39.8545 324.545H42.1455C42.9091 324.545 43.4182 324.036 43.4182 323.273C43.4182 322.509 42.9091 322 42.2727 322H39.8545C36.6727 322 34 324.673 34 327.855V330.145C34 330.909 34.5091 331.545 35.2727 331.545Z" fill="#ECECEC"/>
<path d="M56.1455 322H53.8545C53.0909 322 52.5818 322.509 52.5818 323.273C52.5818 324.036 53.0909 324.545 53.8545 324.545H56.1455C57.9273 324.545 59.4545 326.073 59.4545 327.855V330.145C59.4545 330.909 59.9636 331.418 60.7273 331.418C61.4909 331.418 62 330.909 62 330.145V327.855C62 324.673 59.3273 322 56.1455 322Z" fill="#ECECEC"/>
<path d="M462 349L512 349" stroke="#ECECEC"/>
<path d="M579 489L656 489" stroke="#ECECEC"/>
<path d="M539 502L539 584" stroke="#ECECEC"/>
<path d="M556 502V528.907C556 537.744 563.163 544.907 572 544.907H645C653.837 544.907 661 552.07 661 560.907V584" stroke="#ECECEC"/>
<path d="M683 235V246.994C683 255.831 675.837 262.994 667 262.994H619C610.163 262.994 603 270.158 603 278.994V447C603 455.837 595.837 463 587 463H578.5" stroke="#ECECEC"/>
<path d="M579 477L625.019 477C633.817 477 640.93 469.868 640.93 461.045L640.93 370" stroke="#ECECEC"/>
<path d="M462 216L512 216" stroke="#ECECEC"/>
<path d="M310 306L310 265C310 256.164 302.841 249 294.005 249C285.23 249 274.45 249 266 249L266 237" stroke="url(#paint2_linear_493_113413)" stroke-width="2"/>
<path d="M324 307L324 300.499C324.001 291.663 331.164 284.5 340 284.5L574.999 284.5C583.836 284.5 590.999 291.664 590.999 300.5L590.999 436C590.999 442.904 585.403 448.5 578.499 448.5V448.5" stroke="#ECECEC"/>
<path d="M181 302L181 219C181 210.163 173.837 203 165 203L158 203" stroke="#ECECEC"/>
<path d="M120 503L120 584" stroke="#ECECEC"/>
<path d="M257 655L257 734" stroke="#ECECEC"/>
<path d="M376 652L376 734" stroke="#ECECEC"/>
<path d="M388 651.8L388 688.842C388 697.915 395.36 705.398 404.283 705.398L529.717 705.398C538.64 705.398 546 712.882 546 721.954L546 734" stroke="#ECECEC"/>
<path d="M409 619L475.501 619C484.337 619 491.501 626.163 491.501 635L491.501 665.5C491.501 674.337 498.664 681.5 507.501 681.5L700.001 681.5C708.837 681.5 716.001 688.663 716.001 697.5L716 734" stroke="#ECECEC"/>
<path d="M238 655L238 690.162C238 698.998 230.837 706.162 222 706.162L167 706.162C158.163 706.162 151 713.325 151 722.162L151 734" stroke="#ECECEC"/>
<path d="M120 435V354C120 345.163 112.837 338 104 338H82" stroke="#ECECEC"/>
<path d="M263 169L263 102" stroke="url(#paint3_linear_493_113413)" stroke-width="2"/>
<path d="M391 102V102C391 108.627 385.627 114 379 114H293C284.163 114 277 121.163 277 130V169" stroke="url(#paint4_linear_493_113413)" stroke-width="2"/>
<path d="M157 70H199C207.837 70 215 77.1635 215 86V302" stroke="#ECECEC"/>
<path d="M462.001 202.499L477.5 202.499C486.336 202.499 493.5 195.336 493.5 186.499L493.501 102" stroke="#ECECEC"/>
<path d="M394 349H344" stroke="#ECECEC"/>
<path d="M276 349L233 349" stroke="#ECECEC"/>
<path d="M276 361H271.837C263.001 361 255.837 368.163 255.837 377V397.136C255.837 405.973 248.674 413.136 239.837 413.136H168C159.163 413.136 152 420.3 152 429.136V435" stroke="#ECECEC"/>
<path d="M296 374L296 435" stroke="#ECECEC"/>
<path d="M344 355L360 355C368.836 355 376 362.163 376 371L376 584" stroke="#ECECEC"/>
<path d="M344 361V361C352.837 361 360 368.163 360 377V548.349C360 557.185 352.837 564.349 344 564.349H274C265.163 564.349 258 571.512 258 580.349V587" stroke="#ECECEC"/>
<path d="M428 314L428 242" stroke="#ECECEC"/>
<path d="M428 382L428 434" stroke="#ECECEC"/>
<g filter="url(#filter2_d_493_113413)">
<rect x="234" y="169" width="113" height="94" rx="12" fill="white"/>
<path d="M301.232 193.433C300.655 192.856 299.789 192.856 299.213 193.433C298.636 194.01 298.636 194.876 299.213 195.453C301.809 198.05 303.251 201.512 303.251 205.264C303.251 209.015 301.809 212.478 299.213 215.075C296.616 217.672 293.155 219.114 289.404 219.114C286.231 219.114 283.058 217.96 280.606 215.94L282.481 213.92C284.5 215.507 286.952 216.229 289.26 216.229C292.145 216.229 294.885 215.219 297.049 213.055C301.376 208.726 301.376 201.657 297.049 197.473C292.722 193.144 285.654 193.144 281.471 197.473C277.577 201.368 277.144 207.572 280.462 211.9L277.433 215.075C276.856 215.652 276.856 216.517 277.433 217.095C280.606 220.269 284.789 222 289.26 222C293.732 222 297.914 220.269 301.088 217.095C304.261 213.92 305.992 209.736 305.992 205.264C306.136 200.791 304.405 196.607 301.232 193.433ZM283.635 199.493C285.222 197.905 287.385 197.04 289.404 197.04C291.568 197.04 293.587 197.905 295.174 199.493C298.347 202.667 298.347 207.861 295.174 211.035C292.001 214.209 286.808 214.209 283.635 211.035C280.462 207.861 280.462 202.667 283.635 199.493Z" fill="url(#paint5_radial_493_113413)"/>
<path d="M253.133 243V234.469H254.656L257.428 240.885C257.479 241.002 257.527 241.125 257.574 241.254C257.625 241.379 257.67 241.496 257.709 241.605H257.756C257.791 241.496 257.832 241.379 257.879 241.254C257.926 241.125 257.975 241.002 258.025 240.885L260.779 234.469H262.332V243H261.207V236.73C261.207 236.613 261.209 236.482 261.213 236.338C261.221 236.189 261.232 236.057 261.248 235.939H261.195C261.164 236.057 261.121 236.189 261.066 236.338C261.016 236.482 260.965 236.613 260.914 236.73L258.231 243H257.193L254.492 236.73C254.441 236.613 254.391 236.482 254.34 236.338C254.293 236.189 254.256 236.057 254.229 235.939H254.176C254.188 236.057 254.197 236.189 254.205 236.338C254.217 236.482 254.223 236.613 254.223 236.73V243H253.133ZM263.82 239.977V239.789C263.82 238.848 264.115 238.08 264.705 237.486C265.299 236.889 266.092 236.59 267.084 236.59C268.072 236.59 268.863 236.889 269.457 237.486C270.051 238.08 270.347 238.848 270.347 239.789V239.977C270.347 240.918 270.051 241.688 269.457 242.285C268.863 242.879 268.072 243.176 267.084 243.176C266.092 243.176 265.299 242.879 264.705 242.285C264.115 241.688 263.82 240.918 263.82 239.977ZM264.969 239.789V239.977C264.969 240.617 265.146 241.156 265.502 241.594C265.857 242.031 266.385 242.25 267.084 242.25C267.783 242.25 268.308 242.031 268.66 241.594C269.015 241.156 269.193 240.617 269.193 239.977V239.789C269.193 239.145 269.015 238.605 268.66 238.172C268.308 237.734 267.783 237.516 267.084 237.516C266.385 237.516 265.857 237.734 265.502 238.172C265.146 238.605 264.969 239.145 264.969 239.789ZM271.988 236.766H273.113V239.379H276.418V236.766H277.543V243H276.418V240.27H273.113V243H271.988V236.766ZM279.552 243V236.766H280.665V240.738C280.665 240.855 280.663 240.988 280.66 241.137C280.66 241.285 280.658 241.42 280.654 241.541H280.701C280.755 241.436 280.816 241.324 280.882 241.207C280.949 241.09 281.025 240.973 281.111 240.855L284.046 236.766H285.177V243H284.058V239.033C284.058 238.912 284.06 238.777 284.064 238.629C284.068 238.477 284.074 238.34 284.081 238.219H284.017C283.966 238.32 283.908 238.432 283.841 238.553C283.775 238.674 283.701 238.793 283.619 238.91L280.683 243H279.552ZM286.495 237.65V236.766H292.062V237.65H289.841V243H288.716V237.65H286.495ZM293.022 239.977V239.789C293.022 238.848 293.317 238.08 293.907 237.486C294.501 236.889 295.294 236.59 296.286 236.59C297.274 236.59 298.065 236.889 298.659 237.486C299.253 238.08 299.55 238.848 299.55 239.789V239.977C299.55 240.918 299.253 241.688 298.659 242.285C298.065 242.879 297.274 243.176 296.286 243.176C295.294 243.176 294.501 242.879 293.907 242.285C293.317 241.688 293.022 240.918 293.022 239.977ZM294.171 239.789V239.977C294.171 240.617 294.349 241.156 294.704 241.594C295.059 242.031 295.587 242.25 296.286 242.25C296.985 242.25 297.511 242.031 297.862 241.594C298.218 241.156 298.395 240.617 298.395 239.977V239.789C298.395 239.145 298.218 238.605 297.862 238.172C297.511 237.734 296.985 237.516 296.286 237.516C295.587 237.516 295.059 237.734 294.704 238.172C294.349 238.605 294.171 239.145 294.171 239.789ZM301.19 245.438V236.766H302.21L302.262 237.621H302.286C302.473 237.352 302.756 237.123 303.135 236.936C303.514 236.744 303.958 236.648 304.465 236.648C305.34 236.648 306.04 236.945 306.563 237.539C307.09 238.129 307.354 238.879 307.354 239.789V239.977C307.354 240.883 307.09 241.633 306.563 242.227C306.04 242.82 305.34 243.117 304.465 243.117C303.958 243.117 303.526 243.035 303.171 242.871C302.815 242.707 302.53 242.49 302.315 242.221V245.438H301.19ZM302.315 241.084C302.456 241.373 302.688 241.631 303.012 241.857C303.337 242.08 303.731 242.191 304.196 242.191C304.887 242.191 305.393 241.98 305.714 241.559C306.038 241.133 306.2 240.605 306.2 239.977V239.789C306.2 239.156 306.038 238.629 305.714 238.207C305.393 237.785 304.887 237.574 304.196 237.574C303.731 237.574 303.337 237.688 303.012 237.914C302.692 238.137 302.46 238.393 302.315 238.682V241.084ZM309 243V236.766H310.114V240.738C310.114 240.855 310.112 240.988 310.108 241.137C310.108 241.285 310.106 241.42 310.102 241.541H310.149C310.204 241.436 310.264 241.324 310.33 241.207C310.397 241.09 310.473 240.973 310.559 240.855L313.495 236.766H314.625V243H313.506V239.033C313.506 238.912 313.508 238.777 313.512 238.629C313.516 238.477 313.522 238.34 313.53 238.219H313.465C313.414 238.32 313.356 238.432 313.289 238.553C313.223 238.674 313.149 238.793 313.067 238.91L310.131 243H309ZM316.635 236.766H317.76V239.379H321.065V236.766H322.19V243H321.065V240.27H317.76V243H316.635V236.766ZM324.199 236.766H328.676V237.65H325.324V243H324.199V236.766Z" fill="#04101C"/>
</g>
<g filter="url(#filter3_d_493_113413)">
<rect x="276" y="306" width="68" height="94" rx="12" fill="white"/>
<path d="M320.965 352.6H318C317.506 350.8 315.9 349.6 313.924 349.6C311.576 349.6 309.6 351.52 309.6 353.8C309.6 356.08 311.576 358 313.924 358C315.9 358 317.506 356.8 318 355H320.965C321.706 355 322.2 354.4 322.2 353.8C322.2 353.08 321.706 352.6 320.965 352.6ZM313.924 355.6C312.935 355.6 312.071 354.76 312.071 353.8C312.071 352.84 312.935 352 313.924 352C314.912 352 315.776 352.84 315.776 353.8C315.776 354.76 314.912 355.6 313.924 355.6Z" fill="url(#paint6_radial_493_113413)"/>
<path d="M307.009 352.4H298.191C297.477 352.4 297 353.1 297 353.8C297 354.64 297.596 355.2 298.191 355.2H307.009C307.723 355.2 308.2 354.5 308.2 353.8C308.2 352.96 307.604 352.4 307.009 352.4Z" fill="url(#paint7_radial_493_113413)"/>
<path d="M298.191 335.6H307.009C307.723 335.6 308.2 334.9 308.2 334.2C308.2 333.5 307.604 332.8 307.009 332.8H298.191C297.477 332.8 297 333.5 297 334.2C297 334.9 297.596 335.6 298.191 335.6Z" fill="url(#paint8_radial_493_113413)"/>
<path d="M313.924 338.4C315.9 338.4 317.506 337.2 318 335.4H320.965C321.706 335.4 322.2 334.8 322.2 334.2C322.2 333.6 321.582 333 320.965 333H318C317.506 331.2 315.9 330 313.924 330C311.576 330 309.6 331.92 309.6 334.2C309.6 336.48 311.576 338.4 313.924 338.4ZM313.924 332.4C314.912 332.4 315.776 333.24 315.776 334.2C315.776 335.16 314.912 336 313.924 336C312.935 336 312.071 335.16 312.071 334.2C312.071 333.24 312.935 332.4 313.924 332.4Z" fill="url(#paint9_radial_493_113413)"/>
<path d="M298.235 345.2H301.2C301.694 346.88 303.3 348.2 305.276 348.2C307.624 348.2 309.6 346.28 309.6 344C309.6 341.72 307.624 339.8 305.276 339.8C303.3 339.8 301.694 341 301.2 342.8H298.235C297.494 342.8 297 343.4 297 344C297 344.6 297.618 345.2 298.235 345.2ZM305.276 342.2C306.265 342.2 307.129 343.04 307.129 344C307.129 344.96 306.265 345.8 305.276 345.8C304.288 345.8 303.424 344.96 303.424 344C303.424 343.04 304.288 342.2 305.276 342.2Z" fill="url(#paint10_radial_493_113413)"/>
<path d="M320.996 342.6H312.204C311.482 342.6 311 343.3 311 344C311 344.7 311.602 345.4 312.204 345.4H320.996C321.718 345.4 322.2 344.7 322.2 344C322.2 343.3 321.718 342.6 320.996 342.6Z" fill="url(#paint11_radial_493_113413)"/>
<path d="M296.272 375.951V375.518C296.272 374.182 296.639 373.145 297.373 372.406C298.108 371.664 299.049 371.293 300.198 371.293C301.35 371.293 302.293 371.664 303.028 372.406C303.762 373.145 304.129 374.182 304.129 375.518V375.951C304.129 377.287 303.762 378.326 303.028 379.068C302.293 379.807 301.35 380.176 300.198 380.176C299.049 380.176 298.108 379.807 297.373 379.068C296.639 378.326 296.272 377.287 296.272 375.951ZM297.449 375.951C297.449 376.967 297.699 377.76 298.199 378.33C298.703 378.896 299.371 379.18 300.203 379.18C301.031 379.18 301.698 378.896 302.201 378.33C302.705 377.76 302.957 376.967 302.957 375.951V375.518C302.957 374.502 302.705 373.711 302.201 373.145C301.698 372.574 301.031 372.289 300.203 372.289C299.371 372.289 298.703 372.574 298.199 373.145C297.699 373.711 297.449 374.502 297.449 375.518V375.951ZM306.074 380V371.469H309.104C310.096 371.469 310.863 371.697 311.406 372.154C311.949 372.611 312.221 373.225 312.221 373.994C312.221 374.764 311.949 375.383 311.406 375.852C310.863 376.32 310.096 376.555 309.104 376.555H307.24V380H306.074ZM307.24 375.605H309.104C309.834 375.605 310.342 375.451 310.627 375.143C310.912 374.83 311.055 374.447 311.055 373.994C311.055 373.541 310.912 373.166 310.627 372.869C310.342 372.568 309.834 372.418 309.104 372.418H307.24V375.605ZM311.365 380L309.127 376.068L310.322 375.922L312.695 380H311.365ZM314.201 380V371.469H315.724L318.496 377.885C318.547 378.002 318.595 378.125 318.642 378.254C318.693 378.379 318.738 378.496 318.777 378.605H318.824C318.859 378.496 318.9 378.379 318.947 378.254C318.994 378.125 319.043 378.002 319.094 377.885L321.847 371.469H323.4V380H322.275V373.73C322.275 373.613 322.277 373.482 322.281 373.338C322.289 373.189 322.301 373.057 322.316 372.939H322.263C322.232 373.057 322.189 373.189 322.135 373.338C322.084 373.482 322.033 373.613 321.982 373.73L319.299 380H318.261L315.56 373.73C315.51 373.613 315.459 373.482 315.408 373.338C315.361 373.189 315.324 373.057 315.297 372.939H315.244C315.256 373.057 315.265 373.189 315.273 373.338C315.285 373.482 315.291 373.613 315.291 373.73V380H314.201Z" fill="#04101C"/>
</g>
<defs>
<filter id="filter0_d_493_113413" x="225" y="0" width="101" height="114" filterUnits="userSpaceOnUse" color-interpolation-filters="sRGB">
<feFlood flood-opacity="0" result="BackgroundImageFix"/>
<feColorMatrix in="SourceAlpha" type="matrix" values="0 0 0 0 0 0 0 0 0 0 0 0 0 0 0 0 0 0 127 0" result="hardAlpha"/>
<feOffset dx="1" dy="2"/>
<feGaussianBlur stdDeviation="5"/>
<feComposite in2="hardAlpha" operator="out"/>
<feColorMatrix type="matrix" values="0 0 0 0 0.00780001 0 0 0 0 0.045344 0 0 0 0 0.0800001 0 0 0 0.04 0"/>
<feBlend mode="normal" in2="BackgroundImageFix" result="effect1_dropShadow_493_113413"/>
<feBlend mode="normal" in="SourceGraphic" in2="effect1_dropShadow_493_113413" result="shape"/>
</filter>
<filter id="filter1_d_493_113413" x="346" y="0" width="88" height="114" filterUnits="userSpaceOnUse" color-interpolation-filters="sRGB">
<feFlood flood-opacity="0" result="BackgroundImageFix"/>
<feColorMatrix in="SourceAlpha" type="matrix" values="0 0 0 0 0 0 0 0 0 0 0 0 0 0 0 0 0 0 127 0" result="hardAlpha"/>
<feOffset dx="1" dy="2"/>
<feGaussianBlur stdDeviation="5"/>
<feComposite in2="hardAlpha" operator="out"/>
<feColorMatrix type="matrix" values="0 0 0 0 0.00780001 0 0 0 0 0.045344 0 0 0 0 0.0800001 0 0 0 0.04 0"/>
<feBlend mode="normal" in2="BackgroundImageFix" result="effect1_dropShadow_493_113413"/>
<feBlend mode="normal" in="SourceGraphic" in2="effect1_dropShadow_493_113413" result="shape"/>
</filter>
<filter id="filter2_d_493_113413" x="225" y="161" width="133" height="114" filterUnits="userSpaceOnUse" color-interpolation-filters="sRGB">
<feFlood flood-opacity="0" result="BackgroundImageFix"/>
<feColorMatrix in="SourceAlpha" type="matrix" values="0 0 0 0 0 0 0 0 0 0 0 0 0 0 0 0 0 0 127 0" result="hardAlpha"/>
<feOffset dx="1" dy="2"/>
<feGaussianBlur stdDeviation="5"/>
<feComposite in2="hardAlpha" operator="out"/>
<feColorMatrix type="matrix" values="0 0 0 0 0.00780001 0 0 0 0 0.045344 0 0 0 0 0.0800001 0 0 0 0.04 0"/>
<feBlend mode="normal" in2="BackgroundImageFix" result="effect1_dropShadow_493_113413"/>
<feBlend mode="normal" in="SourceGraphic" in2="effect1_dropShadow_493_113413" result="shape"/>
</filter>
<filter id="filter3_d_493_113413" x="267" y="298" width="88" height="114" filterUnits="userSpaceOnUse" color-interpolation-filters="sRGB">
<feFlood flood-opacity="0" result="BackgroundImageFix"/>
<feColorMatrix in="SourceAlpha" type="matrix" values="0 0 0 0 0 0 0 0 0 0 0 0 0 0 0 0 0 0 127 0" result="hardAlpha"/>
<feOffset dx="1" dy="2"/>
<feGaussianBlur stdDeviation="5"/>
<feComposite in2="hardAlpha" operator="out"/>
<feColorMatrix type="matrix" values="0 0 0 0 0.00780001 0 0 0 0 0.045344 0 0 0 0 0.0800001 0 0 0 0.04 0"/>
<feBlend mode="normal" in2="BackgroundImageFix" result="effect1_dropShadow_493_113413"/>
<feBlend mode="normal" in="SourceGraphic" in2="effect1_dropShadow_493_113413" result="shape"/>
</filter>
<radialGradient id="paint0_radial_493_113413" cx="0" cy="0" r="1" gradientUnits="userSpaceOnUse" gradientTransform="translate(274.598 46) rotate(100.474) scale(17.7965 19.1035)">
<stop offset="0.055" stop-color="#7A73FF"/>
<stop offset="0.65" stop-color="#67DDFA"/>
<stop offset="1" stop-color="#4AFCF1"/>
</radialGradient>
<radialGradient id="paint1_radial_493_113413" cx="0" cy="0" r="1" gradientUnits="userSpaceOnUse" gradientTransform="translate(389.5 46) rotate(99.7276) scale(17.7553)">
<stop offset="0.055" stop-color="#7A73FF"/>
<stop offset="0.65" stop-color="#67DDFA"/>
<stop offset="1" stop-color="#4AFCF1"/>
</radialGradient>
<linearGradient id="paint2_linear_493_113413" x1="218.084" y1="200.041" x2="300.919" y2="321.923" gradientUnits="userSpaceOnUse">
<stop offset="0.338542" stop-color="#7A73FF"/>
<stop offset="0.734375" stop-color="#75CDFF"/>
<stop offset="1" stop-color="#4AFCF1"/>
</linearGradient>
<linearGradient id="paint3_linear_493_113413" x1="262" y1="64.3125" x2="268.784" y2="64.6059" gradientUnits="userSpaceOnUse">
<stop offset="0.338542" stop-color="#7A73FF"/>
<stop offset="0.734375" stop-color="#75CDFF"/>
<stop offset="1" stop-color="#4AFCF1"/>
</linearGradient>
<linearGradient id="paint4_linear_493_113413" x1="212.875" y1="236" x2="411.695" y2="119.272" gradientUnits="userSpaceOnUse">
<stop offset="0.338542" stop-color="#7A73FF"/>
<stop offset="0.734375" stop-color="#75CDFF"/>
<stop offset="1" stop-color="#4AFCF1"/>
</linearGradient>
<radialGradient id="paint5_radial_493_113413" cx="0" cy="0" r="1" gradientUnits="userSpaceOnUse" gradientTransform="translate(291.5 207.5) rotate(99.7276) scale(18.3894)">
<stop offset="0.055" stop-color="#7A73FF"/>
<stop offset="0.65" stop-color="#67DDFA"/>
<stop offset="1" stop-color="#4AFCF1"/>
</radialGradient>
<radialGradient id="paint6_radial_493_113413" cx="0" cy="0" r="1" gradientUnits="userSpaceOnUse" gradientTransform="translate(309.6 344) rotate(98.7708) scale(17.7071 16.0233)">
<stop offset="0.055" stop-color="#7A73FF"/>
<stop offset="0.65" stop-color="#67DDFA"/>
<stop offset="1" stop-color="#4AFCF1"/>
</radialGradient>
<radialGradient id="paint7_radial_493_113413" cx="0" cy="0" r="1" gradientUnits="userSpaceOnUse" gradientTransform="translate(309.6 344) rotate(98.7708) scale(17.7071 16.0233)">
<stop offset="0.055" stop-color="#7A73FF"/>
<stop offset="0.65" stop-color="#67DDFA"/>
<stop offset="1" stop-color="#4AFCF1"/>
</radialGradient>
<radialGradient id="paint8_radial_493_113413" cx="0" cy="0" r="1" gradientUnits="userSpaceOnUse" gradientTransform="translate(309.6 344) rotate(98.7708) scale(17.7071 16.0233)">
<stop offset="0.055" stop-color="#7A73FF"/>
<stop offset="0.65" stop-color="#67DDFA"/>
<stop offset="1" stop-color="#4AFCF1"/>
</radialGradient>
<radialGradient id="paint9_radial_493_113413" cx="0" cy="0" r="1" gradientUnits="userSpaceOnUse" gradientTransform="translate(309.6 344) rotate(98.7708) scale(17.7071 16.0233)">
<stop offset="0.055" stop-color="#7A73FF"/>
<stop offset="0.65" stop-color="#67DDFA"/>
<stop offset="1" stop-color="#4AFCF1"/>
</radialGradient>
<radialGradient id="paint10_radial_493_113413" cx="0" cy="0" r="1" gradientUnits="userSpaceOnUse" gradientTransform="translate(309.6 344) rotate(98.7708) scale(17.7071 16.0233)">
<stop offset="0.055" stop-color="#7A73FF"/>
<stop offset="0.65" stop-color="#67DDFA"/>
<stop offset="1" stop-color="#4AFCF1"/>
</radialGradient>
<radialGradient id="paint11_radial_493_113413" cx="0" cy="0" r="1" gradientUnits="userSpaceOnUse" gradientTransform="translate(309.6 344) rotate(98.7708) scale(17.7071 16.0233)">
<stop offset="0.055" stop-color="#7A73FF"/>
<stop offset="0.65" stop-color="#67DDFA"/>
<stop offset="1" stop-color="#4AFCF1"/>
</radialGradient>
</defs>
</svg>
