<svg width="788" height="874" viewBox="0 0 788 874" fill="none" xmlns="http://www.w3.org/2000/svg">
<g filter="url(#filter0_d_493_113485)">
<rect x="382" y="299" width="88" height="90" rx="12" fill="white"/>
<path fill-rule="evenodd" clip-rule="evenodd" d="M426 353C434.837 353 442 345.837 442 337C442 331.866 439.582 327.297 435.823 324.37L433.181 322.698C431.022 321.612 428.582 321 426 321C417.163 321 410 328.163 410 337C410 345.837 417.163 353 426 353ZM433.181 322.698V330.292C431.317 328.202 428.622 326.889 425.625 326.889C419.999 326.889 415.437 331.517 415.437 337.226C415.437 342.935 419.999 347.563 425.625 347.563C428.622 347.563 431.317 346.25 433.181 344.16L433.107 346.311C433.097 346.614 433.339 346.864 433.642 346.864H435.358C435.654 346.864 435.893 346.624 435.892 346.328L435.823 324.37L433.181 322.698ZM433.606 337.226C433.606 341.525 430.166 345.01 425.922 345.01C421.679 345.01 418.239 341.525 418.239 337.226C418.239 332.927 421.679 329.441 425.922 329.441C430.166 329.441 433.606 332.927 433.606 337.226Z" fill="url(#paint0_radial_493_113485)"/>
<path d="M400.513 365H403.556C406.733 365 408.071 366.269 408.071 369C408.071 371.731 406.733 373 403.556 373H400.513C400.234 373 400 372.771 400 372.486V365.537C400 365.24 400.223 365 400.513 365ZM403.5 366.577H402.051V371.423H403.5C405.496 371.423 406.02 370.714 406.02 369C406.02 367.286 405.496 366.577 403.5 366.577Z" fill="#04101C"/>
<path d="M408.541 372.486L409.913 367.171C410.37 365.4 411.941 365 413.524 365H416.456C416.724 365 416.924 365.24 416.924 365.514V372.486C416.924 372.771 416.69 373 416.412 373H415.386C415.096 373 414.873 372.771 414.873 372.474V371.069H411.005L410.637 372.474C410.559 372.771 410.28 373 409.991 373H408.92C408.631 373 408.463 372.771 408.541 372.486ZM411.886 367.697L411.406 369.491H414.873V366.577H413.324C412.621 366.577 412.064 367.011 411.886 367.697Z" fill="#04101C"/>
<path d="M420.815 372.486V370.143L417.905 365.526C417.738 365.263 417.816 365 418.095 365H419.131C419.577 365 419.89 365.229 420.079 365.526L421.84 368.314L423.602 365.526C423.791 365.229 424.103 365 424.549 365H425.586C425.865 365 425.943 365.263 425.775 365.526L422.866 370.143V372.486C422.866 372.771 422.632 373 422.353 373H421.328C421.049 373 420.815 372.771 420.815 372.486Z" fill="#04101C"/>
<path d="M428.23 373H427.271C426.993 373 426.759 372.76 426.759 372.474V365.526C426.759 365.24 426.981 365 427.26 365H428.865C429.133 365 429.445 365.263 429.612 365.526L432.901 370.714V365.514C432.901 365.229 433.135 365 433.414 365H434.35C434.64 365 434.863 365.229 434.863 365.526V372.474C434.863 372.76 434.64 373 434.35 373H432.544C432.254 373 431.931 372.76 431.753 372.474L428.743 367.686V372.474C428.743 372.76 428.509 373 428.23 373Z" fill="#04101C"/>
<path d="M443.214 365C443.493 365 443.727 365.229 443.727 365.526V366.051C443.727 366.349 443.493 366.577 443.214 366.577H438.477V368.2H442.557C442.835 368.2 443.069 368.44 443.069 368.726V369.251C443.069 369.537 442.835 369.777 442.557 369.777H438.477V371.423H443.203C443.482 371.423 443.705 371.651 443.705 371.937V372.474C443.705 372.76 443.482 373 443.192 373H436.938C436.648 373 436.426 372.76 436.426 372.463V365.514C436.426 365.229 436.66 365 436.938 365H443.214Z" fill="#04101C"/>
<path d="M444.576 365H451.487C451.777 365 452 365.229 452 365.526V366.051C452 366.349 451.777 366.577 451.487 366.577H449.057V372.486C449.057 372.771 448.823 373 448.544 373H447.519C447.24 373 447.006 372.771 447.006 372.486V366.577H444.576C444.286 366.577 444.063 366.349 444.063 366.051V365.526C444.063 365.229 444.286 365 444.576 365Z" fill="#04101C"/>
</g>
<rect x="232.5" y="164.5" width="67" height="67" rx="11.5" fill="#F9FBFF"/>
<rect x="232.5" y="164.5" width="67" height="67" rx="11.5" stroke="#ECECEC"/>
<path d="M276.732 184.433C276.155 183.856 275.289 183.856 274.713 184.433C274.136 185.01 274.136 185.876 274.713 186.453C277.309 189.05 278.751 192.512 278.751 196.264C278.751 200.015 277.309 203.478 274.713 206.075C272.116 208.672 268.655 210.114 264.904 210.114C261.731 210.114 258.558 208.96 256.106 206.94L257.981 204.92C260 206.507 262.452 207.229 264.76 207.229C267.645 207.229 270.385 206.219 272.549 204.055C276.876 199.726 276.876 192.657 272.549 188.473C268.222 184.144 261.154 184.144 256.971 188.473C253.077 192.368 252.644 198.572 255.962 202.9L252.933 206.075C252.356 206.652 252.356 207.517 252.933 208.095C256.106 211.269 260.289 213 264.76 213C269.232 213 273.414 211.269 276.588 208.095C279.761 204.92 281.492 200.736 281.492 196.264C281.636 191.791 279.905 187.607 276.732 184.433ZM259.135 190.493C260.722 188.905 262.885 188.04 264.904 188.04C267.068 188.04 269.087 188.905 270.674 190.493C273.847 193.667 273.847 198.861 270.674 202.035C267.501 205.209 262.308 205.209 259.135 202.035C255.962 198.861 255.962 193.667 259.135 190.493Z" fill="#ECECEC"/>
<rect x="163.5" y="297.5" width="67" height="67" rx="11.5" fill="#F9FBFF"/>
<rect x="163.5" y="297.5" width="67" height="67" rx="11.5" stroke="#ECECEC"/>
<path d="M209.854 318.617C208.03 316.793 204.943 316.512 201.295 317.775C200.032 318.196 198.77 318.898 197.507 319.599C192.456 316.652 187.686 316.091 185.16 318.617C182.495 321.143 183.196 325.914 186.142 330.967C183.056 336.159 182.635 340.93 185.16 343.316C186.142 344.439 187.686 345 189.51 345C191.895 345 194.701 344.018 197.507 342.334C200.313 344.018 203.119 345 205.504 345C207.328 345 208.731 344.439 209.854 343.456C212.379 340.93 211.818 336.159 208.872 331.107C211.958 325.774 212.379 321.003 209.854 318.617ZM202.137 320.441C204.803 319.459 206.767 319.599 207.889 320.582C209.152 321.845 208.872 324.932 207.188 328.3C206.206 327.037 205.224 325.774 203.961 324.511C202.698 323.248 201.436 322.266 200.173 321.283C200.874 321.003 201.576 320.582 202.137 320.441ZM187.125 341.351C185.862 340.088 186.142 337.001 187.826 333.633C188.808 334.896 189.79 336.159 191.053 337.422C192.316 338.685 193.579 339.808 194.841 340.65C191.334 342.474 188.387 342.614 187.125 341.351ZM207.889 341.351C206.627 342.614 203.68 342.334 200.032 340.65C201.295 339.667 202.558 338.545 203.821 337.422C204.382 336.861 204.943 336.299 205.364 335.738C205.925 335.177 205.785 334.335 205.224 333.773C204.662 333.212 203.821 333.352 203.259 333.914C202.839 334.475 202.277 334.896 201.856 335.457C200.453 336.861 198.91 338.124 197.507 339.106C196.104 338.124 194.561 336.861 193.158 335.457C186.984 329.282 185.02 322.687 187.125 320.582C187.546 320.02 188.387 319.74 189.51 319.74C190.913 319.74 192.877 320.301 194.841 321.283C193.579 322.266 192.316 323.388 191.053 324.511C190.492 325.213 189.79 325.914 189.229 326.616C188.668 327.177 188.808 328.019 189.369 328.581C189.931 329.142 190.913 329.002 191.334 328.44C191.895 327.739 192.456 327.177 193.017 326.616C194.42 325.213 195.964 323.95 197.367 322.967C198.77 323.95 200.313 325.213 201.856 326.616C208.03 332.651 209.994 339.246 207.889 341.351Z" fill="#ECECEC"/>
<path d="M197.5 333.24C198.737 333.24 199.74 332.237 199.74 331C199.74 329.763 198.737 328.76 197.5 328.76C196.263 328.76 195.26 329.763 195.26 331C195.26 332.237 196.263 333.24 197.5 333.24Z" fill="#ECECEC"/>
<rect x="100.5" y="430.5" width="67" height="67" rx="11.5" fill="#F9FBFF"/>
<rect x="100.5" y="430.5" width="67" height="67" rx="11.5" stroke="#ECECEC"/>
<path fill-rule="evenodd" clip-rule="evenodd" d="M120.549 456.284C118.292 454.023 119.912 450 123.179 450H143.825C147.092 450 148.712 454.023 146.455 456.284C146.454 456.286 146.453 456.287 146.451 456.288L138.301 464.548V471.769C138.301 472.929 137.738 474.159 136.656 474.83L132.658 477.575L132.641 477.586C131.751 478.179 130.726 478.077 129.989 477.643C129.268 477.217 128.703 476.408 128.703 475.415V464.548L120.549 456.284ZM122.38 453.364C122.231 453.725 122.299 454.075 122.531 454.307L122.539 454.314L131.099 462.99C131.358 463.252 131.503 463.605 131.503 463.973V474.972L135.102 472.501C135.125 472.484 135.15 472.469 135.174 472.454C135.324 472.365 135.501 472.103 135.501 471.769V463.973C135.501 463.605 135.646 463.252 135.905 462.99L144.473 454.307C144.705 454.075 144.773 453.725 144.624 453.364C144.478 453.01 144.187 452.8 143.825 452.8H123.179C122.817 452.8 122.526 453.01 122.38 453.364Z" fill="#ECECEC"/>
<rect x="243.5" y="430.5" width="67" height="67" rx="11.5" fill="#F9FBFF"/>
<rect x="243.5" y="430.5" width="67" height="67" rx="11.5" stroke="#ECECEC"/>
<path fill-rule="evenodd" clip-rule="evenodd" d="M274.916 450.491C276.388 449.836 278.033 449.836 279.505 450.491L279.527 450.502L287.396 454.188C287.406 454.193 287.416 454.197 287.426 454.202C289.189 455.085 290.233 457.025 289.889 459.105C289.234 463.165 287.253 471.169 279.91 477.053L279.896 477.064C278.294 478.312 276.127 478.312 274.524 477.064L274.511 477.053C267.165 471.168 265.185 463.161 264.532 459.102C264.527 459.073 264.523 459.044 264.521 459.015C264.358 457.218 265.158 455.102 267.154 454.187L274.886 450.505C274.896 450.5 274.906 450.496 274.916 450.491ZM275.965 452.811L268.239 456.489L268.219 456.499C267.441 456.853 266.978 457.763 267.052 458.744C267.675 462.577 269.513 469.782 276.095 475.061C276.774 475.586 277.646 475.586 278.326 475.061C284.935 469.761 286.761 462.517 287.376 458.697L287.377 458.691C287.538 457.726 287.066 456.876 286.299 456.485L278.459 452.812C277.654 452.457 276.77 452.457 275.965 452.811Z" fill="#ECECEC"/>
<path fill-rule="evenodd" clip-rule="evenodd" d="M283.08 457.89C283.643 458.311 283.758 459.108 283.337 459.671L277.626 467.308C277.387 467.627 277.011 467.816 276.612 467.818C276.213 467.82 275.836 467.634 275.594 467.316L272.396 463.116C271.97 462.557 272.078 461.759 272.638 461.333C273.197 460.907 273.995 461.015 274.421 461.574L276.598 464.433L281.298 458.147C281.719 457.584 282.517 457.469 283.08 457.89Z" fill="#ECECEC"/>
<rect x="274.5" y="297.5" width="67" height="67" rx="11.5" fill="#F9FBFF"/>
<rect x="274.5" y="297.5" width="67" height="67" rx="11.5" stroke="#ECECEC"/>
<path d="M318.965 339.6H316C315.506 337.8 313.9 336.6 311.924 336.6C309.576 336.6 307.6 338.52 307.6 340.8C307.6 343.08 309.576 345 311.924 345C313.9 345 315.506 343.8 316 342H318.965C319.706 342 320.2 341.4 320.2 340.8C320.2 340.08 319.706 339.6 318.965 339.6ZM311.924 342.6C310.935 342.6 310.071 341.76 310.071 340.8C310.071 339.84 310.935 339 311.924 339C312.912 339 313.776 339.84 313.776 340.8C313.776 341.76 312.912 342.6 311.924 342.6Z" fill="#ECECEC"/>
<path d="M305.009 339.4H296.191C295.477 339.4 295 340.1 295 340.8C295 341.64 295.596 342.2 296.191 342.2H305.009C305.723 342.2 306.2 341.5 306.2 340.8C306.2 339.96 305.604 339.4 305.009 339.4Z" fill="#ECECEC"/>
<path d="M296.191 322.6H305.009C305.723 322.6 306.2 321.9 306.2 321.2C306.2 320.5 305.604 319.8 305.009 319.8H296.191C295.477 319.8 295 320.5 295 321.2C295 321.9 295.596 322.6 296.191 322.6Z" fill="#ECECEC"/>
<path d="M311.924 325.4C313.9 325.4 315.506 324.2 316 322.4H318.965C319.706 322.4 320.2 321.8 320.2 321.2C320.2 320.6 319.582 320 318.965 320H316C315.506 318.2 313.9 317 311.924 317C309.576 317 307.6 318.92 307.6 321.2C307.6 323.48 309.576 325.4 311.924 325.4ZM311.924 319.4C312.912 319.4 313.776 320.24 313.776 321.2C313.776 322.16 312.912 323 311.924 323C310.935 323 310.071 322.16 310.071 321.2C310.071 320.24 310.935 319.4 311.924 319.4Z" fill="#ECECEC"/>
<path d="M296.235 332.2H299.2C299.694 333.88 301.3 335.2 303.276 335.2C305.624 335.2 307.6 333.28 307.6 331C307.6 328.72 305.624 326.8 303.276 326.8C301.3 326.8 299.694 328 299.2 329.8H296.235C295.494 329.8 295 330.4 295 331C295 331.6 295.618 332.2 296.235 332.2ZM303.276 329.2C304.265 329.2 305.129 330.04 305.129 331C305.129 331.96 304.265 332.8 303.276 332.8C302.288 332.8 301.424 331.96 301.424 331C301.424 330.04 302.288 329.2 303.276 329.2Z" fill="#ECECEC"/>
<path d="M318.996 329.6H310.204C309.482 329.6 309 330.3 309 331C309 331.7 309.602 332.4 310.204 332.4H318.996C319.718 332.4 320.2 331.7 320.2 331C320.2 330.3 319.718 329.6 318.996 329.6Z" fill="#ECECEC"/>
<rect x="116.5" y="729.5" width="67" height="67" rx="11.5" fill="#F9FBFF"/>
<rect x="116.5" y="729.5" width="67" height="67" rx="11.5" stroke="#ECECEC"/>
<path d="M164.653 759.021C161.705 756.516 156.842 753.421 150.211 753.421C149.474 753.421 148.737 753.421 148.295 753.568C147.411 753.716 146.821 754.453 146.968 755.337C147.116 756.074 147.853 756.663 148.589 756.663C149.032 756.663 149.621 756.516 150.211 756.516C155.958 756.516 160.232 759.168 162.737 761.379C163.179 761.674 163.474 762.263 163.474 763C163.474 763.737 163.179 764.179 162.737 764.621C161.853 765.358 160.821 766.095 159.789 766.684C159.053 767.126 158.905 768.011 159.2 768.747C159.495 769.189 159.937 769.484 160.526 769.484C160.821 769.484 160.968 769.484 161.263 769.337C162.442 768.6 163.621 767.863 164.653 766.979C165.832 765.947 166.421 764.621 166.421 763.147C166.421 761.379 165.832 760.053 164.653 759.021Z" fill="#ECECEC"/>
<path d="M138.716 749.442C138.126 748.853 137.242 748.853 136.653 749.442C136.063 750.032 136.063 750.916 136.653 751.505L140.779 755.632C138.716 756.811 136.947 758.137 135.768 759.021C134.589 760.053 134 761.379 134 763C134 764.621 134.589 765.947 135.768 766.832C138.716 769.337 143.579 772.432 150.211 772.432C152.421 772.432 154.484 772.137 156.547 771.4L161.705 776.558C162 776.853 162.442 777 162.737 777C163.032 777 163.474 776.853 163.768 776.558C164.358 775.968 164.358 775.084 163.768 774.495L138.716 749.442ZM150.211 769.337C144.463 769.337 140.189 766.684 137.684 764.474C137.242 764.179 136.947 763.589 136.947 763C136.947 762.411 137.242 761.821 137.684 761.379C138.863 760.347 140.779 759.021 143.137 757.989L146.968 761.821C146.821 762.116 146.821 762.558 146.821 763C146.821 764.916 148.295 766.389 150.211 766.389C150.653 766.389 150.947 766.242 151.389 766.242L154.189 769.042C152.863 769.189 151.537 769.337 150.211 769.337Z" fill="#ECECEC"/>
<rect x="88.5" y="164.5" width="67" height="67" rx="11.5" fill="#F9FBFF"/>
<rect x="88.5" y="164.5" width="67" height="67" rx="11.5" stroke="#ECECEC"/>
<path d="M126.8 205.14C126.8 204.3 126.24 203.74 125.4 203.74H111.26C110.14 203.74 109.3 202.9 109.3 201.78V194.22C109.3 193.1 110.14 192.26 111.26 192.26H125.4C126.24 192.26 126.8 191.7 126.8 190.86C126.8 190.02 126.24 189.46 125.4 189.46H111.26C108.6 189.46 106.5 191.56 106.5 194.22V201.78C106.5 204.44 108.6 206.54 111.26 206.54H125.4C126.1 206.54 126.8 205.98 126.8 205.14Z" fill="#ECECEC"/>
<path d="M132.54 189.46H131.28V186.8H133.38C134.22 186.8 134.78 186.24 134.78 185.4C134.78 184.56 134.22 184 133.38 184H126.52C125.68 184 125.12 184.56 125.12 185.4C125.12 186.24 125.68 186.8 126.52 186.8H128.62V209.2H126.52C125.68 209.2 125.12 209.76 125.12 210.6C125.12 211.44 125.68 212 126.52 212H133.38C134.22 212 134.78 211.44 134.78 210.6C134.78 209.76 134.22 209.2 133.38 209.2H131.28V206.54H132.54C135.2 206.54 137.3 204.44 137.3 201.78V194.22C137.3 191.56 135.2 189.46 132.54 189.46ZM134.5 201.78C134.5 202.9 133.66 203.74 132.54 203.74H131.28V192.26H132.54C133.66 192.26 134.5 193.1 134.5 194.22V201.78Z" fill="#ECECEC"/>
<g filter="url(#filter1_d_493_113485)">
<rect x="510" y="164" width="115" height="94" rx="12" fill="white"/>
<path d="M580.1 190.8H554.9C554.06 190.8 553.5 190.24 553.5 189.4C553.5 188.56 554.06 188 554.9 188H580.1C580.94 188 581.5 188.56 581.5 189.4C581.5 190.24 580.94 190.8 580.1 190.8Z" fill="url(#paint1_radial_493_113485)"/>
<path d="M580.1 207.6H567.5C566.66 207.6 566.1 207.04 566.1 206.2C566.1 205.36 566.66 204.8 567.5 204.8H580.1C580.94 204.8 581.5 205.36 581.5 206.2C581.5 207.04 580.94 207.6 580.1 207.6Z" fill="url(#paint2_radial_493_113485)"/>
<path d="M580.1 199.2H567.5C566.66 199.2 566.1 198.64 566.1 197.8C566.1 196.96 566.66 196.4 567.5 196.4H580.1C580.94 196.4 581.5 196.96 581.5 197.8C581.5 198.64 580.94 199.2 580.1 199.2Z" fill="url(#paint3_radial_493_113485)"/>
<path d="M580.1 216H554.9C554.06 216 553.5 215.44 553.5 214.6C553.5 213.76 554.06 213.2 554.9 213.2H580.1C580.94 213.2 581.5 213.76 581.5 214.6C581.5 215.44 580.94 216 580.1 216Z" fill="url(#paint4_radial_493_113485)"/>
<path d="M556.02 209.14C555.6 209.14 555.18 209 554.9 208.86C554.06 208.44 553.5 207.6 553.5 206.62V197.38C553.5 196.4 554.06 195.56 554.9 195.14C555.74 194.72 556.72 194.86 557.56 195.42L563.72 200.04C564.28 200.46 564.7 201.16 564.7 202C564.7 202.84 564.28 203.54 563.72 204.1L557.56 208.72C557.14 209 556.58 209.14 556.02 209.14ZM556.3 197.94V206.06L561.76 202L556.3 197.94Z" fill="url(#paint5_radial_493_113485)"/>
<path d="M534.419 238L530.587 233.67L531.56 233.178L535.849 238H534.419ZM529.65 233.119H530.945L534.267 229.469H535.585L531.378 234.08H529.65V233.119ZM529.07 238V229.469H530.236V238H529.07ZM536.487 234.977V234.789C536.487 233.848 536.782 233.08 537.372 232.486C537.966 231.889 538.759 231.59 539.751 231.59C540.739 231.59 541.53 231.889 542.124 232.486C542.718 233.08 543.015 233.848 543.015 234.789V234.977C543.015 235.918 542.718 236.688 542.124 237.285C541.53 237.879 540.739 238.176 539.751 238.176C538.759 238.176 537.966 237.879 537.372 237.285C536.782 236.688 536.487 235.918 536.487 234.977ZM537.636 234.789V234.977C537.636 235.617 537.813 236.156 538.169 236.594C538.524 237.031 539.052 237.25 539.751 237.25C540.45 237.25 540.976 237.031 541.327 236.594C541.683 236.156 541.86 235.617 541.86 234.977V234.789C541.86 234.145 541.683 233.605 541.327 233.172C540.976 232.734 540.45 232.516 539.751 232.516C539.052 232.516 538.524 232.734 538.169 233.172C537.813 233.605 537.636 234.145 537.636 234.789ZM544.655 231.766H545.78V234.379H549.085V231.766H550.21V238H549.085V235.27H545.78V238H544.655V231.766ZM551.528 232.65V231.766H557.094V232.65H554.874V238H553.749V232.65H551.528ZM558.055 234.977V234.789C558.055 233.848 558.34 233.08 558.91 232.486C559.485 231.889 560.242 231.59 561.184 231.59C562.129 231.59 562.856 231.869 563.364 232.428C563.871 232.982 564.125 233.734 564.125 234.684V235.146H558.723V234.25H562.994V234.221C562.994 233.721 562.852 233.311 562.567 232.99C562.281 232.67 561.824 232.51 561.196 232.51C560.535 232.51 560.035 232.729 559.696 233.166C559.356 233.604 559.186 234.145 559.186 234.789V234.977C559.186 235.621 559.364 236.162 559.719 236.6C560.078 237.037 560.631 237.256 561.377 237.256C561.83 237.256 562.221 237.17 562.549 236.998C562.877 236.822 563.141 236.615 563.34 236.377L564.067 236.975C563.848 237.268 563.508 237.541 563.047 237.795C562.59 238.049 562.033 238.176 561.377 238.176C560.303 238.176 559.481 237.879 558.91 237.285C558.34 236.688 558.055 235.918 558.055 234.977ZM570.072 238L567.371 235.146L568.062 234.414L571.508 238H570.072ZM566.217 234.385H567.447L569.861 231.766H571.191L567.91 235.27H566.217V234.385ZM566.779 231.766V238H565.66V231.766H566.779ZM572.211 234.977V234.789C572.211 233.848 572.494 233.08 573.06 232.486C573.631 231.889 574.414 231.59 575.41 231.59C576.332 231.59 577.031 231.814 577.508 232.264C577.988 232.709 578.228 233.209 578.228 233.764V233.793H577.115V233.758C577.115 233.426 576.98 233.135 576.711 232.885C576.445 232.635 576.011 232.51 575.41 232.51C574.707 232.51 574.189 232.729 573.857 233.166C573.525 233.604 573.359 234.145 573.359 234.789V234.977C573.359 235.621 573.525 236.162 573.857 236.6C574.189 237.033 574.707 237.25 575.41 237.25C576.011 237.25 576.445 237.127 576.711 236.881C576.98 236.635 577.115 236.342 577.115 236.002V235.973H578.228V236.002C578.228 236.553 577.988 237.053 577.508 237.502C577.031 237.951 576.332 238.176 575.41 238.176C574.414 238.176 573.631 237.879 573.06 237.285C572.494 236.688 572.211 235.918 572.211 234.977ZM578.984 232.65V231.766H584.55V232.65H582.33V238H581.205V232.65H578.984ZM585.88 231.766H587.005V234.379H590.31V231.766H591.435V238H590.31V235.27H587.005V238H585.88V231.766ZM593.093 236.166C593.093 235.529 593.366 235.035 593.913 234.684C594.464 234.332 595.177 234.156 596.052 234.156H597.722V233.711C597.722 233.336 597.605 233.037 597.37 232.814C597.14 232.592 596.745 232.48 596.187 232.48C595.632 232.48 595.231 232.576 594.985 232.768C594.739 232.955 594.616 233.182 594.616 233.447V233.477H593.491V233.447C593.491 232.936 593.735 232.498 594.224 232.135C594.712 231.771 595.376 231.59 596.216 231.59C597.052 231.59 597.698 231.77 598.155 232.129C598.616 232.484 598.847 233.012 598.847 233.711V236.594C598.847 236.848 598.868 237.088 598.911 237.314C598.954 237.537 599.015 237.734 599.093 237.906V238H598.009C597.946 237.902 597.89 237.773 597.839 237.613C597.788 237.453 597.757 237.295 597.745 237.139C597.581 237.4 597.308 237.629 596.925 237.824C596.542 238.02 596.052 238.117 595.454 238.117C594.782 238.117 594.22 237.949 593.767 237.613C593.317 237.277 593.093 236.795 593.093 236.166ZM594.218 236.107C594.218 236.459 594.339 236.732 594.581 236.928C594.823 237.123 595.202 237.221 595.718 237.221C596.233 237.221 596.696 237.072 597.106 236.775C597.517 236.479 597.722 236.164 597.722 235.832V234.953H596.181C595.54 234.953 595.052 235.057 594.716 235.264C594.384 235.467 594.218 235.748 594.218 236.107ZM601.688 238H600.44L602.444 235.34L603.575 235.439L601.688 238ZM604.929 238V235.75H603.171L603.042 235.68C602.276 235.68 601.688 235.508 601.278 235.164C600.868 234.816 600.663 234.35 600.663 233.764C600.663 233.158 600.87 232.674 601.284 232.311C601.698 231.947 602.292 231.766 603.065 231.766H606.059V238H604.929ZM603.071 234.859H604.929V232.65H603.071C602.602 232.65 602.272 232.756 602.081 232.967C601.893 233.178 601.8 233.443 601.8 233.764C601.8 234.088 601.893 234.352 602.081 234.555C602.268 234.758 602.598 234.859 603.071 234.859Z" fill="#04101C"/>
</g>
<rect x="654.5" y="429.5" width="67" height="67" rx="11.5" fill="#F9FBFF"/>
<rect x="654.5" y="429.5" width="67" height="67" rx="11.5" stroke="#ECECEC"/>
<path d="M692.014 478H682.851C680.156 478 678 475.818 678 473.091V452.909C678 450.182 680.156 448 682.851 448H692.149C694.844 448 697 450.182 697 452.909V473.227C696.865 475.818 694.709 478 692.014 478ZM682.851 450.727C681.638 450.727 680.695 451.682 680.695 452.909V473.227C680.695 474.318 681.638 475.273 682.851 475.273H692.149C693.362 475.273 694.305 474.318 694.305 473.091V452.909C694.17 451.682 693.227 450.727 692.014 450.727H682.851Z" fill="#ECECEC"/>
<path d="M689.184 455.227H685.681C684.872 455.227 684.333 454.682 684.333 453.864C684.333 453.045 684.872 452.5 685.681 452.5H689.319C690.128 452.5 690.667 453.045 690.667 453.864C690.667 454.682 689.993 455.227 689.184 455.227Z" fill="#ECECEC"/>
<rect x="509.5" y="579.5" width="67" height="67" rx="11.5" fill="#F9FBFF"/>
<rect x="509.5" y="579.5" width="67" height="67" rx="11.5" stroke="#ECECEC"/>
<path fill-rule="evenodd" clip-rule="evenodd" d="M541.758 599.043C548.547 598.477 554.266 603.585 554.409 610.171L554.409 610.199C554.409 612.501 553.688 614.653 552.41 616.5L552.397 616.518L545.937 625.519C545.925 625.536 545.911 625.554 545.898 625.571C544.413 627.429 541.492 627.543 540.066 625.513L533.604 616.51C531.919 614.122 531.034 611.107 531.75 607.916C532.632 603.131 536.804 599.609 541.719 599.047C541.732 599.045 541.745 599.044 541.758 599.043ZM541.989 601.578C538.055 602.036 534.896 604.836 534.249 608.398C534.246 608.416 534.242 608.434 534.238 608.452C533.699 610.827 534.332 613.124 535.681 615.039L542.147 624.047C542.491 624.54 543.35 624.655 543.892 624.003L550.323 615.043C551.318 613.601 551.861 611.958 551.864 610.213C551.746 605.149 547.346 601.142 541.989 601.578Z" fill="#ECECEC"/>
<path fill-rule="evenodd" clip-rule="evenodd" d="M542.955 607.782C541.619 607.782 540.537 608.864 540.537 610.2C540.537 611.536 541.619 612.618 542.955 612.618C544.29 612.618 545.373 611.536 545.373 610.2C545.373 608.864 544.29 607.782 542.955 607.782ZM537.991 610.2C537.991 607.459 540.214 605.236 542.955 605.236C545.696 605.236 547.918 607.459 547.918 610.2C547.918 612.941 545.696 615.164 542.955 615.164C540.214 615.164 537.991 612.941 537.991 610.2Z" fill="#ECECEC"/>
<path fill-rule="evenodd" clip-rule="evenodd" d="M542.955 607.782C541.619 607.782 540.537 608.864 540.537 610.2C540.537 611.536 541.619 612.618 542.955 612.618C544.29 612.618 545.373 611.536 545.373 610.2C545.373 608.864 544.29 607.782 542.955 607.782ZM537.991 610.2C537.991 607.459 540.214 605.236 542.955 605.236C545.696 605.236 547.918 607.459 547.918 610.2C547.918 612.941 545.696 615.164 542.955 615.164C540.214 615.164 537.991 612.941 537.991 610.2Z" fill="#ECECEC"/>
<path fill-rule="evenodd" clip-rule="evenodd" d="M542.955 607.782C541.619 607.782 540.537 608.864 540.537 610.2C540.537 611.536 541.619 612.618 542.955 612.618C544.29 612.618 545.373 611.536 545.373 610.2C545.373 608.864 544.29 607.782 542.955 607.782ZM537.991 610.2C537.991 607.459 540.214 605.236 542.955 605.236C545.696 605.236 547.918 607.459 547.918 610.2C547.918 612.941 545.696 615.164 542.955 615.164C540.214 615.164 537.991 612.941 537.991 610.2Z" fill="#ECECEC"/>
<rect x="624.5" y="582.5" width="67" height="67" rx="11.5" fill="#F9FBFF"/>
<rect x="624.5" y="582.5" width="67" height="67" rx="11.5" stroke="#ECECEC"/>
<path d="M645.9 628.6C645.06 628.6 644.5 628.04 644.5 627.2V614.6C644.5 613.76 645.06 613.2 645.9 613.2C646.74 613.2 647.3 613.76 647.3 614.6V627.2C647.3 628.04 646.74 628.6 645.9 628.6Z" fill="#ECECEC"/>
<path d="M664.486 630H652.955C650.622 630 648.7 628.04 648.7 625.66V613.9C648.7 612.36 649.249 610.96 650.21 609.7L655.701 603.4C656.525 602.56 657.76 602 659.133 602C660.643 602 661.878 602.7 662.702 603.82C663.525 605.08 663.8 606.48 663.388 607.88L662.564 610.54H668.33C669.703 610.54 670.938 611.1 671.624 612.22C672.448 613.34 672.723 614.74 672.311 616L669.428 625.94C668.742 628.46 666.82 630 664.486 630ZM652.406 611.66C651.857 612.36 651.583 613.06 651.583 613.9V625.66C651.583 626.5 652.269 627.2 653.093 627.2H664.624C665.722 627.2 666.683 626.5 666.957 625.38L669.703 615.44C669.84 615.02 669.703 614.46 669.428 614.04C669.154 613.62 668.742 613.48 668.33 613.48H660.643C660.231 613.48 659.819 613.2 659.544 612.92C659.27 612.64 659.27 612.08 659.407 611.66L660.917 607.04C661.054 606.48 661.054 605.92 660.643 605.5C660.094 604.66 658.721 604.52 658.035 605.36L652.406 611.66Z" fill="#ECECEC"/>
<rect x="618.5" y="297.5" width="67" height="67" rx="11.5" fill="#F9FBFF"/>
<rect x="618.5" y="297.5" width="67" height="67" rx="11.5" stroke="#ECECEC"/>
<path d="M642.115 325.95C642.115 322.801 644.763 320.315 648.073 320.315C649.065 320.315 649.727 319.652 649.727 318.657C649.727 317.663 649.065 317 648.073 317C642.943 317 638.806 320.978 638.806 325.95V326.945C638.806 328.436 637.813 329.928 636.158 330.425C635.496 330.591 635 331.254 635 331.917C635 332.58 635.496 333.243 636.158 333.575C637.813 334.072 638.806 335.398 638.806 337.055V338.05C638.806 343.022 642.943 347 648.073 347C649.065 347 649.727 346.337 649.727 345.343C649.727 344.348 649.065 343.685 648.073 343.685C644.763 343.685 642.115 341.199 642.115 338.05V336.89C642.115 334.901 641.288 333.077 639.964 331.917C641.288 330.591 642.115 328.768 642.115 326.945V325.95Z" fill="#ECECEC"/>
<path d="M669.842 330.333C668.187 329.833 667.194 328.5 667.194 326.833V326C667.194 321 663.057 317 657.927 317C656.935 317 656.273 317.667 656.273 318.667C656.273 319.667 656.935 320.333 657.927 320.333C661.237 320.333 663.885 322.833 663.885 326V327C663.885 329 664.712 330.833 666.036 332C664.712 333.333 663.885 335.167 663.885 337V338C663.885 341.167 661.237 343.667 657.927 343.667C656.935 343.667 656.273 344.333 656.273 345.333C656.273 346.333 656.935 347 657.927 347C663.057 347 667.194 343 667.194 338V337C667.194 335.5 668.187 334 669.842 333.5C670.504 333.333 671 332.667 671 332C671 331.333 670.504 330.667 669.842 330.333Z" fill="#ECECEC"/>
<rect x="665.5" y="163.5" width="67" height="67" rx="11.5" fill="#F9FBFF"/>
<rect x="665.5" y="163.5" width="67" height="67" rx="11.5" stroke="#ECECEC"/>
<path d="M703.496 199.937C704.425 198.836 705.045 197.421 705.045 196.006C705.045 192.547 702.257 189.874 699.005 189.874C695.753 189.874 692.966 192.547 692.966 195.849C692.966 197.421 693.585 198.836 694.514 199.78C692.501 200.881 690.953 202.453 690.023 204.654C689.559 205.755 689.714 207.17 690.333 208.27C691.107 209.371 692.346 210 693.585 210H704.27C705.509 210 706.748 209.371 707.522 208.27C708.297 207.17 708.297 205.912 707.832 204.654C707.058 202.61 705.509 200.881 703.496 199.937ZM696.063 195.849C696.063 194.277 697.457 193.019 699.005 193.019C700.554 193.019 701.947 194.277 701.947 196.006C701.947 197.736 700.554 198.836 699.005 198.836C697.457 198.836 696.063 197.579 696.063 195.849ZM705.045 206.541C704.89 206.698 704.58 206.855 704.425 206.855H693.585C693.275 206.855 693.121 206.698 692.966 206.541C692.811 206.541 692.811 206.226 692.811 205.912C693.895 203.396 696.218 201.824 699.005 201.824C701.793 201.824 704.116 203.396 705.2 205.912C705.2 206.226 705.2 206.541 705.045 206.541Z" fill="#ECECEC"/>
<path d="M691.727 198.679C691.727 197.893 691.107 197.107 690.178 197.107H685.068C685.687 195.535 687.236 194.591 688.939 194.591C691.572 194.591 693.585 192.547 693.585 189.874C693.585 187.201 691.417 185.157 688.939 185.157C686.462 185.157 684.294 187.201 684.294 189.874C684.294 190.818 684.603 191.761 685.223 192.547C683.829 193.333 682.745 194.434 682.281 195.849C681.816 196.792 681.971 197.893 682.435 198.836C683.055 199.78 683.984 200.252 685.068 200.252H690.023C690.953 200.252 691.727 199.623 691.727 198.679ZM687.391 189.874C687.391 188.931 688.165 188.302 688.939 188.302C689.714 188.302 690.488 189.088 690.488 189.874C690.488 190.818 689.714 191.447 688.939 191.447C688.165 191.447 687.391 190.66 687.391 189.874Z" fill="#ECECEC"/>
<path d="M715.73 195.849C715.11 194.434 714.026 193.176 712.788 192.39C713.252 191.604 713.717 190.66 713.717 189.717C713.717 187.201 711.549 185 709.071 185C706.593 185 704.425 187.044 704.425 189.717C704.425 192.39 706.593 194.434 709.071 194.434C710.774 194.434 712.323 195.377 712.788 197.107H707.832C706.903 197.107 706.284 197.736 706.284 198.679C706.284 199.465 706.903 200.252 707.832 200.252H712.788C713.872 200.252 714.801 199.78 715.42 198.836C716.04 197.893 716.194 196.792 715.73 195.849ZM709.071 188.302C710 188.302 710.62 189.088 710.62 189.874C710.62 190.818 709.845 191.447 709.071 191.447C708.297 191.447 707.522 190.66 707.522 189.874C707.522 188.931 708.142 188.302 709.071 188.302Z" fill="#ECECEC"/>
<rect x="224.5" y="729.5" width="67" height="67" rx="11.5" fill="#F9FBFF"/>
<rect x="224.5" y="729.5" width="67" height="67" rx="11.5" stroke="#ECECEC"/>
<path d="M266.428 766.134C263.502 766.134 260.995 768.502 260.995 771.567C260.995 774.493 263.363 777 266.428 777C269.353 777 271.861 774.632 271.861 771.567C271.861 768.502 269.493 766.134 266.428 766.134ZM266.428 774.075C265.035 774.075 263.781 772.96 263.781 771.428C263.781 770.035 264.896 768.781 266.428 768.781C267.821 768.781 269.075 769.896 269.075 771.428C269.075 772.96 267.96 774.075 266.428 774.075Z" fill="#ECECEC"/>
<path d="M256.119 760.701C256.259 760.701 256.537 760.701 256.677 760.562L262.249 757.776C263.224 759.03 264.756 759.866 266.428 759.866C269.493 759.726 271.861 757.358 271.861 754.433C271.861 751.507 269.493 749 266.428 749C263.502 749 260.995 751.368 260.995 754.433C260.995 754.711 260.995 754.99 261.134 755.269L255.423 758.055C254.726 758.473 254.448 759.308 254.866 759.866C255.005 760.423 255.562 760.701 256.119 760.701ZM266.428 751.786C267.821 751.786 269.075 752.9 269.075 754.433C269.075 755.826 267.96 757.08 266.428 757.08C265.035 757.08 263.781 755.965 263.781 754.433C263.92 752.9 265.035 751.786 266.428 751.786Z" fill="#ECECEC"/>
<path d="M260.299 767.109L254.587 764.323C254.726 763.905 254.726 763.488 254.726 762.93C254.726 760.005 252.358 757.498 249.294 757.498C246.229 757.498 244 760.005 244 762.93C244 765.856 246.368 768.363 249.433 768.363C250.965 768.363 252.358 767.806 253.333 766.692L259.184 769.617C259.323 769.756 259.602 769.756 259.741 769.756C260.299 769.756 260.716 769.478 260.995 768.92C261.274 768.363 260.995 767.527 260.299 767.109ZM249.433 765.577C247.9 765.577 246.786 764.323 246.786 762.93C246.786 761.537 247.9 760.284 249.433 760.284C250.826 760.284 252.08 761.398 252.08 762.93C251.94 764.323 250.826 765.577 249.433 765.577Z" fill="#ECECEC"/>
<rect x="70.5" y="579.5" width="67" height="67" rx="11.5" fill="#F9FBFF"/>
<rect x="70.5" y="579.5" width="67" height="67" rx="11.5" stroke="#ECECEC"/>
<path d="M103.388 624.97H95.1293C94.4048 624.97 93.6803 624.537 93.3906 623.96C92.9559 623.383 92.9559 622.806 93.2457 622.085C94.9844 618.045 98.8966 615.303 103.388 615.303C107.88 615.303 111.647 611.552 111.647 607.08C111.647 602.607 107.88 599 103.243 599C98.7517 599 94.9844 602.751 94.9844 607.224C94.9844 609.821 96.1436 612.129 98.0272 613.572C94.6946 614.871 91.7967 617.612 90.3477 621.075C89.7682 622.517 89.9131 624.249 90.7824 625.547C91.7967 626.99 93.2457 627.856 94.9844 627.856H103.243C104.113 627.856 104.692 627.279 104.692 626.413C104.692 625.547 104.113 624.97 103.388 624.97ZM97.8823 607.224C97.8823 604.338 100.346 601.886 103.243 601.886C106.141 601.886 108.605 604.338 108.605 607.224C108.605 610.109 106.141 612.562 103.243 612.562C100.346 612.562 97.8823 610.109 97.8823 607.224Z" fill="#ECECEC"/>
<path d="M118.457 614.582C117.733 614.149 116.864 614.294 116.429 615.015L110.343 623.96L108.025 620.93C107.59 620.353 106.576 620.209 105.996 620.642C105.417 621.075 105.272 622.085 105.707 622.662L109.329 627.423C109.619 627.856 110.054 628 110.488 628C110.923 628 111.358 627.711 111.647 627.423L118.747 616.746C119.182 615.881 119.037 615.015 118.457 614.582Z" fill="#ECECEC"/>
<rect x="89.5" y="29.5" width="67" height="67" rx="11.5" fill="#F9FBFF"/>
<rect x="89.5" y="29.5" width="67" height="67" rx="11.5" stroke="#ECECEC"/>
<path d="M135.823 70.1429L133.112 67.4286C132.541 66.8571 131.685 66.8571 131.115 67.4286C130.544 68 130.544 68.8571 131.115 69.4286L133.825 72.1429C134.254 72.5714 134.254 73.2857 133.825 73.7143C133.397 74.1429 132.684 74.1429 132.256 73.7143L127.976 69.4286C128.261 69.1429 128.546 69 128.832 68.7143C130.972 66.5714 132.256 63.5714 132.256 60.5714C132.256 57.4286 131.115 54.5714 128.832 52.4286C124.266 47.8571 116.99 47.8571 112.424 52.4286C107.859 57 107.859 64.2857 112.424 68.8571C114.564 71 117.561 72.2857 120.557 72.2857C122.269 72.2857 123.981 71.8571 125.408 71.1429L130.116 75.8571C130.829 76.5714 131.971 77 132.969 77C133.968 77 134.967 76.5714 135.823 75.8571C137.392 74.1429 137.392 71.5714 135.823 70.1429ZM114.422 66.5714C110.997 63.1429 110.997 57.5714 114.422 54.2857C116.134 52.5714 118.274 51.7143 120.557 51.7143C122.839 51.7143 124.98 52.5714 126.692 54.2857C128.404 56 129.26 58.1429 129.26 60.4286C129.26 62.7143 128.404 65 126.692 66.5714C124.98 68.1429 122.839 69.1429 120.557 69.1429C118.274 69.1429 115.991 68.2857 114.422 66.5714Z" fill="#ECECEC"/>
<rect x="211.5" y="582.5" width="67" height="67" rx="11.5" fill="#F9FBFF"/>
<rect x="211.5" y="582.5" width="67" height="67" rx="11.5" stroke="#ECECEC"/>
<path d="M234.02 630C233.32 630 232.76 629.72 232.2 629.3C231.5 628.6 231.36 627.62 231.64 626.78L233.04 622.44C232.06 620.48 231.5 618.24 231.5 616C231.5 608.3 237.8 602 245.5 602C253.2 602 259.5 608.3 259.5 616C259.5 623.7 253.2 630 245.5 630C243.26 630 241.02 629.44 239.06 628.46L234.72 629.86C234.58 630 234.3 630 234.02 630ZM239.9 625.66C241.58 626.64 243.54 627.2 245.5 627.2C251.66 627.2 256.7 622.16 256.7 616C256.7 609.84 251.66 604.8 245.5 604.8C239.34 604.8 234.3 609.84 234.3 616C234.3 617.96 234.86 619.92 235.84 621.6C235.98 621.88 236.12 622.3 235.98 622.72L234.58 627.06L238.92 625.66C238.92 625.66 239.763 625.592 239.9 625.66Z" fill="#ECECEC"/>
<path d="M245.5 618.24C246.737 618.24 247.74 617.237 247.74 616C247.74 614.763 246.737 613.76 245.5 613.76C244.263 613.76 243.26 614.763 243.26 616C243.26 617.237 244.263 618.24 245.5 618.24Z" fill="#ECECEC"/>
<path d="M238.64 618.24C239.877 618.24 240.88 617.237 240.88 616C240.88 614.763 239.877 613.76 238.64 613.76C237.403 613.76 236.4 614.763 236.4 616C236.4 617.237 237.403 618.24 238.64 618.24Z" fill="#ECECEC"/>
<path d="M252.36 618.24C253.597 618.24 254.6 617.237 254.6 616C254.6 614.763 253.597 613.76 252.36 613.76C251.123 613.76 250.12 614.763 250.12 616C250.12 617.237 251.123 618.24 252.36 618.24Z" fill="#ECECEC"/>
<rect x="339.5" y="579.5" width="67" height="67" rx="11.5" fill="#F9FBFF"/>
<rect x="339.5" y="579.5" width="67" height="67" rx="11.5" stroke="#ECECEC"/>
<path d="M387.061 607.679C384.853 604.703 382.254 601.984 379.266 599.914C377.318 598.49 374.59 598.749 372.771 600.561L368.354 604.961C366.665 606.644 366.405 609.362 367.704 611.303C367.834 611.433 367.964 611.692 368.224 611.821L360.039 619.975C359.39 620.622 359 621.528 359 622.564V626.706C359 627.094 359.13 627.353 359.39 627.612C359.65 627.871 359.909 628 360.299 628H364.456C365.496 628 366.405 627.612 367.055 626.965L375.239 618.81C375.499 618.94 375.629 619.069 375.889 619.199C377.837 620.493 380.566 620.234 382.254 618.552L386.671 614.151C388.23 612.339 388.49 609.621 387.061 607.679ZM384.593 612.339L380.176 616.74C379.266 617.646 377.967 617.775 377.058 617.128C376.538 616.74 376.149 616.481 375.629 616.092C375.109 615.704 374.33 615.704 373.94 616.222L364.976 625.153C364.716 625.411 364.456 625.541 364.197 625.541H361.338V622.693C361.338 622.434 361.468 622.176 361.728 621.917L370.692 612.986C371.212 612.468 371.212 611.821 370.822 611.303C370.562 610.786 370.173 610.268 369.913 609.75C369.263 608.844 369.393 607.55 370.302 606.773L374.719 602.373C375.109 601.855 375.759 601.596 376.408 601.596C376.928 601.596 377.318 601.726 377.707 601.984C380.566 603.926 382.904 606.385 384.853 609.103C385.632 610.139 385.502 611.433 384.593 612.339Z" fill="#ECECEC"/>
<path d="M378.148 606.909C377.593 606.909 377.177 607.192 376.761 607.474C375.928 608.321 375.928 609.593 376.761 610.299C377.177 610.722 377.593 610.864 378.148 610.864C378.703 610.864 379.12 610.722 379.536 610.299C379.952 609.875 380.091 609.451 380.091 608.886C380.091 608.321 379.952 607.898 379.536 607.474C379.258 607.05 378.703 606.909 378.148 606.909Z" fill="#ECECEC"/>
<rect x="509.5" y="429.5" width="67" height="67" rx="11.5" fill="#F9FBFF"/>
<rect x="509.5" y="429.5" width="67" height="67" rx="11.5" stroke="#ECECEC"/>
<path d="M537.372 460.484C536.804 459.924 535.952 459.924 535.384 460.484C534.816 461.044 534.816 461.884 535.384 462.443L541.206 468.602C541.49 468.882 541.916 469.022 542.2 469.022C542.626 469.022 543.052 468.882 543.194 468.462L557.109 451.246C557.535 450.686 557.535 449.706 556.825 449.287C556.399 448.867 555.547 448.867 554.979 449.566L552.139 453.066C549.583 450.546 545.892 449.007 542.2 449.007C534.39 449.007 528 455.305 528 463.003C528 470.701 534.39 477 542.2 477C550.009 477 556.399 470.701 556.399 463.003C556.399 461.744 556.257 460.484 555.831 459.224C555.547 458.524 554.837 458.104 554.127 458.244C553.417 458.384 552.991 459.224 553.133 459.924C553.417 460.904 553.559 462.024 553.559 463.003C553.559 469.162 548.447 474.201 542.2 474.201C535.952 474.201 530.84 469.162 530.84 463.003C530.84 456.845 535.952 451.806 542.2 451.806C545.324 451.806 548.164 453.066 550.435 455.305L542.2 465.523L537.372 460.484Z" fill="#ECECEC"/>
<rect x="392.5" y="429.5" width="67" height="67" rx="11.5" fill="#F9FBFF"/>
<rect x="392.5" y="429.5" width="67" height="67" rx="11.5" stroke="#ECECEC"/>
<path fill-rule="evenodd" clip-rule="evenodd" d="M434.03 449.487C435.293 450.178 436.2 451.549 436.2 453.2V467.48C436.2 470.822 432.499 472.802 429.778 470.859C429.748 470.838 429.718 470.814 429.689 470.79L428.196 469.53C428.174 469.512 428.153 469.493 428.133 469.474C426.985 468.381 425.554 467.7 423.982 467.449V472.94C423.982 475.161 422.358 477 420.138 477C417.873 477 416.295 474.972 416.295 472.94V467.183C413.276 466.494 411 463.636 411 460.34C411 458.484 411.655 456.697 413.056 455.413C414.188 454.258 415.741 453.34 417.695 453.34H422.541C424.689 453.21 426.681 452.475 428.185 451.298L429.634 449.939C429.662 449.913 429.691 449.887 429.722 449.863C431.081 448.785 432.746 448.785 434.03 449.487ZM431.5 452.028L430.056 453.382C430.028 453.408 429.999 453.433 429.968 453.457C427.956 455.053 425.366 455.983 422.662 456.138C422.635 456.139 422.609 456.14 422.582 456.14H417.695C416.68 456.14 415.8 456.605 415.034 457.395C415.013 457.417 414.99 457.439 414.967 457.46C414.22 458.134 413.8 459.132 413.8 460.34C413.8 462.711 415.68 464.54 417.695 464.54C418.468 464.54 419.095 465.167 419.095 465.94V472.94C419.095 473.709 419.688 474.2 420.138 474.2C420.634 474.2 421.182 473.799 421.182 472.94V465.94C421.182 465.167 421.809 464.54 422.582 464.54C425.337 464.54 427.988 465.486 430.032 467.416L431.443 468.607C432.251 469.141 433.4 468.6 433.4 467.48V453.2C433.4 452.611 433.085 452.162 432.686 451.943C432.318 451.742 431.895 451.736 431.5 452.028Z" fill="#ECECEC"/>
<path fill-rule="evenodd" clip-rule="evenodd" d="M440.4 456C441.173 456 441.8 456.627 441.8 457.4V463C441.8 463.773 441.173 464.4 440.4 464.4C439.627 464.4 439 463.773 439 463V457.4C439 456.627 439.627 456 440.4 456Z" fill="#ECECEC"/>
<rect x="339.5" y="729.5" width="67" height="67" rx="11.5" fill="#F9FBFF"/>
<rect x="339.5" y="729.5" width="67" height="67" rx="11.5" stroke="#ECECEC"/>
<path d="M367.726 779C367.274 779 366.822 778.854 366.37 778.708C365.165 778.124 364.562 776.955 364.863 775.787L366.671 767.315H363.959C362.754 767.315 361.699 766.585 361.247 765.562C360.795 764.54 360.945 763.371 361.85 762.641L376.164 747.888C377.068 747.012 378.575 746.72 379.63 747.304C380.835 747.888 381.438 749.057 381.137 750.225L379.329 758.697H382.041C383.246 758.697 384.301 759.427 384.753 760.45C385.205 761.472 385.055 762.641 384.15 763.371L369.836 778.124C369.233 778.708 368.48 779 367.726 779ZM368.48 764.247C368.932 764.247 369.384 764.394 369.685 764.832C369.986 765.27 370.137 765.562 369.986 766L368.028 775.933L382.041 761.472H377.671C377.219 761.472 376.767 761.326 376.466 760.888C376.164 760.596 376.014 760.158 376.164 759.719L378.123 749.787L364.11 764.394L368.48 764.247Z" fill="#ECECEC"/>
<rect x="666.5" y="729.5" width="67" height="67" rx="11.5" fill="#F9FBFF"/>
<rect x="666.5" y="729.5" width="67" height="67" rx="11.5" stroke="#ECECEC"/>
<path d="M706.45 750C703.9 750 701.65 751.052 700 753.006C698.35 751.052 696.1 750 693.55 750C688.9 750 685 753.908 685 758.566C685 758.867 685 759.168 685 759.468C685.6 766.532 693.1 772.393 697.45 775.249C698.2 775.699 699.1 776 700 776C700.9 776 701.8 775.699 702.55 775.249C706.9 772.393 714.4 766.532 715 759.618C715 759.318 715 759.017 715 758.717C715 753.908 711.1 750 706.45 750ZM712 759.168C711.55 765.179 704.05 770.59 700.9 772.543C700.3 772.844 699.7 772.844 699.1 772.543C695.95 770.439 688.6 765.029 688 759.017C688 759.017 688 758.717 688 758.566C688 755.561 690.55 753.006 693.55 753.006C695.8 753.006 697.75 754.358 698.65 756.312C698.8 756.913 699.4 757.214 700 757.214C700.6 757.214 701.2 756.913 701.35 756.312C702.25 754.358 704.2 753.006 706.45 753.006C709.45 753.006 712 755.561 712 758.566C712 758.717 712 759.017 712 759.168Z" fill="#ECECEC"/>
<rect x="502.5" y="729.5" width="67" height="67" rx="11.5" fill="#F9FBFF"/>
<rect x="502.5" y="729.5" width="67" height="67" rx="11.5" stroke="#ECECEC"/>
<path d="M529.665 777C528.966 777 528.266 776.72 527.567 776.3C526.448 775.46 525.748 774.06 526.028 772.66L526.867 767.2L523.09 763.28C522.111 762.3 521.691 760.76 522.251 759.36C522.67 757.96 523.79 757.12 525.189 756.84L530.505 756L532.883 751.1C533.443 749.84 534.702 749 536.101 749C537.5 749 538.759 749.84 539.458 751.1L541.697 756L546.873 756.84C548.272 756.98 549.391 757.96 549.811 759.36C550.231 760.76 549.951 762.16 548.972 763.28L545.194 767.2L546.034 772.66C546.314 774.06 545.754 775.6 544.495 776.3C543.376 777.14 541.977 777.14 540.718 776.58L536.101 773.92L531.484 776.44C530.925 776.86 530.365 777 529.665 777ZM536.101 751.8C535.961 751.8 535.541 751.8 535.401 752.36L532.743 757.96C532.463 758.38 532.044 758.66 531.624 758.66L525.608 759.64C525.189 759.64 525.049 760.06 524.909 760.2C524.909 760.34 524.769 760.76 525.189 761.18L529.525 765.52C529.805 765.8 529.945 766.22 529.945 766.78L528.966 772.94C528.826 773.5 529.246 773.78 529.386 773.92C529.525 774.06 529.805 774.2 530.225 773.92L535.541 770.98C535.961 770.7 536.521 770.7 536.94 770.98L542.256 773.92C542.676 774.06 542.956 773.92 543.096 773.92C543.236 773.78 543.516 773.5 543.516 772.94L542.536 766.78C542.396 766.36 542.536 765.94 542.956 765.52L547.293 761.18C547.433 760.9 547.293 760.34 547.293 760.2C547.293 760.06 547.013 759.64 546.593 759.64L540.578 758.8C540.158 758.8 539.738 758.38 539.458 757.96L536.8 752.36C536.66 751.8 536.241 751.8 536.101 751.8Z" fill="#ECECEC"/>
<rect x="510.5" y="297.5" width="67" height="67" rx="11.5" fill="#F9FBFF"/>
<rect x="510.5" y="297.5" width="67" height="67" rx="11.5" stroke="#ECECEC"/>
<path d="M537.355 319H532.409C529.473 319 527 321.25 527 324.1V329.2C527 332.05 529.473 334.3 532.409 334.3H535.964C536.891 334.3 537.509 333.7 537.509 332.8C537.509 331.9 536.891 331.3 535.964 331.3H532.409C531.173 331.3 530.091 330.4 530.091 329.2V324.1C530.091 322.9 531.173 322 532.409 322H537.355C538.591 322 539.673 322.9 539.673 324.1V336.55C539.673 338.5 538.127 340 536.118 340H533.645C532.718 340 532.1 340.6 532.1 341.5C532.1 342.4 532.718 343 533.645 343H536.118C539.827 343 542.764 340.15 542.764 336.55V324.1C542.764 321.25 540.291 319 537.355 319Z" fill="#ECECEC"/>
<path d="M555.591 319H550.645C547.709 319 545.236 321.25 545.236 324.1V329.2C545.236 332.05 547.709 334.3 550.645 334.3H554.2C555.127 334.3 555.745 333.7 555.745 332.8C555.745 331.9 555.127 331.3 554.2 331.3H550.645C549.409 331.3 548.327 330.4 548.327 329.2V324.1C548.327 322.9 549.409 322 550.645 322H555.591C556.827 322 557.909 322.9 557.909 324.1V336.55C557.909 338.5 556.364 340 554.355 340H551.882C550.955 340 550.336 340.6 550.336 341.5C550.336 342.4 550.955 343 551.882 343H554.355C558.064 343 561 340.15 561 336.55V324.1C561 321.25 558.527 319 555.591 319Z" fill="#ECECEC"/>
<rect x="234.5" y="29.5" width="67" height="67" rx="11.5" fill="#F9FBFF"/>
<rect x="234.5" y="29.5" width="67" height="67" rx="11.5" stroke="#ECECEC"/>
<path d="M283.196 63C283.196 59.9804 281.549 57.2353 279.078 55.8627C279.078 55.7255 279.078 55.451 279.078 55.1765C279.078 51.7451 276.333 49 272.902 49C270.98 49 269.196 49.9608 268.098 51.3333C267 49.9608 265.216 49 263.294 49C259.863 49 257.118 51.7451 257.118 55.1765C257.118 55.451 257.118 55.5882 257.118 55.8627C254.647 57.2353 253 59.9804 253 63C253 66.0196 254.647 68.7647 257.118 70.1373C257.118 70.4118 257.118 70.549 257.118 70.8235C257.118 74.2549 259.863 77 263.294 77C265.216 77 267 76.0392 268.098 74.6667C269.196 76.0392 270.98 77 272.902 77C276.333 77 279.078 74.2549 279.078 70.8235C279.078 70.549 279.078 70.4118 279.078 70.1373C281.549 68.6275 283.196 66.0196 283.196 63ZM277.02 68.0784C276.333 68.3529 276.059 69.0392 276.196 69.7255C276.333 70 276.333 70.4118 276.333 70.6863C276.333 72.6078 274.824 74.1176 272.902 74.1176C271.118 74.1176 269.608 72.7451 269.471 70.8235C269.471 70.6863 269.471 70.6863 269.333 70.549V70.4118C269.333 70.2745 269.196 70.1373 269.196 70.1373C269.196 70.1373 269.196 70 269.059 70C268.922 69.8627 268.922 69.8627 268.784 69.7255C268.784 69.7255 268.647 69.7255 268.647 69.5882C268.51 69.5882 268.373 69.5882 268.373 69.451H268.235H268.098C267.961 69.451 267.961 69.451 267.824 69.5882C267.686 69.5882 267.686 69.7255 267.549 69.7255C267.412 69.7255 267.412 69.8627 267.275 69.8627L267.137 70C267.137 70.1373 267 70.1373 267 70.2745V70.4118C267 70.549 266.863 70.549 266.863 70.6863C266.725 72.4706 265.216 73.9804 263.431 73.9804C261.51 73.9804 260 72.4706 260 70.549C260 70.1373 260 69.8627 260.137 69.5882C260.412 68.902 260 68.2157 259.314 67.9412C257.118 67.2549 255.745 65.1961 255.745 63C255.745 60.8039 257.118 58.7451 259.176 57.9216C259.863 57.6471 260.275 56.8235 260 56.1373C259.863 55.8627 259.863 55.5882 259.863 55.1765C259.863 53.2549 261.373 51.7451 263.294 51.7451C265.216 51.7451 266.725 53.2549 266.725 55.1765V66.4314C266.725 67.2549 267.275 67.8039 268.098 67.8039C268.922 67.8039 269.471 67.2549 269.471 66.4314V55.1765C269.471 53.2549 270.98 51.7451 272.902 51.7451C274.824 51.7451 276.333 53.2549 276.333 55.1765C276.333 55.5882 276.333 55.8627 276.196 56.1373C275.922 56.8235 276.333 57.5098 277.02 57.7843C279.078 58.7451 280.451 60.6667 280.451 63C280.451 65.1961 279.078 67.2549 277.02 68.0784Z" fill="#ECECEC"/>
<rect x="355.5" y="29.5" width="67" height="67" rx="11.5" fill="#F9FBFF"/>
<rect x="355.5" y="29.5" width="67" height="67" rx="11.5" stroke="#ECECEC"/>
<path d="M402.227 65.1636H398.918V60.8364H402.227C402.991 60.8364 403.5 60.3273 403.5 59.5636C403.5 58.8 402.991 58.2909 402.227 58.2909H398.918V57.2727C398.918 55.2364 397.264 53.7091 395.355 53.7091H394.336V50.2727C394.336 49.5091 393.827 49 393.064 49C392.3 49 391.791 49.5091 391.791 50.2727V53.5818H387.336V50.2727C387.336 49.5091 386.827 49 386.064 49C385.3 49 384.791 49.5091 384.791 50.2727V53.5818H383.773C381.736 53.5818 380.209 55.2364 380.209 57.1455V58.1636H376.773C376.009 58.1636 375.5 58.6727 375.5 59.4364C375.5 60.2 376.009 60.7091 376.773 60.7091H380.082V65.1636H376.773C376.009 65.1636 375.5 65.6727 375.5 66.4364C375.5 67.2 376.009 67.7091 376.773 67.7091H380.082V68.7273C380.082 70.7636 381.736 72.2909 383.645 72.2909H384.664V75.7273C384.664 76.4909 385.173 77 385.936 77C386.7 77 387.209 76.4909 387.209 75.7273V72.4182H391.664V75.7273C391.664 76.4909 392.173 77 392.936 77C393.7 77 394.209 76.4909 394.209 75.7273V72.4182H395.227C397.264 72.4182 398.791 70.7636 398.791 68.8545V67.8364H402.227C402.991 67.8364 403.5 67.3273 403.5 66.5636C403.5 65.8 402.991 65.1636 402.227 65.1636ZM396.373 68.7273C396.373 69.3636 395.864 69.7455 395.355 69.7455H383.773C383.136 69.7455 382.755 69.2364 382.755 68.7273V57.2727C382.627 56.6364 383.136 56.1273 383.773 56.1273H395.355C395.991 56.1273 396.373 56.6364 396.373 57.1455V68.7273Z" fill="#ECECEC"/>
<rect x="12.5" y="297.5" width="67" height="67" rx="11.5" fill="#F9FBFF"/>
<rect x="12.5" y="297.5" width="67" height="67" rx="11.5" stroke="#ECECEC"/>
<path d="M41.9273 328.2C42.6909 328.2 43.2 327.691 43.2 326.927C43.2 325.4 44.4727 324.127 46 324.127C47.5273 324.127 48.8 325.4 48.8 326.927C48.8 327.691 49.3091 328.2 50.0727 328.2C50.8364 328.2 51.3455 327.691 51.3455 326.927C51.3455 324 48.9273 321.582 46 321.582C43.0727 321.582 40.6545 324 40.6545 326.927C40.6545 327.564 41.2909 328.2 41.9273 328.2Z" fill="#ECECEC"/>
<path d="M58.7273 329.727H33.2727C32.5091 329.727 32 330.236 32 331C32 331.764 32.5091 332.273 33.2727 332.273H39.7636C39 333.036 38.3636 333.927 37.9818 334.945C37.6 335.964 37.7273 337.109 38.2364 338C38.8727 338.891 39.8909 339.527 41.0364 339.527H50.7091C51.8545 339.527 52.8727 339.018 53.5091 338C54.1455 337.109 54.2727 335.964 53.7636 334.945C53.3818 333.927 52.7455 333.036 51.9818 332.273H58.7273C59.4909 332.273 60 331.764 60 331C60 330.236 59.4909 329.727 58.7273 329.727ZM51.6 335.964C51.7273 336.218 51.6 336.473 51.4727 336.6C51.3455 336.855 51.0909 336.982 50.7091 336.982H41.1636C40.9091 336.982 40.6545 336.855 40.4 336.6C40.2727 336.473 40.1455 336.218 40.2727 335.964C41.0364 334.055 42.8182 332.655 44.8545 332.273H46.8909C49.0545 332.655 50.8364 334.055 51.6 335.964Z" fill="#ECECEC"/>
<path d="M58.7273 335.455C57.9636 335.455 57.4545 335.964 57.4545 336.727V339.018C57.4545 340.927 55.9273 342.327 54.1455 342.327H51.8545C51.0909 342.327 50.5818 342.836 50.5818 343.6C50.5818 344.364 51.0909 344.873 51.8545 344.873H54.1455C57.4545 344.873 60 342.2 60 339.018V336.727C60 336.091 59.4909 335.455 58.7273 335.455Z" fill="#ECECEC"/>
<path d="M40.2727 342.455H37.8545C36.0727 342.455 34.5455 340.927 34.5455 339.145V336.855C34.5455 336.091 34.0364 335.582 33.2727 335.582C32.5091 335.582 32 336.091 32 336.855V339.145C32 342.327 34.6727 345 37.8545 345H40.1455C40.9091 345 41.4182 344.491 41.4182 343.727C41.4182 342.964 40.9091 342.455 40.2727 342.455Z" fill="#ECECEC"/>
<path d="M33.2727 326.545C34.0364 326.545 34.5455 326.036 34.5455 325.273V322.855C34.5455 321.073 36.0727 319.545 37.8545 319.545H40.1455C40.9091 319.545 41.4182 319.036 41.4182 318.273C41.4182 317.509 40.9091 317 40.2727 317H37.8545C34.6727 317 32 319.673 32 322.855V325.145C32 325.909 32.5091 326.545 33.2727 326.545Z" fill="#ECECEC"/>
<path d="M54.1455 317H51.8545C51.0909 317 50.5818 317.509 50.5818 318.273C50.5818 319.036 51.0909 319.545 51.8545 319.545H54.1455C55.9273 319.545 57.4545 321.073 57.4545 322.855V325.145C57.4545 325.909 57.9636 326.418 58.7273 326.418C59.4909 326.418 60 325.909 60 325.145V322.855C60 319.673 57.3273 317 54.1455 317Z" fill="#ECECEC"/>
<path d="M470 344H510" stroke="#ECECEC"/>
<path d="M577 488L654 488" stroke="#ECECEC"/>
<path d="M537 497V579" stroke="#ECECEC"/>
<path d="M554 498V525.953C554 534.79 561.163 541.953 570 541.953H643C651.837 541.953 659 549.117 659 557.953V582" stroke="#ECECEC"/>
<path d="M576.5 463H586C594.837 463 602 455.837 602 447V274.994C602 266.158 609.163 258.994 618 258.994H686C694.837 258.994 702 251.831 702 242.994V231" stroke="#ECECEC"/>
<path d="M577 476L623 476C631.837 476 639 468.837 639 460L639 365" stroke="#ECECEC"/>
<path d="M460 211H508" stroke="#ECECEC" stroke-width="2"/>
<path d="M460 211H508" stroke="url(#paint6_linear_493_113485)" stroke-width="2"/>
<path d="M308 297L308 205C308 200.582 304.418 197 300 197V197" stroke="#ECECEC"/>
<path d="M576.5 447.5V447.5C583.403 447.5 588.999 441.903 588.999 435L588.999 295.5C588.999 286.663 581.836 279.5 572.999 279.5L338 279.5C329.164 279.5 322.001 286.663 322 295.499L322 297" stroke="#ECECEC"/>
<path d="M179 297L179 214C179 205.163 171.837 198 163 198L156 198" stroke="#ECECEC"/>
<path d="M118 498L118 579" stroke="#ECECEC"/>
<path d="M255 650L255 729" stroke="#ECECEC"/>
<path d="M363 646L363 728" stroke="#ECECEC"/>
<path d="M386 647L386 697C386 705.837 393.163 713 402 713L528 713C536.837 713 544 720.164 544 729V729" stroke="#ECECEC"/>
<path d="M408 614L413.5 614C422.337 614 429.5 621.163 429.5 630L429.5 677.5C429.5 686.336 436.664 693.5 445.5 693.5L698 693.5C706.837 693.5 714 700.663 714 709.5L714 729" stroke="#ECECEC"/>
<path d="M236 650L236 684.514C236 693.351 228.837 700.514 220 700.514L165 700.514C156.163 700.514 149 707.678 149 716.514L149 728" stroke="#ECECEC"/>
<path d="M118 430V349C118 340.163 110.837 333 102 333H80" stroke="#ECECEC"/>
<path d="M261 164L261 97" stroke="#ECECEC"/>
<path d="M389 97V97C389 103.627 383.627 109 377 109H291C282.163 109 275 116.163 275 125V164" stroke="#ECECEC"/>
<path d="M155 65H197C205.837 65 213 72.1635 213 81V297" stroke="#ECECEC"/>
<path d="M460 197.499L469.814 197.499C478.376 197.499 484.935 191.435 484.935 183.517L484.937 97.0004" stroke="#ECECEC" stroke-width="2"/>
<path d="M460 197.499L469.814 197.499C478.376 197.499 484.935 191.435 484.935 183.517L484.937 97.0004" stroke="url(#paint7_linear_493_113485)" stroke-width="2"/>
<path d="M382 344H342" stroke="#ECECEC"/>
<path d="M274 344L231 344" stroke="#ECECEC"/>
<path d="M274 353H269.837C261.001 353 253.837 360.163 253.837 369V391.25C253.837 400.087 246.674 407.25 237.837 407.25H166C157.163 407.25 150 414.413 150 423.25V430" stroke="#ECECEC"/>
<path d="M294 365L294 430" stroke="#ECECEC"/>
<path d="M342 353L348 353C356.836 353 364 360.164 364 369L364 579" stroke="#ECECEC"/>
<path d="M256 582V576.551C256 567.715 263.163 560.551 272 560.551H311C319.837 560.551 327 553.388 327 544.551V365" stroke="#ECECEC"/>
<path d="M426 299V244" stroke="url(#paint8_linear_493_113485)" stroke-width="2"/>
<path d="M426 389L426 429" stroke="#ECECEC" stroke-width="2"/>
<g filter="url(#filter2_d_493_113485)">
<rect x="382" y="176" width="90" height="94" rx="12" fill="white"/>
<path d="M433.409 220.045C432.864 220.045 432.455 219.773 432.182 219.364L430.546 216.5C429.864 215 428.501 213.636 427.001 212.818L424.137 211.182C423.728 211.045 423.455 210.5 423.455 210.091C423.455 209.545 423.728 209.136 424.137 208.864L427.001 207.227C428.501 206.409 429.864 205.182 430.682 203.545L432.319 200.682C432.455 200.273 433 200 433.409 200C433.955 200 434.364 200.273 434.637 200.682L436.273 203.545C437.091 205.045 438.455 206.409 439.955 207.227L442.818 208.864C443.227 209.136 443.5 209.545 443.5 210.091C443.5 210.636 443.227 211.045 442.818 211.318L439.955 212.955C438.455 213.773 437.091 215.136 436.273 216.636L434.637 219.5C434.364 219.773 433.955 220.045 433.409 220.045ZM427.682 210.091L428.364 210.5C430.41 211.591 432.046 213.227 433.137 215.273L433.546 215.955L433.955 215.273C435.046 213.227 436.682 211.591 438.727 210.5L439.409 210.091L438.727 209.682C436.682 208.591 435.046 206.955 433.955 204.909L433.546 204.227L433.137 204.909C432.046 206.955 430.41 208.591 428.364 209.682L427.682 210.091Z" fill="url(#paint9_radial_493_113485)"/>
<path d="M421 230C420.454 230 420.045 229.727 419.773 229.318L418.954 227.682C418.273 226.318 417.182 225.227 415.818 224.545L414.182 223.727C413.773 223.455 413.5 222.909 413.5 222.5C413.5 221.955 413.773 221.545 414.182 221.273L415.818 220.455C417.182 219.773 418.273 218.682 418.954 217.318L419.773 215.682C420.318 214.864 421.682 214.864 422.227 215.682L423.045 217.318C423.727 218.682 424.818 219.773 426.181 220.455L427.818 221.273C428.227 221.545 428.499 221.955 428.499 222.5C428.499 223.045 428.227 223.455 427.818 223.727L426.318 224.545C424.954 225.227 423.863 226.318 423.181 227.682L422.363 229.318C421.954 229.727 421.545 230 421 230ZM417.727 222.5C419.091 223.318 420.318 224.545 421.136 225.909C421.954 224.545 423.181 223.318 424.545 222.5C423.045 221.545 421.954 220.455 421 219.091C420.182 220.455 419.091 221.545 417.727 222.5Z" fill="url(#paint10_radial_493_113485)"/>
<path d="M401.296 250V241.469H404.372C405.395 241.469 406.18 241.705 406.727 242.178C407.278 242.646 407.553 243.277 407.553 244.07C407.553 244.859 407.278 245.494 406.727 245.975C406.18 246.451 405.395 246.689 404.372 246.689H402.462V250H401.296ZM402.462 245.734H404.372C405.118 245.734 405.639 245.574 405.936 245.254C406.237 244.934 406.387 244.539 406.387 244.07C406.387 243.598 406.237 243.207 405.936 242.898C405.639 242.586 405.118 242.43 404.372 242.43H402.462V245.734ZM408.42 246.977V246.789C408.42 245.848 408.706 245.08 409.276 244.486C409.85 243.889 410.608 243.59 411.549 243.59C412.495 243.59 413.221 243.869 413.729 244.428C414.237 244.982 414.491 245.734 414.491 246.684V247.146H409.088V246.25H413.36V246.221C413.36 245.721 413.217 245.311 412.932 244.99C412.647 244.67 412.19 244.51 411.561 244.51C410.901 244.51 410.401 244.729 410.061 245.166C409.721 245.604 409.551 246.145 409.551 246.789V246.977C409.551 247.621 409.729 248.162 410.084 248.6C410.444 249.037 410.997 249.256 411.743 249.256C412.196 249.256 412.586 249.17 412.915 248.998C413.243 248.822 413.506 248.615 413.706 248.377L414.432 248.975C414.213 249.268 413.874 249.541 413.413 249.795C412.956 250.049 412.399 250.176 411.743 250.176C410.668 250.176 409.846 249.879 409.276 249.285C408.706 248.688 408.42 247.918 408.42 246.977ZM420.438 250L417.737 247.146L418.428 246.414L421.873 250H420.438ZM416.582 246.385H417.813L420.227 243.766H421.557L418.276 247.27H416.582V246.385ZM417.145 243.766V250H416.026V243.766H417.145ZM424.574 244.65L424.469 247.135C424.422 248.186 424.277 248.947 424.035 249.42C423.797 249.893 423.385 250.129 422.799 250.129C422.654 250.129 422.527 250.119 422.418 250.1C422.309 250.084 422.217 250.059 422.143 250.023V249.057C422.209 249.084 422.277 249.104 422.348 249.115C422.422 249.127 422.506 249.133 422.6 249.133C422.896 249.133 423.102 248.98 423.215 248.676C423.332 248.367 423.406 247.803 423.438 246.982L423.578 243.766H428.389V250H427.264V244.65H424.574ZM430.052 248.166C430.052 247.529 430.326 247.035 430.873 246.684C431.424 246.332 432.136 246.156 433.011 246.156H434.681V245.711C434.681 245.336 434.564 245.037 434.33 244.814C434.099 244.592 433.705 244.48 433.146 244.48C432.592 244.48 432.191 244.576 431.945 244.768C431.699 244.955 431.576 245.182 431.576 245.447V245.477H430.451V245.447C430.451 244.936 430.695 244.498 431.183 244.135C431.672 243.771 432.336 243.59 433.176 243.59C434.011 243.59 434.658 243.77 435.115 244.129C435.576 244.484 435.806 245.012 435.806 245.711V248.594C435.806 248.848 435.828 249.088 435.871 249.314C435.914 249.537 435.974 249.734 436.052 249.906V250H434.969C434.906 249.902 434.849 249.773 434.799 249.613C434.748 249.453 434.717 249.295 434.705 249.139C434.541 249.4 434.267 249.629 433.885 249.824C433.502 250.02 433.011 250.117 432.414 250.117C431.742 250.117 431.179 249.949 430.726 249.613C430.277 249.277 430.052 248.795 430.052 248.166ZM431.177 248.107C431.177 248.459 431.299 248.732 431.541 248.928C431.783 249.123 432.162 249.221 432.677 249.221C433.193 249.221 433.656 249.072 434.066 248.775C434.476 248.479 434.681 248.164 434.681 247.832V246.953H433.14C432.5 246.953 432.011 247.057 431.676 247.264C431.344 247.467 431.177 247.748 431.177 248.107ZM437.804 250V243.766H439.357L441.32 248.084C441.425 248.318 441.492 248.479 441.519 248.564C441.55 248.646 441.576 248.734 441.595 248.828H441.66C441.679 248.734 441.703 248.646 441.73 248.564C441.757 248.479 441.824 248.322 441.929 248.096L443.904 243.766H445.427V250H444.337V245.734C444.337 245.504 444.339 245.338 444.343 245.236C444.351 245.135 444.361 245.043 444.373 244.961H444.326C444.306 245.039 444.281 245.127 444.25 245.225C444.218 245.322 444.154 245.479 444.056 245.693L442.087 250H441.097L439.123 245.676C439.041 245.488 438.982 245.342 438.947 245.236C438.912 245.131 438.886 245.039 438.871 244.961H438.812C438.82 245.043 438.828 245.135 438.835 245.236C438.843 245.334 438.847 245.488 438.847 245.699V250H437.804ZM447.091 248.166C447.091 247.529 447.365 247.035 447.911 246.684C448.462 246.332 449.175 246.156 450.05 246.156H451.72V245.711C451.72 245.336 451.603 245.037 451.368 244.814C451.138 244.592 450.743 244.48 450.185 244.48C449.63 244.48 449.23 244.576 448.984 244.768C448.738 244.955 448.615 245.182 448.615 245.447V245.477H447.49V245.447C447.49 244.936 447.734 244.498 448.222 244.135C448.71 243.771 449.374 243.59 450.214 243.59C451.05 243.59 451.697 243.77 452.154 244.129C452.615 244.484 452.845 245.012 452.845 245.711V248.594C452.845 248.848 452.866 249.088 452.909 249.314C452.952 249.537 453.013 249.734 453.091 249.906V250H452.007C451.945 249.902 451.888 249.773 451.837 249.613C451.786 249.453 451.755 249.295 451.743 249.139C451.579 249.4 451.306 249.629 450.923 249.824C450.54 250.02 450.05 250.117 449.452 250.117C448.781 250.117 448.218 249.949 447.765 249.613C447.316 249.277 447.091 248.795 447.091 248.166ZM448.216 248.107C448.216 248.459 448.337 248.732 448.579 248.928C448.822 249.123 449.2 249.221 449.716 249.221C450.232 249.221 450.695 249.072 451.105 248.775C451.515 248.479 451.72 248.164 451.72 247.832V246.953H450.179C449.538 246.953 449.05 247.057 448.714 247.264C448.382 247.467 448.216 247.748 448.216 248.107Z" fill="#04101C"/>
</g>
<g filter="url(#filter3_d_493_113485)">
<rect x="463" y="29" width="146" height="94" rx="12" fill="white"/>
<path d="M536 53C528.3 53 522 59.3 522 67C522 74.7 528.3 81 536 81C543.7 81 550 74.7 550 67C550 59.3 543.7 53 536 53ZM536 78.2C529.84 78.2 524.8 73.16 524.8 67C524.8 60.84 529.84 55.8 536 55.8C542.16 55.8 547.2 60.84 547.2 67C547.2 73.16 542.16 78.2 536 78.2Z" fill="url(#paint11_radial_493_113485)"/>
<path d="M543.7 71.76C542.72 70.78 541.6 70.08 540.34 69.52C541.32 68.4 542.02 67 542.02 65.32C542.02 61.96 539.36 59.3 536 59.3C532.64 59.3 529.98 61.96 529.98 65.32C529.98 67 530.68 68.4 531.66 69.52C530.4 70.08 529.28 70.78 528.3 71.76C527.74 72.32 527.74 73.16 528.3 73.72C528.58 74 529 74.14 529.28 74.14C529.7 74.14 529.98 74 530.26 73.72C531.8 72.18 533.76 71.34 536 71.34C538.1 71.34 540.2 72.18 541.74 73.72C542.3 74.28 543.14 74.28 543.7 73.72C544.26 73.16 544.26 72.32 543.7 71.76ZM532.78 65.32C532.78 63.5 534.18 62.1 536 62.1C537.82 62.1 539.22 63.5 539.22 65.32C539.22 67.14 537.82 68.54 536 68.54C534.18 68.54 532.78 67.14 532.78 65.32Z" fill="url(#paint12_radial_493_113485)"/>
<path d="M481.433 95.4297V94.4688H488.605V95.4297H485.599V103H484.439V95.4297H481.433ZM489.308 101.166C489.308 100.529 489.581 100.035 490.128 99.6836C490.679 99.332 491.392 99.1562 492.267 99.1562H493.937V98.7109C493.937 98.3359 493.82 98.0371 493.585 97.8145C493.355 97.5918 492.96 97.4805 492.402 97.4805C491.847 97.4805 491.447 97.5762 491.201 97.7676C490.955 97.9551 490.831 98.1816 490.831 98.4473V98.4766H489.706V98.4473C489.706 97.9355 489.951 97.498 490.439 97.1348C490.927 96.7715 491.591 96.5898 492.431 96.5898C493.267 96.5898 493.914 96.7695 494.371 97.1289C494.831 97.4844 495.062 98.0117 495.062 98.7109V101.594C495.062 101.848 495.083 102.088 495.126 102.314C495.169 102.537 495.23 102.734 495.308 102.906V103H494.224C494.162 102.902 494.105 102.773 494.054 102.613C494.003 102.453 493.972 102.295 493.96 102.139C493.796 102.4 493.523 102.629 493.14 102.824C492.757 103.02 492.267 103.117 491.669 103.117C490.997 103.117 490.435 102.949 489.982 102.613C489.533 102.277 489.308 101.795 489.308 101.166ZM490.433 101.107C490.433 101.459 490.554 101.732 490.796 101.928C491.039 102.123 491.417 102.221 491.933 102.221C492.449 102.221 492.912 102.072 493.322 101.775C493.732 101.479 493.937 101.164 493.937 100.832V99.9531H492.396C491.755 99.9531 491.267 100.057 490.931 100.264C490.599 100.467 490.433 100.748 490.433 101.107ZM497.06 105.438V96.7656H498.079L498.132 97.6211H498.155C498.343 97.3516 498.626 97.123 499.005 96.9355C499.384 96.7441 499.827 96.6484 500.335 96.6484C501.21 96.6484 501.909 96.9453 502.433 97.5391C502.96 98.1289 503.224 98.8789 503.224 99.7891V99.9766C503.224 100.883 502.96 101.633 502.433 102.227C501.909 102.82 501.21 103.117 500.335 103.117C499.827 103.117 499.396 103.035 499.04 102.871C498.685 102.707 498.4 102.49 498.185 102.221V105.438H497.06ZM498.185 101.084C498.325 101.373 498.558 101.631 498.882 101.857C499.206 102.08 499.601 102.191 500.066 102.191C500.757 102.191 501.263 101.98 501.583 101.559C501.907 101.133 502.07 100.605 502.07 99.9766V99.7891C502.07 99.1562 501.907 98.6289 501.583 98.207C501.263 97.7852 500.757 97.5742 500.066 97.5742C499.601 97.5742 499.206 97.6875 498.882 97.9141C498.562 98.1367 498.329 98.3926 498.185 98.6816V101.084ZM504.87 96.7656H509.347V97.6504H505.995V103H504.87V96.7656ZM510.307 99.9766V99.7891C510.307 98.8477 510.592 98.0801 511.163 97.4863C511.737 96.8887 512.495 96.5898 513.436 96.5898C514.382 96.5898 515.108 96.8691 515.616 97.4277C516.124 97.9824 516.378 98.7344 516.378 99.6836V100.146H510.975V99.25H515.247V99.2207C515.247 98.7207 515.104 98.3105 514.819 97.9902C514.534 97.6699 514.077 97.5098 513.448 97.5098C512.788 97.5098 512.288 97.7285 511.948 98.166C511.608 98.6035 511.438 99.1445 511.438 99.7891V99.9766C511.438 100.621 511.616 101.162 511.971 101.6C512.331 102.037 512.884 102.256 513.63 102.256C514.083 102.256 514.473 102.17 514.801 101.998C515.13 101.822 515.393 101.615 515.592 101.377L516.319 101.975C516.1 102.268 515.76 102.541 515.3 102.795C514.842 103.049 514.286 103.176 513.63 103.176C512.555 103.176 511.733 102.879 511.163 102.285C510.592 101.688 510.307 100.918 510.307 99.9766ZM517.221 97.6504V96.7656H522.788V97.6504H520.567V103H519.442V97.6504H517.221ZM524.117 103V96.7656H525.231V100.738C525.231 100.855 525.229 100.988 525.225 101.137C525.225 101.285 525.223 101.42 525.219 101.541H525.266C525.321 101.436 525.381 101.324 525.447 101.207C525.514 101.09 525.59 100.973 525.676 100.855L528.612 96.7656H529.742V103H528.623V99.0332C528.623 98.9121 528.625 98.7773 528.629 98.6289C528.633 98.4766 528.639 98.3398 528.647 98.2188H528.582C528.531 98.3203 528.473 98.4316 528.406 98.5527C528.34 98.6738 528.266 98.793 528.184 98.9102L525.248 103H524.117ZM531.752 105.438V96.7656H532.771L532.824 97.6211H532.848C533.035 97.3516 533.318 97.123 533.697 96.9355C534.076 96.7441 534.52 96.6484 535.027 96.6484C535.902 96.6484 536.602 96.9453 537.125 97.5391C537.652 98.1289 537.916 98.8789 537.916 99.7891V99.9766C537.916 100.883 537.652 101.633 537.125 102.227C536.602 102.82 535.902 103.117 535.027 103.117C534.52 103.117 534.088 103.035 533.732 102.871C533.377 102.707 533.092 102.49 532.877 102.221V105.438H531.752ZM532.877 101.084C533.018 101.373 533.25 101.631 533.574 101.857C533.898 102.08 534.293 102.191 534.758 102.191C535.449 102.191 535.955 101.98 536.275 101.559C536.6 101.133 536.762 100.605 536.762 99.9766V99.7891C536.762 99.1562 536.6 98.6289 536.275 98.207C535.955 97.7852 535.449 97.5742 534.758 97.5742C534.293 97.5742 533.898 97.6875 533.574 97.9141C533.254 98.1367 533.021 98.3926 532.877 98.6816V101.084ZM539.193 99.9766V99.7891C539.193 98.8477 539.488 98.0801 540.078 97.4863C540.672 96.8887 541.465 96.5898 542.457 96.5898C543.445 96.5898 544.236 96.8887 544.83 97.4863C545.424 98.0801 545.72 98.8477 545.72 99.7891V99.9766C545.72 100.918 545.424 101.688 544.83 102.285C544.236 102.879 543.445 103.176 542.457 103.176C541.465 103.176 540.672 102.879 540.078 102.285C539.488 101.688 539.193 100.918 539.193 99.9766ZM540.342 99.7891V99.9766C540.342 100.617 540.519 101.156 540.875 101.594C541.23 102.031 541.758 102.25 542.457 102.25C543.156 102.25 543.681 102.031 544.033 101.594C544.388 101.156 544.566 100.617 544.566 99.9766V99.7891C544.566 99.1445 544.388 98.6055 544.033 98.1719C543.681 97.7344 543.156 97.5156 542.457 97.5156C541.758 97.5156 541.23 97.7344 540.875 98.1719C540.519 98.6055 540.342 99.1445 540.342 99.7891ZM547.361 103V96.7656H550.484C551.195 96.7656 551.75 96.9043 552.148 97.1816C552.55 97.4551 552.751 97.8711 552.751 98.4297C552.751 98.7773 552.648 99.0684 552.441 99.3027C552.234 99.5371 551.957 99.6953 551.609 99.7773V99.7949C552.031 99.8574 552.363 100.012 552.605 100.258C552.847 100.5 552.968 100.811 552.968 101.189C552.968 101.76 552.757 102.205 552.335 102.525C551.914 102.842 551.355 103 550.66 103H547.361ZM548.486 99.3906H550.484C550.886 99.3906 551.175 99.3105 551.351 99.1504C551.527 98.9902 551.615 98.7695 551.615 98.4883C551.615 98.2148 551.527 98.0078 551.351 97.8672C551.175 97.7266 550.886 97.6543 550.484 97.6504H548.486V99.3906ZM548.486 102.115H550.66C551.066 102.115 551.363 102.031 551.55 101.863C551.742 101.695 551.837 101.469 551.837 101.184C551.837 100.906 551.744 100.686 551.556 100.521C551.369 100.354 551.07 100.27 550.66 100.27H548.486V102.115ZM554.327 101.166C554.327 100.529 554.601 100.035 555.148 99.6836C555.699 99.332 556.411 99.1562 557.286 99.1562H558.956V98.7109C558.956 98.3359 558.839 98.0371 558.605 97.8145C558.374 97.5918 557.98 97.4805 557.421 97.4805C556.866 97.4805 556.466 97.5762 556.22 97.7676C555.974 97.9551 555.851 98.1816 555.851 98.4473V98.4766H554.726V98.4473C554.726 97.9355 554.97 97.498 555.458 97.1348C555.947 96.7715 556.611 96.5898 557.45 96.5898C558.286 96.5898 558.933 96.7695 559.39 97.1289C559.851 97.4844 560.081 98.0117 560.081 98.7109V101.594C560.081 101.848 560.103 102.088 560.146 102.314C560.189 102.537 560.249 102.734 560.327 102.906V103H559.243C559.181 102.902 559.124 102.773 559.074 102.613C559.023 102.453 558.991 102.295 558.98 102.139C558.816 102.4 558.542 102.629 558.159 102.824C557.777 103.02 557.286 103.117 556.689 103.117C556.017 103.117 555.454 102.949 555.001 102.613C554.552 102.277 554.327 101.795 554.327 101.166ZM555.452 101.107C555.452 101.459 555.574 101.732 555.816 101.928C556.058 102.123 556.437 102.221 556.952 102.221C557.468 102.221 557.931 102.072 558.341 101.775C558.751 101.479 558.956 101.164 558.956 100.832V99.9531H557.415C556.775 99.9531 556.286 100.057 555.95 100.264C555.618 100.467 555.452 100.748 555.452 101.107ZM562.079 96.7656H563.204V99.3789H566.509V96.7656H567.634V103H566.509V100.27H563.204V103H562.079V96.7656ZM569.643 96.7656H570.768V99.3789H574.073V96.7656H575.198V103H574.073V100.27H570.768V103H569.643V96.7656ZM576.856 101.166C576.856 100.529 577.129 100.035 577.676 99.6836C578.227 99.332 578.94 99.1562 579.815 99.1562H581.485V98.7109C581.485 98.3359 581.368 98.0371 581.133 97.8145C580.903 97.5918 580.508 97.4805 579.95 97.4805C579.395 97.4805 578.995 97.5762 578.749 97.7676C578.503 97.9551 578.379 98.1816 578.379 98.4473V98.4766H577.254V98.4473C577.254 97.9355 577.499 97.498 577.987 97.1348C578.475 96.7715 579.139 96.5898 579.979 96.5898C580.815 96.5898 581.461 96.7695 581.919 97.1289C582.379 97.4844 582.61 98.0117 582.61 98.7109V101.594C582.61 101.848 582.631 102.088 582.674 102.314C582.717 102.537 582.778 102.734 582.856 102.906V103H581.772C581.71 102.902 581.653 102.773 581.602 102.613C581.551 102.453 581.52 102.295 581.508 102.139C581.344 102.4 581.071 102.629 580.688 102.824C580.305 103.02 579.815 103.117 579.217 103.117C578.545 103.117 577.983 102.949 577.53 102.613C577.081 102.277 576.856 101.795 576.856 101.166ZM577.981 101.107C577.981 101.459 578.102 101.732 578.344 101.928C578.586 102.123 578.965 102.221 579.481 102.221C579.997 102.221 580.46 102.072 580.87 101.775C581.28 101.479 581.485 101.164 581.485 100.832V99.9531H579.944C579.303 99.9531 578.815 100.057 578.479 100.264C578.147 100.467 577.981 100.748 577.981 101.107ZM585.451 103H584.203L586.207 100.34L587.338 100.439L585.451 103ZM588.692 103V100.75H586.934L586.805 100.68C586.039 100.68 585.451 100.508 585.041 100.164C584.631 99.8164 584.426 99.3496 584.426 98.7637C584.426 98.1582 584.633 97.6738 585.047 97.3105C585.461 96.9473 586.055 96.7656 586.828 96.7656H589.823V103H588.692ZM586.834 99.8594H588.692V97.6504H586.834C586.366 97.6504 586.035 97.7559 585.844 97.9668C585.657 98.1777 585.563 98.4434 585.563 98.7637C585.563 99.0879 585.657 99.3516 585.844 99.5547C586.032 99.7578 586.362 99.8594 586.834 99.8594Z" fill="#04101C"/>
</g>
<defs>
<filter id="filter0_d_493_113485" x="373" y="291" width="108" height="110" filterUnits="userSpaceOnUse" color-interpolation-filters="sRGB">
<feFlood flood-opacity="0" result="BackgroundImageFix"/>
<feColorMatrix in="SourceAlpha" type="matrix" values="0 0 0 0 0 0 0 0 0 0 0 0 0 0 0 0 0 0 127 0" result="hardAlpha"/>
<feOffset dx="1" dy="2"/>
<feGaussianBlur stdDeviation="5"/>
<feComposite in2="hardAlpha" operator="out"/>
<feColorMatrix type="matrix" values="0 0 0 0 0.00780001 0 0 0 0 0.045344 0 0 0 0 0.0800001 0 0 0 0.04 0"/>
<feBlend mode="normal" in2="BackgroundImageFix" result="effect1_dropShadow_493_113485"/>
<feBlend mode="normal" in="SourceGraphic" in2="effect1_dropShadow_493_113485" result="shape"/>
</filter>
<filter id="filter1_d_493_113485" x="501" y="156" width="135" height="114" filterUnits="userSpaceOnUse" color-interpolation-filters="sRGB">
<feFlood flood-opacity="0" result="BackgroundImageFix"/>
<feColorMatrix in="SourceAlpha" type="matrix" values="0 0 0 0 0 0 0 0 0 0 0 0 0 0 0 0 0 0 127 0" result="hardAlpha"/>
<feOffset dx="1" dy="2"/>
<feGaussianBlur stdDeviation="5"/>
<feComposite in2="hardAlpha" operator="out"/>
<feColorMatrix type="matrix" values="0 0 0 0 0.00780001 0 0 0 0 0.045344 0 0 0 0 0.0800001 0 0 0 0.04 0"/>
<feBlend mode="normal" in2="BackgroundImageFix" result="effect1_dropShadow_493_113485"/>
<feBlend mode="normal" in="SourceGraphic" in2="effect1_dropShadow_493_113485" result="shape"/>
</filter>
<filter id="filter2_d_493_113485" x="373" y="168" width="110" height="114" filterUnits="userSpaceOnUse" color-interpolation-filters="sRGB">
<feFlood flood-opacity="0" result="BackgroundImageFix"/>
<feColorMatrix in="SourceAlpha" type="matrix" values="0 0 0 0 0 0 0 0 0 0 0 0 0 0 0 0 0 0 127 0" result="hardAlpha"/>
<feOffset dx="1" dy="2"/>
<feGaussianBlur stdDeviation="5"/>
<feComposite in2="hardAlpha" operator="out"/>
<feColorMatrix type="matrix" values="0 0 0 0 0.00780001 0 0 0 0 0.045344 0 0 0 0 0.0800001 0 0 0 0.04 0"/>
<feBlend mode="normal" in2="BackgroundImageFix" result="effect1_dropShadow_493_113485"/>
<feBlend mode="normal" in="SourceGraphic" in2="effect1_dropShadow_493_113485" result="shape"/>
</filter>
<filter id="filter3_d_493_113485" x="454" y="21" width="166" height="114" filterUnits="userSpaceOnUse" color-interpolation-filters="sRGB">
<feFlood flood-opacity="0" result="BackgroundImageFix"/>
<feColorMatrix in="SourceAlpha" type="matrix" values="0 0 0 0 0 0 0 0 0 0 0 0 0 0 0 0 0 0 127 0" result="hardAlpha"/>
<feOffset dx="1" dy="2"/>
<feGaussianBlur stdDeviation="5"/>
<feComposite in2="hardAlpha" operator="out"/>
<feColorMatrix type="matrix" values="0 0 0 0 0.00780001 0 0 0 0 0.045344 0 0 0 0 0.0800001 0 0 0 0.04 0"/>
<feBlend mode="normal" in2="BackgroundImageFix" result="effect1_dropShadow_493_113485"/>
<feBlend mode="normal" in="SourceGraphic" in2="effect1_dropShadow_493_113485" result="shape"/>
</filter>
<radialGradient id="paint0_radial_493_113485" cx="0" cy="0" r="1" gradientUnits="userSpaceOnUse" gradientTransform="translate(438 321) rotate(120.7) scale(37.2156)">
<stop offset="0.338542" stop-color="#7A73FF"/>
<stop offset="0.722638" stop-color="#75CDFF"/>
<stop offset="1" stop-color="#4AFCF1"/>
</radialGradient>
<radialGradient id="paint1_radial_493_113485" cx="0" cy="0" r="1" gradientUnits="userSpaceOnUse" gradientTransform="translate(567.5 202) rotate(99.7276) scale(17.7553)">
<stop offset="0.055" stop-color="#7A73FF"/>
<stop offset="0.65" stop-color="#67DDFA"/>
<stop offset="1" stop-color="#4AFCF1"/>
</radialGradient>
<radialGradient id="paint2_radial_493_113485" cx="0" cy="0" r="1" gradientUnits="userSpaceOnUse" gradientTransform="translate(567.5 202) rotate(99.7276) scale(17.7553)">
<stop offset="0.055" stop-color="#7A73FF"/>
<stop offset="0.65" stop-color="#67DDFA"/>
<stop offset="1" stop-color="#4AFCF1"/>
</radialGradient>
<radialGradient id="paint3_radial_493_113485" cx="0" cy="0" r="1" gradientUnits="userSpaceOnUse" gradientTransform="translate(567.5 202) rotate(99.7276) scale(17.7553)">
<stop offset="0.055" stop-color="#7A73FF"/>
<stop offset="0.65" stop-color="#67DDFA"/>
<stop offset="1" stop-color="#4AFCF1"/>
</radialGradient>
<radialGradient id="paint4_radial_493_113485" cx="0" cy="0" r="1" gradientUnits="userSpaceOnUse" gradientTransform="translate(567.5 202) rotate(99.7276) scale(17.7553)">
<stop offset="0.055" stop-color="#7A73FF"/>
<stop offset="0.65" stop-color="#67DDFA"/>
<stop offset="1" stop-color="#4AFCF1"/>
</radialGradient>
<radialGradient id="paint5_radial_493_113485" cx="0" cy="0" r="1" gradientUnits="userSpaceOnUse" gradientTransform="translate(567.5 202) rotate(99.7276) scale(17.7553)">
<stop offset="0.055" stop-color="#7A73FF"/>
<stop offset="0.65" stop-color="#67DDFA"/>
<stop offset="1" stop-color="#4AFCF1"/>
</radialGradient>
<linearGradient id="paint6_linear_493_113485" x1="535" y1="210" x2="534.591" y2="216.772" gradientUnits="userSpaceOnUse">
<stop offset="0.338542" stop-color="#7A73FF"/>
<stop offset="0.734375" stop-color="#75CDFF"/>
<stop offset="1" stop-color="#4AFCF1"/>
</linearGradient>
<linearGradient id="paint7_linear_493_113485" x1="480.081" y1="-1.99993" x2="365.971" y2="82.2247" gradientUnits="userSpaceOnUse">
<stop offset="0.338542" stop-color="#7A73FF"/>
<stop offset="0.734375" stop-color="#75CDFF"/>
<stop offset="1" stop-color="#4AFCF1"/>
</linearGradient>
<linearGradient id="paint8_linear_493_113485" x1="425" y1="213.063" x2="431.778" y2="213.42" gradientUnits="userSpaceOnUse">
<stop offset="0.338542" stop-color="#7A73FF"/>
<stop offset="0.734375" stop-color="#75CDFF"/>
<stop offset="1" stop-color="#4AFCF1"/>
</linearGradient>
<radialGradient id="paint9_radial_493_113485" cx="0" cy="0" r="1" gradientUnits="userSpaceOnUse" gradientTransform="translate(428.5 215) rotate(99.7276) scale(19.0235)">
<stop offset="0.055" stop-color="#7A73FF"/>
<stop offset="0.65" stop-color="#67DDFA"/>
<stop offset="1" stop-color="#4AFCF1"/>
</radialGradient>
<radialGradient id="paint10_radial_493_113485" cx="0" cy="0" r="1" gradientUnits="userSpaceOnUse" gradientTransform="translate(428.5 215) rotate(99.7276) scale(19.0235)">
<stop offset="0.055" stop-color="#7A73FF"/>
<stop offset="0.65" stop-color="#67DDFA"/>
<stop offset="1" stop-color="#4AFCF1"/>
</radialGradient>
<radialGradient id="paint11_radial_493_113485" cx="0" cy="0" r="1" gradientUnits="userSpaceOnUse" gradientTransform="translate(536 67) rotate(99.7276) scale(17.7553)">
<stop offset="0.055" stop-color="#7A73FF"/>
<stop offset="0.65" stop-color="#67DDFA"/>
<stop offset="1" stop-color="#4AFCF1"/>
</radialGradient>
<radialGradient id="paint12_radial_493_113485" cx="0" cy="0" r="1" gradientUnits="userSpaceOnUse" gradientTransform="translate(536 67) rotate(99.7276) scale(17.7553)">
<stop offset="0.055" stop-color="#7A73FF"/>
<stop offset="0.65" stop-color="#67DDFA"/>
<stop offset="1" stop-color="#4AFCF1"/>
</radialGradient>
</defs>
</svg>
