<svg width="788" height="874" viewBox="0 0 788 874" fill="none" xmlns="http://www.w3.org/2000/svg">
<g filter="url(#filter0_d_493_113389)">
<rect x="384" y="299" width="88" height="90" rx="12" fill="white"/>
<path fill-rule="evenodd" clip-rule="evenodd" d="M428 353C436.837 353 444 345.837 444 337C444 331.866 441.582 327.297 437.823 324.37L435.181 322.698C433.022 321.612 430.582 321 428 321C419.163 321 412 328.163 412 337C412 345.837 419.163 353 428 353ZM435.181 322.698V330.292C433.317 328.202 430.622 326.889 427.625 326.889C421.999 326.889 417.437 331.517 417.437 337.226C417.437 342.935 421.999 347.563 427.625 347.563C430.622 347.563 433.317 346.25 435.181 344.16L435.107 346.311C435.097 346.614 435.339 346.864 435.642 346.864H437.358C437.654 346.864 437.893 346.624 437.892 346.328L437.823 324.37L435.181 322.698ZM435.606 337.226C435.606 341.525 432.166 345.01 427.922 345.01C423.679 345.01 420.239 341.525 420.239 337.226C420.239 332.927 423.679 329.441 427.922 329.441C432.166 329.441 435.606 332.927 435.606 337.226Z" fill="url(#paint0_radial_493_113389)"/>
<path d="M402.513 365H405.556C408.733 365 410.071 366.269 410.071 369C410.071 371.731 408.733 373 405.556 373H402.513C402.234 373 402 372.771 402 372.486V365.537C402 365.24 402.223 365 402.513 365ZM405.5 366.577H404.051V371.423H405.5C407.496 371.423 408.02 370.714 408.02 369C408.02 367.286 407.496 366.577 405.5 366.577Z" fill="#04101C"/>
<path d="M410.541 372.486L411.913 367.171C412.37 365.4 413.941 365 415.524 365H418.456C418.724 365 418.924 365.24 418.924 365.514V372.486C418.924 372.771 418.69 373 418.412 373H417.386C417.096 373 416.873 372.771 416.873 372.474V371.069H413.005L412.637 372.474C412.559 372.771 412.28 373 411.991 373H410.92C410.631 373 410.463 372.771 410.541 372.486ZM413.886 367.697L413.406 369.491H416.873V366.577H415.324C414.621 366.577 414.064 367.011 413.886 367.697Z" fill="#04101C"/>
<path d="M422.815 372.486V370.143L419.905 365.526C419.738 365.263 419.816 365 420.095 365H421.131C421.577 365 421.89 365.229 422.079 365.526L423.84 368.314L425.602 365.526C425.791 365.229 426.103 365 426.549 365H427.586C427.865 365 427.943 365.263 427.775 365.526L424.866 370.143V372.486C424.866 372.771 424.632 373 424.353 373H423.328C423.049 373 422.815 372.771 422.815 372.486Z" fill="#04101C"/>
<path d="M430.23 373H429.271C428.993 373 428.759 372.76 428.759 372.474V365.526C428.759 365.24 428.981 365 429.26 365H430.865C431.133 365 431.445 365.263 431.612 365.526L434.901 370.714V365.514C434.901 365.229 435.135 365 435.414 365H436.35C436.64 365 436.863 365.229 436.863 365.526V372.474C436.863 372.76 436.64 373 436.35 373H434.544C434.254 373 433.931 372.76 433.753 372.474L430.743 367.686V372.474C430.743 372.76 430.509 373 430.23 373Z" fill="#04101C"/>
<path d="M445.214 365C445.493 365 445.727 365.229 445.727 365.526V366.051C445.727 366.349 445.493 366.577 445.214 366.577H440.477V368.2H444.557C444.835 368.2 445.069 368.44 445.069 368.726V369.251C445.069 369.537 444.835 369.777 444.557 369.777H440.477V371.423H445.203C445.482 371.423 445.705 371.651 445.705 371.937V372.474C445.705 372.76 445.482 373 445.192 373H438.938C438.648 373 438.426 372.76 438.426 372.463V365.514C438.426 365.229 438.66 365 438.938 365H445.214Z" fill="#04101C"/>
<path d="M446.576 365H453.487C453.777 365 454 365.229 454 365.526V366.051C454 366.349 453.777 366.577 453.487 366.577H451.057V372.486C451.057 372.771 450.823 373 450.544 373H449.519C449.24 373 449.006 372.771 449.006 372.486V366.577H446.576C446.286 366.577 446.063 366.349 446.063 366.051V365.526C446.063 365.229 446.286 365 446.576 365Z" fill="#04101C"/>
</g>
<g filter="url(#filter1_d_493_113389)">
<rect x="383" y="163" width="90" height="94" rx="12" fill="white"/>
<path d="M434.409 207.045C433.864 207.045 433.455 206.773 433.182 206.364L431.546 203.5C430.864 202 429.501 200.636 428.001 199.818L425.137 198.182C424.728 198.045 424.455 197.5 424.455 197.091C424.455 196.545 424.728 196.136 425.137 195.864L428.001 194.227C429.501 193.409 430.864 192.182 431.682 190.545L433.319 187.682C433.455 187.273 434 187 434.409 187C434.955 187 435.364 187.273 435.637 187.682L437.273 190.545C438.091 192.045 439.455 193.409 440.955 194.227L443.818 195.864C444.227 196.136 444.5 196.545 444.5 197.091C444.5 197.636 444.227 198.045 443.818 198.318L440.955 199.955C439.455 200.773 438.091 202.136 437.273 203.636L435.637 206.5C435.364 206.773 434.955 207.045 434.409 207.045ZM428.682 197.091L429.364 197.5C431.41 198.591 433.046 200.227 434.137 202.273L434.546 202.955L434.955 202.273C436.046 200.227 437.682 198.591 439.727 197.5L440.409 197.091L439.727 196.682C437.682 195.591 436.046 193.955 434.955 191.909L434.546 191.227L434.137 191.909C433.046 193.955 431.41 195.591 429.364 196.682L428.682 197.091Z" fill="url(#paint1_radial_493_113389)"/>
<path d="M422 217C421.454 217 421.045 216.727 420.773 216.318L419.954 214.682C419.273 213.318 418.182 212.227 416.818 211.545L415.182 210.727C414.773 210.455 414.5 209.909 414.5 209.5C414.5 208.955 414.773 208.545 415.182 208.273L416.818 207.455C418.182 206.773 419.273 205.682 419.954 204.318L420.773 202.682C421.318 201.864 422.682 201.864 423.227 202.682L424.045 204.318C424.727 205.682 425.818 206.773 427.181 207.455L428.818 208.273C429.227 208.545 429.499 208.955 429.499 209.5C429.499 210.045 429.227 210.455 428.818 210.727L427.318 211.545C425.954 212.227 424.863 213.318 424.181 214.682L423.363 216.318C422.954 216.727 422.545 217 422 217ZM418.727 209.5C420.091 210.318 421.318 211.545 422.136 212.909C422.954 211.545 424.181 210.318 425.545 209.5C424.045 208.545 422.954 207.455 422 206.091C421.182 207.455 420.091 208.545 418.727 209.5Z" fill="url(#paint2_radial_493_113389)"/>
<path d="M402.296 237V228.469H405.372C406.395 228.469 407.18 228.705 407.727 229.178C408.278 229.646 408.553 230.277 408.553 231.07C408.553 231.859 408.278 232.494 407.727 232.975C407.18 233.451 406.395 233.689 405.372 233.689H403.462V237H402.296ZM403.462 232.734H405.372C406.118 232.734 406.639 232.574 406.936 232.254C407.237 231.934 407.387 231.539 407.387 231.07C407.387 230.598 407.237 230.207 406.936 229.898C406.639 229.586 406.118 229.43 405.372 229.43H403.462V232.734ZM409.42 233.977V233.789C409.42 232.848 409.706 232.08 410.276 231.486C410.85 230.889 411.608 230.59 412.549 230.59C413.495 230.59 414.221 230.869 414.729 231.428C415.237 231.982 415.491 232.734 415.491 233.684V234.146H410.088V233.25H414.36V233.221C414.36 232.721 414.217 232.311 413.932 231.99C413.647 231.67 413.19 231.51 412.561 231.51C411.901 231.51 411.401 231.729 411.061 232.166C410.721 232.604 410.551 233.145 410.551 233.789V233.977C410.551 234.621 410.729 235.162 411.084 235.6C411.444 236.037 411.997 236.256 412.743 236.256C413.196 236.256 413.586 236.17 413.915 235.998C414.243 235.822 414.506 235.615 414.706 235.377L415.432 235.975C415.213 236.268 414.874 236.541 414.413 236.795C413.956 237.049 413.399 237.176 412.743 237.176C411.668 237.176 410.846 236.879 410.276 236.285C409.706 235.688 409.42 234.918 409.42 233.977ZM421.438 237L418.737 234.146L419.428 233.414L422.873 237H421.438ZM417.582 233.385H418.813L421.227 230.766H422.557L419.276 234.27H417.582V233.385ZM418.145 230.766V237H417.026V230.766H418.145ZM425.574 231.65L425.469 234.135C425.422 235.186 425.277 235.947 425.035 236.42C424.797 236.893 424.385 237.129 423.799 237.129C423.654 237.129 423.527 237.119 423.418 237.1C423.309 237.084 423.217 237.059 423.143 237.023V236.057C423.209 236.084 423.277 236.104 423.348 236.115C423.422 236.127 423.506 236.133 423.6 236.133C423.896 236.133 424.102 235.98 424.215 235.676C424.332 235.367 424.406 234.803 424.438 233.982L424.578 230.766H429.389V237H428.264V231.65H425.574ZM431.052 235.166C431.052 234.529 431.326 234.035 431.873 233.684C432.424 233.332 433.136 233.156 434.011 233.156H435.681V232.711C435.681 232.336 435.564 232.037 435.33 231.814C435.099 231.592 434.705 231.48 434.146 231.48C433.592 231.48 433.191 231.576 432.945 231.768C432.699 231.955 432.576 232.182 432.576 232.447V232.477H431.451V232.447C431.451 231.936 431.695 231.498 432.183 231.135C432.672 230.771 433.336 230.59 434.176 230.59C435.011 230.59 435.658 230.77 436.115 231.129C436.576 231.484 436.806 232.012 436.806 232.711V235.594C436.806 235.848 436.828 236.088 436.871 236.314C436.914 236.537 436.974 236.734 437.052 236.906V237H435.969C435.906 236.902 435.849 236.773 435.799 236.613C435.748 236.453 435.717 236.295 435.705 236.139C435.541 236.4 435.267 236.629 434.885 236.824C434.502 237.02 434.011 237.117 433.414 237.117C432.742 237.117 432.179 236.949 431.726 236.613C431.277 236.277 431.052 235.795 431.052 235.166ZM432.177 235.107C432.177 235.459 432.299 235.732 432.541 235.928C432.783 236.123 433.162 236.221 433.677 236.221C434.193 236.221 434.656 236.072 435.066 235.775C435.476 235.479 435.681 235.164 435.681 234.832V233.953H434.14C433.5 233.953 433.011 234.057 432.676 234.264C432.344 234.467 432.177 234.748 432.177 235.107ZM438.804 237V230.766H440.357L442.32 235.084C442.425 235.318 442.492 235.479 442.519 235.564C442.55 235.646 442.576 235.734 442.595 235.828H442.66C442.679 235.734 442.703 235.646 442.73 235.564C442.757 235.479 442.824 235.322 442.929 235.096L444.904 230.766H446.427V237H445.337V232.734C445.337 232.504 445.339 232.338 445.343 232.236C445.351 232.135 445.361 232.043 445.373 231.961H445.326C445.306 232.039 445.281 232.127 445.25 232.225C445.218 232.322 445.154 232.479 445.056 232.693L443.087 237H442.097L440.123 232.676C440.041 232.488 439.982 232.342 439.947 232.236C439.912 232.131 439.886 232.039 439.871 231.961H439.812C439.82 232.043 439.828 232.135 439.835 232.236C439.843 232.334 439.847 232.488 439.847 232.699V237H438.804ZM448.091 235.166C448.091 234.529 448.365 234.035 448.911 233.684C449.462 233.332 450.175 233.156 451.05 233.156H452.72V232.711C452.72 232.336 452.603 232.037 452.368 231.814C452.138 231.592 451.743 231.48 451.185 231.48C450.63 231.48 450.23 231.576 449.984 231.768C449.738 231.955 449.615 232.182 449.615 232.447V232.477H448.49V232.447C448.49 231.936 448.734 231.498 449.222 231.135C449.71 230.771 450.374 230.59 451.214 230.59C452.05 230.59 452.697 230.77 453.154 231.129C453.615 231.484 453.845 232.012 453.845 232.711V235.594C453.845 235.848 453.866 236.088 453.909 236.314C453.952 236.537 454.013 236.734 454.091 236.906V237H453.007C452.945 236.902 452.888 236.773 452.837 236.613C452.786 236.453 452.755 236.295 452.743 236.139C452.579 236.4 452.306 236.629 451.923 236.824C451.54 237.02 451.05 237.117 450.452 237.117C449.781 237.117 449.218 236.949 448.765 236.613C448.316 236.277 448.091 235.795 448.091 235.166ZM449.216 235.107C449.216 235.459 449.337 235.732 449.579 235.928C449.822 236.123 450.2 236.221 450.716 236.221C451.232 236.221 451.695 236.072 452.105 235.775C452.515 235.479 452.72 235.164 452.72 234.832V233.953H451.179C450.538 233.953 450.05 234.057 449.714 234.264C449.382 234.467 449.216 234.748 449.216 235.107Z" fill="#04101C"/>
</g>
<rect x="234.5" y="164.5" width="67" height="67" rx="11.5" fill="#F9FBFF"/>
<rect x="234.5" y="164.5" width="67" height="67" rx="11.5" stroke="#ECECEC"/>
<path d="M278.732 184.433C278.155 183.856 277.289 183.856 276.713 184.433C276.136 185.01 276.136 185.876 276.713 186.453C279.309 189.05 280.751 192.512 280.751 196.264C280.751 200.015 279.309 203.478 276.713 206.075C274.116 208.672 270.655 210.114 266.904 210.114C263.731 210.114 260.558 208.96 258.106 206.94L259.981 204.92C262 206.507 264.452 207.229 266.76 207.229C269.645 207.229 272.385 206.219 274.549 204.055C278.876 199.726 278.876 192.657 274.549 188.473C270.222 184.144 263.154 184.144 258.971 188.473C255.077 192.368 254.644 198.572 257.962 202.9L254.933 206.075C254.356 206.652 254.356 207.517 254.933 208.095C258.106 211.269 262.289 213 266.76 213C271.232 213 275.414 211.269 278.588 208.095C281.761 204.92 283.492 200.736 283.492 196.264C283.636 191.791 281.905 187.607 278.732 184.433ZM261.135 190.493C262.722 188.905 264.885 188.04 266.904 188.04C269.068 188.04 271.087 188.905 272.674 190.493C275.847 193.667 275.847 198.861 272.674 202.035C269.501 205.209 264.308 205.209 261.135 202.035C257.962 198.861 257.962 193.667 261.135 190.493Z" fill="#ECECEC"/>
<rect x="165.5" y="297.5" width="67" height="67" rx="11.5" fill="#F9FBFF"/>
<rect x="165.5" y="297.5" width="67" height="67" rx="11.5" stroke="#ECECEC"/>
<path d="M211.854 318.617C210.03 316.793 206.943 316.512 203.295 317.775C202.032 318.196 200.77 318.898 199.507 319.599C194.456 316.652 189.686 316.091 187.16 318.617C184.495 321.143 185.196 325.914 188.142 330.967C185.056 336.159 184.635 340.93 187.16 343.316C188.142 344.439 189.686 345 191.51 345C193.895 345 196.701 344.018 199.507 342.334C202.313 344.018 205.119 345 207.504 345C209.328 345 210.731 344.439 211.854 343.456C214.379 340.93 213.818 336.159 210.872 331.107C213.958 325.774 214.379 321.003 211.854 318.617ZM204.137 320.441C206.803 319.459 208.767 319.599 209.889 320.582C211.152 321.845 210.872 324.932 209.188 328.3C208.206 327.037 207.224 325.774 205.961 324.511C204.698 323.248 203.436 322.266 202.173 321.283C202.874 321.003 203.576 320.582 204.137 320.441ZM189.125 341.351C187.862 340.088 188.142 337.001 189.826 333.633C190.808 334.896 191.79 336.159 193.053 337.422C194.316 338.685 195.579 339.808 196.841 340.65C193.334 342.474 190.387 342.614 189.125 341.351ZM209.889 341.351C208.627 342.614 205.68 342.334 202.032 340.65C203.295 339.667 204.558 338.545 205.821 337.422C206.382 336.861 206.943 336.299 207.364 335.738C207.925 335.177 207.785 334.335 207.224 333.773C206.662 333.212 205.821 333.352 205.259 333.914C204.839 334.475 204.277 334.896 203.856 335.457C202.453 336.861 200.91 338.124 199.507 339.106C198.104 338.124 196.561 336.861 195.158 335.457C188.984 329.282 187.02 322.687 189.125 320.582C189.546 320.02 190.387 319.74 191.51 319.74C192.913 319.74 194.877 320.301 196.841 321.283C195.579 322.266 194.316 323.388 193.053 324.511C192.492 325.213 191.79 325.914 191.229 326.616C190.668 327.177 190.808 328.019 191.369 328.581C191.931 329.142 192.913 329.002 193.334 328.44C193.895 327.739 194.456 327.177 195.017 326.616C196.42 325.213 197.964 323.95 199.367 322.967C200.77 323.95 202.313 325.213 203.856 326.616C210.03 332.651 211.994 339.246 209.889 341.351Z" fill="#ECECEC"/>
<path d="M199.5 333.24C200.737 333.24 201.74 332.237 201.74 331C201.74 329.763 200.737 328.76 199.5 328.76C198.263 328.76 197.26 329.763 197.26 331C197.26 332.237 198.263 333.24 199.5 333.24Z" fill="#ECECEC"/>
<rect x="102.5" y="430.5" width="67" height="67" rx="11.5" fill="#F9FBFF"/>
<rect x="102.5" y="430.5" width="67" height="67" rx="11.5" stroke="#ECECEC"/>
<path fill-rule="evenodd" clip-rule="evenodd" d="M122.549 456.284C120.292 454.023 121.912 450 125.179 450H145.825C149.092 450 150.712 454.023 148.455 456.284C148.454 456.286 148.453 456.287 148.451 456.288L140.301 464.548V471.769C140.301 472.929 139.738 474.159 138.656 474.83L134.658 477.575L134.641 477.586C133.751 478.179 132.726 478.077 131.989 477.643C131.268 477.217 130.703 476.408 130.703 475.415V464.548L122.549 456.284ZM124.38 453.364C124.231 453.725 124.299 454.075 124.531 454.307L124.539 454.314L133.099 462.99C133.358 463.252 133.503 463.605 133.503 463.973V474.972L137.102 472.501C137.125 472.484 137.15 472.469 137.174 472.454C137.324 472.365 137.501 472.103 137.501 471.769V463.973C137.501 463.605 137.646 463.252 137.905 462.99L146.473 454.307C146.705 454.075 146.773 453.725 146.624 453.364C146.478 453.01 146.187 452.8 145.825 452.8H125.179C124.817 452.8 124.526 453.01 124.38 453.364Z" fill="#ECECEC"/>
<rect x="245.5" y="430.5" width="67" height="67" rx="11.5" fill="#F9FBFF"/>
<rect x="245.5" y="430.5" width="67" height="67" rx="11.5" stroke="#ECECEC"/>
<path fill-rule="evenodd" clip-rule="evenodd" d="M276.916 450.491C278.388 449.836 280.033 449.836 281.505 450.491L281.527 450.502L289.396 454.188C289.406 454.193 289.416 454.197 289.426 454.202C291.189 455.085 292.233 457.025 291.889 459.105C291.234 463.165 289.253 471.169 281.91 477.053L281.896 477.064C280.294 478.312 278.127 478.312 276.524 477.064L276.511 477.053C269.165 471.168 267.185 463.161 266.532 459.102C266.527 459.073 266.523 459.044 266.521 459.015C266.358 457.218 267.158 455.102 269.154 454.187L276.886 450.505C276.896 450.5 276.906 450.496 276.916 450.491ZM277.965 452.811L270.239 456.489L270.219 456.499C269.441 456.853 268.978 457.763 269.052 458.744C269.675 462.577 271.513 469.782 278.095 475.061C278.774 475.586 279.646 475.586 280.326 475.061C286.935 469.761 288.761 462.517 289.376 458.697L289.377 458.691C289.538 457.726 289.066 456.876 288.299 456.485L280.459 452.812C279.654 452.457 278.77 452.457 277.965 452.811Z" fill="#ECECEC"/>
<path fill-rule="evenodd" clip-rule="evenodd" d="M285.08 457.89C285.643 458.311 285.758 459.108 285.337 459.671L279.626 467.308C279.387 467.627 279.011 467.816 278.612 467.818C278.213 467.82 277.836 467.634 277.594 467.316L274.396 463.116C273.97 462.557 274.078 461.759 274.638 461.333C275.197 460.907 275.995 461.015 276.421 461.574L278.598 464.433L283.298 458.147C283.719 457.584 284.517 457.469 285.08 457.89Z" fill="#ECECEC"/>
<g filter="url(#filter2_d_493_113389)">
<rect x="276" y="297" width="68" height="94" rx="12" fill="white"/>
<path d="M320.965 343.6H318C317.506 341.8 315.9 340.6 313.924 340.6C311.576 340.6 309.6 342.52 309.6 344.8C309.6 347.08 311.576 349 313.924 349C315.9 349 317.506 347.8 318 346H320.965C321.706 346 322.2 345.4 322.2 344.8C322.2 344.08 321.706 343.6 320.965 343.6ZM313.924 346.6C312.935 346.6 312.071 345.76 312.071 344.8C312.071 343.84 312.935 343 313.924 343C314.912 343 315.776 343.84 315.776 344.8C315.776 345.76 314.912 346.6 313.924 346.6Z" fill="url(#paint3_radial_493_113389)"/>
<path d="M307.009 343.4H298.191C297.477 343.4 297 344.1 297 344.8C297 345.64 297.596 346.2 298.191 346.2H307.009C307.723 346.2 308.2 345.5 308.2 344.8C308.2 343.96 307.604 343.4 307.009 343.4Z" fill="url(#paint4_radial_493_113389)"/>
<path d="M298.191 326.6H307.009C307.723 326.6 308.2 325.9 308.2 325.2C308.2 324.5 307.604 323.8 307.009 323.8H298.191C297.477 323.8 297 324.5 297 325.2C297 325.9 297.596 326.6 298.191 326.6Z" fill="url(#paint5_radial_493_113389)"/>
<path d="M313.924 329.4C315.9 329.4 317.506 328.2 318 326.4H320.965C321.706 326.4 322.2 325.8 322.2 325.2C322.2 324.6 321.582 324 320.965 324H318C317.506 322.2 315.9 321 313.924 321C311.576 321 309.6 322.92 309.6 325.2C309.6 327.48 311.576 329.4 313.924 329.4ZM313.924 323.4C314.912 323.4 315.776 324.24 315.776 325.2C315.776 326.16 314.912 327 313.924 327C312.935 327 312.071 326.16 312.071 325.2C312.071 324.24 312.935 323.4 313.924 323.4Z" fill="url(#paint6_radial_493_113389)"/>
<path d="M298.235 336.2H301.2C301.694 337.88 303.3 339.2 305.276 339.2C307.624 339.2 309.6 337.28 309.6 335C309.6 332.72 307.624 330.8 305.276 330.8C303.3 330.8 301.694 332 301.2 333.8H298.235C297.494 333.8 297 334.4 297 335C297 335.6 297.618 336.2 298.235 336.2ZM305.276 333.2C306.265 333.2 307.129 334.04 307.129 335C307.129 335.96 306.265 336.8 305.276 336.8C304.288 336.8 303.424 335.96 303.424 335C303.424 334.04 304.288 333.2 305.276 333.2Z" fill="url(#paint7_radial_493_113389)"/>
<path d="M320.996 333.6H312.204C311.482 333.6 311 334.3 311 335C311 335.7 311.602 336.4 312.204 336.4H320.996C321.718 336.4 322.2 335.7 322.2 335C322.2 334.3 321.718 333.6 320.996 333.6Z" fill="url(#paint8_radial_493_113389)"/>
<path d="M296.272 366.951V366.518C296.272 365.182 296.639 364.145 297.373 363.406C298.108 362.664 299.049 362.293 300.198 362.293C301.35 362.293 302.293 362.664 303.028 363.406C303.762 364.145 304.129 365.182 304.129 366.518V366.951C304.129 368.287 303.762 369.326 303.028 370.068C302.293 370.807 301.35 371.176 300.198 371.176C299.049 371.176 298.108 370.807 297.373 370.068C296.639 369.326 296.272 368.287 296.272 366.951ZM297.449 366.951C297.449 367.967 297.699 368.76 298.199 369.33C298.703 369.896 299.371 370.18 300.203 370.18C301.031 370.18 301.698 369.896 302.201 369.33C302.705 368.76 302.957 367.967 302.957 366.951V366.518C302.957 365.502 302.705 364.711 302.201 364.145C301.698 363.574 301.031 363.289 300.203 363.289C299.371 363.289 298.703 363.574 298.199 364.145C297.699 364.711 297.449 365.502 297.449 366.518V366.951ZM306.074 371V362.469H309.104C310.096 362.469 310.863 362.697 311.406 363.154C311.949 363.611 312.221 364.225 312.221 364.994C312.221 365.764 311.949 366.383 311.406 366.852C310.863 367.32 310.096 367.555 309.104 367.555H307.24V371H306.074ZM307.24 366.605H309.104C309.834 366.605 310.342 366.451 310.627 366.143C310.912 365.83 311.055 365.447 311.055 364.994C311.055 364.541 310.912 364.166 310.627 363.869C310.342 363.568 309.834 363.418 309.104 363.418H307.24V366.605ZM311.365 371L309.127 367.068L310.322 366.922L312.695 371H311.365ZM314.201 371V362.469H315.724L318.496 368.885C318.547 369.002 318.595 369.125 318.642 369.254C318.693 369.379 318.738 369.496 318.777 369.605H318.824C318.859 369.496 318.9 369.379 318.947 369.254C318.994 369.125 319.043 369.002 319.094 368.885L321.847 362.469H323.4V371H322.275V364.73C322.275 364.613 322.277 364.482 322.281 364.338C322.289 364.189 322.301 364.057 322.316 363.939H322.263C322.232 364.057 322.189 364.189 322.135 364.338C322.084 364.482 322.033 364.613 321.982 364.73L319.299 371H318.261L315.56 364.73C315.51 364.613 315.459 364.482 315.408 364.338C315.361 364.189 315.324 364.057 315.297 363.939H315.244C315.256 364.057 315.265 364.189 315.273 364.338C315.285 364.482 315.291 364.613 315.291 364.73V371H314.201Z" fill="#04101C"/>
</g>
<rect x="118.5" y="729.5" width="67" height="67" rx="11.5" fill="#F9FBFF"/>
<rect x="118.5" y="729.5" width="67" height="67" rx="11.5" stroke="#ECECEC"/>
<path d="M166.653 759.021C163.705 756.516 158.842 753.421 152.211 753.421C151.474 753.421 150.737 753.421 150.295 753.568C149.411 753.716 148.821 754.453 148.968 755.337C149.116 756.074 149.853 756.663 150.589 756.663C151.032 756.663 151.621 756.516 152.211 756.516C157.958 756.516 162.232 759.168 164.737 761.379C165.179 761.674 165.474 762.263 165.474 763C165.474 763.737 165.179 764.179 164.737 764.621C163.853 765.358 162.821 766.095 161.789 766.684C161.053 767.126 160.905 768.011 161.2 768.747C161.495 769.189 161.937 769.484 162.526 769.484C162.821 769.484 162.968 769.484 163.263 769.337C164.442 768.6 165.621 767.863 166.653 766.979C167.832 765.947 168.421 764.621 168.421 763.147C168.421 761.379 167.832 760.053 166.653 759.021Z" fill="#ECECEC"/>
<path d="M140.716 749.442C140.126 748.853 139.242 748.853 138.653 749.442C138.063 750.032 138.063 750.916 138.653 751.505L142.779 755.632C140.716 756.811 138.947 758.137 137.768 759.021C136.589 760.053 136 761.379 136 763C136 764.621 136.589 765.947 137.768 766.832C140.716 769.337 145.579 772.432 152.211 772.432C154.421 772.432 156.484 772.137 158.547 771.4L163.705 776.558C164 776.853 164.442 777 164.737 777C165.032 777 165.474 776.853 165.768 776.558C166.358 775.968 166.358 775.084 165.768 774.495L140.716 749.442ZM152.211 769.337C146.463 769.337 142.189 766.684 139.684 764.474C139.242 764.179 138.947 763.589 138.947 763C138.947 762.411 139.242 761.821 139.684 761.379C140.863 760.347 142.779 759.021 145.137 757.989L148.968 761.821C148.821 762.116 148.821 762.558 148.821 763C148.821 764.916 150.295 766.389 152.211 766.389C152.653 766.389 152.947 766.242 153.389 766.242L156.189 769.042C154.863 769.189 153.537 769.337 152.211 769.337Z" fill="#ECECEC"/>
<rect x="90.5" y="164.5" width="67" height="67" rx="11.5" fill="#F9FBFF"/>
<rect x="90.5" y="164.5" width="67" height="67" rx="11.5" stroke="#ECECEC"/>
<path d="M128.8 205.14C128.8 204.3 128.24 203.74 127.4 203.74H113.26C112.14 203.74 111.3 202.9 111.3 201.78V194.22C111.3 193.1 112.14 192.26 113.26 192.26H127.4C128.24 192.26 128.8 191.7 128.8 190.86C128.8 190.02 128.24 189.46 127.4 189.46H113.26C110.6 189.46 108.5 191.56 108.5 194.22V201.78C108.5 204.44 110.6 206.54 113.26 206.54H127.4C128.1 206.54 128.8 205.98 128.8 205.14Z" fill="#ECECEC"/>
<path d="M134.54 189.46H133.28V186.8H135.38C136.22 186.8 136.78 186.24 136.78 185.4C136.78 184.56 136.22 184 135.38 184H128.52C127.68 184 127.12 184.56 127.12 185.4C127.12 186.24 127.68 186.8 128.52 186.8H130.62V209.2H128.52C127.68 209.2 127.12 209.76 127.12 210.6C127.12 211.44 127.68 212 128.52 212H135.38C136.22 212 136.78 211.44 136.78 210.6C136.78 209.76 136.22 209.2 135.38 209.2H133.28V206.54H134.54C137.2 206.54 139.3 204.44 139.3 201.78V194.22C139.3 191.56 137.2 189.46 134.54 189.46ZM136.5 201.78C136.5 202.9 135.66 203.74 134.54 203.74H133.28V192.26H134.54C135.66 192.26 136.5 193.1 136.5 194.22V201.78Z" fill="#ECECEC"/>
<rect x="463.5" y="29.5" width="67" height="67" rx="11.5" fill="#F9FBFF"/>
<rect x="463.5" y="29.5" width="67" height="67" rx="11.5" stroke="#ECECEC"/>
<path d="M497 49C489.3 49 483 55.3 483 63C483 70.7 489.3 77 497 77C504.7 77 511 70.7 511 63C511 55.3 504.7 49 497 49ZM497 74.2C490.84 74.2 485.8 69.16 485.8 63C485.8 56.84 490.84 51.8 497 51.8C503.16 51.8 508.2 56.84 508.2 63C508.2 69.16 503.16 74.2 497 74.2Z" fill="#ECECEC"/>
<path d="M504.7 67.76C503.72 66.78 502.6 66.08 501.34 65.52C502.32 64.4 503.02 63 503.02 61.32C503.02 57.96 500.36 55.3 497 55.3C493.64 55.3 490.98 57.96 490.98 61.32C490.98 63 491.68 64.4 492.66 65.52C491.4 66.08 490.28 66.78 489.3 67.76C488.74 68.32 488.74 69.16 489.3 69.72C489.58 70 490 70.14 490.28 70.14C490.7 70.14 490.98 70 491.26 69.72C492.8 68.18 494.76 67.34 497 67.34C499.1 67.34 501.2 68.18 502.74 69.72C503.3 70.28 504.14 70.28 504.7 69.72C505.26 69.16 505.26 68.32 504.7 67.76ZM493.78 61.32C493.78 59.5 495.18 58.1 497 58.1C498.82 58.1 500.22 59.5 500.22 61.32C500.22 63.14 498.82 64.54 497 64.54C495.18 64.54 493.78 63.14 493.78 61.32Z" fill="#ECECEC"/>
<rect x="512.5" y="164.5" width="67" height="67" rx="11.5" fill="#F9FBFF"/>
<rect x="512.5" y="164.5" width="67" height="67" rx="11.5" stroke="#ECECEC"/>
<path d="M558.6 186.8H533.4C532.56 186.8 532 186.24 532 185.4C532 184.56 532.56 184 533.4 184H558.6C559.44 184 560 184.56 560 185.4C560 186.24 559.44 186.8 558.6 186.8Z" fill="#ECECEC"/>
<path d="M558.6 203.6H546C545.16 203.6 544.6 203.04 544.6 202.2C544.6 201.36 545.16 200.8 546 200.8H558.6C559.44 200.8 560 201.36 560 202.2C560 203.04 559.44 203.6 558.6 203.6Z" fill="#ECECEC"/>
<path d="M558.6 195.2H546C545.16 195.2 544.6 194.64 544.6 193.8C544.6 192.96 545.16 192.4 546 192.4H558.6C559.44 192.4 560 192.96 560 193.8C560 194.64 559.44 195.2 558.6 195.2Z" fill="#ECECEC"/>
<path d="M558.6 212H533.4C532.56 212 532 211.44 532 210.6C532 209.76 532.56 209.2 533.4 209.2H558.6C559.44 209.2 560 209.76 560 210.6C560 211.44 559.44 212 558.6 212Z" fill="#ECECEC"/>
<path d="M534.52 205.14C534.1 205.14 533.68 205 533.4 204.86C532.56 204.44 532 203.6 532 202.62V193.38C532 192.4 532.56 191.56 533.4 191.14C534.24 190.72 535.22 190.86 536.06 191.42L542.22 196.04C542.78 196.46 543.2 197.16 543.2 198C543.2 198.84 542.78 199.54 542.22 200.1L536.06 204.72C535.64 205 535.08 205.14 534.52 205.14ZM534.8 193.94V202.06L540.26 198L534.8 193.94Z" fill="#ECECEC"/>
<rect x="656.5" y="429.5" width="67" height="67" rx="11.5" fill="#F9FBFF"/>
<rect x="656.5" y="429.5" width="67" height="67" rx="11.5" stroke="#ECECEC"/>
<path d="M694.014 478H684.851C682.156 478 680 475.818 680 473.091V452.909C680 450.182 682.156 448 684.851 448H694.149C696.844 448 699 450.182 699 452.909V473.227C698.865 475.818 696.709 478 694.014 478ZM684.851 450.727C683.638 450.727 682.695 451.682 682.695 452.909V473.227C682.695 474.318 683.638 475.273 684.851 475.273H694.149C695.362 475.273 696.305 474.318 696.305 473.091V452.909C696.17 451.682 695.227 450.727 694.014 450.727H684.851Z" fill="#ECECEC"/>
<path d="M691.184 455.227H687.681C686.872 455.227 686.333 454.682 686.333 453.864C686.333 453.045 686.872 452.5 687.681 452.5H691.319C692.128 452.5 692.667 453.045 692.667 453.864C692.667 454.682 691.993 455.227 691.184 455.227Z" fill="#ECECEC"/>
<rect x="511.5" y="579.5" width="67" height="67" rx="11.5" fill="#F9FBFF"/>
<rect x="511.5" y="579.5" width="67" height="67" rx="11.5" stroke="#ECECEC"/>
<path fill-rule="evenodd" clip-rule="evenodd" d="M543.758 599.043C550.547 598.477 556.266 603.585 556.409 610.171L556.409 610.199C556.409 612.501 555.688 614.653 554.41 616.5L554.397 616.518L547.937 625.519C547.925 625.536 547.911 625.554 547.898 625.571C546.413 627.429 543.492 627.543 542.066 625.513L535.604 616.51C533.919 614.122 533.034 611.107 533.75 607.916C534.632 603.131 538.804 599.609 543.719 599.047C543.732 599.045 543.745 599.044 543.758 599.043ZM543.989 601.578C540.055 602.036 536.896 604.836 536.249 608.398C536.246 608.416 536.242 608.434 536.238 608.452C535.699 610.827 536.332 613.124 537.681 615.039L544.147 624.047C544.491 624.54 545.35 624.655 545.892 624.003L552.323 615.043C553.318 613.601 553.861 611.958 553.864 610.213C553.746 605.149 549.346 601.142 543.989 601.578Z" fill="#ECECEC"/>
<path fill-rule="evenodd" clip-rule="evenodd" d="M544.955 607.782C543.619 607.782 542.537 608.864 542.537 610.2C542.537 611.536 543.619 612.618 544.955 612.618C546.29 612.618 547.373 611.536 547.373 610.2C547.373 608.864 546.29 607.782 544.955 607.782ZM539.991 610.2C539.991 607.459 542.214 605.236 544.955 605.236C547.696 605.236 549.918 607.459 549.918 610.2C549.918 612.941 547.696 615.164 544.955 615.164C542.214 615.164 539.991 612.941 539.991 610.2Z" fill="#ECECEC"/>
<path fill-rule="evenodd" clip-rule="evenodd" d="M544.955 607.782C543.619 607.782 542.537 608.864 542.537 610.2C542.537 611.536 543.619 612.618 544.955 612.618C546.29 612.618 547.373 611.536 547.373 610.2C547.373 608.864 546.29 607.782 544.955 607.782ZM539.991 610.2C539.991 607.459 542.214 605.236 544.955 605.236C547.696 605.236 549.918 607.459 549.918 610.2C549.918 612.941 547.696 615.164 544.955 615.164C542.214 615.164 539.991 612.941 539.991 610.2Z" fill="#ECECEC"/>
<path fill-rule="evenodd" clip-rule="evenodd" d="M544.955 607.782C543.619 607.782 542.537 608.864 542.537 610.2C542.537 611.536 543.619 612.618 544.955 612.618C546.29 612.618 547.373 611.536 547.373 610.2C547.373 608.864 546.29 607.782 544.955 607.782ZM539.991 610.2C539.991 607.459 542.214 605.236 544.955 605.236C547.696 605.236 549.918 607.459 549.918 610.2C549.918 612.941 547.696 615.164 544.955 615.164C542.214 615.164 539.991 612.941 539.991 610.2Z" fill="#ECECEC"/>
<rect x="626.5" y="582.5" width="67" height="67" rx="11.5" fill="#F9FBFF"/>
<rect x="626.5" y="582.5" width="67" height="67" rx="11.5" stroke="#ECECEC"/>
<path d="M647.9 628.6C647.06 628.6 646.5 628.04 646.5 627.2V614.6C646.5 613.76 647.06 613.2 647.9 613.2C648.74 613.2 649.3 613.76 649.3 614.6V627.2C649.3 628.04 648.74 628.6 647.9 628.6Z" fill="#ECECEC"/>
<path d="M666.486 630H654.955C652.622 630 650.7 628.04 650.7 625.66V613.9C650.7 612.36 651.249 610.96 652.21 609.7L657.701 603.4C658.525 602.56 659.76 602 661.133 602C662.643 602 663.878 602.7 664.702 603.82C665.525 605.08 665.8 606.48 665.388 607.88L664.564 610.54H670.33C671.703 610.54 672.938 611.1 673.624 612.22C674.448 613.34 674.723 614.74 674.311 616L671.428 625.94C670.742 628.46 668.82 630 666.486 630ZM654.406 611.66C653.857 612.36 653.583 613.06 653.583 613.9V625.66C653.583 626.5 654.269 627.2 655.093 627.2H666.624C667.722 627.2 668.683 626.5 668.957 625.38L671.703 615.44C671.84 615.02 671.703 614.46 671.428 614.04C671.154 613.62 670.742 613.48 670.33 613.48H662.643C662.231 613.48 661.819 613.2 661.544 612.92C661.27 612.64 661.27 612.08 661.407 611.66L662.917 607.04C663.054 606.48 663.054 605.92 662.643 605.5C662.094 604.66 660.721 604.52 660.035 605.36L654.406 611.66Z" fill="#ECECEC"/>
<rect x="620.5" y="297.5" width="67" height="67" rx="11.5" fill="#F9FBFF"/>
<rect x="620.5" y="297.5" width="67" height="67" rx="11.5" stroke="#ECECEC"/>
<path d="M644.115 325.95C644.115 322.801 646.763 320.315 650.073 320.315C651.065 320.315 651.727 319.652 651.727 318.657C651.727 317.663 651.065 317 650.073 317C644.943 317 640.806 320.978 640.806 325.95V326.945C640.806 328.436 639.813 329.928 638.158 330.425C637.496 330.591 637 331.254 637 331.917C637 332.58 637.496 333.243 638.158 333.575C639.813 334.072 640.806 335.398 640.806 337.055V338.05C640.806 343.022 644.943 347 650.073 347C651.065 347 651.727 346.337 651.727 345.343C651.727 344.348 651.065 343.685 650.073 343.685C646.763 343.685 644.115 341.199 644.115 338.05V336.89C644.115 334.901 643.288 333.077 641.964 331.917C643.288 330.591 644.115 328.768 644.115 326.945V325.95Z" fill="#ECECEC"/>
<path d="M671.842 330.333C670.187 329.833 669.194 328.5 669.194 326.833V326C669.194 321 665.057 317 659.927 317C658.935 317 658.273 317.667 658.273 318.667C658.273 319.667 658.935 320.333 659.927 320.333C663.237 320.333 665.885 322.833 665.885 326V327C665.885 329 666.712 330.833 668.036 332C666.712 333.333 665.885 335.167 665.885 337V338C665.885 341.167 663.237 343.667 659.927 343.667C658.935 343.667 658.273 344.333 658.273 345.333C658.273 346.333 658.935 347 659.927 347C665.057 347 669.194 343 669.194 338V337C669.194 335.5 670.187 334 671.842 333.5C672.504 333.333 673 332.667 673 332C673 331.333 672.504 330.667 671.842 330.333Z" fill="#ECECEC"/>
<rect x="667.5" y="163.5" width="67" height="67" rx="11.5" fill="#F9FBFF"/>
<rect x="667.5" y="163.5" width="67" height="67" rx="11.5" stroke="#ECECEC"/>
<path d="M705.496 199.937C706.425 198.836 707.045 197.421 707.045 196.006C707.045 192.547 704.257 189.874 701.005 189.874C697.753 189.874 694.966 192.547 694.966 195.849C694.966 197.421 695.585 198.836 696.514 199.78C694.501 200.881 692.953 202.453 692.023 204.654C691.559 205.755 691.714 207.17 692.333 208.27C693.107 209.371 694.346 210 695.585 210H706.27C707.509 210 708.748 209.371 709.522 208.27C710.297 207.17 710.297 205.912 709.832 204.654C709.058 202.61 707.509 200.881 705.496 199.937ZM698.063 195.849C698.063 194.277 699.457 193.019 701.005 193.019C702.554 193.019 703.947 194.277 703.947 196.006C703.947 197.736 702.554 198.836 701.005 198.836C699.457 198.836 698.063 197.579 698.063 195.849ZM707.045 206.541C706.89 206.698 706.58 206.855 706.425 206.855H695.585C695.275 206.855 695.121 206.698 694.966 206.541C694.811 206.541 694.811 206.226 694.811 205.912C695.895 203.396 698.218 201.824 701.005 201.824C703.793 201.824 706.116 203.396 707.2 205.912C707.2 206.226 707.2 206.541 707.045 206.541Z" fill="#ECECEC"/>
<path d="M693.727 198.679C693.727 197.893 693.107 197.107 692.178 197.107H687.068C687.687 195.535 689.236 194.591 690.939 194.591C693.572 194.591 695.585 192.547 695.585 189.874C695.585 187.201 693.417 185.157 690.939 185.157C688.462 185.157 686.294 187.201 686.294 189.874C686.294 190.818 686.603 191.761 687.223 192.547C685.829 193.333 684.745 194.434 684.281 195.849C683.816 196.792 683.971 197.893 684.435 198.836C685.055 199.78 685.984 200.252 687.068 200.252H692.023C692.953 200.252 693.727 199.623 693.727 198.679ZM689.391 189.874C689.391 188.931 690.165 188.302 690.939 188.302C691.714 188.302 692.488 189.088 692.488 189.874C692.488 190.818 691.714 191.447 690.939 191.447C690.165 191.447 689.391 190.66 689.391 189.874Z" fill="#ECECEC"/>
<path d="M717.73 195.849C717.11 194.434 716.026 193.176 714.788 192.39C715.252 191.604 715.717 190.66 715.717 189.717C715.717 187.201 713.549 185 711.071 185C708.593 185 706.425 187.044 706.425 189.717C706.425 192.39 708.593 194.434 711.071 194.434C712.774 194.434 714.323 195.377 714.788 197.107H709.832C708.903 197.107 708.284 197.736 708.284 198.679C708.284 199.465 708.903 200.252 709.832 200.252H714.788C715.872 200.252 716.801 199.78 717.42 198.836C718.04 197.893 718.194 196.792 717.73 195.849ZM711.071 188.302C712 188.302 712.62 189.088 712.62 189.874C712.62 190.818 711.845 191.447 711.071 191.447C710.297 191.447 709.522 190.66 709.522 189.874C709.522 188.931 710.142 188.302 711.071 188.302Z" fill="#ECECEC"/>
<rect x="226.5" y="729.5" width="67" height="67" rx="11.5" fill="#F9FBFF"/>
<rect x="226.5" y="729.5" width="67" height="67" rx="11.5" stroke="#ECECEC"/>
<path d="M268.428 766.134C265.502 766.134 262.995 768.502 262.995 771.567C262.995 774.493 265.363 777 268.428 777C271.353 777 273.861 774.632 273.861 771.567C273.861 768.502 271.493 766.134 268.428 766.134ZM268.428 774.075C267.035 774.075 265.781 772.96 265.781 771.428C265.781 770.035 266.896 768.781 268.428 768.781C269.821 768.781 271.075 769.896 271.075 771.428C271.075 772.96 269.96 774.075 268.428 774.075Z" fill="#ECECEC"/>
<path d="M258.119 760.701C258.259 760.701 258.537 760.701 258.677 760.562L264.249 757.776C265.224 759.03 266.756 759.866 268.428 759.866C271.493 759.726 273.861 757.358 273.861 754.433C273.861 751.507 271.493 749 268.428 749C265.502 749 262.995 751.368 262.995 754.433C262.995 754.711 262.995 754.99 263.134 755.269L257.423 758.055C256.726 758.473 256.448 759.308 256.866 759.866C257.005 760.423 257.562 760.701 258.119 760.701ZM268.428 751.786C269.821 751.786 271.075 752.9 271.075 754.433C271.075 755.826 269.96 757.08 268.428 757.08C267.035 757.08 265.781 755.965 265.781 754.433C265.92 752.9 267.035 751.786 268.428 751.786Z" fill="#ECECEC"/>
<path d="M262.299 767.109L256.587 764.323C256.726 763.905 256.726 763.488 256.726 762.93C256.726 760.005 254.358 757.498 251.294 757.498C248.229 757.498 246 760.005 246 762.93C246 765.856 248.368 768.363 251.433 768.363C252.965 768.363 254.358 767.806 255.333 766.692L261.184 769.617C261.323 769.756 261.602 769.756 261.741 769.756C262.299 769.756 262.716 769.478 262.995 768.92C263.274 768.363 262.995 767.527 262.299 767.109ZM251.433 765.577C249.9 765.577 248.786 764.323 248.786 762.93C248.786 761.537 249.9 760.284 251.433 760.284C252.826 760.284 254.08 761.398 254.08 762.93C253.94 764.323 252.826 765.577 251.433 765.577Z" fill="#ECECEC"/>
<rect x="72.5" y="579.5" width="67" height="67" rx="11.5" fill="#F9FBFF"/>
<rect x="72.5" y="579.5" width="67" height="67" rx="11.5" stroke="#ECECEC"/>
<path d="M105.388 624.97H97.1293C96.4048 624.97 95.6803 624.537 95.3906 623.96C94.9559 623.383 94.9559 622.806 95.2457 622.085C96.9844 618.045 100.897 615.303 105.388 615.303C109.88 615.303 113.647 611.552 113.647 607.08C113.647 602.607 109.88 599 105.243 599C100.752 599 96.9844 602.751 96.9844 607.224C96.9844 609.821 98.1436 612.129 100.027 613.572C96.6946 614.871 93.7967 617.612 92.3477 621.075C91.7682 622.517 91.9131 624.249 92.7824 625.547C93.7967 626.99 95.2457 627.856 96.9844 627.856H105.243C106.113 627.856 106.692 627.279 106.692 626.413C106.692 625.547 106.113 624.97 105.388 624.97ZM99.8823 607.224C99.8823 604.338 102.346 601.886 105.243 601.886C108.141 601.886 110.605 604.338 110.605 607.224C110.605 610.109 108.141 612.562 105.243 612.562C102.346 612.562 99.8823 610.109 99.8823 607.224Z" fill="#ECECEC"/>
<path d="M120.457 614.582C119.733 614.149 118.864 614.294 118.429 615.015L112.343 623.96L110.025 620.93C109.59 620.353 108.576 620.209 107.996 620.642C107.417 621.075 107.272 622.085 107.707 622.662L111.329 627.423C111.619 627.856 112.054 628 112.488 628C112.923 628 113.358 627.711 113.647 627.423L120.747 616.746C121.182 615.881 121.037 615.015 120.457 614.582Z" fill="#ECECEC"/>
<rect x="89.5" y="29.5" width="67" height="67" rx="11.5" fill="#F9FBFF"/>
<rect x="89.5" y="29.5" width="67" height="67" rx="11.5" stroke="#ECECEC"/>
<path d="M135.823 70.1429L133.112 67.4286C132.541 66.8571 131.685 66.8571 131.115 67.4286C130.544 68 130.544 68.8571 131.115 69.4286L133.825 72.1429C134.254 72.5714 134.254 73.2857 133.825 73.7143C133.397 74.1429 132.684 74.1429 132.256 73.7143L127.976 69.4286C128.261 69.1429 128.546 69 128.832 68.7143C130.972 66.5714 132.256 63.5714 132.256 60.5714C132.256 57.4286 131.115 54.5714 128.832 52.4286C124.266 47.8571 116.99 47.8571 112.424 52.4286C107.859 57 107.859 64.2857 112.424 68.8571C114.564 71 117.561 72.2857 120.557 72.2857C122.269 72.2857 123.981 71.8571 125.408 71.1429L130.116 75.8571C130.829 76.5714 131.971 77 132.969 77C133.968 77 134.967 76.5714 135.823 75.8571C137.392 74.1429 137.392 71.5714 135.823 70.1429ZM114.422 66.5714C110.997 63.1429 110.997 57.5714 114.422 54.2857C116.134 52.5714 118.274 51.7143 120.557 51.7143C122.839 51.7143 124.98 52.5714 126.692 54.2857C128.404 56 129.26 58.1429 129.26 60.4286C129.26 62.7143 128.404 65 126.692 66.5714C124.98 68.1429 122.839 69.1429 120.557 69.1429C118.274 69.1429 115.991 68.2857 114.422 66.5714Z" fill="#ECECEC"/>
<rect x="213.5" y="582.5" width="67" height="67" rx="11.5" fill="#F9FBFF"/>
<rect x="213.5" y="582.5" width="67" height="67" rx="11.5" stroke="#ECECEC"/>
<path d="M236.02 630C235.32 630 234.76 629.72 234.2 629.3C233.5 628.6 233.36 627.62 233.64 626.78L235.04 622.44C234.06 620.48 233.5 618.24 233.5 616C233.5 608.3 239.8 602 247.5 602C255.2 602 261.5 608.3 261.5 616C261.5 623.7 255.2 630 247.5 630C245.26 630 243.02 629.44 241.06 628.46L236.72 629.86C236.58 630 236.3 630 236.02 630ZM241.9 625.66C243.58 626.64 245.54 627.2 247.5 627.2C253.66 627.2 258.7 622.16 258.7 616C258.7 609.84 253.66 604.8 247.5 604.8C241.34 604.8 236.3 609.84 236.3 616C236.3 617.96 236.86 619.92 237.84 621.6C237.98 621.88 238.12 622.3 237.98 622.72L236.58 627.06L240.92 625.66C240.92 625.66 241.763 625.592 241.9 625.66Z" fill="#ECECEC"/>
<path d="M247.5 618.24C248.737 618.24 249.74 617.237 249.74 616C249.74 614.763 248.737 613.76 247.5 613.76C246.263 613.76 245.26 614.763 245.26 616C245.26 617.237 246.263 618.24 247.5 618.24Z" fill="#ECECEC"/>
<path d="M240.64 618.24C241.877 618.24 242.88 617.237 242.88 616C242.88 614.763 241.877 613.76 240.64 613.76C239.403 613.76 238.4 614.763 238.4 616C238.4 617.237 239.403 618.24 240.64 618.24Z" fill="#ECECEC"/>
<path d="M254.36 618.24C255.597 618.24 256.6 617.237 256.6 616C256.6 614.763 255.597 613.76 254.36 613.76C253.123 613.76 252.12 614.763 252.12 616C252.12 617.237 253.123 618.24 254.36 618.24Z" fill="#ECECEC"/>
<rect x="341.5" y="579.5" width="67" height="67" rx="11.5" fill="#F9FBFF"/>
<rect x="341.5" y="579.5" width="67" height="67" rx="11.5" stroke="#ECECEC"/>
<path d="M389.061 607.679C386.853 604.703 384.254 601.984 381.266 599.914C379.318 598.49 376.59 598.749 374.771 600.561L370.354 604.961C368.665 606.644 368.405 609.362 369.704 611.303C369.834 611.433 369.964 611.692 370.224 611.821L362.039 619.975C361.39 620.622 361 621.528 361 622.564V626.706C361 627.094 361.13 627.353 361.39 627.612C361.65 627.871 361.909 628 362.299 628H366.456C367.496 628 368.405 627.612 369.055 626.965L377.239 618.81C377.499 618.94 377.629 619.069 377.889 619.199C379.837 620.493 382.566 620.234 384.254 618.552L388.671 614.151C390.23 612.339 390.49 609.621 389.061 607.679ZM386.593 612.339L382.176 616.74C381.266 617.646 379.967 617.775 379.058 617.128C378.538 616.74 378.149 616.481 377.629 616.092C377.109 615.704 376.33 615.704 375.94 616.222L366.976 625.153C366.716 625.411 366.456 625.541 366.197 625.541H363.338V622.693C363.338 622.434 363.468 622.176 363.728 621.917L372.692 612.986C373.212 612.468 373.212 611.821 372.822 611.303C372.562 610.786 372.173 610.268 371.913 609.75C371.263 608.844 371.393 607.55 372.302 606.773L376.719 602.373C377.109 601.855 377.759 601.596 378.408 601.596C378.928 601.596 379.318 601.726 379.707 601.984C382.566 603.926 384.904 606.385 386.853 609.103C387.632 610.139 387.502 611.433 386.593 612.339Z" fill="#ECECEC"/>
<path d="M380.148 606.909C379.593 606.909 379.177 607.192 378.761 607.474C377.928 608.321 377.928 609.593 378.761 610.299C379.177 610.722 379.593 610.864 380.148 610.864C380.703 610.864 381.12 610.722 381.536 610.299C381.952 609.875 382.091 609.451 382.091 608.886C382.091 608.321 381.952 607.898 381.536 607.474C381.258 607.05 380.703 606.909 380.148 606.909Z" fill="#ECECEC"/>
<rect x="511.5" y="429.5" width="67" height="67" rx="11.5" fill="#F9FBFF"/>
<rect x="511.5" y="429.5" width="67" height="67" rx="11.5" stroke="#ECECEC"/>
<path d="M539.372 460.484C538.804 459.924 537.952 459.924 537.384 460.484C536.816 461.044 536.816 461.884 537.384 462.443L543.206 468.602C543.49 468.882 543.916 469.022 544.2 469.022C544.626 469.022 545.052 468.882 545.194 468.462L559.109 451.246C559.535 450.686 559.535 449.706 558.825 449.287C558.399 448.867 557.547 448.867 556.979 449.566L554.139 453.066C551.583 450.546 547.892 449.007 544.2 449.007C536.39 449.007 530 455.305 530 463.003C530 470.701 536.39 477 544.2 477C552.009 477 558.399 470.701 558.399 463.003C558.399 461.744 558.257 460.484 557.831 459.224C557.547 458.524 556.837 458.104 556.127 458.244C555.417 458.384 554.991 459.224 555.133 459.924C555.417 460.904 555.559 462.024 555.559 463.003C555.559 469.162 550.447 474.201 544.2 474.201C537.952 474.201 532.84 469.162 532.84 463.003C532.84 456.845 537.952 451.806 544.2 451.806C547.324 451.806 550.164 453.066 552.435 455.305L544.2 465.523L539.372 460.484Z" fill="#ECECEC"/>
<g filter="url(#filter3_d_493_113389)">
<rect x="394" y="429" width="68" height="94" rx="12" fill="white"/>
<path fill-rule="evenodd" clip-rule="evenodd" d="M436.03 453.487C437.293 454.178 438.2 455.549 438.2 457.2V471.48C438.2 474.822 434.499 476.802 431.778 474.859C431.748 474.838 431.718 474.814 431.689 474.79L430.196 473.53C430.174 473.512 430.153 473.493 430.133 473.474C428.985 472.381 427.554 471.7 425.982 471.449V476.94C425.982 479.161 424.358 481 422.138 481C419.873 481 418.295 478.972 418.295 476.94V471.183C415.276 470.494 413 467.636 413 464.34C413 462.484 413.655 460.697 415.056 459.413C416.188 458.258 417.741 457.34 419.695 457.34H424.541C426.689 457.21 428.681 456.475 430.185 455.298L431.634 453.939C431.662 453.913 431.691 453.887 431.722 453.863C433.081 452.785 434.746 452.785 436.03 453.487ZM433.5 456.028L432.056 457.382C432.028 457.408 431.999 457.433 431.968 457.457C429.956 459.053 427.366 459.983 424.662 460.138C424.635 460.139 424.609 460.14 424.582 460.14H419.695C418.68 460.14 417.8 460.605 417.034 461.395C417.013 461.417 416.99 461.439 416.967 461.46C416.22 462.134 415.8 463.132 415.8 464.34C415.8 466.711 417.68 468.54 419.695 468.54C420.468 468.54 421.095 469.167 421.095 469.94V476.94C421.095 477.709 421.688 478.2 422.138 478.2C422.634 478.2 423.182 477.799 423.182 476.94V469.94C423.182 469.167 423.809 468.54 424.582 468.54C427.337 468.54 429.988 469.486 432.032 471.416L433.443 472.607C434.251 473.141 435.4 472.6 435.4 471.48V457.2C435.4 456.611 435.085 456.162 434.686 455.943C434.318 455.742 433.895 455.736 433.5 456.028Z" fill="url(#paint9_radial_493_113389)"/>
<path fill-rule="evenodd" clip-rule="evenodd" d="M442.4 460C443.173 460 443.8 460.627 443.8 461.4V467C443.8 467.773 443.173 468.4 442.4 468.4C441.627 468.4 441 467.773 441 467V461.4C441 460.627 441.627 460 442.4 460Z" fill="url(#paint10_radial_493_113389)"/>
<path d="M413.211 500.656V500.586H414.371V500.65C414.371 501.162 414.565 501.545 414.951 501.799C415.342 502.053 415.889 502.18 416.592 502.18C417.291 502.18 417.826 502.051 418.198 501.793C418.573 501.531 418.76 501.188 418.76 500.762C418.76 500.379 418.586 500.074 418.239 499.848C417.895 499.617 417.207 499.371 416.176 499.109C415.133 498.844 414.408 498.531 414.002 498.172C413.6 497.812 413.399 497.299 413.399 496.631C413.399 495.963 413.674 495.406 414.225 494.961C414.78 494.516 415.547 494.293 416.528 494.293C417.504 494.293 418.281 494.531 418.86 495.008C419.438 495.484 419.727 496.076 419.727 496.783V496.848H418.567V496.783C418.567 496.334 418.395 495.973 418.051 495.699C417.711 495.426 417.203 495.289 416.528 495.289C415.852 495.289 415.352 495.406 415.028 495.641C414.707 495.871 414.547 496.186 414.547 496.584C414.547 496.951 414.709 497.242 415.033 497.457C415.362 497.668 416.02 497.896 417.008 498.143C418.043 498.404 418.785 498.729 419.235 499.115C419.684 499.502 419.908 500.049 419.908 500.756C419.908 501.463 419.61 502.043 419.012 502.496C418.418 502.949 417.612 503.176 416.592 503.176C415.569 503.176 414.748 502.951 414.131 502.502C413.518 502.049 413.211 501.434 413.211 500.656ZM421.648 503V494.469H423.172L425.943 500.885C425.994 501.002 426.043 501.125 426.09 501.254C426.141 501.379 426.186 501.496 426.225 501.605H426.271C426.307 501.496 426.348 501.379 426.395 501.254C426.441 501.125 426.49 501.002 426.541 500.885L429.295 494.469H430.848V503H429.723V496.73C429.723 496.613 429.725 496.482 429.729 496.338C429.736 496.189 429.748 496.057 429.764 495.939H429.711C429.68 496.057 429.637 496.189 429.582 496.338C429.531 496.482 429.48 496.613 429.43 496.73L426.746 503H425.709L423.008 496.73C422.957 496.613 422.906 496.482 422.855 496.338C422.809 496.189 422.771 496.057 422.744 495.939H422.691C422.703 496.057 422.713 496.189 422.721 496.338C422.732 496.482 422.738 496.613 422.738 496.73V503H421.648ZM433.115 503V494.469H434.638L437.41 500.885C437.461 501.002 437.51 501.125 437.556 501.254C437.607 501.379 437.652 501.496 437.691 501.605H437.738C437.773 501.496 437.814 501.379 437.861 501.254C437.908 501.125 437.957 501.002 438.008 500.885L440.761 494.469H442.314V503H441.189V496.73C441.189 496.613 441.191 496.482 441.195 496.338C441.203 496.189 441.215 496.057 441.23 495.939H441.177C441.146 496.057 441.103 496.189 441.049 496.338C440.998 496.482 440.947 496.613 440.896 496.73L438.213 503H437.176L434.474 496.73C434.424 496.613 434.373 496.482 434.322 496.338C434.275 496.189 434.238 496.057 434.211 495.939H434.158C434.17 496.057 434.179 496.189 434.187 496.338C434.199 496.482 434.205 496.613 434.205 496.73V503H433.115Z" fill="#04101C"/>
</g>
<rect x="341.5" y="729.5" width="67" height="67" rx="11.5" fill="#F9FBFF"/>
<rect x="341.5" y="729.5" width="67" height="67" rx="11.5" stroke="#ECECEC"/>
<path d="M369.726 779C369.274 779 368.822 778.854 368.37 778.708C367.165 778.124 366.562 776.955 366.863 775.787L368.671 767.315H365.959C364.754 767.315 363.699 766.585 363.247 765.562C362.795 764.54 362.945 763.371 363.85 762.641L378.164 747.888C379.068 747.012 380.575 746.72 381.63 747.304C382.835 747.888 383.438 749.057 383.137 750.225L381.329 758.697H384.041C385.246 758.697 386.301 759.427 386.753 760.45C387.205 761.472 387.055 762.641 386.15 763.371L371.836 778.124C371.233 778.708 370.48 779 369.726 779ZM370.48 764.247C370.932 764.247 371.384 764.394 371.685 764.832C371.986 765.27 372.137 765.562 371.986 766L370.028 775.933L384.041 761.472H379.671C379.219 761.472 378.767 761.326 378.466 760.888C378.164 760.596 378.014 760.158 378.164 759.719L380.123 749.787L366.11 764.394L370.48 764.247Z" fill="#ECECEC"/>
<rect x="668.5" y="729.5" width="67" height="67" rx="11.5" fill="#F9FBFF"/>
<rect x="668.5" y="729.5" width="67" height="67" rx="11.5" stroke="#ECECEC"/>
<path d="M708.45 750C705.9 750 703.65 751.052 702 753.006C700.35 751.052 698.1 750 695.55 750C690.9 750 687 753.908 687 758.566C687 758.867 687 759.168 687 759.468C687.6 766.532 695.1 772.393 699.45 775.249C700.2 775.699 701.1 776 702 776C702.9 776 703.8 775.699 704.55 775.249C708.9 772.393 716.4 766.532 717 759.618C717 759.318 717 759.017 717 758.717C717 753.908 713.1 750 708.45 750ZM714 759.168C713.55 765.179 706.05 770.59 702.9 772.543C702.3 772.844 701.7 772.844 701.1 772.543C697.95 770.439 690.6 765.029 690 759.017C690 759.017 690 758.717 690 758.566C690 755.561 692.55 753.006 695.55 753.006C697.8 753.006 699.75 754.358 700.65 756.312C700.8 756.913 701.4 757.214 702 757.214C702.6 757.214 703.2 756.913 703.35 756.312C704.25 754.358 706.2 753.006 708.45 753.006C711.45 753.006 714 755.561 714 758.566C714 758.717 714 759.017 714 759.168Z" fill="#ECECEC"/>
<rect x="504.5" y="729.5" width="67" height="67" rx="11.5" fill="#F9FBFF"/>
<rect x="504.5" y="729.5" width="67" height="67" rx="11.5" stroke="#ECECEC"/>
<path d="M531.665 777C530.966 777 530.266 776.72 529.567 776.3C528.448 775.46 527.748 774.06 528.028 772.66L528.867 767.2L525.09 763.28C524.111 762.3 523.691 760.76 524.251 759.36C524.67 757.96 525.79 757.12 527.189 756.84L532.505 756L534.883 751.1C535.443 749.84 536.702 749 538.101 749C539.5 749 540.759 749.84 541.458 751.1L543.697 756L548.873 756.84C550.272 756.98 551.391 757.96 551.811 759.36C552.231 760.76 551.951 762.16 550.972 763.28L547.194 767.2L548.034 772.66C548.314 774.06 547.754 775.6 546.495 776.3C545.376 777.14 543.977 777.14 542.718 776.58L538.101 773.92L533.484 776.44C532.925 776.86 532.365 777 531.665 777ZM538.101 751.8C537.961 751.8 537.541 751.8 537.401 752.36L534.743 757.96C534.463 758.38 534.044 758.66 533.624 758.66L527.608 759.64C527.189 759.64 527.049 760.06 526.909 760.2C526.909 760.34 526.769 760.76 527.189 761.18L531.525 765.52C531.805 765.8 531.945 766.22 531.945 766.78L530.966 772.94C530.826 773.5 531.246 773.78 531.386 773.92C531.525 774.06 531.805 774.2 532.225 773.92L537.541 770.98C537.961 770.7 538.521 770.7 538.94 770.98L544.256 773.92C544.676 774.06 544.956 773.92 545.096 773.92C545.236 773.78 545.516 773.5 545.516 772.94L544.536 766.78C544.396 766.36 544.536 765.94 544.956 765.52L549.293 761.18C549.433 760.9 549.293 760.34 549.293 760.2C549.293 760.06 549.013 759.64 548.593 759.64L542.578 758.8C542.158 758.8 541.738 758.38 541.458 757.96L538.8 752.36C538.66 751.8 538.241 751.8 538.101 751.8Z" fill="#ECECEC"/>
<g filter="url(#filter4_d_493_113389)">
<rect x="512" y="297" width="68" height="94" rx="12" fill="white"/>
<path d="M539.355 323H534.409C531.473 323 529 325.25 529 328.1V333.2C529 336.05 531.473 338.3 534.409 338.3H537.964C538.891 338.3 539.509 337.7 539.509 336.8C539.509 335.9 538.891 335.3 537.964 335.3H534.409C533.173 335.3 532.091 334.4 532.091 333.2V328.1C532.091 326.9 533.173 326 534.409 326H539.355C540.591 326 541.673 326.9 541.673 328.1V340.55C541.673 342.5 540.127 344 538.118 344H535.645C534.718 344 534.1 344.6 534.1 345.5C534.1 346.4 534.718 347 535.645 347H538.118C541.827 347 544.764 344.15 544.764 340.55V328.1C544.764 325.25 542.291 323 539.355 323Z" fill="url(#paint11_radial_493_113389)"/>
<path d="M557.591 323H552.645C549.709 323 547.236 325.25 547.236 328.1V333.2C547.236 336.05 549.709 338.3 552.645 338.3H556.2C557.127 338.3 557.745 337.7 557.745 336.8C557.745 335.9 557.127 335.3 556.2 335.3H552.645C551.409 335.3 550.327 334.4 550.327 333.2V328.1C550.327 326.9 551.409 326 552.645 326H557.591C558.827 326 559.909 326.9 559.909 328.1V340.55C559.909 342.5 558.364 344 556.355 344H553.882C552.955 344 552.336 344.6 552.336 345.5C552.336 346.4 552.955 347 553.882 347H556.355C560.064 347 563 344.15 563 340.55V328.1C563 325.25 560.527 323 557.591 323Z" fill="url(#paint12_radial_493_113389)"/>
<path d="M532.301 366.951V366.518C532.301 365.182 532.666 364.145 533.397 363.406C534.131 362.664 535.051 362.293 536.156 362.293C537.25 362.293 538.1 362.568 538.705 363.119C539.311 363.666 539.639 364.344 539.69 365.152L539.696 365.211H538.53L538.524 365.152C538.496 364.637 538.287 364.197 537.897 363.834C537.51 363.471 536.93 363.289 536.156 363.289C535.375 363.289 534.733 363.566 534.229 364.121C533.729 364.672 533.479 365.471 533.479 366.518V366.951C533.479 367.971 533.729 368.764 534.229 369.33C534.733 369.896 535.375 370.18 536.156 370.18C536.93 370.18 537.504 369.994 537.879 369.623C538.258 369.248 538.473 368.812 538.524 368.316L538.53 368.258H539.696L539.69 368.316C539.608 369.113 539.274 369.789 538.688 370.344C538.102 370.898 537.258 371.176 536.156 371.176C535.051 371.176 534.131 370.809 533.397 370.074C532.666 369.336 532.301 368.295 532.301 366.951ZM541.189 371V362.469H542.713L545.484 368.885C545.535 369.002 545.584 369.125 545.631 369.254C545.682 369.379 545.727 369.496 545.766 369.605H545.812C545.848 369.496 545.889 369.379 545.936 369.254C545.982 369.125 546.031 369.002 546.082 368.885L548.836 362.469H550.389V371H549.264V364.73C549.264 364.613 549.266 364.482 549.27 364.338C549.277 364.189 549.289 364.057 549.305 363.939H549.252C549.221 364.057 549.178 364.189 549.123 364.338C549.072 364.482 549.021 364.613 548.971 364.73L546.287 371H545.25L542.549 364.73C542.498 364.613 542.447 364.482 542.396 364.338C542.35 364.189 542.312 364.057 542.285 363.939H542.232C542.244 364.057 542.254 364.189 542.262 364.338C542.273 364.482 542.279 364.613 542.279 364.73V371H541.189ZM559.359 371H558.199V364.789C558.199 364.672 558.201 364.541 558.205 364.396C558.209 364.252 558.215 364.121 558.222 364.004H558.176C558.121 364.102 558.058 364.207 557.988 364.32C557.922 364.434 557.849 364.553 557.771 364.678L553.605 371H552.375V362.469H553.541V368.65C553.541 368.768 553.539 368.906 553.535 369.066C553.531 369.223 553.525 369.359 553.517 369.477H553.57C553.617 369.379 553.676 369.27 553.746 369.148C553.82 369.027 553.896 368.906 553.974 368.785L558.135 362.469H559.359V371Z" fill="#04101C"/>
</g>
<rect x="234.5" y="29.5" width="67" height="67" rx="11.5" fill="#F9FBFF"/>
<rect x="234.5" y="29.5" width="67" height="67" rx="11.5" stroke="#ECECEC"/>
<path d="M283.196 63C283.196 59.9804 281.549 57.2353 279.078 55.8627C279.078 55.7255 279.078 55.451 279.078 55.1765C279.078 51.7451 276.333 49 272.902 49C270.98 49 269.196 49.9608 268.098 51.3333C267 49.9608 265.216 49 263.294 49C259.863 49 257.118 51.7451 257.118 55.1765C257.118 55.451 257.118 55.5882 257.118 55.8627C254.647 57.2353 253 59.9804 253 63C253 66.0196 254.647 68.7647 257.118 70.1373C257.118 70.4118 257.118 70.549 257.118 70.8235C257.118 74.2549 259.863 77 263.294 77C265.216 77 267 76.0392 268.098 74.6667C269.196 76.0392 270.98 77 272.902 77C276.333 77 279.078 74.2549 279.078 70.8235C279.078 70.549 279.078 70.4118 279.078 70.1373C281.549 68.6275 283.196 66.0196 283.196 63ZM277.02 68.0784C276.333 68.3529 276.059 69.0392 276.196 69.7255C276.333 70 276.333 70.4118 276.333 70.6863C276.333 72.6078 274.824 74.1176 272.902 74.1176C271.118 74.1176 269.608 72.7451 269.471 70.8235C269.471 70.6863 269.471 70.6863 269.333 70.549V70.4118C269.333 70.2745 269.196 70.1373 269.196 70.1373C269.196 70.1373 269.196 70 269.059 70C268.922 69.8627 268.922 69.8627 268.784 69.7255C268.784 69.7255 268.647 69.7255 268.647 69.5882C268.51 69.5882 268.373 69.5882 268.373 69.451H268.235H268.098C267.961 69.451 267.961 69.451 267.824 69.5882C267.686 69.5882 267.686 69.7255 267.549 69.7255C267.412 69.7255 267.412 69.8627 267.275 69.8627L267.137 70C267.137 70.1373 267 70.1373 267 70.2745V70.4118C267 70.549 266.863 70.549 266.863 70.6863C266.725 72.4706 265.216 73.9804 263.431 73.9804C261.51 73.9804 260 72.4706 260 70.549C260 70.1373 260 69.8627 260.137 69.5882C260.412 68.902 260 68.2157 259.314 67.9412C257.118 67.2549 255.745 65.1961 255.745 63C255.745 60.8039 257.118 58.7451 259.176 57.9216C259.863 57.6471 260.275 56.8235 260 56.1373C259.863 55.8627 259.863 55.5882 259.863 55.1765C259.863 53.2549 261.373 51.7451 263.294 51.7451C265.216 51.7451 266.725 53.2549 266.725 55.1765V66.4314C266.725 67.2549 267.275 67.8039 268.098 67.8039C268.922 67.8039 269.471 67.2549 269.471 66.4314V55.1765C269.471 53.2549 270.98 51.7451 272.902 51.7451C274.824 51.7451 276.333 53.2549 276.333 55.1765C276.333 55.5882 276.333 55.8627 276.196 56.1373C275.922 56.8235 276.333 57.5098 277.02 57.7843C279.078 58.7451 280.451 60.6667 280.451 63C280.451 65.1961 279.078 67.2549 277.02 68.0784Z" fill="#ECECEC"/>
<rect x="355.5" y="29.5" width="67" height="67" rx="11.5" fill="#F9FBFF"/>
<rect x="355.5" y="29.5" width="67" height="67" rx="11.5" stroke="#ECECEC"/>
<path d="M402.227 65.1636H398.918V60.8364H402.227C402.991 60.8364 403.5 60.3273 403.5 59.5636C403.5 58.8 402.991 58.2909 402.227 58.2909H398.918V57.2727C398.918 55.2364 397.264 53.7091 395.355 53.7091H394.336V50.2727C394.336 49.5091 393.827 49 393.064 49C392.3 49 391.791 49.5091 391.791 50.2727V53.5818H387.336V50.2727C387.336 49.5091 386.827 49 386.064 49C385.3 49 384.791 49.5091 384.791 50.2727V53.5818H383.773C381.736 53.5818 380.209 55.2364 380.209 57.1455V58.1636H376.773C376.009 58.1636 375.5 58.6727 375.5 59.4364C375.5 60.2 376.009 60.7091 376.773 60.7091H380.082V65.1636H376.773C376.009 65.1636 375.5 65.6727 375.5 66.4364C375.5 67.2 376.009 67.7091 376.773 67.7091H380.082V68.7273C380.082 70.7636 381.736 72.2909 383.645 72.2909H384.664V75.7273C384.664 76.4909 385.173 77 385.936 77C386.7 77 387.209 76.4909 387.209 75.7273V72.4182H391.664V75.7273C391.664 76.4909 392.173 77 392.936 77C393.7 77 394.209 76.4909 394.209 75.7273V72.4182H395.227C397.264 72.4182 398.791 70.7636 398.791 68.8545V67.8364H402.227C402.991 67.8364 403.5 67.3273 403.5 66.5636C403.5 65.8 402.991 65.1636 402.227 65.1636ZM396.373 68.7273C396.373 69.3636 395.864 69.7455 395.355 69.7455H383.773C383.136 69.7455 382.755 69.2364 382.755 68.7273V57.2727C382.627 56.6364 383.136 56.1273 383.773 56.1273H395.355C395.991 56.1273 396.373 56.6364 396.373 57.1455V68.7273Z" fill="#ECECEC"/>
<rect x="14.5" y="297.5" width="67" height="67" rx="11.5" fill="#F9FBFF"/>
<rect x="14.5" y="297.5" width="67" height="67" rx="11.5" stroke="#ECECEC"/>
<path d="M43.9273 328.2C44.6909 328.2 45.2 327.691 45.2 326.927C45.2 325.4 46.4727 324.127 48 324.127C49.5273 324.127 50.8 325.4 50.8 326.927C50.8 327.691 51.3091 328.2 52.0727 328.2C52.8364 328.2 53.3455 327.691 53.3455 326.927C53.3455 324 50.9273 321.582 48 321.582C45.0727 321.582 42.6545 324 42.6545 326.927C42.6545 327.564 43.2909 328.2 43.9273 328.2Z" fill="#ECECEC"/>
<path d="M60.7273 329.727H35.2727C34.5091 329.727 34 330.236 34 331C34 331.764 34.5091 332.273 35.2727 332.273H41.7636C41 333.036 40.3636 333.927 39.9818 334.945C39.6 335.964 39.7273 337.109 40.2364 338C40.8727 338.891 41.8909 339.527 43.0364 339.527H52.7091C53.8545 339.527 54.8727 339.018 55.5091 338C56.1455 337.109 56.2727 335.964 55.7636 334.945C55.3818 333.927 54.7455 333.036 53.9818 332.273H60.7273C61.4909 332.273 62 331.764 62 331C62 330.236 61.4909 329.727 60.7273 329.727ZM53.6 335.964C53.7273 336.218 53.6 336.473 53.4727 336.6C53.3455 336.855 53.0909 336.982 52.7091 336.982H43.1636C42.9091 336.982 42.6545 336.855 42.4 336.6C42.2727 336.473 42.1455 336.218 42.2727 335.964C43.0364 334.055 44.8182 332.655 46.8545 332.273H48.8909C51.0545 332.655 52.8364 334.055 53.6 335.964Z" fill="#ECECEC"/>
<path d="M60.7273 335.455C59.9636 335.455 59.4545 335.964 59.4545 336.727V339.018C59.4545 340.927 57.9273 342.327 56.1455 342.327H53.8545C53.0909 342.327 52.5818 342.836 52.5818 343.6C52.5818 344.364 53.0909 344.873 53.8545 344.873H56.1455C59.4545 344.873 62 342.2 62 339.018V336.727C62 336.091 61.4909 335.455 60.7273 335.455Z" fill="#ECECEC"/>
<path d="M42.2727 342.455H39.8545C38.0727 342.455 36.5455 340.927 36.5455 339.145V336.855C36.5455 336.091 36.0364 335.582 35.2727 335.582C34.5091 335.582 34 336.091 34 336.855V339.145C34 342.327 36.6727 345 39.8545 345H42.1455C42.9091 345 43.4182 344.491 43.4182 343.727C43.4182 342.964 42.9091 342.455 42.2727 342.455Z" fill="#ECECEC"/>
<path d="M35.2727 326.545C36.0364 326.545 36.5455 326.036 36.5455 325.273V322.855C36.5455 321.073 38.0727 319.545 39.8545 319.545H42.1455C42.9091 319.545 43.4182 319.036 43.4182 318.273C43.4182 317.509 42.9091 317 42.2727 317H39.8545C36.6727 317 34 319.673 34 322.855V325.145C34 325.909 34.5091 326.545 35.2727 326.545Z" fill="#ECECEC"/>
<path d="M56.1455 317H53.8545C53.0909 317 52.5818 317.509 52.5818 318.273C52.5818 319.036 53.0909 319.545 53.8545 319.545H56.1455C57.9273 319.545 59.4545 321.073 59.4545 322.855V325.145C59.4545 325.909 59.9636 326.418 60.7273 326.418C61.4909 326.418 62 325.909 62 325.145V322.855C62 319.673 59.3273 317 56.1455 317Z" fill="#ECECEC"/>
<path d="M472 344H512" stroke="url(#paint13_linear_493_113389)" stroke-width="2"/>
<path d="M579 488L656 488" stroke="#ECECEC"/>
<path d="M539 497V579" stroke="#ECECEC"/>
<path d="M556 498V525.953C556 534.79 563.163 541.953 572 541.953H645C653.837 541.953 661 549.117 661 557.953V582" stroke="#ECECEC"/>
<path d="M578.5 463H588C596.837 463 604 455.837 604 447V274.994C604 266.158 611.163 258.994 620 258.994H688C696.837 258.994 704 251.831 704 242.994V231" stroke="#ECECEC"/>
<path d="M579 476L625 476C633.837 476 641 468.837 641 460L641 365" stroke="#ECECEC"/>
<path d="M473 211H512" stroke="#ECECEC"/>
<path d="M310 297L310 205C310 200.582 306.418 197 302 197V197" stroke="#ECECEC"/>
<path d="M578.5 447.5V447.5C585.403 447.5 590.999 441.904 590.999 435.001L590.999 295.5C590.999 286.664 583.836 279.5 574.999 279.5L340 279.5C331.164 279.5 324.001 286.663 324 295.499L324 297" stroke="#ECECEC"/>
<path d="M181 297L181 214C181 205.163 173.837 198 165 198L158 198" stroke="#ECECEC"/>
<path d="M120 498L120 579" stroke="#ECECEC"/>
<path d="M257 650L257 729" stroke="#ECECEC"/>
<path d="M376 646L376 728" stroke="#ECECEC"/>
<path d="M388 647L388 697C388 705.837 395.163 713 404 713L530 713C538.837 713 546 720.164 546 729V729" stroke="#ECECEC"/>
<path d="M410 614L415.5 614C424.337 614 431.5 621.163 431.5 630L431.5 677.5C431.5 686.336 438.664 693.5 447.5 693.5L700 693.5C708.837 693.5 716 700.663 716 709.5L716 729" stroke="#ECECEC"/>
<path d="M238 650L238 684.514C238 693.351 230.837 700.514 222 700.514L167 700.514C158.163 700.514 151 707.678 151 716.514L151 728" stroke="#ECECEC"/>
<path d="M120 430V349C120 340.163 112.837 333 104 333H82" stroke="#ECECEC"/>
<path d="M263 164L263 97" stroke="#ECECEC"/>
<path d="M391 97V97C391 103.627 385.627 109 379 109H293C284.163 109 277 116.163 277 125V164" stroke="#ECECEC"/>
<path d="M157 65H199C207.837 65 215 72.1635 215 81V297" stroke="#ECECEC"/>
<path d="M473 197.499L477.5 197.499C486.336 197.499 493.5 190.336 493.5 181.499L493.501 96.9999" stroke="#ECECEC"/>
<path d="M384 344H344" stroke="url(#paint14_linear_493_113389)" stroke-width="2"/>
<path d="M276 344H236" stroke="#ECECEC"/>
<path d="M276 364H271.837C263.001 364 255.837 371.163 255.837 380V394.5C255.837 403.337 248.674 410.5 239.837 410.5H168C159.163 410.5 152 417.663 152 426.5V430" stroke="#ECECEC"/>
<path d="M296 391V430" stroke="#ECECEC"/>
<path d="M344 356L360 356C368.836 356 376 363.163 376 372L376 579" stroke="#ECECEC"/>
<path d="M344 368V368C352.837 368 360 375.163 360 384V544.551C360 553.388 352.837 560.551 344 560.551H274C265.163 560.551 258 567.715 258 576.551V582" stroke="#ECECEC"/>
<path d="M428 299V257" stroke="url(#paint15_linear_493_113389)" stroke-width="2"/>
<path d="M428 389L428 429" stroke="url(#paint16_linear_493_113389)" stroke-width="2"/>
<defs>
<filter id="filter0_d_493_113389" x="375" y="291" width="108" height="110" filterUnits="userSpaceOnUse" color-interpolation-filters="sRGB">
<feFlood flood-opacity="0" result="BackgroundImageFix"/>
<feColorMatrix in="SourceAlpha" type="matrix" values="0 0 0 0 0 0 0 0 0 0 0 0 0 0 0 0 0 0 127 0" result="hardAlpha"/>
<feOffset dx="1" dy="2"/>
<feGaussianBlur stdDeviation="5"/>
<feComposite in2="hardAlpha" operator="out"/>
<feColorMatrix type="matrix" values="0 0 0 0 0.00780001 0 0 0 0 0.045344 0 0 0 0 0.0800001 0 0 0 0.04 0"/>
<feBlend mode="normal" in2="BackgroundImageFix" result="effect1_dropShadow_493_113389"/>
<feBlend mode="normal" in="SourceGraphic" in2="effect1_dropShadow_493_113389" result="shape"/>
</filter>
<filter id="filter1_d_493_113389" x="374" y="155" width="110" height="114" filterUnits="userSpaceOnUse" color-interpolation-filters="sRGB">
<feFlood flood-opacity="0" result="BackgroundImageFix"/>
<feColorMatrix in="SourceAlpha" type="matrix" values="0 0 0 0 0 0 0 0 0 0 0 0 0 0 0 0 0 0 127 0" result="hardAlpha"/>
<feOffset dx="1" dy="2"/>
<feGaussianBlur stdDeviation="5"/>
<feComposite in2="hardAlpha" operator="out"/>
<feColorMatrix type="matrix" values="0 0 0 0 0.00780001 0 0 0 0 0.045344 0 0 0 0 0.0800001 0 0 0 0.04 0"/>
<feBlend mode="normal" in2="BackgroundImageFix" result="effect1_dropShadow_493_113389"/>
<feBlend mode="normal" in="SourceGraphic" in2="effect1_dropShadow_493_113389" result="shape"/>
</filter>
<filter id="filter2_d_493_113389" x="267" y="289" width="88" height="114" filterUnits="userSpaceOnUse" color-interpolation-filters="sRGB">
<feFlood flood-opacity="0" result="BackgroundImageFix"/>
<feColorMatrix in="SourceAlpha" type="matrix" values="0 0 0 0 0 0 0 0 0 0 0 0 0 0 0 0 0 0 127 0" result="hardAlpha"/>
<feOffset dx="1" dy="2"/>
<feGaussianBlur stdDeviation="5"/>
<feComposite in2="hardAlpha" operator="out"/>
<feColorMatrix type="matrix" values="0 0 0 0 0.00780001 0 0 0 0 0.045344 0 0 0 0 0.0800001 0 0 0 0.04 0"/>
<feBlend mode="normal" in2="BackgroundImageFix" result="effect1_dropShadow_493_113389"/>
<feBlend mode="normal" in="SourceGraphic" in2="effect1_dropShadow_493_113389" result="shape"/>
</filter>
<filter id="filter3_d_493_113389" x="385" y="421" width="88" height="114" filterUnits="userSpaceOnUse" color-interpolation-filters="sRGB">
<feFlood flood-opacity="0" result="BackgroundImageFix"/>
<feColorMatrix in="SourceAlpha" type="matrix" values="0 0 0 0 0 0 0 0 0 0 0 0 0 0 0 0 0 0 127 0" result="hardAlpha"/>
<feOffset dx="1" dy="2"/>
<feGaussianBlur stdDeviation="5"/>
<feComposite in2="hardAlpha" operator="out"/>
<feColorMatrix type="matrix" values="0 0 0 0 0.00780001 0 0 0 0 0.045344 0 0 0 0 0.0800001 0 0 0 0.04 0"/>
<feBlend mode="normal" in2="BackgroundImageFix" result="effect1_dropShadow_493_113389"/>
<feBlend mode="normal" in="SourceGraphic" in2="effect1_dropShadow_493_113389" result="shape"/>
</filter>
<filter id="filter4_d_493_113389" x="503" y="289" width="88" height="114" filterUnits="userSpaceOnUse" color-interpolation-filters="sRGB">
<feFlood flood-opacity="0" result="BackgroundImageFix"/>
<feColorMatrix in="SourceAlpha" type="matrix" values="0 0 0 0 0 0 0 0 0 0 0 0 0 0 0 0 0 0 127 0" result="hardAlpha"/>
<feOffset dx="1" dy="2"/>
<feGaussianBlur stdDeviation="5"/>
<feComposite in2="hardAlpha" operator="out"/>
<feColorMatrix type="matrix" values="0 0 0 0 0.00780001 0 0 0 0 0.045344 0 0 0 0 0.0800001 0 0 0 0.04 0"/>
<feBlend mode="normal" in2="BackgroundImageFix" result="effect1_dropShadow_493_113389"/>
<feBlend mode="normal" in="SourceGraphic" in2="effect1_dropShadow_493_113389" result="shape"/>
</filter>
<radialGradient id="paint0_radial_493_113389" cx="0" cy="0" r="1" gradientUnits="userSpaceOnUse" gradientTransform="translate(440 321) rotate(120.7) scale(37.2156)">
<stop offset="0.338542" stop-color="#7A73FF"/>
<stop offset="0.722638" stop-color="#75CDFF"/>
<stop offset="1" stop-color="#4AFCF1"/>
</radialGradient>
<radialGradient id="paint1_radial_493_113389" cx="0" cy="0" r="1" gradientUnits="userSpaceOnUse" gradientTransform="translate(429.5 202) rotate(99.7276) scale(19.0235)">
<stop offset="0.055" stop-color="#7A73FF"/>
<stop offset="0.65" stop-color="#67DDFA"/>
<stop offset="1" stop-color="#4AFCF1"/>
</radialGradient>
<radialGradient id="paint2_radial_493_113389" cx="0" cy="0" r="1" gradientUnits="userSpaceOnUse" gradientTransform="translate(429.5 202) rotate(99.7276) scale(19.0235)">
<stop offset="0.055" stop-color="#7A73FF"/>
<stop offset="0.65" stop-color="#67DDFA"/>
<stop offset="1" stop-color="#4AFCF1"/>
</radialGradient>
<radialGradient id="paint3_radial_493_113389" cx="0" cy="0" r="1" gradientUnits="userSpaceOnUse" gradientTransform="translate(309.6 335) rotate(98.7708) scale(17.7071 16.0233)">
<stop offset="0.055" stop-color="#7A73FF"/>
<stop offset="0.65" stop-color="#67DDFA"/>
<stop offset="1" stop-color="#4AFCF1"/>
</radialGradient>
<radialGradient id="paint4_radial_493_113389" cx="0" cy="0" r="1" gradientUnits="userSpaceOnUse" gradientTransform="translate(309.6 335) rotate(98.7708) scale(17.7071 16.0233)">
<stop offset="0.055" stop-color="#7A73FF"/>
<stop offset="0.65" stop-color="#67DDFA"/>
<stop offset="1" stop-color="#4AFCF1"/>
</radialGradient>
<radialGradient id="paint5_radial_493_113389" cx="0" cy="0" r="1" gradientUnits="userSpaceOnUse" gradientTransform="translate(309.6 335) rotate(98.7708) scale(17.7071 16.0233)">
<stop offset="0.055" stop-color="#7A73FF"/>
<stop offset="0.65" stop-color="#67DDFA"/>
<stop offset="1" stop-color="#4AFCF1"/>
</radialGradient>
<radialGradient id="paint6_radial_493_113389" cx="0" cy="0" r="1" gradientUnits="userSpaceOnUse" gradientTransform="translate(309.6 335) rotate(98.7708) scale(17.7071 16.0233)">
<stop offset="0.055" stop-color="#7A73FF"/>
<stop offset="0.65" stop-color="#67DDFA"/>
<stop offset="1" stop-color="#4AFCF1"/>
</radialGradient>
<radialGradient id="paint7_radial_493_113389" cx="0" cy="0" r="1" gradientUnits="userSpaceOnUse" gradientTransform="translate(309.6 335) rotate(98.7708) scale(17.7071 16.0233)">
<stop offset="0.055" stop-color="#7A73FF"/>
<stop offset="0.65" stop-color="#67DDFA"/>
<stop offset="1" stop-color="#4AFCF1"/>
</radialGradient>
<radialGradient id="paint8_radial_493_113389" cx="0" cy="0" r="1" gradientUnits="userSpaceOnUse" gradientTransform="translate(309.6 335) rotate(98.7708) scale(17.7071 16.0233)">
<stop offset="0.055" stop-color="#7A73FF"/>
<stop offset="0.65" stop-color="#67DDFA"/>
<stop offset="1" stop-color="#4AFCF1"/>
</radialGradient>
<radialGradient id="paint9_radial_493_113389" cx="0" cy="0" r="1" gradientUnits="userSpaceOnUse" gradientTransform="translate(428.4 467) rotate(100.679) scale(17.8084 19.4727)">
<stop offset="0.055" stop-color="#7A73FF"/>
<stop offset="0.65" stop-color="#67DDFA"/>
<stop offset="1" stop-color="#4AFCF1"/>
</radialGradient>
<radialGradient id="paint10_radial_493_113389" cx="0" cy="0" r="1" gradientUnits="userSpaceOnUse" gradientTransform="translate(428.4 467) rotate(100.679) scale(17.8084 19.4727)">
<stop offset="0.055" stop-color="#7A73FF"/>
<stop offset="0.65" stop-color="#67DDFA"/>
<stop offset="1" stop-color="#4AFCF1"/>
</radialGradient>
<radialGradient id="paint11_radial_493_113389" cx="0" cy="0" r="1" gradientUnits="userSpaceOnUse" gradientTransform="translate(546 335) rotate(103.65) scale(15.436 21.2566)">
<stop offset="0.055" stop-color="#7A73FF"/>
<stop offset="0.65" stop-color="#67DDFA"/>
<stop offset="1" stop-color="#4AFCF1"/>
</radialGradient>
<radialGradient id="paint12_radial_493_113389" cx="0" cy="0" r="1" gradientUnits="userSpaceOnUse" gradientTransform="translate(546 335) rotate(103.65) scale(15.436 21.2566)">
<stop offset="0.055" stop-color="#7A73FF"/>
<stop offset="0.65" stop-color="#67DDFA"/>
<stop offset="1" stop-color="#4AFCF1"/>
</radialGradient>
<linearGradient id="paint13_linear_493_113389" x1="534.5" y1="343" x2="534.01" y2="349.761" gradientUnits="userSpaceOnUse">
<stop offset="0.338542" stop-color="#7A73FF"/>
<stop offset="0.734375" stop-color="#75CDFF"/>
<stop offset="1" stop-color="#4AFCF1"/>
</linearGradient>
<linearGradient id="paint14_linear_493_113389" x1="321.5" y1="343" x2="321.99" y2="349.761" gradientUnits="userSpaceOnUse">
<stop offset="0.338542" stop-color="#7A73FF"/>
<stop offset="0.734375" stop-color="#75CDFF"/>
<stop offset="1" stop-color="#4AFCF1"/>
</linearGradient>
<linearGradient id="paint15_linear_493_113389" x1="427" y1="233.375" x2="433.764" y2="233.842" gradientUnits="userSpaceOnUse">
<stop offset="0.338542" stop-color="#7A73FF"/>
<stop offset="0.734375" stop-color="#75CDFF"/>
<stop offset="1" stop-color="#4AFCF1"/>
</linearGradient>
<linearGradient id="paint16_linear_493_113389" x1="427" y1="451.5" x2="433.761" y2="451.01" gradientUnits="userSpaceOnUse">
<stop offset="0.338542" stop-color="#7A73FF"/>
<stop offset="0.734375" stop-color="#75CDFF"/>
<stop offset="1" stop-color="#4AFCF1"/>
</linearGradient>
</defs>
</svg>
